<?xml version="1.0" encoding="UTF-8" standalone="no"?>
<!-- Created with Inkscape (http://www.inkscape.org/) -->

<svg
   xmlns:dc="http://purl.org/dc/elements/1.1/"
   xmlns:cc="http://creativecommons.org/ns#"
   xmlns:rdf="http://www.w3.org/1999/02/22-rdf-syntax-ns#"
   xmlns:svg="http://www.w3.org/2000/svg"
   xmlns="http://www.w3.org/2000/svg"
   xmlns:sodipodi="http://sodipodi.sourceforge.net/DTD/sodipodi-0.dtd"
   xmlns:inkscape="http://www.inkscape.org/namespaces/inkscape"
   width="480"
   height="320"
   id="svg2"
   version="1.1"
   inkscape:version="0.47 r22583"
   sodipodi:docname="itnas204.svg"
   inkscape:export-xdpi="90"
   inkscape:export-ydpi="90"
   sodipodi:version="0.32"
   inkscape:output_extension="org.inkscape.output.svg.inkscape"
   inkscape:export-filename="D:\My Documents\ITNAS\itnas204.png">
  <defs
     id="defs4">
    <clipPath
       clipPathUnits="userSpaceOnUse"
       id="clipPath3791">
      <rect
         style="color:#000000;fill:none;stroke:#ff00cc;stroke-width:1;stroke-linecap:butt;stroke-linejoin:miter;stroke-miterlimit:4;stroke-opacity:1;stroke-dasharray:none;stroke-dashoffset:0;marker:none;visibility:visible;display:inline;overflow:visible;enable-background:accumulate"
         id="rect3793"
         width="240"
         height="320"
         x="0"
         y="0" />
    </clipPath>
    <clipPath
       clipPathUnits="userSpaceOnUse"
       id="clipPath3799">
      <rect
         y="0"
         x="240"
         height="320"
         width="240"
         id="rect3801"
         style="color:#000000;fill:none;stroke:#ff00cc;stroke-width:1;stroke-linecap:butt;stroke-linejoin:miter;stroke-miterlimit:4;stroke-opacity:1;stroke-dasharray:none;stroke-dashoffset:0;marker:none;visibility:visible;display:inline;overflow:visible;enable-background:accumulate" />
    </clipPath>
  </defs>
  <sodipodi:namedview
     id="base"
     pagecolor="#ffffff"
     bordercolor="#666666"
     borderopacity="1.0"
     inkscape:pageopacity="1"
     inkscape:pageshadow="2"
     inkscape:zoom="1"
     inkscape:cx="256.00958"
     inkscape:cy="158.19673"
     inkscape:document-units="px"
     inkscape:current-layer="layer1"
     showgrid="false"
     inkscape:snap-nodes="true"
     inkscape:snap-global="true"
     inkscape:snap-grids="true"
     showguides="true"
     inkscape:window-width="1280"
     inkscape:window-height="774"
     inkscape:window-x="1276"
     inkscape:window-y="1020"
     inkscape:window-maximized="1">
    <inkscape:grid
       empspacing="5"
       visible="true"
       enabled="true"
       snapvisiblegridlinesonly="true"
       type="xygrid"
       id="grid2816" />
  </sodipodi:namedview>
  <metadata
     id="metadata7">
    <rdf:RDF>
      <cc:Work
         rdf:about="">
        <dc:format>image/svg+xml</dc:format>
        <dc:type
           rdf:resource="http://purl.org/dc/dcmitype/StillImage" />
        <dc:title></dc:title>
      </cc:Work>
    </rdf:RDF>
  </metadata>
  <g
     inkscape:label="Layer 1"
     inkscape:groupmode="layer"
     id="layer1"
     transform="translate(0,0)">
    <g
       id="g3753"
       clip-path="url(#clipPath3791)">
      <g
         transform="matrix(3.9297594,0,0,3.9297594,-224.11989,-301.74235)"
         id="g2624">
        <path
           sodipodi:type="arc"
           style="fill:none;stroke:#94f3f3;stroke-width:2.08756256;stroke-linecap:butt;stroke-linejoin:miter;stroke-miterlimit:4;stroke-opacity:1;stroke-dasharray:none;stroke-dashoffset:0;marker:none;visibility:visible;display:inline;overflow:visible;enable-background:accumulate"
           id="path2813"
           sodipodi:cx="108.54089"
           sodipodi:cy="60.845364"
           sodipodi:rx="28.637825"
           sodipodi:ry="28.637825"
           d="m 137.17872,60.845364 c 0,7.595223 -3.01719,14.879366 -8.38783,20.25 l -20.25,-20.25 z"
           transform="matrix(0.7740359,-0.3206162,0.3206162,0.7740359,-31.006067,110.12456)"
           sodipodi:start="0"
           sodipodi:end="0.78539816" />
        <path
           sodipodi:type="arc"
           style="fill:none;stroke:#94f3f3;stroke-width:2.08756256;stroke-linecap:butt;stroke-linejoin:miter;stroke-miterlimit:4;stroke-opacity:1;stroke-dasharray:none;stroke-dashoffset:0;marker:none;visibility:visible;display:inline;overflow:visible;enable-background:accumulate"
           id="path2813-82"
           sodipodi:cx="108.54089"
           sodipodi:cy="60.845364"
           sodipodi:rx="28.637825"
           sodipodi:ry="28.637825"
           d="m 137.17872,60.845364 c 0,7.595223 -3.01719,14.879366 -8.38783,20.25 l -20.25,-20.25 z"
           transform="matrix(-0.7740359,0.3206162,-0.3206162,-0.7740359,176.03905,134.71762)"
           sodipodi:start="0"
           sodipodi:end="0.78539816" />
        <path
           sodipodi:type="arc"
           style="fill:none;stroke:#94f3f3;stroke-width:2.08756256;stroke-linecap:butt;stroke-linejoin:miter;stroke-miterlimit:4;stroke-opacity:1;stroke-dasharray:none;stroke-dashoffset:0;marker:none;visibility:visible;display:inline;overflow:visible;enable-background:accumulate"
           id="path2813-82-7"
           sodipodi:cx="108.54089"
           sodipodi:cy="60.845364"
           sodipodi:rx="28.637825"
           sodipodi:ry="28.637825"
           d="m 137.17872,60.845364 c 0,7.595223 -3.01719,14.879366 -8.38783,20.25 l -20.25,-20.25 z"
           transform="matrix(-0.3206162,-0.7740359,0.7740359,-0.3206162,60.21996,225.94365)"
           sodipodi:start="0"
           sodipodi:end="0.78539816" />
        <path
           style="fill:none;stroke:#94f3f3;stroke-width:2.00348139;stroke-linecap:butt;stroke-linejoin:miter;stroke-miterlimit:4;stroke-opacity:1;stroke-dasharray:none;stroke-dashoffset:0;marker:none;visibility:visible;display:inline;overflow:visible;enable-background:accumulate"
           d="m 72.540945,121.38694 0,33.64154"
           id="path2611" />
      </g>
      <g
         id="g2638"
         transform="matrix(3.2501008,0,0,3.2501008,4.314093,-194.5639)">
        <path
           sodipodi:end="0.78539816"
           sodipodi:start="0"
           transform="matrix(0.7740359,-0.3206162,0.3206162,0.7740359,-31.006067,110.12456)"
           d="m 137.17872,60.845364 c 0,7.595223 -3.01719,14.879366 -8.38783,20.25 l -20.25,-20.25 z"
           sodipodi:ry="28.637825"
           sodipodi:rx="28.637825"
           sodipodi:cy="60.845364"
           sodipodi:cx="108.54089"
           id="path2640"
           style="fill:none;stroke:#94f3f3;stroke-width:2.52411222;stroke-linecap:butt;stroke-linejoin:miter;stroke-miterlimit:4;stroke-opacity:1;stroke-dasharray:none;stroke-dashoffset:0;marker:none;visibility:visible;display:inline;overflow:visible;enable-background:accumulate"
           sodipodi:type="arc" />
        <path
           sodipodi:end="0.78539816"
           sodipodi:start="0"
           transform="matrix(-0.7740359,0.3206162,-0.3206162,-0.7740359,176.03905,134.71762)"
           d="m 137.17872,60.845364 c 0,7.595223 -3.01719,14.879366 -8.38783,20.25 l -20.25,-20.25 z"
           sodipodi:ry="28.637825"
           sodipodi:rx="28.637825"
           sodipodi:cy="60.845364"
           sodipodi:cx="108.54089"
           id="path2642"
           style="fill:none;stroke:#94f3f3;stroke-width:2.52411222;stroke-linecap:butt;stroke-linejoin:miter;stroke-miterlimit:4;stroke-opacity:1;stroke-dasharray:none;stroke-dashoffset:0;marker:none;visibility:visible;display:inline;overflow:visible;enable-background:accumulate"
           sodipodi:type="arc" />
        <path
           sodipodi:end="0.78539816"
           sodipodi:start="0"
           transform="matrix(-0.3206162,-0.7740359,0.7740359,-0.3206162,60.21996,225.94365)"
           d="m 137.17872,60.845364 c 0,7.595223 -3.01719,14.879366 -8.38783,20.25 l -20.25,-20.25 z"
           sodipodi:ry="28.637825"
           sodipodi:rx="28.637825"
           sodipodi:cy="60.845364"
           sodipodi:cx="108.54089"
           id="path2644"
           style="fill:none;stroke:#94f3f3;stroke-width:2.52411222;stroke-linecap:butt;stroke-linejoin:miter;stroke-miterlimit:4;stroke-opacity:1;stroke-dasharray:none;stroke-dashoffset:0;marker:none;visibility:visible;display:inline;overflow:visible;enable-background:accumulate"
           sodipodi:type="arc" />
        <path
           id="path2646"
           d="m 72.540945,121.38694 0,33.64154"
           style="fill:none;stroke:#94f3f3;stroke-width:2.42244768;stroke-linecap:butt;stroke-linejoin:miter;stroke-miterlimit:4;stroke-opacity:1;stroke-dasharray:none;stroke-dashoffset:0;marker:none;visibility:visible;display:inline;overflow:visible;enable-background:accumulate" />
      </g>
      <path
         id="path2650"
         d="m -4.53,308.179 492,0"
         style="fill:none;stroke:#000000;stroke-width:4;stroke-linecap:butt;stroke-linejoin:miter;stroke-miterlimit:4;stroke-opacity:1;stroke-dasharray:none" />
      <path
         d="m 145.12732,147.0273 -14.13718,24.49777 m 4.47845,-21.90762 14.83901,16.72733 -21.90761,-4.47846 7.0686,-12.24887 z"
         style="fill:none;stroke:#b15f13;stroke-width:2;stroke-linecap:butt;stroke-linejoin:miter;stroke-miterlimit:4;stroke-opacity:1;stroke-dasharray:none"
         id="path3765" />
      <path
         sodipodi:nodetypes="csssss"
         id="path2826-1-1-1"
         d="m 285.88273,264.98718 c -3.34987,2.60876 -6.89444,4.78069 -12.32276,5.84774 -18.27328,3.59201 -37.73535,1.05041 -64.16023,-1.44458 -30.26496,-2.86937 -39.84674,3.88727 -52.55076,14.74247 -10.54834,9.01324 -19.31222,14.4375 -37.69332,15.27628 -15.47941,0.70637 -35.823029,-3.86629 -49.887577,-11.80163"
         style="fill:none;stroke:#00ff00;stroke-width:4;stroke-linecap:butt;stroke-linejoin:miter;stroke-miterlimit:4;stroke-opacity:1;stroke-dasharray:none;marker-start:none;marker-mid:none;marker-end:none" />
      <g
         transform="matrix(0.05662409,-0.7979935,-0.7979935,-0.05662409,319.36711,432.70023)"
         id="g2942">
        <path
           style="fill:none;stroke:#0000ff;stroke-width:5;stroke-linecap:butt;stroke-linejoin:miter;stroke-miterlimit:4;stroke-opacity:1;stroke-dasharray:none"
           d="m 206.66319,105.19515 c -7.91409,4.26712 -8.11323,10.1635 -0.17602,15.48704"
           id="rect10452-1-7-4-2-2"
           sodipodi:nodetypes="cc" />
        <path
           style="fill:none;stroke:#0000ff;stroke-width:5;stroke-linecap:butt;stroke-linejoin:miter;stroke-miterlimit:4;stroke-opacity:1;stroke-dasharray:none"
           d="m 179.489,105.38873 c 8.38416,3.32675 8.29912,11.94162 0.0734,15.23703"
           id="rect10452-1-4-4-0-7-4"
           sodipodi:nodetypes="cc" />
        <path
           style="fill:none;stroke:#0000ff;stroke-width:5;stroke-linecap:butt;stroke-linejoin:bevel;stroke-miterlimit:4;stroke-opacity:1;stroke-dasharray:none"
           d="m 193.13509,122.31481 0.17678,-18.66053"
           id="rect10452-0-7-4-1-5" />
      </g>
      <path
         sodipodi:nodetypes="czzzc"
         id="path3030-6-8"
         d="m 224.77682,283.66051 c -2.33698,-4.41559 -6.40944,-9.04539 -7.78481,-13.6189 -1.37539,-4.57351 0.73915,-9.06336 4.8766,-8.60561 4.13746,0.45776 5.46393,5.07099 3.61075,9.49562 -1.8532,4.42461 -7.18822,7.3933 -11.17431,10.95187"
         style="fill:none;stroke:#0000ff;stroke-width:3.99999976;stroke-linecap:butt;stroke-linejoin:miter;stroke-miterlimit:4;stroke-opacity:1;stroke-dasharray:none" />
      <path
         sodipodi:nodetypes="cccccccccc"
         d="m 209.80028,269.51856 c 0,0 -0.003,3.22996 -0.003,3.22996 0,0 -15.22771,16.30954 -15.22771,16.30954 0,0 21.80561,16.17377 21.80561,16.17377 0,0 8.86012,-0.025 8.86012,-0.025 m -15.43478,-35.68828 c 0,0 -0.25324,3.22996 -0.25324,3.22996 0,0 -19.35271,13.93454 -19.35271,13.93454 0,0 19.49311,18.54877 19.49311,18.54877 0,0 8.86012,-0.025 8.86012,-0.025"
         style="fill:none;stroke:#00ff00;stroke-width:2px;stroke-linecap:butt;stroke-linejoin:miter;stroke-opacity:1"
         id="path10436-7-5-1" />
    </g>
    <g
       id="g3774"
       clip-path="url(#clipPath3799)">
      <path
         sodipodi:nodetypes="csssssssssssssssss"
         id="path2870"
         d="m 281.94368,256.66204 c 0.75716,-1.0578 5.03769,1.6999 7.2801,2.2698 1.82238,0.4632 3.73476,0.6436 5.47487,1.2945 1.93006,0.722 3.75899,1.7172 5.71864,2.3536 2.94166,0.9554 5.99579,1.6222 9.01165,2.3705 1.47444,0.3658 2.98023,0.091 4.25364,0.8864 1.58133,0.9885 4.93479,1.0471 5.01655,2.3385 0.076,1.2005 -3.01378,1.6179 -4.132,2.8891 -3.59407,4.0856 -6.21026,3.6962 -9.54952,4.8728 -2.35721,0.8305 -4.71148,0.7263 -6.94979,1.7604 -2.45458,1.1341 -4.43905,2.9995 -6.87922,4.1664 -1.53542,0.7343 -3.2151,0.9185 -4.76571,1.5383 -2.3175,0.9263 -1.23172,-1.8772 -1.21129,-2.9458 0.0378,-1.9778 -0.30028,-3.9319 -0.37175,-5.9035 -0.0618,-1.704 -0.90171,-3.3116 -0.81987,-5.0737 0.0885,-1.905 0.20546,-3.8727 -0.16174,-5.7389 -0.35156,-1.7867 -0.82643,-3.5803 -1.41104,-5.3339 -0.28726,-0.8616 -0.88573,-1.2105 -0.50352,-1.7445 z"
         style="color:#000000;fill:none;stroke:#80ff00;stroke-width:3.99999976;stroke-linecap:round;stroke-linejoin:round;stroke-miterlimit:4;stroke-opacity:1;stroke-dasharray:none;stroke-dashoffset:0;marker:none;visibility:visible;display:inline;overflow:visible;enable-background:accumulate" />
      <path
         sodipodi:nodetypes="csssssss"
         id="path2833"
         d="m 282.07066,270.40175 c -2.67165,0.76296 -4.89143,1.77144 -7.81709,1.75096 -3.03634,-0.0216 -6.05102,-0.474 -9.128,-0.84584 -3.38913,-0.40952 -7.83081,0.30072 -11.61625,0.55516 -4.71925,0.3172 -9.11064,0.58512 -13.90797,0.26744 -5.84946,-0.38744 -11.69961,-3.10532 -17.61983,-2.72076 -2.97702,0.19336 -5.88519,0.66576 -8.89796,0.60168 -2.32398,-0.0496 -7.41276,-0.5208 -9.10413,-1.38728"
         style="color:#000000;fill:none;stroke:#80ff00;stroke-width:4;stroke-linecap:round;stroke-linejoin:round;stroke-miterlimit:4;stroke-opacity:1;stroke-dasharray:none;stroke-dashoffset:0;marker:none;visibility:visible;display:inline;overflow:visible;enable-background:accumulate" />
      <path
         id="path2958"
         d="m 253.02381,303.95561 c 0.16928,-0.58817 1.07896,-3.74822 1.52976,-5.31407 1.47656,-4.91405 4.7296,-6.33816 7.79448,-12.17505 1.20048,-3.49759 5.51048,-10.00095 6.4852,-11.76746 1.33744,3.88743 2.4984,7.8459 3.87904,11.71282 1.66696,5.99911 4.51992,11.40308 9.78,15.61251 0.76536,0.44762 2.60056,0.87278 1.58712,2.1148"
         style="fill:none;stroke:#80ff00;stroke-width:3.99999952;stroke-linecap:round;stroke-linejoin:round;stroke-miterlimit:4;stroke-opacity:1;stroke-dasharray:none" />
      <path
         sodipodi:nodetypes="cssssssss"
         id="path2832"
         d="m 272.89633,304.03534 c -3.96011,-0.46271 -8.38799,1.54898 -11.93032,0.12839 -3.0621,-1.22801 -6.27057,-3.75102 -7.13656,-7.35915 -1.17899,-4.9122 -2.51391,-9.79828 -3.70507,-14.71181 -1.76343,-7.27413 -0.44708,-14.75481 -0.80142,-22.12994 -0.17757,-3.69601 1.90974,-7.10723 1.79669,-10.86105 -0.15949,-5.29576 -0.36161,-10.5946 -0.015,-15.8974 0.18488,-2.82828 -0.046,-5.73385 -1.48021,-8.31514 -0.86888,-1.56384 -0.13876,-3.47787 -0.1536,-5.19986"
         style="color:#000000;fill:none;stroke:#c87137;stroke-width:4;stroke-linecap:round;stroke-linejoin:round;stroke-miterlimit:4;stroke-opacity:1;stroke-dasharray:none;stroke-dashoffset:0;marker:none;visibility:visible;display:inline;overflow:visible;enable-background:accumulate" />
      <path
         sodipodi:nodetypes="cssssss"
         id="path2850"
         d="m 227.39762,227.14478 c 0.37636,2.83521 0.67088,5.67428 1.08718,8.5333 0.54249,3.72585 0,7.96809 0,11.7333 0,8.57036 1.00299,17.9303 -1.08718,26.13327 -1.10942,4.35401 1.29157,15.39834 0,19.19997 -2.04575,6.02151 -8.69916,8.80085 -14.67676,11.73329 -0.8796,0.43151 -3.28909,0 -4.34867,0"
         style="color:#000000;fill:none;stroke:#c87137;stroke-width:3.99999976;stroke-linecap:round;stroke-linejoin:round;stroke-miterlimit:4;stroke-opacity:1;stroke-dasharray:none;stroke-dashoffset:0;marker:none;visibility:visible;display:inline;overflow:visible;enable-background:accumulate" />
      <path
         sodipodi:nodetypes="cssssssssssssssssssssssssssssssssssssss"
         id="path2827"
         d="m 220.62248,218.25042 c -4.12477,3.62298 -4.3085,5.86096 -9.63268,7.16315 -6.23427,1.52479 -12.64975,0.12733 -18.31786,-1.25178 -10.63995,-2.5888 6.47125,-18.8699 -1.50768,-10.41958 -3.35003,3.54793 -4.71995,3.22323 -9.39615,4.10429 -5.00287,0.94261 -6.7192,1.30104 -9.35002,-5.23097 -2.80459,-6.96338 -3.98152,-14.65778 -3.57648,-22.07809 0.14641,-2.68189 3.3892,-5.85251 5.4308,-6.38828 9.44417,-2.47832 6.7397,-0.48021 -2.0018,-2.61951 -4.24588,-1.03907 -16.05947,-5.60598 -10.85773,-10.92006 3.91585,-4.00042 10.1953,-6.78576 16.11608,-5.36477 2.64094,0.63384 7.14781,0.65025 8.55679,2.83393 4.44973,6.89631 2.67765,5.69405 0.77903,-2.26572 -1.04258,-4.37089 1.47148,-13.90853 2.914,-15.18561 0.37123,-0.32864 2.73544,-4.08421 5.58036,-5.4783 3.21449,-1.57518 5.75201,1.00003 11.06824,4.84829 2.93003,2.12094 3.50098,7.11441 1.3105,-0.20109 -0.15475,-0.51689 2.44849,-5.79507 3.05366,-6.93667 3.14879,-5.94004 6.86583,-6.81628 12.03544,-11.65813 4.83673,-4.53006 12.22741,-5.97515 18.09052,-5.70774 4.58524,0.20914 7.63918,6.84288 10.94095,10.60746 4.04158,4.60811 -0.38406,22.43762 2.5806,16.50616 0.98045,-1.96164 4.94864,-11.656 8.39634,-16.67021 4.13806,-6.01826 9.37792,0.64653 13.77113,2.52508 5.8995,2.52261 11.10516,5.73183 14.00474,12.20236 2.63483,5.8797 4.46526,12.90744 -1.57502,17.64573 -1.65087,1.29503 -13.26543,11.39657 -6.54413,6.38102 3.36815,-2.51338 9.01421,-0.22832 12.31275,1.79442 4.0744,2.49852 7.3812,5.53087 8.61146,10.74875 1.51639,6.43132 -4.38969,10.21086 -9.80048,12.16087 -5.77399,2.08087 -14.70705,8.4017 -16.73031,7.79918 -4.83045,-1.43851 8.15923,4.83631 12.26592,7.47147 4.50754,2.89236 7.38063,10.82592 0.80774,13.35436 -7.6829,2.95541 -15.97799,7.12727 -24.14124,5.73406 -5.93049,-1.01214 -10.98091,-5.46714 -14.27902,-10.01948 -1.5307,-2.11282 -4.00585,-14.07399 -4.64561,-8.67689 -0.56393,4.75736 -5.85405,8.23175 -9.47692,11.70394 -6.08785,5.8346 -13.82686,-4.07559 -14.29341,-7.5976 -0.39185,-2.95832 2.11095,-4.96514 -2.50056,-0.91463 z"
         style="fill:none;stroke:#94f3f3;stroke-width:4;stroke-linecap:round;stroke-linejoin:round;stroke-miterlimit:4;stroke-opacity:1;stroke-dasharray:none" />
      <path
         id="path3669"
         d="m -19.09189,311.13802 c 12.5924605,-1.08022 25.6519705,1.56647 38.18377,0 6.57891,-0.82237 13.15991,-2.16452 19.79899,-2.82843 4.60517,-0.46052 9.50428,0 14.14213,0 11.07801,0 22.156012,0 33.234022,0 30.405598,0 60.811188,0 91.216778,0 39.12657,0 78.25315,0 117.37972,0 12.96363,0 25.92725,0 38.89088,0 5.79521,0 11.91353,-0.57641 17.67767,0 8.25305,0.82531 16.45252,2.13708 24.74873,2.82843 6.96223,0.58018 14.22535,0 21.21321,0 7.75273,0 15.76815,0.55395 23.33452,-0.70711 6.66743,-1.11124 14.45166,0 21.2132,0 15.55635,0 31.1127,0 46.66905,0"
         style="color:#000000;fill:none;stroke:#008000;stroke-width:4;stroke-linecap:butt;stroke-linejoin:miter;stroke-miterlimit:4;stroke-opacity:1;stroke-dasharray:none;stroke-dashoffset:0;marker:none;visibility:visible;display:inline;overflow:visible;enable-background:accumulate" />
      <path
         sodipodi:open="true"
         inkscape:transform-center-y="26.71033"
         inkscape:transform-center-x="-33.38756"
         transform="matrix(-1.1039511,0.026988,-0.02166961,-1.0732392,901.49227,290.79347)"
         sodipodi:end="4.8040282"
         sodipodi:start="0.80631561"
         d="m 446.68696,263.77401 c -14.6488,14.04845 -37.91253,13.56176 -51.96097,-1.08705 -14.04845,-14.6488 -13.56176,-37.91253 1.08705,-51.96097 7.68698,-7.37195 18.19408,-11.04644 28.79999,-10.07179"
         sodipodi:ry="36.75"
         sodipodi:rx="36.75"
         sodipodi:cy="237.25"
         sodipodi:cx="421.25"
         id="path3750"
         style="color:#000000;fill:none;stroke:#ffff00;stroke-width:3.67391968;stroke-linecap:round;stroke-linejoin:round;stroke-miterlimit:4;stroke-opacity:1;stroke-dasharray:none;stroke-dashoffset:0;marker:none;visibility:visible;display:inline;overflow:visible;enable-background:accumulate"
         sodipodi:type="arc" />
      <path
         transform="matrix(1.0992694,-0.10686241,0.10384663,1.0682468,-59.145649,-162.45485)"
         sodipodi:open="true"
         sodipodi:end="4.0435768"
         sodipodi:start="0.73974463"
         sodipodi:type="arc"
         style="color:#000000;fill:none;stroke:#ffff00;stroke-width:3.67391968;stroke-linecap:round;stroke-linejoin:round;stroke-miterlimit:4;stroke-opacity:1;stroke-dasharray:none;stroke-dashoffset:0;marker:none;visibility:visible;display:inline;overflow:visible;enable-background:accumulate"
         id="path3752"
         sodipodi:cx="421.25"
         sodipodi:cy="237.25"
         sodipodi:rx="36.75"
         sodipodi:ry="36.75"
         d="m 448.39505,262.02315 c -13.68184,14.99179 -36.9264,16.05373 -51.9182,2.3719 -14.99179,-13.68184 -16.05373,-36.9264 -2.3719,-51.9182 1.34047,-1.4688 2.79793,-2.82639 4.35805,-4.05938" />
      <path
         id="path3761"
         d="m 367.24396,27.138991 c -8.10275,0.758368 -40.4189,4.286853 -45.17589,0.372792"
         style="color:#000000;fill:none;stroke:#ffff00;stroke-width:4;stroke-linecap:round;stroke-linejoin:round;stroke-miterlimit:4;stroke-opacity:1;stroke-dasharray:none;stroke-dashoffset:0;marker:none;visibility:visible;display:inline;overflow:visible;enable-background:accumulate" />
      <path
         id="path3763"
         d="m 363.46975,60.661451 c -12.2282,5.657913 -25.39717,9.224109 -37.7527,14.721878 -2.52547,1.123744 -1.98725,2.202613 -4.78302,2.474396"
         style="color:#000000;fill:none;stroke:#ffff00;stroke-width:4;stroke-linecap:round;stroke-linejoin:round;stroke-miterlimit:4;stroke-opacity:1;stroke-dasharray:none;stroke-dashoffset:0;marker:none;visibility:visible;display:inline;overflow:visible;enable-background:accumulate" />
      <path
         id="path3765-1"
         d="m 384.28798,88.779085 c -0.23501,1.02756 -0.12928,2.199722 -0.70504,3.082681 -2.28138,3.498659 -8.85031,9.183994 -11.77793,13.201524 -3.1957,4.38543 -6.6995,8.54598 -9.78732,13.00802 -1.36782,1.97657 -1.97312,4.42501 -3.40069,6.35887 -1.26762,1.71718 -3.2334,2.81684 -4.58952,4.46502 -1.12043,1.36172 -4.75865,7.49559 -5.29455,7.54769"
         style="color:#000000;fill:none;stroke:#ffff00;stroke-width:4;stroke-linecap:round;stroke-linejoin:round;stroke-miterlimit:4;stroke-opacity:1;stroke-dasharray:none;stroke-dashoffset:0;marker:none;visibility:visible;display:inline;overflow:visible;enable-background:accumulate" />
      <path
         id="path3767"
         d="m 415.88884,103.79195 c -0.21084,6.8757 2.72032,14.07354 2.03187,20.90147 -0.59549,5.90601 -2.93399,11.58527 -3.33168,17.40402 -0.20403,2.98521 -3.46803,5.66626 -3.20719,8.34949"
         style="color:#000000;fill:none;stroke:#ffff00;stroke-width:4;stroke-linecap:round;stroke-linejoin:round;stroke-miterlimit:4;stroke-opacity:1;stroke-dasharray:none;stroke-dashoffset:0;marker:none;visibility:visible;display:inline;overflow:visible;enable-background:accumulate" />
      <path
         id="path3775"
         d="m 444.7984,100.39261 c 7.41301,12.27086 3.91927,26.26229 5.97313,39.36142 0.15492,0.98792 1.00576,1.81558 1.03693,2.8151 0.1197,3.83896 -1.29152,8.06638 0.0486,11.7046"
         style="color:#000000;fill:none;stroke:#ffff00;stroke-width:4;stroke-linecap:round;stroke-linejoin:round;stroke-miterlimit:4;stroke-opacity:1;stroke-dasharray:none;stroke-dashoffset:0;marker:none;visibility:visible;display:inline;overflow:visible;enable-background:accumulate" />
      <path
         id="path4123"
         d="m 487.47472,268.47274 c -8.25922,1.65352 -15.71589,4.51245 -23.42263,6.98502 -7.02449,2.46438 -11.94416,6.44669 -18.54467,11.36774 -5.55529,5.29001 -13.54452,9.95283 -23.26495,12.48196 -8.23514,1.96021 -16.65316,2.38804 -25.28393,0.69489 -4.97341,-0.6651 -10.0886,-1.04795 -14.22203,-3.6514 -10.13583,-4.51192 -18.15228,-11.28874 -28.64396,-15.40556 -4.00337,-2.35178 -8.83574,-5.15055 -9.63867,-5.7054 -7.87784,-2.9815 -9.47265,-11.61924 -9.196,-15.5737 0.36845,0.40404 0.15472,-1.95492 -0.31646,-2.27241"
         style="fill:none;stroke:#80ff00;stroke-width:3.99999976;stroke-linecap:round;stroke-linejoin:round;stroke-miterlimit:4;stroke-opacity:1;stroke-dasharray:none" />
    </g>
  </g>
</svg>
