<?xml version="1.0" encoding="UTF-8" standalone="no"?>
<!-- Created with Inkscape (http://www.inkscape.org/) -->

<svg
   xmlns:dc="http://purl.org/dc/elements/1.1/"
   xmlns:cc="http://creativecommons.org/ns#"
   xmlns:rdf="http://www.w3.org/1999/02/22-rdf-syntax-ns#"
   xmlns:svg="http://www.w3.org/2000/svg"
   xmlns="http://www.w3.org/2000/svg"
   xmlns:sodipodi="http://sodipodi.sourceforge.net/DTD/sodipodi-0.dtd"
   xmlns:inkscape="http://www.inkscape.org/namespaces/inkscape"
   width="480"
   height="320"
   id="svg2"
   version="1.1"
   inkscape:version="0.47 r22583"
   sodipodi:docname="itnas066.svg"
   inkscape:export-xdpi="90"
   inkscape:export-ydpi="90"
   sodipodi:version="0.32"
   inkscape:output_extension="org.inkscape.output.svg.inkscape"
   inkscape:export-filename="itnas066.png">
  <defs
     id="defs4" />
  <sodipodi:namedview
     id="base"
     pagecolor="#ffffff"
     bordercolor="#666666"
     borderopacity="1.0"
     inkscape:pageopacity="1"
     inkscape:pageshadow="2"
     inkscape:zoom="1"
     inkscape:cx="412.32042"
     inkscape:cy="145.19277"
     inkscape:document-units="px"
     inkscape:current-layer="layer1"
     showgrid="false"
     inkscape:snap-nodes="true"
     inkscape:snap-global="false"
     inkscape:snap-grids="true"
     showguides="true"
     inkscape:window-width="1280"
     inkscape:window-height="774"
     inkscape:window-x="-4"
     inkscape:window-y="-4"
     inkscape:window-maximized="1">
    <inkscape:grid
       empspacing="5"
       visible="true"
       enabled="true"
       snapvisiblegridlinesonly="true"
       type="xygrid"
       id="grid2816" />
  </sodipodi:namedview>
  <metadata
     id="metadata7">
    <rdf:RDF>
      <cc:Work
         rdf:about="">
        <dc:format>image/svg+xml</dc:format>
        <dc:type
           rdf:resource="http://purl.org/dc/dcmitype/StillImage" />
        <dc:title></dc:title>
      </cc:Work>
    </rdf:RDF>
  </metadata>
  <g
     inkscape:label="Layer 1"
     inkscape:groupmode="layer"
     id="layer1"
     transform="translate(0,0)">
    <path
       style="fill:none;stroke:#ff8000;stroke-width:4;stroke-linecap:round;stroke-linejoin:round;stroke-miterlimit:4;stroke-opacity:1;stroke-dasharray:none"
       d="m 71.802232,242.43363 c -0.22913,-3.7869 -7.11517,1.67022 -11.9661,4.6879 -1.02069,0.63454 -8.51376,6.25576 -9.53428,6.8906 -4.06502,2.52881 -12.78383,5.6248 -16.19573,1.99083 -3.54536,-3.77606 -2.30645,-8.27692 0.8426,-12.85481 1.96601,-2.85786 9.57642,0.0307 11.17011,0.72754 5.87613,2.568 8.26242,4.43598 13.24132,8.42125 3.30301,2.64384 4.47457,2.8421 6.75742,3.83974 3.67795,1.60739 7.14749,4.61247 6.54545,0.64401 -0.32544,-2.14516 -0.5186,-8.68765 -0.86105,-14.34675 l 2.6e-4,-3.1e-4 z"
       id="path3621"
       sodipodi:nodetypes="csssssssss" />
    <path
       style="fill:none;stroke:#ff8000;stroke-width:4;stroke-linecap:round;stroke-linejoin:round;stroke-miterlimit:4;stroke-opacity:1;stroke-dasharray:none"
       d="m 79.586222,258.05196 c 0.19807,0.83119 5.40241,-5.31236 8.14199,-8.66438 4.14815,-5.07548 12.387548,-9.07572 18.656138,-9.79094 5.1174,-0.58389 7.73719,4.15779 9.03492,8.08445 1.77046,5.35701 -4.05639,8.58489 -8.31346,8.37474 -5.56337,-0.27463 -12.021788,-2.6959 -13.800808,-4.56148 -3.87031,-4.05865 -6.11935,-5.89886 -11.04115,-8.78493 -6.27687,-3.68064 -5.1739,-0.80333 -5.04628,0.0878 0.52084,3.61769 1.4704,11.48491 2.36864,15.2547 l 1e-5,4e-5 z"
       id="path3623"
       sodipodi:nodetypes="cssssssss" />
    <path
       style="fill:none;stroke:#c87137;stroke-width:4;stroke-linecap:round;stroke-linejoin:round;stroke-miterlimit:4;stroke-opacity:1;stroke-dasharray:none;stroke-dashoffset:0;marker:none;visibility:visible;display:inline;overflow:visible;enable-background:accumulate"
       d="m 6.386222,294.13272 c -0.07806,2.36171 -0.2218,4.63949 0.35458,6.96748 0.17875,0.72203 0.76447,1.07522 1.09894,1.67164 0.4767,0.85008 0.53789,2.10385 1.05997,2.89804 0.20477,0.31147 0.59364,0.21396 0.85019,0.43623 0.89213,0.77253 1.77507,2.43401 2.78631,2.9528 2.6227,1.34569 5.5407,1.40372 8.30509,1.49156 2.112,0.0671 4.26773,0.50453 6.09423,-1.44299 3.491,-3.72238 2.01479,-4.98382 3.17607,-9.31041 0.73114,-2.72405 2.13748,-3.81882 2.22194,-6.47649"
       id="path2928" />
    <path
       id="path3747"
       style="fill:none;stroke:#808080;stroke-width:4;stroke-linecap:round;stroke-linejoin:round;stroke-miterlimit:4;stroke-opacity:1;stroke-dasharray:none"
       d="m 116.40502,258.95546 c 0,0 -6.7635,0.75714 -10.12989,1.03521 -4.07647,0.33673 -8.113588,0.96777 -12.206978,1.21803 -7.34032,0.44883 -14.69262,0.798 -22.02656,0.96722 -5.61979,0.12967 -11.20855,-0.0836 -16.8534,0.41637 -4.45064,0.39412 -9.05006,0.65248 -13.30583,-0.20998 -2.73708,-0.55467 -5.29929,-1.62559 -8.18966,-1.5109 -1.62082,0.0643 -2.66905,-1.02459 -2.99412,-1.82338"
       sodipodi:nodetypes="csssssss" />
    <g
       id="g4230"
       transform="matrix(-0.92986249,-0.10798391,-0.09035455,1.1112908,498.56029,-6.6017505)"
       style="stroke-linecap:round;stroke-linejoin:round">
      <path
         sodipodi:nodetypes="csssssscc"
         id="path4202"
         d="M 45.222162,75.375534 C 54.337824,73.993356 57.023018,76.79414 66.048558,75.485163 77.899195,73.766462 83.705441,60.217782 85.158244,49.421527 86.729356,37.746082 74.692728,30.580889 67.407239,24.010788 61.453314,18.641499 54.779847,21.170136 51.218222,17.106449 47.25369,12.583055 38.29544,20.08661 32.69561,25.476123 c -6.167794,5.936146 -15.168926,12.28642 -12.889767,22.275542 2.045077,8.963187 4.336525,17.957138 10.992492,24.858193 3.929978,2.668096 11.149028,7.648128 14.423827,2.765676 z"
         style="fill:none;stroke:#ffff00;stroke-width:3.91648173;stroke-linecap:round;stroke-linejoin:round;stroke-miterlimit:4;stroke-opacity:1;stroke-dasharray:none" />
      <path
         id="path4215"
         d="M 31,81 C 28.148613,84.553942 24.105327,87.346267 24.536612,92.015165 21.832544,96.043458 21.188425,100.66969 20,105 c -1.284479,-0.52275 -1.919186,3.77422 -2,5"
         style="fill:none;stroke:#ffff00;stroke-width:3.91648173;stroke-linecap:round;stroke-linejoin:round;stroke-miterlimit:4;stroke-opacity:1;stroke-dasharray:none" />
      <path
         id="path4217"
         d="m 53.280734,83.999998 c 4.109561,4.16047 0.225882,10.218352 3.166602,14.792056 1.215413,5.697486 7.524659,9.190686 6.531011,15.084746 L 62.937021,115"
         style="fill:none;stroke:#ffff00;stroke-width:3.91648173;stroke-linecap:round;stroke-linejoin:round;stroke-miterlimit:4;stroke-opacity:1;stroke-dasharray:none" />
      <path
         id="path4219-0"
         d="m 76,78 c 3.400595,3.924314 5.608335,9.266142 10.25064,12 2.62092,4.847886 4.316418,10.49689 8.888485,13.99058 2.816275,3.7582 6.029785,7.79196 9.904355,10.00942"
         style="fill:none;stroke:#ffff00;stroke-width:3.91648173;stroke-linecap:round;stroke-linejoin:round;stroke-miterlimit:4;stroke-opacity:1;stroke-dasharray:none" />
      <path
         id="path4221"
         d="m 90,56.987967 c 14.33334,0.01397 28.66662,0.07609 43,0.05204"
         style="fill:none;stroke:#ffff00;stroke-width:3.91648173;stroke-linecap:round;stroke-linejoin:round;stroke-miterlimit:4;stroke-opacity:1;stroke-dasharray:none" />
      <path
         id="path4223"
         d="m 86.000002,33 c 5.268561,-0.876096 9.823061,-4.205192 14.951108,-4.876265 4.62153,1.300794 7.8844,-3.002146 12.17425,-3.773924 C 115.24759,22.885947 120.60982,23.2369 120.85644,21"
         style="fill:none;stroke:#ffff00;stroke-width:3.91648173;stroke-linecap:round;stroke-linejoin:round;stroke-miterlimit:4;stroke-opacity:1;stroke-dasharray:none" />
    </g>
    <path
       sodipodi:nodetypes="cssssss"
       id="path3240"
       d="m 17.097722,297.61033 c 0.0053,-0.57006 -1.88473,-2.01921 -2.64036,-1.89499 -1.58486,0.26046 -3.35658,-0.39526 -3.51983,1.47421 -0.13025,1.49154 -0.96039,1.54442 -0.29639,2.55678 0.99308,1.51417 1.42936,1.71392 3.135,1.63455 1.03294,-0.048 0.84883,-0.1617 1.54126,-0.43245 1.28474,-0.50233 1.76905,-2.11715 1.78032,-3.3381 z"
       style="fill:none;stroke:#808080;stroke-width:4;stroke-linecap:butt;stroke-linejoin:miter;stroke-miterlimit:4;stroke-opacity:1;stroke-dasharray:none;stroke-dashoffset:0;marker:none;visibility:visible;display:inline;overflow:visible;enable-background:accumulate" />
    <path
       sodipodi:nodetypes="cssssss"
       id="path3242"
       d="m 20.756832,301.01962 c -1.16349,0.32897 -2.74781,3.60903 -2.23885,4.77658 0.32726,0.7508 2.25265,0.93568 2.84531,0.85241 1.00423,-0.14107 2.20414,0.24681 2.93048,-0.43831 0.35179,-0.33175 0.92309,-0.93796 0.66836,-1.45906 -0.32957,-0.67423 -1.33275,-2.56917 -1.82188,-2.75186 -0.77341,-0.28888 -1.19571,-1.31553 -2.38342,-0.97976 z"
       style="fill:none;stroke:#808080;stroke-width:4;stroke-linecap:butt;stroke-linejoin:miter;stroke-miterlimit:4;stroke-opacity:1;stroke-dasharray:none;stroke-dashoffset:0;marker:none;visibility:visible;display:inline;overflow:visible;enable-background:accumulate" />
    <path
       sodipodi:nodetypes="cssssssss"
       id="path3244"
       d="m 27.281622,294.13162 c -0.09315,-0.62713 -1.34899,-0.89676 -1.67283,-1.378 -0.4941,-0.73447 -1.52351,-0.28905 -2.40863,-0.17457 -0.63207,0.0818 -1.43366,0.418 -1.62091,0.91481 -0.20567,0.54616 -0.71605,1.97602 -0.47992,2.4535 0.22698,0.45866 1.30312,1.02375 1.95485,1.40133 0.85155,0.49328 1.75326,0.82019 2.47556,1.34396 0.57666,0.41816 0.85135,-0.94009 1.15934,-1.20613 0.28041,-0.24216 0.79763,-1.97583 0.59254,-3.3549 z"
       style="fill:none;stroke:#808080;stroke-width:4;stroke-linecap:butt;stroke-linejoin:miter;stroke-miterlimit:4;stroke-opacity:1;stroke-dasharray:none;stroke-dashoffset:0;marker:none;visibility:visible;display:inline;overflow:visible;enable-background:accumulate" />
    <path
       style="fill:none;stroke:#0000ff;stroke-width:4;stroke-linecap:round;stroke-linejoin:round;stroke-miterlimit:4;stroke-opacity:1;stroke-dasharray:none"
       d="m 156.78005,215.86241 c -2.32333,-0.39139 -3.55168,1.41032 -4.6404,2.45001 -2.17183,1.26185 -1.69918,2.04845 -3.79283,3.81988 -0.53113,1.89446 -1.96164,3.15056 -2.10279,5.32234 -1.02457,2.9866 0.8657,6.14412 2.56091,8.44995 1.51112,1.45371 2.85004,3.02016 5.03287,3.34624 1.54145,0.22973 3.15831,1.0117 4.63996,0.80332 2.05321,-1.46764 5.60023,-1.3973 6.94562,-2.80515 0.53171,-1.78102 0.91455,-3.58494 1.60259,-5.27411 0.61841,-2.67772 1.23779,-5.35521 1.85608,-8.03285 -0.80171,-1.20143 -0.94857,-2.83031 -2.04425,-3.4075 -0.49192,-0.80849 -2.15827,-0.885 -2.90329,-1.57042 -1.99889,-1.44193 -4.75517,-1.81985 -7.15447,-3.10171 l 0,0 z"
       id="path2905" />
    <path
       style="fill:none;stroke:#0000ff;stroke-width:4;stroke-linecap:round;stroke-linejoin:round;stroke-miterlimit:4;stroke-opacity:1;stroke-dasharray:none"
       d="m 153.63304,242.00487 c -1.28366,2.19038 -0.50534,5.66806 -1.50103,6.33788 -0.32561,3.86361 -1.37943,7.66593 -1.65378,11.53013 -0.0351,3.36012 -1.32166,6.44811 -1.92238,9.49121 -0.51911,1.43425 -1.11241,3.55473 -1.63147,4.9889"
       id="path2907"
       inkscape:transform-center-x="-3.6495415"
       inkscape:transform-center-y="-16.497362"
       sodipodi:nodetypes="ccccc" />
    <path
       id="path2909"
       style="fill:none;stroke:#0000ff;stroke-width:4;stroke-linecap:round;stroke-linejoin:round;stroke-miterlimit:4;stroke-opacity:1;stroke-dasharray:none"
       d="m 168.0383,313.58843 c 0,0 -1.78884,-3.13681 -2.1851,-4.20642 -0.97845,-2.64112 -2.26696,-4.44424 -3.10933,-7.06402 -1.1415,-3.55009 -3.15186,-6.56929 -4.63643,-9.86395 -1.50689,-3.34421 -4.09332,-6.42178 -6.02216,-9.69656 -1.68035,-2.85288 -3.34453,-6.28605 -5.8115,-7.91058 -1.43735,2.93167 -4.1743,8.13242 -5.46552,11.30159 -1.71781,4.21625 -2.31755,3.50699 -4.36764,7.42121 -1.56613,2.99015 -3.25248,5.75857 -5.01551,8.98824 -1.07405,1.96752 -1.26262,6.31213 -2.135,6.92165 -0.23658,0.16529 -0.77184,2.58346 -0.1116,1.39242"
       inkscape:transform-center-x="-0.352715"
       inkscape:transform-center-y="18.440365"
       sodipodi:nodetypes="csssscsssss" />
    <path
       style="fill:none;stroke:#ffff00;stroke-width:4;stroke-linecap:round;stroke-linejoin:round;stroke-miterlimit:4;stroke-opacity:1;stroke-dasharray:none;stroke-dashoffset:0;marker:none;visibility:visible;display:inline;overflow:visible;enable-background:accumulate"
       d="m 287.92038,57.057084 c -2.01828,-1.391338 -7.37718,-4.774466 -10.63286,-7.228428 -4.96134,-3.739565 -7.66598,-7.009344 -12.77203,-10.51032 -3.7529,-2.573208 -10.55573,-4.553412 -14.29853,-7.119669 -2.76247,-1.894123 -4.76107,-4.883295 -7.42349,-6.89 -0.31754,-0.239317 -0.63698,-0.606501 -0.93027,-0.886114"
       id="path2929"
       sodipodi:nodetypes="cssssc" />
    <path
       style="fill:none;stroke:#ffff00;stroke-width:4;stroke-linecap:round;stroke-linejoin:round;stroke-miterlimit:4;stroke-opacity:1;stroke-dasharray:none;stroke-dashoffset:0;marker:none;visibility:visible;display:inline;overflow:visible;enable-background:accumulate"
       d="m 262.27877,78.979119 c -3.00521,-2.37558 -16.29141,-7.756246 -19.20988,-8.845289 -1.89986,-3.972753 -11.16686,-3.691319 -15.89512,-7.664077 -5.28915,-1.973658 -10.77318,-5.096497 -16.14152,-6.692024 -1.06106,-0.315371 -2.09138,-0.523581 -3.11304,-0.827247"
       id="path2931"
       sodipodi:nodetypes="cccsc" />
    <path
       style="fill:none;stroke:#ffff00;stroke-width:4;stroke-linecap:round;stroke-linejoin:round;stroke-miterlimit:4;stroke-opacity:1;stroke-dasharray:none;stroke-dashoffset:0;marker:none;visibility:visible;display:inline;overflow:visible;enable-background:accumulate"
       d="m 265.56754,120.9054 c -3.10869,-0.92393 -6.02412,-3.12979 -9.13987,-3.95775 -0.34589,-0.0919 -0.69177,-0.18383 -1.03767,-0.27575 -3.66404,-0.97364 -7.34124,-1.23461 -11.01101,-2.32529 -3.21609,-0.95586 -6.4126,-1.1211 -9.61698,-1.84566 -2.32071,-0.52474 -4.58143,-0.27563 -6.84457,-1.05432 -2.04597,-0.70397 -4.41234,-1.1179 -6.56675,-1.6904 -2.50846,-0.66658 -4.99096,-1.38537 -7.44982,-2.11618 -0.28912,-0.0859 -0.57824,-0.17185 -0.86734,-0.25779 -0.80002,-0.23777 -1.23724,-0.40755 -1.93646,-0.86952"
       id="path2933" />
    <path
       style="color:#000000;fill:none;stroke:#ffff00;stroke-width:4;stroke-linecap:round;stroke-linejoin:round;stroke-miterlimit:4;stroke-opacity:1;stroke-dasharray:none;stroke-dashoffset:0;marker:none;visibility:visible;display:inline;overflow:visible;enable-background:accumulate"
       d="m 265.37724,99.143569 c -6.99344,-3.64328 -18.28149,-5.0058 -26.80926,-6.52007 -4.11945,-0.73147 -8.24052,-2.82695 -11.9865,-4.50713 -2.31359,-1.0377 -3.80876,-2.81544 -6.20575,-3.72505 -3.20651,-1.2168 -6.59131,-0.33355 -9.63023,-1.20495 -0.75655,-0.21693 -1.25272,-0.58553 -1.81694,-1.10468"
       id="path3024" />
    <path
       style="color:#000000;fill:none;stroke:#ffff00;stroke-width:4;stroke-linecap:round;stroke-linejoin:round;stroke-miterlimit:4;stroke-opacity:1;stroke-dasharray:none;stroke-dashoffset:0;marker:none;visibility:visible;display:inline;overflow:visible;enable-background:accumulate"
       d="m 279.73062,67.26591 c -1.20658,-0.345977 -5.06193,-3.563814 -7.4345,-4.855629 -3.65781,-1.991599 -6.89095,-4.77548 -10.60762,-6.641026 -3.54744,-1.780581 -5.55564,-5.486102 -9.16331,-7.296945 -3.79203,-1.903356 -7.85578,-2.966886 -11.83289,-4.36582 -2.76306,-0.971866 -4.43581,-1.625902 -6.92138,-3.249295 -1.29695,-0.847051 -2.24746,-2.181304 -3.51958,-2.954811"
       id="path3026" />
    <path
       style="fill:none;stroke:#ffff00;stroke-width:4.00000047999999970;stroke-linecap:round;stroke-linejoin:round;stroke-opacity:1;color:#000000;stroke-miterlimit:4;stroke-dasharray:none;stroke-dashoffset:0;marker:none;visibility:visible;display:inline;overflow:visible;enable-background:accumulate"
       d="m 305.47013,62.259578 c -1.65734,3.713197 -3.56793,7.326856 -4.97615,11.139853 -1.74812,2.609645 -4.11804,5.407903 -5.10012,8.45203 -5.93859,0.07315 -11.75509,0.399533 -17.65878,0.64425 -0.94911,0.502467 -2.07499,0.12105 -3.0241,0.623517 1.26421,3.107417 5.34863,4.646759 6.52876,7.93422 1.40261,2.592525 3.59812,4.48102 5.90965,6.170892 2.59616,1.092207 6.13951,3.90311 4.04839,6.52269 -0.45286,2.86742 -2.18477,5.48799 -2.93899,8.30391 0.13027,3.31534 -2.54957,7.96757 -1.66881,10.33185 2.86224,-0.87694 6.52244,-2.42135 8.84716,-4.24352 3.62013,-1.26287 7.80388,-4.28663 10.96199,-6.53688 1.6911,-2.93147 3.5077,3.5723 6.0275,3.53807 3.01453,1.30258 6.87313,1.45459 8.9595,4.25063 0.97896,2.14579 3.87941,3.93345 5.30429,2.99384 -1.31989,-3.36759 -2.21552,-7.77503 -1.75183,-11.53221 -0.25633,-3.67653 -0.94074,-7.29582 -0.79843,-10.992455 0.88564,-2.135363 3.14079,-4.167092 5.31995,-5.685805 2.28618,-2.123824 4.68321,-4.139173 6.59697,-6.631318 1.84915,-1.88476 2.60533,-4.063633 -0.91949,-3.350598 -3.5267,-0.114114 -6.87554,-1.14833 -10.34301,-1.796071 -2.48572,-0.984178 -10.65107,1.837458 -10.27311,-1.931427 -0.18666,-2.472429 0.59946,-6.6635 -1.19368,-8.447412 -1.25707,-2.437403 -1.92041,-3.407036 -3.06013,-6.103977 -1.31788,-1.326932 -2.47541,-2.802242 -3.73687,-4.184409 -0.35355,0.176777 -0.70711,0.353553 -1.06066,0.53033 z"
       id="path2868"
       sodipodi:nodetypes="cccccccccccccccccccccccccc" />
    <path
       style="color:#000000;fill:none;stroke:#0000ff;stroke-width:4;stroke-linecap:round;stroke-linejoin:round;stroke-miterlimit:4;stroke-opacity:1;stroke-dasharray:none;stroke-dashoffset:0;marker:none;visibility:visible;display:inline;overflow:visible;enable-background:accumulate"
       d="m 117.98158,256.5009 c 2.56856,-0.66585 3.60098,-2.62559 6.04917,-3.32332 2.27025,-0.81403 3.36362,-1.42805 5.085,-2.44894 1.8313,-1.46996 3.29421,-1.45517 5.35312,-3.3262 3.17008,-0.76351 6.06129,-1.63477 8.06447,-2.4903 2.62965,-1.76006 5.10333,-1.61866 7.70217,-1.82373 1.81663,-0.16934 3.0512,-1.28074 4.50906,-0.65219 1.20582,1.26418 2.36759,2.59767 3.66376,3.68408 1.86751,1.65506 1.84771,4.11225 3.17726,5.65339 1.01063,1.77037 2.18692,3.3272 2.74951,5.58715 0.13007,3.63518 1.90314,4.85219 2.09499,7.69645 0.87419,2.47329 -0.75628,5.46716 0.22044,7.93752 0.26959,1.03247 0.58266,2.11017 0.4796,3.27563"
       id="path2913"
       sodipodi:nodetypes="ccccccccccccc" />
    <path
       id="path3126"
       style="fill:none;stroke:#0000ff;stroke-width:3.99999976000000010;stroke-linecap:round;stroke-linejoin:round;stroke-opacity:1;color:#000000;stroke-miterlimit:4;stroke-dasharray:none;stroke-dashoffset:0;marker:none;visibility:visible;display:inline;overflow:visible;enable-background:accumulate"
       d="m -8.918558,261.87789 c 0.39979,1.4879 4.81042,0.17959 7.86631,0.85021 3.67909,0.80739 11.52165,0.42106 12.92045,0.13133 4.20991,-0.872 8.69069,1.40577 8.48133,-0.75301 5.89875,0.33384 1.17385,1.29794 6.763,-1.08658 1.08141,2.25737 3.42712,3.93307 6.57995,3.93307 3.44012,0 5.75911,1.18932 9.13173,1.80178 4.04466,0.73449 11.64906,0.0718 15.93134,-0.2955 3.09142,-0.26517 9.01109,-0.1276 12.25305,-0.1276 3.47111,0 6.48322,-0.20946 9.86354,-0.36873 5.62784,-0.26516 9.77399,-0.29401 15.36007,-0.81066 5.406058,-0.5 10.991998,-0.99168 16.129568,-1.60095 5.15866,-0.61177 7.09955,-0.74764 7.69942,-2.97462 0.17101,-0.63487 5.99395,0.064 9.21569,0.60093 4.5223,0.75372 10.11204,1.21729 14.49569,-0.28531 0,0 8.68611,0.1415 13.08147,-0.35356 5.10086,-0.57452 10.26139,-0.7071 15.55635,-0.7071 1.73549,0 3.0723,0.0488 4.5962,0.35355 0.27977,0.12436 0.55954,0.24872 0.83931,0.37308 0.95458,0.42433 2.70091,-0.17586 3.69313,-0.17586 1.94346,0 3.62062,0.33723 5.45176,0.70345 1.90859,0.38172 3.84342,0.35173 5.80348,0.35173 1.53024,0 3.08927,-0.52759 4.74831,-0.52759 1.75035,0 4.10413,0.27861 6.88045,0.14675 14.3346,-1.0346 28.22984,-3.99115 42.57719,-1.53082 14.21408,-2.60693 24.36265,-0.0259 36.49977,-0.0259 4.20515,0 21.46685,-1.01105 24.5,0 1.62826,0.54275 3.81262,-0.0625 5.5,0.5 1.23687,0.41229 2.1951,1.17377 3.5,1.5 7.12022,1.78006 20.88193,0.5 28.5,0.5 8.33333,0 16.66667,0 25,0 2.55476,0 7.05175,0.81608 9.5,0 3.12265,-1.04088 6.27814,-1.44729 9,-1.5 9.0243,-0.17477 18.85438,-1.02427 28,-1.5 21,3.5 34,3.5 51,0"
       sodipodi:nodetypes="cssccssssssssscsscsssssccsssssssscc" />
    <path
       style="fill:none;stroke:#80ff00;stroke-width:3.99999976;stroke-linecap:round;stroke-linejoin:round;stroke-miterlimit:4;stroke-opacity:1;stroke-dasharray:none"
       d="m 410.20545,246.26571 c -0.0961,1.87107 2.69519,-0.51571 2.4897,1.69005 1.64408,2.42595 4.6682,2.99936 6.27107,5.48482 1.39222,1.36197 3.36462,1.82552 4.72595,3.23423 1.47541,1.41976 3.30833,2.18805 5.11009,3.02007 1.52975,0.80343 2.8074,1.99483 4.24715,2.93088 0.64882,1.46052 1.81675,1.93395 2.55879,3.33665 0.90189,1.68739 2.99243,2.03207 3.60461,4.04256 -0.50543,0.70616 -2.37377,0.52388 -3.41639,0.88076 -2.98042,0.53414 -5.96113,1.07016 -8.94118,1.60017 -1.74245,-0.23571 -3.74202,0.44896 -5.2455,-0.52406 -1.3788,-0.40692 -2.93166,-0.10983 -4.37868,-0.20914 -1.64282,0.0908 -3.49056,0.0203 -5.17048,-0.077 -1.77458,0.1037 -3.50384,-0.0731 -5.3394,0.43277 -1.43838,0.39302 -3.24645,0.85602 -2.6861,-1.52236 0.0423,-1.75433 1.37131,-3.36656 1.40661,-5.13199 0.55237,-1.97838 0.55598,-3.95448 1.78669,-5.91342 0.35429,-2.07718 1.21324,-4.27595 1.18297,-6.31747 0.65766,-1.7912 0.88693,-3.71222 1.25644,-5.48617 0.0314,-0.44432 -0.0523,-1.30209 0.53764,-1.47107 l 2e-5,-3e-4 z"
       id="path2942" />
    <path
       id="path3099"
       style="color:#000000;fill:none;stroke:#008000;stroke-width:4;stroke-linecap:round;stroke-linejoin:round;stroke-miterlimit:4;stroke-opacity:1;stroke-dasharray:none;stroke-dashoffset:0;marker:none;visibility:visible;display:inline;overflow:visible;enable-background:accumulate"
       d="m -28.938238,310.80761 c 0.58925,-0.10624 1.53205,1.29636 2.1213,1.41422 2.24241,0.44848 4.91855,-1.32028 7.07107,-1.41422 8.53895,-0.37266 17.432,0.93648 25.8094,2.82843 3.28156,0.7411 7.22548,0.33486 10.6066,0.70711 8.74163,0.96241 15.37904,-1.76862 25.8094,-0.70711 2.40127,0.24438 7.87753,-1.99422 11.66726,-3.88909 3.17666,-1.58833 11.22822,2.17692 11.84404,1.23744 1.01458,-1.54783 5.02139,3.20101 12.19759,0.35355 2.4106,-0.9565 13.61134,0.84845 20.85965,2.2981 4.463148,0.89263 9.930878,1.06066 14.495688,1.06066 3.68165,0 7.30719,0 10.96015,0 1.52995,0 2.81227,0.004 4.24264,-0.35355 5.06373,0 9.50103,0.48648 13.98467,-1.30698 4.00682,-1.60273 10.00694,-1.77897 13.92766,-0.99483 4.20746,0.84149 7.54829,2.88191 11.93799,3.97933 4.123,1.03075 9.62294,0 13.92766,0 4.91999,0 9.47996,0.49742 14.42507,0.49742 0.66322,0 1.32645,0 3.28275,-0.38036 17.69212,-0.0997 35.09366,-2.35721 52.27577,-1.36768 17.95615,1.0341 35.31027,-3.06652 51.37007,1.29406 12.9247,1.55516 26.29878,0.14526 37.77302,-2.76116 16.39028,0.7085 31.97157,1.16166 44.46285,-2.37124 9.90253,-3.22069 27.39677,-1.43066 34.08225,-11.18008 9.55439,-14.6687 21.46326,-9.39972 30.48807,-19.38514 12.20005,-6.02237 14.62404,-20.97907 25.28985,-28.97902 3.71065,2.54359 7.23356,-7.72146 14.05609,-6.90097 11.73587,-5.43209 19.52845,-5.64238 28.98606,-14.99617"
       sodipodi:nodetypes="cssssssssssscssssscscccccccc" />
    <path
       style="fill:none;stroke:#80ff00;stroke-width:3.99999976;stroke-linecap:round;stroke-linejoin:round;stroke-miterlimit:4;stroke-opacity:1;stroke-dasharray:none;stroke-dashoffset:0;marker:none;visibility:visible;display:inline;overflow:visible;enable-background:accumulate"
       d="m 350.22882,271.65165 c 1.6773,-0.2352 4.94358,-1.32867 7.18042,-2.29219 2.72517,-1.17385 4.95535,-2.74729 7.89882,-3.72271 2.42221,-0.80266 4.93268,-1.58151 7.27671,-2.44044 1.97574,-0.72394 4.04902,-1.18242 6.10597,-1.93612 1.39728,-0.512 4.13389,-0.56758 5.53578,-0.40931 1.80246,0.20349 3.66505,0.24856 5.39515,0.13172 2.55224,-0.17241 -1.56835,3.51075 -2.30347,4.19526 -2.15062,2.00252 -3.79385,4.44614 -5.7562,6.59004 -1.2556,1.37174 -2.34959,2.96816 -3.37795,4.55132 -1.11695,1.71959 -2.35373,3.65571 -3.17013,5.5295 -0.78945,1.8118 -1.70757,3.92688 -2.77736,5.57383 -0.86611,1.33345 -1.55216,2.7141 -2.4517,4.09897 -0.1284,0.19767 -0.25671,0.39537 -0.3852,0.59298"
       id="path3002" />
    <path
       style="color:#000000;fill:none;stroke:#80ff00;stroke-width:3.99999976;stroke-linecap:round;stroke-linejoin:round;stroke-miterlimit:4;stroke-opacity:1;stroke-dasharray:none;stroke-dashoffset:0;marker:none;visibility:visible;display:inline;overflow:visible;enable-background:accumulate"
       d="m 295.83323,264.10356 c -5.43896,-0.10767 -10.53635,1.50297 -14.52418,5.53062 -3.95248,3.96695 -7.5375,8.6029 -11.13455,12.4326 -3.39291,4.40476 -7.84037,7.48273 -13.62174,7.1048 -7.55352,0.0791 -15.61606,-0.16981 -22.02244,-4.72344 -3.64286,-1.53556 -6.87265,-3.80966 -7.93648,-5.02269 -4.61057,-2.62102 -8.90606,-6.12016 -14.12194,-7.91864 -5.06025,-1.23448 -10.39811,-2.58888 -15.70808,-2.34292 -5.50595,0.75753 -10.90443,3.03555 -15.4511,6.16736 -4.07705,3.23114 -7.01568,7.40248 -11.85956,9.62298 -5.13601,2.76757 -9.36893,9.03985 -15.91569,8.15784 -4.76287,-1.10027 -11.45883,2.15596 -15.02212,-1.61176"
       id="path2936"
       sodipodi:nodetypes="cccccccccccc" />
    <path
       style="color:#000000;fill:none;stroke:#80ff00;stroke-width:4;stroke-linecap:round;stroke-linejoin:round;stroke-miterlimit:4;stroke-opacity:1;stroke-dasharray:none;stroke-dashoffset:0;marker:none;visibility:visible;display:inline;overflow:visible;enable-background:accumulate"
       d="m 296.18602,264.07199 c 5.30083,-0.38425 10.46309,1.67142 15.59542,1.07768 3.93709,1.7959 8.10989,3.3737 11.18894,6.47206 3.60288,1.62137 5.94212,5.12092 9.52917,6.7846 6.12,2.47653 12.88811,1.13002 19.2698,0.84801 5.31613,0.0565 9.256,-3.61421 13.87588,-5.55617 4.18335,-1.24612 7.51419,-3.80486 10.8892,-6.4397 6.55586,-4.88044 14.87739,-5.76108 22.44316,-8.21407 2.28545,-0.37283 4.46875,0.68559 6.73224,0.74457"
       id="path2959"
       sodipodi:nodetypes="ccccccccc" />
    <path
       style="color:#000000;fill:none;stroke:#80ff00;stroke-width:3.99999976;stroke-linecap:round;stroke-linejoin:round;stroke-miterlimit:4;stroke-opacity:1;stroke-dasharray:none;stroke-dashoffset:0;marker:none;visibility:visible;display:inline;overflow:visible;enable-background:accumulate"
       d="m 274.06096,294.25745 c 2.14457,-1.08623 1.47609,-4.08401 3.1918,-5.59003 1.68839,-2.1374 2.68624,-4.71897 4.55211,-6.72796 1.98663,-2.59494 2.58058,-5.91817 4.01318,-8.80992 2.39756,-0.13536 4.41271,-1.72019 6.81421,-1.87143 2.16387,-0.31968 3.63926,-1.06021 5.62606,-1.07189 2.4061,0.04 4.85663,-0.58982 7.07888,-1.51962 2.62694,-1.12554 5.71536,-0.72854 8.24959,-2.16914 -2.25172,1.42554 -3.89347,3.56634 -6.06194,5.16919 -2.42232,1.63278 -4.45002,3.78701 -6.98903,5.27262 -1.84295,1.26561 -3.84193,2.28836 -5.63002,3.63264 -2.33003,0.89041 -2.82993,3.22633 -3.17355,5.39012 -0.8951,2.72384 -1.82944,5.43445 -2.57169,8.20369 -1.06497,2.55094 -1.9782,5.1578 -2.89381,7.76269 l -0.18299,0.37366"
       id="path2997" />
  </g>
</svg>
