<?xml version="1.0" encoding="UTF-8" standalone="no"?>
<!-- Created with Inkscape (http://www.inkscape.org/) -->

<svg
   xmlns:dc="http://purl.org/dc/elements/1.1/"
   xmlns:cc="http://creativecommons.org/ns#"
   xmlns:rdf="http://www.w3.org/1999/02/22-rdf-syntax-ns#"
   xmlns:svg="http://www.w3.org/2000/svg"
   xmlns="http://www.w3.org/2000/svg"
   xmlns:sodipodi="http://sodipodi.sourceforge.net/DTD/sodipodi-0.dtd"
   xmlns:inkscape="http://www.inkscape.org/namespaces/inkscape"
   width="480"
   height="320"
   id="svg2"
   version="1.1"
   inkscape:version="0.48.0 r9654"
   sodipodi:docname="itnas311.svg"
   inkscape:export-xdpi="90"
   inkscape:export-ydpi="90"
   inkscape:export-filename="itnas309.png">
  <defs
     id="defs4">
    <inkscape:perspective
       sodipodi:type="inkscape:persp3d"
       inkscape:vp_x="0 : 160 : 1"
       inkscape:vp_y="0 : 1000 : 0"
       inkscape:vp_z="480 : 160 : 1"
       inkscape:persp3d-origin="240 : 106.66667 : 1"
       id="perspective8" />
  </defs>
  <sodipodi:namedview
     id="base"
     pagecolor="#ffffff"
     bordercolor="#666666"
     borderopacity="1.0"
     inkscape:pageopacity="1"
     inkscape:pageshadow="2"
     inkscape:zoom="2"
     inkscape:cx="154.92186"
     inkscape:cy="228.13293"
     inkscape:document-units="px"
     inkscape:current-layer="layer1"
     showgrid="false"
     inkscape:snap-nodes="true"
     inkscape:snap-global="false"
     inkscape:snap-grids="true"
     showguides="true"
     inkscape:window-width="1280"
     inkscape:window-height="800"
     inkscape:window-x="0"
     inkscape:window-y="0"
     inkscape:window-maximized="1">
    <inkscape:grid
       empspacing="5"
       visible="true"
       enabled="true"
       snapvisiblegridlinesonly="true"
       type="xygrid"
       id="grid2816" />
  </sodipodi:namedview>
  <metadata
     id="metadata7">
    <rdf:RDF>
      <cc:Work
         rdf:about="">
        <dc:format>image/svg+xml</dc:format>
        <dc:type
           rdf:resource="http://purl.org/dc/dcmitype/StillImage" />
        <dc:title></dc:title>
      </cc:Work>
    </rdf:RDF>
  </metadata>
  <g
     inkscape:label="Layer 1"
     inkscape:groupmode="layer"
     id="layer1"
     transform="translate(0,0)">
    <path
       inkscape:connector-curvature="0"
       style="fill:none;stroke:#80ff00;stroke-width:3.99999952;stroke-linecap:round;stroke-linejoin:round;stroke-miterlimit:4;stroke-opacity:1;stroke-dasharray:none"
       d="m 348.02083,441.35544 c 5.90731,-2.98013 5.57223,-4.50872 8.7876,-6.67094 1.91866,-3.97172 -1.96671,-9.30488 0.55356,-13.11907 0.0231,-3.62026 2.52115,-6.9565 7.95442,-5.36612 2.82207,3.50505 3.77926,8.53542 5.06966,12.50702 1.8275,3.91754 4.03654,6.29771 -0.24317,11.29868 -2.57739,1.63512 -2.15296,3.13511 -4.31482,4.56352"
       id="path2956"
       sodipodi:nodetypes="ccccccc" />
    <path
       inkscape:connector-curvature="0"
       style="color:#000000;fill:none;stroke:#80ff00;stroke-width:4;stroke-linecap:round;stroke-linejoin:round;stroke-miterlimit:4;stroke-opacity:1;stroke-dasharray:none;stroke-dashoffset:0;marker:none;visibility:visible;display:inline;overflow:visible;enable-background:accumulate"
       d="m 359.92637,409.93838 c 0.99971,2.59235 2.20339,4.71265 2.44563,7.62834 0.25105,3.02601 0.0711,6.06913 -0.023,9.16707 -0.10365,3.41222 2.12835,8.36024 0.22621,11.64296 -2.37594,4.10042 -2.78467,11.55943 -7.59115,11.67368 -5.86062,0.13922 -11.69329,3.12735 -17.59202,2.49349 -2.96622,-0.31874 -5.91232,-0.3508 -8.86971,-0.92932 -2.28125,-0.44643 -7.2144,-1.78119 -8.73263,-2.92424"
       id="path2833"
       sodipodi:nodetypes="csssssss" />
    <path
       inkscape:connector-curvature="0"
       style="color:#000000;fill:none;stroke:#80ff00;stroke-width:3.99999952;stroke-linecap:round;stroke-linejoin:round;stroke-miterlimit:4;stroke-opacity:1;stroke-dasharray:none;stroke-dashoffset:0;marker:none;visibility:visible;display:inline;overflow:visible;enable-background:accumulate"
       d="m 302.48156,393.39461 c -10.39556,6.41104 -14.52817,5.8251 -24.43807,17.56107 -3.79007,4.48845 -14.87277,3.42181 -22.74633,7.28174 -10.42116,8.15147 -7.79115,16.84412 2.9952,13.57985 9.922,-3.00268 20.21106,9.52553 27.19918,7.26705 10.20894,-3.29938 22.60763,7.65812 33.17964,9.02679"
       id="path4125-8"
       sodipodi:nodetypes="cscsss" />
    <path
       style="color:#000000;fill:none;stroke:#80ff00;stroke-width:3.99999976;stroke-linecap:round;stroke-linejoin:round;stroke-miterlimit:4;stroke-opacity:1;stroke-dasharray:none;stroke-dashoffset:0;marker:none;visibility:visible;display:inline;overflow:visible;enable-background:accumulate"
       d="m 366.6325,398.25234 c -2.87515,-1.73856 -2.47039,-3.85072 -5.4172,-5.51119 -8.64187,-5.55523 -9.11845,-6.58799 -11.70715,-8.48968 -0.90942,-1.59327 -3.56407,-2.51483 -4.98794,-3.56192 -0.90531,-0.79063 -2.98861,-3.29014 -3.62897,-1.17296 -1.31767,2.19281 -0.51935,4.44435 1.68705,10.75087 -0.47156,6.98002 0.8026,9.62384 1.70367,12.75098 -0.0142,3.11977 -0.46661,6.34849 0.75099,9.32641 0.28874,1.16575 0.62657,4.0231 2.33568,2.35232 1.78534,-1.64771 3.3938,-1.00983 7.04235,-4.17442 1.46803,-1.91773 3.4656,-2.63729 5.65478,-2.72203 2.76758,-1.93118 7.9599,-2.22305 9.99995,-3.86122 -1.19508,-2.90169 -3.06376,-2.53133 -3.43322,-5.68719 z"
       id="path2870"
       inkscape:connector-curvature="0"
       sodipodi:nodetypes="cccccccccccccc" />
    <path
       inkscape:connector-curvature="0"
       style="fill:none;stroke:#80ff00;stroke-width:3.99999952;stroke-linecap:round;stroke-linejoin:round;stroke-miterlimit:4;stroke-opacity:1;stroke-dasharray:none"
       d="m 302.85884,435.94241 c 2.89357,0.73381 4.58094,-0.62429 5.97724,0.23661 5.65055,-0.23436 6.25996,3.05756 12.11217,6.05057 3.95378,4.19514 5.6148,6.38488 8.59067,10.25414 -4.07214,0.24425 -8.16922,0.29817 -12.23227,0.58985 -5.17164,2.05413 -5.06617,1.59838 -11.96219,4.04608 -1.39628,0.79352 -4.80392,-2.53084 -7.63447,-3.27834"
       id="path2958-6"
       sodipodi:nodetypes="ccccccc" />
    <g
       id="g3943"
       transform="matrix(1.4234173,0,0,2.0261181,-80.401585,234.99062)">
      <path
         sodipodi:nodetypes="ssscsssssss"
         inkscape:connector-curvature="0"
         d="m 186.83811,118.93536 c 0.45417,5.92201 1.66609,4.13303 5.38165,6.093 3.08449,1.62706 9.61142,2.82661 10.78962,-0.47233 1.4645,-4.1006 2.09141,-4.59529 0.37973,-8.1621 -1.71168,-3.56681 -1.19902,-5.84367 -4.81901,-9.2082 -3.61735,-3.36209 -3.88998,-1.19175 -5.82397,-8.54382 -0.8937,-3.3974 -6.03748,-3.41669 -8.29376,-3.84063 -5.11203,-0.96053 -7.38522,1.51159 -6.5753,4.55579 0.51387,1.93145 1.67904,4.95598 3.23036,7.11652 2.12027,2.9529 -1.99585,1.5339 0.89681,6.87116 2.48939,4.59318 4.71823,4.08274 4.83387,5.59061 z"
         style="fill:none;stroke:#000000;stroke-width:2.35538292;stroke-linecap:butt;stroke-linejoin:miter;stroke-miterlimit:4;stroke-opacity:1;stroke-dasharray:none"
         id="path3002" />
      <path
         sodipodi:nodetypes="cc"
         inkscape:connector-curvature="0"
         id="path3816"
         d="m 192.5,99.25 c -4.67593,0.72118 -8.03705,2.92902 -12,4.25"
         style="color:#000000;fill:none;stroke:#000000;stroke-width:2.35538292;stroke-linecap:butt;stroke-linejoin:miter;stroke-miterlimit:4;stroke-opacity:1;stroke-dasharray:none;stroke-dashoffset:0;marker:none;visibility:visible;display:inline;overflow:visible;enable-background:accumulate" />
      <path
         sodipodi:nodetypes="cc"
         inkscape:connector-curvature="0"
         id="path3818"
         d="m 197.5,107.5 c -5.35668,1.44802 -8.40236,6.75 -14.5,6.75"
         style="color:#000000;fill:none;stroke:#000000;stroke-width:2.35538292;stroke-linecap:butt;stroke-linejoin:miter;stroke-miterlimit:4;stroke-opacity:1;stroke-dasharray:none;stroke-dashoffset:0;marker:none;visibility:visible;display:inline;overflow:visible;enable-background:accumulate" />
      <path
         inkscape:connector-curvature="0"
         id="path3820"
         d="m 203,116.5 c -5.41933,1.1843 -10.29559,2.69706 -14.5,5.5"
         style="color:#000000;fill:none;stroke:#000000;stroke-width:2.35538292;stroke-linecap:butt;stroke-linejoin:miter;stroke-miterlimit:4;stroke-opacity:1;stroke-dasharray:none;stroke-dashoffset:0;marker:none;visibility:visible;display:inline;overflow:visible;enable-background:accumulate" />
    </g>
    <path
       style="color:#000000;fill:none;stroke:#0000ff;stroke-width:4;stroke-linecap:round;stroke-linejoin:round;stroke-miterlimit:4;stroke-opacity:1;stroke-dasharray:none;stroke-dashoffset:0;marker:none;visibility:visible;display:inline;overflow:visible;enable-background:accumulate"
       d="m -8,527 c 20.702689,-7.76642 33.258105,-13.25347 49,-25.5 9.740863,-6.24389 21.432124,-2.64902 31,-12.5 7.375266,-5.76335 13.704446,-4.81767 20.390067,-7.75059 6.359393,-2.78981 9.993673,-8.065 19.109933,-6.74941 21.55354,-13.35596 25.70574,-9.00677 35.76752,-14.05814 19.03633,-9.55692 9.92736,-12.04595 30.35748,-21.69186"
       id="path3874"
       inkscape:connector-curvature="0"
       sodipodi:nodetypes="cccscsc" />
    <path
       style="color:#000000;fill:none;stroke:#808080;stroke-width:4;stroke-linecap:round;stroke-linejoin:round;stroke-miterlimit:4;stroke-opacity:1;stroke-dasharray:none;stroke-dashoffset:0;marker:none;visibility:visible;display:inline;overflow:visible;enable-background:accumulate"
       d="m 417.66003,443.17805 c -19.93266,-8.5957 -7.12324,-22.04368 -17.14136,-32.58621 -8.61349,-9.06438 -11.33985,-24.23906 -21.22655,-33.65525 -4.56285,-4.34571 -12.47764,-3.48259 -17.6221,-6.77578 -17.9129,-11.46681 -20.72152,-4.79389 -40.37526,0.45334 -10.95788,2.92558 -23.20481,-1.68579 -31.06183,-0.82344 -18.17716,1.99504 -16.48909,13.94429 -30.77935,15.33604 -4.45669,0.43404 -12.58349,9.33732 -22.85447,18.95015 -13.49869,3.37118 -13.36232,22.42187 -30.32427,28.5507 -32.80885,1.03601 -30.00967,10.44025 -40.6311,6.4801 -10.7105,-3.99335 -26.21013,-2.8421 -36.2671,-14.30163 -17.05696,-4.45953 -13.72779,-8.25798 -37.25438,-8.48295 -6.323114,-0.0605 -11.851174,-7.38065 -18.100613,-6.94557 -16.331824,1.13701 -14.971496,8.00749 -36.582724,14.99114 -8.26557,2.67102 -13.159689,0.75398 -22.5833,4.83594 -13.74744,0.38841 -17.866738,15.06761 -24.857958,15.21204"
       id="path3023"
       inkscape:connector-curvature="0"
       sodipodi:nodetypes="cssssssccscssscc" />
    <path
       style="color:#000000;fill:none;stroke:#0000ff;stroke-width:4;stroke-linecap:round;stroke-linejoin:round;stroke-miterlimit:4;stroke-opacity:1;stroke-dasharray:none;stroke-dashoffset:0;marker:none;visibility:visible;display:inline;overflow:visible;enable-background:accumulate"
       d="m 192.5,484 c -16.12742,-1.4109 -15.22745,-5.84662 -22.94911,-7.48655 -13.30439,3.71777 -12.96883,5.7989 -24.05089,6.98655 -31.56074,10.08099 -31.10614,18.77342 -52,25.5 -22.405554,7.21325 -9.599343,9.55825 -31,18 -5.298738,7.31721 -4.7018,7.22047 -23.5,16 -8.074069,8.77358 -10.207514,1.4391 -18.5,7.5 C 12.469569,556.36937 1.95555,560 -8,560"
       id="path3841"
       inkscape:connector-curvature="0"
       sodipodi:nodetypes="cccsccsc" />
    <path
       style="color:#000000;fill:none;stroke:#808080;stroke-width:4;stroke-linecap:round;stroke-linejoin:round;stroke-miterlimit:4;stroke-opacity:1;stroke-dasharray:none;stroke-dashoffset:0;marker:none;visibility:visible;display:inline;overflow:visible;enable-background:accumulate"
       d="m 305.47519,526.59746 c -10.55682,-12.02963 -11.96662,-6.47852 -24.04245,-18.49281 -9.06598,-9.01978 -10.38542,-6.09756 -17.53096,-9.71819 -17.6243,-8.93019 -5.34804,-0.42643 -19.0718,-22.39286 -6.95567,-4.88869 -7.45815,-5.39455 -37.07166,3.72128 -5.02443,1.54666 -18.37247,3.32711 -27.21296,9.35229 -12.04704,2.41507 -19.231,-3.40942 -35.38672,2.92349 -17.23706,1.67651 -29.83997,22.1103 -37.30483,25.39808 -11.127465,4.9009 -8.720128,7.97419 -14.701139,13.3395 -21.196531,11.68015 -25.408725,8.22269 -41.119531,25.50752 -10.083237,4.92526 -6.69981,7.31655 -19.111674,11.29071 -7.140683,2.28638 -16.328435,2.11898 -23.2155287,5.33797 -5.3729872,5.10715 -22.9703873,3.9342 -23.4944983,8.68006"
       id="path2986"
       inkscape:connector-curvature="0"
       sodipodi:nodetypes="csscsccsccscc" />
    <g
       id="g6898"
       transform="matrix(0.08314211,0.99653768,-0.99653768,0.08314211,595.62245,247.82397)">
      <path
         sodipodi:nodetypes="ssss"
         inkscape:connector-curvature="0"
         id="path6851"
         d="m 260.10061,227.39164 c -4.88996,-2.16352 -6.60689,-2.21905 -11.68348,-4.60128 -6.34872,-2.97919 -8.15387,-3.10264 -12.75899,-4.75833 C 226.13152,214.60691 222.23201,214.30276 214.75,213"
         style="color:#000000;fill:none;stroke:#c87137;stroke-width:4;stroke-linecap:round;stroke-linejoin:round;stroke-miterlimit:4;stroke-opacity:1;stroke-dasharray:none;stroke-dashoffset:0;marker:none;visibility:visible;display:inline;overflow:visible;enable-background:accumulate" />
      <path
         sodipodi:nodetypes="ssss"
         inkscape:connector-curvature="0"
         id="path6856"
         d="m 213.5,212 c 3.52739,1.43799 -3.92305,3.68567 -9,-0.5 -4.61181,-3.80219 -7.5883,-9.97594 -6,-9 7.25265,4.45643 4.55455,5.24177 15,9.5 z"
         style="color:#000000;fill:none;stroke:#808080;stroke-width:4;stroke-linecap:round;stroke-linejoin:miter;stroke-miterlimit:4;stroke-opacity:1;stroke-dasharray:none;stroke-dashoffset:0;marker:none;visibility:visible;display:inline;overflow:visible;enable-background:accumulate" />
    </g>
    <path
       inkscape:connector-curvature="0"
       style="fill:none;stroke:#80ff00;stroke-width:3.99999976;stroke-linecap:round;stroke-linejoin:round;stroke-miterlimit:4;stroke-opacity:1;stroke-dasharray:none"
       d="m 382.63056,479.752 c -0.11545,1.86997 2.70038,-0.48774 2.47205,1.71576 1.61884,2.44284 4.63686,3.04757 6.21389,5.54954 1.37799,1.37632 3.3455,1.86028 4.69217,3.28303 1.46061,1.43497 3.28545,2.22225 5.0785,3.07287 1.52133,0.81925 2.78655,2.02384 4.21654,2.97474 0.63369,1.46715 1.79662,1.95268 2.52406,3.36302 0.88436,1.69663 2.97123,2.06297 3.56251,4.07969 -0.5127,0.70088 -2.37907,0.49925 -3.42532,0.8453 -2.98581,0.50319 -5.97191,1.00829 -8.9573,1.50741 -1.73989,-0.25378 -3.74646,0.41014 -5.23977,-0.57841 -1.37453,-0.42115 -2.93037,-0.14023 -4.37629,-0.25454 -1.64366,0.0738 -3.49057,-0.0157 -5.16941,-0.13054 -1.77556,0.0853 -3.50287,-0.10938 -5.3436,0.3774 -1.44236,0.37808 -3.25513,0.82234 -2.67019,-1.5501 0.0606,-1.75381 1.40651,-3.35205 1.4598,-5.11714 0.57281,-1.97255 0.59691,-3.9485 1.84782,-5.8946 0.37581,-2.07339 1.25749,-4.26315 1.24839,-6.30488 0.67622,-1.78427 0.92535,-3.70283 1.31324,-5.47286 0.036,-0.44395 -0.0388,-1.30253 0.55292,-1.46536 z"
       id="path2942" />
    <path
       inkscape:connector-curvature="0"
       style="fill:none;stroke:#80ff00;stroke-width:3.99999976;stroke-linecap:round;stroke-linejoin:round;stroke-miterlimit:4;stroke-opacity:1;stroke-dasharray:none"
       d="m 378.09326,491.95844 c -6.04724,-1.65058 -8.18781,-2.04717 -14.16606,-6.53151 -11.90108,-3.53409 -19.29679,-4.32644 -30.71127,-9.06684 -13.0048,0.73993 -19.05712,-6.74518 -25.86777,-8.49122 -15.39922,-2.51515 -17.63959,-3.24441 -24.43502,-3.90363"
       id="path2952-1"
       sodipodi:nodetypes="ccccc" />
    <path
       inkscape:connector-curvature="0"
       style="fill:none;stroke:#80ff00;stroke-width:3.99999952;stroke-linecap:round;stroke-linejoin:round;stroke-miterlimit:4;stroke-opacity:1;stroke-dasharray:none"
       d="m 337.2867,515.64128 c 1.5787,-3.98847 6.41549,-6.35753 8.18432,-10.2154 1.73261,-5.23432 4.37469,-8.46059 8.67175,-12.2277 2.20742,-2.74667 7.00436,-11.43249 7.33051,-4.60023 0.13885,4.49189 1.23658,6.44845 0.99403,11.74033 0.77738,5.43048 2.1881,8.32477 1.81681,13.21507 0.78015,3.38753 3.46866,9.53514 2.64398,10.7905"
       id="path2956-7"
       sodipodi:nodetypes="ccccccc" />
    <path
       inkscape:connector-curvature="0"
       style="fill:none;stroke:#80ff00;stroke-width:3.99999952;stroke-linecap:round;stroke-linejoin:round;stroke-miterlimit:4;stroke-opacity:1;stroke-dasharray:none"
       d="m 290.12458,507.79144 c 0.18941,-0.74647 0.0606,-5.42387 0.56473,-7.41138 1.516,-6.27761 -0.4487,-10.10846 2.19944,-17.88649 -0.1016,-7.20512 -0.51605,-10.61558 -1.21177,-16.67741 -3.86719,3.32386 -7.59119,6.84018 -11.49151,10.11354 -5.54514,5.38948 -6.78492,3.94399 -14.4856,8.9408 -1.92269,0.52385 -4.29989,2.24586 -8.75909,2.76315"
       id="path2958-6-7"
       sodipodi:nodetypes="ccccccc" />
    <path
       style="color:#000000;fill:none;stroke:#c87137;stroke-width:4;stroke-linecap:round;stroke-linejoin:round;stroke-miterlimit:4;stroke-opacity:1;stroke-dasharray:none;stroke-dashoffset:0;marker:none;visibility:visible;display:inline;overflow:visible;enable-background:accumulate"
       d="m 183,452.5 c -15.78534,3.46605 -10.98642,5.997 -23,14 -3.64017,3.64017 -12.13106,-2.37436 -21.73822,3.81282 C 126.65463,474 119.45136,478.68288 112.5,481 c -4.11045,1.37015 -13.279492,8.80599 -19.5,10 -8.115495,1.55775 -14.703589,9.1759 -23.5,10 -9.392276,0.87992 -15.658001,8.079 -22.5,11.5 -13.126356,6.56318 -9.535406,9.2677 -25.5,13 -8.957291,2.09409 -13.418917,11.63964 -26,12.5"
       id="path3868"
       inkscape:connector-curvature="0"
       sodipodi:nodetypes="cccsssssc" />
    <path
       style="color:#000000;fill:none;stroke:#c87137;stroke-width:4;stroke-linecap:round;stroke-linejoin:round;stroke-miterlimit:4;stroke-opacity:1;stroke-dasharray:none;stroke-dashoffset:0;marker:none;visibility:visible;display:inline;overflow:visible;enable-background:accumulate"
       d="m 188.5,469.5 c -4.14694,3.33102 -9.23249,6.11625 -16.5,2 -6.10276,-2.09101 -11.0204,0.70752 -19,4 -2.24293,2.24293 -10.19046,-0.40477 -13,1 -6.70524,3.35262 -14.88605,10.46202 -21,12.5 -8.25089,2.7503 -27.459982,9.45998 -32.5,14.5 -3.864339,3.86434 -13.160575,2.88686 -17.5,7.5 -4.889479,5.19789 -9.4507,3.22535 -20,11 -3.032453,2.23486 -4.696239,6.31822 -7.5,7 -8.760582,2.13029 -15.122412,6.5306 -23,8.5 -9.0989057,5.16134 -11.8090206,9.06475 -24,9"
       id="path3870"
       inkscape:connector-curvature="0"
       sodipodi:nodetypes="cccsssssscc" />
    <path
       inkscape:connector-curvature="0"
       style="color:#000000;fill:none;stroke:#80ff00;stroke-width:4;stroke-linecap:round;stroke-linejoin:round;stroke-miterlimit:4;stroke-opacity:1;stroke-dasharray:none;stroke-dashoffset:0;marker:none;visibility:visible;display:inline;overflow:visible;enable-background:accumulate"
       d="m 116.29493,452.03917 c 14.51159,-8.08124 33.10837,7.43451 50.53461,15.43899 9.25412,4.25073 4.02931,-2.94318 26.93545,-9.44879 34.47055,-9.79003 32.2088,-1.42717 46.05569,-6.60779 10.63812,-3.98011 12.42466,3.57429 21.09034,3.7037 8.45195,0.12622 15.4531,3.97882 21.33042,8.58974"
       id="path4125"
       sodipodi:nodetypes="csssss" />
    <path
       style="color:#000000;fill:none;stroke:#808080;stroke-width:4;stroke-linecap:round;stroke-linejoin:miter;stroke-miterlimit:4;stroke-opacity:1;stroke-dasharray:none;stroke-dashoffset:0;marker:none;visibility:visible;display:inline;overflow:visible;enable-background:accumulate"
       d="m 166.6701,489.60198 c 17.56273,8.23073 4.41115,15.91088 34.64823,14.84925 9.88662,-0.34713 23.01208,-0.0622 30.40559,-2.82843 6.91349,-2.58661 -7.74696,-22.61701 6.36396,-28.28427"
       id="path3923"
       inkscape:connector-curvature="0"
       sodipodi:nodetypes="cssc" />
    <path
       style="color:#000000;fill:none;stroke:#808080;stroke-width:4;stroke-linecap:round;stroke-linejoin:miter;stroke-miterlimit:4;stroke-opacity:1;stroke-dasharray:none;stroke-dashoffset:0;marker:none;visibility:visible;display:inline;overflow:visible;enable-background:accumulate"
       d="m 141,433 c 3.80643,-0.93786 9.57691,1.71154 13,0 2.33632,-1.16816 3.18226,-3.74301 4.5,-5.5 10.18348,-13.57797 9.45054,-18.5 31,-18.5 2.30245,0 7.86569,-0.0672 10,1 6.94098,3.47049 15.6189,18.32165 22.5,8"
       id="path3925"
       inkscape:connector-curvature="0" />
    <path
       style="color:#000000;fill:none;stroke:#000000;stroke-width:4;stroke-linecap:round;stroke-linejoin:miter;stroke-miterlimit:4;stroke-opacity:1;stroke-dasharray:none;stroke-dashoffset:0;marker:none;visibility:visible;display:inline;overflow:visible;enable-background:accumulate"
       d="m 412.25,454 c 10.28101,1.46829 36.62042,-0.67769 40.75,2.5 22.88528,17.61008 -27.3298,6.75957 -34.5,15.5 -6.33828,7.72632 6.44275,10 14.5,10 5.1908,0 22.1908,-6.5 26,-1.5 1.79829,2.36045 1.96418,10.36146 -5.5,11.5 -12.17205,1.85665 -36.72627,-1.87295 -32.5,4.5 3.93748,5.93748 40.33355,1.66645 33,10.5 -6.46725,7.79006 -37.4052,1.37701 -45.5,9 -9.08936,8.55958 27.58023,4.00973 36.52451,6.33165 10.01869,2.60084 6.16122,8.74995 -0.97862,9.61405 -13.32928,1.61318 -31.26855,0.36245 -47.00994,0.76642 -17.21646,0.44183 -23.24758,6.79149 -36.28595,-1.46212 -6.76013,-4.27933 -14.01786,-4.1082 -21.75,-3.75 -11.78907,0.54614 -12.53336,7.67085 -31,6.5 -4.29614,-0.27239 -3.40103,8.86276 1.77496,10.46505 14.71557,4.55537 28.35096,-5.05902 45.22504,0.035 12.31224,3.71684 26.12773,-2.61851 38.903,-0.22589 20.57007,3.85247 30.22862,-1.71557 43.597,-1.27411 7.06338,0.23325 6.61198,18.47329 -5.55602,11.17249 -5,-3 -36.10683,6.90772 -63.39768,2.0692 -13.39211,-2.37435 -47.59249,2.31498 -61.59781,0.22417"
       id="path3022"
       inkscape:connector-curvature="0"
       sodipodi:nodetypes="cssssssssssssssssssssc" />
    <path
       inkscape:connector-curvature="0"
       style="fill:none;stroke:#80ff00;stroke-width:3.99999976;stroke-linecap:round;stroke-linejoin:round;stroke-miterlimit:4;stroke-opacity:1;stroke-dasharray:none"
       d="m 205.97891,245.16669 c -16.64186,-2.61598 -32.6125,-2.41454 -48.78484,-3.1112 -14.88654,-0.23962 -26.87474,3.8262 -42.6667,8.48966 -14.08624,6.07942 -32.305098,9.2968 -52.294958,7.31204 -16.80902,-2.02386 -32.90024,-7.04958 -47.92208,-16.20226 -8.8712402,-4.69144 -18.2039402,-8.95144 -24.1570402,-16.6983 -15.8941778,-15.4837 -26.2435318,-33.74966 -43.0789658,-48.7384 -5.883312,-7.18458 -13.012614,-15.78186 -14.135004,-17.37884 -12.71708,-11.04876 -9.728858,-28.36022 -6.471782,-35.58852 0.411578,1.01322 1.64387,-3.56096 0.979636,-4.4829"
       id="path4123" />
    <path
       inkscape:connector-curvature="0"
       style="color:#000000;fill:none;stroke:#80ff00;stroke-width:4;stroke-linecap:round;stroke-linejoin:round;stroke-miterlimit:4;stroke-opacity:1;stroke-dasharray:none;stroke-dashoffset:0;marker:none;visibility:visible;display:inline;overflow:visible;enable-background:accumulate"
       d="m 380.13833,173.28583 c -6.2606,-7.25776 -9.69578,-7.17762 -16.94984,-6.24094 -7.52868,0.97122 -13.16638,5.42484 -19.70092,9.58868 -9.13944,5.8237 -19.68162,10.16706 -29.15742,10.58392 -11.83618,0.52064 -20.51398,-1.8515 -31.91708,1.94854 -19.3497,6.44824 -7.9741,-0.178 -34.62386,19.25156 -6.02654,4.39388 -22.01622,-0.3005 -27.42542,22.783 -1.32584,5.65798 0.83606,14.93292 -13.83344,14.30956"
       id="path2833-1"
       sodipodi:nodetypes="csssssss" />
    <path
       inkscape:connector-curvature="0"
       style="color:#000000;fill:none;stroke:#80ff00;stroke-width:3.99999976;stroke-linecap:round;stroke-linejoin:round;stroke-miterlimit:4;stroke-opacity:1;stroke-dasharray:none;stroke-dashoffset:0;marker:none;visibility:visible;display:inline;overflow:visible;enable-background:accumulate"
       d="m 400.49283,157.57203 c 2.59272,0.2161 2.24428,10.39402 3.56398,14.82922 1.07244,3.6045 2.72282,7.07368 3.38862,10.72928 0.73834,4.0547 0.90382,8.21574 1.81956,12.23346 1.37442,6.03124 3.35972,11.95982 5.16588,17.90616 0.88306,2.9071 2.89844,5.21146 2.83768,8.21366 -0.0768,3.72898 3.2599,9.54816 1.12586,11.01228 -1.9838,1.361 -5.86756,-3.5176 -9.19696,-4.13488 -10.70042,-1.9846 -12.71332,-6.87666 -18.15664,-11.40554 -3.84242,-3.19692 -6.07664,-7.34692 -10.1468,-10.13096 -4.46364,-3.05292 -9.7013,-4.54906 -14.20646,-7.54368 -2.83496,-1.88416 -4.87286,-4.58008 -7.5267,-6.60776 -3.9662,-3.03058 1.96132,-4.03944 3.81748,-5.09966 3.43542,-1.9623 6.44476,-4.5459 9.75748,-6.68952 2.86308,-1.85272 4.76304,-4.94298 7.87314,-6.60856 3.3622,-1.80076 6.86144,-3.61664 9.69004,-6.16012 2.70808,-2.4351 5.30162,-5.08908 7.71398,-7.89054 1.18526,-1.37644 1.17102,-2.76188 2.47986,-2.65284 z"
       id="path2870-7"
       sodipodi:nodetypes="csssssssssssssssss"
       inkscape:transform-center-y="14.380046"
       inkscape:transform-center-x="-3.8978748" />
    <path
       inkscape:connector-curvature="0"
       style="fill:none;stroke:#80ff00;stroke-width:3.99999976;stroke-linecap:round;stroke-linejoin:round;stroke-miterlimit:4;stroke-opacity:1;stroke-dasharray:none"
       d="m 297.96433,256.78455 c -8.67784,-5.14406 -16.93518,-6.76626 -25.9555,-7.74524 -11.84406,-0.3459 -20.07532,-7.37634 -30.40324,-7.6152 -6.98286,-2.0926 -31.79712,-4.35004 -17.86768,-7.70772 9.20266,-3.97938 16.62138,-7.86356 27.7032,-7.55362 12.79968,1.24224 14.24994,-5.2817 26.24114,-8.2403 8.04068,-0.57514 17.65782,-9.122 20.74038,-8.43674"
       id="path2956-7-4"
       sodipodi:nodetypes="ccccccc" />
    <path
       inkscape:connector-curvature="0"
       style="fill:none;stroke:#80ff00;stroke-width:3.99999952;stroke-linecap:round;stroke-linejoin:round;stroke-miterlimit:4;stroke-opacity:1;stroke-dasharray:none"
       d="m 413.04999,228.71589 c -3.68262,4.51076 -4.04048,10.03946 -13.43606,12.45678 -18.00602,1.3545 -27.78182,-2.17172 -40.58088,-4.48016 -12.07086,-2.1771 -13.09336,-12.58602 -15.438,-22.77516 -0.1322,-13.54662 0.42408,-26.55418 2.8927,-38.50512 7.10984,7.31184 5.54692,20.42444 8.16058,30.2671 2.86922,15.19696 4.30488,25.75852 28.88796,26.13658 12.73648,4.88694 10.9719,-8.09412 23.14438,-10.55884"
       id="path2958-6-0"
       sodipodi:nodetypes="ccsccccc" />
    <path
       style="color:#000000;fill:none;stroke:#00ffff;stroke-width:4;stroke-linecap:round;stroke-linejoin:round;stroke-miterlimit:4;stroke-opacity:1;stroke-dasharray:none;stroke-dashoffset:0;marker:none;visibility:visible;display:inline;overflow:visible;enable-background:accumulate"
       d="m 326.68333,259.89593 c 11.85077,-6.52109 22.70694,1.30064 36.94519,1.6765 46.69431,1.23264 35.61547,4.3065 62.75687,-5.91914 5.15359,-1.94164 8.08611,-0.33836 13.43503,-2.12133 4.16643,-1.38881 13.79195,-3.18534 16.97056,-6.36395 3.5968,-3.5968 -4.58184,-46.23307 -2.66466,-76.46782 1.03112,-16.26115 -0.94796,-44.20953 -4.40641,-49.39719 -1.03947,-1.55921 7.05795,-23.526954 9.42138,-48.196814"
       id="path3024"
       inkscape:connector-curvature="0"
       sodipodi:nodetypes="cssssssc" />
    <path
       id="path3063"
       style="fill:none;stroke:#000000;stroke-width:1.00000012px;stroke-linecap:butt;stroke-linejoin:miter;stroke-opacity:1"
       d="m 66.195575,-24.678993 c -2.138548,-7.484159 9.125996,-11.485207 10.947568,-20.366926 2.863401,-13.961491 7.096801,-14.806846 9.348243,-21.072134 4.677966,-13.01775 7.010774,-31.062069 14.835014,-12.692519 2.11257,4.959792 4.6908,8.409264 7.02114,17.608396 3.58435,14.149361 6.88764,32.971011 6.57388,35.908085 -0.99556,9.319862 16.40397,0.700956 18.18066,17.4295545 0.4372,4.1163837 3.73744,12.4583286 4.23334,15.6875806 3.46302,22.5512079 5.36245,18.9777059 17.34789,21.2503359 28.05517,5.3197 30.95029,4.650727 46.49509,6.091669 20.08518,1.86182 17.56034,-7.687353 24.7553,-9.30887 14.4377,-3.253802 10.97805,15.425621 8.57817,28.327684 -2.37928,12.791406 -0.33246,14.802953 -3.26858,21.738209 -2.26701,5.354695 -9.97888,9.341986 -18.72,8.932293 -14.09059,-0.660428 -28.60673,2.088963 -45.53231,3.373329 -19.79526,1.502128 -17.28126,-0.398015 -30.81572,-1.370573 -12.57801,-0.903832 -20.0361,-1.939474 -43.109006,1.493528 C 78.405236,80.903914 65.657473,85.289606 50.092959,110.98434"
       inkscape:connector-curvature="0"
       sodipodi:nodetypes="cssssssssssssssscc" />
    <path
       style="fill:none;stroke:#000000;stroke-width:1.00000012px;stroke-linecap:butt;stroke-linejoin:miter;stroke-opacity:1"
       d="m 100.48088,-19.796159 c -2.434993,-20.151009 -5.585986,-21.936739 -9.35337,-40.756307 -0.344243,-1.719671 -1.289445,-32.655124 -5.206703,-31.977159 -2.640057,0.456925 -8.987462,8.741147 -10.511843,10.192779 -12.977976,12.358629 -7.521772,11.634299 -10.564727,22.107627 -5.031749,17.318428 -9.592998,18.640168 -16.809765,38.731809"
       id="path3059"
       inkscape:connector-curvature="0"
       sodipodi:nodetypes="cssssc" />
    <path
       inkscape:connector-curvature="0"
       style="color:#000000;fill:none;stroke:#80ff00;stroke-width:3.99999976;stroke-linecap:round;stroke-linejoin:round;stroke-miterlimit:4;stroke-opacity:1;stroke-dasharray:none;stroke-dashoffset:0;marker:none;visibility:visible;display:inline;overflow:visible;enable-background:accumulate"
       d="m -151.7751,-8.9339558 c 1.60909,-3.1161742 4.11855,-6.0316312 4.56535,-9.4359252 2.3865,-9.063423 5.66933,-18.098108 9.62612,-26.919536 1.62776,-2.983685 3.48296,-5.879084 5.19693,-8.814833 2.22487,-2.854831 4.45611,-5.905923 7.34063,-8.052144 2.31877,-0.0461 1.77313,3.676421 2.16048,5.549878 -0.0236,2.441816 0.95927,4.376219 2.15533,6.113386 5.15132,9.635491 5.59507,21.928819 6.0896,33.721486 0.15505,4.218238 0.26946,8.4494352 0.5442,12.6314202"
       id="path2880" />
    <path
       inkscape:connector-curvature="0"
       id="path2892"
       style="color:#000000;fill:none;stroke:#80ff00;stroke-width:3.99999976;stroke-linecap:round;stroke-linejoin:round;stroke-miterlimit:4;stroke-opacity:1;stroke-dasharray:none;stroke-dashoffset:0;marker:none;visibility:visible;display:inline;overflow:visible;enable-background:accumulate"
       d="m -228.60473,20.72921 c 8.91364,-2.278025 18.05062,-1.66469 27.25295,-3.03302 5.80199,-2.780281 11.37843,-3.067523 13.71037,-7.484525 3.71521,-4.3920378 3.66914,-7.3641158 7.91392,-11.4392608 5.42842,-5.388162 6.74986,-3.940873 11.14582,-7.096531 3.6061,-0.885425 11.9754,-5.3452612 20.46477,-2.8818652 6.79288,0.369441 15.81959,-2.206409 18.75839,-1.795743 6.85502,2.552389 14.08754,4.2113002 21.2021,6.1986282 5.87477,5.118946 4.84494,13.278535 9.476416,18.7570758 2.34314,6.431339 1.18877,13.698675 5.46634,19.306133 6.03058,2.248344 12.67226,3.590054 18.96082,5.387657 7.76664,0.517663 14.62556,1.307619 21.82268,1.545552 8.40508,0.737805 15.76301,-0.221131 23.22949,-2.487935 3.22225,-7.602616 14.89369,-11.818138 12.85817,7.669857 -1.0575,6.933833 -0.51077,9.106686 -1.37394,14.701854 -0.72914,6.501411 -1.25863,8.197156 -4.27016,14.021193 -5.27938,4.363399 -17.75115,4.918293 -26.53261,5.113398 -8.98356,1.601227 -17.61248,0.531681 -26.56714,2.059677 -7.43136,0.403742 -15.95209,1.23281 -23.36119,3.170103 -9.121896,0.247924 -17.790856,3.06871 -26.862236,1.202229 -7.69042,0.599805 -15.42164,0.714296 -23.13914,0.367104 -10.52641,1.513843 -21.2094,1.591401 -31.7354,2.945198 -7.91045,1.659021 -15.73927,4.402041 -20.38232,11.579764 -6.4776,4.643747 -12.17077,9.949537 -20.60502,10.628117 -5.78649,1.72461 -13.67108,0.65292 -25.01788,-0.1792 -13.3757,1.28021 -25.76115,-4.31094 -31.88977,-5.20856"
       sodipodi:nodetypes="cccccccccccccccccccccccccc" />
    <path
       inkscape:connector-curvature="0"
       style="color:#000000;fill:none;stroke:#80ff00;stroke-width:3.99999976;stroke-linecap:round;stroke-linejoin:round;stroke-miterlimit:4;stroke-opacity:1;stroke-dasharray:none;stroke-dashoffset:0;marker:none;visibility:visible;display:inline;overflow:visible;enable-background:accumulate"
       d="m -163.18397,-6.9104728 c 1.06237,-2.659241 2.97045,-5.0206652 3.71052,-7.8051202 1.03945,-3.910811 1.93074,-10.098745 3.64145,-13.714614 1.10813,-3.158813 3.34956,-5.903743 3.4026,-9.323284 0.83848,-3.491117 1.85011,-6.76934 2.28384,-10.587359 1.23153,-3.092304 1.50618,-5.970106 2.15103,-9.598989 -0.20401,-2.81257 3.13234,-5.362275 4.18707,-2.054084 1.81931,3.039986 4.55781,4.872385 6.28565,8.085224 2.29552,2.732761 4.00855,5.387581 5.04735,8.832705 2.21364,4.486028 4.51849,8.111899 6.08634,12.866851 0.75151,3.824146 2.91902,7.677652 3.42763,11.527911 0.45059,5.144403 1.0726,10.2808702 1.4651,15.4278012"
       id="path2899"
       sodipodi:nodetypes="cscccccccccc" />
    <path
       inkscape:connector-curvature="0"
       style="color:#000000;fill:none;stroke:#80ff00;stroke-width:3.99999976;stroke-linecap:round;stroke-linejoin:round;stroke-miterlimit:4;stroke-opacity:1;stroke-dasharray:none;stroke-dashoffset:0;marker:none;visibility:visible;display:inline;overflow:visible;enable-background:accumulate"
       d="m -196.63198,77.849221 c -2.66776,3.107247 -5.38714,6.853151 -6.90922,11.116104 -3.83474,7.543948 -13.981,8.645109 -17.66613,16.338085 -3.52352,6.04751 -6.98604,12.30213 -8.82711,19.08825 -0.69034,6.2497 -7.16272,18.18653 -8.55475,24.24825"
       id="path2909"
       sodipodi:nodetypes="ccccc" />
    <path
       inkscape:connector-curvature="0"
       style="color:#000000;fill:none;stroke:#80ff00;stroke-width:3.99999976;stroke-linecap:round;stroke-linejoin:round;stroke-miterlimit:4;stroke-opacity:1;stroke-dasharray:none;stroke-dashoffset:0;marker:none;visibility:visible;display:inline;overflow:visible;enable-background:accumulate"
       d="m -235.93913,60.760135 c -3.72603,6.930017 -2.91985,15.677723 -7.96932,21.982199 -2.64423,-0.190251 -2.59768,7.261911 -4.45475,9.976309 -1.96672,3.987334 -5.3373,7.22373 -5.90545,11.903407 -0.89186,5.63536 -4.85309,10.26654 -5.19633,15.99899 -0.32637,6.58931 0.75479,13.28982 -1.12334,19.74605"
       id="path2914"
       sodipodi:nodetypes="cccccc" />
    <path
       style="fill:none;stroke:#000000;stroke-width:1px;stroke-linecap:butt;stroke-linejoin:miter;stroke-opacity:1"
       d="m 39.212745,107.21728 c 6.271268,19.4543 26.133956,21.81685 39.311301,31.74192 10.624068,7.58827 18.764764,2.9926 30.625864,9.08906 8.72107,1.9559 8.20159,-3.62441 17.74521,-1.35365 21.60768,-0.0973 21.37719,0.22348 36.84397,-4.67311 26.52686,-2.75853 14.51683,-3.61934 28.96611,-8.00411 22.94871,-11.8509 16.41228,-3.94853 35.85347,-19.5802 4.38822,-8.01055 13.86841,-14.61523 19.66088,-21.32918"
       id="path4291"
       inkscape:connector-curvature="0" />
    <path
       style="fill:none;stroke:#000000;stroke-width:1px;stroke-linecap:butt;stroke-linejoin:miter;stroke-opacity:1"
       d="m 285.56406,111.85178 c 6.41653,12.07239 17.79488,16.42365 24.77366,19.53085 2.28637,1.01796 7.23952,0.69236 7.22821,-3.61689 -0.0204,-7.75912 -17.92873,-13.34863 -18.95018,-14.4953 -2.36395,-2.65376 -11.66728,-9.72965 -7.0444,-12.11837 3.29949,-1.704902 4.05324,6.30811 6.12545,8.35535 4.55061,4.8067 3.32858,2.23023 10.5229,7.42584 2.60501,1.87721 14.03587,8.75251 16.14532,5.8145 5.31862,-7.40757 -0.64067,-10.66939 -10.71028,-16.27696 -8.18907,-4.56034 -8.65827,-8.251134 -10.22576,-11.655492 -4.66956,-10.141616 -4.97221,-10.952053 1.90418,-19.515921 6.86506,-8.549751 4.01837,-10.266807 13.60436,-13.379219 8.39337,-2.725189 13.80928,4.170954 15.46963,0.964406 3.0779,-5.944179 -2.56178,-8.967275 -8.62815,-10.578085 -2.04655,-0.543432 -5.39308,-1.531061 -7.50841,-1.540925 -9.33276,-0.04354 -15.69064,5.13724 -24.27095,19.560984 -0.41927,-11.77949 8.27494,-11.954897 14.08939,-18.211478 3.22198,-3.466976 11.80347,-2.31777 16.19449,-1.927079 4.15881,0.370032 10.30969,0.59718 9.63327,-7.314879 -0.37475,-4.383481 -4.25064,-6.73093 -13.69037,-4.984436 -12.79688,2.367614 -15.57287,1.64045 -22.80081,12.981906 -6.31063,9.902082 -13.34926,20.231364 1.16697,-5.326092 0.84959,-1.49579 3.98791,-0.694407 6.74578,-6.614096 6.23745,-4.467438 20.82149,-3.76746 20.11618,-9.953236 -0.55541,-3.321841 -5.78366,-7.734005 -8.65513,-5.941514 -9.30911,5.811135 -18.59354,9.23523 -21.68131,12.867072 -5.75893,6.773635 -8.61183,10.041772 -10.16325,13.749778 -2.98919,7.144344 -3.72859,8.940416 -5.68603,16.050493 -2.69159,8.11181 -5.22059,12.502411 -7.38043,19.860891 -8.21432,10.894218 -8.65145,13.401223 -6.93865,30.489272"
       id="path4289"
       inkscape:connector-curvature="0"
       sodipodi:nodetypes="cssssccsssssssscssssssccsssccc" />
    <path
       style="fill:none;stroke:#000000;stroke-width:1px;stroke-linecap:butt;stroke-linejoin:miter;stroke-opacity:1"
       d="m 114.74427,226.63315 c -7.17897,6.15918 -13.68503,8.86787 -26.8101,14.46796 -12.137,7.45897 -13.77078,1.59823 -23.03226,6.66891 -11.48914,-0.25929 -27.70486,1.13328 -35.77041,-0.89903 -19.82466,-0.12193 -29.060085,-10.3137 -55.095168,-14.66106 -18.66792,-5.1267 -25.113438,-14.31088 -37.210035,-27.41148 -13.33175,-15.14228 -12.312313,-9.93811 -26.854132,-23.56342 -11.035515,-14.13054 -13.615355,-12.90647 -18.520355,-25.8615 -6.933,-17.29983 -10.2718,-22.9914 -13.03925,-39.73165 0.91848,-10.63571 11.5977,-15.52561 8.47826,-28.295776"
       id="path4267" />
    <path
       id="path4284"
       style="fill:none;stroke:#000000;stroke-width:1px;stroke-linecap:butt;stroke-linejoin:miter;stroke-opacity:1"
       d="m 297.0235,36.932432 c -10.04835,-1.844537 -9.97993,-0.668778 -19.60087,4.007019 -6.52926,3.173241 -8.65044,4.812721 -12.89426,15.288495 -2.11811,9.869192 -2.7363,8.160148 -3.37573,18.737776 6.46608,14.761628 9.69749,25.437968 18.62037,36.242688 m 25.15723,-68.915628 c -16.17901,-1.399854 -12.01168,-0.535738 -28.82113,10.751406 -7.24789,4.866792 -10.97859,10.228613 -14.71236,18.529949 -3.6719,19.245461 -3.82923,27.896656 10.31834,42.518743 m 34.52563,-63.892343 c -9.89669,-1.809173 -10.4553,0.762125 -16.67758,3.332892 -5.5426,2.28995 -27.51505,12.963135 -28.44728,16.822665"
       inkscape:connector-curvature="0"
       sodipodi:nodetypes="csccccscccsc" />
    <path
       style="fill:none;stroke:#000000;stroke-width:1px;stroke-linecap:butt;stroke-linejoin:miter;stroke-opacity:1"
       d="m -60.420201,327.96886 c 9.19957,18.25285 29.18886,17.52053 43.740521,25.29219 11.66822,5.85707 19.0018,0.0597 31.66191,4.25185 8.91847,0.58603 7.54369,-4.84718 17.32347,-4.07706 21.33358,-3.43207 21.15539,-3.07955 35.68075,-10.3053 25.78293,-6.82087 13.78401,-5.81716 27.3831,-12.38014 20.84393,-15.2518 15.60589,-6.43504 32.40067,-24.88075 3.09888,-8.592 11.44572,-16.58111 16.13219,-24.10885"
       id="path4315" />
    <path
       style="fill:none;stroke:#000000;stroke-width:1px;stroke-linecap:butt;stroke-linejoin:miter;stroke-opacity:1"
       d="m 183.13335,169.59022 c 3.49764,-0.66538 11.47585,6.5815 15.1656,11.32682 4.98222,6.40757 2.76243,4.91808 8.40436,4.79033 1.81516,-0.0411 3.81108,-2.90419 1.34091,-5.33161 -5.02448,-4.93752 -6.78346,-7.11057 -7.10672,-8.39907 -0.74814,-2.98196 -5.14039,-5.08264 -4.57483,-7.9988 0.60962,-3.14339 4.72435,3.25728 5.4575,5.57905 3.086,4.85813 4.41576,4.08266 8.72474,7.1377 3.52781,1.5348 7.8863,3.04056 9.92191,-0.22253 3.25088,-5.21119 -4.7632,-3.22099 -10.18079,-9.56942 -4.18554,-4.90467 -7.28892,-6.72447 -7.30391,-8.23769 -0.0187,-1.88735 1.72459,-3.01257 8.26352,-7.58791 8.00456,-5.60087 8.00119,-3.43255 14.6202,-4.09935 7.05261,-0.71049 5.48194,0.26584 6.98145,-2.21851 2.77975,-4.6054 -2.15495,-6.43924 -7.29782,-6.08561 -1.6829,0.11571 -6.21801,-1.75242 -8.43369,-0.65954 -7.83283,3.86352 -6.9374,4.89546 -15.23351,9.85902 5.30358,-7.84806 3.85466,-4.86585 8.90491,-9.47624 2.79849,-2.55476 6.41004,-2.43861 10.03995,-2.72398 3.43797,-0.27027 10.25035,2.14538 10.12447,-4.23522 -0.0697,-3.53501 -0.64808,-4.65162 -9.04051,-4.26564 -7.07707,0.32549 -8.61453,-0.71387 -15.89508,6.21557 -4.54607,4.32685 -9.52234,12.11456 -7.88504,9.33653 0.65205,-1.10634 2.50217,-5.59862 5.82366,-8.87781 0.86363,-0.85262 -0.20801,-0.97176 3.43517,-4.79578 1.73464,-1.82075 4.10112,-3.04421 5.87519,-3.88132 3.33396,-1.57319 6.94767,-2.53483 6.5117,-4.49144 -0.9579,-4.29894 -4.61794,-3.31038 -7.23072,-2.97732 -4.71635,0.60122 -6.86076,1.99152 -10.04132,4.15328 -6.12432,4.16254 -6.20976,5.57647 -7.91966,8.01357 -3.29454,4.69567 -1.10583,4.5379 -5.37451,8.77672 -3.09524,5.54152 -2.22389,3.94771 -8.03491,4.93795 -8.81241,5.23141 -13.11104,-0.21804 -24.49666,2.54804"
       id="path4313"
       inkscape:connector-curvature="0"
       sodipodi:nodetypes="csssssccsssssssscsssssssssssssccc" />
    <path
       style="fill:none;stroke:#000000;stroke-width:1px;stroke-linecap:butt;stroke-linejoin:miter;stroke-opacity:1"
       d="m 168.42902,276.20443 c -0.453,9.44817 -2.95204,16.0376 -7.89488,29.42404 -2.91306,13.94479 -8.29522,11.10756 -10.9696,21.32199 -8.07856,8.1734 -18.20233,20.91695 -25.21857,25.38413 -13.70307,14.32682 -27.45384,14.04094 -48.49334,29.98034 -16.54666,10.049 -27.64905,8.42707 -45.47914,8.22336 -20.16241,-0.708 -15.67941,2.1249 -35.57015,3.33827 -17.850054,-1.68232 -18.731963,1.03358 -31.517455,-4.29774 -17.336444,-6.84093 -23.766546,-8.3226 -37.83557,-17.80718 -7.100343,-7.97164 -3.320938,-19.09248 -14.745835,-25.59477"
       id="path4267-4" />
    <path
       id="path4326"
       style="fill:none;stroke:#000000;stroke-width:1px;stroke-linecap:butt;stroke-linejoin:miter;stroke-opacity:1"
       d="m 284.25692,17.181521 c -1.05287,9.160921 -13.6118,16.686085 -13.6118,25.986174 m 14.14213,-25.986174 c -10.30327,-0.984132 -20.65378,-0.381327 -30.93592,-1.59099 m 70.4189,-16.9705655 c -1.57075,4.297181 -1.90204,6.401392 -5.85812,8.156117 -13.36157,5.9265445 -10.66928,9.0610145 -21.97303,9.9109325 -6.89089,0.518119 -5.36392,2.46124 -11.65181,0.634529 m 35.88567,-27.1868565 c -4.57655,7.576448 -7.36382,9.867836 -14.45255,13.589308 -3.85692,4.155534 -7.08551,6.3635195 -11.86403,7.2799855 -4.11079,0.693675 -7.62644,4.101887 -9.92265,5.823989 m 28.8146,-35.355342 c -4.3636,8.045339 -11.82059,14.6167335 -18.18536,21.0828315 -6.12249,6.219944 -1.96245,12.5773285 -11.33635,14.8028385"
       inkscape:connector-curvature="0" />
    <path
       style="color:#000000;fill:none;stroke:#80ff00;stroke-width:3.99999976;stroke-linecap:round;stroke-linejoin:round;stroke-miterlimit:4;stroke-opacity:1;stroke-dasharray:none;stroke-dashoffset:0;marker:none;visibility:visible;display:inline;overflow:visible;enable-background:accumulate"
       d="m 111.42677,73.731407 c 10.28846,-2.728647 16.34475,-9.97265 26.53678,-12.449621 1.60098,-0.389091 6.83408,0.0013 11.814,-4.43429 0.78008,-0.694805 2.27519,-1.265585 3.65225,-1.341421 2.23992,-0.123356 13.76034,-2.896872 15.05569,-4.768305 2.4778,-3.579757 -3.10266,-6.721154 -3.73555,-8.22976 -1.77531,-4.231843 -0.52182,-3.835092 -8.47484,-11.903875 -3.38355,-3.432807 -5.51178,-5.692783 -3.15308,-10.691953 2.5304,-2.42532 9.45054,-0.241952 12.82513,3.891936 7.44781,9.123603 10.10949,7.752341 16.14585,15.558885 3.48325,1.514907 7.54828,2.471865 10.02463,-3.091801 7.78937,-4.71129 15.10108,-10.724805 24.04549,-19.205966 2.40141,-2.277038 11.85821,-1.884718 14.19432,1.239714 0.23857,0.319075 -0.36706,2.560129 -0.41197,2.873398 -0.18469,1.288283 -0.10209,3.047158 -0.85999,4.142025 -6.03849,8.724025 -16.61242,17.972714 -26.46875,21.257173 -1.46181,0.487123 -2.23414,3.177257 -3.46778,3.767321 -1.17294,0.56105 0.93071,-1.397618 1.00706,-1.454898 0.85297,-0.639963 2.38647,-0.898182 3.39147,-1.37889 4.44419,-2.125727 8.75475,-1.900887 12.44791,-5.143004 2.7843,-2.444249 5.98942,-3.632619 9.05783,-5.63011 4.44044,-2.890708 12.15023,-12.961138 18.52343,-8.535632 9.14876,6.352839 -7.36653,17.182836 -11.71406,20.444611 -0.50689,0.380299 -0.69633,1.144078 -1.26782,1.417429 -4.45103,2.128996 -9.15936,3.155274 -13.60337,5.77678 -0.97504,0.575179 -14.74439,5.553663 -14.83235,5.066993 -0.41539,-2.298034 8.05065,-5.048183 9.35604,-5.853857 1.79907,-1.110388 1.22537,-0.485491 3.95048,-1.565169 4.42878,-1.754667 34.78804,-15.646842 38.08171,-5.725398 0.2406,0.724704 -0.34369,2.397273 -0.44939,3.134618 -1.44621,10.087203 -10.01716,8.684232 -16.88664,11.970007 -2.92893,1.400948 -7.40394,2.538833 -10.47268,4.36042 -4.98398,2.958457 -5.9026,1.397934 -13.49101,4.993125 -2.55845,1.212126 -6.40711,0.766995 -11.9679,4.16158 1.44138,6.533486 -1.11651,3.502968 -0.94221,10.493793 0.0922,3.699943 -3.10768,8.313213 -2.63171,12.125203 0.48142,3.855492 -2.36197,8.975802 -6.72167,8.050722 -6.50929,-1.38121 -6.07909,-5.93639 -5.14371,-13.565752 0.85244,-6.952727 2.10843,-3.67123 2.02728,-11.488811 -0.0294,-2.828974 -1.22381,-9.316377 -3.23615,-8.544227 -2.01234,0.772148 -11.47191,5.341476 -14.75747,6.131927 -13.38152,3.219384 -22.18371,10.893861 -33.84129,15.132461 -1.97999,0.71991 -1.54531,3.9478 -10.95813,5.890272"
       id="path4331"
       inkscape:connector-curvature="0"
       sodipodi:nodetypes="csssssscsccscsssscssssssscssssssscssssscssc" />
    <path
       style="fill:none;stroke:#000000;stroke-width:1px;stroke-linecap:butt;stroke-linejoin:miter;stroke-opacity:1"
       d="m 114.6949,122.89378 c 23.24032,-5.39972 22.63825,-8.33625 35.95242,-16.49999 2.0914,-1.28239 14.7411,-6.95064 20.76386,-12.24355 6.02278,-5.29292 14.94181,-7.870788 15.47208,-9.558651 2.10869,-4.58309 6.84885,-4.766335 9.77155,-2.907952 4.01769,7.450912 6.7622,6.806198 11.82207,15.584294 2.29262,3.977349 8.26613,6.994689 11.10201,5.465989 3.19692,-3.6609 1.68087,-5.885838 -0.76177,-9.29236 -5.74138,-8.007004 -3.66859,-7.731924 -5.44994,-11.231379 -2.7285,-5.360111 -7.83093,-9.287977 -8.20714,-12.987438 7.58329,3.494808 8.47301,7.023377 11.64636,12.154048 3.31069,5.392395 6.49642,4.713039 7.91388,7.670255 1.43362,2.990978 6.19826,5.504711 9.34041,3.0097 4.69143,-3.725173 1.06664,-9.34179 -3.32105,-14.469761 -3.99855,-4.673198 -3.47349,-1.773111 -7.11549,-7.462954 -1.31793,-2.059015 -3.74663,-3.92164 -9.24488,-11.925489 -5.04172,-3.603263 0.0523,-4.253411 0.88435,-9.927192 1.0216,-6.965713 0.64896,-9.282225 0.0246,-14.098479 -0.38437,-2.965468 0.36831,-6.770811 0.29342,-9.485749 -0.17561,-6.3676 3.13578,-4.725746 -2.44649,-16.0225663 -2.07963,-2.370427 -2.77617,-3.7728195 -8.42365,-2.9518879 -6.57019,3.8211289 -2.87843,15.9899182 -3.07973,19.9708072 -0.12382,2.449517 -0.24023,12.313094 -0.386,15.837239 -0.14575,3.524146 -2.04627,1.684768 -2.19233,-4.631576 0.345,-7.595065 -2.1666,-7.287945 -0.56744,-14.901365 -0.99064,-5.006161 -0.98178,-19.586727 -10.02673,-14.7739374 -6.30087,3.3526784 -2.85341,10.8108034 -2.0767,15.1889344 0.61097,4.961156 -0.54257,7.618643 0.49072,10.579816 1.37064,3.92777 0.0712,10.926283 1.54513,16.893943 -1.65882,5.83755 -2.9234,-11.049564 -3.66601,-15.659818 -1.82742,-9.234315 -1.20736,-15.16177 -8.3993,-20.284788 -7.19193,-5.1230213 -7.92005,5.964212 -6.21606,12.730219 2.53404,10.061842 2.10656,13.537724 3.57053,21.823054 0.72588,7.999294 1.63975,10.106488 -6.17566,16.090173 -9.85984,7.548971 -20.40747,10.04986 -28.94456,17.191471 -7.96416,6.662338 -13.53027,5.914953 -30.49573,12.717174"
       id="path4343"
       inkscape:connector-curvature="0"
       sodipodi:nodetypes="cscccscssccsssccsssccccccscscccscssc" />
  </g>
</svg>
