<?xml version="1.0" encoding="UTF-8" standalone="no"?>
<!-- Created with Inkscape (http://www.inkscape.org/) -->
<svg
   xmlns:dc="http://purl.org/dc/elements/1.1/"
   xmlns:cc="http://creativecommons.org/ns#"
   xmlns:rdf="http://www.w3.org/1999/02/22-rdf-syntax-ns#"
   xmlns:svg="http://www.w3.org/2000/svg"
   xmlns="http://www.w3.org/2000/svg"
   xmlns:sodipodi="http://sodipodi.sourceforge.net/DTD/sodipodi-0.dtd"
   xmlns:inkscape="http://www.inkscape.org/namespaces/inkscape"
   width="480"
   height="320"
   id="svg2"
   version="1.1"
   inkscape:version="0.46"
   sodipodi:docname="itnas061.svg"
   inkscape:export-xdpi="90"
   inkscape:export-ydpi="90"
   sodipodi:version="0.32"
   inkscape:output_extension="org.inkscape.output.svg.inkscape"
   inkscape:export-filename="itnas060.png">
  <defs
     id="defs4">
    <inkscape:perspective
       sodipodi:type="inkscape:persp3d"
       inkscape:vp_x="0 : 160 : 1"
       inkscape:vp_y="0 : 1000 : 0"
       inkscape:vp_z="480 : 160 : 1"
       inkscape:persp3d-origin="240 : 106.66667 : 1"
       id="perspective4059" />
  </defs>
  <sodipodi:namedview
     id="base"
     pagecolor="#ffffff"
     bordercolor="#666666"
     borderopacity="1.0"
     inkscape:pageopacity="1"
     inkscape:pageshadow="2"
     inkscape:zoom="5.6568542"
     inkscape:cx="485.84081"
     inkscape:cy="181.77307"
     inkscape:document-units="px"
     inkscape:current-layer="layer1"
     showgrid="false"
     inkscape:snap-nodes="true"
     inkscape:snap-global="false"
     inkscape:snap-grids="true"
     showguides="true"
     inkscape:window-width="1680"
     inkscape:window-height="1002"
     inkscape:window-x="1680"
     inkscape:window-y="25"
     inkscape:window-maximized="1">
    <inkscape:grid
       empspacing="5"
       visible="true"
       enabled="true"
       snapvisiblegridlinesonly="true"
       type="xygrid"
       id="grid2816" />
  </sodipodi:namedview>
  <metadata
     id="metadata7">
    <rdf:RDF>
      <cc:Work
         rdf:about="">
        <dc:format>image/svg+xml</dc:format>
        <dc:type
           rdf:resource="http://purl.org/dc/dcmitype/StillImage" />
        <dc:title />
      </cc:Work>
    </rdf:RDF>
  </metadata>
  <g
     inkscape:label="Layer 1"
     inkscape:groupmode="layer"
     id="layer1"
     transform="translate(0,0)">
    <path
       style="opacity:1;fill:none;fill-opacity:1;fill-rule:nonzero;stroke:#008000;stroke-width:4;stroke-linecap:round;stroke-linejoin:round;marker:none;marker-start:none;marker-mid:none;marker-end:none;stroke-miterlimit:4;stroke-dasharray:none;stroke-dashoffset:0;stroke-opacity:1;visibility:visible;display:inline;overflow:visible;enable-background:accumulate"
       d="M 265.16504,200.49895 C 264.47533,206.50131 267.99347,223.18555 267.99347,233.73297 C 267.99347,241.15082 269.40768,248.69671 269.40768,256.36039 C 269.40768,258.24601 269.40768,260.13163 269.40768,262.01724"
       id="path3654" />
    <path
       style="opacity:1;fill:none;fill-opacity:1;fill-rule:nonzero;stroke:#008000;stroke-width:4;stroke-linecap:round;stroke-linejoin:round;marker:none;marker-start:none;marker-mid:none;marker-end:none;stroke-miterlimit:4;stroke-dasharray:none;stroke-dashoffset:0;stroke-opacity:1;visibility:visible;display:inline;overflow:visible;enable-background:accumulate"
       d="M 276.47875,199.79185 C 276.47875,203.87765 275.06454,215.67962 275.06454,223.12637 C 275.06454,230.19093 274.60687,238.39206 272.94322,245.04668 C 271.86823,249.34662 272.94322,255.44317 272.94322,259.89592"
       id="path3656" />
    <path
       style="opacity:1;fill:none;fill-opacity:1;fill-rule:nonzero;stroke:#008000;stroke-width:4;stroke-linecap:round;stroke-linejoin:round;marker:none;marker-start:none;marker-mid:none;marker-end:none;stroke-miterlimit:4;stroke-dasharray:none;stroke-dashoffset:0;stroke-opacity:1;visibility:visible;display:inline;overflow:visible;enable-background:accumulate"
       d="M 293.74957,204.58474 C 292.19731,210.79377 292.33857,222.95664 290.21403,231.4548 C 288.29598,239.12702 287.38561,246.93148 287.38561,254.78932 C 287.38561,256.45599 286.9142,258.08915 286.6785,259.73907"
       id="path3658" />
    <path
       style="opacity:1;fill:none;fill-opacity:1;fill-rule:nonzero;stroke:#008000;stroke-width:4;stroke-linecap:round;stroke-linejoin:round;marker:none;marker-start:none;marker-mid:none;marker-end:none;stroke-miterlimit:4;stroke-dasharray:none;stroke-dashoffset:0;stroke-opacity:1;visibility:visible;display:inline;overflow:visible;enable-background:accumulate"
       d="M 299.81327,199.08474 C 299.81327,206.93219 300.76214,220.26159 299.10617,230.19744 C 297.71583,238.53945 299.65676,247.79966 301.22749,255.65328 C 301.41239,256.57778 301.22749,257.5389 301.22749,258.48171"
       id="path3660" />
    <path
       style="opacity:1;fill:none;fill-opacity:1;fill-rule:nonzero;stroke:#008000;stroke-width:4;stroke-linecap:round;stroke-linejoin:round;marker:none;marker-start:none;marker-mid:none;marker-end:none;stroke-miterlimit:4;stroke-dasharray:none;stroke-dashoffset:0;stroke-opacity:1;visibility:visible;display:inline;overflow:visible;enable-background:accumulate"
       d="M 284.25693,188.47814 C 284.82134,191.3002 283.54982,207.16032 283.54982,213.93398 C 283.54982,215.3482 283.54982,216.76241 283.54982,218.17662 C 283.54982,225.7915 281.26237,235.43685 280.01428,242.92536 C 279.00829,248.96131 277.89296,254.61305 277.89296,260.60303"
       id="path3662" />
    <path
       style="opacity:1;fill:none;fill-opacity:1;fill-rule:nonzero;stroke:#008000;stroke-width:4;stroke-linecap:round;stroke-linejoin:round;marker:none;marker-start:none;marker-mid:none;marker-end:none;stroke-miterlimit:4;stroke-dasharray:none;stroke-dashoffset:0;stroke-opacity:1;visibility:visible;display:inline;overflow:visible;enable-background:accumulate"
       d="M 408.375,212.25001 C 408.375,218.66933 409.875,229.18643 409.875,237.05089 C 409.875,240.23871 411.375,242.7943 411.375,245.87833 C 411.375,249.42305 410.875,252.43149 410.875,255.96682 C 410.875,257.13695 410.375,258.47955 410.375,259.75001"
       id="path3751" />
    <path
       style="fill:none;fill-rule:nonzero;stroke:#008000;stroke-width:4;stroke-linecap:round;stroke-linejoin:round;stroke-opacity:1;opacity:1;color:#000000;fill-opacity:1;marker:none;marker-start:none;marker-mid:none;marker-end:none;stroke-miterlimit:4;stroke-dasharray:none;stroke-dashoffset:0;visibility:visible;display:inline;overflow:visible;enable-background:accumulate"
       d="M 430.5,202.75 C 430.5,210.73449 429.43139,220.02444 427.5,227.75 C 425.8763,234.24478 425,243.0982 425,249.75 C 425,252.58333 424.31282,255.50126 425,258.25"
       id="path3753" />
    <path
       style="fill:none;fill-rule:nonzero;stroke:#008000;stroke-width:4;stroke-linecap:round;stroke-linejoin:round;stroke-opacity:1;opacity:1;color:#000000;fill-opacity:1;marker:none;marker-start:none;marker-mid:none;marker-end:none;stroke-miterlimit:4;stroke-dasharray:none;stroke-dashoffset:0;visibility:visible;display:inline;overflow:visible;enable-background:accumulate"
       d="M 418.875,199.125 C 420.00497,203.64486 418.875,218.79906 418.875,225.625 C 418.875,231.16599 420.375,236.4709 420.375,242.125 C 420.375,246.8452 419.375,250.90316 419.375,255.625 C 419.375,257.55191 418.19517,258.48465 417.875,259.125"
       id="path3755" />
    <path
       style="fill:none;fill-rule:nonzero;stroke:#008000;stroke-width:4;stroke-linecap:round;stroke-linejoin:round;stroke-opacity:1;opacity:1;color:#000000;fill-opacity:1;marker:none;marker-start:none;marker-mid:none;marker-end:none;stroke-miterlimit:4;stroke-dasharray:none;stroke-dashoffset:0;visibility:visible;display:inline;overflow:visible;enable-background:accumulate"
       d="M 401.375,200.75 C 401.375,206.61155 399.875,217.07541 399.875,224.75 C 399.875,230.78231 400.875,236.73873 400.875,242.75 C 400.875,247.5053 400.875,251.97551 400.875,256.75 C 400.875,257.75 400.875,258.75 400.875,259.75"
       id="path3757" />
    <path
       style="opacity:1;fill:none;fill-opacity:1;fill-rule:nonzero;stroke:#008000;stroke-width:4;stroke-linecap:round;stroke-linejoin:round;marker:none;marker-start:none;marker-mid:none;marker-end:none;stroke-miterlimit:4;stroke-dasharray:none;stroke-dashoffset:0;stroke-opacity:1;visibility:visible;display:inline;overflow:visible;enable-background:accumulate"
       d="M 441.5,191.35938 C 441.5,198.58058 440.71563,212.17078 439.5,222.0144 C 439.33333,223.364 439.16667,224.71358 439,226.06318 C 438.87982,227.03639 438.66667,227.99117 438.5,228.95516 C 437.54629,234.47141 438.67515,240.29103 437.5,245.72866 C 436.81064,248.91847 437.37515,254.9837 438,257.87499"
       id="path3759" />
    <path
       style="fill:none;fill-rule:evenodd;stroke:#0000ff;stroke-width:3.99999976;stroke-linecap:round;stroke-linejoin:round;stroke-miterlimit:4;stroke-dasharray:none;stroke-opacity:1"
       d="M 144.98675,261 C 153.40542,261.74544 174.58745,259 186.08254,259 C 194.90929,259 221.9206,258.43635 224.26844,261.437 C 237.37219,278.1842 242.68292,271.60991 268.37559,278 C 278.30956,280.47071 316.75317,282.17086 326.02964,278.99264 C 334.84134,275.97366 353.42613,276.46849 350.44445,263.38948 C 349.66166,259.95586 357.37874,261.14398 360.62446,260.60303 C 375.76294,258.07995 394.70197,260.60303 410.12194,260.60303 C 421.44651,260.60303 432.41844,257.16155 443.35595,259.89592 C 451.27062,261.87459 459.93585,261.31014 468.10469,261.31014 C 475.48836,261.31014 483.20972,262.01724 490.73211,262.01724 C 497.26031,262.01724 503.67199,261.89346 509.82399,263.43146"
       id="path2849"
       sodipodi:nodetypes="csssssssssss" />
    <path
       style="fill:none;fill-rule:evenodd;stroke:#ff8000;stroke-width:4;stroke-linecap:round;stroke-linejoin:round;stroke-miterlimit:4;stroke-dasharray:none;stroke-opacity:1"
       d="M 347.30894,218.11958 C 350.34183,220.39874 350.64696,211.6178 351.49155,205.96764 C 351.66923,204.77899 352.24304,195.42941 352.42073,194.24077 C 353.12849,189.50594 356.41955,180.85891 361.39824,180.6147 C 366.57161,180.36092 369.19713,184.22087 370.64351,189.58586 C 371.54644,192.93505 364.41515,196.86022 362.852,197.62285 C 357.08858,200.43472 354.11958,201.04197 347.85802,202.25211 C 343.70406,203.05493 342.79394,203.81883 340.5549,204.91121 C 336.94747,206.67121 332.41047,207.36679 335.82328,209.47955 C 337.6681,210.62161 342.77661,214.71363 347.30894,218.11958 z"
       id="path3621"
       sodipodi:nodetypes="csssssssss" />
    <path
       style="fill:none;fill-rule:evenodd;stroke:#ff8000;stroke-width:4;stroke-linecap:round;stroke-linejoin:round;stroke-miterlimit:4;stroke-dasharray:none;stroke-opacity:1"
       d="M 470.48676,277.375 C 470.41859,276.52325 464.33322,281.79552 461.11176,284.6875 C 456.23397,289.0664 447.47836,291.75506 441.17426,291.5 C 436.02786,291.29178 434.16664,286.20428 433.48676,282.125 C 432.55922,276.55977 438.81235,274.26416 442.98676,275.125 C 448.44213,276.25 454.45255,279.63353 455.92426,281.75 C 459.12601,286.35444 461.06604,288.51793 465.48676,292.125 C 471.12456,296.72515 470.47612,293.71269 470.48676,292.8125 C 470.52715,289.15772 470.79594,281.23796 470.48676,277.375 z"
       id="path3623"
       sodipodi:nodetypes="cssssssss" />
    <path
       style="opacity:1;fill:none;fill-opacity:1;fill-rule:nonzero;stroke:#008000;stroke-width:4;stroke-linecap:round;stroke-linejoin:round;marker:none;marker-start:none;marker-mid:none;marker-end:none;stroke-miterlimit:4;stroke-dasharray:none;stroke-dashoffset:0;stroke-opacity:1;visibility:visible;display:inline;overflow:visible;enable-background:accumulate"
       d="M -170.51324,256 C -164.84623,254.83196 -154.20139,256.38393 -150.51324,256.5 C -139.71273,256.8399 -126.53077,258.5 -115.51324,258.5 C -101.89381,258.5 -88.583384,255.95965 -75.013239,256.5 C -62.905859,256.9821 -50.074499,259.91225 -38.013239,257.5 C -24.878329,254.87302 -8.8235489,258 4.4867611,258 C 23.854271,258 43.318191,258.12984 62.486761,256 C 72.959941,254.83631 83.40874,255 93.98676,255 C 105.88515,255 116.62521,265.54594 128.4261,265.54594 C 141.72141,265.54594 152.04771,267.22468 162.48676,275.5 C 173.20923,284 185.03713,285.12982 195.98676,287.5 C 209.84602,290.5 222.97367,290.80186 234.98676,293.5 C 241.6653,295 247.04921,300.73536 251.48676,303.5 C 260.90329,309.36661 269.53004,313.5 278.48676,313.5 C 287.52902,313.5 327.14242,314.58608 335.48676,312.5 C 345.3652,312.5 355.14407,307.27208 365.57421,307.27208 C 382.77513,307.27208 400.02298,305.15076 417.193,305.15076 C 435.59079,305.15076 455.66044,309.63595 473.76154,312.22183 C 485.67135,313.92323 499.15402,313.08303 510.5311,310.80761"
       id="path2842"
       sodipodi:nodetypes="cssssssssssssss" />
    <path
       style="fill:none;stroke:#0000ff;stroke-width:4;stroke-linecap:round;stroke-linejoin:round;stroke-miterlimit:4;stroke-dasharray:none;stroke-opacity:1"
       d="M 119.47714,158.92515 C 117.1286,159.11323 116.37765,161.16045 115.57594,162.43462 C 113.77821,164.18884 114.42871,164.83613 112.83129,167.06539 C 112.7791,169.0322 111.69882,170.59972 112.09254,172.74017 C 111.82868,175.88659 114.4331,178.4866 116.64028,180.3084 C 118.46077,181.34887 120.14182,182.54073 122.33816,182.32365 C 123.88903,182.16981 125.64794,182.53307 127.03378,181.96901 C 128.66621,180.04422 132.12293,179.24585 133.08359,177.55196 C 133.16405,175.69501 133.09457,173.85222 133.34908,172.04615 C 133.29455,169.29849 133.24101,166.55081 133.18638,163.80325 C 132.11545,162.8341 131.57508,161.29046 130.37158,160.99845 C 129.69705,160.33464 128.0625,160.66756 127.1726,160.18493 C 124.882,159.27505 122.11692,159.58198 119.47714,158.92515 L 119.47714,158.92515 z"
       id="path2905" />
    <path
       style="fill:none;stroke:#0000ff;stroke-width:4;stroke-linecap:round;stroke-linejoin:round;stroke-miterlimit:4;stroke-dasharray:none;stroke-opacity:1"
       d="M 118.8125,216.2922 C 119.72791,213.92416 118.40143,210.61652 119.27669,209.79555 C 118.97787,205.92977 119.40767,202.0076 119.05816,198.14947 C 118.55346,194.82729 119.32758,191.57283 119.4321,188.47277 C 119.71424,186.97378 119.99635,185.4749 120.27846,183.97602"
       id="path2907" />
    <path
       style="fill:none;stroke:#c87137;stroke-width:4;stroke-linecap:round;stroke-linejoin:round;marker:none;stroke-miterlimit:4;stroke-dasharray:none;stroke-dashoffset:0;stroke-opacity:1;visibility:visible;display:inline;overflow:visible;enable-background:accumulate"
       d="M 137.42243,214.59963 C 137.41943,216.96263 137.34813,219.24383 137.99816,221.55233 C 138.19976,222.26833 138.7964,222.60273 139.14965,223.18823 C 139.65312,224.02273 139.7541,225.27393 140.30115,226.05113 C 140.51571,226.35593 140.90129,226.24613 141.16476,226.46013 C 142.08099,227.20393 143.01626,228.83653 144.04347,229.32293 C 146.70759,230.58463 149.62596,230.54993 152.39175,230.54993 C 154.50481,230.54993 156.67335,230.91863 158.43705,228.91403 C 161.80805,225.08263 160.29251,223.86873 161.31577,219.50743 C 161.96,216.76153 163.33086,215.62263 163.33086,212.96363"
       id="path2928" />
    <path
       style="fill:none;stroke:#0000ff;stroke-width:4;stroke-linecap:round;stroke-linejoin:round;stroke-miterlimit:4;stroke-dasharray:none;stroke-opacity:1"
       d="M 104.28335,214.41633 C 107.10894,210.05618 107.281,204.65086 110.26082,200.48505 C 112.49914,197.35586 113.72619,192.26875 115.4711,189.05972 C 116.17508,187.76503 118.33184,181.87252 120.20109,185.00742 C 122.18766,188.33908 124.55823,191.08108 125.75937,193.51354 C 127.74677,197.53825 129.28963,202.11163 132.03301,205.14669 C 133.59518,206.87496 133.26549,209.2691 134.5264,211.35069 C 135.20818,212.4762 136.4271,212.84213 136.67493,214.17369"
       id="path2911"
       sodipodi:nodetypes="csssssss" />
    <path
       style="fill:none;stroke:#c87137;stroke-width:4;stroke-linecap:round;stroke-linejoin:round;marker:none;stroke-miterlimit:4;stroke-dasharray:none;stroke-dashoffset:0;stroke-opacity:1;visibility:visible;display:inline;overflow:visible;enable-background:accumulate"
       d="M -41.221519,254.42966 C -46.036529,253.85131 -51.420289,256.36575 -55.727339,254.59013 C -59.450479,253.05523 -63.351579,249.90168 -64.404529,245.39182 C -65.838029,239.25197 -67.461129,233.14479 -68.909439,227.00328 C -71.053559,217.91123 -69.453039,208.56101 -69.883869,199.34271 C -70.099769,194.72301 -67.561859,190.45928 -67.699309,185.76731 C -67.893229,179.14806 -68.138979,172.52495 -67.717509,165.89689 C -67.492719,162.36178 -67.773509,158.73006 -69.517269,155.50366 C -70.573719,153.54898 -69.685979,151.15662 -69.704029,149.00427"
       id="path2832"
       sodipodi:nodetypes="cssssssss" />
    <path
       style="fill:none;stroke:#c87137;stroke-width:4;stroke-linecap:round;stroke-linejoin:round;marker:none;stroke-miterlimit:4;stroke-dasharray:none;stroke-dashoffset:0;stroke-opacity:1;visibility:visible;display:inline;overflow:visible;enable-background:accumulate"
       d="M -99.121679,153.76514 C -98.664069,157.47561 -98.305969,161.19114 -97.799809,164.93278 C -97.140199,169.80884 -97.799809,175.3607 -97.799809,180.28829 C -97.799809,191.50441 -96.580289,203.75388 -99.121679,214.48921 C -100.4706,220.18735 -97.551289,234.64119 -99.121679,239.61643 C -101.60907,247.49685 -109.69881,251.13421 -116.96684,254.97192 C -118.03633,255.53665 -120.96597,254.97192 -122.2543,254.97192"
       id="path2850"
       sodipodi:nodetypes="cssssss" />
    <path
       style="fill:none;stroke:#94f3f3;stroke-width:4;stroke-linecap:round;stroke-linejoin:round;stroke-miterlimit:4;stroke-dasharray:none;stroke-opacity:1"
       d="M -104.41949,37.450061 C -109.36549,37.63939 -113.89176,41.249528 -115.41949,45.918811 C -117.08817,49.653717 -118.72881,53.735019 -118.03794,57.902846 C -117.14754,62.732175 -115.16371,67.254744 -113.60699,71.887561 C -113.26099,72.584218 -112.63882,73.508208 -113.26324,74.231311 C -114.3031,74.851141 -115.02115,73.390019 -115.57393,72.716889 C -116.45154,71.422244 -117.18994,70.025401 -118.25953,68.873126 C -122.27837,63.259798 -126.96142,58.024736 -132.63824,54.043811 C -134.23287,53.005647 -136.40475,53.087993 -137.88824,54.293811 C -140.03256,55.920217 -141.56372,58.186873 -143.56581,59.971381 C -147.18893,63.533391 -151.16552,66.933284 -153.62424,71.458303 C -156.23338,76.563585 -156.59561,82.877372 -154.14827,88.112572 C -152.33405,92.205306 -148.57228,94.937768 -144.82593,97.140161 C -140.59977,99.649226 -136.27985,102.01336 -132.20074,104.76254 C -131.45009,104.80293 -129.98675,106.11396 -131.16267,106.45349 C -132.31578,106.23977 -133.48263,105.69611 -134.65384,106.14242 C -140.04321,107.1904 -144.75617,110.44338 -148.51029,114.34455 C -150.3759,116.35936 -152.06206,118.60941 -152.90625,121.25538 C -153.89488,124.09596 -153.91791,127.40076 -152.36941,130.05226 C -151.26013,132.22541 -149.10848,133.52925 -147.00187,134.58844 C -143.75209,136.23651 -140.38337,137.71436 -137.44418,139.90046 C -135.23618,141.40464 -133.03112,142.91986 -130.70074,144.23129 C -129.85635,145.16824 -130.91345,146.39089 -131.7955,146.82565 C -138.14047,150.57401 -144.111,155.05787 -149.09556,160.50834 C -151.65908,163.27443 -153.64429,166.86776 -153.54449,170.73129 C -153.49498,172.93325 -151.91868,175.14354 -149.64964,175.43662 C -144.19601,176.97513 -138.59618,177.99527 -132.96283,178.5801 C -128.23368,178.90851 -123.37242,178.36838 -119.02863,176.38075 C -114.05167,174.13981 -113.79236,170.60547 -109.88904,166.84715 C -106.28124,163.17183 -103.03642,159.04668 -100.99934,154.28103 C -100.45265,153.29631 -100.25393,152.1351 -99.513239,151.26254 C -98.766854,150.71443 -97.368528,151.06182 -97.356989,152.10629 C -96.794804,154.35535 -95.914059,156.64476 -94.143173,158.22136 C -91.881907,160.73234 -85.198739,162.87099 -82.312257,164.61168 C -79.759427,165.72372 -78.733796,163.07557 -77.004711,161.03526 C -74.298146,158.28659 -72.312499,154.79733 -71.39038,151.05082 C -71.126553,150.06943 -71.314753,148.89467 -70.731989,148.04379 C -69.760757,147.32059 -68.747418,148.21825 -68.158482,148.96219 C -65.143551,151.44944 -60.185999,155.94384 -56.185979,156.67799 C -51.642079,157.59844 -47.025199,156.403 -42.659539,155.17442 C -38.961209,154.12913 -35.235919,152.87088 -32.026739,150.71084 C -29.833509,149.17195 -29.584269,145.89684 -30.923959,143.71423 C -32.032729,141.80015 -33.428749,140.08367 -34.824309,138.37477 C -35.320799,137.71438 -36.052859,136.81453 -34.943419,137.78652 C -32.340359,139.81118 -29.429799,141.91602 -25.987119,141.93137 C -22.359879,142.1149 -18.509879,142.81828 -15.061219,141.31778 C -12.807279,140.00325 -12.049009,137.27661 -11.588459,134.87477 C -9.5568389,126.16505 -9.0341389,117.03795 -10.584609,108.20729 C -10.984059,105.38735 -12.070709,102.3945 -14.542469,100.75815 C -16.669169,99.258085 -19.288389,98.500507 -21.888239,98.731311 C -22.955389,98.514555 -22.652079,96.758489 -21.606989,96.793811 C -16.848249,95.259846 -12.125519,93.282474 -8.2001189,90.123458 C -6.5762289,88.791742 -5.0219489,87.300056 -3.9507389,85.481311 C -3.1853189,83.899888 -3.3360989,81.90067 -4.5621989,80.586414 C -6.4402189,78.311637 -9.2984489,77.191316 -11.981989,76.168811 C -17.690859,74.123928 -24.106299,74.942063 -29.525189,77.465791 C -31.489759,78.362934 -33.503289,79.36129 -34.836809,81.12685 C -35.810639,81.703496 -35.175519,83.009795 -36.263239,83.418811 C -37.470649,83.64338 -36.958659,81.837306 -36.983759,81.096359 C -36.687609,79.565458 -36.750529,78.013604 -36.902629,76.474666 C -37.322189,70.067127 -39.772329,63.736363 -44.046289,58.912131 C -46.245239,56.562374 -49.058829,54.293097 -52.441349,54.293811 C -55.129899,54.439031 -56.997129,56.612122 -58.811549,58.342117 C -60.415289,59.853018 -61.744474,61.625646 -63.200739,63.262561 C -64.205913,63.707468 -64.974154,62.568347 -65.167379,61.715017 C -66.463464,58.059309 -68.822656,54.875583 -71.395449,52.017093 C -75.905876,47.321545 -81.757033,44.295796 -87.355387,41.118548 C -90.934374,39.240548 -94.832113,37.86469 -98.891828,37.612577 C -100.72772,37.427989 -102.57603,37.392312 -104.41949,37.450061 z"
       id="path2827"
       sodipodi:nodetypes="csssssssssssssssssssssssssssssssssssssscccccccccccccccccccccccccccccc" />
    <path
       id="path3747"
       style="fill:none;stroke:#808080;stroke-width:4;stroke-linecap:butt;stroke-linejoin:miter;stroke-miterlimit:4;stroke-dasharray:none;stroke-opacity:1"
       d="M 97.858142,248.1751 C 97.858493,249.16965 91.115435,249.09924 87.756941,249.46047 C 83.690051,249.89789 79.650233,250.652 75.564284,251.00339 C 68.237298,251.63358 60.895888,252.16443 53.568371,252.51494 C 47.95351,252.78352 42.361184,252.70856 36.730419,253.3479 C 32.29089,253.85194 27.699258,254.22395 23.423469,253.46698 C 20.673508,252.98015 18.085606,251.97291 15.198956,252.15904 C 13.580221,252.26339 12.505389,251.20075 12.160667,250.41025 C 11.725913,249.41296 13.030271,245.76948 14.436426,243.98461 C 15.489571,242.64785 15.068635,240.67906 16.08042,239.40204 C 18.342663,236.54553 18.055011,235.3466 19.130171,231.8795 C 19.871861,229.4877 20.399306,226.96841 21.151272,224.61979 C 21.962634,222.08562 22.632092,216.72285 24.075653,217.10792 C 27.386052,217.99095 33.126139,222.91773 37.96562,225.41213 C 48.525413,230.85494 59.152828,236.56425 70.850036,239.33729 C 76.076708,240.57637 80.852434,243.20236 86.199173,244.09795 C 90.305279,244.78552 97.857992,246.90105 97.85844,248.17523 L 97.858142,248.1751 z"
       sodipodi:nodetypes="cssssssssssssssss" />
    <path
       style="fill:none;stroke:#ff0000;stroke-width:4;stroke-linecap:butt;stroke-linejoin:miter;marker:none;stroke-miterlimit:4;stroke-dasharray:none;stroke-dashoffset:0;stroke-opacity:1;visibility:visible;display:inline;overflow:visible;enable-background:accumulate"
       d="M 147.37167,214.64893 C 146.82005,214.50503 144.66313,214.10743 144.12167,214.64893 C 142.98597,215.78463 142.26884,216.02813 142.12167,217.89893 C 142.01053,219.31163 142.24194,219.71363 143.37167,220.14893 C 145.06134,220.80003 146.28225,220.20793 147.62167,219.14893 C 148.43284,218.50763 148.21699,218.52263 148.62167,217.89893 C 149.37252,216.74173 148.32442,214.89743 147.37167,214.64893 z"
       id="path3727"
       sodipodi:nodetypes="cssssss" />
    <path
       style="fill:none;stroke:#ff0000;stroke-width:4;stroke-linecap:butt;stroke-linejoin:miter;marker:none;stroke-miterlimit:4;stroke-dasharray:none;stroke-dashoffset:0;stroke-opacity:1;visibility:visible;display:inline;overflow:visible;enable-background:accumulate"
       d="M 154.84762,219.63633 C 153.66843,219.36903 150.70877,221.49253 150.59762,222.76133 C 150.52612,223.57723 151.66227,225.67613 152.22262,225.88633 C 153.17209,226.24253 154.50712,226.14083 155.47262,225.88633 C 155.94021,225.76313 156.21323,224.40513 156.47262,223.88633 C 156.71239,223.40683 156.77689,222.06253 156.47262,221.63633 C 155.99245,220.96383 156.05133,219.90923 154.84762,219.63633 z"
       id="path3729"
       sodipodi:nodetypes="cssssss" />
    <path
       style="fill:none;stroke:#ff0000;stroke-width:4;stroke-linecap:butt;stroke-linejoin:miter;marker:none;stroke-miterlimit:4;stroke-dasharray:none;stroke-dashoffset:0;stroke-opacity:1;visibility:visible;display:inline;overflow:visible;enable-background:accumulate"
       d="M 154.28589,210.00513 C 153.6883,210.21693 152.94601,210.59493 152.53589,211.00513 C 151.90993,211.63103 152.10718,213.27453 152.38944,214.12123 C 152.59102,214.72583 153.01238,214.91673 153.53589,215.00513 C 154.11138,215.10213 155.61262,215.32853 156.03589,215.00513 C 156.44245,214.69433 157.29045,214.21723 157.53589,213.50513 C 157.85653,212.57473 157.78552,212.06453 157.53589,211.25513 C 157.32597,210.57443 156.85611,210.00633 156.53589,209.75513 C 156.2444,209.52643 155.59994,209.53913 154.28589,210.00513 z"
       id="path3733"
       sodipodi:nodetypes="cssssssss" />
    <path
       sodipodi:nodetypes="cssssss"
       id="path4061"
       d="M 123.44323,256.12963 C 123.44849,255.55957 121.5585,254.11042 120.80287,254.23464 C 119.21801,254.4951 117.44629,253.83938 117.28304,255.70885 C 117.15279,257.20039 116.32265,257.25327 116.98665,258.26563 C 117.97973,259.7798 118.41601,259.97955 120.12165,259.90018 C 121.15459,259.85215 120.97048,259.73848 121.66291,259.46773 C 122.94765,258.9654 123.43196,257.35058 123.44323,256.12963 z"
       style="opacity:1;fill:none;fill-opacity:1;fill-rule:nonzero;stroke:#808080;stroke-width:4;stroke-linecap:butt;stroke-linejoin:miter;marker:none;marker-start:none;marker-mid:none;marker-end:none;stroke-miterlimit:4;stroke-dasharray:none;stroke-dashoffset:0;stroke-opacity:1;visibility:visible;display:inline;overflow:visible;enable-background:accumulate" />
    <path
       sodipodi:nodetypes="cssssss"
       id="path4063"
       d="M 128.60494,256.09177 C 127.44145,256.42074 125.85713,259.7008 126.36609,260.86835 C 126.69335,261.61915 128.61874,261.80403 129.2114,261.72076 C 130.21563,261.57969 131.41554,261.96757 132.14188,261.28245 C 132.49367,260.9507 133.06497,260.34449 132.81024,259.82339 C 132.48067,259.14916 131.47749,257.25422 130.98836,257.07153 C 130.21495,256.78265 129.79265,255.756 128.60494,256.09177 z"
       style="opacity:1;fill:none;fill-opacity:1;fill-rule:nonzero;stroke:#808080;stroke-width:4;stroke-linecap:butt;stroke-linejoin:miter;marker:none;marker-start:none;marker-mid:none;marker-end:none;stroke-miterlimit:4;stroke-dasharray:none;stroke-dashoffset:0;stroke-opacity:1;visibility:visible;display:inline;overflow:visible;enable-background:accumulate" />
    <path
       sodipodi:nodetypes="cssssssss"
       id="path4065"
       d="M 141.29626,257.89117 C 140.93079,257.3731 139.688,257.69763 139.1822,257.41368 C 138.41038,256.98024 137.69166,257.84136 136.95281,258.34201 C 136.42521,258.69954 135.86077,259.36061 135.9172,259.88853 C 135.97939,260.46881 136.16727,261.97536 136.59306,262.29543 C 137.0022,262.60283 138.21752,262.62302 138.96945,262.66681 C 139.9519,262.72398 140.90424,262.61 141.78499,262.75258 C 142.48816,262.8664 142.12204,261.52989 142.27731,261.15369 C 142.4187,260.81123 142.10017,259.03031 141.29626,257.89117 z"
       style="opacity:1;fill:none;fill-opacity:1;fill-rule:nonzero;stroke:#808080;stroke-width:4;stroke-linecap:butt;stroke-linejoin:miter;marker:none;marker-start:none;marker-mid:none;marker-end:none;stroke-miterlimit:4;stroke-dasharray:none;stroke-dashoffset:0;stroke-opacity:1;visibility:visible;display:inline;overflow:visible;enable-background:accumulate" />
    <path
       id="path2909"
       style="fill:none;stroke:#0000ff;stroke-width:4;stroke-linecap:round;stroke-linejoin:round;stroke-miterlimit:4;stroke-dasharray:none;stroke-opacity:1"
       d="M 119.74013,218.11998 C 120.83832,219.94608 123.07997,224.08736 124.75031,226.84993 C 126.28468,230.88622 129.24886,233.32032 130.92679,237.18245 C 133.0464,239.57447 134.50194,242.25022 136.17772,245.28519 C 137.47528,246.94339 137.57147,251.31801 138.49749,251.74399 C 138.69934,251.9307 139.77585,255.3864 139.08441,254.31212 M 118.90743,216.43613 C 116.90614,219.17034 114.66385,221.83004 113.40334,224.98308 C 111.22932,228.24529 110.08577,232.10425 107.65817,235.17413 C 107.28166,238.93818 104.12851,241.70096 103.30049,245.35222 C 101.8956,246.51751 100.43743,250.24473 100.08161,252.35156"
       sodipodi:nodetypes="ccccccccccc" />
    <path
       style="opacity:1;fill:none;fill-opacity:1;fill-rule:nonzero;stroke:#c87137;stroke-width:3.99999976;stroke-linecap:round;stroke-linejoin:round;marker:none;marker-start:none;marker-mid:none;marker-end:none;stroke-miterlimit:4;stroke-dasharray:none;stroke-dashoffset:0;stroke-opacity:1;visibility:visible;display:inline;overflow:visible;enable-background:accumulate"
       d="M 472.73108,99.6953 C 470.81077,101.10881 468.7712,102.54517 466.38723,102.69768 C 463.96807,102.85243 461.06309,103.4236 460.63297,106.11797 C 460.20149,108.82079 458.95073,111.26023 456.88561,112.99849 C 454.12119,115.32535 450.39512,115.8664 447.32813,117.7216 C 445.1663,119.02928 442.92184,120.21781 440.9641,121.78311 C 437.31355,124.70188 434.42358,128.59839 431.27872,132.12165 C 429.74865,133.83581 427.99824,135.31643 425.5998,135.83948 C 423.44478,136.30945 419.30881,137.14049 419.66047,138.76483 C 419.97228,140.20514 424.05449,139.5486 426.20862,139.3295 C 428.67795,139.07836 430.97185,140.52636 433.38561,139.89961 C 435.77581,139.27897 438.15246,138.3313 440.29435,137.08346 C 442.26156,135.9374 444.1942,134.73476 446.05614,133.40369 C 448.00138,132.01307 449.76678,130.41593 451.50485,128.78061 C 453.36896,127.0267 454.94668,125.06854 456.38658,122.97525 C 457.99212,120.64114 459.31644,118.14795 461.03513,115.87089 C 462.78148,113.55718 465.08957,111.91466 467.09245,109.90739 C 468.91219,108.08366 469.39659,105.75965 470.56432,103.85641 C 471.32496,102.61667 476.069,100.99922 474.05902,99.70224 C 473.69485,99.46725 473.08849,99.43221 472.73108,99.6953 z"
       id="path2935"
       sodipodi:nodetypes="csssssssssssssssssss" />
    <path
       style="opacity:1;fill:none;fill-opacity:1;fill-rule:nonzero;stroke:#c87137;stroke-width:3.99999976;stroke-linecap:round;stroke-linejoin:round;marker:none;marker-start:none;marker-mid:none;marker-end:none;stroke-miterlimit:4;stroke-dasharray:none;stroke-dashoffset:0;stroke-opacity:1;visibility:visible;display:inline;overflow:visible;enable-background:accumulate"
       d="M 448.96291,115.43803 C 447.74767,114.36093 446.70531,113.17725 445.94387,111.71611 C 445.0309,109.9642 444.21956,108.12345 443.11458,106.49782 C 442.22717,105.19226 441.39233,103.7979 440.21809,102.73887 C 438.48251,101.17357 437.18063,99.147974 434.96883,98.100289 C 433.51816,97.413141 432.28843,96.368997 430.72781,95.831627 C 428.20819,94.964031 425.49299,94.502348 422.77146,94.59398 C 420.82842,94.659399 418.88862,94.922609 416.94644,95.439892 C 415.01887,95.953294 413.26197,97.163257 411.77688,98.478583 C 410.36724,99.72709 410.66608,101.85431 411.93145,102.76463 C 413.2362,103.70327 414.70206,104.52065 416.23471,105.08969 C 418.06975,105.771 419.69697,106.79639 421.37212,107.73803 C 423.95607,109.19054 426.44053,110.82146 428.56646,112.87808 C 429.75292,114.02586 431.00016,115.10824 431.80304,116.57702 C 432.61237,118.0576 433.52461,119.48497 434.43105,120.90204 C 435.14065,122.01139 435.93545,123.01506 436.77416,124.03076"
       id="path2941"
       sodipodi:nodetypes="csssssssssssssss" />
    <path
       sodipodi:nodetypes="csssssssssssssss"
       id="path2947"
       d="M 456.57709,125.14003 C 457.33449,126.57645 458.23649,127.87028 459.47478,128.95719 C 460.95948,130.2604 462.55464,131.48601 463.87104,132.94571 C 464.92827,134.118 466.08424,135.26033 466.83382,136.65263 C 467.94175,138.71052 469.59986,140.45654 470.09181,142.85398 C 470.41447,144.42641 471.1364,145.86906 471.28744,147.5127 C 471.53129,150.16632 471.33438,152.91344 470.59852,155.5352 C 470.07314,157.407 469.35641,159.22866 468.39232,160.99223 C 467.43548,162.74253 465.84261,164.1615 464.212,165.2914 C 462.66422,166.36389 460.66898,165.568 460.08551,164.12254 C 459.48389,162.63206 459.03835,161.01394 458.8499,159.38995 C 458.62427,157.44557 458.01503,155.62126 457.49853,153.77031 C 456.70182,150.91517 455.70815,148.11426 454.21577,145.56042 C 453.38288,144.13515 452.62798,142.6664 451.39211,141.53742 C 450.14633,140.39937 448.97669,139.17401 447.81568,137.95673 C 446.90678,137.00379 446.12078,135.99321 445.33354,134.93712"
       style="opacity:1;fill:none;fill-opacity:1;fill-rule:nonzero;stroke:#c87137;stroke-width:3.99999976;stroke-linecap:round;stroke-linejoin:round;marker:none;marker-start:none;marker-mid:none;marker-end:none;stroke-miterlimit:4;stroke-dasharray:none;stroke-dashoffset:0;stroke-opacity:1;visibility:visible;display:inline;overflow:visible;enable-background:accumulate" />
    <path
       style="fill:none;stroke:#80ff00;stroke-width:3.99999976;stroke-linecap:round;stroke-linejoin:round;stroke-miterlimit:4;stroke-dasharray:none;stroke-opacity:1"
       d="M 321.58645,257.04257 C 323.27327,257.85784 322.1581,254.35868 324.11084,255.40479 C 326.98488,254.83211 328.68793,252.26816 331.60081,251.75657 C 333.39663,251.00269 334.5899,249.3652 336.41679,248.65793 C 338.29814,247.84983 339.71807,246.45925 341.18457,245.12215 C 342.51911,244.02458 344.11324,243.31002 345.53502,242.34691 C 347.13288,242.3163 348.02277,241.42397 349.60358,241.28505 C 351.50879,241.10938 352.63842,239.31687 354.72882,239.53371 C 355.18321,240.2737 354.28954,241.92457 354.21345,243.02393 C 353.54794,245.9778 352.88409,248.93266 352.21498,251.88459 C 351.32097,253.39868 351.17523,255.50719 349.69462,256.51467 C 348.7841,257.62716 348.45467,259.17348 347.8011,260.46832 C 347.2467,262.01743 346.46407,263.69271 345.72187,265.20293 C 345.12809,266.87843 344.29357,268.40327 344.04669,270.29118 C 343.85016,271.76927 343.57452,273.61523 341.60053,272.17507 C 340.00043,271.45458 339.03099,269.60375 337.41785,268.8855 C 335.80938,267.60805 333.98985,266.83716 332.66275,264.94221 C 330.88627,263.80891 329.1938,262.16334 327.30079,261.39826 C 325.90569,260.0965 324.22457,259.13908 322.73342,258.10951 C 322.33619,257.90804 321.51326,257.65195 321.58671,257.0427 L 321.58645,257.04257 z"
       id="path2942" />
    <path
       style="fill:none;stroke:#80ff00;stroke-width:4;stroke-linecap:round;stroke-linejoin:round;stroke-miterlimit:4;stroke-dasharray:none;stroke-opacity:1"
       d="M 217.1294,282.01148 C 219.3451,280.32361 220.60074,279.09976 226.38212,277.60088 C 233.3082,275.80522 239.2669,273.87663 246.59795,272.04358 C 251.11838,270.9133 254.9913,267.74796 259.75653,270.32072 C 263.67523,272.43644 269.89484,274.27165 272.36493,276.33366 C 274.96085,278.50071 277.24241,280.23816 278.33142,282.10381 C 278.68555,282.71049 282.56275,284.51037 281.99248,285.88635"
       id="path2956"
       sodipodi:nodetypes="cssssss" />
    <path
       style="fill:none;stroke:#80ff00;stroke-width:4;stroke-linecap:round;stroke-linejoin:round;stroke-miterlimit:4;stroke-dasharray:none;stroke-opacity:1"
       d="M 291.80684,284.33633 C 292.17189,284.13722 294.11016,283.06578 295.1056,282.53738 C 298.24101,280.87307 304.67883,280.4896 310.16422,278.47792 C 313.23302,277.35249 321.62125,274.28582 322.88561,274.53919 C 325.41528,275.04613 326.63744,277.24935 328.29337,278.60926 C 330.80817,280.6745 334.73556,282.61399 343.56165,284.10118 C 344.72482,284.29717 346.08858,284.84889 346.08858,284.84889"
       id="path2958"
       sodipodi:nodetypes="cssssss" />
    <path
       style="fill:none;stroke:#80ff00;stroke-width:4;stroke-linecap:round;stroke-linejoin:round;marker:none;stroke-miterlimit:4;stroke-dasharray:none;stroke-dashoffset:0;stroke-opacity:1;visibility:visible;display:inline;overflow:visible;enable-background:accumulate"
       d="M 237.89577,264.20815 C 242.49412,267.56448 246.43345,266.58396 249.33066,266.80535 C 253.08651,267.09208 256.74868,266.70205 260.47761,266.66501 C 267.89312,266.59129 274.91302,268.86914 282.18725,269.75412 C 288.15306,270.47982 294.14346,271.06038 300.00393,271.92441 C 304.69568,272.61613 309.99416,271.25113 314.19607,271.99482 C 318.01098,272.67007 321.95172,272.19022 325.53083,270.92691 C 328.43097,269.90325 330.77072,268.54688 333.4076,266.02796"
       id="path2965" />
    <path
       style="fill:none;stroke:#80ff00;stroke-width:4;stroke-linecap:round;stroke-linejoin:round;marker:none;stroke-miterlimit:4;stroke-dasharray:none;stroke-dashoffset:0;stroke-opacity:1;visibility:visible;display:inline;overflow:visible;enable-background:accumulate"
       d="M 216.75009,146.69579 C 200.26301,155.55104 207.19484,155.05492 191.2488,169.46326 C 183.84946,176.14907 179.78452,176.59333 174.28278,187.88314 C 167.91869,200.94253 166.34663,207.77844 175.06542,218.91316 C 182.08565,227.87855 198.63587,230.25456 202.77165,238.45017 C 208.8136,250.42311 226.91277,256.19167 237.89577,264.20815"
       id="path2833" />
    <path
       style="opacity:1;fill:none;fill-opacity:1;fill-rule:evenodd;stroke:#0000ff;stroke-width:3.99999976;stroke-linecap:round;stroke-linejoin:round;marker:none;marker-start:none;marker-mid:none;marker-end:none;stroke-miterlimit:4;stroke-dasharray:none;stroke-dashoffset:0;stroke-opacity:1;visibility:visible;display:inline;overflow:visible;enable-background:accumulate"
       d="M 355.375,223.25 C 355.18312,223.32044 357.42797,219.17937 360,215.75 C 361.97201,213.12065 361.76459,210.79417 365,209.5 C 367.33479,208.56608 370.0753,211.56324 370.75,213.25 C 371.54059,215.22648 370.09171,216.99372 368.75,218 C 366.69676,219.53993 364.03312,220.58675 361.75,221.5 C 359.35476,222.4581 357.64501,222.41662 355.375,223.25 z"
       id="path2969"
       sodipodi:nodetypes="cssssss" />
    <path
       style="opacity:1;fill:none;fill-opacity:1;fill-rule:evenodd;stroke:#0000ff;stroke-width:3.99999976;stroke-linecap:round;stroke-linejoin:round;marker:none;marker-start:none;marker-mid:none;marker-end:none;stroke-miterlimit:4;stroke-dasharray:none;stroke-dashoffset:0;stroke-opacity:1;visibility:visible;display:inline;overflow:visible;enable-background:accumulate"
       d="M 375.625,228.375 C 375.35488,228.38054 378.08305,225.5839 379.75,222.25 C 380.98271,219.78458 383.45414,218.38669 385.5,216.75 C 387.12604,215.44916 391.12252,215.62252 392.5,217 C 394.27128,218.77128 395,219.9433 395,222.5 C 395,224.69502 393.68929,225.75133 391.75,226.5 C 386.55826,228.5043 381.12083,228.26232 375.625,228.375 z"
       id="path2971"
       sodipodi:nodetypes="cssssss" />
    <path
       style="fill:none;fill-rule:evenodd;stroke:#0000ff;stroke-width:3.99999976000000013;stroke-linecap:round;stroke-linejoin:round;stroke-opacity:1;opacity:1;color:#000000;fill-opacity:1;marker:none;marker-start:none;marker-mid:none;marker-end:none;stroke-miterlimit:4;stroke-dasharray:none;stroke-dashoffset:0;visibility:visible;display:inline;overflow:visible;enable-background:accumulate"
       d="M 221.00314,232.36428 C 219.22267,228.03791 217.61041,226.22621 217.19064,225.17678 C 216.14956,222.57407 214.28896,219.28766 212.35355,217.35225 C 210.76528,215.76398 207.62773,214.60746 205.94064,215.92678 C 202.94083,218.27264 204.02289,221.59127 204.69064,222.92678 C 205.759,225.06351 208.0972,227.45202 209.94064,228.92678 C 211.73638,230.36337 212.7054,231.28268 214.94064,232.17678 C 216.72339,232.88988 221.26565,233.00214 221.00314,232.36428 z"
       id="path2977"
       sodipodi:nodetypes="csssssss" />
    <g
       id="g4230"
       transform="matrix(6.0818646e-2,0.9981489,-0.9981489,6.0818646e-2,490.40165,-19.590715)"
       style="stroke-linecap:round;stroke-linejoin:round">
      <path
         sodipodi:nodetypes="csssssscc"
         id="path4202"
         d="M 38.671573,25.944544 C 33.241094,33.395423 29.361555,33.333469 23.942452,40.668802 C 16.827107,50.300178 22.371546,63.958085 29.022441,72.585678 C 36.21495,81.915856 49.774948,78.402046 59.569623,77.846242 C 67.574132,77.392022 70.471754,70.870293 75.865404,71.197808 C 81.869211,71.562375 82.838471,59.917028 82.947565,52.145732 C 83.067723,43.58623 84.88679,32.72173 76.184121,27.314266 C 68.375262,22.462176 60.371218,17.763541 50.784197,17.639118 C 46.123264,18.55518 37.505395,20.182367 38.671573,25.944544 z"
         style="fill:none;stroke:#ffff00;stroke-width:4;stroke-linecap:round;stroke-linejoin:round;stroke-miterlimit:4;stroke-dasharray:none;stroke-opacity:1" />
      <path
         id="path4215"
         d="M 31,81 C 28.148613,84.553942 24.105327,87.346267 24.536612,92.015165 C 21.832544,96.043458 21.188425,100.66969 20,105 C 18.715521,104.47725 18.080814,108.77422 18,110"
         style="fill:none;stroke:#ffff00;stroke-width:4;stroke-linecap:round;stroke-linejoin:round;stroke-miterlimit:4;stroke-dasharray:none;stroke-opacity:1" />
      <path
         id="path4217"
         d="M 53.280734,83.999998 C 57.390295,88.160468 53.506616,94.21835 56.447336,98.792054 C 57.662749,104.48954 63.971995,107.98274 62.978347,113.8768 L 62.937021,115"
         style="fill:none;stroke:#ffff00;stroke-width:4;stroke-linecap:round;stroke-linejoin:round;stroke-miterlimit:4;stroke-dasharray:none;stroke-opacity:1" />
      <path
         id="path4219-0"
         d="M 76,78 C 79.400595,81.924314 81.608335,87.266142 86.25064,90 C 88.87156,94.847886 90.567058,100.49689 95.139125,103.99058 C 97.9554,107.74878 101.16891,111.78254 105.04348,114"
         style="fill:none;stroke:#ffff00;stroke-width:4;stroke-linecap:round;stroke-linejoin:round;stroke-miterlimit:4;stroke-dasharray:none;stroke-opacity:1" />
      <path
         id="path4221"
         d="M 90,56.987967 C 104.33334,57.001937 118.66662,57.064057 133,57.040007"
         style="fill:none;stroke:#ffff00;stroke-width:4;stroke-linecap:round;stroke-linejoin:round;stroke-miterlimit:4;stroke-dasharray:none;stroke-opacity:1" />
      <path
         id="path4223"
         d="M 86.000002,33 C 91.268563,32.123904 95.823063,28.794808 100.95111,28.123735 C 105.57264,29.424529 108.83551,25.121589 113.12536,24.349811 C 115.24759,22.885947 120.60982,23.2369 120.85644,21"
         style="fill:none;stroke:#ffff00;stroke-width:4;stroke-linecap:round;stroke-linejoin:round;stroke-miterlimit:4;stroke-dasharray:none;stroke-opacity:1" />
    </g>
  </g>
</svg>
