<?xml version="1.0" encoding="UTF-8" standalone="no"?>
<!-- Created with Inkscape (http://www.inkscape.org/) -->

<svg
   xmlns:dc="http://purl.org/dc/elements/1.1/"
   xmlns:cc="http://creativecommons.org/ns#"
   xmlns:rdf="http://www.w3.org/1999/02/22-rdf-syntax-ns#"
   xmlns:svg="http://www.w3.org/2000/svg"
   xmlns="http://www.w3.org/2000/svg"
   xmlns:sodipodi="http://sodipodi.sourceforge.net/DTD/sodipodi-0.dtd"
   xmlns:inkscape="http://www.inkscape.org/namespaces/inkscape"
   inkscape:export-filename="itnas168.png"
   inkscape:export-ydpi="90"
   inkscape:export-xdpi="90"
   sodipodi:docname="itnas168.svg"
   inkscape:version="0.47 r22583"
   version="1.1"
   id="svg2"
   height="320"
   width="480">
  <defs
     id="defs4">
    <inkscape:perspective
       sodipodi:type="inkscape:persp3d"
       inkscape:vp_x="0 : 160 : 1"
       inkscape:vp_y="0 : 1000 : 0"
       inkscape:vp_z="480 : 160 : 1"
       inkscape:persp3d-origin="240 : 106.66667 : 1"
       id="perspective21" />
    <inkscape:perspective
       id="perspective4593"
       inkscape:persp3d-origin="0.5 : 0.33333333 : 1"
       inkscape:vp_z="1 : 0.5 : 1"
       inkscape:vp_y="0 : 1000 : 0"
       inkscape:vp_x="0 : 0.5 : 1"
       sodipodi:type="inkscape:persp3d" />
    <inkscape:perspective
       id="perspective4606"
       inkscape:persp3d-origin="0.5 : 0.33333333 : 1"
       inkscape:vp_z="1 : 0.5 : 1"
       inkscape:vp_y="0 : 1000 : 0"
       inkscape:vp_x="0 : 0.5 : 1"
       sodipodi:type="inkscape:persp3d" />
    <inkscape:perspective
       id="perspective4619"
       inkscape:persp3d-origin="0.5 : 0.33333333 : 1"
       inkscape:vp_z="1 : 0.5 : 1"
       inkscape:vp_y="0 : 1000 : 0"
       inkscape:vp_x="0 : 0.5 : 1"
       sodipodi:type="inkscape:persp3d" />
    <inkscape:perspective
       id="perspective4632"
       inkscape:persp3d-origin="0.5 : 0.33333333 : 1"
       inkscape:vp_z="1 : 0.5 : 1"
       inkscape:vp_y="0 : 1000 : 0"
       inkscape:vp_x="0 : 0.5 : 1"
       sodipodi:type="inkscape:persp3d" />
    <inkscape:perspective
       id="perspective4645"
       inkscape:persp3d-origin="0.5 : 0.33333333 : 1"
       inkscape:vp_z="1 : 0.5 : 1"
       inkscape:vp_y="0 : 1000 : 0"
       inkscape:vp_x="0 : 0.5 : 1"
       sodipodi:type="inkscape:persp3d" />
    <inkscape:perspective
       id="perspective4658"
       inkscape:persp3d-origin="0.5 : 0.33333333 : 1"
       inkscape:vp_z="1 : 0.5 : 1"
       inkscape:vp_y="0 : 1000 : 0"
       inkscape:vp_x="0 : 0.5 : 1"
       sodipodi:type="inkscape:persp3d" />
    <inkscape:perspective
       id="perspective4671"
       inkscape:persp3d-origin="0.5 : 0.33333333 : 1"
       inkscape:vp_z="1 : 0.5 : 1"
       inkscape:vp_y="0 : 1000 : 0"
       inkscape:vp_x="0 : 0.5 : 1"
       sodipodi:type="inkscape:persp3d" />
  </defs>
  <sodipodi:namedview
     id="base"
     pagecolor="#ffffff"
     bordercolor="#666666"
     borderopacity="1.0"
     inkscape:pageopacity="1"
     inkscape:pageshadow="2"
     inkscape:zoom="1"
     inkscape:cx="312.12955"
     inkscape:cy="159.55038"
     inkscape:document-units="px"
     inkscape:current-layer="layer1"
     showgrid="false"
     inkscape:snap-nodes="true"
     inkscape:snap-global="false"
     inkscape:snap-grids="true"
     showguides="true"
     inkscape:window-width="1280"
     inkscape:window-height="774"
     inkscape:window-x="1276"
     inkscape:window-y="1020"
     inkscape:window-maximized="1"
     inkscape:object-nodes="true">
    <inkscape:grid
       empspacing="5"
       visible="true"
       enabled="true"
       snapvisiblegridlinesonly="true"
       type="xygrid"
       id="grid2816" />
  </sodipodi:namedview>
  <metadata
     id="metadata7">
    <rdf:RDF>
      <cc:Work
         rdf:about="">
        <dc:format>image/svg+xml</dc:format>
        <dc:type
           rdf:resource="http://purl.org/dc/dcmitype/StillImage" />
        <dc:title></dc:title>
      </cc:Work>
    </rdf:RDF>
  </metadata>
  <g
     inkscape:label="Layer 1"
     inkscape:groupmode="layer"
     id="layer1"
     transform="translate(0,0)">
    <path
       style="color:#000000;fill:none;stroke:#008000;stroke-width:4;stroke-linecap:butt;stroke-linejoin:miter;stroke-miterlimit:4;stroke-opacity:1;stroke-dasharray:none;stroke-dashoffset:0;marker:none;visibility:visible;display:inline;overflow:visible;enable-background:accumulate"
       d="m -102.44326,263.37369 c 9.465331,0.33197 19.293721,1.65239 33.324423,0.89616 10.961691,2.00488 23.641571,3.14011 36.004876,1.97828 3.178795,-0.32319 15.719078,1.61115 18.87966,1.89933 19.929888,-0.0799 29.33378,4.74382 48.747691,7.05403 12.070607,0.94885 23.83913,3.91612 35.75969,5.86509 19.74238,3.24596 39.80533,1.66159 59.70554,2.0176 16.90844,-0.0578 33.74455,2.16436 50.29203,5.51774 15.96429,3.49756 32.44203,3.77167 48.68812,2.63975 7.89786,-0.61773 15.80038,-1.24665 23.72749,-1.30935 19.11001,-0.27831 38.2137,0.89705 57.32204,0.4375 22.85019,-1.00998 45.64473,-3.27873 68.53101,-3.44943 18.9332,-0.67644 37.67267,2.90167 56.06981,6.98437 11.68253,3.25376 24.06604,3.01283 35.62067,6.81212 0.32446,0.20535 4.46519,1.87418 6.35156,2 19.57612,1.30568 29.00549,-0.55743 43.14213,-1.10166"
       id="path2852"
       sodipodi:nodetypes="ccccccccccccccsc" />
    <path
       id="path2833"
       style="color:#000000;fill:none;stroke:#808080;stroke-width:4;stroke-linecap:round;stroke-linejoin:round;stroke-miterlimit:4;stroke-opacity:1;stroke-dasharray:none;stroke-dashoffset:0;marker:none;visibility:visible;display:inline;overflow:visible;enable-background:accumulate"
       d="m 155.47935,282.42978 0.22741,-0.40606 c 3.18833,-2.53705 6.02884,-5.46313 9.48992,-7.59682 3.44321,-2.48366 5.90419,-6.20642 9.54543,-8.54561 4.74269,-3.00802 8.06223,-7.55452 12.14234,-11.28781 3.54668,-1.98751 5.53801,-5.73849 9.033,-7.75077 3.40391,-1.82477 6.43427,-4.20636 9.21933,-6.85754 2.37082,-2.19008 4.46819,-4.48427 6.79969,-6.72584 3.28691,-2.66283 4.92586,-6.60032 7.65189,-9.71588 3.18379,-2.93465 8.0104,-10.00173 8.0104,-10.00173 0,0 16.14613,0 16.14613,0 21.80155,-1.27986 42.66983,7.62884 61.2316,5.69053 35.44981,1.03896 38.18789,-1.7647 63.47135,-0.92003 21.92524,-1.30097 31.21586,2.75224 53.74367,4.33376 15.70055,2.94191 30.62685,4.13636 45.0745,2.73731 10.44109,0.86384 17.62743,2.10968 36.94633,4.94975 6.2354,-4.4724 -3.08547,-36.48746 -0.75472,-65.66058 0.36841,-4.61127 -3.30022,-47.17958 -0.7926,-68.956408 1.14098,-9.908568 2.21075,-33.93803 -0.574,-49.93788 -23.23716,4.01579 -43.17095,5.992555 -52.20525,7.80472 -18.60397,3.73172 -44.33057,8.833219 -67.2958,9.87295 -21.55667,0.97596 -40.49063,7.252626 -60.84569,11.07533 -23.83185,4.077789 -46.01957,3.478477 -57.99061,5.22199 -24.00532,3.496236 -64.9985,7.64998 -82.16924,9.62229 -30.30723,3.481228 -35.71428,4.43379 -51.90558,7.7631 -15.01055,3.086518 -14.61038,5.104988 -34.7751,7.013408 -8.11419,0.76794 -36.73028,11.22342 -51.755822,13.93292 -13.253632,2.38997 -26.563557,4.85606 -39.55159,8.03149 -11.412137,2.79015 -23.18089,3.8356 -34.31571,8.01881 -17.62031,-0.33287 -30.34256,9.64802 -48.90538,14.41505 -23.936728,8.06401 -45.036288,22.19367 -68.179788,23.61982 -31.02274,7.59874 -55.13147,8.02551 -90.99666,13.63662 -6.68274,1.04551 -25.26087,3.54729 -24.40158,7.52532 1.82469,8.44731 34.74701,0.74228 51.93902,3.47362 29.82126,-0.30237 59.66704,0.068 89.47595,-0.73566 20.56183,2.53426 41.126498,6.03695 61.800258,7.37424 13.17374,-1.91538 26.01279,1.09129 39.03681,2.4476 21.43871,1.80412 42.85852,2.93763 64.36256,3.46963 17.930972,-0.98217 35.780472,1.85534 53.740122,0.7071 5.66605,-0.005 11.30473,0.70782 16.97056,0.70711 6.56554,0.1583 9.48519,-0.18428 12.38806,0.1111 1.40054,0.20896 2.80084,0.48704 4.22503,0.44394 1.01209,-0.002 2.02315,-0.0597 3.03526,-0.06 2.24955,0.26487 3.06824,-9.3801 1.71295,-9.3575 -7.54247,0.72974 -15.08106,0.54891 -22.62741,0 -15.07697,-1.09667 -29.11212,0.59296 -46.66905,0 -11.924596,-0.40274 -26.515912,-1.60019 -35.355342,-2.82843 -1.509679,-0.20977 -2.178571,-12.58568 -0.730897,-30.18033 1.481894,-18.01057 -1.882922,-34.83828 1.438004,-35.5806 15.636704,-3.49526 26.208613,-7.59221 38.183765,-9.8995 19.95358,-3.84452 36.2728,-10.44323 57.06854,-13.67766 19.41012,-3.01892 36.86819,-6.40767 61.7254,-9.863966 32.20251,-4.47763 58.52518,-8.349976 89.80256,-10.399495 15.36563,-1.006866 32.67407,-4.413811 54.44722,-8.535534 20.06545,-3.798451 39.01383,-4.668934 59.39697,-7.020815 5.37624,-0.620331 2.16113,20.162327 2.04173,37.11673 -0.0942,13.37583 -1.8854,30.97602 -0.62751,38.5437 -0.86843,12.86944 -0.99893,22.36627 -0.93923,28.40361 0.14479,14.65165 3.64949,29.32287 -0.47499,28.87203 -17.08044,-1.86703 -42.81765,-2.26099 -55.86143,-2.12132 -26.88249,0.28786 -40.00115,1.35172 -55.86144,1.41422 -19.07225,-0.96116 -41.65622,-0.51266 -50.20458,-0.70711 -1.10197,2.45134 -2.79176,5.61383 -2.82842,7.68978"
       sodipodi:nodetypes="csssssssssssssscsscsscccccccccccsscccsssssssssccccccccssccccccc" />
    <path
       style="fill:none;stroke:#0000ff;stroke-width:4;stroke-linecap:butt;stroke-linejoin:miter;stroke-miterlimit:4;stroke-opacity:1;stroke-dasharray:none"
       d="m 108.05081,159.32843 c -1.98926,0.27241 -4.05052,0.49747 -5.83427,1.49526 -1.69373,0.94516 -3.17574,2.23277 -4.48113,3.66058 -1.54477,1.71508 -2.82494,3.66401 -3.8096,5.75041 -0.54046,1.18021 -0.82204,2.45579 -1.1238,3.71157 -0.25266,1.28363 -0.12395,2.59861 -0.20257,3.89719 -0.0387,1.59856 -0.10356,3.24691 0.47324,4.76934 0.27893,1.05941 0.85496,1.99977 1.35313,2.96565 0.97586,1.311 1.9301,2.6502 3.13779,3.76279 1.63849,1.4824 3.28898,3.02331 5.32148,3.95122 1.32845,0.64353 2.71064,1.18738 4.1235,1.61476 1.62831,0.45252 3.32044,0.69876 5.01098,0.70248 1.66311,-0.0792 3.30017,-0.47433 4.87461,-1.00062 1.49964,-0.5417 3.00626,-1.13381 4.31087,-2.06627 1.34526,-0.85232 2.69299,-1.73688 3.78753,-2.90612 1.0506,-1.00529 1.80863,-2.27517 2.36298,-3.61109 0.38888,-0.97445 0.74201,-1.97252 0.98933,-2.99242 0.35816,-1.71285 0.55334,-3.45829 0.64343,-5.20473 -0.0902,-2.07906 -0.20733,-4.17404 -0.67068,-6.20826 -0.2817,-1.16456 -0.58373,-2.35082 -1.27456,-3.35086 -0.89047,-1.34775 -2.01279,-2.52666 -3.12562,-3.69091 -1.10745,-1.1097 -2.38971,-2.02785 -3.73916,-2.81757 -1.20388,-0.80969 -2.53066,-1.45334 -3.94642,-1.78746 -1.69528,-0.44646 -3.4624,-0.47885 -5.20267,-0.59597 -0.99295,-0.022 -1.98552,-0.11689 -2.97839,-0.049 z"
       id="path8177"
       sodipodi:nodetypes="cssssssssss" />
    <path
       style="fill:none;stroke:#c87137;stroke-width:4;stroke-linecap:round;stroke-linejoin:round;stroke-opacity:1;color:#000000;stroke-miterlimit:4;stroke-dasharray:none;stroke-dashoffset:0;marker:none;visibility:visible;display:inline;overflow:visible;enable-background:accumulate"
       d="m 411.75,245.5 c -14.51862,3.01982 -24.61813,1.42113 -33.73446,2.43618 -9.93577,1.1063 -20.0192,4.19195 -31.01554,9.06382 -14.0099,6.20701 -21.00291,8.62847 -30.5,18.25 -4.41021,4.46799 -6.75,11.25 -6.75,11.25"
       id="path8848"
       sodipodi:nodetypes="cssss" />
    <path
       style="color:#000000;fill:none;stroke:#94f3f3;stroke-width:4;stroke-linecap:round;stroke-linejoin:round;stroke-miterlimit:4;stroke-opacity:1;stroke-dasharray:none;stroke-dashoffset:0;marker:none;visibility:visible;display:inline;overflow:visible;enable-background:accumulate"
       d="m 417.58386,250.43223 c -2.47035,-3.28246 -5.98513,-8.52686 -3.86191,-12.42506 3.81422,-7.00284 6.54062,-5.57008 12.11869,-5.99079 5.9794,-0.45098 10.84484,-2.15978 17.18942,-2.07539 9.44611,0.12566 9.68451,1.6305 17.77967,1.2907 6.86911,-0.28834 21.62031,-1.40966 28.44822,1.63162 6.92678,3.0853 9.14305,7.67506 4.88819,12.43546 -4.85023,5.4265 -20.94362,4.87277 -26.42627,7.64913 -5.73823,2.90578 -15.6125,2.19144 -22.59084,1.46418 -5.39679,-0.56244 -11.15057,-2.7869 -16.97255,-2.13737 -3.32357,0.37079 -7.13511,2.7251 -10.57262,-1.84248 z"
       id="path8820"
       sodipodi:nodetypes="cssssssssss" />
    <path
       style="color:#000000;fill:none;stroke:#00ffff;stroke-width:4;stroke-linecap:butt;stroke-linejoin:miter;stroke-miterlimit:4;stroke-opacity:1;stroke-dasharray:none;stroke-dashoffset:0;marker:none;visibility:visible;display:inline;overflow:visible;enable-background:accumulate"
       d="m 37.411994,142.63686 c -2.619966,0.36786 -1.793204,5.52336 -1.832297,7.68783 -0.171637,9.50156 -0.379606,15.50522 -0.474802,22.7252 -0.0701,5.317 0.634695,12.7282 -0.184202,17.88058 -0.528619,3.326 1.894627,3.89527 4.687059,3.97496 7.665589,0.21879 15.520409,0.58293 23.269126,1.2613 6.271115,0.54903 12.64199,-0.41862 18.854927,0.4201 1.927272,0.26016 5.564128,1.08107 5.202053,-1.94004 -0.880609,-7.34771 0.160013,-14.7259 -0.228269,-22.10493 -0.691612,-13.14364 0.735445,-12.4464 -0.03723,-23.83159 -0.164403,-2.42243 1.448813,-7.64257 -2.633114,-7.21858 -4.251162,0.44158 -8.555744,-0.14285 -12.807832,0.25034 -6.181076,0.57151 -11.815704,0.13298 -17.807439,0.37479 -5.232271,0.21116 -10.793344,-0.21211 -16.007978,0.52007 z"
       id="path3604"
       sodipodi:nodetypes="csssssssssssss" />
    <path
       style="fill:none;stroke:#ffff00;stroke-width:4;stroke-linecap:round;stroke-linejoin:round;stroke-opacity:1;stroke-miterlimit:4;stroke-dasharray:none;color:#000000;stroke-dashoffset:0;marker:none;visibility:visible;display:inline;overflow:visible;enable-background:accumulate"
       d="m 269.7257,94.331986 c -2.44565,7.702924 -3.25754,15.467854 -4.95345,21.051894 -2.72354,8.96767 -5.83897,16.30636 -8.00671,24.07165 -2.84053,10.17534 -7.29515,21.42521 -5.1716,26.37742 3.03915,7.08746 9.97631,14.56968 11.55511,18.10718 3.79154,8.49543 -13.92884,7.40983 -28.50638,6.79515 -3.89482,-0.1671 -7.91191,6.03195 -2.7001,5.27532 6.00027,-0.8711 12.45711,2.09981 29.05892,-0.85166 3.77379,-0.6709 16.77277,0.81776 20.76333,0.26718 16.65293,-2.29762 25.73845,0.24458 36.56549,-0.84508 2.80305,-0.28211 0.6203,6.01323 -3.9253,5.85419 -7.17354,-0.25099 -10.82395,1.34929 -21.77788,0.27646 -8.31083,-0.81397 -22.782,-1.24051 -30.25145,-0.2017 -10.33823,1.43778 -22.20731,0.51733 -32.44113,0.32843"
       id="path3618"
       sodipodi:nodetypes="csssssssssssss" />
    <path
       style="color:#000000;fill:none;stroke:#ff0000;stroke-width:4;stroke-linecap:butt;stroke-linejoin:miter;stroke-miterlimit:4;stroke-opacity:1;stroke-dasharray:none;stroke-dashoffset:0;marker:none;visibility:visible;display:inline;overflow:visible;enable-background:accumulate"
       d="m 342.54673,198.25736 c 0.5242,1.87087 1.3803,3.22833 5.70692,0.82511 7.99593,-4.44726 4.00029,-1.07535 11.80019,-5.3741 5.92279,-3.26882 13.40535,-7.76203 15.32418,-7.28548 1.75437,0.43569 3.44003,3.98897 6.0411,9.36158 2.68549,5.54697 6.61218,7.88648 7.68864,5.04622 0.64511,-1.70216 0.0585,-3.81944 -2.97398,-8.86565 -6.23139,-10.36922 -2.37502,-6.79638 -8.41841,-16.47875 -2.69536,-4.31833 -4.03223,-8.11967 -6.69192,-14.37503 -0.62246,-1.46402 -5.80474,-0.63393 -4.90486,1.71791 1.49167,3.89856 6.1454,13.11913 5.64355,15.70978 -0.25496,1.31697 -3.39653,3.30081 -8.32423,5.89029 -4.57659,2.40497 -7.45547,3.83792 -11.34339,6.29035 -5.83933,3.68336 -10.13694,5.43499 -9.54779,7.53777 z"
       id="path3637"
       sodipodi:nodetypes="csssssssssssss" />
    <path
       style="color:#000000;fill:none;stroke:#80ff00;stroke-width:3.99999976;stroke-linecap:round;stroke-linejoin:round;stroke-miterlimit:4;stroke-opacity:1;stroke-dasharray:none;stroke-dashoffset:0;marker:none;visibility:visible;display:inline;overflow:visible;enable-background:accumulate"
       d="m 282.66019,171.77842 c -0.47132,1.21248 -5.30184,-0.39808 -7.61553,-0.39433 -1.88033,0.003 -3.77774,0.30227 -5.62489,0.10303 -2.04879,-0.22103 -4.06734,-0.73181 -6.12358,-0.86258 -3.08668,-0.19639 -6.21077,-0.0853 -9.318,-0.0627 -1.5191,0.0111 -2.90977,0.65059 -4.3406,0.19568 -1.77701,-0.56566 -5.04034,0.20883 -5.43967,-1.022 -0.37107,-1.14423 2.51867,-2.31447 3.28689,-3.82318 2.46913,-4.849 5.1002,-5.12027 8.04358,-7.08789 2.07777,-1.38889 4.3844,-1.87153 6.29651,-3.4282 2.09685,-1.70715 3.55698,-4.00625 5.63173,-5.74161 1.30548,-1.09199 2.88708,-1.6868 4.23566,-2.67163 2.01555,-1.47186 1.6586,1.51328 1.9037,2.5536 0.45364,1.92544 1.2656,3.73473 1.82356,5.62708 0.48221,1.63552 1.69446,2.98472 2.05196,4.71212 0.38649,1.86748 0.76094,3.80276 1.57928,5.5197 0.78348,1.64379 1.68814,3.2637 2.68918,4.81765 0.49187,0.7635 1.15815,0.95316 0.92025,1.56523 z"
       id="path2870"
       sodipodi:nodetypes="csssssssssssssssss" />
    <path
       style="color:#000000;fill:none;stroke:#80ff00;stroke-width:4;stroke-linecap:round;stroke-linejoin:round;stroke-miterlimit:4;stroke-opacity:1;stroke-dasharray:none;stroke-dashoffset:0;marker:none;visibility:visible;display:inline;overflow:visible;enable-background:accumulate"
       d="m 375.40753,173.23357 c -3.6199,-0.47007 -6.34263,-1.81521 -9.96798,-2.29653 -3.76245,-0.49994 -7.4309,-1.03081 -11.18918,-1.47148 -4.2382,-0.49694 -9.53683,-1.5588 -14.27928,-1.57699 -5.7856,-0.0222 -10.88498,-2.46511 -16.78537,-3.60669 -7.1944,-1.39206 -14.74642,-1.19812 -22.14891,-1.64373 -3.72237,-0.2241 -7.40285,-0.0914 -11.12943,-0.64035 -2.87459,-0.42367 -9.11251,-1.80107 -11.0752,-3.13929"
       id="path2833-1"
       sodipodi:nodetypes="csssssss" />
    <path
       style="color:#000000;fill:none;stroke:#80ff00;stroke-width:3.99999976;stroke-linecap:round;stroke-linejoin:round;stroke-miterlimit:4;stroke-opacity:1;stroke-dasharray:none;stroke-dashoffset:0;marker:none;visibility:visible;display:inline;overflow:visible;enable-background:accumulate"
       d="m 375.69618,173.32443 c 13.77433,5.76159 15.3891,21.46644 0.1488,26.85768 -9.40156,3.32579 -14.09266,-2.10436 -27.05638,-0.64857 -14.02579,1.57506 -16.0532,1.5174 -30.02035,-0.70022 -11.38208,-1.80718 -24.00746,1.53572 -33.08696,-0.60939 -13.05174,-3.08358 -29.69496,-0.50455 -42.96818,-1.68159"
       id="path4125-8"
       sodipodi:nodetypes="csssss" />
    <path
       style="fill:none;stroke:#80ff00;stroke-width:3.99999976;stroke-linecap:round;stroke-linejoin:round;stroke-miterlimit:4;stroke-opacity:1;stroke-dasharray:none"
       d="m 274.90404,201.7824 c 0.2116,-0.77546 1.3487,-4.94181 1.9122,-7.00629 1.8457,-6.48089 5.912,-8.45154 9.7431,-16.19245 1.5006,-4.61769 6.8881,-13.27177 8.1065,-15.61606 1.6718,5.04496 3.123,10.18866 4.8488,15.20535 2.0837,7.79839 5.6499,14.77892 12.225,20.11699 0.9567,0.56089 3.2507,1.05737 1.9839,2.71637"
       id="path2958-7" />
    <path
       style="fill:none;stroke:#80ff00;stroke-width:3.99999952;stroke-linecap:round;stroke-linejoin:round;stroke-miterlimit:4;stroke-opacity:1;stroke-dasharray:none"
       d="m 342.08045,200.89558 c 0.61186,-3.68007 0.6783,-7.47232 4.13115,-10.76845 3.36913,-4.22182 6.23743,-8.60736 10.68881,-12.63271 1.96777,-2.75363 4.80503,-9.90238 7.94023,-4.19162 5.12717,3.91892 9.19633,7.93223 11.58424,12.29121 3.20724,4.4376 7.43386,9.34315 8.84316,13.54922 -1.01596,1.20786 1.79545,2.08132 1.15036,3.30383"
       id="path2956-4" />
    <path
       style="fill:none;stroke:#0000ff;stroke-width:3.99999976;stroke-linecap:round;stroke-linejoin:round;stroke-miterlimit:4;stroke-opacity:1;stroke-dasharray:none"
       d="m 322.40421,123.13792 c 1.80703,4.31494 2.07937,2.91343 3.02203,3.68574 1.91496,1.5689 1.98217,1.76138 4.26468,2.62218 1.51583,0.57167 3.81871,0.36181 5.72639,0.0791 2.704,-0.4007 4.66189,-1.12946 5.55077,-4.83256 0.33835,-1.40959 0.0831,-2.19687 1.66621,-6.27149 0.63405,-1.63195 -0.13973,-5.54229 -1.0337,-6.84592 -2.52474,-3.68169 -2.3589,-4.89938 -3.80804,-4.95389 -1.5614,-0.0587 -3.77106,-0.75403 -5.36458,-0.80046 -2.85751,-0.0832 -4.67717,0.46894 -6.13268,1.72787 -1.03581,0.89592 -2.00327,2.51082 -2.40694,3.81019 -0.28391,0.91388 -1.94853,2.79154 -2.22682,3.86399 -0.68838,2.65278 -0.43122,5.11213 0.74268,7.91525 z"
       id="path2905"
       sodipodi:nodetypes="cssssssssssss" />
    <path
       style="fill:none;stroke:#0000ff;stroke-width:4;stroke-linecap:round;stroke-linejoin:round;stroke-miterlimit:4;stroke-opacity:1;stroke-dasharray:none"
       d="m 333.03825,131.39629 c -0.86753,2.386 0.52528,5.66625 -0.33326,6.50468 0.37659,3.85897 0.0259,7.78901 0.45298,11.63931 0.5715,3.31135 -0.13694,6.58074 -0.17901,9.68228 -0.25189,1.50436 -0.50376,3.00862 -0.75564,4.51288"
       id="path2907" />
    <path
       id="path2909"
       style="fill:none;stroke:#0000ff;stroke-width:4;stroke-linecap:round;stroke-linejoin:round;stroke-miterlimit:4;stroke-opacity:1;stroke-dasharray:none"
       d="m 332.64367,165.75855 c 1.1178,1.83158 3.4038,5.98386 5.1038,8.75476 1.5773,4.04333 4.5683,6.49319 6.2874,10.36326 2.1456,2.40301 3.6298,5.08592 5.3381,8.12914 1.3155,1.66486 1.4575,6.03828 2.3884,6.46931 0.2039,0.18778 0.8665,2.41765 0.1635,1.33991 m -20.1319,-36.74425 c -1.9736,2.72182 -4.1891,5.36781 -5.4172,8.51247 -2.1409,3.24863 -3.2446,7.09959 -5.6412,10.15455 -0.3373,3.76041 -3.463,6.50428 -4.2532,10.14942 -0.9566,2.59231 -2.2367,4.44959 -2.8355,7.24291 -0.6328,0.98005 -0.14,2.01701 -0.2835,-0.56266" />
    <path
       style="fill:none;stroke:#0000ff;stroke-width:4;stroke-linecap:round;stroke-linejoin:round;stroke-miterlimit:4;stroke-opacity:1;stroke-dasharray:none"
       d="m 315.97937,156.19428 c 2.8764,-2.5466 4.40181,-5.79696 6.7565,-8.7214 0.94824,-1.17768 0.51871,-4.64754 2.21684,-6.5926 2.29884,-2.63312 3.75144,-4.89387 4.38136,-6.0932 0.53929,-1.02677 2.72829,-6.08218 4.6626,-3.6455 1.82869,2.30362 2.80387,4.7672 4.3021,6.248 2.55524,2.52551 3.76417,4.71835 5.2331,7.8233 0.85716,1.81183 2.65686,3.88714 3.915,5.4491 0.63846,0.79264 2.9396,3.5269 3.1695,4.4376"
       id="path2911"
       sodipodi:nodetypes="cssssssss" />
  </g>
</svg>
