<?xml version="1.0" encoding="UTF-8" standalone="no"?>
<!-- Created with Inkscape (http://www.inkscape.org/) -->

<svg
   xmlns:dc="http://purl.org/dc/elements/1.1/"
   xmlns:cc="http://creativecommons.org/ns#"
   xmlns:rdf="http://www.w3.org/1999/02/22-rdf-syntax-ns#"
   xmlns:svg="http://www.w3.org/2000/svg"
   xmlns="http://www.w3.org/2000/svg"
   xmlns:sodipodi="http://sodipodi.sourceforge.net/DTD/sodipodi-0.dtd"
   xmlns:inkscape="http://www.inkscape.org/namespaces/inkscape"
   inkscape:export-ydpi="90"
   inkscape:export-xdpi="90"
   sodipodi:docname="itnas052.svg"
   inkscape:version="0.47 r22583"
   version="1.1"
   id="svg2"
   height="320"
   width="480"
   inkscape:export-filename="itnas052.png">
  <defs
     id="defs4" />
  <sodipodi:namedview
     id="base"
     pagecolor="#ffffff"
     bordercolor="#666666"
     borderopacity="1.0"
     inkscape:pageopacity="1"
     inkscape:pageshadow="2"
     inkscape:zoom="1"
     inkscape:cx="119.92639"
     inkscape:cy="191.56984"
     inkscape:document-units="px"
     inkscape:current-layer="layer1"
     showgrid="false"
     inkscape:snap-nodes="true"
     inkscape:snap-global="false"
     inkscape:snap-grids="true"
     showguides="true"
     inkscape:window-width="1280"
     inkscape:window-height="774"
     inkscape:window-x="-4"
     inkscape:window-y="-4"
     inkscape:window-maximized="1">
    <inkscape:grid
       empspacing="5"
       visible="true"
       enabled="true"
       snapvisiblegridlinesonly="true"
       type="xygrid"
       id="grid2816" />
  </sodipodi:namedview>
  <metadata
     id="metadata7">
    <rdf:RDF>
      <cc:Work
         rdf:about="">
        <dc:format>image/svg+xml</dc:format>
        <dc:type
           rdf:resource="http://purl.org/dc/dcmitype/StillImage" />
        <dc:title></dc:title>
      </cc:Work>
    </rdf:RDF>
  </metadata>
  <g
     inkscape:label="Layer 1"
     inkscape:groupmode="layer"
     id="layer1"
     transform="translate(0,0)">
    <path
       style="fill:none;stroke:#008000;stroke-width:4;stroke-linecap:butt;stroke-linejoin:miter;stroke-miterlimit:4;stroke-opacity:1;stroke-dasharray:none"
       d="m 500.6316,274.74517 c -32.14482,-5.70476 -65.03398,-1.49052 -97.50784,-2.83766 -28.75232,-0.18161 -57.60066,-0.80843 -86.05526,3.81628 -48.72352,2.57064 -97.57209,0.38302 -146.34828,1.14275 -30.02432,-0.0625 -60.05363,0.63287 -89.975943,-1.54819 -21.38344,-0.89459 -43.57746,3.06322 -64.37741,-3.18896 -11.14672,-1.68394 -21.84356,-7.38227 -33.33743,-6.57661"
       id="path4190" />
    <path
       style="fill:none;stroke:#0000ff;stroke-width:3.99999976;stroke-linecap:round;stroke-linejoin:round;stroke-miterlimit:4;stroke-opacity:1;stroke-dasharray:none"
       d="m 375.17324,196.07713 c -1.61466,-1.83562 -1.80418,-2.04282 -2.84232,-4.48558 -0.70545,-1.65993 -0.8735,-3.4564 -0.87377,-5.61672 -3.8e-4,-3.10974 2.08705,-6.00909 4.33568,-7.74312 1.68543,-1.29975 3.42642,-2.38279 5.6153,-2.26654 1.54566,0.0821 3.48852,-0.76967 4.67706,0.13885 1.87326,1.43192 4.31766,1.43859 6.12316,4.12204 0.94279,1.40127 0.27491,3.66301 0.39902,5.46995 0.18672,2.71807 0.76893,5.14665 0.11812,7.52252 -0.37698,1.37624 -1.73477,3.01011 -2.8072,3.61357 -0.77121,0.43396 -3.26022,1.41608 -4.16313,1.85819 -2.22498,1.08949 -4.16016,1.87043 -6.61723,0.70319 -2.79518,-1.32787 -2.10616,-1.20349 -3.96469,-3.31635 z"
       id="path2905"
       sodipodi:nodetypes="cssssssssssss" />
    <path
       style="fill:none;stroke:#0000ff;stroke-width:4;stroke-linecap:round;stroke-linejoin:round;stroke-miterlimit:4;stroke-opacity:1;stroke-dasharray:none"
       d="m 381.43938,201.04703 c -0.70968,2.43761 0.89474,5.61974 0.0929,6.51257 0.62814,3.82602 0.53519,7.77065 1.21317,11.5847 0.78685,3.26691 0.29354,6.57564 0.45409,9.67334 -0.15297,1.51756 -0.30593,3.0351 -0.45891,4.55264"
       id="path2907" />
    <path
       id="path2909"
       style="fill:none;stroke:#0000ff;stroke-width:4;stroke-linecap:round;stroke-linejoin:round;stroke-miterlimit:4;stroke-opacity:1;stroke-dasharray:none"
       d="m 384.05308,234.22789 c 1.23932,1.79012 3.80069,5.85681 5.68448,8.56471 1.84548,3.98163 4.99888,6.32609 6.97466,10.13006 2.30496,2.32595 3.96707,4.95327 5.8772,7.9326 1.42598,1.61723 1.85807,5.97629 2.81756,6.3752 0.21628,0.18054 1.02677,2.3834 0.25237,1.33148 m -22.56881,-35.98972 c -1.79307,2.7818 -3.83302,5.49609 -4.85243,8.67496 -1.92544,3.31304 -2.77367,7.19246 -4.96756,10.32093 -0.0879,3.76342 -3.03158,6.60586 -3.57994,10.26935 -0.78465,2.61864 -1.94149,4.51466 -2.355,7.32183 -0.5678,0.9991 -0.006,2.01722 -0.32086,-0.5519" />
    <g
       id="g4230"
       transform="translate(-11.313709,-9.8994949)">
      <path
         sodipodi:nodetypes="csssssscc"
         id="path4202"
         d="m 38.671573,25.944544 c -5.430479,7.450879 -9.310018,7.388925 -14.729121,14.724258 -7.115345,9.631376 -1.570906,23.289283 5.079989,31.916876 7.192509,9.330178 20.752507,5.816368 30.547182,5.260564 8.004509,-0.45422 10.902131,-6.975949 16.295781,-6.648434 6.003807,0.364567 6.973067,-11.28078 7.082161,-19.052076 C 83.067723,43.58623 84.88679,32.72173 76.184121,27.314266 68.375262,22.462176 60.371218,17.763541 50.784197,17.639118 46.123264,18.55518 37.505395,20.182367 38.671573,25.944544 z"
         style="fill:none;stroke:#ffff00;stroke-width:4;stroke-linecap:round;stroke-linejoin:round;stroke-miterlimit:4;stroke-opacity:1;stroke-dasharray:none" />
      <path
         id="path4215"
         d="M 31,81 C 28.148613,84.553942 24.105327,87.346267 24.536612,92.015165 21.832544,96.043458 21.188425,100.66969 20,105 c -1.284479,-0.52275 -1.919186,3.77422 -2,5"
         style="fill:none;stroke:#ffff00;stroke-width:4;stroke-linecap:round;stroke-linejoin:round;stroke-miterlimit:4;stroke-opacity:1;stroke-dasharray:none" />
      <path
         id="path4217"
         d="m 53.280734,83.999998 c 4.109561,4.16047 0.225882,10.218352 3.166602,14.792056 1.215413,5.697486 7.524659,9.190686 6.531011,15.084746 L 62.937021,115"
         style="fill:none;stroke:#ffff00;stroke-width:4;stroke-linecap:round;stroke-linejoin:round;stroke-miterlimit:4;stroke-opacity:1;stroke-dasharray:none" />
      <path
         id="path4219"
         d="m 76,78 c 3.400595,3.924314 5.608335,9.266142 10.25064,12 2.62092,4.847886 4.316418,10.49689 8.888485,13.99058 2.816275,3.7582 6.029785,7.79196 9.904355,10.00942"
         style="fill:none;stroke:#ffff00;stroke-width:4;stroke-linecap:round;stroke-linejoin:round;stroke-miterlimit:4;stroke-opacity:1;stroke-dasharray:none" />
      <path
         id="path4221"
         d="m 90,56.987967 c 14.33334,0.01397 28.66662,0.07609 43,0.05204"
         style="fill:none;stroke:#ffff00;stroke-width:4;stroke-linecap:round;stroke-linejoin:round;stroke-miterlimit:4;stroke-opacity:1;stroke-dasharray:none" />
      <path
         id="path4223"
         d="m 86.000002,33 c 5.268561,-0.876096 9.823061,-4.205192 14.951108,-4.876265 4.62153,1.300794 7.8844,-3.002146 12.17425,-3.773924 C 115.24759,22.885947 120.60982,23.2369 120.85644,21"
         style="fill:none;stroke:#ffff00;stroke-width:4;stroke-linecap:round;stroke-linejoin:round;stroke-miterlimit:4;stroke-opacity:1;stroke-dasharray:none" />
    </g>
    <path
       style="color:#000000;fill:none;stroke:#c87137;stroke-width:4;stroke-linecap:round;stroke-linejoin:round;stroke-miterlimit:4;stroke-opacity:1;stroke-dasharray:none;stroke-dashoffset:0;marker:none;visibility:visible;display:inline;overflow:visible;enable-background:accumulate"
       d="m 159.53717,186.09087 c 7.0494,8.4 7.1462,7.7913 11.90675,16.75499 5.02309,9.45805 11.89971,15.65328 13.52137,17.93524"
       id="path2859"
       sodipodi:nodetypes="csc" />
    <path
       style="color:#000000;fill:none;stroke:#ffff00;stroke-width:4;stroke-linecap:butt;stroke-linejoin:miter;stroke-miterlimit:4;stroke-opacity:1;stroke-dasharray:none;stroke-dashoffset:0;marker:none;visibility:visible;display:inline;overflow:visible;enable-background:accumulate"
       d="m 349.13001,205.98133 c -1.64573,-0.2316 -3.77723,-0.13841 -4.91545,0.77536 -4.0847,3.27918 -5.82558,9.62771 -2.38324,13.29196 2.09726,2.23243 7.64251,3.24299 10.72459,1.77226 4.78642,-2.28402 5.72817,-8.49154 3.57487,-12.40583 -1.05845,-1.92403 -4.25404,-3.04722 -7.00077,-3.43375 z"
       id="path2839"
       sodipodi:nodetypes="csssss" />
    <path
       style="color:#000000;fill:none;stroke:#0000ff;stroke-width:4;stroke-linecap:round;stroke-linejoin:round;stroke-miterlimit:4;stroke-opacity:1;stroke-dasharray:none;stroke-dashoffset:0;marker:none;visibility:visible;display:inline;overflow:visible;enable-background:accumulate"
       d="m 400.65228,231.55995 c -1.90945,-3.16069 -3.74296,-6.46322 -6.38247,-8.91545 -3.36065,-3.1222 -5.26304,-7.6625 -8.00539,-11.39976 -1.19353,-1.62653 -1.74933,-3.66124 -2.45836,-5.59979 -0.53579,-1.46491 -2.0783,-4.47189 -3.02152,-3.93054 -1.0852,0.62283 -5.89661,6.86967 -7.3575,9.68953 -1.45103,2.80081 -2.05629,7.78451 -4.03613,8.76609 -2.01358,0.9983 -5.85529,-1.64587 -9.86387,-2.55979 -3.42858,-0.78169 -5.56589,-3.45279 -8.18399,-4.86565"
       id="path2831"
       sodipodi:nodetypes="cssssssss" />
    <path
       style="color:#000000;fill:none;stroke:#80ff00;stroke-width:3.99999976;stroke-linecap:round;stroke-linejoin:round;stroke-miterlimit:4;stroke-opacity:1;stroke-dasharray:none;stroke-dashoffset:0;marker:none;visibility:visible;display:inline;overflow:visible;enable-background:accumulate"
       d="m 60.219226,235.08721 c -17.023734,5.41062 -23.618791,4.54037 -40.141333,14.32103 -8.581605,5.07995 -13.3093423,11.95474 -12.5592411,24.49134 0.8676752,14.50164 2.8544341,21.22875 15.9169091,26.64822 10.517651,4.36365 26.102294,-1.69228 33.729135,3.41692 11.142047,7.46403 29.804044,3.08972 42.981914,5.06652"
       id="path4125"
       sodipodi:nodetypes="csssss" />
    <path
       style="fill:none;stroke:#80ff00;stroke-width:3.99999976;stroke-linecap:round;stroke-linejoin:round;stroke-miterlimit:4;stroke-opacity:1;stroke-dasharray:none"
       d="m 150.30512,223.24619 c 1.54719,1.05655 0.96358,-2.56934 2.73948,-1.24505 2.92721,-0.13985 4.99185,-2.42272 7.94844,-2.4964 1.88778,-0.4791 3.31083,-1.92132 5.22244,-2.34968 1.98045,-0.51995 3.59099,-1.68445 5.23968,-2.78918 1.48262,-0.88737 3.16513,-1.35746 4.7141,-2.09894 1.58471,0.20683 2.59717,-0.54355 4.18107,-0.44635 1.91019,0.10895 3.29332,-1.49603 5.3284,-0.97143 0.33954,0.79925 -0.7892,2.29921 -1.02761,3.37512 -1.09644,2.82241 -2.19143,5.64604 -3.29116,8.46602 -1.10879,1.36463 -1.56581,3.42819 -3.17953,4.20481 -1.06552,0.96503 -1.62076,2.44538 -2.45923,3.62889 -0.77814,1.44969 -1.80072,2.99028 -2.7588,4.37364 -0.83582,1.56885 -1.88739,2.95297 -2.41166,4.78334 -0.4137,1.43257 -0.96022,3.21718 -2.69861,1.50009 -1.4755,-0.94995 -2.15957,-2.92414 -3.64824,-3.87383 -1.40111,-1.50198 -3.08611,-2.53433 -4.11732,-4.60525 -1.58863,-1.38437 -3.0182,-3.26287 -4.7767,-4.30038 -1.18648,-1.49436 -2.70693,-2.69065 -4.02878,-3.93008 -0.36294,-0.2582 -1.13874,-0.63356 -0.97573,-1.22516 z"
       id="path2942-1" />
    <path
       style="fill:none;stroke:#80ff00;stroke-width:3.99999976;stroke-linecap:round;stroke-linejoin:round;stroke-miterlimit:4;stroke-opacity:1;stroke-dasharray:none"
       d="m 157.46411,232.93284 c -3.95752,3.92353 -7.88916,5.27672 -13.94027,4.88864 -12.37674,-0.79377 -22.23682,-0.52972 -34.50318,-1.11807 -7.70147,-0.36945 -17.647433,-1.51431 -24.677987,-1.53909 -6.446076,-0.0228 -17.396786,-1.45723 -23.44156,-0.0988"
       id="path2952-1"
       sodipodi:nodetypes="cssss" />
    <path
       style="fill:none;stroke:#80ff00;stroke-width:3.99999976;stroke-linecap:round;stroke-linejoin:round;stroke-miterlimit:4;stroke-opacity:1;stroke-dasharray:none"
       d="m 125.28322,274.08941 c 0.3641,-4.27395 0.34663,-8.65292 2.69494,-12.61108 2.27449,-5.02259 4.19756,-10.21168 7.22875,-15.05604 1.32359,-3.26562 3.17863,-11.64186 5.45716,-5.19249 3.63512,4.29251 6.5353,8.74133 8.27088,13.66431 2.30728,4.97704 5.33207,10.44838 6.38383,15.23875 -0.68696,1.4393 1.28488,2.32128 0.85634,3.76086"
       id="path2956-7" />
    <path
       style="fill:none;stroke:#80ff00;stroke-width:3.99999976;stroke-linecap:round;stroke-linejoin:round;stroke-miterlimit:4;stroke-opacity:1;stroke-dasharray:none"
       d="m 49.499213,273.92312 c 0.222107,-0.75481 1.415656,-6.31016 2.007128,-8.31963 1.933448,-6.30326 6.023609,-7.99254 9.958208,-15.41577 1.562971,-4.47908 7.065291,-12.70635 8.314988,-14.95066 1.600993,5.1083 2.980203,10.30018 4.635542,15.38396 1.97465,7.86386 4.191869,14.01332 10.688181,19.73017 0.948207,0.61793 3.233525,1.25878 1.944903,2.82078"
       id="path2958-4"
       sodipodi:nodetypes="ccccccc" />
  </g>
</svg>
