<?xml version="1.0" encoding="UTF-8" standalone="no"?>
<!-- Created with Inkscape (http://www.inkscape.org/) -->

<svg
   xmlns:dc="http://purl.org/dc/elements/1.1/"
   xmlns:cc="http://creativecommons.org/ns#"
   xmlns:rdf="http://www.w3.org/1999/02/22-rdf-syntax-ns#"
   xmlns:svg="http://www.w3.org/2000/svg"
   xmlns="http://www.w3.org/2000/svg"
   xmlns:sodipodi="http://sodipodi.sourceforge.net/DTD/sodipodi-0.dtd"
   xmlns:inkscape="http://www.inkscape.org/namespaces/inkscape"
   width="480"
   height="320"
   id="svg2"
   version="1.1"
   inkscape:version="0.48.0 r9654"
   sodipodi:docname="itnas303.svg"
   inkscape:export-xdpi="90"
   inkscape:export-ydpi="90"
   inkscape:export-filename="itnas303.png">
  <defs
     id="defs4">
    <inkscape:perspective
       sodipodi:type="inkscape:persp3d"
       inkscape:vp_x="0 : 160 : 1"
       inkscape:vp_y="0 : 1000 : 0"
       inkscape:vp_z="480 : 160 : 1"
       inkscape:persp3d-origin="240 : 106.66667 : 1"
       id="perspective8" />
  </defs>
  <sodipodi:namedview
     id="base"
     pagecolor="#ffffff"
     bordercolor="#666666"
     borderopacity="1.0"
     inkscape:pageopacity="1"
     inkscape:pageshadow="2"
     inkscape:zoom="2"
     inkscape:cx="272.68961"
     inkscape:cy="145.92904"
     inkscape:document-units="px"
     inkscape:current-layer="layer1"
     showgrid="false"
     inkscape:snap-nodes="true"
     inkscape:snap-global="false"
     inkscape:snap-grids="true"
     showguides="true"
     inkscape:window-width="1280"
     inkscape:window-height="998"
     inkscape:window-x="1276"
     inkscape:window-y="-4"
     inkscape:window-maximized="1">
    <inkscape:grid
       empspacing="5"
       visible="true"
       enabled="true"
       snapvisiblegridlinesonly="true"
       type="xygrid"
       id="grid2816" />
  </sodipodi:namedview>
  <metadata
     id="metadata7">
    <rdf:RDF>
      <cc:Work
         rdf:about="">
        <dc:format>image/svg+xml</dc:format>
        <dc:type
           rdf:resource="http://purl.org/dc/dcmitype/StillImage" />
        <dc:title></dc:title>
      </cc:Work>
    </rdf:RDF>
  </metadata>
  <g
     inkscape:label="Layer 1"
     inkscape:groupmode="layer"
     id="layer1"
     transform="translate(0,0)">
    <path
       style="color:#000000;fill:none;stroke:#0000ff;stroke-width:4;stroke-linecap:round;stroke-linejoin:round;stroke-miterlimit:4;stroke-opacity:1;stroke-dasharray:none;stroke-dashoffset:0;marker:none;visibility:visible;display:inline;overflow:visible;enable-background:accumulate"
       d="m 280.41169,131.74621 c -9.50812,-9.6159 -24.55041,-10.0126 -30.5,-11.5 -8.963,-2.24075 -17.95317,-4.73829 -27,-7 -14.45301,-3.61325 -31.64776,0.71306 -44.5,-2.5 -4.40603,-1.10151 -6.9683,-3.2855 -11.5,-4.5 -22.80747,-6.11244 -43.79399,9.09919 -66.999997,5 -8.562733,-1.51255 -9.286303,1.89137 -19.500003,3.5"
       id="path3128"
       inkscape:connector-curvature="0"
       sodipodi:nodetypes="csssssc" />
    <path
       style="color:#000000;fill:none;stroke:#808080;stroke-width:4;stroke-linecap:butt;stroke-linejoin:miter;stroke-miterlimit:4;stroke-opacity:1;stroke-dasharray:none;stroke-dashoffset:0;marker:none;visibility:visible;display:inline;overflow:visible;enable-background:accumulate"
       d="m 51.09296,131.25886 c -7.053632,-51.05704 -0.009,-35.31475 -13.370962,-76.49469 -9.79987,-30.202745 1.58972,-47.275188 -12.94625,-68.012624 -7.27537,-11.80007 -2.35869,-18.714068 9.20535,-22.703078 15.692052,-5.41297 45.709592,-11.14714 71.942432,-8.98126 27.49504,2.27009 14.43055,5.95856 37.97903,3.56536 18.21803,-1.85148 13.00913,-35.67365 12.00913,-50.636358"
       id="path3174"
       inkscape:connector-curvature="0"
       sodipodi:nodetypes="cscsssc" />
    <path
       style="color:#000000;fill:none;stroke:#808080;stroke-width:4;stroke-linecap:butt;stroke-linejoin:miter;stroke-miterlimit:4;stroke-opacity:1;stroke-dasharray:none;stroke-dashoffset:0;marker:none;visibility:visible;display:inline;overflow:visible;enable-background:accumulate"
       d="m 493.91169,164.74621 -32,0 c -50.24879,-3.613 -57.92844,0.33561 -65.79257,-15.88925 -18.17763,-37.50315 -6.51911,-16.13667 -16.20743,-65.11075 -7.289,-36.84562 0,-52.25957 -27,-97.999998 -11.53825,-26.873744 -28.2364,-20.397354 -44.9612,-17.389354 -51.48825,9.26029 -27.74577,-0.80611 -70.28543,6.834552 -11.24651,-2.154025 -19.31172,-11.292842 -20.10394,-18.887042 -1.23561,-11.84461 5.49081,-27.22965 5.35057,-36.558158"
       id="path3161"
       inkscape:connector-curvature="0"
       sodipodi:nodetypes="ccsscscsc" />
    <path
       style="color:#000000;fill:none;stroke:#808080;stroke-width:4;stroke-linecap:butt;stroke-linejoin:miter;stroke-miterlimit:4;stroke-opacity:1;stroke-dasharray:none;stroke-dashoffset:0;marker:none;visibility:visible;display:inline;overflow:visible;enable-background:accumulate"
       d="m 280.03154,131.65176 c 1.22979,-3.70207 3.08254,-6.50675 5.88015,-7.90555 14.93581,-7.4679 21.44019,26.35159 20,35 -0.54613,3.27952 -5.3628,25.17241 0.48181,37.79192 10.37512,22.40166 2.65542,16.87674 19.51819,24.20808 48.7495,21.19457 88.51255,-2.61603 135,9 14.08382,2.12503 28.51132,3.19552 42.99342,3.27056"
       id="path3001"
       inkscape:connector-curvature="0"
       sodipodi:nodetypes="csssscc" />
    <path
       style="fill:none;stroke:#000000;stroke-width:1;stroke-linecap:butt;stroke-linejoin:miter;stroke-miterlimit:4;stroke-opacity:1;stroke-dasharray:none;display:inline"
       d="m 483.21188,164.87274 0,65.49381"
       id="path3099"
       inkscape:connector-curvature="0" />
    <path
       style="color:#000000;fill:none;stroke:#0000ff;stroke-width:4;stroke-linecap:round;stroke-linejoin:round;stroke-miterlimit:4;stroke-opacity:1;stroke-dasharray:none;stroke-dashoffset:0;marker:none;visibility:visible;display:inline;overflow:visible;enable-background:accumulate"
       d="m 161.08743,-100.61127 c -2.13617,-1.16123 0.25094,12.22095 0.27696,32.611628 0.014,11.01013 -1.41504,15.49596 -3.54828,20.42976 -3.71103,8.58297 1.54494,8.85001 6.66994,14.71365 16.63902,-15.58284 5.34343,-13.75032 4.84069,-23.26949 -0.99261,-18.7945 -3.22673,-41.760708 -8.23931,-44.485548 z"
       id="path4063"
       inkscape:connector-curvature="0"
       sodipodi:nodetypes="ssscss" />
    <path
       style="color:#000000;fill:none;stroke:#808080;stroke-width:4;stroke-linecap:butt;stroke-linejoin:miter;stroke-miterlimit:4;stroke-opacity:1;stroke-dasharray:none;stroke-dashoffset:0;marker:none;visibility:visible;display:inline;overflow:visible;enable-background:accumulate"
       d="m 184.14773,-50.861842 0,0 c 4.89777,-0.42432 4.27903,9.31505 1.66441,9.97205 -3.78754,0.95172 -10.18948,-3.71626 -1.66441,-9.97205 z"
       id="path3972"
       inkscape:connector-curvature="0"
       sodipodi:nodetypes="ccsc" />
    <path
       style="color:#000000;fill:none;stroke:#808080;stroke-width:4;stroke-linecap:butt;stroke-linejoin:miter;stroke-miterlimit:4;stroke-opacity:1;stroke-dasharray:none;stroke-dashoffset:0;marker:none;visibility:visible;display:inline;overflow:visible;enable-background:accumulate"
       d="m 203.36495,-48.977172 c 6.81233,1.67213 8.46413,8.27167 -1.83583,9.05379 -8.12794,0.6172 -4.80785,-10.68452 1.83583,-9.05379 z"
       id="path3974"
       inkscape:connector-curvature="0"
       sodipodi:nodetypes="sss" />
    <path
       style="color:#000000;fill:none;stroke:#808080;stroke-width:4;stroke-linecap:butt;stroke-linejoin:miter;stroke-miterlimit:4;stroke-opacity:1;stroke-dasharray:none;stroke-dashoffset:0;marker:none;visibility:visible;display:inline;overflow:visible;enable-background:accumulate"
       d="m 163.67904,-49.389452 c 17.68075,4.40964 -12.4194,16.48792 0,0 z"
       id="path3976"
       inkscape:connector-curvature="0" />
    <path
       id="path3019"
       style="color:#000000;fill:none;stroke:#c87137;stroke-width:4;stroke-linecap:round;stroke-linejoin:round;stroke-miterlimit:4;stroke-opacity:1;stroke-dasharray:none;stroke-dashoffset:0;marker:none;visibility:visible;display:inline;overflow:visible;enable-background:accumulate"
       d="m 307.41169,186.24621 c 4.65825,0.56983 12.18096,1.92699 20.5,10 10.80234,10.48286 -0.47425,19.20376 20.5,26 m 0,0 c 11.94819,3.87155 37.72879,2.83569 63.5,0.5 10.5446,-0.95567 22.09092,-0.52341 34.04615,0.40704 m 0,0 c 18.40312,1.43228 37.77516,4.04506 55.95385,4.59296"
       inkscape:connector-curvature="0" />
    <path
       style="color:#000000;fill:none;stroke:#c87137;stroke-width:4;stroke-linecap:round;stroke-linejoin:round;stroke-miterlimit:4;stroke-opacity:1;stroke-dasharray:none;stroke-dashoffset:0;marker:none;visibility:visible;display:inline;overflow:visible;enable-background:accumulate"
       d="m 258.6732,141.10924 c 49.25782,-2.21806 -48.16683,-30.76883 -53.97124,-6.48014 -1.21485,5.08359 12.88527,10.26038 19.86029,13.12015 30.1483,12.36086 28.70814,-3.01631 24.11627,-8.29911 -8.60948,-9.90494 -15.86206,-11.25143 -32.66599,-12.76238 -27.06965,-2.43403 -76.79001,3.58499 -41.92195,25.17411 22.54773,13.96078 54.64778,-27.62783 34.27797,-34.48603 -13.70329,-4.61369 -89.80158,25.84635 -68.85438,31.6589 43.34644,12.02801 49.20883,-25.96206 29.68815,-35.78805 -10.94998,-5.51181 -81.68663,24.7401 -62.26649,34.13855 19.86708,9.61474 55.6152,-30.07967 35.63452,-32.19607 -20.98827,-2.22312 -102.188706,17.87669 -80.2658,22.60228 11.96531,2.57919 39.31667,5.78409 45.21657,1.24123 28.71328,-22.10891 -68.102983,-26.02744 -17.08142,-4.95804"
       id="path3042"
       inkscape:connector-curvature="0"
       sodipodi:nodetypes="ssssssssssssss" />
    <path
       style="color:#000000;fill:none;stroke:#0000ff;stroke-width:4;stroke-linecap:round;stroke-linejoin:round;stroke-miterlimit:4;stroke-opacity:1;stroke-dasharray:none;stroke-dashoffset:0;marker:none;visibility:visible;display:inline;overflow:visible;enable-background:accumulate"
       d="m 163.85407,3.39394 c 14.86214,30.59512 -13.40764,29.93904 0,0 z"
       id="path4094"
       inkscape:connector-curvature="0"
       sodipodi:nodetypes="cc" />
    <path
       style="color:#000000;fill:none;stroke:#c87137;stroke-width:4;stroke-linecap:round;stroke-linejoin:round;stroke-miterlimit:4;stroke-opacity:1;stroke-dasharray:none;stroke-dashoffset:0;marker:none;visibility:visible;display:inline;overflow:visible;enable-background:accumulate"
       d="m 308.16169,191.74621 c 7.34103,0.0272 17.94464,8.75679 19.70815,16.66388 2.29505,10.29037 1.04185,9.02874 -2.70815,9.08612"
       id="path4097"
       inkscape:connector-curvature="0"
       sodipodi:nodetypes="csc" />
    <path
       style="color:#000000;fill:none;stroke:#808080;stroke-width:4;stroke-linecap:round;stroke-linejoin:miter;stroke-miterlimit:4;stroke-opacity:1;stroke-dasharray:none;stroke-dashoffset:0;marker:none;visibility:visible;display:inline;overflow:visible;enable-background:accumulate"
       d="m 52.91169,140.24621 c -0.90247,25.74924 8.65345,52.73273 3.5,78.5 -1.95296,9.76481 5.50097,-3.06559 20.92398,10.56244 11.31537,9.99846 14.00081,13.14405 14.14709,18.93756 0.25658,10.16204 -4.15814,2.93243 -4.20711,18.2929 -0.0463,14.5271 -1.67481,13.39788 -1.5073,26.93476"
       id="path3077"
       inkscape:connector-curvature="0"
       sodipodi:nodetypes="cssssc" />
    <path
       style="color:#000000;fill:none;stroke:#808080;stroke-width:4;stroke-linecap:round;stroke-linejoin:miter;stroke-miterlimit:4;stroke-opacity:1;stroke-dasharray:none;stroke-dashoffset:0;marker:none;visibility:visible;display:inline;overflow:visible;enable-background:accumulate"
       d="m 174.91169,213.24621 c -11.18199,-1.5576 -14.27676,0.40071 -23.09137,3.75036 -6.3468,2.41186 -6.11565,7.60671 -4.90863,17.74964 1.87495,12.769 3.21992,27.35782 5.5,38.5 0.91861,4.489 -4.21274,9.35622 -3.09405,21.30957"
       id="path4671"
       inkscape:connector-curvature="0"
       sodipodi:nodetypes="cscsc" />
    <path
       style="color:#000000;fill:none;stroke:#00ffff;stroke-width:4;stroke-linecap:round;stroke-linejoin:round;stroke-miterlimit:4;stroke-opacity:1;stroke-dasharray:none;stroke-dashoffset:0;marker:none;visibility:visible;display:inline;overflow:visible;enable-background:accumulate"
       d="m 85.87868,297.71068 c 0,0 0.49173,10.64465 0.73759,15.96698 12.15052,0.0821 18.00947,-1.92154 31.26487,-1.4369 15.24772,0.55748 20.98562,0.56557 31.8514,1.0227 l -0.35386,-15.05278"
       id="path3193"
       inkscape:connector-curvature="0"
       sodipodi:nodetypes="ccscc" />
    <path
       inkscape:connector-curvature="0"
       style="fill:none;stroke:#80ff00;stroke-width:3.99999976;stroke-linecap:round;stroke-linejoin:round;stroke-miterlimit:4;stroke-opacity:1;stroke-dasharray:none"
       d="m 100.24806,266.57328 c 1.73914,-0.71043 0.26015,2.86459 2.28482,1.93483 2.74499,0.84754 4.12413,3.68345 6.91386,4.47022 1.67113,0.94506 2.65513,2.76528 4.36179,3.66409 1.74866,1.0093 2.98168,2.58995 4.2661,4.11857 1.18209,1.26599 2.6605,2.15244 3.94282,3.28486 1.55814,0.16932 2.32853,1.18179 3.85794,1.46325 1.84233,0.34787 2.74692,2.32528 4.81387,2.2773 0.5264,-0.73726 -0.1634,-2.54586 -0.11549,-3.70567 -0.32184,-3.1559 -0.64197,-6.31268 -0.96755,-9.46684 -0.7053,-1.6651 -0.61323,-3.88953 -1.94811,-5.07356 -0.76606,-1.24522 -0.91603,-2.89566 -1.41072,-4.31012 -0.36952,-1.67269 -0.94803,-3.49733 -1.50539,-5.14534 -0.39391,-1.80866 -1.03989,-3.47993 -1.07116,-5.48164 -0.0277,-1.56747 -0.0918,-3.52761 -2.18101,-2.18628 -1.64387,0.61845 -2.79708,2.47683 -4.45339,3.09181 -1.71395,1.20205 -3.57784,1.85448 -5.08552,3.72843 -1.8621,1.03636 -3.69912,2.61732 -5.6341,3.25741 -1.50818,1.24579 -3.25754,2.10586 -4.82926,3.0579 -0.4106,0.17725 -1.24327,0.37525 -1.23926,1.02071 z"
       id="path2942-4" />
    <path
       inkscape:connector-curvature="0"
       style="color:#000000;fill:none;stroke:#80ff00;stroke-width:4;stroke-linecap:round;stroke-linejoin:round;stroke-miterlimit:4;stroke-opacity:1;stroke-dasharray:none;stroke-dashoffset:0;marker:none;visibility:visible;display:inline;overflow:visible;enable-background:accumulate"
       d="m 97.07858,162.53761 c -0.714445,3.39879 0.724929,5.75594 1.009809,9.40198 0.296121,3.78395 0.627467,6.50271 -0.636099,11.80628 -0.988976,4.15103 1.2851,9.731 2.05205,14.41105 0.95803,5.84584 2.87249,11.05617 3.6939,17.00957 1.00168,7.25906 0.40036,10.78961 0.44574,18.20535 0.0228,3.72904 2.69164,11.89698 3.0386,15.64776 0.26788,2.89327 -0.78092,7.32971 2.38012,10.41664"
       id="path2833"
       sodipodi:nodetypes="csssssss" />
    <path
       style="color:#000000;fill:none;stroke:#0000ff;stroke-width:4;stroke-linecap:round;stroke-linejoin:round;stroke-miterlimit:4;stroke-opacity:1;stroke-dasharray:none;stroke-dashoffset:0;marker:none;visibility:visible;display:inline;overflow:visible;enable-background:accumulate"
       d="m 164.55693,36.223674 c 13.31214,31.300643 -14.88937,29.23042 0,0 z"
       id="path4073"
       inkscape:connector-curvature="0"
       sodipodi:nodetypes="cc" />
    <path
       sodipodi:nodetypes="cc"
       inkscape:connector-curvature="0"
       id="path4092"
       d="m 165.0393,70.044234 c 13.93612,31.027886 -14.30119,29.522676 0,0 z"
       style="color:#000000;fill:none;stroke:#0000ff;stroke-width:4;stroke-linecap:round;stroke-linejoin:round;stroke-miterlimit:4;stroke-opacity:1;stroke-dasharray:none;stroke-dashoffset:0;marker:none;visibility:visible;display:inline;overflow:visible;enable-background:accumulate" />
    <path
       style="color:#000000;fill:none;stroke:#00ffff;stroke-width:4;stroke-linecap:butt;stroke-linejoin:miter;stroke-miterlimit:4;stroke-opacity:1;stroke-dasharray:none;stroke-dashoffset:0;marker:none;visibility:visible;display:inline;overflow:visible;enable-background:accumulate"
       d="m 128.21963,297.95453 c -0.85501,1.64269 6.3561,3.08054 12.16639,5.51004 2.18008,0.91163 2.72553,-3.34385 4.24149,-7.75315 0.63434,-1.84514 -5.25122,-2.98076 -12.18204,-5.27671 -2.72942,-0.90416 -1.61609,2.50584 -4.22584,7.51982 z"
       id="path3105"
       inkscape:connector-curvature="0"
       sodipodi:nodetypes="sssss" />
    <path
       style="color:#000000;fill:none;stroke:#80ff00;stroke-width:3.99999952;stroke-linecap:round;stroke-linejoin:round;stroke-miterlimit:4;stroke-opacity:1;stroke-dasharray:none;stroke-dashoffset:0;marker:none;visibility:visible;display:inline;overflow:visible;enable-background:accumulate"
       d="m 65.660372,139.79544 c 5.969299,2.72433 10.778342,16.72452 12.023967,17.63084 9.032895,6.5724 12.804847,11.02932 18.713913,16.90697 3.429898,3.41167 5.135978,-7.84855 13.047598,-18.20867 7.9768,-10.44547 2.73246,-12.17127 11.37491,-20.03074"
       id="path3113"
       inkscape:connector-curvature="0"
       sodipodi:nodetypes="sssss" />
    <path
       inkscape:connector-curvature="0"
       style="fill:none;stroke:#80ff00;stroke-width:3.99999976;stroke-linecap:round;stroke-linejoin:round;stroke-miterlimit:4;stroke-opacity:1;stroke-dasharray:none"
       d="m 251.80695,186.35698 c -7.9551,-2.7686 -14.99606,-6.52748 -22.2459,-10.1257 -6.66812,-3.30951 -5.75003,-8.13885 -13.3139,-16.2994 -7.38676,-7.96947 -15.51832,-9.30204 -24.8372,-13.0493 -7.85401,-3.15821 -16.16067,-4.45135 -33.10624,-1.69284 -16.94557,2.75851 -28.09176,-7.08817 -38.91576,-3.94736 -4.45911,1.29391 -9.38322,4.09119 -10.32897,4.3322 -8.16231,2.08004 -11.409455,10.20764 -11.24139,14.1682 0.02318,0.54632 -0.11435,1.9577 -0.62454,2.2077"
       id="path4123-1"
       sodipodi:nodetypes="sssssssss" />
    <path
       style="color:#000000;fill:none;stroke:#0000ff;stroke-width:4;stroke-linecap:round;stroke-linejoin:round;stroke-miterlimit:4;stroke-opacity:1;stroke-dasharray:none;stroke-dashoffset:0;marker:none;visibility:visible;display:inline;overflow:visible;enable-background:accumulate"
       d="m 80.41169,114.74621 c -16.0392,2.52613 -33.44208,15.55792 -28,21 0.7892,14.28921 9.70687,18.50709 32.16548,12.42993 3.91243,-3.00999 23.24133,6.23494 45.33452,10.07007 12.3752,2.1482 25.97902,-1.2521 38.5,0 29.29167,2.92917 66.42145,7.29004 92,-6 9.54834,-4.9611 27.72454,-12.52441 18.5,-22"
       id="path3917"
       inkscape:connector-curvature="0"
       sodipodi:nodetypes="cccsssc" />
    <path
       style="color:#000000;fill:none;stroke:#80ff00;stroke-width:3.99999952;stroke-linecap:round;stroke-linejoin:round;stroke-miterlimit:4;stroke-opacity:1;stroke-dasharray:none;stroke-dashoffset:0;marker:none;visibility:visible;display:inline;overflow:visible;enable-background:accumulate"
       d="m 137,290 c 0.40255,-9.11186 -3.42765,-14.67839 -5,-20.5 -3.5588,-13.17639 -12.25191,-19.37405 -26.5,-22 -7.283829,13.14191 -5.26663,16.92481 -3,27.5 1.68429,7.85826 4.84342,8.16966 9.73963,10.59494 C 121.2404,290.05337 126.01695,296.5 129,296.5"
       id="path3160"
       inkscape:connector-curvature="0"
       sodipodi:nodetypes="cscssc" />
    <path
       style="color:#000000;fill:none;stroke:#000000;stroke-width:3.99999952;stroke-linecap:round;stroke-linejoin:round;stroke-miterlimit:4;stroke-opacity:1;stroke-dasharray:none;stroke-dashoffset:0;marker:none;visibility:visible;display:inline;overflow:visible;enable-background:accumulate"
       d="M 109.5,293 C 94.320422,288.71991 91.316969,292.92681 95.548773,299.39514 99.959359,306.13674 110.23655,302.5 126,305"
       id="path3212"
       inkscape:connector-curvature="0"
       sodipodi:nodetypes="csc" />
    <path
       style="color:#000000;fill:none;stroke:#000000;stroke-width:3.99999952;stroke-linecap:round;stroke-linejoin:round;stroke-miterlimit:4;stroke-opacity:1;stroke-dasharray:none;stroke-dashoffset:0;marker:none;visibility:visible;display:inline;overflow:visible;enable-background:accumulate"
       d="m 66,178.5 c 0,5.16667 0,11.83333 0,20.51246 0,8.67914 2.352755,13.51954 6,15.98754 16.553732,11.20148 -4.746302,-35.52894 11,-36.5 3.381467,-0.20853 7,21.7665 7,25 0,13.03177 -3,15.51126 3.5,29.5"
       id="path3024"
       inkscape:connector-curvature="0"
       sodipodi:nodetypes="ssssss" />
    <path
       style="color:#000000;fill:none;stroke:#000000;stroke-width:3.99999952;stroke-linecap:round;stroke-linejoin:round;stroke-miterlimit:4;stroke-opacity:1;stroke-dasharray:none;stroke-dashoffset:0;marker:none;visibility:visible;display:inline;overflow:visible;enable-background:accumulate"
       d="m 143,275.5 c -1.46125,-4.23516 -1.01021,-15.02043 -3,-19 -4.79649,-9.59297 -10.75834,-8.38751 -16.5,-17 -7.37702,-11.06553 -8.22732,-21.9093 -11.5,-35 -1.1193,-4.4772 -2.73776,-15.52448 -0.5,-20 3.55712,-7.11425 10,-8.12794 10,2.5 0,15.74885 4.88139,40.88139 13.15506,47.45851 8.27368,6.57712 0.84494,-39.47949 0.84494,-44.95851 0,-2.81791 4.10126,-10.89874 8,-7 6.89832,6.89832 -5.43741,22.5 10.5,22.5 11.28102,0 0.14797,-16.82398 6.5,-20 12.59143,-6.29571 2.59125,17.5 9.5,17.5 9.11946,0 13.30343,-17.56552 19.5,-15.5"
       id="path3043"
       inkscape:connector-curvature="0"
       sodipodi:nodetypes="csssssssssssc" />
    <path
       style="fill:none;stroke:#c87137;stroke-width:4;stroke-linecap:round;stroke-linejoin:round;stroke-opacity:1;color:#000000;stroke-miterlimit:4;stroke-dasharray:none;stroke-dashoffset:0;marker:none;visibility:visible;display:inline;overflow:visible;enable-background:accumulate"
       d="m 67.5,159 c -22.899826,7.98633 7.054359,10.5 14.5,10.5"
       id="path3051"
       inkscape:connector-curvature="0" />
    <path
       style="fill:none;stroke:#c87137;stroke-width:4;stroke-linecap:round;stroke-linejoin:round;stroke-opacity:1;color:#000000;stroke-miterlimit:4;stroke-dasharray:none;stroke-dashoffset:0;marker:none;visibility:visible;display:inline;overflow:visible;enable-background:accumulate"
       d="m 113.5,172 c 0.0391,-0.82808 2.18421,-6.20448 7.06731,-7.5 12.88983,-3.41975 9.53748,8.73076 12.25,9 6.39107,0.63437 10.33229,-8.49298 16.07134,-6.67361 5.73908,1.81936 -2.70266,7.67361 9.37096,7.67361 1.93449,0 9.35722,-9.06989 10.83654,-7.5 2.91181,3.09008 4.81614,9.15871 10.36539,10 6.73424,1.02094 1.73818,-10.0518 7.53846,-8"
       id="path3056"
       inkscape:connector-curvature="0"
       sodipodi:nodetypes="ssscssss" />
  </g>
</svg>
