<?xml version="1.0" encoding="UTF-8" standalone="no"?>
<!-- Created with Inkscape (http://www.inkscape.org/) -->

<svg
   xmlns:dc="http://purl.org/dc/elements/1.1/"
   xmlns:cc="http://creativecommons.org/ns#"
   xmlns:rdf="http://www.w3.org/1999/02/22-rdf-syntax-ns#"
   xmlns:svg="http://www.w3.org/2000/svg"
   xmlns="http://www.w3.org/2000/svg"
   xmlns:sodipodi="http://sodipodi.sourceforge.net/DTD/sodipodi-0.dtd"
   xmlns:inkscape="http://www.inkscape.org/namespaces/inkscape"
   width="480"
   height="320"
   id="svg2"
   version="1.1"
   inkscape:version="0.47 r22583"
   sodipodi:docname="itnas103.svg"
   inkscape:export-xdpi="90"
   inkscape:export-ydpi="90"
   inkscape:export-filename="itnas103.png">
  <defs
     id="defs4" />
  <sodipodi:namedview
     id="base"
     pagecolor="#ffffff"
     bordercolor="#666666"
     borderopacity="1.0"
     inkscape:pageopacity="1"
     inkscape:pageshadow="2"
     inkscape:zoom="1"
     inkscape:cx="220.78991"
     inkscape:cy="235.13217"
     inkscape:document-units="px"
     inkscape:current-layer="layer1"
     showgrid="false"
     inkscape:snap-nodes="true"
     inkscape:snap-global="false"
     inkscape:snap-grids="true"
     showguides="true"
     inkscape:window-width="1280"
     inkscape:window-height="774"
     inkscape:window-x="-4"
     inkscape:window-y="-4"
     inkscape:window-maximized="1"
     inkscape:guide-bbox="true">
    <inkscape:grid
       empspacing="5"
       visible="true"
       enabled="true"
       snapvisiblegridlinesonly="true"
       type="xygrid"
       id="grid2816" />
  </sodipodi:namedview>
  <metadata
     id="metadata7">
    <rdf:RDF>
      <cc:Work
         rdf:about="">
        <dc:format>image/svg+xml</dc:format>
        <dc:type
           rdf:resource="http://purl.org/dc/dcmitype/StillImage" />
        <dc:title />
      </cc:Work>
    </rdf:RDF>
  </metadata>
  <g
     inkscape:label="Layer 1"
     inkscape:groupmode="layer"
     id="layer1"
     transform="translate(0,0)">
    <g
       id="g2937"
       transform="matrix(-0.75466866,0.6561061,-0.6561061,-0.75466866,433.8558,84.391305)"
       inkscape:transform-center-y="11.149152"
       inkscape:transform-center-x="-10.255905">
      <path
         id="path3028-1-1"
         d="m 206.19224,50.959145 -22.97456,0.002"
         style="color:#000000;fill:none;stroke:#0000ff;stroke-width:4;stroke-linecap:butt;stroke-linejoin:bevel;stroke-miterlimit:4;stroke-opacity:1;stroke-dasharray:none;stroke-dashoffset:0;marker:none;visibility:visible;display:inline;overflow:visible;enable-background:accumulate" />
      <path
         id="rect10452-0-7-5-7"
         d="m 199.99646,42.691859 -11.26117,0.06514"
         style="color:#000000;fill:none;stroke:#0000ff;stroke-width:3.99999976;stroke-linecap:butt;stroke-linejoin:bevel;stroke-miterlimit:4;stroke-opacity:1;stroke-dasharray:none;stroke-dashoffset:0;marker:none;visibility:visible;display:inline;overflow:visible;enable-background:accumulate" />
      <path
         sodipodi:nodetypes="cccc"
         d="m 208.30239,56.809745 c 0,0 -14.55766,-39.164966 -14.55766,-39.164966 l -12.23664,39.211847 c 0,0 26.7943,-0.04688 26.7943,-0.04688 z"
         style="fill:none;stroke:#00ff00;stroke-width:2;stroke-linecap:butt;stroke-linejoin:miter;stroke-miterlimit:4;stroke-opacity:1;stroke-dasharray:none"
         id="path10399-9-40" />
    </g>
    <path
       style="fill:none;stroke:#00ff00;stroke-width:4;stroke-linecap:butt;stroke-linejoin:miter;stroke-miterlimit:4;stroke-opacity:1;stroke-dasharray:none;marker-start:none;marker-mid:none;marker-end:none"
       d="m 250.19692,168.83047 c -2.71548,-3.428 -4.09131,-9.53151 -1.81916,-18.56839 4.89286,-19.46 33.94884,-31.73299 55.40884,-6.07156 20.21623,24.17417 10.46304,41.39208 -5.94336,46.24524 -11.13622,3.2942 -23.73007,-6.89778 -29.3745,-20.7615 -7.26622,-17.82173 5.0415,-27.57437 17.98178,-14.96355 10.75981,10.48586 9.42953,25.91765 9.42953,25.91765"
       id="path2826-1-9"
       sodipodi:nodetypes="cssssss" />
    <path
       id="path10436-7-4"
       style="fill:none;stroke:#00ff00;stroke-width:2px;stroke-linecap:butt;stroke-linejoin:miter;stroke-opacity:1"
       d="m 287.87789,150.68103 21.97918,21.64254 c 0,0 -14.83207,-20.24662 -14.83207,-20.24662 0,0 18.45681,-15.45245 18.45681,-15.45245 0,0 10.30025,24.78226 10.30025,24.78226 0,0 -6.49698,-31.82293 -6.49698,-31.82293"
       sodipodi:nodetypes="cccccc" />
    <path
       id="path10402-6-4-8"
       style="fill:none;stroke:#00ff00;stroke-width:2px;stroke-linecap:butt;stroke-linejoin:miter;stroke-opacity:1"
       d="m 256.08918,159.43061 16.39848,-23.10846 -17.44796,16.64429 -12.49759,-8.39918 c 0,0 14.07114,-19.91976 14.07114,-19.91976 l -21.03979,19.84143"
       sodipodi:nodetypes="cccccc" />
    <path
       style="fill:none;stroke:#0000ff;stroke-width:4;stroke-linecap:butt;stroke-linejoin:miter;stroke-miterlimit:4;stroke-opacity:1;stroke-dasharray:none"
       d="m 281.55647,141.74749 c 4.59997,-1.94916 10.68111,-2.96886 14.63501,-5.64753 3.95389,-2.67867 5.14838,-7.49567 1.65063,-9.7526 -3.49775,-2.25695 -7.43879,0.48341 -8.79481,5.08483 -1.35601,4.60138 0.90743,10.2717 1.75231,15.54792"
       id="path3030-6-8"
       sodipodi:nodetypes="czzzc" />
    <g
       id="g2942"
       transform="matrix(-0.19063013,-0.7769557,0.7769557,-0.19063013,218.1957,302.34297)">
      <path
         sodipodi:nodetypes="cc"
         id="rect10452-1-7-4-2-2"
         d="m 206.66319,105.19515 c -7.91409,4.26712 -8.11323,10.1635 -0.17602,15.48704"
         style="fill:none;stroke:#0000ff;stroke-width:5;stroke-linecap:butt;stroke-linejoin:miter;stroke-miterlimit:4;stroke-opacity:1;stroke-dasharray:none" />
      <path
         sodipodi:nodetypes="cc"
         id="rect10452-1-4-4-0-7-4"
         d="m 179.489,105.38873 c 8.38416,3.32675 8.29912,11.94162 0.0734,15.23703"
         style="fill:none;stroke:#0000ff;stroke-width:5;stroke-linecap:butt;stroke-linejoin:miter;stroke-miterlimit:4;stroke-opacity:1;stroke-dasharray:none" />
      <path
         id="rect10452-0-7-4-1-5"
         d="m 193.13509,122.31481 0.17678,-18.66053"
         style="fill:none;stroke:#0000ff;stroke-width:5;stroke-linecap:butt;stroke-linejoin:bevel;stroke-miterlimit:4;stroke-opacity:1;stroke-dasharray:none" />
    </g>
    <path
       style="fill:none;stroke:#000000;stroke-width:1px;stroke-linecap:butt;stroke-linejoin:miter;stroke-opacity:1"
       d="m -89.037432,166.20132 32.69028,29.11331"
       id="path2888" />
    <path
       style="fill:none;stroke:#000000;stroke-width:1px;stroke-linecap:butt;stroke-linejoin:miter;stroke-opacity:1"
       d="m -81.588859,115.12769 -6.706873,44.76057"
       id="path2858" />
    <path
       style="fill:none;stroke:#000000;stroke-width:1px;stroke-linecap:butt;stroke-linejoin:miter;stroke-opacity:1"
       d="m -31.246322,179.99414 -24.57175,14.55391"
       id="path2892" />
    <path
       style="fill:none;stroke:#000000;stroke-width:1px;stroke-linecap:butt;stroke-linejoin:miter;stroke-opacity:1"
       d="m -22.563492,153.3934 -7.93741,25.25539"
       id="path2860" />
    <path
       style="fill:none;stroke:#000000;stroke-width:1px;stroke-linecap:butt;stroke-linejoin:miter;stroke-opacity:1"
       d="m -49.518022,120.87906 23.90906,28.02868"
       id="path2868" />
    <path
       style="fill:none;stroke:#000000;stroke-width:1px;stroke-linecap:butt;stroke-linejoin:miter;stroke-opacity:1"
       d="m -54.054632,122.41585 -24.017723,9.4551"
       id="path2870" />
    <path
       style="fill:none;stroke:#000000;stroke-width:1px;stroke-linecap:butt;stroke-linejoin:miter;stroke-opacity:1"
       d="m -77.65328,136.35045 -1.320424,16.0859"
       id="path2872" />
    <path
       id="path4154"
       style="color:#000000;fill:none;stroke:#7137c8;stroke-width:2;stroke-linecap:butt;stroke-linejoin:miter;stroke-miterlimit:4;stroke-opacity:1;stroke-dasharray:none;stroke-dashoffset:0;marker:none;visibility:visible;display:inline;overflow:visible;enable-background:accumulate"
       d="m 287.59406,206.66124 3.13579,-3.89445 14.81916,5.51296 8.54755,13.30185 -3.13581,3.89445 -29.6383,-11.02591 -3.1358,3.89445 8.54755,13.30185 14.81915,5.51297 3.13579,-3.89446 -17.09508,-26.60371 z"
       sodipodi:nodetypes="ccccccccccc" />
    <path
       style="fill:none;stroke:#00ff00;stroke-width:4;stroke-linecap:butt;stroke-linejoin:miter;stroke-miterlimit:4;stroke-opacity:1;stroke-dasharray:none;marker-start:none;marker-mid:none;marker-end:none"
       d="m 135.56275,240.42681 c 0,0 4.1608,-7.53932 2.46776,-22.3129 -2.72407,-23.77055 -11.34919,-45.41942 -29.03895,-69.43357 C 85.62869,116.96481 77.308274,94.076815 79.952159,73.314375 82.70344,51.708525 98.71746,34.791673 113.37407,32.417354 c 12.98863,-2.104113 25.95751,3.359499 34.61776,11.921726"
       id="path2826-1"
       sodipodi:nodetypes="csssss" />
    <path
       id="path10436-7"
       style="fill:none;stroke:#00ff00;stroke-width:2px;stroke-linecap:butt;stroke-linejoin:miter;stroke-opacity:1"
       d="m 110.58715,79.396235 -7.54453,32.891135 c 0,0 18.26344,27.50545 18.26344,27.50545 0,0 -26.40101,16.78666 -26.40101,16.78666 0,0 -19.077865,-25.71289 -19.077865,-25.71289 0,0 -30.523669,-14.34174 -30.523669,-14.34174"
       sodipodi:nodetypes="cccccc"
       inkscape:transform-center-y="-12.201402"
       inkscape:transform-center-x="8.0091855" />
    <path
       id="path10402-6-4"
       style="fill:none;stroke:#00ff00;stroke-width:2px;stroke-linecap:butt;stroke-linejoin:miter;stroke-opacity:1"
       d="m 130.02597,149.36006 17.85454,33.75366 -0.73738,32.09879 -19.89616,3.26395 c 0,0 -12.605,-27.80778 -12.605,-27.80778 L 92.88541,163.43502"
       sodipodi:nodetypes="cccccc"
       inkscape:transform-center-x="8.8811396"
       inkscape:transform-center-y="-9.6383212" />
    <path
       sodipodi:nodetypes="cccc"
       d="m 122.81157,235.68968 c 0,0 -2.50615,41.90461 -2.50615,41.90461 l 27.32914,-31.862 c 0,0 -21.79122,-9.0089 -24.82299,-10.04261 z"
       style="fill:none;stroke:#00ff00;stroke-width:2;stroke-linecap:butt;stroke-linejoin:miter;stroke-miterlimit:4;stroke-opacity:1;stroke-dasharray:none"
       id="path3010" />
    <path
       style="color:#000000;fill:none;stroke:#000000;stroke-width:6;stroke-linecap:butt;stroke-linejoin:miter;stroke-miterlimit:4;stroke-dashoffset:0;stroke-opacity:1;marker:none;visibility:visible;display:inline;overflow:visible;enable-background:accumulate"
       d="m 380.42343,323.03549 0,-271.736067 102.61893,0"
       id="rect3012"
       sodipodi:nodetypes="ccc" />
    <g
       id="g3908"
       transform="matrix(1.5,0,0,1.5,398.53944,12.896601)">
      <path
         sodipodi:nodetypes="cccccc"
         id="path3906"
         d="m 22.128944,126.18057 10,0 0,-20 0,0 c -5.54,0 -10,4.46 -10,10 l 0,10 z"
         style="fill:none;stroke:#dede01;stroke-width:1.33333349;stroke-linecap:butt;stroke-linejoin:miter;stroke-miterlimit:4;stroke-opacity:1;stroke-dashoffset:0;marker:none;visibility:visible;display:inline;overflow:visible;enable-background:accumulate" />
      <path
         sodipodi:nodetypes="ccccc"
         id="path4478"
         d="m 12.129,126.18057 10.000001,0 0,-20 c -5.540001,0 -10.000001,4.46 -10.000001,10 l 0,10 z"
         style="fill:none;stroke:#dede01;stroke-width:1.33333349;stroke-linecap:butt;stroke-linejoin:miter;stroke-miterlimit:4;stroke-opacity:1;stroke-dashoffset:0;marker:none;visibility:visible;display:inline;overflow:visible;enable-background:accumulate" />
    </g>
    <g
       style="display:inline"
       id="g5142"
       transform="matrix(0.6178219,0.78631807,-0.78631807,0.6178219,274.53271,-317.68028)">
      <rect
         y="200"
         x="360"
         height="20"
         width="20"
         id="rect5063"
         style="color:#000000;fill:none;stroke:#59bbbc;stroke-width:2;stroke-linecap:butt;stroke-linejoin:bevel;stroke-miterlimit:4;stroke-opacity:1;stroke-dasharray:none;stroke-dashoffset:0;marker:none;visibility:visible;display:inline;overflow:visible;enable-background:accumulate" />
      <path
         id="path5065-9"
         d="m 370.49997,190.00003 -20.49999,19.99999 19.99999,20 20,-20 -19.5,-19.99999 z"
         style="fill:none;stroke:#59bbbc;stroke-width:2;stroke-linecap:butt;stroke-linejoin:bevel;stroke-miterlimit:4;stroke-opacity:1;stroke-dasharray:none;display:inline" />
      <rect
         y="190"
         x="350"
         height="40"
         width="40"
         id="rect5089"
         style="color:#000000;fill:none;stroke:#59bbbc;stroke-width:2;stroke-linecap:butt;stroke-linejoin:miter;stroke-miterlimit:4;stroke-opacity:1;stroke-dasharray:none;stroke-dashoffset:0;marker:none;visibility:visible;display:inline;overflow:visible;enable-background:accumulate" />
    </g>
  </g>
</svg>
