<?xml version="1.0" encoding="UTF-8" standalone="no"?>
<!-- Created with Inkscape (http://www.inkscape.org/) -->

<svg
   xmlns:dc="http://purl.org/dc/elements/1.1/"
   xmlns:cc="http://creativecommons.org/ns#"
   xmlns:rdf="http://www.w3.org/1999/02/22-rdf-syntax-ns#"
   xmlns:svg="http://www.w3.org/2000/svg"
   xmlns="http://www.w3.org/2000/svg"
   xmlns:sodipodi="http://sodipodi.sourceforge.net/DTD/sodipodi-0.dtd"
   xmlns:inkscape="http://www.inkscape.org/namespaces/inkscape"
   width="480"
   height="320"
   id="svg2"
   version="1.1"
   inkscape:version="0.48.0 r9654"
   sodipodi:docname="itnas298.svg"
   inkscape:export-xdpi="90"
   inkscape:export-ydpi="90"
   inkscape:export-filename="itnas298.png">
  <defs
     id="defs4">
    <inkscape:perspective
       sodipodi:type="inkscape:persp3d"
       inkscape:vp_x="0 : 160 : 1"
       inkscape:vp_y="0 : 1000 : 0"
       inkscape:vp_z="480 : 160 : 1"
       inkscape:persp3d-origin="240 : 106.66667 : 1"
       id="perspective8" />
  </defs>
  <sodipodi:namedview
     id="base"
     pagecolor="#ffffff"
     bordercolor="#666666"
     borderopacity="1.0"
     inkscape:pageopacity="1"
     inkscape:pageshadow="2"
     inkscape:zoom="2"
     inkscape:cx="192.4737"
     inkscape:cy="195.42998"
     inkscape:document-units="px"
     inkscape:current-layer="layer1"
     showgrid="false"
     inkscape:snap-nodes="true"
     inkscape:snap-global="false"
     inkscape:snap-grids="true"
     showguides="true"
     inkscape:window-width="1280"
     inkscape:window-height="998"
     inkscape:window-x="1276"
     inkscape:window-y="-4"
     inkscape:window-maximized="1">
    <inkscape:grid
       empspacing="5"
       visible="true"
       enabled="true"
       snapvisiblegridlinesonly="true"
       type="xygrid"
       id="grid2816" />
  </sodipodi:namedview>
  <metadata
     id="metadata7">
    <rdf:RDF>
      <cc:Work
         rdf:about="">
        <dc:format>image/svg+xml</dc:format>
        <dc:type
           rdf:resource="http://purl.org/dc/dcmitype/StillImage" />
        <dc:title></dc:title>
      </cc:Work>
    </rdf:RDF>
  </metadata>
  <g
     inkscape:label="Layer 1"
     inkscape:groupmode="layer"
     id="layer1"
     transform="translate(0,0)">
    <path
       style="color:#000000;fill:none;stroke:#0000ff;stroke-width:4;stroke-linecap:round;stroke-linejoin:round;stroke-miterlimit:4;stroke-opacity:1;stroke-dasharray:none;stroke-dashoffset:0;marker:none;visibility:visible;display:inline;overflow:visible;enable-background:accumulate"
       d="m 280.5,202 c -9.50812,-9.6159 -24.55041,-10.0126 -30.5,-11.5 -8.963,-2.24075 -17.95317,-4.73829 -27,-7 -14.45301,-3.61325 -31.64776,0.71306 -44.5,-2.5 -4.40603,-1.10151 -6.9683,-3.2855 -11.5,-4.5 -22.80747,-6.11244 -43.79399,9.09919 -67,5 -8.562727,-1.51255 -9.286296,1.89137 -19.5,3.5"
       id="path3128"
       inkscape:connector-curvature="0"
       sodipodi:nodetypes="csssssc" />
    <path
       style="color:#000000;fill:none;stroke:#808080;stroke-width:4;stroke-linecap:butt;stroke-linejoin:miter;stroke-miterlimit:4;stroke-opacity:1;stroke-dasharray:none;stroke-dashoffset:0;marker:none;visibility:visible;display:inline;overflow:visible;enable-background:accumulate"
       d="M 51.18127,201.51265 C 44.12764,150.45561 51.17227,166.1979 37.81031,125.01796 28.01044,94.815213 39.40003,77.74277 24.86406,57.005334 17.58869,45.205264 22.50537,38.291275 34.06941,34.302261 49.76146,28.88929 79.779,23.155125 106.01184,25.321 c 27.49504,2.270087 14.43055,5.958559 37.97903,3.565355 C 162.2089,27.034879 157,-6.7872909 156,-21.75"
       id="path3174"
       inkscape:connector-curvature="0"
       sodipodi:nodetypes="cscsssc" />
    <path
       style="color:#000000;fill:none;stroke:#808080;stroke-width:4;stroke-linecap:butt;stroke-linejoin:miter;stroke-miterlimit:4;stroke-opacity:1;stroke-dasharray:none;stroke-dashoffset:0;marker:none;visibility:visible;display:inline;overflow:visible;enable-background:accumulate"
       d="m 494,235 -32,0 c -50.24879,-3.613 -57.92844,0.33561 -65.79257,-15.88925 C 378.0298,181.6076 389.68832,202.97408 380,154 372.711,117.15438 380,101.74043 353,56 341.46175,29.126256 324.7636,35.602653 308.0388,38.610649 256.55055,47.870936 280.29303,37.804542 237.75337,45.445198 226.50686,43.291173 218.44165,34.152361 217.64943,26.558162 216.41382,14.713553 223.14024,-0.67148643 223,-10"
       id="path3161"
       inkscape:connector-curvature="0"
       sodipodi:nodetypes="ccsscscsc" />
    <path
       style="color:#000000;fill:none;stroke:#808080;stroke-width:4;stroke-linecap:butt;stroke-linejoin:miter;stroke-miterlimit:4;stroke-opacity:1;stroke-dasharray:none;stroke-dashoffset:0;marker:none;visibility:visible;display:inline;overflow:visible;enable-background:accumulate"
       d="M 280.11985,201.90555 C 281.34964,198.20348 283.20239,195.3988 286,194 c 14.93581,-7.4679 21.44019,26.35159 20,35 -0.54613,3.27952 -5.3628,25.17241 0.48181,37.79192 C 316.85693,289.19358 309.13723,283.66866 326,291 c 48.7495,21.19457 88.51255,-2.61603 135,9 14.08382,2.12503 28.51132,3.19552 42.99342,3.27056"
       id="path3001"
       inkscape:connector-curvature="0"
       sodipodi:nodetypes="csssscc" />
    <path
       style="fill:none;stroke:#000000;stroke-width:1;stroke-linecap:butt;stroke-linejoin:miter;stroke-opacity:1;display:inline;stroke-miterlimit:4;stroke-dasharray:none"
       d="m 483.30019,235.12653 0,65.49381"
       id="path3099"
       inkscape:connector-curvature="0" />
    <path
       style="color:#000000;fill:none;stroke:#0000ff;stroke-width:4;stroke-linecap:round;stroke-linejoin:round;stroke-miterlimit:4;stroke-opacity:1;stroke-dasharray:none;stroke-dashoffset:0;marker:none;visibility:visible;display:inline;overflow:visible;enable-background:accumulate"
       d="m 161.17574,-30.357485 c -2.13617,-1.161223 0.25094,12.220958 0.27696,32.611634 0.014,11.010126 -1.41504,15.495958 -3.54828,20.429764 -3.71103,8.582964 1.54494,8.850002 6.66994,14.713645 16.63902,-15.582835 5.34343,-13.750316 4.84069,-23.269492 -0.99261,-18.7945002 -3.22673,-41.76071 -8.23931,-44.485551 z"
       id="path4063"
       inkscape:connector-curvature="0"
       sodipodi:nodetypes="ssscss" />
    <path
       style="color:#000000;fill:none;stroke:#808080;stroke-width:4;stroke-linecap:butt;stroke-linejoin:miter;stroke-miterlimit:4;stroke-opacity:1;stroke-dasharray:none;stroke-dashoffset:0;marker:none;visibility:visible;display:inline;overflow:visible;enable-background:accumulate"
       d="m 184.23604,19.391949 0,0 c 4.89777,-0.424318 4.27903,9.315048 1.66441,9.972047 -3.78754,0.951726 -10.18948,-3.716252 -1.66441,-9.972047 z"
       id="path3972"
       inkscape:connector-curvature="0"
       sodipodi:nodetypes="ccsc" />
    <path
       style="color:#000000;fill:none;stroke:#808080;stroke-width:4;stroke-linecap:butt;stroke-linejoin:miter;stroke-miterlimit:4;stroke-opacity:1;stroke-dasharray:none;stroke-dashoffset:0;marker:none;visibility:visible;display:inline;overflow:visible;enable-background:accumulate"
       d="m 203.45326,21.276624 c 6.81233,1.672127 8.46413,8.271664 -1.83583,9.053789 -8.12794,0.617193 -4.80785,-10.684519 1.83583,-9.053789 z"
       id="path3974"
       inkscape:connector-curvature="0"
       sodipodi:nodetypes="sss" />
    <path
       style="color:#000000;fill:none;stroke:#808080;stroke-width:4;stroke-linecap:butt;stroke-linejoin:miter;stroke-miterlimit:4;stroke-opacity:1;stroke-dasharray:none;stroke-dashoffset:0;marker:none;visibility:visible;display:inline;overflow:visible;enable-background:accumulate"
       d="m 163.76735,20.864338 c 17.68075,4.40964 -12.4194,16.487924 0,0 z"
       id="path3976"
       inkscape:connector-curvature="0" />
    <path
       style="color:#000000;fill:none;stroke:#0000ff;stroke-width:4;stroke-linecap:round;stroke-linejoin:round;stroke-miterlimit:4;stroke-opacity:1;stroke-dasharray:none;stroke-dashoffset:0;marker:none;visibility:visible;display:inline;overflow:visible;enable-background:accumulate"
       d="m 348.5,292.5 c 11.94819,3.87155 37.72879,2.83569 63.5,0.5 26.7763,-2.42678 60.01188,4.09617 90,5"
       id="path4033" />
    <path
       style="color:#000000;fill:none;stroke:#c87137;stroke-width:4;stroke-linecap:round;stroke-linejoin:round;stroke-miterlimit:4;stroke-opacity:1;stroke-dasharray:none;stroke-dashoffset:0;marker:none;visibility:visible;display:inline;overflow:visible;enable-background:accumulate"
       d="m 307.5,256.5 c 4.65825,0.56983 12.18096,1.92699 20.5,10 10.80234,10.48286 -0.47425,19.20376 20.5,26"
       id="path3019" />
    <path
       inkscape:connector-curvature="0"
       style="color:#000000;fill:none;stroke:#80ff00;stroke-width:4;stroke-linecap:round;stroke-linejoin:round;stroke-miterlimit:4;stroke-opacity:1;stroke-dasharray:none;stroke-dashoffset:0;marker:none;visibility:visible;display:inline;overflow:visible;enable-background:accumulate"
       d="m 163.71715,147.95889 c -0.55435,-1.25073 3.74459,-3.48595 5.25253,-5.14099 1.22554,-1.34501 2.25157,-2.92562 3.59922,-4.09448 1.49479,-1.2964 3.17588,-2.35273 4.61138,-3.72251 2.15493,-2.05615 4.11568,-4.37084 6.12828,-6.60681 0.98391,-1.09317 1.43722,-2.56843 2.69485,-3.2472 1.56239,-0.84248 3.14235,-3.7568 4.27819,-3.11394 1.05589,0.5976 0.001,3.54364 0.57229,5.22974 1.83556,5.41925 0.3106,7.50265 -0.21213,11.08807 -0.36907,2.53094 -1.5319,4.54203 -1.67353,7.08115 -0.15524,2.78454 0.52612,5.56069 0.40537,8.35069 -0.076,1.75559 -0.68568,3.33349 -0.86594,5.03905 -0.26944,2.54906 -2.15885,0.0434 -3.05854,-0.56589 -1.66517,-1.12778 -3.48168,-1.91215 -5.19147,-2.94049 -1.4777,-0.88872 -3.22844,-1.04036 -4.69004,-2.08745 -1.58013,-1.13203 -3.2006,-2.32379 -4.95563,-3.03392 -1.68026,-0.67992 -3.42268,-1.25523 -5.18113,-1.712 -0.864,-0.22442 -1.43386,0.10838 -1.71372,-0.52301 z"
       id="path2870"
       sodipodi:nodetypes="csssssssssssssssss" />
    <path
       style="color:#000000;fill:none;stroke:#c87137;stroke-width:4;stroke-linecap:round;stroke-linejoin:round;stroke-miterlimit:4;stroke-opacity:1;stroke-dasharray:none;stroke-dashoffset:0;marker:none;visibility:visible;display:inline;overflow:visible;enable-background:accumulate"
       d="m 72.269939,194.40882 c -18.825503,11.95903 47.298071,32.08827 53.771521,7.96927 1.35489,-5.04807 -12.21848,-11.67584 -19.4901,-13.66402 -21.826681,-5.96777 -28.561156,2.42057 -24.336414,7.62944 8.266902,10.19261 15.545037,11.68551 32.300804,13.6603 26.99203,3.18122 76.85975,-1.46137 42.60166,-24.0059 -22.15327,-14.5786 -55.39045,26.10698 -35.21796,33.52552 13.57054,4.99064 89.45434,-22.38265 68.67579,-28.77189 -42.99747,-13.22139 -48.74211,18.62208 -29.50046,28.98381 10.79348,5.81233 82.20098,-17.47498 63.04801,-27.40656 -19.59376,-10.16013 -55.77876,25.50255 -36.51072,31.19894 20.82608,6.157 98.18162,-16.47781 76.40298,-21.99913 -11.86478,-3.00796 -31.52025,-7.52767 -40.70817,-0.86661 -29.88072,21.66293 57.0871,34.34396 16.93787,5.42823"
       id="path3042"
       inkscape:connector-curvature="0"
       sodipodi:nodetypes="ssssssssssssss" />
    <path
       inkscape:connector-curvature="0"
       style="fill:none;stroke:#80ff00;stroke-width:4;stroke-linecap:round;stroke-linejoin:round;stroke-miterlimit:4;stroke-opacity:1;stroke-dasharray:none"
       d="m 201.05406,272.17907 c -2.77827,-4.2838 -3.9518,-12.07395 -3.50815,-16.29473 -0.0304,-5.51355 -0.55754,-6.41482 2.31084,-11.35731 1.21425,-3.30795 2.98488,-13.0711 5.47667,-6.70108 1.56659,4.21214 3.23191,5.71546 4.69269,10.80752 1.47157,8.39753 2.23301,8.68944 5.94351,11.94208 1.82148,2.96076 9.33313,8.92728 8.95272,10.38033"
       id="path2956-7"
       sodipodi:nodetypes="ccccccc" />
    <path
       inkscape:connector-curvature="0"
       style="fill:none;stroke:#80ff00;stroke-width:4;stroke-linecap:round;stroke-linejoin:round;stroke-miterlimit:4;stroke-opacity:1;stroke-dasharray:none"
       d="m 195.99271,93.120693 c 1.51731,-1.025446 -2.26075,-1.763003 -0.40833,-2.90117 0.7462,-2.685234 -0.89699,-5.340161 -0.0763,-8.028762 0.095,-1.867219 -0.90726,-3.651408 -0.75468,-5.522393 0.0824,-1.964922 -0.58725,-3.821216 -1.18601,-5.691044 -0.43304,-1.644541 -0.39123,-3.323724 -0.65947,-4.977165 0.68463,-1.355285 0.24543,-2.52861 0.8209,-3.921357 0.68591,-1.682518 -0.49024,-3.487423 0.64633,-5.137645 0.89656,-0.02735 2.04517,1.511823 3.04178,2.101382 2.47195,1.970855 4.94554,3.940799 7.41408,5.913744 1.02022,1.474094 2.93174,2.604634 3.2152,4.328667 0.63641,1.295895 1.93892,2.311718 2.86094,3.479255 1.20468,1.205901 2.42572,2.663662 3.51011,4.008526 1.3056,1.299372 2.36283,2.728439 4.02205,3.838603 1.29788,0.871689 2.90527,1.985658 0.67402,2.953205 -1.38972,0.998044 -3.55757,0.926369 -4.95104,1.936345 -1.91562,0.73864 -3.45054,1.896708 -5.81942,2.10402 -1.85546,0.948573 -4.15363,1.581761 -5.71595,2.804145 -1.84312,0.548038 -3.49117,1.500677 -5.12194,2.259581 -0.36623,0.236915 -0.97366,0.804919 -1.51199,0.451989 z"
       id="path2942" />
    <path
       inkscape:connector-curvature="0"
       style="color:#000000;fill:none;stroke:#80ff00;stroke-width:4;stroke-linecap:round;stroke-linejoin:round;stroke-miterlimit:4;stroke-opacity:1;stroke-dasharray:none;stroke-dashoffset:0;marker:none;visibility:visible;display:inline;overflow:visible;enable-background:accumulate"
       d="m 209.91972,89.366115 c 0.79159,2.6633 1.82386,4.872113 1.83481,7.797838 0.011,3.036377 -0.40899,6.055737 -0.74774,9.136537 -0.37311,3.39335 -0.38917,7.84277 -0.69505,11.62439 -0.38209,4.72363 -1.56828,9.003 -1.83443,13.80347 -0.32458,5.85329 0.64666,11.81833 1.09479,17.7341 0.22531,2.97477 0.72893,5.87771 0.69719,8.89098 -0.0246,2.32437 1.12181,7.17877 3.72316,9.47121"
       id="path2833-7"
       sodipodi:nodetypes="csssssss" />
    <path
       inkscape:connector-curvature="0"
       style="fill:none;stroke:#80ff00;stroke-width:4;stroke-linecap:round;stroke-linejoin:round;stroke-miterlimit:4;stroke-opacity:1;stroke-dasharray:none"
       d="m 180.72978,168.34383 c 3.15221,-1.35635 7.22542,0.0485 10.41091,-1.12643 3.94535,-1.97234 7.26571,-2.29564 11.82686,-1.98591 2.80311,-0.29881 10.43485,-2.48232 6.74566,1.55908 -2.46812,2.61418 -2.95768,4.34092 -6.09461,7.19046 -2.63979,3.506 -3.48431,5.93945 -6.46624,8.48932 -1.48008,2.35439 -3.44764,7.34862 -4.62483,7.58969"
       id="path2956-7-4"
       sodipodi:nodetypes="ccccccc" />
    <path
       style="color:#000000;fill:none;stroke:#0000ff;stroke-width:4;stroke-linecap:round;stroke-linejoin:round;stroke-miterlimit:4;stroke-opacity:1;stroke-dasharray:none;stroke-dashoffset:0;marker:none;visibility:visible;display:inline;overflow:visible;enable-background:accumulate"
       d="m 164.5,59.359051 c 12.83333,31.5 -15.33333,29 0,0 z"
       id="path4073"
       inkscape:connector-curvature="0"
       sodipodi:nodetypes="cc" />
    <path
       sodipodi:nodetypes="cc"
       inkscape:connector-curvature="0"
       id="path4092"
       d="m 160.5,109.07448 c 12.83333,31.5 -15.33333,29 0,0 z"
       style="color:#000000;fill:none;stroke:#0000ff;stroke-width:4;stroke-linecap:round;stroke-linejoin:round;stroke-miterlimit:4;stroke-opacity:1;stroke-dasharray:none;stroke-dashoffset:0;marker:none;visibility:visible;display:inline;overflow:visible;enable-background:accumulate" />
    <path
       style="color:#000000;fill:none;stroke:#0000ff;stroke-width:4;stroke-linecap:round;stroke-linejoin:round;stroke-miterlimit:4;stroke-opacity:1;stroke-dasharray:none;stroke-dashoffset:0;marker:none;visibility:visible;display:inline;overflow:visible;enable-background:accumulate"
       d="m 159.5,146.64095 c 12.83333,31.5 -15.33333,29 0,0 z"
       id="path4094"
       inkscape:connector-curvature="0"
       sodipodi:nodetypes="cc" />
    <path
       style="color:#000000;fill:none;stroke:#c87137;stroke-width:4;stroke-linecap:round;stroke-linejoin:round;stroke-miterlimit:4;stroke-opacity:1;stroke-dasharray:none;stroke-dashoffset:0;marker:none;visibility:visible;display:inline;overflow:visible;enable-background:accumulate"
       d="m 308.25,262 c 7.34103,0.0272 17.94464,8.75679 19.70815,16.66388 C 330.2532,288.95425 329,287.69262 325.25,287.75"
       id="path4097"
       inkscape:connector-curvature="0"
       sodipodi:nodetypes="csc" />
    <path
       inkscape:connector-curvature="0"
       style="fill:none;stroke:#80ff00;stroke-width:4;stroke-linecap:round;stroke-linejoin:round;stroke-miterlimit:4;stroke-opacity:1;stroke-dasharray:none"
       d="m 214.42887,250.93145 c -7.25912,-4.51658 -9.76279,-10.12614 -10.76888,-16.11185 -3.21854,-11.99025 -7.02147,-21.13181 -8.95745,-33.33893 -2.95063,-7.17722 -3.62181,-17.34318 -5.69922,-24.06015 -1.79371,-9.1918 -16.6615,-15.56941 -13.71801,-21.95851"
       id="path2952-1"
       sodipodi:nodetypes="ccccc" />
    <path
       style="color:#000000;fill:#ffffff;fill-opacity:0;fill-rule:nonzero;stroke:#80ff00;stroke-width:4;stroke-linecap:round;stroke-linejoin:round;stroke-miterlimit:4;stroke-opacity:1;stroke-dasharray:none;stroke-dashoffset:0;marker:none;visibility:visible;display:inline;overflow:visible;enable-background:accumulate"
       d="m 214.17746,251.07903 c 13.07219,4.23963 25.53532,17.67381 44.3562,12.98836 4.41046,-1.09798 19.43704,0.73072 20.37454,-9.14929 1.11873,-11.78995 -6.23592,-18.09417 -12.35478,-21.50492 -9.81224,-5.4695 -12.49451,-8.91068 -19.53774,-18.93664 -7.79711,-11.0991 -15.94817,-25.53549 -8.57445,-37.69694 3.33178,-5.49509 4.39598,-5.29565 9.89614,-7.87822 17.57825,-8.25377 7.41983,-8.22068 20.42722,-16.02569 4.73306,-2.84005 8.50746,-8.58188 8.65627,-15.50092"
       id="path3070"
       inkscape:connector-curvature="0"
       sodipodi:nodetypes="csssssssc" />
    <path
       style="color:#000000;fill:none;stroke:#80ff00;stroke-width:4;stroke-linecap:round;stroke-linejoin:round;stroke-miterlimit:4;stroke-opacity:1;stroke-dasharray:none;stroke-dashoffset:0;marker:none;visibility:visible;display:inline;overflow:visible;enable-background:accumulate"
       d="m 225.33757,174.04872 c -14.0856,-7.18359 -18.53262,-0.81781 -33.14259,-6.19991 -1.29165,-0.47583 -9.32541,-0.23999 -10.69373,-1.61573 -0.94278,-0.9478 1.86294,-7.2609 6.28907,-8.2374 3.51225,-0.77488 5.78907,-3.95826 11.06542,-6.86113 5.93455,-3.265 12.18624,-7.07142 16.1868,-9.99148"
       id="path3075"
       inkscape:connector-curvature="0"
       sodipodi:nodetypes="ssssss" />
    <path
       style="color:#000000;fill:none;stroke:#80ff00;stroke-width:4;stroke-linecap:round;stroke-linejoin:round;stroke-miterlimit:4;stroke-opacity:1;stroke-dasharray:none;stroke-dashoffset:0;marker:none;visibility:visible;display:inline;overflow:visible;enable-background:accumulate"
       d="m 181.88674,121.81687 c 6.82781,-4.41625 13.79357,-11.3655 20.79079,-12.5625 3.09786,-0.52994 6.46793,-4.90397 8.00692,-3.73439 1.60809,1.22212 -2.66123,5.61442 -5.19133,8.35832 -3.61596,3.9214 -4.89032,9.0698 -7.01614,12.98867 -2.21401,4.08135 -2.97469,4.12776 -6.51538,7.62382"
       id="path3094"
       inkscape:connector-curvature="0"
       sodipodi:nodetypes="ssssss" />
    <path
       style="color:#000000;fill:none;stroke:#0000ff;stroke-width:4;stroke-linecap:round;stroke-linejoin:round;stroke-miterlimit:4;stroke-opacity:1;stroke-dasharray:none;stroke-dashoffset:0;marker:none;visibility:visible;display:inline;overflow:visible;enable-background:accumulate"
       d="m 80.5,185 c -16.039194,2.52613 -33.442083,15.55792 -28,21 1.669338,1.66934 68.78813,20.91602 77.5,22.5 12.35767,2.24685 25.97902,-1.2521 38.5,0 29.29167,2.92917 66.42145,7.29004 92,-6 9.54834,-4.9611 27.72454,-12.52441 18.5,-22"
       id="path3917"
       inkscape:connector-curvature="0"
       sodipodi:nodetypes="cssssc" />
    <path
       inkscape:connector-curvature="0"
       style="color:#000000;fill:none;stroke:#80ff00;stroke-width:4;stroke-linecap:round;stroke-linejoin:round;stroke-miterlimit:4;stroke-opacity:1;stroke-dasharray:none;stroke-dashoffset:0;marker:none;visibility:visible;display:inline;overflow:visible;enable-background:accumulate"
       d="m 214.91119,170.05183 c 3.47396,12.82588 -9.39497,28.10178 -24.83402,28.56997 -18.23659,0.55302 -13.94443,7.2489 -11.17335,17.50981 3.40835,12.62063 34.22297,-3.23028 38.56834,7.77 3.3384,8.45115 -0.29421,12.1525 -6.599,16.20394 -10.22265,6.56904 -15.59471,8.23802 -27.71413,10.80436"
       id="path4125-1"
       sodipodi:nodetypes="csssss" />
  </g>
</svg>
