<?xml version="1.0" encoding="UTF-8" standalone="no"?>
<!-- Created with Inkscape (http://www.inkscape.org/) -->

<svg
   xmlns:dc="http://purl.org/dc/elements/1.1/"
   xmlns:cc="http://creativecommons.org/ns#"
   xmlns:rdf="http://www.w3.org/1999/02/22-rdf-syntax-ns#"
   xmlns:svg="http://www.w3.org/2000/svg"
   xmlns="http://www.w3.org/2000/svg"
   xmlns:sodipodi="http://sodipodi.sourceforge.net/DTD/sodipodi-0.dtd"
   xmlns:inkscape="http://www.inkscape.org/namespaces/inkscape"
   width="480"
   height="320"
   id="svg2"
   version="1.1"
   inkscape:version="0.48.0 r9654"
   sodipodi:docname="itnas297.svg"
   inkscape:export-xdpi="90"
   inkscape:export-ydpi="90"
   inkscape:export-filename="itnas297.png">
  <defs
     id="defs4">
    <inkscape:perspective
       sodipodi:type="inkscape:persp3d"
       inkscape:vp_x="0 : 160 : 1"
       inkscape:vp_y="0 : 1000 : 0"
       inkscape:vp_z="480 : 160 : 1"
       inkscape:persp3d-origin="240 : 106.66667 : 1"
       id="perspective8" />
  </defs>
  <sodipodi:namedview
     id="base"
     pagecolor="#ffffff"
     bordercolor="#666666"
     borderopacity="1.0"
     inkscape:pageopacity="1"
     inkscape:pageshadow="2"
     inkscape:zoom="2"
     inkscape:cx="253.9737"
     inkscape:cy="172.92998"
     inkscape:document-units="px"
     inkscape:current-layer="layer1"
     showgrid="false"
     inkscape:snap-nodes="true"
     inkscape:snap-global="false"
     inkscape:snap-grids="true"
     showguides="true"
     inkscape:window-width="1280"
     inkscape:window-height="998"
     inkscape:window-x="1276"
     inkscape:window-y="-4"
     inkscape:window-maximized="1">
    <inkscape:grid
       empspacing="5"
       visible="true"
       enabled="true"
       snapvisiblegridlinesonly="true"
       type="xygrid"
       id="grid2816" />
  </sodipodi:namedview>
  <metadata
     id="metadata7">
    <rdf:RDF>
      <cc:Work
         rdf:about="">
        <dc:format>image/svg+xml</dc:format>
        <dc:type
           rdf:resource="http://purl.org/dc/dcmitype/StillImage" />
        <dc:title></dc:title>
      </cc:Work>
    </rdf:RDF>
  </metadata>
  <g
     inkscape:label="Layer 1"
     inkscape:groupmode="layer"
     id="layer1"
     transform="translate(0,0)">
    <path
       style="color:#000000;fill:none;stroke:#0000ff;stroke-width:4;stroke-linecap:round;stroke-linejoin:round;stroke-miterlimit:4;stroke-opacity:1;stroke-dasharray:none;stroke-dashoffset:0;marker:none;visibility:visible;display:inline;overflow:visible;enable-background:accumulate"
       d="m 280.5,202 c -9.50812,-9.6159 -24.55041,-10.0126 -30.5,-11.5 -8.963,-2.24075 -17.95317,-4.73829 -27,-7 -14.45301,-3.61325 -31.64776,0.71306 -44.5,-2.5 -4.40603,-1.10151 -6.9683,-3.2855 -11.5,-4.5 -22.80747,-6.11244 -43.79399,9.09919 -67,5 -8.562727,-1.51255 -9.286296,1.89137 -19.5,3.5"
       id="path3128"
       inkscape:connector-curvature="0"
       sodipodi:nodetypes="csssssc" />
    <path
       style="color:#000000;fill:none;stroke:#808080;stroke-width:4;stroke-linecap:butt;stroke-linejoin:miter;stroke-miterlimit:4;stroke-opacity:1;stroke-dasharray:none;stroke-dashoffset:0;marker:none;visibility:visible;display:inline;overflow:visible;enable-background:accumulate"
       d="M 51.18127,201.51265 C 44.12764,150.45561 51.17227,166.1979 37.81031,125.01796 28.01044,94.815213 39.40003,77.74277 24.86406,57.005334 17.58869,45.205264 22.50537,38.291275 34.06941,34.302261 49.76146,28.88929 79.779,23.155125 106.01184,25.321 c 27.49504,2.270087 14.43055,5.958559 37.97903,3.565355 C 162.2089,27.034879 157,-6.7872909 156,-21.75"
       id="path3174"
       inkscape:connector-curvature="0"
       sodipodi:nodetypes="cscsssc" />
    <path
       style="color:#000000;fill:none;stroke:#808080;stroke-width:4;stroke-linecap:butt;stroke-linejoin:miter;stroke-miterlimit:4;stroke-opacity:1;stroke-dasharray:none;stroke-dashoffset:0;marker:none;visibility:visible;display:inline;overflow:visible;enable-background:accumulate"
       d="m 494,235 -32,0 c -50.24879,-3.613 -57.92844,0.33561 -65.79257,-15.88925 C 378.0298,181.6076 389.68832,202.97408 380,154 372.711,117.15438 380,101.74043 353,56 341.46175,29.126256 324.7636,35.602653 308.0388,38.610649 256.55055,47.870936 280.29303,37.804542 237.75337,45.445198 226.50686,43.291173 218.44165,34.152361 217.64943,26.558162 216.41382,14.713553 223.14024,-0.67148643 223,-10"
       id="path3161"
       inkscape:connector-curvature="0"
       sodipodi:nodetypes="ccsscscsc" />
    <path
       style="color:#000000;fill:none;stroke:#808080;stroke-width:4;stroke-linecap:butt;stroke-linejoin:miter;stroke-miterlimit:4;stroke-opacity:1;stroke-dasharray:none;stroke-dashoffset:0;marker:none;visibility:visible;display:inline;overflow:visible;enable-background:accumulate"
       d="M 280.11985,201.90555 C 281.34964,198.20348 283.20239,195.3988 286,194 c 14.93581,-7.4679 21.44019,26.35159 20,35 -0.54613,3.27952 -5.3628,25.17241 0.48181,37.79192 C 316.85693,289.19358 309.13723,283.66866 326,291 c 48.7495,21.19457 88.51255,-2.61603 135,9 14.08382,2.12503 28.51132,3.19552 42.99342,3.27056"
       id="path3001"
       inkscape:connector-curvature="0"
       sodipodi:nodetypes="csssscc" />
    <path
       style="fill:none;stroke:#000000;stroke-width:1;stroke-linecap:butt;stroke-linejoin:miter;stroke-opacity:1;display:inline;stroke-miterlimit:4;stroke-dasharray:none"
       d="m 483.30019,235.12653 0,65.49381"
       id="path3099"
       inkscape:connector-curvature="0" />
    <path
       style="color:#000000;fill:none;stroke:#0000ff;stroke-width:4;stroke-linecap:round;stroke-linejoin:round;stroke-miterlimit:4;stroke-opacity:1;stroke-dasharray:none;stroke-dashoffset:0;marker:none;visibility:visible;display:inline;overflow:visible;enable-background:accumulate"
       d="m 161.17574,-30.357485 c -2.13617,-1.161223 0.25094,12.220958 0.27696,32.611634 0.014,11.010126 -1.41504,15.495958 -3.54828,20.429764 -3.71103,8.582964 1.54494,8.850002 6.66994,14.713645 16.63902,-15.582835 5.34343,-13.750316 4.84069,-23.269492 -0.99261,-18.7945002 -3.22673,-41.76071 -8.23931,-44.485551 z"
       id="path4063"
       inkscape:connector-curvature="0"
       sodipodi:nodetypes="ssscss" />
    <path
       style="color:#000000;fill:none;stroke:#808080;stroke-width:4;stroke-linecap:butt;stroke-linejoin:miter;stroke-miterlimit:4;stroke-opacity:1;stroke-dasharray:none;stroke-dashoffset:0;marker:none;visibility:visible;display:inline;overflow:visible;enable-background:accumulate"
       d="m 184.23604,19.391949 0,0 c 4.89777,-0.424318 4.27903,9.315048 1.66441,9.972047 -3.78754,0.951726 -10.18948,-3.716252 -1.66441,-9.972047 z"
       id="path3972"
       inkscape:connector-curvature="0"
       sodipodi:nodetypes="ccsc" />
    <path
       style="color:#000000;fill:none;stroke:#808080;stroke-width:4;stroke-linecap:butt;stroke-linejoin:miter;stroke-miterlimit:4;stroke-opacity:1;stroke-dasharray:none;stroke-dashoffset:0;marker:none;visibility:visible;display:inline;overflow:visible;enable-background:accumulate"
       d="m 203.45326,21.276624 c 6.81233,1.672127 8.46413,8.271664 -1.83583,9.053789 -8.12794,0.617193 -4.80785,-10.684519 1.83583,-9.053789 z"
       id="path3974"
       inkscape:connector-curvature="0"
       sodipodi:nodetypes="sss" />
    <path
       style="color:#000000;fill:none;stroke:#808080;stroke-width:4;stroke-linecap:butt;stroke-linejoin:miter;stroke-miterlimit:4;stroke-opacity:1;stroke-dasharray:none;stroke-dashoffset:0;marker:none;visibility:visible;display:inline;overflow:visible;enable-background:accumulate"
       d="m 163.76735,20.864338 c 17.68075,4.40964 -12.4194,16.487924 0,0 z"
       id="path3976"
       inkscape:connector-curvature="0" />
    <path
       style="color:#000000;fill:none;stroke:#0000ff;stroke-width:4;stroke-linecap:round;stroke-linejoin:round;stroke-miterlimit:4;stroke-opacity:1;stroke-dasharray:none;stroke-dashoffset:0;marker:none;visibility:visible;display:inline;overflow:visible;enable-background:accumulate"
       d="m 307.5,256.5 c 4.65825,0.56983 12.18096,1.92699 20.5,10 10.80234,10.48286 -0.47425,19.20376 20.5,26 11.94819,3.87155 37.72879,2.83569 63.5,0.5 26.7763,-2.42678 60.01188,4.09617 90,5"
       id="path4033"
       inkscape:connector-curvature="0"
       sodipodi:nodetypes="csssc" />
    <path
       inkscape:connector-curvature="0"
       style="color:#000000;fill:none;stroke:#80ff00;stroke-width:4;stroke-linecap:round;stroke-linejoin:round;stroke-miterlimit:4;stroke-opacity:1;stroke-dasharray:none;stroke-dashoffset:0;marker:none;visibility:visible;display:inline;overflow:visible;enable-background:accumulate"
       d="m 201.53705,152.75035 c 0.93378,-0.90569 -2.42836,-4.7298 -3.32459,-6.86286 -0.7284,-1.73351 -1.19048,-3.59798 -2.09229,-5.22229 -1.00031,-1.8016 -2.2558,-3.46267 -3.17585,-5.30625 -1.38118,-2.76739 -2.49365,-5.68883 -3.68102,-8.56032 -0.58047,-1.40386 -0.53207,-2.93377 -1.50757,-4.0751 -1.21212,-1.4172 -1.76752,-4.72488 -3.05676,-4.61417 -1.19849,0.10292 -1.15297,3.22042 -2.24421,4.51484 -3.50727,4.16035 -2.73411,6.68984 -3.40236,10.16669 -0.47165,2.45432 -0.0194,4.7671 -0.71002,7.13403 -0.75745,2.59566 -2.30785,4.83488 -3.09988,7.42115 -0.4984,1.62736 -0.43141,3.31578 -0.81435,4.94117 -0.57229,2.42926 2.03914,0.93964 3.09289,0.76093 1.95031,-0.33077 3.93294,-0.28629 5.89334,-0.50807 1.69431,-0.19165 3.40871,0.4005 5.13918,0.0582 1.87079,-0.37009 3.79938,-0.77764 5.6994,-0.69133 1.81908,0.0826 3.66328,0.2862 5.4842,0.60422 0.89468,0.15628 1.32849,0.69637 1.79989,0.23918 z"
       id="path2870"
       sodipodi:nodetypes="csssssssssssssssss" />
    <path
       style="color:#000000;fill:none;stroke:#c87137;stroke-width:4;stroke-linecap:round;stroke-linejoin:round;stroke-miterlimit:4;stroke-opacity:1;stroke-dasharray:none;stroke-dashoffset:0;marker:none;visibility:visible;display:inline;overflow:visible;enable-background:accumulate"
       d="m 72.269939,194.40882 c -18.825503,11.95903 47.298071,32.08827 53.771521,7.96927 1.35489,-5.04807 -12.21848,-11.67584 -19.4901,-13.66402 -21.826681,-5.96777 -28.561156,2.42057 -24.336414,7.62944 8.266902,10.19261 15.545037,11.68551 32.300804,13.6603 26.99203,3.18122 76.85975,-1.46137 42.60166,-24.0059 -22.15327,-14.5786 -55.39045,26.10698 -35.21796,33.52552 13.57054,4.99064 89.45434,-22.38265 68.67579,-28.77189 -42.99747,-13.22139 -48.74211,18.62208 -29.50046,28.98381 10.79348,5.81233 82.20098,-17.47498 63.04801,-27.40656 -19.59376,-10.16013 -55.77876,25.50255 -36.51072,31.19894 20.82608,6.157 98.18162,-16.47781 76.40298,-21.99913 -11.86478,-3.00796 -31.52025,-7.52767 -40.70817,-0.86661 -29.88072,21.66293 57.0871,34.34396 16.93787,5.42823"
       id="path3042"
       inkscape:connector-curvature="0"
       sodipodi:nodetypes="ssssssssssssss" />
    <path
       inkscape:connector-curvature="0"
       style="fill:none;stroke:#80ff00;stroke-width:4;stroke-linecap:round;stroke-linejoin:round;stroke-miterlimit:4;stroke-opacity:1;stroke-dasharray:none"
       d="m 222.44499,271.17907 c -0.22173,-4.2838 -4.0482,-8.07395 -4.49185,-12.29473 0.0304,-5.51355 -1.44246,-9.41482 -4.31084,-14.35731 -1.21425,-3.30795 -2.98488,-13.0711 -5.47667,-6.70108 -1.56659,4.21214 -3.23191,5.71546 -4.69269,10.80752 -2.47157,4.89753 -4.73301,7.18944 -5.94351,11.94208 -1.82148,2.96076 -6.33313,7.92728 -5.95272,9.38033"
       id="path2956-7"
       sodipodi:nodetypes="ccccccc" />
    <path
       inkscape:connector-curvature="0"
       style="fill:none;stroke:#80ff00;stroke-width:4;stroke-linecap:round;stroke-linejoin:round;stroke-miterlimit:4;stroke-opacity:1;stroke-dasharray:none"
       d="m 333.60128,174.3218 c -0.96327,1.60692 -1.9501,-1.93056 -3.00909,0.0152 -2.71726,1.09758 -5.54759,-0.11215 -8.26381,1.05781 -1.91507,0.35466 -3.81098,-0.36 -5.72646,0.0507 -2.01634,0.35624 -3.96635,-0.0276 -5.92599,-0.34129 -1.71788,-0.18573 -3.44274,0.0912 -5.15984,0.0657 -1.35285,0.85084 -2.58637,0.59283 -3.98435,1.34375 -1.68939,0.89813 -3.61712,0.0189 -5.24608,1.34683 0.026,0.86798 1.67869,1.75817 2.34535,2.63566 2.17666,2.10485 4.35249,4.21141 6.5311,6.31267 1.578,0.77562 2.8564,2.4587 4.64703,2.48899 1.37151,0.43079 2.49513,1.54306 3.75184,2.26725 1.31325,0.99119 2.88656,1.96268 4.3355,2.81834 1.41549,1.0753 2.94967,1.89253 4.19161,3.33571 0.97507,1.1281 2.21806,2.52039 3.07867,0.23348 0.94275,-1.4801 0.73817,-3.55941 1.693,-5.04479 0.64423,-1.95039 1.74282,-3.59297 1.81306,-5.90537 0.86378,-1.92201 1.37636,-4.22628 2.53953,-5.90431 0.45249,-1.85368 1.33297,-3.57634 2.0152,-5.25505 0.22161,-0.38638 0.76924,-1.05186 0.37368,-1.521 z"
       id="path2942" />
    <path
       inkscape:connector-curvature="0"
       style="color:#000000;fill:none;stroke:#80ff00;stroke-width:4;stroke-linecap:round;stroke-linejoin:round;stroke-miterlimit:4;stroke-opacity:1;stroke-dasharray:none;stroke-dashoffset:0;marker:none;visibility:visible;display:inline;overflow:visible;enable-background:accumulate"
       d="m 329.8442,189.49406 c 1.23055,2.49109 2.62146,4.49354 3.12699,7.37528 0.52429,2.99079 0.62091,6.03769 0.80799,9.13141 0.20607,3.40757 0.94263,7.79563 1.28062,11.57452 0.42217,4.72021 -0.0233,9.13854 0.52613,13.91489 0.66987,5.82388 2.6358,11.53878 4.07782,17.29359 0.7251,2.89383 1.71234,5.6698 2.1906,8.64504 0.36878,2.29507 2.31957,6.8857 5.2711,8.70524"
       id="path2833-7"
       sodipodi:nodetypes="csssssss" />
    <path
       inkscape:connector-curvature="0"
       style="fill:none;stroke:#80ff00;stroke-width:4;stroke-linecap:round;stroke-linejoin:round;stroke-miterlimit:4;stroke-opacity:1;stroke-dasharray:none"
       d="m 304.28157,200.65948 c 3.39345,-0.51047 6.97574,1.88363 10.35525,1.55711 4.31713,-0.9046 7.6106,-0.37322 11.94318,1.08581 2.78699,0.42358 10.72309,0.25185 6.12773,3.22267 -3.05159,1.90088 -3.96401,3.44645 -7.72227,5.40495 -3.44433,2.71977 -4.87971,4.8586 -8.41188,6.56667 -2.02996,1.9008 -5.20246,6.2308 -6.40226,6.1647"
       id="path2956-7-4"
       sodipodi:nodetypes="ccccccc" />
    <path
       style="color:#000000;fill:none;stroke:#0000ff;stroke-width:4;stroke-linecap:round;stroke-linejoin:round;stroke-miterlimit:4;stroke-opacity:1;stroke-dasharray:none;stroke-dashoffset:0;marker:none;visibility:visible;display:inline;overflow:visible;enable-background:accumulate"
       d="m 164.5,59.359051 c 12.83333,31.5 -15.33333,29 0,0 z"
       id="path4073"
       inkscape:connector-curvature="0"
       sodipodi:nodetypes="cc" />
    <path
       sodipodi:nodetypes="cc"
       inkscape:connector-curvature="0"
       id="path4092"
       d="m 160.5,109.07448 c 12.83333,31.5 -15.33333,29 0,0 z"
       style="color:#000000;fill:none;stroke:#0000ff;stroke-width:4;stroke-linecap:round;stroke-linejoin:round;stroke-miterlimit:4;stroke-opacity:1;stroke-dasharray:none;stroke-dashoffset:0;marker:none;visibility:visible;display:inline;overflow:visible;enable-background:accumulate" />
    <path
       style="color:#000000;fill:none;stroke:#0000ff;stroke-width:4;stroke-linecap:round;stroke-linejoin:round;stroke-miterlimit:4;stroke-opacity:1;stroke-dasharray:none;stroke-dashoffset:0;marker:none;visibility:visible;display:inline;overflow:visible;enable-background:accumulate"
       d="m 159.5,146.64095 c 12.83333,31.5 -15.33333,29 0,0 z"
       id="path4094"
       inkscape:connector-curvature="0"
       sodipodi:nodetypes="cc" />
    <path
       style="color:#000000;fill:none;stroke:#0000ff;stroke-width:4;stroke-linecap:round;stroke-linejoin:round;stroke-miterlimit:4;stroke-opacity:1;stroke-dasharray:none;stroke-dashoffset:0;marker:none;visibility:visible;display:inline;overflow:visible;enable-background:accumulate"
       d="m 308.25,262 c 7.34103,0.0272 17.94464,8.75679 19.70815,16.66388 C 330.2532,288.95425 329,287.69262 325.25,287.75"
       id="path4097"
       inkscape:connector-curvature="0"
       sodipodi:nodetypes="csc" />
    <path
       inkscape:connector-curvature="0"
       style="fill:none;stroke:#80ff00;stroke-width:4;stroke-linecap:round;stroke-linejoin:round;stroke-miterlimit:4;stroke-opacity:1;stroke-dasharray:none"
       d="m 212.42887,251.93145 c -1.75912,-6.01658 -1.76279,-11.12614 -2.76888,-17.11185 -3.21854,-11.99025 -7.02147,-21.13181 -8.95745,-33.33893 -2.95063,-7.17722 -3.62181,-17.34318 -5.69922,-24.06015 -1.79371,-6.1918 -3.6615,-17.06941 -6.71801,-22.45851"
       id="path2952-1" />
    <path
       style="color:#000000;fill:#ffffff;fill-opacity:0;fill-rule:nonzero;stroke:#80ff00;stroke-width:4;stroke-linecap:round;stroke-linejoin:round;stroke-miterlimit:4;stroke-opacity:1;stroke-dasharray:none;stroke-dashoffset:0;marker:none;visibility:visible;display:inline;overflow:visible;enable-background:accumulate"
       d="m 212.17746,252.07903 c -1.42781,11.23963 29.53532,22.67381 41.8562,18.98836 4.35444,-1.30251 19.15191,-5.30745 17.87454,-15.14929 -0.88127,-6.78995 -1.23592,-12.59417 -7.35478,-16.00492 -9.81224,-5.4695 -26.42539,1.13208 -33.46862,-8.89388 -7.79711,-11.0991 -13.82987,-28.92332 -1.36332,-35.76858 5.63295,-3.093 6.49507,-1.00923 12.50942,-1.87467 19.61805,-2.82295 23.89251,5.45662 30.88154,3.36604 5.28825,-1.58183 6.27945,-6.86141 12.19797,-6.81496"
       id="path3070"
       inkscape:connector-curvature="0"
       sodipodi:nodetypes="csssssssc" />
    <path
       style="color:#000000;fill:none;stroke:#80ff00;stroke-width:4;stroke-linecap:round;stroke-linejoin:round;stroke-miterlimit:4;stroke-opacity:1;stroke-dasharray:none;stroke-dashoffset:0;marker:none;visibility:visible;display:inline;overflow:visible;enable-background:accumulate"
       d="m 214.19219,204.99341 c -11.20665,-11.15433 -6.53884,-17.36003 -16.19627,-29.57281 -0.8538,-1.07972 -3.12724,-8.78869 -4.86021,-9.66151 -1.19396,-0.60134 -6.32193,4.02793 -5.87401,8.53832 0.35542,3.5791 -1.96238,6.73277 -3.08106,12.65012 -1.25823,6.65553 -2.93247,13.78079 -4.46411,18.49092"
       id="path3075"
       inkscape:connector-curvature="0"
       sodipodi:nodetypes="ssssss" />
    <path
       style="color:#000000;fill:none;stroke:#80ff00;stroke-width:4;stroke-linecap:round;stroke-linejoin:round;stroke-miterlimit:4;stroke-opacity:1;stroke-dasharray:none;stroke-dashoffset:0;marker:none;visibility:visible;display:inline;overflow:visible;enable-background:accumulate"
       d="m 306.91716,254.24816 c 7.61071,-0.7711 15.8556,-4.69899 23.00076,-1.21036 3.16336,1.54451 7.3512,-1.6566 8.64107,0.9525 1.34776,2.72625 -3.7317,5.30478 -6.76962,7.01395 -4.34169,2.44267 -6.61222,8.14482 -9.48189,11.65479 -2.98867,3.65549 -3.74901,3.16858 -7.93274,5.11856"
       id="path3094"
       inkscape:connector-curvature="0"
       sodipodi:nodetypes="ssssss" />
    <path
       inkscape:connector-curvature="0"
       style="color:#000000;fill:#000000;fill-opacity:0;stroke:#80ff00;stroke-width:4;stroke-linecap:round;stroke-linejoin:round;stroke-miterlimit:4;stroke-opacity:1;stroke-dasharray:none;stroke-dashoffset:0;marker:none;visibility:visible;display:inline;overflow:visible;enable-background:accumulate"
       d="m 347.66363,265.77493 c 10.32223,8.36798 17.70533,6.80924 30.42121,15.57793 6.46597,4.45884 20.46484,-0.54313 29.96428,2.50955 12.44587,3.99966 27.60715,7.41792 37.89418,1.5814 7.9032,-4.484 7.88945,-3.6953 15.20631,-5.31647 0.59659,-0.13216 7.10369,-5.05926 9.93518,-9.79857"
       id="path4125"
       sodipodi:nodetypes="csssss" />
    <path
       style="color:#000000;fill:none;stroke:#0000ff;stroke-width:4;stroke-linecap:round;stroke-linejoin:round;stroke-miterlimit:4;stroke-opacity:1;stroke-dasharray:none;stroke-dashoffset:0;marker:none;visibility:visible;display:inline;overflow:visible;enable-background:accumulate"
       d="m 80.5,185 c -16.039194,2.52613 -33.442083,15.55792 -28,21 1.669338,1.66934 68.78813,20.91602 77.5,22.5 12.35767,2.24685 25.97902,-1.2521 38.5,0 29.29167,2.92917 66.42145,7.29004 92,-6 9.54834,-4.9611 27.72454,-12.52441 18.5,-22"
       id="path3917"
       inkscape:connector-curvature="0"
       sodipodi:nodetypes="cssssc" />
  </g>
</svg>
