<?xml version="1.0" encoding="UTF-8" standalone="no"?>
<!-- Created with Inkscape (http://www.inkscape.org/) -->

<svg
   xmlns:dc="http://purl.org/dc/elements/1.1/"
   xmlns:cc="http://creativecommons.org/ns#"
   xmlns:rdf="http://www.w3.org/1999/02/22-rdf-syntax-ns#"
   xmlns:svg="http://www.w3.org/2000/svg"
   xmlns="http://www.w3.org/2000/svg"
   xmlns:sodipodi="http://sodipodi.sourceforge.net/DTD/sodipodi-0.dtd"
   xmlns:inkscape="http://www.inkscape.org/namespaces/inkscape"
   width="480"
   height="320"
   id="svg2"
   version="1.1"
   inkscape:version="0.47 r22583"
   sodipodi:docname="itnas209.svg"
   inkscape:export-xdpi="90"
   inkscape:export-ydpi="90"
   inkscape:export-filename="itnas209.png">
  <defs
     id="defs4" />
  <sodipodi:namedview
     id="base"
     pagecolor="#ffffff"
     bordercolor="#666666"
     borderopacity="1.0"
     inkscape:pageopacity="1"
     inkscape:pageshadow="2"
     inkscape:zoom="1"
     inkscape:cx="315.79599"
     inkscape:cy="144.22443"
     inkscape:document-units="px"
     inkscape:current-layer="layer1"
     showgrid="false"
     inkscape:snap-nodes="true"
     inkscape:snap-global="false"
     inkscape:snap-grids="true"
     showguides="true"
     inkscape:window-width="1280"
     inkscape:window-height="774"
     inkscape:window-x="1276"
     inkscape:window-y="1020"
     inkscape:window-maximized="1"
     inkscape:object-nodes="true">
    <inkscape:grid
       empspacing="5"
       visible="true"
       enabled="true"
       snapvisiblegridlinesonly="true"
       type="xygrid"
       id="grid2816" />
  </sodipodi:namedview>
  <metadata
     id="metadata7">
    <rdf:RDF>
      <cc:Work
         rdf:about="">
        <dc:format>image/svg+xml</dc:format>
        <dc:type
           rdf:resource="http://purl.org/dc/dcmitype/StillImage" />
        <dc:title></dc:title>
      </cc:Work>
    </rdf:RDF>
  </metadata>
  <g
     inkscape:label="Layer 1"
     inkscape:groupmode="layer"
     id="layer1"
     transform="translate(0,0)">
    <path
       style="color:#000000;fill:none;stroke:#c87137;stroke-width:3.99999928;stroke-linecap:round;stroke-linejoin:round;stroke-miterlimit:4;stroke-opacity:1;stroke-dasharray:none;stroke-dashoffset:0;marker:none;visibility:visible;display:inline;overflow:visible;enable-background:accumulate"
       d="m -290.58106,105.79285 c 1.77546,-9.516023 0.9872,-13.482383 0.119,-22.973843 -1.17612,-12.85576 0.5094,-20.57156 1.87552,-33.3405 2.71494,-25.37616 -0.2035,-38.18116 -0.47392,-57.51794 -0.1356,-9.70074 1.14302,-21.78864 0.9519,-31.63408 -0.26966,-13.8899 -3.04474,-19.9188 -2.45868,-33.8271 0.1946,-14.52908 1.46042,-15.88358 1.40924,-30.201337"
       id="path2832"
       sodipodi:nodetypes="csssscc" />
    <path
       style="color:#000000;fill:none;stroke:#c87137;stroke-width:3.99999976;stroke-linecap:round;stroke-linejoin:round;stroke-miterlimit:4;stroke-opacity:1;stroke-dasharray:none;stroke-dashoffset:0;marker:none;visibility:visible;display:inline;overflow:visible;enable-background:accumulate"
       d="m -363.17013,-97.889733 c 0.72897,7.38286 1.29942,14.7757 2.10573,22.22044 1.05076,9.7021 -2.78774,19.25654 -2.78774,29.0609 0,22.31714 4.73043,48.18234 0.68201,69.54284 -2.14882,11.33766 -1.5473,22.3867 0,32.5861 -0.40882,18.62116 3.09257,29.395 0.187,48.460703"
       id="path2850"
       sodipodi:nodetypes="cssscc" />
    <path
       style="color:#000000;fill:none;stroke:#c87137;stroke-width:3.99999976;stroke-linecap:round;stroke-linejoin:round;stroke-miterlimit:4;stroke-opacity:1;stroke-dasharray:none;stroke-dashoffset:0;marker:none;visibility:visible;display:inline;overflow:visible;enable-background:accumulate"
       d="m 290.29956,148.01474 c -12.15478,-2.30956 -26.43518,-10.87036 -34,-2 -14.92864,9.07882 -15.81982,17.24514 -16,24"
       id="path4395"
       sodipodi:nodetypes="ccc" />
    <path
       style="color:#000000;fill:none;stroke:#c87137;stroke-width:3.99999976;stroke-linecap:round;stroke-linejoin:round;stroke-miterlimit:4;stroke-opacity:1;stroke-dasharray:none;stroke-dashoffset:0;marker:none;visibility:visible;display:inline;overflow:visible;enable-background:accumulate"
       d="m 301.83428,176.9584 -25.17996,13.56352 c -8.06034,12.6937 -0.72644,16.25666 -12.35724,26.23544"
       id="path4397"
       sodipodi:nodetypes="ccc" />
    <path
       sodipodi:nodetypes="cssssc"
       id="path4261"
       d="m 572.83736,60.02226 c -6.44834,7.82614 -10.23766,9.85882 -18.5716,15.54192 -11.28812,7.69746 -16.33932,14.2408 -25.72444,23.92476 -18.65136,19.24518 -31.1541,25.50704 -47.05262,38.29042 -7.97586,6.41318 -16.871,15.56882 -25.00436,22.03458 -11.47448,9.1218 -23.97944,17.88592 -34.85216,27.7084"
       style="color:#000000;fill:none;stroke:#c87137;stroke-width:3.99999905;stroke-linecap:round;stroke-linejoin:round;stroke-miterlimit:4;stroke-opacity:1;stroke-dasharray:none;stroke-dashoffset:0;marker:none;visibility:visible;display:inline;overflow:visible;enable-background:accumulate" />
    <path
       sodipodi:nodetypes="cssscc"
       id="path4263"
       d="m 371.47992,138.26118 c 5.95556,-4.17294 11.81492,-8.47268 17.86696,-12.6264 7.88702,-5.41328 12.46992,-14.4466 19.74628,-20.72366 C 425.65608,90.62302 447.94292,77.65718 461.15062,60.9058 468.1609,52.01454 476.7541,45.39758 485.33464,40.0432 498.8874,27.81076 509.17106,23.57312 521.4224,9.15928"
       style="color:#000000;fill:none;stroke:#c87137;stroke-width:3.99999928;stroke-linecap:round;stroke-linejoin:round;stroke-miterlimit:4;stroke-opacity:1;stroke-dasharray:none;stroke-dashoffset:0;marker:none;visibility:visible;display:inline;overflow:visible;enable-background:accumulate" />
    <path
       style="color:#000000;fill:none;stroke:#c87137;stroke-width:3.99999976;stroke-linecap:round;stroke-linejoin:round;stroke-miterlimit:4;stroke-opacity:1;stroke-dasharray:none;stroke-dashoffset:0;marker:none;visibility:visible;display:inline;overflow:visible;enable-background:accumulate"
       d="m 195.8999,118.92659 c 2.37724,-21.723863 0.95388,-47.938403 3.84448,-75.343763 1.1572,-31.54076 -5.3703,-56.55424 -4.48522,-89.2229 0.96108,-22.85858 -1.08386,-38.13102 5.12598,-54.1946"
       id="path4281"
       sodipodi:nodetypes="cccc" />
    <path
       style="color:#000000;fill:none;stroke:#c87137;stroke-width:3.99999928;stroke-linecap:round;stroke-linejoin:round;stroke-miterlimit:4;stroke-opacity:1;stroke-dasharray:none;stroke-dashoffset:0;marker:none;visibility:visible;display:inline;overflow:visible;enable-background:accumulate"
       d="m 131.18436,-94.692473 c -4.59826,30.00404 1.17414,34.1652 1.28148,58.63892 -1.31992,18.99042 -3.47158,36.96321997 0,52.53068 -2.1358,37.2772 -1.70866,36.19132 -3.84446,50.08742 -1.66538,16.99986 1.04754,29.06256 2.56298,38.481783"
       id="path4277"
       sodipodi:nodetypes="ccccc" />
    <path
       sodipodi:nodetypes="cccc"
       id="path4306"
       d="m -95.72322,-97.265733 c -2.37724,19.8414 -0.95386,43.78438 -3.84448,68.81496 -1.1572,28.80759997 5.3703,51.65356 4.48522,81.49136 -0.96108,20.87778 1.08386,34.82684 -5.12596,49.498483"
       style="color:#000000;fill:none;stroke:#c87137;stroke-width:3.99999928;stroke-linecap:round;stroke-linejoin:round;stroke-miterlimit:4;stroke-opacity:1;stroke-dasharray:none;stroke-dashoffset:0;marker:none;visibility:visible;display:inline;overflow:visible;enable-background:accumulate" />
    <path
       sodipodi:nodetypes="ccccc"
       id="path4308"
       d="m -30.95232,99.908347 c 4.31608,-30.12898 -1.10208,-34.30746 -1.20286,-58.88308 1.23894,-19.0695 3.25856,-37.11712 0,-52.74944 2.00478,-37.43236 1.60382,-36.34198 3.60858,-50.29592 1.56318,-17.0707 -0.98326,-29.18358 -2.40572,-38.642017"
       style="color:#000000;fill:none;stroke:#c87137;stroke-width:3.99999928;stroke-linecap:round;stroke-linejoin:round;stroke-miterlimit:4;stroke-opacity:1;stroke-dasharray:none;stroke-dashoffset:0;marker:none;visibility:visible;display:inline;overflow:visible;enable-background:accumulate" />
    <path
       style="color:#000000;fill:none;stroke:#94f3f3;stroke-width:4;stroke-linecap:round;stroke-linejoin:round;stroke-miterlimit:4;stroke-opacity:1;stroke-dasharray:none;stroke-dashoffset:0;marker:none;visibility:visible;display:inline;overflow:visible;enable-background:accumulate"
       d="m -314.46166,-596.13731 c -18.27173,19.8708 -36.54345,84.73741 -54.81518,135.88452 -21.08111,37.03718 -24.2956,92.07562 -53.29254,146.57208 -7.35086,35.33344 -20.74226,89.225 -46.83798,138.78208 -9.26278,23.16672 -17.5986,26.92776 -32.3395,68.86166 49.70446,9.293197 87.23158,-0.7315 127.90209,7.633977 l 89.83599,-7.633957 120.28884,6.107157 c -11.16606,-16.799557 -22.33212,-40.984657 -33.49816,-96.187917 -35.71884,-93.90668 -20.28902,-74.45632 -25.88494,-103.82188 -11.77242,-32.74484 -14.13652,-71.03674 -25.66958,-108.40225 -12.18116,-21.48166 -35.23616,-83.34861 -47.41732,-131.30417 -2.54492,-14.82598 -5.09726,-37.33804 -18.27172,-56.4913 z"
       id="path4156"
       sodipodi:nodetypes="ccccccccccccc" />
    <path
       sodipodi:nodetypes="cccccscccccccc"
       id="path4265"
       d="m 102.70886,-103.06381 c -0.40596,-35.1692 -32.67052,-105.8277 -48.09506,-154.0583 -7.24432,-46.46958 -32.0662,-74.18174 -43.73646,-139.5839 -13.2914,-25.56609 -32.47402,-67.76574 -43.22304,-126.83845 -6.4931,-23.29691 -4.13118,-37.12637 -16.89714,-76.31699 -12.9404,30.55402 -23.45252,60.52716 -35.9001,86.49264 -28.26132,58.95253 -18.11428,66.95822 -31.71672,98.41553 -23.0669,41.10381 -25.87782,67.84329 -31.00018,92.91477 -15.37796,33.39684 -27.36126,70.8018 -37.61324,110.62112 -4.12516,18.90286 -22.9442,54.78038 -35.71582,106.11668 13.65006,9.862057 30.84662,-1.59704 62.93778,5.03556 42.8175,3.413997 84.92174,0.517937 127.68556,-1.31908 20.25042,-1.2359 57.64142,0.97132 86.75986,3.084217 8.3918,2.44886 28.16706,0.3898 46.51456,-4.563797 z"
       style="color:#000000;fill:none;stroke:#94f3f3;stroke-width:3.99999928;stroke-linecap:round;stroke-linejoin:round;stroke-miterlimit:4;stroke-opacity:1;stroke-dasharray:none;stroke-dashoffset:0;marker:none;visibility:visible;display:inline;overflow:visible;enable-background:accumulate" />
    <path
       style="color:#000000;fill:none;stroke:#94f3f3;stroke-width:4;stroke-linecap:round;stroke-linejoin:round;stroke-miterlimit:4;stroke-opacity:1;stroke-dasharray:none;stroke-dashoffset:0;marker:none;visibility:visible;display:inline;overflow:visible;enable-background:accumulate"
       d="m 192.42238,-597.65209 c -0.43712,0.49108 -0.92446,0.98404 -1.36158,1.52534 -12.46486,29.69306 -23.82588,47.97284 -30.99618,75.06261 -7.62686,28.8146 -21.33744,43.4552 -29.79478,70.40632 -8.78112,23.20028 -12.89658,47.63267 -18.5817,63.98385 -19.63118,45.11214 -25.00228,65.76924 -37.16338,113.6777 -3.83016,25.22136 -11.8272,44.31138 -18.66178,62.85992 -4.07696,18.68208 -22.48186,53.98564 -35.24112,104.36514 42.4047,5.08712 76.33666,-2.11546 112.77162,5.3788 36.0764,-0.68814 75.39614,1.874697 105.24284,-5.05768 34.97416,-0.7231 69.94832,0.83928 104.92246,3.53236 -11.16604,-16.79958 -15.90554,-39.68872 -27.07158,-94.89198 -32.30304,-84.92638 -29.21558,-78.56806 -31.23646,-98.02294 -10.49722,-27.961 -24.97678,-55.18778 -33.07862,-100.59194 -13.29142,-25.56608 -26.01388,-60.06409 -36.76292,-119.13681 -6.43748,-23.09745 -10.58516,-44.66349 -22.98682,-83.09069 z"
       id="path4267"
       sodipodi:nodetypes="ccsccccccccccccc" />
    <path
       style="color:#000000;fill:none;stroke:#94f3f3;stroke-width:4;stroke-linecap:round;stroke-linejoin:round;stroke-miterlimit:4;stroke-opacity:1;stroke-dasharray:none;stroke-dashoffset:0;marker:none;visibility:visible;display:inline;overflow:visible;enable-background:accumulate"
       d="m 931.63982,-287.3996 c -0.85468,0.2732 -1.70914,0.55592 -2.56084,0.8313 -20.73964,0.61922 -58.05668,15.62958 -95.9071,31.0096 -37.45828,12.80602 -74.30678,26.67914 -110.23182,43.473 -25.4479,9.05182 -48.87356,21.1909 -75.25372,27.50216 -42.7914,23.6918 -87.29578,34.10006 -135.50046,54.88374 -23.55772,8.06404 -31.8204,4.2422 -73.1386,20.37782 11.0591,24.32698 27.38478,43.65524 43.80254,64.81658 25.39666,34.75558 55.1191,64.81376 84.44858,96.10576 14.16524,14.57944 36.88072,44.442 54.30972,67.94178 3.63268,7.9719 18.13158,21.66084 33.8627,32.37112 26.30978,-23.23366 40.59006,-71.52208 66.95654,-114.6801 20.77234,-33.74494 30.3546,-44.82342 45.19244,-61.35074 17.0512,-30.2889 44.44964,-57.0006 65.14874,-90.11962 16.25308,-54.3299 40.45894,-82.35066 68.20328,-121.58544 9.54022,-11.5979 24.91018,-28.22092 30.77504,-50.71526 -0.1976,-0.006 -0.4245,0.014 -0.6256,0.01 0.1806,-0.29762 0.33658,-0.5697 0.51862,-0.87138 z"
       id="path4271"
       sodipodi:nodetypes="ccccccccccccccccsc" />
    <path
       style="color:#000000;fill:none;stroke:#c87137;stroke-width:3.99999976;stroke-linecap:round;stroke-linejoin:round;stroke-miterlimit:4;stroke-opacity:1;stroke-dasharray:none;stroke-dashoffset:0;marker:none;visibility:visible;display:inline;overflow:visible;enable-background:accumulate"
       d="m 355.45894,228.10052 c -1.00434,7 -1.81016,14 -8,21 -10.66666,7.6033 -21.33334,11.89818 -32,17"
       id="path4399"
       sodipodi:nodetypes="ccc" />
    <path
       sodipodi:nodetypes="ccc"
       id="path4461"
       d="m 408.6523,233.71744 c -4.7267,6.98802 -1.67442,17.85256 -4.97648,28.3999 -3.34456,9.76534 -10.46192,18.5777 -23.48966,26.36626"
       style="color:#000000;fill:none;stroke:#c87137;stroke-width:3.99999976;stroke-linecap:round;stroke-linejoin:round;stroke-miterlimit:4;stroke-opacity:1;stroke-dasharray:none;stroke-dashoffset:0;marker:none;visibility:visible;display:inline;overflow:visible;enable-background:accumulate" />
    <path
       id="path2949"
       style="color:#000000;fill:none;stroke:#008000;stroke-width:4;stroke-linecap:round;stroke-linejoin:round;stroke-miterlimit:4;stroke-opacity:1;stroke-dasharray:none;stroke-dashoffset:0;marker:none;visibility:visible;display:inline;overflow:visible;enable-background:accumulate"
       d="m 179.52082,224.15332 c 13.53508,2.03623 25.12511,0.37579 36.0222,8.17046 22.20035,23.32019 24.79558,24.75436 46.78954,41.1346 27.61272,23.36358 26.7551,25.34754 61.50084,21.81288 14.47422,-1.3779 55.4253,19.35452 100.04942,13.98002 39.5,-2.25 53.12866,-32.30218 41.6005,-55.62132 -19.33334,-26 -69.64258,-15.736 -111.18376,-27.61522 -19.93724,-12.4897 -44.18366,-32.08644 -50,-50 -6.62876,-10.32658 -10.59108,-24.3196 -19.7575,-42.10852 -4.58224,-24.0502 -13.7329,-43.20994 9.29924,-43.91252 15.41114,9.68148 55.9724,-4.07256 67.2693,21.30038 10.16548,43.14322 24.12238,61.22134 59.58934,78.38704 54.24562,4.18312 80.72284,15.41008 105.50644,11.40476 21.59102,3.88624 46.00416,11.97744 70.8479,10.90324"
       sodipodi:nodetypes="cccccccccccccc" />
    <path
       style="fill:none;stroke:#80ff00;stroke-width:3.99999976;stroke-linecap:round;stroke-linejoin:round;stroke-miterlimit:4;stroke-opacity:1;stroke-dasharray:none"
       d="m 202.11211,87.690671 c -1.97306,3.185487 5.21962,1.695764 2.73197,5.362434 0.54058,5.836121 5.28593,9.757685 5.69688,15.658375 1.12557,3.72909 4.13417,6.44368 5.16057,10.22487 1.21559,3.91056 3.68588,7.0246 6.04015,10.22014 1.90527,2.88314 2.9946,6.20289 4.61425,9.23158 -0.27189,3.18472 1.31769,5.14069 1.26479,8.31403 -0.0474,3.82627 3.28291,6.4466 2.41625,10.55951 -1.56661,0.74971 -4.66422,-1.37174 -6.83517,-1.75208 -5.73706,-1.9389 -11.47634,-3.87492 -17.20879,-5.82057 -2.82548,-2.09365 -6.98923,-2.82267 -8.68491,-5.97762 -2.02322,-2.04283 -5.03042,-3.0202 -7.46992,-4.58985 -2.96594,-1.42541 -6.13526,-3.33107 -8.9847,-5.12194 -3.20912,-1.53003 -6.06841,-3.50761 -9.7723,-4.39181 -2.89918,-0.69879 -6.51359,-1.63155 -3.23784,-5.25809 1.76644,-3.03278 5.64981,-4.57566 7.41449,-7.63479 2.876,-2.9334 4.78832,-6.39213 8.83405,-8.63724 2.62425,-3.2976 6.24998,-6.32148 8.16607,-9.927514 2.87994,-2.503929 5.13449,-5.648491 7.49296,-8.400143 0.48291,-0.748562 1.16429,-2.331729 2.36087,-2.05877 z"
       id="path2942" />
    <path
       style="color:#000000;fill:none;stroke:#80ff00;stroke-width:3.99999976;stroke-linecap:round;stroke-linejoin:round;stroke-miterlimit:4;stroke-opacity:1;stroke-dasharray:none;stroke-dashoffset:0;marker:none;visibility:visible;display:inline;overflow:visible;enable-background:accumulate"
       d="M -9.6943824,54.96692 C -44.089604,45.307855 -57.213032,47.495058 -90.903179,29.067035 -108.40143,19.495576 -116.71337,13.909263 -138.13496,0.79314831 -162.91415,-14.378822 -167.66042,-21.952856 -195.94437,-21.833615 c -22.77364,0.0961 -34.5574,8.280505 -52.44082,12.4367606 -15.844,3.6822513 -34.0356,1.3497463 -58.99687,1.41351 -18.06382,0.046208 -39.41337,26.1009344 -36.74626,38.6033394"
       id="path4125-8"
       sodipodi:nodetypes="cssssss" />
    <path
       style="fill:none;stroke:#80ff00;stroke-width:3.99999952;stroke-linecap:round;stroke-linejoin:round;stroke-miterlimit:4;stroke-opacity:1;stroke-dasharray:none"
       d="m 163.967,247.77303 c -2.18691,-6.61378 -9.77346,-11.35373 -12.27874,-17.8014 -2.32297,-8.60928 -6.29335,-14.24342 -12.88376,-21.07415 -3.31248,-4.78763 -10.26646,-19.47384 -11.40706,-8.77465 -0.62804,7.04976 -2.57422,9.90504 -2.6592,18.29502 -1.74221,8.39619 -2.72248,13.13192 -2.56371,20.91603 -1.56278,5.17613 -6.45138,14.30473 -5.23444,16.45467"
       id="path2956-7"
       sodipodi:nodetypes="ccccccc" />
    <path
       style="fill:none;stroke:#80ff00;stroke-width:3.99999952;stroke-linecap:round;stroke-linejoin:round;stroke-miterlimit:4;stroke-opacity:1;stroke-dasharray:none"
       d="m 75.967546,262.96119 c -0.577016,-1.10601 -5.779726,-6.72178 -7.316171,-9.66617 -5.893094,-8.74585 -15.644197,-13.52674 -19.693244,-23.47421 -7.89765,-8.74739 -9.03202,-13.21162 -16.412825,-19.9613 -1.079527,7.94579 -5.268286,15.70827 -6.442251,23.62513 -0.875072,12.15923 -3.930866,11.62259 -7.830614,25.45298 -1.754695,2.5643 -0.694949,5.92885 -4.097427,12.42121"
       id="path2958-6"
       sodipodi:nodetypes="ccccccc" />
    <path
       style="color:#000000;fill:none;stroke:#80ff00;stroke-width:4;stroke-linecap:round;stroke-linejoin:round;stroke-miterlimit:4;stroke-opacity:1;stroke-dasharray:none;stroke-dashoffset:0;marker:none;visibility:visible;display:inline;overflow:visible;enable-background:accumulate"
       d="m 164.68989,192.91527 c -5.66111,-0.87084 -10.52513,-2.32613 -16.35788,-1.60754 -6.05324,0.74648 -11.87874,2.32953 -17.86313,3.76965 -6.59152,1.5861 -15.44724,2.74278 -22.84244,4.29599 -9.23733,1.94009 -17.228121,5.33671 -26.67064,7.07005 -11.513376,2.11367 -23.832124,1.72742 -35.817434,2.34932 -6.026874,0.31275 -12.0358,0.0644 -18.023776,0.8884 -4.618904,0.63594 -13.977306,1.64942 -16.983078,3.7354"
       id="path2833"
       sodipodi:nodetypes="csssssss" />
    <path
       style="color:#000000;fill:none;stroke:#80ff00;stroke-width:4;stroke-linecap:round;stroke-linejoin:round;stroke-miterlimit:4;stroke-opacity:1;stroke-dasharray:none;stroke-dashoffset:0;marker:none;visibility:visible;display:inline;overflow:visible;enable-background:accumulate"
       d="m -223.41836,328.8978 c 11.77268,-12.53039 36.2388,-8.51264 77.10944,-28.61519 14.62098,-7.19146 36.05666,2.29157 52.890176,-8.42593 22.054739,-14.04197 38.035976,-20.51251 54.73334,-37.26812 12.828032,-12.87281 11.468811,-20.08029 24.663295,-27.19111 5.2539266,-2.83146 13.51485162,-11.02649 24.15342,-13.98183"
       id="path4125"
       sodipodi:nodetypes="csssss" />
    <path
       style="color:#000000;fill:none;stroke:#80ff00;stroke-width:3.99999976;stroke-linecap:round;stroke-linejoin:round;stroke-miterlimit:4;stroke-opacity:1;stroke-dasharray:none;stroke-dashoffset:0;marker:none;visibility:visible;display:inline;overflow:visible;enable-background:accumulate"
       d="m 174.3073,165.67568 c 2.19872,-1.39089 8.05745,6.93898 11.7845,9.68158 3.02889,2.22897 6.43725,4.00154 9.17252,6.51648 3.0338,2.78957 5.67473,6.00937 8.82776,8.66256 4.73297,3.98289 9.89144,7.51555 14.91768,11.17045 2.45734,1.7868 5.45456,2.41 7.21625,4.84174 2.18711,3.02117 8.35771,5.65181 7.538,8.10654 -0.76203,2.28193 -6.80195,0.73172 -9.83028,2.24657 -9.73323,4.86846 -14.28872,2.17927 -21.36196,1.84838 -4.99301,-0.23371 -9.27759,-2.19739 -14.20337,-1.96436 -5.40177,0.2557 -10.48234,2.22019 -15.88207,2.54753 -3.39771,0.20607 -6.64903,-0.71582 -9.98877,-0.73337 -4.99146,-0.0263 -0.87083,-4.40519 -0.0293,-6.37017 1.5575,-3.63684 2.40059,-7.51246 3.75093,-11.22 1.167,-3.20434 0.81951,-6.81524 2.29641,-10.01923 1.5967,-3.46381 3.29331,-7.02241 4.01633,-10.75703 0.69222,-3.57552 1.1611,-7.25658 1.39654,-10.94604 0.11562,-1.81276 -0.73109,-2.90943 0.37885,-3.6116 z"
       id="path2870"
       sodipodi:nodetypes="csssssssssssssssss" />
    <path
       style="fill:none;stroke:#80ff00;stroke-width:3.99999976;stroke-linecap:round;stroke-linejoin:round;stroke-miterlimit:4;stroke-opacity:1;stroke-dasharray:none"
       d="m -52.18016,111.11324 c 0.983013,-1.1858 6.264891,-7.55665 8.882226,-10.71344 8.356969,-9.84823 17.316493,-10.023869 30.27673,-20.478641 6.2941336,-6.867741 22.8057136,-17.667576 26.837184,-20.786969 -0.667926,10.134405 -0.900865,20.063622 -0.410071,29.964534 2.099417,14.323326 7.526707,30.428766 6.699497,47.775236"
       id="path2958-1"
       sodipodi:nodetypes="cccccc" />
    <path
       style="color:#000000;fill:none;stroke:#80ff00;stroke-width:4;stroke-linecap:round;stroke-linejoin:round;stroke-miterlimit:4;stroke-opacity:1;stroke-dasharray:none;stroke-dashoffset:0;marker:none;visibility:visible;display:inline;overflow:visible;enable-background:accumulate"
       d="m 180.91021,108.16893 c -5.84089,-3.75937 -10.42279,-7.7792 -17.43854,-9.847691 -7.28141,-2.14591 -14.82278,-3.245266 -22.45494,-4.582493 -8.40638,-1.47298 -19.09876,-4.540245 -28.39035,-6.445614 C 101.02026,84.913163 89.919299,84.773584 78.209645,82.061625 63.931816,78.755102 50.290201,72.259811 36.401784,67.054721 29.417905,64.437359 22.800722,61.202094 15.544986,59.174899 9.9479386,57.611569 -2.5702434,55.056035 -7.2447214,55.905311"
       id="path2833-4"
       sodipodi:nodetypes="csssssss" />
    <path
       style="fill:none;stroke:#80ff00;stroke-width:3.99999952;stroke-linecap:round;stroke-linejoin:round;stroke-miterlimit:4;stroke-opacity:1;stroke-dasharray:none"
       d="m 85.362428,150.64683 c 0.911091,-1.24192 8.293237,-6.9936 10.71917,-10.29999 7.759302,-10.32568 16.170692,-12.16713 24.805192,-26.14878 11.24854,-9.00929 17.03899,-12.70832 27.27895,-19.34627 -0.20977,10.19651 -0.89886,20.41689 -0.9886,30.60027 -1.263,15.4138 2.54495,15.48819 4.63012,33.72898 1.63755,3.63363 2.00426,9.49287 6.87876,17.03261"
       id="path2958-6-2"
       sodipodi:nodetypes="ccccccc" />
    <path
       style="color:#000000;fill:none;stroke:#ff0000;stroke-width:4;stroke-linecap:round;stroke-linejoin:round;stroke-miterlimit:4;stroke-opacity:1;stroke-dasharray:none;stroke-dashoffset:0;marker:none;visibility:visible;display:inline;overflow:visible;enable-background:accumulate"
       d="m 254.20489,223.47993 c 1.82917,2.19875 4.18087,2.57607 6.53866,7.62843 1.30241,3.18306 4.08176,5.51826 6.66344,7.77402 3.44537,4.14708 5.47129,6.40768 8.0111,9.34628 1.66244,-2.91583 3.98748,-5.56662 4.9064,-8.77987 1.49941,-4.17236 2.79833,-5.42039 4.14032,-7.409 1.73166,-4.76866 2.95333,-5.4575 4.38831,-7.85276 -4.60336,0.0318 -9.06277,0.15712 -14.13625,-0.28849 -1.62138,0.49396 -4.31568,0.63029 -9.91701,-0.20239 -1.74372,-0.21413 -6.92382,-0.25127 -10.59497,-0.21622 z"
       id="path5756"
       sodipodi:nodetypes="cccccccccc" />
    <path
       style="color:#000000;fill:none;stroke:#ff0000;stroke-width:4;stroke-linecap:round;stroke-linejoin:round;stroke-miterlimit:4;stroke-opacity:1;stroke-dasharray:none;stroke-dashoffset:0;marker:none;visibility:visible;display:inline;overflow:visible;enable-background:accumulate"
       d="m 283.82797,238.2032 c 2.89319,3.09133 5.31719,4.1957 8.11315,5.4398 7.33241,1.42902 22.45452,5.50877 30.37813,5.45977 19.45463,1.28233 24.96292,5.9397 40.24213,9.31441 12.91824,0.47035 19.42324,0.51695 26.76019,-1.83421 11.9196,-2.89925 14.16011,-5.09068 20.94683,-13.53164"
       id="path5758"
       sodipodi:nodetypes="cccccc" />
    <path
       style="color:#000000;fill:none;stroke:#ff0000;stroke-width:4;stroke-linecap:round;stroke-linejoin:round;stroke-miterlimit:4;stroke-opacity:1;stroke-dasharray:none;stroke-dashoffset:0;marker:none;visibility:visible;display:inline;overflow:visible;enable-background:accumulate"
       d="m 266.20058,272.20963 c 4.1302,-2.42269 8.77757,-5.95457 13.08815,-9.51951 5.02898,-4.15907 7.9927,-11.72582 12.5748,-18.33583 -0.77727,9.03893 -1.58585,14.18877 -4.21145,27.11678 -0.0403,10.13142 -1.53114,10.83483 -2.40987,15.51674"
       id="path5760"
       sodipodi:nodetypes="csccc" />
    <path
       style="fill:none;stroke:#ff0000;stroke-width:4;stroke-linecap:round;stroke-linejoin:round;stroke-opacity:1;stroke-miterlimit:4;stroke-dasharray:none;color:#000000;stroke-dashoffset:0;marker:none;visibility:visible;display:inline;overflow:visible;enable-background:accumulate"
       d="m 328.01176,291.76598 c 3.70173,-4.21262 8.29188,-11.08276 8.44292,-13.75194 5.46387,-9.17928 10.92773,-15.18168 16.3916,-21.65365 0.3013,9.0849 0.11622,19.50637 -1.39887,26.32078 0.20334,9.4815 -0.15044,11.16338 -0.39402,14.38811"
       id="path5762"
       sodipodi:nodetypes="ccccc" />
    <path
       sodipodi:nodetypes="cccccccccc"
       id="path5785"
       d="m 365.87219,274.57412 c 1.23656,1.42297 2.78112,1.6256 4.41603,4.93296 0.91031,2.08742 2.77066,3.58163 4.50029,5.02712 2.32925,2.68396 3.6956,4.14398 5.41047,6.04381 1.03309,-1.97038 2.50428,-3.77824 3.04575,-5.93101 0.90327,-2.80155 1.7295,-3.65687 2.57019,-5.00493 1.04412,-3.2023 1.83016,-3.68471 2.72414,-5.30473 -3.0092,0.11498 -5.92253,0.28916 -9.24793,0.0966 -1.05097,0.36111 -2.81005,0.50657 -6.48772,0.0678 -1.14404,-0.10661 -4.53159,-0.0257 -6.93122,0.0724 z"
       style="color:#000000;fill:none;stroke:#ff0000;stroke-width:4;stroke-linecap:round;stroke-linejoin:round;stroke-miterlimit:4;stroke-opacity:1;stroke-dasharray:none;stroke-dashoffset:0;marker:none;visibility:visible;display:inline;overflow:visible;enable-background:accumulate" />
    <path
       style="fill:none;stroke:#000000;stroke-width:4;stroke-linecap:round;stroke-linejoin:round;stroke-opacity:1;stroke-miterlimit:4;stroke-dasharray:none"
       d="m 463.53194,277.77605 c -2.32274,9.17197 -11.41205,18.0589 -18.071,21.4104 -6.56304,1.91976 -9.22081,0.3088 -15.56479,0.54816 -6.19087,-2.32826 -4.99473,-14.34875 -4.66273,-19.76603 0.72809,-7.27704 4.84692,-8.47932 8.7954,-14.04342 3.52994,-4.71766 8.9961,-10.50069 14.88882,-6.28747 3.52017,6.68091 14.96143,8.73952 14.6143,18.13836 z"
       id="path5861"
       sodipodi:nodetypes="ccccccc" />
    <path
       sodipodi:nodetypes="cccccc"
       id="path5787"
       d="m 385.46389,282.99443 c 1.69926,1.26264 2.99034,1.58965 4.47691,1.95219 3.73486,0.0487 11.53859,0.70626 15.43241,-0.025 9.68556,-1.10532 12.81112,0.6944 20.62922,0.99112 6.39738,-0.92146 8.14442,1.46348 11.92108,0.70416 6.00784,-0.76649 7.16616,1.3234 11.84426,2.65326"
       style="color:#000000;fill:none;stroke:#ff0000;stroke-width:4;stroke-linecap:round;stroke-linejoin:round;stroke-miterlimit:4;stroke-opacity:1;stroke-dasharray:none;stroke-dashoffset:0;marker:none;visibility:visible;display:inline;overflow:visible;enable-background:accumulate" />
    <path
       sodipodi:nodetypes="ccccc"
       id="path5789"
       d="m 380.09019,303.80373 c 0.81197,-2.65549 1.37644,-4.56209 2.59583,-6.58299 2.34394,-2.62142 5.09503,-7.45012 7.66973,-11.32261 0.29448,4.16675 1.56754,8.73785 0.80716,12.46315 -0.0767,2.32105 -0.29764,4.34076 -0.1717,7.08519"
       style="color:#000000;fill:none;stroke:#ff0000;stroke-width:4;stroke-linecap:round;stroke-linejoin:round;stroke-miterlimit:4;stroke-opacity:1;stroke-dasharray:none;stroke-dashoffset:0;marker:none;visibility:visible;display:inline;overflow:visible;enable-background:accumulate" />
    <path
       sodipodi:nodetypes="cccccc"
       id="path5791"
       d="m 411.25469,306.65963 c 2.18771,-2.57073 -0.0938,-4.79157 6.32483,-14.17258 l 2.66456,-5.9707 c 1.25771,3.29507 0.51198,5.43936 2.05363,15.29781 l 0.57993,1.78842 0.34987,2.54297"
       style="color:#000000;fill:none;stroke:#ff0000;stroke-width:4;stroke-linecap:round;stroke-linejoin:round;stroke-miterlimit:4;stroke-opacity:1;stroke-dasharray:none;stroke-dashoffset:0;marker:none;visibility:visible;display:inline;overflow:visible;enable-background:accumulate" />
  </g>
</svg>
