<?xml version="1.0" encoding="UTF-8" standalone="no"?>
<!-- Created with Inkscape (http://www.inkscape.org/) -->

<svg
   xmlns:dc="http://purl.org/dc/elements/1.1/"
   xmlns:cc="http://creativecommons.org/ns#"
   xmlns:rdf="http://www.w3.org/1999/02/22-rdf-syntax-ns#"
   xmlns:svg="http://www.w3.org/2000/svg"
   xmlns="http://www.w3.org/2000/svg"
   xmlns:sodipodi="http://sodipodi.sourceforge.net/DTD/sodipodi-0.dtd"
   xmlns:inkscape="http://www.inkscape.org/namespaces/inkscape"
   width="480"
   height="320"
   id="svg2"
   version="1.1"
   inkscape:version="0.47 r22583"
   sodipodi:docname="itnas187.svg"
   inkscape:export-xdpi="90"
   inkscape:export-ydpi="90"
   inkscape:export-filename="itnas187.png">
  <defs
     id="defs4" />
  <sodipodi:namedview
     id="base"
     pagecolor="#ffffff"
     bordercolor="#666666"
     borderopacity="1.0"
     inkscape:pageopacity="1"
     inkscape:pageshadow="2"
     inkscape:zoom="1"
     inkscape:cx="215.29064"
     inkscape:cy="153.43294"
     inkscape:document-units="px"
     inkscape:current-layer="layer1"
     showgrid="false"
     inkscape:snap-nodes="true"
     inkscape:snap-global="false"
     inkscape:snap-grids="true"
     showguides="true"
     inkscape:window-width="1280"
     inkscape:window-height="774"
     inkscape:window-x="1276"
     inkscape:window-y="1020"
     inkscape:window-maximized="1">
    <inkscape:grid
       empspacing="5"
       visible="true"
       enabled="true"
       snapvisiblegridlinesonly="true"
       type="xygrid"
       id="grid2816" />
  </sodipodi:namedview>
  <metadata
     id="metadata7">
    <rdf:RDF>
      <cc:Work
         rdf:about="">
        <dc:format>image/svg+xml</dc:format>
        <dc:type
           rdf:resource="http://purl.org/dc/dcmitype/StillImage" />
        <dc:title></dc:title>
      </cc:Work>
    </rdf:RDF>
  </metadata>
  <g
     inkscape:label="Layer 1"
     inkscape:groupmode="layer"
     id="layer1"
     transform="translate(0,0)">
    <path
       sodipodi:nodetypes="cssssss"
       id="path4621-1"
       d="m 3.5108176,95.56409 c -0.91522,7.42097 -1.63142,14.85201 -2.64374003,22.33529 -1.31922,9.75212 0,20.85584 0,30.71102 0,22.43224 -2.43903997,46.93118 2.64374003,68.40184 2.69784,11.39628 -3.14078003,40.30396 0,50.25444 4.97478,15.76084 21.1542604,23.03556 35.6903204,30.71098 2.13898,1.12946 7.99826,0 10.57492,0"
       style="color:#000000;fill:none;stroke:#c87137;stroke-width:4;stroke-linecap:round;stroke-linejoin:round;stroke-miterlimit:4;stroke-opacity:1;stroke-dasharray:none;stroke-dashoffset:0;marker:none;visibility:visible;display:inline;overflow:visible;enable-background:accumulate" />
    <path
       sodipodi:nodetypes="cssssssss"
       id="path3004"
       d="m -755.75664,298.66092 c 9.63,-1.1567 20.39752,3.87218 29.01162,0.32094 7.44628,-3.0698 15.24848,-9.3769 17.35438,-18.39662 2.867,-12.2797 6.1132,-24.49406 9.00982,-36.77708 4.28824,-18.1841 1.08722,-36.88454 1.94886,-55.32114 0.4318,-9.2394 -4.64402,-17.76686 -4.36912,-27.1508 0.38784,-13.2385 0.87934,-26.48472 0.0364,-39.74084 -0.44958,-7.07022 0.112,-14.33366 3.59952,-20.78646 2.1129,-3.90937 0.33742,-8.69409 0.37354,-12.99879"
       style="color:#000000;fill:none;stroke:#c87137;stroke-width:4;stroke-linecap:round;stroke-linejoin:round;stroke-miterlimit:4;stroke-opacity:1;stroke-dasharray:none;stroke-dashoffset:0;marker:none;visibility:visible;display:inline;overflow:visible;enable-background:accumulate" />
    <path
       sodipodi:nodetypes="cssssss"
       id="path3006"
       d="m -639.95634,97.33187 c -0.91522,7.42095 -1.63142,14.85201 -2.64374,22.33529 -1.3192,9.75212 0,20.85584 0,30.71102 0,22.43224 -2.43902,46.93118 2.64374,68.40184 2.69786,11.39628 -3.14076,40.30396 0,50.25444 4.97478,15.76084 21.15426,23.03556 35.69034,30.71098 2.13898,1.12946 7.99824,0 10.5749,0"
       style="color:#000000;fill:none;stroke:#c87137;stroke-width:4;stroke-linecap:round;stroke-linejoin:round;stroke-miterlimit:4;stroke-opacity:1;stroke-dasharray:none;stroke-dashoffset:0;marker:none;visibility:visible;display:inline;overflow:visible;enable-background:accumulate" />
    <path
       sodipodi:nodetypes="cssssssssssssssssssssssssssssssssssssss"
       id="path3008"
       d="m -701.92468,89.79461 c -11.14986,7.51612 -12.35518,13.03371 -25.59562,14.31387 -15.50372,1.49898 -30.44568,-4.36239 -43.5977,-9.90143 -24.6884,-10.3976 21.99276,-44.7011 -0.0676,-26.5629 -9.2622,7.61544 -12.44386,6.29824 -23.98326,6.7671 -12.34548,0.50158 -16.59284,0.76116 -20.6865,-16.51474 -4.36404,-18.41674 -4.56676,-38.05584 -1.06096,-56.42552 1.2671,-6.6393 10.14286,-13.35274 15.23248,-13.93452 23.54376,-2.69124 16.36196,1.29504 -3.91716,-7.27836 -9.84982,-4.16422 -36.6839,-19.93304 -22.36856,-31.27136 10.77656,-8.53544 26.81908,-13.16378 40.56402,-7.42672 6.13086,2.559 16.95702,4.26742 19.59812,10.23872 8.3409,18.85806 4.4922,15.20184 2.64554,-5.36656 -1.01406,-11.29456 8.28316,-34.16833 12.18592,-36.82193 1.00438,-0.68292 7.96816,-9.181344 15.28136,-11.60812 8.26324,-2.74206 13.483,4.62398 24.94664,16.19531 6.31816,6.3775 5.98624,19.0514 3.21826,-0.016 -0.1956,-1.34729 7.86238,-13.557394 9.70642,-16.18271 9.59494,-13.66008 18.82746,-14.47178 32.90444,-24.64338 13.17048,-9.5166 31.42632,-10.38886 45.42638,-7.55222 10.94872,2.21838 16.02456,19.90474 22.67522,30.52192 8.14088,12.9962 -8.58032,55.85751 0.56906,42.15067 3.02586,-4.53308 15.87138,-27.26003 25.86874,-38.49889 11.99924,-13.48934 22.31814,5.08326 32.2356,11.3971 13.31788,8.47861 24.73382,18.41411 29.49442,35.63599 4.3259,15.64936 6.32674,33.86632 -9.80742,43.45736 -4.40964,2.62132 -35.7713,23.53552 -17.90574,13.50448 8.95272,-5.02672 21.74256,2.76522 28.97988,9.03394 8.93966,7.74322 15.8523,16.5348 17.0284,30.01272 1.44962,16.61228 -14.03484,23.86008 -27.70456,26.72502 -14.58724,3.0572 -38.21398,15.5276 -42.87098,13.27528 -11.11854,-5.37738 17.95922,15.08914 26.92988,23.18535 9.84626,8.88644 14.04388,29.74992 -2.61618,33.62852 -19.47362,4.53362 -40.83364,11.8767 -59.97762,5.3793 -13.9078,-4.72026 -24.52552,-17.70754 -30.89854,-30.28946 -2.95782,-5.83946 -4.82452,-36.60781 -8.204,-23.37451 -2.9789,11.66477 -16.87882,18.37891 -26.77094,25.70435 -16.62264,12.30958 -31.84036,-15.28742 -31.7597,-24.25029 0.0678,-7.5283 6.76792,-11.61094 -5.69768,-3.20788 z"
       style="fill:none;stroke:#94f3f3;stroke-width:4;stroke-linecap:round;stroke-linejoin:round;stroke-miterlimit:4;stroke-opacity:1;stroke-dasharray:none" />
    <path
       sodipodi:nodetypes="cssssss"
       id="path4621-8"
       d="m -357.45398,96.92389 c 0.91522,7.42097 1.63142,14.85201 2.64374,22.33529 1.31922,9.75212 0,20.85584 0,30.71102 0,22.43224 2.43904,46.93118 -2.64374,68.40184 -2.69784,11.39628 3.14078,40.30396 0,50.25444 -4.97478,15.76084 -18.14906,23.74268 -32.68512,31.4181 -2.13898,1.12946 -11.00346,0.35356 -13.58012,0.35356"
       style="color:#000000;fill:none;stroke:#c87137;stroke-width:4;stroke-linecap:round;stroke-linejoin:round;stroke-miterlimit:4;stroke-opacity:1;stroke-dasharray:none;stroke-dashoffset:0;marker:none;visibility:visible;display:inline;overflow:visible;enable-background:accumulate" />
    <path
       style="color:#000000;fill:none;stroke:#c87137;stroke-width:4;stroke-linecap:round;stroke-linejoin:round;stroke-miterlimit:4;stroke-opacity:1;stroke-dasharray:none;stroke-dashoffset:0;marker:none;visibility:visible;display:inline;overflow:visible;enable-background:accumulate"
       d="m -242.36078,300.46006 c -9.85308,-2.2106 -20.74734,-0.8551 -29.26162,-2.67906 -7.87556,-1.68712 -14.99848,-7.8769 -17.10438,-16.89662 -2.867,-12.2797 -6.1132,-24.49406 -9.00982,-36.77708 -4.28824,-18.1841 -1.08722,-36.88454 -1.94886,-55.32114 -0.4318,-9.2394 4.64402,-17.76686 4.36912,-27.1508 -0.38784,-13.2385 -0.87934,-26.48472 -0.0364,-39.74084 0.44958,-7.07022 -0.112,-14.33366 -3.59952,-20.78646 -2.1129,-3.90937 -0.33742,-8.69409 -0.37354,-12.99879"
       id="path2832-2"
       sodipodi:nodetypes="cssssssss" />
    <path
       style="color:#000000;fill:none;stroke:#c87137;stroke-width:4;stroke-linecap:round;stroke-linejoin:round;stroke-miterlimit:4;stroke-opacity:1;stroke-dasharray:none;stroke-dashoffset:0;marker:none;visibility:visible;display:inline;overflow:visible;enable-background:accumulate"
       d="m -59.583222,106.19686 3,34 -4,48 3,62 -7,40 -12,7 -29.999998,3"
       id="path2848" />
    <path
       style="color:#000000;fill:none;stroke:#c87137;stroke-width:4;stroke-linecap:round;stroke-linejoin:round;stroke-miterlimit:4;stroke-opacity:1;stroke-dasharray:none;stroke-dashoffset:0;marker:none;visibility:visible;display:inline;overflow:visible;enable-background:accumulate"
       d="m 272.37656,306.08554 c 9.63,-1.1567 20.3976,3.87218 29.0117,0.32094 7.4462,-3.0698 15.2484,-9.3769 17.3543,-18.39662 2.867,-12.2797 6.1132,-24.49406 9.0099,-36.77708 4.2882,-18.1841 1.0872,-36.88454 1.9488,-55.32114 0.4318,-9.2394 -4.644,-17.76686 -4.3691,-27.1508 0.3878,-13.2385 0.8793,-26.48472 0.036,-39.74084 -0.4496,-7.07022 0.112,-14.33366 3.5995,-20.78646 2.1129,-3.90936 0.3374,-8.69409 0.3736,-12.99879"
       id="path2832-7"
       sodipodi:nodetypes="cssssssss" />
    <path
       style="color:#000000;fill:none;stroke:#c87137;stroke-width:4;stroke-linecap:round;stroke-linejoin:round;stroke-miterlimit:4;stroke-opacity:1;stroke-dasharray:none;stroke-dashoffset:0;marker:none;visibility:visible;display:inline;overflow:visible;enable-background:accumulate"
       d="m 388.17686,104.7565 c -0.9152,7.42094 -1.6314,14.852 -2.6437,22.33528 -1.3192,9.75212 0,20.85584 0,30.71102 0,22.43224 -2.439,46.93118 2.6437,68.40184 2.6979,11.39628 -3.1407,40.30396 0,50.25444 4.9748,15.76084 21.1543,23.03556 35.6904,30.71098 2.139,1.12946 7.9982,0 10.5749,0"
       id="path2850-4"
       sodipodi:nodetypes="cssssss" />
    <path
       style="fill:none;stroke:#94f3f3;stroke-width:4;stroke-linecap:round;stroke-linejoin:round;stroke-miterlimit:4;stroke-opacity:1;stroke-dasharray:none"
       d="m 326.20856,97.21923 c -11.1499,7.51613 -12.3552,13.03371 -25.5956,14.31387 -15.5037,1.49898 -30.4457,-4.36238 -43.5977,-9.90142 -24.6884,-10.39761 21.9927,-44.70111 -0.068,-26.56291 -9.2622,7.61544 -12.4439,6.29824 -23.9833,6.7671 -12.3455,0.50158 -16.5928,0.76116 -20.6865,-16.51474 -4.364,-18.41674 -4.5667,-38.05584 -1.0609,-56.42552 1.2671,-6.6393 10.1428,-13.35274 15.2324,-13.93452 23.5438,-2.69124 16.362,1.29504 -3.9171,-7.27836 -9.8498,-4.16422 -36.6839,-19.93304 -22.3686,-31.27136 10.7766,-8.53544 26.8191,-13.16378 40.564,-7.42672 6.1309,2.559 16.9571,4.26742 19.5982,10.23872 8.3409,18.85806 4.4922,15.20184 2.6455,-5.36656 -1.0141,-11.29456 8.2832,-34.16834 12.1859,-36.82194 1.0044,-0.6829 7.9682,-9.18133 15.2814,-11.60811 8.2632,-2.74206 13.483,4.624 24.9466,16.19531 6.3182,6.3775 5.9863,19.0514 3.2183,-0.016 -0.1956,-1.3473 7.8624,-13.55739 9.7064,-16.18271 9.5949,-13.66008 18.8275,-14.47178 32.9044,-24.64338 13.1705,-9.5166 31.4264,-10.38886 45.4264,-7.55222 10.9487,2.21838 16.0246,19.90474 22.6752,30.52192 8.1409,12.99619 -8.5803,55.85751 0.5691,42.15067 3.0259,-4.53308 15.8714,-27.26004 25.8687,-38.49889 11.9993,-13.48934 22.3181,5.08328 32.2356,11.39709 13.3179,8.47862 24.7338,18.41412 29.4944,35.636 4.3259,15.64936 6.3267,33.86632 -9.8074,43.45736 -4.4097,2.62132004 -35.7713,23.53552 -17.9058,13.50448 8.9528,-5.02672 21.7426,2.76522 28.9799,9.03394 8.9397,7.74322 15.8523,16.5348 17.0284,30.01272 1.4496,16.61228 -14.0348,23.86008 -27.7045,26.72502 -14.5873,3.0572 -38.214,15.5276 -42.871,13.27528 -11.1185,-5.37738 17.9592,15.08915 26.9299,23.18535 9.8462,8.88644 14.0438,29.74992 -2.6162,33.62852 -19.4736,4.53362 -40.8336,11.8767 -59.9776,5.3793 -13.9078,-4.72026 -24.5255,-17.70754 -30.8985,-30.28946 -2.9578,-5.83946 -4.8245,-36.60781 -8.204,-23.37451 -2.9789,11.66477 -16.8788,18.37891 -26.771,25.70435 -16.6226,12.30958 -31.8403,-15.28742 -31.7597,-24.25028 0.068,-7.52831 6.768,-11.61095 -5.6976,-3.20789 z"
       id="path2827-0"
       sodipodi:nodetypes="cssssssssssssssssssssssssssssssssssssss" />
    <path
       style="fill:none;stroke:#008000;stroke-width:4;stroke-linecap:butt;stroke-linejoin:miter;stroke-miterlimit:4;stroke-opacity:1;stroke-dasharray:none"
       d="m 491.50976,309.7508 c -32.1447,5.7047 -65.0339,1.4905 -97.5077,2.8376 -28.7524,0.1816 -57.6007,5.24048 -86.0553,0.61578 -48.7235,-2.5707 -99.1261,-9.5072 -147.76248,-5.73898 -30.02432,0.062 -58.63942,-6.12554 -88.561742,-3.94444 -21.38344,-2.1054 -43.57744,-1.1061 -64.3774004,5.1461 -11.14672,1.6839 -21.8435506,6.1322 -33.3374306,5.3266 -31.686549,2.09776 -60.790009,-7.418 -87.268227,-7.22302 -30.3455,1.44006 -47.90022,0.34782 -84.14572,3.53556 -24.96626,0.6688 -74.80906,-6.46592 -98.99496,-3.53554 -37.9707,6.94412 -73.34072,1.65032 -96.1665,2.1213 -34.01706,-2.17052 -69.68556,0.70712 -117.37972,3.53554 -33.15032,1.38618 -65.89428,-6.54618 -98.86292,-4.24264 -33.23402,0.22844 -66.46804,1.62086 -99.70206,-3.53552"
       id="path4190-9"
       sodipodi:nodetypes="cccccccccccccc" />
    <path
       id="path5493-48"
       style="color:#000000;fill:none;stroke:#ff0000;stroke-width:4;stroke-linecap:round;stroke-linejoin:round;stroke-miterlimit:4;stroke-opacity:1;stroke-dasharray:none;stroke-dashoffset:0;marker:none;visibility:visible;display:inline;overflow:visible;enable-background:accumulate"
       d="m 156.57716,263.27494 c 2.65302,1.37926 6.98726,1.47288 13.78568,2.29434 8.54606,0.95512 10.47266,3.90012 17.04806,4.0876 7.37894,2.82436 11.6863,5.77312 21.07484,6.91128 m -71.69598,-1.34274 c 7.07596,0.23322 16.3685,1.93896 16.572,-1.36138 1.47884,-12.15686 8.2139,-20.5499 5.89592,-24.80398 -6.43182,-3.19504 -9.17264,-6.21734 -13.6397,-9.80904"
       sodipodi:nodetypes="cccccccc" />
    <path
       id="path5493-4-8"
       style="color:#000000;fill:none;stroke:#ff0000;stroke-width:4;stroke-linecap:round;stroke-linejoin:round;stroke-miterlimit:4;stroke-opacity:1;stroke-dasharray:none;stroke-dashoffset:0;marker:none;visibility:visible;display:inline;overflow:visible;enable-background:accumulate"
       d="m 271.40252,243.29038 c -2.6528,1.37976 -6.98701,1.47424 -13.78527,2.29709 -8.54591,0.95676 -10.47189,3.90211 -17.04726,4.09085 -7.37837,2.82588 -11.68515,5.77546 -21.07338,6.91588 m 71.69573,-1.35666 c -7.07591,0.23448 -16.36813,1.94215 -16.57229,-1.35815 -1.4812,-12.1566 -8.21783,-20.54835 -5.90066,-24.80286 6.43112,-3.19629 9.17137,-6.21911 13.63782,-9.8117"
       sodipodi:nodetypes="cccccccc" />
    <path
       sodipodi:nodetypes="cssssssssssssssssssssssssssssssssssssss"
       id="path4623-2"
       d="m -94.039482,-70.39965 c -13.414998,-0.92132 -17.221658,-5.09336 -29.322998,0.42986 -14.16988,6.46734 -24.16724,19.02402 -32.77676,30.40528 -16.16142,21.36434 41.42348,27.67608 13.24508,23.0252 -11.83092,-1.95268 -13.92508,0.7809 -24.14774,6.15438 -10.93678,5.7489 -14.74304,7.65142 -9.63396,24.65474 5.44644,18.12614 15.10688,35.22616 27.34146,49.37012 4.4219,5.112 15.46658,6.4775 20.16324,4.43202 21.72602,-9.46212 13.5134,-9.31554 0.2548,8.26156 -6.4399,8.53744 -21.76842,35.62545 -3.69926,38.26965 13.6024,1.99056 29.80594,-2.03804 38.829478,-13.88762 4.0249,-5.28549 12.53978,-12.18629 11.83514,-18.67747 -2.22532,-20.49986 -3.72538,-15.4077 4.97758,3.32002 4.77898,10.28382 24.28206,25.42573 28.98908,25.76791 1.21136,0.088 11.49513,3.95612 19.040429,2.3939 8.5255,-1.76512 9.3543,-10.75498 13.48128,-26.51185 2.27458,-8.68434 -4.36022,-19.48792 2.79356,-1.59796 0.50546,1.26412 13.59521057,7.79678 16.5061506,9.14554 15.1462604,7.01797 23.5439404,3.09656 40.8224604,4.85032 16.16584,1.64081 32.40394,-6.74734 43.100923,-16.21426 8.36556,-7.4036 3.901,-25.25406 4.34002,-37.77456 0.53738,-15.326 -35.401923,-44.04984 -20.617903,-36.76828 4.88934,2.40814 27.390103,15.64586 41.672042,20.36656 17.14178,5.666 16.77146,-15.57746 22.1933,-26.00934 7.28084,-14.00864 12.18582,-28.32574 7.68104,-45.6163 -4.09346,-15.71176 -11.4853,-32.48142 -30.25364,-32.70236 -5.12958,-0.0604 -42.749002,-2.45558 -22.261699,-2.72094 10.266519,-0.133 17.434219,-13.28281 20.558859,-22.33335 3.8596,-11.17938 5.4397,-22.25096 -0.29252,-34.5057 -7.06528,-15.10468 -24.097699,-13.62284 -37.364282,-9.25634 -14.15706,4.65964 -40.85262,5.69902 -43.75542,9.98088 -6.93044,10.22288 7.98736,-22.0549 11.697,-33.55532 4.07176,-12.62292 -2.74414,-32.7835 -19.1067,-27.79668 -19.1258604,5.82898 -41.291551,10.17104 -54.60739,25.38276 -9.67374,11.05108 -12.3594,27.60984 -11.57408,41.69186 0.36448,6.53568 14.158559,34.10194 4.6058,24.3405 -8.42047,-8.60444 -23.81413,-7.45428 -36.04501,-8.84048 -20.55268,-2.3293 -19.90278,29.17865 -15.34406,36.89599 3.82908,6.48212 11.67306,6.66018 -3.325,5.63016 z"
       style="fill:none;stroke:#94f3f3;stroke-width:4;stroke-linecap:round;stroke-linejoin:round;stroke-miterlimit:4;stroke-opacity:1;stroke-dasharray:none" />
    <path
       style="color:#000000;fill:none;stroke:#94f3f3;stroke-width:4;stroke-linecap:round;stroke-linejoin:round;stroke-miterlimit:4;stroke-opacity:1;stroke-dasharray:none;stroke-dashoffset:0;marker:none;visibility:visible;display:inline;overflow:visible;enable-background:accumulate"
       d="m -356.47324,-121.02916 c 5.15264,-32.99796 -10.0396,-48.38556 -14.14212,-46.66904 -21.84738,-7.27224 -43.37522,-13.6964 -66.46806,7.07108 -8.71994,12.95944 -12.44956,19.8113 -16.75442,35.66704 1.5535,9.1393 7.56726,21.27008 20.99708,39.28627 -26.07792,-9.73241 -37.57312,-4.18743 -48.56854,8.65686 -12.67644,13.49916 -18.58056,29.49832 -17.8995,46.49748 7.1554,20.6182 21.3242,27.19216 63.6396,19.79898 -46.08688,30.80172 -43.40082,30.54484 -36.76954,63.63962 22.22976,21.42418 1.24882,26.85964 76.36752,26.87006 8.2667,-3.23134 16.61888,-6.12078 21.2132,-24.04164 -7.73326,23.23696 16.20618,45.77053 45.25484,45.25483 38.98702,-11.80837 38.12266,-30.25865 32.52692,-49.49747 8.06604,10.01442 14.0047,26.6487 46.93372,29.49294 16.95804,9.17448 36.42854,3.0326 48.2328,-7.86552 6.39094,-11.5637 6.71142,-22.8728 3.8647,-41.40974 -7.73292,-27.22016 -43.48798,-26.36434 -59.43318,-36.7862 40.3296,4.52142004 80.25006,-4.76214 80.61016,-28.2843 3.86998,-28.84182 -12.95358,-46.769 -98.99494,-19.79898 44.24524,-32.2197 50.40744,-25.23234 56.56854,-57.98277 -6.49518,-10.69554 -8.20828,-11.9902 -32.52692,-15.55634 -19.96272,8.56714 -32.8316,15.00158 -43.84062,25.45584 l -5.65684,0 c 18.43454,-20.80588 40.30696,-24.30762 12.72792,-53.7401 -19.80574,-4.43932 -59.17904,5.2102 -67.88226,33.9411 l -6e-5,0 z"
       id="path2903"
       sodipodi:nodetypes="cccccccccccccccccccccccccc" />
    <path
       style="fill:none;stroke:#0000ff;stroke-width:4;stroke-linecap:round;stroke-linejoin:round;stroke-miterlimit:4;stroke-opacity:1;stroke-dasharray:none"
       d="m 127.22161,288.95528 c 6.30564,2.0133 12.60945,4.53863 19.27872,4.85151 7.40044,1.99218 15.33334,1.60944 22.51701,4.21639 7.31287,-1.79059 14.33477,2.41302 21.69457,1.56375 5.46524,0.15121 9.72904,1.3975 15.365,0.73379 2.22491,0.57599 3.89858,-1.03876 -0.89858,0.90699"
       id="path2909" />
    <path
       style="fill:none;stroke:#0000ff;stroke-width:4;stroke-linecap:round;stroke-linejoin:round;stroke-miterlimit:4;stroke-opacity:1;stroke-dasharray:none"
       d="m 76.979961,270.69769 c 1.44499,-4.4851 -1.76628,-7.43598 -3.50977,-9.89063 -1.87062,-4.66231 -3.563731,-3.95388 -6.465429,-8.60852 -3.596011,-1.59779 -5.669157,-4.79131 -9.926537,-5.69732 -5.615077,-2.8895 -12.40947,-0.0596 -17.462039,2.63 -3.313038,2.57116 -6.79949,4.76899 -8.074689,8.99489 -0.899432,2.98435 -2.913554,5.9586 -2.928663,8.95102 2.312107,4.48696 1.1494,11.48648 3.547453,14.55534 3.371348,1.5662 6.830962,2.84438 9.975416,4.69349 5.120974,1.99652 10.241207,3.99491 15.362056,5.99117 2.609053,-1.23996 5.875103,-1.06061 7.333563,-3.06249 1.742017,-0.74026 2.374251,-4.016 3.945734,-5.29268 3.430445,-3.5399 4.973695,-8.88573 8.202905,-13.26427 z"
       id="path2905" />
    <path
       style="fill:none;stroke:#0000ff;stroke-width:4;stroke-linecap:round;stroke-linejoin:round;stroke-miterlimit:4;stroke-opacity:1;stroke-dasharray:none"
       d="m 62.355304,291.89089 c 4.741801,-1.81597 11.348717,0.85773 12.996127,-0.88763 7.72966,0.62184 15.57667,-0.21317 23.29067,0.51001 6.641179,1.03024 13.154929,-0.49763 19.355669,-0.68722 2.99972,-0.55488 5.99924,-1.10971 8.99876,-1.66453"
       id="path2907" />
    <path
       style="fill:none;stroke:#0000ff;stroke-width:4;stroke-linecap:round;stroke-linejoin:round;stroke-miterlimit:4;stroke-opacity:1;stroke-dasharray:none"
       d="m 127.56671,288.94164 c 4.33813,-0.37721 13.94128,-0.79321 20.51253,-1.3797 8.74559,0.74315 15.94456,-2.40906 24.51082,-2.06838 6.32549,-1.69681 12.5371,-1.97826 19.60596,-2.34136 4.22275,-0.87289 12.2222,2.69936 13.86652,1.42846 0.52816,-0.19672 5.15779,0.57998 2.56289,0.88207"
       id="path2881" />
    <path
       style="fill:none;stroke:#0000ff;stroke-width:4;stroke-linecap:round;stroke-linejoin:round;stroke-miterlimit:4;stroke-opacity:1;stroke-dasharray:none"
       d="m 114.12609,279.4487 c -5.90383,0.64824 -11.20587,0.91144 -15.359189,1.61863 -6.87037,1.16303 -13.94327,1.11705 -20.40564,4.28242 -3.68338,1.5848 -6.73577,2.7765 -10.56614,4.00131 -2.014888,0.32362 -3.746412,2.44082 -5.597254,2.11965"
       id="path2894" />
    <path
       style="fill:none;stroke:#0000ff;stroke-width:4;stroke-linecap:round;stroke-linejoin:round;stroke-miterlimit:4;stroke-opacity:1;stroke-dasharray:none"
       d="m 4.7058986,298.10651 c 6.4380204,0.51972 18.9389084,-0.40065 26.0891574,-2.01103 8.484635,-3.67019 16.415056,-5.72014 20.734316,-2.97548 1.845689,-0.39876 5.339513,2.37451 9.503593,-0.82713"
       id="path2911"
       sodipodi:nodetypes="cccc" />
    <path
       style="fill:none;stroke:#80ff00;stroke-width:3.99999976;stroke-linecap:round;stroke-linejoin:round;stroke-miterlimit:4;stroke-opacity:1;stroke-dasharray:none"
       d="m 276.68657,301.16761 c -2.44984,-0.38961 -2.31759,0.67071 -5.84131,0.13318 -5.60648,-1.14634 -11.09561,0.20015 -16.52293,-2.15193 -3.82859,-0.71757 -7.62353,0.70346 -11.45269,-0.12622 -4.03112,-0.72118 -7.93278,0.038 -11.85342,0.65675 -3.43655,0.36398 -15.48949,-1.35085 -18.2822,-2.85871 -3.37486,-1.80356 -7.23415,-0.0536 -10.48628,-2.71655 0.0556,-1.73583 3.36504,-3.50897 4.70218,-5.26105 4.36248,-4.20022 8.72327,-8.4039 13.08964,-12.59683 3.15938,-1.54446 5.7235,-4.90504 9.30486,-4.95778 2.74493,-0.85562 4.99698,-3.07522 7.51354,-4.51813 2.63084,-1.97669 5.78166,-3.91278 8.68327,-5.61782 2.83566,-2.14443 5.90755,-3.77223 8.3977,-6.65309 1.95508,-2.25201 4.4471,-5.03122 6.15836,-0.45362 1.87904,2.96427 1.46083,7.12203 3.36406,10.09687 1.27997,3.90365 3.46994,7.19357 3.60039,11.81868 1.71902,3.84777 2.73428,8.45852 5.05336,11.81958 0.89689,3.70938 2.65042,7.15848 4.00733,10.51895 l 0.56414,2.86772 z"
       id="path2942"
       inkscape:transform-center-x="30.499246"
       inkscape:transform-center-y="2.2678129"
       sodipodi:nodetypes="ccccccccccccccccccc" />
    <path
       style="fill:none;stroke:#80ff00;stroke-width:3.99999976;stroke-linecap:round;stroke-linejoin:round;stroke-miterlimit:4;stroke-opacity:1;stroke-dasharray:none"
       d="m 268.60732,276.47467 c 5.09518,-1.79433 11.60005,-2.4454 17.98566,-2.35554 5.38127,0.0757 17.5067,1.52181 23.1258,2.84933 24.46596,4.2324 38.54427,4.09736 63.18587,2.13803 15.3379,2.37171 35.4179,-1.08972 49.4515,-0.2 13.3795,-2.41561 34.4042,2.11582 44.8151,-4.96823"
       id="path2952-1"
       sodipodi:nodetypes="cscccc" />
    <path
       style="color:#000000;fill:none;stroke:#80ff00;stroke-width:4;stroke-linecap:round;stroke-linejoin:round;stroke-miterlimit:4;stroke-opacity:1;stroke-dasharray:none;stroke-dashoffset:0;marker:none;visibility:visible;display:inline;overflow:visible;enable-background:accumulate"
       d="m 466.95646,274.10545 c 10.68698,-6.57434 9.0461,-14.15026 0.46078,-24.44419 -17.76565,-21.30129 -59.52296,3.67213 -79.94659,-11.98587 -16.16376,-12.39207 -28.04013,-37.92925 -52.94476,-39.3425 -32.62948,-1.85164 -65.60414,-13.65498 -93.61471,-4.18335 -21.51953,7.27678 -20.02559,8.56403 -35.22929,19.51278 -1.23959,0.89273 -21.26163,4.82793 -34.81476,2.21998"
       id="path4125"
       sodipodi:nodetypes="cssssss" />
    <path
       style="color:#000000;fill:none;stroke:#80ff00;stroke-width:3.99999976;stroke-linecap:round;stroke-linejoin:round;stroke-miterlimit:4;stroke-opacity:1;stroke-dasharray:none;stroke-dashoffset:0;marker:none;visibility:visible;display:inline;overflow:visible;enable-background:accumulate"
       d="m 235.20092,290.5492 c 8.38284,1.13766 10.48939,-0.77158 17.13271,-1.02612 8.39027,-0.32148 11.65539,-0.35106 15.47187,-1.23947 5.85119,-1.36205 10.55957,-1.99262 16.40454,-2.93724 5.23749,-0.84644 10.90504,-0.86461 16.10493,-1.34316 3.39713,-0.31259 15.96271,1.34872 14.67808,-7.06035 -1.28537,-8.41395 -11.9581,-9.8083 -15.88915,-9.57396 -6.14211,0.36614 -12.77075,-0.21636 -18.58975,-1.21731 -3.95213,-0.67986 -9.08259,0.70014 -12.96193,1.40163 -4.57251,0.82685 -7.76841,1.83167 -12.28326,2.12111 -2.72199,0.17451 -5.25516,1.6895 -7.65508,1.32544 -1.67331,-0.25384 -4.70757,1.96281 -7.60101,2.92148 -3.20018,1.0603 -5.75974,2.19331 -8.19066,3.97699"
       id="path3643"
       sodipodi:nodetypes="csssszsssssss" />
    <path
       style="color:#000000;fill:none;stroke:#80ff00;stroke-width:3.99999976;stroke-linecap:round;stroke-linejoin:round;stroke-miterlimit:4;stroke-opacity:1;stroke-dasharray:none;stroke-dashoffset:0;marker:none;visibility:visible;display:inline;overflow:visible;enable-background:accumulate"
       d="m 368.81044,293.16247 c 2.535,0.55131 12.37177,-1.18709 19.92259,-1.64114 9.85218,-0.59797 14.83118,1.73574 16.63528,1.84499 2.66909,0.16164 15.72754,-2.94731 20.06145,-3.58319 3.77063,-0.55322 7.79102,-3.29331 10.94718,-5.06222 3.42776,-1.92114 10.04886,-1.89519 12.18454,-4.27648 3.11391,-3.47199 3.25869,0.97467 2.99537,1.92932 -0.3607,1.30685 -4.64339,3.4676 -6.4177,5.12777 -4.95891,4.63985 -8.75618,5.9413 -15.94611,10.33792 -3.6888,2.25569 -13.89216,0.65806 -18.00988,1.32137 -4.83736,0.77919 -9.15351,0.52164 -13.69786,0.64838 -4.43835,0.1238 -8.98314,0.75856 -13.56807,1.3195 -8.78883,1.07503 -6.12648,3.53886 -15.74695,1.70269"
       id="path3681"
       sodipodi:nodetypes="cssssssssssss" />
  </g>
</svg>
