<?xml version="1.0" encoding="UTF-8" standalone="no"?>
<!-- Created with Inkscape (http://www.inkscape.org/) -->

<svg
   xmlns:dc="http://purl.org/dc/elements/1.1/"
   xmlns:cc="http://creativecommons.org/ns#"
   xmlns:rdf="http://www.w3.org/1999/02/22-rdf-syntax-ns#"
   xmlns:svg="http://www.w3.org/2000/svg"
   xmlns="http://www.w3.org/2000/svg"
   xmlns:sodipodi="http://sodipodi.sourceforge.net/DTD/sodipodi-0.dtd"
   xmlns:inkscape="http://www.inkscape.org/namespaces/inkscape"
   width="480"
   height="320"
   id="svg2"
   version="1.1"
   inkscape:version="0.47 r22583"
   sodipodi:docname="itnas055.svg"
   inkscape:export-xdpi="90"
   inkscape:export-ydpi="90"
   inkscape:export-filename="itnas055.png">
  <defs
     id="defs4" />
  <sodipodi:namedview
     id="base"
     pagecolor="#ffffff"
     bordercolor="#666666"
     borderopacity="1.0"
     inkscape:pageopacity="1"
     inkscape:pageshadow="2"
     inkscape:zoom="1.4142136"
     inkscape:cx="236.75903"
     inkscape:cy="173.35647"
     inkscape:document-units="px"
     inkscape:current-layer="layer1"
     showgrid="false"
     inkscape:snap-nodes="true"
     inkscape:snap-global="false"
     inkscape:snap-grids="true"
     showguides="true"
     inkscape:window-width="1280"
     inkscape:window-height="774"
     inkscape:window-x="-4"
     inkscape:window-y="-4"
     inkscape:window-maximized="1">
    <inkscape:grid
       empspacing="5"
       visible="true"
       enabled="true"
       snapvisiblegridlinesonly="true"
       type="xygrid"
       id="grid2816" />
  </sodipodi:namedview>
  <metadata
     id="metadata7">
    <rdf:RDF>
      <cc:Work
         rdf:about="">
        <dc:format>image/svg+xml</dc:format>
        <dc:type
           rdf:resource="http://purl.org/dc/dcmitype/StillImage" />
        <dc:title></dc:title>
      </cc:Work>
    </rdf:RDF>
  </metadata>
  <g
     inkscape:label="Layer 1"
     inkscape:groupmode="layer"
     id="layer1"
     transform="translate(0,0)">
    <path
       id="path2823"
       style="fill:none;stroke:#75ff00;stroke-width:4;stroke-linecap:round;stroke-linejoin:round;stroke-miterlimit:4;stroke-opacity:1;stroke-dasharray:none"
       d="m -53,123 c 0,0 28.642981,-2.2554 55.5,1 16.5,2 25.252198,-3.67009 35,-1 20.835882,5.70732 42.152552,3.84124 63.25593,2.90813 26.0132,-0.31998 48.34997,4.88188 77.95778,-3.43706 16.51614,-4.64056 32.77413,-11.37651 50.3459,-7.39312 C 250.01415,119.8282 272.86856,117.90846 292,129"
       sodipodi:nodetypes="csscsss" />
    <path
       style="fill:none;stroke:#75ff00;stroke-width:4;stroke-linecap:round;stroke-linejoin:round;stroke-miterlimit:4;stroke-opacity:1;stroke-dasharray:none"
       d="m 169,288 c 4.00579,-20.42187 6.56383,-41.53919 16.55236,-60.22756 3.80347,-7.11623 8.52596,-37.18289 9.81869,-45.15754 3.65007,-22.51674 25.08221,-58.43754 30.11354,-67.00916 0.78597,-1.33902 1.86205,-0.89834 2.11901,0.44461 1.7863,9.33584 9.97942,34.91932 26.59669,56.90903 7.57623,10.02567 9.99853,22.32409 15.98789,32.97892 6.88264,12.24394 5.54881,35.53904 19.19974,37.66237 20.06859,3.12157 43.42527,-8.29657 64.52229,-14.32134 C 365.09783,226.08443 376.9672,224.32005 387,218"
       id="path2827"
       sodipodi:nodetypes="csssssssss" />
    <path
       style="fill:none;stroke:#ff0000;stroke-width:4;stroke-linecap:round;stroke-linejoin:round;stroke-opacity:1;stroke-miterlimit:4;stroke-dasharray:none"
       d="m 395.27269,196.60987 c -4.26639,-3.69474 -6.53766,-7.28549 -13.43503,-7.77817 -0.97548,-0.0697 -5.89817,-0.30192 -6.71751,0.35355 -3.54926,2.83941 -5.11984,6.57891 -5.65686,10.6066 -0.44586,3.34393 -0.52787,7.8727 0.70711,10.96015 0.88208,2.2052 2.8623,12.20289 3.88908,13.43503 5.21689,6.26028 3.96038,5.27517 12.02083,7.42462 0.98408,0.26242 3.23117,-4.45896 5.76771,-4.77945 4.13579,-0.52254 0.20224,4.44612 10.49574,2.30458 4.30874,-0.89643 5.45741,-1.87656 6.71751,-5.65686 1.15112,-3.45335 2.47643,-5.3064 3.88909,-8.13172 2.80503,-5.61005 4.54609,-10.80702 2.82843,-17.67767 -1.02343,-4.09372 -6.69535,-8.44212 -13.08148,-5.65686 -4.41243,1.92446 -4.82915,6.8439 -7.42462,4.5962 z"
       id="path3621"
       sodipodi:nodetypes="csssssssssssss" />
    <path
       style="fill:none;stroke:#75ff00;stroke-width:4;stroke-linecap:round;stroke-linejoin:round;stroke-miterlimit:4;stroke-opacity:1;stroke-dasharray:none"
       d="m 322.76196,100.48706 c 16.09929,22.65226 43.04641,41.18527 55.07275,62.69843 2.22729,3.98427 14.02672,16.94723 14.02672,16.94723 6.60568,2.89566 9.36942,9.49124 10.5659,10.36121 4.70024,3.41759 11.14355,12.29353 12.46571,19.95855 0,0 -3.3627,0.71137 -7.84522,-0.36221 -71.52532,-17.11234 -35.63325,-15.74241 -75.61393,-24.58331 -57.37423,-12.70874 -15.68661,-0.96446 -64.05189,-25.29586 -1.87055,-0.94103 9.07349,-7.68415 15.00631,-20.77789 3.75381,-8.28468 30.19327,-53.27027 40.37365,-38.94615 z"
       id="path2821"
       sodipodi:nodetypes="csssssssss" />
  </g>
</svg>
