<?xml version="1.0" encoding="UTF-8" standalone="no"?>
<!-- Created with Inkscape (http://www.inkscape.org/) -->

<svg
   xmlns:dc="http://purl.org/dc/elements/1.1/"
   xmlns:cc="http://creativecommons.org/ns#"
   xmlns:rdf="http://www.w3.org/1999/02/22-rdf-syntax-ns#"
   xmlns:svg="http://www.w3.org/2000/svg"
   xmlns="http://www.w3.org/2000/svg"
   xmlns:sodipodi="http://sodipodi.sourceforge.net/DTD/sodipodi-0.dtd"
   xmlns:inkscape="http://www.inkscape.org/namespaces/inkscape"
   width="480"
   height="320"
   id="svg2"
   version="1.1"
   inkscape:version="0.47 r22583"
   sodipodi:docname="itnas190.svg"
   inkscape:export-xdpi="90"
   inkscape:export-ydpi="90"
   inkscape:export-filename="itnas190.png">
  <defs
     id="defs4" />
  <sodipodi:namedview
     id="base"
     pagecolor="#ffffff"
     bordercolor="#666666"
     borderopacity="1.0"
     inkscape:pageopacity="1"
     inkscape:pageshadow="2"
     inkscape:zoom="1.4142136"
     inkscape:cx="215.75104"
     inkscape:cy="215.75201"
     inkscape:document-units="px"
     inkscape:current-layer="layer1"
     showgrid="false"
     inkscape:snap-nodes="true"
     inkscape:snap-global="true"
     inkscape:snap-grids="true"
     showguides="true"
     inkscape:window-width="1280"
     inkscape:window-height="998"
     inkscape:window-x="-4"
     inkscape:window-y="-4"
     inkscape:window-maximized="1"
     inkscape:snap-midpoints="true"
     inkscape:object-nodes="false"
     inkscape:object-paths="true">
    <inkscape:grid
       empspacing="5"
       visible="true"
       enabled="true"
       snapvisiblegridlinesonly="true"
       type="xygrid"
       id="grid2816" />
  </sodipodi:namedview>
  <metadata
     id="metadata7">
    <rdf:RDF>
      <cc:Work
         rdf:about="">
        <dc:format>image/svg+xml</dc:format>
        <dc:type
           rdf:resource="http://purl.org/dc/dcmitype/StillImage" />
        <dc:title />
      </cc:Work>
    </rdf:RDF>
  </metadata>
  <g
     inkscape:label="Layer 1"
     inkscape:groupmode="layer"
     id="layer1"
     transform="translate(0,0)">
    <path
       id="path3163"
       style="color:#000000;fill:none;stroke:#80ff00;stroke-width:3.99999952;stroke-linecap:round;stroke-linejoin:round;stroke-miterlimit:4;stroke-opacity:1;stroke-dasharray:none;stroke-dashoffset:0;marker:none;visibility:visible;display:inline;overflow:visible;enable-background:accumulate"
       d="m 519.62299,276.64287 c -19.02998,0.6809 -35.09749,-0.86006 -48.79565,-4.17803 -4.89069,-0.79704 -15.68748,0.47254 -25.57826,-3.73735 -8.85422,-2.10853 -13.00476,-6.7329 -17.0006,-9.44697 -6.2679,-2.55648 -11.5113,-9.68698 -15.32846,-14.79427 -2.55239,-3.27319 -11.84791,-11.52257 -18.10984,-13.13431 -16.75452,-6.89968 -23.14701,-3.06606 -31.51873,-4.58144 -6.18001,0.0539 -21.73523,-3.46052 -27.86614,-4.16294 -7.30644,1.22928 -16.60107,-3.50834 -23.88661,-3.97095 -5.86724,-1.76356 -12.24002,-2.19637 -18.1695,-2.73454 -6.82739,-3.49182 -13.59613,-1.71354 -20.45719,-1.2012 -7.01489,-0.41052 -16.24591,-5.20012 -20.34017,-8.84156 -2.23883,-4.74346 -2.61299,-6.11453 -3.00747,-11.33336 -0.52792,-4.49823 -0.0278,-6.21952 -0.6723,-11.79359 -1.0625,-15.63916 8.14636,-11.93066 10.50209,-5.75916 5.90357,2.02866 10.43123,2.02927 17.17227,1.68304 5.7608,0.0184 12.28952,1.30464 18.16605,-1.19042 5.07966,-1.25487 14.63415,-0.92194 19.5206,-2.54466 3.58233,-4.35902 4.62008,-10.20253 6.67979,-15.2763 3.36156,-5.99573 6.02474,-10.29896 10.86985,-14.22115 1.62448,-0.70081 3.58567,-0.70753 6.04885,-1.4346 0.51196,-3.31349 0.89959,-6.67743 1.3187,-10.02819 1.22035,-9.36322 2.43533,-19.12901 7.21565,-26.44686 1.07489,-1.30059 1.99373,-2.7733 2.14598,-4.72089 0.43999,-1.46586 0.26594,-4.470642 2.1106,-4.271482 2.14836,1.912482 3.71271,4.500312 5.28576,6.931292 1.16022,2.45966 2.43581,4.89706 3.52395,7.3889 2.5352,7.30725 4.51836,14.73724 5.78519,22.12731 0.11754,2.74428 1.91311,5.24351 3.19634,7.94273 0.63084,2.2023 9.79853,-1.10313 13.22152,1.54715 3.423,2.65028 4.52141,1.53152 8.7051,5.99656 3.27549,3.38102 3.15252,5.75577 5.99542,9.37479 1.73631,3.59888 5.19378,14.52028 9.25175,18.91122 2.81733,1.384 1.91434,11.56011 15.58919,11.05539 10.40288,-0.38395 15.5188,2.17735 25.22609,0.94604 6.13522,-0.77821 13.43656,-0.57837 19.55199,0.67617 3.4037,0.69829 12.22613,1.49425 16.27275,1.26539"
       sodipodi:nodetypes="cccccccccccccccccccccccccccccscccsssc" />
    <path
       style="color:#000000;fill:none;stroke:#80ff00;stroke-width:3.99999952;stroke-linecap:round;stroke-linejoin:round;stroke-miterlimit:4;stroke-opacity:1;stroke-dasharray:none;stroke-dashoffset:0;marker:none;visibility:visible;display:inline;overflow:visible;enable-background:accumulate"
       d="m 345.22487,147.98794 c -0.12641,-4.17234 1.66085,-8.47667 1.58051,-12.64228 0.25413,-3.19587 1.71483,-6.06454 3.11087,-9.06861 0.83759,-3.75799 2.35473,-6.53476 3.72652,-10.02139 0.52995,-2.73055 0.88581,-4.43974 1.87045,-6.88195 1.0953,-2.48566 3.10828,-3.76284 4.29069,-6.1 0.55411,-2.61749 3.41327,-0.26759 3.49041,2.01319 0.81905,3.01558 1.28111,5.38806 2.51917,8.01239 0.6679,3.15314 1.74762,5.9117 2.7083,8.83029 0.33259,2.79717 2.2459,5.58844 3.39188,8.2572 1.66202,3.09037 2.8937,8.21581 4.04919,11.49327 0.8227,2.33353 2.41463,6.03258 3.00159,8.51424"
       id="path2899"
       sodipodi:nodetypes="ccccccccccsc" />
    <path
       id="path2914"
       style="color:#000000;fill:none;stroke:#80ff00;stroke-width:3.99999976;stroke-linecap:round;stroke-linejoin:round;stroke-miterlimit:4;stroke-opacity:1;stroke-dasharray:none;stroke-dashoffset:0;marker:none;visibility:visible;display:inline;overflow:visible;enable-background:accumulate"
       d="m 433.96055,239.87276 c 1.26514,3.89504 2.33195,8.39935 2.09467,12.91967 0.63327,8.43892 9.26604,17.96262 6.73848,26.93603 0.9224,6.93808 1.70875,14.04377 0.79402,21.01544 -1.77005,6.03342 -0.39461,19.54222 -1.44466,25.67244 l 0.39752,16.08154 M 476.81717,239.2417 c 0.7694,7.83048 -0.54985,15.6703 -0.048,23.69843 0.49696,4.18706 -1.46398,7.35946 -0.79564,10.57973 0.27922,4.43721 0.14078,8.49257 0.86512,13.25959 1.17001,5.87354 0.4121,10.28786 1.45581,16.51223 -0.38852,7.72258 -0.56795,9.74519 -2.47212,17.84843 l 1.57749,21.07225"
       sodipodi:nodetypes="ccccccccccccc" />
    <path
       sodipodi:nodetypes="cccc"
       d="m 147.91899,108.83329 -63.223029,61.72275 m 26.762899,-85.19995 16.81467,86.51142"
       style="color:#000000;fill:none;stroke:#0000ff;stroke-width:12;stroke-linecap:butt;stroke-linejoin:bevel;stroke-miterlimit:4;stroke-opacity:1;stroke-dasharray:none;stroke-dashoffset:0;marker:none;visibility:visible;display:inline;overflow:visible;enable-background:accumulate"
       id="path2930-4" />
    <path
       style="color:#000000;fill:none;stroke:#00ff00;stroke-width:12;stroke-linecap:butt;stroke-linejoin:miter;stroke-miterlimit:4;stroke-opacity:1;stroke-dasharray:none;stroke-dashoffset:0;marker:none;visibility:visible;display:inline;overflow:visible;enable-background:accumulate"
       d="M 95.109404,126.90574 C 75.978122,123.08954 30.98773,118.05772 -4.4516121,123.27192"
       id="path3992"
       sodipodi:nodetypes="cc" />
    <path
       sodipodi:nodetypes="cccc"
       d="M 52.538108,145.88549 87.58382,100.62478 M 80.759428,149.81834 59.36247,96.691906"
       style="color:#000000;fill:none;stroke:#0000ff;stroke-width:6;stroke-linecap:butt;stroke-linejoin:bevel;stroke-miterlimit:4;stroke-opacity:1;stroke-dasharray:none;stroke-dashoffset:0;marker:none;visibility:visible;display:inline;overflow:visible;enable-background:accumulate"
       id="path2930-7-4" />
    <path
       style="color:#000000;fill:none;stroke:#00ff00;stroke-width:6;stroke-linecap:butt;stroke-linejoin:miter;stroke-miterlimit:4;stroke-opacity:1;stroke-dasharray:none;stroke-dashoffset:0;marker:none;visibility:visible;display:inline;overflow:visible;enable-background:accumulate"
       d="M 229.23994,168.8551 109.47431,81.129057 80.744503,172.68241 229.23994,168.8551 z"
       id="path4007" />
    <path
       id="path3910-8"
       style="color:#000000;fill:none;stroke:#0000ff;stroke-width:6;stroke-linecap:butt;stroke-linejoin:bevel;stroke-miterlimit:4;stroke-opacity:1;stroke-dasharray:none;stroke-dashoffset:0;marker:none;visibility:visible;display:inline;overflow:visible;enable-background:accumulate"
       d="M 17.43478,145.96288 45.294053,96.113871 m 0.66971,49.597909 -29.198744,-49.346791"
       sodipodi:nodetypes="cccc" />
    <path
       id="path4150"
       d="M 229.23994,168.8551 109.47431,81.129057 80.744503,172.68241 229.23994,168.8551 z"
       style="color:#000000;fill:none;stroke:#00ff00;stroke-width:6;stroke-linecap:butt;stroke-linejoin:miter;stroke-miterlimit:4;stroke-opacity:1;stroke-dasharray:none;stroke-dashoffset:0;marker:none;visibility:visible;display:inline;overflow:visible;enable-background:accumulate" />
    <path
       style="color:#000000;fill:none;stroke:#00ff00;stroke-width:6;stroke-linecap:butt;stroke-linejoin:miter;stroke-miterlimit:4;stroke-opacity:1;stroke-dasharray:none;stroke-dashoffset:0;marker:none;visibility:visible;display:inline;overflow:visible;enable-background:accumulate"
       d="M 229.23994,168.8551 109.47431,81.129057 80.744503,172.68241 229.23994,168.8551 z"
       id="path6194" />
  </g>
</svg>
