<?xml version="1.0" encoding="UTF-8" standalone="no"?>
<!-- Created with Inkscape (http://www.inkscape.org/) -->

<svg
   xmlns:dc="http://purl.org/dc/elements/1.1/"
   xmlns:cc="http://creativecommons.org/ns#"
   xmlns:rdf="http://www.w3.org/1999/02/22-rdf-syntax-ns#"
   xmlns:svg="http://www.w3.org/2000/svg"
   xmlns="http://www.w3.org/2000/svg"
   xmlns:sodipodi="http://sodipodi.sourceforge.net/DTD/sodipodi-0.dtd"
   xmlns:inkscape="http://www.inkscape.org/namespaces/inkscape"
   width="480"
   height="320"
   id="svg2"
   version="1.1"
   inkscape:version="0.47 r22583"
   sodipodi:docname="itnas104.svg"
   inkscape:export-xdpi="90"
   inkscape:export-ydpi="90"
   inkscape:export-filename="itnas104.png">
  <defs
     id="defs4" />
  <sodipodi:namedview
     id="base"
     pagecolor="#ffffff"
     bordercolor="#666666"
     borderopacity="1.0"
     inkscape:pageopacity="1"
     inkscape:pageshadow="2"
     inkscape:zoom="1"
     inkscape:cx="391.25862"
     inkscape:cy="187.87701"
     inkscape:document-units="px"
     inkscape:current-layer="layer1"
     showgrid="false"
     inkscape:snap-nodes="true"
     inkscape:snap-global="false"
     inkscape:snap-grids="true"
     showguides="true"
     inkscape:window-width="1280"
     inkscape:window-height="774"
     inkscape:window-x="-4"
     inkscape:window-y="-4"
     inkscape:window-maximized="1"
     inkscape:guide-bbox="true">
    <inkscape:grid
       empspacing="5"
       visible="true"
       enabled="true"
       snapvisiblegridlinesonly="true"
       type="xygrid"
       id="grid2816" />
  </sodipodi:namedview>
  <metadata
     id="metadata7">
    <rdf:RDF>
      <cc:Work
         rdf:about="">
        <dc:format>image/svg+xml</dc:format>
        <dc:type
           rdf:resource="http://purl.org/dc/dcmitype/StillImage" />
        <dc:title></dc:title>
      </cc:Work>
    </rdf:RDF>
  </metadata>
  <g
     inkscape:label="Layer 1"
     inkscape:groupmode="layer"
     id="layer1"
     transform="translate(0,0)">
    <g
       id="g2937"
       transform="matrix(-0.75908939,-0.65098638,0.65098638,-0.75908939,325.00171,376.99626)"
       inkscape:transform-center-y="13.054998"
       inkscape:transform-center-x="8.0640583">
      <path
         id="path3028-1-1"
         d="m 206.19224,50.959145 -22.97456,0.002"
         style="color:#000000;fill:none;stroke:#0000ff;stroke-width:4;stroke-linecap:butt;stroke-linejoin:bevel;stroke-miterlimit:4;stroke-opacity:1;stroke-dasharray:none;stroke-dashoffset:0;marker:none;visibility:visible;display:inline;overflow:visible;enable-background:accumulate" />
      <path
         id="rect10452-0-7-5-7"
         d="m 199.99646,42.691859 -11.26117,0.06514"
         style="color:#000000;fill:none;stroke:#0000ff;stroke-width:3.99999976;stroke-linecap:butt;stroke-linejoin:bevel;stroke-miterlimit:4;stroke-opacity:1;stroke-dasharray:none;stroke-dashoffset:0;marker:none;visibility:visible;display:inline;overflow:visible;enable-background:accumulate" />
      <path
         sodipodi:nodetypes="cccc"
         d="m 208.30239,56.809745 c 0,0 -14.55766,-39.164966 -14.55766,-39.164966 l -12.23664,39.211847 c 0,0 26.7943,-0.04688 26.7943,-0.04688 z"
         style="fill:none;stroke:#00ff00;stroke-width:2;stroke-linecap:butt;stroke-linejoin:miter;stroke-miterlimit:4;stroke-opacity:1;stroke-dasharray:none"
         id="path10399-9-40" />
    </g>
    <path
       style="fill:none;stroke:#00ff00;stroke-width:4;stroke-linecap:butt;stroke-linejoin:miter;stroke-miterlimit:4;stroke-opacity:1;stroke-dasharray:none;marker-start:none;marker-mid:none;marker-end:none"
       d="m 214.61376,207.13279 c 3.14283,-3.041 5.62555,-7.67428 6.75899,-14.09815 3.4866,-19.76045 24.6494,-40.01601 53.89552,-23.77702 24.0317,13.34367 28.15367,34.51649 15.84662,46.40177 -11.73797,11.3357 -27.06741,14.61009 -37.20154,3.59369 -7.52238,-8.17729 -6.39577,-18.80963 3.08715,-24.90593 9.44766,-6.07365 24.10217,0.8984 26.00618,13.84057"
       id="path2826-1-9"
       sodipodi:nodetypes="cssssss" />
    <path
       id="path10436-7-4"
       style="fill:none;stroke:#00ff00;stroke-width:2px;stroke-linecap:butt;stroke-linejoin:miter;stroke-opacity:1"
       d="m 258.93484,181.41263 28.03309,12.19643 c 0,0 -19.86435,-15.11274 -19.86435,-15.11274 0,0 9.561,-22.09114 9.561,-22.09114 0,0 24.24277,2.26837 24.24277,2.26837 0,0 -20.08521,-25.52439 -20.08521,-25.52439"
       sodipodi:nodetypes="cccccc"
       inkscape:transform-center-x="-8.2344513"
       inkscape:transform-center-y="-3.9497371" />
    <path
       id="path10402-6-4-8"
       style="fill:none;stroke:#00ff00;stroke-width:2px;stroke-linecap:butt;stroke-linejoin:miter;stroke-opacity:1"
       d="m 238.69272,205.32764 7.75895,-26.66101 -18.01802,16.569 -13.97098,-5.61674 c 0,0 9.62126,-22.41037 9.62126,-22.41037 l -23.67724,12.36698"
       sodipodi:nodetypes="cccccc"
       inkscape:transform-center-x="-3.8954878"
       inkscape:transform-center-y="-6.9542119" />
    <path
       style="fill:none;stroke:#0000ff;stroke-width:4;stroke-linecap:butt;stroke-linejoin:miter;stroke-miterlimit:4;stroke-opacity:1;stroke-dasharray:none"
       d="m 252.80355,175.18226 c 3.26731,-3.77936 8.27395,-7.37845 10.63954,-11.52727 2.36558,-4.1488 1.31129,-8.99841 -2.82348,-9.47976 -4.13478,-0.48141 -6.46162,3.71713 -5.6474,8.44459 0.8142,4.72743 5.34801,8.81648 8.43497,13.17801"
       id="path3030-6-8"
       sodipodi:nodetypes="czzzc" />
    <g
       id="g2942"
       transform="matrix(-0.43056943,-0.6742477,0.6742477,-0.43056943,245.09497,347.38725)">
      <path
         sodipodi:nodetypes="cc"
         id="rect10452-1-7-4-2-2"
         d="m 206.66319,105.19515 c -7.91409,4.26712 -8.11323,10.1635 -0.17602,15.48704"
         style="fill:none;stroke:#0000ff;stroke-width:5;stroke-linecap:butt;stroke-linejoin:miter;stroke-miterlimit:4;stroke-opacity:1;stroke-dasharray:none" />
      <path
         sodipodi:nodetypes="cc"
         id="rect10452-1-4-4-0-7-4"
         d="m 179.489,105.38873 c 8.38416,3.32675 8.29912,11.94162 0.0734,15.23703"
         style="fill:none;stroke:#0000ff;stroke-width:5;stroke-linecap:butt;stroke-linejoin:miter;stroke-miterlimit:4;stroke-opacity:1;stroke-dasharray:none" />
      <path
         id="rect10452-0-7-4-1-5"
         d="m 193.13509,122.31481 0.17678,-18.66053"
         style="fill:none;stroke:#0000ff;stroke-width:5;stroke-linecap:butt;stroke-linejoin:bevel;stroke-miterlimit:4;stroke-opacity:1;stroke-dasharray:none" />
    </g>
    <path
       style="fill:none;stroke:#000000;stroke-width:1px;stroke-linecap:butt;stroke-linejoin:miter;stroke-opacity:1"
       d="m -89.037432,166.20132 32.69028,29.11331"
       id="path2888" />
    <path
       style="fill:none;stroke:#000000;stroke-width:1px;stroke-linecap:butt;stroke-linejoin:miter;stroke-opacity:1"
       d="m -81.588859,115.12769 -6.706873,44.76057"
       id="path2858" />
    <path
       style="fill:none;stroke:#000000;stroke-width:1px;stroke-linecap:butt;stroke-linejoin:miter;stroke-opacity:1"
       d="m -31.246322,179.99414 -24.57175,14.55391"
       id="path2892" />
    <path
       style="fill:none;stroke:#000000;stroke-width:1px;stroke-linecap:butt;stroke-linejoin:miter;stroke-opacity:1"
       d="m -22.563492,153.3934 -7.93741,25.25539"
       id="path2860" />
    <path
       style="fill:none;stroke:#000000;stroke-width:1px;stroke-linecap:butt;stroke-linejoin:miter;stroke-opacity:1"
       d="m -49.518022,120.87906 23.90906,28.02868"
       id="path2868" />
    <path
       style="fill:none;stroke:#000000;stroke-width:1px;stroke-linecap:butt;stroke-linejoin:miter;stroke-opacity:1"
       d="m -54.054632,122.41585 -24.017723,9.4551"
       id="path2870" />
    <path
       style="fill:none;stroke:#000000;stroke-width:1px;stroke-linecap:butt;stroke-linejoin:miter;stroke-opacity:1"
       d="m -77.65328,136.35045 -1.320424,16.0859"
       id="path2872" />
    <path
       style="fill:none;stroke:#00ff00;stroke-width:4;stroke-linecap:butt;stroke-linejoin:miter;stroke-miterlimit:4;stroke-opacity:1;stroke-dasharray:none;marker-start:none;marker-mid:none;marker-end:none"
       d="m 158.0725,201.06512 c 0,0 -1.99191,-8.33086 -8.81875,-21.54143 C 138.26943,158.268 119.03073,145.33495 97.98895,124.19612 76.222087,102.32885 74.488816,62.260276 84.243544,43.74233 91.306592,30.334154 107.08496,20.631581 121.53722,17.227827 c 12.80755,-3.016396 26.84511,-0.821111 37.59333,4.90492"
       id="path2826-1"
       sodipodi:nodetypes="csssss" />
    <path
       id="path10436-7"
       style="fill:none;stroke:#00ff00;stroke-width:2px;stroke-linecap:butt;stroke-linejoin:miter;stroke-opacity:1"
       d="m 124.58418,65.317607 -28.949063,20.08533 c 0,0 14.440093,28.217143 14.440093,28.217143 0,0 -22.33659,21.90621 -22.33659,21.90621 0,0 -27.077868,-10.95001 -27.077868,-10.95001 0,0 -18.35395,30.0081 -18.35395,30.0081"
       sodipodi:nodetypes="cccccc"
       inkscape:transform-center-y="-14.906746"
       inkscape:transform-center-x="14.851988" />
    <path
       id="path10402-6-4"
       style="fill:none;stroke:#00ff00;stroke-width:2px;stroke-linecap:butt;stroke-linejoin:miter;stroke-opacity:1"
       d="m 132.55788,117.84021 26.76665,27.23308 -0.77138,31.46755 -18.13019,8.82081 c 0,0 -24.53519,-18.78801 -24.53519,-18.78801 l 3.11022,32.13085"
       sodipodi:nodetypes="cccccc"
       inkscape:transform-center-x="10.074271"
       inkscape:transform-center-y="-9.0556865" />
    <g
       id="g5235"
       transform="translate(0.75,1)">
      <path
         sodipodi:nodetypes="czzs"
         id="path4346"
         d="m 167.74661,210.28655 c -1.27737,-4.82623 -2.53737,-9.16381 -6.57534,-8.1371 -4.00487,1.01826 -2.3235,8.95517 -6.28752,9.87007 -3.99735,0.9226 -5.13601,-3.21437 -6.44577,-8.16296"
         style="color:#000000;fill:none;stroke:#0000ff;stroke-width:4;stroke-linecap:butt;stroke-linejoin:miter;stroke-miterlimit:4;stroke-opacity:1;stroke-dasharray:none;stroke-dashoffset:0;marker:none;visibility:visible;display:inline;overflow:visible;enable-background:accumulate" />
      <path
         id="path3010"
         style="fill:none;stroke:#00ff00;stroke-width:2;stroke-linecap:butt;stroke-linejoin:miter;stroke-miterlimit:4;stroke-opacity:1;stroke-dasharray:none"
         d="m 144.00209,204.35693 c 0,0 23.69705,34.6515 23.69705,34.6515 l 2.07348,-41.92576 c 0,0 -22.7412,6.23341 -25.77053,7.27426 z"
         sodipodi:nodetypes="cccc" />
    </g>
    <path
       style="color:#000000;fill:none;stroke:#000000;stroke-width:6;stroke-linecap:butt;stroke-linejoin:miter;stroke-miterlimit:4;stroke-dashoffset:0;stroke-opacity:1;marker:none;visibility:visible;display:inline;overflow:visible;enable-background:accumulate"
       d="m 380.42343,323.03549 0,-271.736067 102.61893,0"
       id="rect3012"
       sodipodi:nodetypes="ccc" />
    <g
       id="g3908"
       transform="matrix(1.5,0,0,1.5,398.53944,12.896601)">
      <path
         sodipodi:nodetypes="cccccc"
         id="path3906"
         d="m 22.128944,126.18057 10,0 0,-20 0,0 c -5.54,0 -10,4.46 -10,10 l 0,10 z"
         style="fill:none;stroke:#dede01;stroke-width:1.33333349;stroke-linecap:butt;stroke-linejoin:miter;stroke-miterlimit:4;stroke-opacity:1;stroke-dashoffset:0;marker:none;visibility:visible;display:inline;overflow:visible;enable-background:accumulate" />
      <path
         sodipodi:nodetypes="ccccc"
         id="path4478"
         d="m 12.129,126.18057 10.000001,0 0,-20 c -5.540001,0 -10.000001,4.46 -10.000001,10 l 0,10 z"
         style="fill:none;stroke:#dede01;stroke-width:1.33333349;stroke-linecap:butt;stroke-linejoin:miter;stroke-miterlimit:4;stroke-opacity:1;stroke-dashoffset:0;marker:none;visibility:visible;display:inline;overflow:visible;enable-background:accumulate" />
    </g>
    <g
       style="display:inline"
       id="g5142"
       transform="matrix(0.6178219,0.78631807,-0.78631807,0.6178219,274.53271,-317.68028)">
      <rect
         y="200"
         x="360"
         height="20"
         width="20"
         id="rect5063"
         style="color:#000000;fill:none;stroke:#59bbbc;stroke-width:2;stroke-linecap:butt;stroke-linejoin:bevel;stroke-miterlimit:4;stroke-opacity:1;stroke-dasharray:none;stroke-dashoffset:0;marker:none;visibility:visible;display:inline;overflow:visible;enable-background:accumulate" />
      <path
         id="path5065-9"
         d="m 370.49997,190.00003 -20.49999,19.99999 19.99999,20 20,-20 -19.5,-19.99999 z"
         style="fill:none;stroke:#59bbbc;stroke-width:2;stroke-linecap:butt;stroke-linejoin:bevel;stroke-miterlimit:4;stroke-opacity:1;stroke-dasharray:none;display:inline" />
      <rect
         y="190"
         x="350"
         height="40"
         width="40"
         id="rect5089"
         style="color:#000000;fill:none;stroke:#59bbbc;stroke-width:2;stroke-linecap:butt;stroke-linejoin:miter;stroke-miterlimit:4;stroke-opacity:1;stroke-dasharray:none;stroke-dashoffset:0;marker:none;visibility:visible;display:inline;overflow:visible;enable-background:accumulate" />
    </g>
    <path
       sodipodi:nodetypes="ccccc"
       d="m 127.16951,133.99647 -17.6554,17.95357 29.41995,-6.38441 -17.65541,17.95357 5.89086,-29.52273 z"
       style="color:#000000;fill:none;stroke:#0000ff;stroke-width:4;stroke-linecap:butt;stroke-linejoin:bevel;stroke-miterlimit:4;stroke-opacity:1;stroke-dasharray:none;stroke-dashoffset:0;marker:none;visibility:visible;display:inline;overflow:visible;enable-background:accumulate"
       id="rect10452-0-7-5-3-2-9-5" />
    <path
       id="rect10452-0-7-5-3-2-9-7"
       style="color:#000000;fill:none;stroke:#0000ff;stroke-width:4;stroke-linecap:butt;stroke-linejoin:miter;stroke-miterlimit:4;stroke-opacity:1;stroke-dasharray:none;stroke-dashoffset:0;marker:none;visibility:visible;display:inline;overflow:visible;enable-background:accumulate"
       d="m 110.41326,118.1581 11.59002,11.74399 m -29.512221,5.94326 11.590021,11.74398 m 12.12719,-23.55923 -17.922201,17.68724" />
  </g>
</svg>
