<?xml version="1.0" encoding="UTF-8" standalone="no"?>
<!-- Created with Inkscape (http://www.inkscape.org/) -->

<svg
   xmlns:dc="http://purl.org/dc/elements/1.1/"
   xmlns:cc="http://creativecommons.org/ns#"
   xmlns:rdf="http://www.w3.org/1999/02/22-rdf-syntax-ns#"
   xmlns:svg="http://www.w3.org/2000/svg"
   xmlns="http://www.w3.org/2000/svg"
   xmlns:sodipodi="http://sodipodi.sourceforge.net/DTD/sodipodi-0.dtd"
   xmlns:inkscape="http://www.inkscape.org/namespaces/inkscape"
   width="480"
   height="320"
   id="svg2"
   version="1.1"
   inkscape:version="0.48.0 r9654"
   sodipodi:docname="itnas348.svg"
   inkscape:export-xdpi="90"
   inkscape:export-ydpi="90"
   inkscape:export-filename="itnas348.png">
  <defs
     id="defs4">
    <inkscape:perspective
       sodipodi:type="inkscape:persp3d"
       inkscape:vp_x="0 : 160 : 1"
       inkscape:vp_y="0 : 1000 : 0"
       inkscape:vp_z="480 : 160 : 1"
       inkscape:persp3d-origin="240 : 106.66667 : 1"
       id="perspective8" />
  </defs>
  <sodipodi:namedview
     id="base"
     pagecolor="#ffffff"
     bordercolor="#666666"
     borderopacity="1.0"
     inkscape:pageopacity="1"
     inkscape:pageshadow="2"
     inkscape:zoom="2"
     inkscape:cx="175.54525"
     inkscape:cy="120.93776"
     inkscape:document-units="px"
     inkscape:current-layer="layer1"
     showgrid="false"
     inkscape:snap-nodes="true"
     inkscape:snap-global="false"
     inkscape:snap-grids="true"
     showguides="true"
     inkscape:window-width="1030"
     inkscape:window-height="774"
     inkscape:window-x="-4"
     inkscape:window-y="-4"
     inkscape:window-maximized="1">
    <inkscape:grid
       empspacing="5"
       visible="true"
       enabled="true"
       snapvisiblegridlinesonly="true"
       type="xygrid"
       id="grid2816" />
  </sodipodi:namedview>
  <metadata
     id="metadata7">
    <rdf:RDF>
      <cc:Work
         rdf:about="">
        <dc:format>image/svg+xml</dc:format>
        <dc:type
           rdf:resource="http://purl.org/dc/dcmitype/StillImage" />
        <dc:title />
      </cc:Work>
    </rdf:RDF>
  </metadata>
  <g
     inkscape:label="Layer 1"
     inkscape:groupmode="layer"
     id="layer1"
     transform="translate(0,0)">
    <path
       style="color:#000000;fill:none;stroke:#808080;stroke-width:4;stroke-linecap:round;stroke-linejoin:round;stroke-miterlimit:4;stroke-opacity:1;stroke-dasharray:none;stroke-dashoffset:0;marker:none;visibility:visible;display:inline;overflow:visible;enable-background:accumulate"
       d="m 15.464466,155.64466 c 0.937692,-5.26355 -0.374369,-20.03011 -1.5,-25 C 9.862986,112.53578 12.598556,116.00373 17,106 21.502551,95.76647 20.58942,94.894481 22,92 24.040117,87.813722 43.213205,68.595598 48,67 c 7.526128,-2.508709 16.607504,-3.535835 24,-6 8.950942,-2.983647 13.48018,-10 25,-10 9.08107,0 11.44845,12.289537 30.26346,7.585786 C 138.75714,55.712366 146.23206,59.589312 154,57 c 18.33274,-6.110912 46.82059,-9.153019 66.67157,-7.656854 14.79289,1.114937 18.30797,6.338213 29.95291,6.436293 50.11815,0.422121 37.21822,6.115256 65.13288,24.676405 16.549,11.00384 14.72899,4.1232 41.88376,7.305248 C 365.55649,88.688631 358.13645,55.955971 361,56 c 8.14512,0.125236 0.037,-26.9577 6.99296,-31.607695 7.19963,-4.812895 26.41731,-0.726934 36.21281,1.277568 2.40961,0.493089 3.74979,2.838516 6.06218,3.5 14.03953,4.016161 19.76591,3.328952 33.81089,11.437822 1.67723,0.96835 6.93464,-1.394763 6.9282,4 -0.0149,12.450572 -14.57249,50.451465 -9.6639,58.534445"
       id="path6106"
       inkscape:connector-curvature="0"
       sodipodi:nodetypes="cssssssssssssssssssc" />
    <path
       style="color:#000000;fill:none;stroke:#008000;stroke-width:4;stroke-linecap:round;stroke-linejoin:round;stroke-miterlimit:4;stroke-opacity:1;stroke-dasharray:none;stroke-dashoffset:0;marker:none;visibility:visible;display:inline;overflow:visible;enable-background:accumulate"
       d="m 441.34314,103.14214 c 0.61138,1.00675 8.42315,4.53102 9.65686,11.07106 4.02444,21.33408 12.18042,1.49008 15.98519,22.6581 1.5022,8.35756 3.34005,3.71928 4.1733,13.78177 1.12569,13.5941 -1.7744,11.87492 -1.45138,26.28806 C 470.00843,190.38611 471,214.31717 471,229 c 0,12.32497 -12.04546,23.17618 -15.97056,34.75736 -7.42659,21.91243 -7.21295,5.24193 -16.92031,29.58579 -8.39697,21.05768 -9.60242,33.72792 -9.60242,33.72792"
       id="path5857" />
    <path
       id="path5983"
       style="color:#000000;fill:none;stroke:#008000;stroke-width:4;stroke-linecap:round;stroke-linejoin:round;stroke-miterlimit:4;stroke-opacity:1;stroke-dasharray:none;stroke-dashoffset:0;marker:none;visibility:visible;display:inline;overflow:visible;enable-background:accumulate"
       d="m 49.594406,244.92752 c 10.034869,21.25394 3.515349,24.85175 17.144614,33.57087 14.822149,9.48226 19.544406,17.83643 27.438474,15.49876 21.048586,-6.23312 23.405046,-12.76614 32.661116,-16.44656 11.26904,-4.48082 12.74209,-12.34318 24.7574,-10.30751 8.45325,1.43217 17.81092,-6.33633 26.4747,-8.39153 3.0709,-0.72846 6.63519,0.95632 9.64887,-0.17757 1.46646,-0.55174 3.07967,-2.56048 4.77464,-3.05197 10.82979,-3.14032 20.10779,-2.54325 30.60135,-6.49139 5.91315,-2.22479 3.36419,-6.72445 20.23493,-14.20491 7.58233,-3.36199 14.3408,-8.31196 20.23493,-14.20491 1.90922,-1.90884 3.61299,-0.16885 5.52221,-2.0777 3.88537,-3.88458 10.5034,-11.0617 15.4603,-11.15293 1.0493,0.0148 9.15971,-2.8218 10.21795,-3.15215 6.68112,-3.62689 14.83363,3.11568 22.10772,3.54529 12.45432,0.73558 24.70523,6.69417 33.81758,15.18624 m 0,0 c 2.07935,1.93781 -0.0705,5.33191 0.17239,5.92505 6.84047,16.70263 -0.26822,23.2215 1.60427,34.55177 0.63532,3.84423 -3.77564,10.15988 -4.9251,14.96226 -8.21904,34.33879 -5.05869,9.33943 -15.90154,37.16872 -4.9825,12.78811 -6.5684,14.28505 -14.17353,21.79197"
       inkscape:connector-curvature="0"
       sodipodi:nodetypes="csssssssssssccsccssssc" />
    <path
       style="color:#000000;fill:none;stroke:#c87137;stroke-width:3.99999976;stroke-linecap:round;stroke-linejoin:round;stroke-miterlimit:4;stroke-opacity:1;stroke-dasharray:none;stroke-dashoffset:0;marker:none;visibility:visible;display:inline;overflow:visible;enable-background:accumulate"
       d="m 30.303053,157.84129 c -0.282065,4.94187 -6.795815,63.81231 -6.312499,64.56015 1.287244,1.99176 24.963171,9.80493 25.493881,10.62612 0.965988,1.49468 1.290229,2.78186 2.834969,4.38658 4.663594,4.84462 12.775206,8.59594 12.376659,8.53233 -1.457467,-0.23263 0.394967,-3.4339 0.592448,-5.15085 0.938042,-8.1555 1.876086,-16.31104 2.814129,-24.46655 0.390943,-3.39893 4.277495,-34.33738 3.999024,-34.76825 -2.841373,-4.3965 -9.80038,-6.06293 -12.228549,-9.82005 -5.873227,-9.08774 -17.451418,-17.48144 -29.570062,-13.89948 z"
       id="path5853"
       inkscape:connector-curvature="0" />
    <path
       style="color:#000000;fill:none;stroke:#0000ff;stroke-width:4;stroke-linecap:round;stroke-linejoin:round;stroke-miterlimit:4;stroke-opacity:1;stroke-dasharray:none;stroke-dashoffset:0;marker:none;visibility:visible;display:inline;overflow:visible;enable-background:accumulate"
       d="m 417.19488,312.77174 c 3.01697,-7.51877 2.99446,-10.45306 6.85612,-16.17365 14.0263,-36.03953 7.68446,-16.06385 21.11052,-35.81986 1.37243,-39.89105 9.32455,-31.05764 11.09743,-50.28074 4.0136,-43.51896 2.08947,-46.74299 -4.24978,-65.75625 -4.10739,-12.31928 -11.46816,-9.127 -18.51902,-23.61524 -4.34255,-8.92317 -2.48406,-9.15765 -0.30126,-24.32593"
       id="path4436"
       inkscape:connector-curvature="0"
       sodipodi:nodetypes="cccsssc" />
    <path
       style="color:#000000;fill:none;stroke:#0000ff;stroke-width:4;stroke-linecap:round;stroke-linejoin:round;stroke-miterlimit:4;stroke-opacity:1;stroke-dasharray:none;stroke-dashoffset:0;marker:none;visibility:visible;display:inline;overflow:visible;enable-background:accumulate"
       d="m 413.15403,95.942826 c -0.31878,11.487794 -0.83835,21.809174 3.70411,32.846724 5.35668,13.01597 16.86413,8.16778 22.89606,22.4557 2.70559,6.40878 0.86959,28.41862 3.44973,36.67101 1.9337,6.18481 1.22064,17.74068 -4.11721,21.68589 -16.16548,11.94793 1.53882,21.2607 -18.32969,48.93187 -2.85086,3.97043 -0.43171,9.00818 -3.04374,13.23347 -11.268,18.22741 -19.94851,21.9972 -21.25497,41.56473"
       id="path5352"
       inkscape:connector-curvature="0"
       sodipodi:nodetypes="cssssssc" />
    <path
       style="color:#000000;fill:none;stroke:#0000ff;stroke-width:4;stroke-linecap:round;stroke-linejoin:round;stroke-miterlimit:4;stroke-opacity:1;stroke-dasharray:none;stroke-dashoffset:0;marker:none;visibility:visible;display:inline;overflow:visible;enable-background:accumulate"
       d="m 398.7563,90.712691 c 1.42545,7.380441 -0.62338,8.015542 -1.06145,15.498909 -0.36963,6.31437 1.14232,16.78526 5.53136,23.98718"
       id="path3326"
       inkscape:connector-curvature="0"
       sodipodi:nodetypes="csc" />
    <path
       style="color:#000000;fill:none;stroke:#0000ff;stroke-width:4;stroke-linecap:round;stroke-linejoin:round;stroke-miterlimit:4;stroke-opacity:1;stroke-dasharray:none;stroke-dashoffset:0;marker:none;visibility:visible;display:inline;overflow:visible;enable-background:accumulate"
       d="m 392.08998,144.0289 c 2.39461,13.39668 9.15145,15.85021 4.79705,30.16445 -3.28094,10.78548 3.46598,25.15741 6.56082,45.12239"
       id="path3324"
       inkscape:connector-curvature="0"
       sodipodi:nodetypes="csc" />
    <path
       style="color:#000000;fill:none;stroke:#0000ff;stroke-width:4;stroke-linecap:round;stroke-linejoin:round;stroke-miterlimit:4;stroke-opacity:1;stroke-dasharray:none;stroke-dashoffset:0;marker:none;visibility:visible;display:inline;overflow:visible;enable-background:accumulate"
       d="m 415.83979,238.94686 c -11.17934,9.37782 0.44189,8.26263 -10.15863,20.59175 -11.62557,13.52132 -19.38978,15.51298 -19.62391,21.01345 -0.81023,19.03459 -9.95155,16.5952 -10.9958,32.23553"
       id="path5354"
       inkscape:connector-curvature="0"
       sodipodi:nodetypes="cssc" />
    <path
       style="color:#000000;fill:none;stroke:#0000ff;stroke-width:3.99999976;stroke-linecap:round;stroke-linejoin:round;stroke-miterlimit:4;stroke-opacity:1;stroke-dasharray:none;stroke-dashoffset:0;marker:none;visibility:visible;display:inline;overflow:visible;enable-background:accumulate"
       d="m 384.20662,231.71481 c 0.71067,-7.28746 6.75195,-16.90713 3.21947,-22.32416 -10.64997,-16.33165 -5.28735,-17.80563 -7.82848,-45.04471 -1.03104,-11.05203 -8.28768,-2.99951 -1.92375,-28.34864"
       id="path3330"
       inkscape:connector-curvature="0"
       sodipodi:nodetypes="cssc" />
    <path
       style="color:#000000;fill:none;stroke:#0000ff;stroke-width:4;stroke-linecap:round;stroke-linejoin:round;stroke-miterlimit:4;stroke-opacity:1;stroke-dasharray:none;stroke-dashoffset:0;marker:none;visibility:visible;display:inline;overflow:visible;enable-background:accumulate"
       d="m 385.10858,118.05526 c -2.13688,-10.31987 -2.9613,-24.390787 -4.17273,-32.308425"
       id="path5356"
       inkscape:connector-curvature="0" />
    <path
       style="color:#000000;fill:none;stroke:#c87137;stroke-width:4;stroke-linecap:round;stroke-linejoin:round;stroke-miterlimit:4;stroke-opacity:1;stroke-dasharray:none;stroke-dashoffset:0;marker:none;visibility:visible;display:inline;overflow:visible;enable-background:accumulate"
       d="m 315.24445,194.60699 c -17.54548,0.71791 -22.58224,5.14895 -38.67272,5.80563 -4.99754,0.20398 -9.99486,-0.37392 -14.74134,1.02229 -3.6243,1.06616 -29.11201,9.87033 -20.78503,-0.63119 0.83702,-1.05558 6.98048,-3.76878 8.33489,-4.09763 17.74847,-4.30921 25.61455,-6.24677 43.58357,-6.9801 4.73799,-0.19336 9.72111,-2.35919 14.44455,-1.96347 1.45724,0.12206 10.97879,2.36583 9.79363,4.31103 -0.63133,1.03617 -1.03095,1.75001 -1.95756,2.53338 z"
       id="path3075"
       inkscape:connector-curvature="0"
       sodipodi:nodetypes="cssssscsc" />
    <path
       style="color:#000000;fill:none;stroke:#c87137;stroke-width:4;stroke-linecap:round;stroke-linejoin:round;stroke-miterlimit:4;stroke-opacity:1;stroke-dasharray:none;stroke-dashoffset:0;marker:none;visibility:visible;display:inline;overflow:visible;enable-background:accumulate"
       d="m 168.79585,249.42073 c 2.85528,4.39399 23.7172,-9.06928 37.06525,-19.75898 0.71232,-0.57049 13.55642,-5.85789 20.70057,-10.82144 6.06482,-4.21368 6.77278,-8.17621 5.62945,-9.00858 -1.82029,-1.32524 -22.5254,12.22886 -24.18953,13.09073 -19.89212,10.30203 -38.34495,22.11096 -39.20574,26.49827 z"
       id="path3073"
       inkscape:connector-curvature="0"
       sodipodi:nodetypes="cssssc" />
    <path
       sodipodi:nodetypes="csssssccc"
       inkscape:connector-curvature="0"
       id="path5440"
       d="m 91.794296,279.51419 c 16.534744,-9.3726 23.065664,-8.89845 36.364604,-17.53984 4.19405,-2.72522 4.68048,-2.63846 8.62154,-5.62954 3.00932,-2.28393 23.37323,-14.86175 24.51628,-4.56016 0.14905,1.33891 -4.57518,3.56208 -8.40403,4.49178 -15.55056,3.77583 -22,12.81897 -38.53691,19.88676 -4.36037,1.8636 -6.6262,3.38262 -10.68703,6.69158 -2.21202,-0.58374 -11.347672,5.49615 -10.930684,3.25685 -2.342474,-3.16934 -3.673131,-3.93587 -0.94377,-6.59743 z"
       style="color:#000000;fill:none;stroke:#c87137;stroke-width:4;stroke-linecap:round;stroke-linejoin:round;stroke-miterlimit:4;stroke-opacity:1;stroke-dasharray:none;stroke-dashoffset:0;marker:none;visibility:visible;display:inline;overflow:visible;enable-background:accumulate" />
    <path
       sodipodi:nodetypes="cssssscc"
       inkscape:connector-curvature="0"
       id="path5442"
       d="m 202.15743,247.79923 c -5.69157,-7.85091 3.55025,-7.25681 9.46545,-11.50195 8.80257,-6.31731 14.88243,-8.60744 23.21956,-14.06619 12.90074,-8.44685 15.09218,-5.19428 21.27777,-11.31099 5.39222,-5.33217 7.47765,-5.68755 10.59371,-0.78664 1.74439,2.74356 -21.06597,14.73447 -22.84932,15.31043 -21.72029,7.01476 -36.0491,23.51833 -41.70715,22.35538 z"
       style="color:#000000;fill:none;stroke:#c87137;stroke-width:4;stroke-linecap:round;stroke-linejoin:round;stroke-miterlimit:4;stroke-opacity:1;stroke-dasharray:none;stroke-dashoffset:0;marker:none;visibility:visible;display:inline;overflow:visible;enable-background:accumulate" />
    <path
       style="color:#000000;fill:none;stroke:#80ff00;stroke-width:3.99999952;stroke-linecap:round;stroke-linejoin:round;stroke-miterlimit:4;stroke-opacity:1;stroke-dasharray:none;stroke-dashoffset:0;marker:none;visibility:visible;display:inline;overflow:visible;enable-background:accumulate"
       d="m 86.936869,166.55638 c 10.906881,9.41309 6.543524,11.98903 21.523441,20.1504 9.8113,5.3454 8.56918,8.81504 30.38462,8.79867 18.5284,-0.0139 13.20946,-0.80538 32.93678,-8.38339 10.25081,-3.93772 10.3253,0.0434 25.6457,-13.14536 4.9744,-4.28228 1.58576,-3.67313 8.51009,-5.1642 6.69125,-1.44088 20.0734,-13.8266 40.25465,-13.54123 15.67386,0.22164 7.17451,2.18694 23.78879,-1.63173 18.96417,-4.35877 25.80218,-4.51507 49.46191,-1.36099 27.62729,3.683 12.92997,7.86303 31.53819,11.6529 18.61144,3.79054 9.1336,15.00083 18.142,31.05628 5.97164,10.64312 -2.21912,18.55452 -0.25477,35.28613"
       id="path6294"
       inkscape:connector-curvature="0"
       sodipodi:nodetypes="ssssssssssss" />
    <path
       style="color:#000000;fill:none;stroke:#80ff00;stroke-width:3.99999952;stroke-linecap:round;stroke-linejoin:round;stroke-miterlimit:4;stroke-opacity:1;stroke-dasharray:none;stroke-dashoffset:0;marker:none;visibility:visible;display:inline;overflow:visible;enable-background:accumulate"
       d="m 73.046544,185.4996 c 3.528479,6.09129 5.907369,-2.22345 8.135212,6.45665 4.24424,16.53636 8.51458,30.37988 17.614614,33.28789 6.86195,2.19279 -0.35294,-24.74659 0.12306,-28.98229 -1.32692,-9.57127 7.60872,-10.26145 7.60366,-6.35671 -0.0157,12.10118 -1.97447,8.10781 2.73389,17.25065 2.60471,5.05791 2.42956,6.51449 2.12127,11.50854 -0.41675,6.75129 0.98564,14.46996 -2.28933,20.37177 -1.02149,1.84083 -11.40212,-1.59948 -13.968269,-1.06658 -11.647923,2.41887 -7.400582,0.10129 -20.728949,0.27505 -3.243668,0.0423 -4.609102,3.27176 -8.000382,4.51636"
       id="path6301"
       inkscape:connector-curvature="0"
       sodipodi:nodetypes="ssscsssssss" />
    <path
       style="color:#000000;fill:none;stroke:#80ff00;stroke-width:3.99999952;stroke-linecap:round;stroke-linejoin:round;stroke-miterlimit:4;stroke-opacity:1;stroke-dasharray:none;stroke-dashoffset:0;marker:none;visibility:visible;display:inline;overflow:visible;enable-background:accumulate"
       d="m 197.2945,216.22951 c 2.92791,-1.56651 4.00524,-0.22163 4.14041,-3.94284 0.11508,-3.16773 6.23127,-5.12336 8.26702,-6.59702 4.83528,-3.50022 7.53658,-0.71903 13.10535,-4.33699 6.44255,-4.18564 7.13652,-4.12848 14.83894,-7.40391 3.30791,-1.40667 -0.0128,-2.97634 0.75482,-12.72802 0.48856,-6.20622 2.98958,-7.26755 2.03037,-13.42296 -0.55787,-3.57996 -0.75044,-10.22345 -3.69607,-9.95019 -3.2915,0.30532 -3.41591,5.67782 -4.61444,7.56722 -3.04294,4.79702 -4.58577,9.45855 -5.80589,14.99169 -1.28397,5.82275 -2.39505,8.58291 -5.23178,9.55538 -10.33759,3.54385 -10.14993,4.93217 -18.17632,8.57318 -3.52099,1.59723 -7.68095,4.72146 -10.10151,7.66295 -1.30434,1.58504 -0.98626,3.25579 -3.04743,3.45831"
       id="path3015"
       inkscape:connector-curvature="0"
       sodipodi:nodetypes="ssssssssssssss" />
    <path
       style="color:#000000;fill:none;stroke:#ffff00;stroke-width:3.99999976000000010;stroke-linecap:round;stroke-linejoin:round;stroke-miterlimit:4;stroke-opacity:1;stroke-dasharray:none;stroke-dashoffset:0;marker:none;visibility:visible;display:inline;overflow:visible;enable-background:accumulate"
       d="m 15.803053,156.34129 c -0.282065,4.94187 -6.7958148,63.81231 -6.3124988,64.56015 1.2872438,1.99176 24.9631708,9.80493 25.4938808,10.62612 0.965988,1.49468 1.290229,2.78186 2.834969,4.38658 4.663594,4.84462 12.775206,8.59594 12.376659,8.53233 -1.457467,-0.23263 0.394967,-3.4339 0.592448,-5.15085 0.938042,-8.1555 1.876086,-16.31104 2.814129,-24.46655 0.390943,-3.39893 4.277495,-34.33738 3.999024,-34.76825 -2.841373,-4.3965 -9.80038,-6.06293 -12.228549,-9.82005 -5.873227,-9.08774 -17.451418,-17.48144 -29.570062,-13.89948 z"
       id="path5853-4"
       inkscape:connector-curvature="0" />
    <path
       style="color:#000000;fill:none;stroke:#80ff00;stroke-width:3.99999952;stroke-linecap:round;stroke-linejoin:round;stroke-miterlimit:4;stroke-opacity:1;stroke-dasharray:none;stroke-dashoffset:0;marker:none;visibility:visible;display:inline;overflow:visible;enable-background:accumulate"
       d="m 98.954721,156.98098 c -4.58976,4.05409 -14.471732,8.99782 -19.73215,11.47368 -2.74693,1.29288 -3.845086,3.86764 -6.756628,5.23799 -0.565281,0.26606 -1.620896,-0.26605 -2.186179,0 -0.884946,0.41651 -4.54368,4.08527 -4.653414,3.99084 -0.321952,-0.27702 -5.957107,-15.60621 -6.063832,-17.21051 -0.132374,-1.98983 0.14769,-4.65277 -0.977969,-6.48513 -6.008127,-9.78007 -7.740684,-17.76997 -8.599498,-30.67961 -0.03147,-0.47309 -0.50913,-2.69189 -0.199117,-2.99312 2.611051,-2.53729 10.466486,3.40415 12.322665,4.4897 5.581865,3.26438 12.826987,6.26555 16.579902,10.9748 1.772948,2.22475 7.374952,5.40551 9.499194,7.23341 0.562187,0.48376 3.135356,1.54507 3.412015,1.99542 0.515384,0.83894 0.02475,1.90248 0.712477,2.49428 1.364983,1.17456 6.232509,2.58314 7.403763,4.4897 0.83252,1.35519 -0.294431,4.01864 -0.761229,4.98855 z"
       id="path3039"
       inkscape:connector-curvature="0"
       sodipodi:nodetypes="cssccssssssssssc" />
    <path
       inkscape:connector-curvature="0"
       id="path4219-0"
       d="m 20.956414,150.90133 c 2.061018,-5.77372 6.371459,-11.17772 6.394265,-17.50528 3.528158,-5.53033 -5.516239,-3.59684 5.858536,-18.8034 2.247508,-5.08276 6.041254,-10.23163 5.991901,-15.47468 -2.430884,-11.463917 2.535161,-18.841018 8.298882,-25.617968"
       style="fill:none;stroke:#ffff00;stroke-width:3.99999976;stroke-linecap:round;stroke-linejoin:round;stroke-miterlimit:4;stroke-opacity:1;stroke-dasharray:none"
       sodipodi:nodetypes="ccccc" />
    <path
       inkscape:connector-curvature="0"
       id="path4219-0-0"
       d="m 54.197745,244.2469 c 7.168536,2.71104 12.694081,10.43238 20.677196,10.96471 5.224833,4.78813 14.5605,2.17205 22.351569,9.00871 14.90597,5.8934 19.61271,9.25882 36.56008,10.8273"
       style="fill:none;stroke:#ffff00;stroke-width:4;stroke-linecap:round;stroke-linejoin:round;stroke-miterlimit:4;stroke-opacity:1;stroke-dasharray:none"
       sodipodi:nodetypes="cccc" />
    <path
       style="color:#000000;fill:none;stroke:#ffff00;stroke-width:3.99999976;stroke-linecap:round;stroke-linejoin:round;stroke-miterlimit:4;stroke-opacity:1;stroke-dasharray:none;stroke-dashoffset:0;marker:none;visibility:visible;display:inline;overflow:visible;enable-background:accumulate"
       d="m 61.687156,179.07549 c 6.583207,-2.35999 9.68896,-2.92964 12.560038,-2.77379 12.264528,0.66575 19.308698,-3.23953 31.569366,-11.28373 5.69337,-3.73541 7.67269,-3.95733 13.74865,-3.11752 11.74548,1.62344 12.8884,-0.35416 21.62659,-6.90693 8.59718,-6.44703 3.26626,-9.70784 22.5177,-8.89515"
       id="path3044"
       inkscape:connector-curvature="0"
       sodipodi:nodetypes="cssssc" />
    <path
       style="color:#000000;fill:none;stroke:#ffff00;stroke-width:3.99999976;stroke-linecap:round;stroke-linejoin:round;stroke-miterlimit:4;stroke-opacity:1;stroke-dasharray:none;stroke-dashoffset:0;marker:none;visibility:visible;display:inline;overflow:visible;enable-background:accumulate"
       d="m 9.089165,225.33976 c -0.069824,3.2107 3.111499,7.81434 3.497763,11.00104 1.93373,15.95374 -0.359208,7.92731 -1.731867,21.62635 -1.5011125,14.98097 -3.3212919,14.39344 2.750221,25.85893 4.718746,8.91091 -0.271235,16.50769 1.142586,29.13205"
       id="path3050"
       inkscape:connector-curvature="0"
       sodipodi:nodetypes="csssc" />
    <path
       style="color:#000000;fill:none;stroke:#808080;stroke-width:4;stroke-linecap:round;stroke-linejoin:round;stroke-miterlimit:4;stroke-opacity:1;stroke-dasharray:none;stroke-dashoffset:0;marker:none;visibility:visible;display:inline;overflow:visible;enable-background:accumulate"
       d="M 20,65.000004 C 19.313964,48.472743 7.0415107,43.225924 18.005285,27.283391 26.004716,15.651339 40.490869,6.7259315 52.532789,18.324801 62.68435,28.102862 65.041945,37.373935 52.611946,45.726279 33.582501,58.513124 19.574907,33.218115 37.617196,26.31486 52.046856,20.793852 69.497047,7.5720662 84.26592,16.674942 c 12.342022,7.607073 14.137213,29.03287 30.73619,29.271855 16.90165,0.243343 43.09365,-3.187421 43.07722,-23.701048 -0.0189,-23.6622382 -43.24469,-24.6452698 -45.98268,0.236501 -2.11558,19.22553 -35.695883,21.147154 -30.237515,2.24726 4.902419,-16.9748925 35.730195,-12.266207 51.491095,-10.220015 14.13054,1.834527 27.29956,7.061832 39.2636,14.464902 13.90422,8.603613 35.06319,11.82058 56.38617,3.025607 15.7782,-6.507948 35.24387,-0.459817 49.53211,-11.535253 12.28455,-9.522287 19.98653,27.096672 0.10349,20.889217 -15.28808,-4.772915 -34.5464,6.04365 -47.89666,-6.290663 -9.60858,-8.877374 -13.75663,-31.724273 -32.84139,-21.207112 -20.18921,11.125793 5.67469,15.287177 20.50554,4.111581 22.67637,-17.08748479 54.72099,-3.224689 82.07459,-5.110781 18.39432,-1.26833 32.95948,16.680991 38.71683,32.945854 5.27425,14.90008 -4.82296,19.803586 -17.77509,9.494509 -20.89909,-16.634352 2.75619,-25.636264 16.84991,-27.927365 14.75107,-2.397961 19.45346,-11.68264 30.30639,-14.166912 20.75056,-4.7498744 46.70957,-2.362192 67.42428,1.796925 15.04633,3.021017 34.47781,-0.145053 29.56314,21.289977 -3.50615,15.291856 6.13424,35.090821 -5.19285,47.223603 -12.4991,13.388154 8.07253,32.686716 10.39572,12.244793 2.50282,-22.022509 -0.66123,-37.646192 -8.96177,-53.224435 C 456.23714,32.085761 461.85874,19.334924 459,8.0000035"
       id="path3119"
       inkscape:connector-curvature="0"
       sodipodi:nodetypes="sssssssssssssssssssssssssssss" />
    <path
       style="color:#000000;fill:none;stroke:#000000;stroke-width:4;stroke-linecap:round;stroke-linejoin:round;stroke-miterlimit:4;stroke-opacity:1;stroke-dasharray:none;stroke-dashoffset:0;marker:none;visibility:visible;display:inline;overflow:visible;enable-background:accumulate"
       d="m 57.5,104 c 7.983481,-19.416458 13.622734,-18.443007 27.776802,-24.81923 9.002659,-4.05558 17.895968,-12.653249 31.600778,-7.503891 11.46778,4.308831 15.91596,6.787118 -6.64244,16.299711 m -17.829496,40.15817 c 7.50885,-14.19974 4.471382,-14.60508 14.991396,-20.61808 C 142.75954,87.30429 141.636,79.297854 157,69.5 c 9.25325,-5.900939 26.6974,0.862553 17.44218,12.856663 C 165.72881,93.64857 167.42164,97.14296 136.5,113.5 c -10.63655,5.62656 -25.6625,13.68798 -24.54778,25.75954 0.88586,9.5932 13.40611,1.47282 19.80345,-1.26391 13.09703,-5.6028 24.40344,-14.42586 34.60546,-24.12826 8.38119,-7.97074 17.40073,-15.069081 23.32576,-24.963379 6.66998,-11.138294 20.55373,-28.412558 40.50692,-19.932868"
       id="path3370"
       inkscape:connector-curvature="0"
       sodipodi:nodetypes="cssccssssssssc" />
    <path
       style="color:#000000;fill:none;stroke:#000000;stroke-width:4;stroke-linecap:round;stroke-linejoin:round;stroke-miterlimit:4;stroke-opacity:1;stroke-dasharray:none;stroke-dashoffset:0;marker:none;visibility:visible;display:inline;overflow:visible;enable-background:accumulate"
       d="m 213.76799,98.72255 c -17.93214,23.99979 -24.2474,8.23009 -35.7317,32.67221 -4.89505,10.41818 2.48114,13.38243 13.46371,5.60524 35.2625,-24.97076 12.80188,-3.29747 38.5,-30"
       id="path3254"
       inkscape:connector-curvature="0"
       sodipodi:nodetypes="cssc" />
    <path
       style="color:#000000;fill:none;stroke:#000000;stroke-width:4;stroke-linecap:round;stroke-linejoin:round;stroke-miterlimit:4;stroke-opacity:1;stroke-dasharray:none;stroke-dashoffset:0;marker:none;visibility:visible;display:inline;overflow:visible;enable-background:accumulate"
       d="m 117.50234,178.60984 c 54.09418,-17.66633 9.69421,14.107 38.83535,0.81164 30.86203,-14.0805 -6.26986,-21.95298 28.13809,-19.65523 12.75567,0.85182 26.48106,-13.80555 38.58469,-17.88167 13.19322,-4.44306 13.10673,-19.60717 25.33675,-24.95972 12.19595,-5.33764 29.48217,-6.67404 0.68063,18.80731 -8.32163,7.36233 0.16575,11.63898 13.48075,4.36511 8.23771,-4.5002 14.76987,-2.26946 22.81203,-9.68865 7.80729,-7.20251 -2.79962,-17.79759 17.56802,-31.68924"
       id="path3374"
       inkscape:connector-curvature="0"
       sodipodi:nodetypes="csssssssc" />
    <path
       style="color:#000000;fill:none;stroke:#000000;stroke-width:4;stroke-linecap:round;stroke-linejoin:round;stroke-miterlimit:4;stroke-opacity:1;stroke-dasharray:none;stroke-dashoffset:0;marker:none;visibility:visible;display:inline;overflow:visible;enable-background:accumulate"
       d="m 330.29145,113.16241 c 7.73273,5.62678 9.72078,9.51708 4.33246,17.51517 -7.2277,10.72834 -1.97148,14.61421 4.25119,17.85504 9.83508,5.12221 8.623,-27.34817 16.94398,-21.44024 14.45883,10.26583 5.50253,10.83894 5.84173,31.87328"
       id="path3232"
       inkscape:connector-curvature="0"
       sodipodi:nodetypes="csssc" />
    <path
       style="color:#000000;fill:none;stroke:#000000;stroke-width:4;stroke-linecap:round;stroke-linejoin:round;stroke-miterlimit:4;stroke-opacity:1;stroke-dasharray:none;stroke-dashoffset:0;marker:none;visibility:visible;display:inline;overflow:visible;enable-background:accumulate"
       d="m 123.30129,230.68315 c 4.71202,-14.06727 5.21401,-5.28572 23.76225,-6.38452 11.49055,-0.6807 16.7339,-0.78655 17.31524,-18.36973 0.21621,-6.53933 25.94174,-16.70505 15.73344,-1.33837 -7.29577,10.98241 7.21924,19.42466 -9.57881,25.62897 -30.63281,11.31414 -26.36422,4.03356 -44.73574,14.01231 -13.1064,7.11892 -9.89195,14.55156 -30.08529,6.6788"
       id="path3256"
       inkscape:connector-curvature="0"
       sodipodi:nodetypes="csssssc" />
    <path
       style="color:#000000;fill:none;stroke:#000000;stroke-width:4;stroke-linecap:round;stroke-linejoin:round;stroke-miterlimit:4;stroke-opacity:1;stroke-dasharray:none;stroke-dashoffset:0;marker:none;visibility:visible;display:inline;overflow:visible;enable-background:accumulate"
       d="m 249,171 c 12.9821,-4.27695 18.32581,-3.28309 31.85186,-4.39203 9.10042,-0.7461 18.10862,-1.3115 27.24477,-2.16753 12.10943,-1.13461 25.55408,1.92225 33.99176,11.52295 5.10058,5.80363 5.47918,11.15026 11.7877,16.81002 6.73192,6.03962 4.57037,22.19831 -6.14066,14.09771 -6.72706,-5.08758 -11.28593,-5.89975 -15.07824,-13.85913 -7.34331,-15.41229 -24.74929,-16.1995 -35.76909,-14.89398 -10.7516,1.27375 -21.94393,0.57113 -32.12263,4.27889 -7.99119,2.91092 -8.21918,1.95846 -16.76547,2.1031"
       id="path3258"
       inkscape:connector-curvature="0"
       sodipodi:nodetypes="ssssssssss" />
    <path
       style="color:#000000;fill:none;stroke:#80ff00;stroke-width:3.99999928;stroke-linecap:round;stroke-linejoin:round;stroke-miterlimit:4;stroke-opacity:1;stroke-dasharray:none;stroke-dashoffset:0;marker:none;visibility:visible;display:inline;overflow:visible;enable-background:accumulate"
       d="m 275.71435,109.60275 c -4.08341,-2.29437 -8.97797,-4.55579 -13.67276,-6.08516 -0.431,-0.14044 -1.62183,0.54731 -1.97716,0.28793 -0.76694,-0.55983 -1.36355,-1.99759 -2.41566,-2.34034 -5.66446,-1.84528 -13.17909,-2.429171 -17.87476,-3.958852 -5.87848,-1.915004 -9.74243,-5.380231 -14.27599,-8.689464 -0.71525,-0.522085 -5.65195,-1.941283 -5.1615,-2.613485 3.0199,-4.139048 17.42141,-5.713054 18.94958,-7.807543 2.11074,-2.892959 9.37172,-2.349673 10.76551,-4.259995 2.96725,-4.066903 11.76044,-4.068395 17.41089,-4.891314 2.20628,-0.321314 12.20269,-3.210952 13.84021,-2.01565 -0.43628,6.525125 -1.5804,14.852681 -3.30201,20.671979 -2.19125,7.02551 2.92371,9.395687 -2.28635,21.701894 z"
       id="path3199"
       inkscape:connector-curvature="0"
       sodipodi:nodetypes="csssssssssccc" />
    <path
       style="color:#000000;fill:none;stroke:#80ff00;stroke-width:3.99999952;stroke-linecap:round;stroke-linejoin:round;stroke-miterlimit:4;stroke-opacity:1;stroke-dasharray:none;stroke-dashoffset:0;marker:none;visibility:visible;display:inline;overflow:visible;enable-background:accumulate"
       d="m 280.34422,87.81794 c 7.19985,0.93991 14.73724,-1.51014 22.03862,0.74115 7.50897,2.31529 14.47385,8.88245 20.22146,13.62322 2.09421,1.72736 11.09171,-0.76657 13.05518,1.24072 2.40353,2.45716 9.07473,0.32948 11.74546,2.32674 14.23188,10.64306 17.88871,15.73945 38.06664,23.49066 2.41541,0.92786 7.389,7.58562 9.48924,7.97233 C 407.1063,139.4491 407.5745,146.31823 414,153.5 c 2.45437,2.74325 3.83411,7.26207 6.0312,10.47869 8.56335,12.53709 -0.14813,28.07908 -3.5312,42.02131 -0.89524,3.68943 0.44912,9.72851 -0.92177,13.12832 -5.68381,14.09581 -18.65021,14.715 -29.16298,24.16493 -2.70077,2.42773 -4.37161,10.81129 -6.91525,13.20675 -4.81617,4.53562 -9.9669,6.05088 -11.26099,12.18382 C 363.78157,289.80839 365.42401,291.92695 358,306.5"
       id="path3218"
       inkscape:connector-curvature="0"
       sodipodi:nodetypes="sssssssssssssss" />
    <path
       style="color:#000000;fill:none;stroke:#80ff00;stroke-width:3.99999952;stroke-linecap:round;stroke-linejoin:round;stroke-miterlimit:4;stroke-opacity:1;stroke-dasharray:none;stroke-dashoffset:0;marker:none;visibility:visible;display:inline;overflow:visible;enable-background:accumulate"
       d="m 314.80312,142.11927 c 0,0 2.26226,-3.15061 2.8886,-4.72353 1.09642,-2.75346 -0.13852,-7.33361 0.41117,-9.94271 4.1399,-11.46521 1.30735,-7.26861 1.75623,-10.6087 1.01635,-5.9096 -0.0786,-11.79195 -0.89594,-18.3369 -10.45584,6.19331 -7.31992,6.96864 -10.04384,16.05912 -3.80245,12.68984 -0.41589,9.67447 -7.90999,18.83733 -4.55268,5.56644 -1.71976,9.15168 -4.39782,10.4901"
       id="path3226"
       inkscape:connector-curvature="0"
       sodipodi:nodetypes="cscccssc" />
    <path
       style="color:#000000;fill:none;stroke:#808080;stroke-width:4;stroke-linecap:round;stroke-linejoin:round;stroke-miterlimit:4;stroke-opacity:1;stroke-dasharray:none;stroke-dashoffset:0;marker:none;visibility:visible;display:inline;overflow:visible;enable-background:accumulate"
       d="m 308,226 c 14.83033,4.90989 22.39545,19.96625 27.12576,34.66732 4.24538,13.19398 -2.10511,25.85209 -16.66331,24.88926 -20.41893,-1.35044 -33.79591,7.02444 -49.06474,-7.86239 -6.99208,-6.81715 -22.73884,-20.95725 -14.06667,-28.69248 20.15543,-17.97784 33.92576,-10.79336 42.62357,0.051 6.2517,7.79455 13.66807,20.74275 6.65463,29.08043 -8.92117,10.60561 -10.67521,22.76241 -43.56763,23.62694 -16.12343,0.42378 -27.64055,3.87317 -45.5651,-4.22249 -12.36443,-5.58442 2.95607,-15.24283 -12.12772,-23.86195 -13.61721,-7.78109 -28.47065,6.85362 -30.16104,19.13123 -2.1428,15.56358 22.70517,17.1646 35.51554,18.3606 15.08751,1.40859 21.19575,-11.33179 30.92184,-19.44234 13.82248,-11.52652 -0.81097,-25.96989 -15.12701,-21.90883 -14.57205,4.13368 -27.73915,23.6171 -40.64843,31.49563 -12.14772,7.41375 -18.6596,8.26773 -39.05075,-2.13121 -21.00578,-10.71239 -17.49666,6.02281 -46.707898,9.46264 -5.082134,0.59846 -11.305679,-0.3239 -17.795174,-1.3413"
       id="path3067" />
    <path
       style="color:#000000;fill:none;stroke:#808080;stroke-width:4;stroke-linecap:round;stroke-linejoin:round;stroke-miterlimit:4;stroke-opacity:1;stroke-dasharray:none;stroke-dashoffset:0;marker:none;visibility:visible;display:inline;overflow:visible;enable-background:accumulate"
       d="M 56.656948,307.04364 C 40.961086,314.24645 39.109766,295.65233 39.156345,291.94074 39.335478,277.66675 6.077323,271.77364 31.5,255.5"
       id="path3126"
       inkscape:connector-curvature="0"
       sodipodi:nodetypes="csc" />
    <path
       style="color:#000000;fill:none;stroke:#80ff00;stroke-width:3.99999952;stroke-linecap:round;stroke-linejoin:round;stroke-miterlimit:4;stroke-opacity:1;stroke-dasharray:none;stroke-dashoffset:0;marker:none;visibility:visible;display:inline;overflow:visible;enable-background:accumulate"
       d="m 409.5,197 c 0,0 -1.69838,-11.70115 -0.76744,-18.01464 1.87077,-12.68724 2.02537,-8.8748 1.27907,-13.73093 C 408.24452,153.75597 407.5,158.5 406,147.5 c -0.86167,-6.31892 12.15538,-6.36252 21.43614,5.32015 5.85099,7.36526 2.16359,5.76848 5.59751,27.198 C 434.07421,186.51178 432.5,182.5 429.5,198"
       id="path3343"
       inkscape:connector-curvature="0"
       sodipodi:nodetypes="csssssc" />
    <path
       style="color:#000000;fill:none;stroke:#808080;stroke-width:4;stroke-linecap:round;stroke-linejoin:round;stroke-miterlimit:4;stroke-opacity:1;stroke-dasharray:none;stroke-dashoffset:0;marker:none;visibility:visible;display:inline;overflow:visible;enable-background:accumulate"
       d="m 381.74159,23.72226 c 2.9941,12.315227 -5.03022,22.657453 -6.61549,34.09611 -1.29428,9.338928 -2.48081,18.891841 -2.48081,28.129289"
       id="path6038"
       inkscape:connector-curvature="0" />
    <path
       style="color:#000000;fill:none;stroke:#808080;stroke-width:4;stroke-linecap:round;stroke-linejoin:round;stroke-miterlimit:4;stroke-opacity:1;stroke-dasharray:none;stroke-dashoffset:0;marker:none;visibility:visible;display:inline;overflow:visible;enable-background:accumulate"
       d="m 400.10112,25.136473 c -2.39478,7.539525 -3.97127,15.38806 -5.65686,23.147588 -0.84884,3.907612 -2.37355,8.007724 -3.53553,11.573793 -1.99247,6.114806 0,21.148815 0,28.211122"
       id="path6040"
       inkscape:connector-curvature="0" />
    <path
       style="color:#000000;fill:none;stroke:#808080;stroke-width:4;stroke-linecap:round;stroke-linejoin:round;stroke-miterlimit:4;stroke-opacity:1;stroke-dasharray:none;stroke-dashoffset:0;marker:none;visibility:visible;display:inline;overflow:visible;enable-background:accumulate"
       d="m 406.34376,96.225831 c 0.96361,-2.978476 -0.98992,-6.929744 0,-9.899495 2.49212,-7.476361 3.77181,-14.143861 6.36396,-21.920311 1.38838,-4.165142 -1.8025,-16.9011 0.7071,-21.92031 1.08369,-2.167376 2.82843,-5.281406 2.82843,-8.485281"
       id="path6042"
       inkscape:connector-curvature="0" />
    <path
       style="color:#000000;fill:none;stroke:#808080;stroke-width:4;stroke-linecap:round;stroke-linejoin:round;stroke-miterlimit:4;stroke-opacity:1;stroke-dasharray:none;stroke-dashoffset:0;marker:none;visibility:visible;display:inline;overflow:visible;enable-background:accumulate"
       d="m 433.77165,38.128253 c -0.45554,4.608311 -0.58838,9.266269 -1.66558,13.862507 -1.38195,5.896206 -4.2181,10.297824 -6.20532,15.668214 -0.81332,2.197932 -1.10401,4.635696 -1.91964,6.839748 -2.96972,8.025459 1.11366,17.398366 -3.01065,24.105449"
       id="path6044"
       inkscape:connector-curvature="0" />
    <path
       style="color:#000000;fill:none;stroke:#ffff00;stroke-width:3.99999976;stroke-linecap:round;stroke-linejoin:round;stroke-miterlimit:4;stroke-opacity:1;stroke-dasharray:none;stroke-dashoffset:0;marker:none;visibility:visible;display:inline;overflow:visible;enable-background:accumulate"
       d="m 44,162 c 0,0 8.357007,-10.6239 17,-22.5 C 73.724584,122.01549 67.895222,126.0532 79.5,109 83.42587,103.23094 96,92.5 96,92.5"
       id="path3023"
       inkscape:connector-curvature="0"
       sodipodi:nodetypes="sssc" />
    <path
       style="color:#000000;fill:none;stroke:#ffff00;stroke-width:3.99999976;stroke-linecap:round;stroke-linejoin:round;stroke-miterlimit:4;stroke-opacity:1;stroke-dasharray:none;stroke-dashoffset:0;marker:none;visibility:visible;display:inline;overflow:visible;enable-background:accumulate"
       d="m 57.5,214 c 10.415057,-0.7615 21.128323,3.65241 31.5,2.5 9.526288,-1.05848 18.07049,-5.2141 27,-7 7.25706,-1.45141 5.14081,2 15.5,0 12.27335,-2.36956 13,2 25.5,2"
       id="path3045"
       inkscape:connector-curvature="0"
       sodipodi:nodetypes="csssc" />
    <path
       style="color:#000000;fill:none;stroke:#ffff00;stroke-width:3.99999976;stroke-linecap:round;stroke-linejoin:round;stroke-miterlimit:4;stroke-opacity:1;stroke-dasharray:none;stroke-dashoffset:0;marker:none;visibility:visible;display:inline;overflow:visible;enable-background:accumulate"
       d="m 31.062788,235.35778 c -0.592281,2.97609 1.275302,4.24771 2.852132,7.42147 7.940258,15.98175 5.160956,10.83021 9.044644,24.55444 1.258266,4.44648 2.658023,9.10352 5.887897,12.50306 9.434763,9.93037 7.801806,3.91733 10.69717,12.67478 2.381156,7.20215 4.66795,13.75059 12.416436,15.41746"
       id="path3053"
       inkscape:connector-curvature="0"
       sodipodi:nodetypes="ssssss" />
  </g>
</svg>
