<?xml version="1.0" encoding="UTF-8" standalone="no"?>
<!-- Created with Inkscape (http://www.inkscape.org/) -->

<svg
   xmlns:dc="http://purl.org/dc/elements/1.1/"
   xmlns:cc="http://creativecommons.org/ns#"
   xmlns:rdf="http://www.w3.org/1999/02/22-rdf-syntax-ns#"
   xmlns:svg="http://www.w3.org/2000/svg"
   xmlns="http://www.w3.org/2000/svg"
   xmlns:sodipodi="http://sodipodi.sourceforge.net/DTD/sodipodi-0.dtd"
   xmlns:inkscape="http://www.inkscape.org/namespaces/inkscape"
   width="480"
   height="320"
   id="svg2"
   version="1.1"
   inkscape:version="0.47 r22583"
   sodipodi:docname="itnas201.svg"
   inkscape:export-xdpi="90"
   inkscape:export-ydpi="90"
   inkscape:export-filename="itnas201.png">
  <defs
     id="defs4" />
  <sodipodi:namedview
     id="base"
     pagecolor="#ffffff"
     bordercolor="#666666"
     borderopacity="1.0"
     inkscape:pageopacity="1"
     inkscape:pageshadow="2"
     inkscape:zoom="1.4142136"
     inkscape:cx="281.20646"
     inkscape:cy="178.43797"
     inkscape:document-units="px"
     inkscape:current-layer="layer1"
     showgrid="false"
     inkscape:snap-nodes="true"
     inkscape:snap-global="false"
     inkscape:snap-grids="true"
     showguides="true"
     inkscape:window-width="1280"
     inkscape:window-height="774"
     inkscape:window-x="1276"
     inkscape:window-y="1020"
     inkscape:window-maximized="1">
    <inkscape:grid
       empspacing="5"
       visible="true"
       enabled="true"
       snapvisiblegridlinesonly="true"
       type="xygrid"
       id="grid2816" />
  </sodipodi:namedview>
  <metadata
     id="metadata7">
    <rdf:RDF>
      <cc:Work
         rdf:about="">
        <dc:format>image/svg+xml</dc:format>
        <dc:type
           rdf:resource="http://purl.org/dc/dcmitype/StillImage" />
        <dc:title></dc:title>
      </cc:Work>
    </rdf:RDF>
  </metadata>
  <g
     inkscape:label="Layer 1"
     inkscape:groupmode="layer"
     id="layer1"
     transform="translate(0,0)">
    <path
       style="fill:none;stroke:#000000;stroke-width:1px;stroke-linecap:butt;stroke-linejoin:miter;stroke-opacity:1"
       d="m -244.54921,-5.87215 10.60661,0 10.77081,3.906854 2.57843,7.977923 -5.65686,4.24264 -5.57106,2.25736 -9.19239,0 -7.77818,0.707106 -5.65685,7.071068 -4.94975,0 -2.12132,-12.020815 6.36396,-9.192388 10.6066,-4.949748 z"
       id="path2813"
       sodipodi:nodetypes="ccccccccccccc" />
    <path
       style="fill:none;stroke:#000000;stroke-width:1px;stroke-linecap:butt;stroke-linejoin:miter;stroke-opacity:1"
       d="m -141.5,42 10,-14 2,-18 19,-12.5 21,14 3,19 0,12.5 10,1.5 2,-15.5 -6.5,-20 -9.5,-12.5 -15,-11 -16.5,-2.5 -17.5,1 -20,20.5 -2,23 1.5,22 8,5 8,-6.5 2.5,-6 z"
       id="path2815" />
    <path
       style="fill:none;stroke:#000000;stroke-width:1px;stroke-linecap:butt;stroke-linejoin:miter;stroke-opacity:1"
       d="m -266,76.5 c 2.10062,1.38826 -1.36793,1.46784 -1.80004,0.13405 -4.66929,-0.9693 -8.37823,2.90411 -11.31257,5.95653 -4.70479,5.06235 -6.92826,12.04251 -6.7235,18.88598 -0.33853,5.66893 -0.0863,11.34958 -0.16391,17.02344"
       id="path2817" />
    <path
       style="fill:none;stroke:#000000;stroke-width:1px;stroke-linecap:butt;stroke-linejoin:miter;stroke-opacity:1"
       d="m -262.5,76.5 c 4.28857,-0.60226 9.47571,-1.75039 13.0149,1.5011 4.6014,4.6127 8.97208,10.05322 9.99601,16.67724 0.60859,3.24797 1.98751,6.28121 2.75729,9.46882 0.62875,3.75755 0.0687,7.57223 0.23227,11.35284"
       id="path2819" />
    <path
       style="fill:none;stroke:#000000;stroke-width:1px;stroke-linecap:butt;stroke-linejoin:miter;stroke-opacity:1"
       d="m -293.5,104.5 c 0.80953,-5.57663 0.26702,-11.24698 0.74468,-16.82967 0.94269,-4.33239 2.14501,-8.76703 4.56785,-12.51666 4.03606,-5.42563 10.51423,-9.50626 17.42041,-9.29719 4.41046,0.66443 4.96885,5.84695 7.36403,8.80001 0.94738,2.13884 3.21465,4.34363 2.40297,6.84351"
       id="path2821" />
    <path
       style="fill:none;stroke:#000000;stroke-width:1px;stroke-linecap:butt;stroke-linejoin:miter;stroke-opacity:1"
       d="m -297,88 c 2.33778,-7.0693 7.00821,-13.06846 9.46725,-20.09091 1.34801,-3.23017 3.54856,-6.21009 6.74342,-7.78975 2.89424,-2.38558 8.20823,-4.2941 10.54865,-0.17976 2.28734,3.34662 5.03169,6.70681 5.77944,10.79126 0.0389,0.42243 0.0295,0.85011 -0.0388,1.26916"
       id="path2823" />
    <path
       style="fill:none;stroke:#000000;stroke-width:1px;stroke-linecap:butt;stroke-linejoin:miter;stroke-opacity:1"
       d="m -242.5,99.5 c -0.69205,-4.71475 0.9415,-9.31767 2.36476,-13.71967 0.52719,-4.23398 -0.24951,-8.50602 0.23887,-12.74213 -1.03251,-5.50444 -3.98905,-10.75581 -8.57769,-14.02489 -2.68304,-1.52102 -6.45624,-1.0592 -8.45386,1.37532 -4.41798,1.45793 -5.85676,6.64234 -5.72531,10.83395 C -262.88901,74.5112 -264.08428,77.68031 -264,81"
       id="path2825" />
    <path
       style="fill:none;stroke:#000000;stroke-width:1px;stroke-linecap:butt;stroke-linejoin:miter;stroke-opacity:1"
       d="m -264,74.5 c 2.57135,-3.20763 5.79031,-5.9981 9.61843,-7.58232 4.41263,0.47812 3.92795,6.5114 7.68968,7.97732 3.09904,2.89723 5.50784,6.61978 6.92425,10.59072 0.27947,4.0271 -4.58044,6.64875 -3.52048,10.78554 0.7571,3.34724 1.02318,6.80506 0.78727,10.22874"
       id="path2827" />
    <g
       id="g4029"
       transform="matrix(0.8,0,0,0.8,76.731607,-40.211115)">
      <path
         style="fill:#ffffff;stroke:#000000;stroke-width:1.25px;stroke-linecap:butt;stroke-linejoin:miter;stroke-opacity:1"
         d="m 366.17678,183.31855 -34.75,0.5 -0.17678,2.66421 2,5.25 1.25,-6 4.5,6.5 1,-6.25 3,5.75 1.5,-6.25 2.75,5.75 1.25,-5.5 3.25,4.75 1.75,-5 1.25,4.5 2.75,-5 2.75,4 1.5,-3.75 2.25,4 2.17678,-5.91421 z"
         id="path4031"
         sodipodi:nodetypes="ccccccccccccccccccc" />
      <path
         style="fill:#ffffff;stroke:#000000;stroke-width:1.25px;stroke-linecap:butt;stroke-linejoin:miter;stroke-opacity:1"
         d="m 339.05599,207.71736 -0.35355,-4.86135 3.09359,3.18198 -0.26516,-4.86136 3.27037,3.88908 0.35355,-3.80069 3.44714,2.74003 0.70711,-3.80069 3.00521,2.82842 0.0884,-4.41941 3.27037,2.82842 0,-3.97747 3.00521,2.74004 0.53033,-5.21492 2.65165,3.71231 0.97227,-4.86136 3.97747,4.33103 -13.96535,6.62913 -13.78859,2.91681 z"
         id="path4033" />
      <path
         style="fill:none;stroke:#000000;stroke-width:1.25px;stroke-linecap:butt;stroke-linejoin:miter;stroke-opacity:1"
         d="m 374.0058,245.81991 -4.32484,3.00756 1.99942,-4.42141 2.32542,1.41385 z"
         id="path4364-7-4" />
      <path
         style="fill:none;stroke:#000000;stroke-width:1.25px;stroke-linecap:butt;stroke-linejoin:miter;stroke-opacity:1"
         d="m 365.01188,224.21272 10e-4,3.29233 -6.00278,-2.67065 6.0015,-0.62168 z"
         id="path4397-4-8"
         sodipodi:nodetypes="cccc" />
      <path
         style="fill:none;stroke:#000000;stroke-width:1.25px;stroke-linecap:butt;stroke-linejoin:miter;stroke-opacity:1"
         d="m 369.64963,218.21806 -2.4281,2.32238 -3.17557,-5.4731 5.60367,3.15072 z"
         id="path4399-0-8"
         sodipodi:nodetypes="cccc" />
      <path
         style="fill:none;stroke:#000000;stroke-width:1.25px;stroke-linecap:butt;stroke-linejoin:miter;stroke-opacity:1"
         d="m 374.38128,216.34902 1.89885,-2.20968 -5.45294,-2.2534 3.55409,4.46308 z"
         id="path4401-9-2"
         sodipodi:nodetypes="cccc" />
      <path
         style="fill:#ffffff;stroke:#000000;stroke-width:1.25px;stroke-linecap:butt;stroke-linejoin:miter;stroke-opacity:1"
         d="m 447.72303,224.44907 -7.71453,7.93891 -9.26551,5.38792 -17.78036,9.54449 -9.25015,-4.83889 -8.57225,-5.54197 -7.27443,-6.50886 -3.03648,-12.37728 -8.67863,-4.38627 -2.16552,2.87262 6.82248,4.3697 1.41421,7.42462 -5.74524,-6.80591 -6.8059,-3.97747 -2.82843,3.18198 6.09879,3.62392 5.74525,6.0988 -6.71751,-3.0052 -7.6014,-3.80071 0.17677,4.41943 5.92202,2.74003 7.96491,4.69975 -2.62766,4.71686 -4.471,4.10063 3.17465,1.94505 5.11801,-3.97988 1.54397,-3.83564 8.22739,5.79194 9.46016,6.73528 11.96015,7.49569 4.40991,0.13604 21.23527,-11.32107 9.67588,-6.63604 10.83022,-3.97424"
         id="path4035"
         sodipodi:nodetypes="cccccccccccccccccccccccccccccccccc" />
      <path
         style="fill:#ffffff;stroke:#000000;stroke-width:1.25px;stroke-linecap:butt;stroke-linejoin:miter;stroke-opacity:1"
         d="m 543.13325,224.32444 -30.38451,-1.2951 -37.70685,1.25244 -26.1502,-6.27908 -25.39169,-27.98744 -17.70711,-13.1967 -15.5,-4 -8.46967,-1.61092 -0.70782,-6.76467 0.0351,-8.13331 -7.45357,8.22379 -2.31822,5.39675 -1.34582,-0.19483 -3.70344,-2.77406 -10.66893,3.55895 -0.79956,2.93148 -4.611,2.03103 -17,2.5 -4.25,6.75 7.5,1.25 13.5,-0.5 20.0962,-0.82318 1.30209,10.04065 -19.20571,8.24515 -14.65417,3.67115 1.76858,3.71219 13.47757,-1.41933 17.27705,-5.59972 8.49905,-1.86241 8.43934,-7.23224 5.93163,0.6459 7.17192,5.76832 L 412,218.24013 425.54163,244.2046 441.46857,259.78004 459,270.98277 l 45.03204,4.26777 45.28839,-2.64721"
         id="path4037"
         sodipodi:nodetypes="cccccccccccccccccccccccccccccccccccccc" />
      <path
         style="fill:#ffffff;stroke:#000000;stroke-width:1.25px;stroke-linecap:butt;stroke-linejoin:miter;stroke-opacity:1"
         d="m 363.79365,176.25183 4.5,-2.5 4,-0.25 2.75,2.25 -5,1 -6.25,-0.5 z"
         id="path4039" />
      <path
         style="fill:#ffffff;stroke:#000000;stroke-width:1.25px;stroke-linecap:butt;stroke-linejoin:miter;stroke-opacity:1"
         d="m 333.48614,178.57115 4.78163,1.92808 -6.93719,1.21836 2.15556,-3.14644 z"
         id="path4041"
         sodipodi:nodetypes="cccc" />
      <path
         style="fill:none;stroke:#000000;stroke-width:1.25px;stroke-linecap:butt;stroke-linejoin:miter;stroke-opacity:1"
         d="m 370.04365,173.76439 0,2.75"
         id="path4043" />
      <path
         style="fill:none;stroke:#000000;stroke-width:1.25px;stroke-linecap:butt;stroke-linejoin:miter;stroke-opacity:1"
         d="m 368.38438,171.58262 -2.65747,-1.56955 -7.51255,2.69899 -0.82674,2.8583"
         id="path4045"
         sodipodi:nodetypes="cccc" />
      <path
         style="fill:none;stroke:#000000;stroke-width:1.25px;stroke-linecap:butt;stroke-linejoin:miter;stroke-opacity:1"
         d="m 378.71203,189.39172 10.96016,-1.06066 12.68502,4.15318 12.97793,13.64213 14.14213,21.56676 20.15255,18.73833 24.74873,10.25305 33.94113,4.94975 14.84924,0 31.45481,-3.17308"
         id="path4047"
         sodipodi:nodetypes="ccccccccc" />
      <path
         id="path4049"
         style="fill:#ffffff;stroke:#000000;stroke-width:1.25px;stroke-linecap:butt;stroke-linejoin:miter;stroke-opacity:1"
         d="m 448.30989,235.21657 0.89336,12.5467 0.74823,10.69203 0.95707,15.99017 -7.51216,6.45757 -7.09825,7.33564 -5.93209,7.68047 -14.25922,2.18716 -6.07857,6.24483 2.15834,2.32191 6.31471,-5.1822 7.55794,0.0516 -7.79034,4.31726 -5.22109,5.90599 2.57347,3.3915 4.7372,-5.28081 7.09664,-4.45432 -4.25012,6.00771 -5.20186,6.72066 4.3699,0.6831 3.8358,-5.27869 6.15431,-6.90305 6.16434,1.7949 4.92007,3.21522 1.72894,-3.29732 -4.84276,-3.86886 -3.66492,-1.85918 0.5082,-2.27645 7.03361,-4.53985 8.44103,-7.97544 8.16894,-7.80578 1.92563,-4.04993 2.8658,-14.75556 0.25722,-10.37344 -0.91063,-13.41724"
         sodipodi:nodetypes="ccccccccccccccccccccccccccccccccccc" />
      <path
         style="fill:none;stroke:#000000;stroke-width:1.25px;stroke-linecap:butt;stroke-linejoin:miter;stroke-opacity:1"
         d="m 374.125,170.23276 1.5,-5.375 3.25,-3.5 -0.125,5.125 0.75,4.875"
         id="path4051"
         sodipodi:nodetypes="ccccc" />
      <path
         style="fill:none;stroke:#000000;stroke-width:1.25px;stroke-linecap:butt;stroke-linejoin:miter;stroke-opacity:1"
         d="m 385.6915,171.95108 -1.32582,4.41941 5.3033,1.32583 1.10484,-4.19844"
         id="path4053"
         sodipodi:nodetypes="cccc" />
    </g>
    <g
       id="g4016"
       transform="translate(-4.5407377,-10.298097)">
      <path
         sodipodi:nodetypes="ccccccccccccccccccc"
         id="path3001"
         d="m 347.50334,198.66981 -33.59615,8.89447 0.4732,2.6278 3.21103,4.60997 -0.23912,-6.12416 5.93922,5.21783 -0.5422,-6.30623 4.30231,4.85311 -0.0571,-6.42723 4.05974,4.91361 -0.11813,-5.63902 4.30288,3.82233 0.48801,-5.27488 2.30183,4.06376 1.45828,-5.51688 3.63625,3.21563 0.54793,-4.00154 3.15111,3.33662 0.68087,-6.26519 z"
         style="fill:#ffffff;stroke:#000000;stroke-width:1px;stroke-linecap:butt;stroke-linejoin:miter;stroke-opacity:1" />
      <path
         id="path3003"
         d="m 327.09304,228.90652 -1.51947,-4.6313 3.77167,2.33877 -1.43371,-4.6527 4.11431,2.98208 -0.57671,-3.77329 4.00776,1.8244 -0.23366,-3.85884 3.60035,2.01711 -0.9837,-4.30945 3.85763,1.95294 -0.96253,-3.85925 3.57897,1.93135 -0.74742,-5.18825 3.4712,2.96028 -0.23306,-4.95215 4.90734,3.23977 -11.94605,9.81164 -12.6729,6.16689 z"
         style="fill:#ffffff;stroke:#000000;stroke-width:1px;stroke-linecap:butt;stroke-linejoin:miter;stroke-opacity:1" />
      <path
         style="fill:none;stroke:#000000;stroke-width:1px;stroke-linecap:butt;stroke-linejoin:miter;stroke-opacity:1"
         d="m 442.41661,311.20621 2.47488,3.71231 -3.71231,-1.76776 1.23743,-1.94455 z"
         id="path4364" />
      <path
         style="fill:none;stroke:#000000;stroke-width:1px;stroke-linecap:butt;stroke-linejoin:miter;stroke-opacity:1"
         d="m 418.6161,311.86827 3.05882,1.21783 -4.70343,4.58731 1.64461,-5.80514 z"
         id="path4397"
         transform="translate(-2,8)"
         sodipodi:nodetypes="cccc" />
      <path
         style="fill:none;stroke:#000000;stroke-width:1px;stroke-linecap:butt;stroke-linejoin:miter;stroke-opacity:1"
         d="m 413.4375,306.1875 2.4375,2.3125 -5.3125,3.4375 2.875,-5.75 z"
         id="path4399"
         transform="translate(-2,8)"
         sodipodi:nodetypes="cccc" />
      <path
         style="fill:none;stroke:#000000;stroke-width:1px;stroke-linecap:butt;stroke-linejoin:miter;stroke-opacity:1"
         d="m 411.875,300.8125 -1.6875,-2.375 -3.5,4.75 5.1875,-2.375 z"
         id="path4401"
         transform="translate(-2,8)"
         sodipodi:nodetypes="cccc" />
      <path
         style="fill:none;stroke:#000000;stroke-width:1px;stroke-linecap:butt;stroke-linejoin:miter;stroke-opacity:1"
         d="m 409.67591,299.43365 0.7728,4.3942 -2.68783,-3.11155 1.91503,-1.28265 z"
         id="path4364-7" />
      <path
         style="fill:none;stroke:#000000;stroke-width:1px;stroke-linecap:butt;stroke-linejoin:miter;stroke-opacity:1"
         d="m 386.0413,301.05393 3.05882,1.21783 -4.70343,4.58731 1.64461,-5.80514 z"
         id="path4397-4"
         sodipodi:nodetypes="cccc" />
      <path
         style="fill:none;stroke:#000000;stroke-width:1px;stroke-linecap:butt;stroke-linejoin:miter;stroke-opacity:1"
         d="m 381.8569,294.24233 1.52252,2.99516 -6.15683,1.46032 4.63431,-4.45548 z"
         id="path4399-0"
         sodipodi:nodetypes="cccc" />
      <path
         style="fill:none;stroke:#000000;stroke-width:1px;stroke-linecap:butt;stroke-linejoin:miter;stroke-opacity:1"
         d="m 381.32473,289.34173 -1.56741,-2.45592 -3.73169,4.57023 5.2991,-2.11431 z"
         id="path4401-9"
         sodipodi:nodetypes="cccc" />
      <path
         sodipodi:nodetypes="cccccccccccccccccccccccccccccccccc"
         id="path3005"
         d="m 442.68926,230.08187 -1.72158,10.93509 -4.46008,9.74613 -9.0174,18.05341 -8.98546,5.31426 -9.22606,4.36771 -9.36436,2.75522 -13.05766,-0.0322 -6.97337,5.47699 1.54822,2.76678 7.10073,-4.90711 7.45278,1.25739 -8.37963,3.0183 -6.09693,4.9968 1.99907,3.75881 5.51946,-4.45687 7.71669,-3.26433 -5.15466,5.25219 -6.208,5.8041 4.20481,1.37193 4.62929,-4.59868 7.17734,-5.83209 3.50791,4.10462 2.28883,5.61839 2.92808,-2.29956 -1.95052,-6.18296 -3.0588,-2.78203 7.35757,-3.09395 10.70811,-4.49393 9.0008,-3.56755 3.6806,-2.4329 10.81457,-21.49764 4.07526,-11.00236 6.5537,-9.49406"
         style="fill:#ffffff;stroke:#000000;stroke-width:1px;stroke-linecap:butt;stroke-linejoin:miter;stroke-opacity:1" />
      <path
         sodipodi:nodetypes="cccccccccccccccccccccccccccccccccc"
         id="path2991"
         d="m 491.06043,224.65062 -31.28336,-1.7754 -29.15483,-10.46471 -25.87892,-21.11502 -20.37434,-8.51943 -16.00728,-0.13018 -8.60777,0.48658 -2.3238,-6.39232 -1.93416,-7.90006 -5.24192,9.78308 -0.94332,5.79735 -4.56952,1.84983 -7.8743,4.43416 -6.71324,4.21659 -15.88973,6.53961 -2.49021,7.57786 7.57957,-0.60212 12.97775,-3.75207 19.29969,-5.6619 3.69317,9.42712 -16.63958,12.64777 -13.33021,7.10827 2.61435,3.17387 12.73351,-4.63865 15.40843,-9.61425 7.79574,-3.86378 6.43833,-9.05956 5.91163,-0.80872 8.35466,3.8613 15.80465,14.20859 19.92242,24.21903 16.95719,11.45792 15.95137,6.09914 43.30677,14.78499"
         style="fill:#ffffff;stroke:#000000;stroke-width:1px;stroke-linecap:butt;stroke-linejoin:miter;stroke-opacity:1" />
      <path
         id="path2993"
         d="m 343.48093,192.38984 3.76126,-3.51468 3.82061,-1.21055 3.21275,1.51764 -4.60939,2.18026 -6.18523,1.02733 z"
         style="fill:#ffffff;stroke:#000000;stroke-width:1px;stroke-linecap:butt;stroke-linejoin:miter;stroke-opacity:1" />
      <path
         sodipodi:nodetypes="cccc"
         id="path2995"
         d="m 314.6355,201.97449 5.10609,0.71364 -6.43616,2.86091 1.33007,-3.57455 z"
         style="fill:#ffffff;stroke:#000000;stroke-width:1px;stroke-linecap:butt;stroke-linejoin:miter;stroke-opacity:1" />
      <path
         id="path2997"
         d="m 348.94321,188.46386 0.66549,2.66826"
         style="fill:none;stroke:#000000;stroke-width:1px;stroke-linecap:butt;stroke-linejoin:miter;stroke-opacity:1" />
      <path
         sodipodi:nodetypes="cccccccc"
         id="path3009"
         d="m 361.13569,201.529 10.37772,-3.68144 13.31304,0.96002 15.89352,10.09606 18.94084,17.50341 21.61328,18.25431 27.40853,10.25213 30.13013,6.58904"
         style="fill:none;stroke:#000000;stroke-width:1px;stroke-linecap:butt;stroke-linejoin:miter;stroke-opacity:1" />
      <path
         sodipodi:nodetypes="ccccccccccccccccccccccccccccccccccc"
         d="m 446.0118,237.60306 0.89336,12.5467 0.74823,10.69203 0.95707,15.99017 -7.51216,6.45757 -7.09825,7.33564 -5.93209,7.68047 -14.25922,2.18716 -6.07857,6.24483 2.15834,2.32191 6.31471,-5.1822 7.55794,0.0516 -7.79034,4.31726 -5.22109,5.90599 2.57347,3.3915 4.7372,-5.28081 7.09664,-4.45432 -4.25012,6.00771 -4.88936,6.28316 3.7449,1.4956 4.1483,-5.65369 6.15431,-6.90305 6.16434,1.7949 4.92007,3.21522 1.72894,-3.29732 -4.84276,-3.86886 -3.66492,-1.85918 0.5082,-2.27645 7.03361,-4.53985 8.44103,-7.97544 8.16894,-7.80578 1.92563,-4.04993 2.8658,-14.75556 0.25722,-10.37344 -0.91063,-13.41724"
         style="fill:#ffffff;stroke:#000000;stroke-width:1px;stroke-linecap:butt;stroke-linejoin:miter;stroke-opacity:1"
         id="path3797" />
      <path
         sodipodi:nodetypes="ccccc"
         id="path3868"
         d="m 352.04862,184.04953 0.15469,-5.57823 2.30642,-4.18246 1.11894,5.00292 1.90743,4.54861"
         style="fill:none;stroke:#000000;stroke-width:1px;stroke-linecap:butt;stroke-linejoin:miter;stroke-opacity:1" />
    </g>
    <path
       sodipodi:nodetypes="csc"
       id="path2927"
       d="m -80.305198,96.618447 c -0.004,3.481653 -0.5968,8.831853 2.40841,11.341713 1.80306,1.50586 -0.66142,3.18494 -4.05936,3.3212"
       style="fill:none;stroke:#000000;stroke-width:1px;stroke-linecap:butt;stroke-linejoin:miter;stroke-opacity:1" />
    <path
       sodipodi:nodetypes="cccc"
       id="path2929"
       d="m -92.216098,99.969657 5.79374,-1.59558 m 0.4,3.400003 c 0,0 -5.48663,0.75884 -5.48663,0.75884"
       style="fill:none;stroke:#000000;stroke-width:1px;stroke-linecap:butt;stroke-linejoin:miter;stroke-opacity:1" />
    <path
       sodipodi:nodetypes="cccc"
       id="path2931"
       d="m -73.327758,95.696007 c 0,0 -5.52538,1.3917 -5.52538,1.3917 m 0.67101,3.168773 c 0,0 5.782452,-1.864633 5.782452,-1.864633"
       style="fill:none;stroke:#000000;stroke-width:0.99999988px;stroke-linecap:butt;stroke-linejoin:miter;stroke-opacity:1" />
    <path
       style="fill:none;stroke:#000000;stroke-width:1px;stroke-linecap:butt;stroke-linejoin:miter;stroke-opacity:1"
       d="m -85.576948,73.737807 -6.74547,1.35295 -5.77483,2.41331 -6.010952,6.70249 0.71875,7.625 1.64052,4.95595 4.176122,4.037543 0.2679,-5.128713 2.27162,-3.75607 5.2572,-2.95007 7.08839,0.16254 -2.88925,-15.41493 z"
       id="path2933"
       sodipodi:nodetypes="cccccccccccc" />
    <path
       style="fill:none;stroke:#000000;stroke-width:1px;stroke-linecap:butt;stroke-linejoin:miter;stroke-opacity:1"
       d="m -80.576948,74.144057 -4.90625,-0.375 2.983,15.4257 6.43277,-0.96955 4.340512,2.12415 2.75154,6.16285 2.51438,-4.45228 -1.35525,-9.10633 -3.07321,-5.02826 -4.718752,-2.82858 -4.96875,-0.95267 1e-5,-3e-5 z"
       id="path2935"
       sodipodi:nodetypes="cccccccccccc" />
    <path
       transform="matrix(0.8,0,0,0.8,-238.51733,-40.486584)"
       d="m 189.593,176.19215 a 0.70710677,0.70710677 0 1 1 -1.41421,0 0.70710677,0.70710677 0 1 1 1.41421,0 z"
       sodipodi:ry="0.70710677"
       sodipodi:rx="0.70710677"
       sodipodi:cy="176.19215"
       sodipodi:cx="188.88589"
       id="path2937"
       style="color:#000000;fill:none;stroke:#000000;stroke-width:1.25px;stroke-linecap:butt;stroke-linejoin:miter;stroke-miterlimit:4;stroke-opacity:1;stroke-dasharray:none;stroke-dashoffset:0;marker:none;visibility:visible;display:inline;overflow:visible;enable-background:accumulate"
       sodipodi:type="arc" />
    <path
       transform="matrix(0.8,0,0,0.8,-237.01421,-40.860848)"
       d="m 202.93965,173.45212 a 0.70710677,0.70710677 0 1 1 -1.41421,0 0.70710677,0.70710677 0 1 1 1.41421,0 z"
       sodipodi:ry="0.70710677"
       sodipodi:rx="0.70710677"
       sodipodi:cy="173.45212"
       sodipodi:cx="202.23254"
       id="path2939"
       style="color:#000000;fill:none;stroke:#000000;stroke-width:1.25px;stroke-linecap:butt;stroke-linejoin:miter;stroke-miterlimit:4;stroke-opacity:1;stroke-dasharray:none;stroke-dashoffset:0;marker:none;visibility:visible;display:inline;overflow:visible;enable-background:accumulate"
       sodipodi:type="arc" />
    <path
       style="fill:#ffffff;stroke:#000000;stroke-width:1px;stroke-linecap:butt;stroke-linejoin:miter;stroke-opacity:1"
       d="m 110.7176,67.511643 -5.34375,5.28125 -4.75,19.75 5.5,27.499997 4.25,18.5 1.75,7.25 5,2 -3.625,7.625 -2.625,12 1.25,12.125 4.375,3 38.375,-14 c 0,0 14.84389,-112.431194 14.84389,-112.431194 l -14.09086,-2.600622 -16.32282,2.093979 -8.98593,2.127811 -19.60053,9.778779 z"
       id="path3821"
       sodipodi:nodetypes="ccccccccccccccccc" />
    <path
       style="fill:none;stroke:#000000;stroke-width:1px;stroke-linecap:butt;stroke-linejoin:miter;stroke-opacity:1"
       d="m 117.87385,150.04289 -4.17572,-11.81707 -1.07428,-25.43293"
       id="path4101"
       sodipodi:nodetypes="ccc" />
    <path
       style="fill:#ffffff;stroke:#000000;stroke-width:1px;stroke-linecap:butt;stroke-linejoin:miter;stroke-opacity:1"
       d="m 181.15329,61.774603 5.33711,3.17526 12.16797,17.010272 6.86992,13.189468 2.88777,-0.0639 12.54793,-10.218798 12.70029,-7.066829 2.36148,-0.39544 1.13142,-1.97827 2.7602,-1.23022 9.63757,15.15901 -5.73553,0.67318 -4.91747,9.960597 -8.6144,9.124667 -10.84413,7.70182 -11.04483,4.89703 -8.49314,-0.39194 -9.70191,-6.32843 -10.42329,-9.1882 -6.38584,-9.786107 1.25888,-17.74317 6.5,-16.5 z"
       id="path2973"
       sodipodi:nodetypes="cccccccccccccccccccccc" />
    <g
       id="g4288"
       transform="matrix(-0.62403018,0.78140024,0.78140024,0.62403018,136.45685,-67.678866)">
      <path
         id="path4290"
         style="fill:none;stroke:#000000;stroke-width:1px;stroke-linecap:butt;stroke-linejoin:miter;stroke-opacity:1"
         d="m 228.80788,70.519652 0.99863,1.961802 1.80167,5.420316 0.0533,4.525635 -5.23071,3.392836 -7.47694,2.811913 m 0.24227,-17.309494 7.85187,-2.916629"
         sodipodi:nodetypes="cccccccc" />
      <path
         style="fill:#ffffff;stroke:#000000;stroke-width:1px;stroke-linecap:butt;stroke-linejoin:miter;stroke-opacity:1"
         d="m 212.69538,75.362889 2.27185,-5.705446 3.85867,-4.690874 4.34869,-2.61812 2.08021,-0.407578 0.71546,1.362188 -0.60136,1.705398 -3.14122,2.009734 -2.09273,2.827849 -0.0788,2.981141"
         id="path4298"
         sodipodi:nodetypes="cccccccccc" />
      <path
         style="fill:#ffffff;stroke:#000000;stroke-width:1px;stroke-linecap:butt;stroke-linejoin:miter;stroke-opacity:1"
         d="m 31.237252,166.46195 0.339832,0.99071 -1.722188,1.38801 -0.944231,-0.14128 -11.758884,-13.76777 2.608757,-1.74632 11.476714,13.27665 z"
         id="path4305"
         sodipodi:nodetypes="ccccccc"
         transform="matrix(-0.62403018,0.78140024,0.78140024,0.62403018,120.56463,-42.514554)" />
      <path
         id="path4292"
         d="m 235.85538,79.420463 0.87465,0.874344 -0.241,1.911686 -4.48643,1.053436 -1.63455,-1.137496 0.43118,-1.771429"
         style="fill:#ffffff;stroke:#000000;stroke-width:1px;stroke-linecap:butt;stroke-linejoin:miter;stroke-opacity:1"
         sodipodi:nodetypes="cccccc" />
      <path
         style="fill:#ffffff;stroke:#000000;stroke-width:1px;stroke-linecap:butt;stroke-linejoin:miter;stroke-opacity:1"
         d="m 236.81774,75.177822 1.06133,1.0729 -0.29244,2.345814 -5.29307,2.100131 -2.29226,-0.805265 -0.6406,-1.234197 0.82912,-1.313135"
         id="path4294"
         sodipodi:nodetypes="ccccccc" />
      <path
         style="fill:#ffffff;stroke:#000000;stroke-width:1px;stroke-linecap:butt;stroke-linejoin:miter;stroke-opacity:1"
         d="m 236.10719,70.827066 1.31947,0.674437 0.22606,3.26038 -6.08887,2.913884 -1.82528,-0.869713 0.52859,-2.392339"
         id="path4296"
         sodipodi:nodetypes="cccccc" />
      <path
         sodipodi:nodetypes="cccccccc"
         id="path4302"
         d="m 232.44052,69.613454 -3.74608,1.847554 -0.32523,2.102283 1.82528,0.869713 6.08887,-2.913884 -0.22606,-3.26038 -2.30007,-1.287878 -1.82305,0.113121"
         style="fill:#ffffff;stroke:#000000;stroke-width:1px;stroke-linecap:butt;stroke-linejoin:miter;stroke-opacity:1" />
      <path
         style="fill:#ffffff;stroke:#000000;stroke-width:1px;stroke-linecap:butt;stroke-linejoin:miter;stroke-opacity:1"
         d="m 20.125,154.5625 -1.75,1.0625 -2.6875,0.375 1,-2.5 1.8125,-1.1875 2.9375,-0.125 -1.3125,2.375 z"
         id="path4307"
         sodipodi:nodetypes="ccccccc"
         transform="matrix(-0.62403018,0.78140024,0.78140024,0.62403018,120.56463,-42.514554)" />
      <path
         style="fill:#ffffff;stroke:#000000;stroke-width:1px;stroke-linecap:butt;stroke-linejoin:miter;stroke-opacity:1"
         d="m 227.93589,68.115691 -1.31876,-8.19783 -2.9898,-8.959511 -4.27297,-7.677673 -6.07493,-7.795926 3.71565,1.711215 4.68385,4.340401 4.8543,7.303443 3.39002,9.809441 0.97404,8.643551 -2.9614,0.822889 z"
         id="path4309"
         sodipodi:nodetypes="ccccccccccc" />
    </g>
    <path
       style="fill:#ffffff;stroke:#000000;stroke-width:1px;stroke-linecap:butt;stroke-linejoin:miter;stroke-opacity:1"
       d="m 113.24885,66.917893 -9.875,7.25 -3.857464,6.72699 -2.42827,18.6678 2.03573,18.255337 -1.442372,2.70179 -12.920588,6.82574 -15.101506,12.35115 -2.333666,3.25579 -6.437962,-0.19106 10.158536,18.63606 3.102267,-4.50992 4.967932,-0.35508 15.225959,-3.72303 13.625614,-8.85113 9.90579,-11.39031 3.25,-9 1.5,-30.025127"
       id="path4099"
       sodipodi:nodetypes="cccccccccccccccccc" />
    <g
       id="g4259"
       transform="translate(28,0)">
      <path
         style="fill:none;stroke:#000000;stroke-width:1px;stroke-linecap:butt;stroke-linejoin:miter;stroke-opacity:1"
         d="m 131.98239,272.14883 4.06694,-1.81565 11.47985,0.008 4.41919,1.97726"
         id="path3839"
         sodipodi:nodetypes="cccc" />
      <path
         sodipodi:nodetypes="cccccccc"
         id="path3817"
         d="m 154.79863,229.30254 -1.56096,20.99205 -4.8471,31.21907 -13.62353,-3.00408 -2.46976,-19.15423 2.3098,-21.46793 3.45836,-10.53686 16.73319,1.95198 z"
         style="fill:#ffffff;stroke:#000000;stroke-width:1px;stroke-linecap:butt;stroke-linejoin:miter;stroke-opacity:1" />
      <path
         sodipodi:nodetypes="cccccccccccccc"
         id="path3809"
         d="m 150.74933,172.00543 2.82321,16.92025 3.40636,11.33602 -0.26767,20.46184 -2.32952,2.88482 3.406,11.63354 -4.92324,1.68316 -15.05918,-0.63417 -3.53366,-1.15004 2.24945,-11.06811 -0.11516,-2.74622 -9.92018,-14.8255 -5.7237,-14.383 -0.9452,-10.04978"
         style="fill:#ffffff;stroke:#000000;stroke-width:1px;stroke-linecap:butt;stroke-linejoin:miter;stroke-opacity:1" />
      <path
         sodipodi:nodetypes="ccc"
         id="path3815"
         d="m 120.99227,180.59966 4.07626,13.21379 4.54545,11.01747"
         style="fill:none;stroke:#000000;stroke-width:1px;stroke-linecap:butt;stroke-linejoin:miter;stroke-opacity:1" />
      <path
         sodipodi:nodetypes="cccccc"
         id="path3813"
         d="m 137.5214,210.22913 3.54145,13.60987 -3.05224,13.5459 16.10392,0.0451 -1.37256,-13.65774 -0.87967,-14.57522"
         style="fill:#ffffff;stroke:#000000;stroke-width:1px;stroke-linecap:butt;stroke-linejoin:miter;stroke-opacity:1" />
      <path
         sodipodi:nodetypes="ccccc"
         id="path3811"
         d="m 155.44886,222.41141 0.28999,3.25447 -19.89054,-0.0967 0.21944,-3.74149 19.38107,0.58376 z"
         style="fill:#ffffff;stroke:#000000;stroke-width:1px;stroke-linecap:butt;stroke-linejoin:miter;stroke-opacity:1" />
      <path
         sodipodi:nodetypes="cccccccccccccccc"
         id="path3852"
         d="m 143.58176,297.16106 -4.37949,-1.21494 -3.61484,-2.5336 -1.59662,-3.18028 0.64965,-7.6144 1.10839,-3.68999 -3.11872,-6.41161 5.49372,2.03033 7.25,0 6.22855,-2.01516 -2.35355,6.51516 1.01195,4.73223 7.12548,7.69194 0.0501,3.50965 -13.85459,2.18067 -3e-5,0 z"
         style="fill:#ffffff;stroke:#000000;stroke-width:1px;stroke-linecap:butt;stroke-linejoin:miter;stroke-opacity:1" />
      <path
         sodipodi:nodetypes="cccccccc"
         id="path3841"
         d="m 157.26128,291.34574 1.61507,7.71492 -1.55882,6.15234 -0.078,6.38609 -1.43992,0.0944 -5.18708,-7.35953 -7.29931,-5.04671 -3.11937,-4.36796"
         style="fill:#ffffff;stroke:#000000;stroke-width:1px;stroke-linecap:butt;stroke-linejoin:miter;stroke-opacity:1" />
      <path
         style="fill:#ffffff;stroke:#000000;stroke-width:1px;stroke-linecap:butt;stroke-linejoin:miter;stroke-opacity:1"
         d="m 134.75214,278.00088 0.0465,2.43997 1.75347,1.17778 7.14054,0.46299 5.17859,-1.72144 1.223,-1.02651 -0.0819,-1.253 -0.46722,-0.32657 -2.42411,1.30174 -4.07985,0.88042 -6.7428,-1.0042 -0.9737,-0.99744 -0.57253,0.0663 z"
         id="path3843"
         sodipodi:nodetypes="ccccccccccccc" />
    </g>
    <g
       id="g4270"
       transform="translate(28,2)">
      <path
         sodipodi:nodetypes="cccc"
         id="path3835"
         d="m 93.623846,275.79289 3.625,-2.125 10.375004,-0.125 4.375,2.375"
         style="fill:none;stroke:#000000;stroke-width:1px;stroke-linecap:butt;stroke-linejoin:miter;stroke-opacity:1" />
      <path
         style="fill:#ffffff;stroke:#000000;stroke-width:1px;stroke-linecap:butt;stroke-linejoin:miter;stroke-opacity:1"
         d="m 115.50042,231.87064 -3.46696,20.76254 -3.42118,30.39764 -11.293184,-0.23277 -4.2393,-24.75507 2.41444,-20.88816 3.52041,-8.75253 16.485764,3.46835 1e-5,0 z"
         id="path3823"
         sodipodi:nodetypes="ccccccccc" />
      <path
         style="fill:#ffffff;stroke:#000000;stroke-width:1px;stroke-linecap:butt;stroke-linejoin:miter;stroke-opacity:1"
         d="m 125.68806,181.4429 1.01994,8.3571 -0.64059,13.34921 -7.88074,20.60236 -2.58266,2.66059 1.58195,13.64546 -4.30611,1.47763 -15.438774,-2.00351 -3.91419,-3.9672 4.24846,-10.31714 0.13552,-2.74529 -5.02824,-15.91763 -6.13952,-17.84464 -0.5257,-13.5941"
         id="path3825"
         sodipodi:nodetypes="cccccccccccccc" />
      <path
         style="fill:none;stroke:#000000;stroke-width:1px;stroke-linecap:butt;stroke-linejoin:miter;stroke-opacity:1"
         d="m 92.270936,177.6413 -1.2606,12.00321 3.0603,10.58456"
         id="path3831"
         sodipodi:nodetypes="ccc" />
      <path
         style="fill:#ffffff;stroke:#000000;stroke-width:1px;stroke-linecap:butt;stroke-linejoin:miter;stroke-opacity:1"
         d="m 100.03274,211.3025 1.03679,13.37592 -5.023664,15.46149 16.532844,3.01207 0.12745,-16.97599 1.70187,-14.59475"
         id="path3827"
         sodipodi:nodetypes="cccccc" />
      <path
         sodipodi:nodetypes="ccccccccccccccccc"
         id="path3833"
         d="m 93.873846,276.29289 2.5,6.5 -0.93161,4.30871 -0.275497,7.43761 1.72618,3.97579 4.829831,5.35979 9.06899,4.41442 18.1835,4.72747 0.72884,-0.77182 -3.86064,-7.71117 -7.34459,-8.4908 -4.75,-7.25 -3.875,-6.5 2,-6.25 -5.875,1.75 -7.250004,0 -4.875,-1.5 z"
         style="fill:#ffffff;stroke:#000000;stroke-width:1px;stroke-linecap:butt;stroke-linejoin:miter;stroke-opacity:1" />
      <path
         sodipodi:nodetypes="ccccccccccccc"
         id="path3837"
         d="m 95.377136,281.2472 0.0465,2.43997 1.75347,1.17778 7.140544,0.46299 5.17859,-1.72144 1.223,-1.02651 -0.0819,-1.253 -0.46722,-0.32657 -2.42411,1.30174 -4.07985,0.88042 -6.742804,-1.0042 -0.9737,-0.99744 -0.57253,0.0663 z"
         style="fill:#ffffff;stroke:#000000;stroke-width:1px;stroke-linecap:butt;stroke-linejoin:miter;stroke-opacity:1" />
      <path
         style="fill:#ffffff;stroke:#000000;stroke-width:1px;stroke-linecap:butt;stroke-linejoin:miter;stroke-opacity:1"
         d="m 116.77577,225.06741 -0.008,3.26736 -19.799014,-1.90844 0.5594,-3.70594 19.247294,2.34706 z"
         id="path3829"
         sodipodi:nodetypes="ccccc" />
    </g>
    <path
       style="fill:#ffffff;stroke:#000000;stroke-width:1px;stroke-linecap:butt;stroke-linejoin:miter;stroke-opacity:1"
       d="m 136.5,53.5 -1.125,5.125 -4.29578,5.151878 L 166.5,65.25 160.75,50 136.5,53.5 z"
       id="path4313"
       sodipodi:nodetypes="cccccc" />
    <path
       style="fill:#ffffff;stroke:#000000;stroke-width:1px;stroke-linecap:butt;stroke-linejoin:miter;stroke-opacity:1"
       d="m 124.6133,79.716821 -0.55096,45.476669 -8.20912,25.04737 -0.2103,31.83674 6.96731,6.88424 16.79177,2.63384 41.34553,-11.58499 2.43086,-6.7508 -5.05111,-26.5547 6.53264,-4.43887 -4.56195,-55.301999 6.27281,-23.04453 -10.44872,-8.97723 -8.83114,-0.793856 -7.83442,6.401406 -19.29373,2.557956 -11.09104,-4.586346 -18.10038,8.90609 6.58166,0.04955 7.26028,12.23942 0,4e-5 10e-6,0 z"
       id="path2965"
       sodipodi:nodetypes="cccccccccccccccccccccc" />
    <path
       style="fill:#ffffff;stroke:#000000;stroke-width:1px;stroke-linecap:butt;stroke-linejoin:miter;stroke-opacity:1"
       d="m 235.75503,76.186356 9.72272,14.672467 -1.24816,1.04993 -9.57627,-14.827787 1.10171,-0.89461 z"
       id="path2975"
       sodipodi:nodetypes="ccccc" />
    <path
       style="fill:#ffffff;stroke:#000000;stroke-width:1px;stroke-linecap:butt;stroke-linejoin:miter;stroke-opacity:1"
       d="m 181.1527,148.45383 -2.74004,-2.82843 -14.14213,4.94975 -24.3068,1.67937 -20.5061,-2.47487 -3.53553,-1.76777 -1.59475,2.01854 1.06442,2.93121 4.50781,2.65165 19.88737,1.94454 25.19068,-2.47487 14.58408,-3.09359 1.59099,-3.53553 z"
       id="path3819"
       sodipodi:nodetypes="ccccccccccccc" />
    <g
       id="g4280"
       transform="translate(28,0)">
      <path
         sodipodi:nodetypes="cccccccc"
         d="m 228.2978,71.30001 0.77704,1.106145 2.53334,5.495615 0.0533,4.525635 -4.36114,3.295468 -7.60117,2.825823 m -0.50307,-17.226036 7.41013,-2.930057"
         style="fill:none;stroke:#000000;stroke-width:1px;stroke-linecap:butt;stroke-linejoin:miter;stroke-opacity:1"
         id="path3856" />
      <path
         sodipodi:nodetypes="cccccc"
         style="fill:#ffffff;stroke:#000000;stroke-width:1px;stroke-linecap:butt;stroke-linejoin:miter;stroke-opacity:1"
         d="m 235.85538,79.420463 0.87465,0.874344 -0.241,1.911686 -4.48643,1.053436 -1.63455,-1.137496 0.43118,-1.771429"
         id="path3862" />
      <path
         sodipodi:nodetypes="ccccccc"
         id="path3860"
         d="m 236.81774,75.177822 1.06133,1.0729 -0.29244,2.345814 -5.29307,2.100131 -2.29226,-0.805265 -0.6406,-1.234197 0.82912,-1.313135"
         style="fill:#ffffff;stroke:#000000;stroke-width:1px;stroke-linecap:butt;stroke-linejoin:miter;stroke-opacity:1" />
      <path
         sodipodi:nodetypes="ccccccc"
         id="path3858"
         d="m 236.10719,70.827066 1.31947,0.674437 0.22606,3.26038 -6.08887,2.913884 -1.82528,-0.869713 0.32523,-2.102283 3.74608,-1.847554"
         style="fill:#ffffff;stroke:#000000;stroke-width:1px;stroke-linecap:butt;stroke-linejoin:miter;stroke-opacity:1" />
      <path
         sodipodi:nodetypes="cccccccccc"
         id="path3866"
         d="m 212.69538,75.362889 2.27185,-5.705446 3.85867,-4.690874 4.34869,-2.61812 2.08021,-0.407578 0.71546,1.362188 -0.60136,1.705398 -3.14122,2.009734 -2.09273,2.827849 -0.0788,2.981141"
         style="fill:#ffffff;stroke:#000000;stroke-width:1px;stroke-linecap:butt;stroke-linejoin:miter;stroke-opacity:1" />
      <path
         sodipodi:nodetypes="cccccccccc"
         id="path3875"
         d="m 229.12976,72.520432 1.51269,-0.712973 6.95128,-1.476373 2.87997,-0.369789 3.85407,-0.120936 1.27237,-1.777064 -0.9901,-1.768346 -4.53276,0.06417 -4.22684,0.251245 -9.46518,1.826431"
         style="fill:none;stroke:#000000;stroke-width:1px;stroke-linecap:butt;stroke-linejoin:miter;stroke-opacity:1" />
    </g>
    <g
       id="g4348">
      <path
         sodipodi:nodetypes="cccccccccccccccc"
         id="path2967"
         d="m 132.43771,52.163384 -4.24264,-7.95495 -2.12132,-9.72272 -1.76777,-14.849243 7.6014,-6.187184 23.15775,-6.3639608 11.31371,6.8942908 5.12652,13.258252 -0.70711,13.081475 -3.0052,9.72272 -3.0052,10.07627 -6.54074,4.06586 -9.72272,-0.17677 -5.83363,-5.12653 -2.65165,-4.06586 -7.6014,-2.65165 z"
         style="fill:#ffffff;stroke:#000000;stroke-width:1px;stroke-linecap:butt;stroke-linejoin:miter;stroke-opacity:1" />
      <path
         sodipodi:nodetypes="csc"
         id="path2831"
         d="m 154.47651,34.406334 c -0.005,4.35207 3.31986,10.15593 4.6457,16.38685 0.61115,2.87217 -4.06519,2.27807 -8.1457,1.11315"
         style="fill:none;stroke:#000000;stroke-width:1px;stroke-linecap:butt;stroke-linejoin:miter;stroke-opacity:1" />
      <path
         sodipodi:nodetypes="ccc"
         id="path2839"
         d="m 156.79888,39.230084 c 6.61481,-1.98547 7.64405,-3.03033 6.39943,-5.9768 0,0 -6.90672,1.73963 -6.90672,1.73963"
         style="fill:none;stroke:#000000;stroke-width:0.99999994px;stroke-linecap:butt;stroke-linejoin:miter;stroke-opacity:1" />
      <path
         sodipodi:nodetypes="ccccccccccccccc"
         id="path2913"
         d="m 149.21762,20.339837 -7.47855,0.362437 -7.38128,5.426777 -1.2474,8.939343 1.03553,11.7071 0.25,8 -5.68198,-0.63908 -4.85355,-4.63909 -3.10355,-7.18198 -1.93934,-11.40076 3.42157,-14.3033 8,-7.5857898 9.25,-2.5 6.27145,-0.34987 3.4571,14.1642128 z"
         style="fill:#ffffff;stroke:#000000;stroke-width:1px;stroke-linecap:butt;stroke-linejoin:miter;stroke-opacity:1" />
      <path
         sodipodi:nodetypes="ccccccccccccccccc"
         id="path2915"
         d="m 154.44357,19.348721 6.2955,1.262563 5.25,3.75 2.75,11.5 0.59746,9.249606 -1.02554,3.222666 2.81717,1.249558 3.92157,-1.93199 -1.0607,-12.52207 -1.5,-10.5 -3.01517,-7.674175 -3.5,-6.9999996 -5.87868,-3.87868 -6.23223,-0.87133 -7.99892,1.0314148 3.25,14.1249998 5.32954,-1.012563 z"
         style="fill:#ffffff;stroke:#000000;stroke-width:1px;stroke-linecap:butt;stroke-linejoin:miter;stroke-opacity:1" />
      <path
         transform="translate(-41.409752,-137.44279)"
         d="m 202.93965,173.45212 a 0.70710677,0.70710677 0 1 1 -1.41421,0 0.70710677,0.70710677 0 1 1 1.41421,0 z"
         sodipodi:ry="0.70710677"
         sodipodi:rx="0.70710677"
         sodipodi:cy="173.45212"
         sodipodi:cx="202.23254"
         id="path2921"
         style="color:#000000;fill:none;stroke:#000000;stroke-width:1px;stroke-linecap:butt;stroke-linejoin:miter;stroke-miterlimit:4;stroke-opacity:1;stroke-dasharray:none;stroke-dashoffset:0;marker:none;visibility:visible;display:inline;overflow:visible;enable-background:accumulate"
         sodipodi:type="arc" />
      <path
         style="fill:none;stroke:#000000;stroke-width:1px;stroke-linecap:butt;stroke-linejoin:miter;stroke-opacity:1"
         d="m 154.71443,32.030514 c 3.20825,-1.92178 5.80115,-2.71106 8.24142,-3.19925"
         id="path2925"
         sodipodi:nodetypes="cc" />
      <path
         sodipodi:nodetypes="ccc"
         id="path2961"
         d="m 149.65282,58.571674 5.05179,-0.55874 5.8563,-1.59183"
         style="fill:none;stroke:#000000;stroke-width:1px;stroke-linecap:butt;stroke-linejoin:miter;stroke-opacity:1" />
      <path
         sodipodi:nodetypes="cccccccccccccccccccc"
         id="path2963"
         d="m 137.24354,51.421634 1.59099,8.66206 6.36396,6.36396 6.3033,13.08148 1.93198,-11.03338 3.08731,-1.72488 3.1302,1.43566 4.51409,9.29595 1.89277,-14.59036 2.65165,-6.18718 -0.17678,-8.48529 -0.93391,-0.33355 -3.13195,2.63165 -1.06066,6.0104 -2.65165,3.88909 -9.54594,1.76777 -5.12653,-3.0052 -2.2981,-5.48008 -5.5073,-3.171489 -1.03343,0.873389 z"
         style="fill:#ffffff;stroke:#000000;stroke-width:1px;stroke-linecap:butt;stroke-linejoin:miter;stroke-opacity:1" />
      <path
         sodipodi:nodetypes="cc"
         id="path2971"
         d="m 164.52268,39.612234 c -1.42332,1.52114 -3.93896,3.07499 -6.54073,3.18198"
         style="fill:none;stroke:#000000;stroke-width:1px;stroke-linecap:butt;stroke-linejoin:miter;stroke-opacity:1" />
      <path
         sodipodi:nodetypes="ccc"
         id="path2833"
         d="m 147.33006,40.850874 c -3.10541,-0.0625 -6.53474,1.51649 -7.74218,-2.25553 l 7.24218,-1.99447"
         style="fill:none;stroke:#000000;stroke-width:1px;stroke-linecap:butt;stroke-linejoin:miter;stroke-opacity:1" />
      <path
         transform="translate(-43.288652,-136.97496)"
         d="m 189.593,176.19215 a 0.70710677,0.70710677 0 1 1 -1.41421,0 0.70710677,0.70710677 0 1 1 1.41421,0 z"
         sodipodi:ry="0.70710677"
         sodipodi:rx="0.70710677"
         sodipodi:cy="176.19215"
         sodipodi:cx="188.88589"
         id="path2919"
         style="color:#000000;fill:none;stroke:#000000;stroke-width:1px;stroke-linecap:butt;stroke-linejoin:miter;stroke-miterlimit:4;stroke-opacity:1;stroke-dasharray:none;stroke-dashoffset:0;marker:none;visibility:visible;display:inline;overflow:visible;enable-background:accumulate"
         sodipodi:type="arc" />
      <path
         sodipodi:nodetypes="cc"
         id="path2923"
         d="m 137.8796,33.406834 c 3.62675,-0.91257 6.33711,-0.91881 8.81434,-0.68092"
         style="fill:none;stroke:#000000;stroke-width:1px;stroke-linecap:butt;stroke-linejoin:miter;stroke-opacity:1" />
      <path
         sodipodi:nodetypes="cc"
         id="path2969"
         d="m 140.39267,44.208434 c 2.47487,1.17852 4.94975,1.1785 7.42462,0"
         style="fill:none;stroke:#000000;stroke-width:1px;stroke-linecap:butt;stroke-linejoin:miter;stroke-opacity:1" />
    </g>
    <path
       sodipodi:nodetypes="ccccc"
       id="path4311"
       d="m 66.097468,142.41914 7.871664,15.74324 1.532416,-0.55853 -8.079317,-15.69373 -1.324763,0.50902 z"
       style="fill:#ffffff;stroke:#000000;stroke-width:1px;stroke-linecap:butt;stroke-linejoin:miter;stroke-opacity:1" />
  </g>
</svg>
