<?xml version="1.0" encoding="UTF-8" standalone="no"?>
<!-- Created with Inkscape (http://www.inkscape.org/) -->

<svg
   xmlns:dc="http://purl.org/dc/elements/1.1/"
   xmlns:cc="http://creativecommons.org/ns#"
   xmlns:rdf="http://www.w3.org/1999/02/22-rdf-syntax-ns#"
   xmlns:svg="http://www.w3.org/2000/svg"
   xmlns="http://www.w3.org/2000/svg"
   xmlns:sodipodi="http://sodipodi.sourceforge.net/DTD/sodipodi-0.dtd"
   xmlns:inkscape="http://www.inkscape.org/namespaces/inkscape"
   width="480"
   height="320"
   id="svg2"
   version="1.1"
   inkscape:version="0.48.0 r9654"
   sodipodi:docname="itnas302.svg"
   inkscape:export-xdpi="90"
   inkscape:export-ydpi="90"
   inkscape:export-filename="itnas301.png">
  <defs
     id="defs4">
    <inkscape:perspective
       sodipodi:type="inkscape:persp3d"
       inkscape:vp_x="0 : 160 : 1"
       inkscape:vp_y="0 : 1000 : 0"
       inkscape:vp_z="480 : 160 : 1"
       inkscape:persp3d-origin="240 : 106.66667 : 1"
       id="perspective8" />
  </defs>
  <sodipodi:namedview
     id="base"
     pagecolor="#ffffff"
     bordercolor="#666666"
     borderopacity="1.0"
     inkscape:pageopacity="1"
     inkscape:pageshadow="2"
     inkscape:zoom="2"
     inkscape:cx="234.05788"
     inkscape:cy="132.3965"
     inkscape:document-units="px"
     inkscape:current-layer="layer1"
     showgrid="false"
     inkscape:snap-nodes="true"
     inkscape:snap-global="false"
     inkscape:snap-grids="true"
     showguides="true"
     inkscape:window-width="1280"
     inkscape:window-height="998"
     inkscape:window-x="1276"
     inkscape:window-y="-4"
     inkscape:window-maximized="1">
    <inkscape:grid
       empspacing="5"
       visible="true"
       enabled="true"
       snapvisiblegridlinesonly="true"
       type="xygrid"
       id="grid2816" />
  </sodipodi:namedview>
  <metadata
     id="metadata7">
    <rdf:RDF>
      <cc:Work
         rdf:about="">
        <dc:format>image/svg+xml</dc:format>
        <dc:type
           rdf:resource="http://purl.org/dc/dcmitype/StillImage" />
        <dc:title />
      </cc:Work>
    </rdf:RDF>
  </metadata>
  <g
     inkscape:label="Layer 1"
     inkscape:groupmode="layer"
     id="layer1"
     transform="translate(0,0)">
    <path
       style="color:#000000;fill:none;stroke:#0000ff;stroke-width:4;stroke-linecap:round;stroke-linejoin:round;stroke-miterlimit:4;stroke-opacity:1;stroke-dasharray:none;stroke-dashoffset:0;marker:none;visibility:visible;display:inline;overflow:visible;enable-background:accumulate"
       d="M 280.5,59.5 C 270.99188,49.8841 255.94959,49.4874 250,48 c -8.963,-2.24075 -17.95317,-4.73829 -27,-7 -14.45301,-3.61325 -31.64776,0.71306 -44.5,-2.5 -4.40603,-1.10151 -6.9683,-3.2855 -11.5,-4.5 -22.80747,-6.11244 -43.79399,9.09919 -67,5 -8.562727,-1.51255 -9.286296,1.89137 -19.5,3.5"
       id="path3128"
       inkscape:connector-curvature="0"
       sodipodi:nodetypes="csssssc" />
    <path
       style="color:#000000;fill:none;stroke:#808080;stroke-width:4;stroke-linecap:butt;stroke-linejoin:miter;stroke-miterlimit:4;stroke-opacity:1;stroke-dasharray:none;stroke-dashoffset:0;marker:none;visibility:visible;display:inline;overflow:visible;enable-background:accumulate"
       d="M 51.18127,59.01265 C 44.12764,7.95561 51.17227,23.6979 37.81031,-17.48204 c -9.79987,-30.202747 1.58972,-47.27519 -12.94625,-68.012626 -7.27537,-11.80007 -2.35869,-18.714064 9.20535,-22.703074 15.69205,-5.41297 45.70959,-11.14714 71.94243,-8.98126 27.49504,2.27009 14.43055,5.95856 37.97903,3.56536 C 162.2089,-115.46512 157,-149.28729 156,-164.25"
       id="path3174"
       inkscape:connector-curvature="0"
       sodipodi:nodetypes="cscsssc" />
    <path
       style="color:#000000;fill:none;stroke:#808080;stroke-width:4;stroke-linecap:butt;stroke-linejoin:miter;stroke-miterlimit:4;stroke-opacity:1;stroke-dasharray:none;stroke-dashoffset:0;marker:none;visibility:visible;display:inline;overflow:visible;enable-background:accumulate"
       d="m 494,92.5 -32,0 C 411.75121,88.887 404.07156,92.83561 396.20743,76.61075 378.0298,39.1076 389.68832,60.47408 380,11.5 c -7.289,-36.84562 0,-52.25957 -27,-98 -11.53825,-26.87374 -28.2364,-20.39735 -44.9612,-17.38935 -51.48825,9.260286 -27.74577,-0.80611 -70.28543,6.834548 -11.24651,-2.154025 -19.31172,-11.292838 -20.10394,-18.887038 -1.23561,-11.84461 5.49081,-27.22965 5.35057,-36.55816"
       id="path3161"
       inkscape:connector-curvature="0"
       sodipodi:nodetypes="ccsscscsc" />
    <path
       style="color:#000000;fill:none;stroke:#808080;stroke-width:4;stroke-linecap:butt;stroke-linejoin:miter;stroke-miterlimit:4;stroke-opacity:1;stroke-dasharray:none;stroke-dashoffset:0;marker:none;visibility:visible;display:inline;overflow:visible;enable-background:accumulate"
       d="M 280.11985,59.40555 C 281.34964,55.70348 283.20239,52.8988 286,51.5 c 14.93581,-7.4679 21.44019,26.35159 20,35 -0.54613,3.27952 -5.3628,25.17241 0.48181,37.79192 10.37512,22.40166 2.65542,16.87674 19.51819,24.20808 48.7495,21.19457 88.51255,-2.61603 135,9 14.08382,2.12503 28.51132,3.19552 42.99342,3.27056"
       id="path3001"
       inkscape:connector-curvature="0"
       sodipodi:nodetypes="csssscc" />
    <path
       style="fill:none;stroke:#000000;stroke-width:1;stroke-linecap:butt;stroke-linejoin:miter;stroke-miterlimit:4;stroke-opacity:1;stroke-dasharray:none;display:inline"
       d="m 483.30019,92.62653 0,65.49381"
       id="path3099"
       inkscape:connector-curvature="0" />
    <path
       style="color:#000000;fill:none;stroke:#0000ff;stroke-width:4;stroke-linecap:round;stroke-linejoin:round;stroke-miterlimit:4;stroke-opacity:1;stroke-dasharray:none;stroke-dashoffset:0;marker:none;visibility:visible;display:inline;overflow:visible;enable-background:accumulate"
       d="m 161.17574,-172.85748 c -2.13617,-1.16123 0.25094,12.22095 0.27696,32.61163 0.014,11.01013 -1.41504,15.49596 -3.54828,20.42976 -3.71103,8.58297 1.54494,8.85001 6.66994,14.71365 16.63902,-15.58284 5.34343,-13.75032 4.84069,-23.26949 -0.99261,-18.7945 -3.22673,-41.76071 -8.23931,-44.48555 z"
       id="path4063"
       inkscape:connector-curvature="0"
       sodipodi:nodetypes="ssscss" />
    <path
       style="color:#000000;fill:none;stroke:#808080;stroke-width:4;stroke-linecap:butt;stroke-linejoin:miter;stroke-miterlimit:4;stroke-opacity:1;stroke-dasharray:none;stroke-dashoffset:0;marker:none;visibility:visible;display:inline;overflow:visible;enable-background:accumulate"
       d="m 184.23604,-123.10805 0,0 c 4.89777,-0.42432 4.27903,9.31505 1.66441,9.97205 -3.78754,0.95172 -10.18948,-3.71626 -1.66441,-9.97205 z"
       id="path3972"
       inkscape:connector-curvature="0"
       sodipodi:nodetypes="ccsc" />
    <path
       style="color:#000000;fill:none;stroke:#808080;stroke-width:4;stroke-linecap:butt;stroke-linejoin:miter;stroke-miterlimit:4;stroke-opacity:1;stroke-dasharray:none;stroke-dashoffset:0;marker:none;visibility:visible;display:inline;overflow:visible;enable-background:accumulate"
       d="m 203.45326,-121.22338 c 6.81233,1.67213 8.46413,8.27167 -1.83583,9.05379 -8.12794,0.6172 -4.80785,-10.68452 1.83583,-9.05379 z"
       id="path3974"
       inkscape:connector-curvature="0"
       sodipodi:nodetypes="sss" />
    <path
       style="color:#000000;fill:none;stroke:#808080;stroke-width:4;stroke-linecap:butt;stroke-linejoin:miter;stroke-miterlimit:4;stroke-opacity:1;stroke-dasharray:none;stroke-dashoffset:0;marker:none;visibility:visible;display:inline;overflow:visible;enable-background:accumulate"
       d="m 163.76735,-121.63566 c 17.68075,4.40964 -12.4194,16.48792 0,0 z"
       id="path3976"
       inkscape:connector-curvature="0" />
    <path
       style="color:#000000;fill:none;stroke:#0000ff;stroke-width:4;stroke-linecap:round;stroke-linejoin:round;stroke-miterlimit:4;stroke-opacity:1;stroke-dasharray:none;stroke-dashoffset:0;marker:none;visibility:visible;display:inline;overflow:visible;enable-background:accumulate"
       d="M 446.04615,150.90704 C 464.44927,152.33932 483.82131,154.9521 502,155.5"
       id="path4033"
       inkscape:connector-curvature="0" />
    <path
       id="path3019"
       style="color:#000000;fill:none;stroke:#c87137;stroke-width:4;stroke-linecap:round;stroke-linejoin:round;stroke-miterlimit:4;stroke-opacity:1;stroke-dasharray:none;stroke-dashoffset:0;marker:none;visibility:visible;display:inline;overflow:visible;enable-background:accumulate"
       d="m 307.5,114 c 4.65825,0.56983 12.18096,1.92699 20.5,10 10.80234,10.48286 -0.47425,19.20376 20.5,26 m 0,0 c 11.94819,3.87155 37.72879,2.83569 63.5,0.5 10.5446,-0.95567 22.09092,-0.52341 34.04615,0.40704"
       inkscape:connector-curvature="0" />
    <path
       style="color:#000000;fill:none;stroke:#c87137;stroke-width:4;stroke-linecap:round;stroke-linejoin:round;stroke-miterlimit:4;stroke-opacity:1;stroke-dasharray:none;stroke-dashoffset:0;marker:none;visibility:visible;display:inline;overflow:visible;enable-background:accumulate"
       d="m 258.76151,68.863027 c 49.25782,-2.218065 -48.16683,-30.768832 -53.97124,-6.480137 -1.21485,5.083585 12.88527,10.26038 19.86029,13.12015 30.1483,12.360856 28.70814,-3.016318 24.11627,-8.299113 -8.60948,-9.904936 -15.86206,-11.251427 -32.66599,-12.762382 -27.06965,-2.434024 -76.79001,3.58499 -41.92195,25.174116 22.54773,13.960778 54.64778,-27.627837 34.27797,-34.486035 -13.70329,-4.613685 -89.80158,25.846354 -68.85438,31.658897 43.34644,12.028015 49.20883,-22.462056 29.68815,-32.288046 -10.94998,-5.511809 -81.686624,21.240099 -62.26649,30.638554 19.86708,9.614735 55.6152,-30.079679 35.63452,-32.196072 C 121.67039,40.719839 40.469956,60.819647 62.392865,65.54524 74.358176,68.124423 101.70953,71.329324 107.60943,66.786464 136.32271,44.677553 39.506449,40.759029 90.528016,61.828422"
       id="path3042"
       inkscape:connector-curvature="0"
       sodipodi:nodetypes="ssssssssssssss" />
    <path
       inkscape:connector-curvature="0"
       style="fill:none;stroke:#80ff00;stroke-width:4;stroke-linecap:round;stroke-linejoin:round;stroke-miterlimit:4;stroke-opacity:1;stroke-dasharray:none"
       d="m 214.27527,-89.068113 c -0.36728,1.794118 2.84887,-0.32108 2.32091,1.787977 1.34471,2.441119 4.376,3.189442 5.66983,5.685065 1.23801,1.401016 3.20222,1.97525 4.40173,3.41923 1.31536,1.462031 3.09226,2.320429 4.82798,3.238083 1.45967,0.872552 2.60422,2.101969 3.95235,3.096122 0.45858,1.447494 1.59307,1.97895 2.15584,3.376876 0.68655,1.682258 2.7895,2.149701 3.13131,4.12409 -0.62168,0.646599 -2.51912,0.349821 -3.64377,0.625473 -3.14519,0.320236 -6.29093,0.642265 -9.43514,0.958629 -1.76016,-0.340048 -3.91708,0.188813 -5.32547,-0.845154 -1.3612,-0.481163 -3.00262,-0.296191 -4.47819,-0.485815 -1.70442,-0.01935 -3.59669,-0.207277 -5.31234,-0.410072 -1.84194,-0.01557 -3.59706,-0.297557 -5.5594,0.06942 -1.5373,0.284706 -3.46526,0.612717 -2.5472,-1.639355 0.29524,-1.685291 1.8948,-3.150244 2.1844,-4.8467 0.85256,-1.867712 1.13967,-3.768939 2.6878,-5.573906 0.66273,-1.975671 1.86246,-4.035562 2.12417,-6.00192 0.93405,-1.680778 1.44569,-3.514287 2.08049,-5.197273 0.096,-0.425467 0.13294,-1.256275 0.76454,-1.380525 z"
       id="path2942" />
    <path
       inkscape:connector-curvature="0"
       style="fill:none;stroke:#80ff00;stroke-width:4;stroke-linecap:round;stroke-linejoin:round;stroke-miterlimit:4;stroke-opacity:1;stroke-dasharray:none"
       d="m 187.02402,-109.95032 c -1.48888,3.09182 -2.54779,7.80675 -4.18082,10.783493 -1.68321,4.077095 -0.70175,7.83145 -4.34707,10.590396 -1.91931,2.064692 -6.24594,8.71987 -6.11356,3.24945 0.14733,-3.592193 -0.61618,-5.216493 -0.11855,-9.425125 -0.30827,-4.377843 1.9726,-7.107024 3.53464,-10.706154 0.29794,-2.76496 -0.12343,-8.11623 0.82887,-8.84904"
       id="path2956-7-4"
       sodipodi:nodetypes="ccccccc" />
    <path
       style="color:#000000;fill:none;stroke:#0000ff;stroke-width:4;stroke-linecap:round;stroke-linejoin:round;stroke-miterlimit:4;stroke-opacity:1;stroke-dasharray:none;stroke-dashoffset:0;marker:none;visibility:visible;display:inline;overflow:visible;enable-background:accumulate"
       d="m 153.72915,-91.294665 c -29.35867,17.175906 -30.88332,-11.060345 0,0 z"
       id="path4073"
       inkscape:connector-curvature="0"
       sodipodi:nodetypes="cc" />
    <path
       sodipodi:nodetypes="cc"
       inkscape:connector-curvature="0"
       id="path4092"
       d="m 111.24332,-80.88261 c -5.7324,33.527367 -28.333271,16.532916 0,0 z"
       style="color:#000000;fill:none;stroke:#0000ff;stroke-width:4;stroke-linecap:round;stroke-linejoin:round;stroke-miterlimit:4;stroke-opacity:1;stroke-dasharray:none;stroke-dashoffset:0;marker:none;visibility:visible;display:inline;overflow:visible;enable-background:accumulate" />
    <path
       style="color:#000000;fill:none;stroke:#0000ff;stroke-width:4;stroke-linecap:round;stroke-linejoin:round;stroke-miterlimit:4;stroke-opacity:1;stroke-dasharray:none;stroke-dashoffset:0;marker:none;visibility:visible;display:inline;overflow:visible;enable-background:accumulate"
       d="m 112.44238,-33.35227 c 14.86214,30.59512 -13.407633,29.93904 0,0 z"
       id="path4094"
       inkscape:connector-curvature="0"
       sodipodi:nodetypes="cc" />
    <path
       style="color:#000000;fill:none;stroke:#c87137;stroke-width:4;stroke-linecap:round;stroke-linejoin:round;stroke-miterlimit:4;stroke-opacity:1;stroke-dasharray:none;stroke-dashoffset:0;marker:none;visibility:visible;display:inline;overflow:visible;enable-background:accumulate"
       d="m 308.25,119.5 c 7.34103,0.0272 17.94464,8.75679 19.70815,16.66388 C 330.2532,146.45425 329,145.19262 325.25,145.25"
       id="path4097"
       inkscape:connector-curvature="0"
       sodipodi:nodetypes="csc" />
    <path
       style="color:#000000;fill:none;stroke:#0000ff;stroke-width:4;stroke-linecap:round;stroke-linejoin:round;stroke-miterlimit:4;stroke-opacity:1;stroke-dasharray:none;stroke-dashoffset:0;marker:none;visibility:visible;display:inline;overflow:visible;enable-background:accumulate"
       d="m 80.5,42.5 c -16.039194,2.52613 -33.442078,15.55792 -28,21 0.789206,14.28921 9.706873,18.50709 32.165483,12.42993 C 88.57791,72.91994 107.90681,82.16487 130,86 c 12.3752,2.1482 25.97902,-1.2521 38.5,0 29.29167,2.92917 66.42145,7.29004 92,-6 9.54834,-4.9611 27.72454,-12.52441 18.5,-22"
       id="path3917"
       inkscape:connector-curvature="0"
       sodipodi:nodetypes="cccsssc" />
    <path
       inkscape:connector-curvature="0"
       style="fill:none;stroke:#80ff00;stroke-width:3.99999976;stroke-linecap:round;stroke-linejoin:round;stroke-miterlimit:4;stroke-opacity:1;stroke-dasharray:none"
       d="m 101.03348,294.72259 c 3.09791,-7.327 4.73421,-9.87848 2.5011,-25.31068 -2.12913,-14.71362 5.65616,-17.98248 8.95344,-29.69367 2.14703,-7.62576 3.86384,-12.82653 7.47368,-22.19951 3.04239,-7.89959 -0.99672,-20.22652 -7.75941,-37.66461 -6.76269,-17.4381 -9.55237,-19.03127 -17.944751,-28.60405 C 83.697558,139.20481 75.718357,138.96087 76.760042,132.3516"
       id="path4123"
       sodipodi:nodetypes="ssssssc" />
    <path
       style="color:#000000;fill:none;stroke:#808080;stroke-width:4;stroke-linecap:round;stroke-linejoin:miter;stroke-miterlimit:4;stroke-opacity:1;stroke-dasharray:none;stroke-dashoffset:0;marker:none;visibility:visible;display:inline;overflow:visible;enable-background:accumulate"
       d="m 175,141 c -11.18199,-1.5576 -14.27676,0.40071 -23.09137,3.75036 -6.3468,2.41186 -6.11565,7.60671 -4.90863,17.74964"
       id="path4671"
       inkscape:connector-curvature="0"
       sodipodi:nodetypes="csc" />
    <path
       style="color:#000000;fill:none;stroke:#80ff00;stroke-width:4;stroke-linecap:round;stroke-linejoin:round;stroke-miterlimit:4;stroke-opacity:1;stroke-dasharray:none;stroke-dashoffset:0;marker:none;visibility:visible;display:inline;overflow:visible;enable-background:accumulate"
       d="m 207.23708,-77.219166 c -5.21915,-3.558304 -5.89272,-3.944914 -7.17138,-1.778404 -5.18315,8.782083 -1.12369,8.865968 -3.43098,13.928915 -1.78233,3.911332 -5.32601,12.46005 -13.69278,7.14263 -4.87839,-3.100413 -5.89772,-12.754509 -7.10122,-16.876467 -1.66494,-5.702345 -3.6867,-11.21836 -10.91773,-13.000107"
       id="path4733"
       inkscape:connector-curvature="0"
       sodipodi:nodetypes="cssssc" />
    <path
       inkscape:connector-curvature="0"
       style="color:#000000;fill:none;stroke:#80ff00;stroke-width:3.99999976;stroke-linecap:round;stroke-linejoin:round;stroke-miterlimit:4;stroke-opacity:1;stroke-dasharray:none;stroke-dashoffset:0;marker:none;visibility:visible;display:inline;overflow:visible;enable-background:accumulate"
       d="m 163.88131,-87.701389 c -10.41872,-1.671585 -17.76119,8.127313 -41.40098,10.118176 -5.09006,0.428667 -17.43183,12.820373 -15.01065,23.070402 3.85764,16.331221 9.59814,24.006221 22.93972,19.315671 16.96524,-5.96453 16.34239,-12.161612 26.74396,-8.949988 16.02453,4.947788 24.60749,-7.589199 37.44394,-11.165399"
       id="path4125-8"
       sodipodi:nodetypes="csssss" />
    <path
       inkscape:connector-curvature="0"
       style="fill:none;stroke:#80ff00;stroke-width:3.99999928;stroke-linecap:round;stroke-linejoin:round;stroke-miterlimit:4;stroke-opacity:1;stroke-dasharray:none"
       d="m 195.79901,-111.3972 c 0.13052,3.72486 -0.46366,7.00619 0.51854,10.48015 -2.56309,5.345219 1.65421,6.421154 2.50647,13.19364 0.54746,2.858723 2.35279,10.702967 3.36705,5.11637 1.58246,-3.692651 4.26528,-5.939263 5.03792,-10.203711 1.01782,-4.304581 2.16911,-5.318473 2.64808,-9.475749 0.0679,-2.67543 -1.73398,-5.71743 -0.84829,-8.56676"
       id="path2956-6"
       sodipodi:nodetypes="ccccccc" />
    <path
       inkscape:connector-curvature="0"
       style="fill:none;stroke:#80ff00;stroke-width:3.99999976;stroke-linecap:round;stroke-linejoin:round;stroke-miterlimit:4;stroke-opacity:1;stroke-dasharray:none"
       d="m 105.86788,8.4860258 c 0.85342,1.6678672 2.0751,-1.7955334 3.0013,0.2168502 2.6376,1.277212 5.54263,0.2598892 8.17434,1.609262 1.88701,0.482195 3.82654,-0.103798 5.7102,0.43431 1.98793,0.490564 3.95928,0.238231 5.93552,0.05662 1.72648,-0.07018 3.42891,0.3217 5.14384,0.411377 1.2928,0.939591 2.54083,0.764842 3.88534,1.607758 1.62541,1.009325 3.60774,0.261306 5.14405,1.695376 -0.084,0.864302 -1.79277,1.641711 -2.51672,2.472551 -2.31283,1.954248 -4.62495,3.910264 -6.93949,5.860789 -1.62643,0.668119 -3.01475,2.261751 -4.80338,2.17197 -1.39731,0.337898 -2.59294,1.372363 -3.89535,2.010698 -1.37672,0.900952 -3.01161,1.764829 -4.51463,2.521465 -1.48438,0.978012 -3.06987,1.690591 -4.40574,3.047295 -1.04849,1.060217 -2.38199,2.366079 -3.08739,0.02664 -0.84145,-1.539957 -0.49796,-3.600884 -1.35111,-5.146903 -0.51204,-1.989196 -1.4981,-3.701707 -1.41325,-6.013602 -0.73302,-1.975577 -1.09003,-4.309022 -2.13811,-6.061226 -0.32728,-1.879838 -1.09035,-3.657637 -1.65841,-5.378334 -0.19524,-0.4003393 -0.69703,-1.101035 -0.27087,-1.5426223 z"
       id="path2942-4" />
    <path
       inkscape:connector-curvature="0"
       style="color:#000000;fill:none;stroke:#80ff00;stroke-width:4;stroke-linecap:round;stroke-linejoin:round;stroke-miterlimit:4;stroke-opacity:1;stroke-dasharray:none;stroke-dashoffset:0;marker:none;visibility:visible;display:inline;overflow:visible;enable-background:accumulate"
       d="m 81.646346,115.46921 c -0.22177,-3.46598 -0.863523,-6.44531 -0.06087,-10.0133 0.833439,-3.70288 2.187305,-7.264812 3.459345,-10.924244 1.401018,-4.030673 2.661534,-9.447761 4.088947,-13.970324 1.783005,-5.649111 4.421885,-10.532659 6.085034,-16.307741 2.02801,-7.041629 2.50823,-14.580861 3.61212,-21.914121 0.55512,-3.687563 0.75111,-7.365212 1.630168,-11.028006 0.67829,-2.825359 3.66798,-7.079017 7.591,-8.268701"
       id="path2833"
       sodipodi:nodetypes="csssssss" />
    <path
       inkscape:connector-curvature="0"
       style="fill:none;stroke:#80ff00;stroke-width:3.99999952;stroke-linecap:round;stroke-linejoin:round;stroke-miterlimit:4;stroke-opacity:1;stroke-dasharray:none"
       d="m 114.01194,126.04335 c -4.13573,-1.13832 -7.01374,-5.6907 -11.04019,-7.03216 -5.390948,-1.15664 -8.883891,-3.43453 -13.09341,-7.29923 -2.969184,-1.89758 -12.122622,-5.72755 -5.365646,-6.79029 4.450561,-0.62354 6.277,-1.92637 11.564101,-2.25725 5.314625,-1.35983 8.039465,-3.07513 12.941245,-3.23463 3.28335,-1.14173 9.10433,-4.47902 10.44148,-3.79485"
       id="path2956-7"
       sodipodi:nodetypes="ccccccc" />
    <path
       inkscape:connector-curvature="0"
       style="fill:none;stroke:#80ff00;stroke-width:3.99999952;stroke-linecap:round;stroke-linejoin:round;stroke-miterlimit:4;stroke-opacity:1;stroke-dasharray:none"
       d="m 64.015208,58.741176 c 0.583106,-0.503091 4.824734,-2.478707 6.377302,-3.818065 4.937878,-4.162206 9.242938,-4.117109 15.016907,-9.962763 6.490643,-3.129813 8.645564,-5.589728 14.048059,-7.95385 2.616634,4.376816 3.930294,2.858449 7.626644,6.360476 5.21091,5.71328 6.53538,4.344983 13.92155,9.795974 1.88772,0.638565 4.15701,2.500432 8.57703,3.285028"
       id="path2958-6"
       sodipodi:nodetypes="ccccccc" />
    <path
       style="color:#000000;fill:none;stroke:#0000ff;stroke-width:4;stroke-linecap:round;stroke-linejoin:round;stroke-miterlimit:4;stroke-opacity:1;stroke-dasharray:none;stroke-dashoffset:0;marker:none;visibility:visible;display:inline;overflow:visible;enable-background:accumulate"
       d="m 62,63.5 c 9.498647,-6.963245 19.752897,1 32.007407,1 2.952286,0 13.845183,-2.957859 28.696293,-5 9.08195,-1.248835 7.23573,3.203909 13.7963,4.5"
       id="path3053"
       inkscape:connector-curvature="0"
       sodipodi:nodetypes="ssss" />
  </g>
</svg>
