<?xml version="1.0" encoding="UTF-8" standalone="no"?>
<!-- Created with Inkscape (http://www.inkscape.org/) -->

<svg
   xmlns:dc="http://purl.org/dc/elements/1.1/"
   xmlns:cc="http://creativecommons.org/ns#"
   xmlns:rdf="http://www.w3.org/1999/02/22-rdf-syntax-ns#"
   xmlns:svg="http://www.w3.org/2000/svg"
   xmlns="http://www.w3.org/2000/svg"
   xmlns:sodipodi="http://sodipodi.sourceforge.net/DTD/sodipodi-0.dtd"
   xmlns:inkscape="http://www.inkscape.org/namespaces/inkscape"
   width="480"
   height="320"
   id="svg2"
   version="1.1"
   inkscape:version="0.47 r22583"
   sodipodi:docname="itnas185.svg"
   inkscape:export-xdpi="90"
   inkscape:export-ydpi="90"
   inkscape:export-filename="itnas185.png">
  <defs
     id="defs4" />
  <sodipodi:namedview
     id="base"
     pagecolor="#ffffff"
     bordercolor="#666666"
     borderopacity="1.0"
     inkscape:pageopacity="1"
     inkscape:pageshadow="2"
     inkscape:zoom="1"
     inkscape:cx="204.14509"
     inkscape:cy="185.96575"
     inkscape:document-units="px"
     inkscape:current-layer="layer1"
     showgrid="false"
     inkscape:snap-nodes="true"
     inkscape:snap-global="false"
     inkscape:snap-grids="true"
     showguides="true"
     inkscape:window-width="1280"
     inkscape:window-height="998"
     inkscape:window-x="-4"
     inkscape:window-y="-4"
     inkscape:window-maximized="1">
    <inkscape:grid
       empspacing="5"
       visible="true"
       enabled="true"
       snapvisiblegridlinesonly="true"
       type="xygrid"
       id="grid2816" />
  </sodipodi:namedview>
  <metadata
     id="metadata7">
    <rdf:RDF>
      <cc:Work
         rdf:about="">
        <dc:format>image/svg+xml</dc:format>
        <dc:type
           rdf:resource="http://purl.org/dc/dcmitype/StillImage" />
        <dc:title></dc:title>
      </cc:Work>
    </rdf:RDF>
  </metadata>
  <g
     inkscape:label="Layer 1"
     inkscape:groupmode="layer"
     id="layer1"
     transform="translate(0,0)">
    <path
       sodipodi:nodetypes="cssssss"
       id="path4621"
       d="m 472.05078,91.053362 c 0.91522,7.42094 1.63142,14.851998 2.64374,22.335278 1.31922,9.75212 0,20.85584 0,30.71102 0,22.43224 2.43904,46.93118 -2.64374,68.40184 -2.69784,11.39628 3.14078,40.30396 0,50.25444 -4.97478,15.76084 -21.15426,23.03556 -35.69032,30.71098 -2.13898,1.12946 -7.99826,0 -10.57492,0"
       style="color:#000000;fill:none;stroke:#c87137;stroke-width:4;stroke-linecap:round;stroke-linejoin:round;stroke-miterlimit:4;stroke-opacity:1;stroke-dasharray:none;stroke-dashoffset:0;marker:none;visibility:visible;display:inline;overflow:visible;enable-background:accumulate" />
    <path
       style="color:#000000;fill:none;stroke:#c87137;stroke-width:4;stroke-linecap:round;stroke-linejoin:round;stroke-miterlimit:4;stroke-opacity:1;stroke-dasharray:none;stroke-dashoffset:0;marker:none;visibility:visible;display:inline;overflow:visible;enable-background:accumulate"
       d="m 203.18501,301.57479 c -9.63002,-1.1567 -20.39754,3.87218 -29.01164,0.32094 -7.44628,-3.0698 -15.24848,-9.3769 -17.35438,-18.39662 -2.867,-12.2797 -6.1132,-24.49406 -9.00982,-36.77708 -4.28824,-18.1841 -1.0872,-36.88454 -1.94886,-55.32114 -0.4318,-9.2394 4.64402,-17.76686 4.36912,-27.1508 -0.38784,-13.2385 -0.87934,-26.48472 -0.0364,-39.74084 0.44958,-7.07022 -0.112,-14.33366 -3.59952,-20.78646 -2.1129,-3.909361 -0.33742,-8.694081 -0.37352,-12.998781"
       id="path2832"
       sodipodi:nodetypes="cssssssss" />
    <path
       style="color:#000000;fill:none;stroke:#c87137;stroke-width:4;stroke-linecap:round;stroke-linejoin:round;stroke-miterlimit:4;stroke-opacity:1;stroke-dasharray:none;stroke-dashoffset:0;marker:none;visibility:visible;display:inline;overflow:visible;enable-background:accumulate"
       d="m 87.38469,100.24575 c 0.91522,7.42094 1.63142,14.852 2.64374,22.33528 1.31922,9.75212 0,20.85584 0,30.71102 0,22.43224 2.43904,46.93118 -2.64374,68.40184 -2.69784,11.39628 3.14078,40.30396 0,50.25444 -4.97478,15.76084 -21.15426,23.03556 -35.69032,30.71098 -2.13898,1.12946 -7.99826,0 -10.57492,0"
       id="path2850"
       sodipodi:nodetypes="cssssss" />
    <path
       style="fill:none;stroke:#94f3f3;stroke-width:4;stroke-linecap:round;stroke-linejoin:round;stroke-miterlimit:4;stroke-opacity:1;stroke-dasharray:none"
       d="m 149.35305,92.708489 c 11.14984,7.516121 12.35516,13.033701 25.59562,14.313861 15.50372,1.49898 30.44566,-4.36238 43.59768,-9.901421 24.6884,-10.3976 -21.99274,-44.7011 0.0676,-26.5629 9.2622,7.61544 12.44386,6.29824 23.98324,6.7671 12.3455,0.50158 16.59284,0.76116 20.68652,-16.51474 4.36404,-18.41674 4.56676,-38.05582 1.06094,-56.4255101 -1.26708,-6.6393 -10.14286,-13.35274 -15.23246,-13.93452 -23.54376,-2.6912399 -16.36196,1.29504 3.91714,-7.2783599 9.84984,-4.16422 36.6839,-19.93304 22.36856,-31.27136 -10.77654,-8.53544 -26.81906,-13.16378 -40.564,-7.42672 -6.13088,2.559 -16.95702,4.26742 -19.59812,10.23872 -8.3409,18.85806 -4.4922,15.20184 -2.64554,-5.36656 1.01406,-11.29456 -8.28316,-34.16834 -12.18592,-36.82194 -1.00438,-0.6829 -7.96816,-9.18132 -15.28136,-11.6081 -8.26324,-2.742059 -13.483,4.62398 -24.94664,16.1953 -6.31816,6.3775 -5.98624,19.0514 -3.21826,-0.016 0.1956,-1.3473 -7.86238,-13.55738 -9.70642,-16.1827 -9.59494,-13.660089 -18.82746,-14.471789 -32.90444,-24.643389 -13.17048,-9.51659 -31.42632,-10.38886 -45.42638,-7.55222 -10.94872,2.21839 -16.02456,19.90474 -22.67522,30.52193 -8.14088,12.996179 8.58032,55.857499 -0.56906,42.150659 -3.02586,-4.53308 -15.87138,-27.26004 -25.86874,-38.49888 -11.9992404,-13.489339 -22.3181504,5.08326 -32.23561,11.39708 -13.317882,8.47862 -24.733822,18.41412 -29.494422,35.636 -4.3259,15.64936 -6.32674,33.86632 9.80742,43.4573599 4.40964,2.62132 35.7713116,23.5355201 17.90574,13.50448 -8.95272,-5.02672 -21.74256,2.76522 -28.97988,9.0339401 -8.93966,7.74323 -15.8523,16.53481 -17.0284,30.01271 -1.44962,16.61228 14.03484,23.86008 27.70456,26.72502 14.58724,3.0572 38.2139916,15.5276 42.870992,13.27528 11.11854,-5.37738 -17.9592304,15.089141 -26.929892,23.185341 -9.84626,8.88644 -14.04388,29.74992 2.61618,33.62852 19.4736316,4.53362 40.833652,11.8767 59.977632,5.3793 13.9078,-4.72026 24.52552,-17.70754 30.89854,-30.28946 2.95782,-5.83946 4.82452,-36.607801 8.204,-23.374501 2.9789,11.664761 16.87882,18.378901 26.77094,25.704341 16.62264,12.30958 31.84036,-15.28742 31.7597,-24.250281 -0.0678,-7.5283 -6.76792,-11.61094 5.69768,-3.20788 z"
       id="path2827"
       sodipodi:nodetypes="cssssssssssssssssssssssssssssssssssssss" />
    <path
       style="fill:none;stroke:#008000;stroke-width:4;stroke-linecap:butt;stroke-linejoin:miter;stroke-miterlimit:4;stroke-opacity:1;stroke-dasharray:none"
       d="m -15.94827,305.24006 c 32.14481,5.7047 65.03398,1.4905 97.50784,2.8376 28.75232,0.1816 57.60066,5.24048 86.05526,0.61578 48.72352,-2.5707 99.12614,-9.5072 147.76249,-5.73899 30.02432,0.062 58.63942,-6.12554 88.56173,-3.94444 21.38344,-2.1054 43.57746,-1.1061 64.37741,5.1461 11.14672,1.6839 21.84356,6.1322 33.33743,5.3266"
       id="path4190"
       sodipodi:nodetypes="ccccccc" />
    <path
       id="path5493"
       style="color:#000000;fill:none;stroke:#ff0000;stroke-width:4;stroke-linecap:round;stroke-linejoin:round;stroke-miterlimit:4;stroke-opacity:1;stroke-dasharray:none;stroke-dashoffset:0;marker:none;visibility:visible;display:inline;overflow:visible;enable-background:accumulate"
       d="m 402.97134,168.39048 c -2.97417,0.30849 -7.0399,-1.19629 -13.66487,-2.92912 -8.29961,-2.25038 -11.17317,-0.21879 -17.35789,-2.45938 -7.90057,-0.0831 -12.9899,1.07759 -22.14032,-1.31196 m 67.17849,25.08315 c -6.66707,-2.38189 -15.93666,-4.20828 -14.91383,-7.35269 3.08943,-11.8504 -0.0924,-22.13049 3.62601,-25.23593 7.15575,-0.60951 10.81503,-2.41396 16.28906,-4.11402"
       sodipodi:nodetypes="cccccccc" />
    <path
       style="fill:none;stroke:#80ff00;stroke-width:3.99999976;stroke-linecap:round;stroke-linejoin:round;stroke-miterlimit:4;stroke-opacity:1;stroke-dasharray:none"
       d="m 463.61015,199.22674 c -3.72466,-0.40902 1.88048,-5.15592 -2.53994,-5.45602 -4.26334,-4.02198 -4.42778,-10.17582 -8.82186,-14.13552 -2.24342,-3.18436 -2.52748,-7.22664 -4.87304,-10.365 -2.33082,-3.3671 -3.2612,-7.23154 -4.32726,-11.05486 -1.0967,-3.27714 -3.04002,-6.18072 -4.42734,-9.32262 -2.67582,-1.74832 -3.23678,-4.20552 -5.76866,-6.1193 -3.0427,-2.32046 -3.05432,-6.55796 -6.82764,-8.40982 -1.5558,0.77188 -1.79376,4.51876 -2.83192,6.46296 -2.00812,5.7132 -4.02002,11.42628 -6.01994,17.14004 -0.0922,3.51544 -2.08368,7.24398 -0.64376,10.52356 0.36216,2.85226 -0.72118,5.82294 -0.98812,8.7115 -0.70496,3.21426 -1.15704,6.88468 -1.5024,10.23238 -0.77248,3.47028 -0.97684,6.94078 -2.5628,10.40278 -1.23614,2.71396 -2.72874,6.13538 2.14602,5.79014 3.47704,0.47762 7.08518,-1.63018 10.58188,-1.13496 4.08252,-0.45752 7.98498,0.1676 12.24618,-1.63528 4.2142,-0.035 8.82996,-1.0271 12.85072,-0.31406 3.74668,-0.7253 7.61258,-0.56326 11.23304,-0.72518 0.88722,0.0804 2.55388,0.51986 3.07624,-0.59072 z"
       id="path2942"
       inkscape:transform-center-x="-0.25757356"
       inkscape:transform-center-y="-35.168944" />
    <path
       style="fill:none;stroke:#0000ff;stroke-width:4;stroke-linecap:round;stroke-linejoin:round;stroke-miterlimit:4;stroke-opacity:1;stroke-dasharray:none"
       d="m 328.74399,203.11829 c -2.88154,5.95914 -6.26972,11.84432 -7.51902,18.40302 -3.01484,7.04598 -3.75348,14.95368 -7.34642,21.69844 0.74254,7.49218 -4.40836,13.85188 -4.60438,21.258 -0.91956,5.3894 -2.75414,9.43506 -2.89102,15.1084 -0.88368,2.12158 0.47918,4.00598 -0.77134,-1.01748"
       id="path2909" />
    <path
       style="fill:none;stroke:#80ff00;stroke-width:3.99999976;stroke-linecap:round;stroke-linejoin:round;stroke-miterlimit:4;stroke-opacity:1;stroke-dasharray:none"
       d="m 438.18633,202.1176 c -0.0569,5.62551 -3.60321,9.98372 -8.5853,14.38579 -4.03307,3.56352 -8.87316,7.88486 -14.62059,7.18511 -24.82128,0.636 -44.37793,3.74381 -69.01953,1.78448 -15.33786,2.37171 -35.41788,-1.08972 -49.45148,-0.2 -12.8795,0.58439 -34.9042,-0.88418 -46.81513,2.53177"
       id="path2952-1"
       sodipodi:nodetypes="cscccc" />
    <path
       style="fill:none;stroke:#80ff00;stroke-width:3.99999976;stroke-linecap:round;stroke-linejoin:round;stroke-miterlimit:4;stroke-opacity:1;stroke-dasharray:none"
       d="m 377.89285,294.57836 c 0.86244,-8.5354 0.96512,-17.2928 5.78554,-25.13434 4.70624,-9.97248 8.715,-20.28892 14.92886,-29.88118 2.74946,-6.48888 6.72232,-23.18098 11.07614,-10.21222 7.13446,8.6982 12.79428,17.68586 16.1103,27.58516 4.4576,10.02536 10.33448,21.06176 12.2872,30.67436 -1.41898,2.85664 2.4965,4.68234 1.59428,7.5477"
       id="path2956" />
    <path
       style="fill:none;stroke:#80ff00;stroke-width:3.99999976;stroke-linecap:round;stroke-linejoin:round;stroke-miterlimit:4;stroke-opacity:1;stroke-dasharray:none"
       d="m 227.05977,300.68352 c 0.40664,-1.48564 2.59188,-9.46752 3.6748,-13.42266 3.553,-12.41784 11.64306,-16.27198 19.13976,-31.1404 2.90256,-8.85196 13.49238,-25.499 15.87906,-30.00314 3.45094,9.59708 6.46282,19.38766 10.02116,28.92954 4.3334,14.84616 11.61418,28.0973 24.87738,38.14466 1.92524,1.04978 6.52354,1.9467 4.02546,5.1432"
       id="path2958" />
    <path
       style="color:#000000;fill:none;stroke:#80ff00;stroke-width:4;stroke-linecap:round;stroke-linejoin:round;stroke-miterlimit:4;stroke-opacity:1;stroke-dasharray:none;stroke-dashoffset:0;marker:none;visibility:visible;display:inline;overflow:visible;enable-background:accumulate"
       d="m 23.15912,160.80268 c 2.125728,12.36588 -8.202422,25.84598 -7.135376,39.20765 2.209312,27.66525 -5.352081,53.05911 18.428303,62.89755 18.820252,7.78633 36.901482,29.37952 61.323303,24.29883 31.99683,-6.65659 66.90289,-3.78991 91.50752,-20.18847 18.90293,-12.59849 17.12671,-13.45522 28.97862,-27.96591 0.96637,-1.18314 19.28763,-10.16633 33.05395,-11.15505"
       id="path4125"
       sodipodi:nodetypes="cssssss" />
    <path
       style="fill:none;stroke:#0000ff;stroke-width:4;stroke-linecap:round;stroke-linejoin:round;stroke-miterlimit:4;stroke-opacity:1;stroke-dasharray:none"
       d="m 332.86938,89.157769 c -4.7036,0.2834 -6.286,4.3474 -7.9394,6.8636 -3.664,3.4368 -2.3888,4.756801 -5.671,9.151401 -0.182,3.9308 -2.404,7.0226 -1.7012,11.3182 -0.6518,6.2812 4.4534,11.583 8.795,15.313 3.5992,2.1524 6.9136,4.602 11.314,4.2546 3.1072,-0.2464 6.61,0.5494 9.4034,-0.5238 3.3402,-3.7844 10.2838,-5.2444 12.2716,-8.5936 0.2342,-3.71 0.168,-7.3976 0.7482,-10.999 -6e-4,-5.4964 8e-4,-10.9928 0,-16.489001 -2.1032,-1.9802 -3.1228,-5.0882 -5.5178,-5.7196 -1.3226,-1.354 -4.6042,-0.7528 -6.3646,-1.753 -4.5444,-1.9098 -10.0856,-1.4052 -15.3382,-2.8228 z"
       id="path2905" />
    <path
       style="fill:none;stroke:#0000ff;stroke-width:4;stroke-linecap:round;stroke-linejoin:round;stroke-miterlimit:4;stroke-opacity:1;stroke-dasharray:none"
       d="m 337.75973,138.11763 c 0.9232,4.993 -2.9076,11.0034 -1.491,12.9408 -2.0174,7.4876 -2.6236,15.3556 -4.7378,22.8094 -2.221,6.343 -1.9034,13.026 -2.8448,19.1578 0,3.0506 0,6.101 0,9.1514"
       id="path2907" />
    <path
       style="fill:none;stroke:#0000ff;stroke-width:4;stroke-linecap:round;stroke-linejoin:round;stroke-miterlimit:4;stroke-opacity:1;stroke-dasharray:none"
       d="m 329.50365,204.01784 c 2.2356,3.7368 6.8076,12.192 10.2076,17.8458 3.1546,8.1906 9.1366,13.2874 12.5748,21.1408 4.2912,4.9474 7.2596,10.411 10.6762,16.61 2.631,3.4164 2.915,12.1726 4.7768,13.096 0.4078,0.389 1.733,4.8924 0.327,2.6906"
       id="path2881" />
    <path
       id="path5493-4"
       style="color:#000000;fill:none;stroke:#ff0000;stroke-width:4;stroke-linecap:round;stroke-linejoin:round;stroke-miterlimit:4;stroke-opacity:1;stroke-dasharray:none;stroke-dashoffset:0;marker:none;visibility:visible;display:inline;overflow:visible;enable-background:accumulate"
       d="m 268.89665,152.00322 c -2.95062,-0.48434 -7.09842,0.77664 -13.81456,2.11342 -8.41846,1.75418 -11.16644,-0.44426 -17.47318,1.42558 -7.89158,-0.38568 -12.9031,-1.84616 -22.17916,-0.004 m 68.54794,-21.05458 c -6.79662,1.98224 -16.15822,3.25564 -15.3237,6.45518 2.38114,12.01276 -1.40476,22.08604 2.12288,25.40656 7.10702,1.03286 10.65282,3.05114 16.0164,5.07288"
       sodipodi:nodetypes="cccccccc" />
    <path
       style="fill:none;stroke:#0000ff;stroke-width:4;stroke-linecap:round;stroke-linejoin:round;stroke-miterlimit:4;stroke-opacity:1;stroke-dasharray:none"
       d="m 334.89571,142.82818 c -5.93825,-0.11273 -11.24241,0.10369 -15.44258,-0.22572 -6.94732,-0.53818 -13.9872,0.14603 -20.7089,-2.42316 -3.81138,-1.24585 -6.95888,-2.1572 -10.88417,-3.03129 -2.03588,-0.14042 -3.95143,-2.09269 -5.76573,-1.60578"
       id="path2894" />
    <path
       style="fill:none;stroke:#0000ff;stroke-width:4;stroke-linecap:round;stroke-linejoin:round;stroke-miterlimit:4;stroke-opacity:1;stroke-dasharray:none"
       d="m 286.63841,169.34344 c 5.08794,-3.97882 16.02976,-10.09402 22.88514,-12.68696 9.10344,-1.60828 16.85208,-4.26388 18.94626,-8.93332 1.76026,-0.68341 3.14964,-4.92223 8.38852,-4.54258"
       id="path2911"
       sodipodi:nodetypes="cccc" />
    <path
       sodipodi:nodetypes="cssssssssssssssssssssssssssssssssssssss"
       id="path4623"
       d="m 569.60109,-74.910374 c 13.415,-0.92133 17.22165,-5.09337 29.32299,0.42985 14.16989,6.46735 24.16723,19.02403 32.77675,30.40528 16.16143,21.36434 -41.42347,27.67608 -13.24507,23.02521 11.83091,-1.95268 13.92508,0.78089 24.14774,6.15438 10.93678,5.74889 14.74304,7.65142 9.63396,24.6547295 -5.44644,18.1261505 -15.10688,35.2261645 -27.34147,49.3701075 -4.42189,5.11201 -15.46658,6.477503 -20.16323,4.43202 -21.72602,-9.462107 -13.5134,-9.315524 -0.25479,8.261573 6.43989,8.537441 21.76841,35.625434 3.69925,38.269644 -13.6024,1.99056 -29.80594,-2.03804 -38.82948,-13.887633 -4.02491,-5.285475 -12.53978,-12.186276 -11.83514,-18.677448 2.22532,-20.499877 3.72539,-15.407702 -4.97758,3.320019 -4.77898,10.283813 -24.28207,25.425722 -28.98909,25.767892 -1.21136,0.088 -11.4951,3.95612 -19.04041,2.39391 -8.52551,-1.76513 -9.35429,-10.754985 -13.48127,-26.511841 -2.27459,-8.684349 4.36021,-19.48793 -2.79356,-1.597962 -0.50547,1.26411 -13.59522,7.796768 -16.50617,9.145542 -15.14626,7.017945 -23.54394,3.096556 -40.82246,4.850306 -16.16585,1.640815 -32.40394,-6.747324 -43.10093,-16.214253 -8.36555,-7.403595 -3.901,-25.254056 -4.34,-37.774566 -0.53738,-15.32599 35.40192,-44.0498205 20.61789,-36.7682605 -4.88933,2.40813 -27.3901,15.6458505 -41.67204,20.3665605 -17.14178,5.666 -16.77147,-15.5774605 -22.1933,-26.0093405 -7.28084,-14.0086495 -12.18581,-28.3257395 -7.68103,-45.6162995 4.09346,-15.71176 11.4853,-32.48143 30.25363,-32.70237 5.12958,-0.0604 42.74901,-2.45557 22.2617,-2.72094 -10.26652,-0.13297 -17.43423,-13.28281 -20.55887,-22.333346 -3.8596,-11.17938 -5.43968,-22.25096 0.29253,-34.5057 7.06527,-15.10468 24.09769,-13.62284 37.36429,-9.25633 14.15704,4.65963 40.85262,5.69901 43.75542,9.98087 6.93042,10.22289 -7.98736,-22.05489 -11.69701,-33.55531 -4.07175,-12.62293 2.74414,-32.7835 19.10669,-27.79669 19.12587,5.82899 41.29156,10.17104 54.6074,25.38276 9.67375,11.05108 12.3594,27.60984 11.57408,41.69187 -0.36447,6.53568 -14.15856,34.10194 -4.6058,24.34049 8.42047,-8.60443 23.81412,-7.45428 36.04501,-8.84047 20.55267,-2.32931 19.90279,29.178636 15.34407,36.895986 -3.8291,6.48212 -11.67307,6.66018 3.32498,5.63015 z"
       style="fill:none;stroke:#94f3f3;stroke-width:4;stroke-linecap:round;stroke-linejoin:round;stroke-miterlimit:4;stroke-opacity:1;stroke-dasharray:none" />
  </g>
</svg>
