<?xml version="1.0" encoding="UTF-8" standalone="no"?>
<!-- Created with Inkscape (http://www.inkscape.org/) -->

<svg
   xmlns:dc="http://purl.org/dc/elements/1.1/"
   xmlns:cc="http://creativecommons.org/ns#"
   xmlns:rdf="http://www.w3.org/1999/02/22-rdf-syntax-ns#"
   xmlns:svg="http://www.w3.org/2000/svg"
   xmlns="http://www.w3.org/2000/svg"
   xmlns:sodipodi="http://sodipodi.sourceforge.net/DTD/sodipodi-0.dtd"
   xmlns:inkscape="http://www.inkscape.org/namespaces/inkscape"
   width="480"
   height="320"
   id="svg2"
   version="1.1"
   inkscape:version="0.47 r22583"
   sodipodi:docname="itnas198.svg"
   inkscape:export-xdpi="90"
   inkscape:export-ydpi="90"
   inkscape:export-filename="itnas198.png">
  <defs
     id="defs4">
    <inkscape:perspective
       sodipodi:type="inkscape:persp3d"
       inkscape:vp_x="0 : 160 : 1"
       inkscape:vp_y="0 : 1000 : 0"
       inkscape:vp_z="480 : 160 : 1"
       inkscape:persp3d-origin="240 : 106.66667 : 1"
       id="perspective2909" />
  </defs>
  <sodipodi:namedview
     id="base"
     pagecolor="#ffffff"
     bordercolor="#666666"
     borderopacity="1.0"
     inkscape:pageopacity="1"
     inkscape:pageshadow="2"
     inkscape:zoom="1"
     inkscape:cx="347.6875"
     inkscape:cy="175.37772"
     inkscape:document-units="px"
     inkscape:current-layer="layer1"
     showgrid="false"
     inkscape:snap-nodes="true"
     inkscape:snap-global="true"
     inkscape:snap-grids="true"
     showguides="true"
     inkscape:window-width="1280"
     inkscape:window-height="774"
     inkscape:window-x="1276"
     inkscape:window-y="1020"
     inkscape:window-maximized="1"
     inkscape:object-nodes="false">
    <inkscape:grid
       empspacing="5"
       visible="true"
       enabled="true"
       snapvisiblegridlinesonly="true"
       type="xygrid"
       id="grid2816" />
  </sodipodi:namedview>
  <metadata
     id="metadata7">
    <rdf:RDF>
      <cc:Work
         rdf:about="">
        <dc:format>image/svg+xml</dc:format>
        <dc:type
           rdf:resource="http://purl.org/dc/dcmitype/StillImage" />
        <dc:title />
      </cc:Work>
    </rdf:RDF>
  </metadata>
  <g
     inkscape:label="Layer 1"
     inkscape:groupmode="layer"
     id="layer1"
     transform="translate(0,0)">
    <path
       style="color:#000000;fill:none;stroke:#c87137;stroke-width:4;stroke-linecap:round;stroke-linejoin:round;stroke-miterlimit:4;stroke-opacity:1;stroke-dasharray:none;stroke-dashoffset:0;marker:none;visibility:visible;display:inline;overflow:visible;enable-background:accumulate"
       d="m 130.5391,134.73803 c 3.30065,-0.0871 6.62863,0.13881 9.8995,0 5.23625,-3.71135 12.53023,-0.53365 16.99856,-5.258 6.22726,-4.26815 3.31264,-16.20591 5.71653,-23.34953 2.80392,-10.187219 3.65664,-19.098017 4.06996,-29.354312 -0.24962,-9.014446 4.08625,-18.692584 3.62054,-27.722652 0,-30.599771 2.12132,-25.137097 2.12132,-55.7368689"
       id="path3230"
       sodipodi:nodetypes="ccccccc" />
    <path
       sodipodi:nodetypes="ccccccc"
       id="path3241"
       d="m 269.16706,136.15225 c -3.30065,-0.0871 -6.62862,0.13881 -9.89949,0 -5.23625,-3.71135 -12.53024,-0.53365 -16.99857,-5.258 -6.22726,-4.26815 -4.01974,-16.91302 -6.42363,-24.05664 0.73161,-10.894329 -0.82821,-19.09802 1.58689,-29.354315 0.24962,-9.014446 -1.96493,-17.27837 -3.62054,-27.722652 0,-30.599771 0,-23.722883 0,-54.3226555"
       style="color:#000000;fill:none;stroke:#c87137;stroke-width:4;stroke-linecap:round;stroke-linejoin:round;stroke-miterlimit:4;stroke-opacity:1;stroke-dasharray:none;stroke-dashoffset:0;marker:none;visibility:visible;display:inline;overflow:visible;enable-background:accumulate" />
    <path
       style="color:#000000;fill:none;stroke:#008000;stroke-width:4;stroke-linecap:butt;stroke-linejoin:miter;stroke-miterlimit:4;stroke-opacity:1;stroke-dasharray:none;stroke-dashoffset:0;marker:none;visibility:visible;display:inline;overflow:visible;enable-background:accumulate"
       d="m 569.3556,141.51119 c -14.85566,-0.88338 -31.74913,4.52256 -48,1 -18.24713,-1.31484 -31.35922,-5.66093 -49,-7 -15.08464,-0.70412 -27.34135,2.27997 -41.14903,1.29165 -21.58102,1.0372 -43.27606,2.8392 -65.02775,2.70835 -21.71067,2.51124 -40.7299,3.11223 -61.42249,0.0555 -34.35217,-2.38333 -48.61404,3.06949 -73.40073,-0.0555 -19.98378,-2.98315 -38.04719,4.35479 -57.66908,3 -16.64996,-0.33966 -33.28518,-4.39802 -49.83092,-3.5 -18.40515,2.80193 -34.54511,1.89781 -52.39934,2.5 -12.42187,0.53712 -24.62844,-0.50848 -36.75472,-3.02291 -16.062131,-1.09743 -31.8382312,-0.7647 -47.429462,0.49238 l 0,0"
       id="path2949"
       sodipodi:nodetypes="ccccccccccccc" />
    <path
       id="path3641"
       style="color:#000000;fill:none;stroke:#008000;stroke-width:4;stroke-linecap:butt;stroke-linejoin:miter;stroke-miterlimit:4;stroke-opacity:1;stroke-dasharray:none;stroke-dashoffset:0;marker:none;visibility:visible;display:inline;overflow:visible;enable-background:accumulate"
       d="m -21.92031,284.29111 c 17.592835,-2.70125 38.003174,-0.91825 59.806938,0.40052 14.870805,0.57461 31.648336,-5.18108 47.968871,-1.99685 18.270501,0.93553 31.470041,5.00831 49.134831,5.98065 13.28754,3.71385 27.70956,0.50653 41.53657,1.20457 14.09415,-0.97064 22.83108,-1.27399 36.85089,-3.04436 8.36296,2.11872 -1.05738,20.02903 5.65685,23.68808 7.42134,-0.93714 14.73788,-2.28535 21.84973,-4.3612 20.2014,-4.35498 41.40366,-2.03571 62.07465,-3.29014 34.06759,5.29391 48.06365,-0.62019 72.85468,-1.51368 18.90966,4.83796 38.05895,-2.6235 57.63586,-2.1977 16.65343,-0.006 33.28461,3.46582 49.44491,4.974 17.29166,2.70674 34.92034,-4.97999 52.78406,-6.09776 12.40804,-0.79504 24.63369,-0.003 36.80959,2.25878"
       sodipodi:nodetypes="cccccccccccccc" />
    <path
       id="path2916"
       d="m 357.88055,160.48738 c 0.0149,-5.06163 1.1487,-9.93936 -4.59817,-16.21438 -5.27198,-7.40575 -9.49612,-14.72013 -16.9797,-22.52406 -10.5771,-16.931 -4.04147,-17.44911 -15.44258,-11.33307 -8.86737,4.95338 -19.78707,5.83154 -25.97691,9.96085 -7.84081,3.73845 -17.85921,7.46271 -22.05748,11.98365 1.6115,2.14998 -4.25494,1.5788 -3.38375,3.52516"
       style="fill:none;stroke:#80ff00;stroke-width:3.99999928;stroke-linecap:round;stroke-linejoin:round;stroke-miterlimit:4;stroke-opacity:1;stroke-dasharray:none"
       sodipodi:nodetypes="ccccccc"
       inkscape:transform-center-x="13.402302"
       inkscape:transform-center-y="26.02818" />
    <path
       id="path2918"
       d="m 455.64224,157.73477 c -0.26164,-0.94396 -1.66779,-6.0158 -2.36466,-8.52898 -1.09663,-6.16739 -6.37363,-10.33123 -8.44793,-13.27606 -3.19273,-5.27825 -6.12983,-14.44219 -13.52586,-20.16763 -0.13953,-4.46411 -4.31051,-7.95409 -6.84047,-11.40184 -3.62163,4.68026 -14.01598,8.22369 -20.48571,12.45864 -2.03676,4.7154 -9.38897,8.70855 -17.58336,14.85609 -0.59519,0.46749 -5.23277,2.88181 -8.60088,3.82344"
       style="fill:none;stroke:#80ff00;stroke-width:3.99999952;stroke-linecap:round;stroke-linejoin:round;stroke-miterlimit:4;stroke-opacity:1;stroke-dasharray:none"
       sodipodi:nodetypes="cccccccc"
       inkscape:transform-center-x="8.5347961"
       inkscape:transform-center-y="25.377356" />
    <path
       sodipodi:nodetypes="csscccss"
       id="path2920"
       d="m 288.4867,98.704566 c 4.21585,2.176274 10.17988,2.137584 15.80105,3.763024 5.83402,1.68625 13.2716,2.82474 19.44321,2.2456 6.7977,-0.6379 15.69593,-0.5281 23.26798,-1.01926 9.47367,-0.10674 18.07842,-2.03835 27.66191,-3.22826 13.48417,-0.51641 24.90065,0.88033 35.36784,0.75559 5.9416,0.54544 11.73066,1.64553 17.75746,1.67773 4.64896,0.0248 15.41797,2.94647 18.65833,2.6598"
       style="color:#000000;fill:none;stroke:#80ff00;stroke-width:4;stroke-linecap:round;stroke-linejoin:round;stroke-miterlimit:4;stroke-opacity:1;stroke-dasharray:none;stroke-dashoffset:0;marker:none;visibility:visible;display:inline;overflow:visible;enable-background:accumulate" />
    <path
       style="color:#000000;fill:none;stroke:#80ff00;stroke-width:3.99999952;stroke-linecap:round;stroke-linejoin:round;stroke-miterlimit:4;stroke-opacity:1;stroke-dasharray:none;stroke-dashoffset:0;marker:none;visibility:visible;display:inline;overflow:visible;enable-background:accumulate"
       d="m 446.76554,105.83367 c 0.006,-0.0116 40.08644,0.97763 56.54634,12.10042 8.30024,2.58264 41.70319,18.55239 59.42657,22.63513 22.07124,3.89085 25.52374,9.06019 39.5493,13.83253 16.28439,5.54093 18.34377,0.69653 32.89401,-0.45912 11.4193,-0.90698 24.94797,0.28834 45.85825,6.59347 17.81726,-0.0693 39.77167,11.785 56.22535,22.69538"
       id="path4125-8-8"
       sodipodi:nodetypes="cccsscs" />
    <path
       style="color:#000000;fill:none;stroke:#80ff00;stroke-width:3.99999976;stroke-linecap:round;stroke-linejoin:round;stroke-miterlimit:4;stroke-opacity:1;stroke-dasharray:none;stroke-dashoffset:0;marker:none;visibility:visible;display:inline;overflow:visible;enable-background:accumulate"
       d="m 277.88323,123.05158 c -2.40363,1.20522 -7.33575,-7.33164 -10.78612,-10.26703 -2.80403,-2.38566 -6.04935,-4.35214 -8.52015,-6.99655 -2.74043,-2.93318 -5.02914,-6.25908 -7.90736,-9.067396 -4.32045,-4.215767 -9.12819,-8.02155 -13.78667,-11.937519 -2.27755,-1.914408 -5.24585,-2.730536 -6.73787,-5.226227 -1.85202,-3.100563 -7.79824,-6.096066 -6.66524,-8.435279 1.05323,-2.17458 6.84287,-0.758397 10.26049,-1.511382 10.48273,-2.309602 14.78118,-1.136657 21.92571,-0.323353 5.0433,0.574225 9.15534,2.787978 14.18745,2.902 5.51845,0.124867 10.91964,-1.440486 16.44477,-1.385682 3.47661,0.0344 6.66652,1.159631 10.05691,1.408268 5.0671,0.371689 0.3456,4.360246 -0.74965,6.219901 -2.02711,3.441935 -3.35772,7.166456 -5.18303,10.691766 -1.57751,3.046829 -1.66635,6.595513 -3.55861,9.620526 -2.04575,3.270297 -4.20457,6.626207 -5.39595,10.221407 -1.14065,3.44207 -2.06734,7.00262 -2.75793,10.58755 -0.33881,1.76151 0.38664,2.89057 -0.82673,3.49901 l -2e-5,-1e-5 z"
       id="path2870"
       sodipodi:nodetypes="csssssssssssssssssc" />
    <path
       style="fill:none;stroke:#0000ff;stroke-width:3.99999976;stroke-linecap:round;stroke-linejoin:round;stroke-miterlimit:4;stroke-opacity:1;stroke-dasharray:none"
       d="m 174.41129,51.506828 c 0.34457,6.316379 -1.91898,11.835472 -3.92312,15.158197 -2.74634,5.172579 -3.43846,6.958748 -8.21825,10.195965 -4.12872,2.158078 -6.51221,6.481331 -11.39886,7.700699 -6.44746,3.904388 -12.63564,-0.6793 -18.42968,-4.333684 -3.79808,-3.490494 -8.73157,-6.046241 -10.18888,-11.774971 -1.02784,-4.045694 -3.33485,-8.079847 -3.34793,-12.134723 2.65954,-6.075474 1.33527,-15.562374 4.09141,-19.716111 2.7266,-4.51739 9.34835,-10.450245 12.99985,-12.864485 5.87966,-2.695778 14.11918,1.390096 18.40667,1.734759 2.99215,1.685303 11.59117,5.401202 13.39263,7.134212 3.93145,4.803405 4.12014,12.408905 6.61616,18.900143 z"
       id="path2905"
       sodipodi:nodetypes="cccccscccccc" />
    <path
       style="fill:none;stroke:#0000ff;stroke-width:3.99999976;stroke-linecap:round;stroke-linejoin:round;stroke-miterlimit:4;stroke-opacity:1;stroke-dasharray:none"
       d="m 147.45062,86.573509 c 0.0992,7.327251 4.93396,15.007501 3.96261,18.094781 5.07721,9.78268 7.59693,20.75433 8.99744,31.40713 -0.43916,8.87906 -1.68749,18.63537 -0.6412,27.40877 -0.54661,4.35354 -1.07112,11.20666 -1.61772,15.5599"
       id="path2907"
       sodipodi:nodetypes="ccccc" />
    <path
       id="path2909"
       style="fill:none;stroke:#0000ff;stroke-width:3.99999976;stroke-linecap:round;stroke-linejoin:round;stroke-miterlimit:4;stroke-opacity:1;stroke-dasharray:none"
       d="m 117.83651,276.62946 c -0.0248,7.27237 -0.88196,4.30092 0.49717,1.6141 1.52985,-7.79123 4.30462,-12.87406 6.52328,-20.0603 2.0139,-10.16616 8.57345,-17.5388 9.69869,-28.07934 5.14405,-8.32834 7.8075,-19.0388 12.46533,-27.94024 2.82625,-8.70991 7.56014,-15.90787 11.8211,-23.34591 3.49883,10.11776 7.55414,22.05081 10.60809,30.03324 2.65612,11.54816 8.32148,18.77034 11.28106,29.8468 3.98628,6.99687 6.62078,14.70793 9.65845,23.4573 2.42097,4.82868 2.17704,17.1466 3.98022,18.46205 0.38371,0.55077 1.43549,6.89657 0.16439,3.78718"
       sodipodi:nodetypes="ccccccccccc" />
    <path
       style="fill:none;stroke:#808080;stroke-width:3.99999976;stroke-linecap:round;stroke-linejoin:round;stroke-miterlimit:4;stroke-opacity:1;stroke-dasharray:none"
       d="m 108.47911,67.672367 c 0.96483,-0.899947 -0.0381,9.247201 0.0284,14.577691 -1.30485,6.653393 0.31037,5.596918 -0.68306,11.401893 -0.97562,2.305475 -4.31207,-1.872525 -5.96269,0.121989 C 99.81,94.614338 96.521493,109.18337 95.082713,107.98706 92.114536,105.6768 95.348444,95.774916 97.053516,91.992486 95.66142,89.774054 89.247041,89.558039 93.025712,87.457234 101.10989,78.49227 103.93239,71.912901 108.47911,67.672367 z"
       id="path3747"
       sodipodi:nodetypes="cccccccs" />
    <path
       style="fill:none;stroke:#0000ff;stroke-width:3.99999976;stroke-linecap:round;stroke-linejoin:round;stroke-miterlimit:4;stroke-opacity:1;stroke-dasharray:none"
       d="m 93.039734,101.58123 c 10.658966,7.25861 14.043856,13.11368 23.176036,19.20337 3.2729,5.1877 11.67698,10.98225 14.48234,13.59027 4.28953,5.1547 7.78093,-13.54375 7.41096,-26.05605 1.84883,-5.41012 6.66513,-26.596249 11.36014,-18.590784 9.53132,10.973774 9.92939,17.095454 14.63104,23.211574 7.45334,9.46009 12.24761,15.24858 20.33977,31.42347 3.14247,4.85269 5.87704,8.94668 9.59894,14.24565 2.30183,2.97877 2.3071,4.44114 5.08501,7.54647"
       id="path2911"
       sodipodi:nodetypes="ccccccccc" />
    <path
       style="fill:none;stroke:#000000;stroke-width:1px;stroke-linecap:butt;stroke-linejoin:miter;stroke-opacity:1"
       d="m -36.348549,86.094105 1.83508,193.084515"
       id="path3211" />
    <path
       style="fill:none;stroke:#0000ff;stroke-width:4;stroke-linecap:round;stroke-linejoin:round;stroke-miterlimit:4;stroke-opacity:1;stroke-dasharray:none"
       d="m 51.457453,142.44514 c -2.460601,-4.01866 -0.03457,-7.6428 1.081797,-10.43899 0.720028,-4.97173 2.532363,-4.68195 4.256264,-9.88901 3.118599,-2.39973 5.528909,-3.07693 9.453175,-4.96008 5.677761,-2.45702 11.698501,-4.40993 16.442717,-4.47099 3.825379,1.7186 7.73136,3.03355 9.965894,6.84026 1.57695,2.68861 4.23487,5.10489 4.95428,8.00959 0.53893,4.39594 1.0158,9.00046 0.75047,13.67027 -1.37334,3.59898 -5.91251,8.98251 -9.300237,10.87867 -4.506758,3.14637 -8.238787,3.03069 -12.902645,4.41601 -3.918771,1.10404 -5.802468,2.11358 -8.52459,1.11826 -1.86735,-0.30917 -5.910113,-3.28425 -7.73806,-4.15491 -4.167618,-2.63246 -4.269542,-7.52416 -8.439078,-11.01907 l 1.3e-5,-1e-5 z"
       id="path2905-1"
       sodipodi:nodetypes="cccccscccccccc" />
    <path
       style="fill:none;stroke:#0000ff;stroke-width:4;stroke-linecap:round;stroke-linejoin:round;stroke-miterlimit:4;stroke-opacity:1;stroke-dasharray:none"
       d="m 53.005805,147.31018 c -3.828929,3.6831 -8.292763,4.79682 -9.633144,6.94943 -3.900924,4.86707 -6.341628,13.54468 -8.083709,20.93441 -0.08806,3.73161 -1.235939,11.62475 -2.201359,19.67987 0.230667,3.14148 0.461321,6.28275 0.691977,9.42401"
       id="path2907-7"
       sodipodi:nodetypes="ccccc" />
    <path
       id="path2909-4"
       style="fill:none;stroke:#0000ff;stroke-width:4;stroke-linecap:round;stroke-linejoin:round;stroke-miterlimit:4;stroke-opacity:1;stroke-dasharray:none"
       d="m 13.446799,275.87256 c 0.235756,5.15639 -0.371949,3.08468 0.348729,1.12407 0.633789,-5.58523 2.094893,-9.30094 3.155664,-14.48522 0.837433,-7.28844 4.451337,-12.78084 4.751893,-20.29865 2.746373,-6.11251 3.948062,-13.81315 6.388004,-20.3122 1.366571,-6.28905 3.910011,-11.58361 6.16633,-17.02917 2.411417,7.03063 5.213455,15.32556 7.289027,20.86049 1.963774,8.07882 5.552955,12.96895 7.679417,20.70106 2.591372,4.79848 4.410277,10.15804 6.502664,16.23733 1.593754,3.3249 1.874044,12.06697 2.982563,12.92638 0.245212,0.37489 1.083879,4.83079 0.227332,2.67808"
       sodipodi:nodetypes="ccccccccccc" />
    <path
       style="fill:none;stroke:#80ff00;stroke-width:3.99999976;stroke-linecap:round;stroke-linejoin:round;stroke-miterlimit:4;stroke-opacity:1;stroke-dasharray:none"
       d="m 319.77885,210.90576 c -3.67715,-0.16972 2.0119,-5.33887 -2.35757,-5.35275 -4.10604,-3.78923 -4.09066,-10.00356 -8.32797,-13.72116 -2.1297,-3.07423 -2.29394,-7.14471 -4.52614,-10.16571 -2.21102,-3.25334 -3.02053,-7.10155 -3.96567,-10.89929 -0.99129,-3.24322 -2.83191,-6.0531 -4.11494,-9.14049 -2.59953,-1.59324 -3.08396,-4.04214 -5.53616,-5.81214 -2.94637,-2.14795 -2.83514,-6.43376 -6.51871,-8.05979 -1.56324,0.88277 -1.90749,4.68859 -2.99204,6.72333 -2.15438,5.91095 -4.31252,11.82206 -6.4588,17.73302 -0.1931,3.56215 -2.27358,7.46439 -0.94244,10.68761 0.27609,2.86154 -0.88296,5.93761 -1.23099,8.87712 -0.79134,3.29768 -1.3454,7.04021 -1.78447,10.44931 -0.86556,3.56105 -1.16852,7.08518 -2.83957,10.69119 -1.30294,2.82637 -2.88034,6.38523 1.95773,5.71656 3.42994,0.25531 7.06461,-2.11335 10.51349,-1.84151 4.05671,-0.73035 7.90371,-0.35365 12.17631,-2.45667 4.17493,-0.31138 8.77523,-1.61761 12.73686,-1.15983 3.73183,-0.97919 7.55605,-1.06855 11.14654,-1.46962 0.87639,0.023 2.51437,0.35851 3.06392,-0.79917 z"
       id="path2942" />
    <path
       style="fill:none;stroke:#80ff00;stroke-width:4;stroke-linecap:round;stroke-linejoin:round;stroke-miterlimit:4;stroke-opacity:1;stroke-dasharray:none"
       d="m 306.36309,299.43353 c 2.16137,-7.62467 4.85196,-15.27672 4.40181,-23.16174 0.28868,-9.71656 1.1073,-19.58042 0.36483,-29.29519 0.37697,-6.25401 3.22131,-21.6646 -3.48787,-11.31735 -7.04833,6.01907 -13.29592,12.61254 -18.41273,20.5124 -5.84677,7.76024 -12.86958,16.09118 -17.07189,24.03917 -0.0399,2.79883 -2.98143,3.53385 -3.33651,6.22733"
       id="path2956"
       inkscape:transform-center-y="35.702483"
       inkscape:transform-center-x="20.430631" />
    <path
       style="fill:none;stroke:#80ff00;stroke-width:3.99999952;stroke-linecap:round;stroke-linejoin:round;stroke-miterlimit:4;stroke-opacity:1;stroke-dasharray:none"
       d="m 405.19894,297.67362 c 1.07808,-1.28262 6.87002,-8.17398 9.73999,-11.58885 8.94088,-10.81601 8.52876,-18.49118 17.75509,-33.44556 6.20476,-7.93868 15.53295,-26.03931 18.27515,-30.64099 -9.73654,4.52949 -19.43737,9.46463 -29.17592,13.88944 -14.60346,7.62795 -29.19474,12.3272 -43.78992,11.10533 -1.66471,-0.35103 -4.57318,-0.12504 -8.32014,1.39286"
       id="path2958"
       sodipodi:nodetypes="ccccccc"
       inkscape:transform-center-x="42.588106"
       inkscape:transform-center-y="39.024459" />
    <path
       style="color:#000000;fill:none;stroke:#80ff00;stroke-width:4;stroke-linecap:round;stroke-linejoin:round;stroke-miterlimit:4;stroke-opacity:1;stroke-dasharray:none;stroke-dashoffset:0;marker:none;visibility:visible;display:inline;overflow:visible;enable-background:accumulate"
       d="m 295.10038,215.80095 c 0.1922,6.65454 3.26106,15.48888 10.57045,15.22016 7.58587,-0.27974 15.0856,-1.6344 22.74701,-2.79239 8.43863,-1.27535 19.55143,-1.76569 28.96681,-2.91243 11.76072,-1.43243 22.33037,-4.8285 34.29476,-5.97906 14.58839,-1.40312 29.58708,0.41939 44.40969,0.94016 7.45362,0.26182 14.75304,1.16334 22.27978,0.84191 5.78059,-0.24684 17.98088,1.30111 23.57851,-1.24173"
       id="path2833"
       sodipodi:nodetypes="csssssss" />
    <path
       style="color:#000000;fill:none;stroke:#80ff00;stroke-width:3.99999976;stroke-linecap:round;stroke-linejoin:round;stroke-miterlimit:4;stroke-opacity:1;stroke-dasharray:none;stroke-dashoffset:0;marker:none;visibility:visible;display:inline;overflow:visible;enable-background:accumulate"
       d="m 482.05188,219.57042 c 34.48464,-1.97906 43.49668,-13.7118 79.54099,-18.7182 19.7553,-2.74393 43.85542,7.76885 67.3016,2.77025 29.60456,1.50694 36.24244,-12.71025 62.11114,-13.42346 22.25869,4.81649 25.23723,8.49012 62.36939,24.29948 25.001,19.5206 37.76118,44.42243 60.99336,58.08413"
       id="path4125-8"
       sodipodi:nodetypes="cscccs" />
    <path
       style="fill:none;stroke:#0000ff;stroke-width:4;stroke-linecap:round;stroke-linejoin:round;stroke-miterlimit:4;stroke-opacity:1;stroke-dasharray:none"
       d="m 97.06361,158.38206 c -5.905092,8.85069 -16.068184,16.71652 -25.275675,18.59756 -6.896997,-0.13707 -12.07501,-2.67515 -17.383273,-6.42283 -2.44115,-0.34504 -9.606432,-8.23196 -10.919778,-11.27103 -1.372577,-3.17617 -0.48432,-7.35776 5.035066,-5.16566 8.755979,3.47757 10.546727,15.62013 18.976259,15.80793 6.399004,1.61253 10.375032,-2.55002 15.796958,-5.21946 3.085829,-4.00156 8.131036,-6.78334 10.723273,-10.14581"
       id="path2911-0-1"
       sodipodi:nodetypes="cccccccc" />
  </g>
</svg>
