<?xml version="1.0" encoding="UTF-8" standalone="no"?>
<!-- Created with Inkscape (http://www.inkscape.org/) -->

<svg
   xmlns:dc="http://purl.org/dc/elements/1.1/"
   xmlns:cc="http://creativecommons.org/ns#"
   xmlns:rdf="http://www.w3.org/1999/02/22-rdf-syntax-ns#"
   xmlns:svg="http://www.w3.org/2000/svg"
   xmlns="http://www.w3.org/2000/svg"
   xmlns:sodipodi="http://sodipodi.sourceforge.net/DTD/sodipodi-0.dtd"
   xmlns:inkscape="http://www.inkscape.org/namespaces/inkscape"
   width="480"
   height="320"
   id="svg2"
   version="1.1"
   inkscape:version="0.48.0 r9654"
   sodipodi:docname="itnas285.svg"
   inkscape:export-xdpi="90"
   inkscape:export-ydpi="90"
   inkscape:export-filename="itnas285.png">
  <defs
     id="defs4">
    <inkscape:perspective
       sodipodi:type="inkscape:persp3d"
       inkscape:vp_x="0 : 160 : 1"
       inkscape:vp_y="0 : 1000 : 0"
       inkscape:vp_z="480 : 160 : 1"
       inkscape:persp3d-origin="240 : 106.66667 : 1"
       id="perspective8" />
  </defs>
  <sodipodi:namedview
     id="base"
     pagecolor="#ffffff"
     bordercolor="#666666"
     borderopacity="1.0"
     inkscape:pageopacity="1"
     inkscape:pageshadow="2"
     inkscape:zoom="2"
     inkscape:cx="254.56513"
     inkscape:cy="157.05584"
     inkscape:document-units="px"
     inkscape:current-layer="layer1"
     showgrid="false"
     inkscape:snap-nodes="true"
     inkscape:snap-global="false"
     inkscape:snap-grids="true"
     showguides="true"
     inkscape:window-width="1280"
     inkscape:window-height="998"
     inkscape:window-x="1276"
     inkscape:window-y="-4"
     inkscape:window-maximized="1"
     inkscape:object-nodes="true">
    <inkscape:grid
       empspacing="5"
       visible="true"
       enabled="true"
       snapvisiblegridlinesonly="true"
       type="xygrid"
       id="grid2816" />
  </sodipodi:namedview>
  <metadata
     id="metadata7">
    <rdf:RDF>
      <cc:Work
         rdf:about="">
        <dc:format>image/svg+xml</dc:format>
        <dc:type
           rdf:resource="http://purl.org/dc/dcmitype/StillImage" />
        <dc:title></dc:title>
      </cc:Work>
    </rdf:RDF>
  </metadata>
  <g
     inkscape:label="Layer 1"
     inkscape:groupmode="layer"
     id="layer1"
     transform="translate(0,0)">
    <path
       inkscape:connector-curvature="0"
       id="path4112"
       d="m 451.64958,118.92781 c -5.44567,5.39414 -7.47049,5.20131 -10.53714,3.64007 -15.01219,-7.64274 1.19175,-27.125085 8.03714,-26.27065"
       style="color:#000000;fill:none;stroke:#808080;stroke-width:3.99999952;stroke-linecap:round;stroke-linejoin:round;stroke-miterlimit:4;stroke-opacity:1;stroke-dasharray:none;stroke-dashoffset:0;marker:none;visibility:visible;display:inline;overflow:visible;enable-background:accumulate"
       sodipodi:nodetypes="csc" />
    <path
       sodipodi:nodetypes="csc"
       style="color:#000000;fill:none;stroke:#808080;stroke-width:3.99999952;stroke-linecap:round;stroke-linejoin:round;stroke-miterlimit:4;stroke-opacity:1;stroke-dasharray:none;stroke-dashoffset:0;marker:none;visibility:visible;display:inline;overflow:visible;enable-background:accumulate"
       d="m 86.93414,36.42781 c 6.44567,3.89414 10.212713,2.557822 12.03714,-0.35993 7.29964,-11.674104 2.15726,-22.002548 -9.53714,-24.27065"
       id="path4114"
       inkscape:connector-curvature="0" />
    <path
       style="color:#000000;fill:none;stroke:#808080;stroke-width:3.99999952;stroke-linecap:round;stroke-linejoin:round;stroke-miterlimit:4;stroke-opacity:1;stroke-dasharray:none;stroke-dashoffset:0;marker:none;visibility:visible;display:inline;overflow:visible;enable-background:accumulate"
       d="M 7.177387,99.37628 C 19.702482,92.785613 30.366223,84.393265 43.261162,81.037188 61.44983,75.634787 77.425783,71.176232 94.96748,60.385917 c 18.92263,-10.45026 36.80571,-22.685646 56.57521,-31.617078 8.37489,-9.278987 19.58894,0.203393 29.68544,2.033292 9.90459,3.174952 20.11978,6.986116 27.22518,14.57074 21.59058,9.464804 43.41657,18.399319 65.74277,26.067528 4.85175,3.559342 21.87912,3.492698 8.89022,8.014145 -14.29686,6.950284 -28.4678,14.707765 -39.60269,26.070556 -24.9769,13.09328 -41.12596,38.07336 -67.65222,48.75494 -10.5405,2.78289 -18.04947,10.38119 -27.12838,15.48446 -11.24832,-0.0233 -17.42874,-9.73214 -28.1596,-12.66527 C 104.18688,143.63434 86.407023,137.18403 70.357526,134.59146 59.780746,123.39551 44.862522,120.45962 32.205537,112.55854 24.205173,106.88933 17.726877,101.35412 7.177387,99.37628 z"
       id="path2984"
       inkscape:connector-curvature="0"
       sodipodi:nodetypes="ccccccccccccccc" />
    <path
       style="color:#000000;fill:none;stroke:#808080;stroke-width:3.99999952;stroke-linecap:round;stroke-linejoin:round;stroke-miterlimit:4;stroke-opacity:1;stroke-dasharray:none;stroke-dashoffset:0;marker:none;visibility:visible;display:inline;overflow:visible;enable-background:accumulate"
       d="m 286.38775,-33.499989 c 0,34.26931042 8.15723,72.579786 0.9603,107.910612 16.21726,2.690539 34.65013,18.767062 50.89613,18.767062 2.35108,-10.570566 1.66401,-24.275646 0,-35.657419 -1.2548,-8.582803 1.2548,-17.691084 0,-26.273887 -2.692,-18.413195 1.30924,-39.1988511 1.30924,-57.960017"
       id="path2994"
       inkscape:connector-curvature="0"
       sodipodi:nodetypes="cccssc" />
    <path
       style="color:#000000;fill:none;stroke:#c87137;stroke-width:4;stroke-linecap:round;stroke-linejoin:round;stroke-miterlimit:4;stroke-opacity:1;stroke-dasharray:none;stroke-dashoffset:0;marker:none;visibility:visible;display:inline;overflow:visible;enable-background:accumulate"
       d="m 358.25309,48.4618 c -0.8089,-13.155839 -5.55566,-21.366546 -11.67536,-25.718478 -0.71543,-0.367262 -5.16114,-2.406098 -9.38125,-0.380262 -2.87061,1.378018 -3.41514,0.924944 -3.58909,12.056694 1.88342,14.343635 0.0154,17.899729 9.78837,23.493655 9.91656,5.260115 15.23659,-3.283277 14.85733,-9.451609 z"
       id="path3043"
       inkscape:connector-curvature="0"
       sodipodi:nodetypes="scsccs" />
    <path
       style="color:#000000;fill:none;stroke:#808080;stroke-width:3.99999952;stroke-linecap:round;stroke-linejoin:round;stroke-miterlimit:4;stroke-opacity:1;stroke-dasharray:none;stroke-dashoffset:0;marker:none;visibility:visible;display:inline;overflow:visible;enable-background:accumulate"
       d="m 427.28109,194.78154 c 10.2665,-4.80523 36.54084,-29.30812 43.53548,-38.91489 -8.84702,-6.57555 -31.35828,-11.5715 -39.55887,-16.78606 -12.04187,-6.21275 -23.98258,-12.6169 -34.54865,-21.09468 -10.89294,-4.63627 -18.97442,-13.54596 -30.91029,-16.3823 -10.63202,-0.89059 -24.87711,-14.45677 -32.98115,-5.740545 -9.61294,12.609085 -24.66074,19.556195 -35.89364,30.413515 -7.60387,12.90422 -25.44327,14.72087 -35.67113,25.3303 -9.82859,5.33053 -16.38971,14.22833 -23.88632,22.24396 -7.59154,8.65953 -16.2808,13.39859 -24.2723,18.35368 -4.58928,5.24489 11.38804,8.64849 15.03595,13.79282 21.85763,16.87575 38.95802,23.03857 66.3168,35.94534 8.13184,8.34951 19.91451,12.63679 31.8123,18.67068 4.34367,4.06404 5.47816,3.62012 9.48271,-0.70456 1.69341,-2.35898 2.8574,-4.27526 4.75802,-4.9088"
       id="path2998"
       inkscape:connector-curvature="0"
       sodipodi:nodetypes="cccccccccccccc" />
    <path
       style="color:#000000;fill:none;stroke:#808080;stroke-width:3.99999952;stroke-linecap:round;stroke-linejoin:round;stroke-miterlimit:4;stroke-opacity:1;stroke-dasharray:none;stroke-dashoffset:0;marker:none;visibility:visible;display:inline;overflow:visible;enable-background:accumulate"
       d="m 292.64958,129.92781 c 0,-5.04353 0,-10.08707 0,-15.13058"
       id="path3008"
       inkscape:connector-curvature="0" />
    <path
       style="color:#000000;fill:none;stroke:#808080;stroke-width:3.99999952;stroke-linecap:round;stroke-linejoin:round;stroke-miterlimit:4;stroke-opacity:1;stroke-dasharray:none;stroke-dashoffset:0;marker:none;visibility:visible;display:inline;overflow:visible;enable-background:accumulate"
       d="m 87.428684,322.42347 c 3.695068,0 3.945809,-5.00396 5.157186,-7.08391 0.558735,-0.95933 15.67162,-10.59693 16.96363,-11.33639 7.31194,-4.18485 27.17961,-5.98891 33.00601,-9.74037 16.44267,-10.587 36.97481,-19.42042 52.60333,-31.87758 -10.52147,0 -18.96899,-10.35614 -27.84883,-14.16781 -2.91734,-1.25226 -6.44012,-1.28366 -9.28294,-2.65646 -7.15577,-3.45555 -14.0539,-9.82588 -20.62876,-14.16782 -15.1373,-9.99642 -33.22084,-16.6644 -48.477571,-26.56463 -9.117768,-1.98102 -16.117213,-8.04377 -23.723071,-12.39684 -2.897559,-1.65837 -7.474677,-1.98956 -9.282942,-3.54196"
       id="path3022"
       inkscape:connector-curvature="0"
       sodipodi:nodetypes="ccsscssscsc" />
    <path
       style="color:#000000;fill:none;stroke:#808080;stroke-width:3.99999952;stroke-linecap:round;stroke-linejoin:round;stroke-miterlimit:4;stroke-opacity:1;stroke-dasharray:none;stroke-dashoffset:0;marker:none;visibility:visible;display:inline;overflow:visible;enable-background:accumulate"
       d="m 182.67489,321.11707 c 17.95158,-8.58575 -11.06101,4.84343 9.58558,-3.05635 10.37714,-3.97048 16.72318,-14.62035 26.62662,-19.35688 2.0083,-0.96052 4.42759,-0.99452 6.39038,-2.03757 4.9087,-2.60855 8.04749,-8.66634 13.84585,-10.18784 10.85232,7.82359 24.3472,12.34074 35.14714,20.37568 6.8304,5.08168 19.57828,20.15327 27.51026,20.15327"
       id="path3024"
       inkscape:connector-curvature="0"
       sodipodi:nodetypes="cssscsc" />
    <path
       style="color:#000000;fill:none;stroke:#808080;stroke-width:3.99999952;stroke-linecap:round;stroke-linejoin:round;stroke-miterlimit:4;stroke-opacity:1;stroke-dasharray:none;stroke-dashoffset:0;marker:none;visibility:visible;display:inline;overflow:visible;enable-background:accumulate"
       d="m 195.15885,261.69489 c 0,-4.90336 0,-9.80673 0,-14.71008"
       id="path3028"
       inkscape:connector-curvature="0" />
    <path
       style="color:#000000;fill:none;stroke:#808080;stroke-width:3.99999952;stroke-linecap:round;stroke-linejoin:round;stroke-miterlimit:4;stroke-opacity:1;stroke-dasharray:none;stroke-dashoffset:0;marker:none;visibility:visible;display:inline;overflow:visible;enable-background:accumulate"
       d="m 238.85269,286.47843 c 0,-4.69176 0,-9.38353 0,-14.07529"
       id="path3032"
       inkscape:connector-curvature="0" />
    <path
       style="color:#000000;fill:none;stroke:#808080;stroke-width:3.99999952;stroke-linecap:round;stroke-linejoin:round;stroke-miterlimit:4;stroke-opacity:1;stroke-dasharray:none;stroke-dashoffset:0;marker:none;visibility:visible;display:inline;overflow:visible;enable-background:accumulate"
       d="m 137.06043,65.496268 c -3.16133,34.333374 0.22981,61.743072 1.48943,93.751772"
       id="path4001"
       inkscape:connector-curvature="0" />
    <path
       style="color:#000000;fill:none;stroke:#808080;stroke-width:3.99999952;stroke-linecap:round;stroke-linejoin:round;stroke-miterlimit:4;stroke-opacity:1;stroke-dasharray:none;stroke-dashoffset:0;marker:none;visibility:visible;display:inline;overflow:visible;enable-background:accumulate"
       d="m 138.92979,172.99736 c 0.0337,2.29563 0.0517,4.6204 0.0513,6.978 C 130.98182,179.04928 120.4946,167.58915 112.52203,166.4868 101.85617,159.25245 93.309269,157.86415 90.965834,153.70147 80.88264,150.88641 67.43838,142.44122 67.43838,142.44122"
       id="path3046"
       inkscape:connector-curvature="0" />
    <path
       style="color:#000000;fill:none;stroke:#808080;stroke-width:3.99999928;stroke-linecap:round;stroke-linejoin:round;stroke-miterlimit:4;stroke-opacity:1;stroke-dasharray:none;stroke-dashoffset:0;marker:none;visibility:visible;display:inline;overflow:visible;enable-background:accumulate"
       d="m 415.55016,158.27083 c 0.49626,11.6152 3.76106,19.57404 4.6626,30.82993 4.75909,33.21489 0.0981,71.74177 2.32172,103.33182 0.8819,11.32438 1.6447,22.6586 2.44228,33.98957"
       id="path3037"
       inkscape:connector-curvature="0"
       sodipodi:nodetypes="cccc" />
    <path
       id="path3985"
       style="color:#000000;fill:none;stroke:#808080;stroke-width:3.99999952;stroke-linecap:round;stroke-linejoin:round;stroke-miterlimit:4;stroke-opacity:1;stroke-dasharray:none;stroke-dashoffset:0;marker:none;visibility:visible;display:inline;overflow:visible;enable-background:accumulate"
       d="m 355.52965,152.29394 c -5.54121,21.56817 -11.20219,52.63804 -9.47312,97.12506 0.1475,16.68304 0.22826,26.21938 0.22826,35.92796 -8.37024,-1.23143 -5.91673,-4.29988 -11.53908,-7.00105 -2.76338,-1.32764 -10.45728,-3.49153 -14.23268,-5.9142 -9.14456,-5.86807 -6.80853,-4.30586 -22.37909,-11.25813 -35.24252,-15.73581 -37.24767,-21.89598 -64.3492,-34.65155 -3.46983,-1.6331 -7.96605,-5.71396 -10.90282,-7.43222 -11.76073,-6.8811 -18.5316,-7.44625 -28.33917,-11.93652 -7.91921,-3.62569 -14.73159,-9.06818 -19.33236,-11.28666 -0.87832,-12.03741 -1.67447,-23.15248 -2.36071,-33.88898"
       inkscape:connector-curvature="0"
       sodipodi:nodetypes="cccsssssscc" />
    <path
       style="color:#000000;fill:none;stroke:#808080;stroke-width:3.99999952;stroke-linecap:round;stroke-linejoin:round;stroke-miterlimit:4;stroke-opacity:1;stroke-dasharray:none;stroke-dashoffset:0;marker:none;visibility:visible;display:inline;overflow:visible;enable-background:accumulate"
       d="m 172.08097,149.24543 c -1.18638,-21.01541 -1.89004,-41.38783 -1.89004,-65.451276"
       id="path3892"
       inkscape:connector-curvature="0" />
    <path
       style="color:#000000;fill:none;stroke:#c87137;stroke-width:4;stroke-linecap:round;stroke-linejoin:round;stroke-miterlimit:4;stroke-opacity:1;stroke-dasharray:none;stroke-dashoffset:0;marker:none;visibility:visible;display:inline;overflow:visible;enable-background:accumulate"
       d="m 226.25637,-47.133073 c 4.37022,22.021713 2.92306,44.7851365 2.92306,67.22707 0,5.802653 -4.82095,39.997338 0,44.818047 2.10536,2.105247 18.27297,0 32.06866,2.922916 13.79568,2.922916 26.39269,11.636764 26.39269,9.743054 0,-20.219872 5.63326,-99.592006 -4.87178,-110.096507 -7.20838,-7.208011 -21.02767,-11.880387 -32.15374,-15.588886 -7.85652,-2.618707 -15.22776,-8.156354 -24.35889,0.974306 z"
       id="path3930"
       inkscape:connector-curvature="0"
       sodipodi:nodetypes="csscsssc" />
    <path
       style="color:#000000;fill:none;stroke:#c87137;stroke-width:4;stroke-linecap:round;stroke-linejoin:round;stroke-miterlimit:4;stroke-opacity:1;stroke-dasharray:none;stroke-dashoffset:0;marker:none;visibility:visible;display:inline;overflow:visible;enable-background:accumulate"
       d="m 334.31072,91.413558 c 1.91764,-15.335009 1.2325,-31.330633 0.10343,-47.534799 -0.63208,-9.071521 -0.58333,-18.889964 -0.58333,-27.983481 0,-26.220609 3.71748,-38.240701 1.20592,-43.050956 -2.20395,-4.221129 -13.44491,5.961939 -24.82475,18.0795266 -5.17056,5.5057557 -10.2694,14.873842 -14.69182,19.1439214 -0.95106,0.918296 2.64266,86.558079 2.50625,94.3532 -0.0543,3.10578 -2.28288,13.22947 -0.34095,15.24047 1.42895,1.47977 32.92543,-26.115241 36.62525,-28.247882 z"
       id="path3932"
       inkscape:connector-curvature="0"
       sodipodi:nodetypes="csssssssc" />
    <path
       style="color:#000000;fill:none;stroke:#808080;stroke-width:3.99999952;stroke-linecap:round;stroke-linejoin:round;stroke-miterlimit:4;stroke-opacity:1;stroke-dasharray:none;stroke-dashoffset:0;marker:none;visibility:visible;display:inline;overflow:visible;enable-background:accumulate"
       d="M 9.522218,-42 C 5.258461,-19.265624 9.643953,3.3746503 10.149636,26.01899 10.69189,50.300972 7.522218,74.587628 7.522218,99"
       id="path3948"
       inkscape:connector-curvature="0"
       sodipodi:nodetypes="csc" />
    <path
       style="color:#000000;fill:none;stroke:#808080;stroke-width:3.99999952;stroke-linecap:round;stroke-linejoin:round;stroke-miterlimit:4;stroke-opacity:1;stroke-dasharray:none;stroke-dashoffset:0;marker:none;visibility:visible;display:inline;overflow:visible;enable-background:accumulate"
       d="m 470,154 c 1.18748,-26.16687 2.5207,-53.3828 0.0326,-80.08457 C 467.21817,43.712345 468,15.869621 468,-11"
       id="path3954"
       inkscape:connector-curvature="0"
       sodipodi:nodetypes="csc" />
    <path
       style="color:#000000;fill:none;stroke:#c87137;stroke-width:4;stroke-linecap:round;stroke-linejoin:round;stroke-miterlimit:4;stroke-opacity:1;stroke-dasharray:none;stroke-dashoffset:0;marker:none;visibility:visible;display:inline;overflow:visible;enable-background:accumulate"
       d="m 136.54059,65.339719 c 29.75137,-11.789385 28.9621,-17.071619 48.12513,-4.728497 6.20144,3.99442 19.57632,7.339085 19.57632,9.456994 0,0.09492 -12.78472,4.232304 -13.86657,4.728497 -27.95114,12.819978 -21.76987,4.087359 -53.83488,-9.456994 z"
       id="path3082"
       inkscape:connector-curvature="0"
       sodipodi:nodetypes="csssc" />
    <path
       inkscape:connector-curvature="0"
       id="path3023"
       d="m 387.47289,171.8904 c -0.10698,3.21301 -0.16453,4.42447 -0.20005,6.31231"
       style="color:#000000;fill:none;stroke:#808080;stroke-width:3.99999928;stroke-linecap:round;stroke-linejoin:round;stroke-miterlimit:4;stroke-opacity:1;stroke-dasharray:none;stroke-dashoffset:0;marker:none;visibility:visible;display:inline;overflow:visible;enable-background:accumulate"
       sodipodi:nodetypes="cc" />
    <path
       style="color:#000000;fill:none;stroke:#c87137;stroke-width:4;stroke-linecap:round;stroke-linejoin:round;stroke-miterlimit:4;stroke-opacity:1;stroke-dasharray:none;stroke-dashoffset:0;marker:none;visibility:visible;display:inline;overflow:visible;enable-background:accumulate"
       d="m 383.731,140.47931 c 3.59272,1.28382 14.08586,5.03976 16.62806,7.36144 6.04751,5.52291 10.1667,2.70766 14.36061,7.36146 3.98252,4.41922 -12.00542,8.0805 -15.87224,8.83372 -3.80596,0.74138 -8.8736,9.02489 -12.84896,5.15301 -3.66037,-3.56507 -9.66321,-8.5356 -17.38389,-11.04216 -1.7896,-0.58101 -13.60477,-4.64899 -13.60477,-5.88916 0,-1.53535 12.00673,-4.70078 12.84895,-5.52108 3.21471,-3.13101 12.22901,-6.9669 15.87224,-6.25723 z"
       id="path3858"
       inkscape:connector-curvature="0"
       sodipodi:nodetypes="csssssssc" />
    <path
       style="color:#000000;fill:none;stroke:#808080;stroke-width:3.99999952;stroke-linecap:round;stroke-linejoin:round;stroke-miterlimit:4;stroke-opacity:1;stroke-dasharray:none;stroke-dashoffset:0;marker:none;visibility:visible;display:inline;overflow:visible;enable-background:accumulate"
       d="M 161,24 C 159.28847,14.890774 160,5.3075269 160,-4"
       id="path3973"
       inkscape:connector-curvature="0" />
    <path
       inkscape:connector-curvature="0"
       style="fill:none;stroke:#80ff00;stroke-width:3.99999976;stroke-linecap:round;stroke-linejoin:round;stroke-miterlimit:4;stroke-opacity:1;stroke-dasharray:none"
       d="m 399.38352,215.48869 c -1.8597,-0.22716 0.97154,-2.56635 -1.23667,-2.74327 -2.10707,-2.03678 -2.15184,-5.11448 -4.32463,-7.12091 -1.10225,-1.6057 -1.21968,-3.62842 -2.37328,-5.21175 -1.14485,-1.69761 -1.5865,-3.63534 -2.09621,-5.55333 -0.52838,-1.64513 -1.48231,-3.10866 -2.15681,-4.68794 -1.32718,-0.89033 -1.59268,-2.12228 -2.84687,-3.09449 -1.50715,-1.17864 -1.48716,-3.29732 -3.36243,-4.24614 -0.78253,0.37643 -0.92429,2.24831 -1.45517,3.21401 -1.03874,2.84417 -2.07937,5.68827 -3.11402,8.53276 -0.0675,1.75703 -1.08583,3.60905 -0.38587,5.25749 0.16371,1.42821 -0.39599,2.90685 -0.54703,4.34941 -0.372,1.60273 -0.62035,3.43504 -0.81339,5.10665 -0.40731,1.73032 -0.5306,3.46421 -1.34459,5.18544 -0.63453,1.34935 -1.40158,3.05086 1.03769,2.9079 1.7355,0.25995 3.55227,-0.77192 5.29747,-0.50306 2.0439,-0.20394 3.99117,0.13238 6.13258,-0.74308 2.10718,0.008 4.42091,-0.45979 6.42681,-0.0789 1.87761,-0.33982 3.80942,-0.23529 5.6205,-0.2942 0.44311,0.0455 1.27369,0.27545 1.54161,-0.27664 z"
       id="path2942" />
    <path
       inkscape:connector-curvature="0"
       style="fill:none;stroke:#80ff00;stroke-width:3.99999952;stroke-linecap:round;stroke-linejoin:round;stroke-miterlimit:4;stroke-opacity:1;stroke-dasharray:none"
       d="m 304.07621,155.06917 c -0.43959,-4.2653 -1.07975,-10.74101 -2.44872,-14.60519 -1.39976,-4.93346 -2.64176,-10.04876 -4.39236,-14.77137 -0.83583,-3.21434 -2.24329,-11.52482 -2.93247,-4.96759 -1.47198,4.45488 -2.76229,5.59448 -3.28665,10.59964 -2.41149,6.09124 -3.33877,11.60656 -4.28847,18.62545"
       id="path2956"
       sodipodi:nodetypes="cccccc" />
    <path
       inkscape:connector-curvature="0"
       style="color:#000000;fill:none;stroke:#80ff00;stroke-width:3.99999976;stroke-linecap:round;stroke-linejoin:round;stroke-miterlimit:4;stroke-opacity:1;stroke-dasharray:none;stroke-dashoffset:0;marker:none;visibility:visible;display:inline;overflow:visible;enable-background:accumulate"
       d="m 355.91705,122.94178 c -0.54994,1.17888 3.9538,3.55461 5.55103,5.22856 1.29809,1.36036 2.39397,2.93796 3.81519,4.13451 1.57643,1.32714 3.34122,2.43208 4.85759,3.82702 2.27632,2.09393 4.3564,4.42751 6.48871,6.68773 1.04245,1.10503 1.54218,2.55181 2.8602,3.27085 1.63744,0.89251 3.33456,3.7854 4.49981,3.22274 1.08325,-0.52305 -0.0697,-3.41988 0.48889,-5.01809 1.79533,-5.13675 0.17191,-7.22494 -0.44209,-10.71177 -0.43347,-2.46137 -1.6799,-4.46135 -1.87762,-6.91905 -0.21636,-2.69524 0.43433,-5.3398 0.25321,-8.03856 -0.11397,-1.69815 -0.77792,-3.25198 -0.99902,-4.90717 -0.33054,-2.47377 -2.2401,-0.15168 -3.16108,0.39065 -1.70456,1.00379 -3.57302,1.66838 -5.32584,2.5739 -1.51494,0.78256 -3.32779,0.83991 -4.82284,1.77615 -1.61629,1.01216 -3.2732,2.07995 -5.07936,2.67607 -1.72921,0.57073 -3.52495,1.0374 -5.33973,1.38883 -0.89165,0.17269 -1.4894,-0.1775 -1.76702,0.41762 z"
       id="path2870"
       sodipodi:nodetypes="csssssssssssssssss" />
    <path
       inkscape:connector-curvature="0"
       style="fill:none;stroke:#80ff00;stroke-width:3.99999976;stroke-linecap:round;stroke-linejoin:round;stroke-miterlimit:4;stroke-opacity:1;stroke-dasharray:none"
       d="m 345.20861,144.53621 c 0.21577,-0.70639 1.99537,-4.78783 2.56863,-6.66855 1.83551,-5.9203 1.07442,-9.37326 3.09635,-16.9103 2.71035,-6.31247 2.82999,-8.83686 4.72809,-13.46868 4.19811,2.2822 4.00415,7.02233 5.4101,10.44329 1.93645,5.49368 3.58699,4.78453 4.25453,11.19857 0.43556,0.96471 0.57496,3.10262 1.84439,4.72618"
       id="path2958-6"
       sodipodi:nodetypes="ccccccc" />
    <path
       inkscape:connector-curvature="0"
       style="color:#000000;fill:none;stroke:#80ff00;stroke-width:3.99999976;stroke-linecap:round;stroke-linejoin:round;stroke-miterlimit:4;stroke-opacity:1;stroke-dasharray:none;stroke-dashoffset:0;marker:none;visibility:visible;display:inline;overflow:visible;enable-background:accumulate"
       d="m 385.18104,217.1571 c 0.88405,2.529 -1.6517,7.64364 -1.53858,10.45422 0.11702,2.91692 -0.1972,5.83375 -0.42814,8.80654 -0.25431,3.27436 -0.11495,7.54993 -0.28854,11.19484 -0.21684,4.55284 -1.25271,8.70919 -1.351,13.33148 -0.11994,5.63605 1.05893,11.33055 1.71333,16.99744 0.32905,2.84964 0.93368,5.61975 1.00722,8.51608 0.0566,2.23416 -0.25167,6.2556 0.85709,9.74802"
       id="path2833-4"
       sodipodi:nodetypes="csssssss" />
    <path
       inkscape:connector-curvature="0"
       style="fill:none;stroke:#80ff00;stroke-width:3.99999952;stroke-linecap:round;stroke-linejoin:round;stroke-miterlimit:4;stroke-opacity:1;stroke-dasharray:none"
       d="m 508.82008,327.88439 c -6.71527,0.55896 -13.98451,-3.40318 -20.33558,-2.14276 -5.8081,1.31631 -10.08218,4.03144 -15.77794,7.33897 -4.89879,3.69632 -11.67463,6.67163 -19.63128,7.79287 -6.72416,0.80492 -13.45357,0.37524 -20.15813,-1.75956 -3.89184,-0.98335 -7.92216,-1.75531 -10.9692,-4.20238 -7.64298,-4.51266 -13.39447,-10.63158 -21.35639,-14.86276 -2.96667,-2.23515 -6.55133,-4.90135 -7.13873,-5.41572 -5.98835,-3.08988 -8.05775,-13.69705 -8.04963,-17.17443"
       id="path4123"
       sodipodi:nodetypes="ccccccccc" />
    <path
       style="color:#000000;fill:none;stroke:#808080;stroke-width:3.99999952;stroke-linecap:round;stroke-linejoin:round;stroke-miterlimit:4;stroke-opacity:1;stroke-dasharray:none;stroke-dashoffset:0;marker:none;visibility:visible;display:inline;overflow:visible;enable-background:accumulate"
       d="m 242.67406,104.70872 c 0,-5.518403 0,-11.036821 0,-16.555232"
       id="path3004"
       inkscape:connector-curvature="0" />
    <path
       style="color:#000000;fill:none;stroke:#808080;stroke-width:3.99999952;stroke-linecap:round;stroke-linejoin:round;stroke-miterlimit:4;stroke-opacity:1;stroke-dasharray:none;stroke-dashoffset:0;marker:none;visibility:visible;display:inline;overflow:visible;enable-background:accumulate"
       d="M 147.94822,168 C 146.98357,160.86314 148.5,154.28956 148.5,147.5"
       id="path4052"
       inkscape:connector-curvature="0" />
    <path
       style="fill:none;stroke:#808080;stroke-width:3.99999951999999980;stroke-linecap:round;stroke-linejoin:round;stroke-opacity:1;color:#000000;stroke-miterlimit:4;stroke-dasharray:none;stroke-dashoffset:0;marker:none;visibility:visible;display:inline;overflow:visible;enable-background:accumulate"
       d="m 331,261.5 c 0.5913,-6.81356 -1.5,-15.08554 -1.5,-20.5"
       id="path4054"
       inkscape:connector-curvature="0" />
    <path
       style="color:#000000;fill:none;stroke:#808080;stroke-width:3.99999952;stroke-linecap:round;stroke-linejoin:round;stroke-miterlimit:4;stroke-opacity:1;stroke-dasharray:none;stroke-dashoffset:0;marker:none;visibility:visible;display:inline;overflow:visible;enable-background:accumulate"
       d="m 212.5,193 c -2.02393,-16.95298 -0.41898,-15.76156 0,-20.5"
       id="path4073"
       inkscape:connector-curvature="0"
       sodipodi:nodetypes="cc" />
    <path
       inkscape:connector-curvature="0"
       style="color:#000000;fill:none;stroke:#80ff00;stroke-width:4;stroke-linecap:round;stroke-linejoin:round;stroke-miterlimit:4;stroke-opacity:1;stroke-dasharray:none;stroke-dashoffset:0;marker:none;visibility:visible;display:inline;overflow:visible;enable-background:accumulate"
       d="m 368.58561,115.16848 c -2.55493,-2.35256 -4.46736,-4.7255 -7.74596,-6.34586 -3.40284,-1.68127 -7.02345,-2.86929 -10.66839,-4.18228 -4.01468,-1.44622 -9.01876,-3.87376 -13.43243,-5.608862 -5.51311,-2.16731 -8.6464,-1.268046 -14.21512,0.991822 -6.79,2.75559 -15.77881,4.57491 -21.06065,9.78041 -2.65601,2.61764 -5.51518,4.93898 -7.96063,7.80404 -1.88621,2.21018 -5.678,7.35132 -6.27578,9.65037"
       id="path2833"
       sodipodi:nodetypes="csssssss" />
    <path
       inkscape:connector-curvature="0"
       style="fill:none;stroke:#80ff00;stroke-width:3.99999952;stroke-linecap:round;stroke-linejoin:round;stroke-miterlimit:4;stroke-opacity:1;stroke-dasharray:none"
       d="m 374.6349,316.03931 c 0.24377,-3.42296 1.59534,-6.3952 2.01561,-9.76432 0.0611,-4.41048 1.29969,-7.50808 3.67057,-11.41688 1.02248,-2.62704 -1.65258,-5.45889 6.25215,-5.27496 3.59234,0.14402 2.49645,4.6216 3.58594,8.71712 1.90096,3.9556 3.67425,5.82384 4.56881,9.644 1.41102,2.3964 4.94269,6.4388 4.61589,7.59512"
       id="path2956-7-1"
       sodipodi:nodetypes="ccccccc" />
    <path
       sodipodi:nodetypes="cccccc"
       id="path3052"
       d="m 368.04851,197.7258 c 2.45204,2.40076 2.69974,6.70228 4.99651,9.20277 3.32314,2.90047 4.8834,5.84917 6.32945,10.18607 1.34133,2.47945 6.25992,8.70986 1.12009,6.8323 -3.35576,-1.29017 -13.45292,-4.17003 -17.28044,-5.98945 -3.76719,-6.15939 -3.35349,-10.23066 -6.56962,-14.75628"
       style="fill:none;stroke:#80ff00;stroke-width:3.99999952;stroke-linecap:round;stroke-linejoin:round;stroke-miterlimit:4;stroke-opacity:1;stroke-dasharray:none"
       inkscape:connector-curvature="0" />
    <g
       id="g3104"
       transform="matrix(0.8116321,0.58416892,-0.58416892,0.8116321,175.26622,-24.509142)">
      <path
         sodipodi:nodetypes="csssc"
         inkscape:connector-curvature="0"
         id="path3076"
         d="m 253.14423,194.8421 c 4.50665,-0.88171 8.87734,-1.3617 13.43503,-2.12132 6.16002,-1.02667 13.10038,-2.36332 18.73833,-4.24264 6.24265,-2.08088 14.1091,-0.87562 20.5061,-2.47487 2.77878,-0.69469 6.48069,-1.21743 9.19238,-2.12133"
         style="color:#000000;fill:none;stroke:#c87137;stroke-width:4;stroke-linecap:round;stroke-linejoin:round;stroke-miterlimit:4;stroke-opacity:1;stroke-dasharray:none;stroke-dashoffset:0;marker:none;visibility:visible;display:inline;overflow:visible;enable-background:accumulate" />
      <path
         sodipodi:nodetypes="cssc"
         inkscape:connector-curvature="0"
         id="path3078"
         d="m 298.75262,182.11418 c 1.46127,0.44924 20.58249,-1.84417 15.9099,2.82843 -1.34534,1.34533 -5.9191,3.09066 -7.07107,4.24263 -2.17747,2.17747 -4.27443,1.55326 -6.71751,3.18199"
         style="color:#000000;fill:none;stroke:#808080;stroke-width:3.99999952;stroke-linecap:round;stroke-linejoin:round;stroke-miterlimit:4;stroke-opacity:1;stroke-dasharray:none;stroke-dashoffset:0;marker:none;visibility:visible;display:inline;overflow:visible;enable-background:accumulate" />
    </g>
    <path
       inkscape:connector-curvature="0"
       style="color:#000000;fill:none;stroke:#80ff00;stroke-width:3.99999976;stroke-linecap:round;stroke-linejoin:round;stroke-miterlimit:4;stroke-opacity:1;stroke-dasharray:none;stroke-dashoffset:0;marker:none;visibility:visible;display:inline;overflow:visible;enable-background:accumulate"
       d="m 287.14678,127.11095 c -10.08556,14.74326 -14.77995,19.03609 -31.3025,28.81669 -8.58161,5.08 -7.74204,11.6951 -11.14504,23.78429 -4.08206,14.5016 1.44023,21.58226 17.68469,24.17333 11.24478,1.7936 20.44545,-2.04585 30.19361,-2.23995 13.4084,-0.26698 28.74338,6.62523 42.2748,-1.65102"
       id="path4125-8-0"
       sodipodi:nodetypes="csssss" />
  </g>
</svg>
