<?xml version="1.0" encoding="UTF-8" standalone="no"?>
<!-- Created with Inkscape (http://www.inkscape.org/) -->

<svg
   xmlns:dc="http://purl.org/dc/elements/1.1/"
   xmlns:cc="http://creativecommons.org/ns#"
   xmlns:rdf="http://www.w3.org/1999/02/22-rdf-syntax-ns#"
   xmlns:svg="http://www.w3.org/2000/svg"
   xmlns="http://www.w3.org/2000/svg"
   xmlns:sodipodi="http://sodipodi.sourceforge.net/DTD/sodipodi-0.dtd"
   xmlns:inkscape="http://www.inkscape.org/namespaces/inkscape"
   width="480"
   height="320"
   id="svg2"
   version="1.1"
   inkscape:version="0.48.0 r9654"
   sodipodi:docname="itnas312.svg"
   inkscape:export-xdpi="90"
   inkscape:export-ydpi="90"
   inkscape:export-filename="itnas312.png">
  <defs
     id="defs4">
    <inkscape:perspective
       sodipodi:type="inkscape:persp3d"
       inkscape:vp_x="0 : 160 : 1"
       inkscape:vp_y="0 : 1000 : 0"
       inkscape:vp_z="480 : 160 : 1"
       inkscape:persp3d-origin="240 : 106.66667 : 1"
       id="perspective8" />
  </defs>
  <sodipodi:namedview
     id="base"
     pagecolor="#ffffff"
     bordercolor="#666666"
     borderopacity="1.0"
     inkscape:pageopacity="1"
     inkscape:pageshadow="2"
     inkscape:zoom="1"
     inkscape:cx="231.33858"
     inkscape:cy="118.2719"
     inkscape:document-units="px"
     inkscape:current-layer="layer1"
     showgrid="false"
     inkscape:snap-nodes="true"
     inkscape:snap-global="false"
     inkscape:snap-grids="true"
     showguides="true"
     inkscape:window-width="1280"
     inkscape:window-height="998"
     inkscape:window-x="1276"
     inkscape:window-y="-4"
     inkscape:window-maximized="1">
    <inkscape:grid
       empspacing="5"
       visible="true"
       enabled="true"
       snapvisiblegridlinesonly="true"
       type="xygrid"
       id="grid2816" />
  </sodipodi:namedview>
  <metadata
     id="metadata7">
    <rdf:RDF>
      <cc:Work
         rdf:about="">
        <dc:format>image/svg+xml</dc:format>
        <dc:type
           rdf:resource="http://purl.org/dc/dcmitype/StillImage" />
        <dc:title></dc:title>
      </cc:Work>
    </rdf:RDF>
  </metadata>
  <g
     inkscape:label="Layer 1"
     inkscape:groupmode="layer"
     id="layer1"
     transform="translate(0,0)">
    <g
       id="g6898"
       transform="matrix(-1.8627503,0.72812165,-0.72812165,-1.8627503,980.73516,533.96537)">
      <path
         sodipodi:nodetypes="ssss"
         inkscape:connector-curvature="0"
         id="path6851"
         d="m 260.10061,227.39164 c -4.88996,-2.16352 -6.60689,-2.21905 -11.68348,-4.60128 -6.34872,-2.97919 -8.15387,-3.10264 -12.75899,-4.75833 C 226.13152,214.60691 222.23201,214.30276 214.75,213"
         style="color:#000000;fill:none;stroke:#c87137;stroke-width:2;stroke-linecap:round;stroke-linejoin:round;stroke-miterlimit:4;stroke-opacity:1;stroke-dasharray:none;stroke-dashoffset:0;marker:none;visibility:visible;display:inline;overflow:visible;enable-background:accumulate" />
      <path
         sodipodi:nodetypes="ssss"
         inkscape:connector-curvature="0"
         id="path6856"
         d="m 213.5,212 c 3.52739,1.43799 -3.92305,3.68567 -9,-0.5 -4.61181,-3.80219 -7.5883,-9.97594 -6,-9 7.25265,4.45643 4.55455,5.24177 15,9.5 z"
         style="color:#000000;fill:none;stroke:#808080;stroke-width:2;stroke-linecap:round;stroke-linejoin:miter;stroke-miterlimit:4;stroke-opacity:1;stroke-dasharray:none;stroke-dashoffset:0;marker:none;visibility:visible;display:inline;overflow:visible;enable-background:accumulate" />
    </g>
    <path
       inkscape:connector-curvature="0"
       style="fill:none;stroke:#80ff00;stroke-width:3.99999976;stroke-linecap:round;stroke-linejoin:round;stroke-miterlimit:4;stroke-opacity:1;stroke-dasharray:none"
       d="m 268.33629,237.92013 c -16.69218,3.44588 -31.5549,8.88366 -46.98928,13.68242 -14.03606,4.73282 -23.5236,11.89056 -36.3167,20.7753 -10.5928,9.43348 -26.27404,17.98426 -45.83084,23.03286 -16.59616,3.96638 -33.80032,5.33678 -51.76308,3.11088 -10.3037,-0.75374 -20.8554,-1.01586 -29.73038,-5.135 -18.97846,-13.91216 -41.928371,-39.92922 -26.195563,-60.21518 5.792415,-7.32018 12.716854,-16.16796 14.018688,-17.61166 8.625057,-14.88887 23.904636,-15.54014 30.439351,-13.82346 7.15088,5.61853 8.222303,4.88454 14.47257,9.0351"
       id="path4123"
       sodipodi:nodetypes="cccccccccc" />
    <path
       inkscape:connector-curvature="0"
       style="color:#000000;fill:none;stroke:#80ff00;stroke-width:4;stroke-linecap:round;stroke-linejoin:round;stroke-miterlimit:4;stroke-opacity:1;stroke-dasharray:none;stroke-dashoffset:0;marker:none;visibility:visible;display:inline;overflow:visible;enable-background:accumulate"
       d="m 409.13075,114.48458 c -3.39637,5.38804 -7.55619,7.67859 -14.22768,10.67697 -6.55855,2.94762 -11.03146,7.97188 -16.99656,12.91714 -7.00792,5.80979 -17.08342,9.67384 -23.6235,16.54346 -8.16926,8.58078 -7.06774,18.38718 -12.65138,29.03114 -9.47478,18.06156 -4.2206,8.96008 -25.42736,34.21856 -4.7957,5.71194 -11.15188,12.46952 -18.5806,11.2169 -5.73032,-0.96652 -19.45978,4.32512 -30.39978,8.63868"
       id="path2833-1"
       sodipodi:nodetypes="csssssss" />
    <path
       inkscape:connector-curvature="0"
       style="color:#000000;fill:none;stroke:#80ff00;stroke-width:3.99999976;stroke-linecap:round;stroke-linejoin:round;stroke-miterlimit:4;stroke-opacity:1;stroke-dasharray:none;stroke-dashoffset:0;marker:none;visibility:visible;display:inline;overflow:visible;enable-background:accumulate"
       d="m 390.58374,92.679513 c -0.0599,-2.601026 10.09764,-3.333269 14.36795,-5.115625 3.47055,-1.44843 6.74529,-3.457204 10.3097,-4.506694 3.95362,-1.163933 8.07367,-1.769503 11.97174,-3.105926 5.85159,-2.005888 11.53636,-4.608358 17.25777,-7.03457 2.79714,-1.186221 4.87492,-3.434438 7.86664,-3.692259 3.71608,-0.318856 9.14887,-4.253499 10.83092,-2.28666 1.56362,1.82835 -2.8758,6.207368 -3.13682,9.583388 -0.83935,10.850489 -5.4905,13.370551 -9.41691,19.263233 -2.77169,4.1596 -6.6615,6.82105 -8.9985,11.16339 -2.5626,4.76207 -3.49522,10.12878 -5.99547,14.92597 -1.5731,3.01864 -4.03782,5.33086 -5.77281,8.18465 -2.59314,4.26506 -4.22457,-1.52216 -5.47555,-3.25549 -2.3154,-3.20804 -5.20337,-5.92667 -7.68602,-8.99353 -2.14575,-2.65057 -5.41992,-4.2123 -7.40577,-7.12834 -2.14685,-3.15253 -4.32352,-6.4395 -7.15243,-8.98259 -2.70844,-2.43472 -5.62235,-4.73238 -8.66367,-6.83425 -1.49434,-1.032683 -2.87047,-0.871698 -2.90077,-2.184697 z"
       id="path2870-7"
       sodipodi:nodetypes="csssssssssssssssss" />
    <path
       inkscape:connector-curvature="0"
       style="fill:none;stroke:#80ff00;stroke-width:3.99999952;stroke-linecap:round;stroke-linejoin:round;stroke-miterlimit:4;stroke-opacity:1;stroke-dasharray:none"
       d="m 257.39168,302.32906 c 0.86797,-8.53504 8.8875,-15.72636 10.19247,-24.11352 0.48625,-11.01654 3.81549,-18.66333 10.03557,-28.25158 2.75368,-6.48727 7.25929,-25.81382 11.60472,-12.84225 2.71142,8.56933 5.88878,11.73749 8.30155,22.05399 4.45111,10.02822 8.74102,14.83078 10.68752,24.44446 3.34473,6.09496 11.86416,16.4634 10.96009,19.32816"
       id="path2956-7-4"
       sodipodi:nodetypes="ccccccc" />
    <path
       inkscape:connector-curvature="0"
       style="fill:none;stroke:#80ff00;stroke-width:3.99999952;stroke-linecap:round;stroke-linejoin:round;stroke-miterlimit:4;stroke-opacity:1;stroke-dasharray:none"
       d="m 468.26339,138.52001 c -2.23684,4.5874 -1.2419,6.05742 -10.94864,10.72166 -23.71366,18.6321 -28.9489,16.72306 -46.63444,-1.01804 -6.11158,-10.45052 -5.91122,-17.1723 -8.33946,-27.16016 11.36708,3.54884 13.97832,14.0771 21.30482,20.92194 9.9752,10.91498 13.81342,5.08826 26.55724,-2.76624 4.89338,-0.0364 15.20788,-3.71246 17.49974,-10.49424"
       id="path2958-6-0"
       sodipodi:nodetypes="ccccccc" />
    <path
       style="color:#000000;fill:none;stroke:#808080;stroke-width:4;stroke-linecap:round;stroke-linejoin:miter;stroke-miterlimit:4;stroke-opacity:1;stroke-dasharray:none;stroke-dashoffset:0;marker:none;visibility:visible;display:inline;overflow:visible;enable-background:accumulate"
       d="m -10.356989,148.17611 c 46.55148,-10.71074 63.746445,-18.23856 114.995489,-22.18903 9.19487,-0.70878 5.11871,-5.37839 79.86006,-18.01091 30.39298,-6.84796 55.89746,-8.086104 79.21794,-12.935663 18.38104,-3.822388 36.26142,-6.953677 54.2709,-10.864233 3.68603,-0.800381 6.41936,-3.366069 10.22254,-4.061814 38.61904,-7.064877 38.76956,-6.134159 116.5513,-18.913437"
       id="path3786-7"
       inkscape:connector-curvature="0"
       sodipodi:nodetypes="cscssss" />
    <path
       style="color:#000000;fill:none;stroke:#00ffff;stroke-width:4;stroke-linecap:round;stroke-linejoin:round;stroke-miterlimit:4;stroke-opacity:1;stroke-dasharray:none;stroke-dashoffset:0;marker:none;visibility:visible;display:inline;overflow:visible;enable-background:accumulate"
       d="m 469.52623,303.60527 c 0.65948,-8.81242 -0.6832,-37.79262 -0.25938,-56.8493 0.36542,-16.43084 1.4182,-72.43526 2,-84 0.80032,-15.90874 1.3806,-34.05008 -1.244,-45.01356 -1.30135,-5.43599 -0.73052,-19.080558 -0.76867,-45.242691 -0.0206,-14.112823 -0.84007,-10.006068 -24.34193,-11.249689"
       id="path3026"
       inkscape:connector-curvature="0"
       sodipodi:nodetypes="cssssc" />
    <path
       style="color:#000000;fill:none;stroke:#80ff00;stroke-width:3.99999976;stroke-linecap:round;stroke-linejoin:round;stroke-miterlimit:4;stroke-opacity:1;stroke-dasharray:none;stroke-dashoffset:0;marker:none;visibility:visible;display:inline;overflow:visible;enable-background:accumulate"
       d="m 450.69491,99.059613 c 10.86507,0.79656 14.51827,-6.880788 14.92271,-15.508634"
       id="path3034"
       inkscape:connector-curvature="0"
       sodipodi:nodetypes="cc" />
    <path
       style="color:#000000;fill:none;stroke:#808080;stroke-width:4;stroke-linecap:round;stroke-linejoin:miter;stroke-miterlimit:4;stroke-opacity:1;stroke-dasharray:none;stroke-dashoffset:0;marker:none;visibility:visible;display:inline;overflow:visible;enable-background:accumulate"
       d="m 469.62491,306.12141 c -50.20458,3.53554 -62.93608,-0.23456 -94.0452,-0.7071 -46.55148,-0.7071 -72.4233,3.43628 -105.35454,1.07814 -9.1565,-0.65568 -49.46708,-1.81342 -74.2506,-0.37104 -4.09498,0.23832 -8.04024,1.98132 -12.14212,2 -23.86032,0.1088 -49.3648,-1.53894 -72.68528,-1.15686 -22.14312,0.36278 -42.10844,2.7643 -64.49344,2.57108 -38.61904,-0.33336 -38.76956,-1.2929 -116.5513,-3.41422"
       id="path3786"
       inkscape:connector-curvature="0"
       sodipodi:nodetypes="ssssssss" />
    <path
       style="color:#000000;fill:none;stroke:#000000;stroke-width:4;stroke-linecap:round;stroke-linejoin:miter;stroke-miterlimit:4;stroke-opacity:1;stroke-dasharray:none;stroke-dashoffset:0;marker:none;visibility:visible;display:inline;overflow:visible;enable-background:accumulate"
       d="m 246.8083,119.16086 c 50.4537,3.85638 100.20227,-30.748352 116.65548,-13.8606 9.16013,9.40204 0.1769,15.42232 -5.78456,22.59335 -11.75251,14.13708 -18.80235,-1.88666 -69.41484,10.43737 -4.61756,1.12437 -100.15241,-5.52383 -150.39881,7.12592 -33.36204,8.39904 -57.780773,7.57648 -90.624919,12.92447 -19.599842,3.19143 -35.466,16.64454 -36.456914,26.63326 -3.4099787,34.37364 13.754555,24.01061 31.121202,9.5081 28.554239,-23.84502 30.924459,-9.54429 89.211971,-18.70381 14.84329,-2.33253 38.04276,-9.64095 53.02522,-9.64095 25.83061,0 51.23508,3.66076 77.12759,3.66076 21.35494,0 41.47273,-17.32762 51.09703,5.8265 0.70375,1.69306 1.8971,5.87334 0.9641,8.11795 -5.15125,12.39285 -44.04806,22.77722 -53.02522,21.8109 -98.52176,-10.60504 -45.41354,-1.82099 -130.164,-1.52901 -8.00791,-1.5489 -18.54005,11.57925 -11.55795,18.56134 6.18746,6.18747 37.92974,1.736 47.24065,2.89229 17.95751,2.23008 31.37193,-8.15595 32.77922,5.78457 1.70077,16.84768 -26.21294,17.02673 -35.67151,18.3178 -28.25244,3.85638 -84.635726,-19.48652 -103.158154,-8.67685 -10.193554,5.94895 -6.888078,14.87376 7.712759,22.17418 8.419598,4.2098 9.630016,12.5387 26.994658,9.64095 8.812187,-1.47055 28.854087,0 38.563797,0"
       id="path3812"
       inkscape:connector-curvature="0"
       sodipodi:nodetypes="cssssssssssssscsssssssc" />
    <path
       style="color:#000000;fill:none;stroke:#000000;stroke-width:4;stroke-linecap:round;stroke-linejoin:miter;stroke-miterlimit:4;stroke-opacity:1;stroke-dasharray:none;stroke-dashoffset:0;marker:none;visibility:visible;display:inline;overflow:visible;enable-background:accumulate"
       d="m 397.20711,158.99615 c -4.28226,1.66538 -11.6251,-2.55789 -15.42552,0 -27.85496,18.74795 -12.06379,22.87132 4.82048,21.21008 19.59754,-1.92818 35.15364,5.78457 47.24065,0.9641 4.3989,-1.75435 23.38504,0.47056 19.2819,8.67685 -3.07758,6.15515 -5.78644,10.60598 -11.56915,13.49733 -3.75734,1.87867 -12.45465,2.8137 -22.17418,-2.89228 -6.93073,-4.06878 -56.03919,-9.0773 -69.41483,7.71276 -8.71948,10.9453 -4.26939,19.48343 10.60504,15.42552 26.9569,-7.35415 47.85231,0 75.19941,0 2.03709,0 10.56755,-0.0187 12.53323,0.96409 1.1348,0.5674 1.95612,13.96541 0.9641,14.46143 -3.78202,1.891 -7.88083,3.62644 -11.56914,5.78457 -22.65053,13.25345 -80.21217,-8.58071 -99.4624,4.0334 -19.25023,12.61412 -7.05047,18.61565 2.08881,22.96126 13.56405,6.44953 15.4331,6.73968 34.70741,2.89228 14.48948,-2.89228 35.55511,-7.85692 51.09704,-4.82047 9.58064,1.87177 16.06862,2.89228 26.03056,2.89228"
       id="path3814"
       inkscape:connector-curvature="0"
       sodipodi:nodetypes="cssssssssscssssssc" />
    <path
       style="fill:none;stroke:#000000;stroke-width:4;stroke-linecap:round;stroke-linejoin:miter;stroke-opacity:1;color:#000000;stroke-miterlimit:4;stroke-dasharray:none;stroke-dashoffset:0;marker:none;visibility:visible;display:inline;overflow:visible;enable-background:accumulate"
       d="m 188.9626,291.07716 c 23.37531,-5.43363 30.37289,2.57488 45.51602,-1.08625 9.17433,-2.21807 10.04321,-6.87405 13.29378,-13.37518 8.39596,-16.79193 -8.33565,-9.32951 -33.74332,-9.64095"
       id="path3817"
       inkscape:connector-curvature="0"
       sodipodi:nodetypes="cssc" />
  </g>
</svg>
