<?xml version="1.0" encoding="UTF-8" standalone="no"?>
<!-- Created with Inkscape (http://www.inkscape.org/) -->

<svg
   xmlns:dc="http://purl.org/dc/elements/1.1/"
   xmlns:cc="http://creativecommons.org/ns#"
   xmlns:rdf="http://www.w3.org/1999/02/22-rdf-syntax-ns#"
   xmlns:svg="http://www.w3.org/2000/svg"
   xmlns="http://www.w3.org/2000/svg"
   xmlns:xlink="http://www.w3.org/1999/xlink"
   xmlns:sodipodi="http://sodipodi.sourceforge.net/DTD/sodipodi-0.dtd"
   xmlns:inkscape="http://www.inkscape.org/namespaces/inkscape"
   width="480"
   height="320"
   id="svg2"
   version="1.1"
   inkscape:version="0.47 r22583"
   sodipodi:docname="itnas222.svg"
   inkscape:export-xdpi="90"
   inkscape:export-ydpi="90"
   inkscape:export-filename="itnas222.png">
  <defs
     id="defs4">
    <linearGradient
       id="linearGradient10480">
      <stop
         style="stop-color:#ff0000;stop-opacity:1;"
         offset="0"
         id="stop10482" />
      <stop
         id="stop10494"
         offset="0.18741377"
         style="stop-color:#ff00ff;stop-opacity:1;" />
      <stop
         id="stop10492"
         offset="0.32707942"
         style="stop-color:#0000ff;stop-opacity:1;" />
      <stop
         id="stop10490"
         offset="0.55422777"
         style="stop-color:#00ffff;stop-opacity:1;" />
      <stop
         id="stop10488"
         offset="0.81260955"
         style="stop-color:#00ff00;stop-opacity:1;" />
      <stop
         style="stop-color:#ffff00;stop-opacity:1;"
         offset="1"
         id="stop10484" />
    </linearGradient>
    <linearGradient
       inkscape:collect="always"
       xlink:href="#linearGradient10480"
       id="linearGradient10514"
       gradientUnits="userSpaceOnUse"
       x1="67.75"
       y1="248"
       x2="236"
       y2="64" />
  </defs>
  <sodipodi:namedview
     id="base"
     pagecolor="#ffffff"
     bordercolor="#666666"
     borderopacity="1.0"
     inkscape:pageopacity="1"
     inkscape:pageshadow="2"
     inkscape:zoom="1"
     inkscape:cx="243.21003"
     inkscape:cy="218.47991"
     inkscape:document-units="px"
     inkscape:current-layer="layer1"
     showgrid="false"
     inkscape:snap-nodes="true"
     inkscape:snap-global="false"
     inkscape:snap-grids="true"
     showguides="true"
     inkscape:window-width="1280"
     inkscape:window-height="774"
     inkscape:window-x="1276"
     inkscape:window-y="1020"
     inkscape:window-maximized="1"
     inkscape:snap-page="true"
     inkscape:object-paths="false"
     inkscape:object-nodes="true">
    <inkscape:grid
       empspacing="5"
       visible="true"
       enabled="true"
       snapvisiblegridlinesonly="true"
       type="xygrid"
       id="grid2816" />
  </sodipodi:namedview>
  <metadata
     id="metadata7">
    <rdf:RDF>
      <cc:Work
         rdf:about="">
        <dc:format>image/svg+xml</dc:format>
        <dc:type
           rdf:resource="http://purl.org/dc/dcmitype/StillImage" />
        <dc:title />
      </cc:Work>
    </rdf:RDF>
  </metadata>
  <g
     inkscape:label="Layer 1"
     inkscape:groupmode="layer"
     id="layer1"
     transform="translate(0,0)">
    <g
       transform="matrix(0.9379205,0.34685035,-0.34685035,0.9379205,244.62142,-73.185984)"
       id="g2902">
      <g
         inkscape:transform-center-x="-0.16429529"
         inkscape:transform-center-y="-20.099534"
         transform="matrix(-0.81766148,0.57569931,0.57569931,0.81766148,349.2025,-43.870897)"
         id="g2937">
        <path
           style="color:#000000;fill:none;stroke:#0000ff;stroke-width:4;stroke-linecap:butt;stroke-linejoin:bevel;stroke-miterlimit:4;stroke-opacity:1;stroke-dasharray:none;stroke-dashoffset:0;marker:none;visibility:visible;display:inline;overflow:visible;enable-background:accumulate"
           d="m 206.19224,50.959145 -22.97456,0.002"
           id="path3028-1-1" />
        <path
           style="color:#000000;fill:none;stroke:#0000ff;stroke-width:3.99999976;stroke-linecap:butt;stroke-linejoin:bevel;stroke-miterlimit:4;stroke-opacity:1;stroke-dasharray:none;stroke-dashoffset:0;marker:none;visibility:visible;display:inline;overflow:visible;enable-background:accumulate"
           d="m 199.99646,42.691859 -11.26117,0.06514"
           id="rect10452-0-7-5-7" />
        <path
           id="path10399-9-40"
           style="fill:none;stroke:#00ff00;stroke-width:2;stroke-linecap:butt;stroke-linejoin:miter;stroke-miterlimit:4;stroke-opacity:1;stroke-dasharray:none"
           d="m 208.30239,56.809745 c 0,0 -14.55766,-39.164966 -14.55766,-39.164966 l -12.23664,39.211847 c 0,0 26.7943,-0.04688 26.7943,-0.04688 z"
           sodipodi:nodetypes="cccc" />
      </g>
      <path
         sodipodi:nodetypes="csssssss"
         id="path2826-1-9"
         d="m 222.37386,114.86507 c 0,0 7.29258,6.81305 10.61075,18.23714 5.59684,19.26931 13.35746,32.50792 16.21676,56.19702 3.6456,30.20358 -11.64489,44.46897 3.00525,69.56217 8.11187,13.89426 22.56399,17.53073 27.58712,7.70543 10.59768,-20.72919 -16.83848,-21.29275 -18.08926,-42.55383 -0.59579,-10.12732 2.60251,-23.16878 8.16072,-37.1385 3.96058,-9.95433 7.91277,-11.39219 11.14186,-21.30497"
         style="fill:none;stroke:#00ff00;stroke-width:4;stroke-linecap:butt;stroke-linejoin:miter;stroke-miterlimit:4;stroke-opacity:1;stroke-dasharray:none;marker-start:none;marker-mid:none;marker-end:none" />
      <path
         sodipodi:nodetypes="cccccc"
         d="m 216.95915,143.52972 13.37869,27.1626 c 0,0 6.25971,21.83549 6.25971,21.83549 0,0 23.69295,-4.25163 23.69295,-4.25163 0,0 4.60248,-23.2963 4.60248,-23.2963 0,0 -17.48972,-27.27742 -17.48972,-27.27742"
         style="fill:none;stroke:#00ff00;stroke-width:2px;stroke-linecap:butt;stroke-linejoin:miter;stroke-opacity:1"
         id="path10436-7-4" />
      <path
         sodipodi:nodetypes="cccccc"
         d="m 180.91296,132.49438 23.87305,13.10937 19.60476,-11.73073 15.80593,-4.50733 c 0,0 24.03943,0.69603 24.03943,0.69603 l 13.9406,20.03463"
         style="fill:none;stroke:#00ff00;stroke-width:2px;stroke-linecap:butt;stroke-linejoin:miter;stroke-opacity:1"
         id="path10402-6-4-8" />
      <path
         sodipodi:nodetypes="czzzc"
         id="path3030-6-8"
         d="m 234.93331,172.74944 c 4.65417,1.81594 9.71989,5.33141 14.42081,6.17399 4.70092,0.84259 8.91908,-1.77223 7.99052,-5.83004 -0.92856,-4.05781 -5.66334,-4.84727 -9.84664,-2.49956 -4.18329,2.3477 -6.52148,7.9876 -9.60015,12.35501"
         style="fill:none;stroke:#0000ff;stroke-width:4;stroke-linecap:butt;stroke-linejoin:miter;stroke-miterlimit:4;stroke-opacity:1;stroke-dasharray:none" />
      <g
         transform="matrix(0.7526839,-0.27104784,0.27104784,0.7526839,65.282702,124.89913)"
         id="g2942">
        <path
           style="fill:none;stroke:#0000ff;stroke-width:5;stroke-linecap:butt;stroke-linejoin:miter;stroke-miterlimit:4;stroke-opacity:1;stroke-dasharray:none"
           d="m 206.66319,105.19515 c -7.91409,4.26712 -8.11323,10.1635 -0.17602,15.48704"
           id="rect10452-1-7-4-2-2"
           sodipodi:nodetypes="cc" />
        <path
           style="fill:none;stroke:#0000ff;stroke-width:5;stroke-linecap:butt;stroke-linejoin:miter;stroke-miterlimit:4;stroke-opacity:1;stroke-dasharray:none"
           d="m 179.489,105.38873 c 8.38416,3.32675 8.29912,11.94162 0.0734,15.23703"
           id="rect10452-1-4-4-0-7-4"
           sodipodi:nodetypes="cc" />
        <path
           style="fill:none;stroke:#0000ff;stroke-width:5;stroke-linecap:butt;stroke-linejoin:bevel;stroke-miterlimit:4;stroke-opacity:1;stroke-dasharray:none"
           d="m 193.13509,122.31481 0.17678,-18.66053"
           id="rect10452-0-7-4-1-5" />
      </g>
    </g>
    <g
       transform="matrix(-0.80143322,0.59808427,-0.59808427,-0.80143322,1119.1952,157.64102)"
       id="g3732-1-1">
      <path
         sodipodi:nodetypes="cssssss"
         id="path2826-1-7"
         d="m 564.53546,489.9547 c 0,0 11.37637,-3.48376 20.64938,-15.10858 16.29972,-20.43363 26.64371,-37.20768 37.84055,-64.85253 10.62165,-26.22472 -7.24049,-66.29849 10.84898,-80.69892 14.66269,-11.67249 32.25462,2.3099 24.45796,18.85881 -6.88647,14.61701 -16.18714,15.67557 -21.47335,30.31859 -9.08931,25.17776 22.56344,44.84459 5.01135,81.71117"
         style="fill:none;stroke:#00ff00;stroke-width:4;stroke-linecap:butt;stroke-linejoin:miter;stroke-miterlimit:4;stroke-opacity:1;stroke-dasharray:none;marker-start:none;marker-mid:none;marker-end:none" />
      <path
         sodipodi:nodetypes="cccccc"
         d="m 623.21893,489.0693 8.9334,-38.01509 c 0,0 3.71344,-32.31963 3.71344,-32.31963 0,0 -25.51699,-15.09882 -25.51699,-15.09882 0,0 -23.9119,24.67318 -23.9119,24.67318 0,0 -20.84767,37.15169 -20.84767,37.15169"
         style="fill:none;stroke:#00ff00;stroke-width:2px;stroke-linecap:butt;stroke-linejoin:miter;stroke-opacity:1"
         id="path10436-7-40"
         inkscape:transform-center-x="0.50886933"
         inkscape:transform-center-y="13.902975" />
      <path
         sodipodi:nodetypes="cccccc"
         d="m 624.45892,438.62977 -3.99282,31.78697 -27.53166,10.99939 -15.57468,-14.05663 c 0,0 14.88105,-29.90878 14.88105,-29.90878 l -21.35117,29.98244"
         style="fill:none;stroke:#00ff00;stroke-width:2px;stroke-linecap:butt;stroke-linejoin:miter;stroke-opacity:1"
         id="path10402-6-4-9"
         inkscape:transform-center-x="9.4965222"
         inkscape:transform-center-y="0.57818892" />
      <g
         id="g2977"
         transform="matrix(0.77723114,-0.62921518,0.62921518,0.77723114,-209.06482,456.954)"
         inkscape:transform-center-x="-8.8760867"
         inkscape:transform-center-y="-10.295335">
        <path
           id="path2930-4"
           style="color:#000000;fill:none;stroke:#0000ff;stroke-width:4;stroke-linecap:butt;stroke-linejoin:bevel;stroke-miterlimit:4;stroke-opacity:1;stroke-dasharray:none;stroke-dashoffset:0;marker:none;visibility:visible;display:inline;overflow:visible;enable-background:accumulate"
           d="m 565.14442,515.13192 20.06845,-14.32557 m -11.01468,22.35528 -0.94737,-24.57561"
           sodipodi:nodetypes="cccc" />
        <path
           id="path10399-9-8"
           style="fill:none;stroke:#00ff00;stroke-width:2;stroke-linecap:butt;stroke-linejoin:miter;stroke-miterlimit:4;stroke-opacity:1;stroke-dasharray:none"
           d="m 586.39331,500.38847 c 0,0 -41.11586,-5.27805 -41.11586,-5.27805 l 29.28776,29.3016 c 0,0 11.8281,-24.02355 11.8281,-24.02355 z"
           sodipodi:nodetypes="cccc" />
      </g>
      <path
         sodipodi:nodetypes="cccc"
         d="m 613.53017,454.65345 -12.24358,-23.83874 m 19.51781,12.22672 -26.79203,-0.6147"
         style="color:#000000;fill:none;stroke:#0000ff;stroke-width:4;stroke-linecap:butt;stroke-linejoin:bevel;stroke-miterlimit:4;stroke-opacity:1;stroke-dasharray:none;stroke-dashoffset:0;marker:none;visibility:visible;display:inline;overflow:visible;enable-background:accumulate"
         id="path2930-7" />
      <path
         id="path3910"
         style="color:#000000;fill:none;stroke:#0000ff;stroke-width:4;stroke-linecap:butt;stroke-linejoin:bevel;stroke-miterlimit:4;stroke-opacity:1;stroke-dasharray:none;stroke-dashoffset:0;marker:none;visibility:visible;display:inline;overflow:visible;enable-background:accumulate"
         d="M 602.15048,471.9195 591.3119,447.41003 m 18.77485,13.33952 -26.71112,-2.16955"
         sodipodi:nodetypes="cccc" />
    </g>
    <path
       style="fill:none;stroke:#000000;stroke-width:6;stroke-linecap:butt;stroke-linejoin:miter;stroke-miterlimit:4;stroke-opacity:1;stroke-dasharray:none"
       d="m 309.8126,13.539791 0,0 c 28.05635,0 44.60192,4.42694 44.21173,23.901767 -0.6723,33.555192 -45.2328,63.286012 -40.16295,125.227172 4.10075,50.10122 51.82664,56.64126 60.10408,69.65003 7.34547,11.5441 -30.29377,25.94793 -9.8995,56.56854 12.43722,18.67364 58.17268,27.62209 72.12488,-8.48528 12.76518,-33.03543 -28.11103,-42.52291 -14.84923,-51.61879 23.88523,-16.38218 37.40716,-24.54602 38.89086,-70.00357 2.36011,-71.74675 -4.93834,-66.42926 -18.38476,-96.16653 -13,-28.75 15.21094,-49.07334 27.96339,-49.07334"
       id="path5999" />
    <path
       id="rect5133"
       style="color:#000000;fill:#ffffff;stroke:#b15f13;stroke-width:2;stroke-linecap:butt;stroke-linejoin:miter;stroke-miterlimit:4;stroke-opacity:1;stroke-dasharray:none;stroke-dashoffset:0;marker:none;visibility:visible;display:inline;overflow:visible;enable-background:accumulate"
       d="m 360,85 -70,0 0,-75 -280,0 0,300 280,0 0,-220 70,0"
       sodipodi:nodetypes="cccccccc" />
    <path
       id="path10402"
       style="fill:none;stroke:url(#linearGradient10514);stroke-width:2;stroke-linecap:butt;stroke-linejoin:bevel;stroke-opacity:1;stroke-miterlimit:4;stroke-dasharray:1,1;fill-opacity:1;stroke-dashoffset:0"
       d="m 130,180 c 0,10 20,10 20,20 0,-30 15,-40 30,-40 -20,0 -90,-70 -90,-100 0,40 5,40 5,80 0,-45 95,-35 95,-80 0,35 -65,180 -90,180 20,0 20,-10 40,-10 -15,0 -40,-35 -40,-50 0,10 -30,10 -30,20 m 110,60 c 0,20 60,20 60,0 M 70,100 c 0,-15 150,-15 150,-15 -10,0 -10,57.2305 -10,125 0,10 0,25 10,25 m -20,0 c 10,0 15,-20 15,-35 0,-35 25,-50 25,-80 0,15 30,0 30,40 0,40 -30,25 -30,40 0,-30 -75,-40 -100,-40 M 40,100 c -15,0 -15,60 0,60 -15,0 -15,80 0,80 M 220,40 c -65,0 -45,10 -80,10 M 70,260 c 0,20 80,20 80,0"
       sodipodi:nodetypes="cccccccccccccccccscscsccccccc" />
    <rect
       style="color:#000000;fill:none;stroke:#0066ff;stroke-width:2;stroke-linecap:butt;stroke-linejoin:miter;stroke-miterlimit:4;stroke-opacity:1;stroke-dasharray:none;stroke-dashoffset:0;marker:none;visibility:visible;display:inline;overflow:visible;enable-background:accumulate"
       id="rect10278"
       width="140.00026"
       height="260"
       x="-160"
       y="40"
       transform="scale(-1,1)" />
    <rect
       y="100"
       x="-280"
       height="179.99994"
       width="160"
       id="rect10280"
       style="color:#000000;fill:none;stroke:#999999;stroke-width:2;stroke-linecap:butt;stroke-linejoin:miter;stroke-miterlimit:4;stroke-opacity:1;stroke-dasharray:none;stroke-dashoffset:0;marker:none;visibility:visible;display:inline;overflow:visible;enable-background:accumulate"
       transform="scale(-1,1)" />
    <rect
       style="color:#000000;fill:none;stroke:#ff0000;stroke-width:2;stroke-linecap:butt;stroke-linejoin:miter;stroke-miterlimit:4;stroke-opacity:1;stroke-dasharray:none;stroke-dashoffset:0;marker:none;visibility:visible;display:inline;overflow:visible;enable-background:accumulate"
       id="rect10285"
       width="40"
       height="100"
       x="-260"
       y="20"
       transform="scale(-1,1)" />
    <rect
       style="color:#000000;fill:none;stroke:#ffcc00;stroke-width:2;stroke-linecap:butt;stroke-linejoin:miter;stroke-miterlimit:4;stroke-opacity:1;stroke-dasharray:none;stroke-dashoffset:0;marker:none;visibility:visible;display:inline;overflow:visible;enable-background:accumulate"
       id="rect10287"
       width="80"
       height="39.999996"
       x="-260"
       y="140"
       transform="scale(-1,1)" />
    <rect
       style="color:#000000;fill:none;stroke:#0066ff;stroke-width:2;stroke-linecap:butt;stroke-linejoin:miter;stroke-miterlimit:4;stroke-opacity:1;stroke-dasharray:none;stroke-dashoffset:0;marker:none;visibility:visible;display:inline;overflow:visible;enable-background:accumulate"
       id="rect10289"
       width="40"
       height="59.999985"
       x="-260"
       y="200"
       transform="scale(-1,1)" />
    <rect
       style="color:#000000;fill:none;stroke:#66ff00;stroke-width:2;stroke-linecap:butt;stroke-linejoin:miter;stroke-miterlimit:4;stroke-opacity:1;stroke-dasharray:none;stroke-dashoffset:0;marker:none;visibility:visible;display:inline;overflow:visible;enable-background:accumulate"
       id="rect10291"
       width="60"
       height="60"
       x="-200"
       y="200"
       transform="scale(-1,1)" />
    <rect
       style="color:#000000;fill:none;stroke:#ffcc00;stroke-width:2;stroke-linecap:butt;stroke-linejoin:miter;stroke-miterlimit:4;stroke-opacity:1;stroke-dasharray:none;stroke-dashoffset:0;marker:none;visibility:visible;display:inline;overflow:visible;enable-background:accumulate"
       id="rect10293"
       width="159.99998"
       height="40"
       x="-200"
       y="80"
       transform="scale(-1,1)" />
    <rect
       style="color:#000000;fill:none;stroke:#cc00ff;stroke-width:2;stroke-linecap:butt;stroke-linejoin:miter;stroke-miterlimit:4;stroke-opacity:1;stroke-dasharray:none;stroke-dashoffset:0;marker:none;visibility:visible;display:inline;overflow:visible;enable-background:accumulate"
       id="rect10295"
       width="60"
       height="80"
       x="-100"
       y="200"
       transform="scale(-1,1)" />
    <rect
       style="color:#000000;fill:none;stroke:#ff0000;stroke-width:2;stroke-linecap:butt;stroke-linejoin:miter;stroke-miterlimit:4;stroke-opacity:1;stroke-dasharray:none;stroke-dashoffset:0;marker:none;visibility:visible;display:inline;overflow:visible;enable-background:accumulate"
       id="rect10297"
       width="100"
       height="40"
       x="-140"
       y="140"
       transform="scale(-1,1)" />
    <rect
       style="color:#000000;fill:none;stroke:#cc00ff;stroke-width:2;stroke-linecap:butt;stroke-linejoin:miter;stroke-miterlimit:4;stroke-opacity:1;stroke-dasharray:none;stroke-dashoffset:0;marker:none;visibility:visible;display:inline;overflow:visible;enable-background:accumulate"
       id="rect10299"
       width="20"
       height="40"
       x="-200"
       y="20"
       transform="scale(-1,1)" />
    <rect
       style="color:#000000;fill:none;stroke:#66ff00;stroke-width:2;stroke-linecap:butt;stroke-linejoin:miter;stroke-miterlimit:4;stroke-opacity:1;stroke-dasharray:none;stroke-dashoffset:0;marker:none;visibility:visible;display:inline;overflow:visible;enable-background:accumulate"
       id="rect10301"
       width="100"
       height="40"
       x="-140"
       y="20"
       transform="scale(-1,1)" />
    <rect
       style="color:#000000;fill:none;stroke:#999999;stroke-width:2;stroke-linecap:butt;stroke-linejoin:miter;stroke-miterlimit:4;stroke-opacity:1;stroke-dasharray:none;stroke-dashoffset:0;marker:none;visibility:visible;display:inline;overflow:visible;enable-background:accumulate"
       id="rect10353"
       width="20"
       height="160"
       x="60"
       y="100" />
    <path
       sodipodi:nodetypes="ccccccc"
       d="m 381.63078,102.27891 31.9089,1.56303 -34.33467,-14.206133 28.45921,18.962543 -35.31461,-13.027673 42.48458,1.281724 -33.20341,5.426509 z"
       style="color:#000000;fill:none;stroke:#99fa94;stroke-width:2;stroke-linecap:butt;stroke-linejoin:bevel;stroke-miterlimit:4;stroke-opacity:1;stroke-dasharray:4.00000002, 2;stroke-dashoffset:0;marker:none;visibility:visible;display:inline;overflow:visible;enable-background:accumulate"
       id="path3933" />
    <path
       style="fill:none;stroke:#b344ac;stroke-width:2;stroke-linecap:butt;stroke-linejoin:bevel;stroke-miterlimit:4;stroke-opacity:1;stroke-dasharray:4.00000001, 2;stroke-dashoffset:0"
       d="m 390.14879,81.321621 19.55585,6.870511"
       id="path10468"
       sodipodi:nodetypes="cc" />
    <path
       style="fill:none;stroke:#b344ac;stroke-width:2;stroke-linecap:butt;stroke-linejoin:miter;stroke-miterlimit:4;stroke-opacity:1;stroke-dasharray:4.00000000999999990, 2;stroke-dashoffset:0"
       d="m 368.89854,93.515056 2.48728,23.733854 11.41122,-11.07463 21.96209,6.00077"
       id="path4154-1-7"
       sodipodi:nodetypes="cccc" />
    <path
       style="color:#000000;fill:#e6e6e6;stroke:none;stroke-width:1;marker:none;visibility:visible;display:inline;overflow:visible;enable-background:accumulate;opacity:0.5"
       d="m 11,309 278,0 0,-298 -278,0 0,298 z M 261,19 261,181 179.28125,180.71875 179,121 39,120.8125 39,79.125 179,79 l 0,-60 82,0 z"
       id="rect3669"
       sodipodi:nodetypes="cccccccccccccc" />
  </g>
</svg>
