<?xml version="1.0" encoding="UTF-8" standalone="no"?>
<!-- Created with Inkscape (http://www.inkscape.org/) -->
<svg
   xmlns:dc="http://purl.org/dc/elements/1.1/"
   xmlns:cc="http://creativecommons.org/ns#"
   xmlns:rdf="http://www.w3.org/1999/02/22-rdf-syntax-ns#"
   xmlns:svg="http://www.w3.org/2000/svg"
   xmlns="http://www.w3.org/2000/svg"
   xmlns:sodipodi="http://sodipodi.sourceforge.net/DTD/sodipodi-0.dtd"
   xmlns:inkscape="http://www.inkscape.org/namespaces/inkscape"
   width="480"
   height="320"
   id="svg2"
   version="1.1"
   inkscape:version="0.46"
   sodipodi:docname="itnas063.svg"
   inkscape:export-xdpi="90"
   inkscape:export-ydpi="90"
   sodipodi:version="0.32"
   inkscape:output_extension="org.inkscape.output.svg.inkscape"
   inkscape:export-filename="itnas063.png">
  <defs
     id="defs4" />
  <sodipodi:namedview
     id="base"
     pagecolor="#ffffff"
     bordercolor="#666666"
     borderopacity="1.0"
     inkscape:pageopacity="1"
     inkscape:pageshadow="2"
     inkscape:zoom="1"
     inkscape:cx="278.92081"
     inkscape:cy="63.810013"
     inkscape:document-units="px"
     inkscape:current-layer="layer1"
     showgrid="false"
     inkscape:snap-nodes="true"
     inkscape:snap-global="false"
     inkscape:snap-grids="true"
     showguides="true"
     inkscape:window-width="1680"
     inkscape:window-height="1002"
     inkscape:window-x="1680"
     inkscape:window-y="25"
     inkscape:window-maximized="1">
    <inkscape:grid
       empspacing="5"
       visible="true"
       enabled="true"
       snapvisiblegridlinesonly="true"
       type="xygrid"
       id="grid2816" />
  </sodipodi:namedview>
  <metadata
     id="metadata7">
    <rdf:RDF>
      <cc:Work
         rdf:about="">
        <dc:format>image/svg+xml</dc:format>
        <dc:type
           rdf:resource="http://purl.org/dc/dcmitype/StillImage" />
        <dc:title />
      </cc:Work>
    </rdf:RDF>
  </metadata>
  <g
     inkscape:label="Layer 1"
     inkscape:groupmode="layer"
     id="layer1"
     transform="translate(0,0)">
    <path
       style="opacity:1;fill:none;fill-opacity:1;fill-rule:nonzero;stroke:#008000;stroke-width:4;stroke-linecap:round;stroke-linejoin:round;marker:none;marker-start:none;marker-mid:none;marker-end:none;stroke-miterlimit:4;stroke-dasharray:none;stroke-dashoffset:0;stroke-opacity:1;visibility:visible;display:inline;overflow:visible;enable-background:accumulate"
       d="M 98.287842,200.49895 C 97.598132,206.50131 101.11627,223.18555 101.11627,233.73297 C 101.11627,241.15082 102.53048,248.69671 102.53048,256.36039 C 102.53048,258.24601 102.53048,260.13163 102.53048,262.01724"
       id="path3654" />
    <path
       style="opacity:1;fill:none;fill-opacity:1;fill-rule:nonzero;stroke:#008000;stroke-width:4;stroke-linecap:round;stroke-linejoin:round;marker:none;marker-start:none;marker-mid:none;marker-end:none;stroke-miterlimit:4;stroke-dasharray:none;stroke-dashoffset:0;stroke-opacity:1;visibility:visible;display:inline;overflow:visible;enable-background:accumulate"
       d="M 109.60155,199.79185 C 109.60155,203.87765 108.18734,215.67962 108.18734,223.12637 C 108.18734,230.19093 107.72967,238.39206 106.06602,245.04668 C 104.99103,249.34662 106.06602,255.44317 106.06602,259.89592"
       id="path3656" />
    <path
       style="opacity:1;fill:none;fill-opacity:1;fill-rule:nonzero;stroke:#008000;stroke-width:4;stroke-linecap:round;stroke-linejoin:round;marker:none;marker-start:none;marker-mid:none;marker-end:none;stroke-miterlimit:4;stroke-dasharray:none;stroke-dashoffset:0;stroke-opacity:1;visibility:visible;display:inline;overflow:visible;enable-background:accumulate"
       d="M 126.87237,204.58474 C 125.32011,210.79377 125.46137,222.95664 123.33683,231.4548 C 121.41878,239.12702 120.50841,246.93148 120.50841,254.78932 C 120.50841,256.45599 120.037,258.08915 119.8013,259.73907"
       id="path3658" />
    <path
       style="opacity:1;fill:none;fill-opacity:1;fill-rule:nonzero;stroke:#008000;stroke-width:4;stroke-linecap:round;stroke-linejoin:round;marker:none;marker-start:none;marker-mid:none;marker-end:none;stroke-miterlimit:4;stroke-dasharray:none;stroke-dashoffset:0;stroke-opacity:1;visibility:visible;display:inline;overflow:visible;enable-background:accumulate"
       d="M 132.93607,199.08474 C 132.93607,206.93219 133.88494,220.26159 132.22897,230.19744 C 130.83863,238.53945 132.77956,247.79966 134.35029,255.65328 C 134.53519,256.57778 134.35029,257.5389 134.35029,258.48171"
       id="path3660" />
    <path
       style="opacity:1;fill:none;fill-opacity:1;fill-rule:nonzero;stroke:#008000;stroke-width:4;stroke-linecap:round;stroke-linejoin:round;marker:none;marker-start:none;marker-mid:none;marker-end:none;stroke-miterlimit:4;stroke-dasharray:none;stroke-dashoffset:0;stroke-opacity:1;visibility:visible;display:inline;overflow:visible;enable-background:accumulate"
       d="M 117.37973,188.47814 C 117.94414,191.3002 116.67262,207.16032 116.67262,213.93398 C 116.67262,215.3482 116.67262,216.76241 116.67262,218.17662 C 116.67262,225.7915 114.38517,235.43685 113.13708,242.92536 C 112.13109,248.96131 111.01576,254.61305 111.01576,260.60303"
       id="path3662" />
    <path
       style="opacity:1;fill:none;fill-opacity:1;fill-rule:nonzero;stroke:#008000;stroke-width:4;stroke-linecap:round;stroke-linejoin:round;marker:none;marker-start:none;marker-mid:none;marker-end:none;stroke-miterlimit:4;stroke-dasharray:none;stroke-dashoffset:0;stroke-opacity:1;visibility:visible;display:inline;overflow:visible;enable-background:accumulate"
       d="M 241.4978,212.25001 C 241.4978,218.66933 242.9978,229.18643 242.9978,237.05089 C 242.9978,240.23871 244.4978,242.7943 244.4978,245.87833 C 244.4978,249.42305 243.9978,252.43149 243.9978,255.96682 C 243.9978,257.13695 243.4978,258.47955 243.4978,259.75001"
       id="path3751" />
    <path
       style="opacity:1;fill:none;fill-opacity:1;fill-rule:nonzero;stroke:#008000;stroke-width:4;stroke-linecap:round;stroke-linejoin:round;marker:none;marker-start:none;marker-mid:none;marker-end:none;stroke-miterlimit:4;stroke-dasharray:none;stroke-dashoffset:0;stroke-opacity:1;visibility:visible;display:inline;overflow:visible;enable-background:accumulate"
       d="M 263.6228,202.75 C 263.6228,210.73449 262.55419,220.02444 260.6228,227.75 C 258.9991,234.24478 258.1228,243.0982 258.1228,249.75 C 258.1228,252.58333 257.43562,255.50126 258.1228,258.25"
       id="path3753" />
    <path
       style="opacity:1;fill:none;fill-opacity:1;fill-rule:nonzero;stroke:#008000;stroke-width:4;stroke-linecap:round;stroke-linejoin:round;marker:none;marker-start:none;marker-mid:none;marker-end:none;stroke-miterlimit:4;stroke-dasharray:none;stroke-dashoffset:0;stroke-opacity:1;visibility:visible;display:inline;overflow:visible;enable-background:accumulate"
       d="M 251.9978,199.125 C 253.12777,203.64486 251.9978,218.79906 251.9978,225.625 C 251.9978,231.16599 253.4978,236.4709 253.4978,242.125 C 253.4978,246.8452 252.4978,250.90316 252.4978,255.625 C 252.4978,257.55191 251.31797,258.48465 250.9978,259.125"
       id="path3755" />
    <path
       style="opacity:1;fill:none;fill-opacity:1;fill-rule:nonzero;stroke:#008000;stroke-width:4;stroke-linecap:round;stroke-linejoin:round;marker:none;marker-start:none;marker-mid:none;marker-end:none;stroke-miterlimit:4;stroke-dasharray:none;stroke-dashoffset:0;stroke-opacity:1;visibility:visible;display:inline;overflow:visible;enable-background:accumulate"
       d="M 234.4978,200.75 C 234.4978,206.61155 232.9978,217.07541 232.9978,224.75 C 232.9978,230.78231 233.9978,236.73873 233.9978,242.75 C 233.9978,247.5053 233.9978,251.97551 233.9978,256.75 C 233.9978,257.75 233.9978,258.75 233.9978,259.75"
       id="path3757" />
    <path
       style="opacity:1;fill:none;fill-opacity:1;fill-rule:nonzero;stroke:#008000;stroke-width:4;stroke-linecap:round;stroke-linejoin:round;marker:none;marker-start:none;marker-mid:none;marker-end:none;stroke-miterlimit:4;stroke-dasharray:none;stroke-dashoffset:0;stroke-opacity:1;visibility:visible;display:inline;overflow:visible;enable-background:accumulate"
       d="M 274.6228,191.35938 C 274.6228,198.58058 273.83843,212.17078 272.6228,222.0144 C 272.45613,223.364 272.28947,224.71358 272.1228,226.06318 C 272.00262,227.03639 271.78947,227.99117 271.6228,228.95516 C 270.66909,234.47141 271.79795,240.29103 270.6228,245.72866 C 269.93344,248.91847 270.49795,254.9837 271.1228,257.87499"
       id="path3759" />
    <path
       style="fill:none;fill-rule:evenodd;stroke:#0000ff;stroke-width:3.99999976;stroke-linecap:round;stroke-linejoin:round;stroke-miterlimit:4;stroke-dasharray:none;stroke-opacity:1"
       d="M -21.890446,261 C -13.471776,261.74544 8.6825257,261.91681 17.17241,262.27036 C 17.856256,262.29884 18.990884,263.60628 21.284993,263.55885 C 27.380185,263.43283 54.057357,260.32455 57.391242,261.437 C 71.555654,266.16338 83.957492,257.62557 101.49839,262.7972 C 108.91817,264.9848 146.63128,258.37938 152.43493,259.19365 C 158.31437,260.01855 166.91406,261.7665 181.09238,259.50039 C 184.56996,258.94457 190.50154,261.14398 193.74726,260.60303 C 208.88574,258.07995 227.82477,260.60303 243.24474,260.60303 C 254.56931,260.60303 265.54124,257.16155 276.47875,259.89592 C 284.39342,261.87459 293.05865,261.31014 301.22749,261.31014 C 308.61116,261.31014 316.33252,262.01724 323.85491,262.01724 C 330.38311,262.01724 336.37462,260.3418 342.57179,261.68146 C 343.54143,261.89107 363.67358,261.87789 363.67358,261.87789 C 363.54304,263.01224 368.28266,269.59206 371.27472,270.50627 C 376.80997,272.19754 384.65253,272.87188 387.55393,270.72599 C 391.01052,268.16948 393.15103,264.2652 392.94167,262.10642 C 398.84042,262.44026 394.11552,263.40436 399.70467,261.01984 C 400.78608,263.27721 403.13179,264.95291 406.28462,264.95291 C 409.72474,264.95291 412.04373,266.14223 415.41635,266.75469 C 419.46101,267.48918 427.06541,266.8265 431.34769,266.45919 C 434.43911,266.19402 440.35878,266.33159 443.60074,266.33159 C 447.07185,266.33159 450.08396,266.12213 453.46428,265.96286 C 459.09212,265.6977 463.23827,265.66885 468.82435,265.1522 C 474.23041,264.6522 479.81635,264.16052 484.95392,263.55125 C 490.11258,262.93948 492.05347,262.80361 492.65334,260.57663 C 492.82435,259.94176 498.64729,260.6406 501.86903,261.17756 C 506.39133,261.93128 511.98107,262.39485 516.36472,260.89225 C 516.36472,260.89225 525.05083,261.03375 529.44619,260.53869 C 534.54705,259.96417 539.70758,259.83159 545.00254,259.83159 C 546.73803,259.83159 548.07484,259.88036 549.59874,260.18514"
       id="path2849"
       sodipodi:nodetypes="csssssssssssssssccssssssssssssc" />
    <path
       style="fill:none;stroke:#ff8000;stroke-width:4;stroke-linecap:round;stroke-linejoin:round;stroke-miterlimit:4;stroke-dasharray:none;stroke-opacity:1"
       d="M 95.921004,300.98536 C 96.216794,304.76763 103.00564,299.19005 107.80267,296.0874 C 108.81203,295.43499 116.20493,289.68266 117.2141,289.02995 C 121.23397,286.42992 129.89688,283.18085 133.37226,286.75416 C 136.98358,290.46719 135.82414,294.98917 132.75621,299.62182 C 130.84084,302.51386 123.18073,299.75981 121.57502,299.09113 C 115.65456,296.62703 113.23574,294.80137 108.18743,290.90441 C 104.83836,288.31917 103.66349,288.14157 101.36343,287.18428 C 97.657734,285.64194 94.135804,282.69843 94.807644,286.65567 C 95.170824,288.79477 95.479194,295.33284 95.921254,300.98502 L 95.921004,300.98536 z"
       id="path3621"
       sodipodi:nodetypes="csssssssss" />
    <path
       style="fill:none;stroke:#ff8000;stroke-width:4;stroke-linecap:round;stroke-linejoin:round;stroke-miterlimit:4;stroke-dasharray:none;stroke-opacity:1"
       d="M 421.97909,280.49445 C 421.80819,279.65724 416.40655,285.62804 413.55926,288.88907 C 409.24802,293.82677 400.88273,297.55657 394.59418,298.06728 C 389.46047,298.48421 386.99649,293.65973 385.82731,289.69289 C 384.23225,284.28106 390.16113,281.24465 394.40909,281.59332 C 399.96058,282.04898 406.33671,284.67927 408.05404,286.60181 C 411.79013,290.78435 413.97803,292.69682 418.80326,295.74163 C 424.95693,299.62473 423.94824,296.71304 423.84972,295.81823 C 423.44696,292.18549 422.75409,284.29152 421.97909,280.49449 L 421.97909,280.49445 z"
       id="path3623"
       sodipodi:nodetypes="cssssssss" />
    <path
       style="opacity:1;fill:none;fill-opacity:1;fill-rule:nonzero;stroke:#008000;stroke-width:4;stroke-linecap:round;stroke-linejoin:round;marker:none;marker-start:none;marker-mid:none;marker-end:none;stroke-miterlimit:4;stroke-dasharray:none;stroke-dashoffset:0;stroke-opacity:1;visibility:visible;display:inline;overflow:visible;enable-background:accumulate"
       d="M -337.39044,256 C -331.72343,254.83196 -321.07859,256.38393 -317.39044,256.5 C -306.58993,256.8399 -293.40797,258.5 -282.39044,258.5 C -268.77101,258.5 -255.46058,255.95965 -241.89044,256.5 C -229.78306,256.9821 -216.9517,259.91225 -204.89044,257.5 C -191.75553,254.87302 -175.70075,258 -162.39044,258 C -143.02293,258 -123.55901,258.12984 -104.39044,256 C -93.917255,254.83631 -83.468456,255 -72.890436,255 C -60.992046,255 -50.251986,265.54594 -38.451096,265.54594 C -25.155786,265.54594 -14.829486,267.22468 -4.3904362,275.5 C 6.3320338,284 18.159932,285.12982 29.109562,287.5 C 42.968822,290.5 56.096472,290.80186 68.109562,293.5 C 74.788102,295 80.172012,300.73536 84.609562,303.5 C 94.026092,309.36661 102.65284,313.5 111.60956,313.5 C 120.65182,313.5 160.26522,314.58608 168.60956,312.5 C 178.488,312.5 196.35863,306.30266 198.69701,307.27208 C 215.16265,314.09825 242.69172,305.85787 250.13902,310.10051 C 250.86421,310.51364 262.73754,312.19619 265.13414,310.55718 C 268.69834,308.11968 295.86147,310.64713 306.88434,312.22183 C 318.79415,313.92323 332.27682,312.85894 343.6539,310.80761 C 344.24315,310.70137 345.18595,312.10397 345.7752,312.22183 C 348.01761,312.67031 350.69375,310.90155 352.84627,310.80761 C 361.38522,310.43495 370.27827,311.74409 378.65567,313.63604 C 381.93723,314.37714 385.88115,313.9709 389.26227,314.34315 C 398.0039,315.30556 404.64131,312.57453 415.07167,313.63604 C 417.47294,313.88042 422.9492,311.64182 426.73893,309.74695 C 429.91559,308.15862 437.96715,311.92387 438.58297,310.98439 C 439.59755,309.43656 443.60436,314.1854 450.78056,311.33794 C 453.19116,310.38144 464.3919,312.18639 471.64021,313.63604 C 476.10336,314.52867 481.57109,314.6967 486.1359,314.6967 C 489.81755,314.6967 493.44309,314.6967 497.09605,314.6967 C 498.626,314.6967 499.90832,314.70074 501.33869,314.34315"
       id="path2842"
       sodipodi:nodetypes="csssssssssssssssssssssssssssssss" />
    <path
       style="fill:none;stroke:#c87137;stroke-width:4;stroke-linecap:round;stroke-linejoin:round;marker:none;stroke-miterlimit:4;stroke-dasharray:none;stroke-dashoffset:0;stroke-opacity:1;visibility:visible;display:inline;overflow:visible;enable-background:accumulate"
       d="M 365.89689,251.35276 C 365.81883,253.71447 365.67509,255.99225 366.25147,258.32024 C 366.43022,259.04227 367.01594,259.39546 367.35041,259.99188 C 367.82711,260.84196 367.8883,262.09573 368.41038,262.88992 C 368.61515,263.20139 369.00402,263.10388 369.26057,263.32615 C 370.1527,264.09868 371.03564,265.76016 372.04688,266.27895 C 374.66958,267.62464 377.58758,267.68267 380.35197,267.77051 C 382.46397,267.83761 384.6197,268.27504 386.4462,266.32752 C 389.9372,262.60514 388.46099,261.3437 389.62227,257.01711 C 390.35341,254.29306 391.75975,253.19829 391.84421,250.54062"
       id="path2928" />
    <path
       style="fill:none;stroke:#c87137;stroke-width:4;stroke-linecap:round;stroke-linejoin:round;marker:none;stroke-miterlimit:4;stroke-dasharray:none;stroke-dashoffset:0;stroke-opacity:1;visibility:visible;display:inline;overflow:visible;enable-background:accumulate"
       d="M -208.09872,254.42966 C -212.91373,253.85131 -218.29749,256.36575 -222.60454,254.59013 C -226.32768,253.05523 -230.22878,249.90168 -231.28173,245.39182 C -232.71523,239.25197 -234.33833,233.14479 -235.78664,227.00328 C -237.93076,217.91123 -236.33024,208.56101 -236.76107,199.34271 C -236.97697,194.72301 -234.43906,190.45928 -234.57651,185.76731 C -234.77043,179.14806 -235.01618,172.52495 -234.59471,165.89689 C -234.36992,162.36178 -234.65071,158.73006 -236.39447,155.50366 C -237.45092,153.54898 -236.56318,151.15662 -236.58123,149.00427"
       id="path2832"
       sodipodi:nodetypes="cssssssss" />
    <path
       style="fill:none;stroke:#c87137;stroke-width:4;stroke-linecap:round;stroke-linejoin:round;marker:none;stroke-miterlimit:4;stroke-dasharray:none;stroke-dashoffset:0;stroke-opacity:1;visibility:visible;display:inline;overflow:visible;enable-background:accumulate"
       d="M -265.99888,153.76514 C -265.54127,157.47561 -265.18317,161.19114 -264.67701,164.93278 C -264.0174,169.80884 -264.67701,175.3607 -264.67701,180.28829 C -264.67701,191.50441 -263.45749,203.75388 -265.99888,214.48921 C -267.3478,220.18735 -264.42849,234.64119 -265.99888,239.61643 C -268.48627,247.49685 -276.57601,251.13421 -283.84404,254.97192 C -284.91353,255.53665 -287.84317,254.97192 -289.1315,254.97192"
       id="path2850"
       sodipodi:nodetypes="cssssss" />
    <path
       style="fill:none;stroke:#94f3f3;stroke-width:4;stroke-linecap:round;stroke-linejoin:round;stroke-miterlimit:4;stroke-dasharray:none;stroke-opacity:1"
       d="M -271.29669,37.450061 C -276.24269,37.63939 -280.76896,41.249528 -282.29669,45.918811 C -283.96537,49.653717 -285.60601,53.735019 -284.91514,57.902846 C -284.02474,62.732175 -282.04091,67.254744 -280.48419,71.887561 C -280.13819,72.584218 -279.51602,73.508208 -280.14044,74.231311 C -281.1803,74.851141 -281.89835,73.390019 -282.45113,72.716889 C -283.32874,71.422244 -284.06714,70.025401 -285.13673,68.873126 C -289.15557,63.259798 -293.83862,58.024736 -299.51544,54.043811 C -301.11007,53.005647 -303.28195,53.087993 -304.76544,54.293811 C -306.90976,55.920217 -308.44092,58.186873 -310.44301,59.971381 C -314.06613,63.533391 -318.04272,66.933284 -320.50144,71.458303 C -323.11058,76.563585 -323.47281,82.877372 -321.02547,88.112572 C -319.21125,92.205306 -315.44948,94.937768 -311.70313,97.140161 C -307.47697,99.649226 -303.15705,102.01336 -299.07794,104.76254 C -298.32729,104.80293 -296.86395,106.11396 -298.03987,106.45349 C -299.19298,106.23977 -300.35983,105.69611 -301.53104,106.14242 C -306.92041,107.1904 -311.63337,110.44338 -315.38749,114.34455 C -317.2531,116.35936 -318.93926,118.60941 -319.78345,121.25538 C -320.77208,124.09596 -320.79511,127.40076 -319.24661,130.05226 C -318.13733,132.22541 -315.98568,133.52925 -313.87907,134.58844 C -310.62929,136.23651 -307.26057,137.71436 -304.32138,139.90046 C -302.11338,141.40464 -299.90832,142.91986 -297.57794,144.23129 C -296.73355,145.16824 -297.79065,146.39089 -298.6727,146.82565 C -305.01767,150.57401 -310.9882,155.05787 -315.97276,160.50834 C -318.53628,163.27443 -320.52149,166.86776 -320.42169,170.73129 C -320.37218,172.93325 -318.79588,175.14354 -316.52684,175.43662 C -311.07321,176.97513 -305.47338,177.99527 -299.84003,178.5801 C -295.11088,178.90851 -290.24962,178.36838 -285.90583,176.38075 C -280.92887,174.13981 -280.66956,170.60547 -276.76624,166.84715 C -273.15844,163.17183 -269.91362,159.04668 -267.87654,154.28103 C -267.32985,153.29631 -267.13113,152.1351 -266.39044,151.26254 C -265.64405,150.71443 -264.24573,151.06182 -264.23419,152.10629 C -263.672,154.35535 -262.79126,156.64476 -261.02037,158.22136 C -258.7591,160.73234 -252.07594,162.87099 -249.18945,164.61168 C -246.63662,165.72372 -245.61099,163.07557 -243.88191,161.03526 C -241.17534,158.28659 -239.1897,154.79733 -238.26758,151.05082 C -238.00375,150.06943 -238.19195,148.89467 -237.60919,148.04379 C -236.63795,147.32059 -235.62462,148.21825 -235.03568,148.96219 C -232.02075,151.44944 -227.0632,155.94384 -223.06318,156.67799 C -218.51928,157.59844 -213.9024,156.403 -209.53674,155.17442 C -205.83841,154.12913 -202.11312,152.87088 -198.90394,150.71084 C -196.71071,149.17195 -196.46147,145.89684 -197.80116,143.71423 C -198.90993,141.80015 -200.30595,140.08367 -201.70151,138.37477 C -202.198,137.71438 -202.93006,136.81453 -201.82062,137.78652 C -199.21756,139.81118 -196.307,141.91602 -192.86432,141.93137 C -189.23708,142.1149 -185.38708,142.81828 -181.93842,141.31778 C -179.68448,140.00325 -178.92621,137.27661 -178.46566,134.87477 C -176.43404,126.16505 -175.91134,117.03795 -177.46181,108.20729 C -177.86126,105.38735 -178.94791,102.3945 -181.41967,100.75815 C -183.54637,99.258085 -186.16559,98.500507 -188.76544,98.731311 C -189.83259,98.514555 -189.52928,96.758489 -188.48419,96.793811 C -183.72545,95.259846 -179.00272,93.282474 -175.07732,90.123458 C -173.45343,88.791742 -171.89915,87.300056 -170.82794,85.481311 C -170.06252,83.899888 -170.2133,81.90067 -171.4394,80.586414 C -173.31742,78.311637 -176.17565,77.191316 -178.85919,76.168811 C -184.56806,74.123928 -190.9835,74.942063 -196.40239,77.465791 C -198.36696,78.362934 -200.38049,79.36129 -201.71401,81.12685 C -202.68784,81.703496 -202.05272,83.009795 -203.14044,83.418811 C -204.34785,83.64338 -203.83586,81.837306 -203.86096,81.096359 C -203.56481,79.565458 -203.62773,78.013604 -203.77983,76.474666 C -204.19939,70.067127 -206.64953,63.736363 -210.92349,58.912131 C -213.12244,56.562374 -215.93603,54.293097 -219.31855,54.293811 C -222.0071,54.439031 -223.87433,56.612122 -225.68875,58.342117 C -227.29249,59.853018 -228.62167,61.625646 -230.07794,63.262561 C -231.08311,63.707468 -231.85135,62.568347 -232.04458,61.715017 C -233.34066,58.059309 -235.69985,54.875583 -238.27265,52.017093 C -242.78307,47.321545 -248.63423,44.295796 -254.23258,41.118548 C -257.81157,39.240548 -261.70931,37.86469 -265.76903,37.612577 C -267.60492,37.427989 -269.45323,37.392312 -271.29669,37.450061 z"
       id="path2827"
       sodipodi:nodetypes="csssssssssssssssssssssssssssssssssssssscccccccccccccccccccccccccccccc" />
    <path
       id="path3747"
       style="fill:none;stroke:#808080;stroke-width:4;stroke-linecap:round;stroke-linejoin:round;stroke-miterlimit:4;stroke-dasharray:none;stroke-opacity:1"
       d="M 488.99716,258.95546 C 488.99716,258.95546 482.23366,259.7126 478.86727,259.99067 C 474.7908,260.3274 470.75368,260.95844 466.66029,261.2087 C 459.31997,261.65753 451.96767,262.0067 444.63373,262.17592 C 439.01394,262.30559 433.42518,262.09237 427.78033,262.59229 C 423.32969,262.98641 418.73027,263.24477 414.4745,262.38231 C 411.73742,261.82764 409.17521,260.75672 406.28484,260.87141 C 404.66402,260.93571 403.61579,259.84682 403.29072,259.04803"
       sodipodi:nodetypes="csssssss" />
    <path
       sodipodi:nodetypes="cssssss"
       id="path4061"
       d="M -43.433966,256.12963 C -43.428706,255.55957 -45.318696,254.11042 -46.074326,254.23464 C -47.659186,254.4951 -49.430906,253.83938 -49.594156,255.70885 C -49.724406,257.20039 -50.554546,257.25327 -49.890546,258.26563 C -48.897466,259.7798 -48.461186,259.97955 -46.755546,259.90018 C -45.722606,259.85215 -45.906716,259.73848 -45.214286,259.46773 C -43.929546,258.9654 -43.445236,257.35058 -43.433966,256.12963 z"
       style="opacity:1;fill:none;fill-opacity:1;fill-rule:nonzero;stroke:#808080;stroke-width:4;stroke-linecap:butt;stroke-linejoin:miter;marker:none;marker-start:none;marker-mid:none;marker-end:none;stroke-miterlimit:4;stroke-dasharray:none;stroke-dashoffset:0;stroke-opacity:1;visibility:visible;display:inline;overflow:visible;enable-background:accumulate" />
    <path
       sodipodi:nodetypes="cssssss"
       id="path4063"
       d="M -38.272256,256.09177 C -39.435746,256.42074 -41.020066,259.7008 -40.511106,260.86835 C -40.183846,261.61915 -38.258456,261.80403 -37.665796,261.72076 C -36.661566,261.57969 -35.461656,261.96757 -34.735316,261.28245 C -34.383526,260.9507 -33.812226,260.34449 -34.066956,259.82339 C -34.396526,259.14916 -35.399706,257.25422 -35.888836,257.07153 C -36.662246,256.78265 -37.084546,255.756 -38.272256,256.09177 z"
       style="opacity:1;fill:none;fill-opacity:1;fill-rule:nonzero;stroke:#808080;stroke-width:4;stroke-linecap:butt;stroke-linejoin:miter;marker:none;marker-start:none;marker-mid:none;marker-end:none;stroke-miterlimit:4;stroke-dasharray:none;stroke-dashoffset:0;stroke-opacity:1;visibility:visible;display:inline;overflow:visible;enable-background:accumulate" />
    <path
       sodipodi:nodetypes="cssssssss"
       id="path4065"
       d="M -25.580936,257.89117 C -25.946406,257.3731 -27.189196,257.69763 -27.694996,257.41368 C -28.466816,256.98024 -29.185536,257.84136 -29.924386,258.34201 C -30.451986,258.69954 -31.016426,259.36061 -30.959996,259.88853 C -30.897806,260.46881 -30.709926,261.97536 -30.284136,262.29543 C -29.874996,262.60283 -28.659676,262.62302 -27.907746,262.66681 C -26.925296,262.72398 -25.972956,262.61 -25.092206,262.75258 C -24.389036,262.8664 -24.755156,261.52989 -24.599886,261.15369 C -24.458496,260.81123 -24.777026,259.03031 -25.580936,257.89117 z"
       style="opacity:1;fill:none;fill-opacity:1;fill-rule:nonzero;stroke:#808080;stroke-width:4;stroke-linecap:butt;stroke-linejoin:miter;marker:none;marker-start:none;marker-mid:none;marker-end:none;stroke-miterlimit:4;stroke-dasharray:none;stroke-dashoffset:0;stroke-opacity:1;visibility:visible;display:inline;overflow:visible;enable-background:accumulate" />
    <path
       style="fill:none;stroke:#80ff00;stroke-width:4;stroke-linecap:round;stroke-linejoin:round;marker:none;stroke-miterlimit:4;stroke-dasharray:none;stroke-dashoffset:0;stroke-opacity:1;visibility:visible;display:inline;overflow:visible;enable-background:accumulate"
       d="M 184.79547,271.67539 C 189.99034,270.33271 194.49512,270.75442 197.68044,270.41336 C 201.80977,269.97095 205.69364,268.8825 209.72492,268.12758 C 217.74168,266.62628 225.83013,267.50864 233.89779,266.97527 C 240.5143,266.53773 247.12656,265.95305 253.65837,265.67154 C 258.88761,265.44619 264.33653,263.08573 269.04619,263.00574 C 273.32213,262.93319 277.48864,261.70294 281.09677,259.77361 C 284.02043,258.21026 286.83041,257.75889 289.86348,257.94276"
       id="path2965"
       sodipodi:nodetypes="cssssssc" />
    <g
       id="g4230"
       transform="matrix(-0.92986249,-0.10798391,-0.09035455,1.1112908,498.56029,-6.6017505)"
       style="stroke-linecap:round;stroke-linejoin:round">
      <path
         sodipodi:nodetypes="csssssscc"
         id="path4202"
         d="M 45.222162,75.375534 C 54.337824,73.993356 57.023018,76.79414 66.048558,75.485163 77.899195,73.766462 83.705441,60.217782 85.158244,49.421527 86.729356,37.746082 74.692728,30.580889 67.407239,24.010788 61.453314,18.641499 54.779847,21.170136 51.218222,17.106449 47.25369,12.583055 38.29544,20.08661 32.69561,25.476123 c -6.167794,5.936146 -15.168926,12.28642 -12.889767,22.275542 2.045077,8.963187 4.336525,17.957138 10.992492,24.858193 3.929978,2.668096 11.149028,7.648128 14.423827,2.765676 z"
         style="fill:none;stroke:#ffff00;stroke-width:3.91648173;stroke-linecap:round;stroke-linejoin:round;stroke-miterlimit:4;stroke-opacity:1;stroke-dasharray:none" />
      <path
         id="path4215"
         d="M 31,81 C 28.148613,84.553942 24.105327,87.346267 24.536612,92.015165 21.832544,96.043458 21.188425,100.66969 20,105 c -1.284479,-0.52275 -1.919186,3.77422 -2,5"
         style="fill:none;stroke:#ffff00;stroke-width:3.91648173;stroke-linecap:round;stroke-linejoin:round;stroke-miterlimit:4;stroke-opacity:1;stroke-dasharray:none" />
      <path
         id="path4217"
         d="m 53.280734,83.999998 c 4.109561,4.16047 0.225882,10.218352 3.166602,14.792056 1.215413,5.697486 7.524659,9.190686 6.531011,15.084746 L 62.937021,115"
         style="fill:none;stroke:#ffff00;stroke-width:3.91648173;stroke-linecap:round;stroke-linejoin:round;stroke-miterlimit:4;stroke-opacity:1;stroke-dasharray:none" />
      <path
         id="path4219-0"
         d="m 76,78 c 3.400595,3.924314 5.608335,9.266142 10.25064,12 2.62092,4.847886 4.316418,10.49689 8.888485,13.99058 2.816275,3.7582 6.029785,7.79196 9.904355,10.00942"
         style="fill:none;stroke:#ffff00;stroke-width:3.91648173;stroke-linecap:round;stroke-linejoin:round;stroke-miterlimit:4;stroke-opacity:1;stroke-dasharray:none" />
      <path
         id="path4221"
         d="m 90,56.987967 c 14.33334,0.01397 28.66662,0.07609 43,0.05204"
         style="fill:none;stroke:#ffff00;stroke-width:3.91648173;stroke-linecap:round;stroke-linejoin:round;stroke-miterlimit:4;stroke-opacity:1;stroke-dasharray:none" />
      <path
         id="path4223"
         d="m 86.000002,33 c 5.268561,-0.876096 9.823061,-4.205192 14.951108,-4.876265 4.62153,1.300794 7.8844,-3.002146 12.17425,-3.773924 C 115.24759,22.885947 120.60982,23.2369 120.85644,21"
         style="fill:none;stroke:#ffff00;stroke-width:3.91648173;stroke-linecap:round;stroke-linejoin:round;stroke-miterlimit:4;stroke-opacity:1;stroke-dasharray:none" />
    </g>
    <path
       style="fill:none;stroke:#80ff00;stroke-width:3.99999976;stroke-linecap:round;stroke-linejoin:round;stroke-miterlimit:4;stroke-dasharray:none;stroke-opacity:1"
       d="M 216.85814,306.90403 C 215.55701,302.53321 213.17701,298.33117 209.62524,294.22669 C 205.94138,289.0383 202.63346,283.68991 198.10314,278.66205 C 195.88912,275.29299 192.00714,266.6948 190.67059,273.21071 C 187.30881,277.48787 184.17378,281.72422 183.15784,286.6981 C 181.48587,291.71103 177.31022,296.58937 177.06505,301.4472 C 177.67561,302.84662 175.33453,306.78454 176.12974,308.26537"
       id="path2956-1"
       sodipodi:nodetypes="ccccccc" />
    <path
       style="fill:none;stroke:#80ff00;stroke-width:4;stroke-linecap:round;stroke-linejoin:round;marker:none;stroke-miterlimit:4;stroke-dasharray:none;stroke-dashoffset:0;stroke-opacity:1;visibility:visible;display:inline;overflow:visible;enable-background:accumulate"
       d="M 184.84949,271.64416 C 183.42603,272.41692 175.86717,271.18177 175.86717,271.18177 C 160.92366,267.26204 148.17512,273.46829 135.97059,270.89118 C 131.32069,269.90931 127.33671,273.46725 115.27113,274.78078 C 114.34972,274.88109 105.22897,274.65376 103.42264,274.27069 C 87.462874,270.88613 86.197014,278.12161 77.657624,262.01557 C 76.502628,259.83715 71.961344,255.69782 69.931954,252.17548 C 65.010504,243.63351 66.400615,246.27737 67.174562,237.61924"
       id="path4125"
       sodipodi:nodetypes="csssssss" />
    <path
       style="fill:none;stroke:#80ff00;stroke-width:3.99999976;stroke-linecap:round;stroke-linejoin:round;stroke-miterlimit:4;stroke-dasharray:none;stroke-opacity:1"
       d="M 287.79476,245.67548 C 288.64644,247.34423 289.87174,243.8821 290.79584,245.89545 C 293.43211,247.1754 296.3382,246.16109 298.96851,247.5132 C 300.855,247.99735 302.79515,247.41337 304.67825,247.95343 C 306.66567,248.44607 308.63727,248.19578 310.61372,248.01622 C 312.34025,247.94783 314.04228,248.34148 315.75713,248.43294 C 317.04894,249.37387 318.29715,249.20042 319.64079,250.04472 C 321.26514,251.05574 323.24824,250.30978 324.78306,251.74544 C 324.69809,252.60966 322.9886,253.3853 322.26378,254.21538 C 319.94892,256.16723 317.63477,258.12084 315.31822,260.06896 C 313.69109,260.73539 312.30111,262.32758 310.51258,262.23594 C 309.11492,262.57238 307.91822,263.60561 306.61515,264.24259 C 305.23748,265.14211 303.60171,266.00429 302.0979,266.75937 C 300.61251,267.73584 299.02627,268.44677 297.689,269.80208 C 296.63941,270.86122 295.30456,272.16569 294.60158,269.82551 C 293.76174,268.28468 294.10736,266.22412 293.25581,264.67722 C 292.7458,262.6875 291.76155,260.97395 291.84883,258.66214 C 291.11786,256.6858 290.76329,254.35199 289.71701,252.5987 C 289.39172,250.71852 288.63047,248.93993 288.0642,247.21865 C 287.86937,246.8181 287.36831,246.11689 287.79489,245.67575 L 287.79476,245.67548 z"
       id="path2942" />
    <path
       sodipodi:nodetypes="cssssss"
       id="path3240"
       d="M 376.60839,254.83037 C 376.61365,254.26031 374.72366,252.81116 373.96803,252.93538 C 372.38317,253.19584 370.61145,252.54012 370.4482,254.40959 C 370.31795,255.90113 369.48781,255.95401 370.15181,256.96637 C 371.14489,258.48054 371.58117,258.68029 373.28681,258.60092 C 374.31975,258.55289 374.13564,258.43922 374.82807,258.16847 C 376.11281,257.66614 376.59712,256.05132 376.60839,254.83037 z"
       style="opacity:1;fill:none;fill-opacity:1;fill-rule:nonzero;stroke:#808080;stroke-width:4;stroke-linecap:butt;stroke-linejoin:miter;marker:none;marker-start:none;marker-mid:none;marker-end:none;stroke-miterlimit:4;stroke-dasharray:none;stroke-dashoffset:0;stroke-opacity:1;visibility:visible;display:inline;overflow:visible;enable-background:accumulate" />
    <path
       sodipodi:nodetypes="cssssss"
       id="path3242"
       d="M 380.2675,258.23966 C 379.10401,258.56863 377.51969,261.84869 378.02865,263.01624 C 378.35591,263.76704 380.2813,263.95192 380.87396,263.86865 C 381.87819,263.72758 383.0781,264.11546 383.80444,263.43034 C 384.15623,263.09859 384.72753,262.49238 384.4728,261.97128 C 384.14323,261.29705 383.14005,259.40211 382.65092,259.21942 C 381.87751,258.93054 381.45521,257.90389 380.2675,258.23966 z"
       style="opacity:1;fill:none;fill-opacity:1;fill-rule:nonzero;stroke:#808080;stroke-width:4;stroke-linecap:butt;stroke-linejoin:miter;marker:none;marker-start:none;marker-mid:none;marker-end:none;stroke-miterlimit:4;stroke-dasharray:none;stroke-dashoffset:0;stroke-opacity:1;visibility:visible;display:inline;overflow:visible;enable-background:accumulate" />
    <path
       sodipodi:nodetypes="cssssssss"
       id="path3244"
       d="M 386.79229,251.35166 C 386.69914,250.72453 385.4433,250.4549 385.11946,249.97366 C 384.62536,249.23919 383.59595,249.68461 382.71083,249.79909 C 382.07876,249.88086 381.27717,250.21709 381.08992,250.7139 C 380.88425,251.26006 380.37387,252.68992 380.61,253.1674 C 380.83698,253.62606 381.91312,254.19115 382.56485,254.56873 C 383.4164,255.06201 384.31811,255.38892 385.04041,255.91269 C 385.61707,256.33085 385.89176,254.9726 386.19975,254.70656 C 386.48016,254.4644 386.99738,252.73073 386.79229,251.35166 z"
       style="opacity:1;fill:none;fill-opacity:1;fill-rule:nonzero;stroke:#808080;stroke-width:4;stroke-linecap:butt;stroke-linejoin:miter;marker:none;marker-start:none;marker-mid:none;marker-end:none;stroke-miterlimit:4;stroke-dasharray:none;stroke-dashoffset:0;stroke-opacity:1;visibility:visible;display:inline;overflow:visible;enable-background:accumulate" />
    <path
       style="fill:none;stroke:#80ff00;stroke-width:3.99999976;stroke-linecap:round;stroke-linejoin:round;stroke-miterlimit:4;stroke-dasharray:none;stroke-opacity:1"
       d="M 263.27171,299.48478 C 263.37091,298.79018 263.9041,295.05818 264.16834,293.20893 C 265.0651,287.39525 268.40815,285.24174 270.90409,278.11874 C 271.70555,273.956 275.46342,265.87119 276.27025,263.70763 C 278.29524,267.89109 280.13795,272.18434 282.20711,276.33739 C 284.89883,282.8592 288.79834,288.50982 295.1511,292.40742 C 296.05148,292.7877 298.11614,292.96504 297.19077,294.54066"
       id="path2958" />
    <path
       style="fill:none;stroke:#0000ff;stroke-width:4;stroke-linecap:round;stroke-linejoin:round;stroke-miterlimit:4;stroke-dasharray:none;stroke-opacity:1"
       d="M 339.34171,212.08375 C 336.98991,212.22545 336.19871,214.25745 335.37201,215.51555 C 333.54001,217.23395 334.17761,217.89395 332.53651,220.09125 C 332.44551,222.05665 331.33451,223.60255 331.68591,225.75035 C 331.36001,228.89095 333.91261,231.54185 336.08341,233.40685 C 337.88301,234.48305 339.54021,235.70785 341.74041,235.53415 C 343.29401,235.41095 345.04541,235.80885 346.44211,235.27225 C 348.11221,233.38005 351.58401,232.65005 352.57791,230.97545 C 352.69501,229.12045 352.66191,227.27665 352.95201,225.47595 C 352.95171,222.72775 352.95241,219.97955 352.95201,217.23145 C 351.90041,216.24135 351.39061,214.68735 350.19311,214.37165 C 349.53181,213.69465 347.89101,213.99525 347.01081,213.49515 C 344.73861,212.54025 341.96801,212.79255 339.34171,212.08375 L 339.34171,212.08375 z"
       id="path2905" />
    <path
       style="fill:none;stroke:#0000ff;stroke-width:4;stroke-linecap:round;stroke-linejoin:round;stroke-miterlimit:4;stroke-dasharray:none;stroke-opacity:1"
       d="M 343.03453,237.76389 C 342.20781,240.16433 343.65637,243.42035 342.81225,244.2733 C 343.25461,248.12529 342.97096,252.06074 343.46369,255.9032 C 344.0916,259.20431 343.43902,262.48532 343.44986,265.58712 C 343.22366,267.09556 343.05998,269.29139 342.8338,270.79973"
       id="path2907"
       inkscape:transform-center-x="-0.6449537"
       inkscape:transform-center-y="-16.89307"
       sodipodi:nodetypes="ccccc" />
    <path
       id="path2909"
       style="fill:none;stroke:#0000ff;stroke-width:4;stroke-linecap:round;stroke-linejoin:round;stroke-miterlimit:4;stroke-dasharray:none;stroke-opacity:1"
       d="M 363.59062,308.7607 C 363.59062,308.7607 362.67214,307.04531 362.27127,305.98558 C 361.28142,303.36883 359.98514,301.55418 359.13147,298.9644 C 357.97465,295.45497 355.95127,292.42316 354.45249,289.14691 C 352.93118,285.82142 350.33148,282.70659 348.38853,279.42957 C 346.69588,276.57472 345.01689,273.15544 342.54293,271.46124 C 341.11825,274.25133 338.40378,279.1924 337.12626,282.22044 C 335.42667,286.2489 333.33162,289.33178 331.29844,293.051 C 329.74524,295.8922 328.07086,298.51198 326.32179,301.57751 C 325.25624,303.44505 325.08643,307.66794 324.21669,308.222 C 323.98083,308.37225 323.45601,310.70315 324.1111,309.57309"
       inkscape:transform-center-x="-0.51044179"
       inkscape:transform-center-y="17.422933"
       sodipodi:nodetypes="csssscsssss" />
    <path
       style="fill:none;stroke:#0000ff;stroke-width:4;stroke-linecap:round;stroke-linejoin:round;stroke-miterlimit:4;stroke-dasharray:none;stroke-opacity:1"
       d="M 327.42913,269.36766 C 329.43543,263.80932 331.25975,259.39497 333.1072,253.85299 C 335.6437,250.78364 338.37411,246.0174 339.86961,242.46051 C 340.87651,241.30071 341.43083,235.54176 343.69643,238.56777 C 345.19383,242.35129 348.16069,244.99215 349.32879,247.5517 C 351.25799,251.78847 352.67619,256.0959 355.43689,259.23871 C 356.91019,261.11926 357.19171,263.17045 358.53051,265.29817 C 359.08831,266.54781 359.52373,267.87697 359.75363,269.27639"
       id="path2911"
       sodipodi:nodetypes="ccccsccc" />
  </g>
</svg>
