<?xml version="1.0" encoding="UTF-8" standalone="no"?>
<!-- Created with Inkscape (http://www.inkscape.org/) -->

<svg
   xmlns:dc="http://purl.org/dc/elements/1.1/"
   xmlns:cc="http://creativecommons.org/ns#"
   xmlns:rdf="http://www.w3.org/1999/02/22-rdf-syntax-ns#"
   xmlns:svg="http://www.w3.org/2000/svg"
   xmlns="http://www.w3.org/2000/svg"
   xmlns:sodipodi="http://sodipodi.sourceforge.net/DTD/sodipodi-0.dtd"
   xmlns:inkscape="http://www.inkscape.org/namespaces/inkscape"
   width="480"
   height="320"
   id="svg2"
   version="1.1"
   inkscape:version="0.48.2 r9819"
   sodipodi:docname="itnas407.svg"
   inkscape:export-xdpi="90"
   inkscape:export-ydpi="90"
   enable-background="new"
   inkscape:export-filename="itnas407.png">
  <defs
     id="defs4">
    <inkscape:perspective
       sodipodi:type="inkscape:persp3d"
       inkscape:vp_x="0 : 160 : 1"
       inkscape:vp_y="0 : 1000 : 0"
       inkscape:vp_z="480 : 160 : 1"
       inkscape:persp3d-origin="240 : 106.66667 : 1"
       id="perspective8" />
    <filter
       inkscape:collect="always"
       id="filter4054">
      <feBlend
         inkscape:collect="always"
         mode="screen"
         in2="BackgroundImage"
         id="feBlend4056" />
    </filter>
  </defs>
  <sodipodi:namedview
     id="base"
     pagecolor="#ffffff"
     bordercolor="#666666"
     borderopacity="1.0"
     inkscape:pageopacity="1"
     inkscape:pageshadow="2"
     inkscape:zoom="1"
     inkscape:cx="157.3634"
     inkscape:cy="151.05839"
     inkscape:document-units="px"
     inkscape:current-layer="layer1"
     showgrid="false"
     inkscape:snap-nodes="true"
     inkscape:snap-global="false"
     inkscape:snap-grids="true"
     showguides="true"
     inkscape:window-width="1235"
     inkscape:window-height="746"
     inkscape:window-x="-8"
     inkscape:window-y="-8"
     inkscape:window-maximized="1"
     inkscape:snap-midpoints="false">
    <inkscape:grid
       empspacing="5"
       visible="true"
       enabled="true"
       snapvisiblegridlinesonly="true"
       type="xygrid"
       id="grid2816" />
  </sodipodi:namedview>
  <metadata
     id="metadata7">
    <rdf:RDF>
      <cc:Work
         rdf:about="">
        <dc:format>image/svg+xml</dc:format>
        <dc:type
           rdf:resource="http://purl.org/dc/dcmitype/StillImage" />
        <dc:title></dc:title>
      </cc:Work>
    </rdf:RDF>
  </metadata>
  <g
     inkscape:groupmode="layer"
     id="layer4"
     inkscape:label="f"
     style="display:inline"
     sodipodi:insensitive="true">
    <path
       style="fill:none;stroke:#000000;stroke-width:6;stroke-linecap:butt;stroke-linejoin:miter;stroke-miterlimit:4;stroke-opacity:1;stroke-dasharray:none;display:inline"
       d="m 410,220 0,84 -10,0 0,-84 z"
       id="path5412"
       inkscape:connector-curvature="0"
       sodipodi:nodetypes="ccccc" />
    <path
       style="color:#000000;fill:none;stroke:#000000;stroke-width:6;stroke-linecap:butt;stroke-linejoin:miter;stroke-miterlimit:4;stroke-opacity:1;stroke-dasharray:none;stroke-dashoffset:0;marker:none;visibility:visible;display:inline;overflow:visible;enable-background:accumulate"
       d="m 180.5,144.5 -11,-16.5 0.5,-75.5 23,-25 49,-11 44.5,7 39,-10.5 41,-1.5 43.5,12.5 58,-0.5 6,-9.5 -6.5,-51"
       id="path3087"
       inkscape:connector-curvature="0"
       sodipodi:nodetypes="cccccccccccc" />
    <path
       sodipodi:nodetypes="ccccssc"
       d="m 346.3615,163.03118 10.17972,12.95552 10.45658,-13.26991 m 108.42381,-28.38586 c -26.56983,4.56717 -46.16209,10.91046 -53.62451,11.33619 -17.42634,0.99418 -27.67037,-1.52867 -42.46774,0.97195 -15.25409,2.5778 -24.49706,7.27242 -22.58834,25.57084"
       style="color:#000000;fill:none;stroke:#addbf8;stroke-width:6;stroke-linecap:butt;stroke-linejoin:miter;stroke-miterlimit:4;stroke-opacity:1;stroke-dasharray:3, 3;stroke-dashoffset:3;marker:none;visibility:visible;display:inline;overflow:visible;enable-background:accumulate"
       id="path4506-9"
       inkscape:connector-curvature="0" />
    <g
       id="g5124"
       style="color:#000000;fill:none;stroke:#000000;stroke-width:0.20787114;stroke-linecap:butt;stroke-linejoin:miter;stroke-miterlimit:4;stroke-opacity:1;stroke-dasharray:0.20787114, 0.41574228;stroke-dashoffset:0.33259382;marker:none;visibility:visible;display:inline;overflow:visible;enable-background:accumulate"
       transform="matrix(9.0197705,0,0,10.263042,-931.0582,-2106.4926)">
      <rect
         y="210"
         x="125"
         height="10"
         width="10"
         id="rect5118"
         style="color:#000000;fill:none;stroke:#000000;stroke-width:0.20787114;stroke-linecap:butt;stroke-linejoin:miter;stroke-miterlimit:4;stroke-opacity:1;stroke-dasharray:0.20787114, 0.41574228;stroke-dashoffset:0.33259382;marker:none;visibility:visible;display:inline;overflow:visible;enable-background:accumulate" />
      <path
         inkscape:connector-curvature="0"
         id="path5120"
         d="m 130,210 0,10"
         style="color:#000000;fill:none;stroke:#000000;stroke-width:0.20787114;stroke-linecap:butt;stroke-linejoin:miter;stroke-miterlimit:4;stroke-opacity:1;stroke-dasharray:0.20787114, 0.41574228;stroke-dashoffset:0.33259382;marker:none;visibility:visible;display:inline;overflow:visible;enable-background:accumulate" />
      <path
         inkscape:connector-curvature="0"
         id="path5122"
         d="m 135,215 -10,0"
         style="color:#000000;fill:none;stroke:#000000;stroke-width:0.20787114;stroke-linecap:butt;stroke-linejoin:miter;stroke-miterlimit:4;stroke-opacity:1;stroke-dasharray:0.20787114, 0.41574228;stroke-dashoffset:0.33259382;marker:none;visibility:visible;display:inline;overflow:visible;enable-background:accumulate" />
    </g>
    <path
       style="color:#000000;fill:none;stroke:#000000;stroke-width:6;stroke-linecap:butt;stroke-linejoin:miter;stroke-miterlimit:4;stroke-opacity:1;stroke-dasharray:3, 3;stroke-dashoffset:0;marker:none;visibility:visible;display:inline;overflow:visible;enable-background:accumulate"
       d="m 975.74358,102.74401 -87,11.81 -133.99198,9.63006 -135.00802,-3.57806 -45.00001,3.756 -98.99999,16.33 -50.7724,11.73083 -37.47666,0 -15.55635,3.18198 -0.35355,33.58757 m -30.05205,0.7071 -0.70711,-34.64823 -50.20458,5.65685 -88.38834,-5.65685 L 190.91883,143.23044 188.0904,81.71216 191.62593,45.64971 242,40.5 l 48,6 1.5,27 5.55291,4.90723 m 116.38739,15.79957 3.04559,-1.18094 54.25768,-33.82186 27,2.3929 22.73429,0.0903 0.9088,-5.41571 1.29181,-28.05811 -0.70061,-21.02618 -3.98419,0 -0.004,-4.00368 -23.73416,0 -6.73376,-64.796037 2.12132,-82.731493"
       id="path5363"
       inkscape:connector-curvature="0"
       sodipodi:nodetypes="cccccccccccccccccccccccccccccccccc" />
    <path
       style="color:#000000;fill:none;stroke:#ffcc00;stroke-width:2;stroke-linecap:butt;stroke-linejoin:miter;stroke-miterlimit:4;stroke-opacity:1;stroke-dasharray:none;stroke-dashoffset:0;marker:none;visibility:visible;display:inline;overflow:visible;enable-background:accumulate"
       d="m 364,215 c 1.70026,10.78889 -1.88732,16.99168 3.00146,16.53136 C 369.04459,231.33898 372.84201,224.96472 370,215"
       id="path4029"
       inkscape:connector-curvature="0" />
    <path
       style="color:#000000;fill:none;stroke:#ffcc00;stroke-width:2;stroke-linecap:butt;stroke-linejoin:miter;stroke-miterlimit:4;stroke-opacity:1;stroke-dasharray:none;stroke-dashoffset:0;marker:none;visibility:visible;display:inline;overflow:visible;enable-background:accumulate"
       d="m 360,215 c 1.22634,5.30068 2.03131,16.25456 -1.17438,16.34503 C 356.00212,231.42472 355.5,222.70657 354,215"
       id="path4027"
       inkscape:connector-curvature="0" />
    <path
       style="color:#000000;fill:none;stroke:#ffcc00;stroke-width:2;stroke-linecap:butt;stroke-linejoin:miter;stroke-miterlimit:4;stroke-opacity:1;stroke-dasharray:none;stroke-dashoffset:0;marker:none;visibility:visible;display:inline;overflow:visible;enable-background:accumulate"
       d="m 344,215 c -0.41421,6.7019 1.18812,15.6794 5.8396,15.92877 4.02719,0.2159 1.07134,-6.21991 0.1604,-15.92877"
       id="path4025"
       inkscape:connector-curvature="0" />
    <path
       style="color:#000000;fill:none;stroke:#ffcc00;stroke-width:2;stroke-linecap:butt;stroke-linejoin:miter;stroke-miterlimit:4;stroke-opacity:1;stroke-dasharray:none;stroke-dashoffset:0;marker:none;visibility:visible;display:inline;overflow:visible;enable-background:accumulate"
       d="m 340,215 c -0.11818,8.12366 0.81049,12.84923 3.89905,16.49004 4.13753,4.87735 10.95656,1.72117 13.10095,13.25996 1.41573,7.61792 1.91868,21.66809 2.82822,36.20664 0.24022,3.83976 0.70339,14.64574 -0.42323,15.23162 -4.44844,2.31334 -3.10178,10.03463 2.57763,9.76101 5.46769,0.57214 6.4262,-6.97013 3.8857,-8.75513 -1.36615,-0.95989 0.14428,-11.01994 0.0944,-14.19551 -0.28466,-18.10163 -2.34729,-26.98745 -1.21247,-39.24863 0.86146,-9.30768 5.82121,-8.18824 7.86413,-12.47263 2.04874,-4.29678 2.8856,-9.6822 1.38563,-16.27737"
       id="path4023"
       inkscape:connector-curvature="0"
       sodipodi:nodetypes="csssscscscc" />
    <rect
       style="color:#000000;fill:none;stroke:#b344ac;stroke-width:4;stroke-linecap:butt;stroke-linejoin:miter;stroke-miterlimit:4;stroke-opacity:1;stroke-dasharray:none;stroke-dashoffset:0;marker:none;visibility:visible;display:inline;overflow:visible;enable-background:accumulate"
       id="rect3458"
       width="315"
       height="70"
       x="170"
       y="145" />
    <path
       sodipodi:nodetypes="ccccccc"
       inkscape:connector-curvature="0"
       id="path3035"
       d="M 297.05291,78.40723 313,92.5 l 7.31937,23.15328 22.62742,12.02083 23.33452,-2.12132 15.55635,-19.09189 31.60264,-12.2541"
       style="color:#000000;fill:none;stroke:#aa0000;stroke-width:6;stroke-linecap:butt;stroke-linejoin:miter;stroke-miterlimit:4;stroke-opacity:1;stroke-dasharray:3, 3;stroke-dashoffset:0;marker:none;visibility:visible;display:inline;overflow:visible;enable-background:accumulate" />
    <path
       sodipodi:type="arc"
       style="color:#000000;fill:none;stroke:#ffcc00;stroke-width:2;stroke-linecap:butt;stroke-linejoin:miter;stroke-miterlimit:4;stroke-opacity:1;stroke-dasharray:none;stroke-dashoffset:0;marker:none;visibility:visible;display:inline;overflow:visible;filter:url(#filter4054);enable-background:accumulate"
       id="path3998"
       sodipodi:cx="362.5"
       sodipodi:cy="299.5"
       sodipodi:rx="5"
       sodipodi:ry="5"
       d="m 367.5,299.5 a 5,5 0 1 1 -10,0 5,5 0 1 1 10,0 z"
       transform="matrix(0.5,0,0,0.5,180.85545,150.9286)" />
    <path
       sodipodi:nodetypes="ccccc"
       inkscape:connector-curvature="0"
       id="path5414"
       d="m 190,220.00001 0,84 -10,0 0,-84 z"
       style="fill:none;stroke:#000000;stroke-width:6;stroke-linecap:butt;stroke-linejoin:miter;stroke-miterlimit:4;stroke-opacity:1;stroke-dasharray:none;display:inline" />
    <rect
       style="color:#000000;fill:none;stroke:#000000;stroke-width:4;stroke-linecap:butt;stroke-linejoin:miter;stroke-miterlimit:4;stroke-opacity:1;stroke-dasharray:none;stroke-dashoffset:0;marker:none;visibility:visible;display:inline;overflow:visible;enable-background:accumulate"
       id="rect4069"
       width="95"
       height="20"
       x="300"
       y="30"
       ry="10" />
    <rect
       ry="10"
       y="70"
       x="300"
       height="20"
       width="95"
       id="rect4071"
       style="color:#000000;fill:none;stroke:#000000;stroke-width:4;stroke-linecap:butt;stroke-linejoin:miter;stroke-miterlimit:4;stroke-opacity:1;stroke-dasharray:none;stroke-dashoffset:0;marker:none;visibility:visible;display:inline;overflow:visible;enable-background:accumulate" />
    <rect
       style="color:#000000;fill:none;stroke:#000000;stroke-width:4;stroke-linecap:butt;stroke-linejoin:miter;stroke-miterlimit:4;stroke-opacity:1;stroke-dasharray:none;stroke-dashoffset:0;marker:none;visibility:visible;display:inline;overflow:visible;enable-background:accumulate"
       id="rect4073"
       width="95"
       height="20"
       x="300"
       y="110"
       ry="10" />
  </g>
  <g
     inkscape:label="Layer 1"
     inkscape:groupmode="layer"
     id="layer1"
     style="display:inline">
    <path
       style="color:#000000;fill:none;stroke:#006680;stroke-width:2;stroke-linecap:butt;stroke-linejoin:miter;stroke-miterlimit:4;stroke-opacity:1;stroke-dasharray:4, 2;stroke-dashoffset:0;marker:none;visibility:visible;display:inline;overflow:visible;enable-background:accumulate"
       d="m 137.75,216.25 c 2.07436,-4.22008 6.07282,-9.99984 10.26005,-14.66385 5.3033,-5.90715 10.24664,-3.86274 11.12318,-7.43378 1.24491,-5.07182 5.11399,-17.15473 7.86651,-17.15273 C 167.32179,176.99983 168,177 168,177"
       id="path4389"
       inkscape:connector-curvature="0"
       sodipodi:nodetypes="csssc" />
    <g
       style="display:inline"
       id="g5142"
       transform="matrix(2.4999993,0,0,2.0000012,-834.99971,-154.00029)">
      <rect
         y="200"
         x="360"
         height="20"
         width="20"
         id="rect5063"
         style="color:#000000;fill:none;stroke:#59bbbc;stroke-width:0.89442706;stroke-linecap:butt;stroke-linejoin:bevel;stroke-miterlimit:4;stroke-opacity:1;stroke-dasharray:none;stroke-dashoffset:0;marker:none;visibility:visible;display:inline;overflow:visible;enable-background:accumulate" />
      <path
         inkscape:connector-curvature="0"
         id="path5065-9"
         d="m 370.49997,190.00003 -20.49999,19.99999 19.99999,20 20,-20 -19.5,-19.99999 z"
         style="fill:none;stroke:#59bbbc;stroke-width:0.89442706;stroke-linecap:butt;stroke-linejoin:bevel;stroke-miterlimit:4;stroke-opacity:1;stroke-dasharray:none;display:inline" />
      <rect
         y="190"
         x="350"
         height="40"
         width="40"
         id="rect5089"
         style="color:#000000;fill:none;stroke:#59bbbc;stroke-width:0.89442706;stroke-linecap:butt;stroke-linejoin:miter;stroke-miterlimit:4;stroke-opacity:1;stroke-dasharray:none;stroke-dashoffset:0;marker:none;visibility:visible;display:inline;overflow:visible;enable-background:accumulate" />
    </g>
    <path
       style="color:#000000;fill:none;stroke:#006680;stroke-width:2;stroke-linecap:butt;stroke-linejoin:bevel;stroke-miterlimit:4;stroke-opacity:1;stroke-dasharray:none;stroke-dashoffset:0;marker:none;visibility:visible;display:inline;overflow:visible;enable-background:accumulate"
       d="m 370,132 c 0,10 1.98378,38.35247 -2.16117,78.37437 -6.58491,63.58103 -12.64356,84.29724 -26.29231,90.65587 -3.99593,1.86162 -5.87117,2.5323 -36.96631,2.96472 -5.14925,0.0716 -7.08021,0.65271 -7.08021,-1.25966 0,-1.65186 3.71635,-0.94838 8.1065,-0.96464 11.67633,-0.0432 32.56515,2.04565 41.72468,2.04565 1.78945,0 3.23326,-0.23864 3.22948,1.51212 -0.003,1.61398 -10.26647,0.68664 -29.19552,0.68664 -24.15669,0 -59.10462,1.34148 -78.4015,-1.82314 -7.95627,-1.3048 -35.35374,-2.64793 -35.28686,-0.80544 C 207.85104,308.18788 239.321,301.3806 239,305 c -0.21639,2.43988 -71.831,-0.3931 -116.00485,1.00041 -8.8551,0.27933 -12.33044,-7.55121 -19.42409,-7.29872 -8.93688,0.3181 -5.779291,0.37081 -12.208056,0.0535 C 86.290326,298.50481 84.922096,297.16637 85,300.75"
       id="path4077"
       inkscape:connector-curvature="0"
       sodipodi:nodetypes="sssssssssssssssc" />
    <path
       style="color:#000000;fill:#ffffff;stroke:#d35f5f;stroke-width:2;stroke-linecap:butt;stroke-linejoin:miter;stroke-miterlimit:4;stroke-opacity:1;stroke-dashoffset:0;marker:none;visibility:visible;display:inline;overflow:visible;enable-background:accumulate"
       d="m 65,301 40,0 0,5 -40,0 z"
       id="rect4094"
       inkscape:connector-curvature="0"
       sodipodi:nodetypes="ccccc" />
    <path
       style="color:#000000;fill:none;stroke:#006680;stroke-width:2;stroke-linecap:butt;stroke-linejoin:bevel;stroke-miterlimit:4;stroke-opacity:1;stroke-dasharray:none;stroke-dashoffset:0;marker:none;visibility:visible;display:inline;overflow:visible;enable-background:accumulate"
       d="m 10.5,239 c 12.855839,3.07626 13.444277,12.61102 21,12.75"
       id="path4127"
       inkscape:connector-curvature="0"
       sodipodi:nodetypes="cc" />
    <path
       style="color:#000000;fill:none;stroke:#006680;stroke-width:2;stroke-linecap:butt;stroke-linejoin:bevel;stroke-miterlimit:4;stroke-opacity:1;stroke-dasharray:none;stroke-dashoffset:0;marker:none;visibility:visible;display:inline;overflow:visible;enable-background:accumulate"
       d="m 12,245 c 3.185592,3.43585 3.813281,9.80338 9.064523,12.86039 4.801569,2.79524 3.74573,10.19129 0.185477,11.13961"
       id="path4135"
       inkscape:connector-curvature="0"
       sodipodi:nodetypes="csc" />
    <path
       sodipodi:nodetypes="sssss"
       inkscape:connector-curvature="0"
       id="path4161"
       d="m 129.90062,175.18598 c -5.03962,-1.43592 -15.64925,-4.59922 -23.03713,-5.23382 -8.172457,-0.70202 -16.815192,-2.30316 -17.371596,1.48644 -0.971499,6.61649 10.508446,3.5804 16.497416,3.55945 14.36065,-0.0502 14.04846,-7.99999 26.93829,-5.71024"
       style="color:#000000;fill:none;stroke:#6600ff;stroke-width:2;stroke-linecap:butt;stroke-linejoin:bevel;stroke-miterlimit:4;stroke-opacity:1;stroke-dasharray:none;stroke-dashoffset:0;marker:none;visibility:visible;display:inline;overflow:visible;enable-background:accumulate" />
    <path
       sodipodi:nodetypes="csssssssc"
       inkscape:connector-curvature="0"
       id="path4423"
       d="m 130.31379,184.50588 c -7.84079,0.0768 -22.57085,3.63217 -30.73182,2.49872 -8.77508,-1.21914 -10.827532,3.13521 -4.311696,2.44274 15.363406,-1.63274 23.070896,-1.89563 29.771166,-1.66853 9.11538,0.30895 12.93807,1.24713 0.19037,3.42783 -26.07767,4.46101 -42.514523,0.50166 -28.486799,0.60196 45.017159,0.32193 41.004739,-6.00202 30.136739,-5.59072 -54.998497,2.08146 -30.16671,9.56447 -24.63297,8.56606 7.32225,-1.32109 17.36979,-3.87113 27.05632,-0.24242"
       style="color:#000000;fill:none;stroke:#b344ac;stroke-width:1.99999976;stroke-linecap:butt;stroke-linejoin:round;stroke-miterlimit:4;stroke-opacity:1;stroke-dasharray:none;stroke-dashoffset:0;marker:none;visibility:visible;display:inline;overflow:visible;enable-background:accumulate" />
    <g
       style="display:inline"
       id="g4662"
       transform="matrix(-0.02785477,-0.99961199,-0.99961199,0.02785477,1355.797,675.7623)">
      <path
         sodipodi:open="true"
         sodipodi:end="7.8539816"
         sodipodi:start="4.712389"
         d="m 5.0000001,620 a 5,5 0 0 1 10e-8,10"
         sodipodi:ry="5"
         sodipodi:rx="5"
         sodipodi:cy="625"
         sodipodi:cx="5"
         id="path4545"
         style="color:#000000;fill:none;stroke:#00ff00;stroke-width:1;stroke-linecap:butt;stroke-linejoin:miter;stroke-miterlimit:4;stroke-opacity:1;stroke-dasharray:none;stroke-dashoffset:0;marker:none;visibility:visible;display:inline;overflow:visible;enable-background:accumulate"
         sodipodi:type="arc"
         transform="matrix(0,2,-2,0,1780,1200)" />
      <path
         transform="matrix(0,2,-2,0,1780,1220)"
         sodipodi:type="arc"
         style="color:#000000;fill:none;stroke:#00ff00;stroke-width:1;stroke-linecap:butt;stroke-linejoin:miter;stroke-miterlimit:4;stroke-opacity:1;stroke-dasharray:none;stroke-dashoffset:0;marker:none;visibility:visible;display:inline;overflow:visible;enable-background:accumulate"
         id="path4547"
         sodipodi:cx="5"
         sodipodi:cy="625"
         sodipodi:rx="5"
         sodipodi:ry="5"
         d="m 10,625 a 5,5 0 1 1 -10,0 5,5 0 1 1 10,0 z" />
      <path
         sodipodi:open="true"
         sodipodi:end="4.712389"
         sodipodi:start="1.5707963"
         d="m 5.0000001,630 a 5,5 0 1 1 0,-10"
         sodipodi:ry="5"
         sodipodi:rx="5"
         sodipodi:cy="625"
         sodipodi:cx="5"
         id="path4549"
         style="color:#000000;fill:none;stroke:#00ff00;stroke-width:1;stroke-linecap:butt;stroke-linejoin:miter;stroke-miterlimit:4;stroke-opacity:1;stroke-dasharray:none;stroke-dashoffset:0;marker:none;visibility:visible;display:inline;overflow:visible;enable-background:accumulate"
         sodipodi:type="arc"
         transform="matrix(0,2,-2,0,1780,1240)" />
    </g>
    <path
       sodipodi:nodetypes="cssssssc"
       inkscape:connector-curvature="0"
       id="path8173"
       d="m 131.2574,176.15369 c -14.73252,2.60031 -23.6207,-0.42103 -35.314348,0.71451 -11.417662,1.10868 -0.172987,-1.0756 12.442298,-2.21629 4.81063,-0.43501 15.16935,1.56802 19.97906,0.71072 3.42464,-0.61048 4.49907,-1.10976 -0.12327,-1.18708 -14.45694,-0.24189 -10.82451,1.33948 -20.11387,1.89877 -11.379368,0.68487 -16.19276,0.32996 -15.483408,-1.22968 0.720889,-1.58498 27.594958,-1.70329 38.899728,-2.26357"
       style="color:#000000;fill:none;stroke:#808080;stroke-width:2;stroke-linecap:butt;stroke-linejoin:miter;stroke-miterlimit:4;stroke-opacity:1;stroke-dasharray:none;stroke-dashoffset:0;marker:none;visibility:visible;display:inline;overflow:visible;enable-background:accumulate" />
    <path
       sodipodi:nodetypes="ccccc"
       id="path10281-7"
       d="m 128.4947,178.11852 19.76915,3.02995 -18.25419,-12.91447 19.76916,3.02993 -21.28412,6.85459 z"
       style="color:#000000;fill:none;stroke:#b344ac;stroke-width:2;stroke-linecap:butt;stroke-linejoin:bevel;stroke-miterlimit:4;stroke-opacity:1;stroke-dasharray:none;stroke-dashoffset:0;marker:none;visibility:visible;display:inline;overflow:visible;enable-background:accumulate"
       inkscape:connector-curvature="0" />
    <g
       transform="matrix(-0.2394952,0.97089755,-0.97089755,-0.2394952,305.02172,62.139187)"
       style="color:#000000;fill:none;stroke:#000000;stroke-width:2;stroke-linecap:butt;stroke-linejoin:bevel;stroke-miterlimit:4;stroke-opacity:1;stroke-dasharray:none;stroke-dashoffset:0;marker:none;visibility:visible;display:inline;overflow:visible;enable-background:accumulate"
       id="g3151">
      <rect
         style="color:#000000;fill:none;stroke:#000000;stroke-width:2;stroke-linecap:butt;stroke-linejoin:bevel;stroke-miterlimit:4;stroke-opacity:1;stroke-dasharray:none;stroke-dashoffset:0;marker:none;visibility:visible;display:inline;overflow:visible;enable-background:accumulate"
         id="rect3126"
         width="10"
         height="20"
         x="150"
         y="120" />
      <rect
         style="color:#000000;fill:none;stroke:#000000;stroke-width:2;stroke-linecap:butt;stroke-linejoin:bevel;stroke-miterlimit:4;stroke-opacity:1;stroke-dasharray:none;stroke-dashoffset:0;marker:none;visibility:visible;display:inline;overflow:visible;enable-background:accumulate"
         id="rect3128"
         width="20"
         height="20"
         x="145"
         y="120"
         ry="5" />
    </g>
    <g
       style="display:inline"
       id="g4159"
       transform="matrix(0.99849593,-0.05482682,-0.05482682,-0.99849593,-154.96198,388.45809)">
      <path
         style="color:#000000;fill:none;stroke:#ff0101;stroke-width:2;stroke-linecap:butt;stroke-linejoin:miter;stroke-miterlimit:4;stroke-opacity:1;stroke-dasharray:none;stroke-dashoffset:0;marker:none;visibility:visible;display:inline;overflow:visible;enable-background:accumulate"
         d="m 318.49316,195.55616 -60.45101,-9.2238"
         id="path5387"
         inkscape:connector-curvature="0" />
      <path
         id="path4679-3"
         d="m 304.41897,188.35079 14.07419,7.20537 -15.58257,2.68021"
         style="color:#000000;fill:none;stroke:#ff0101;stroke-width:2;stroke-linecap:butt;stroke-linejoin:miter;stroke-miterlimit:4;stroke-opacity:1;stroke-dasharray:none;stroke-dashoffset:0;marker:none;visibility:visible;display:inline;overflow:visible;enable-background:accumulate"
         inkscape:connector-curvature="0" />
    </g>
    <path
       sodipodi:nodetypes="ccccc"
       id="path10281-17"
       d="m 130.48101,190.17118 5.49064,-8.35782 -9.66954,5.61249 5.49064,-8.35781 -1.31174,11.10314 z"
       style="color:#000000;fill:none;stroke:#b344ac;stroke-width:2;stroke-linecap:butt;stroke-linejoin:bevel;stroke-miterlimit:4;stroke-opacity:1;stroke-dasharray:none;stroke-dashoffset:0;marker:none;visibility:visible;display:inline;overflow:visible;enable-background:accumulate"
       inkscape:connector-curvature="0" />
    <g
       transform="matrix(0,1,-1,0,285,55)"
       style="display:inline"
       id="g6785">
      <rect
         transform="matrix(0,-1,1,0,0,0)"
         y="175"
         x="-150"
         height="30"
         width="10"
         id="rect5968"
         style="color:#000000;fill:#ffffff;stroke:#006680;stroke-width:2;stroke-linecap:butt;stroke-linejoin:miter;stroke-miterlimit:4;stroke-opacity:1;stroke-dasharray:none;stroke-dashoffset:0;marker:none;visibility:visible;display:inline;overflow:visible;enable-background:accumulate" />
      <path
         sodipodi:nodetypes="cccccccc"
         inkscape:connector-curvature="0"
         d="m 175,150 10,-10 10,10 10,-10 m 0,10 -10,-10 -10,10 -10,-10"
         style="color:#000000;fill:none;stroke:#006680;stroke-width:2;stroke-linecap:butt;stroke-linejoin:bevel;stroke-miterlimit:4;stroke-opacity:1;stroke-dasharray:none;stroke-dashoffset:0;marker:none;visibility:visible;display:inline;overflow:visible;enable-background:accumulate"
         id="path5990" />
    </g>
    <path
       style="color:#000000;fill:none;stroke:#006680;stroke-width:2;stroke-linecap:butt;stroke-linejoin:miter;stroke-miterlimit:4;stroke-opacity:1;stroke-dasharray:1, 1;stroke-dashoffset:0;marker:none;visibility:visible;display:inline;overflow:visible;enable-background:accumulate"
       d="m 138,210 0,12"
       id="path4393"
       inkscape:connector-curvature="0"
       sodipodi:nodetypes="cc" />
    <path
       style="color:#000000;fill:none;stroke:#006680;stroke-width:2;stroke-linecap:butt;stroke-linejoin:miter;stroke-miterlimit:4;stroke-opacity:1;stroke-dasharray:1, 1;stroke-dashoffset:0;marker:none;visibility:visible;display:inline;overflow:visible;enable-background:accumulate"
       d="m 132,216 12,0"
       id="path4395"
       inkscape:connector-curvature="0"
       sodipodi:nodetypes="cc" />
    <path
       sodipodi:nodetypes="csssc"
       inkscape:connector-curvature="0"
       id="path3873"
       d="m 168,183 c 0,0 -0.67821,-3.7e-4 -1.00026,-3.6e-4 -9.99974,3.6e-4 -9.84563,5.13984 -11.4575,10.10723 -2.42357,7.46883 -4.42414,10.16884 -6.81236,12.73093 -3.61857,3.882 -5.5786,6.13897 -10.97988,10.4122"
       style="color:#000000;fill:none;stroke:#006680;stroke-width:2;stroke-linecap:butt;stroke-linejoin:miter;stroke-miterlimit:4;stroke-opacity:1;stroke-dasharray:4, 2;stroke-dashoffset:0;marker:none;visibility:visible;display:inline;overflow:visible;enable-background:accumulate" />
    <g
       transform="matrix(-0.142248,-0.98983106,-0.98983106,0.142248,310.04683,415.03761)"
       id="g2902">
      <g
         transform="matrix(-0.38712809,-0.92202594,0.92202594,-0.38712809,241.45892,321.52966)"
         id="g2937">
        <path
           sodipodi:nodetypes="cccc"
           d="m 208.30239,56.809745 c 0,0 -14.55766,-39.164966 -14.55766,-39.164966 l -12.23664,39.211847 c 0,0 26.7943,-0.04688 26.7943,-0.04688 z"
           style="fill:#ffffff;stroke:none"
           id="path4055"
           inkscape:connector-curvature="0" />
        <path
           inkscape:connector-curvature="0"
           style="color:#000000;fill:none;stroke:#0000ff;stroke-width:4;stroke-linecap:butt;stroke-linejoin:bevel;stroke-miterlimit:4;stroke-opacity:1;stroke-dasharray:none;stroke-dashoffset:0;marker:none;visibility:visible;display:inline;overflow:visible;enable-background:accumulate"
           d="m 206.19224,50.959145 -22.97456,0.002"
           id="path3028-1-1" />
        <path
           inkscape:connector-curvature="0"
           style="color:#000000;fill:none;stroke:#0000ff;stroke-width:3.99999976;stroke-linecap:butt;stroke-linejoin:bevel;stroke-miterlimit:4;stroke-opacity:1;stroke-dasharray:none;stroke-dashoffset:0;marker:none;visibility:visible;display:inline;overflow:visible;enable-background:accumulate"
           d="m 199.99646,42.691859 -11.26117,0.06514"
           id="rect10452-0-7-5-7" />
        <path
           inkscape:connector-curvature="0"
           id="path10399-9-40"
           style="fill:none;stroke:#00ff00;stroke-width:2;stroke-linecap:butt;stroke-linejoin:miter;stroke-miterlimit:4;stroke-opacity:1;stroke-dasharray:none"
           d="m 208.30239,56.809745 c 0,0 -14.55766,-39.164966 -14.55766,-39.164966 l -12.23664,39.211847 c 0,0 26.7943,-0.04688 26.7943,-0.04688 z"
           sodipodi:nodetypes="cccc" />
      </g>
      <path
         inkscape:connector-curvature="0"
         sodipodi:nodetypes="cssssss"
         id="path2826-1-9"
         d="m 218.89534,119.60819 c 6.27155,-2.42689 14.14585,0.8745 17.77425,6.69346 9.71163,15.57477 14.54991,46.12827 12.53178,62.99758 -1.42734,11.93095 -18.76134,23.55181 -48.01795,18.58014 -19.60044,-3.33077 -40.5453,-13.49217 -42.65088,-24.02234 -2.1996,-11.00037 10.1243,-15.34635 14.74536,-3.47549 2.81693,7.23631 2.80766,17.01394 -8.83193,22.63312"
         style="fill:none;stroke:#00ff00;stroke-width:4;stroke-linecap:butt;stroke-linejoin:miter;stroke-miterlimit:4;stroke-opacity:1;stroke-dasharray:none;marker-start:none;marker-mid:none;marker-end:none" />
      <path
         style="fill:none;stroke:#00ff00;stroke-width:2px;stroke-linecap:butt;stroke-linejoin:miter;stroke-opacity:1"
         d="m 217.29214,165.52834 3.28497,3.81087 0.73535,27.87253 21.67779,-8.98215 5.38224,0.0331"
         id="path3914" />
      <path
         inkscape:connector-curvature="0"
         sodipodi:nodetypes="cccc"
         d="m 231.77829,188.14157 -11.63387,-0.0913 -3.3078,-25.69777 -3.54154,-2.23657"
         style="fill:none;stroke:#ffffff;stroke-width:4;stroke-linecap:butt;stroke-linejoin:miter;stroke-miterlimit:4;stroke-opacity:1;stroke-dasharray:none;display:inline"
         id="path10436-7-4-7" />
      <path
         style="fill:none;stroke:#00ff00;stroke-width:2px;stroke-linecap:butt;stroke-linejoin:miter;stroke-opacity:1"
         d="m 248.37249,188.26269 -5.29236,-0.15835 -22.93571,-0.0541 -3.3078,-25.69777 -3.54154,-2.23657"
         id="path10436-7-4" />
      <path
         id="path3916"
         style="fill:none;stroke:#ffffff;stroke-width:4;stroke-linecap:butt;stroke-linejoin:miter;stroke-miterlimit:4;stroke-opacity:1;stroke-dasharray:none"
         d="m 226.24625,128.2021 -8.19323,-2.82748 m -22.92879,6.06811 -6.1334,4.36049 0.11426,1.61417"
         sodipodi:nodetypes="ccccc"
         inkscape:connector-curvature="0" />
      <path
         inkscape:connector-curvature="0"
         sodipodi:nodetypes="cccccccccc"
         d="m 209.17774,139.6976 3.87804,-0.71764 0.78521,4.88209 18.04589,9.13736 0.037,-22.74994 5.24281,-3.47223 -5.29145,3.36743 -23.5121,-8.11403 -19.37231,13.77258 0.23827,3.36619"
         style="fill:none;stroke:#00ff00;stroke-width:2px;stroke-linecap:butt;stroke-linejoin:miter;stroke-opacity:1"
         id="path10402-6-4-8" />
    </g>
    <path
       sodipodi:nodetypes="cssssscsssc"
       inkscape:connector-curvature="0"
       id="path5016"
       d="m 149.77182,170.79507 c -27.40102,-1.63249 -55.835041,-4.26299 -54.734709,-1.08357 3.823905,11.0492 0.02762,15.70112 7.004009,21.75027 9.04725,7.8449 0.51128,-22.34333 9.58699,-22.69613 7.9038,-0.30731 3.81627,25.69171 9.26246,24.38062 9.3189,-2.2434 5.57552,-10.87469 9.91536,-21.06706 1.76481,-4.14475 6.49691,-3.10584 7.16674,0.0123 0.78479,3.65331 0.71353,9.50685 0.87269,14.40427 0.16532,5.08693 0.57921,9.14232 2.45928,8.62904 7.99187,-2.18189 3.28118,-10.36872 4.64397,-19.86171 0.45596,-3.17627 3.12689,-6.52784 -1.20362,-6.77597"
       style="color:#000000;fill:none;stroke:#b344ac;stroke-width:1.99999988;stroke-linecap:butt;stroke-linejoin:round;stroke-miterlimit:4;stroke-opacity:1;stroke-dasharray:none;stroke-dashoffset:0;marker:none;visibility:visible;display:inline;overflow:visible;enable-background:accumulate" />
    <path
       inkscape:connector-curvature="0"
       sodipodi:nodetypes="czzzc"
       id="path3030-6-8"
       d="m 104.4554,186.45975 c -2.60059,4.26564 -6.946472,8.63981 -8.596829,13.12144 -1.65035,4.48162 0.187891,9.09152 4.345489,8.88565 4.1576,-0.20587 5.76156,-4.73011 4.18024,-9.25904 -1.58131,-4.52891 -6.726379,-7.81583 -10.489202,-11.60969"
       style="fill:none;stroke:#0000ff;stroke-width:4;stroke-linecap:butt;stroke-linejoin:miter;stroke-miterlimit:4;stroke-opacity:1;stroke-dasharray:none;display:inline" />
    <g
       style="display:inline"
       transform="matrix(0.0071455,0.79996809,-0.79996809,0.0071455,204.80213,41.948407)"
       id="g2942">
      <path
         inkscape:connector-curvature="0"
         style="fill:none;stroke:#0000ff;stroke-width:5;stroke-linecap:butt;stroke-linejoin:miter;stroke-miterlimit:4;stroke-opacity:1;stroke-dasharray:none"
         d="m 206.66319,105.19515 c -7.91409,4.26712 -8.11323,10.1635 -0.17602,15.48704"
         id="rect10452-1-7-4-2-2"
         sodipodi:nodetypes="cc" />
      <path
         inkscape:connector-curvature="0"
         style="fill:none;stroke:#0000ff;stroke-width:5;stroke-linecap:butt;stroke-linejoin:miter;stroke-miterlimit:4;stroke-opacity:1;stroke-dasharray:none"
         d="m 179.489,105.38873 c 8.38416,3.32675 8.29912,11.94162 0.0734,15.23703"
         id="rect10452-1-4-4-0-7-4"
         sodipodi:nodetypes="cc" />
      <path
         inkscape:connector-curvature="0"
         style="fill:none;stroke:#0000ff;stroke-width:5;stroke-linecap:butt;stroke-linejoin:bevel;stroke-miterlimit:4;stroke-opacity:1;stroke-dasharray:none"
         d="m 193.13509,122.31481 0.17678,-18.66053"
         id="rect10452-0-7-4-1-5" />
    </g>
  </g>
  <g
     inkscape:groupmode="layer"
     id="layer3"
     inkscape:label="c"
     style="display:inline"
     sodipodi:insensitive="true">
    <path
       style="color:#000000;fill:none;stroke:#000000;stroke-width:6;stroke-linecap:butt;stroke-linejoin:miter;stroke-miterlimit:4;stroke-opacity:1;stroke-dasharray:none;stroke-dashoffset:0;marker:none;visibility:visible;display:inline;overflow:visible;enable-background:accumulate"
       d="M 10,-20.000005 10,120"
       id="path4059"
       inkscape:connector-curvature="0" />
    <path
       style="color:#000000;fill:none;stroke:#d35f5f;stroke-width:6;stroke-linecap:butt;stroke-linejoin:miter;stroke-miterlimit:4;stroke-opacity:1;stroke-dasharray:none;stroke-dashoffset:0;marker:none;visibility:visible;display:inline;overflow:visible;enable-background:accumulate"
       d="m 10,120 0,190 175,0 315,0"
       id="path7571"
       inkscape:connector-curvature="0" />
    <g
       id="g3638"
       transform="translate(-396,-597.36218)">
      <path
         inkscape:connector-curvature="0"
         d="m 420,822.36218 -30,30 m 0,-30 30,30"
         style="fill:none;stroke:#ff0000;stroke-width:2;stroke-linecap:butt;stroke-linejoin:miter;stroke-miterlimit:4;stroke-opacity:1;stroke-dasharray:none"
         id="path3633" />
      <path
         transform="translate(0,732.36218)"
         d="m 420,105 a 15,15 0 1 1 -30,0 15,15 0 1 1 30,0 z"
         sodipodi:ry="15"
         sodipodi:rx="15"
         sodipodi:cy="105"
         sodipodi:cx="405"
         id="path3636"
         style="color:#000000;fill:none;stroke:#ff0000;stroke-width:2;stroke-linecap:butt;stroke-linejoin:miter;stroke-miterlimit:4;stroke-opacity:1;stroke-dasharray:none;stroke-dashoffset:0;marker:none;visibility:visible;display:inline;overflow:visible;enable-background:accumulate"
         sodipodi:type="arc" />
    </g>
  </g>
  <g
     inkscape:groupmode="layer"
     id="layer2"
     inkscape:label="s"
     style="display:none"
     sodipodi:insensitive="true">
    <g
       style="stroke:#008000;stroke-width:1;display:inline"
       transform="matrix(0.16808147,-0.98577309,-0.98577309,-0.16808147,410.51518,1135.6308)"
       id="g5081">
      <path
         inkscape:connector-curvature="0"
         id="path5054"
         d="m 789.15106,438.53894 25.35776,41.08813"
         style="fill:none;stroke:#008000;stroke-width:1px;stroke-linecap:butt;stroke-linejoin:miter;stroke-opacity:1" />
      <path
         inkscape:connector-curvature="0"
         id="path5052"
         d="m 805.16439,416.91097 -30.39632,21.92177"
         style="fill:none;stroke:#008000;stroke-width:1px;stroke-linecap:butt;stroke-linejoin:miter;stroke-opacity:1" />
      <path
         inkscape:connector-curvature="0"
         id="path5049"
         d="m 871.91467,476.31346 -57.07691,3.39704"
         style="fill:none;stroke:#008000;stroke-width:1px;stroke-linecap:butt;stroke-linejoin:miter;stroke-opacity:1" />
      <path
         inkscape:connector-curvature="0"
         id="path5047"
         d="M 879.5,414.125 873,475.75"
         style="fill:none;stroke:#008000;stroke-width:1px;stroke-linecap:butt;stroke-linejoin:miter;stroke-opacity:1" />
      <path
         inkscape:connector-curvature="0"
         id="path5043"
         d="m 864.26906,401.8055 15.31251,11.3349"
         style="fill:none;stroke:#008000;stroke-width:1px;stroke-linecap:butt;stroke-linejoin:miter;stroke-opacity:1" />
      <path
         inkscape:connector-curvature="0"
         id="path5079"
         d="M 868.64948,438.37019 851.78111,419.49008"
         style="fill:none;stroke:#008000;stroke-width:1px;stroke-linecap:butt;stroke-linejoin:miter;stroke-opacity:1" />
      <path
         inkscape:connector-curvature="0"
         id="path5077"
         d="m 874.51692,414.35917 -5.61164,23.3401"
         style="fill:none;stroke:#008000;stroke-width:1px;stroke-linecap:butt;stroke-linejoin:miter;stroke-opacity:1" />
      <path
         inkscape:connector-curvature="0"
         id="path5075"
         d="m 890.50147,409.54219 -14.9129,5.18223"
         style="fill:none;stroke:#008000;stroke-width:1px;stroke-linecap:butt;stroke-linejoin:miter;stroke-opacity:1" />
      <path
         inkscape:connector-curvature="0"
         id="path5073"
         d="m 854.49856,399.95978 18.95775,13.85114"
         style="fill:none;stroke:#008000;stroke-width:1px;stroke-linecap:butt;stroke-linejoin:miter;stroke-opacity:1" />
      <path
         inkscape:connector-curvature="0"
         id="path5071"
         d="m 853.56345,400.93459 -24.95609,8.34828"
         style="fill:none;stroke:#008000;stroke-width:1px;stroke-linecap:butt;stroke-linejoin:miter;stroke-opacity:1" />
      <path
         inkscape:connector-curvature="0"
         id="path5067"
         d="m 845.5423,466.63756 4.75865,-29.79322"
         style="fill:none;stroke:#008000;stroke-width:1px;stroke-linecap:butt;stroke-linejoin:miter;stroke-opacity:1"
         sodipodi:nodetypes="cc" />
      <path
         inkscape:connector-curvature="0"
         id="path5064"
         d="m 866.73861,472.66162 -21.35815,-6.00797"
         style="fill:none;stroke:#008000;stroke-width:1px;stroke-linecap:butt;stroke-linejoin:miter;stroke-opacity:1"
         sodipodi:nodetypes="cc" />
      <path
         inkscape:connector-curvature="0"
         id="path5062"
         d="m 867.2133,473.4124 22.00794,10.67894"
         style="fill:none;stroke:#008000;stroke-width:1px;stroke-linecap:butt;stroke-linejoin:miter;stroke-opacity:1"
         sodipodi:nodetypes="cc" />
      <path
         inkscape:connector-curvature="0"
         id="path5060"
         d="m 843.37644,475.9444 23.49471,-2.06108"
         style="fill:none;stroke:#008000;stroke-width:1px;stroke-linecap:butt;stroke-linejoin:miter;stroke-opacity:1"
         sodipodi:nodetypes="cc" />
      <path
         inkscape:connector-curvature="0"
         id="path5056"
         d="m 852.77484,445.45809 -8.43529,30.09728"
         style="fill:none;stroke:#008000;stroke-width:1px;stroke-linecap:butt;stroke-linejoin:miter;stroke-opacity:1" />
    </g>
  </g>
</svg>
