<?xml version="1.0" encoding="UTF-8" standalone="no"?>
<!-- Created with Inkscape (http://www.inkscape.org/) -->

<svg
   xmlns:dc="http://purl.org/dc/elements/1.1/"
   xmlns:cc="http://creativecommons.org/ns#"
   xmlns:rdf="http://www.w3.org/1999/02/22-rdf-syntax-ns#"
   xmlns:svg="http://www.w3.org/2000/svg"
   xmlns="http://www.w3.org/2000/svg"
   xmlns:sodipodi="http://sodipodi.sourceforge.net/DTD/sodipodi-0.dtd"
   xmlns:inkscape="http://www.inkscape.org/namespaces/inkscape"
   width="480"
   height="320"
   id="svg2"
   version="1.1"
   inkscape:version="0.47 r22583"
   sodipodi:docname="itnas056.svg"
   inkscape:export-xdpi="90"
   inkscape:export-ydpi="90"
   inkscape:export-filename="itnas056.png">
  <defs
     id="defs4" />
  <sodipodi:namedview
     id="base"
     pagecolor="#ffffff"
     bordercolor="#666666"
     borderopacity="1.0"
     inkscape:pageopacity="1"
     inkscape:pageshadow="2"
     inkscape:zoom="1"
     inkscape:cx="345.69676"
     inkscape:cy="234.81515"
     inkscape:document-units="px"
     inkscape:current-layer="layer1"
     showgrid="false"
     inkscape:snap-nodes="true"
     inkscape:snap-global="false"
     inkscape:snap-grids="true"
     showguides="true"
     inkscape:window-width="1280"
     inkscape:window-height="774"
     inkscape:window-x="-4"
     inkscape:window-y="-4"
     inkscape:window-maximized="1">
    <inkscape:grid
       empspacing="5"
       visible="true"
       enabled="true"
       snapvisiblegridlinesonly="true"
       type="xygrid"
       id="grid2816" />
  </sodipodi:namedview>
  <metadata
     id="metadata7">
    <rdf:RDF>
      <cc:Work
         rdf:about="">
        <dc:format>image/svg+xml</dc:format>
        <dc:type
           rdf:resource="http://purl.org/dc/dcmitype/StillImage" />
        <dc:title />
      </cc:Work>
    </rdf:RDF>
  </metadata>
  <g
     inkscape:label="Layer 1"
     inkscape:groupmode="layer"
     id="layer1"
     transform="translate(0,0)">
    <path
       style="color:#000000;fill:none;stroke:#008000;stroke-width:4;stroke-linecap:butt;stroke-linejoin:miter;stroke-miterlimit:4;stroke-opacity:1;stroke-dasharray:none;stroke-dashoffset:0;marker:none;visibility:visible;display:inline;overflow:visible;enable-background:accumulate"
       d="m 501.33871,312.22183 c -12.59246,-1.08022 -25.65197,1.56647 -38.18377,0 -6.57891,-0.82237 -13.15991,-2.16452 -19.79899,-2.82843 -4.60517,-0.46052 -9.50428,0 -14.14213,0 -11.07801,0 -22.15601,0 -33.23402,0 -30.4056,0 -60.81119,0 -91.21678,0 -39.12657,0 -78.25315,0 -117.37972,0 -12.96363,0 -25.92725,0 -38.89088,0 -5.79521,0 -11.91353,-0.57641 -17.67767,0 -8.25305,0.82531 -16.45252,2.13708 -24.74873,2.82843 -6.962231,0.58018 -14.225351,0 -21.213211,0 -7.75273,0 -15.76815,0.55395 -23.33452,-0.70711 -6.66743,-1.11124 -14.45166,0 -21.2132,0 -15.55635,0 -31.1127,0 -46.66905,0"
       id="path3669" />
    <path
       style="color:#000000;fill:none;stroke:#c87137;stroke-width:4;stroke-linecap:round;stroke-linejoin:round;stroke-miterlimit:4;stroke-opacity:1;stroke-dasharray:none;stroke-dashoffset:0;marker:none;visibility:visible;display:inline;overflow:visible;enable-background:accumulate"
       d="m 208.02411,305.53401 c -4.81501,-0.57835 -10.19877,1.93609 -14.50582,0.16047 -3.72314,-1.5349 -7.62424,-4.68845 -8.67719,-9.19831 -1.4335,-6.13985 -3.0566,-12.24703 -4.50491,-18.38854 -2.14412,-9.09205 -0.5436,-18.44227 -0.97443,-27.66057 -0.2159,-4.6197 2.32201,-8.88343 2.18456,-13.5754 -0.19392,-6.61925 -0.43967,-13.24236 -0.0182,-19.87042 0.22479,-3.53511 -0.056,-7.16683 -1.79976,-10.39323 -1.05645,-1.95468 -0.16871,-4.34704 -0.18676,-6.49939"
       id="path2832"
       sodipodi:nodetypes="cssssssss" />
    <path
       style="color:#000000;fill:none;stroke:#c87137;stroke-width:4;stroke-linecap:round;stroke-linejoin:round;stroke-miterlimit:4;stroke-opacity:1;stroke-dasharray:none;stroke-dashoffset:0;marker:none;visibility:visible;display:inline;overflow:visible;enable-background:accumulate"
       d="m 150.12395,204.86949 c 0.45761,3.71047 0.81571,7.426 1.32187,11.16764 0.65961,4.87606 0,10.42792 0,15.35551 0,11.21612 1.21952,23.46559 -1.32187,34.20092 -1.34892,5.69814 1.57039,20.15198 0,25.12722 -2.48739,7.88042 -10.57713,11.51778 -17.84516,15.35549 -1.06949,0.56473 -3.99913,0 -5.28746,0"
       id="path2850"
       sodipodi:nodetypes="cssssss" />
    <path
       style="fill:none;stroke:#94f3f3;stroke-width:4;stroke-linecap:round;stroke-linejoin:round;stroke-miterlimit:4;stroke-opacity:1;stroke-dasharray:none"
       d="m 181.10813,201.10086 c 5.57492,3.75806 6.17758,6.51685 12.79781,7.15693 7.75186,0.74949 15.22283,-2.18119 21.79884,-4.95071 12.3442,-5.1988 -10.99637,-22.35055 0.0338,-13.28145 4.6311,3.80772 6.22193,3.14912 11.99162,3.38355 6.17275,0.25079 8.29642,0.38058 10.34326,-8.25737 2.18202,-9.20837 2.28338,-19.02791 0.53047,-28.21275 -0.63354,-3.31965 -5.07143,-6.67637 -7.61623,-6.96726 -11.77188,-1.34562 -8.18098,0.64752 1.95857,-3.63918 4.92492,-2.08211 18.34195,-9.96652 11.18428,-15.63568 -5.38827,-4.26772 -13.40953,-6.58189 -20.282,-3.71336 -3.06544,1.2795 -8.47851,2.13371 -9.79906,5.11936 -4.17045,9.42903 -2.2461,7.60092 -1.32277,-2.68328 0.50703,-5.64728 -4.14158,-17.08417 -6.09296,-18.41097 -0.50219,-0.34145 -3.98408,-4.59066 -7.64068,-5.80405 -4.13162,-1.37103 -6.7415,2.31199 -12.47332,8.09765 -3.15908,3.18875 -2.99312,9.5257 -1.60913,-0.008 0.0978,-0.67365 -3.93119,-6.77869 -4.85321,-8.09135 -4.79747,-6.830044 -9.41373,-7.235896 -16.45222,-12.321695 -6.58524,-4.758295 -15.71316,-5.194427 -22.71319,-3.776109 -5.47436,1.109196 -8.01228,9.952369 -11.33761,15.260964 -4.07044,6.49809 4.29016,27.92875 -0.28453,21.07533 -1.51293,-2.26654 -7.93569,-13.63002 -12.93437,-19.24944 -5.99962,-6.74467 -11.15907,2.54163 -16.1178,5.69854 -6.658941,4.23931 -12.366911,9.20706 -14.747211,17.818 -2.16295,7.82468 -3.16337,16.93316 4.90371,21.72868 2.20482,1.31066 17.885651,11.76776 8.95287,6.75224 -4.47636,-2.51336 -10.87128,1.38261 -14.48994,4.51697 -4.46983,3.87161 -7.92615,8.2674 -8.5142,15.00635 -0.72481,8.30614 7.01742,11.93004 13.85228,13.36251 7.29362,1.5286 19.106991,7.7638 21.435491,6.63764 5.55927,-2.68869 -8.97961,7.54457 -13.464941,11.59267 -4.92313,4.44322 -7.02194,14.87496 1.30809,16.81426 9.736811,2.26681 20.416821,5.93835 29.988811,2.68965 6.9539,-2.36013 12.26276,-8.85377 15.44927,-15.14473 1.47891,-2.91973 2.41226,-18.3039 4.102,-11.68725 1.48945,5.83238 8.43941,9.18945 13.38547,12.85217 8.31132,6.15479 15.92018,-7.64371 15.87985,-12.12514 -0.0339,-3.76415 -3.38396,-5.80547 2.84884,-1.60394 z"
       id="path2827"
       sodipodi:nodetypes="cssssssssssssssssssssssssssssssssssssss" />
    <path
       style="fill:none;stroke:#80ff00;stroke-width:3.99999976;stroke-linecap:round;stroke-linejoin:round;stroke-miterlimit:4;stroke-opacity:1;stroke-dasharray:none"
       d="m 213.28855,58.374506 c 0.42998,1.823518 2.44416,-1.247434 2.86246,0.928015 2.25581,1.870688 5.31981,1.577294 7.55267,3.516649 1.71701,0.919293 3.74041,0.813926 5.44082,1.786715 1.81303,0.951548 3.78754,1.17777 5.74992,1.473839 1.69318,0.344558 3.25258,1.132036 4.89637,1.629062 1.0307,1.221386 2.28433,1.350041 3.38836,2.489918 1.33701,1.36861 3.44067,1.116144 4.58963,2.875886 -0.28824,0.819143 -2.13322,1.165564 -3.0348,1.799257 -2.71293,1.344721 -5.42559,2.691326 -8.13929,4.032021 -1.739,0.259958 -3.46801,1.475516 -5.18333,0.960775 -1.43756,-0.0059 -2.84581,0.712745 -4.26306,1.021237 -1.55219,0.545732 -3.34617,0.993753 -4.98649,1.369161 -1.67513,0.594824 -3.385,0.907737 -5.00645,1.905776 -1.27153,0.778843 -2.87853,1.728077 -3.00426,-0.712165 -0.44892,-1.696455 0.37725,-3.615525 -0.0816,-5.320664 -0.0217,-2.053928 -0.56979,-3.952502 0.0653,-6.177088 -0.23952,-2.093526 -0.0284,-4.444661 -0.62722,-6.396607 0.13161,-1.903572 -0.18438,-3.812237 -0.32465,-5.618841 -0.0939,-0.435405 -0.41362,-1.235737 0.1057,-1.562652 z"
       id="path2942" />
    <path
       style="fill:none;stroke:#80ff00;stroke-width:3.99999976;stroke-linecap:round;stroke-linejoin:round;stroke-miterlimit:4;stroke-opacity:1;stroke-dasharray:none"
       d="m 178.20623,108.87565 c 0.3047,-4.2786 0.2264,-8.6569 2.5195,-12.6473 2.2045,-5.0537 4.0553,-10.269 7.0189,-15.155 1.2781,-3.2837 3.0166,-11.6849 5.3845,-5.2678 3.6944,4.2416 6.6561,8.6497 8.4599,13.5481 2.3762,4.9445 5.4767,10.3733 6.5949,15.1486 -0.6669,1.4487 1.317,2.3032 0.9085,3.7486"
       id="path2956" />
    <path
       style="fill:none;stroke:#80ff00;stroke-width:3.99999976;stroke-linecap:round;stroke-linejoin:round;stroke-miterlimit:4;stroke-opacity:1;stroke-dasharray:none"
       d="m 98.552829,112.18315 c 0.2116,-0.7405 1.3487,-4.719 1.912201,-6.6904 1.8457,-6.1887 5.912,-8.0705 9.7431,-15.4624 1.5006,-4.4095 6.8881,-12.6734 8.1065,-14.912 1.6718,4.8175 3.123,9.7293 4.8488,14.5198 2.0837,7.4468 5.6499,14.1126 12.225,19.21 0.9567,0.5356 3.2507,1.0097 1.9839,2.5939"
       id="path2958" />
    <path
       style="color:#000000;fill:none;stroke:#80ff00;stroke-width:4;stroke-linecap:round;stroke-linejoin:round;stroke-miterlimit:4;stroke-opacity:1;stroke-dasharray:none;stroke-dashoffset:0;marker:none;visibility:visible;display:inline;overflow:visible;enable-background:accumulate"
       d="m 211.42889,72.638679 c -3.64747,-0.9537 -6.67803,-2.2143 -10.67228,-2.1887 -4.14536,0.027 -8.26115,0.5925 -12.462,1.0573 -4.62701,0.5119 -10.70099,0.5917 -15.85908,1.0248 -6.44295,0.541 -12.26764,2.0811 -18.8172,2.4782 -7.98598,0.4843 -16.14354,-0.6496 -24.22613,-1.1303 -4.06437,-0.2417 -8.03475,-0.8322 -12.14792,-0.7521 -3.17282,0.062 -10.12028,0.651 -12.42942,1.7341"
       id="path2833"
       sodipodi:nodetypes="csssssss" />
    <path
       style="color:#000000;fill:none;stroke:#80ff00;stroke-width:3.99999976;stroke-linecap:round;stroke-linejoin:round;stroke-miterlimit:4;stroke-opacity:1;stroke-dasharray:none;stroke-dashoffset:0;marker:none;visibility:visible;display:inline;overflow:visible;enable-background:accumulate"
       d="m 104.70696,75.31685 c -14.389536,3.967138 -19.074161,8.44677 -32.71153,8.445748 -4.300856,-3.22e-4 -8.653023,3.265925 -14.315565,5.875252 -11.024149,5.079982 -19.05739,11.9548 -24.335077,24.4914 -6.10491,14.5016 -7.352642,21.2287 3.104051,26.6482 8.419564,4.3636 24.087556,0.42902 32.086243,3.4169 9.947604,3.71589 28.318469,3.0897 40.545858,5.0665"
       id="path4125-8"
       sodipodi:nodetypes="cssssss" />
    <path
       sodipodi:type="arc"
       style="color:#000000;fill:none;stroke:#ffff00;stroke-width:3.67391965;stroke-linecap:round;stroke-linejoin:round;stroke-miterlimit:4;stroke-opacity:1;stroke-dasharray:none;stroke-dashoffset:0;marker:none;visibility:visible;display:inline;overflow:visible;enable-background:accumulate"
       id="path3750"
       sodipodi:cx="421.25"
       sodipodi:cy="237.25"
       sodipodi:rx="36.75"
       sodipodi:ry="36.75"
       d="M 446.68696,263.77401 A 36.75,36.75 0 1 1 424.61303,200.6542"
       sodipodi:start="0.80631561"
       sodipodi:end="4.8040282"
       transform="matrix(-1.1013827,-0.07995262,0.0822745,-1.0703004,877.2315,340.10922)"
       inkscape:transform-center-x="-32.091535"
       inkscape:transform-center-y="29.238219"
       sodipodi:open="true" />
    <path
       d="M 448.39505,262.02315 A 36.75,36.75 0 1 1 398.463,208.41747"
       sodipodi:ry="36.75"
       sodipodi:rx="36.75"
       sodipodi:cy="237.25"
       sodipodi:cx="421.25"
       id="path3752"
       style="color:#000000;fill:none;stroke:#ffff00;stroke-width:3.67391972;stroke-linecap:round;stroke-linejoin:round;stroke-miterlimit:4;stroke-opacity:1;stroke-dasharray:none;stroke-dashoffset:0;marker:none;visibility:visible;display:inline;overflow:visible;enable-background:accumulate"
       sodipodi:type="arc"
       sodipodi:start="0.73974463"
       sodipodi:end="4.0435768"
       sodipodi:open="true"
       transform="matrix(1.1044514,0,0,1.0732825,-35.044681,-203.96009)" />
    <path
       style="fill:none;stroke:#ffff00;stroke-width:4;stroke-linecap:round;stroke-linejoin:round;stroke-opacity:1;color:#000000;stroke-miterlimit:4;stroke-dasharray:none;stroke-dashoffset:0;marker:none;visibility:visible;display:inline;overflow:visible;enable-background:accumulate"
       d="m 371,26 c -8.13811,-0.02918 -40.64404,0.355965 -45,-4"
       id="path3761" />
    <path
       style="fill:none;stroke:#ffff00;stroke-width:4;stroke-linecap:round;stroke-linejoin:round;stroke-opacity:1;color:#000000;stroke-miterlimit:4;stroke-dasharray:none;stroke-dashoffset:0;marker:none;visibility:visible;display:inline;overflow:visible;enable-background:accumulate"
       d="m 364,59 c -12.71827,4.448213 -26.1705,6.723499 -39,11 -2.62235,0.874117 -2.19105,2 -5,2"
       id="path3763" />
    <path
       style="fill:none;stroke:#ffff00;stroke-width:4;stroke-linecap:round;stroke-linejoin:round;stroke-opacity:1;color:#000000;stroke-miterlimit:4;stroke-dasharray:none;stroke-dashoffset:0;marker:none;visibility:visible;display:inline;overflow:visible;enable-background:accumulate"
       d="m 382,89 c -0.33333,1 -0.34151,2.176892 -1,3 -2.6092,3.261506 -9.6974,8.28458 -13,12 -3.60502,4.05565 -7.49494,7.85766 -11,12 -1.55265,1.83495 -2.39201,4.21334 -4,6 -1.42782,1.58647 -3.49077,2.49077 -5,4 -1.24693,1.24693 -5.46157,7 -6,7"
       id="path3765" />
    <path
       style="fill:none;stroke:#ffff00;stroke-width:4;stroke-linecap:round;stroke-linejoin:round;stroke-opacity:1;color:#000000;stroke-miterlimit:4;stroke-dasharray:none;stroke-dashoffset:0;marker:none;visibility:visible;display:inline;overflow:visible;enable-background:accumulate"
       d="m 412,107 c -0.87511,6.82304 1.34586,14.27072 0,21 -1.16414,5.82068 -4.04117,11.24703 -5,17 -0.49191,2.95146 -4,5.30412 -4,8"
       id="path3767" />
    <path
       style="fill:none;stroke:#ffff00;stroke-width:4;stroke-linecap:round;stroke-linejoin:round;stroke-opacity:1;color:#000000;stroke-miterlimit:4;stroke-dasharray:none;stroke-dashoffset:0;marker:none;visibility:visible;display:inline;overflow:visible;enable-background:accumulate"
       d="m 441.10283,106.41378 c 6.19095,12.93054 1.35984,26.51829 2.13665,39.75468 0.0586,0.99828 0.82537,1.90438 0.75968,2.90222 -0.2523,3.83253 -2.06593,7.90357 -1.08411,11.65439"
       id="path3775" />
    <path
       style="fill:none;stroke:#0000ff;stroke-width:4;stroke-linecap:round;stroke-linejoin:round;stroke-miterlimit:4;stroke-opacity:1;stroke-dasharray:none"
       d="m 137.70017,119.31585 c -2.3518,0.1417 -3.143,2.1737 -3.9697,3.4318 -1.832,1.7184 -1.1944,2.3784 -2.8355,4.5757 -0.091,1.9654 -1.202,3.5113 -0.8506,5.6591 -0.3259,3.1406 2.2267,5.7915 4.3975,7.6565 1.7996,1.0762 3.4568,2.301 5.657,2.1273 1.5536,-0.1232 3.305,0.2747 4.7017,-0.2619 1.6701,-1.8922 5.1419,-2.6222 6.1358,-4.2968 0.1171,-1.855 0.084,-3.6988 0.3741,-5.4995 -3e-4,-2.7482 4e-4,-5.4964 0,-8.2445 -1.0516,-0.9901 -1.5614,-2.5441 -2.7589,-2.8598 -0.6613,-0.677 -2.3021,-0.3764 -3.1823,-0.8765 -2.2722,-0.9549 -5.0428,-0.7026 -7.6691,-1.4114 z"
       id="path2905" />
    <path
       style="fill:none;stroke:#0000ff;stroke-width:4;stroke-linecap:round;stroke-linejoin:round;stroke-miterlimit:4;stroke-opacity:1;stroke-dasharray:none"
       d="m 139.96857,144.76805 c 0.4616,2.4965 -1.4538,5.5017 -0.7455,6.4704 -1.0087,3.7438 -1.3118,7.6778 -2.3689,11.4047 -1.1105,3.1715 -0.9517,6.513 -1.4224,9.5789 0,1.5253 0,3.0505 0,4.5757"
       id="path2907" />
    <path
       style="fill:none;stroke:#0000ff;stroke-width:4;stroke-linecap:round;stroke-linejoin:round;stroke-miterlimit:4;stroke-opacity:1;stroke-dasharray:none"
       d="m 113.87337,107.26087 c 2.03321,6.30781 5.29973,12.77186 7.42757,19.85955 1.43603,4.78333 2.21558,9.64367 4.7491,14.0679 0.97527,1.7031 7.58623,7.17231 12.63288,8.10353 5.27434,0.97323 15.03276,-1.9984 16.66883,-5.99706 2.70688,-6.61579 1.62342,-8.03143 3.56461,-14.26734 1.10725,-3.55695 4.0981,-10.15747 5.82713,-13.64892 0.93028,-1.87849 3.63202,-4.26958 3.95438,-6.34654"
       id="path2911"
       sodipodi:nodetypes="csssssss" />
    <path
       style="color:#000000;fill:none;stroke:#0000ff;stroke-width:3.99999976;stroke-linecap:round;stroke-linejoin:round;stroke-miterlimit:4;stroke-opacity:1;stroke-dasharray:none;stroke-dashoffset:0;marker:none;visibility:visible;display:inline;overflow:visible;enable-background:accumulate"
       d="m 135.3325,179.06016 c 1.44569,0.01 2.42984,0.51662 3.8931,0.85238 4.29135,0.98476 8.80928,2.21828 12.60913,4.36296 1.94681,1.09882 2.13466,4.66935 3.20482,7.31093 1.2132,2.99468 2.65572,5.32119 3.88781,8.12806 1.06399,2.4239 1.38685,4.21965 2.2066,6.75857 0.85959,2.66231 2.15236,5.14014 3.09974,7.75525"
       id="path2890" />
    <path
       style="color:#000000;fill:none;stroke:#0000ff;stroke-width:4;stroke-linecap:round;stroke-linejoin:round;stroke-miterlimit:4;stroke-opacity:1;stroke-dasharray:none;stroke-dashoffset:0;marker:none;visibility:visible;display:inline;overflow:visible;enable-background:accumulate"
       d="m 108.82806,212.65567 c 0,-0.51887 0.57653,-3.21322 0.75,-3.73071 0.49967,-1.49053 0.73975,-3.06008 1.25,-4.58219 0.82106,-2.44925 0.48291,-4.12602 1.1875,-6.58255 0.6992,-2.43774 1.02186,-5.02593 2.5625,-7.37735 1.00477,-1.53353 1.62303,-3.4065 2.0625,-3.59234 2.33334,-0.98668 4.85968,-2.53555 7.1875,-3.41267 3.72398,-1.40321 7.97801,-2.68688 11.68122,-4.77954"
       id="path2863" />
  </g>
</svg>
