<?xml version="1.0" encoding="UTF-8" standalone="no"?>
<!-- Created with Inkscape (http://www.inkscape.org/) -->

<svg
   xmlns:dc="http://purl.org/dc/elements/1.1/"
   xmlns:cc="http://creativecommons.org/ns#"
   xmlns:rdf="http://www.w3.org/1999/02/22-rdf-syntax-ns#"
   xmlns:svg="http://www.w3.org/2000/svg"
   xmlns="http://www.w3.org/2000/svg"
   xmlns:sodipodi="http://sodipodi.sourceforge.net/DTD/sodipodi-0.dtd"
   xmlns:inkscape="http://www.inkscape.org/namespaces/inkscape"
   width="480"
   height="320"
   id="svg2"
   version="1.1"
   inkscape:version="0.48.0 r9654"
   sodipodi:docname="itnas309.svg"
   inkscape:export-xdpi="90"
   inkscape:export-ydpi="90"
   inkscape:export-filename="itnas309.png">
  <defs
     id="defs4">
    <inkscape:perspective
       sodipodi:type="inkscape:persp3d"
       inkscape:vp_x="0 : 160 : 1"
       inkscape:vp_y="0 : 1000 : 0"
       inkscape:vp_z="480 : 160 : 1"
       inkscape:persp3d-origin="240 : 106.66667 : 1"
       id="perspective8" />
  </defs>
  <sodipodi:namedview
     id="base"
     pagecolor="#ffffff"
     bordercolor="#666666"
     borderopacity="1.0"
     inkscape:pageopacity="1"
     inkscape:pageshadow="2"
     inkscape:zoom="2"
     inkscape:cx="349.87852"
     inkscape:cy="159.79316"
     inkscape:document-units="px"
     inkscape:current-layer="layer1"
     showgrid="false"
     inkscape:snap-nodes="true"
     inkscape:snap-global="false"
     inkscape:snap-grids="true"
     showguides="true"
     inkscape:window-width="968"
     inkscape:window-height="774"
     inkscape:window-x="-4"
     inkscape:window-y="-4"
     inkscape:window-maximized="1">
    <inkscape:grid
       empspacing="5"
       visible="true"
       enabled="true"
       snapvisiblegridlinesonly="true"
       type="xygrid"
       id="grid2816" />
  </sodipodi:namedview>
  <metadata
     id="metadata7">
    <rdf:RDF>
      <cc:Work
         rdf:about="">
        <dc:format>image/svg+xml</dc:format>
        <dc:type
           rdf:resource="http://purl.org/dc/dcmitype/StillImage" />
        <dc:title></dc:title>
      </cc:Work>
    </rdf:RDF>
  </metadata>
  <g
     inkscape:label="Layer 1"
     inkscape:groupmode="layer"
     id="layer1"
     transform="translate(0,0)">
    <path
       inkscape:connector-curvature="0"
       style="fill:none;stroke:#80ff00;stroke-width:3.99999952;stroke-linecap:round;stroke-linejoin:round;stroke-miterlimit:4;stroke-opacity:1;stroke-dasharray:none"
       d="m 348.02083,121.35544 c 5.90731,-2.98013 5.57223,-4.50872 8.7876,-6.67094 1.91866,-3.97172 -1.96671,-9.30488 0.55356,-13.11907 0.0231,-3.620256 2.52115,-6.956499 7.95442,-5.366122 2.82207,3.505057 3.77926,8.535422 5.06966,12.507022 1.8275,3.91754 4.03654,6.29771 -0.24317,11.29868 -2.57739,1.63512 -2.15296,3.13511 -4.31482,4.56352"
       id="path2956"
       sodipodi:nodetypes="ccccccc" />
    <path
       inkscape:connector-curvature="0"
       style="color:#000000;fill:none;stroke:#80ff00;stroke-width:4;stroke-linecap:round;stroke-linejoin:round;stroke-miterlimit:4;stroke-opacity:1;stroke-dasharray:none;stroke-dashoffset:0;marker:none;visibility:visible;display:inline;overflow:visible;enable-background:accumulate"
       d="m 359.92637,89.93838 c 0.99971,2.592355 2.20339,4.712653 2.44563,7.628341 0.25105,3.026009 0.0711,6.069129 -0.023,9.167069 -0.10365,3.41222 2.12835,8.36024 0.22621,11.64296 -2.37594,4.10042 -2.78467,11.55943 -7.59115,11.67368 -5.86062,0.13922 -11.69329,3.12735 -17.59202,2.49349 -2.96622,-0.31874 -5.91232,-0.3508 -8.86971,-0.92932 -2.28125,-0.44643 -7.2144,-1.78119 -8.73263,-2.92424"
       id="path2833"
       sodipodi:nodetypes="csssssss" />
    <path
       inkscape:connector-curvature="0"
       style="color:#000000;fill:none;stroke:#80ff00;stroke-width:3.99999952;stroke-linecap:round;stroke-linejoin:round;stroke-miterlimit:4;stroke-opacity:1;stroke-dasharray:none;stroke-dashoffset:0;marker:none;visibility:visible;display:inline;overflow:visible;enable-background:accumulate"
       d="m 302.48156,73.39461 c -10.39556,6.41104 -14.52817,5.825103 -24.43807,17.561066 -3.79007,4.488451 -14.87277,3.421816 -22.74633,7.281748 -10.42116,8.151466 -7.79115,16.844116 2.9952,13.579846 9.922,-3.00268 20.21106,9.52553 27.19918,7.26705 10.20894,-3.29938 22.60763,7.65812 33.17964,9.02679"
       id="path4125-8"
       sodipodi:nodetypes="cscsss" />
    <path
       style="color:#000000;fill:none;stroke:#80ff00;stroke-width:3.99999976;stroke-linecap:round;stroke-linejoin:round;stroke-miterlimit:4;stroke-opacity:1;stroke-dasharray:none;stroke-dashoffset:0;marker:none;visibility:visible;display:inline;overflow:visible;enable-background:accumulate"
       d="m 366.6325,78.252338 c -2.87515,-1.738556 -2.47039,-3.850716 -5.4172,-5.511188 -8.64187,-5.555229 -9.11845,-6.587992 -11.70715,-8.48968 -0.90942,-1.593272 -3.56407,-2.514833 -4.98794,-3.561921 -0.90531,-0.790631 -2.98861,-3.290136 -3.62897,-1.172962 -1.31767,2.192811 -0.51935,4.44435 1.68705,10.75087 -0.47156,6.98002 0.8026,9.623847 1.70367,12.750985 -0.0142,3.119768 -0.46661,6.348484 0.75099,9.326411 0.28874,1.165751 0.62657,4.023097 2.33568,2.35232 1.78534,-1.647712 3.3938,-1.009838 7.04235,-4.174419 1.46803,-1.917736 3.4656,-2.637289 5.65478,-2.722029 2.76758,-1.931188 7.9599,-2.223059 9.99995,-3.861223 -1.19508,-2.901694 -3.06376,-2.531334 -3.43322,-5.687192 z"
       id="path2870"
       inkscape:connector-curvature="0"
       sodipodi:nodetypes="cccccccccccccc" />
    <path
       inkscape:connector-curvature="0"
       style="fill:none;stroke:#80ff00;stroke-width:3.99999952;stroke-linecap:round;stroke-linejoin:round;stroke-miterlimit:4;stroke-opacity:1;stroke-dasharray:none"
       d="m 302.85884,115.94241 c 2.89357,0.73381 4.58094,-0.62429 5.97724,0.23661 5.65055,-0.23436 6.25996,3.05756 12.11217,6.05057 3.95378,4.19514 5.6148,6.38488 8.59067,10.25414 -4.07214,0.24425 -8.16922,0.29817 -12.23227,0.58985 -5.17164,2.05413 -5.06617,1.59838 -11.96219,4.04608 -1.39628,0.79352 -4.80392,-2.53084 -7.63447,-3.27834"
       id="path2958-6"
       sodipodi:nodetypes="ccccccc" />
    <g
       id="g3943"
       transform="matrix(1.4234173,0,0,2.0261181,-80.401585,-85.00938)">
      <path
         sodipodi:nodetypes="ssscsssssss"
         inkscape:connector-curvature="0"
         d="m 186.83811,118.93536 c 0.45417,5.92201 1.66609,4.13303 5.38165,6.093 3.08449,1.62706 9.61142,2.82661 10.78962,-0.47233 1.4645,-4.1006 2.09141,-4.59529 0.37973,-8.1621 -1.71168,-3.56681 -1.19902,-5.84367 -4.81901,-9.2082 -3.61735,-3.36209 -3.88998,-1.19175 -5.82397,-8.54382 -0.8937,-3.3974 -6.03748,-3.41669 -8.29376,-3.84063 -5.11203,-0.96053 -7.38522,1.51159 -6.5753,4.55579 0.51387,1.93145 1.67904,4.95598 3.23036,7.11652 2.12027,2.9529 -1.99585,1.5339 0.89681,6.87116 2.48939,4.59318 4.71823,4.08274 4.83387,5.59061 z"
         style="fill:none;stroke:#000000;stroke-width:2.35538292;stroke-linecap:butt;stroke-linejoin:miter;stroke-miterlimit:4;stroke-opacity:1;stroke-dasharray:none"
         id="path3002" />
      <path
         sodipodi:nodetypes="cc"
         inkscape:connector-curvature="0"
         id="path3816"
         d="m 192.5,99.25 c -4.67593,0.72118 -8.03705,2.92902 -12,4.25"
         style="color:#000000;fill:none;stroke:#000000;stroke-width:2.35538292;stroke-linecap:butt;stroke-linejoin:miter;stroke-miterlimit:4;stroke-opacity:1;stroke-dasharray:none;stroke-dashoffset:0;marker:none;visibility:visible;display:inline;overflow:visible;enable-background:accumulate" />
      <path
         sodipodi:nodetypes="cc"
         inkscape:connector-curvature="0"
         id="path3818"
         d="m 197.5,107.5 c -5.35668,1.44802 -8.40236,6.75 -14.5,6.75"
         style="color:#000000;fill:none;stroke:#000000;stroke-width:2.35538292;stroke-linecap:butt;stroke-linejoin:miter;stroke-miterlimit:4;stroke-opacity:1;stroke-dasharray:none;stroke-dashoffset:0;marker:none;visibility:visible;display:inline;overflow:visible;enable-background:accumulate" />
      <path
         inkscape:connector-curvature="0"
         id="path3820"
         d="m 203,116.5 c -5.41933,1.1843 -10.29559,2.69706 -14.5,5.5"
         style="color:#000000;fill:none;stroke:#000000;stroke-width:2.35538292;stroke-linecap:butt;stroke-linejoin:miter;stroke-miterlimit:4;stroke-opacity:1;stroke-dasharray:none;stroke-dashoffset:0;marker:none;visibility:visible;display:inline;overflow:visible;enable-background:accumulate" />
    </g>
    <path
       style="color:#000000;fill:none;stroke:#0000ff;stroke-width:4;stroke-linecap:round;stroke-linejoin:round;stroke-miterlimit:4;stroke-opacity:1;stroke-dasharray:none;stroke-dashoffset:0;marker:none;visibility:visible;display:inline;overflow:visible;enable-background:accumulate"
       d="m -8,207 c 20.702689,-7.76642 33.258105,-13.25347 49,-25.5 9.740863,-6.24389 21.432124,-2.64902 31,-12.5 7.375266,-5.76335 13.704446,-4.81767 20.390067,-7.75059 6.359393,-2.78981 9.993673,-8.065 19.109933,-6.74941 21.55354,-13.35596 25.70574,-9.00677 35.76752,-14.05814 19.03633,-9.55692 9.92736,-12.04595 30.35748,-21.69186"
       id="path3874"
       inkscape:connector-curvature="0"
       sodipodi:nodetypes="cccscsc" />
    <path
       style="color:#000000;fill:none;stroke:#808080;stroke-width:4;stroke-linecap:round;stroke-linejoin:round;stroke-miterlimit:4;stroke-opacity:1;stroke-dasharray:none;stroke-dashoffset:0;marker:none;visibility:visible;display:inline;overflow:visible;enable-background:accumulate"
       d="m 417.66003,123.17805 c -19.93266,-8.5957 -7.12324,-22.04368 -17.14136,-32.586213 -8.61349,-9.064382 -11.33985,-24.239061 -21.22655,-33.655251 -4.56285,-4.345703 -12.47764,-3.482587 -17.6221,-6.775772 -17.9129,-11.46681 -20.72152,-4.793894 -40.37526,0.45334 -10.95788,2.92558 -23.20481,-1.685793 -31.06183,-0.823444 -18.17716,1.995038 -16.48909,13.944288 -30.77935,15.336038 -4.45669,0.434044 -12.58349,9.337324 -22.85447,18.950148 -13.49869,3.371185 -13.36232,22.421874 -30.32427,28.550704 -32.80885,1.03601 -30.00967,10.44025 -40.6311,6.4801 -10.7105,-3.99335 -26.21013,-2.8421 -36.2671,-14.30163 -17.05696,-4.45953 -13.72779,-8.257982 -37.25438,-8.482945 -6.323114,-0.06046 -11.851174,-7.380655 -18.100613,-6.945573 -16.331824,1.137011 -14.971496,8.007488 -36.582724,14.991138 -8.26557,2.67102 -13.159689,0.75398 -22.5833,4.83594 -13.74744,0.38841 -17.866738,15.06761 -24.857958,15.21204"
       id="path3023"
       inkscape:connector-curvature="0"
       sodipodi:nodetypes="cssssssccscssscc" />
    <path
       style="color:#000000;fill:none;stroke:#0000ff;stroke-width:4;stroke-linecap:round;stroke-linejoin:round;stroke-miterlimit:4;stroke-opacity:1;stroke-dasharray:none;stroke-dashoffset:0;marker:none;visibility:visible;display:inline;overflow:visible;enable-background:accumulate"
       d="m 192.5,164 c -16.12742,-1.4109 -15.22745,-5.84662 -22.94911,-7.48655 -13.30439,3.71777 -12.96883,5.7989 -24.05089,6.98655 -31.56074,10.08099 -31.10614,18.77342 -52,25.5 -22.405554,7.21325 -9.599343,9.55825 -31,18 -5.298738,7.31721 -4.7018,7.22047 -23.5,16 -8.074069,8.77358 -10.207514,1.4391 -18.5,7.5 C 12.469569,236.36937 1.95555,240 -8,240"
       id="path3841"
       inkscape:connector-curvature="0"
       sodipodi:nodetypes="cccsccsc" />
    <path
       style="color:#000000;fill:none;stroke:#808080;stroke-width:4;stroke-linecap:round;stroke-linejoin:round;stroke-miterlimit:4;stroke-opacity:1;stroke-dasharray:none;stroke-dashoffset:0;marker:none;visibility:visible;display:inline;overflow:visible;enable-background:accumulate"
       d="m 305.47519,206.59746 c -10.55682,-12.02963 -11.96662,-6.47852 -24.04245,-18.49281 -9.06598,-9.01978 -10.38542,-6.09756 -17.53096,-9.71819 -17.6243,-8.93019 -5.34804,-0.42643 -19.0718,-22.39286 -6.95567,-4.88869 -7.45815,-5.39455 -37.07166,3.72128 -5.02443,1.54666 -18.37247,3.32711 -27.21296,9.35229 -12.04704,2.41507 -19.231,-3.40942 -35.38672,2.92349 -17.23706,1.67651 -29.83997,22.1103 -37.30483,25.39808 -11.127465,4.9009 -8.720128,7.97419 -14.701139,13.3395 -21.196531,11.68015 -25.408725,8.22269 -41.119531,25.50752 -10.083237,4.92526 -6.69981,7.31655 -19.111674,11.29071 -7.140683,2.28638 -16.328435,2.11898 -23.2155287,5.33797 -5.3729872,5.10715 -22.9703873,3.9342 -23.4944983,8.68006"
       id="path2986"
       inkscape:connector-curvature="0"
       sodipodi:nodetypes="csscsccsccscc" />
    <g
       id="g6898"
       transform="matrix(0.08314211,0.99653768,-0.99653768,0.08314211,595.62245,-72.17603)">
      <path
         sodipodi:nodetypes="ssss"
         inkscape:connector-curvature="0"
         id="path6851"
         d="m 260.10061,227.39164 c -4.88996,-2.16352 -6.60689,-2.21905 -11.68348,-4.60128 -6.34872,-2.97919 -8.15387,-3.10264 -12.75899,-4.75833 C 226.13152,214.60691 222.23201,214.30276 214.75,213"
         style="color:#000000;fill:none;stroke:#c87137;stroke-width:4;stroke-linecap:round;stroke-linejoin:round;stroke-miterlimit:4;stroke-opacity:1;stroke-dasharray:none;stroke-dashoffset:0;marker:none;visibility:visible;display:inline;overflow:visible;enable-background:accumulate" />
      <path
         sodipodi:nodetypes="ssss"
         inkscape:connector-curvature="0"
         id="path6856"
         d="m 213.5,212 c 3.52739,1.43799 -3.92305,3.68567 -9,-0.5 -4.61181,-3.80219 -7.5883,-9.97594 -6,-9 7.25265,4.45643 4.55455,5.24177 15,9.5 z"
         style="color:#000000;fill:none;stroke:#808080;stroke-width:4;stroke-linecap:round;stroke-linejoin:miter;stroke-miterlimit:4;stroke-opacity:1;stroke-dasharray:none;stroke-dashoffset:0;marker:none;visibility:visible;display:inline;overflow:visible;enable-background:accumulate" />
    </g>
    <path
       inkscape:connector-curvature="0"
       style="fill:none;stroke:#80ff00;stroke-width:3.99999976;stroke-linecap:round;stroke-linejoin:round;stroke-miterlimit:4;stroke-opacity:1;stroke-dasharray:none"
       d="m 382.63056,159.752 c -0.11545,1.86997 2.70038,-0.48774 2.47205,1.71576 1.61884,2.44284 4.63686,3.04757 6.21389,5.54954 1.37799,1.37632 3.3455,1.86028 4.69217,3.28303 1.46061,1.43497 3.28545,2.22225 5.0785,3.07287 1.52133,0.81925 2.78655,2.02384 4.21654,2.97474 0.63369,1.46715 1.79662,1.95268 2.52406,3.36302 0.88436,1.69663 2.97123,2.06297 3.56251,4.07969 -0.5127,0.70088 -2.37907,0.49925 -3.42532,0.8453 -2.98581,0.50319 -5.97191,1.00829 -8.9573,1.50741 -1.73989,-0.25378 -3.74646,0.41014 -5.23977,-0.57841 -1.37453,-0.42115 -2.93037,-0.14023 -4.37629,-0.25454 -1.64366,0.0738 -3.49057,-0.0157 -5.16941,-0.13054 -1.77556,0.0853 -3.50287,-0.10938 -5.3436,0.3774 -1.44236,0.37808 -3.25513,0.82234 -2.67019,-1.5501 0.0606,-1.75381 1.40651,-3.35205 1.4598,-5.11714 0.57281,-1.97255 0.59691,-3.9485 1.84782,-5.8946 0.37581,-2.07339 1.25749,-4.26315 1.24839,-6.30488 0.67622,-1.78427 0.92535,-3.70283 1.31324,-5.47286 0.036,-0.44395 -0.0388,-1.30253 0.55292,-1.46536 z"
       id="path2942" />
    <path
       inkscape:connector-curvature="0"
       style="fill:none;stroke:#80ff00;stroke-width:3.99999976;stroke-linecap:round;stroke-linejoin:round;stroke-miterlimit:4;stroke-opacity:1;stroke-dasharray:none"
       d="m 378.09326,171.95844 c -6.04724,-1.65058 -8.18781,-2.04717 -14.16606,-6.53151 -11.90108,-3.53409 -19.29679,-4.32644 -30.71127,-9.06684 -13.0048,0.73993 -19.05712,-6.74518 -25.86777,-8.49122 -15.39922,-2.51515 -17.63959,-3.24441 -24.43502,-3.90363"
       id="path2952-1"
       sodipodi:nodetypes="ccccc" />
    <path
       inkscape:connector-curvature="0"
       style="fill:none;stroke:#80ff00;stroke-width:3.99999952;stroke-linecap:round;stroke-linejoin:round;stroke-miterlimit:4;stroke-opacity:1;stroke-dasharray:none"
       d="m 337.2867,195.64128 c 1.5787,-3.98847 6.41549,-6.35753 8.18432,-10.2154 1.73261,-5.23432 4.37469,-8.46059 8.67175,-12.2277 2.20742,-2.74667 7.00436,-11.43249 7.33051,-4.60023 0.13885,4.49189 1.23658,6.44845 0.99403,11.74033 0.77738,5.43048 2.1881,8.32477 1.81681,13.21507 0.78015,3.38753 3.46866,9.53514 2.64398,10.7905"
       id="path2956-7"
       sodipodi:nodetypes="ccccccc" />
    <path
       inkscape:connector-curvature="0"
       style="fill:none;stroke:#80ff00;stroke-width:3.99999952;stroke-linecap:round;stroke-linejoin:round;stroke-miterlimit:4;stroke-opacity:1;stroke-dasharray:none"
       d="m 290.12458,187.79144 c 0.18941,-0.74647 0.0606,-5.42387 0.56473,-7.41138 1.516,-6.27761 -0.4487,-10.10846 2.19944,-17.88649 -0.1016,-7.20512 -0.51605,-10.61558 -1.21177,-16.67741 -3.86719,3.32386 -7.59119,6.84018 -11.49151,10.11354 -5.54514,5.38948 -6.78492,3.94399 -14.4856,8.9408 -1.92269,0.52385 -4.29989,2.24586 -8.75909,2.76315"
       id="path2958-6-7"
       sodipodi:nodetypes="ccccccc" />
    <path
       style="color:#000000;fill:none;stroke:#c87137;stroke-width:4;stroke-linecap:round;stroke-linejoin:round;stroke-miterlimit:4;stroke-opacity:1;stroke-dasharray:none;stroke-dashoffset:0;marker:none;visibility:visible;display:inline;overflow:visible;enable-background:accumulate"
       d="m 183,132.5 c -15.78534,3.46605 -10.98642,5.997 -23,14 -3.64017,3.64017 -12.13106,-2.37436 -21.73822,3.81282 C 126.65463,154 119.45136,158.68288 112.5,161 c -4.11045,1.37015 -13.279492,8.80599 -19.5,10 -8.115495,1.55775 -14.703589,9.1759 -23.5,10 -9.392276,0.87992 -15.658001,8.079 -22.5,11.5 -13.126356,6.56318 -9.535406,9.2677 -25.5,13 -8.957291,2.09409 -13.418917,11.63964 -26,12.5"
       id="path3868"
       inkscape:connector-curvature="0"
       sodipodi:nodetypes="cccsssssc" />
    <path
       style="color:#000000;fill:none;stroke:#c87137;stroke-width:4;stroke-linecap:round;stroke-linejoin:round;stroke-miterlimit:4;stroke-opacity:1;stroke-dasharray:none;stroke-dashoffset:0;marker:none;visibility:visible;display:inline;overflow:visible;enable-background:accumulate"
       d="m 188.5,149.5 c -4.14694,3.33102 -9.23249,6.11625 -16.5,2 -6.10276,-2.09101 -11.0204,0.70752 -19,4 -2.24293,2.24293 -10.19046,-0.40477 -13,1 -6.70524,3.35262 -14.88605,10.46202 -21,12.5 -8.25089,2.7503 -27.459982,9.45998 -32.5,14.5 -3.864339,3.86434 -13.160575,2.88686 -17.5,7.5 -4.889479,5.19789 -9.4507,3.22535 -20,11 -3.032453,2.23486 -4.696239,6.31822 -7.5,7 -8.760582,2.13029 -15.122412,6.5306 -23,8.5 -9.0989057,5.16134 -11.8090206,9.06475 -24,9"
       id="path3870"
       inkscape:connector-curvature="0"
       sodipodi:nodetypes="cccsssssscc" />
    <path
       inkscape:connector-curvature="0"
       style="color:#000000;fill:none;stroke:#80ff00;stroke-width:4;stroke-linecap:round;stroke-linejoin:round;stroke-miterlimit:4;stroke-opacity:1;stroke-dasharray:none;stroke-dashoffset:0;marker:none;visibility:visible;display:inline;overflow:visible;enable-background:accumulate"
       d="m 116.29493,132.03917 c 14.51159,-8.08124 33.10837,7.43451 50.53461,15.43899 9.25412,4.25073 4.02931,-2.94318 26.93545,-9.44879 34.47055,-9.79003 32.2088,-1.42717 46.05569,-6.60779 10.63812,-3.98011 12.42466,3.57429 21.09034,3.7037 8.45195,0.12622 15.4531,3.97882 21.33042,8.58974"
       id="path4125"
       sodipodi:nodetypes="csssss" />
    <path
       style="color:#000000;fill:none;stroke:#808080;stroke-width:4;stroke-linecap:round;stroke-linejoin:miter;stroke-miterlimit:4;stroke-opacity:1;stroke-dasharray:none;stroke-dashoffset:0;marker:none;visibility:visible;display:inline;overflow:visible;enable-background:accumulate"
       d="m 166.6701,169.60198 c 17.56273,8.23073 4.41115,15.91088 34.64823,14.84925 9.88662,-0.34713 23.01208,-0.0622 30.40559,-2.82843 6.91349,-2.58661 -7.74696,-22.61701 6.36396,-28.28427"
       id="path3923"
       inkscape:connector-curvature="0"
       sodipodi:nodetypes="cssc" />
    <path
       style="color:#000000;fill:none;stroke:#808080;stroke-width:4;stroke-linecap:round;stroke-linejoin:miter;stroke-miterlimit:4;stroke-opacity:1;stroke-dasharray:none;stroke-dashoffset:0;marker:none;visibility:visible;display:inline;overflow:visible;enable-background:accumulate"
       d="m 141,113 c 3.80643,-0.93786 9.57691,1.71154 13,0 2.33632,-1.16816 3.18226,-3.74301 4.5,-5.5 10.18348,-13.57797 9.45054,-18.5 31,-18.5 2.30245,0 7.86569,-0.06716 10,1 6.94098,3.470489 15.6189,18.32165 22.5,8"
       id="path3925"
       inkscape:connector-curvature="0" />
    <path
       style="color:#000000;fill:none;stroke:#000000;stroke-width:4;stroke-linecap:round;stroke-linejoin:miter;stroke-miterlimit:4;stroke-opacity:1;stroke-dasharray:none;stroke-dashoffset:0;marker:none;visibility:visible;display:inline;overflow:visible;enable-background:accumulate"
       d="m 412.25,134 c 10.28101,1.46829 36.62042,-0.67769 40.75,2.5 22.88528,17.61008 -27.3298,6.75957 -34.5,15.5 -6.33828,7.72632 6.44275,10 14.5,10 5.1908,0 22.1908,-6.5 26,-1.5 1.79829,2.36045 1.96418,10.36146 -5.5,11.5 -12.17205,1.85665 -36.72627,-1.87295 -32.5,4.5 3.93748,5.93748 40.33355,1.66645 33,10.5 -6.46725,7.79006 -37.4052,1.37701 -45.5,9 -9.08936,8.55958 27.58023,4.00973 36.52451,6.33165 10.01869,2.60084 6.16122,8.74995 -0.97862,9.61405 -13.32928,1.61318 -31.26855,0.36245 -47.00994,0.76642 -17.21646,0.44183 -23.24758,6.79149 -36.28595,-1.46212 -6.76013,-4.27933 -14.01786,-4.1082 -21.75,-3.75 -11.78907,0.54614 -12.53336,7.67085 -31,6.5 -4.29614,-0.27239 -3.40103,8.86276 1.77496,10.46505 14.71557,4.55537 28.35096,-5.05902 45.22504,0.035 12.31224,3.71684 26.12773,-2.61851 38.903,-0.22589 20.57007,3.85247 30.22862,-1.71557 43.597,-1.27411 7.06338,0.23325 6.61198,18.47329 -5.55602,11.17249 -5,-3 -36.10683,6.90772 -63.39768,2.0692 -13.39211,-2.37435 -47.59249,2.31498 -61.59781,0.22417"
       id="path3022"
       inkscape:connector-curvature="0"
       sodipodi:nodetypes="cssssssssssssssssssssc" />
  </g>
</svg>
