<?xml version="1.0" encoding="UTF-8" standalone="no"?>
<!-- Created with Inkscape (http://www.inkscape.org/) -->

<svg
   xmlns:dc="http://purl.org/dc/elements/1.1/"
   xmlns:cc="http://creativecommons.org/ns#"
   xmlns:rdf="http://www.w3.org/1999/02/22-rdf-syntax-ns#"
   xmlns:svg="http://www.w3.org/2000/svg"
   xmlns="http://www.w3.org/2000/svg"
   xmlns:sodipodi="http://sodipodi.sourceforge.net/DTD/sodipodi-0.dtd"
   xmlns:inkscape="http://www.inkscape.org/namespaces/inkscape"
   width="480"
   height="320"
   id="svg2"
   version="1.1"
   inkscape:version="0.47 r22583"
   sodipodi:docname="itnas215.svg"
   inkscape:export-xdpi="90"
   inkscape:export-ydpi="90"
   inkscape:export-filename="itnas215.png">
  <defs
     id="defs4" />
  <sodipodi:namedview
     id="base"
     pagecolor="#ffffff"
     bordercolor="#666666"
     borderopacity="1.0"
     inkscape:pageopacity="1"
     inkscape:pageshadow="2"
     inkscape:zoom="1"
     inkscape:cx="266.11586"
     inkscape:cy="143.25315"
     inkscape:document-units="px"
     inkscape:current-layer="layer1"
     showgrid="false"
     inkscape:snap-nodes="true"
     inkscape:snap-global="false"
     inkscape:snap-grids="true"
     showguides="true"
     inkscape:window-width="1280"
     inkscape:window-height="774"
     inkscape:window-x="1276"
     inkscape:window-y="1020"
     inkscape:window-maximized="1">
    <inkscape:grid
       empspacing="5"
       visible="true"
       enabled="true"
       snapvisiblegridlinesonly="true"
       type="xygrid"
       id="grid2816" />
  </sodipodi:namedview>
  <metadata
     id="metadata7">
    <rdf:RDF>
      <cc:Work
         rdf:about="">
        <dc:format>image/svg+xml</dc:format>
        <dc:type
           rdf:resource="http://purl.org/dc/dcmitype/StillImage" />
        <dc:title></dc:title>
      </cc:Work>
    </rdf:RDF>
  </metadata>
  <g
     inkscape:label="Layer 1"
     inkscape:groupmode="layer"
     id="layer1"
     transform="translate(0,0)">
    <path
       style="color:#000000;fill:none;stroke:#c87137;stroke-width:3.99999928;stroke-linecap:round;stroke-linejoin:round;stroke-miterlimit:4;stroke-opacity:1;stroke-dasharray:none;stroke-dashoffset:0;marker:none;visibility:visible;display:inline;overflow:visible;enable-background:accumulate"
       d="m 38.503187,198.71223 c 0.88773,-4.75801 0.4936,-6.74119 0.0595,-11.48692 -0.58806,-6.42788 0.2547,-10.28578 0.93776,-16.67025 1.35747,-12.68808 -0.10175,-19.09058 -0.23696,-28.75897 -0.0678,-4.85037 0.57151,-10.89432 0.47595,-15.81704 -0.13483,-6.94495 -1.52237,-9.9594 -1.22934,-16.91355 0.0973,-7.26454 0.73021,-7.94179 0.70462,-15.100675"
       id="path2832"
       sodipodi:nodetypes="csssscc" />
    <path
       style="color:#000000;fill:none;stroke:#c87137;stroke-width:3.99999976;stroke-linecap:round;stroke-linejoin:round;stroke-miterlimit:4;stroke-opacity:1;stroke-dasharray:none;stroke-dashoffset:0;marker:none;visibility:visible;display:inline;overflow:visible;enable-background:accumulate"
       d="m 2.2086569,96.870935 c 0.36448,3.691435 0.64971,7.387855 1.05286,11.110225 0.52538,4.85105 -1.39387,9.62827 -1.39387,14.53045 0,11.15857 2.36522,24.09117 0.34101,34.77142 -1.07441,5.66883 -0.77365,11.19335 0,16.29305 -0.20441,9.31058 1.54628,14.6975 0.0935,24.23035"
       id="path2850"
       sodipodi:nodetypes="cssscc" />
    <path
       style="color:#000000;fill:none;stroke:#c87137;stroke-width:3.99999976;stroke-linecap:round;stroke-linejoin:round;stroke-miterlimit:4;stroke-opacity:1;stroke-dasharray:none;stroke-dashoffset:0;marker:none;visibility:visible;display:inline;overflow:visible;enable-background:accumulate"
       d="m 328.94349,219.82317 c -6.07739,-1.15478 -13.21759,-5.43518 -17,-1 -7.46431,4.53941 -7.90991,8.62257 -8,12"
       id="path4395"
       sodipodi:nodetypes="ccc" />
    <path
       style="color:#000000;fill:none;stroke:#c87137;stroke-width:3.99999976;stroke-linecap:round;stroke-linejoin:round;stroke-miterlimit:4;stroke-opacity:1;stroke-dasharray:none;stroke-dashoffset:0;marker:none;visibility:visible;display:inline;overflow:visible;enable-background:accumulate"
       d="m 334.71086,234.295 -12.58999,6.78177 c -4.03017,6.34685 -0.36322,8.12833 -6.17861,13.11772"
       id="path4397"
       sodipodi:nodetypes="ccc" />
    <path
       sodipodi:nodetypes="cssssc"
       id="path4261"
       d="m 470.21239,175.82693 c -3.22415,3.91307 -5.11881,4.92942 -9.28581,7.77096 -5.64404,3.84873 -8.16965,7.12041 -12.8622,11.96238 -9.32569,9.62259 -15.57704,12.75352 -23.52632,19.14522 -3.98793,3.20659 -8.43549,7.7844 -12.50218,11.01729 -5.73723,4.5609 -11.98971,8.94296 -17.42608,13.85419"
       style="color:#000000;fill:none;stroke:#c87137;stroke-width:3.99999905;stroke-linecap:round;stroke-linejoin:round;stroke-miterlimit:4;stroke-opacity:1;stroke-dasharray:none;stroke-dashoffset:0;marker:none;visibility:visible;display:inline;overflow:visible;enable-background:accumulate" />
    <path
       sodipodi:nodetypes="cssscc"
       id="path4263"
       d="m 369.53367,214.94639 c 2.97778,-2.08647 5.90747,-4.23633 8.93348,-6.3132 3.94351,-2.70663 6.23496,-7.2233 9.87314,-10.36183 8.28146,-7.14404 19.42488,-13.62696 26.02873,-22.00265 3.50514,-4.44563 7.80174,-7.75411 12.09202,-10.4313 6.77639,-6.11622 11.91819,-8.23504 18.04389,-15.44196"
       style="color:#000000;fill:none;stroke:#c87137;stroke-width:3.99999928;stroke-linecap:round;stroke-linejoin:round;stroke-miterlimit:4;stroke-opacity:1;stroke-dasharray:none;stroke-dashoffset:0;marker:none;visibility:visible;display:inline;overflow:visible;enable-background:accumulate" />
    <path
       style="color:#000000;fill:none;stroke:#c87137;stroke-width:3.99999976;stroke-linecap:round;stroke-linejoin:round;stroke-miterlimit:4;stroke-opacity:1;stroke-dasharray:none;stroke-dashoffset:0;marker:none;visibility:visible;display:inline;overflow:visible;enable-background:accumulate"
       d="m 281.74366,205.2791 c 1.18862,-10.86193 0.47695,-23.9692 1.92224,-37.67188 0.5786,-15.77038 -2.68514,-28.27712 -2.24261,-44.61145 0.48054,-11.42929 -0.54193,-19.06551 2.56299,-27.097305"
       id="path4281"
       sodipodi:nodetypes="cccc" />
    <path
       style="color:#000000;fill:none;stroke:#c87137;stroke-width:3.99999928;stroke-linecap:round;stroke-linejoin:round;stroke-miterlimit:4;stroke-opacity:1;stroke-dasharray:none;stroke-dashoffset:0;marker:none;visibility:visible;display:inline;overflow:visible;enable-background:accumulate"
       d="m 249.38589,98.469565 c -2.29913,15.002025 0.58708,17.082605 0.64074,29.319465 -0.65996,9.49521 -1.73579,18.48161 0,26.26534 -1.0679,18.6386 -0.85433,18.09566 -1.92223,25.04371 -0.83269,8.49993 0.52377,14.53128 1.28149,19.24089"
       id="path4277"
       sodipodi:nodetypes="ccccc" />
    <path
       sodipodi:nodetypes="cccc"
       id="path4306"
       d="m 135.9321,97.182935 c -1.18862,9.920705 -0.47693,21.892195 -1.92224,34.407485 -0.5786,14.4038 2.68515,25.82678 2.24261,40.74568 -0.48054,10.43889 0.54193,17.41342 -2.56298,24.74924"
       style="color:#000000;fill:none;stroke:#c87137;stroke-width:3.99999928;stroke-linecap:round;stroke-linejoin:round;stroke-miterlimit:4;stroke-opacity:1;stroke-dasharray:none;stroke-dashoffset:0;marker:none;visibility:visible;display:inline;overflow:visible;enable-background:accumulate" />
    <path
       sodipodi:nodetypes="ccccc"
       id="path4308"
       d="m 168.31756,195.76998 c 2.15803,-15.06449 -0.55104,-17.15373 -0.60143,-29.44154 0.61946,-9.53475 1.62928,-18.55856 0,-26.37472 1.00238,-18.71618 0.80191,-18.17099 1.80428,-25.14796 0.78159,-8.53535 -0.49162,-14.59179 -1.20285,-19.321015"
       style="color:#000000;fill:none;stroke:#c87137;stroke-width:3.99999928;stroke-linecap:round;stroke-linejoin:round;stroke-miterlimit:4;stroke-opacity:1;stroke-dasharray:none;stroke-dashoffset:0;marker:none;visibility:visible;display:inline;overflow:visible;enable-background:accumulate" />
    <path
       style="color:#000000;fill:none;stroke:#94f3f3;stroke-width:4;stroke-linecap:round;stroke-linejoin:round;stroke-miterlimit:4;stroke-opacity:1;stroke-dasharray:none;stroke-dashoffset:0;marker:none;visibility:visible;display:inline;overflow:visible;enable-background:accumulate"
       d="m 26.562887,-152.25285 c -9.13586,9.9354 -18.2717201,42.36871 -27.40759011,67.942264 -10.54054989,18.518588 -12.14779489,46.037808 -26.64626489,73.286039 -3.67543,17.6667192 -10.371131,44.612499 -23.418991,69.391039 -4.63139,11.58336 -8.7993,13.46388 -16.169749,34.430823 24.852229,4.6466 43.61579,-0.36575 63.9510449,3.81699 l 44.9179901,-3.81698 60.144413,3.05358 C 96.350715,87.451132 90.767685,75.358582 85.184665,47.756952 67.325245,0.80361264 75.040155,10.528792 72.242195,-4.1539872 66.355985,-20.526408 65.173935,-39.672358 59.407405,-58.355108 53.316825,-69.095938 41.789327,-100.02942 35.698747,-124.0072 c -1.27246,-7.41299 -2.54863,-18.66902 -9.13586,-28.24565 z"
       id="path4156"
       sodipodi:nodetypes="ccccccccccccc" />
    <path
       sodipodi:nodetypes="cccccscccccccc"
       id="path4265"
       d="m 235.14814,94.283895 c -0.20298,-17.584593 -16.33526,-52.913843 -24.04753,-77.029143 -3.62216,-23.2347892 -16.0331,-37.090869 -21.86823,-69.79195 -6.6457,-12.78304 -16.23701,-33.882868 -21.61152,-63.419222 -3.24655,-11.64846 -2.06559,-18.56319 -8.44857,-38.1585 -6.4702,15.27701 -11.72626,30.26358 -17.95005,43.24632 -14.13066,29.476268 -9.05714,33.479114 -15.85836,49.207772 -11.53345,20.5519 -12.93891,33.92164 -15.50009,46.457381 -7.68898,16.6984196 -13.680625,35.400899 -18.806615,55.310559 -2.06258,9.45143 -11.4721,27.39019 -17.85791,53.058333 6.82503,4.93103 15.42331,-0.79852 31.468885,2.51778 21.40875,1.707 42.46087,0.25897 63.84278,-0.65954 10.12521,-0.61795 28.82071,0.48566 43.37993,1.54211 4.1959,1.22443 14.08353,0.1949 23.25728,-2.2819 z"
       style="color:#000000;fill:none;stroke:#94f3f3;stroke-width:3.99999928;stroke-linecap:round;stroke-linejoin:round;stroke-miterlimit:4;stroke-opacity:1;stroke-dasharray:none;stroke-dashoffset:0;marker:none;visibility:visible;display:inline;overflow:visible;enable-background:accumulate" />
    <path
       style="color:#000000;fill:none;stroke:#94f3f3;stroke-width:4;stroke-linecap:round;stroke-linejoin:round;stroke-miterlimit:4;stroke-opacity:1;stroke-dasharray:none;stroke-dashoffset:0;marker:none;visibility:visible;display:inline;overflow:visible;enable-background:accumulate"
       d="m 280.0049,-153.01024 c -0.21856,0.24554 -0.46222,0.49202 -0.68079,0.76267 -6.23243,14.84653 -11.91294,23.98642 -15.49809,37.53131 -3.81342,14.4073 -10.66872,21.727599 -14.89739,35.203159 -4.39055,11.600143 -6.44829,23.816333 -9.29085,31.991923 -9.81559,22.55607 -12.50113,32.884621 -18.58168,56.8388502 -1.91509,12.6106798 -5.91361,22.1556898 -9.3309,31.4299598 -2.03848,9.34104 -11.24093,26.99282 -17.62056,52.182563 21.20236,2.54356 38.16833,-1.057726 56.38581,2.6894 18.0382,-0.34407 37.69808,0.93735 52.62142,-2.52884 17.48708,-0.36155 34.97416,0.41964 52.46123,1.76618 C 349.99008,86.457152 347.62033,75.012582 342.03732,47.410952 325.8858,4.9477622 327.42952,8.1269222 326.41908,-1.6005172 321.17047,-15.581017 313.93069,-29.194408 309.87977,-51.896488 c -6.64571,-12.78304 -13.00694,-30.032043 -18.38145,-59.568402 -3.21875,-11.54873 -5.29259,-22.33175 -11.49342,-41.54535 z"
       id="path4267"
       sodipodi:nodetypes="ccsccccccccccccc" />
    <path
       style="color:#000000;fill:none;stroke:#94f3f3;stroke-width:4;stroke-linecap:round;stroke-linejoin:round;stroke-miterlimit:4;stroke-opacity:1;stroke-dasharray:none;stroke-dashoffset:0;marker:none;visibility:visible;display:inline;overflow:visible;enable-background:accumulate"
       d="m 649.61365,2.1160022 c -0.42735,0.13661 -0.8546,0.27797 -1.28045,0.41565 -10.3698,0.30961 -29.0283,7.8147998 -47.95355,15.5047998 -18.72911,6.40301 -37.15336,13.33957 -55.11592,21.73651 -12.72394,4.52591 -24.43674,10.59544 -37.62684,13.75108 -21.3957,11.84589 -43.6479,17.05003 -67.75025,27.44187 -11.77884,4.03202 -15.91019,2.1211 -36.56928,10.188897 5.52955,12.163501 13.69239,21.827631 21.90127,32.408301 12.69831,17.37779 27.55956,32.40688 42.22431,48.05287 7.0826,7.28972 18.44035,22.221 27.15485,33.97089 1.81635,3.98595 9.0658,10.83042 16.93135,16.18556 13.1549,-11.61683 20.295,-35.76104 33.47825,-57.34004 10.3862,-16.87248 15.1773,-22.41172 22.59625,-30.67538 8.5256,-15.14445 22.2248,-28.5003 32.57436,-45.059808 8.12655,-27.16495 20.22945,-41.17533 34.10165,-60.79272 4.7701,-5.79895 12.4551,-14.11046 15.3875,-25.3576298 -0.0988,-0.003 -0.21225,0.007 -0.3128,0.005 0.0903,-0.14881 0.1683,-0.28485 0.2593,-0.43569 z"
       id="path4271"
       sodipodi:nodetypes="ccccccccccccccccsc" />
    <path
       style="color:#000000;fill:none;stroke:#c87137;stroke-width:3.99999976;stroke-linecap:round;stroke-linejoin:round;stroke-miterlimit:4;stroke-opacity:1;stroke-dasharray:none;stroke-dashoffset:0;marker:none;visibility:visible;display:inline;overflow:visible;enable-background:accumulate"
       d="m 361.52318,259.86606 c -0.50216,3.5 -0.90508,7 -4,10.5 -5.33333,3.80165 -10.66667,5.94909 -16,8.5"
       id="path4399"
       sodipodi:nodetypes="ccc" />
    <path
       sodipodi:nodetypes="ccc"
       id="path4461"
       d="m 388.11986,262.67452 c -2.36335,3.49401 -0.83721,8.92628 -2.48824,14.19995 -1.67228,4.88267 -5.23096,9.28885 -11.74483,13.18313"
       style="color:#000000;fill:none;stroke:#c87137;stroke-width:3.99999976;stroke-linecap:round;stroke-linejoin:round;stroke-miterlimit:4;stroke-opacity:1;stroke-dasharray:none;stroke-dashoffset:0;marker:none;visibility:visible;display:inline;overflow:visible;enable-background:accumulate" />
    <path
       id="path2949"
       style="color:#000000;fill:none;stroke:#008000;stroke-width:4;stroke-linecap:round;stroke-linejoin:round;stroke-miterlimit:4;stroke-opacity:1;stroke-dasharray:none;stroke-dashoffset:0;marker:none;visibility:visible;display:inline;overflow:visible;enable-background:accumulate"
       d="m 273.55412,257.89246 c 6.76754,1.01812 12.56256,0.1879 18.0111,4.08523 11.10018,11.6601 12.39779,12.37718 23.39477,20.5673 13.80636,11.68179 13.37755,12.67377 30.75042,10.90644 7.23711,-0.68895 27.71265,9.67726 50.02471,6.99001 19.75,-1.125 26.56433,-16.15109 20.80025,-27.81066 -9.66667,-13 -34.82129,-7.868 -55.59188,-13.80761 -9.96862,-6.24485 -22.09183,-16.04322 -25,-25 -3.31438,-5.16329 -5.29554,-12.1598 -9.87875,-21.05426 -2.29112,-12.0251 -6.86645,-21.60497 4.64962,-21.95626 7.70557,4.84074 27.9862,-2.03628 33.63465,10.65019 5.08274,21.57161 12.06119,30.61067 29.79467,39.19352 27.12282,2.09156 40.3614,7.70504 52.7532,5.70238 10.79555,1.94312 23.00211,5.98872 35.42395,5.45162"
       sodipodi:nodetypes="cccccccccccccc" />
    <path
       style="fill:none;stroke:#000000;stroke-width:4;stroke-linecap:round;stroke-linejoin:round;stroke-miterlimit:4;stroke-opacity:1;stroke-dasharray:none"
       d="m 413.43836,283.28962 c -1.16137,4.58598 -5.70602,9.02945 -9.0355,10.7052 -3.28152,0.95988 -4.6104,0.1544 -7.78239,0.27408 -3.09544,-1.16413 -2.49737,-7.17438 -2.33137,-9.88302 0.36405,-3.63852 2.42346,-4.23966 4.3977,-7.0217 1.76497,-2.35884 4.49805,-5.25035 7.44441,-3.14374 1.76009,3.34046 7.48072,4.36976 7.30715,9.06918 z"
       id="path5861-9"
       sodipodi:nodetypes="ccccccc" />
    <path
       style="fill:none;stroke:#80ff00;stroke-width:3.99999976;stroke-linecap:round;stroke-linejoin:round;stroke-miterlimit:4;stroke-opacity:1;stroke-dasharray:none"
       d="m 249.88312,171.48542 c 0.91321,1.63589 2.00859,-1.86966 3.00719,0.10802 2.68212,1.18084 5.54842,0.059 8.22727,1.31217 1.90322,0.41355 3.82025,-0.24231 5.72218,0.22723 2.00439,0.41824 3.96531,0.0947 5.93367,-0.15838 1.7228,-0.13267 3.4383,0.19731 5.15537,0.22482 1.32596,0.89215 2.56685,0.67232 3.94101,1.466 1.66087,0.94981 3.61482,0.13047 5.20205,1.50797 -0.0527,0.86677 -1.73212,1.70554 -2.42549,2.56208 -2.24054,2.03673 -4.48031,4.07519 -6.72272,6.10823 -1.60117,0.72658 -2.93085,2.36944 -4.72156,2.34451 -1.38415,0.38827 -2.54156,1.46533 -3.81997,2.15045 -1.34321,0.95022 -2.94572,1.87273 -4.42036,2.68331 -1.44799,1.03113 -3.00665,1.80066 -4.29249,3.20485 -1.00915,1.09773 -2.29474,2.4508 -3.08441,0.13842 -0.89664,-1.50848 -0.62804,-3.58047 -1.53663,-5.09459 -0.58377,-1.96933 -1.63117,-3.64501 -1.63008,-5.95848 -0.80409,-1.94773 -1.24536,-4.26672 -2.35623,-5.97981 -0.3951,-1.86678 -1.22208,-3.61576 -1.85209,-5.31475 -0.20992,-0.39283 -0.73643,-1.07508 -0.32657,-1.5318 z"
       id="path2942" />
    <path
       style="fill:none;stroke:#80ff00;stroke-width:3.99999952;stroke-linecap:round;stroke-linejoin:round;stroke-miterlimit:4;stroke-opacity:1;stroke-dasharray:none"
       d="m 214.66544,284.35607 c -0.30609,-3.46951 -3.45488,-6.64611 -3.93496,-10.07127 -0.14353,-4.45627 -1.4299,-7.65347 -3.8542,-11.73341 -1.06324,-2.70979 -2.76389,-10.65451 -4.54561,-5.5782 -1.11387,3.35897 -2.38838,4.52545 -3.39161,8.59894 -1.81048,3.88651 -2.83049,6.07891 -3.64563,9.88548 -1.35399,2.33994 -4.77972,6.22219 -4.43394,7.40803"
       id="path2956-7"
       sodipodi:nodetypes="ccccccc" />
    <path
       style="fill:none;stroke:#80ff00;stroke-width:3.99999952;stroke-linecap:round;stroke-linejoin:round;stroke-miterlimit:4;stroke-opacity:1;stroke-dasharray:none"
       d="m 170.0967,281.65911 c -0.15402,-0.60443 -2.04225,-3.93396 -2.45244,-5.54309 -1.86538,-4.93203 -6.06293,-8.37671 -6.89309,-13.68214 -2.84077,-5.1626 -2.88105,-7.46529 -5.69931,-11.59639 -1.43632,3.74328 -4.36484,7.04089 -5.84381,10.75929 -1.81988,5.81731 -3.24555,5.2058 -6.72906,11.48968 -1.14796,1.04683 -1.01794,2.80577 -3.41816,5.57539"
       id="path2958-6"
       sodipodi:nodetypes="ccccccc" />
    <path
       style="color:#000000;fill:none;stroke:#80ff00;stroke-width:4;stroke-linecap:round;stroke-linejoin:round;stroke-miterlimit:4;stroke-opacity:1;stroke-dasharray:none;stroke-dashoffset:0;marker:none;visibility:visible;display:inline;overflow:visible;enable-background:accumulate"
       d="m 222.01354,251.20008 c -3.1844,0.87236 -5.68072,2.20615 -8.48385,3.08753 -2.90912,0.91472 -6.0482,0.56739 -9.12578,0.5822 -3.38979,0.0162 -7.83229,-0.43611 -11.60945,-0.52802 -4.71804,-0.11482 -8.99639,0.62214 -13.79058,0.38318 -5.84565,-0.29127 -11.79664,-1.89153 -17.70094,-2.96293 -2.96901,-0.53874 -5.86417,-1.3568 -8.87365,-1.63396 -2.32083,-0.21374 -6.99156,-0.18232 -8.69355,-0.12909"
       id="path2833"
       sodipodi:nodetypes="csssssss" />
    <path
       style="color:#000000;fill:none;stroke:#80ff00;stroke-width:4;stroke-linecap:round;stroke-linejoin:round;stroke-miterlimit:4;stroke-opacity:1;stroke-dasharray:none;stroke-dashoffset:0;marker:none;visibility:visible;display:inline;overflow:visible;enable-background:accumulate"
       d="m 16.832546,279.42591 c 4.247379,-5.65526 9.64971,-12.43468 26.472768,-12.51033 7.298999,-0.62435 13.08914,-6.03524 25.312342,-4.72925 12.776312,-0.29035 20.838154,-0.46254 32.920824,-2.21156 8.89899,-0.0312 18.08077,-5.5086 25.18259,-5.98895 6.56181,0.41886 10.26415,-3.603 17.31717,-4.08813"
       id="path4125"
       sodipodi:nodetypes="cccccc" />
    <path
       style="color:#000000;fill:none;stroke:#80ff00;stroke-width:3.99999976;stroke-linecap:round;stroke-linejoin:round;stroke-miterlimit:4;stroke-opacity:1;stroke-dasharray:none;stroke-dashoffset:0;marker:none;visibility:visible;display:inline;overflow:visible;enable-background:accumulate"
       d="m 216.67947,236.00066 c 0.36588,-1.24834 5.31646,-0.0569 7.62136,-0.25852 1.87316,-0.16382 3.73801,-0.62432 5.59545,-0.58379 2.06019,0.045 4.11502,0.38121 6.17493,0.33561 3.09214,-0.0684 6.1953,-0.44625 9.2892,-0.7346 1.51259,-0.14101 2.84346,-0.8971 4.30796,-0.56624 1.81889,0.41158 5.004,-0.63922 5.50714,0.55294 0.46772,1.10824 -2.31146,2.52143 -2.94777,4.09036 -2.04531,5.04242 -4.64353,5.53776 -7.40782,7.74995 -1.95136,1.56152 -4.20823,2.2397 -5.98019,3.95422 -1.94312,1.88027 -3.20125,4.29583 -5.11995,6.20231 -1.20729,1.19965 -2.73221,1.92757 -3.9916,3.02415 -1.88223,1.63891 -1.78199,-1.36587 -2.11519,-2.38138 -0.61668,-1.87958 -1.58039,-3.6128 -2.29819,-5.4505 -0.62039,-1.58824 -1.94355,-2.82884 -2.4475,-4.51932 -0.54481,-1.82757 -1.08343,-3.72373 -2.04564,-5.36437 -0.92121,-1.57074 -1.96113,-3.10734 -3.09143,-4.56997 -0.55539,-0.71861 -1.23546,-0.85054 -1.05075,-1.48079 z"
       id="path2870"
       sodipodi:nodetypes="csssssssssssssssss" />
    <path
       style="fill:none;stroke:#80ff00;stroke-width:3.99999976;stroke-linecap:round;stroke-linejoin:round;stroke-miterlimit:4;stroke-opacity:1;stroke-dasharray:none"
       d="m 144.42237,233.28518 c 0.26795,-0.72202 1.70777,-4.60123 2.42127,-6.52344 2.31638,-6.02836 6.51541,-7.59172 10.90387,-14.66696 1.83539,-4.28098 7.84274,-12.10587 9.22976,-14.2441 1.35942,4.89285 2.89022,9.61701 4.75786,14.20821 3.35753,6.41235 8.57999,13.11579 11.05597,21.43839"
       id="path2958-1"
       sodipodi:nodetypes="cccccc" />
    <path
       style="color:#000000;fill:none;stroke:#80ff00;stroke-width:4;stroke-linecap:round;stroke-linejoin:round;stroke-miterlimit:4;stroke-opacity:1;stroke-dasharray:none;stroke-dashoffset:0;marker:none;visibility:visible;display:inline;overflow:visible;enable-background:accumulate"
       d="m 253.64742,185.96463 c -2.88416,1.93489 -6.50971,1.93799 -9.57141,3.93821 -3.17752,2.07588 -7.53121,2.62904 -11.35384,3.25914 -4.21041,0.69397 -9.79248,-0.78868 -14.46265,0.0362 -4.46275,0.78828 -12.16323,0.33312 -17.10593,2.00832 -8.29847,0.51917 -15.6657,3.20493 -22.20915,2.64979 -3.71575,-0.31524 -7.38551,-0.51443 -11.14452,-0.27213 -2.8996,0.18716 -10.43925,-0.76529 -12.50483,0.40791"
       id="path2833-4"
       sodipodi:nodetypes="cssscsss" />
    <path
       style="fill:none;stroke:#80ff00;stroke-width:3.99999952;stroke-linecap:round;stroke-linejoin:round;stroke-miterlimit:4;stroke-opacity:1;stroke-dasharray:none"
       d="m 215.86213,229.21363 c 0.22474,-0.73663 2.758,-4.67071 3.35646,-6.63188 1.95543,-6.15491 5.62054,-8.4138 7.38486,-16.4386 3.81955,-6.11027 5.94088,-8.81269 9.67631,-13.63723 1.58588,4.84645 2.94953,9.78337 4.58989,14.6038 1.95099,7.48257 3.76027,6.88845 7.75841,15.15183 1.37319,1.44415 2.51443,4.14856 6.06061,6.90114"
       id="path2958-6-2"
       sodipodi:nodetypes="ccccccc" />
    <path
       style="color:#000000;fill:none;stroke:#80ff00;stroke-width:3.99999976;stroke-linecap:round;stroke-linejoin:round;stroke-miterlimit:4;stroke-opacity:1;stroke-dasharray:none;stroke-dashoffset:0;marker:none;visibility:visible;display:inline;overflow:visible;enable-background:accumulate"
       d="m -4.0162002,148.95238 c 5.4056671,11.92703 7.6058659,23.25797 24.2223662,35.067 8.241152,4.19147 15.300259,8.99146 26.907446,5.79246 13.880327,-3.23758 18.076598,-6.98917 31.606857,-5.30861 10.725427,2.00175 22.112351,9.01582 33.562071,8.46682 14.56434,2.04535 29.61983,11.26285 43.08274,4.96567"
       id="path4125-8-4"
       sodipodi:nodetypes="cccccc" />
    <path
       sodipodi:nodetypes="cccccccccc"
       id="path5785"
       d="m 413.65516,192.13932 c -0.0132,-0.9425 -0.53771,-1.51826 -0.0952,-3.30905 0.32568,-1.09105 0.0972,-2.262 -0.097,-3.37219 -0.0238,-1.77669 -0.0746,-2.77523 -0.11664,-4.0542 -1.03033,0.41935 -2.17558,0.63519 -3.07699,1.2828 -1.24892,0.77869 -1.84047,0.83884 -2.59653,1.08251 -1.43201,0.8863 -1.8879,0.81697 -2.75207,1.14736 1.18654,0.92695 2.35557,1.80038 3.56362,2.94686 0.51787,0.20136 1.23682,0.71312 2.50002,2.06727 0.40261,0.40983 1.72265,1.47192 2.67092,2.20862 z"
       style="color:#000000;fill:none;stroke:#ff0000;stroke-width:4;stroke-linecap:round;stroke-linejoin:round;stroke-miterlimit:4;stroke-opacity:1;stroke-dasharray:none;stroke-dashoffset:0;marker:none;visibility:visible;display:inline;overflow:visible;enable-background:accumulate" />
    <path
       sodipodi:nodetypes="ccccccc"
       id="path5787-4"
       d="m 391.60968,159.52374 c 1.8987,-0.38949 2.43296,-0.0788 4.56826,0.56715 1.30993,0.85872 5.87906,1.63705 7.20834,1.69407 0.86361,1.31966 1.49198,2.63718 1.5242,3.68103 1.42441,3.40632 1.20567,5.45182 1.68556,7.15 0.41297,1.1174 0.95615,4.49811 1.19362,5.32157 0.0878,0.64179 0.16812,1.25726 0.43328,2.52222"
       style="color:#000000;fill:none;stroke:#ff0000;stroke-width:4;stroke-linecap:round;stroke-linejoin:round;stroke-miterlimit:4;stroke-opacity:1;stroke-dasharray:none;stroke-dashoffset:0;marker:none;visibility:visible;display:inline;overflow:visible;enable-background:accumulate" />
    <path
       sodipodi:nodetypes="ccccc"
       id="path5789-8"
       d="m 419.24507,176.4477 c -1.32263,0.42228 -2.26707,0.73302 -3.44485,0.80711 -1.74479,-0.21713 -4.51279,0.0267 -6.83755,0.0709 1.62892,-1.30729 3.14538,-3.13191 4.8931,-3.8799 0.97585,-0.62922 1.86892,-1.1134 2.96115,-1.94649"
       style="color:#000000;fill:none;stroke:#ff0000;stroke-width:4;stroke-linecap:round;stroke-linejoin:round;stroke-miterlimit:4;stroke-opacity:1;stroke-dasharray:none;stroke-dashoffset:0;marker:none;visibility:visible;display:inline;overflow:visible;enable-background:accumulate" />
    <path
       sodipodi:nodetypes="ccccc"
       id="path5791-8"
       d="m 413.64691,162.80869 c -1.7492,-0.3679 -1.86975,0.34168 -5.64585,-0.90404 l -4.50795,-0.084 c 1.08621,-1.26392 3.82681,-1.62988 5.83774,-3.4471 1.05679,-0.12661 2.25676,-1.22764 4.17773,-1.91611"
       style="color:#000000;fill:none;stroke:#ff0000;stroke-width:4;stroke-linecap:round;stroke-linejoin:round;stroke-miterlimit:4;stroke-opacity:1;stroke-dasharray:none;stroke-dashoffset:0;marker:none;visibility:visible;display:inline;overflow:visible;enable-background:accumulate" />
    <path
       style="color:#000000;fill:none;stroke:#ff0000;stroke-width:4;stroke-linecap:round;stroke-linejoin:round;stroke-miterlimit:4;stroke-opacity:1;stroke-dasharray:none;stroke-dashoffset:0;marker:none;visibility:visible;display:inline;overflow:visible;enable-background:accumulate"
       d="m 405.78355,176.75984 c -1.26004,0.67634 -2.42085,0.41041 -4.46083,2.31039 -1.20035,1.23129 -2.9264,1.79275 -4.54595,2.35449 -2.3744,1.27648 -3.73724,1.9446 -5.46535,2.83064 -0.22403,-1.66322 -0.80487,-3.32778 -0.62851,-4.98946 0.0871,-2.2151 -0.28109,-3.03707 -0.53038,-4.21043 0.0912,-2.53502 -0.34597,-3.08334 -0.56215,-4.46258 2.12783,0.8777 4.17144,1.77165 6.60672,2.51604 0.65896,0.53294 1.88231,1.10114 4.63479,1.76514 0.84841,0.22761 3.25653,1.18139 4.95166,1.88577 z"
       id="path5756-1"
       sodipodi:nodetypes="cccccccccc" />
    <path
       style="color:#000000;fill:none;stroke:#ff0000;stroke-width:4;stroke-linecap:round;stroke-linejoin:round;stroke-miterlimit:4;stroke-opacity:1;stroke-dasharray:none;stroke-dashoffset:0;marker:none;visibility:visible;display:inline;overflow:visible;enable-background:accumulate"
       d="m 388.71322,178.4813 c -1.92055,0.89063 -3.62569,2.49444 -5.19119,3.44769 -4.4734,0.36577 -12.65842,0.94248 -16.4524,0.14781 -9.07151,-2.82673 -12.50915,-5.52873 -16.68392,-11.16076 -5.55914,-2.62645 -6.91341,-5.88421 -9.57949,-9.56375 -7.68332,-7.0706 -7.67448,-4.83202 -10.52479,-5.37211"
       id="path5758-7"
       sodipodi:nodetypes="cccccc" />
    <path
       style="color:#000000;fill:none;stroke:#ff0000;stroke-width:4;stroke-linecap:round;stroke-linejoin:round;stroke-miterlimit:4;stroke-opacity:1;stroke-dasharray:none;stroke-dashoffset:0;marker:none;visibility:visible;display:inline;overflow:visible;enable-background:accumulate"
       d="m 401.23206,188.21113 c -2.39407,0.0205 -5.29474,-0.30207 -8.0594,-0.72539 -3.22537,-0.49379 -7.58356,-4.09938 -11.24629,-5.75958 2.65351,3.679 1.42426,5.7683 5.86912,10.64168 2.61774,4.337 3.43805,4.25611 5.01675,6.03956"
       id="path5760-4"
       sodipodi:nodetypes="csccc"
       inkscape:transform-center-x="-8.7849266"
       inkscape:transform-center-y="6.3066877" />
    <path
       style="color:#000000;fill:none;stroke:#ff0000;stroke-width:4;stroke-linecap:round;stroke-linejoin:round;stroke-miterlimit:4;stroke-opacity:1;stroke-dasharray:none;stroke-dashoffset:0;marker:none;visibility:visible;display:inline;overflow:visible;enable-background:accumulate"
       d="m 332.80346,183.02418 c 2.63333,-0.96318 5.78692,1.01951 7.93767,-1.44705 5.26712,-0.88592 9.88135,-2.65674 12.9596,-5.56529 -4.54377,0.1035 -8.97189,-1.74072 -12.42228,-2.26751 -4.50214,-0.56607 -5.23064,-1.94977 -6.77776,-2.4197"
       id="path5762-0"
       sodipodi:nodetypes="ccccc"
       inkscape:transform-center-x="9.8691755"
       inkscape:transform-center-y="-0.61705097" />
    <path
       style="color:#000000;fill:none;stroke:#80ff00;stroke-width:3.99999976;stroke-linecap:round;stroke-linejoin:round;stroke-miterlimit:4;stroke-opacity:1;stroke-dasharray:none;stroke-dashoffset:0;marker:none;visibility:visible;display:inline;overflow:visible;enable-background:accumulate"
       d="m 250.12375,243.98714 c 4.86384,1.23548 -0.93892,3.91654 5.33117,7.94417"
       id="path3308"
       sodipodi:nodetypes="cc" />
  </g>
</svg>
