<?xml version="1.0" encoding="UTF-8" standalone="no"?>
<!-- Created with Inkscape (http://www.inkscape.org/) -->

<svg
   xmlns:dc="http://purl.org/dc/elements/1.1/"
   xmlns:cc="http://creativecommons.org/ns#"
   xmlns:rdf="http://www.w3.org/1999/02/22-rdf-syntax-ns#"
   xmlns:svg="http://www.w3.org/2000/svg"
   xmlns="http://www.w3.org/2000/svg"
   xmlns:xlink="http://www.w3.org/1999/xlink"
   xmlns:sodipodi="http://sodipodi.sourceforge.net/DTD/sodipodi-0.dtd"
   xmlns:inkscape="http://www.inkscape.org/namespaces/inkscape"
   width="480"
   height="320"
   id="svg2"
   version="1.1"
   inkscape:version="0.47 r22583"
   sodipodi:docname="itnas230.svg"
   inkscape:export-xdpi="90"
   inkscape:export-ydpi="90"
   inkscape:export-filename="itnas230.png">
  <defs
     id="defs4" />
  <sodipodi:namedview
     id="base"
     pagecolor="#ffffff"
     bordercolor="#666666"
     borderopacity="1.0"
     inkscape:pageopacity="1"
     inkscape:pageshadow="2"
     inkscape:zoom="1"
     inkscape:cx="302.02871"
     inkscape:cy="137.11443"
     inkscape:document-units="px"
     inkscape:current-layer="layer1"
     showgrid="false"
     inkscape:snap-nodes="true"
     inkscape:snap-global="true"
     inkscape:snap-grids="false"
     showguides="true"
     inkscape:window-width="1280"
     inkscape:window-height="774"
     inkscape:window-x="1276"
     inkscape:window-y="1020"
     inkscape:window-maximized="1"
     inkscape:object-nodes="true">
    <inkscape:grid
       empspacing="5"
       visible="true"
       enabled="true"
       snapvisiblegridlinesonly="true"
       type="xygrid"
       id="grid2816" />
  </sodipodi:namedview>
  <metadata
     id="metadata7">
    <rdf:RDF>
      <cc:Work
         rdf:about="">
        <dc:format>image/svg+xml</dc:format>
        <dc:type
           rdf:resource="http://purl.org/dc/dcmitype/StillImage" />
        <dc:title />
      </cc:Work>
    </rdf:RDF>
  </metadata>
  <g
     inkscape:label="Layer 1"
     inkscape:groupmode="layer"
     id="layer1">
    <g
       transform="matrix(-0.23743457,-0.97140353,0.97140353,-0.23743457,-339.41981,755.5841)"
       id="g4295">
      <path
         id="path3379"
         style="fill:none;stroke:#00ff00;stroke-width:2;stroke-linecap:butt;stroke-linejoin:miter;stroke-miterlimit:4;stroke-opacity:1;stroke-dasharray:none"
         d="m 355.9297,715.24596 c 0,0 39.24793,-13.01169 39.24793,-13.01169 l -39.16834,-13.76569 c 0,0 -0.0796,26.77738 -0.0796,26.77738 l 1e-5,0 z"
         sodipodi:nodetypes="ccccc" />
      <g
         id="g4287">
        <path
           id="path3383"
           d="m 371.62036,708.72351 -0.0314,-13.73249"
           style="fill:none;stroke:#0000ff;stroke-width:2;stroke-linecap:butt;stroke-linejoin:bevel;stroke-miterlimit:4;stroke-opacity:1;stroke-dasharray:none" />
        <path
           id="path3385"
           d="m 376.18181,705.21741 0.0878,-6.72028"
           style="fill:none;stroke:#0000ff;stroke-width:2;stroke-linecap:butt;stroke-linejoin:bevel;stroke-miterlimit:4;stroke-opacity:1;stroke-dasharray:none" />
        <path
           style="color:#000000;fill:none;stroke:#0000ff;stroke-width:2;stroke-linecap:butt;stroke-linejoin:bevel;stroke-miterlimit:4;stroke-opacity:1;stroke-dasharray:none;stroke-dashoffset:0;marker:none;visibility:visible;display:inline;overflow:visible;enable-background:accumulate"
           d="m 353.79955,695.04474 c -1.74046,2.59236 -4.57365,5.20477 -5.72669,7.95796 -1.15304,2.75321 -0.1313,5.68189 2.47034,5.66704 2.60164,-0.0149 3.72687,-2.79593 2.86335,-5.66704 -0.86353,-2.8711 -3.98623,-5.06415 -6.232,-7.53595"
           id="path3030-6-4"
           sodipodi:nodetypes="czzzc" />
        <path
           style="color:#000000;fill:none;stroke:#0000ff;stroke-width:2;stroke-linecap:butt;stroke-linejoin:bevel;stroke-miterlimit:4;stroke-opacity:1;stroke-dasharray:none;stroke-dashoffset:0;marker:none;visibility:visible;display:inline;overflow:visible;enable-background:accumulate"
           d="m 366.35051,708.65083 c -2.13356,-3.95705 -5.08175,-4.05662 -7.74352,-0.088"
           id="rect10452-1-7-4-2-0"
           sodipodi:nodetypes="cc" />
        <path
           style="color:#000000;fill:none;stroke:#0000ff;stroke-width:2;stroke-linecap:butt;stroke-linejoin:bevel;stroke-miterlimit:4;stroke-opacity:1;stroke-dasharray:none;stroke-dashoffset:0;marker:none;visibility:visible;display:inline;overflow:visible;enable-background:accumulate"
           d="m 366.25372,695.06371 c -1.66338,4.19209 -5.97081,4.14958 -7.61852,0.0367"
           id="rect10452-1-4-4-0-7-9"
           sodipodi:nodetypes="cc" />
        <path
           style="color:#000000;fill:none;stroke:#0000ff;stroke-width:2;stroke-linecap:butt;stroke-linejoin:bevel;stroke-miterlimit:4;stroke-opacity:1;stroke-dasharray:none;stroke-dashoffset:0;marker:none;visibility:visible;display:inline;overflow:visible;enable-background:accumulate"
           d="m 357.79068,701.88677 9.33026,0.0884"
           id="rect10452-0-7-4-1-8" />
      </g>
    </g>
    <g
       transform="matrix(0.04381773,-0.99903954,0.99903954,0.04381773,138.42893,517.09668)"
       id="g2941">
      <path
         id="path2914"
         style="fill:none;stroke:#00ff00;stroke-width:2;stroke-linecap:butt;stroke-linejoin:miter;stroke-miterlimit:4;stroke-opacity:1;stroke-dasharray:none"
         d="m 264.52427,95.80081 c 0,0 39.24793,-13.01169 39.24793,-13.01169 L 264.60386,69.02343 c 0,0 -0.0796,26.77738 -0.0796,26.77738 l 10e-6,0 z"
         sodipodi:nodetypes="ccccc" />
      <g
         id="g2936">
        <path
           id="path2918"
           style="color:#000000;fill:none;stroke:#0000ff;stroke-width:2;stroke-linecap:butt;stroke-linejoin:bevel;stroke-miterlimit:4;stroke-opacity:1;stroke-dasharray:none;stroke-dashoffset:0;marker:none;visibility:visible;display:inline;overflow:visible;enable-background:accumulate"
           d="m 273.83282,88.55378 -7.30791,-12.283319 m 0,12.283319 7.30791,-12.283319"
           sodipodi:nodetypes="cccc" />
        <path
           sodipodi:nodetypes="cccc"
           d="m 283.11077,88.55378 -7.3079,-12.283319 m 0,12.283319 7.3079,-12.283319"
           style="color:#000000;fill:none;stroke:#0000ff;stroke-width:2;stroke-linecap:butt;stroke-linejoin:bevel;stroke-miterlimit:4;stroke-opacity:1;stroke-dasharray:none;stroke-dashoffset:0;marker:none;visibility:visible;display:inline;overflow:visible;enable-background:accumulate"
           id="path2930" />
        <path
           sodipodi:nodetypes="cccc"
           d="m 262.31454,88.55378 -7.3079,-12.283319 m 0,12.283319 7.3079,-12.283319"
           style="color:#000000;fill:none;stroke:#0000ff;stroke-width:2;stroke-linecap:butt;stroke-linejoin:bevel;stroke-miterlimit:4;stroke-opacity:1;stroke-dasharray:none;stroke-dashoffset:0;marker:none;visibility:visible;display:inline;overflow:visible;enable-background:accumulate"
           id="path2934" />
      </g>
    </g>
    <path
       style="fill:none;stroke:#000000;stroke-width:3;stroke-linecap:butt;stroke-linejoin:miter;stroke-miterlimit:4;stroke-opacity:1;stroke-dasharray:3, 3;stroke-dashoffset:0"
       d="m 212.61976,196.03868 0,0 c 10.56872,-0.8132 16.93314,0.41964 17.3658,7.96416 0.74547,12.99923 -15.1554,25.79121 -11.40201,49.60421 3.03594,19.26118 21.20876,20.40765 24.71403,25.19975 3.11061,4.25255 -10.63924,10.91518 -2.04542,22.16865 5.24084,6.86281 22.73557,8.99858 26.91662,-5.3728 3.82533,-13.14868 -11.85496,-15.63381 -7.13002,-19.53665 8.50988,-7.02923 13.36054,-10.57909 12.56645,-28.20587 -1.24639,-27.82132 -3.83742,-25.55288 -9.78773,-36.66603 -5.75276,-10.7442 4.2693,-19.42334 9.07309,-19.79297"
       id="path5999" />
    <g
       transform="translate(-170.51262,-913.12163)"
       id="g3043"
       style="color:#000000;fill:none;stroke:#94f3f3;stroke-width:2;stroke-linecap:butt;stroke-linejoin:miter;stroke-miterlimit:4;stroke-opacity:1;stroke-dasharray:2, 2;stroke-dashoffset:0;marker:none;visibility:visible;display:inline;overflow:visible;enable-background:accumulate"
       inkscape:tile-cx="15.109744"
       inkscape:tile-cy="17.67915"
       inkscape:tile-w="49.999998"
       inkscape:tile-h="49.999997"
       inkscape:tile-x0="-9.8902554"
       inkscape:tile-y0="-7.3208484">
      <path
         sodipodi:end="0.78539816"
         sodipodi:start="0"
         transform="matrix(0.87297133,0,0,0.87297132,-30.753089,794.24592)"
         d="m 137.17872,60.845364 c 0,7.595223 -3.01719,14.879366 -8.38783,20.25 l -20.25,-20.25 z"
         sodipodi:ry="28.637825"
         sodipodi:rx="28.637825"
         sodipodi:cy="60.845364"
         sodipodi:cx="108.54089"
         id="path2813"
         style="color:#000000;fill:none;stroke:#94f3f3;stroke-width:2.29102612;stroke-linecap:butt;stroke-linejoin:miter;stroke-miterlimit:4;stroke-opacity:1;stroke-dasharray:2.291026, 2.291026;stroke-dashoffset:0;marker:none;visibility:visible;display:inline;overflow:visible;enable-background:accumulate"
         sodipodi:type="arc" />
      <path
         sodipodi:end="0.78539816"
         sodipodi:start="0"
         transform="matrix(-0.87297133,0,0,-0.87297132,158.75309,900.47844)"
         d="m 137.17872,60.845364 c 0,7.595223 -3.01719,14.879366 -8.38783,20.25 l -20.25,-20.25 z"
         sodipodi:ry="28.637825"
         sodipodi:rx="28.637825"
         sodipodi:cy="60.845364"
         sodipodi:cx="108.54089"
         id="path2813-82"
         style="color:#000000;fill:none;stroke:#94f3f3;stroke-width:2.29102612;stroke-linecap:butt;stroke-linejoin:miter;stroke-miterlimit:4;stroke-opacity:1;stroke-dasharray:2.291026, 2.291026;stroke-dashoffset:0;marker:none;visibility:visible;display:inline;overflow:visible;enable-background:accumulate"
         sodipodi:type="arc" />
      <path
         sodipodi:end="0.78539816"
         sodipodi:start="0"
         transform="matrix(0,0.87297133,-0.87297132,0,117.11626,752.60909)"
         d="m 137.17872,60.845364 c 0,7.595223 -3.01719,14.879366 -8.38783,20.25 l -20.25,-20.25 z"
         sodipodi:ry="28.637825"
         sodipodi:rx="28.637825"
         sodipodi:cy="60.845364"
         sodipodi:cx="108.54089"
         id="path2813-5"
         style="color:#000000;fill:none;stroke:#94f3f3;stroke-width:2.29102612;stroke-linecap:butt;stroke-linejoin:miter;stroke-miterlimit:4;stroke-opacity:1;stroke-dasharray:2.291026, 2.291026;stroke-dashoffset:0;marker:none;visibility:visible;display:inline;overflow:visible;enable-background:accumulate"
         sodipodi:type="arc" />
      <path
         sodipodi:end="0.78539816"
         sodipodi:start="0"
         transform="matrix(0,-0.87297133,0.87297132,0,10.883739,942.11527)"
         d="m 137.17872,60.845364 c 0,7.595223 -3.01719,14.879366 -8.38783,20.25 l -20.25,-20.25 z"
         sodipodi:ry="28.637825"
         sodipodi:rx="28.637825"
         sodipodi:cy="60.845364"
         sodipodi:cx="108.54089"
         id="path2813-82-7"
         style="color:#000000;fill:none;stroke:#94f3f3;stroke-width:2.29102612;stroke-linecap:butt;stroke-linejoin:miter;stroke-miterlimit:4;stroke-opacity:1;stroke-dasharray:2.291026, 2.291026;stroke-dashoffset:0;marker:none;visibility:visible;display:inline;overflow:visible;enable-background:accumulate"
         sodipodi:type="arc" />
    </g>
    <path
       style="color:#000000;fill:none;stroke:#ba4571;stroke-width:2;stroke-linecap:butt;stroke-linejoin:miter;stroke-miterlimit:4;stroke-opacity:1;stroke-dasharray:none;stroke-dashoffset:0;marker:none;visibility:visible;display:inline;overflow:visible;enable-background:accumulate"
       d="m 330,250 0,40"
       id="path11954-1" />
    <path
       style="color:#000000;fill:none;stroke:#ba4571;stroke-width:2;stroke-linecap:butt;stroke-linejoin:miter;stroke-miterlimit:4;stroke-opacity:1;stroke-dasharray:none;stroke-dashoffset:0;marker:none;visibility:visible;display:inline;overflow:visible;enable-background:accumulate"
       d="m 310,270 40,0"
       id="path11956-5" />
    <g
       id="g5325"
       transform="matrix(-0.17596432,0.46801344,-0.46801344,-0.17596432,293.82964,-0.43583931)"
       style="stroke-width:3.99999976;stroke-miterlimit:4;stroke-dasharray:none"
       inkscape:transform-center-x="131.04613"
       inkscape:transform-center-y="-126.93167">
      <path
         sodipodi:nodetypes="cccc"
         id="path4547-1"
         d="m 290,245 -25,25 50,0 -25,-25 z"
         style="fill:none;stroke:#00ff66;stroke-width:3.99999976;stroke-linecap:butt;stroke-linejoin:miter;stroke-miterlimit:4;stroke-opacity:1;stroke-dasharray:none" />
      <path
         transform="translate(0,-10)"
         d="m 300,270 c 0,5.52285 -4.47715,10 -10,10 -5.52285,0 -10,-4.47715 -10,-10 0,-5.52285 4.47715,-10 10,-10 5.52285,0 10,4.47715 10,10 z"
         sodipodi:ry="10"
         sodipodi:rx="10"
         sodipodi:cy="270"
         sodipodi:cx="290"
         id="path4551"
         style="color:#000000;fill:none;stroke:#00ff66;stroke-width:3.99999976;stroke-linecap:butt;stroke-linejoin:miter;stroke-miterlimit:4;stroke-opacity:1;stroke-dasharray:none;stroke-dashoffset:0;marker:none;visibility:visible;display:inline;overflow:visible;enable-background:accumulate"
         sodipodi:type="arc" />
    </g>
    <g
       transform="matrix(-0.48919703,-0.10337439,0.10337439,-0.48919703,464.93715,191.26995)"
       id="g7865"
       style="stroke-width:4;stroke-miterlimit:4;stroke-dasharray:none"
       inkscape:transform-center-x="-100.34079"
       inkscape:transform-center-y="-180.74802">
      <path
         style="fill:none;stroke:#00ff66;stroke-width:4;stroke-linecap:butt;stroke-linejoin:miter;stroke-miterlimit:4;stroke-opacity:1;stroke-dasharray:none"
         d="m 290,245 -25,25 50,0 -25,-25 z"
         id="path7867"
         sodipodi:nodetypes="cccc" />
      <path
         sodipodi:type="arc"
         style="color:#000000;fill:none;stroke:#00ff66;stroke-width:4;stroke-linecap:butt;stroke-linejoin:miter;stroke-miterlimit:4;stroke-opacity:1;stroke-dasharray:none;stroke-dashoffset:0;marker:none;visibility:visible;display:inline;overflow:visible;enable-background:accumulate"
         id="path7869"
         sodipodi:cx="290"
         sodipodi:cy="270"
         sodipodi:rx="10"
         sodipodi:ry="10"
         d="m 300,270 a 10,10 0 1 1 -20,0 10,10 0 1 1 20,0 z"
         transform="translate(0,-10)" />
    </g>
    <g
       id="g7894"
       transform="matrix(1.3923057,1.4357873,-1.4357873,1.3923057,130.26045,89.520263)"
       style="stroke-width:1;stroke-miterlimit:4;stroke-dasharray:none"
       inkscape:transform-center-x="117.50059"
       inkscape:transform-center-y="-121.49093">
      <path
         sodipodi:open="true"
         sodipodi:end="7.8539816"
         sodipodi:start="4.712389"
         d="M 9.807655e-8,-5 A 5,5 0 0 1 1.6987242e-7,5"
         sodipodi:ry="5"
         sodipodi:rx="5"
         sodipodi:cy="0"
         sodipodi:cx="0"
         id="path7831"
         style="color:#000000;fill:none;stroke:#ff0101;stroke-width:1;stroke-linecap:butt;stroke-linejoin:miter;stroke-miterlimit:4;stroke-opacity:1;stroke-dasharray:none;stroke-dashoffset:0;marker:none;visibility:visible;display:inline;overflow:visible;enable-background:accumulate"
         sodipodi:type="arc" />
      <path
         id="path7871"
         d="M 0,0 10,0"
         style="color:#000000;fill:none;stroke:#ff0101;stroke-width:1;stroke-linecap:butt;stroke-linejoin:miter;stroke-miterlimit:4;stroke-opacity:1;stroke-dasharray:none;stroke-dashoffset:0;marker:none;visibility:visible;display:inline;overflow:visible;enable-background:accumulate" />
    </g>
    <g
       transform="matrix(-0.45934678,0.88825703,-0.88825703,-0.45934678,360.37014,60.973589)"
       id="g7898"
       style="stroke-width:2;stroke-miterlimit:4;stroke-dasharray:none"
       inkscape:transform-center-x="-98.656064"
       inkscape:transform-center-y="-165.69549">
      <path
         sodipodi:type="arc"
         style="color:#000000;fill:none;stroke:#ff0101;stroke-width:1;stroke-linecap:butt;stroke-linejoin:miter;stroke-miterlimit:4;stroke-opacity:1;stroke-dasharray:none;stroke-dashoffset:0;marker:none;visibility:visible;display:inline;overflow:visible;enable-background:accumulate"
         id="path7900"
         sodipodi:cx="0"
         sodipodi:cy="0"
         sodipodi:rx="5"
         sodipodi:ry="5"
         d="M 9.807655e-8,-5 A 5,5 0 0 1 1.6987242e-7,5"
         sodipodi:start="4.712389"
         sodipodi:end="7.8539816"
         sodipodi:open="true"
         transform="matrix(1.9975971,0.09800643,-0.09800643,1.9975971,-11.245855,17.49459)" />
      <path
         style="color:#000000;fill:none;stroke:#ff0101;stroke-width:2;stroke-linecap:butt;stroke-linejoin:miter;stroke-miterlimit:4;stroke-opacity:1;stroke-dasharray:none;stroke-dashoffset:0;marker:none;visibility:visible;display:inline;overflow:visible;enable-background:accumulate"
         d="M -11.245854,17.49459 8.7301188,18.474651"
         id="path7902" />
    </g>
    <path
       id="path7517"
       style="color:#000000;fill:none;stroke:#ff0101;stroke-width:2;stroke-linecap:butt;stroke-linejoin:miter;stroke-miterlimit:4;stroke-opacity:1;stroke-dasharray:2, 6;stroke-dashoffset:0;marker:none;visibility:visible;display:inline;overflow:visible;enable-background:accumulate"
       d="M 144.1835,103.87814 250.75123,213.78515 339.94975,60.241904"
       sodipodi:nodetypes="ccc" />
  </g>
  <g
     inkscape:groupmode="layer"
     id="layer2"
     inkscape:label="trees"
     sodipodi:insensitive="true">
    <g
       id="g11689"
       transform="matrix(0.99216243,-0.12495485,0.12495485,0.99216243,-47.48345,6.4367919)">
      <use
         height="320"
         width="480"
         id="use11513"
         transform="matrix(-1.002688,0.04470699,-0.04470699,-1.002688,-95.557051,-44.043295)"
         xlink:href="#g3043"
         inkscape:tiled-clone-of="#g3043"
         y="0"
         x="0" />
      <use
         height="320"
         width="480"
         id="use11515"
         transform="matrix(-0.88363474,0.42434768,-0.42434768,-0.88363474,-106.34792,53.022359)"
         xlink:href="#g3043"
         inkscape:tiled-clone-of="#g3043"
         y="0"
         x="0" />
      <use
         height="320"
         width="480"
         id="use11517"
         transform="matrix(0.93395668,0.18647853,-0.18647853,0.93395668,104.66855,201.3456)"
         xlink:href="#g3043"
         inkscape:tiled-clone-of="#g3043"
         y="0"
         x="0" />
      <use
         height="320"
         width="480"
         id="use11519"
         transform="matrix(0.64388602,0.70721586,-0.70721586,0.64388602,36.181134,286.38641)"
         xlink:href="#g3043"
         inkscape:tiled-clone-of="#g3043"
         y="0"
         x="0" />
      <use
         height="320"
         width="480"
         id="use11521"
         transform="matrix(-0.85546924,0.45576709,-0.45576709,-0.85546924,-104.04299,209.26411)"
         xlink:href="#g3043"
         inkscape:tiled-clone-of="#g3043"
         y="0"
         x="0" />
      <use
         height="320"
         width="480"
         id="use11523"
         transform="matrix(-0.85668769,0.50425089,-0.50425089,-0.85668769,-109.20731,264.77812)"
         xlink:href="#g3043"
         inkscape:tiled-clone-of="#g3043"
         y="0"
         x="0" />
      <use
         height="320"
         width="480"
         id="use11525"
         transform="matrix(0.08136879,1.0069159,-1.0069159,0.08136879,-41.095115,429.97557)"
         xlink:href="#g3043"
         inkscape:tiled-clone-of="#g3043"
         y="0"
         x="0" />
      <use
         height="320"
         width="480"
         id="use11527"
         transform="matrix(-0.68621562,-0.6904452,0.6904452,-0.68621562,-10.772154,248.72838)"
         xlink:href="#g3043"
         inkscape:tiled-clone-of="#g3043"
         y="0"
         x="0" />
      <use
         height="320"
         width="480"
         id="use11529"
         transform="matrix(0.93911936,0.33556878,-0.33556878,0.93911936,142.06296,113.54998)"
         xlink:href="#g3043"
         inkscape:tiled-clone-of="#g3043"
         y="0"
         x="0" />
      <use
         height="320"
         width="480"
         id="use11531"
         transform="matrix(0.02999458,-0.94996433,0.94996433,0.02999458,129.54992,-31.113525)"
         xlink:href="#g3043"
         inkscape:tiled-clone-of="#g3043"
         y="0"
         x="0" />
      <use
         height="320"
         width="480"
         id="use11533"
         transform="matrix(-0.80611144,-0.55523024,0.55523024,-0.80611144,16.697592,6.3995742)"
         xlink:href="#g3043"
         inkscape:tiled-clone-of="#g3043"
         y="0"
         x="0" />
      <use
         height="320"
         width="480"
         id="use11535"
         transform="matrix(-0.98827082,-0.03298104,0.03298104,-0.98827082,-39.52879,99.627544)"
         xlink:href="#g3043"
         inkscape:tiled-clone-of="#g3043"
         y="0"
         x="0" />
      <use
         height="320"
         width="480"
         id="use11537"
         transform="matrix(0.70744763,-0.64502895,0.64502895,0.70744763,184.14965,194.10006)"
         xlink:href="#g3043"
         inkscape:tiled-clone-of="#g3043"
         y="0"
         x="0" />
      <use
         height="320"
         width="480"
         id="use11539"
         transform="matrix(-0.36151061,0.97570865,-0.97570865,-0.36151061,-38.907227,347.85869)"
         xlink:href="#g3043"
         inkscape:tiled-clone-of="#g3043"
         y="0"
         x="0" />
      <use
         height="320"
         width="480"
         id="use11541"
         transform="matrix(0.41657543,-0.88026524,0.88026524,0.41657543,169.80371,252.40602)"
         xlink:href="#g3043"
         inkscape:tiled-clone-of="#g3043"
         y="0"
         x="0" />
      <use
         height="320"
         width="480"
         id="use11543"
         transform="matrix(-1.0239295,-0.00970204,0.00970204,-1.0239295,-45.078746,298.52609)"
         xlink:href="#g3043"
         inkscape:tiled-clone-of="#g3043"
         y="0"
         x="0" />
      <use
         height="320"
         width="480"
         id="use11545"
         transform="matrix(-0.75127525,-0.59496458,0.59496458,-0.75127525,72.312608,-92.849672)"
         xlink:href="#g3043"
         inkscape:tiled-clone-of="#g3043"
         y="0"
         x="0" />
      <use
         height="320"
         width="480"
         id="use11547"
         transform="matrix(-0.24160425,0.96763169,-0.96763169,-0.24160425,24.317056,154.13817)"
         xlink:href="#g3043"
         inkscape:tiled-clone-of="#g3043"
         y="0"
         x="0" />
      <use
         height="320"
         width="480"
         id="use11549"
         transform="matrix(0.99338131,-0.0718113,0.0718113,0.99338131,223.60155,176.19114)"
         xlink:href="#g3043"
         inkscape:tiled-clone-of="#g3043"
         y="0"
         x="0" />
      <use
         height="320"
         width="480"
         id="use11551"
         transform="matrix(1.0325364,-0.02351965,0.02351965,1.0325364,225.44617,234.26239)"
         xlink:href="#g3043"
         inkscape:tiled-clone-of="#g3043"
         y="0"
         x="0" />
      <use
         height="320"
         width="480"
         id="use11553"
         transform="matrix(0.78909707,0.56203028,-0.56203028,0.78909707,163.44537,327.37086)"
         xlink:href="#g3043"
         inkscape:tiled-clone-of="#g3043"
         y="0"
         x="0" />
      <use
         height="320"
         width="480"
         id="use11555"
         transform="matrix(0.74019326,-0.61977428,0.61977428,0.74019326,232.64634,249.27252)"
         xlink:href="#g3043"
         inkscape:tiled-clone-of="#g3043"
         y="0"
         x="0" />
      <use
         height="320"
         width="480"
         id="use11557"
         transform="matrix(0.14113213,-1.036257,1.036257,0.14113213,196.84409,215.41461)"
         xlink:href="#g3043"
         inkscape:tiled-clone-of="#g3043"
         y="0"
         x="0" />
      <use
         height="320"
         width="480"
         id="use11559"
         transform="matrix(-0.81188048,0.66484292,-0.66484292,-0.81188048,-12.772648,383.78495)"
         xlink:href="#g3043"
         inkscape:tiled-clone-of="#g3043"
         y="0"
         x="0" />
      <use
         height="320"
         width="480"
         id="use11561"
         transform="matrix(0.85942215,0.49672999,-0.49672999,0.85942215,223.58788,129.35589)"
         xlink:href="#g3043"
         inkscape:tiled-clone-of="#g3043"
         y="0"
         x="0" />
      <use
         height="320"
         width="480"
         id="use11563"
         transform="matrix(-0.02345001,-0.97856104,0.97856104,-0.02345001,228.71406,-36.441994)"
         xlink:href="#g3043"
         inkscape:tiled-clone-of="#g3043"
         y="0"
         x="0" />
      <use
         height="320"
         width="480"
         id="use11565"
         transform="matrix(0.9657122,0.36267465,-0.36267465,0.9657122,244.11742,221.94234)"
         xlink:href="#g3043"
         inkscape:tiled-clone-of="#g3043"
         y="0"
         x="0" />
      <use
         height="320"
         width="480"
         id="use11567"
         transform="matrix(-0.97875487,-0.10005814,0.10005814,-0.97875487,65.844358,95.020296)"
         xlink:href="#g3043"
         inkscape:tiled-clone-of="#g3043"
         y="0"
         x="0" />
      <use
         height="320"
         width="480"
         id="use11569"
         transform="matrix(-0.7662192,-0.66482258,0.66482258,-0.7662192,125.71454,94.961937)"
         xlink:href="#g3043"
         inkscape:tiled-clone-of="#g3043"
         y="0"
         x="0" />
      <use
         height="320"
         width="480"
         id="use11571"
         transform="matrix(0.13673236,0.94933256,-0.94933256,0.13673236,116.95238,376.19145)"
         xlink:href="#g3043"
         inkscape:tiled-clone-of="#g3043"
         y="0"
         x="0" />
      <use
         height="320"
         width="480"
         id="use11573"
         transform="matrix(-0.88990952,0.34566488,-0.34566488,-0.88990952,48.260575,295.56358)"
         xlink:href="#g3043"
         inkscape:tiled-clone-of="#g3043"
         y="0"
         x="0" />
      <use
         height="320"
         width="480"
         id="use11575"
         transform="matrix(0.02759608,-0.97197325,0.97197325,0.02759608,232.16226,264.67477)"
         xlink:href="#g3043"
         inkscape:tiled-clone-of="#g3043"
         y="0"
         x="0" />
      <use
         height="320"
         width="480"
         id="use11577"
         transform="matrix(0.63621589,-0.75211777,0.75211777,0.63621589,333.70757,-20.251352)"
         xlink:href="#g3043"
         inkscape:tiled-clone-of="#g3043"
         y="0"
         x="0" />
      <use
         height="320"
         width="480"
         id="use11579"
         transform="matrix(-0.06001654,-1.0243701,1.0243701,-0.06001654,278.3276,-44.018763)"
         xlink:href="#g3043"
         inkscape:tiled-clone-of="#g3043"
         y="0"
         x="0" />
      <use
         height="320"
         width="480"
         id="use11581"
         transform="matrix(-0.97949095,0.34434793,-0.34434793,-0.97949095,88.462574,90.547546)"
         xlink:href="#g3043"
         inkscape:tiled-clone-of="#g3043"
         y="0"
         x="0" />
      <use
         height="320"
         width="480"
         id="use11583"
         transform="matrix(-0.98874188,-0.06264092,0.06264092,-0.98874188,112.86646,94.605695)"
         xlink:href="#g3043"
         inkscape:tiled-clone-of="#g3043"
         y="0"
         x="0" />
      <use
         height="320"
         width="480"
         id="use11585"
         transform="matrix(-0.94268483,-0.1866129,0.1866129,-0.94268483,124.47692,135.18483)"
         xlink:href="#g3043"
         inkscape:tiled-clone-of="#g3043"
         y="0"
         x="0" />
      <use
         height="320"
         width="480"
         id="use11587"
         transform="matrix(0.9609886,3.7743073e-4,-3.7743073e-4,0.9609886,318.63667,328.42234)"
         xlink:href="#g3043"
         inkscape:tiled-clone-of="#g3043"
         y="0"
         x="0" />
      <use
         height="320"
         width="480"
         id="use11589"
         transform="matrix(0.64089347,0.7073343,-0.7073343,0.64089347,236.11184,434.17992)"
         xlink:href="#g3043"
         inkscape:tiled-clone-of="#g3043"
         y="0"
         x="0" />
      <use
         height="320"
         width="480"
         id="use11591"
         transform="matrix(0.7420546,-0.64387162,0.64387162,0.7420546,337.63898,347.85076)"
         xlink:href="#g3043"
         inkscape:tiled-clone-of="#g3043"
         y="0"
         x="0" />
      <use
         height="320"
         width="480"
         id="use11593"
         transform="matrix(0.97856402,-0.04316421,0.04316421,0.97856402,374.54925,76.599593)"
         xlink:href="#g3043"
         inkscape:tiled-clone-of="#g3043"
         y="0"
         x="0" />
      <use
         height="320"
         width="480"
         id="use11595"
         transform="matrix(-0.75128437,-0.67733173,0.67733173,-0.75128437,227.22539,-52.959132)"
         xlink:href="#g3043"
         inkscape:tiled-clone-of="#g3043"
         y="0"
         x="0" />
      <use
         height="320"
         width="480"
         id="use11597"
         transform="matrix(-0.31845988,0.89528444,-0.89528444,-0.31845988,172.90396,192.3194)"
         xlink:href="#g3043"
         inkscape:tiled-clone-of="#g3043"
         y="0"
         x="0" />
      <use
         height="320"
         width="480"
         id="use11599"
         transform="matrix(0.97377579,-0.15013105,0.15013105,0.97377579,380.83473,213.80538)"
         xlink:href="#g3043"
         inkscape:tiled-clone-of="#g3043"
         y="0"
         x="0" />
      <use
         height="320"
         width="480"
         id="use11601"
         transform="matrix(-0.99086998,-0.1418958,0.1418958,-0.99086998,169.99699,137.63356)"
         xlink:href="#g3043"
         inkscape:tiled-clone-of="#g3043"
         y="0"
         x="0" />
      <use
         height="320"
         width="480"
         id="use11607"
         transform="matrix(0.08608461,0.97877532,-0.97877532,0.08608461,207.83302,477.36821)"
         xlink:href="#g3043"
         inkscape:tiled-clone-of="#g3043"
         y="0"
         x="0" />
      <use
         height="320"
         width="480"
         id="use11609"
         transform="matrix(0.96238874,0.30933288,-0.30933288,0.96238874,396.17312,115.63736)"
         xlink:href="#g3043"
         inkscape:tiled-clone-of="#g3043"
         y="0"
         x="0" />
      <use
         height="320"
         width="480"
         id="use11611"
         transform="matrix(-0.51213021,0.86025402,-0.86025402,-0.51213021,203.92329,123.43936)"
         xlink:href="#g3043"
         inkscape:tiled-clone-of="#g3043"
         y="0"
         x="0" />
      <use
         height="320"
         width="480"
         id="use11613"
         transform="matrix(0.31983195,0.89935817,-0.89935817,0.31983195,287.97109,234.91065)"
         xlink:href="#g3043"
         inkscape:tiled-clone-of="#g3043"
         y="0"
         x="0" />
      <use
         height="320"
         width="480"
         id="use11615"
         transform="matrix(-0.65262328,0.78103655,-0.78103655,-0.65262328,193.65598,206.13382)"
         xlink:href="#g3043"
         inkscape:tiled-clone-of="#g3043"
         y="0"
         x="0" />
      <use
         height="320"
         width="480"
         id="use11617"
         transform="matrix(-0.02835382,-0.97565968,0.97565968,-0.02835382,374.47567,112.08715)"
         xlink:href="#g3043"
         inkscape:tiled-clone-of="#g3043"
         y="0"
         x="0" />
      <use
         height="320"
         width="480"
         id="use11619"
         transform="matrix(0.67053641,-0.71286038,0.71286038,0.67053641,435.35023,237.82684)"
         xlink:href="#g3043"
         inkscape:tiled-clone-of="#g3043"
         y="0"
         x="0" />
      <use
         height="320"
         width="480"
         id="use11621"
         transform="matrix(-0.40104301,-0.88482191,0.88482191,-0.40104301,328.09809,194.78781)"
         xlink:href="#g3043"
         inkscape:tiled-clone-of="#g3043"
         y="0"
         x="0" />
      <use
         height="320"
         width="480"
         id="use11623"
         transform="matrix(-0.73741789,0.68288172,-0.68288172,-0.73741789,193.26854,393.33214)"
         xlink:href="#g3043"
         inkscape:tiled-clone-of="#g3043"
         y="0"
         x="0" />
      <use
         height="320"
         width="480"
         id="use11625"
         transform="matrix(0.93733462,-0.35325387,0.35325387,0.93733462,486.1961,41.090591)"
         xlink:href="#g3043"
         inkscape:tiled-clone-of="#g3043"
         y="0"
         x="0" />
      <use
         height="320"
         width="480"
         id="use11627"
         transform="matrix(0.8339304,0.63694528,-0.63694528,0.8339304,409.88743,190.99547)"
         xlink:href="#g3043"
         inkscape:tiled-clone-of="#g3043"
         y="0"
         x="0" />
      <use
         height="320"
         width="480"
         id="use11629"
         transform="matrix(0.16270946,0.94574611,-0.94574611,0.16270946,318.05032,230.59787)"
         xlink:href="#g3043"
         inkscape:tiled-clone-of="#g3043"
         y="0"
         x="0" />
      <use
         height="320"
         width="480"
         id="use11631"
         transform="matrix(0.96016257,0.25292574,-0.25292574,0.96016257,449.16551,255.36196)"
         xlink:href="#g3043"
         inkscape:tiled-clone-of="#g3043"
         y="0"
         x="0" />
      <use
         height="320"
         width="480"
         id="use11633"
         transform="matrix(0.42268917,0.89914473,-0.89914473,0.42268917,350.43799,340.51352)"
         xlink:href="#g3043"
         inkscape:tiled-clone-of="#g3043"
         y="0"
         x="0" />
      <use
         height="320"
         width="480"
         id="use11635"
         transform="matrix(-0.81533294,0.63479153,-0.63479153,-0.81533294,238.00645,280.38581)"
         xlink:href="#g3043"
         inkscape:tiled-clone-of="#g3043"
         y="0"
         x="0" />
      <use
         height="320"
         width="480"
         id="use11637"
         transform="matrix(-0.95044844,0.44395542,-0.44395542,-0.95044844,235.1432,301.26397)"
         xlink:href="#g3043"
         inkscape:tiled-clone-of="#g3043"
         y="0"
         x="0" />
      <use
         height="320"
         width="480"
         id="use11639"
         transform="matrix(-0.81843585,0.57892841,-0.57892841,-0.81843585,240.98148,376.69804)"
         xlink:href="#g3043"
         inkscape:tiled-clone-of="#g3043"
         y="0"
         x="0" />
      <use
         height="320"
         width="480"
         id="use11641"
         transform="matrix(0.94925153,-0.26022981,0.26022981,0.94925153,535.16731,49.972574)"
         xlink:href="#g3043"
         inkscape:tiled-clone-of="#g3043"
         y="0"
         x="0" />
      <use
         height="320"
         width="480"
         id="use11643"
         transform="matrix(0.54551679,0.83911118,-0.83911118,0.54551679,416.13689,194.32524)"
         xlink:href="#g3043"
         inkscape:tiled-clone-of="#g3043"
         y="0"
         x="0" />
      <use
         height="320"
         width="480"
         id="use11645"
         transform="matrix(-0.83552109,-0.52468638,0.52468638,-0.83552109,359.78075,7.7237807)"
         xlink:href="#g3043"
         inkscape:tiled-clone-of="#g3043"
         y="0"
         x="0" />
      <use
         height="320"
         width="480"
         id="use11647"
         transform="matrix(-1.0162804,-0.14548465,0.14548465,-1.0162804,314.91057,83.656609)"
         xlink:href="#g3043"
         inkscape:tiled-clone-of="#g3043"
         y="0"
         x="0" />
      <use
         height="320"
         width="480"
         id="use11649"
         transform="matrix(-0.68849492,0.75953997,-0.75953997,-0.68849492,290.3293,253.80262)"
         xlink:href="#g3043"
         inkscape:tiled-clone-of="#g3043"
         y="0"
         x="0" />
      <use
         height="320"
         width="480"
         id="use11651"
         transform="matrix(-0.99074537,-0.18535058,0.18535058,-0.99074537,323.92227,182.71076)"
         xlink:href="#g3043"
         inkscape:tiled-clone-of="#g3043"
         y="0"
         x="0" />
      <use
         height="320"
         width="480"
         id="use11653"
         transform="matrix(-0.46410819,-0.93334216,0.93334216,-0.46410819,424.56876,189.19693)"
         xlink:href="#g3043"
         inkscape:tiled-clone-of="#g3043"
         y="0"
         x="0" />
      <use
         height="320"
         width="480"
         id="use11655"
         transform="matrix(0.96376693,0.27134024,-0.27134024,0.96376693,500.59707,459.74816)"
         xlink:href="#g3043"
         inkscape:tiled-clone-of="#g3043"
         y="0"
         x="0" />
      <use
         height="320"
         width="480"
         id="use11657"
         transform="matrix(-0.63684525,0.82496666,-0.82496666,-0.63684525,344.19084,65.360034)"
         xlink:href="#g3043"
         inkscape:tiled-clone-of="#g3043"
         y="0"
         x="0" />
      <use
         height="320"
         width="480"
         id="use11659"
         transform="matrix(-0.2555854,0.99981146,-0.99981146,-0.2555854,370.48558,159.60104)"
         xlink:href="#g3043"
         inkscape:tiled-clone-of="#g3043"
         y="0"
         x="0" />
      <use
         height="320"
         width="480"
         id="use11661"
         transform="matrix(0.72883678,0.64235577,-0.64235577,0.72883678,498.87291,234.11079)"
         xlink:href="#g3043"
         inkscape:tiled-clone-of="#g3043"
         y="0"
         x="0" />
      <use
         height="320"
         width="480"
         id="use11663"
         transform="matrix(-0.92730238,-0.25375381,0.25375381,-0.92730238,381.76216,78.403109)"
         xlink:href="#g3043"
         inkscape:tiled-clone-of="#g3043"
         y="0"
         x="0" />
      <use
         height="320"
         width="480"
         id="use11665"
         transform="matrix(0.34742583,-0.93299745,0.93299745,0.34742583,562.83561,140.85313)"
         xlink:href="#g3043"
         inkscape:tiled-clone-of="#g3043"
         y="0"
         x="0" />
      <use
         height="320"
         width="480"
         id="use11667"
         transform="matrix(-0.85927588,0.54440738,-0.54440738,-0.85927588,339.6911,270.75698)"
         xlink:href="#g3043"
         inkscape:tiled-clone-of="#g3043"
         y="0"
         x="0" />
      <use
         height="320"
         width="480"
         id="use11669"
         transform="matrix(-0.22958177,1.0058878,-1.0058878,-0.22958177,376.36743,410.29996)"
         xlink:href="#g3043"
         inkscape:tiled-clone-of="#g3043"
         y="0"
         x="0" />
      <use
         height="320"
         width="480"
         id="use11671"
         transform="matrix(-0.94323001,0.45869555,-0.45869555,-0.94323001,335.79963,355.7921)"
         xlink:href="#g3043"
         inkscape:tiled-clone-of="#g3043"
         y="0"
         x="0" />
      <use
         height="320"
         width="480"
         id="use11673"
         transform="matrix(0.61033781,-0.77290374,0.77290374,0.61033781,629.47512,-23.387173)"
         xlink:href="#g3043"
         inkscape:tiled-clone-of="#g3043"
         y="0"
         x="0" />
      <use
         height="320"
         width="480"
         id="use11675"
         transform="matrix(0.7256226,-0.65851372,0.65851372,0.7256226,634.38381,47.663644)"
         xlink:href="#g3043"
         inkscape:tiled-clone-of="#g3043"
         y="0"
         x="0" />
      <use
         height="320"
         width="480"
         id="use11677"
         transform="matrix(-0.77997853,-0.65516871,0.65516871,-0.77997853,473.90986,-5.3396856)"
         xlink:href="#g3043"
         inkscape:tiled-clone-of="#g3043"
         y="0"
         x="0" />
      <use
         height="320"
         width="480"
         id="use11679"
         transform="matrix(-0.00788146,1.0020406,-1.0020406,-0.00788146,446.34375,271.88257)"
         xlink:href="#g3043"
         inkscape:tiled-clone-of="#g3043"
         y="0"
         x="0" />
      <use
         height="320"
         width="480"
         id="use11681"
         transform="matrix(-0.3785292,0.95644036,-0.95644036,-0.3785292,412.85491,296.75559)"
         xlink:href="#g3043"
         inkscape:tiled-clone-of="#g3043"
         y="0"
         x="0" />
      <use
         height="320"
         width="480"
         id="use11683"
         transform="matrix(0.43925527,0.89167723,-0.89167723,0.43925527,505.75239,391.01829)"
         xlink:href="#g3043"
         inkscape:tiled-clone-of="#g3043"
         y="0"
         x="0" />
      <use
         height="320"
         width="480"
         id="use11685"
         transform="matrix(-0.9943211,-0.13055012,0.13055012,-0.9943211,415.71817,239.55053)"
         xlink:href="#g3043"
         inkscape:tiled-clone-of="#g3043"
         y="0"
         x="0" />
      <use
         height="320"
         width="480"
         id="use11687"
         transform="matrix(0.7608382,-0.59740716,0.59740716,0.7608382,634.47679,353.95168)"
         xlink:href="#g3043"
         inkscape:tiled-clone-of="#g3043"
         y="0"
         x="0" />
      <g
         id="g2624"
         transform="matrix(0.99996865,0.00791849,0.00791849,-0.99996865,192.44343,423.32337)"
         style="color:#000000;fill:none;stroke:#94f3f3;stroke-width:2.29102612;stroke-linecap:butt;stroke-linejoin:miter;stroke-miterlimit:4;stroke-opacity:1;stroke-dasharray:none;stroke-dashoffset:0;marker:none;visibility:visible;display:inline;overflow:visible;enable-background:accumulate">
        <path
           sodipodi:end="0.78539816"
           sodipodi:start="0"
           transform="matrix(0.7740359,-0.3206162,0.3206162,0.7740359,-31.006067,110.12456)"
           d="m 137.17872,60.845364 c 0,7.595223 -3.01719,14.879366 -8.38783,20.25 l -20.25,-20.25 z"
           sodipodi:ry="28.637825"
           sodipodi:rx="28.637825"
           sodipodi:cy="60.845364"
           sodipodi:cx="108.54089"
           id="path2631"
           style="color:#000000;fill:none;stroke:#94f3f3;stroke-width:2.73453999;stroke-linecap:butt;stroke-linejoin:miter;stroke-miterlimit:4;stroke-opacity:1;stroke-dasharray:none;stroke-dashoffset:0;marker:none;visibility:visible;display:inline;overflow:visible;enable-background:accumulate"
           sodipodi:type="arc" />
        <path
           sodipodi:end="0.78539816"
           sodipodi:start="0"
           transform="matrix(-0.7740359,0.3206162,-0.3206162,-0.7740359,176.03905,134.71762)"
           d="m 137.17872,60.845364 c 0,7.595223 -3.01719,14.879366 -8.38783,20.25 l -20.25,-20.25 z"
           sodipodi:ry="28.637825"
           sodipodi:rx="28.637825"
           sodipodi:cy="60.845364"
           sodipodi:cx="108.54089"
           id="path2633"
           style="color:#000000;fill:none;stroke:#94f3f3;stroke-width:2.73453999;stroke-linecap:butt;stroke-linejoin:miter;stroke-miterlimit:4;stroke-opacity:1;stroke-dasharray:none;stroke-dashoffset:0;marker:none;visibility:visible;display:inline;overflow:visible;enable-background:accumulate"
           sodipodi:type="arc" />
        <path
           sodipodi:end="0.78539816"
           sodipodi:start="0"
           transform="matrix(-0.3206162,-0.7740359,0.7740359,-0.3206162,60.21996,225.94365)"
           d="m 137.17872,60.845364 c 0,7.595223 -3.01719,14.879366 -8.38783,20.25 l -20.25,-20.25 z"
           sodipodi:ry="28.637825"
           sodipodi:rx="28.637825"
           sodipodi:cy="60.845364"
           sodipodi:cx="108.54089"
           id="path2635"
           style="color:#000000;fill:none;stroke:#94f3f3;stroke-width:2.73453999;stroke-linecap:butt;stroke-linejoin:miter;stroke-miterlimit:4;stroke-opacity:1;stroke-dasharray:none;stroke-dashoffset:0;marker:none;visibility:visible;display:inline;overflow:visible;enable-background:accumulate"
           sodipodi:type="arc" />
        <path
           id="path2611"
           d="m 72.540945,121.38694 0,33.64154"
           style="color:#000000;fill:none;stroke:#94f3f3;stroke-width:2.29102612;stroke-linecap:butt;stroke-linejoin:miter;stroke-miterlimit:4;stroke-opacity:1;stroke-dasharray:none;stroke-dashoffset:0;marker:none;visibility:visible;display:inline;overflow:visible;enable-background:accumulate" />
      </g>
    </g>
    <g
       id="g7765"
       transform="matrix(0.61703705,0.7869341,-0.7869341,0.61703705,-68.915106,321.29366)">
      <g
         transform="translate(-106.19878,-52.789203)"
         id="g7160">
        <path
           sodipodi:nodetypes="ccccc"
           d="m 169.3616,113.77679 0.52265,13.84374 c -10.55148,-7.48858 -17.42179,-6.72932 -27.37094,-1.40548 l 0.45482,-12.51201 c 9.77928,-6.31967 17.42892,-6.1614 26.39347,0.0737 z"
           style="fill:none;stroke:#0000ff;stroke-width:4;stroke-linecap:butt;stroke-linejoin:miter;stroke-miterlimit:4;stroke-opacity:1;stroke-dasharray:none"
           id="rect10452-1-8-0-7-2" />
        <path
           style="color:#000000;fill:none;stroke:#0000ff;stroke-width:4;stroke-linecap:butt;stroke-linejoin:miter;stroke-miterlimit:4;stroke-opacity:1;stroke-dasharray:none;stroke-dashoffset:0;marker:none;visibility:visible;display:inline;overflow:visible;enable-background:accumulate"
           d="m 143.72874,89.083426 c 0,7.603452 0.15858,14.476734 6.26332,14.385864 6.05465,-0.0901 6.6486,-12.445714 12.60668,-12.397124 6.00815,0.049 6.07007,6.582042 6.07007,14.378274"
           id="path4346-45"
           sodipodi:nodetypes="czzs" />
        <path
           id="path6598"
           style="color:#000000;fill:none;stroke:#0000ff;stroke-width:4;stroke-linecap:square;stroke-linejoin:miter;stroke-miterlimit:4;stroke-opacity:1;stroke-dasharray:none;stroke-dashoffset:0;marker:none;visibility:visible;display:inline;overflow:visible;enable-background:accumulate"
           d="m 156.19878,84.457876 0,-16.5 m 11.10714,8.25 -22.21428,0" />
      </g>
      <path
         sodipodi:nodetypes="ccccccccccccc"
         d="m 50,-105 -40,140 -20,20 -40,140 40,-20 40,0 20,20 20,-20 40,0 40,20 L 110,55 90,35 50,-105 z"
         style="color:#000000;fill:none;stroke:#808080;stroke-width:4;stroke-linecap:butt;stroke-linejoin:miter;stroke-miterlimit:4;stroke-opacity:1;stroke-dasharray:none;stroke-dashoffset:0;marker:none;visibility:visible;display:inline;overflow:visible;enable-background:accumulate"
         id="path10399-9-40-1" />
    </g>
    <use
       x="0"
       y="0"
       xlink:href="#g7160"
       id="use7469"
       width="480"
       height="320"
       transform="matrix(0.36724272,0.93012515,-0.93012515,0.36724272,59.287169,211.71782)" />
  </g>
</svg>
