<?xml version="1.0" encoding="UTF-8" standalone="no"?>
<!-- Created with Inkscape (http://www.inkscape.org/) -->

<svg
   xmlns:dc="http://purl.org/dc/elements/1.1/"
   xmlns:cc="http://creativecommons.org/ns#"
   xmlns:rdf="http://www.w3.org/1999/02/22-rdf-syntax-ns#"
   xmlns:svg="http://www.w3.org/2000/svg"
   xmlns="http://www.w3.org/2000/svg"
   xmlns:sodipodi="http://sodipodi.sourceforge.net/DTD/sodipodi-0.dtd"
   xmlns:inkscape="http://www.inkscape.org/namespaces/inkscape"
   width="480"
   height="320"
   id="svg2"
   version="1.1"
   inkscape:version="0.48.0 r9654"
   sodipodi:docname="itnas270.svg"
   inkscape:export-xdpi="90"
   inkscape:export-ydpi="90"
   inkscape:export-filename="itnas270.png">
  <defs
     id="defs4">
    <inkscape:perspective
       sodipodi:type="inkscape:persp3d"
       inkscape:vp_x="0 : 160 : 1"
       inkscape:vp_y="0 : 1000 : 0"
       inkscape:vp_z="480 : 160 : 1"
       inkscape:persp3d-origin="240 : 106.66667 : 1"
       id="perspective8" />
  </defs>
  <sodipodi:namedview
     id="base"
     pagecolor="#ffffff"
     bordercolor="#666666"
     borderopacity="1.0"
     inkscape:pageopacity="1"
     inkscape:pageshadow="2"
     inkscape:zoom="1"
     inkscape:cx="214.4704"
     inkscape:cy="137.65334"
     inkscape:document-units="px"
     inkscape:current-layer="layer1"
     showgrid="false"
     inkscape:snap-nodes="true"
     inkscape:snap-global="false"
     inkscape:snap-grids="true"
     showguides="true"
     inkscape:window-width="1280"
     inkscape:window-height="998"
     inkscape:window-x="1276"
     inkscape:window-y="-4"
     inkscape:window-maximized="1">
    <inkscape:grid
       empspacing="5"
       visible="true"
       enabled="true"
       snapvisiblegridlinesonly="true"
       type="xygrid"
       id="grid2816" />
  </sodipodi:namedview>
  <metadata
     id="metadata7">
    <rdf:RDF>
      <cc:Work
         rdf:about="">
        <dc:format>image/svg+xml</dc:format>
        <dc:type
           rdf:resource="http://purl.org/dc/dcmitype/StillImage" />
        <dc:title />
      </cc:Work>
    </rdf:RDF>
  </metadata>
  <g
     inkscape:label="Layer 1"
     inkscape:groupmode="layer"
     id="layer1"
     transform="translate(0,0)">
    <path
       style="color:#000000;fill:none;stroke:#808080;stroke-width:3.99999976;stroke-linecap:butt;stroke-linejoin:miter;stroke-miterlimit:4;stroke-opacity:1;stroke-dasharray:none;stroke-dashoffset:0;marker:none;visibility:visible;display:inline;overflow:visible;enable-background:accumulate"
       d="m 419.9136,334.01723 c -5.85597,-13.46505 -6.05896,-28.36064 -3.50455,-42.58578 0.78786,-23.94064 6.33871,-45.02675 5.05824,-69.13583 2.73396,-14.15977 -3.41469,-31.97676 -0.66584,-45.93967 -0.19494,-13.82445 -0.84511,-28.03641 -4.68692,-41.61617 -1.73529,-16.9944 7.0067,-33.21518 6.67829,-50.247581 1.28627,-9.064804 -3.9487,-17.328319 -1.80025,-26.520007 -0.0372,-11.11372 -1.46935,-22.350834 0.64314,-33.523371 0.20548,-11.113326 -0.66258,-22.5950928 -6.71713,-32.5651646 l -0.0461,-2.8392294"
       id="path4260"
       inkscape:connector-curvature="0"
       sodipodi:nodetypes="cccccccccc" />
    <path
       style="color:#000000;fill:none;stroke:#808080;stroke-width:3.99999976;stroke-linecap:butt;stroke-linejoin:miter;stroke-miterlimit:4;stroke-opacity:1;stroke-dasharray:none;stroke-dashoffset:0;marker:none;visibility:visible;display:inline;overflow:visible;enable-background:accumulate"
       d="m 325.96723,332.61728 c 0.33746,-12.92157 4.25298,-25.15978 2.68988,-38.16406 -1.46131,-22.2308 -3.24906,-44.56289 -5.42905,-66.87877 2.36572,-15.10307 2.54901,-21.68576 2.07471,-37.12978 3.00283,-13.71437 -1.07725,-28.19049 3.0914,-41.62787 -0.1804,-20.31815 -2.91629,-40.24348 -1.38103,-60.603119 0.97228,-13.0836 -1.45133,-26.484523 0.6629,-39.2964 3.58883,-8.710137 1.66444,-20.098564 2.08959,-30.030936 -1.68892,-9.579336 -2.59097,-19.1541309 -2.63574,-28.944102"
       id="path4262"
       inkscape:connector-curvature="0"
       sodipodi:nodetypes="ccccccccc" />
    <path
       style="color:#000000;fill:none;stroke:#808080;stroke-width:3.99999976;stroke-linecap:butt;stroke-linejoin:miter;stroke-miterlimit:4;stroke-opacity:1;stroke-dasharray:none;stroke-dashoffset:0;marker:none;visibility:visible;display:inline;overflow:visible;enable-background:accumulate"
       d="m 233.16649,331.58525 c -0.68981,-21.77472 -0.48598,-39.78744 3.49009,-61.49029 5.15241,-17.50833 -0.7613,-36.03436 1.61334,-57.72331 -0.49946,-18.1858 -1.7246,-36.44287 -0.65684,-54.4747 -0.79935,-11.52036 -0.6728,-22.67209 2.27801,-33.57306 -0.90391,-20.79341 -0.92684,-37.980719 -5.40216,-61.876578 -1.16964,-24.848598 4.4116,-49.567718 3.1904,-74.420377"
       id="path4264"
       inkscape:connector-curvature="0"
       sodipodi:nodetypes="ccccccc" />
    <path
       style="color:#000000;fill:none;stroke:#808080;stroke-width:3.99999976;stroke-linecap:butt;stroke-linejoin:miter;stroke-miterlimit:4;stroke-opacity:1;stroke-dasharray:none;stroke-dashoffset:0;marker:none;visibility:visible;display:inline;overflow:visible;enable-background:accumulate"
       d="m 149.8857,334.20477 c -1.72415,-17.76316 -4.63862,-35.43024 -5.12323,-53.32693 -1.56485,-19.65007 -0.58428,-39.3674 2.41764,-58.71867 -0.48679,-10.19797 1.91791,-20.19879 -1.10615,-30.81272 -3.83022,-20.14933 2.70389,-39.66041 -0.22784,-59.95016 0.92265,-8.21867 1.45948,-18.56471 1.51647,-28.86163 -1.93767,-18.23791 -3.83996,-36.336819 -2.81141,-54.406819 0.52861,-9.524474 2.51949,-18.893808 5.04071,-28.253307 0.88175,-8.16034 0.7151,-13.9633447 -0.86993,-20.21191812 -1.64134,-4.30504398 -1.14578,-9.53095558 -1.57894,-14.38843388"
       id="path4266"
       inkscape:connector-curvature="0"
       sodipodi:nodetypes="cccccccccc" />
    <path
       sodipodi:nodetypes="cccccccccc"
       inkscape:connector-curvature="0"
       id="path4288"
       d="m 495.24844,37.036399 c -19.71021,5.20524 -41.51443,5.38568 -62.33726,3.11512 -35.04443,-0.70031 -65.91036,-5.63434 -101.20136,-4.49616 -20.72714,-2.43016 -46.80772,3.03524 -67.24671,0.59185 -20.23629,0.17328 -41.03981,0.7512 -60.91793,4.1661 -24.87648,1.54246 -48.62053,-6.2281 -73.55265,-5.93619 -13.26909,-1.14333 -25.36526,3.50992 -38.820103,1.60021 -16.26833,0.0331 -32.71725,1.30607 -49.07167,-0.57168 -16.26774,-0.18264 -33.07481,0.58896 -47.66904,5.97071 l -4.15608,0.041"
       style="color:#000000;fill:none;stroke:#808080;stroke-width:4;stroke-linecap:butt;stroke-linejoin:miter;stroke-miterlimit:4;stroke-opacity:1;stroke-dasharray:none;stroke-dashoffset:0;marker:none;visibility:visible;display:inline;overflow:visible;enable-background:accumulate" />
    <path
       sodipodi:nodetypes="ccccccccc"
       inkscape:connector-curvature="0"
       id="path4290"
       d="m 492.0115,112.54339 c -18.86077,-0.29996 -36.72409,-3.78038 -55.70559,-2.39098 -32.44886,1.29893 -65.04556,2.88802 -97.6186,4.82577 -22.04497,-2.10284 -31.65329,-2.26576 -54.19592,-1.84417 -20.01799,-2.66915 -41.14784,0.95755 -60.7615,-2.74788 -29.65709,0.16036 -58.7408,2.59223 -88.45845,1.22757 -19.09727,-0.86424 -38.657723,1.29006 -57.358413,-0.58924 -12.7136,-3.19003 -29.33655,-1.47948 -43.83419,-1.85739 -13.98234,1.50125 -27.95805,2.30306 -42.24784,2.34285"
       style="color:#000000;fill:none;stroke:#808080;stroke-width:4;stroke-linecap:butt;stroke-linejoin:miter;stroke-miterlimit:4;stroke-opacity:1;stroke-dasharray:none;stroke-dashoffset:0;marker:none;visibility:visible;display:inline;overflow:visible;enable-background:accumulate" />
    <path
       sodipodi:nodetypes="ccccccc"
       inkscape:connector-curvature="0"
       id="path4292"
       d="m 490.50512,195.03195 c -31.78315,0.61316 -58.07515,0.43198 -89.75339,-3.10226 -25.55577,-4.57987 -52.59701,0.6767 -84.25496,-1.43407 -26.54463,0.44396 -53.19329,1.53296 -79.51318,0.58385 -16.81552,0.71053 -33.09298,0.59804 -49.00441,-2.02487 -30.35079,0.80347 -55.438,0.82385 -90.31723,4.80186 -36.269883,1.03967 -72.350783,-3.92137 -108.626593,-2.83587"
       style="color:#000000;fill:none;stroke:#808080;stroke-width:4;stroke-linecap:butt;stroke-linejoin:miter;stroke-miterlimit:4;stroke-opacity:1;stroke-dasharray:none;stroke-dashoffset:0;marker:none;visibility:visible;display:inline;overflow:visible;enable-background:accumulate" />
    <path
       sodipodi:nodetypes="cccccccccc"
       inkscape:connector-curvature="0"
       id="path4294"
       d="m 494.32866,269.05844 c -25.92773,1.53256 -51.71522,4.12317 -77.83786,4.55393 -28.68193,1.39096 -57.46204,0.51935 -85.70782,-2.14899 -14.88533,0.4327 -29.48286,-1.70479 -44.97533,0.98323 -29.41067,3.4046 -57.88973,-2.40343 -87.50536,0.20252 -11.99626,-0.82012 -27.09769,-1.2973 -42.12744,-1.34795 -26.6207,1.72235 -53.0385,3.41325 -79.414113,2.499 -13.90225,-0.46987 -27.57806,-2.23952 -41.2395,-4.48058 -11.91113,-0.78377 -20.3814,-0.63564 -29.50203,0.77326 -6.28379,1.45895 -13.91172,1.01846 -21.00187,1.40349"
       style="color:#000000;fill:none;stroke:#808080;stroke-width:4;stroke-linecap:butt;stroke-linejoin:miter;stroke-miterlimit:4;stroke-opacity:1;stroke-dasharray:none;stroke-dashoffset:0;marker:none;visibility:visible;display:inline;overflow:visible;enable-background:accumulate" />
    <path
       inkscape:connector-curvature="0"
       style="fill:none;stroke:#80ff00;stroke-width:3.99999976;stroke-linecap:round;stroke-linejoin:round;stroke-miterlimit:4;stroke-opacity:1;stroke-dasharray:none"
       d="m 185.07633,136.4502 c 7.45066,4.08566 12.54174,11.14856 19.22418,16.28494 6.74761,5.18647 13.67741,6.89923 17.91541,14.34762 3.06908,5.394 0.30647,15.91526 -2.36212,21.12703 -2.45332,4.79136 -3.6834,24.72352 -4.58237,27.38894 -0.68814,2.04032 -8.18554,-6.13786 -11.45935,-6.27479 -4.87753,-0.204 -10.82618,-9.08123 -17.66566,-14.95845 -8.35576,-7.18012 -9.74815,-16.49901 -9.75108,-21.76188 -0.008,-13.40035 0.39615,-13.61087 3.28321,-26.73596 0.57936,-2.63386 -1.96592,-13.45545 5.3978,-9.41746 z"
       id="path2956"
       sodipodi:nodetypes="ssssssssss" />
    <path
       inkscape:connector-curvature="0"
       style="fill:none;stroke:#80ff00;stroke-width:3.99999976;stroke-linecap:round;stroke-linejoin:round;stroke-miterlimit:4;stroke-opacity:1;stroke-dasharray:none"
       d="m 302.41895,73.357025 c -4.9327,-10.837077 12.62234,13.87348 23.09809,19.483569 4.98807,2.671285 9.86597,14.153356 10.00755,16.755546 0.42119,7.74139 3.23544,19.45225 1.16869,21.03107 -2.81957,2.15389 -2.54289,12.76328 -4.29335,12.87806 -1.84338,0.12088 -11.81217,-10.75709 -15.14001,-12.60259 -4.20791,-2.33358 -9.09825,-4.74024 -10.71586,-9.67426 -1.37289,-4.18763 -1.06984,-8.64372 -1.51233,-12.97938 -1.16894,-11.453882 2.21899,-24.276688 -2.61278,-34.892015 z"
       id="path2958"
       sodipodi:nodetypes="sssssssss" />
    <path
       inkscape:connector-curvature="0"
       style="color:#000000;fill:none;stroke:#80ff00;stroke-width:4;stroke-linecap:round;stroke-linejoin:round;stroke-miterlimit:4;stroke-opacity:1;stroke-dasharray:none;stroke-dashoffset:0;marker:none;visibility:visible;display:inline;overflow:visible;enable-background:accumulate"
       d="m 150.58215,145.58777 c 6.53165,-1.77255 15.36966,-0.57896 21.44663,-4.88328 6.30724,-4.46635 12.75177,-8.5004 19.33977,-12.59522 7.25628,-4.5103 16.56371,-10.91017 25.51924,-14.03474 11.18633,-3.90286 22.07067,-5.88859 33.13151,-10.82017 13.48671,-6.013039 25.80322,-15.532436 38.60788,-23.537715 6.43889,-4.025461 12.45388,-8.53357 19.29321,-11.81464 5.27586,-2.530616 17.2758,-6.978655 22.02172,-6.758813"
       id="path2833"
       sodipodi:nodetypes="csssssss" />
    <path
       inkscape:connector-curvature="0"
       style="color:#000000;fill:none;stroke:#80ff00;stroke-width:3.99999976;stroke-linecap:round;stroke-linejoin:round;stroke-miterlimit:4;stroke-opacity:1;stroke-dasharray:none;stroke-dashoffset:0;marker:none;visibility:visible;display:inline;overflow:visible;enable-background:accumulate"
       d="m 148.94851,118.46103 c -1.81927,-1.85987 -9.43896,4.89675 -13.69747,6.70726 -3.46079,1.47153 -7.18578,2.4114 -10.42674,4.22879 -3.59472,2.01586 -6.9062,4.54088 -10.58552,6.39655 -5.52304,2.78579 -11.3564,5.03548 -17.0893,7.43449 -2.802763,1.1729 -5.862983,1.08898 -8.137373,3.04962 -2.82411,2.43624 -9.43468,3.57502 -9.20235,6.15254 0.21599,2.3961 6.45057,2.27861 9.04861,4.45015 8.350343,6.97925 13.402713,5.41151 20.362013,6.71855 4.9126,0.92251 9.53426,-0.002 14.27395,1.35961 5.19767,1.49291 9.68921,4.5747 14.86839,6.13684 3.25892,0.98304 6.63517,0.83474 9.88917,1.58685 4.86334,1.12398 1.86199,-4.08621 1.49563,-6.19217 -0.67803,-3.89779 -0.60587,-7.86339 -1.06603,-11.78225 -0.39765,-3.38698 0.77213,-6.82077 0.0729,-10.27879 -0.75604,-3.73842 -1.58747,-7.59208 -1.43094,-11.39284 0.14988,-3.63883 0.54137,-7.32892 1.16199,-10.97341 0.30497,-1.79067 1.38147,-2.66286 0.46311,-3.60179 z"
       id="path2870"
       sodipodi:nodetypes="csssssssssssssssss" />
    <path
       style="color:#000000;fill:none;stroke:#c87137;stroke-width:4;stroke-linecap:round;stroke-linejoin:round;stroke-miterlimit:4;stroke-opacity:1;stroke-dasharray:none;stroke-dashoffset:0;marker:none;visibility:visible;display:inline;overflow:visible;enable-background:accumulate"
       d="m 321.12422,140.39011 c 0.72704,-6.10313 7.45987,-8.79265 11.76569,-10.65007 2.24919,-0.97025 13.11295,2.34497 9.19071,4.51706 -4.21208,2.3326 -21.7728,12.98634 -20.9564,6.13301 z"
       id="path5905"
       inkscape:connector-curvature="0"
       sodipodi:nodetypes="ssss" />
    <path
       style="color:#000000;fill:none;stroke:#c87137;stroke-width:4;stroke-linecap:round;stroke-linejoin:round;stroke-miterlimit:4;stroke-opacity:1;stroke-dasharray:none;stroke-dashoffset:0;marker:none;visibility:visible;display:inline;overflow:visible;enable-background:accumulate"
       d="m 198.66862,209.61697 c 9.2587,-0.70541 11.08532,-10.10718 18.12547,-8.12949 6.16679,1.7323 9.45291,6.0739 5.28544,5.89338 -8.6975,5.89622 -28.55205,13.97419 -17.32921,-2.83758"
       id="path5907"
       inkscape:connector-curvature="0"
       sodipodi:nodetypes="sscc" />
    <path
       inkscape:connector-curvature="0"
       style="color:#000000;fill:none;stroke:#80ff00;stroke-width:4;stroke-linecap:round;stroke-linejoin:round;stroke-miterlimit:4;stroke-opacity:1;stroke-dasharray:none;stroke-dashoffset:0;marker:none;visibility:visible;display:inline;overflow:visible;enable-background:accumulate"
       d="m 330.64583,61.599237 c 9.02423,-1.521678 19.09863,5.68246 27.47163,19.845287 11.71179,19.810396 17.80216,48.199016 4.32741,66.239526 -12.18821,16.318 -5.06028,13.3977 -19.00343,34.0817 -18.26814,27.09948 -12.80076,25.40101 -49.06471,47.2035 -19.46884,11.705 -34.18078,23.05502 -44.95796,38.38082 -0.87875,1.24961 -18.44372,10.11485 -32.10321,12.09147"
       id="path4125"
       sodipodi:nodetypes="cssssss" />
    <path
       id="path5163"
       style="color:#000000;fill:none;stroke:#c87137;stroke-width:4;stroke-linecap:round;stroke-linejoin:round;stroke-miterlimit:4;stroke-opacity:1;stroke-dasharray:none;stroke-dashoffset:0;marker:none;visibility:visible;display:inline;overflow:visible;enable-background:accumulate"
       d="m 116.72874,169.39105 c 0.56285,0.0987 1.44223,-7.08309 0.66896,-9.56945 -1.48415,-4.77205 -1.97598,-2.1417 -10.55443,-16.67219 -1.4098,-2.38797 -5.4732,-15.65373 12.77739,-4.05197 1.70621,1.77716 7.46323,-0.14258 13.50354,-0.82476 4.8589,1.87304 23.49302,-0.32848 19.12145,-5.6487 -9.62048,-1.75155 -10.93174,-0.3417 -23.15048,1.86212 -9.8775,0.28242 -13.5525,-4.83249 -18.30457,-2.27956 -2.27897,9.63728 -3.73032,35.48954 5.93814,37.18451 z"
       inkscape:connector-curvature="0"
       sodipodi:nodetypes="ssscccccs" />
    <path
       style="color:#000000;fill:none;stroke:#c87137;stroke-width:3.99999976;stroke-linecap:round;stroke-linejoin:round;stroke-miterlimit:4;stroke-opacity:1;stroke-dasharray:none;stroke-dashoffset:0;marker:none;visibility:visible;display:inline;overflow:visible;enable-background:accumulate"
       d="m 223.99969,279.94954 c 0.19879,0.85142 1.83229,5.37883 2.50759,4.21585 0.99907,-1.7206 3.16361,-10.54498 3.58221,-11.93907 0.10717,-0.35684 0.78284,-1.19422 0.77152,-3.37217 2.78268,2.11443 6.02903,7.65957 4.08426,8.23183 5.47946,13.81096 -11.51581,-9.33815 -12.52559,-4.27204 0.45699,5.74612 1.02951,1.96809 1.58001,7.13555 z"
       id="path5183"
       inkscape:connector-curvature="0"
       sodipodi:nodetypes="csscccc" />
    <path
       sodipodi:nodetypes="ccccccccc"
       inkscape:connector-curvature="0"
       id="path5191"
       d="m 58.913597,-11.455573 c -5.85596,13.46505 -2.55896,28.36064 -0.005,42.58578 0.78786,23.94064 1.33871,44.52675 0.0582,68.635833 2.73396,14.15977 -4.91468,32.97676 -2.16584,46.93967 -0.19494,13.82445 4.65489,27.53641 0.81308,41.11617 -1.73528,16.9944 1.0067,33.21518 0.6783,50.24758 1.28626,9.0648 -1.94871,17.32832 0.19974,26.52 -0.0372,11.11372 0.0307,22.35084 2.14315,33.52338 0.20547,11.11332 -7.16259,19.59509 1.28287,33.56516"
       style="color:#000000;fill:none;stroke:#808080;stroke-width:3.99999976;stroke-linecap:butt;stroke-linejoin:miter;stroke-miterlimit:4;stroke-opacity:1;stroke-dasharray:none;stroke-dashoffset:0;marker:none;visibility:visible;display:inline;overflow:visible;enable-background:accumulate" />
    <path
       id="path6112"
       style="color:#000000;fill:none;stroke:#000000;stroke-width:4;stroke-linecap:round;stroke-linejoin:round;stroke-miterlimit:4;stroke-opacity:1;stroke-dasharray:none;stroke-dashoffset:0;marker:none;visibility:visible;display:inline;overflow:visible;enable-background:accumulate"
       d="m 200.93135,146.45979 c -1.75215,-1.14198 -1.34089,-6.73414 -1.99749,-8.81059 -1.44232,-2.99733 -0.87829,-4.05093 -1.54087,-7.52498 m -6.71756,15.86698 c -0.1836,-3.54777 2.00951,-4.40539 2.07239,-7.81537 0.0448,-2.42803 1.45834,-7.50781 4.39164,-9.36842 4.74686,-0.0496 4.39684,2.66687 5.59876,4.70548 3.67791,6.23818 5.05565,5.11235 7.80498,8.00441 m -12.43868,-27.18638 c -0.44829,1.94656 0.67203,5.5159 0.37617,7.36805 -0.49988,3.12944 3.21207,5.96822 -1.39194,6.39464 -4.02616,0.37289 -3.05871,-4.18207 -4.98419,-5.28552 -1.59811,-0.91581 0.53236,-1.17158 -2.75354,-5.65"
       inkscape:connector-curvature="0"
       sodipodi:nodetypes="ccccscsccsssc" />
  </g>
</svg>
