<?xml version="1.0" encoding="UTF-8" standalone="no"?>
<!-- Created with Inkscape (http://www.inkscape.org/) -->

<svg
   xmlns:dc="http://purl.org/dc/elements/1.1/"
   xmlns:cc="http://creativecommons.org/ns#"
   xmlns:rdf="http://www.w3.org/1999/02/22-rdf-syntax-ns#"
   xmlns:svg="http://www.w3.org/2000/svg"
   xmlns="http://www.w3.org/2000/svg"
   xmlns:sodipodi="http://sodipodi.sourceforge.net/DTD/sodipodi-0.dtd"
   xmlns:inkscape="http://www.inkscape.org/namespaces/inkscape"
   width="480"
   height="320"
   id="svg2"
   version="1.1"
   inkscape:version="0.47 r22583"
   sodipodi:docname="itnas152.svg"
   inkscape:export-xdpi="90"
   inkscape:export-ydpi="90"
   inkscape:export-filename="itnas152.png">
  <defs
     id="defs4" />
  <sodipodi:namedview
     id="base"
     pagecolor="#ffffff"
     bordercolor="#666666"
     borderopacity="1.0"
     inkscape:pageopacity="1"
     inkscape:pageshadow="2"
     inkscape:zoom="0.90509668"
     inkscape:cx="176.62733"
     inkscape:cy="195.36968"
     inkscape:document-units="px"
     inkscape:current-layer="layer1"
     showgrid="false"
     inkscape:snap-nodes="true"
     inkscape:snap-global="true"
     inkscape:snap-grids="false"
     showguides="true"
     inkscape:window-width="1280"
     inkscape:window-height="774"
     inkscape:window-x="1276"
     inkscape:window-y="1020"
     inkscape:window-maximized="1"
     inkscape:object-nodes="true"
     inkscape:snap-midpoints="false">
    <inkscape:grid
       empspacing="5"
       visible="true"
       enabled="true"
       snapvisiblegridlinesonly="true"
       type="xygrid"
       id="grid2816" />
  </sodipodi:namedview>
  <metadata
     id="metadata7">
    <rdf:RDF>
      <cc:Work
         rdf:about="">
        <dc:format>image/svg+xml</dc:format>
        <dc:type
           rdf:resource="http://purl.org/dc/dcmitype/StillImage" />
        <dc:title />
      </cc:Work>
    </rdf:RDF>
  </metadata>
  <g
     inkscape:label="Layer 1"
     inkscape:groupmode="layer"
     id="layer1"
     transform="translate(0,0)">
    <g
       transform="matrix(0.2527238,-0.96753846,0.96753846,0.2527238,78.648493,451.0347)"
       id="g2902">
      <g
         transform="matrix(0.63336545,0.77385284,-0.77385284,0.63336545,166.93989,-75.440137)"
         id="g2937">
        <path
           style="color:#000000;fill:none;stroke:#0000ff;stroke-width:4;stroke-linecap:butt;stroke-linejoin:bevel;stroke-miterlimit:4;stroke-opacity:1;stroke-dasharray:none;stroke-dashoffset:0;marker:none;visibility:visible;display:inline;overflow:visible;enable-background:accumulate"
           d="m 206.19224,50.959145 -22.97456,0.002"
           id="path3028-1-1" />
        <path
           style="color:#000000;fill:none;stroke:#0000ff;stroke-width:4;stroke-linecap:butt;stroke-linejoin:bevel;stroke-miterlimit:4;stroke-opacity:1;stroke-dasharray:none;stroke-dashoffset:0;marker:none;visibility:visible;display:inline;overflow:visible;enable-background:accumulate"
           d="m 199.99646,42.691859 -11.26117,0.06514"
           id="rect10452-0-7-5-7" />
        <path
           id="path10399-9-40"
           style="fill:none;stroke:#00ff00;stroke-width:2;stroke-linecap:butt;stroke-linejoin:miter;stroke-miterlimit:4;stroke-opacity:1;stroke-dasharray:none"
           d="m 208.30239,56.809745 c 0,0 -14.55766,-39.164966 -14.55766,-39.164966 l -12.23664,39.211847 c 0,0 26.7943,-0.04688 26.7943,-0.04688 z"
           sodipodi:nodetypes="cccc" />
      </g>
      <path
         sodipodi:nodetypes="cssss"
         id="path2826-1-9"
         d="m 246.02238,111.70278 c 0,0 -7.27977,5.50883 -8.477,17.34465 -2.01939,19.9638 3.45173,37.97405 12.18154,60.18079 11.52948,29.32845 21.81348,39.53178 24.99728,63.19871 2.75788,20.50071 -7.08377,38.24513 -32.74,61.00856"
         style="fill:none;stroke:#00ff00;stroke-width:4;stroke-linecap:butt;stroke-linejoin:miter;stroke-miterlimit:4;stroke-opacity:1;stroke-dasharray:none;marker-start:none;marker-mid:none;marker-end:none" />
      <path
         sodipodi:nodetypes="cccccc"
         d="m 224.98749,191.08861 14.98587,25.50983 c 0,0 -1.61478,-23.17734 -1.61478,-23.17734 0,0 21.69613,-8.57566 21.69613,-8.57566 0,0 14.60632,17.47391 14.60632,17.47391 0,0 -1.30209,-30.02646 -1.30209,-30.02646"
         style="fill:none;stroke:#00ff00;stroke-width:2;stroke-linecap:butt;stroke-linejoin:miter;stroke-miterlimit:4;stroke-opacity:1;stroke-dasharray:none"
         id="path10436-7-4"
         inkscape:transform-center-x="0.79756007"
         inkscape:transform-center-y="3.1070883" />
      <path
         sodipodi:nodetypes="cccccc"
         d="m 214.02179,124.19664 5.47044,25.45531 9.65196,-21.36765 14.93786,0.94057 c 0,0 12.62974,19.73982 12.62974,19.73982 l 3.60398,-26.66738"
         style="fill:none;stroke:#00ff00;stroke-width:2;stroke-linecap:butt;stroke-linejoin:miter;stroke-miterlimit:4;stroke-opacity:1;stroke-dasharray:none"
         id="path10402-6-4-8" />
      <path
         sodipodi:nodetypes="czzzc"
         id="path3030-6-8"
         d="m 231.15493,173.65137 c 4.89442,1.00179 10.48217,3.6089 15.25789,3.64346 4.7757,0.0346 8.4903,-3.25663 6.88817,-7.09865 -1.60214,-3.84204 -6.40223,-3.81851 -10.12768,-0.79647 -3.72544,3.02203 -5.07506,8.97637 -7.3699,13.80193"
         style="fill:none;stroke:#0000ff;stroke-width:4;stroke-linecap:butt;stroke-linejoin:miter;stroke-miterlimit:4;stroke-opacity:1;stroke-dasharray:none" />
      <g
         transform="matrix(0.78211664,-0.16820689,0.16820689,0.78211664,69.182145,99.858732)"
         id="g2942">
        <path
           style="fill:none;stroke:#0000ff;stroke-width:5;stroke-linecap:butt;stroke-linejoin:miter;stroke-miterlimit:4;stroke-opacity:1;stroke-dasharray:none"
           d="m 206.66319,105.19515 c -7.91409,4.26712 -8.11323,10.1635 -0.17602,15.48704"
           id="rect10452-1-7-4-2-2"
           sodipodi:nodetypes="cc" />
        <path
           style="fill:none;stroke:#0000ff;stroke-width:5;stroke-linecap:butt;stroke-linejoin:miter;stroke-miterlimit:4;stroke-opacity:1;stroke-dasharray:none"
           d="m 179.489,105.38873 c 8.38416,3.32675 8.29912,11.94162 0.0734,15.23703"
           id="rect10452-1-4-4-0-7-4"
           sodipodi:nodetypes="cc" />
        <path
           style="fill:none;stroke:#0000ff;stroke-width:5;stroke-linecap:butt;stroke-linejoin:bevel;stroke-miterlimit:4;stroke-opacity:1;stroke-dasharray:none"
           d="m 193.13509,122.31481 0.17678,-18.66053"
           id="rect10452-0-7-4-1-5" />
      </g>
    </g>
    <g
       transform="matrix(0.23745634,-0.9713982,0.9713982,0.23745634,-326.29172,1129.4062)"
       id="g5081">
      <path
         id="path5054"
         d="m 885.2029,569.15824 -36.83311,31.21812"
         style="fill:none;stroke:#000000;stroke-width:1px;stroke-linecap:butt;stroke-linejoin:miter;stroke-opacity:1" />
      <path
         id="path5052"
         d="m 893.05654,531.35169 -6.92421,36.83144"
         style="fill:none;stroke:#000000;stroke-width:1px;stroke-linecap:butt;stroke-linejoin:miter;stroke-opacity:1" />
      <path
         id="path5049"
         d="m 873.1652,477.2191 19.443,53.77064"
         style="fill:none;stroke:#000000;stroke-width:1px;stroke-linecap:butt;stroke-linejoin:miter;stroke-opacity:1" />
      <path
         id="path5047"
         d="m 869.42708,415.10358 3.50977,61.86738"
         style="fill:none;stroke:#000000;stroke-width:1px;stroke-linecap:butt;stroke-linejoin:miter;stroke-opacity:1" />
      <path
         id="path5043"
         d="m 880.17919,399.27183 -10.73671,15.73772"
         style="fill:none;stroke:#000000;stroke-width:1px;stroke-linecap:butt;stroke-linejoin:miter;stroke-opacity:1" />
      <path
         id="path5079"
         d="m 848.76775,434.01964 -1.60336,-25.26716"
         style="fill:none;stroke:#000000;stroke-width:1px;stroke-linecap:butt;stroke-linejoin:miter;stroke-opacity:1" />
      <path
         id="path5077"
         d="m 861.2753,413.51675 -12.47835,20.50708"
         style="fill:none;stroke:#000000;stroke-width:1px;stroke-linecap:butt;stroke-linejoin:miter;stroke-opacity:1" />
      <path
         id="path5075"
         d="m 876.51224,416.97573 -15.39421,-3.50258"
         style="fill:none;stroke:#000000;stroke-width:1px;stroke-linecap:butt;stroke-linejoin:miter;stroke-opacity:1" />
      <path
         id="path5073"
         d="M 885.68293,438.21124 875.82219,416.9036"
         style="fill:none;stroke:#000000;stroke-width:1px;stroke-linecap:butt;stroke-linejoin:miter;stroke-opacity:1" />
      <path
         id="path5071"
         d="m 892.48133,412.72682 -6.46256,25.5095"
         style="fill:none;stroke:#000000;stroke-width:1px;stroke-linecap:butt;stroke-linejoin:miter;stroke-opacity:1" />
      <path
         id="path5067"
         d="m 896.33087,493.3556 3.01772,-28.82956"
         style="fill:none;stroke:#000000;stroke-width:1px;stroke-linecap:butt;stroke-linejoin:miter;stroke-opacity:1" />
      <path
         id="path5064"
         d="m 885.07991,474.10359 11.30731,18.71964"
         style="fill:none;stroke:#000000;stroke-width:1px;stroke-linecap:butt;stroke-linejoin:miter;stroke-opacity:1"
         sodipodi:nodetypes="cc" />
      <path
         id="path5062"
         d="m 861.15709,479.43173 23.64166,-5.1061"
         style="fill:none;stroke:#000000;stroke-width:1px;stroke-linecap:butt;stroke-linejoin:miter;stroke-opacity:1" />
      <path
         id="path5060"
         d="M 859.94453,502.72985 861.33667,478.249"
         style="fill:none;stroke:#000000;stroke-width:1px;stroke-linecap:butt;stroke-linejoin:miter;stroke-opacity:1" />
      <path
         id="path5056"
         d="m 848.05628,473.92085 11.96702,28.87543"
         style="fill:none;stroke:#000000;stroke-width:1px;stroke-linecap:butt;stroke-linejoin:miter;stroke-opacity:1" />
    </g>
    <path
       id="path10399-9-40-1"
       style="color:#000000;fill:none;stroke:#808080;stroke-width:4;stroke-linecap:butt;stroke-linejoin:miter;stroke-miterlimit:4;stroke-opacity:1;stroke-dasharray:none;stroke-dashoffset:0;marker:none;visibility:visible;display:inline;overflow:visible;enable-background:accumulate"
       d="M 428.40018,92.93781 78.40019,-7.062196 l -50.000005,-50 -350.000005,-100.000004 50,100.000004 0,100.000003 -50,50.000003 50,50 0,100 -50,100 350.000005,-100 50.000005,-50 349.99999,-100 z"
       sodipodi:nodetypes="ccccccccccccc" />
    <g
       style="display:inline"
       id="g5142"
       transform="matrix(0.95791198,-0.28706209,0.28706209,0.95791198,-12.085167,105.8375)">
      <rect
         y="200"
         x="360"
         height="20"
         width="20"
         id="rect5063"
         style="color:#000000;fill:none;stroke:#59bbbc;stroke-width:2;stroke-linecap:butt;stroke-linejoin:bevel;stroke-miterlimit:4;stroke-opacity:1;stroke-dasharray:none;stroke-dashoffset:0;marker:none;visibility:visible;display:inline;overflow:visible;enable-background:accumulate" />
      <path
         id="path5065-9"
         d="m 370.49997,190.00003 -20.49999,19.99999 19.99999,20 20,-20 -19.5,-19.99999 z"
         style="fill:none;stroke:#59bbbc;stroke-width:2;stroke-linecap:butt;stroke-linejoin:bevel;stroke-miterlimit:4;stroke-opacity:1;stroke-dasharray:none;display:inline" />
      <rect
         y="190"
         x="350"
         height="40"
         width="40"
         id="rect5089"
         style="color:#000000;fill:none;stroke:#59bbbc;stroke-width:2;stroke-linecap:butt;stroke-linejoin:miter;stroke-miterlimit:4;stroke-opacity:1;stroke-dasharray:none;stroke-dashoffset:0;marker:none;visibility:visible;display:inline;overflow:visible;enable-background:accumulate" />
    </g>
    <g
       id="g7160"
       transform="matrix(0,1,-1,0,254.81359,-63.260973)">
      <path
         id="rect10452-1-8-0-7"
         style="fill:none;stroke:#0000ff;stroke-width:4;stroke-linecap:butt;stroke-linejoin:miter;stroke-miterlimit:4;stroke-opacity:1;stroke-dasharray:none"
         d="m 169.3616,113.77679 0.52265,13.84374 c -10.55148,-7.48858 -17.42179,-6.72932 -27.37094,-1.40548 l 0.45482,-12.51201 c 9.77928,-6.31967 17.42892,-6.1614 26.39347,0.0737 z"
         sodipodi:nodetypes="ccccc" />
      <path
         sodipodi:nodetypes="czzs"
         id="path4346"
         d="m 143.72874,89.083426 c 0,7.603452 0.15858,14.476734 6.26332,14.385864 6.05465,-0.0901 6.6486,-12.445714 12.60668,-12.397124 6.00815,0.049 6.07007,6.582042 6.07007,14.378274"
         style="color:#000000;fill:none;stroke:#0000ff;stroke-width:4;stroke-linecap:butt;stroke-linejoin:miter;stroke-miterlimit:4;stroke-opacity:1;stroke-dasharray:none;stroke-dashoffset:0;marker:none;visibility:visible;display:inline;overflow:visible;enable-background:accumulate" />
      <path
         d="m 156.19878,84.457876 0,-16.5 m 11.10714,8.25 -22.21428,0"
         style="color:#000000;fill:none;stroke:#0000ff;stroke-width:4;stroke-linecap:square;stroke-linejoin:miter;stroke-miterlimit:4;stroke-opacity:1;stroke-dasharray:none;stroke-dashoffset:0;marker:none;visibility:visible;display:inline;overflow:visible;enable-background:accumulate"
         id="path6598" />
    </g>
  </g>
</svg>
