<?xml version="1.0" encoding="UTF-8" standalone="no"?>
<!-- Created with Inkscape (http://www.inkscape.org/) -->

<svg
   xmlns:dc="http://purl.org/dc/elements/1.1/"
   xmlns:cc="http://creativecommons.org/ns#"
   xmlns:rdf="http://www.w3.org/1999/02/22-rdf-syntax-ns#"
   xmlns:svg="http://www.w3.org/2000/svg"
   xmlns="http://www.w3.org/2000/svg"
   xmlns:sodipodi="http://sodipodi.sourceforge.net/DTD/sodipodi-0.dtd"
   xmlns:inkscape="http://www.inkscape.org/namespaces/inkscape"
   inkscape:export-filename="itnas180.png"
   inkscape:export-ydpi="90"
   inkscape:export-xdpi="90"
   sodipodi:docname="itnas180.svg"
   inkscape:version="0.47 r22583"
   version="1.1"
   id="svg2"
   height="320"
   width="480">
  <defs
     id="defs4" />
  <sodipodi:namedview
     id="base"
     pagecolor="#ffffff"
     bordercolor="#666666"
     borderopacity="1.0"
     inkscape:pageopacity="1"
     inkscape:pageshadow="2"
     inkscape:zoom="1.4142136"
     inkscape:cx="216.20193"
     inkscape:cy="198.1949"
     inkscape:document-units="px"
     inkscape:current-layer="layer1"
     showgrid="false"
     inkscape:snap-nodes="true"
     inkscape:snap-global="false"
     inkscape:snap-grids="true"
     showguides="true"
     inkscape:window-width="1280"
     inkscape:window-height="998"
     inkscape:window-x="-4"
     inkscape:window-y="-4"
     inkscape:window-maximized="1"
     inkscape:object-nodes="true">
    <inkscape:grid
       empspacing="5"
       visible="true"
       enabled="true"
       snapvisiblegridlinesonly="true"
       type="xygrid"
       id="grid2816" />
  </sodipodi:namedview>
  <metadata
     id="metadata7">
    <rdf:RDF>
      <cc:Work
         rdf:about="">
        <dc:format>image/svg+xml</dc:format>
        <dc:type
           rdf:resource="http://purl.org/dc/dcmitype/StillImage" />
        <dc:title></dc:title>
      </cc:Work>
    </rdf:RDF>
  </metadata>
  <g
     inkscape:label="Layer 1"
     inkscape:groupmode="layer"
     id="layer1"
     transform="translate(0,0)">
    <path
       style="color:#000000;fill:none;stroke:#008000;stroke-width:4;stroke-linecap:butt;stroke-linejoin:miter;stroke-miterlimit:4;stroke-opacity:1;stroke-dasharray:none;stroke-dashoffset:0;marker:none;visibility:visible;display:inline;overflow:visible;enable-background:accumulate"
       d="m -102.44326,263.37369 c 9.46533,0.33197 19.29372,1.65239 33.32442,0.89616 10.96169,2.00488 23.64157,3.14011 36.00488,1.97828 3.17879,-0.32319 15.71908,1.61115 18.87966,1.89933 19.92989,-0.0799 29.33378,4.74382 48.74769,7.05403 12.07061,0.94885 23.83913,3.91612 35.75969,5.86509 19.74238,3.24596 39.80533,1.66159 59.70554,2.0176 16.90844,-0.0578 33.74455,2.16436 50.29203,5.51774 15.96429,3.49756 32.44203,3.77167 48.68812,2.63975 7.89786,-0.61773 15.80038,-1.24665 23.72749,-1.30935 19.11001,-0.27831 38.2137,0.89705 57.32204,0.4375 22.85019,-1.00998 45.64473,-3.27873 68.53101,-3.44943 18.9332,-0.67644 37.67267,2.90167 56.06981,6.98437 11.68253,3.25376 24.06604,3.01283 35.62067,6.81212 0.32446,0.20535 4.46519,1.87418 6.35156,2 19.57612,1.30568 29.00549,-0.55743 43.14213,-1.10166"
       id="path2852"
       sodipodi:nodetypes="ccccccccccccccsc" />
    <path
       id="path2833"
       style="color:#000000;fill:none;stroke:#808080;stroke-width:4;stroke-linecap:round;stroke-linejoin:round;stroke-miterlimit:4;stroke-opacity:1;stroke-dasharray:none;stroke-dashoffset:0;marker:none;visibility:visible;display:inline;overflow:visible;enable-background:accumulate"
       d="m 230.56636,99.768818 c 12.54815,-0.530986 16.68853,-5.769325 50.25301,-8.535631 10.77671,-1.788669 26.35144,-3.42308 33.37381,-6.793414 5.83766,-1.026781 11.99827,-2.247426 18.57341,-3.49212 20.06545,-3.798451 39.01383,-4.668934 59.39697,-7.020815 5.37624,-0.620331 2.16113,20.162327 2.04173,37.116732 -0.0942,13.37583 -1.8854,30.97602 -0.62751,38.5437 -0.86843,12.86944 -0.99893,22.36627 -0.93923,28.40361 0.14479,14.65165 3.64949,29.32287 -0.47499,28.87203 -17.08044,-1.86703 -42.81765,-2.26099 -55.86143,-2.12132 -26.88249,0.28786 -40.00115,1.35172 -55.86144,1.41422 -19.07225,-0.96116 -41.65622,-0.51266 -50.20458,-0.70711 -1.10197,2.45134 -2.79176,5.61383 -2.82842,7.68978 m -71.92834,69.2913 0.22741,-0.40606 c 3.18833,-2.53705 6.02884,-5.46313 9.48992,-7.59682 3.44321,-2.48366 5.90419,-6.20642 9.54543,-8.54561 4.74269,-3.00802 8.06223,-7.55452 12.14234,-11.28781 3.54668,-1.98751 5.53801,-5.73849 9.033,-7.75077 3.40391,-1.82477 6.43427,-4.20636 9.21933,-6.85754 2.37082,-2.19008 4.46819,-4.48427 6.79969,-6.72584 3.28691,-2.66283 4.92586,-6.60032 7.65189,-9.71588 3.18379,-2.93465 8.0104,-10.00173 8.0104,-10.00173 0,0 16.14613,0 16.14613,0 21.80155,-1.27986 42.66983,7.62884 61.2316,5.69053 35.44981,1.03896 38.18789,-1.7647 63.47135,-0.92003 21.92524,-1.30097 31.21586,2.75224 53.74367,4.33376 15.70055,2.94191 30.62685,4.13636 45.0745,2.73731 10.44109,0.86384 17.62743,2.10968 36.94633,4.94975 6.2354,-4.4724 -3.08547,-36.48746 -0.75472,-65.66058 0.36841,-4.61127 -3.30022,-47.17958 -0.7926,-68.95641 1.14098,-9.908568 2.21075,-33.93803 -0.574,-49.93788 -23.23716,4.01579 -43.17095,5.992555 -52.20525,7.80472 -18.60397,3.73172 -44.33057,8.833219 -67.2958,9.87295 -21.55667,0.97596 -40.49063,7.252626 -60.84569,11.07533 -23.83185,4.077789 -46.01957,3.478477 -57.99061,5.22199 -24.00532,3.496236 -64.9985,7.64998 -82.16924,9.62229 -30.30723,3.481228 -35.71428,4.43379 -51.90558,7.7631 -15.01055,3.08652 -14.61038,5.10499 -34.7751,7.01341 -8.11419,0.76794 -36.73028,11.22342 -51.75582,13.93292 -13.25364,2.38997 -26.56356,4.85606 -39.55159,8.03149 -11.41214,2.79015 -23.18089,3.8356 -34.31571,8.01881 -17.62031,-0.33287 -30.34256,9.64802 -48.90538,14.41505 -23.93673,8.06401 -45.03629,22.19367 -68.17979,23.61982 -31.02274,7.59874 -55.13147,8.02551 -90.99666,13.63662 -6.68274,1.04551 -25.26087,3.54729 -24.40158,7.52532 1.82469,8.44731 34.74701,0.74228 51.93902,3.47362 29.82126,-0.30237 59.66704,0.068 89.47595,-0.73566 20.56183,2.53426 41.1265,6.03695 61.80026,7.37424 13.17374,-1.91538 26.01279,1.09129 39.03681,2.4476 21.43871,1.80412 42.85852,2.93763 64.36256,3.46963 17.93097,-0.98217 35.78047,1.85534 53.74012,0.7071 5.66605,-0.005 11.30473,0.70782 16.97056,0.70711 6.56554,0.1583 9.48519,-0.18428 12.38806,0.1111 1.40054,0.20896 2.80084,0.48704 4.22503,0.44394 1.01209,-0.002 2.02315,-0.0597 3.03526,-0.06 2.24955,0.26487 3.06824,-9.3801 1.71295,-9.3575 -7.54247,0.72974 -15.08106,0.54891 -22.62741,0 -15.07697,-1.09667 -29.11212,0.59296 -46.66905,0 -11.9246,-0.40274 -26.51591,-1.60019 -35.35534,-2.82843 -1.50968,-0.20977 -2.17857,-12.58568 -0.7309,-30.18033 1.48189,-18.01057 -1.88292,-34.83828 1.438,-35.5806 15.63671,-3.49526 26.20862,-7.59221 38.18377,-9.8995 19.95358,-3.84452 36.2728,-10.44323 57.06854,-13.67766 19.41012,-3.01892 36.86819,-6.40767 61.7254,-9.863968 13.90543,-1.933494 26.71449,-3.754126 39.29955,-5.363864"
       sodipodi:nodetypes="ccccssccccccccsssssssssssssscsscsscccccccccccsscccsssssssssccccccs" />
    <path
       style="color:#000000;fill:none;stroke:#c87137;stroke-width:4;stroke-linecap:round;stroke-linejoin:round;stroke-miterlimit:4;stroke-opacity:1;stroke-dasharray:none;stroke-dashoffset:0;marker:none;visibility:visible;display:inline;overflow:visible;enable-background:accumulate"
       d="m 411.75,245.5 c -14.51862,3.01982 -24.61813,1.42113 -33.73446,2.43618 -9.93577,1.1063 -20.0192,4.19195 -31.01554,9.06382 -14.0099,6.20701 -21.00291,8.62847 -30.5,18.25 -4.41021,4.46799 -6.75,11.25 -6.75,11.25"
       id="path8848"
       sodipodi:nodetypes="cssss" />
    <path
       style="color:#000000;fill:none;stroke:#94f3f3;stroke-width:4;stroke-linecap:round;stroke-linejoin:round;stroke-miterlimit:4;stroke-opacity:1;stroke-dasharray:none;stroke-dashoffset:0;marker:none;visibility:visible;display:inline;overflow:visible;enable-background:accumulate"
       d="m 417.58386,250.43223 c -2.47035,-3.28246 -5.98513,-8.52686 -3.86191,-12.42506 3.81422,-7.00284 6.54062,-5.57008 12.11869,-5.99079 5.9794,-0.45098 10.84484,-2.15978 17.18942,-2.07539 9.44611,0.12566 9.68451,1.6305 17.77967,1.2907 6.86911,-0.28834 21.62031,-1.40966 28.44822,1.63162 6.92678,3.0853 9.14305,7.67506 4.88819,12.43546 -4.85023,5.4265 -20.94362,4.87277 -26.42627,7.64913 -5.73823,2.90578 -15.6125,2.19144 -22.59084,1.46418 -5.39679,-0.56244 -11.15057,-2.7869 -16.97255,-2.13737 -3.32357,0.37079 -7.13511,2.7251 -10.57262,-1.84248 z"
       id="path8820"
       sodipodi:nodetypes="cssssssssss" />
    <path
       style="fill:none;stroke:#0000ff;stroke-width:4;stroke-linecap:butt;stroke-linejoin:miter;stroke-miterlimit:4;stroke-opacity:1;stroke-dasharray:none"
       d="m 93.599774,242.32843 c -1.98926,0.27241 -4.05052,0.49747 -5.83427,1.49526 -1.69373,0.94516 -3.17574,2.23277 -4.48113,3.66058 -1.54477,1.71508 -2.82494,3.66401 -3.8096,5.75041 -0.54046,1.18021 -0.82204,2.45579 -1.1238,3.71157 -0.25266,1.28363 -0.12395,2.59861 -0.20257,3.89719 -0.0387,1.59856 -0.10356,3.24691 0.47324,4.76934 0.27893,1.05941 0.85496,1.99977 1.35313,2.96565 0.97586,1.311 1.9301,2.6502 3.13779,3.76279 1.63849,1.4824 3.28898,3.02331 5.32148,3.95122 1.32845,0.64353 2.71064,1.18738 4.1235,1.61476 1.62831,0.45252 3.32044,0.69876 5.01098,0.70248 1.66311,-0.0792 3.300166,-0.47433 4.874606,-1.00062 1.49964,-0.5417 3.00626,-1.13381 4.31087,-2.06627 1.34526,-0.85232 2.69299,-1.73688 3.78753,-2.90612 1.0506,-1.00529 1.80863,-2.27517 2.36298,-3.61109 0.38888,-0.97445 0.74201,-1.97252 0.98933,-2.99242 0.35816,-1.71285 0.55334,-3.45829 0.64343,-5.20473 -0.0902,-2.07906 -0.20733,-4.17404 -0.67068,-6.20826 -0.2817,-1.16456 -0.58373,-2.35082 -1.27456,-3.35086 -0.89047,-1.34775 -2.01279,-2.52666 -3.12562,-3.69091 -1.10745,-1.1097 -2.38971,-2.02785 -3.73916,-2.81757 -1.20388,-0.80969 -2.53066,-1.45334 -3.94642,-1.78746 -1.69528,-0.44646 -3.462396,-0.47885 -5.202666,-0.59597 -0.99295,-0.022 -1.98552,-0.11689 -2.97839,-0.049 z"
       id="path8177"
       sodipodi:nodetypes="cssssssssss" />
    <path
       style="color:#000000;fill:none;stroke:#00ffff;stroke-width:4;stroke-linecap:butt;stroke-linejoin:miter;stroke-miterlimit:4;stroke-opacity:1;stroke-dasharray:none;stroke-dashoffset:0;marker:none;visibility:visible;display:inline;overflow:visible;enable-background:accumulate"
       d="m 37.210954,142.63686 c -2.61996,0.36786 -1.7932,5.52336 -1.83229,7.68783 -0.17164,9.50156 -0.37961,15.50522 -0.4748,22.7252 -0.0701,5.317 0.63469,12.7282 -0.18421,17.88058 -0.52862,3.326 1.89463,3.89527 4.68706,3.97496 7.66559,0.21879 15.52041,0.58293 23.26913,1.2613 6.27111,0.54903 12.64199,-0.41862 18.85492,0.4201 1.92728,0.26016 5.56413,1.08107 5.20206,-1.94004 -0.88061,-7.34771 0.16001,-14.7259 -0.22827,-22.10493 -0.69161,-13.14364 0.73544,-12.4464 -0.0372,-23.83159 -0.1644,-2.42243 1.44881,-7.64257 -2.63311,-7.21858 -4.25117,0.44158 -8.55575,-0.14285 -12.80784,0.25034 -6.18107,0.57151 -11.8157,0.13298 -17.80744,0.37479 -5.23227,0.21116 -10.79334,-0.21211 -16.00797,0.52007 z"
       id="path3604"
       sodipodi:nodetypes="csssssssssssss" />
    <path
       id="path3618"
       style="color:#000000;fill:none;stroke:#ffff00;stroke-width:4;stroke-linecap:round;stroke-linejoin:round;stroke-miterlimit:4;stroke-opacity:1;stroke-dasharray:none;stroke-dashoffset:0;marker:none;visibility:visible;display:inline;overflow:visible;enable-background:accumulate"
       d="m 187.80842,247.12482 c -8.82459,9.15783 -8.56871,9.23823 -19.40185,18.57308 -0.85977,0.099 -0.72217,-9.65266 -3.96585,-8.84974 -3.16812,0.66906 2.13946,13.11805 -6.2597,17.25525 -3.5303,-2.26989 8.94914,-21.2578 -7.7209,-22.33708 -4.36985,1.1893 -18.01908,-1.61321 -22.93726,-0.11538 -2.36715,0.72091 -8.30732,-0.53671 -8.0749,3.06222 -0.25729,3.84214 10.40015,2.88181 15.98937,2.39293 5.74368,-0.50239 10.85449,1.17665 14.70681,-0.25387 4.26389,-1.58335 6.68751,5.30023 3.9253,5.85419 -12.53213,2.51332 -19.75161,-1.36349 -31.08542,0.39236 -5.16246,0.79977 -5.96271,3.15979 -3.71284,4.97664 2.97756,0.0325 6.04828,0.4147 7.8581,0.0635 8.66883,-1.68219 14.46889,1.63418 23.9324,0.209 5.20772,-0.78427 1.19472,5.44242 -2.7001,5.27532 -14.57754,-0.61468 -31.88228,-2.20686 -30.6277,1.8454 1.52011,4.9099 28.42859,2.52505 33.47542,3.43472"
       sodipodi:nodetypes="cccccscsssscsscsc" />
    <path
       style="color:#000000;fill:none;stroke:#ff0000;stroke-width:4;stroke-linecap:butt;stroke-linejoin:miter;stroke-miterlimit:4;stroke-opacity:1;stroke-dasharray:none;stroke-dashoffset:0;marker:none;visibility:visible;display:inline;overflow:visible;enable-background:accumulate"
       d="m 342.34569,198.25736 c 0.5242,1.87087 1.3803,3.22833 5.70692,0.82511 7.99593,-4.44726 4.00029,-1.07535 11.80019,-5.3741 5.92279,-3.26882 13.40535,-7.76203 15.32418,-7.28548 1.75437,0.43569 3.44003,3.98897 6.0411,9.36158 2.68549,5.54697 6.61218,7.88648 7.68864,5.04622 0.64511,-1.70216 0.0585,-3.81944 -2.97398,-8.86565 -6.23139,-10.36922 -2.37502,-6.79638 -8.41841,-16.47875 -2.69536,-4.31833 -4.03223,-8.11967 -6.69192,-14.37503 -0.62246,-1.46402 -5.80474,-0.63393 -4.90486,1.71791 1.49167,3.89856 6.1454,13.11913 5.64355,15.70978 -0.25496,1.31697 -3.39653,3.30081 -8.32423,5.89029 -4.57659,2.40497 -7.45547,3.83792 -11.34339,6.29035 -5.83933,3.68336 -10.13694,5.43499 -9.54779,7.53777 z"
       id="path3637"
       sodipodi:nodetypes="csssssssssssss" />
    <path
       style="color:#000000;fill:none;stroke:#ff00ae;stroke-width:4;stroke-linecap:butt;stroke-linejoin:round;stroke-miterlimit:4;stroke-opacity:1;stroke-dasharray:none;stroke-dashoffset:0;marker:none;visibility:visible;display:inline;overflow:visible;enable-background:accumulate"
       d="m 186.96425,238.14772 c -0.74579,-0.75694 -1.15774,-1.43383 -1.82934,-2.15526 -0.83919,-0.88685 -1.48586,-1.75684 -2.38501,-2.82597 -0.70937,-0.90068 -1.40307,-1.45188 -1.73675,-1.6796 -3.00878,1.17183 -9.791,4.68721 -11.68536,5.68664 -2.06461,1.08938 -8.76095,3.91533 -7.79273,4.96932 2.64422,2.8784 1.51145,3.26044 5.3101,7.88258 1.14705,1.39579 2.99225,7.85756 4.76813,6.82318 6.08096,-3.54194 11.90197,-11.75826 15.51604,-16.12261 0.22989,-0.27761 0.54827,-0.54043 0.77829,-0.85411 -0.31905,-0.6406 -0.557,-1.11596 -0.94341,-1.72418 z"
       id="path3782"
       inkscape:export-xdpi="90"
       inkscape:export-ydpi="90"
       sodipodi:nodetypes="ccccssssscc" />
    <path
       id="path5493"
       style="color:#000000;fill:none;stroke:#ff0000;stroke-width:4;stroke-linecap:round;stroke-linejoin:round;stroke-miterlimit:4;stroke-opacity:1;stroke-dasharray:none;stroke-dashoffset:0;marker:none;visibility:visible;display:inline;overflow:visible;enable-background:accumulate"
       d="m 153.07806,180.98257 c -0.62821,1.35673 -0.57564,3.52366 -0.8303,6.93817 -0.28132,4.2904 -1.70818,5.32016 -1.65117,8.60864 -1.24176,3.7503 -2.61596,5.9693 -2.96948,10.68472 m -0.97123,-35.84114 c 0.0455,3.53962 -0.59359,8.21999 1.05949,8.2461 6.10589,0.46027 10.45229,3.63199 12.52402,2.37679 1.44852,-3.28564 2.8953,-4.72381 4.58701,-7.03734"
       sodipodi:nodetypes="cccccccc" />
    <path
       style="color:#000000;fill:none;stroke:#80ff00;stroke-width:4;stroke-linecap:round;stroke-linejoin:round;stroke-miterlimit:4;stroke-opacity:1;stroke-dasharray:none;stroke-dashoffset:0;marker:none;visibility:visible;display:inline;overflow:visible;enable-background:accumulate"
       d="m 130.51018,197.69974 c -0.28429,-0.0597 -1.65233,-0.16643 -3.59605,-0.25029 -0.66606,-0.0285 -1.79698,-0.0492 -3.25895,-0.13124 -1.16558,-0.0654 -1.747,-0.17195 -3.56105,-0.42673 -1.50606,-0.2114 -2.41563,-0.17662 -4.13034,-0.35924 -1.06519,-0.11356 -1.65227,0.007 -2.35495,0.0428"
       id="path3655-1"
       sodipodi:nodetypes="csssss" />
    <path
       style="color:#000000;fill:none;stroke:#ffff00;stroke-width:4;stroke-linecap:butt;stroke-linejoin:miter;stroke-miterlimit:4;stroke-opacity:1;stroke-dasharray:none;stroke-dashoffset:0;marker:none;visibility:visible;display:inline;overflow:visible;enable-background:accumulate"
       d="m 98.774454,196.555 c -1.02119,-6.8618 0.66819,-4.7849 0.625,-7.625 -0.038,-2.4993 -0.54357,-6.6591 -0.625,-8.25 -0.0657,-1.2843 4.307646,0 6.125006,0 1.31936,-0.001 3.26971,-1.0513 3.99999,0 0.78185,1.1256 0,2.2643 0,2.5 0,3.8334 -0.003,6.3248 0.5,10.125 0.0205,0.155 1.0383,1.2531 -0.5,3.375 -0.18296,0.2524 -2.16647,0 -2.49999,0 -3,0 -7.428786,1.1935 -7.625006,-0.125 z"
       id="path2862"
       sodipodi:nodetypes="csssssssss" />
    <path
       style="fill:none;stroke:#0000ff;stroke-width:3.99999976;stroke-linecap:round;stroke-linejoin:round;stroke-miterlimit:4;stroke-opacity:1;stroke-dasharray:none"
       d="m 138.99671,145.15977 c 2.1493,-1.36305 3.62041,-0.27141 4.83141,0.1934 2.28041,0.19448 1.961,1.10959 4.25182,1.79778 0.82198,1.47838 2.39484,1.98987 2.8913,3.88798 1.47432,2.24928 0.90352,5.40116 -0.32804,8.21847 -1.19809,1.96843 -2.21327,3.96375 -4.23953,5.20676 -1.43099,0.87732 -2.84183,2.28566 -4.28882,2.74168 -2.28142,0.0926 -5.57086,1.17361 -7.08786,0.4882 -0.80363,-1.37577 -2.37527,-2.17014 -3.3126,-3.39509 -1.03571,-2.14715 -1.16618,-4.96043 -2.20176,-7.10756 0.56398,-1.43246 0.43245,-2.96595 1.38065,-3.96298 0.33416,-0.94327 1.90973,-1.73661 2.50564,-2.67889 1.66497,-2.16984 3.52445,-3.1903 5.59779,-5.38975 z"
       id="path2905"
       sodipodi:nodetypes="cccccsccccccc" />
    <path
       id="path2900"
       style="fill:none;stroke:#0000ff;stroke-width:4;stroke-linecap:round;stroke-linejoin:round;stroke-miterlimit:4;stroke-opacity:1;stroke-dasharray:none"
       d="m 145.39225,193.91 c -0.42001,-1.59689 -3.02143,-3.16822 -3.76401,-3.66633 -1.58126,-2.10809 -2.48993,-2.18694 -4.78243,-4.30998 -0.89438,-3.36444 -2.49423,-8.30589 -4.86181,-12.37038 3.83548,2.04777 4.52394,3.3175 6.4479,5.04726 2.59443,2.3325 3.98097,3.05003 7.01255,4.70098 1.50504,0.78293 3.42828,2.16908 5.10776,3.5468 0.86729,0.58568 1.62496,2.30849 3.82115,3.28829"
       sodipodi:nodetypes="ccccsccc" />
    <path
       style="color:#000000;fill:none;stroke:#80ff00;stroke-width:4;stroke-linecap:round;stroke-linejoin:round;stroke-miterlimit:4;stroke-opacity:1;stroke-dasharray:none;stroke-dashoffset:0;marker:none;visibility:visible;display:inline;overflow:visible;enable-background:accumulate"
       d="m 209.38618,229.83552 c -0.18488,0.22545 -2.61458,2.14828 -2.83321,2.33647 -0.30913,0.26619 -1.98441,1.95905 -2.26904,2.2574 -0.34576,0.36116 -1.95001,1.94745 -2.31376,2.29052 -1.1067,1.04312 -1.97777,2.01917 -3.37453,3.03046 -0.50145,0.36301 -1.08173,1.3429 -1.67385,1.55506"
       id="path3655-7"
       sodipodi:nodetypes="csssss" />
    <path
       style="color:#000000;fill:none;stroke:#c87137;stroke-width:4;stroke-linecap:round;stroke-linejoin:round;stroke-miterlimit:4;stroke-opacity:1;stroke-dasharray:none;stroke-dashoffset:0;marker:none;visibility:visible;display:inline;overflow:visible;enable-background:accumulate"
       d="m 169.59093,180.92442 c -0.10705,17.01612 -2.31611,17.14212 -0.36419,17.29636 2.53197,0.20007 7.62375,0.17088 10.39414,-0.0457 4.54891,-0.35562 5.79148,0.5665 7.74769,0.2819 3.41036,-0.49615 16.77346,0.99812 16.70983,-0.86119 -0.13149,-3.84255 -1.17923,-14.18403 -1.22392,-16.54199 -0.10178,-5.37022 -1.741,-13.80789 -1.7975,-18.23125 -0.0231,-1.80845 -4.13995,-2.24752 -12.43697,-1.14064 -9.96355,1.3292 -16.95758,-1.69254 -16.95758,1.22274 l 0,1e-5 0,-1e-5 c 0,0 -2.03379,12.02495 -2.0715,18.01977 z"
       id="path2893"
       sodipodi:nodetypes="cssssssssccs" />
    <path
       style="color:#000000;fill:none;stroke:#c87137;stroke-width:4;stroke-linecap:round;stroke-linejoin:round;stroke-miterlimit:4;stroke-opacity:1;stroke-dasharray:none;stroke-dashoffset:0;marker:none;visibility:visible;display:inline;overflow:visible;enable-background:accumulate"
       d="m 185.87088,162.75736 c -0.16395,3.85882 -0.4205,8.16744 -0.4205,12.09105 0,1.50196 0.92089,3.41011 0.5455,4.83165 -0.25073,0.94949 0.22097,7.45576 0.22097,8.63784 0,3.90593 -0.096,5.07339 -0.096,8.99491"
       id="path2897"
       sodipodi:nodetypes="csssc" />
    <path
       style="color:#000000;fill:none;stroke:#80ff00;stroke-width:4;stroke-linecap:round;stroke-linejoin:round;stroke-miterlimit:4;stroke-opacity:1;stroke-dasharray:none;stroke-dashoffset:0;marker:none;visibility:visible;display:inline;overflow:visible;enable-background:accumulate"
       d="m 160.43261,199.2869 c 1.45344,0.0349 2.44638,0.32443 3.64898,0.41345 1.17354,0.0869 2.27461,0.0363 3.20006,0.0634 0.78842,0.0229 1.86632,0.13867 3.25498,0.0717 1.06654,-0.0514 2.23612,0.26271 4.06004,0.17142 0.61829,-0.0309 1.64862,0.0588 2.74559,0.27219"
       id="path3655-4"
       sodipodi:nodetypes="csssss" />
    <path
       id="path4455"
       style="color:#000000;fill:none;stroke:#ff0000;stroke-width:4;stroke-linecap:round;stroke-linejoin:round;stroke-miterlimit:4;stroke-opacity:1;stroke-dasharray:none;stroke-dashoffset:0;marker:none;visibility:visible;display:inline;overflow:visible;enable-background:accumulate"
       d="m 51.214092,240.53224 c -2.489841,-0.52886 -4.511377,-0.17106 -6.863088,0.15153 -0.967517,0.13269 -3.284985,0.28059 -4.050549,0.49921 -0.705638,0.20156 -4.400664,0.0237 -5.266779,0.27109 -3.141006,0.89715 -5.526156,0.40232 -8.687447,-0.19066 m -10.132426,9.43056 c 1.11496,0.003 2.70811,-0.36247 3.909384,-0.70556 0.481111,-0.13718 2.372218,-0.10836 2.769164,-0.3799 0.511099,-0.34969 2.315512,-1.2811 2.410877,-1.34638 0.90661,-0.62022 0.746239,-8.89663 -0.118738,-9.91456 -1.112825,-1.30962 0.636487,-3.83367 0.05459,-4.12653 -1.553815,-0.78201 -8.598718,-1.61292 -10.077288,-1.89026"
       sodipodi:nodetypes="csssccsssssc" />
    <path
       style="color:#000000;fill:none;stroke:#008000;stroke-width:4;stroke-linecap:butt;stroke-linejoin:miter;stroke-miterlimit:4;stroke-opacity:1;stroke-dasharray:none;stroke-dashoffset:0;marker:none;visibility:visible;display:inline;overflow:visible;enable-background:accumulate"
       d="m 188.18944,148.56119 c 0.11914,1.30964 1.11415,2.60692 2.91059,4.57353 2.16321,2.36811 2.70656,3.19341 1.48948,4.19202 -0.27729,0.22763 -2.60361,0.0869 -3.00446,0.1003 -3.60532,0.12036 -9.87336,1.48851 -9.1682,0.16566 3.85774,-7.23707 5.11123,-5.84621 4.95293,-9.0315"
       id="path2844" />
    <path
       style="color:#000000;fill:none;stroke:#008000;stroke-width:4;stroke-linecap:butt;stroke-linejoin:miter;stroke-miterlimit:4;stroke-opacity:1;stroke-dasharray:none;stroke-dashoffset:0;marker:none;visibility:visible;display:inline;overflow:visible;enable-background:accumulate"
       d="m 187.10239,190.3755 c -0.14427,2.80282 -5.40265,6.99118 -5.56327,8.77288 -0.12963,1.43829 5.16595,0.48183 7.34989,0.55864 1.58543,0.0569 3.86166,0.48804 5.12241,-0.27062 0.80769,-0.48573 0.6716,-1.67962 -1.43057,-4.13478 -1.92738,-2.251 -2.77725,-3.64493 -2.65883,-4.92155"
       id="path2862-4-1" />
    <path
       style="fill:none;stroke:#0000ff;stroke-width:4;stroke-linecap:round;stroke-linejoin:round;stroke-miterlimit:4;stroke-opacity:1;stroke-dasharray:none"
       d="m 134.5325,168.72355 c -0.42638,2.50276 -3.25955,4.6645 -2.92819,5.81787 -2.2363,3.16741 -3.87566,6.75638 -6.15157,9.89126 -2.13478,2.59505 -3.13645,5.78684 -4.6342,8.50309 -0.52529,1.43201 -1.05055,2.86391 -1.5758,4.29581"
       id="path2907" />
    <path
       id="path2909"
       style="fill:none;stroke:#0000ff;stroke-width:4;stroke-linecap:round;stroke-linejoin:round;stroke-miterlimit:4;stroke-opacity:1;stroke-dasharray:none"
       d="m 139.67679,217.79555 c 0.13683,1.29903 0.55052,-1.0114 0.45502,-1.27653 -0.62639,-0.82908 0.58465,-4.89741 0.17134,-7.01345 -0.14286,-3.53621 0.44118,-9.70859 -1.45763,-11.60539 -1.82307,-0.91425 -4.96815,0.30453 -9.32363,-0.23315 -3.29442,0.16803 -8.10042,0.19313 -10.27509,0.29911"
       sodipodi:nodetypes="cccccc" />
    <path
       style="fill:none;stroke:#80ff00;stroke-width:3.99999976;stroke-linecap:round;stroke-linejoin:round;stroke-miterlimit:4;stroke-opacity:1;stroke-dasharray:none"
       d="m 104.9915,279.21847 c -0.16473,-4.28627 0.0566,-8.65967 -2.10492,-12.72286 -2.0382,-5.12304 -3.717605,-10.39603 -6.51998,-15.37625 -1.170127,-3.32371 -2.633202,-11.77722 -5.209507,-5.44092 -3.831017,4.11863 -6.935163,8.4276 -8.898048,13.26445 -2.536487,4.86422 -5.81271,10.18882 -7.086338,14.92503 0.619209,1.46972 -1.391551,2.25894 -1.030495,3.71692"
       id="path2956" />
    <path
       style="fill:none;stroke:#80ff00;stroke-width:3.99999976;stroke-linecap:round;stroke-linejoin:round;stroke-miterlimit:4;stroke-opacity:1;stroke-dasharray:none"
       d="m 162.86839,270.92406 c -0.32562,-0.69791 -2.07485,-4.44779 -2.94158,-6.30595 -2.66293,-5.88349 -0.82568,-9.97011 -2.77798,-18.06368 -1.75725,-4.31366 -3.10578,-14.086 -3.6531,-16.57522 4.42044,2.5422 8.73612,5.30024 13.17965,7.78666 6.45506,4.25782 13.5177,6.95403 21.82453,6.49345 1.07357,-0.22265 3.11674,-1.36837 3.19854,0.65839"
       id="path2958" />
    <path
       style="color:#000000;fill:none;stroke:#80ff00;stroke-width:4;stroke-linecap:round;stroke-linejoin:round;stroke-miterlimit:4;stroke-opacity:1;stroke-dasharray:none;stroke-dashoffset:0;marker:none;visibility:visible;display:inline;overflow:visible;enable-background:accumulate"
       d="m 66.906226,239.74523 c 3.092059,1.85007 6.183411,2.35818 9.813557,2.80186 3.747367,0.45801 6.183432,-0.0418 10.056755,-0.12488 4.109667,-0.0882 8.180185,-2.07166 12.782426,-3.21641 5.748636,-1.42992 10.786166,-3.76147 16.653106,-5.06397 7.15366,-1.58827 14.70816,-1.60092 22.09569,-2.24879 3.71485,-0.3258 7.39757,-0.29379 11.10776,-0.94445 2.86193,-0.50211 9.05984,-2.04957 10.98521,-3.44096"
       id="path2833-1"
       sodipodi:nodetypes="csssssss" />
    <path
       style="color:#000000;fill:none;stroke:#80ff00;stroke-width:3.99999976;stroke-linecap:round;stroke-linejoin:round;stroke-miterlimit:4;stroke-opacity:1;stroke-dasharray:none;stroke-dashoffset:0;marker:none;visibility:visible;display:inline;overflow:visible;enable-background:accumulate"
       d="m 67.170506,225.81325 c -0.75716,-1.0578 -5.03769,1.6999 -7.2801,2.2698 -1.82238,0.4632 -3.73476,0.6436 -5.47487,1.2945 -1.93006,0.722 -3.75899,1.7172 -5.71864,2.3536 -2.94166,0.9554 -5.99579,1.6222 -9.01165,2.3705 -1.47444,0.3658 -2.98023,0.091 -4.25364,0.8864 -1.58133,0.9885 -4.93479,1.0471 -5.01655,2.3385 -0.076,1.2005 3.01378,1.6179 4.132,2.8891 3.59407,4.0856 6.21026,3.6962 9.54952,4.8728 2.35721,0.8305 4.71148,0.7263 6.94979,1.7604 2.45458,1.1341 4.43905,2.9995 6.87922,4.1664 1.53542,0.7343 3.2151,0.9185 4.76571,1.5383 2.3175,0.9263 1.23172,-1.8772 1.21129,-2.9458 -0.0378,-1.9778 0.30028,-3.9319 0.37175,-5.9035 0.0618,-1.704 0.90171,-3.3116 0.81987,-5.0737 -0.0885,-1.905 -0.20546,-3.8727 0.16174,-5.7389 0.35156,-1.7867 0.82643,-3.5803 1.41104,-5.3339 0.28726,-0.8616 0.88573,-1.2105 0.50352,-1.7445 z"
       id="path2870"
       sodipodi:nodetypes="csssssssssssssssss" />
    <path
       id="path4123"
       style="fill:none;stroke:#80ff00;stroke-width:3.99999976;stroke-linecap:round;stroke-linejoin:round;stroke-miterlimit:4;stroke-opacity:1;stroke-dasharray:none"
       d="m 160.6951,227.40229 c 0.40054,-0.40294 2.52713,-1.38351 5.36916,-1.04061 3.64824,-0.82547 11.84793,-1.92098 18.99688,-6.37544 0.67991,-0.7002 3.62683,-5.38405 8.34734,-7.46844 8.54733,-7.48267 13.79487,-8.61538 25.88246,-12.09379 6.35788,-2.15281 11.59375,-2.00186 16.23527,-3.70925 10.19638,-1.45324 14.89551,-5.63397 23.1255,-9.61562 9.81191,-2.14706 18.79656,-2.85776 26.14517,-0.65703 8.11344,1.39843 14.30316,2.72107 21.68209,1.73718 7.99091,-1.28556 15.93384,-2.11343 24.04643,-4.37942"
       sodipodi:nodetypes="cccccccccc" />
  </g>
</svg>
