<?xml version="1.0" encoding="UTF-8" standalone="no"?>
<!-- Created with Inkscape (http://www.inkscape.org/) -->

<svg
   xmlns:dc="http://purl.org/dc/elements/1.1/"
   xmlns:cc="http://creativecommons.org/ns#"
   xmlns:rdf="http://www.w3.org/1999/02/22-rdf-syntax-ns#"
   xmlns:svg="http://www.w3.org/2000/svg"
   xmlns="http://www.w3.org/2000/svg"
   xmlns:xlink="http://www.w3.org/1999/xlink"
   xmlns:sodipodi="http://sodipodi.sourceforge.net/DTD/sodipodi-0.dtd"
   xmlns:inkscape="http://www.inkscape.org/namespaces/inkscape"
   width="480"
   height="320"
   id="svg2"
   version="1.1"
   inkscape:version="0.48.0 r9654"
   sodipodi:docname="itnas376.svg"
   inkscape:export-xdpi="90"
   inkscape:export-ydpi="90"
   inkscape:export-filename="itnas376.png">
  <defs
     id="defs4">
    <marker
       inkscape:stockid="Arrow1Mend"
       orient="auto"
       refY="0.0"
       refX="0.0"
       id="Arrow1Mend"
       style="overflow:visible;">
      <path
         id="path6373"
         d="M 0.0,0.0 L 5.0,-5.0 L -12.5,0.0 L 5.0,5.0 L 0.0,0.0 z "
         style="fill-rule:evenodd;stroke:#000000;stroke-width:1.0pt;marker-start:none;"
         transform="scale(0.4) rotate(180) translate(10,0)" />
    </marker>
    <inkscape:perspective
       sodipodi:type="inkscape:persp3d"
       inkscape:vp_x="0 : 160 : 1"
       inkscape:vp_y="0 : 1000 : 0"
       inkscape:vp_z="480 : 160 : 1"
       inkscape:persp3d-origin="240 : 106.66667 : 1"
       id="perspective8" />
    <clipPath
       clipPathUnits="userSpaceOnUse"
       id="clipPath7073">
      <rect
         style="color:#000000;fill:none;stroke:#000000;stroke-width:1;stroke-linecap:butt;stroke-linejoin:miter;stroke-miterlimit:4;stroke-opacity:1;stroke-dasharray:none;stroke-dashoffset:0;marker:none;visibility:visible;display:inline;overflow:visible;enable-background:accumulate"
         id="rect7075"
         width="55"
         height="90"
         x="110"
         y="110" />
    </clipPath>
    <clipPath
       clipPathUnits="userSpaceOnUse"
       id="clipPath7409">
      <rect
         style="color:#000000;fill:none;stroke:#000000;stroke-width:1;stroke-linecap:butt;stroke-linejoin:miter;stroke-miterlimit:4;stroke-opacity:1;stroke-dasharray:none;stroke-dashoffset:0;marker:none;visibility:visible;display:inline;overflow:visible;enable-background:accumulate"
         id="rect7411"
         width="240"
         height="160"
         x="0"
         y="0" />
    </clipPath>
    <clipPath
       clipPathUnits="userSpaceOnUse"
       id="clipPath6052">
      <rect
         style="color:#000000;fill:none;stroke:#000000;stroke-width:1;stroke-linecap:butt;stroke-linejoin:miter;stroke-miterlimit:4;stroke-opacity:1;stroke-dasharray:none;stroke-dashoffset:0;marker:none;visibility:visible;display:inline;overflow:visible;enable-background:accumulate"
         id="rect6054"
         width="240"
         height="160"
         x="0"
         y="0" />
    </clipPath>
    <marker
       inkscape:stockid="Arrow1Mend"
       orient="auto"
       refY="0"
       refX="0"
       id="Arrow1Mend-3"
       style="overflow:visible">
      <path
         inkscape:connector-curvature="0"
         id="path6373-0"
         d="M 0,0 5,-5 -12.5,0 5,5 0,0 z"
         style="fill-rule:evenodd;stroke:#000000;stroke-width:1pt;marker-start:none"
         transform="matrix(-0.4,0,0,-0.4,-4,0)" />
    </marker>
  </defs>
  <sodipodi:namedview
     id="base"
     pagecolor="#ffffff"
     bordercolor="#666666"
     borderopacity="1.0"
     inkscape:pageopacity="1"
     inkscape:pageshadow="2"
     inkscape:zoom="1"
     inkscape:cx="239"
     inkscape:cy="182.5"
     inkscape:document-units="px"
     inkscape:current-layer="layer1"
     showgrid="true"
     inkscape:snap-nodes="true"
     inkscape:snap-global="true"
     inkscape:snap-grids="true"
     showguides="true"
     inkscape:window-width="1030"
     inkscape:window-height="774"
     inkscape:window-x="-4"
     inkscape:window-y="380"
     inkscape:window-maximized="1">
    <inkscape:grid
       empspacing="5"
       visible="true"
       enabled="true"
       snapvisiblegridlinesonly="true"
       type="xygrid"
       id="grid2816" />
  </sodipodi:namedview>
  <metadata
     id="metadata7">
    <rdf:RDF>
      <cc:Work
         rdf:about="">
        <dc:format>image/svg+xml</dc:format>
        <dc:type
           rdf:resource="http://purl.org/dc/dcmitype/StillImage" />
        <dc:title />
      </cc:Work>
    </rdf:RDF>
  </metadata>
  <g
     inkscape:label="Layer 1"
     inkscape:groupmode="layer"
     id="layer1"
     transform="translate(0,0)">
    <g
       id="g6202"
       style="stroke:#0000ff;stroke-width:0.2"
       transform="matrix(5,0,0,5,-155,-80)">
      <g
         id="g6829">
        <path
           style="fill:none;stroke:#ff6600;stroke-width:0.40000001;stroke-linecap:butt;stroke-linejoin:miter;stroke-miterlimit:4;stroke-opacity:1;stroke-dasharray:none"
           d="M 52.2,41 52,41.2 51,49.8 50.8,50 49.2,50 49,49.8 48,41.2 47.8,41"
           id="path6190"
           inkscape:connector-curvature="0"
           sodipodi:nodetypes="cccccccc" />
        <path
           style="fill:none;stroke:#ff6600;stroke-width:2;stroke-linecap:butt;stroke-linejoin:miter;stroke-miterlimit:4;stroke-opacity:1;stroke-dasharray:2, 2;stroke-dashoffset:0"
           d="M 120,75 70,75"
           id="path6832"
           inkscape:connector-curvature="0"
           transform="matrix(0,0.2,-0.2,0,65,26)" />
      </g>
      <use
         height="320"
         width="480"
         transform="matrix(0.5,-0.86602541,-0.86602541,-0.5,59.641016,103.30127)"
         id="use6198"
         xlink:href="#g6829"
         y="0"
         x="0"
         style="stroke:#0000ff;stroke-width:0.2" />
      <use
         height="320"
         width="480"
         transform="matrix(0.5,0.86602541,0.86602541,-0.5,-9.6410157,16.69873)"
         id="use6200"
         xlink:href="#g6829"
         y="0"
         x="0"
         style="stroke:#0000ff;stroke-width:0.2" />
    </g>
    <path
       inkscape:connector-curvature="0"
       id="path5742"
       d="m 95,290 0,-80"
       style="color:#000000;fill:#000000;fill-opacity:1;fill-rule:nonzero;stroke:#ff6600;stroke-width:2;stroke-linecap:butt;stroke-linejoin:miter;stroke-miterlimit:4;stroke-opacity:1;stroke-dasharray:2, 2;stroke-dashoffset:0;marker:none;visibility:visible;display:inline;overflow:visible;enable-background:accumulate"
       sodipodi:nodetypes="cc" />
    <g
       id="g5923"
       style="stroke:#ff6600"
       transform="matrix(0,1,-1,0,170,90)">
      <path
         sodipodi:nodetypes="cccc"
         inkscape:connector-curvature="0"
         id="path5726"
         d="m 200,120 -65,0 -6,-5 -9,-40"
         style="color:#000000;fill:none;stroke:#ff6600;stroke-width:2;stroke-linecap:butt;stroke-linejoin:miter;stroke-miterlimit:4;stroke-opacity:1;stroke-dasharray:none;stroke-dashoffset:0;marker:none;visibility:visible;display:inline;overflow:visible;enable-background:accumulate" />
      <path
         sodipodi:nodetypes="ccccc"
         inkscape:connector-curvature="0"
         id="path5728"
         d="m 200,80 -60,0 -6,-1.25 -2.5,-1.25 c 0,0 -1.75,-2.5 -1.5,-2.5"
         style="color:#000000;fill:none;stroke:#ff6600;stroke-width:2;stroke-linecap:butt;stroke-linejoin:miter;stroke-miterlimit:4;stroke-opacity:1;stroke-dasharray:none;stroke-dashoffset:0;marker:none;visibility:visible;display:inline;overflow:visible;enable-background:accumulate" />
      <path
         style="fill:none;stroke:#ff6600;stroke-width:2;stroke-linecap:butt;stroke-linejoin:miter;stroke-miterlimit:4;stroke-opacity:1;stroke-dasharray:none;stroke-dashoffset:0.8"
         d="m 120.25,75 1.25,2.5 6.25,5 12.25,2.5 60,0"
         id="path6224-8"
         inkscape:connector-curvature="0"
         sodipodi:nodetypes="ccccc" />
      <path
         inkscape:connector-curvature="0"
         id="path5744"
         d="m 130,115 70,0"
         style="color:#000000;fill:#000000;fill-opacity:1;fill-rule:nonzero;stroke:#ff6600;stroke-width:2;stroke-linecap:butt;stroke-linejoin:miter;stroke-miterlimit:4;stroke-opacity:1;stroke-dasharray:2, 2;stroke-dashoffset:0;marker:none;visibility:visible;display:inline;overflow:visible;enable-background:accumulate"
         sodipodi:nodetypes="cc" />
      <path
         style="fill:none;stroke:#000000;stroke-width:1;stroke-linecap:butt;stroke-linejoin:miter;stroke-miterlimit:4;stroke-opacity:1;stroke-dasharray:1, 1;stroke-dashoffset:0"
         d="m 10,120 125,0"
         id="path5975"
         inkscape:connector-curvature="0"
         sodipodi:nodetypes="cc" />
      <path
         style="fill:none;stroke:#000000;stroke-width:1;stroke-linecap:butt;stroke-linejoin:miter;stroke-miterlimit:4;stroke-opacity:1;stroke-dasharray:1, 1;stroke-dashoffset:0"
         d="m 0,115 130,0"
         id="path5977"
         inkscape:connector-curvature="0"
         sodipodi:nodetypes="cc" />
      <path
         style="fill:none;stroke:#000000;stroke-width:1;stroke-linecap:butt;stroke-linejoin:miter;stroke-miterlimit:4;stroke-opacity:1;stroke-dasharray:1, 1;stroke-dashoffset:0"
         d="m 35,85 105,0"
         id="path5979"
         inkscape:connector-curvature="0"
         sodipodi:nodetypes="cc" />
      <path
         style="fill:none;stroke:#000000;stroke-width:1;stroke-linecap:butt;stroke-linejoin:miter;stroke-miterlimit:4;stroke-opacity:1;stroke-dasharray:1, 1;stroke-dashoffset:0"
         d="M 140,80 80,80"
         id="path5981"
         inkscape:connector-curvature="0"
         sodipodi:nodetypes="cc" />
    </g>
    <use
       x="0"
       y="0"
       xlink:href="#g5923"
       id="use5928"
       transform="matrix(-1,0,0,1,190,0)"
       width="480"
       height="320"
       style="stroke:#ff6600" />
    <path
       style="fill:none;stroke:#000000;stroke-width:1;stroke-linecap:butt;stroke-linejoin:miter;stroke-miterlimit:4;stroke-opacity:1;stroke-dasharray:1, 1;stroke-dashoffset:0"
       d="m 95,110 0,100"
       id="path5983"
       inkscape:connector-curvature="0"
       sodipodi:nodetypes="cc" />
    <g
       id="g7245"
       transform="translate(240,-70)">
      <path
         inkscape:connector-curvature="0"
         d="m 63,200 0,-210 4,0 0,210 z"
         style="color:#000000;fill:#ffffff;stroke:#cc00ff;stroke-width:2;stroke-linecap:butt;stroke-linejoin:miter;stroke-miterlimit:4;stroke-opacity:1;stroke-dasharray:none;stroke-dashoffset:0;marker:none;visibility:visible;display:inline;overflow:visible;enable-background:accumulate"
         id="path7210"
         sodipodi:nodetypes="ccccc" />
      <use
         height="320"
         width="480"
         transform="translate(25,0)"
         id="use7223"
         xlink:href="#path7210"
         y="0"
         x="0" />
      <use
         height="320"
         width="480"
         transform="matrix(-1,0,0,1,180,0)"
         id="use7231"
         xlink:href="#path7210"
         y="0"
         x="0" />
      <use
         height="320"
         width="480"
         transform="translate(75,0)"
         id="use7237"
         xlink:href="#path7210"
         y="0"
         x="0" />
      <use
         x="0"
         y="0"
         xlink:href="#path7210"
         id="use6220"
         transform="translate(100,0)"
         width="480"
         height="320" />
    </g>
    <use
       x="0"
       y="0"
       xlink:href="#g7245"
       id="use7251"
       transform="translate(125,0)"
       width="480"
       height="320" />
    <g
       id="g6198"
       transform="translate(0,160)">
      <path
         transform="translate(240,0)"
         clip-path="url(#clipPath7409)"
         sodipodi:nodetypes="ccccccccccccc"
         inkscape:connector-curvature="0"
         d="m 30,165 0,-135 5,-10 10,-5 200,0 0,40 -15,0 L 210,35 80,35 70,55 50,65 50,165 z"
         style="color:#000000;fill:#ffffff;stroke:#00ff00;stroke-width:2;stroke-linecap:butt;stroke-linejoin:miter;stroke-miterlimit:4;stroke-opacity:1;stroke-dasharray:none;stroke-dashoffset:0;marker:none;visibility:visible;display:inline;overflow:visible;enable-background:accumulate"
         id="rect6169" />
      <g
         transform="translate(50,-245)"
         id="use6159">
        <path
           sodipodi:type="arc"
           style="color:#000000;fill:none;stroke:#00ff00;stroke-width:1px;stroke-linecap:butt;stroke-linejoin:miter;stroke-miterlimit:4;stroke-opacity:1;stroke-dasharray:none;stroke-dashoffset:0;marker:none;visibility:visible;display:inline;overflow:visible;enable-background:accumulate"
           id="path6207"
           sodipodi:cx="240"
           sodipodi:cy="280"
           sodipodi:rx="5"
           sodipodi:ry="5"
           d="m 245,280 c 0,2.76142 -2.23858,5 -5,5 -2.76142,0 -5,-2.23858 -5,-5 0,-2.76142 2.23858,-5 5,-5 2.76142,0 5,2.23858 5,5 z" />
      </g>
      <g
         transform="translate(240,-245)"
         id="use6161">
        <path
           sodipodi:type="arc"
           style="color:#000000;fill:none;stroke:#00ff00;stroke-width:1px;stroke-linecap:butt;stroke-linejoin:miter;stroke-miterlimit:4;stroke-opacity:1;stroke-dasharray:none;stroke-dashoffset:0;marker:none;visibility:visible;display:inline;overflow:visible;enable-background:accumulate"
           id="path6213"
           sodipodi:cx="240"
           sodipodi:cy="280"
           sodipodi:rx="5"
           sodipodi:ry="5"
           d="m 245,280 c 0,2.76142 -2.23858,5 -5,5 -2.76142,0 -5,-2.23858 -5,-5 0,-2.76142 2.23858,-5 5,-5 2.76142,0 5,2.23858 5,5 z" />
      </g>
      <rect
         style="color:#000000;fill:none;stroke:#000000;stroke-width:2;stroke-linecap:butt;stroke-linejoin:miter;stroke-miterlimit:4;stroke-opacity:1;stroke-dasharray:none;stroke-dashoffset:0;marker:none;visibility:visible;display:inline;overflow:visible;enable-background:accumulate"
         id="rect6353"
         width="59.999981"
         height="59.999973"
         x="360"
         y="230"
         transform="translate(0,-160)" />
      <path
         style="fill:none;stroke:#000000;stroke-width:2;stroke-linecap:butt;stroke-linejoin:miter;stroke-opacity:1;stroke-miterlimit:4;stroke-dasharray:none"
         d="m 390,230 0,60"
         id="path6355"
         inkscape:connector-curvature="0"
         sodipodi:nodetypes="cc"
         transform="translate(0,-160)" />
      <path
         style="fill:none;stroke:#000000;stroke-width:2;stroke-linecap:butt;stroke-linejoin:miter;stroke-opacity:1;stroke-miterlimit:4;stroke-dasharray:none"
         d="m 420,260 -60,0"
         id="path6357"
         inkscape:connector-curvature="0"
         transform="translate(0,-160)" />
    </g>
    <g
       transform="matrix(1,0,0,-1,0,160)"
       id="use6215">
      <g
         id="g6316"
         transform="matrix(0,-1,1,0,290,213)">
        <path
           inkscape:connector-curvature="0"
           d="m 63,200 0,-210 4,0 0,210 z"
           style="color:#000000;fill:#ffffff;stroke:#cc00ff;stroke-width:2;stroke-linecap:butt;stroke-linejoin:miter;stroke-miterlimit:4;stroke-opacity:1;stroke-dasharray:none;stroke-dashoffset:0;marker:none;visibility:visible;display:inline;overflow:visible;enable-background:accumulate"
           id="path6318"
           sodipodi:nodetypes="ccccc" />
        <use
           height="320"
           width="480"
           transform="translate(25,0)"
           id="use6320"
           xlink:href="#path7210"
           y="0"
           x="0" />
        <use
           height="320"
           width="480"
           transform="matrix(-1,0,0,1,180,0)"
           id="use6322"
           xlink:href="#path7210"
           y="0"
           x="0" />
        <use
           height="320"
           width="480"
           transform="translate(75,0)"
           id="use6324"
           xlink:href="#path7210"
           y="0"
           x="0" />
        <use
           x="0"
           y="0"
           xlink:href="#path7210"
           id="use6326"
           transform="translate(100,0)"
           width="480"
           height="320" />
      </g>
      <path
         id="path6328"
         style="color:#000000;fill:#ffffff;stroke:#ff0000;stroke-width:2;stroke-linecap:butt;stroke-linejoin:miter;stroke-miterlimit:4;stroke-opacity:1;stroke-dasharray:none;stroke-dashoffset:0;marker:none;visibility:visible;display:inline;overflow:visible;enable-background:accumulate"
         d="m 30,165 0,-135 5,-10 10,-5 200,0 0,40 -15,0 L 210,35 80,35 70,55 50,65 50,165 z"
         inkscape:connector-curvature="0"
         sodipodi:nodetypes="ccccccccccccc"
         clip-path="url(#clipPath7409)"
         transform="translate(240,0)" />
      <g
         id="g6330"
         transform="translate(50,-245)">
        <path
           transform="translate(-210,240)"
           d="m 460,40 c 0,5.522847 -4.47715,10 -10,10 -5.52285,0 -10,-4.477153 -10,-10 0,-5.522847 4.47715,-10 10,-10 5.52285,0 10,4.477153 10,10 z"
           sodipodi:ry="10"
           sodipodi:rx="10"
           sodipodi:cy="40"
           sodipodi:cx="450"
           id="path6332"
           style="color:#000000;fill:none;stroke:#00ff00;stroke-width:1px;stroke-linecap:butt;stroke-linejoin:miter;stroke-miterlimit:4;stroke-opacity:1;stroke-dasharray:none;stroke-dashoffset:0;marker:none;visibility:visible;display:inline;overflow:visible;enable-background:accumulate"
           sodipodi:type="arc" />
        <path
           d="m 245,280 c 0,2.76142 -2.23858,5 -5,5 -2.76142,0 -5,-2.23858 -5,-5 0,-2.76142 2.23858,-5 5,-5 2.76142,0 5,2.23858 5,5 z"
           sodipodi:ry="5"
           sodipodi:rx="5"
           sodipodi:cy="280"
           sodipodi:cx="240"
           id="path6334"
           style="color:#000000;fill:none;stroke:#00ff00;stroke-width:1px;stroke-linecap:butt;stroke-linejoin:miter;stroke-miterlimit:4;stroke-opacity:1;stroke-dasharray:none;stroke-dashoffset:0;marker:none;visibility:visible;display:inline;overflow:visible;enable-background:accumulate"
           sodipodi:type="arc" />
      </g>
      <g
         id="g6336"
         transform="translate(240,-245)">
        <path
           transform="translate(-210,240)"
           d="m 460,40 c 0,5.522847 -4.47715,10 -10,10 -5.52285,0 -10,-4.477153 -10,-10 0,-5.522847 4.47715,-10 10,-10 5.52285,0 10,4.477153 10,10 z"
           sodipodi:ry="10"
           sodipodi:rx="10"
           sodipodi:cy="40"
           sodipodi:cx="450"
           id="path6338"
           style="color:#000000;fill:none;stroke:#00ff00;stroke-width:1px;stroke-linecap:butt;stroke-linejoin:miter;stroke-miterlimit:4;stroke-opacity:1;stroke-dasharray:none;stroke-dashoffset:0;marker:none;visibility:visible;display:inline;overflow:visible;enable-background:accumulate"
           sodipodi:type="arc" />
        <path
           d="m 245,280 c 0,2.76142 -2.23858,5 -5,5 -2.76142,0 -5,-2.23858 -5,-5 0,-2.76142 2.23858,-5 5,-5 2.76142,0 5,2.23858 5,5 z"
           sodipodi:ry="5"
           sodipodi:rx="5"
           sodipodi:cy="280"
           sodipodi:cx="240"
           id="path6340"
           style="color:#000000;fill:none;stroke:#00ff00;stroke-width:1px;stroke-linecap:butt;stroke-linejoin:miter;stroke-miterlimit:4;stroke-opacity:1;stroke-dasharray:none;stroke-dashoffset:0;marker:none;visibility:visible;display:inline;overflow:visible;enable-background:accumulate"
           sodipodi:type="arc" />
      </g>
    </g>
    <path
       style="fill:none;stroke:#000000;stroke-width:2;stroke-linecap:butt;stroke-linejoin:miter;stroke-miterlimit:4;stroke-opacity:1;stroke-dasharray:none;marker-end:url(#Arrow1Mend)"
       d="M 260,180 C 250,163.93814 244,142.47322 244,97.999999 244,48.875524 252,30.371134 261,16"
       id="path6359"
       inkscape:connector-curvature="0"
       sodipodi:nodetypes="csc" />
    <path
       sodipodi:type="arc"
       style="color:#000000;fill:none;stroke:#000000;stroke-width:2;stroke-linecap:butt;stroke-linejoin:miter;stroke-miterlimit:4;stroke-opacity:1;stroke-dasharray:none;stroke-dashoffset:0;marker:none;visibility:visible;display:inline;overflow:visible;enable-background:accumulate"
       id="path6836"
       sodipodi:cx="90"
       sodipodi:cy="210"
       sodipodi:rx="25"
       sodipodi:ry="25"
       d="M 90.000001,235 A 25,25 0 1 1 90,185"
       transform="matrix(0,1,-1,0,400,-25)"
       sodipodi:start="1.5707963"
       sodipodi:end="4.712389"
       sodipodi:open="true" />
    <path
       style="fill:none;stroke:#000000;stroke-width:1px;stroke-linecap:butt;stroke-linejoin:miter;stroke-opacity:1"
       d="m 217,60 -2,5 -3,-4.5"
       id="path7586"
       inkscape:connector-curvature="0"
       sodipodi:nodetypes="ccc" />
    <path
       sodipodi:type="arc"
       style="color:#000000;fill:none;stroke:#0000ff;stroke-width:2;stroke-linecap:butt;stroke-linejoin:miter;stroke-miterlimit:4;stroke-opacity:1;stroke-dasharray:none;stroke-dashoffset:0;marker:none;visibility:visible;display:inline;overflow:visible;enable-background:accumulate"
       id="path6171"
       sodipodi:cx="30"
       sodipodi:cy="40"
       sodipodi:rx="15"
       sodipodi:ry="15"
       d="m 45,40 a 15,15 0 1 1 -30,0 15,15 0 1 1 30,0 z"
       transform="translate(160,25)" />
    <path
       sodipodi:end="4.712389"
       sodipodi:start="1.5707963"
       transform="matrix(0,1,1,0,-20,45)"
       d="M 90.000001,235 A 25,25 0 1 1 90,185"
       sodipodi:ry="25"
       sodipodi:rx="25"
       sodipodi:cy="210"
       sodipodi:cx="90"
       id="path7650"
       style="color:#000000;fill:none;stroke:#000000;stroke-width:2;stroke-linecap:butt;stroke-linejoin:miter;stroke-miterlimit:4;stroke-opacity:1;stroke-dasharray:none;stroke-dashoffset:0;marker:none;visibility:visible;display:inline;overflow:visible;enable-background:accumulate"
       sodipodi:type="arc"
       sodipodi:open="true" />
    <path
       sodipodi:nodetypes="ccc"
       inkscape:connector-curvature="0"
       id="path7652"
       d="m 163,130 2,5 3,-4.5"
       style="fill:none;stroke:#000000;stroke-width:1px;stroke-linecap:butt;stroke-linejoin:miter;stroke-opacity:1" />
    <path
       transform="matrix(-1,0,0,1,220,95)"
       d="m 45,40 a 15,15 0 1 1 -30,0 15,15 0 1 1 30,0 z"
       sodipodi:ry="15"
       sodipodi:rx="15"
       sodipodi:cy="40"
       sodipodi:cx="30"
       id="path7656"
       style="color:#000000;fill:none;stroke:#0000ff;stroke-width:2;stroke-linecap:butt;stroke-linejoin:miter;stroke-miterlimit:4;stroke-opacity:1;stroke-dasharray:none;stroke-dashoffset:0;marker:none;visibility:visible;display:inline;overflow:visible;enable-background:accumulate"
       sodipodi:type="arc" />
    <path
       style="color:#000000;fill:none;stroke:#0000ff;stroke-width:2;stroke-linecap:butt;stroke-linejoin:miter;stroke-miterlimit:4;stroke-opacity:1;stroke-dasharray:none;stroke-dashoffset:0;marker:none;visibility:visible;display:inline;overflow:visible;enable-background:accumulate"
       d="m 190,120 0,30"
       id="path7711"
       inkscape:connector-curvature="0"
       sodipodi:nodetypes="cc" />
    <path
       style="color:#000000;fill:none;stroke:#0000ff;stroke-width:2;stroke-linecap:butt;stroke-linejoin:miter;stroke-miterlimit:4;stroke-opacity:1;stroke-dasharray:none;stroke-dashoffset:0;marker:none;visibility:visible;display:inline;overflow:visible;enable-background:accumulate"
       d="m 175,135 30,0"
       id="path7713"
       inkscape:connector-curvature="0"
       sodipodi:nodetypes="cc" />
    <path
       sodipodi:type="arc"
       style="color:#000000;fill:none;stroke:#0000ff;stroke-width:2;stroke-linecap:butt;stroke-linejoin:miter;stroke-miterlimit:4;stroke-opacity:1;stroke-dasharray:none;stroke-dashoffset:0;marker:none;visibility:visible;display:inline;overflow:visible;enable-background:accumulate"
       id="path7664"
       sodipodi:cx="190"
       sodipodi:cy="130"
       sodipodi:rx="10"
       sodipodi:ry="10"
       d="m 200,130 a 10,10 0 1 1 -20,0 10,10 0 1 1 20,0 z"
       transform="translate(0,-65)" />
    <path
       d="m 195,130 a 5,5 0 1 1 -10,0 5,5 0 1 1 10,0 z"
       sodipodi:ry="5"
       sodipodi:rx="5"
       sodipodi:cy="130"
       sodipodi:cx="190"
       id="path7706"
       style="color:#000000;fill:none;stroke:#0000ff;stroke-width:2;stroke-linecap:butt;stroke-linejoin:miter;stroke-miterlimit:4;stroke-opacity:1;stroke-dasharray:none;stroke-dashoffset:0;marker:none;visibility:visible;display:inline;overflow:visible;enable-background:accumulate"
       sodipodi:type="arc"
       transform="translate(0,-65)" />
    <path
       sodipodi:nodetypes="csc"
       inkscape:connector-curvature="0"
       id="path10697"
       d="M 65,45 C 77.368223,48.723187 89.199716,59.762647 93.75,74.75 95.619638,80.90806 95,87.526646 95,95"
       style="fill:none;stroke:#000000;stroke-width:2;stroke-linecap:butt;stroke-linejoin:miter;stroke-miterlimit:4;stroke-opacity:1;stroke-dasharray:none;marker-end:url(#Arrow1Mend)" />
    <path
       id="path10785"
       style="fill:none;stroke:#b344ac;stroke-width:2;stroke-linecap:butt;stroke-linejoin:miter;stroke-miterlimit:4;stroke-opacity:1;stroke-dasharray:none;stroke-dashoffset:0"
       d="m 190,260 20,0 10,-5 -10,-5 -20,0 m 0,15 0,-20 m 10,5 10,10 m -20,-10 10,10"
       inkscape:connector-curvature="0"
       sodipodi:nodetypes="ccccccccccc" />
    <use
       x="0"
       y="0"
       xlink:href="#path10785"
       id="use10816"
       transform="translate(0,30)"
       width="480"
       height="320" />
    <use
       height="320"
       width="480"
       transform="translate(40,15)"
       id="use10818"
       xlink:href="#path10785"
       y="0"
       x="0" />
    <use
       x="0"
       y="0"
       xlink:href="#path10785"
       id="use10820"
       transform="translate(40,-15)"
       width="480"
       height="320" />
    <use
       height="320"
       width="480"
       transform="translate(40,45)"
       id="use10822"
       xlink:href="#path10785"
       y="0"
       x="0" />
    <g
       transform="translate(-950,-1460)"
       id="g9009">
      <rect
         ry="10"
         y="1480"
         x="970"
         height="40"
         width="40"
         id="rect8970"
         style="color:#000000;fill:none;stroke:#ff6ecb;stroke-width:2;stroke-linecap:butt;stroke-linejoin:miter;stroke-miterlimit:4;stroke-opacity:1;stroke-dasharray:none;stroke-dashoffset:0;marker:none;visibility:visible;display:inline;overflow:visible;enable-background:accumulate" />
      <path
         inkscape:connector-curvature="0"
         id="path8972"
         d="m 990,1480 20,20 -20,20 -20,-20 z"
         style="color:#000000;fill:none;stroke:#ff6ecb;stroke-width:2;stroke-linecap:butt;stroke-linejoin:bevel;stroke-miterlimit:4;stroke-opacity:1;stroke-dasharray:none;stroke-dashoffset:0;marker:none;visibility:visible;display:inline;overflow:visible;enable-background:accumulate" />
      <path
         style="color:#000000;fill:none;stroke:#ff6ecb;stroke-width:2;stroke-linecap:butt;stroke-linejoin:miter;stroke-miterlimit:4;stroke-opacity:1;stroke-dasharray:none;stroke-dashoffset:0;marker:none;visibility:visible;display:inline;overflow:visible;enable-background:accumulate"
         d="m 990,1490 10,10 -10,10 -10,-10 z"
         id="path9026"
         inkscape:connector-curvature="0"
         sodipodi:nodetypes="ccccc" />
    </g>
  </g>
</svg>
