<?xml version="1.0" encoding="UTF-8" standalone="no"?>
<!-- Created with Inkscape (http://www.inkscape.org/) -->

<svg
   xmlns:dc="http://purl.org/dc/elements/1.1/"
   xmlns:cc="http://creativecommons.org/ns#"
   xmlns:rdf="http://www.w3.org/1999/02/22-rdf-syntax-ns#"
   xmlns:svg="http://www.w3.org/2000/svg"
   xmlns="http://www.w3.org/2000/svg"
   xmlns:sodipodi="http://sodipodi.sourceforge.net/DTD/sodipodi-0.dtd"
   xmlns:inkscape="http://www.inkscape.org/namespaces/inkscape"
   inkscape:export-filename="itnas167.png"
   inkscape:export-ydpi="90"
   inkscape:export-xdpi="90"
   sodipodi:docname="itnas167.svg"
   inkscape:version="0.47 r22583"
   version="1.1"
   id="svg2"
   height="320"
   width="480">
  <defs
     id="defs4" />
  <sodipodi:namedview
     id="base"
     pagecolor="#ffffff"
     bordercolor="#666666"
     borderopacity="1.0"
     inkscape:pageopacity="1"
     inkscape:pageshadow="2"
     inkscape:zoom="1.4142136"
     inkscape:cx="290.91905"
     inkscape:cy="134.54258"
     inkscape:document-units="px"
     inkscape:current-layer="layer1"
     showgrid="false"
     inkscape:snap-nodes="true"
     inkscape:snap-global="false"
     inkscape:snap-grids="true"
     showguides="true"
     inkscape:window-width="1280"
     inkscape:window-height="998"
     inkscape:window-x="-4"
     inkscape:window-y="-4"
     inkscape:window-maximized="1"
     inkscape:object-nodes="true">
    <inkscape:grid
       empspacing="5"
       visible="true"
       enabled="true"
       snapvisiblegridlinesonly="true"
       type="xygrid"
       id="grid2816" />
  </sodipodi:namedview>
  <metadata
     id="metadata7">
    <rdf:RDF>
      <cc:Work
         rdf:about="">
        <dc:format>image/svg+xml</dc:format>
        <dc:type
           rdf:resource="http://purl.org/dc/dcmitype/StillImage" />
        <dc:title />
      </cc:Work>
    </rdf:RDF>
  </metadata>
  <g
     inkscape:label="Layer 1"
     inkscape:groupmode="layer"
     id="layer1"
     transform="translate(0,0)">
    <path
       style="color:#000000;fill:none;stroke:#008000;stroke-width:4;stroke-linecap:butt;stroke-linejoin:miter;stroke-miterlimit:4;stroke-opacity:1;stroke-dasharray:none;stroke-dashoffset:0;marker:none;visibility:visible;display:inline;overflow:visible;enable-background:accumulate"
       d="m -102.44326,263.37369 c 9.465331,0.33197 19.293721,1.65239 33.324423,0.89616 10.961691,2.00488 23.641571,3.14011 36.004876,1.97828 3.178795,-0.32319 15.719078,1.61115 18.87966,1.89933 19.929888,-0.0799 29.33378,4.74382 48.747691,7.05403 12.070607,0.94885 23.83913,3.91612 35.75969,5.86509 19.74238,3.24596 39.80533,1.66159 59.70554,2.0176 16.90844,-0.0578 33.74455,2.16436 50.29203,5.51774 15.96429,3.49756 32.44203,3.77167 48.68812,2.63975 7.89786,-0.61773 15.80038,-1.24665 23.72749,-1.30935 19.11001,-0.27831 38.2137,0.89705 57.32204,0.4375 22.85019,-1.00998 45.64473,-3.27873 68.53101,-3.44943 18.9332,-0.67644 37.67267,2.90167 56.06981,6.98437 11.68253,3.25376 24.06604,3.01283 35.62067,6.81212 0.32446,0.20535 4.46519,1.87418 6.35156,2 19.57612,1.30568 29.00549,-0.55743 43.14213,-1.10166"
       id="path2852"
       sodipodi:nodetypes="ccccccccccccccsc" />
    <path
       id="path2833"
       style="color:#000000;fill:none;stroke:#808080;stroke-width:4;stroke-linecap:round;stroke-linejoin:round;stroke-miterlimit:4;stroke-opacity:1;stroke-dasharray:none;stroke-dashoffset:0;marker:none;visibility:visible;display:inline;overflow:visible;enable-background:accumulate"
       d="m 155.47935,282.42978 0.22741,-0.40606 c 3.18833,-2.53705 6.02884,-5.46313 9.48992,-7.59682 3.44321,-2.48366 5.90419,-6.20642 9.54543,-8.54561 4.74269,-3.00802 8.06223,-7.55452 12.14234,-11.28781 3.54668,-1.98751 5.53801,-5.73849 9.033,-7.75077 3.40391,-1.82477 6.43427,-4.20636 9.21933,-6.85754 2.37082,-2.19008 4.46819,-4.48427 6.79969,-6.72584 3.28691,-2.66283 4.92586,-6.60032 7.65189,-9.71588 3.18379,-2.93465 8.0104,-10.00173 8.0104,-10.00173 0,0 16.14613,0 16.14613,0 21.80155,-1.27986 42.66983,7.62884 61.2316,5.69053 35.44981,1.03896 38.18789,-1.7647 63.47135,-0.92003 21.92524,-1.30097 31.21586,2.75224 53.74367,4.33376 15.70055,2.94191 30.62685,4.13636 45.0745,2.73731 10.44109,0.86384 17.62743,2.10968 36.94633,4.94975 6.2354,-4.4724 -3.08547,-36.48746 -0.75472,-65.66058 0.36841,-4.61127 -3.30022,-47.17958 -0.7926,-68.956408 1.14098,-9.908568 2.21075,-33.93803 -0.574,-49.93788 -23.23716,4.01579 -43.17095,5.992555 -52.20525,7.80472 -18.60397,3.73172 -44.33057,8.833219 -67.2958,9.87295 -21.55667,0.97596 -40.49063,7.252626 -60.84569,11.07533 -23.83185,4.077789 -46.01957,3.478477 -57.99061,5.22199 -24.00532,3.496236 -64.9985,7.64998 -82.16924,9.62229 -30.30723,3.481228 -35.71428,4.43379 -51.90558,7.7631 -15.01055,3.086518 -14.61038,5.104988 -34.7751,7.013408 -8.11419,0.76794 -36.73028,11.22342 -51.755822,13.93292 -13.253632,2.38997 -26.563557,4.85606 -39.55159,8.03149 -11.412137,2.79015 -23.18089,3.8356 -34.31571,8.01881 -17.62031,-0.33287 -30.34256,9.64802 -48.90538,14.41505 -23.936728,8.06401 -45.036288,22.19367 -68.179788,23.61982 -31.02274,7.59874 -55.13147,8.02551 -90.99666,13.63662 -6.68274,1.04551 -25.26087,3.54729 -24.40158,7.52532 1.82469,8.44731 34.74701,0.74228 51.93902,3.47362 29.82126,-0.30237 59.66704,0.068 89.47595,-0.73566 20.56183,2.53426 41.126498,6.03695 61.800258,7.37424 13.17374,-1.91538 26.01279,1.09129 39.03681,2.4476 21.43871,1.80412 42.85852,2.93763 64.36256,3.46963 17.930972,-0.98217 35.780472,1.85534 53.740122,0.7071 5.66605,-0.005 11.30473,0.70782 16.97056,0.70711 6.56554,0.1583 9.48519,-0.18428 12.38806,0.1111 1.40054,0.20896 2.80084,0.48704 4.22503,0.44394 1.01209,-0.002 2.02315,-0.0597 3.03526,-0.06 2.24955,0.26487 3.06824,-9.3801 1.71295,-9.3575 -7.54247,0.72974 -15.08106,0.54891 -22.62741,0 -15.07697,-1.09667 -29.11212,0.59296 -46.66905,0 -11.924596,-0.40274 -26.515912,-1.60019 -35.355342,-2.82843 -1.509679,-0.20977 -2.178571,-12.58568 -0.730897,-30.18033 1.481894,-18.01057 -1.882922,-34.83828 1.438004,-35.5806 15.636704,-3.49526 26.208613,-7.59221 38.183765,-9.8995 19.95358,-3.84452 36.2728,-10.44323 57.06854,-13.67766 19.41012,-3.01892 36.86819,-6.40767 61.7254,-9.863966 32.20251,-4.47763 58.52518,-8.349976 89.80256,-10.399495 15.36563,-1.006866 32.67407,-4.413811 54.44722,-8.535534 20.06545,-3.798451 39.01383,-4.668934 59.39697,-7.020815 5.37624,-0.620331 2.16113,20.162327 2.04173,37.11673 -0.0942,13.37583 -1.8854,30.97602 -0.62751,38.5437 -0.86843,12.86944 -0.99893,22.36627 -0.93923,28.40361 0.14479,14.65165 3.64949,29.32287 -0.47499,28.87203 -17.08044,-1.86703 -42.81765,-2.26099 -55.86143,-2.12132 -26.88249,0.28786 -40.00115,1.35172 -55.86144,1.41422 -19.07225,-0.96116 -41.65622,-0.51266 -50.20458,-0.70711 -1.10197,2.45134 -2.79176,5.61383 -2.82842,7.68978"
       sodipodi:nodetypes="csssssssssssssscsscsscccccccccccsscccsssssssssccccccccssccccccc" />
    <path
       style="fill:none;stroke:#80ff00;stroke-width:3.99999976;stroke-linecap:round;stroke-linejoin:round;stroke-miterlimit:4;stroke-opacity:1;stroke-dasharray:none"
       d="m 183.59479,180.40777 c 1.41719,1.22542 1.24913,-2.44329 2.86315,-0.92588 2.92415,0.19346 5.23468,-1.84016 8.18051,-1.5776 1.92997,-0.26158 3.50759,-1.53291 5.45548,-1.7414 2.02667,-0.29172 3.75905,-1.26575 5.52253,-2.17611 1.57379,-0.71329 3.29882,-0.98924 4.92196,-1.55002 1.55099,0.38547 2.6421,-0.24511 4.20472,0.0314 1.88545,0.3252 3.4419,-1.11238 5.40424,-0.36006 0.24662,0.83264 -1.04519,2.19469 -1.40424,3.23657 -1.40989,2.67966 -2.81843,5.36068 -4.23129,8.03751 -1.25661,1.22989 -1.94501,3.22817 -3.63648,3.81654 -1.16821,0.83781 -1.88799,2.24549 -2.85543,3.32613 -0.93773,1.35195 -2.12865,2.76645 -3.23763,4.03205 -1.00858,1.46379 -2.21053,2.71952 -2.93927,4.47853 -0.57372,1.37632 -1.31935,3.0873 -2.85152,1.18386 -1.35809,-1.11136 -1.81352,-3.15049 -3.18471,-4.26306 -1.22147,-1.6514 -2.77835,-2.8684 -3.56771,-5.04303 -1.42113,-1.55582 -2.62813,-3.58452 -4.25742,-4.815 -1.00909,-1.61949 -2.38383,-2.9807 -3.55606,-4.36249 -0.33127,-0.29775 -1.05942,-0.75878 -0.83028,-1.32804 z"
       id="path2942" />
    <path
       style="fill:none;stroke:#80ff00;stroke-width:3.99999976;stroke-linecap:round;stroke-linejoin:round;stroke-miterlimit:4;stroke-opacity:1;stroke-dasharray:none"
       d="m 190.0769,192.5492 c -1.68267,3.74125 -7.89223,7.61278 -13.47567,10.21526 -11.20112,9.19901 -17.18187,14.91525 -27.75084,21.0503 -5.73719,5.22526 -14.48029,9.86468 -20.08327,14.11201 -5.69038,2.92623 -17.26885,7.26725 -21.56689,6.94005"
       id="path2952-1"
       sodipodi:nodetypes="ccccc" />
    <path
       style="fill:none;stroke:#80ff00;stroke-width:3.99999976;stroke-linecap:round;stroke-linejoin:round;stroke-miterlimit:4;stroke-opacity:1;stroke-dasharray:none"
       d="m 209.6681,230.32103 c -3.84789,-3.00224 -10.55186,-9.6857 -13.66153,-11.56002 -4.7395,-2.92525 -10.83951,-5.53574 -14.54517,-8.56115 -2.97753,-2.13736 -10.86361,-6.06396 -5.52965,-0.5734 2.98537,5.07408 5.9722,9.50159 9.79154,13.65134 5.60542,3.71506 9.2976,7.38956 12.61654,11.60777 1.32388,0.91513 1.86789,2.09675 3.16317,3.07918"
       id="path2956"
       sodipodi:nodetypes="ccccccc" />
    <path
       style="fill:none;stroke:#80ff00;stroke-width:3.99999976;stroke-linecap:round;stroke-linejoin:round;stroke-miterlimit:4;stroke-opacity:1;stroke-dasharray:none"
       d="m 145.7515,279.64478 c -0.28863,-0.71401 -3.7385,-5.94897 -4.50708,-7.84981 -2.67329,-5.61721 -7.41109,-11.56072 -10.04512,-16.4962 -1.95799,-4.22633 -8.27582,-10.35676 -9.72387,-12.45414 -1.15358,4.96712 -2.07785,10.00474 -3.28797,14.95073 -4.60948,6.17412 -5.24349,13.4277 -10.1039,19.49276 0,0 -2.05372,1.77389 -2.05372,1.77389"
       id="path2958"
       sodipodi:nodetypes="cccccsc"
       inkscape:transform-center-y="20.439145"
       inkscape:transform-center-x="-4.1609025" />
    <path
       style="color:#000000;fill:none;stroke:#80ff00;stroke-width:4;stroke-linecap:round;stroke-linejoin:round;stroke-miterlimit:4;stroke-opacity:1;stroke-dasharray:none;stroke-dashoffset:0;marker:none;visibility:visible;display:inline;overflow:visible;enable-background:accumulate"
       d="m -66.845888,249.60939 c 15.050443,-4.94283 20.04628,-7.26037 42.875966,-2.05828 3.836148,0.87413 7.15888,3.58503 11.24936,5.03448 9.80637,3.47487 22.79826,3.75883 35.20504,3.22617 10.33947,-0.4439 32.206755,0.89193 46.000982,-5.34504 7.05627,-3.19045 11.42618,-3.17766 20.95753,-3.88349 0.76174,-0.0564 10.52324,-2.84659 17.34747,-1.82077"
       id="path4125"
       sodipodi:nodetypes="cssssss" />
    <path
       style="fill:none;stroke:#0000ff;stroke-width:4;stroke-linecap:butt;stroke-linejoin:miter;stroke-miterlimit:4;stroke-opacity:1;stroke-dasharray:none"
       d="m 108.05081,159.32843 c -1.98926,0.27241 -4.05052,0.49747 -5.83427,1.49526 -1.69373,0.94516 -3.17574,2.23277 -4.48113,3.66058 -1.54477,1.71508 -2.82494,3.66401 -3.8096,5.75041 -0.54046,1.18021 -0.82204,2.45579 -1.1238,3.71157 -0.25266,1.28363 -0.12395,2.59861 -0.20257,3.89719 -0.0387,1.59856 -0.10356,3.24691 0.47324,4.76934 0.27893,1.05941 0.85496,1.99977 1.35313,2.96565 0.97586,1.311 1.9301,2.6502 3.13779,3.76279 1.63849,1.4824 3.28898,3.02331 5.32148,3.95122 1.32845,0.64353 2.71064,1.18738 4.1235,1.61476 1.62831,0.45252 3.32044,0.69876 5.01098,0.70248 1.66311,-0.0792 3.30017,-0.47433 4.87461,-1.00062 1.49964,-0.5417 3.00626,-1.13381 4.31087,-2.06627 1.34526,-0.85232 2.69299,-1.73688 3.78753,-2.90612 1.0506,-1.00529 1.80863,-2.27517 2.36298,-3.61109 0.38888,-0.97445 0.74201,-1.97252 0.98933,-2.99242 0.35816,-1.71285 0.55334,-3.45829 0.64343,-5.20473 -0.0902,-2.07906 -0.20733,-4.17404 -0.67068,-6.20826 -0.2817,-1.16456 -0.58373,-2.35082 -1.27456,-3.35086 -0.89047,-1.34775 -2.01279,-2.52666 -3.12562,-3.69091 -1.10745,-1.1097 -2.38971,-2.02785 -3.73916,-2.81757 -1.20388,-0.80969 -2.53066,-1.45334 -3.94642,-1.78746 -1.69528,-0.44646 -3.4624,-0.47885 -5.20267,-0.59597 -0.99295,-0.022 -1.98552,-0.11689 -2.97839,-0.049 z"
       id="path8177"
       sodipodi:nodetypes="cssssssssss" />
    <path
       style="fill:none;stroke:#c87137;stroke-width:4;stroke-linecap:round;stroke-linejoin:round;stroke-opacity:1;color:#000000;stroke-miterlimit:4;stroke-dasharray:none;stroke-dashoffset:0;marker:none;visibility:visible;display:inline;overflow:visible;enable-background:accumulate"
       d="m 411.75,245.5 c -14.51862,3.01982 -24.61813,1.42113 -33.73446,2.43618 -9.93577,1.1063 -20.0192,4.19195 -31.01554,9.06382 -14.0099,6.20701 -21.00291,8.62847 -30.5,18.25 -4.41021,4.46799 -6.75,11.25 -6.75,11.25"
       id="path8848"
       sodipodi:nodetypes="cssss" />
    <path
       style="color:#000000;fill:none;stroke:#94f3f3;stroke-width:4;stroke-linecap:round;stroke-linejoin:round;stroke-miterlimit:4;stroke-opacity:1;stroke-dasharray:none;stroke-dashoffset:0;marker:none;visibility:visible;display:inline;overflow:visible;enable-background:accumulate"
       d="m 417.58386,250.43223 c -2.47035,-3.28246 -5.98513,-8.52686 -3.86191,-12.42506 3.81422,-7.00284 6.54062,-5.57008 12.11869,-5.99079 5.9794,-0.45098 10.84484,-2.15978 17.18942,-2.07539 9.44611,0.12566 9.68451,1.6305 17.77967,1.2907 6.86911,-0.28834 21.62031,-1.40966 28.44822,1.63162 6.92678,3.0853 9.14305,7.67506 4.88819,12.43546 -4.85023,5.4265 -20.94362,4.87277 -26.42627,7.64913 -5.73823,2.90578 -15.6125,2.19144 -22.59084,1.46418 -5.39679,-0.56244 -11.15057,-2.7869 -16.97255,-2.13737 -3.32357,0.37079 -7.13511,2.7251 -10.57262,-1.84248 z"
       id="path8820"
       sodipodi:nodetypes="cssssssssss" />
    <path
       style="color:#000000;fill:none;stroke:#00ffff;stroke-width:4;stroke-linecap:butt;stroke-linejoin:miter;stroke-miterlimit:4;stroke-opacity:1;stroke-dasharray:none;stroke-dashoffset:0;marker:none;visibility:visible;display:inline;overflow:visible;enable-background:accumulate"
       d="m 37.411994,142.63686 c -2.619966,0.36786 -1.793204,5.52336 -1.832297,7.68783 -0.171637,9.50156 -0.379606,15.50522 -0.474802,22.7252 -0.0701,5.317 0.634695,12.7282 -0.184202,17.88058 -0.528619,3.326 1.894627,3.89527 4.687059,3.97496 7.665589,0.21879 15.520409,0.58293 23.269126,1.2613 6.271115,0.54903 12.64199,-0.41862 18.854927,0.4201 1.927272,0.26016 5.564128,1.08107 5.202053,-1.94004 -0.880609,-7.34771 0.160013,-14.7259 -0.228269,-22.10493 -0.691612,-13.14364 0.735445,-12.4464 -0.03723,-23.83159 -0.164403,-2.42243 1.448813,-7.64257 -2.633114,-7.21858 -4.251162,0.44158 -8.555744,-0.14285 -12.807832,0.25034 -6.181076,0.57151 -11.815704,0.13298 -17.807439,0.37479 -5.232271,0.21116 -10.793344,-0.21211 -16.007978,0.52007 z"
       id="path3604"
       sodipodi:nodetypes="csssssssssssss" />
    <path
       style="fill:none;stroke:#ffff00;stroke-width:4;stroke-linecap:round;stroke-linejoin:round;stroke-opacity:1;stroke-miterlimit:4;stroke-dasharray:none;color:#000000;stroke-dashoffset:0;marker:none;visibility:visible;display:inline;overflow:visible;enable-background:accumulate"
       d="m 269.7257,94.331986 c 0.80435,6.202924 -1.40581,14.719514 -1.20345,20.551894 0.27646,7.96767 1.2043,17.27266 0.74329,25.32165 -0.84053,14.67534 0.42143,20.91641 0.0784,29.62742 -0.37302,9.47254 -1.4508,14.88478 1.30511,17.60718 3.79154,3.74543 -21.42884,3.90983 -36.00638,3.29515 -3.89482,-0.1671 -7.91191,6.03195 -2.7001,5.27532 6.00027,-0.8711 12.45711,2.09981 29.05892,-0.85166 3.77379,-0.6709 16.77277,0.81776 20.76333,0.26718 16.65293,-2.29762 25.73845,0.24458 36.56549,-0.84508 2.80305,-0.28211 0.6203,6.01323 -3.9253,5.85419 -7.17354,-0.25099 -10.82395,1.34929 -21.77788,0.27646 -8.31083,-0.81397 -22.782,-1.24051 -30.25145,-0.2017 -10.33823,1.43778 -22.20731,0.51733 -32.44113,0.32843"
       id="path3618"
       sodipodi:nodetypes="csssssssssssss" />
    <path
       style="color:#000000;fill:none;stroke:#ff0000;stroke-width:4;stroke-linecap:butt;stroke-linejoin:miter;stroke-miterlimit:4;stroke-opacity:1;stroke-dasharray:none;stroke-dashoffset:0;marker:none;visibility:visible;display:inline;overflow:visible;enable-background:accumulate"
       d="m 369.39079,158.05167 c -1.87574,-0.50651 -3.48008,-0.46521 -3.62809,4.48182 -0.26844,9.14555 -1.12211,3.98743 -1.4179,12.88857 -0.22065,6.76135 -0.18701,15.48927 -1.57798,16.89433 -1.27174,1.28465 -5.18723,0.91562 -11.13428,0.4026 -6.14004,-0.52966 -10.15884,1.64782 -8.26885,4.0256 1.13267,1.42498 3.25205,2.00391 9.1393,1.97926 12.09745,-0.0507 7.05484,1.43552 18.46592,1.19505 5.08936,-0.10727 9.03959,0.68836 15.77515,1.60254 1.5764,0.21396 3.51384,-4.66368 1.03265,-5.09339 -4.11295,-0.71233 -14.41642,-1.42976 -16.38583,-3.1861 -1.00114,-0.89283 -1.09902,-4.60695 -0.8036,-10.16575 0.27436,-5.16274 0.51559,-8.36947 0.39691,-12.96471 -0.17824,-6.90167 0.51483,-11.49049 -1.5934,-12.05982 z"
       id="path3637"
       sodipodi:nodetypes="csssssssssssss" />
  </g>
</svg>
