<?xml version="1.0" encoding="UTF-8" standalone="no"?>
<!-- Created with Inkscape (http://www.inkscape.org/) -->

<svg
   xmlns:dc="http://purl.org/dc/elements/1.1/"
   xmlns:cc="http://creativecommons.org/ns#"
   xmlns:rdf="http://www.w3.org/1999/02/22-rdf-syntax-ns#"
   xmlns:svg="http://www.w3.org/2000/svg"
   xmlns="http://www.w3.org/2000/svg"
   xmlns:sodipodi="http://sodipodi.sourceforge.net/DTD/sodipodi-0.dtd"
   xmlns:inkscape="http://www.inkscape.org/namespaces/inkscape"
   width="480"
   height="320"
   id="svg2"
   version="1.1"
   inkscape:version="0.47 r22583"
   sodipodi:docname="itnas068.svg"
   inkscape:export-xdpi="90"
   inkscape:export-ydpi="90"
   inkscape:export-filename="itnas068.png">
  <defs
     id="defs4" />
  <sodipodi:namedview
     id="base"
     pagecolor="#ffffff"
     bordercolor="#666666"
     borderopacity="1.0"
     inkscape:pageopacity="1"
     inkscape:pageshadow="2"
     inkscape:zoom="1"
     inkscape:cx="367.71323"
     inkscape:cy="188.33557"
     inkscape:document-units="px"
     inkscape:current-layer="layer1"
     showgrid="false"
     inkscape:snap-nodes="true"
     inkscape:snap-global="false"
     inkscape:snap-grids="true"
     showguides="true"
     inkscape:window-width="1280"
     inkscape:window-height="774"
     inkscape:window-x="-4"
     inkscape:window-y="-4"
     inkscape:window-maximized="1">
    <inkscape:grid
       empspacing="5"
       visible="true"
       enabled="true"
       snapvisiblegridlinesonly="true"
       type="xygrid"
       id="grid2816" />
  </sodipodi:namedview>
  <metadata
     id="metadata7">
    <rdf:RDF>
      <cc:Work
         rdf:about="">
        <dc:format>image/svg+xml</dc:format>
        <dc:type
           rdf:resource="http://purl.org/dc/dcmitype/StillImage" />
        <dc:title></dc:title>
      </cc:Work>
    </rdf:RDF>
  </metadata>
  <g
     inkscape:label="Layer 1"
     inkscape:groupmode="layer"
     id="layer1"
     transform="translate(0,0)">
    <path
       style="fill:none;stroke:#808080;stroke-width:4;stroke-linecap:butt;stroke-linejoin:miter;stroke-opacity:1;color:#000000;stroke-miterlimit:4;stroke-dasharray:none;stroke-dashoffset:0;marker:none;visibility:visible;display:inline;overflow:visible;enable-background:accumulate"
       d="m -37.476659,10.994339 c 13.379247,0.548614 26.804963,-1.0512288 40.1534875,0.328382 6.4402002,0.975927 12.8793385,2.274477 19.4283255,2.073335 4.653991,-0.0081 9.303233,-0.278817 13.957292,-0.280397"
       id="path2840" />
    <path
       style="fill:none;stroke:#808080;stroke-width:4;stroke-linecap:butt;stroke-linejoin:miter;stroke-opacity:1;color:#000000;stroke-miterlimit:4;stroke-dasharray:none;stroke-dashoffset:0;marker:none;visibility:visible;display:inline;overflow:visible;enable-background:accumulate"
       d="m 486.48947,23.722259 c -24.71519,1.311134 -49.73713,-2.297093 -74.24622,0 -15.93096,12.254942 -22.19462,33.005936 -36.8349,46.711883 -12.53538,14.550863 -20.07188,32.940438 -35.18637,45.376908 -10.72117,10.46898 -20.36569,21.18372 -31.26762,31.41223 -12.8068,12.38202 -26.74158,23.50495 -42.39407,32.02731 -16.07133,9.39812 -25.22823,26.91667 -41.53728,36.19906 -18.76191,17.43592 -34.02645,38.66982 -55.83517,52.71843 -16.74383,10.9249 -28.06037,28.31163 -43.89361,39.91125 -15.91537,9.96515 -28.977135,23.63105 -43.638343,35.48007 l -1.045714,1.89644"
       id="path2844" />
    <path
       style="fill:none;stroke:#80ff00;stroke-width:3.99999976000000010;stroke-linecap:round;stroke-linejoin:round;stroke-opacity:1;color:#000000;stroke-miterlimit:4;stroke-dasharray:none;stroke-dashoffset:0;marker:none;visibility:visible;display:inline;overflow:visible;enable-background:accumulate"
       d="m 33.546645,143.39946 c -0.40267,-3.4839 0.05391,-7.30343 -1.474144,-10.37815 -3.07477,-8.85363 -5.389569,-18.18338 -7.026041,-27.71206 -0.313273,-3.38435 -0.388524,-6.822294 -0.603501,-10.214949 0.254193,-3.61047 0.404201,-7.387386 1.60114,-10.777672 1.89885,-1.331609 3.522349,2.06232 4.888843,3.40119 1.342404,2.039847 3.237196,3.097104 5.198886,3.871761 9.650101,5.123898 16.87553,15.0796 23.863851,24.59143 2.48159,3.41457 4.936683,6.86256 7.497388,10.18028"
       id="path2880" />
    <path
       id="path2892"
       style="fill:none;stroke:#80ff00;stroke-width:3.99999976000000010;stroke-linecap:round;stroke-linejoin:round;stroke-opacity:1;color:#000000;stroke-miterlimit:4;stroke-dasharray:none;stroke-dashoffset:0;marker:none;visibility:visible;display:inline;overflow:visible;enable-background:accumulate"
       d="m -13.674518,210.87432 c 6.127476,-6.86268 14.0531063,-11.45017 20.92761,-17.71885 3.264719,-5.54389 7.732827,-8.89279 7.204519,-13.85955 0.633699,-5.71762 -1.062339,-8.15869 0.18766,-13.90869 1.5,-7.5 3.404058,-7.03587 5.292416,-12.10704 2.499105,-2.74634 6.957789,-11.11625 15.377862,-13.80699 5.844023,-3.48239 11.899223,-10.65533 14.567439,-11.95373 7.113237,-1.70525 14.041406,-4.36263 21.054869,-6.68164 7.731251,0.97172 11.427872,8.31845 18.327808,10.28212 5.532107,4.0309 8.627681,10.70654 15.305775,12.97462 6.25937,-1.49773 12.52023,-4.08882 18.7423,-6.10456 6.73491,-3.90253 12.86831,-7.07274 18.97449,-10.88976 7.38759,-4.07593 12.95964,-8.97603 17.89226,-15.02218 -1.56628,-8.10737 5.7694,-18.11642 14.95022,-0.80637 2.98994,6.34481 4.65572,7.84327 7.06025,12.96862 3.02127,5.80275 3.52768,7.50553 4.27677,14.01918 -1.9479,6.56633 -11.98971,13.98355 -19.16932,19.04372 -6.56302,6.33995 -14.32144,10.2654 -20.90132,16.52845 -5.94268,4.48026 -12.55227,9.92117 -17.62107,15.66183 -7.4327,5.2939 -13.05435,12.47058 -21.62453,15.98139 -6.04833,4.78749 -12.401217,9.19493 -19.000257,13.21154 -7.892292,7.12801 -16.715703,13.15128 -24.69693,20.14623 -5.64013,5.78935 -10.607855,12.43286 -10.457814,20.98009 -2.786027,7.46738 -4.551718,15.04668 -11.173472,20.31446 -3.840692,4.65905 -10.982522,8.16754 -20.8643,13.80606 -10.387468,8.52342 -23.7858549,10.79139 -29.373174,13.46489"
       sodipodi:nodetypes="cccccccccccccccccccccccccc" />
    <path
       style="fill:none;stroke:#80ff00;stroke-width:3.99999976000000010;stroke-linecap:round;stroke-linejoin:round;stroke-opacity:1;color:#000000;stroke-miterlimit:4;stroke-dasharray:none;stroke-dashoffset:0;marker:none;visibility:visible;display:inline;overflow:visible;enable-background:accumulate"
       d="m 25.20619,151.4427 c -0.601559,-2.7997 -0.335074,-5.82395 -1.273976,-8.5478 -1.318705,-3.82569 -4.030535,-9.45871 -4.627589,-13.41403 -0.842235,-3.23986 -0.512998,-6.76835 -2.376367,-9.63609 -1.251407,-3.36525 -2.240343,-6.65039 -4.010023,-10.0612 -0.70272,-3.25349 -2.079977,-5.79521 -3.568935,-9.1668 -1.7381519,-2.220585 -0.3912555,-6.197781 2.329436,-4.04037 3.205672,1.508331 6.500673,1.501669 9.726842,3.204486 3.429549,0.987714 6.332173,2.235644 9.116021,4.515594 4.339553,2.48856 8.275021,4.21233 12.228585,7.28431 2.756817,2.75478 6.705269,4.74409 9.27505,7.65603 3.243487,4.01842 6.624833,7.93463 9.821517,11.98755"
       id="path2899"
       sodipodi:nodetypes="cscccccccccc" />
    <path
       style="fill:none;stroke:#80ff00;stroke-width:3.99999976000000010;stroke-linecap:round;stroke-linejoin:round;stroke-opacity:1;color:#000000;stroke-miterlimit:4;stroke-dasharray:none;stroke-dashoffset:0;marker:none;visibility:visible;display:inline;overflow:visible;enable-background:accumulate"
       d="m 44.723368,240.44862 c -0.480985,4.06701 -0.648582,8.69289 0.465969,13.08006 1.0252,8.40032 -6.781768,14.97377 -5.54927,23.41432 0.448806,6.98471 1.063769,14.10729 3.320969,20.76657 2.91307,5.57219 4.199399,19.08977 6.425223,24.89734"
       id="path2909"
       sodipodi:nodetypes="ccccc" />
    <path
       style="fill:none;stroke:#80ff00;stroke-width:3.99999976000000010;stroke-linecap:round;stroke-linejoin:round;stroke-opacity:1;color:#000000;stroke-miterlimit:4;stroke-dasharray:none;stroke-dashoffset:0;marker:none;visibility:visible;display:inline;overflow:visible;enable-background:accumulate"
       d="m 2.5670408,248.19027 c 0.772984,7.83013 6.3215067,14.64087 5.6471378,22.69002 -2.3007745,1.31702 1.8946254,7.4762 1.8673624,10.76496 0.591769,4.40643 -0.4005057,8.97266 1.738236,13.17361 2.403131,5.17471 1.698626,11.22804 4.611271,16.17732 3.404583,5.65104 8.03943,10.60927 10.081851,17.01542"
       id="path2914"
       sodipodi:nodetypes="cccccc" />
  </g>
</svg>
