<?xml version="1.0" encoding="UTF-8" standalone="no"?>
<!-- Created with Inkscape (http://www.inkscape.org/) -->

<svg
   xmlns:dc="http://purl.org/dc/elements/1.1/"
   xmlns:cc="http://creativecommons.org/ns#"
   xmlns:rdf="http://www.w3.org/1999/02/22-rdf-syntax-ns#"
   xmlns:svg="http://www.w3.org/2000/svg"
   xmlns="http://www.w3.org/2000/svg"
   xmlns:sodipodi="http://sodipodi.sourceforge.net/DTD/sodipodi-0.dtd"
   xmlns:inkscape="http://www.inkscape.org/namespaces/inkscape"
   width="480"
   height="320"
   id="svg2"
   version="1.1"
   inkscape:version="0.48.0 r9654"
   sodipodi:docname="itnas311.svg"
   inkscape:export-xdpi="90"
   inkscape:export-ydpi="90"
   inkscape:export-filename="itnas311.png">
  <defs
     id="defs4">
    <inkscape:perspective
       sodipodi:type="inkscape:persp3d"
       inkscape:vp_x="0 : 160 : 1"
       inkscape:vp_y="0 : 1000 : 0"
       inkscape:vp_z="480 : 160 : 1"
       inkscape:persp3d-origin="240 : 106.66667 : 1"
       id="perspective8" />
  </defs>
  <sodipodi:namedview
     id="base"
     pagecolor="#ffffff"
     bordercolor="#666666"
     borderopacity="1.0"
     inkscape:pageopacity="1"
     inkscape:pageshadow="2"
     inkscape:zoom="1"
     inkscape:cx="289.47514"
     inkscape:cy="243.01529"
     inkscape:document-units="px"
     inkscape:current-layer="layer1"
     showgrid="false"
     inkscape:snap-nodes="true"
     inkscape:snap-global="false"
     inkscape:snap-grids="true"
     showguides="true"
     inkscape:window-width="1280"
     inkscape:window-height="998"
     inkscape:window-x="1276"
     inkscape:window-y="-4"
     inkscape:window-maximized="1">
    <inkscape:grid
       empspacing="5"
       visible="true"
       enabled="true"
       snapvisiblegridlinesonly="true"
       type="xygrid"
       id="grid2816" />
  </sodipodi:namedview>
  <metadata
     id="metadata7">
    <rdf:RDF>
      <cc:Work
         rdf:about="">
        <dc:format>image/svg+xml</dc:format>
        <dc:type
           rdf:resource="http://purl.org/dc/dcmitype/StillImage" />
        <dc:title></dc:title>
      </cc:Work>
    </rdf:RDF>
  </metadata>
  <g
     inkscape:label="Layer 1"
     inkscape:groupmode="layer"
     id="layer1"
     transform="translate(0,0)">
    <path
       style="color:#000000;fill:none;stroke:#00ffff;stroke-width:4;stroke-linecap:round;stroke-linejoin:round;stroke-miterlimit:4;stroke-opacity:1;stroke-dasharray:none;stroke-dashoffset:0;marker:none;visibility:visible;display:inline;overflow:visible;enable-background:accumulate"
       d="m 462.6702,287.98343 c 5.48657,-5.48448 -1.28687,-43.22988 0.50689,-71.50065 0.96474,-15.20487 3.41718,-40.38261 0.87726,-46.68847 -3.92413,-9.74245 1.60358,-21.4987 3.81486,-44.56606 -4.27131,-24.85164 -3.7833,-36.738327 -1.6621,-62.192716 -2.16482,-15.153756 -2.87534,-23.035973 -3.10316,-36.019811"
       id="path3024"
       inkscape:connector-curvature="0"
       sodipodi:nodetypes="cssccc" />
    <path
       style="color:#000000;fill:none;stroke:#80ff00;stroke-width:4;stroke-linecap:round;stroke-linejoin:round;stroke-miterlimit:4;stroke-opacity:1;stroke-dasharray:none;stroke-dashoffset:0;marker:none;visibility:visible;display:inline;overflow:visible;enable-background:accumulate"
       d="m 415.30759,120.28443 c 3.29299,-3.38163 8.80751,1.32603 14.03439,-0.39787 8.21634,-2.70985 9.94222,-0.74197 13.92176,-1.45053 8.26852,-1.47219 18.47371,-5.69282 11.17041,3.95954 -1.97189,2.60616 -3.0078,5.00104 -7.14557,9.00094 -6.36443,6.15233 -15.27357,13.56713 -16.91472,14.28876"
       id="path3852"
       inkscape:connector-curvature="0" />
    <path
       style="color:#000000;fill:none;stroke:#ffff00;stroke-width:4;stroke-linecap:round;stroke-linejoin:round;stroke-miterlimit:4;stroke-opacity:1;stroke-dasharray:none;stroke-dashoffset:0;marker:none;visibility:visible;display:inline;overflow:visible;enable-background:accumulate"
       d="m 387.00563,204.58723 c -3.82983,-5.41401 -6.53567,-8.30337 -9.24289,-13.8951 -3.32978,-6.87762 -5.04107,-11.10649 -13.82929,-22.18627 -0.51551,-9.94602 -6.88771,-9.82574 -15.81403,-9.72828 -5.18327,-1.38647 -8.10906,2.56175 -19.03088,1.48767"
       id="path3848"
       inkscape:connector-curvature="0"
       sodipodi:nodetypes="csccc" />
    <path
       style="color:#000000;fill:none;stroke:#80ff00;stroke-width:4;stroke-linecap:round;stroke-linejoin:round;stroke-miterlimit:4;stroke-opacity:1;stroke-dasharray:none;stroke-dashoffset:0;marker:none;visibility:visible;display:inline;overflow:visible;enable-background:accumulate"
       d="m 430.37386,145.68527 c -5.20763,2.28987 4.59415,8.82545 -3.67502,14.80695 -2.03477,1.47186 -5.42784,5.72237 -6.97784,6.95734 -10.82424,8.62423 -8.36831,8.54318 -5.9384,15.52272 3.30992,9.50735 0.97058,5.82392 4.62064,11.55198 2.81164,4.41232 2.59003,5.3256 2.85681,6.82696"
       id="path4015"
       inkscape:connector-curvature="0"
       sodipodi:nodetypes="cssssc" />
    <path
       style="color:#000000;fill:none;stroke:#80ff00;stroke-width:4;stroke-linecap:round;stroke-linejoin:round;stroke-miterlimit:4;stroke-opacity:1;stroke-dasharray:none;stroke-dashoffset:0;marker:none;visibility:visible;display:inline;overflow:visible;enable-background:accumulate"
       d="m 417.93827,136.14885 c 9.87171,-7.36004 9.85844,-9.55357 18.62608,-17.21145 0.80117,-0.69975 16.80106,-10.53214 15.25896,-12.38452 -1.03932,-1.24843 -7.321,-2.08142 -8.54643,-2.4438 -10.43276,-3.08515 -8.40062,-0.43863 -14.83493,1.12424 -10.63964,2.58432 -12.71551,0.58805 -25.4762,2.86193"
       id="path3059"
       inkscape:connector-curvature="0"
       sodipodi:nodetypes="cssssc" />
    <path
       style="fill:none;stroke:#808080;stroke-width:4;stroke-linecap:round;stroke-linejoin:round;stroke-opacity:1;color:#000000;stroke-miterlimit:4;stroke-dasharray:none;stroke-dashoffset:0;marker:none;visibility:visible;display:inline;overflow:visible;enable-background:accumulate"
       d="m -12.020815,292.42284 c 5.6014996,-0.21107 22.67941,-0.52216 25.010036,-2.82843 0.05442,-0.0538 27.581544,0 30.012045,0 32.348262,0 89.117374,-2.31028 96.433574,-0.52875 8.96051,2.18193 46.73698,-0.86588 77.92196,-0.80568 18.5602,0.0358 25.42211,3.45575 40.73079,3.45575 10.66482,0 51.90679,-5.43046 68.59895,-4.24264 4.28503,0.30492 11.64366,4.60227 16.43517,4.94975 21.98278,1.59418 64.59228,-1.3069 67.88439,-2.12132 12.73701,-3.15099 41.36924,2.51245 50.73465,-2.12133"
       id="path3187"
       inkscape:connector-curvature="0"
       sodipodi:nodetypes="ccsssssssc" />
    <path
       style="color:#000000;fill:none;stroke:#80ff00;stroke-width:4;stroke-linecap:round;stroke-linejoin:round;stroke-miterlimit:4;stroke-opacity:1;stroke-dasharray:none;stroke-dashoffset:0;marker:none;visibility:visible;display:inline;overflow:visible;enable-background:accumulate"
       d="m 265.35125,189.78186 c -0.43968,4.76576 -0.72911,12.90141 -1.53404,17.51211 -0.90507,5.18404 5.31796,14.53404 8.2335,19.37185 7.76,12.8764 15.43255,21.97813 18.90484,37.85272 -7.37954,-0.0968 -12.04258,3.45018 -19.68906,4.24303 -1.6957,0.17588 -6.30689,3.76509 -7.78737,3.60202 -4.93361,-0.54341 -5.81246,5.59616 -0.90377,7.06987 5.95257,1.78713 25.54696,-6.01898 32.79878,-5.55827 -2.03107,0.55849 -8.49559,1.23681 -10.55142,1.44998 -7.80592,0.80943 -12.98762,3.50779 -19.88268,8.20685 -3.17331,2.16264 -0.0923,9.71986 5.79017,5.98874 13.83538,-8.77531 8.76665,-6.04565 12.58503,-7.0162 8.08952,-4.81896 29.92934,-2.02044 37.0472,-3.01354 0.42057,-0.0586 7.54224,3.44318 8.94176,3.69443 4.79836,0.86139 15.63231,9.55249 20.06971,7.25741 9.20907,-4.76302 -15.32091,-16.43866 -19.24869,-17.70009 -2.99072,-0.96049 -8.29355,-4.27718 -10.91855,-3.23151 -1.09045,0.43437 -1.3286,0.49061 -1.29042,1.69199 0.0988,3.11211 12.48246,2.97171 16.1027,3.96261 9.83649,2.69237 16.39903,10.25146 18.75658,4.77791 2.95895,-6.86984 -10.62306,-11.38393 -15.17729,-14.12795 -9.35364,-5.63573 -20.96906,-0.87635 -22.52115,-2.14445 -0.61677,-0.5039 -1.60164,4.80204 3.12279,2.48651 1.36284,-0.66796 7.12847,-0.78077 13.43201,-2.59424 4.80732,-1.38301 19.16099,6.44529 19.41532,1.35549 0.50908,-10.18833 -10.9955,-8.08777 -23.76459,-10.56349 -4.70067,-0.91141 -10.59235,3.86236 -14.2203,4.20411 -2.35121,0.22148 0.55277,-7.17795 -3.70558,-14.95811 -2.38874,-4.36431 -5.44344,-17.30136 -8.52358,-23.61764 -4.74336,-9.72698 -5.67737,-5.38006 -2.81781,-16.31321 2.50776,-15.52253 -1.6735,-10.11677 1.83305,-17.94423"
       id="path3066"
       inkscape:connector-curvature="0"
       sodipodi:nodetypes="csscssscssscssssssssssssssssscc" />
    <path
       style="color:#000000;fill:none;stroke:#ffff00;stroke-width:4;stroke-linecap:round;stroke-linejoin:round;stroke-miterlimit:4;stroke-opacity:1;stroke-dasharray:none;stroke-dashoffset:0;marker:none;visibility:visible;display:inline;overflow:visible;enable-background:accumulate"
       d="m 297.18835,174.63166 c -2.92013,0.47118 -4.72402,4.4948 -7.81456,5.4694 -5.70204,1.79813 -10.5715,4.40135 -15.7262,6.90579 -4.17922,2.03048 -17.43986,5.02671 -22.45501,8.67805 -14.13918,10.29426 -15.78021,9.00752 -25.72206,14.20541 -8.97007,2.60429 -6.71146,6.68947 -19.9139,14.09116 -10.21618,10.34967 -14.45627,10.82298 -24.08711,14.9011 -4.87998,2.06642 -7.32043,7.05258 -16.40626,12.53469 -5.49158,9.25745 -12.61872,5.67646 -23.11988,11.92003"
       id="path3063"
       inkscape:connector-curvature="0"
       sodipodi:nodetypes="csssccscc" />
    <path
       style="color:#000000;fill:none;stroke:#80ff00;stroke-width:4;stroke-linecap:round;stroke-linejoin:round;stroke-miterlimit:4;stroke-opacity:1;stroke-dasharray:none;stroke-dashoffset:0;marker:none;visibility:visible;display:inline;overflow:visible;enable-background:accumulate"
       d="m 322.55718,143.1029 c 0.25091,3.8303 5.49783,20.93684 5.2281,26.14653 -0.35565,6.86825 3.66521,11.6923 4.76722,19.27875 0.41638,2.8665 4.75299,9.99598 5.83912,12.44691 1.82083,5.72681 5.97817,4.10335 9.92748,4.14084 14.81153,-0.84038 7.20963,2.22142 13.05789,0.45314 5.66937,-0.5492 11.7719,-0.90876 17.7804,-0.65446 0.94381,0.0399 3.1923,1.05946 7.27633,-0.17122 0.63974,-0.19277 1.64086,-0.0942 2.42695,0.28072 1.27863,0.60987 7.94402,-1.13438 9.18675,-1.81693 2.37715,-1.30559 0.15593,-4.80833 0.22618,-5.86829 0.19715,-2.9733 0.78244,-2.36414 -1.37896,-9.42173 -0.91954,-3.00261 -1.46975,-4.94916 1.23813,-7.10727 2.0836,-0.62567 5.31683,2.73331 6.03539,6.13636 1.58541,7.51074 3.44764,7.53105 4.61778,13.85526 1.51115,1.92993 3.50146,3.71583 6.43252,1.26884 5.64377,-0.34195 11.38636,-1.57791 18.72575,-3.73679 1.97049,-0.57962 7.11347,2.52033 7.53744,5.02722 0.0433,0.25602 -0.9197,1.36076 -1.03219,1.52727 -0.46282,0.68474 -0.90869,1.72138 -1.63578,2.12069 -5.79325,3.18178 -14.25233,5.28679 -20.64524,4.17989 -0.94815,-0.16415 -2.12929,1.14817 -2.97948,1.11256 -0.80837,-0.0336 0.90772,-0.52088 0.96615,-0.53061 0.65272,-0.10863 1.57666,0.2088 2.26929,0.23783 3.0628,0.1283 5.39419,1.56777 8.35202,0.82572 2.22992,-0.55939 4.34242,-0.26866 6.60524,-0.48478 3.27461,-0.31278 10.37263,-3.7609 12.67518,0.72128 3.30532,6.43419 -8.89596,7.64277 -12.22274,8.1972 -0.38786,0.0647 -0.70663,0.4463 -1.10052,0.4298 -3.06752,-0.12847 -5.96966,-0.96934 -9.171,-0.81244 -0.70239,0.0344 -9.74241,-1.28756 -9.65518,-1.59421 0.4118,-1.44783 5.8831,-0.45624 6.83343,-0.52281 1.30975,-0.0917 0.81636,0.0933 2.63186,0.3006 2.95054,0.33699 23.69746,1.57517 22.75286,8.28203 -0.069,0.4899 -0.8612,1.27418 -1.12602,1.66613 -3.62366,5.36153 -7.99203,1.9496 -12.7263,1.75132 -2.01856,-0.0845 -4.82229,-0.79032 -7.0361,-0.67544 -3.59547,0.1866 -3.66938,-0.99014 -8.8895,-1.229 -1.75996,-0.0805 -3.7732,-1.50629 -7.81099,-1.24425 -1.02616,4.19547 -1.59959,1.67519 -3.4574,5.74855 -0.98329,2.15585 -4.0505,3.83632 -4.85195,6.17327 -0.81058,2.36359 -3.82156,4.44402 -5.98444,2.58691 -3.22933,-2.77277 -1.71676,-5.26168 0.93596,-9.36498 2.41746,-3.7394 2.19758,-1.47047 4.33807,-5.99117 0.77465,-1.63587 1.92507,-5.72977 0.59145,-5.89735 -1.33362,-0.16758 -6.69246,2.20255 -8.57202,2.87809 -7.82437,2.81219 -12.18674,3.10665 -18.12268,3.46286 -4.0636,0.24387 -9.13599,4.29203 -13.70963,3.00739 -6.6405,3.38383 -10.34442,-0.28982 -18.42911,1.6529 -3.73049,0.8964 -15.34576,-1.5407 -20.2247,-3.81607 -6.17514,-4.46332 -9.11349,-20.16452 -11.07231,-24.59872 -3.00883,-6.81115 -7.64173,-13.66448 -10.17314,-19.48308 -2.66788,-6.13229 -2.73016,-7.65985 -2.2257,-17.96386 -1.4592,-8.68886 -13.0425,-20.27706 -7.17113,-25.18344"
       id="path3210"
       inkscape:connector-curvature="0"
       sodipodi:nodetypes="cssccccccscsccccsscccccccsscsccccsccscccssscssscscsscc" />
    <path
       style="color:#000000;fill:none;stroke:#80ff00;stroke-width:4;stroke-linecap:round;stroke-linejoin:round;stroke-miterlimit:4;stroke-opacity:1;stroke-dasharray:none;stroke-dashoffset:0;marker:none;visibility:visible;display:inline;overflow:visible;enable-background:accumulate"
       d="m 401.56033,107.71092 c -10.58498,-5.76698 -12.18389,-6.99686 -22.75723,-4.12887 -3.16583,0.85873 -10.12072,7.67968 -16.55071,7.74163 -8.44581,0.0814 -10.28458,-5.39774 -17.58514,-5.67719 -13.64819,-0.52242 -22.54961,-0.41252 -39.82516,-4.64498 -12.21001,-2.991426 -27.75863,-1.952468 -41.24308,-0.0302 -5.08585,0.725 -13.6846,-0.5427 -21.63907,2.11506 -20.92697,6.99217 -14.61878,10.81065 -35.1027,13.10525 -14.2442,5.52775 -18.38868,7.251 -28.98618,17.81038 -21.20708,21.1308 -19.37994,13.69331 -33.2865,21.70908 -16.72567,4.9045 -16.89565,11.84463 -38.11052,22.3962 -12.424894,12.82035 -8.765841,6.22022 -25.099175,15.0274 -5.861155,3.16043 -17.828392,7.45262 -34.028665,10.25834 -5.596382,4.12767 -28.000856,4.33087 -59.331481,7.86434"
       id="path3856"
       inkscape:connector-curvature="0"
       sodipodi:nodetypes="csssssscsccscc" />
    <path
       style="color:#000000;fill:none;stroke:#80ff00;stroke-width:3.99999952;stroke-linecap:round;stroke-linejoin:round;stroke-miterlimit:4;stroke-opacity:1;stroke-dasharray:none;stroke-dashoffset:0;marker:none;visibility:visible;display:inline;overflow:visible;enable-background:accumulate"
       d="m 410.27314,155.99565 c 2.26499,9.04507 3.96374,7.91444 6.22872,13.56761"
       id="path3887"
       inkscape:connector-curvature="0"
       sodipodi:nodetypes="cc" />
    <path
       style="color:#000000;fill:none;stroke:#0000ff;stroke-width:4;stroke-linecap:round;stroke-linejoin:round;stroke-miterlimit:4;stroke-opacity:1;stroke-dasharray:none;stroke-dashoffset:0;marker:none;visibility:visible;display:inline;overflow:visible;enable-background:accumulate"
       d="m 410.94276,165.0447 c -1.7033,1.20692 -4.16765,2.05547 -5.62597,3.50275 -6.25607,6.20879 -5.7632,6.39691 -1.91817,10.52616 3.65059,0.83054 9.13031,-10.08984 7.54414,-14.02891 z"
       id="path3895"
       inkscape:connector-curvature="0"
       sodipodi:nodetypes="cscc" />
    <path
       style="color:#000000;fill:none;stroke:#ffff00;stroke-width:4;stroke-linecap:round;stroke-linejoin:round;stroke-miterlimit:4;stroke-opacity:1;stroke-dasharray:none;stroke-dashoffset:0;marker:none;visibility:visible;display:inline;overflow:visible;enable-background:accumulate"
       d="m 15.8529,277.89997 c -8.5912148,3.7115 -9.858536,0.99132 -28.883759,2.86853"
       id="path3134"
       inkscape:connector-curvature="0"
       sodipodi:nodetypes="cc" />
    <path
       id="path3903"
       style="color:#000000;fill:none;stroke:#80ff00;stroke-width:4;stroke-linecap:round;stroke-linejoin:round;stroke-miterlimit:4;stroke-opacity:1;stroke-dasharray:none;stroke-dashoffset:0;marker:none;visibility:visible;display:inline;overflow:visible;enable-background:accumulate"
       d="m 91.39475,210.24089 c -14.731362,12.27751 -18.805904,6.16483 -44.157835,15.17726 -17.119612,6.08591 -26.57476,18.70441 -33.700115,29.82045 -2.350623,3.66714 -1.617374,6.84831 -2.125983,8.05814 -1.8008001,4.28363 1.520265,10.14783 7.859766,16.4398 9.094548,9.02636 13.929445,5.05688 30.588457,6.32282 12.134734,-1.56686 35.717257,-0.27628 42.282003,-3.00064 8.729137,-3.62256 20.920857,-4.28533 28.339997,0.0713 2.44823,1.43767 4.09265,7.73991 7.13854,7.75218 0.32234,0.71171 5.29467,4.36091 6.22199,5.03585 9.25704,6.73768 15.75383,11.26129 16.31228,11.13221 0.47782,-0.11045 9.5338,-2.53843 7.92704,-5.16087 -2.3974,-3.9129 -10.78117,-6.63292 -14.39597,-10.03284 -2.72449,-2.56258 -2.53172,-5.85398 -7.05596,-6.51564 3.22168,2.00837 18.37959,16.2962 24.16734,15.59501 5.57302,-0.67519 6.434,-2.46322 1.43812,-6.74309 -7.27811,-6.23502 -16.3794,-18.00078 -18.24159,-18.80018 0.18775,-6.86878 -8.36115,-14.38584 -0.47092,-25.32561 2.74983,-3.81265 8.28238,-12.90456 10.66266,-15.19884 5.9619,-5.7465 7.26369,-33.46746 -7.37915,-10.15312 -2.0328,3.23662 -3.9277,7.74445 -5.93433,10.93941 -1.7652,2.81055 -9.00571,11.18416 -8.15068,14.65045 0.15633,0.63376 1.01343,-1.60984 2.6412,-6.62552 1.20915,-3.72577 16.9888,-27.65199 11.23301,-28.87178 -13.69065,-2.90138 -17.23892,28.73327 -22.9835,34.44875 5.32518,-12.1945 14.26587,-36.85686 11.37133,-37.58465 -8.26125,-2.07723 -9.52917,2.29674 -12.22857,11.63019 -2.74431,9.48886 -8.87179,20.95353 -8.47961,27.18496 0.21529,3.41989 -3.45075,2.53125 -6.13807,2.67108 -11.581431,0.60262 -14.184272,3.987 -26.276944,3.46089 -13.615043,-0.59232 -12.514001,0.79897 -21.487328,0.61393 -7.13859,3.09497 -14.697431,1.55244 -8.413905,-2.19444 8.448414,-5.03784 11.278662,-1.04682 21.960871,-3.89629 11.067991,-2.95237 23.948916,-1.42139 34.381196,-8.18341"
       inkscape:connector-curvature="0"
       sodipodi:nodetypes="csssscsscscsscsscsssscsscsscsscssc" />
    <path
       inkscape:connector-curvature="0"
       sodipodi:nodetypes="cccc"
       d="m -87.94443,-96.00821 c 0,0 85.21358,77.31192 85.21358,77.31192 l -20.50978,-117.24243 c 0,0 -57.24182,34.73333 -64.7038,39.93051 z"
       style="fill:none;stroke:#00ff00;stroke-width:2;stroke-linecap:butt;stroke-linejoin:miter;stroke-miterlimit:4;stroke-opacity:1;stroke-dasharray:none"
       id="path10399-9" />
    <g
       transform="matrix(-2.2177964,-1.7518783,1.7421351,-2.2329104,326.22106,1959.7601)"
       id="g3488">
      <path
         inkscape:connector-curvature="0"
         sodipodi:nodetypes="cc"
         id="path3785"
         d="m 686.60068,433.05137 16.26346,-58.68986"
         style="fill:none;stroke:#000000;stroke-width:0.35346174px;stroke-linecap:butt;stroke-linejoin:miter;stroke-opacity:1" />
      <path
         inkscape:connector-curvature="0"
         sodipodi:nodetypes="cc"
         id="path3787"
         d="m 661.14484,338.29906 41.01219,36.76956"
         style="fill:none;stroke:#000000;stroke-width:0.35346174px;stroke-linecap:butt;stroke-linejoin:miter;stroke-opacity:1" />
      <path
         inkscape:connector-curvature="0"
         sodipodi:nodetypes="cc"
         id="path3789"
         d="m 615.89001,412.54528 45.25483,-73.53911"
         style="fill:none;stroke:#000000;stroke-width:0.35346174px;stroke-linecap:butt;stroke-linejoin:miter;stroke-opacity:1" />
      <path
         inkscape:connector-curvature="0"
         id="path3791"
         d="m 580.53467,477.5991 36.76955,-64.34672"
         style="fill:none;stroke:#000000;stroke-width:0.35346174px;stroke-linecap:butt;stroke-linejoin:miter;stroke-opacity:1" />
      <path
         inkscape:connector-curvature="0"
         id="path3793"
         d="m 559.38711,490.83487 21.76616,-12.56629"
         style="fill:none;stroke:#000000;stroke-width:0.35346174px;stroke-linecap:butt;stroke-linejoin:miter;stroke-opacity:1" />
      <path
         inkscape:connector-curvature="0"
         id="path3829"
         d="M 576.19346,474.31997 548.48915,455.97929"
         style="fill:none;stroke:#000000;stroke-width:0.35346174px;stroke-linecap:butt;stroke-linejoin:miter;stroke-opacity:1" />
      <path
         inkscape:connector-curvature="0"
         id="path3831"
         d="m 521.21944,479.53641 27.39201,-23.59747"
         style="fill:none;stroke:#000000;stroke-width:0.35346174px;stroke-linecap:butt;stroke-linejoin:miter;stroke-opacity:1" />
      <path
         inkscape:connector-curvature="0"
         id="path3833"
         d="m 591.41437,402.35902 32.55017,-26.95236"
         style="fill:none;stroke:#000000;stroke-width:0.35346174px;stroke-linecap:butt;stroke-linejoin:miter;stroke-opacity:1" />
      <path
         inkscape:connector-curvature="0"
         id="path3835"
         d="m 611.80418,409.33956 12.89644,-32.66062"
         style="fill:none;stroke:#000000;stroke-width:0.35346174px;stroke-linecap:butt;stroke-linejoin:miter;stroke-opacity:1" />
      <path
         inkscape:connector-curvature="0"
         id="path3837"
         d="m 629.67859,421.38411 25.8094,-18.73833"
         style="fill:none;stroke:#000000;stroke-width:0.35346174px;stroke-linecap:butt;stroke-linejoin:miter;stroke-opacity:1" />
      <path
         inkscape:connector-curvature="0"
         id="path3839"
         d="m 646.2956,440.12244 9.19239,-37.12311"
         style="fill:none;stroke:#000000;stroke-width:0.35346174px;stroke-linecap:butt;stroke-linejoin:miter;stroke-opacity:1" />
      <path
         inkscape:connector-curvature="0"
         id="path3841-4"
         d="m 536.68817,432.06367 28.78568,14.83581"
         style="fill:none;stroke:#000000;stroke-width:0.35346174px;stroke-linecap:butt;stroke-linejoin:miter;stroke-opacity:1" />
      <path
         inkscape:connector-curvature="0"
         id="path3844"
         d="M 577.21717,473.85109 566.24396,447.20791"
         style="fill:none;stroke:#000000;stroke-width:0.35346174px;stroke-linecap:butt;stroke-linejoin:miter;stroke-opacity:1" />
      <path
         inkscape:connector-curvature="0"
         style="fill:none;stroke:#000000;stroke-width:0.35346174px;stroke-linecap:butt;stroke-linejoin:miter;stroke-opacity:1"
         d="m 610.78029,410.27889 25.5,15.125"
         id="path3699" />
      <path
         inkscape:connector-curvature="0"
         style="fill:none;stroke:#000000;stroke-width:0.35346174px;stroke-linecap:butt;stroke-linejoin:miter;stroke-opacity:1"
         d="m 576.22447,474.12041 15.06347,13.54098"
         id="path3701" />
    </g>
    <g
       id="g6898"
       transform="matrix(2.8756495,1.1822808,1.1822808,-2.8756495,-604.44168,610.76653)">
      <path
         sodipodi:nodetypes="cscsssccscc"
         inkscape:connector-curvature="0"
         id="path6851"
         d="m 261.6548,228.22873 c -1.0113,1.01541 -7.87795,-1.69729 -12.95454,-4.07952 -6.34872,-2.97919 -8.14893,-2.9419 -12.75899,-4.75833 -4.78158,-0.76816 -12.61986,-4.46017 -16.17818,-5.91872 -2.7656,-1.13362 -0.8112,-1.05726 -4.17105,-1.86562 -2.24816,-0.5409 -0.15735,-2.83163 3.08533,-1.47912 2.97751,1.24191 6.31586,2.77186 9.67013,3.16171 2.20232,1.15085 5.55649,3.16256 7.82907,3.45966 4.56858,1.51678 6.85569,1.62562 10.87813,3.20499 1.88653,0.74073 9.9222,4.6824 10.92262,4.65163 0.66678,1.12134 4.09424,0.42412 3.67748,3.62332 z"
         style="color:#000000;fill:none;stroke:#c87137;stroke-width:1.28650308;stroke-linecap:round;stroke-linejoin:round;stroke-miterlimit:4;stroke-opacity:1;stroke-dasharray:none;stroke-dashoffset:0;marker:none;visibility:visible;display:inline;overflow:visible;enable-background:accumulate" />
      <path
         sodipodi:nodetypes="sccssss"
         inkscape:connector-curvature="0"
         id="path6856"
         d="m 214.64374,209.95371 c 2.33398,0.95148 0.5727,1.83336 -2.83804,1.3956 -2.45495,0.20026 -4.44429,-0.47948 -6.16196,-1.8956 -1.21266,-0.99977 -2.63372,-2.15363 -3.56699,-3.30825 -2.616,-3.23645 -3.60367,-6.41107 -2.43301,-5.69175 4.08142,2.50785 4.00761,2.59689 6.73065,4.8317 1.43509,1.17779 3.70207,2.80639 8.26935,4.6683 z"
         style="color:#000000;fill:none;stroke:#808080;stroke-width:1.28650308;stroke-linecap:round;stroke-linejoin:miter;stroke-miterlimit:4;stroke-opacity:1;stroke-dasharray:none;stroke-dashoffset:0;marker:none;visibility:visible;display:inline;overflow:visible;enable-background:accumulate" />
    </g>
    <path
       style="fill:none;stroke:#000000;stroke-width:4;stroke-linecap:round;stroke-linejoin:miter;stroke-opacity:1;color:#000000;stroke-miterlimit:4;stroke-dasharray:none;stroke-dashoffset:0;marker:none;visibility:visible;display:inline;overflow:visible;enable-background:accumulate"
       d="m 9,12 c 61.888762,-1.795497 121.73019,-1 184,-1 39.93341,0 79.32729,3 119,3 36.58961,0 75.13029,-13.53420308 112,-3 4.99443,1.42698 27.99344,5.013112 23,15 -6.74325,13.486502 -39.55589,7 -54,7 -22.9056,0 -52.91425,-5.042877 -73,5 -8.96653,4.483267 -49.5819,0 -62,0 -25.74591,0 -50.92736,0.178774 -76,-4 -27.54757,-4.591262 -67.7318,0 -97,0 -15.036799,0 -70.755464,-0.489072 -76,10 -0.6397496,1.279499 -0.2913972,6.354301 1,7 12.06396,6.03198 59.971567,2.994313 75,6 18.60179,3.720358 41.07862,1 60,1 39.41446,0 78.68675,1 118,1 24.88296,0 51.51934,-2.497237 76,1 18.62017,2.660024 38.53371,-3.10362 57,1 26.7013,5.933623 33.91918,-10.185643 45,15 3.94825,8.973999 -14.43992,10 -22,10 -38.60129,0 -75.54134,-7.835249 -114,-6 -18.45689,0.880764 -41.85014,3.629973 -60,0 -30.4523,-6.09046 -60.02685,1 -92,1 -11.96231,0 -26.19917,-1.966805 -38,0 -20.91449,3.485748 -27.653043,9 -50,9 -9.097427,0 -41.085554,-3.957223 -47,-1 -4.091652,2.045826 -12.16457,3.16457 -7,9 0.06741,0.07617 0.649147,5.64915 2,7 3.952983,3.95298 97.02242,4 110,4 5.37124,0 45.87218,-12.12782 49,-3 -1.26949,10.81538 -30.01996,29.69341 -46.87728,30.03506 C 115.76304,136.22774 106.73014,140.08995 101,142 c -19.586324,6.52877 -28.260608,-3 -47,-3 -14.209427,0 -40,-4.70438 -40,11 0,1.11076 -0.707108,6.29289 0,7 11.303036,11.30304 57.566437,3.44122 62,10 11.31364,16.73682 -60.291178,19.1248 -62,14"
       id="path3214"
       inkscape:connector-curvature="0"
       sodipodi:nodetypes="csssssssssssssssssssssssssssccsssssc" />
    <path
       style="color:#000000;fill:none;stroke:#000000;stroke-width:4;stroke-linecap:round;stroke-linejoin:round;stroke-miterlimit:4;stroke-opacity:1;stroke-dasharray:none;stroke-dashoffset:0;marker:none;visibility:visible;display:inline;overflow:visible;enable-background:accumulate"
       d="m 249,216 c -14.71438,2.2991 -25.70063,-0.54471 -17,9 12.43558,12.43558 27.24388,-7.75612 32,12 2.1326,8.85846 -46.15617,-4.84383 -51,0 -0.58307,0.58307 -0.58307,7.91693 -4,12 -19.24637,4.68428 -13.8857,-7.62536 -29,6 -3.20956,9.62869 -38.42948,24 -3,20 11.47272,-0.51215 9.14329,-0.78124 23,6 16.26341,0 33.40262,0 49,0"
       id="path3216"
       inkscape:connector-curvature="0"
       sodipodi:nodetypes="ccssccccc" />
    <path
       style="color:#000000;fill:none;stroke:#000000;stroke-width:4;stroke-linecap:round;stroke-linejoin:miter;stroke-miterlimit:4;stroke-opacity:1;stroke-dasharray:none;stroke-dashoffset:0;marker:none;visibility:visible;display:inline;overflow:visible;enable-background:accumulate"
       d="m 325.5,244 c 15.42925,-0.39016 21.19433,3.70483 38.10137,3.06125 15.30231,-0.58249 24.80741,5.06409 34.14863,4.43875 16.85745,-1.12851 30.58236,-6.06872 43.5,-1.5 7.73612,2.73612 15.50549,22.23903 -4,29.25 -24.05368,2.20058 -59.8807,1.47854 -70.25,-0.25"
       id="path3218"
       inkscape:connector-curvature="0"
       sodipodi:nodetypes="cssscc" />
    <path
       style="color:#000000;fill:none;stroke:#ff0000;stroke-width:3.99999976;stroke-linecap:round;stroke-linejoin:round;stroke-miterlimit:4;stroke-opacity:1;stroke-dasharray:none;stroke-dashoffset:0;marker:none;visibility:visible;display:inline;overflow:visible;enable-background:accumulate"
       d="m 439.72085,228.07749 c -3.60655,-12.05771 -6.0488,-14.81604 -13.0744,-10.18072 -2.66013,1.75509 -6.14129,3.83324 -7.0708,9.08831 -0.39009,2.20544 3.38707,6.73641 4.48422,7.05529 5.7236,1.66354 6.42506,-0.0808 11.10414,-2.07722 2.36275,-1.00811 -2.62861,-8.07462 -3.67035,-8.17985 -2.04556,-0.20662 -5.22245,2.03872 -6.38994,2.35237"
       id="path3237"
       inkscape:connector-curvature="0"
       sodipodi:nodetypes="csssssc" />
  </g>
</svg>
