<?xml version="1.0" encoding="UTF-8" standalone="no"?>
<!-- Created with Inkscape (http://www.inkscape.org/) -->

<svg
   xmlns:dc="http://purl.org/dc/elements/1.1/"
   xmlns:cc="http://creativecommons.org/ns#"
   xmlns:rdf="http://www.w3.org/1999/02/22-rdf-syntax-ns#"
   xmlns:svg="http://www.w3.org/2000/svg"
   xmlns="http://www.w3.org/2000/svg"
   xmlns:xlink="http://www.w3.org/1999/xlink"
   xmlns:sodipodi="http://sodipodi.sourceforge.net/DTD/sodipodi-0.dtd"
   xmlns:inkscape="http://www.inkscape.org/namespaces/inkscape"
   width="480"
   height="320"
   id="svg2"
   version="1.1"
   inkscape:version="0.48.0 r9654"
   sodipodi:docname="itnas375.svg"
   inkscape:export-xdpi="90"
   inkscape:export-ydpi="90"
   inkscape:export-filename="itnas375.png">
  <defs
     id="defs4">
    <inkscape:perspective
       sodipodi:type="inkscape:persp3d"
       inkscape:vp_x="0 : 160 : 1"
       inkscape:vp_y="0 : 1000 : 0"
       inkscape:vp_z="480 : 160 : 1"
       inkscape:persp3d-origin="240 : 106.66667 : 1"
       id="perspective8" />
    <clipPath
       clipPathUnits="userSpaceOnUse"
       id="clipPath7073">
      <rect
         style="color:#000000;fill:none;stroke:#000000;stroke-width:1;stroke-linecap:butt;stroke-linejoin:miter;stroke-miterlimit:4;stroke-opacity:1;stroke-dasharray:none;stroke-dashoffset:0;marker:none;visibility:visible;display:inline;overflow:visible;enable-background:accumulate"
         id="rect7075"
         width="55"
         height="90"
         x="110"
         y="110" />
    </clipPath>
    <clipPath
       clipPathUnits="userSpaceOnUse"
       id="clipPath7409">
      <rect
         style="color:#000000;fill:none;stroke:#000000;stroke-width:1;stroke-linecap:butt;stroke-linejoin:miter;stroke-miterlimit:4;stroke-opacity:1;stroke-dasharray:none;stroke-dashoffset:0;marker:none;visibility:visible;display:inline;overflow:visible;enable-background:accumulate"
         id="rect7411"
         width="240"
         height="160"
         x="0"
         y="0" />
    </clipPath>
  </defs>
  <sodipodi:namedview
     id="base"
     pagecolor="#ffffff"
     bordercolor="#666666"
     borderopacity="1.0"
     inkscape:pageopacity="1"
     inkscape:pageshadow="2"
     inkscape:zoom="1"
     inkscape:cx="248.29214"
     inkscape:cy="159.29348"
     inkscape:document-units="px"
     inkscape:current-layer="layer3"
     showgrid="true"
     inkscape:snap-nodes="true"
     inkscape:snap-global="true"
     inkscape:snap-grids="true"
     showguides="true"
     inkscape:window-width="1280"
     inkscape:window-height="998"
     inkscape:window-x="1276"
     inkscape:window-y="-4"
     inkscape:window-maximized="1">
    <inkscape:grid
       empspacing="5"
       visible="true"
       enabled="true"
       snapvisiblegridlinesonly="true"
       type="xygrid"
       id="grid2816" />
  </sodipodi:namedview>
  <metadata
     id="metadata7">
    <rdf:RDF>
      <cc:Work
         rdf:about="">
        <dc:format>image/svg+xml</dc:format>
        <dc:type
           rdf:resource="http://purl.org/dc/dcmitype/StillImage" />
        <dc:title />
      </cc:Work>
    </rdf:RDF>
  </metadata>
  <g
     inkscape:groupmode="layer"
     id="layer2"
     inkscape:label="floor">
    <g
       id="g7245">
      <path
         inkscape:connector-curvature="0"
         d="m 63,30 0,260 m 4,-260 0,260"
         style="color:#000000;fill:none;stroke:#cc00ff;stroke-width:2;stroke-linecap:butt;stroke-linejoin:miter;stroke-miterlimit:4;stroke-opacity:1;stroke-dasharray:none;stroke-dashoffset:0;marker:none;visibility:visible;display:inline;overflow:visible;enable-background:accumulate"
         id="path7210" />
      <use
         height="320"
         width="480"
         transform="translate(25,0)"
         id="use7223"
         xlink:href="#path7210"
         y="0"
         x="0" />
      <use
         height="320"
         width="480"
         transform="matrix(-1,0,0,1,180,0)"
         id="use7231"
         xlink:href="#path7210"
         y="0"
         x="0" />
      <use
         height="320"
         width="480"
         transform="translate(75,0)"
         id="use7237"
         xlink:href="#path7210"
         y="0"
         x="0" />
    </g>
    <use
       x="0"
       y="0"
       xlink:href="#g7245"
       id="use7251"
       transform="translate(100,0)"
       width="480"
       height="320" />
    <use
       x="0"
       y="0"
       xlink:href="#g7245"
       id="use7253"
       transform="translate(200,0)"
       width="480"
       height="320" />
    <use
       x="0"
       y="0"
       xlink:href="#use7251"
       id="use7255"
       transform="translate(200,0)"
       width="480"
       height="320" />
    <g
       id="g7265">
      <use
         height="320"
         width="480"
         transform="matrix(0,-1,1,0,-50,263)"
         id="use7257"
         xlink:href="#g7245"
         y="0"
         x="0" />
      <use
         height="320"
         width="480"
         transform="translate(0,-100)"
         id="use7261"
         xlink:href="#use7257"
         y="0"
         x="0" />
      <use
         height="320"
         width="480"
         transform="translate(0,100)"
         id="use7263"
         xlink:href="#use7257"
         y="0"
         x="0" />
    </g>
    <use
       x="0"
       y="0"
       xlink:href="#g7265"
       id="use7270"
       transform="translate(260,0)"
       width="480"
       height="320" />
  </g>
  <g
     inkscape:label="Layer 1"
     inkscape:groupmode="layer"
     id="layer1"
     transform="translate(0,0)">
    <rect
       y="0"
       x="440"
       height="320"
       width="40"
       id="rect7465"
       style="color:#000000;fill:#ffffff;stroke:none;stroke-width:1;marker:none;visibility:visible;display:inline;overflow:visible;enable-background:accumulate" />
    <rect
       style="color:#000000;fill:#ffffff;stroke:none;stroke-width:1;marker:none;visibility:visible;display:inline;overflow:visible;enable-background:accumulate"
       id="rect7445"
       width="40"
       height="320"
       x="-1.3322676e-015"
       y="0" />
    <use
       x="0"
       y="0"
       xlink:href="#rect6169"
       id="use7142"
       transform="matrix(1,0,0,-1,0,320)"
       width="480"
       height="320" />
    <use
       height="320"
       width="480"
       transform="matrix(-1,0,0,-1,480,320)"
       id="use7148"
       xlink:href="#rect6169"
       y="0"
       x="0" />
    <use
       x="0"
       y="0"
       xlink:href="#rect6169"
       id="use7146"
       transform="matrix(-1,0,0,1,480,0)"
       width="480"
       height="320" />
    <path
       id="rect6169"
       style="color:#000000;fill:#ffffff;stroke:#ff0000;stroke-width:2;stroke-linecap:butt;stroke-linejoin:miter;stroke-miterlimit:4;stroke-opacity:1;stroke-dasharray:none;stroke-dashoffset:0;marker:none;visibility:visible;display:inline;overflow:visible;enable-background:accumulate"
       d="m 30,165 0,-135 5,-10 10,-5 200,0 0,40 -15,0 L 210,35 80,35 70,55 50,65 50,165 z"
       inkscape:connector-curvature="0"
       sodipodi:nodetypes="ccccccccccccc"
       clip-path="url(#clipPath7409)" />
    <g
       id="g6202"
       style="stroke:#0000ff"
       transform="translate(0,-5)">
      <path
         transform="translate(20,0)"
         d="m 40,40 c 0,5.522847 -4.477153,10 -10,10 -5.522847,0 -10,-4.477153 -10,-10 0,-5.522847 4.477153,-10 10,-10 5.522847,0 10,4.477153 10,10 z"
         sodipodi:ry="10"
         sodipodi:rx="10"
         sodipodi:cy="40"
         sodipodi:cx="30"
         id="path6171"
         style="color:#000000;fill:none;stroke:#0000ff;stroke-width:1px;stroke-linecap:butt;stroke-linejoin:miter;stroke-miterlimit:4;stroke-opacity:1;stroke-dasharray:none;stroke-dashoffset:0;marker:none;visibility:visible;display:inline;overflow:visible;enable-background:accumulate"
         sodipodi:type="arc" />
      <path
         sodipodi:nodetypes="cccc"
         inkscape:connector-curvature="0"
         id="path6190"
         d="m 52,41 -1,9 m -2,0 -1,-9"
         style="fill:none;stroke:#0000ff;stroke-width:1px;stroke-linecap:butt;stroke-linejoin:miter;stroke-opacity:1" />
      <use
         height="320"
         width="480"
         transform="matrix(0.5,-0.86602541,-0.86602541,-0.5,59.641016,103.30127)"
         id="use6198"
         xlink:href="#path6190"
         y="0"
         x="0"
         style="stroke:#0000ff" />
      <use
         height="320"
         width="480"
         transform="matrix(0.5,0.86602541,0.86602541,-0.5,-9.6410157,16.69873)"
         id="use6200"
         xlink:href="#path6190"
         y="0"
         x="0"
         style="stroke:#0000ff" />
    </g>
    <use
       x="0"
       y="0"
       xlink:href="#g6202"
       id="use7032"
       transform="matrix(-0.21847235,0.97584314,-0.97584314,-0.21847235,475.07813,-6.1456249)"
       width="480"
       height="320" />
    <use
       x="0"
       y="0"
       xlink:href="#g6202"
       id="use7036"
       transform="matrix(0.61394061,-0.78935222,0.78935222,0.61394061,181.67564,52.979689)"
       width="480"
       height="320" />
    <use
       x="0"
       y="0"
       xlink:href="#g6202"
       id="use7088"
       transform="matrix(-0.60881879,0.79330933,-0.79330933,-0.60881879,108.20677,266.64319)"
       width="480"
       height="320" />
    <use
       height="320"
       width="480"
       transform="matrix(0.80873608,-0.5881717,0.5881717,0.80873608,368.97719,286.10282)"
       id="use7090"
       xlink:href="#g6202"
       y="0"
       x="0" />
    <g
       id="g7167"
       transform="translate(0,5)">
      <path
         transform="translate(-210,240)"
         d="m 460,40 a 10,10 0 1 1 -20,0 10,10 0 1 1 20,0 z"
         sodipodi:ry="10"
         sodipodi:rx="10"
         sodipodi:cy="40"
         sodipodi:cx="450"
         id="path6188"
         style="color:#000000;fill:none;stroke:#00ff00;stroke-width:1px;stroke-linecap:butt;stroke-linejoin:miter;stroke-miterlimit:4;stroke-opacity:1;stroke-dasharray:none;stroke-dashoffset:0;marker:none;visibility:visible;display:inline;overflow:visible;enable-background:accumulate"
         sodipodi:type="arc" />
      <path
         d="m 245,280 a 5,5 0 1 1 -10,0 5,5 0 1 1 10,0 z"
         sodipodi:ry="5"
         sodipodi:rx="5"
         sodipodi:cy="280"
         sodipodi:cx="240"
         id="path7092"
         style="color:#000000;fill:none;stroke:#00ff00;stroke-width:1px;stroke-linecap:butt;stroke-linejoin:miter;stroke-miterlimit:4;stroke-opacity:1;stroke-dasharray:none;stroke-dashoffset:0;marker:none;visibility:visible;display:inline;overflow:visible;enable-background:accumulate"
         sodipodi:type="arc" />
    </g>
  </g>
  <g
     inkscape:groupmode="layer"
     id="layer3"
     inkscape:label="ceil">
    <rect
       style="color:#000000;fill:#ffffff;stroke:#b15f13;stroke-width:2;stroke-linecap:butt;stroke-linejoin:miter;stroke-miterlimit:4;stroke-opacity:1;stroke-dasharray:none;stroke-dashoffset:0;marker:none;visibility:visible;display:inline;overflow:visible;enable-background:accumulate"
       id="rect7426"
       width="330"
       height="110"
       x="75"
       y="105" />
    <path
       style="fill:none;stroke:#ff0000;stroke-width:2;stroke-linecap:butt;stroke-linejoin:miter;stroke-miterlimit:4;stroke-opacity:1;stroke-dasharray:none"
       d="m 85,150 198,0 2,-2 0,-26 -2,-2 -198,0"
       id="path7040"
       inkscape:connector-curvature="0"
       sodipodi:nodetypes="cccccc" />
    <g
       id="g7023"
       style="stroke-width:2;stroke-miterlimit:4;stroke-dasharray:none"
       clip-path="url(#clipPath7073)"
       transform="translate(5,0)">
      <path
         id="path6998"
         d="m 160,140 -20,0 5,65 15,0"
         style="fill:#ffffff;stroke:#00ff00;stroke-width:2;stroke-linecap:butt;stroke-linejoin:miter;stroke-miterlimit:4;stroke-opacity:1;stroke-dasharray:none;stroke-dashoffset:0"
         inkscape:connector-curvature="0"
         sodipodi:nodetypes="cccc" />
      <path
         sodipodi:nodetypes="cccccc"
         inkscape:connector-curvature="0"
         id="path6184"
         d="m 121,121 0,-1 35,0 1,4 1,2 2,1"
         style="fill:none;stroke:#0000ff;stroke-width:2;stroke-linecap:butt;stroke-linejoin:miter;stroke-miterlimit:4;stroke-opacity:1;stroke-dasharray:none" />
      <path
         style="fill:none;stroke:#00ff00;stroke-width:2;stroke-linecap:butt;stroke-linejoin:miter;stroke-miterlimit:4;stroke-opacity:1;stroke-dasharray:none"
         d="m 120,120 20,20"
         id="path7086"
         inkscape:connector-curvature="0" />
      <path
         sodipodi:nodetypes="cccc"
         inkscape:connector-curvature="0"
         id="path6224"
         d="m 152,120 2,9 4,5 2,1"
         style="fill:none;stroke:#0000ff;stroke-width:2;stroke-linecap:butt;stroke-linejoin:miter;stroke-miterlimit:4;stroke-opacity:1;stroke-dasharray:none;stroke-dashoffset:0.8" />
      <path
         inkscape:connector-curvature="0"
         id="path7004"
         d="m 156,120 4,0"
         style="color:#000000;fill:none;stroke:#0000ff;stroke-width:2;stroke-linecap:butt;stroke-linejoin:miter;stroke-miterlimit:4;stroke-opacity:1;stroke-dasharray:none;stroke-dashoffset:0.8;marker:none;visibility:visible;display:inline;overflow:visible;enable-background:accumulate" />
    </g>
    <use
       x="0"
       y="0"
       xlink:href="#g7023"
       id="use7030"
       transform="matrix(-1,0,0,1,330,0)"
       width="480"
       height="320" />
    <path
       style="color:#000000;fill:none;stroke:#cc00ff;stroke-width:2;stroke-linecap:butt;stroke-linejoin:miter;stroke-miterlimit:4;stroke-opacity:1;stroke-dashoffset:0;marker:none;visibility:visible;display:inline;overflow:visible;enable-background:accumulate"
       d="m 395,160 -134,0 -1,-1 0,-6 1,-1 134,0"
       id="rect7077"
       inkscape:connector-curvature="0"
       sodipodi:nodetypes="cccccc" />
    <path
       sodipodi:type="arc"
       style="color:#000000;fill:none;stroke:#cc00ff;stroke-width:2;stroke-linecap:butt;stroke-linejoin:miter;stroke-miterlimit:4;stroke-opacity:1;stroke-dasharray:none;stroke-dashoffset:0;marker:none;visibility:visible;display:inline;overflow:visible;enable-background:accumulate"
       id="path7171"
       sodipodi:cx="322"
       sodipodi:cy="171"
       sodipodi:rx="4"
       sodipodi:ry="4"
       d="m 326,171 a 4,4 0 1 1 -8,0 4,4 0 1 1 8,0 z"
       transform="translate(-42,-6)" />
    <path
       transform="translate(8,-6)"
       d="m 326,171 a 4,4 0 1 1 -8,0 4,4 0 1 1 8,0 z"
       sodipodi:ry="4"
       sodipodi:rx="4"
       sodipodi:cy="171"
       sodipodi:cx="322"
       id="path7216"
       style="color:#000000;fill:none;stroke:#cc00ff;stroke-width:2;stroke-linecap:butt;stroke-linejoin:miter;stroke-miterlimit:4;stroke-opacity:1;stroke-dasharray:none;stroke-dashoffset:0;marker:none;visibility:visible;display:inline;overflow:visible;enable-background:accumulate"
       sodipodi:type="arc" />
    <path
       sodipodi:type="arc"
       style="color:#000000;fill:none;stroke:#cc00ff;stroke-width:2;stroke-linecap:butt;stroke-linejoin:miter;stroke-miterlimit:4;stroke-opacity:1;stroke-dasharray:none;stroke-dashoffset:0;marker:none;visibility:visible;display:inline;overflow:visible;enable-background:accumulate"
       id="path7218"
       sodipodi:cx="322"
       sodipodi:cy="171"
       sodipodi:rx="4"
       sodipodi:ry="4"
       d="m 326,171 a 4,4 0 1 1 -8,0 4,4 0 1 1 8,0 z"
       transform="translate(58,-6)" />
  </g>
</svg>
