<?xml version="1.0" encoding="UTF-8" standalone="no"?>
<!-- Created with Inkscape (http://www.inkscape.org/) -->

<svg
   xmlns:dc="http://purl.org/dc/elements/1.1/"
   xmlns:cc="http://creativecommons.org/ns#"
   xmlns:rdf="http://www.w3.org/1999/02/22-rdf-syntax-ns#"
   xmlns:svg="http://www.w3.org/2000/svg"
   xmlns="http://www.w3.org/2000/svg"
   xmlns:sodipodi="http://sodipodi.sourceforge.net/DTD/sodipodi-0.dtd"
   xmlns:inkscape="http://www.inkscape.org/namespaces/inkscape"
   width="480"
   height="320"
   id="svg2"
   version="1.1"
   inkscape:version="0.48.0 r9654"
   sodipodi:docname="itnas296.svg"
   inkscape:export-xdpi="90"
   inkscape:export-ydpi="90"
   inkscape:export-filename="itnas296.png">
  <defs
     id="defs4">
    <inkscape:perspective
       sodipodi:type="inkscape:persp3d"
       inkscape:vp_x="0 : 160 : 1"
       inkscape:vp_y="0 : 1000 : 0"
       inkscape:vp_z="480 : 160 : 1"
       inkscape:persp3d-origin="240 : 106.66667 : 1"
       id="perspective8" />
  </defs>
  <sodipodi:namedview
     id="base"
     pagecolor="#ffffff"
     bordercolor="#666666"
     borderopacity="1.0"
     inkscape:pageopacity="1"
     inkscape:pageshadow="2"
     inkscape:zoom="1"
     inkscape:cx="263"
     inkscape:cy="164"
     inkscape:document-units="px"
     inkscape:current-layer="layer1"
     showgrid="false"
     inkscape:snap-nodes="true"
     inkscape:snap-global="false"
     inkscape:snap-grids="true"
     showguides="true"
     inkscape:window-width="1280"
     inkscape:window-height="998"
     inkscape:window-x="1276"
     inkscape:window-y="-4"
     inkscape:window-maximized="1">
    <inkscape:grid
       empspacing="5"
       visible="true"
       enabled="true"
       snapvisiblegridlinesonly="true"
       type="xygrid"
       id="grid2816" />
  </sodipodi:namedview>
  <metadata
     id="metadata7">
    <rdf:RDF>
      <cc:Work
         rdf:about="">
        <dc:format>image/svg+xml</dc:format>
        <dc:type
           rdf:resource="http://purl.org/dc/dcmitype/StillImage" />
        <dc:title></dc:title>
      </cc:Work>
    </rdf:RDF>
  </metadata>
  <g
     inkscape:label="Layer 1"
     inkscape:groupmode="layer"
     id="layer1"
     transform="translate(0,0)">
    <path
       style="color:#000000;fill:none;stroke:#808080;stroke-width:4;stroke-linecap:butt;stroke-linejoin:miter;stroke-miterlimit:4;stroke-opacity:1;stroke-dasharray:none;stroke-dashoffset:0;marker:none;visibility:visible;display:inline;overflow:visible;enable-background:accumulate"
       d="M 51.18127,201.51265 C 44.12764,150.45561 51.17227,166.1979 37.81031,125.01796 28.01044,94.815213 39.40003,77.74277 24.86406,57.005334 17.58869,45.205264 22.50537,38.291275 34.06941,34.302261 49.76146,28.88929 79.779,23.155125 106.01184,25.321 c 27.49504,2.270087 14.43055,5.958559 37.97903,3.565355 C 162.2089,27.034879 157,-6.7872909 156,-21.75"
       id="path3174"
       inkscape:connector-curvature="0"
       sodipodi:nodetypes="cscsssc" />
    <path
       style="color:#000000;fill:none;stroke:#808080;stroke-width:4;stroke-linecap:butt;stroke-linejoin:miter;stroke-miterlimit:4;stroke-opacity:1;stroke-dasharray:none;stroke-dashoffset:0;marker:none;visibility:visible;display:inline;overflow:visible;enable-background:accumulate"
       d="m 494,235 -32,0 c -50.24879,-3.613 -57.92844,0.33561 -65.79257,-15.88925 C 378.0298,181.6076 389.68832,202.97408 380,154 372.711,117.15438 380,101.74043 353,56 341.46175,29.126256 324.7636,35.602653 308.0388,38.610649 256.55055,47.870936 280.29303,37.804542 237.75337,45.445198 226.50686,43.291173 218.44165,34.152361 217.64943,26.558162 216.41382,14.713553 223.14024,-0.67148643 223,-10"
       id="path3161"
       inkscape:connector-curvature="0"
       sodipodi:nodetypes="ccsscscsc" />
    <path
       style="color:#000000;fill:none;stroke:#808080;stroke-width:4;stroke-linecap:butt;stroke-linejoin:miter;stroke-miterlimit:4;stroke-opacity:1;stroke-dasharray:none;stroke-dashoffset:0;marker:none;visibility:visible;display:inline;overflow:visible;enable-background:accumulate"
       d="M 280.11985,201.90555 C 281.34964,198.20348 283.20239,195.3988 286,194 c 14.93581,-7.4679 21.44019,26.35159 20,35 -0.54613,3.27952 -5.3628,25.17241 0.48181,37.79192 C 316.85693,289.19358 309.13723,283.66866 326,291 c 48.7495,21.19457 88.51255,-2.61603 135,9 14.08382,2.12503 28.51132,3.19552 42.99342,3.27056"
       id="path3001"
       inkscape:connector-curvature="0"
       sodipodi:nodetypes="csssscc" />
    <path
       style="fill:none;stroke:#000000;stroke-width:1px;stroke-linecap:butt;stroke-linejoin:miter;stroke-opacity:1;display:inline"
       d="m 483.30019,235.12653 0,65.49381"
       id="path3099"
       inkscape:connector-curvature="0" />
    <path
       style="color:#000000;fill:none;stroke:#0000ff;stroke-width:4;stroke-linecap:round;stroke-linejoin:round;stroke-miterlimit:4;stroke-opacity:1;stroke-dasharray:none;stroke-dashoffset:0;marker:none;visibility:visible;display:inline;overflow:visible;enable-background:accumulate"
       d="m 161.17574,-30.357485 c -2.13617,-1.161223 0.25094,12.220958 0.27696,32.611634 0.014,11.010126 -1.41504,15.495958 -3.54828,20.429764 -3.71103,8.582964 1.54494,8.850002 6.66994,14.713645 16.63902,-15.582835 5.34343,-13.750316 4.84069,-23.269492 -0.99261,-18.7945002 -3.22673,-41.76071 -8.23931,-44.485551 z"
       id="path4063"
       inkscape:connector-curvature="0"
       sodipodi:nodetypes="ssscss" />
    <path
       id="path3005"
       style="color:#000000;fill:none;stroke:#0000ff;stroke-width:3.99999976;stroke-linecap:round;stroke-linejoin:round;stroke-miterlimit:4;stroke-opacity:1;stroke-dasharray:none;stroke-dashoffset:0;marker:none;visibility:visible;display:inline;overflow:visible;enable-background:accumulate"
       d="m 279.92882,201.84048 c -30.9562,0.0291 -108.04153,0.0858 -112.71991,-6.12436 -5.04088,-8.41684 -6.93577,-6.32559 -10.33058,-0.89377 -5.98336,9.65987 -50.19168,7.25036 -105.8678,6.63005"
       inkscape:connector-curvature="0"
       sodipodi:nodetypes="cccc" />
    <path
       style="color:#000000;fill:none;stroke:#808080;stroke-width:4.78389835;stroke-linecap:butt;stroke-linejoin:miter;stroke-miterlimit:4;stroke-opacity:1;stroke-dasharray:none;stroke-dashoffset:0;marker:none;visibility:visible;display:inline;overflow:visible;enable-background:accumulate"
       d="m 184.23604,19.391949 0,0 c 4.89777,-0.424318 4.27903,9.315048 1.66441,9.972047 -3.78754,0.951726 -10.18948,-3.716252 -1.66441,-9.972047 z"
       id="path3972"
       inkscape:connector-curvature="0"
       sodipodi:nodetypes="ccsc" />
    <path
       style="color:#000000;fill:none;stroke:#808080;stroke-width:4;stroke-linecap:butt;stroke-linejoin:miter;stroke-miterlimit:4;stroke-opacity:1;stroke-dasharray:none;stroke-dashoffset:0;marker:none;visibility:visible;display:inline;overflow:visible;enable-background:accumulate"
       d="m 203.45326,21.276624 c 6.81233,1.672127 8.46413,8.271664 -1.83583,9.053789 -8.12794,0.617193 -4.80785,-10.684519 1.83583,-9.053789 z"
       id="path3974"
       inkscape:connector-curvature="0"
       sodipodi:nodetypes="sss" />
    <path
       style="color:#000000;fill:none;stroke:#808080;stroke-width:4;stroke-linecap:butt;stroke-linejoin:miter;stroke-miterlimit:4;stroke-opacity:1;stroke-dasharray:none;stroke-dashoffset:0;marker:none;visibility:visible;display:inline;overflow:visible;enable-background:accumulate"
       d="m 163.76735,20.864338 c 17.68075,4.40964 -12.4194,16.487924 0,0 z"
       id="path3976"
       inkscape:connector-curvature="0" />
    <path
       inkscape:connector-curvature="0"
       style="fill:none;stroke:#80ff00;stroke-width:4.51994658;stroke-linecap:round;stroke-linejoin:round;stroke-miterlimit:4;stroke-opacity:1;stroke-dasharray:none"
       d="m 308.61027,224.49314 c 0.77305,-3.4376 -1.61156,-10.74702 1.49645,-15.70206 2.20663,-4.90258 2.6744,-3.29799 7.73585,-7.24291 3.17327,-1.05326 10.56653,-8.51031 8.49053,-0.11454 -2.91335,6.37597 -1.50289,15.88994 -4.94244,19.37014 -3.31945,4.36865 -6.82906,9.92254 -10.35794,12.32884 -1.34681,-0.82009 -1.48854,2.35873 -2.76175,1.93628"
       id="path2956"
       sodipodi:nodetypes="ccccccc" />
    <path
       style="color:#000000;fill:none;stroke:#0000ff;stroke-width:4;stroke-linecap:round;stroke-linejoin:round;stroke-miterlimit:4;stroke-opacity:1;stroke-dasharray:none;stroke-dashoffset:0;marker:none;visibility:visible;display:inline;overflow:visible;enable-background:accumulate"
       d="m 307.5,256.5 c 4.65825,0.56983 12.18096,1.92699 20.5,10 10.80234,10.48286 -0.47425,19.20376 20.5,26 11.94819,3.87155 37.72879,2.83569 63.5,0.5 26.7763,-2.42678 60.01188,4.09617 90,5"
       id="path4033"
       inkscape:connector-curvature="0"
       sodipodi:nodetypes="csssc" />
    <path
       inkscape:connector-curvature="0"
       style="color:#000000;fill:#ffffff;fill-opacity:0;stroke:#80ff00;stroke-width:4;stroke-linecap:round;stroke-linejoin:round;stroke-miterlimit:4;stroke-opacity:1;stroke-dasharray:none;stroke-dashoffset:0;marker:none;visibility:visible;display:inline;overflow:visible;enable-background:accumulate"
       d="m 526.84445,284.06322 c -14.02119,-8.905 -24.23124,6.65188 -43.39823,4.32528 -10.10947,-1.22715 -18.09357,7.78712 -31.2798,5.89885 -16.17594,-2.3164 -19.65056,-1.78156 -28.43516,-1.44953 -18.0877,0.68366 -34.53842,-3.22047 -41.6703,-9.29446 -5.57737,-4.75007 -9.00007,-11.78496 -13.11618,-15.59301"
       id="path4125"
       sodipodi:nodetypes="csssss" />
    <path
       inkscape:connector-curvature="0"
       style="color:#000000;fill:none;stroke:#80ff00;stroke-width:4;stroke-linecap:round;stroke-linejoin:round;stroke-miterlimit:4;stroke-opacity:1;stroke-dasharray:none;stroke-dashoffset:0;marker:none;visibility:visible;display:inline;overflow:visible;enable-background:accumulate"
       d="m 315.34735,184.64683 c 5.22284,0.9387 6.6851,4.23467 8.46142,7.43146 1.84315,3.31795 3.20411,6.87716 4.69106,10.45467 1.63783,3.94039 4.30346,8.8218 6.24905,13.14682 2.43022,5.40237 3.71211,10.80325 6.31563,16.21983 3.1744,6.60458 7.83504,12.55009 11.89318,18.75709 2.04063,3.12123 3.09265,5.74599 4.87506,9.06439 1.37474,2.55985 5.99034,4.13802 10.58709,7.76155"
       id="path2833"
       sodipodi:nodetypes="csssssss" />
    <path
       inkscape:connector-curvature="0"
       style="color:#000000;fill:none;stroke:#80ff00;stroke-width:3.99999976;stroke-linecap:round;stroke-linejoin:round;stroke-miterlimit:4;stroke-opacity:1;stroke-dasharray:none;stroke-dashoffset:0;marker:none;visibility:visible;display:inline;overflow:visible;enable-background:accumulate"
       d="m 316.45936,170.39672 c -0.75716,-1.0578 -5.03769,1.6999 -7.2801,2.2698 -1.82238,0.4632 -3.73476,0.6436 -5.47487,1.2945 -1.93006,0.722 -3.75899,1.7172 -5.71864,2.3536 -2.94166,0.9554 -5.99579,1.6222 -9.01165,2.3705 -1.47444,0.3658 -2.98023,0.091 -4.25364,0.8864 -1.58133,0.9885 -4.93479,1.0471 -5.01655,2.3385 -0.076,1.2005 3.01378,1.6179 4.132,2.8891 3.59407,4.0856 6.21026,3.6962 9.54952,4.8728 2.35721,0.8305 4.71148,0.7263 6.94979,1.7604 2.45458,1.1341 4.43905,2.9995 6.87922,4.1664 1.53542,0.7343 3.2151,0.9185 4.76571,1.5383 2.3175,0.9263 1.23172,-1.8772 1.21129,-2.9458 -0.0378,-1.9778 0.30028,-3.9319 0.37175,-5.9035 0.0618,-1.704 0.90171,-3.3116 0.81987,-5.0737 -0.0885,-1.905 -0.20546,-3.8727 0.16174,-5.7389 0.35156,-1.7867 0.82643,-3.5803 1.41104,-5.3339 0.28726,-0.8616 0.88573,-1.2105 0.50352,-1.7445 z"
       id="path2870"
       sodipodi:nodetypes="csssssssssssssssss" />
    <path
       inkscape:connector-curvature="0"
       style="fill:none;stroke:#80ff00;stroke-width:3.99999952;stroke-linecap:round;stroke-linejoin:round;stroke-miterlimit:4;stroke-opacity:1;stroke-dasharray:none"
       d="m 362.23846,296.04813 c 0.53789,-4.25568 -2.55948,-8.66174 -2.25114,-12.89455 1.00316,-5.42161 0.24202,-9.52161 -1.7089,-14.8928 -0.61129,-3.47034 -0.6308,-13.39273 -4.20786,-7.56256 -2.28548,3.86948 -4.19001,5.05524 -6.52667,9.8095 -3.29724,4.38437 -5.92772,6.24112 -7.95812,10.70546 -2.31549,2.59276 -7.63296,6.68493 -7.515,8.18231"
       id="path2956-7"
       sodipodi:nodetypes="ccccccc" />
    <path
       inkscape:connector-curvature="0"
       style="fill:none;stroke:#80ff00;stroke-width:3.99999976;stroke-linecap:round;stroke-linejoin:round;stroke-miterlimit:4;stroke-opacity:1;stroke-dasharray:none"
       d="m 459.90955,254.54264 c -0.32371,1.84534 -2.51225,-1.10388 -2.80394,1.09214 -2.14376,1.99811 -5.21961,1.88254 -7.33647,3.94787 -1.66094,1.01714 -3.68703,1.02906 -5.32829,2.09863 -1.75492,1.05489 -3.71303,1.39502 -5.65498,1.80416 -1.67041,0.44198 -3.18161,1.31839 -4.79387,1.90973 -0.95829,1.27899 -2.20237,1.47998 -3.23858,2.68185 -1.25555,1.4437 -3.3703,1.31341 -4.41548,3.1367 0.33517,0.80108 2.1971,1.04015 3.13385,1.6206 2.78621,1.18544 5.57226,2.37278 8.35901,3.55417 1.75112,0.15888 3.54759,1.27232 5.23024,0.65916 1.43481,-0.0891 2.8823,0.54685 4.31503,0.7728 1.58117,0.45498 3.39807,0.79841 5.05737,1.07825 1.70675,0.49688 3.43187,0.7103 5.10836,1.61282 1.31448,0.70395 2.97372,1.55858 2.958,-0.88485 0.34999,-1.71959 -0.58587,-3.58763 -0.22649,-5.31647 -0.0972,-2.05174 0.34008,-3.97885 -0.42268,-6.16295 0.11795,-2.10388 -0.22892,-4.43885 0.25595,-6.42219 -0.24156,-1.89276 -0.0366,-3.81651 -0.001,-5.6282 0.0685,-0.44012 0.3414,-1.25761 -0.19597,-1.55392 z"
       id="path2942" />
    <path
       inkscape:connector-curvature="0"
       style="color:#000000;fill:none;stroke:#80ff00;stroke-width:4;stroke-linecap:round;stroke-linejoin:round;stroke-miterlimit:4;stroke-opacity:1;stroke-dasharray:none;stroke-dashoffset:0;marker:none;visibility:visible;display:inline;overflow:visible;enable-background:accumulate"
       d="m 461.95439,268.14688 c 2.67165,0.76296 4.89143,1.77144 7.81709,1.75096 3.03633,-0.0216 6.05101,-0.474 9.128,-0.84584 3.38913,-0.40952 7.83812,-0.47336 11.61624,-0.81984 4.71925,-0.4328 8.98564,-1.66488 13.78297,-1.98256 5.84947,-0.38744 11.82461,0.51968 17.74484,0.90424 2.97701,0.19336 5.88519,0.66576 8.89795,0.60168 2.32398,-0.0496 7.41276,-0.5208 9.10414,-1.38728"
       id="path2833-7"
       sodipodi:nodetypes="csssssss" />
    <path
       inkscape:connector-curvature="0"
       style="fill:none;stroke:#80ff00;stroke-width:3.99999952;stroke-linecap:round;stroke-linejoin:round;stroke-miterlimit:4;stroke-opacity:1;stroke-dasharray:none"
       d="m 462.17813,296.46365 c 0.66785,-3.36602 4.13283,-5.92695 4.96912,-9.21757 0.60951,-4.36859 2.22396,-7.28797 5.06286,-10.87133 1.34147,-2.47937 3.86528,-10.00539 5.10599,-4.67587 0.75621,3.51479 1.90188,4.89635 2.47322,9.09562 1.39391,4.16142 2.92091,6.23583 3.33309,10.13761 1.10183,2.55338 4.10296,7.00386 3.6348,8.11053"
       id="path2956-7-4"
       sodipodi:nodetypes="ccccccc" />
    <path
       style="color:#000000;fill:none;stroke:#0000ff;stroke-width:4;stroke-linecap:round;stroke-linejoin:round;stroke-miterlimit:4;stroke-opacity:1;stroke-dasharray:none;stroke-dashoffset:0;marker:none;visibility:visible;display:inline;overflow:visible;enable-background:accumulate"
       d="m 164,48.359051 c 12.83333,31.5 -15.33333,29 0,0 z"
       id="path4073"
       inkscape:connector-curvature="0"
       sodipodi:nodetypes="cc" />
    <path
       sodipodi:nodetypes="cc"
       inkscape:connector-curvature="0"
       id="path4092"
       d="m 163,87.574481 c 12.83333,31.499999 -15.33333,28.999999 0,0 z"
       style="color:#000000;fill:none;stroke:#0000ff;stroke-width:4;stroke-linecap:round;stroke-linejoin:round;stroke-miterlimit:4;stroke-opacity:1;stroke-dasharray:none;stroke-dashoffset:0;marker:none;visibility:visible;display:inline;overflow:visible;enable-background:accumulate" />
    <path
       style="color:#000000;fill:none;stroke:#0000ff;stroke-width:4;stroke-linecap:round;stroke-linejoin:round;stroke-miterlimit:4;stroke-opacity:1;stroke-dasharray:none;stroke-dashoffset:0;marker:none;visibility:visible;display:inline;overflow:visible;enable-background:accumulate"
       d="m 162,151.64095 c 12.83333,31.5 -15.33333,29 0,0 z"
       id="path4094"
       inkscape:connector-curvature="0"
       sodipodi:nodetypes="cc" />
    <path
       style="color:#000000;fill:none;stroke:#0000ff;stroke-width:3.99999976;stroke-linecap:round;stroke-linejoin:round;stroke-miterlimit:4;stroke-opacity:1;stroke-dasharray:none;stroke-dashoffset:0;marker:none;visibility:visible;display:inline;overflow:visible;enable-background:accumulate"
       d="m 308.25,262 c 7.34103,0.0272 17.94464,8.75679 19.70815,16.66388 C 330.2532,288.95425 329,287.69262 325.25,287.75"
       id="path4097"
       inkscape:connector-curvature="0"
       sodipodi:nodetypes="csc" />
  </g>
</svg>
