<?xml version="1.0" encoding="UTF-8" standalone="no"?>
<!-- Created with Inkscape (http://www.inkscape.org/) -->

<svg
   xmlns:dc="http://purl.org/dc/elements/1.1/"
   xmlns:cc="http://creativecommons.org/ns#"
   xmlns:rdf="http://www.w3.org/1999/02/22-rdf-syntax-ns#"
   xmlns:svg="http://www.w3.org/2000/svg"
   xmlns="http://www.w3.org/2000/svg"
   xmlns:sodipodi="http://sodipodi.sourceforge.net/DTD/sodipodi-0.dtd"
   xmlns:inkscape="http://www.inkscape.org/namespaces/inkscape"
   width="480"
   height="320"
   id="svg2"
   version="1.1"
   inkscape:version="0.47 r22583"
   sodipodi:docname="itnas217.svg"
   inkscape:export-xdpi="90"
   inkscape:export-ydpi="90"
   inkscape:export-filename="itnas217.png">
  <defs
     id="defs4" />
  <sodipodi:namedview
     id="base"
     pagecolor="#ffffff"
     bordercolor="#666666"
     borderopacity="1.0"
     inkscape:pageopacity="1"
     inkscape:pageshadow="2"
     inkscape:zoom="1"
     inkscape:cx="396.29043"
     inkscape:cy="138.45969"
     inkscape:document-units="px"
     inkscape:current-layer="layer1"
     showgrid="false"
     inkscape:snap-nodes="true"
     inkscape:snap-global="false"
     inkscape:snap-grids="true"
     showguides="true"
     inkscape:window-width="1280"
     inkscape:window-height="998"
     inkscape:window-x="-4"
     inkscape:window-y="-4"
     inkscape:window-maximized="1"
     inkscape:object-nodes="true"
     inkscape:snap-smooth-nodes="true">
    <inkscape:grid
       empspacing="5"
       visible="true"
       enabled="true"
       snapvisiblegridlinesonly="true"
       type="xygrid"
       id="grid2816" />
  </sodipodi:namedview>
  <metadata
     id="metadata7">
    <rdf:RDF>
      <cc:Work
         rdf:about="">
        <dc:format>image/svg+xml</dc:format>
        <dc:type
           rdf:resource="http://purl.org/dc/dcmitype/StillImage" />
        <dc:title />
      </cc:Work>
    </rdf:RDF>
  </metadata>
  <g
     inkscape:label="Layer 1"
     inkscape:groupmode="layer"
     id="layer1"
     transform="translate(0,0)">
    <path
       sodipodi:nodetypes="cssssc"
       id="path4261"
       d="m 438.68758,163.05487 c -6.44834,7.82614 -10.23766,9.85882 -18.5716,15.54192 -11.28812,7.69746 -16.33932,14.2408 -25.72444,23.92476 -18.65136,19.24518 -31.1541,25.50704 -47.05262,38.29042 -7.97586,6.41318 -16.871,15.56882 -25.00436,22.03458 -11.47448,9.1218 -23.97944,17.88592 -34.85216,27.7084"
       style="color:#000000;fill:none;stroke:#c87137;stroke-width:3.99999905;stroke-linecap:round;stroke-linejoin:round;stroke-miterlimit:4;stroke-opacity:1;stroke-dasharray:none;stroke-dashoffset:0;marker:none;visibility:visible;display:inline;overflow:visible;enable-background:accumulate" />
    <path
       sodipodi:nodetypes="cssscc"
       id="path4263"
       d="m 237.33015,241.29379 c 6.07471,-4.20527 12.05131,-8.53831 18.22443,-12.72421 8.04482,-5.45521 12.71942,-14.5585 20.14136,-20.88418 16.89431,-14.39877 39.62706,-27.46504 53.09901,-44.34617 7.15054,-8.96013 15.91567,-15.62835 24.66789,-21.0242 13.82392,-12.32719 24.31333,-16.59766 36.80979,-31.12314"
       style="color:#000000;fill:none;stroke:#c87137;stroke-width:3.99999928;stroke-linecap:round;stroke-linejoin:round;stroke-miterlimit:4;stroke-opacity:1;stroke-dasharray:none;stroke-dashoffset:0;marker:none;visibility:visible;display:inline;overflow:visible;enable-background:accumulate" />
    <path
       style="color:#000000;fill:none;stroke:#c87137;stroke-width:3.99999976;stroke-linecap:round;stroke-linejoin:round;stroke-miterlimit:4;stroke-opacity:1;stroke-dasharray:none;stroke-dashoffset:0;marker:none;visibility:visible;display:inline;overflow:visible;enable-background:accumulate"
       d="m 61.75012,306.2237 c 2.37724,-21.72386 0.95388,-47.9384 3.84448,-75.34376 1.1572,-31.54076 -5.3703,-56.55424 -4.48522,-89.2229 0.96108,-22.85858 -1.08386,-38.13102 5.12598,-54.1946"
       id="path4281"
       sodipodi:nodetypes="cccc" />
    <path
       style="color:#000000;fill:none;stroke:#c87137;stroke-width:3.99999928;stroke-linecap:round;stroke-linejoin:round;stroke-miterlimit:4;stroke-opacity:1;stroke-dasharray:none;stroke-dashoffset:0;marker:none;visibility:visible;display:inline;overflow:visible;enable-background:accumulate"
       d="m -2.96542,86.94778 c -4.59826,30.85379 1.17414,35.1328 1.28148,60.29965 -1.31992,19.52825 -3.47158,38.01007 0,54.01842 -2.1358,38.33294 -1.70866,37.21631 -3.84446,51.50596 -1.66538,17.48132 1.04754,29.88565 2.56298,39.57164"
       id="path4277"
       sodipodi:nodetypes="ccccc" />
    <path
       style="color:#000000;fill:none;stroke:#94f3f3;stroke-width:4;stroke-linecap:round;stroke-linejoin:round;stroke-miterlimit:4;stroke-opacity:1;stroke-dasharray:none;stroke-dashoffset:0;marker:none;visibility:visible;display:inline;overflow:visible;enable-background:accumulate"
       d="m 58.2726,-410.35498 c -0.43712,0.49108 -0.92446,0.98404 -1.36158,1.52534 -12.46486,29.69306 -23.82588,47.97284 -30.99618,75.06261 -7.62686,28.8146 -21.33744,43.4552 -29.79478,70.40632 -8.78112,23.20028 -12.89658,47.63266 -18.5817,63.98385 -19.63118,45.11214 -25.00228,65.76924 -37.16338,113.67771 -3.83016,25.22134 -11.8272,44.31136 -18.66178,62.85992 -4.07696,18.68206 -22.48186,53.98563 -35.24112,104.36513 42.4047,5.08712 76.33666,-2.11546 112.77161999,5.3788 C 35.3201,86.21656 74.63984,88.7794 104.48654,81.84702 139.4607,81.12392 174.43486,82.6863 209.409,85.37938 198.24296,68.5798 193.50346,45.69066 182.33742,-9.51261 c -32.30304,-84.92637 -29.21558,-78.56804 -31.23646,-98.02294 -10.49722,-27.96099 -24.97678,-55.18776 -33.07862,-100.59192 -13.29142,-25.56609 -26.01388,-60.0641 -36.76292,-119.13682 -6.43748,-23.09745 -10.58516,-44.66349 -22.98682,-83.09069 z"
       id="path4267"
       sodipodi:nodetypes="ccsccccccccccccc" />
    <path
       style="color:#000000;fill:none;stroke:#94f3f3;stroke-width:4;stroke-linecap:round;stroke-linejoin:round;stroke-miterlimit:4;stroke-opacity:1;stroke-dasharray:none;stroke-dashoffset:0;marker:none;visibility:visible;display:inline;overflow:visible;enable-background:accumulate"
       d="m 797.49,-184.367 c -0.8546,0.27321 -1.7091,0.55593 -2.5608,0.8313 -20.73964,0.61923 -58.05668,15.6296 -95.9071,31.0096 -37.45828,12.80603 -74.30678,26.67914 -110.23182,43.473 -25.4479,9.05182 -48.87356,21.19091 -75.25372,27.50218 -42.7914,23.69179 -87.29578,34.10005 -135.50046,54.88374 -23.55772,8.06402 -31.8204,4.2422 -73.1386,20.3778101 11.0591,24.3269799 27.38478,43.6552399 43.80254,64.8165799 25.39666,34.75558 55.1191,64.81376 84.44858,96.10576 14.16524,14.57944 36.88072,44.442 54.30972,67.94178 3.63268,7.9719 18.13158,21.66084 33.8627,32.37112 26.30978,-23.23366 40.59006,-71.52208 66.95654,-114.6801 20.77234,-33.74494 30.3546,-44.82342 45.19244,-61.35074 17.0512,-30.2889 44.44964,-57.0006 65.14874,-90.11961 16.25308,-54.32991 40.45894,-82.35067 68.20328,-121.58545 9.54022,-11.5979 24.91016,-28.22092 30.77506,-50.71525 -0.1976,-0.007 -0.4245,0.0135 -0.6256,0.01 0.1806,-0.29764 0.3366,-0.56971 0.5186,-0.87139 z"
       id="path4271"
       sodipodi:nodetypes="ccccccccccccccccsc" />
    <path
       style="color:#000000;fill:none;stroke:#c87137;stroke-width:3.99999976;stroke-linecap:round;stroke-linejoin:round;stroke-miterlimit:4;stroke-opacity:1;stroke-dasharray:none;stroke-dashoffset:0;marker:none;visibility:visible;display:inline;overflow:visible;enable-background:accumulate"
       d="m 154.64978,250.5814 c -12.15478,-2.30956 -26.43518,-10.87036 -34,-2 -14.92864,9.07882 -15.81982,17.24514 -16,24"
       id="path4395"
       sodipodi:nodetypes="ccc" />
    <path
       style="color:#000000;fill:none;stroke:#c87137;stroke-width:3.99999976;stroke-linecap:round;stroke-linejoin:round;stroke-miterlimit:4;stroke-opacity:1;stroke-dasharray:none;stroke-dashoffset:0;marker:none;visibility:visible;display:inline;overflow:visible;enable-background:accumulate"
       d="m 166.1845,279.52506 -25.17996,13.56352 c -8.06034,12.6937 -0.72644,16.25666 -12.35724,26.23544"
       id="path4397"
       sodipodi:nodetypes="ccc" />
    <path
       style="color:#000000;fill:none;stroke:#c87137;stroke-width:3.99999976;stroke-linecap:round;stroke-linejoin:round;stroke-miterlimit:4;stroke-opacity:1;stroke-dasharray:none;stroke-dashoffset:0;marker:none;visibility:visible;display:inline;overflow:visible;enable-background:accumulate"
       d="m 217.80916,330.16718 c -1.00434,7 -1.81016,17 -8,24 -10.66666,7.6033 -21.33334,11.89818 -32,17"
       id="path4399"
       sodipodi:nodetypes="ccc" />
    <path
       sodipodi:nodetypes="ccc"
       id="path4461"
       d="m 271.00252,337.2841 c -4.7267,6.98802 -1.67442,19.85256 -4.97648,30.3999 -3.34456,9.76534 -10.46192,18.5777 -23.48966,26.36626"
       style="color:#000000;fill:none;stroke:#c87137;stroke-width:3.99999976;stroke-linecap:round;stroke-linejoin:round;stroke-miterlimit:4;stroke-opacity:1;stroke-dasharray:none;stroke-dashoffset:0;marker:none;visibility:visible;display:inline;overflow:visible;enable-background:accumulate" />
    <path
       id="path2949"
       style="color:#000000;fill:none;stroke:#008000;stroke-width:4;stroke-linecap:butt;stroke-linejoin:miter;stroke-miterlimit:4;stroke-opacity:1;stroke-dasharray:none;stroke-dashoffset:0;marker:none;visibility:visible;display:inline;overflow:visible;enable-background:accumulate"
       d="m -563.24086,295.38644 c 37.76616,-6.38974 66.33528,-3.6784 100.79868,-6 34.25096,-1.3128 70.3619,1.3208 103.66182,2 41.12768,5.37378 77.72798,-2.51868 115.33816,-2 52.33998,-2.9489 79.96372,-0.8298 145.7408,0 41.38518,6.0316 81.6842,-1.54994 123.2592,6 26.90864,-5.4819 47.03408,16.53266 54.33544,39.504 19.72548,25.97184 24.79558,24.75436 46.78954,41.1346 27.61272,23.36358 26.7551,25.34754 61.50084,21.81288 14.97422,-1.6279 57.1753,20.35452 100.04942,13.98002 11.03582,-1.52804 20.70284,-5.7429 28.20682,-11.55672 5.53088,-2.12216 25.60308,9.37724 36.71848,13.29096 11.78258,4.14862 44.47556,7.46336 51.87196,4.97304 7.49804,-2.52454 16.79286,-0.60832 18.6473,-11.44718 2.09084,-12.22048 -5.63592,-36.17272 -14.66464,-44.27318 -14.12148,-12.66966 -36.21454,-6.59304 -42.12872,-3.78348 -11.27806,5.3577 -34.38776,-0.1996 -37.0507,-2.82476 -19.33334,-26 -69.64258,-15.736 -111.18376,-27.61522 -19.93724,-12.4897 -44.18366,-32.08644 -50,-50 -6.62876,-10.32658 -10.59108,-24.3196 -19.7575,-42.10852 -4.58224,-24.0502 -13.7329,-43.20994 9.29924,-43.91252 15.41114,9.68148 55.9724,-4.07256 67.2693,21.30038 10.16548,43.14322 24.12238,61.22134 59.58934,78.38704 54.24562,4.18312 80.72284,15.41008 105.50644,11.40476 21.59102,3.88624 46.00416,11.97744 70.8479,10.90324 C 482.603,318.16745 503.8015,310.67785 525,307"
       sodipodi:nodetypes="cccccccccccssssscccccccccc" />
    <path
       style="color:#000000;fill:none;stroke:#c87137;stroke-width:3.99999952;stroke-linecap:round;stroke-linejoin:round;stroke-miterlimit:4;stroke-opacity:1;stroke-dashoffset:0;marker:none;visibility:visible;display:inline;overflow:visible;enable-background:accumulate"
       d="m 155.76793,79.781593 c -4.82038,-9.419251 -7.77317,-16.211923 -6.9021,-17.26897 0.74455,-0.903528 9.94103,12.602524 11.83695,11.802957 0.80792,-0.425223 0.6845,-16.714442 2.07621,-16.883535 1.45389,-0.17665 3.47071,5.813233 5.42155,18.62432"
       id="path4844"
       sodipodi:nodetypes="cscsc" />
    <path
       style="fill:none;stroke:#80ff00;stroke-width:3.99999976;stroke-linecap:round;stroke-linejoin:round;stroke-miterlimit:4;stroke-opacity:1;stroke-dasharray:none"
       d="m 57.882673,188.05799 c 3.74697,-0.0231 -1.339195,-5.32228 3.088605,-5.16527 4.655085,-3.56128 5.45277,-9.66542 10.231466,-13.15127 2.559579,-2.93623 3.258659,-6.92774 5.915106,-9.8077 2.66539,-3.10899 3.989,-6.85699 5.44335,-10.55011 1.42855,-3.1467 3.66072,-5.8346 5.36441,-8.81683 2.8417,-1.46329 3.65285,-3.84961 6.36847,-5.4923 3.26562,-1.99458 3.71381,-6.20834 7.65786,-7.66152 1.46798,0.92807 1.31861,4.67953 2.1509,6.72035 1.40873,5.88969 2.82123,11.77972 4.22176,17.66912 -0.27058,3.5062 1.32617,7.42012 -0.44403,10.53388 -0.65415,2.79975 0.11735,5.86625 0.0852,8.76694 0.37001,3.26979 0.44149,6.96725 0.44007,10.33272 0.41074,3.5314 0.25644,7.00451 1.47724,10.61149 0.9499,2.82688 2.082,6.38389 -2.73121,5.53818 -3.50776,0.11682 -6.8795,-2.35156 -10.40862,-2.21929 -4.01365,-0.87577 -7.95973,-0.65603 -12.01248,-2.88843 -4.18821,-0.46889 -8.67713,-1.93149 -12.749963,-1.6366 -3.652001,-1.10748 -7.514011,-1.34466 -11.09853,-1.87877 -0.890743,-0.0116 -2.593843,0.25395 -2.998988,-0.90458 z"
       id="path2942" />
    <path
       style="fill:none;stroke:#80ff00;stroke-width:3.99999952;stroke-linecap:round;stroke-linejoin:round;stroke-miterlimit:4;stroke-opacity:1;stroke-dasharray:none"
       d="m 96.03425,347.43583 c -6.09005,-6.91815 -13.71503,-17.2877 -15.64195,-26.80609 -2.06243,-19.75618 6.0662,-31.4469 1.96351,-50.79211 0.29522,-12.41262 4.44232,-27.24525 3.6968,-38.46994 -0.86839,-10.27757 -4.31114,-27.59762 -2.8331,-37.39966"
       id="path2952-1-0"
       sodipodi:nodetypes="ccccc" />
    <path
       style="fill:none;stroke:#80ff00;stroke-width:3.99999976;stroke-linecap:round;stroke-linejoin:round;stroke-miterlimit:4;stroke-opacity:1;stroke-dasharray:none"
       d="m 334.21947,295.20703 c 0.98296,-8.52238 2.75561,-17.0991 -0.27622,-25.79016 -2.46457,-10.74824 -4.17421,-21.68334 -8.19281,-32.38262 -1.2981,-6.92675 -1.6091,-24.0823 -8.63579,-12.34477 -8.82964,6.97112 -16.28071,14.54038 -21.63715,23.50144 -6.49857,8.84004 -14.59981,18.36421 -18.5632,27.33678 0.77522,3.09402 -3.4401,4.04012 -3.17158,7.03209"
       id="path2956-9"
       inkscape:transform-center-x="16.02148"
       inkscape:transform-center-y="37.923809" />
    <path
       style="fill:none;stroke:#80ff00;stroke-width:3.99999928;stroke-linecap:round;stroke-linejoin:round;stroke-miterlimit:4;stroke-opacity:1;stroke-dasharray:none"
       d="m 139.90376,201.32449 c -0.5983,2.0353 -6.39804,6.96226 -11.72273,7.66966 -12.63162,5.73709 -12.11995,2.11867 -19.98486,6.93426 -7.53056,1.67211 -18.27056,6.43895 -22.16353,4.89158 5.9487,-6.513 11.26669,-8.57707 19.01179,-11.75142 8.3736,-5.92106 12.75899,-5.47777 25.38876,-9.89585 2.97604,-2.0905 6.76018,-2.59519 11.78543,-3.64184"
       id="path2958"
       sodipodi:nodetypes="ccccccc" />
    <path
       style="color:#000000;fill:none;stroke:#80ff00;stroke-width:4;stroke-linecap:round;stroke-linejoin:round;stroke-miterlimit:4;stroke-opacity:1;stroke-dasharray:none;stroke-dashoffset:0;marker:none;visibility:visible;display:inline;overflow:visible;enable-background:accumulate"
       d="m 336.11311,225.529 c -6.23009,-3.07161 -12.47131,-4.65301 -18.72606,-8.84079 -6.58991,-4.41218 -12.84158,-9.13969 -19.56762,-13.65625 -7.45586,-5.00664 -18.30987,-10.34305 -26.63035,-15.92802 -10.27539,-6.89717 -15.93728,-17.4352 -26.40683,-23.67041 -13.50249,-8.04149 -24.71692,-15.4536 -36.50683,-27.45624 -5.24566,-5.34031 -12.9295,-7.72993 -16.88324,-14.14489 -3.04907,-4.94711 -8.24232,-16.28681 -8.71348,-21.01438"
       id="path2833-4"
       sodipodi:nodetypes="csssssss" />
    <path
       style="color:#000000;fill:none;stroke:#80ff00;stroke-width:3.99999976;stroke-linecap:round;stroke-linejoin:round;stroke-miterlimit:4;stroke-opacity:1;stroke-dasharray:none;stroke-dashoffset:0;marker:none;visibility:visible;display:inline;overflow:visible;enable-background:accumulate"
       d="m 207.73989,100.97107 c 2.23571,-1.330914 -4.22898,-9.756382 -5.73923,-14.130446 -1.22734,-3.554719 -1.90612,-7.335956 -3.49393,-10.695354 -1.76113,-3.726189 -4.15663,-7.693572 -5.75219,-11.492967 -2.39507,-5.703411 -4.1271,-11.190483 -6.12193,-17.076299 -0.97528,-2.87751 -0.67796,-5.92447 -2.47683,-8.32964 -2.23404,-2.98643 -2.91058,-9.66031 -5.49816,-9.60755 -2.40513,0.0488 -2.72136,6.27662 -5.06809,8.7174 -0.98095,1.0203 -0.91843,4.7195 -0.85348,5.89516 0.11261,2.03518 -1.95976,8.183653 -0.0883,10.485414 0.90268,1.110342 -2.75796,13.551885 -3.37057,15.251253 -1.44801,4.016629 -1.81238,16.352857 -2.92176,16.567577 -2.58303,0.499491 -10.34244,-5.022517 -11.14467,-7.072971 -0.56123,-1.434268 -5.78174,-3.266865 -9.89041,-6.439724 -4.40982,-3.405181 -15.22953,-9.136466 -16.12221,-8.843605 -4.15043,1.361357 1.77219,8.261962 2.52671,9.951332 2.06386,4.621445 6.37541,5.10969 10.42469,7.924192 4.85521,3.374563 9.72644,7.221976 14.12914,11.335359 3.63886,3.399752 1.36667,5.238761 3.49315,5.019564 3.93548,-0.40557 7.88632,-0.05788 11.82775,-0.244614 3.40643,-0.161312 6.7507,1.244327 10.24899,0.786964 3.78191,-0.49431 7.68407,-1.05596 11.4647,-0.635658 3.6196,0.402331 7.27363,1.049365 10.86605,1.921793 1.76523,0.42872 2.4324,1.38399 3.56093,0.71231 l 1e-5,10e-6 z"
       id="path2870-1"
       sodipodi:nodetypes="cssssssssssssssssssssssss" />
    <path
       style="fill:none;stroke:#80ff00;stroke-width:3.99999952;stroke-linecap:round;stroke-linejoin:round;stroke-miterlimit:4;stroke-opacity:1;stroke-dasharray:none"
       d="m 154.47625,189.73957 c 2.05212,-8.33002 10.99789,-14.33014 13.46207,-22.45266 2.02092,-10.84049 6.38605,-17.94704 13.88494,-26.57202 3.63318,-6.03883 10.79523,-24.54616 13.2854,-11.09463 1.48734,8.86415 4.19083,12.44522 5.13832,22.99766 3.00611,10.55183 6.58282,15.90673 7.16682,25.69808 2.46022,6.50255 9.44719,17.95975 8.15167,20.67007"
       id="path2956-7-8"
       sodipodi:nodetypes="ccccccc" />
    <path
       style="fill:none;stroke:#80ff00;stroke-width:3.99999976;stroke-linecap:round;stroke-linejoin:round;stroke-miterlimit:4;stroke-opacity:1;stroke-dasharray:none"
       d="m 154.24906,349.72742 c -1.36161,-0.18817 -8.59011,-2.0554 -12.2153,-2.55646 -11.37473,-1.62248 -15.4529,-4.12453 -30.30903,-5.73203 -11.23075,-2.82572 -16.183692,-4.35491 -25.027758,-7.05152 9.05889,-0.74427 18.278638,-1.33953 27.290908,-2.12056 13.96998,-0.82728 12.92501,-2.03215 28.41308,-4.13829 2.72883,-0.80436 7.79225,-1.38546 13.02387,-3.51941"
       id="path2958-6-8"
       sodipodi:nodetypes="ccccccc"
       inkscape:transform-center-x="-34.281345"
       inkscape:transform-center-y="2.7901296" />
    <path
       style="fill:none;stroke:#000000;stroke-width:4;stroke-linecap:round;stroke-linejoin:round;stroke-miterlimit:4;stroke-opacity:1;stroke-dasharray:none"
       d="m 322.4524,375.19787 c -2.32274,9.17197 -11.41205,18.0589 -18.071,21.4104 -6.56304,1.91976 -9.22081,0.3088 -15.56479,0.54816 -6.19087,-2.32826 -4.99473,-14.34875 -4.66273,-19.76603 0.72809,-7.27704 4.84692,-8.47932 8.7954,-14.04342 3.52994,-4.71766 8.9961,-10.50069 14.88882,-6.28747 3.52017,6.68091 14.96143,8.73952 14.6143,18.13836 z"
       id="path5861-2"
       sodipodi:nodetypes="ccccccc" />
    <path
       style="fill:none;stroke:#80ff00;stroke-width:3.99999976;stroke-linecap:round;stroke-linejoin:round;stroke-miterlimit:4;stroke-opacity:1;stroke-dasharray:none"
       d="m 96.17617,347.5362 c 8.51594,9.13907 21.34533,15.70879 34.10015,19.44507 10.86099,6.48519 18.99183,9.15325 29.39517,14.71292 8.35461,6.39794 27.32447,4.98871 43.5531,9.07866 17.27291,-2.32944 29.54161,3.67972 43.62057,4.4243 8.77215,0.0235 17.72229,0.36571 25.50369,-1.78066 18.63314,-3.28592 33.50169,-7.91392 52.0428,-2.33996 7.71717,0.49227 17.78449,0.59982 19.30778,0.13101 14.35647,-1.99913 19.18564,-10.88921 19.65295,-15.10613 -0.73479,0.37295 0.19991,-2.0873 1.09186,-2.35385"
       id="path4123"
       sodipodi:nodetypes="cccccccccc" />
    <path
       style="color:#000000;fill:none;stroke:#80ff00;stroke-width:3.99999976;stroke-linecap:round;stroke-linejoin:round;stroke-miterlimit:4;stroke-opacity:1;stroke-dasharray:none;stroke-dashoffset:0;marker:none;visibility:visible;display:inline;overflow:visible;enable-background:accumulate"
       d="m 336.54157,225.80327 c 31.50883,16.83813 47.77846,-4.24624 82.59388,-20.44829 18.08269,-8.41529 25.31432,-28.23493 26.29768,-53.33371 1.13747,-29.0328 -1.48789,-42.81364 -26.41465,-56.179746 C 398.9479,85.079549 366.73482,94.053858 352.56488,82.378968 331.86403,65.323173 293.85848,70.342902 268.02204,63.805735"
       id="path4125-8"
       sodipodi:nodetypes="csssss" />
  </g>
</svg>
