<?xml version="1.0" encoding="UTF-8" standalone="no"?>
<!-- Created with Inkscape (http://www.inkscape.org/) -->

<svg
   xmlns:dc="http://purl.org/dc/elements/1.1/"
   xmlns:cc="http://creativecommons.org/ns#"
   xmlns:rdf="http://www.w3.org/1999/02/22-rdf-syntax-ns#"
   xmlns:svg="http://www.w3.org/2000/svg"
   xmlns="http://www.w3.org/2000/svg"
   xmlns:sodipodi="http://sodipodi.sourceforge.net/DTD/sodipodi-0.dtd"
   xmlns:inkscape="http://www.inkscape.org/namespaces/inkscape"
   inkscape:export-ydpi="90"
   inkscape:export-xdpi="90"
   sodipodi:docname="itnas048.svg"
   inkscape:version="0.47 r22583"
   version="1.1"
   id="svg2"
   height="320"
   width="480"
   inkscape:export-filename="itnas048.png">
  <defs
     id="defs4" />
  <sodipodi:namedview
     id="base"
     pagecolor="#ffffff"
     bordercolor="#666666"
     borderopacity="1.0"
     inkscape:pageopacity="1"
     inkscape:pageshadow="2"
     inkscape:zoom="1.4142136"
     inkscape:cx="281.22238"
     inkscape:cy="111.173"
     inkscape:document-units="px"
     inkscape:current-layer="layer1"
     showgrid="false"
     inkscape:snap-nodes="true"
     inkscape:snap-global="false"
     inkscape:snap-grids="true"
     showguides="true"
     inkscape:window-width="1280"
     inkscape:window-height="774"
     inkscape:window-x="-4"
     inkscape:window-y="-4"
     inkscape:window-maximized="1">
    <inkscape:grid
       empspacing="5"
       visible="true"
       enabled="true"
       snapvisiblegridlinesonly="true"
       type="xygrid"
       id="grid2816" />
  </sodipodi:namedview>
  <metadata
     id="metadata7">
    <rdf:RDF>
      <cc:Work
         rdf:about="">
        <dc:format>image/svg+xml</dc:format>
        <dc:type
           rdf:resource="http://purl.org/dc/dcmitype/StillImage" />
        <dc:title></dc:title>
      </cc:Work>
    </rdf:RDF>
  </metadata>
  <g
     inkscape:label="Layer 1"
     inkscape:groupmode="layer"
     id="layer1"
     transform="translate(0,0)">
    <path
       style="fill:none;stroke:#008000;stroke-width:4;stroke-linecap:butt;stroke-linejoin:miter;stroke-opacity:1;stroke-miterlimit:4;stroke-dasharray:none"
       d="m -16.970563,274.74517 c 32.144815,-5.70476 65.033983,-1.49052 97.507837,-2.83766 28.752326,-0.18161 57.600666,-0.80843 86.055266,3.81628 48.72352,2.57064 97.57209,0.38302 146.34828,1.14275 30.02432,-0.0625 60.05363,0.63287 89.97594,-1.54819 21.38344,-0.89459 43.57746,3.06322 64.37741,-3.18896 11.14672,-1.68394 21.84356,-7.38227 33.33743,-6.57661"
       id="path4190" />
    <path
       style="fill:none;stroke:#0000ff;stroke-width:4;stroke-linecap:round;stroke-linejoin:round;stroke-miterlimit:4;stroke-opacity:1;stroke-dasharray:none"
       d="m 402.45095,179.67644 c -2.35294,-0.12125 -3.3656,1.80999 -4.32726,2.96817 -2.01207,1.50361 -1.45192,2.23058 -3.32756,4.23131 -0.30993,1.94299 -1.58573,3.35559 -1.47578,5.52916 -0.67377,3.08476 1.56767,6.00346 3.51723,8.0987 1.66847,1.27001 3.17892,2.67178 5.38474,2.74423 1.55767,0.0507 3.25386,0.64121 4.70161,0.26353 1.87049,-1.69436 5.40201,-2.03308 6.57634,-3.58654 0.3228,-1.83042 0.49531,-3.66634 0.98439,-5.42351 0.30589,-2.73111 0.61269,-5.46213 0.91845,-8.19325 -0.93474,-1.10103 -1.26828,-2.70213 -2.4231,-3.14934 -0.58178,-0.7464 -2.24588,-0.63052 -3.06492,-1.22558 -2.15167,-1.20205 -4.93315,-1.25998 -7.4641,-2.25687 z"
       id="path2905" />
    <path
       style="fill:none;stroke:#0000ff;stroke-width:4;stroke-linecap:round;stroke-linejoin:round;stroke-miterlimit:4;stroke-opacity:1;stroke-dasharray:none"
       d="m 402.32452,204.24529 c 0.52517,2.4839 -1.31301,5.53697 -0.58023,6.48734 -0.91285,3.76824 -1.11549,7.70876 -2.07718,11.46134 -1.02924,3.19882 -0.7852,6.53519 -1.17756,9.61214 0.0389,1.52474 0.0778,3.04947 0.11673,4.57421"
       id="path2907" />
    <path
       id="path2909"
       style="fill:none;stroke:#0000ff;stroke-width:4;stroke-linecap:round;stroke-linejoin:round;stroke-miterlimit:4;stroke-opacity:1;stroke-dasharray:none"
       d="m 398.30482,238.71105 c -1.11709,1.86883 -3.40134,6.0974 -5.10022,8.92498 -1.57564,4.09592 -4.56554,6.6456 -6.28304,10.57295 -2.1446,2.4746 -3.62766,5.20698 -5.33471,8.30715 -1.31486,1.70879 -1.45507,6.08697 -2.3858,6.54902 -0.20376,0.19457 -0.86542,2.44661 -0.16295,1.34535 m 20.11662,-37.41567 c 1.97472,2.65593 4.19127,5.22803 5.42056,8.33178 2.14226,3.17716 3.24749,6.99132 5.64528,9.96639 0.33886,3.74918 3.46568,6.38882 4.25731,10.00755 0.95767,2.56043 2.23846,4.37503 2.8384,7.14833 0.63321,0.95898 0.14088,2.01231 0.2833,-0.57208" />
    <path
       style="fill:none;stroke:#0000ff;stroke-width:4;stroke-linecap:round;stroke-linejoin:round;stroke-miterlimit:4;stroke-opacity:1;stroke-dasharray:none"
       d="m 384.57505,220.55569 c 3.14211,-2.21041 6.28017,-4.49012 9.31366,-6.72577 2.70366,-1.34947 4.37059,-4.40457 6.08759,-6.29683 1.06911,-0.49888 0.71106,-5.02336 2.72018,-2.60872 1.20234,2.71533 2.13022,5.20222 3.09577,7.07444 1.59397,3.098 2.64245,6.47559 5.12887,9.07611 1.31267,1.51554 2.34248,2.78972 3.50586,4.42976 0.45921,0.9112 1.7301,1.41597 1.85715,2.34658"
       id="path2911" />
    <path
       style="fill:none;stroke:#80ff00;stroke-width:3.99999976;stroke-linecap:round;stroke-linejoin:round;stroke-miterlimit:4;stroke-opacity:1;stroke-dasharray:none"
       d="m 359.37248,188.94407 c 0.86077,1.66406 2.06697,-1.80487 3.00227,0.20326 2.64333,1.26526 5.54378,0.23486 8.18152,1.57225 1.88921,0.47367 3.82605,-0.12107 5.71211,0.40853 1.99013,0.48154 3.96032,0.22027 5.93574,0.0297 1.72611,-0.078 3.43032,0.30618 5.14569,0.38809 1.29703,0.93367 2.54426,0.75328 3.89257,1.59013 1.62996,1.00192 3.60886,0.24498 5.15161,1.67207 -0.0802,0.86467 -1.78526,1.64976 -2.50543,2.48391 -2.30402,1.96469 -4.60723,3.93115 -6.91296,5.89217 -1.62334,0.67556 -3.00443,2.27538 -4.79358,2.19341 -1.39576,0.3442 -2.58669,1.38412 -3.88619,2.02827 -1.37269,0.90722 -3.00358,1.77844 -4.50316,2.54187 -1.4799,0.98478 -3.06226,1.70453 -4.39191,3.06725 -1.04369,1.06498 -2.37129,2.37691 -3.08729,0.0407 -0.84832,-1.53615 -0.51422,-3.59867 -1.37436,-5.14075 -0.52111,-1.98682 -1.51489,-3.69494 -1.44049,-6.0072 -0.74194,-1.97221 -1.10952,-4.304 -2.16549,-6.0515 -0.33576,-1.87827 -1.10689,-3.6526 -1.68272,-5.37069 -0.19616,-0.3999 -0.70202,-1.09794 -0.27791,-1.5414 z"
       id="path2942"
       inkscape:transform-center-x="-15.475274"
       inkscape:transform-center-y="-0.77705521" />
    <g
       id="g4230"
       transform="translate(-11.313709,-9.8994949)">
      <path
         sodipodi:nodetypes="csssssscc"
         id="path4202"
         d="m 38.671573,25.944544 c -5.430479,7.450879 -9.310018,7.388925 -14.729121,14.724258 -7.115345,9.631376 -1.570906,23.289283 5.079989,31.916876 7.192509,9.330178 20.752507,5.816368 30.547182,5.260564 8.004509,-0.45422 10.902131,-6.975949 16.295781,-6.648434 6.003807,0.364567 6.973067,-11.28078 7.082161,-19.052076 C 83.067723,43.58623 84.88679,32.72173 76.184121,27.314266 68.375262,22.462176 60.371218,17.763541 50.784197,17.639118 46.123264,18.55518 37.505395,20.182367 38.671573,25.944544 z"
         style="fill:none;stroke:#ffff00;stroke-width:4;stroke-linecap:butt;stroke-linejoin:miter;stroke-miterlimit:4;stroke-opacity:1;stroke-dasharray:none" />
      <path
         id="path4215"
         d="M 31,81 C 28.148613,84.553942 24.105327,87.346267 24.536612,92.015165 21.832544,96.043458 21.188425,100.66969 20,105 c -1.284479,-0.52275 -1.919186,3.77422 -2,5"
         style="fill:none;stroke:#ffff00;stroke-width:4;stroke-linecap:butt;stroke-linejoin:miter;stroke-miterlimit:4;stroke-opacity:1;stroke-dasharray:none" />
      <path
         id="path4217"
         d="m 53.280734,83.999998 c 4.109561,4.16047 0.225882,10.218352 3.166602,14.792056 1.215413,5.697486 7.524659,9.190686 6.531011,15.084746 L 62.937021,115"
         style="fill:none;stroke:#ffff00;stroke-width:4;stroke-linecap:butt;stroke-linejoin:miter;stroke-miterlimit:4;stroke-opacity:1;stroke-dasharray:none" />
      <path
         id="path4219"
         d="m 76,78 c 3.400595,3.924314 5.608335,9.266142 10.25064,12 2.62092,4.847886 4.316418,10.49689 8.888485,13.99058 2.816275,3.7582 6.029785,7.79196 9.904355,10.00942"
         style="fill:none;stroke:#ffff00;stroke-width:4;stroke-linecap:butt;stroke-linejoin:miter;stroke-miterlimit:4;stroke-opacity:1;stroke-dasharray:none" />
      <path
         id="path4221"
         d="m 90,56.987967 c 14.33334,0.01397 28.66662,0.07609 43,0.05204"
         style="fill:none;stroke:#ffff00;stroke-width:4;stroke-linecap:butt;stroke-linejoin:miter;stroke-miterlimit:4;stroke-opacity:1;stroke-dasharray:none" />
      <path
         id="path4223"
         d="m 86.000002,33 c 5.268561,-0.876096 9.823061,-4.205192 14.951108,-4.876265 4.62153,1.300794 7.8844,-3.002146 12.17425,-3.773924 C 115.24759,22.885947 120.60982,23.2369 120.85644,21"
         style="fill:none;stroke:#ffff00;stroke-width:4;stroke-linecap:butt;stroke-linejoin:miter;stroke-miterlimit:4;stroke-opacity:1;stroke-dasharray:none" />
    </g>
    <path
       style="color:#000000;fill:none;stroke:#80ff00;stroke-width:4;stroke-linecap:round;stroke-linejoin:round;stroke-miterlimit:4;stroke-opacity:1;stroke-dasharray:none;stroke-dashoffset:0;marker:none;visibility:visible;display:inline;overflow:visible;enable-background:accumulate"
       d="m 285.67192,239.35621 c 2.63773,-1.46118 5.68196,-0.16259 8.52366,-1.48105 2.94917,-1.36832 6.22966,-2.54404 8.45412,-5.01677 2.45098,-2.72453 7.3906,-4.02024 10.89168,-6.09262 4.37316,-2.58859 7.59446,-6.51918 12.39956,-8.37754 5.85893,-2.26593 11.50775,-5.68492 17.75642,-6.85414 3.14218,-0.58795 6.23257,-1.73286 8.98067,-3.26826 2.17295,-1.21405 6.95164,-3.88519 8.15005,-5.62204"
       id="path2833"
       sodipodi:nodetypes="csssssss" />
    <path
       style="fill:none;stroke:#80ff00;stroke-width:3.99999976000000010;stroke-linecap:round;stroke-linejoin:round;stroke-opacity:1;color:#000000;stroke-miterlimit:4;stroke-dasharray:none;stroke-dashoffset:0;marker:none;visibility:visible;display:inline;overflow:visible;enable-background:accumulate"
       d="m 390.30501,218.35355 c -4.69356,-0.0992 -2.33181,-0.27779 -7.00564,-0.88757 -3.71037,-0.48408 -3.91268,0.56172 -7.58661,-0.20007 -2.77427,-0.57524 -5.33659,-1.89406 -8.10151,-2.55507 -2.60355,-0.62243 -5.13461,-1.53791 -7.79194,-1.91464 -1.52209,-0.21578 -6.69065,-3.74399 -7.12359,-3.26894 -0.43294,0.47505 5.35679,4.14666 7.12434,4.97641 2.64417,1.24126 4.78447,3.37064 7.60026,4.28835 1.89156,0.61649 3.41898,2.08129 5.34849,2.55139 2.17271,0.52935 4.36963,0.99665 6.52262,1.56214 1.28571,0.3377 2.07222,0.65028 2.9205,1.29044 0.77956,0.5883 2.49836,0.76367 3.71118,1.84146 0.96654,0.85894 2.73811,0.28284 4.07692,0.46261"
       id="path3643"
       sodipodi:nodetypes="csssszsssssss" />
    <path
       style="fill:none;stroke:#80ff00;stroke-width:3.99999976;stroke-linecap:round;stroke-linejoin:round;stroke-miterlimit:4;stroke-opacity:1;stroke-dasharray:none"
       d="m 285.34616,239.24258 c -8.27451,-0.69627 -15.75793,-1.9287 -23.48775,-2.9893 -7.04753,-1.05984 -12.00471,-2.79943 -18.65154,-4.9469 -5.60514,-2.31493 -13.63819,-4.34244 -23.38216,-5.41961 -8.25332,-0.83193 -16.67503,-0.98578 -25.28938,-0.20127 -4.96687,0.31481 -10.0782,0.50545 -14.18679,1.67349 -10.09263,2.03672 -18.04452,5.06565 -28.49672,6.92922 -3.98092,1.05626 -8.78656,2.31355 -9.5842,2.56216 -7.84924,1.35082 -9.36214,5.17539 -9.04803,6.9221 0.3646,-0.18013 0.17324,0.86344 -0.2949,1.00574"
       id="path4123" />
    <path
       style="fill:none;stroke:#80ff00;stroke-width:3.99999976000000010;stroke-linecap:round;stroke-linejoin:round;stroke-opacity:1;color:#000000;stroke-miterlimit:4;stroke-dasharray:none;stroke-dashoffset:0;marker:none;visibility:visible;display:inline;overflow:visible;enable-background:accumulate"
       d="m 332.10076,274.75108 c -1.4339,-1.20575 -3.30265,-1.73818 -4.81073,-2.97113 -1.129,-0.92301 -2.14037,-1.43164 -2.3918,-3.07511 -0.19818,-1.2954 -0.55914,-3.05146 -1.05121,-3.7114 -0.5119,-0.68655 -1.51027,-1.75301 -2.93519,-2.60307 -1.87868,-1.12076 -3.06344,-2.98485 -4.76418,-4.40284 -1.9777,-1.6489 -1.31164,-4.12201 -3.23219,-5.60501 -1.9067,-1.4723 -3.34273,-3.42125 -4.35486,-5.61111 -0.88055,-1.90513 -1.69523,-3.72293 -2.58028,-5.5311 -0.96121,-1.96369 -1.42576,-3.9909 -2.86905,-5.82801 -0.30659,-0.39025 -0.47024,-1.59278 -1.37057,-1.50851 -1.23247,0.1154 -1.33312,2.03717 -1.72437,3.16363 -1.15997,3.33974 -1.55479,7.15682 -2.045,10.77838 -0.28082,2.07449 0.75144,4.04874 0.59334,6.06514 -0.18572,2.36878 0.57836,4.52906 0.99454,6.78415 0.40644,2.20233 0.32689,4.43264 0.3242,6.68651 -0.005,4.32057 -2.72569,2.87493 0.2091,7.75204"
       id="path3681"
       sodipodi:nodetypes="cssssssssssssssss" />
  </g>
</svg>
