<?xml version="1.0" encoding="UTF-8" standalone="no"?>
<!-- Created with Inkscape (http://www.inkscape.org/) -->

<svg
   xmlns:dc="http://purl.org/dc/elements/1.1/"
   xmlns:cc="http://creativecommons.org/ns#"
   xmlns:rdf="http://www.w3.org/1999/02/22-rdf-syntax-ns#"
   xmlns:svg="http://www.w3.org/2000/svg"
   xmlns="http://www.w3.org/2000/svg"
   xmlns:sodipodi="http://sodipodi.sourceforge.net/DTD/sodipodi-0.dtd"
   xmlns:inkscape="http://www.inkscape.org/namespaces/inkscape"
   width="480"
   height="320"
   id="svg2"
   version="1.1"
   inkscape:version="0.47 r22583"
   sodipodi:docname="itnas213.svg"
   inkscape:export-xdpi="90"
   inkscape:export-ydpi="90">
  <defs
     id="defs4" />
  <sodipodi:namedview
     id="base"
     pagecolor="#ffffff"
     bordercolor="#666666"
     borderopacity="1.0"
     inkscape:pageopacity="1"
     inkscape:pageshadow="2"
     inkscape:zoom="4"
     inkscape:cx="307.85977"
     inkscape:cy="108.73544"
     inkscape:document-units="px"
     inkscape:current-layer="layer1"
     showgrid="false"
     inkscape:snap-nodes="true"
     inkscape:snap-global="false"
     inkscape:snap-grids="true"
     showguides="true"
     inkscape:window-width="1280"
     inkscape:window-height="998"
     inkscape:window-x="-4"
     inkscape:window-y="-4"
     inkscape:window-maximized="1">
    <inkscape:grid
       empspacing="5"
       visible="true"
       enabled="true"
       snapvisiblegridlinesonly="true"
       type="xygrid"
       id="grid2816" />
  </sodipodi:namedview>
  <metadata
     id="metadata7">
    <rdf:RDF>
      <cc:Work
         rdf:about="">
        <dc:format>image/svg+xml</dc:format>
        <dc:type
           rdf:resource="http://purl.org/dc/dcmitype/StillImage" />
        <dc:title />
      </cc:Work>
    </rdf:RDF>
  </metadata>
  <g
     inkscape:label="Layer 1"
     inkscape:groupmode="layer"
     id="layer1"
     transform="translate(0,0)">
    <path
       sodipodi:nodetypes="cssssc"
       id="path4261"
       d="m 453.78737,103.76491 c 0.84817,5.49167 0.37647,7.79617 -0.20256,13.30044 -0.78434,7.45535 0.0361,11.90562 0.62551,19.28486 1.17124,14.665 -0.55329,22.10864 -0.92384,33.3072 -0.18586,5.61805 0.36415,12.60386 0.14662,18.30623 -0.3069,8.04484 -1.08624,16.38903 -0.93133,24.43587"
       style="color:#000000;fill:none;stroke:#c87137;stroke-width:3.99999905;stroke-linecap:round;stroke-linejoin:round;stroke-miterlimit:4;stroke-opacity:1;stroke-dasharray:none;stroke-dashoffset:0;marker:none;visibility:visible;display:inline;overflow:visible;enable-background:accumulate" />
    <path
       sodipodi:nodetypes="cssscc"
       id="path4263"
       d="m 417.46711,212.98695 c 0.37156,-3.89117 0.6637,-7.78787 1.0741,-11.71152 0.53477,-5.11333 -1.38022,-10.15747 -1.37182,-15.32658 0.0192,-11.76621 2.41138,-25.3947 0.40135,-36.66367 -1.0669,-5.98129 -0.75605,-11.8056 0.0279,-17.18026 -0.18886,-9.8183 1.57465,-15.49241 0.13528,-25.54945"
       style="color:#000000;fill:none;stroke:#c87137;stroke-width:3.99999928;stroke-linecap:round;stroke-linejoin:round;stroke-miterlimit:4;stroke-opacity:1;stroke-dasharray:none;stroke-dashoffset:0;marker:none;visibility:visible;display:inline;overflow:visible;enable-background:accumulate" />
    <path
       style="color:#000000;fill:none;stroke:#94f3f3;stroke-width:4;stroke-linecap:round;stroke-linejoin:round;stroke-miterlimit:4;stroke-opacity:1;stroke-dasharray:none;stroke-dashoffset:0;marker:none;visibility:visible;display:inline;overflow:visible;enable-background:accumulate"
       d="m 439.87604,-145.56773 c -0.17643,0.4125 -0.34919,0.82803 -0.52381,1.24011 -6.55319,8.04269 -13.09132,27.06164 -19.66428,46.403212 -7.41764,18.350951 -14.23235,36.820627 -19.64073,55.897041 -4.9063,12.58217 -7.98375,25.410226 -14.23114,37.447941 -5.04791,23.929476 -15.67786,44.159316 -23.59666,69.183436 -4.66112,11.54437 -8.8099,13.41712 -16.2321,34.31685 12.81534,3.78067 25.4646,3.93458 38.83694,4.65356 21.4497,1.77362 42.53933,0.37474 63.96677,-0.47183 10.14706,-0.58349 28.86965,0.60238 43.4569,1.70438 4.20239,1.23565 14.12202,0.2346 23.31892,-2.20705 -0.17268,-17.54914 -13.75342,-38.75029 -21.43938,-62.84131 -5.95837,-18.89578 -7.01039,-26.14363 -8.40225,-37.1614 -5.8697,-16.358089 -7.00088,-35.456977 -12.74661,-54.120234 -15.21892,-23.924038 -17.88976,-42.244478 -23.64176,-65.572426 -1.26212,-7.40196 -2.51601,-18.6522 -9.10004,-28.23074 -0.0669,0.0727 -0.13362,0.16504 -0.20095,0.23976 -0.0534,-0.16567 -0.10521,-0.31368 -0.15968,-0.48122 z"
       id="path4271"
       sodipodi:nodetypes="ccccccccccccccccsc" />
    <path
       style="color:#000000;fill:none;stroke:#c87137;stroke-width:3.99999928;stroke-linecap:round;stroke-linejoin:round;stroke-miterlimit:4;stroke-opacity:1;stroke-dasharray:none;stroke-dashoffset:0;marker:none;visibility:visible;display:inline;overflow:visible;enable-background:accumulate"
       d="m 72.25649,206.13014 c 0.88773,-4.75801 0.4936,-6.74119 0.0595,-11.48692 -0.58806,-6.42788 0.2547,-10.28578 0.93776,-16.67025 1.35747,-12.68808 -0.10175,-19.09058 -0.23696,-28.75897 -0.0678,-4.85037 0.57151,-10.89432 0.47595,-15.81704 -0.13483,-6.94495 -1.52237,-9.9594 -1.22934,-16.91355 0.0973,-7.26454 0.73021,-7.94179 0.70462,-15.10067"
       id="path2832"
       sodipodi:nodetypes="csssscc" />
    <path
       style="color:#000000;fill:none;stroke:#c87137;stroke-width:3.99999976;stroke-linecap:round;stroke-linejoin:round;stroke-miterlimit:4;stroke-opacity:1;stroke-dasharray:none;stroke-dashoffset:0;marker:none;visibility:visible;display:inline;overflow:visible;enable-background:accumulate"
       d="m 35.96195,104.28885 c 0.36449,3.69143 0.64971,7.38785 1.05287,11.11022 0.52538,4.85105 -1.39387,9.62827 -1.39387,14.53045 0,11.15857 2.36521,24.09117 0.341,34.77142 -1.07441,5.66883 -0.77364,11.19335 0,16.29305 -0.20441,9.31058 1.54629,14.6975 0.0935,24.23035"
       id="path2850"
       sodipodi:nodetypes="cssscc" />
    <path
       style="color:#000000;fill:none;stroke:#94f3f3;stroke-width:4;stroke-linecap:round;stroke-linejoin:round;stroke-miterlimit:4;stroke-opacity:1;stroke-dasharray:none;stroke-dashoffset:0;marker:none;visibility:visible;display:inline;overflow:visible;enable-background:accumulate"
       d="m 313.75821,36.841219 c -0.21856,0.126826 -0.46223,0.254137 -0.68079,0.393933 -6.23243,7.668494 -11.91294,12.389408 -15.49809,19.385576 -3.81343,7.44163 -10.66872,11.222691 -14.89739,18.183055 -4.39056,5.991676 -6.44829,12.301556 -9.29085,16.524392 -9.81559,11.650605 -12.50114,16.985485 -18.58169,29.358265 -1.91508,6.51364 -5.9136,11.4438 -9.33089,16.23413 -2.03848,4.82481 -11.24093,13.94227 -17.62056,26.95322 0.14005,20.51504 37.15319,26.16654 53.91094,34.26959 18.39175,1.23649 37.69807,-1.63716 52.62142,-1.30619 17.49935,-3.36873 56.75461,-15.09172 54.9361,-31.96821 -5.58302,-4.33864 -7.95277,-10.24996 -13.53579,-24.50669 C 359.6391,118.42931 361.18283,120.0714 360.17239,115.047 354.92378,107.82583 347.684,100.79427 343.63308,89.068251 336.98737,82.465585 330.62614,73.556171 325.25162,58.300118 322.03288,52.335001 319.95904,46.765382 313.75821,36.841219 z"
       id="path4267"
       sodipodi:nodetypes="ccsccccccccccccc" />
    <path
       id="path4277"
       style="color:#000000;fill:none;stroke:#c87137;stroke-width:3.99999928;stroke-linecap:round;stroke-linejoin:round;stroke-miterlimit:4;stroke-opacity:1;stroke-dasharray:none;stroke-dashoffset:0;marker:none;visibility:visible;display:inline;overflow:visible;enable-background:accumulate"
       d="m 315.49697,212.69701 c 1.18862,-5.87642 0.47694,-12.96758 1.92224,-20.38088 0.5786,-8.53193 -2.68515,-15.29821 -2.24261,-24.13525 0.54664,-6.14559 3.65893,-7.91415 2.43867,-14.859 -0.17086,-5.5254 -3.57508,-5.56411 -9.32407,-8.927 -6.13396,-0.5121 -11.02809,-1.82336 -16.54899,1 -5.8133,2.32624 -5.9359,3.30941 -9.1048,10.5796 -1.79734,8.62879 1.08886,8.5495 1.14253,15.43492 -0.65996,5.34276 -1.73579,10.39921 0,14.77895 -1.0679,10.48755 -0.85433,10.18205 -1.92223,14.09158 -0.83269,4.78273 0.52377,8.17644 1.28149,10.82644"
       sodipodi:nodetypes="ccccccccccc" />
    <path
       sodipodi:nodetypes="cccc"
       id="path4306"
       d="m 169.68541,104.60085 c -1.18862,10.51652 -0.47693,23.207 -1.92224,36.47394 -0.5786,15.26888 2.68515,27.3779 2.24261,43.19281 -0.48054,11.06584 0.54193,18.45925 -2.56298,26.23565"
       style="color:#000000;fill:none;stroke:#c87137;stroke-width:3.99999928;stroke-linecap:round;stroke-linejoin:round;stroke-miterlimit:4;stroke-opacity:1;stroke-dasharray:none;stroke-dashoffset:0;marker:none;visibility:visible;display:inline;overflow:visible;enable-background:accumulate" />
    <path
       sodipodi:nodetypes="ccccc"
       id="path4308"
       d="m 202.07086,210.96606 c 2.15804,-16.2329 -0.55104,-18.48418 -0.60143,-31.72504 0.61947,-10.27427 1.62928,-19.99797 0,-28.42036 1.00239,-20.16781 0.80191,-19.58034 1.80429,-27.09844 0.78159,-9.19736 -0.49163,-15.72354 -1.20286,-20.81956"
       style="color:#000000;fill:none;stroke:#c87137;stroke-width:3.99999905;stroke-linecap:round;stroke-linejoin:round;stroke-miterlimit:4;stroke-opacity:1;stroke-dasharray:none;stroke-dashoffset:0;marker:none;visibility:visible;display:inline;overflow:visible;enable-background:accumulate" />
    <path
       style="color:#000000;fill:none;stroke:#94f3f3;stroke-width:4;stroke-linecap:round;stroke-linejoin:round;stroke-miterlimit:4;stroke-opacity:1;stroke-dasharray:none;stroke-dashoffset:0;marker:none;visibility:visible;display:inline;overflow:visible;enable-background:accumulate"
       d="m 60.31619,-144.83494 c -9.13587,9.9354 -18.27173,42.3687 -27.40759,67.94226 C 22.36804,-58.37409 20.7608,-30.85487 6.26233,-3.60664 2.5869,14.06008 -4.1088,41.00586 -17.15666,65.7844 c -4.63139,11.58336 -8.7993,13.46388 -16.16975,34.43083 24.85223,4.6466 43.61579,-0.36575 63.95104,3.81699 l 44.918,-3.81698 60.14442,3.05358 C 130.10402,94.86904 124.52099,82.77649 118.93797,55.17486 101.07855,8.22152 108.79346,17.9467 105.9955,3.26392 100.10929,-13.1085 98.92724,-32.25445 93.16071,-50.937205 87.07013,-61.678035 75.54263,-92.61151 69.45205,-116.58929 c -1.27246,-7.41299 -2.54863,-18.66902 -9.13586,-28.24565 z"
       id="path4156"
       sodipodi:nodetypes="ccccccccccccc" />
    <path
       sodipodi:nodetypes="cccccscccccccc"
       id="path4265"
       d="m 268.90145,101.70181 c -0.20298,-17.5846 -16.33526,-52.91385 -24.04753,-77.02915 -3.62216,-23.23479 -16.0331,-37.09087 -21.86823,-69.79195 -6.6457,-12.783045 -16.23701,-33.88287 -21.61152,-63.41923 -3.24655,-11.64845 -2.06559,-18.56318 -8.44857,-38.15849 -6.4702,15.27701 -11.72626,30.26358 -17.95005,43.24632 -14.13066,29.476265 -9.05714,33.47911 -15.85836,49.207765 -11.53345,20.551905 -12.93891,33.921645 -15.50009,46.457385 -7.68898,16.69842 -13.68063,35.4009 -18.80662,55.31056 -2.06258,9.45143 -11.4721,27.39019 -17.85791,53.05834 6.82503,4.93103 15.42331,-0.79852 31.46889,2.51778 21.40875,1.707 42.46087,0.25897 63.84278,-0.65954 10.12521,-0.61795 28.82071,0.48566 43.37993,1.54211 4.1959,1.22443 14.08353,0.1949 23.25728,-2.2819 z"
       style="color:#000000;fill:none;stroke:#94f3f3;stroke-width:3.99999928;stroke-linecap:round;stroke-linejoin:round;stroke-miterlimit:4;stroke-opacity:1;stroke-dasharray:none;stroke-dashoffset:0;marker:none;visibility:visible;display:inline;overflow:visible;enable-background:accumulate" />
    <path
       style="fill:none;stroke:#80ff00;stroke-width:3.99999976;stroke-linecap:round;stroke-linejoin:round;stroke-miterlimit:4;stroke-opacity:1;stroke-dasharray:none"
       d="m 150.29501,160.58147 c 1.18592,1.45041 1.64984,-2.19273 2.97956,-0.42089 2.84759,0.69233 5.4728,-0.91468 8.32988,-0.15058 1.94624,0.0735 3.7186,-0.90834 5.67337,-0.77952 2.04668,0.0603 3.92049,-0.60198 5.81402,-1.19624 1.67284,-0.43264 3.41964,-0.40856 5.11492,-0.68251 1.46184,0.64586 2.64498,0.21188 4.137,0.75233 1.80168,0.6439 3.5817,-0.50529 5.38586,0.57258 0.10007,0.86259 -1.40627,1.98282 -1.93876,2.94763 -1.84874,2.39801 -3.69642,4.79758 -5.54762,7.19229 -1.44899,0.99606 -2.47006,2.8466 -4.2374,3.13599 -1.29464,0.62494 -2.24525,1.88827 -3.38379,2.78687 -1.15579,1.171 -2.57175,2.36019 -3.88144,3.41675 -1.24476,1.26901 -2.64436,2.29989 -3.6641,3.90777 -0.80137,1.25748 -1.82952,2.81516 -3.01238,0.67706 -1.14724,-1.32791 -1.24605,-3.41492 -2.40602,-4.74628 -0.92,-1.83648 -2.24497,-3.30258 -2.64949,-5.5804 -1.13312,-1.77659 -1.97413,-3.98229 -3.36814,-5.4741 -0.71626,-1.76857 -1.83707,-3.34548 -2.75519,-4.90771 -0.27527,-0.35016 -0.91353,-0.9293 -0.59009,-1.4508 z"
       id="path2942" />
    <path
       style="fill:none;stroke:#80ff00;stroke-width:3.99999952;stroke-linecap:round;stroke-linejoin:round;stroke-miterlimit:4;stroke-opacity:1;stroke-dasharray:none"
       d="m 154.9436,173.36296 c -4.05554,1.6811 -8.55851,3.4232 -13.38404,2.88234 -9.93051,-0.15782 -17.79802,0.75958 -27.61364,-0.43252 -6.16923,0.69327 -14.136857,-1.02343 -19.760227,-0.9008 -5.15707,0.0198 -13.93498,-0.93276 -18.75195,0.23473"
       id="path2952-1"
       sodipodi:nodetypes="ccccc" />
    <path
       style="fill:none;stroke:#80ff00;stroke-width:3.99999952;stroke-linecap:round;stroke-linejoin:round;stroke-miterlimit:4;stroke-opacity:1;stroke-dasharray:none"
       d="m 127.15034,206.44495 c 0.24376,-3.57387 0.18112,-7.23102 2.0156,-10.56416 1.7636,-4.22131 3.24424,-8.57759 5.61512,-12.65882 1.02248,-2.74284 2.41328,-9.76028 4.3076,-4.40014 2.95552,3.54296 5.32488,7.22501 6.76792,11.31659 1.90096,4.13009 4.38136,8.66471 5.27592,12.65347 -0.53352,1.21009 0.0793,2.62253 0.37325,3.83828"
       id="path2956"
       sodipodi:nodetypes="ccccccc" />
    <path
       style="fill:none;stroke:#80ff00;stroke-width:3.99999952;stroke-linecap:round;stroke-linejoin:round;stroke-miterlimit:4;stroke-opacity:1;stroke-dasharray:none"
       d="m 67.602623,205.33727 c 0.16928,-0.58637 3.07896,-3.26542 3.52976,-4.82646 2.2488,-7.65689 2.89715,-6.83688 5.79448,-12.5633 1.20048,-3.4848 5.51048,-9.94223 6.4852,-11.69836 1.33744,3.90169 2.4984,7.87253 3.87904,11.75416 1.66696,6.01688 6.91992,9.93683 9.78,15.71673 0.16536,1.23438 1.58712,2.13171 1.58712,2.13171"
       id="path2958"
       sodipodi:nodetypes="ccccccc" />
    <path
       style="color:#000000;fill:none;stroke:#80ff00;stroke-width:4;stroke-linecap:round;stroke-linejoin:round;stroke-miterlimit:4;stroke-opacity:1;stroke-dasharray:none;stroke-dashoffset:0;marker:none;visibility:visible;display:inline;overflow:visible;enable-background:accumulate"
       d="m 296.20683,174.2578 c 3.28937,-0.0539 7.06035,0.49695 10.71436,0.34515 3.79226,-0.15712 7.58361,0.22494 11.44785,0.50265 4.25626,0.30582 9.81482,0.11579 14.55292,0.31933 5.91836,0.25424 11.31977,1.53387 17.32864,1.63965 7.3267,0.1291 14.73185,-1.36573 22.10011,-2.20479 3.70517,-0.4219 7.30747,-1.18802 11.07287,-1.29067 2.90457,-0.079 9.28662,0.20081 11.45088,1.1801"
       id="path2833"
       sodipodi:nodetypes="csssssss" />
    <path
       style="fill:none;stroke:#80ff00;stroke-width:3.99999952;stroke-linecap:round;stroke-linejoin:round;stroke-miterlimit:4;stroke-opacity:1;stroke-dasharray:none"
       d="m 301.57844,210.8572 c 0.3047,-4.37319 4.20388,-8.01962 4.72921,-12.31465 0.0764,-5.64796 1.62462,-9.55263 4.58822,-14.43791 1.2781,-3.31296 3.23757,-13.20215 5.60547,-6.52605 1.48469,4.40955 3.12056,6.05122 4.48243,11.35534 2.3762,5.16696 4.5928,7.65277 5.711,12.59397 1.76378,3.14373 6.17836,8.50655 5.76986,9.97118"
       id="path2956-7"
       sodipodi:nodetypes="ccccccc" />
    <path
       style="fill:none;stroke:#80ff00;stroke-width:3.99999952;stroke-linecap:round;stroke-linejoin:round;stroke-miterlimit:4;stroke-opacity:1;stroke-dasharray:none"
       d="m 360.85932,213.38773 c 0.2116,-0.7405 2.67453,-4.719 3.23803,-6.6905 1.8457,-6.1887 5.47006,-8.5124 7.09145,-16.5673 3.71031,-6.1772 5.78325,-8.9169 9.43232,-13.8071 1.67181,4.8175 3.12301,9.7294 4.84881,14.5199 2.0837,7.4467 3.88213,6.8205 8.02655,15.0115 1.39865,1.4195 2.58778,4.1032 6.18235,6.7923"
       id="path2958-6"
       sodipodi:nodetypes="ccccccc" />
    <path
       style="color:#000000;fill:none;stroke:#80ff00;stroke-width:3.99999976;stroke-linecap:round;stroke-linejoin:round;stroke-miterlimit:4;stroke-opacity:1;stroke-dasharray:none;stroke-dashoffset:0;marker:none;visibility:visible;display:inline;overflow:visible;enable-background:accumulate"
       d="m 178.62678,170.74157 c 3.05253,3.09474 8.21127,2.20399 11.16171,1.74537 3.44766,0.26646 3.35119,0.0682 5.88434,1.11997"
       id="path4234"
       sodipodi:nodetypes="ccc" />
    <path
       style="color:#000000;fill:none;stroke:#ff0000;stroke-width:4;stroke-linecap:round;stroke-linejoin:round;stroke-miterlimit:4;stroke-opacity:1;stroke-dasharray:none;stroke-dashoffset:0;marker:none;visibility:visible;display:inline;overflow:visible;enable-background:accumulate"
       d="m 188.24043,169.2777 c 0.88339,1.12463 2.05347,1.34618 3.16105,3.90444 0.60629,1.60914 1.96266,2.81528 3.22135,3.97898 1.66382,2.12105 2.64468,3.27932 3.87286,4.78366 0.8718,-1.43404 2.07105,-2.7263 2.5754,-4.31939 0.80794,-2.06434 1.47465,-2.66987 2.17328,-3.64497 0.93237,-2.35909 1.55264,-2.68626 2.30344,-3.86327 -2.30122,-0.0486 -4.5318,-0.0486 -7.06129,-0.34253 -0.8173,0.2242 -2.16583,0.2545 -4.95372,-0.24023 -0.86852,-0.13147 -3.45703,-0.2227 -5.29237,-0.25669 z"
       id="path5756"
       sodipodi:nodetypes="cccccccccc" />
    <path
       style="color:#000000;fill:none;stroke:#ff0000;stroke-width:4;stroke-linecap:round;stroke-linejoin:round;stroke-miterlimit:4;stroke-opacity:1;stroke-dasharray:none;stroke-dashoffset:0;marker:none;visibility:visible;display:inline;overflow:visible;enable-background:accumulate"
       d="m 202.83961,177.05197 c 1.40266,1.58565 2.59869,2.17163 3.97867,2.83266 3.64472,0.81708 9.64556,4.31831 13.6065,4.40493 9.4555,2.1638 13.94717,3.48685 21.48248,2.21101 5.94999,-1.87661 9.21852,-2.20105 12.51497,-4.19433 5.46197,-2.7906 5.70293,-3.43891 10.67008,-6.19194"
       id="path5758"
       sodipodi:nodetypes="cccccc" />
    <path
       style="color:#000000;fill:none;stroke:#ff0000;stroke-width:4;stroke-linecap:round;stroke-linejoin:round;stroke-miterlimit:4;stroke-opacity:1;stroke-dasharray:none;stroke-dashoffset:0;marker:none;visibility:visible;display:inline;overflow:visible;enable-background:accumulate"
       d="m 230.7295,206.54431 c 0.77513,-2.2565 2.01195,-5.34872 2.35568,-8.1244 0.44179,-3.56757 1.72551,-7.61112 4.27142,-11.06017 1.20562,3.92503 1.86864,5.09889 1.65166,11.67662 1.35495,4.8812 0.73292,5.42194 0.94511,7.79428"
       id="path5760"
       sodipodi:nodetypes="csccc" />
    <path
       style="color:#000000;fill:none;stroke:#ff0000;stroke-width:4;stroke-linecap:round;stroke-linejoin:round;stroke-miterlimit:4;stroke-opacity:1;stroke-dasharray:none;stroke-dashoffset:0;marker:none;visibility:visible;display:inline;overflow:visible;enable-background:accumulate"
       d="m 196.12495,195.98605 c 1.07422,-2.16134 2.35064,-5.18309 4.1518,-7.29243 2.64129,-3.08743 5.49083,-5.37236 8.10861,-8.26197 0.0141,4.06929 -1.14491,7.52329 -1.07532,10.52618 -0.0379,4.24562 -0.6838,7.30847 -0.84476,8.74873"
       id="path5762"
       sodipodi:nodetypes="ccccc" />
    <path
       style="color:#000000;fill:none;stroke:#80ff00;stroke-width:3.99999976;stroke-linecap:round;stroke-linejoin:round;stroke-miterlimit:4;stroke-opacity:1;stroke-dasharray:none;stroke-dashoffset:0;marker:none;visibility:visible;display:inline;overflow:visible;enable-background:accumulate"
       d="m 296.07436,159.51188 c -0.88302,-0.95524 -4.78673,2.31416 -6.94068,3.15891 -1.75052,0.68656 -3.62553,1.10378 -5.27101,1.96635 -1.82511,0.95678 -3.51582,2.17201 -5.38095,3.04757 -2.79977,1.31435 -5.74705,2.35637 -8.64621,3.47448 -1.41739,0.54662 -2.94571,0.46149 -4.11012,1.40933 -1.44588,1.17776 -4.76592,1.65359 -4.6862,2.94512 0.0741,1.20062 3.19181,1.22991 4.45966,2.35192 4.07498,3.60613 6.62229,2.8939 10.08209,3.64542 2.44231,0.53043 4.76525,0.13372 7.11495,0.88109 2.57672,0.81952 4.77808,2.42323 7.34459,3.27707 1.61492,0.53734 3.30446,0.51091 4.9202,0.93271 2.41484,0.63042 0.98832,-2.016 0.83496,-3.07375 -0.28385,-1.95769 -0.1918,-3.93868 -0.36649,-5.90383 -0.15091,-1.69842 0.48223,-3.39811 0.18153,-5.1363 -0.32509,-1.87915 -0.68621,-3.81695 -0.55432,-5.71435 0.12626,-1.81658 0.37403,-3.65536 0.73568,-5.46813 0.17769,-0.89066 0.72807,-1.31138 0.28234,-1.79363 z"
       id="path2870"
       sodipodi:nodetypes="csssssssssssssssss" />
    <path
       style="fill:none;stroke:#008000;stroke-width:4;stroke-linecap:butt;stroke-linejoin:miter;stroke-miterlimit:4;stroke-opacity:1;stroke-dasharray:none"
       d="m -60.145272,206.13132 c 10.633836,4.12643 22.544264,8.18878 33.690984,6.50488 21.6530485,-1.69512 43.407001,-8.55222 64.730963,-6.72454 9.320463,4.75061 109.819235,3.10763 121.088635,4.96221 26.15504,4.09271 43.33494,1.78257 61.84141,0.08 15.06005,-1.38549 31.20579,0.85617 53.39417,0.56276 28.37151,5.10974 75.62677,2.97755 85.80526,5.8162 32.47386,-1.3471 65.17959,-0.46854 97.75784,-2.5876 C 470.82278,214.98739 484.00921,215.07268 498,214"
       id="path4190"
       sodipodi:nodetypes="cccsccccc" />
    <path
       style="color:#000000;fill:none;stroke:#008000;stroke-width:4;stroke-linecap:round;stroke-linejoin:round;stroke-miterlimit:4;stroke-opacity:1;stroke-dasharray:none;stroke-dashoffset:0;marker:none;visibility:visible;display:inline;overflow:visible;enable-background:accumulate"
       d="m 256.00469,211.00282 c -6.58735,8.6763 -5.73288,26.6924 0.85164,34.65283 9.24213,9.68338 7.68349,12.75645 25.31645,14.9944 16.64597,3.78042 17.59105,-0.17714 34.09462,-3.83224 16.79441,-4.31028 24.85979,-3.73493 32.65219,-13.27013 8.62709,-10.40131 14.10021,-19.30261 9.43605,-25.95392"
       id="path5055"
       sodipodi:nodetypes="cccccc" />
    <path
       style="fill:none;stroke:#000000;stroke-width:4;stroke-linecap:round;stroke-linejoin:round;stroke-miterlimit:4;stroke-opacity:1;stroke-dasharray:none"
       d="m 282.17279,240.46769 c 7.15903,-2.76984 12.83188,-1.66343 15.32283,0.39944 2.63713,2.12553 2.48557,4.46254 1.88352,7.30123 0.31266,4.34324 -2.84076,6.12383 -5.25532,7.30163 -3.47056,0.42303 -4.96166,-0.0115 -8.27221,0.46333 -3.00844,1.20199 -5.14392,0.22849 -6.86491,-4.26325 -0.9513,-5.34659 0.59094,-9.08991 3.18609,-11.20238 z"
       id="path5861"
       sodipodi:nodetypes="ccccccc" />
    <path
       style="fill:none;stroke:#80ff00;stroke-width:3.99999976;stroke-linecap:round;stroke-linejoin:round;stroke-miterlimit:4;stroke-opacity:1;stroke-dasharray:none"
       d="m 394.08894,174.55575 c 8.21821,1.84654 13.8381,7.00068 21.4848,9.6531 6.96484,2.62825 12.49699,6.0176 20.04107,9.67771 11.08669,1.88316 14.00127,-0.31391 24.02684,0.29559 9.60116,0.3848 16.59265,1.71683 25.26071,1.28698 4.96114,-0.75114 10.11037,-0.81134 14.30366,-3.31725 10.23874,-4.27326 17.35107,1.86749 27.93631,-2.00243 4.05737,-2.25736 8.95398,-4.94217 9.76968,-5.47805 7.94552,-2.79615 9.74223,-11.39416 9.55829,-15.35401 -0.37781,0.3953 -0.10889,-1.95802 0.36958,-2.26438"
       id="path4123"
       sodipodi:nodetypes="cccccccccc" />
    <path
       style="color:#000000;fill:none;stroke:#80ff00;stroke-width:4;stroke-linecap:round;stroke-linejoin:round;stroke-miterlimit:4;stroke-opacity:1;stroke-dasharray:none;stroke-dashoffset:0;marker:none;visibility:visible;display:inline;overflow:visible;enable-background:accumulate"
       d="m 75.272249,175.17932 c -13.097295,2.24325 -28.201573,11.68949 -43.444618,9.19288 -8.039809,-1.31682 -12.349646,0.42961 -22.025192,2.86725 -12.6766298,3.19373 -21.49641,13.35504 -33.041857,10.78775 -8.869984,-1.97237 -8.330954,-2.5483 -14.846392,-6.2515 -0.531242,-0.30195 -8.662539,-1.00951 -13.940947,0.60812"
       id="path4125"
       sodipodi:nodetypes="csssss" />
    <path
       sodipodi:nodetypes="cccccccccc"
       id="path5785"
       d="m 292.33691,223.34794 c 0.35697,0.87238 1.05568,1.21649 1.29867,3.04505 0.0958,1.13459 0.73663,2.14091 1.32343,3.10316 0.67181,1.64496 1.08426,2.55576 1.5911,3.73076 0.80564,-0.76707 1.79264,-1.38675 2.3948,-2.31913 0.87768,-1.18145 1.40627,-1.45374 2.02087,-1.95701 1.00874,-1.34857 1.4584,-1.45075 2.14192,-2.07424 -1.44333,-0.42889 -2.85078,-0.81434 -4.3944,-1.43967 -0.55564,0.002 -1.41193,-0.21147 -3.08283,-1.00992 -0.52458,-0.23423 -2.14157,-0.74005 -3.29356,-1.07898 z"
       style="color:#000000;fill:none;stroke:#ff0000;stroke-width:4;stroke-linecap:round;stroke-linejoin:round;stroke-miterlimit:4;stroke-opacity:1;stroke-dasharray:none;stroke-dashoffset:0;marker:none;visibility:visible;display:inline;overflow:visible;enable-background:accumulate" />
    <path
       sodipodi:nodetypes="cccccc"
       id="path5787-4"
       d="m 300.36903,231.0381 c 1.00652,0.32775 3.35069,2.50071 3.3823,3.26512 0.49352,1.80121 1.5638,5.81882 2.45417,7.5884 1.27255,3.35782 0.79515,3.51684 4.31845,3.09047 1.31404,0.0151 2.86126,0.83824 4.30622,0.39297 1.95509,-0.60993 2.79315,-0.56393 4.54953,-1.38361"
       style="color:#000000;fill:none;stroke:#ff0000;stroke-width:4;stroke-linecap:round;stroke-linejoin:round;stroke-miterlimit:4;stroke-opacity:1;stroke-dasharray:none;stroke-dashoffset:0;marker:none;visibility:visible;display:inline;overflow:visible;enable-background:accumulate" />
    <path
       sodipodi:nodetypes="ccccc"
       id="path5789-8"
       d="m 293.86367,238.89277 c 1.19757,-0.70249 2.05064,-1.21317 3.18337,-1.5442 1.74987,-0.1715 4.39667,-1.01749 6.65493,-1.5713 -1.30192,1.63321 -2.38047,3.74641 -3.92116,4.86009 -0.81377,0.82825 -1.57866,1.49679 -2.46117,2.54948"
       style="color:#000000;fill:none;stroke:#ff0000;stroke-width:4;stroke-linecap:round;stroke-linejoin:round;stroke-miterlimit:4;stroke-opacity:1;stroke-dasharray:none;stroke-dashoffset:0;marker:none;visibility:visible;display:inline;overflow:visible;enable-background:accumulate" />
    <path
       sodipodi:nodetypes="ccccc"
       id="path5791-8"
       d="m 303.60244,255.93969 c 0.89429,-1.54767 -0.66164,-1.84152 1.82782,-7.27428 l 2.73789,-3.68074 c 0.86285,1.42577 2.77199,0.96683 4.25483,5.53774 l 0.77638,3.03427"
       style="color:#000000;fill:none;stroke:#ff0000;stroke-width:4;stroke-linecap:round;stroke-linejoin:round;stroke-miterlimit:4;stroke-opacity:1;stroke-dasharray:none;stroke-dashoffset:0;marker:none;visibility:visible;display:inline;overflow:visible;enable-background:accumulate" />
  </g>
</svg>
