<?xml version="1.0" encoding="UTF-8" standalone="no"?>
<!-- Created with Inkscape (http://www.inkscape.org/) -->

<svg
   xmlns:dc="http://purl.org/dc/elements/1.1/"
   xmlns:cc="http://creativecommons.org/ns#"
   xmlns:rdf="http://www.w3.org/1999/02/22-rdf-syntax-ns#"
   xmlns:svg="http://www.w3.org/2000/svg"
   xmlns="http://www.w3.org/2000/svg"
   xmlns:sodipodi="http://sodipodi.sourceforge.net/DTD/sodipodi-0.dtd"
   xmlns:inkscape="http://www.inkscape.org/namespaces/inkscape"
   inkscape:export-filename="itnas178.png"
   inkscape:export-ydpi="90"
   inkscape:export-xdpi="90"
   sodipodi:docname="itnas178.svg"
   inkscape:version="0.47 r22583"
   version="1.1"
   id="svg2"
   height="320"
   width="480">
  <defs
     id="defs4" />
  <sodipodi:namedview
     id="base"
     pagecolor="#ffffff"
     bordercolor="#666666"
     borderopacity="1.0"
     inkscape:pageopacity="1"
     inkscape:pageshadow="2"
     inkscape:zoom="1.4142136"
     inkscape:cx="211.95035"
     inkscape:cy="161.10935"
     inkscape:document-units="px"
     inkscape:current-layer="layer1"
     showgrid="false"
     inkscape:snap-nodes="true"
     inkscape:snap-global="false"
     inkscape:snap-grids="true"
     showguides="true"
     inkscape:window-width="1280"
     inkscape:window-height="774"
     inkscape:window-x="1276"
     inkscape:window-y="1020"
     inkscape:window-maximized="1"
     inkscape:object-nodes="true">
    <inkscape:grid
       empspacing="5"
       visible="true"
       enabled="true"
       snapvisiblegridlinesonly="true"
       type="xygrid"
       id="grid2816" />
  </sodipodi:namedview>
  <metadata
     id="metadata7">
    <rdf:RDF>
      <cc:Work
         rdf:about="">
        <dc:format>image/svg+xml</dc:format>
        <dc:type
           rdf:resource="http://purl.org/dc/dcmitype/StillImage" />
        <dc:title></dc:title>
      </cc:Work>
    </rdf:RDF>
  </metadata>
  <g
     inkscape:label="Layer 1"
     inkscape:groupmode="layer"
     id="layer1"
     transform="translate(0,0)">
    <path
       style="color:#000000;fill:none;stroke:#008000;stroke-width:4;stroke-linecap:butt;stroke-linejoin:miter;stroke-miterlimit:4;stroke-opacity:1;stroke-dasharray:none;stroke-dashoffset:0;marker:none;visibility:visible;display:inline;overflow:visible;enable-background:accumulate"
       d="m 711.67649,302.80332 c -6.82988,0.41137 -14.30759,0.5986 -24.57836,-0.0864 -1.88637,-0.12582 -6.0271,-1.79465 -6.35156,-2 -11.55463,-3.79929 -23.93814,-3.55836 -35.62067,-6.81212 -18.39714,-4.0827 -37.13661,-7.66081 -56.06981,-6.98437 -22.88628,0.1707 -45.68082,2.43945 -68.53101,3.44943 -19.10834,0.45955 -38.21203,-0.71581 -57.32204,-0.4375 -7.92711,0.0627 -15.82963,0.69162 -23.72749,1.30935 -16.24609,1.13192 -32.72383,0.85781 -48.68812,-2.63975 -16.54748,-3.35338 -33.38359,-5.57554 -50.29203,-5.51774 -19.90021,-0.35601 -39.96316,1.22836 -59.70554,-2.0176 -11.92056,-1.94897 -23.68908,-4.91624 -35.75969,-5.86509 -19.41391,-2.31021 -28.8178,-7.13393 -48.74769,-7.05403 -3.16058,-0.28818 -15.70086,-2.22252 -18.87966,-1.89933 -12.3633,1.16183 -25.04318,0.0266 -36.00487,-1.97828 -14.03071,0.75623 -23.8591,-0.56419 -33.32443,-0.89616 L 94.16206,265.5 c -2,0.5 -19.459167,0.20845 -21.5,0.5 -5.101043,0.72872 -14.333159,0.29104 -19,0.5 -25.045446,1.12141 -35.173146,-10.6308 -57,-8 -10.972665,0.50119 -20.422079,1.76647 -32,-1.5 -16.897887,-4.76739 -24.805367,-2.28778 -46.5,-14 -15.3254,-8.27368 -16,-1.77263 -16,-10"
       id="path2852"
       sodipodi:nodetypes="ccccccccccccccsccsscssc" />
    <path
       style="color:#000000;fill:none;stroke:#808080;stroke-width:4;stroke-linecap:round;stroke-linejoin:round;stroke-miterlimit:4;stroke-opacity:1;stroke-dasharray:none;stroke-dashoffset:0;marker:none;visibility:visible;display:inline;overflow:visible;enable-background:accumulate"
       d="m 240.76799,135.61243 c 0.22053,-1.33536 0.61832,-2.13895 1.2879,-2.28862 15.6367,-3.49526 26.20861,-7.59221 38.18376,-9.8995 19.95358,-3.84452 36.2728,-10.44323 57.06854,-13.67766 19.41012,-3.01892 36.86819,-6.40767 61.7254,-9.863966 13.90543,-1.933494 26.71449,-3.754126 39.29955,-5.363864"
       id="path2912" />
    <path
       style="color:#000000;fill:none;stroke:#808080;stroke-width:4;stroke-linecap:round;stroke-linejoin:round;stroke-miterlimit:4;stroke-opacity:1;stroke-dasharray:none;stroke-dashoffset:0;marker:none;visibility:visible;display:inline;overflow:visible;enable-background:accumulate"
       d="m 242.25103,209.01272 c 3.89017,0.13624 7.7863,0.50663 11.67757,0.3487 17.93478,-0.72788 35.78047,1.85534 53.74012,0.7071 5.66605,-0.005 11.30473,0.70782 16.97056,0.70711 6.56554,0.1583 9.48519,-0.18428 12.38806,0.1111 1.40054,0.20896 2.80084,0.48704 4.22503,0.44394 1.01209,-0.002 2.02315,-0.0597 3.03526,-0.06 2.24955,0.26487 3.06824,-9.3801 1.71295,-9.3575 -7.54247,0.72974 -15.08106,0.54891 -22.62741,0 -15.07697,-1.09667 -29.11212,0.59296 -46.66905,0 -11.9246,-0.40274 -26.51591,-1.60019 -35.35534,-2.82843"
       id="path2906" />
    <path
       style="color:#000000;fill:none;stroke:#808080;stroke-width:4;stroke-linecap:round;stroke-linejoin:round;stroke-miterlimit:4;stroke-opacity:1;stroke-dasharray:none;stroke-dashoffset:0;marker:none;visibility:visible;display:inline;overflow:visible;enable-background:accumulate"
       d="m 441.08314,99.76882 c 12.54815,-0.530986 16.68853,-5.769325 50.25301,-8.535631 10.77671,-1.788669 26.35144,-3.42308 33.37381,-6.793414 5.83766,-1.026781 11.99827,-2.247426 18.57341,-3.49212 20.06545,-3.798451 39.01383,-4.668934 59.39697,-7.020815 5.37624,-0.620331 2.16113,20.162327 2.04173,37.11673 -0.0942,13.37583 -1.8854,30.97602 -0.62751,38.5437 -0.86843,12.86944 -0.99893,22.36627 -0.93923,28.40361 0.14479,14.65165 3.64949,29.32287 -0.47499,28.87203 -17.08044,-1.86703 -42.81765,-2.26099 -55.86143,-2.12132 -26.88249,0.28786 -40.00115,1.35172 -55.86144,1.41422 -19.07225,-0.96116 -41.65622,-0.51266 -50.20458,-0.70711 -1.10197,2.45134 -2.79176,5.61383 -2.82842,7.68978"
       id="path2904" />
    <path
       style="color:#000000;fill:none;stroke:#808080;stroke-width:4;stroke-linecap:round;stroke-linejoin:round;stroke-miterlimit:4;stroke-opacity:1;stroke-dasharray:none;stroke-dashoffset:0;marker:none;visibility:visible;display:inline;overflow:visible;enable-background:accumulate"
       d="m 365.99613,282.42978 0.22741,-0.40606 c 3.18833,-2.53705 6.02884,-5.46313 9.48992,-7.59682 3.44321,-2.48366 5.90419,-6.20642 9.54543,-8.54561 4.74269,-3.00802 8.06223,-7.55452 12.14234,-11.28781 3.54668,-1.98751 5.53801,-5.73849 9.033,-7.75077 3.40391,-1.82477 6.43427,-4.20636 9.21933,-6.85754 2.37082,-2.19008 4.46819,-4.48427 6.79969,-6.72584 3.28691,-2.66283 4.92586,-6.60032 7.65189,-9.71588 3.18379,-2.93465 8.0104,-10.00173 8.0104,-10.00173 0,0 16.14613,0 16.14613,0 21.80155,-1.27986 42.66983,7.62884 61.2316,5.69053 35.44981,1.03896 38.18789,-1.7647 63.47135,-0.92003 21.92524,-1.30097 31.21586,2.75224 53.74367,4.33376 15.70055,2.94191 30.62685,4.13636 45.0745,2.73731 10.44109,0.86384 17.62743,2.10968 36.94633,4.94975 6.2354,-4.4724 -3.08547,-36.48746 -0.75472,-65.66058 0.36841,-4.61127 -3.30022,-47.17958 -0.7926,-68.956408 1.14098,-9.908568 2.21075,-33.93803 -0.574,-49.93788 -23.23716,4.01579 -43.17095,5.992555 -52.20525,7.80472 -18.60397,3.73172 -44.33057,8.833219 -67.2958,9.87295 -21.55667,0.97596 -40.49063,7.252626 -60.84569,11.07533 -23.83185,4.077789 -46.01957,3.478477 -57.99061,5.22199 -24.00532,3.496236 -64.9985,7.64998 -82.16924,9.62229 -30.30723,3.481228 -35.71428,4.43379 -51.90558,7.7631 -15.01055,3.086518 -14.61038,5.104988 -34.7751,7.013408 -8.11419,0.76794 -36.73028,11.22342 -51.75582,13.93292 -4.5366,0.81807 -9.0798,1.64505 -13.61442,2.50635"
       id="path2833" />
    <path
       style="fill:none;stroke:#0000ff;stroke-width:4;stroke-linecap:butt;stroke-linejoin:miter;stroke-miterlimit:4;stroke-opacity:1;stroke-dasharray:none"
       d="m 304.31759,242.32843 c -1.98926,0.27241 -4.05052,0.49747 -5.83427,1.49526 -1.69373,0.94516 -3.17574,2.23277 -4.48113,3.66058 -1.54477,1.71508 -2.82494,3.66401 -3.8096,5.75041 -0.54046,1.18021 -0.82204,2.45579 -1.1238,3.71157 -0.25266,1.28363 -0.12395,2.59861 -0.20257,3.89719 -0.0387,1.59856 -0.10356,3.24691 0.47324,4.76934 0.27893,1.05941 0.85496,1.99977 1.35313,2.96565 0.97586,1.311 1.9301,2.6502 3.13779,3.76279 1.63849,1.4824 3.28898,3.02331 5.32148,3.95122 1.32845,0.64353 2.71064,1.18738 4.1235,1.61476 1.62831,0.45252 3.32044,0.69876 5.01098,0.70248 1.66311,-0.0792 3.30017,-0.47433 4.87461,-1.00062 1.49964,-0.5417 3.00626,-1.13381 4.31087,-2.06627 1.34526,-0.85232 2.69299,-1.73688 3.78753,-2.90612 1.0506,-1.00529 1.80863,-2.27517 2.36298,-3.61109 0.38888,-0.97445 0.74201,-1.97252 0.98933,-2.99242 0.35816,-1.71285 0.55334,-3.45829 0.64343,-5.20473 -0.0902,-2.07906 -0.20733,-4.17404 -0.67068,-6.20826 -0.2817,-1.16456 -0.58373,-2.35082 -1.27456,-3.35086 -0.89047,-1.34775 -2.01279,-2.52666 -3.12562,-3.69091 -1.10745,-1.1097 -2.38971,-2.02785 -3.73916,-2.81757 -1.20388,-0.80969 -2.53066,-1.45334 -3.94642,-1.78746 -1.69528,-0.44646 -3.4624,-0.47885 -5.20267,-0.59597 -0.99295,-0.022 -1.98552,-0.11689 -2.97839,-0.049 z"
       id="path8177"
       sodipodi:nodetypes="cssssssssss" />
    <path
       style="color:#000000;fill:none;stroke:#c87137;stroke-width:4;stroke-linecap:round;stroke-linejoin:round;stroke-miterlimit:4;stroke-opacity:1;stroke-dasharray:none;stroke-dashoffset:0;marker:none;visibility:visible;display:inline;overflow:visible;enable-background:accumulate"
       d="m 622.26678,245.5 c -14.51862,3.01982 -24.61813,1.42113 -33.73446,2.43618 -9.93577,1.1063 -20.0192,4.19195 -31.01554,9.06382 -14.0099,6.20701 -21.00291,8.62847 -30.5,18.25 -4.41021,4.46799 -6.75,11.25 -6.75,11.25"
       id="path8848"
       sodipodi:nodetypes="cssss" />
    <path
       style="color:#000000;fill:none;stroke:#94f3f3;stroke-width:4;stroke-linecap:round;stroke-linejoin:round;stroke-miterlimit:4;stroke-opacity:1;stroke-dasharray:none;stroke-dashoffset:0;marker:none;visibility:visible;display:inline;overflow:visible;enable-background:accumulate"
       d="m 628.10064,250.43223 c -2.47035,-3.28246 -5.98513,-8.52686 -3.86191,-12.42506 3.81422,-7.00284 6.54062,-5.57008 12.11869,-5.99079 5.9794,-0.45098 10.84484,-2.15978 17.18942,-2.07539 9.44611,0.12566 9.68451,1.6305 17.77967,1.2907 6.86911,-0.28834 21.62031,-1.40966 28.44822,1.63162 6.92678,3.0853 9.14305,7.67506 4.88819,12.43546 -4.85023,5.4265 -20.94362,4.87277 -26.42627,7.64913 -5.73823,2.90578 -15.6125,2.19144 -22.59084,1.46418 -5.39679,-0.56244 -11.15057,-2.7869 -16.97255,-2.13737 -3.32357,0.37079 -7.13511,2.7251 -10.57262,-1.84248 z"
       id="path8820"
       sodipodi:nodetypes="cssssssssss" />
    <path
       style="color:#000000;fill:none;stroke:#00ffff;stroke-width:4;stroke-linecap:butt;stroke-linejoin:miter;stroke-miterlimit:4;stroke-opacity:1;stroke-dasharray:none;stroke-dashoffset:0;marker:none;visibility:visible;display:inline;overflow:visible;enable-background:accumulate"
       d="m 247.92877,142.63686 c -2.61996,0.36786 -1.7932,5.52336 -1.83229,7.68783 -0.17164,9.50156 -0.37961,15.50522 -0.4748,22.7252 -0.0701,5.317 0.63469,12.7282 -0.18421,17.88058 -0.52862,3.326 1.89463,3.89527 4.68706,3.97496 7.66559,0.21879 15.52041,0.58293 23.26913,1.2613 6.27111,0.54903 12.64199,-0.41862 18.85492,0.4201 1.92728,0.26016 5.56413,1.08107 5.20206,-1.94004 -0.88061,-7.34771 0.16001,-14.7259 -0.22827,-22.10493 -0.69161,-13.14364 0.73544,-12.4464 -0.0372,-23.83159 -0.1644,-2.42243 1.44881,-7.64257 -2.63311,-7.21858 -4.25117,0.44158 -8.55575,-0.14285 -12.80784,0.25034 -6.18107,0.57151 -11.8157,0.13298 -17.80744,0.37479 -5.23227,0.21116 -10.79334,-0.21211 -16.00797,0.52007 z"
       id="path3604"
       sodipodi:nodetypes="csssssssssssss" />
    <path
       id="path3618"
       style="color:#000000;fill:none;stroke:#ffff00;stroke-width:4;stroke-linecap:round;stroke-linejoin:round;stroke-miterlimit:4;stroke-opacity:1;stroke-dasharray:none;stroke-dashoffset:0;marker:none;visibility:visible;display:inline;overflow:visible;enable-background:accumulate"
       d="m 398.52624,247.12482 c -8.82459,9.15783 -8.56871,9.23823 -19.40185,18.57308 -0.85977,0.099 -0.72217,-9.65266 -3.96585,-8.84974 -3.16812,0.66906 2.13946,13.11805 -6.2597,17.25525 -3.5303,-2.26989 8.94914,-21.2578 -7.7209,-22.33708 -4.36985,1.1893 -18.01908,-1.61321 -22.93726,-0.11538 -2.36715,0.72091 -8.30732,-0.53671 -8.0749,3.06222 -0.25729,3.84214 10.40015,2.88181 15.98937,2.39293 5.74368,-0.50239 10.85449,1.17665 14.70681,-0.25387 4.26389,-1.58335 6.68751,5.30023 3.9253,5.85419 -12.53213,2.51332 -19.75161,-1.36349 -31.08542,0.39236 -5.16246,0.79977 -5.96271,3.15979 -3.71284,4.97664 2.97756,0.0325 6.04828,0.4147 7.8581,0.0635 8.66883,-1.68219 14.46889,1.63418 23.9324,0.209 5.20772,-0.78427 1.19472,5.44242 -2.7001,5.27532 -14.57754,-0.61468 -31.88228,-2.20686 -30.6277,1.8454 1.52011,4.9099 28.42859,2.52505 33.47542,3.43472"
       sodipodi:nodetypes="cccccscsssscsscsc" />
    <path
       style="color:#000000;fill:none;stroke:#ff0000;stroke-width:4;stroke-linecap:butt;stroke-linejoin:miter;stroke-miterlimit:4;stroke-opacity:1;stroke-dasharray:none;stroke-dashoffset:0;marker:none;visibility:visible;display:inline;overflow:visible;enable-background:accumulate"
       d="m 553.06351,198.25736 c 0.5242,1.87087 1.3803,3.22833 5.70692,0.82511 7.99593,-4.44726 4.00029,-1.07535 11.80019,-5.3741 5.92279,-3.26882 13.40535,-7.76203 15.32418,-7.28548 1.75437,0.43569 3.44003,3.98897 6.0411,9.36158 2.68549,5.54697 6.61218,7.88648 7.68864,5.04622 0.64511,-1.70216 0.0585,-3.81944 -2.97398,-8.86565 -6.23139,-10.36922 -2.37502,-6.79638 -8.41841,-16.47875 -2.69536,-4.31833 -4.03223,-8.11967 -6.69192,-14.37503 -0.62246,-1.46402 -5.80474,-0.63393 -4.90486,1.71791 1.49167,3.89856 6.1454,13.11913 5.64355,15.70978 -0.25496,1.31697 -3.39653,3.30081 -8.32423,5.89029 -4.57659,2.40497 -7.45547,3.83792 -11.34339,6.29035 -5.83933,3.68336 -10.13694,5.43499 -9.54779,7.53777 z"
       id="path3637"
       sodipodi:nodetypes="csssssssssssss" />
    <path
       style="color:#000000;fill:none;stroke:#ff00ae;stroke-width:4;stroke-linecap:butt;stroke-linejoin:round;stroke-miterlimit:4;stroke-opacity:1;stroke-dasharray:none;stroke-dashoffset:0;marker:none;visibility:visible;display:inline;overflow:visible;enable-background:accumulate"
       d="m 397.68207,238.14772 c -0.74579,-0.75694 -1.15774,-1.43383 -1.82934,-2.15526 -0.83919,-0.88685 -1.48586,-1.75684 -2.38501,-2.82597 -0.70937,-0.90068 -1.40307,-1.45188 -1.73675,-1.6796 -3.00878,1.17183 -9.791,4.68721 -11.68536,5.68664 -2.06461,1.08938 -8.76095,3.91533 -7.79273,4.96932 2.64422,2.8784 1.51145,3.26044 5.3101,7.88258 1.14705,1.39579 2.99225,7.85756 4.76813,6.82318 6.08096,-3.54194 11.90197,-11.75826 15.51604,-16.12261 0.22989,-0.27761 0.54827,-0.54043 0.77829,-0.85411 -0.31905,-0.6406 -0.557,-1.11596 -0.94341,-1.72418 z"
       id="path3782"
       inkscape:export-xdpi="90"
       inkscape:export-ydpi="90"
       sodipodi:nodetypes="ccccssssscc" />
    <path
       id="path5493"
       style="color:#000000;fill:none;stroke:#ff0000;stroke-width:4;stroke-linecap:round;stroke-linejoin:round;stroke-miterlimit:4;stroke-opacity:1;stroke-dasharray:none;stroke-dashoffset:0;marker:none;visibility:visible;display:inline;overflow:visible;enable-background:accumulate"
       d="m 315.0596,171.51675 c 0.28661,-1.46739 -0.28109,-3.55929 -0.84788,-6.93605 -0.74974,-4.23374 0.39045,-5.574 -0.44897,-8.75405 0.31178,-3.93821 1.11728,-6.42086 0.33632,-11.08458 m 9.48868,34.57594 c -0.88815,-3.42669 -1.38339,-8.12446 -2.99502,-7.75568 -6.03954,1.00881 -11.01681,-1.03515 -12.72952,0.67781 -0.62336,3.53625 -1.68552,5.27789 -2.77684,7.92805"
       sodipodi:nodetypes="cccccccc" />
    <path
       style="color:#000000;fill:none;stroke:#80ff00;stroke-width:4;stroke-linecap:round;stroke-linejoin:round;stroke-miterlimit:4;stroke-opacity:1;stroke-dasharray:none;stroke-dashoffset:0;marker:none;visibility:visible;display:inline;overflow:visible;enable-background:accumulate"
       d="m 341.228,197.69974 c -0.28429,-0.0597 -1.65233,-0.16643 -3.59605,-0.25029 -0.66606,-0.0285 -1.79698,-0.0492 -3.25895,-0.13124 -1.16558,-0.0654 -1.747,-0.17195 -3.56105,-0.42673 -1.50606,-0.2114 -2.41563,-0.17662 -4.13034,-0.35924 -1.06519,-0.11356 -1.65227,0.007 -2.35495,0.0428"
       id="path3655-1"
       sodipodi:nodetypes="csssss" />
    <path
       style="color:#000000;fill:none;stroke:#ffff00;stroke-width:4;stroke-linecap:butt;stroke-linejoin:miter;stroke-miterlimit:4;stroke-opacity:1;stroke-dasharray:none;stroke-dashoffset:0;marker:none;visibility:visible;display:inline;overflow:visible;enable-background:accumulate"
       d="m 309.49227,196.555 c -1.02119,-6.8618 0.66819,-4.7849 0.625,-7.625 -0.038,-2.4993 -0.54357,-6.6591 -0.625,-8.25 -0.0657,-1.2843 4.30765,0 6.12501,0 1.31936,-0.001 3.26971,-1.0513 3.99999,0 0.78185,1.1256 0,2.2643 0,2.5 0,3.8334 -0.003,6.3248 0.5,10.125 0.0205,0.155 1.0383,1.2531 -0.5,3.375 -0.18296,0.2524 -2.16647,0 -2.49999,0 -3,0 -7.42879,1.1935 -7.62501,-0.125 z"
       id="path2862"
       sodipodi:nodetypes="csssssssss" />
    <path
       sodipodi:nodetypes="cccccsccsssssssscccccssccccccccssssssssscsscssccccccs"
       d="m 240.50411,135.50193 c -0.21561,-1.41887 -1.86741,-2.02331 -2.56,-2.17812 -15.6367,-3.49526 -26.20861,-7.59221 -38.18376,-9.8995 -19.95358,-3.84452 -36.2728,-10.44323 -57.06854,-13.67766 -19.41012,-3.01892 -36.86819,-6.40767 -61.725399,-9.863966 C 67.060981,97.94919 54.251921,96.128558 41.666858,94.51882 M 242.26271,208.86733 c -5.32425,0.16331 -10.72194,0.32783 -16.19131,0.49409 -17.93097,-0.98217 -35.78047,1.85534 -53.74012,0.7071 -5.66605,-0.005 -11.30473,0.70782 -16.97056,0.70711 -6.56554,0.1583 -9.48519,-0.18428 -12.38806,0.1111 -1.40054,0.20896 -2.80084,0.48704 -4.22503,0.44394 -1.01209,-0.002 -2.02315,-0.0597 -3.03526,-0.06 -2.24955,0.26487 -3.06824,-9.3801 -1.71295,-9.3575 7.54247,0.72974 15.08106,0.54891 22.62741,0 15.07697,-1.09667 29.11212,0.59296 46.66905,0 11.9246,-0.40274 26.51591,-1.60019 35.35534,-2.82843 M 38.916858,99.76882 c -12.548145,-0.530986 -16.688525,-5.769325 -50.253005,-8.535631 -10.77671,-1.788669 -26.35144,-3.42308 -33.37381,-6.793414 -5.83766,-1.026781 -11.99827,-2.247426 -18.57341,-3.49212 -20.06545,-3.798451 -39.013833,-4.668934 -59.396973,-7.020815 -5.37624,-0.620331 -2.16113,20.162327 -2.04173,37.11673 0.0942,13.37583 1.8854,30.97602 0.62751,38.5437 0.86843,12.86944 0.99893,22.36627 0.93923,28.40361 -0.14479,14.65165 -3.64949,29.32287 0.47499,28.87203 17.08044,-1.86703 42.817653,-2.26099 55.861433,-2.12132 26.88249,0.28786 40.00115,1.35172 55.86144,1.41422 19.0722496,-0.96116 41.656215,-0.51266 50.204575,-0.70711 1.10197,2.45134 2.79176,5.61383 2.82842,7.68978 m 31.490243,33.70423 c -3.40391,-1.82477 -6.43427,-4.20636 -9.21933,-6.85754 -2.37082,-2.19008 -4.46819,-4.48427 -6.79969,-6.72584 -3.28691,-2.66283 -4.92586,-6.60032 -7.65189,-9.71588 -3.18379,-2.93465 -8.010403,-10.00173 -8.010403,-10.00173 0,0 -16.146125,0 -16.146125,0 -21.8015504,-1.27986 -42.66983,7.62884 -61.2316,5.69053 -35.44981,1.03896 -38.18789,-1.7647 -63.471353,-0.92003 -21.92524,-1.30097 -31.21586,2.75224 -53.74367,4.33376 -15.70055,2.94191 -30.62685,4.13636 -45.0745,2.73731 -10.44109,0.86384 -17.62743,2.10968 -36.94633,4.94975 -6.2354,-4.4724 3.08547,-36.48746 0.75472,-65.66058 -0.36841,-4.61127 3.30022,-47.17958 0.7926,-68.956408 -1.14098,-9.908568 -2.21075,-33.93803 0.574,-49.93788 23.23716,4.01579 43.17095,5.992555 52.20525,7.80472 18.60397,3.73172 44.33057,8.833219 67.2958,9.87295 21.556673,0.97596 40.490633,7.252626 60.845693,11.07533 23.83185,4.077789 46.01957,3.478477 57.9906096,5.22199 24.0053204,3.496236 64.9984984,7.64998 82.1692384,9.62229 30.307229,3.481228 35.714279,4.43379 51.905579,7.7631 15.01055,3.086518 14.61038,5.104988 34.7751,7.013408 8.11419,0.76794 36.73028,11.22342 51.75582,13.93292 4.71578,0.85038 9.43869,1.71039 14.15169,2.60856"
       style="color:#000000;fill:none;stroke:#808080;stroke-width:4;stroke-linecap:round;stroke-linejoin:round;stroke-miterlimit:4;stroke-opacity:1;stroke-dasharray:none;stroke-dashoffset:0;marker:none;visibility:visible;display:inline;overflow:visible;enable-background:accumulate"
       id="path2842" />
    <path
       sodipodi:nodetypes="csssssssssssss"
       id="path2859"
       d="m 183.05561,195.17407 c 0.4686,2.60383 5.58839,1.57891 7.75276,1.53451 9.50111,-0.19483 15.50833,-0.21849 22.72661,-0.40175 5.31575,-0.13496 12.69426,-1.12498 17.87438,-0.50534 3.34391,0.39998 3.81933,-2.04341 3.79129,-4.83684 -0.0769,-7.66832 -0.0159,-15.53134 0.36319,-23.30046 0.30683,-6.28761 -0.90574,-12.61645 -0.30719,-18.8571 0.18565,-1.93587 0.86573,-5.60167 -2.13917,-5.12339 -7.3083,1.16326 -14.72112,0.40789 -22.0797,1.08039 -13.1072,1.19787 -12.4655,-0.255 -23.81243,0.95604 -2.41429,0.25768 -7.69275,-1.15306 -7.11169,2.90948 0.60516,4.23098 0.18714,8.55489 0.74398,12.78866 0.8094,6.15444 0.58845,11.80179 1.0611,17.77975 0.41274,5.22024 0.2042,10.79349 1.1369,15.97601 z"
       style="color:#000000;fill:none;stroke:#00ffff;stroke-width:4;stroke-linecap:butt;stroke-linejoin:miter;stroke-miterlimit:4;stroke-opacity:1;stroke-dasharray:none;stroke-dashoffset:0;marker:none;visibility:visible;display:inline;overflow:visible;enable-background:accumulate" />
    <path
       style="fill:none;stroke:#0000ff;stroke-width:4;stroke-linecap:round;stroke-linejoin:round;stroke-miterlimit:4;stroke-opacity:1;stroke-dasharray:none"
       d="m 221.58439,144.11266 c 2.32566,0.32833 2.53396,2.7903 3.32507,4.05953 1.31999,2.11774 1.43246,2.43236 2.0121,4.99286 0.41584,1.83691 0.75374,3.73633 -0.1287,5.72121 -1.64596,3.70225 -2.28428,6.07141 -4.63258,7.27574 -1.85742,0.95258 -3.79918,1.67694 -5.93727,1.1296 -1.5098,-0.38651 -3.6176,0.0244 -4.58783,-1.06128 -1.63657,-1.83134 -4.05591,-3.17231 -4.30747,-5.04877 -0.24011,-1.79106 0.77268,-3.67931 0.57093,-5.48256 -0.2971,-2.65555 1.3124,-4.12043 2.62002,-6.45615 0.66604,-1.18973 0.92231,-2.56715 2.66188,-3.71862 2.35934,-1.56172 5.27731,-1.85295 8.40385,-1.41156 z"
       id="path2905-4"
       sodipodi:nodetypes="csssssssssss" />
    <path
       sodipodi:nodetypes="csssccsssssc"
       d="m 158.70186,145.45987 c -0.27986,2.52998 0.27632,4.50616 0.83008,6.81439 0.22783,0.94963 0.60435,3.2411 0.89767,3.98127 0.27041,0.68219 0.45916,4.37669 0.79104,5.21408 1.20363,3.03678 0.94731,5.45921 0.67014,8.66365 m 10.38713,9.14926 c -0.10787,-1.10973 -0.6287,-2.65893 -1.08904,-3.82035 -0.18411,-0.46517 -0.34262,-2.34985 -0.65208,-2.71797 -0.39856,-0.47397 -1.504,-2.17735 -1.5784,-2.26577 -0.70692,-0.84079 -8.9268,0.13798 -9.85412,1.09946 -1.19304,1.23699 -3.87786,-0.25391 -4.11168,0.35411 -0.62436,1.62358 -0.75391,8.71614 -0.88355,10.2149"
       style="color:#000000;fill:none;stroke:#ff0000;stroke-width:4;stroke-linecap:round;stroke-linejoin:round;stroke-miterlimit:4;stroke-opacity:1;stroke-dasharray:none;stroke-dashoffset:0;marker:none;visibility:visible;display:inline;overflow:visible;enable-background:accumulate"
       id="path2861" />
    <path
       sodipodi:nodetypes="csssssssss"
       id="path2863"
       d="m 158.17143,196.555 c -1.02119,-6.8618 0.66819,-4.7849 0.625,-7.625 -0.038,-2.4993 -0.54357,-6.6591 -0.625,-8.25 -0.0657,-1.2843 4.30765,0 6.12501,0 1.31936,-0.001 3.26971,-1.0513 3.99999,0 0.78185,1.1256 0,2.2643 0,2.5 0,3.8334 -0.003,6.3248 0.5,10.125 0.0205,0.155 1.0383,1.2531 -0.5,3.375 -0.18296,0.2524 -2.16647,0 -2.49999,0 -3,0 -7.42879,1.1935 -7.62501,-0.125 z"
       style="color:#000000;fill:none;stroke:#ffff00;stroke-width:4;stroke-linecap:butt;stroke-linejoin:miter;stroke-miterlimit:4;stroke-opacity:1;stroke-dasharray:none;stroke-dashoffset:0;marker:none;visibility:visible;display:inline;overflow:visible;enable-background:accumulate" />
    <path
       style="fill:none;stroke:#0000ff;stroke-width:3.99999976;stroke-linecap:round;stroke-linejoin:round;stroke-miterlimit:4;stroke-opacity:1;stroke-dasharray:none"
       d="m 268.55826,145.82889 c -1.52169,-2.04006 -3.28542,-1.545 -4.58256,-1.54275 -2.19976,-0.63177 -2.2278,0.33708 -4.6134,0.16283 -1.29527,1.08791 -2.94711,1.00469 -4.08799,2.60084 -2.17968,1.5754 -2.77075,4.72354 -2.62518,7.79482 0.4171,2.26631 0.65374,4.49249 2.1033,6.37653 1.0239,1.33005 1.83955,3.14901 3.02868,4.09119 2.0983,0.90035 4.78573,3.08361 6.44743,2.98442 1.24152,-0.9986 2.99313,-1.18008 4.30575,-1.99009 1.73349,-1.63644 2.85892,-4.21811 4.59228,-5.85458 -0.0159,-1.5394 0.65399,-2.92509 0.12383,-4.19477 0.0243,-1.00041 -1.16462,-2.30359 -1.38521,-3.39645 -0.78143,-2.62101 -2.15457,-4.23764 -3.30693,-7.03199 z"
       id="path2905"
       sodipodi:nodetypes="cccccsccccccc" />
    <path
       style="fill:none;stroke:#0000ff;stroke-width:4;stroke-linecap:round;stroke-linejoin:round;stroke-miterlimit:4;stroke-opacity:1;stroke-dasharray:none"
       d="m 214.59173,169.77934 c -1.13438,2.71722 -5.44073,1.73919 -6.39282,2.6509 -3.87637,0.085 -7.73683,0.90044 -11.6106,0.93417 -3.35581,-0.17369 -6.51778,0.91842 -9.59231,1.32897 -1.46374,0.42896 -2.92738,0.85792 -4.39102,1.28686"
       id="path2907-1"
       sodipodi:nodetypes="ccccc" />
    <path
       id="path2909"
       style="fill:none;stroke:#0000ff;stroke-width:4;stroke-linecap:round;stroke-linejoin:round;stroke-miterlimit:4;stroke-opacity:1;stroke-dasharray:none"
       d="m 163.3735,194.16477 c -2.4347,-0.87861 -1.56706,-0.10448 -0.46668,-0.43563 2.82883,0.22174 4.93479,-0.48409 7.66236,-0.66614 3.6937,0.28084 7.12004,-1.95625 11.05639,-1.16457 0.6119,-2.73906 0.0444,-5.65692 0.21343,-8.48742 -0.28841,-2.48239 0.10176,-4.93173 0.33961,-7.3581 m -12.70207,21.60923 c -1.30334,-0.0865 0.98938,-0.58919 1.25799,-0.50401 0.85267,0.59389 4.75894,-1.38825 6.88938,-1.05701 3.53908,0.006 8.41526,-0.0503 11.56332,0.59404 -0.72065,-4.28051 -2.57986,-5.77914 -3.06777,-10.14047 -0.92806,-3.16545 -2.06799,-7.83438 -2.67577,-9.92508"
       sodipodi:nodetypes="cccccccccccc" />
    <path
       id="path2911"
       style="fill:none;stroke:#0000ff;stroke-width:4;stroke-linecap:round;stroke-linejoin:round;stroke-miterlimit:4;stroke-opacity:1;stroke-dasharray:none"
       d="m 238.84039,175.21061 c 0.90692,-2.58702 -2.9013,0.14794 -4.00752,-0.23799 -2.74841,-0.0142 -6.50142,0.64926 -9.37718,-0.27787 -3.86927,-0.63951 -7.84244,-1.31934 -11.89214,-2.25858 1.18645,2.63361 1.84612,5.20463 2.60827,7.16845 1.25745,3.24924 1.94288,6.71869 4.1404,9.56762 1.14504,1.64577 2.03438,3.0218 3.01778,4.77562 0.36021,0.95468 1.57069,1.59097 1.59859,2.52983"
       sodipodi:nodetypes="ccccsccc" />
    <path
       id="path2896"
       d="m 299.20195,174.58837 c -2.46929,0.59011 -5.56953,-1.16732 -6.5003,-0.40985 -3.79098,-0.81365 -7.73538,-0.91294 -11.51196,-1.77586 -3.2247,-0.94494 -6.55351,-0.61357 -9.63965,-0.92506 -1.52326,0.0789 -3.31158,0.6881 -4.83475,-1.00079"
       style="fill:none;stroke:#0000ff;stroke-width:4;stroke-linecap:round;stroke-linejoin:round;stroke-miterlimit:4;stroke-opacity:1;stroke-dasharray:none"
       sodipodi:nodetypes="ccccc" />
    <path
       style="fill:none;stroke:#0000ff;stroke-width:4;stroke-linecap:round;stroke-linejoin:round;stroke-miterlimit:4;stroke-opacity:1;stroke-dasharray:none"
       d="m 314.37228,197.6945 c -0.65009,-1.83524 -1.26685,-0.37107 -2.29356,-0.6217 -3.07768,0.18141 -4.66563,-0.12411 -7.41887,-0.29166 -3.9004,0.4764 -6.70418,-0.41375 -11.02134,0.21488 0.26205,-3.36801 0.82624,-7.23026 1.57484,-10.7814 0.13447,-3.44614 1.06103,-7.10056 3.28624,-10.57244"
       id="path2918"
       sodipodi:nodetypes="cccccc" />
    <path
       style="fill:none;stroke:#0000ff;stroke-width:4;stroke-linecap:round;stroke-linejoin:round;stroke-miterlimit:4;stroke-opacity:1;stroke-dasharray:none"
       d="m 318.52731,193.04564 c 1.26611,-0.0928 -1.09852,-0.57808 -1.86657,-0.41295 -0.64306,0.52029 -3.79639,-0.23492 -5.88891,-0.2744 -3.78206,0.76341 -7.23579,-0.45193 -10.14387,0.1446 -0.40575,-3.49497 -1.3719,-3.21267 -0.62272,-7.12698 0.53849,-2.80936 0.94603,-8.322 -0.58468,-10.11906"
       id="path2898"
       sodipodi:nodetypes="cccccc" />
    <path
       id="path2900"
       style="fill:none;stroke:#0000ff;stroke-width:4;stroke-linecap:round;stroke-linejoin:round;stroke-miterlimit:4;stroke-opacity:1;stroke-dasharray:none"
       d="m 242.09952,172.51399 c 1.83519,0.28637 4.51903,0.24288 5.6061,0.69953 2.73528,0.26858 4.41506,1.12599 7.51341,1.19729 3.74881,0.26508 8.80373,-0.3147 12.65272,-2.02555 -0.88146,4.44872 -2.1044,4.9137 -3.37566,6.88556 -1.71426,2.659 -2.00607,4.27563 -2.74103,7.77993 -0.32162,1.75324 -1.18763,3.85117 -2.14131,5.62133 -0.34406,0.96061 -2.07394,1.35206 -2.35121,3.97064"
       sodipodi:nodetypes="ccccsccc" />
    <path
       style="fill:none;stroke:#80ff00;stroke-width:3.99999976;stroke-linecap:round;stroke-linejoin:round;stroke-miterlimit:4;stroke-opacity:1;stroke-dasharray:none"
       d="m 430.75849,206.44046 c -5.23126,-0.61205 -11.62193,-3.25025 -16.63977,-6.66522 -9.54875,-7.93387 -16.26521,-15.20844 -26.54689,-22.06768 -5.28791,-5.67951 -14.24357,-10.53681 -19.47789,-15.23104 -4.87598,-4.21668 -12.10322,-13.4585 -20.34736,-13.73705"
       id="path2952-1"
       sodipodi:nodetypes="ccccc" />
    <path
       style="fill:none;stroke:#80ff00;stroke-width:3.99999976;stroke-linecap:round;stroke-linejoin:round;stroke-miterlimit:4;stroke-opacity:1;stroke-dasharray:none"
       d="m 384.72158,220.72695 c 3.2534,-2.79548 6.30802,-5.93314 10.75643,-7.11346 5.14127,-1.99174 10.14834,-4.34845 15.70487,-5.68299 3.23197,-1.40375 10.4228,-6.08291 7.53186,0.11617 -0.41199,5.60981 -1.458,10.81643 -3.66739,15.54578 -1.83917,5.16834 -3.51245,11.19204 -6.117,15.34779 -1.49841,0.54613 -0.70878,2.55674 -2.02295,3.28406"
       id="path2956" />
    <path
       style="fill:none;stroke:#80ff00;stroke-width:3.99999976;stroke-linecap:round;stroke-linejoin:round;stroke-miterlimit:4;stroke-opacity:1;stroke-dasharray:none"
       d="m 340.84826,198.79585 c 0.50397,-0.72541 3.2119,-4.62265 4.55371,-6.5538 4.22971,-6.04967 6.31259,-7.31145 11.73439,-14.26919 3.05587,-4.27985 9.36831,-11.87632 11.02349,-13.97384 -2.58594,5.22165 -5.28008,10.50377 -7.83712,15.7066 -4.11107,7.98903 -7.40431,15.42057 -9.04799,21.73781 -0.11228,0.70759 0.11729,1.57247 -1.14601,2.99015"
       id="path2958" />
    <path
       style="color:#000000;fill:none;stroke:#80ff00;stroke-width:3.99999976;stroke-linecap:round;stroke-linejoin:round;stroke-miterlimit:4;stroke-opacity:1;stroke-dasharray:none;stroke-dashoffset:0;marker:none;visibility:visible;display:inline;overflow:visible;enable-background:accumulate"
       d="m 347.96033,134.35102 c -0.90766,-0.93187 -4.72466,2.43835 -6.85582,3.33909 -1.73196,0.73206 -3.59546,1.19808 -5.21785,2.10333 -1.79949,1.00411 -3.45791,2.2631 -5.29953,3.18704 -2.76446,1.38703 -5.68354,2.50567 -8.55252,3.69911 -1.40264,0.58344 -2.93262,0.53832 -4.0719,1.51618 -1.41464,1.21513 -4.72113,1.77751 -4.6077,3.06651 0.10545,1.19827 3.22286,1.14614 4.51958,2.23467 4.16775,3.49846 6.69559,2.71996 10.17385,3.38086 2.45532,0.46646 4.76712,0.009 7.13553,0.69494 2.59724,0.75196 4.83973,2.29762 7.42768,3.08418 1.6284,0.49497 3.31667,0.42441 4.94287,0.8039 2.43047,0.56716 0.93533,-2.04111 0.75439,-3.09449 -0.33486,-1.94961 -0.2946,-3.93232 -0.52052,-5.89224 -0.19523,-1.6939 0.39329,-3.40956 0.0473,-5.1393 -0.37394,-1.87003 -0.78568,-3.79772 -0.70338,-5.69792 0.0788,-1.81926 0.27846,-3.66388 0.59263,-5.48547 0.15438,-0.895 0.69357,-1.32997 0.23537,-1.80039 z"
       id="path2870"
       sodipodi:nodetypes="csssssssssssssssss" />
    <path
       style="color:#000000;fill:none;stroke:#80ff00;stroke-width:4;stroke-linecap:round;stroke-linejoin:round;stroke-miterlimit:4;stroke-opacity:1;stroke-dasharray:none;stroke-dashoffset:0;marker:none;visibility:visible;display:inline;overflow:visible;enable-background:accumulate"
       d="m 415.46106,234.21091 c -0.20413,0.20818 -2.79463,1.90819 -3.02907,2.07628 -0.3315,0.23775 -2.15017,1.77554 -2.46011,2.04749 -0.3764,0.32911 -2.11488,1.76704 -2.50758,2.07653 -1.19477,0.94098 -2.14889,1.83601 -3.62975,2.71958 -0.53164,0.31716 -1.19645,1.24178 -1.80504,1.40065"
       id="path3655-7"
       sodipodi:nodetypes="csssss" />
    <path
       style="color:#000000;fill:none;stroke:#80ff00;stroke-width:3.99999976;stroke-linecap:round;stroke-linejoin:round;stroke-miterlimit:4;stroke-opacity:1;stroke-dasharray:none;stroke-dashoffset:0;marker:none;visibility:visible;display:inline;overflow:visible;enable-background:accumulate"
       d="m 430.66206,206.75 c 7.83522,2.07067 8.91721,-28.38439 -3.27961,-57.83997 -3.51344,-8.48502 4.5846,-22.35979 23.79086,-20.81311 11.94566,0.96199 16.58866,23.28912 15.76604,32.50318 -0.5228,5.85584 5.2093,11.86772 8.22226,21.88767 2.27141,7.55383 -0.13315,16.42937 4.5e-4,17.51223"
       id="path2960"
       sodipodi:nodetypes="csssss" />
    <path
       style="color:#000000;fill:none;stroke:#c87137;stroke-width:4;stroke-linecap:round;stroke-linejoin:round;stroke-miterlimit:4;stroke-opacity:1;stroke-dasharray:none;stroke-dashoffset:0;marker:none;visibility:visible;display:inline;overflow:visible;enable-background:accumulate"
       d="m 380.30875,180.92442 c -0.10705,17.01612 -2.31611,17.14212 -0.36419,17.29636 2.53197,0.20007 7.62375,0.17088 10.39414,-0.0457 4.54891,-0.35562 5.79148,0.5665 7.74769,0.2819 3.41036,-0.49615 16.77346,0.99812 16.70983,-0.86119 -0.13149,-3.84255 -1.17923,-14.18403 -1.22392,-16.54199 -0.10178,-5.37022 -1.741,-13.80789 -1.7975,-18.23125 -0.0231,-1.80845 -4.13995,-2.24752 -12.43697,-1.14064 -9.96355,1.3292 -16.95758,-1.69254 -16.95758,1.22274 l 0,1e-5 0,-1e-5 c 0,0 -2.03379,12.02495 -2.0715,18.01977 z"
       id="path2893"
       sodipodi:nodetypes="cssssssssccs" />
    <path
       style="color:#000000;fill:none;stroke:#c87137;stroke-width:4;stroke-linecap:round;stroke-linejoin:round;stroke-miterlimit:4;stroke-opacity:1;stroke-dasharray:none;stroke-dashoffset:0;marker:none;visibility:visible;display:inline;overflow:visible;enable-background:accumulate"
       d="m 396.5887,162.75736 c -0.16395,3.85882 -0.4205,8.16744 -0.4205,12.09105 0,1.50196 0.92089,3.41011 0.5455,4.83165 -0.25073,0.94949 0.22097,7.45576 0.22097,8.63784 0,3.90593 -0.096,5.07339 -0.096,8.99491"
       id="path2897"
       sodipodi:nodetypes="csssc" />
    <path
       style="color:#000000;fill:none;stroke:#80ff00;stroke-width:4;stroke-linecap:round;stroke-linejoin:round;stroke-miterlimit:4;stroke-opacity:1;stroke-dasharray:none;stroke-dashoffset:0;marker:none;visibility:visible;display:inline;overflow:visible;enable-background:accumulate"
       d="m 371.15043,199.2869 c 1.45344,0.0349 2.44638,0.32443 3.64898,0.41345 1.17354,0.0869 2.27461,0.0363 3.20006,0.0634 0.78842,0.0229 1.86632,0.13867 3.25498,0.0717 1.06654,-0.0514 2.23612,0.26271 4.06004,0.17142 0.61829,-0.0309 1.64862,0.0588 2.74559,0.27219"
       id="path3655-4"
       sodipodi:nodetypes="csssss" />
    <path
       id="path4455"
       style="color:#000000;fill:none;stroke:#ff0000;stroke-width:4;stroke-linecap:round;stroke-linejoin:round;stroke-miterlimit:4;stroke-opacity:1;stroke-dasharray:none;stroke-dashoffset:0;marker:none;visibility:visible;display:inline;overflow:visible;enable-background:accumulate"
       d="m 408.19229,142.60964 c -2.54536,-0.0119 -4.45202,0.7492 -6.68912,1.54292 -0.92037,0.32652 -3.15944,0.94223 -3.86461,1.31185 -0.64996,0.34074 -4.30404,0.91741 -5.10182,1.33562 -2.89318,1.51668 -5.32912,1.51682 -8.54495,1.57858 M 375.987,159.6713 c 1.09221,-0.2241 2.57796,-0.90519 3.68446,-1.48521 0.4432,-0.23208 2.30071,-0.58813 2.6342,-0.93466 0.42938,-0.44625 2.00689,-1.72488 2.087,-1.80818 0.76167,-0.7915 -1.07709,-8.86266 -2.13086,-9.68359 -1.35572,-1.05618 -0.15578,-3.88303 -0.78504,-4.05154 -1.6803,-0.44996 -8.74707,0.16796 -10.25115,0.19684"
       sodipodi:nodetypes="csssccsssssc" />
    <path
       style="color:#000000;fill:none;stroke:#008000;stroke-width:4;stroke-linecap:butt;stroke-linejoin:miter;stroke-miterlimit:4;stroke-opacity:1;stroke-dasharray:none;stroke-dashoffset:0;marker:none;visibility:visible;display:inline;overflow:visible;enable-background:accumulate"
       d="m 398.90726,148.56119 c 0.11914,1.30964 1.11415,2.60692 2.91059,4.57353 2.16321,2.36811 2.70656,3.19341 1.48948,4.19202 -0.27729,0.22763 -2.60361,0.0869 -3.00446,0.1003 -3.60532,0.12036 -9.87336,1.48851 -9.1682,0.16566 3.85774,-7.23707 5.11123,-5.84621 4.95293,-9.0315"
       id="path2844" />
    <path
       style="color:#000000;fill:none;stroke:#008000;stroke-width:4;stroke-linecap:butt;stroke-linejoin:miter;stroke-miterlimit:4;stroke-opacity:1;stroke-dasharray:none;stroke-dashoffset:0;marker:none;visibility:visible;display:inline;overflow:visible;enable-background:accumulate"
       d="m 397.82021,190.3755 c -0.14427,2.80282 -5.40265,6.99118 -5.56327,8.77288 -0.12963,1.43829 5.16595,0.48183 7.34989,0.55864 1.58543,0.0569 3.86166,0.48804 5.12241,-0.27062 0.80769,-0.48573 0.6716,-1.67962 -1.43057,-4.13478 -1.92738,-2.251 -2.77725,-3.64493 -2.65883,-4.92155"
       id="path2862-4-1" />
    <path
       style="fill:none;stroke:#80ff00;stroke-width:3.99999976;stroke-linecap:round;stroke-linejoin:round;stroke-miterlimit:4;stroke-opacity:1;stroke-dasharray:none"
       d="m 48.900747,205.3394 c 5.23126,-0.61205 11.62193,-3.25025 16.63977,-6.66522 9.54875,-7.93387 16.265213,-15.20844 26.546893,-22.06768 5.28791,-5.67951 14.24357,-10.53681 19.47789,-15.23104 4.87598,-4.21668 12.10322,-13.4585 20.34736,-13.73705"
       id="path2952-1-8"
       sodipodi:nodetypes="ccccc" />
    <path
       style="fill:none;stroke:#80ff00;stroke-width:3.99999976;stroke-linecap:round;stroke-linejoin:round;stroke-miterlimit:4;stroke-opacity:1;stroke-dasharray:none"
       d="m 94.93766,219.62589 c -3.2534,-2.79548 -6.30802,-5.93314 -10.75643,-7.11346 -5.141273,-1.99174 -10.148343,-4.34845 -15.704873,-5.68299 -3.23197,-1.40375 -10.4228,-6.08291 -7.53186,0.11617 0.41199,5.60981 1.458,10.81643 3.66739,15.54578 1.83917,5.16834 3.51245,11.19204 6.117,15.34779 1.49841,0.54613 0.70878,2.55674 2.02295,3.28406"
       id="path2956-2" />
    <path
       style="fill:none;stroke:#80ff00;stroke-width:3.99999976;stroke-linecap:round;stroke-linejoin:round;stroke-miterlimit:4;stroke-opacity:1;stroke-dasharray:none"
       d="m 138.81098,197.69479 c -0.50397,-0.72541 -3.2119,-4.62265 -4.55371,-6.5538 -4.22971,-6.04967 -6.31259,-7.31145 -11.73439,-14.26919 -3.05587,-4.27985 -9.36831,-11.87632 -11.02349,-13.97384 2.58594,5.22165 5.28008,10.50377 7.83712,15.7066 4.11107,7.98903 7.40431,15.42057 9.04799,21.73781 0.11228,0.70759 -0.11729,1.57247 1.14601,2.99015"
       id="path2958-4" />
    <path
       style="color:#000000;fill:none;stroke:#80ff00;stroke-width:3.99999976;stroke-linecap:round;stroke-linejoin:round;stroke-miterlimit:4;stroke-opacity:1;stroke-dasharray:none;stroke-dashoffset:0;marker:none;visibility:visible;display:inline;overflow:visible;enable-background:accumulate"
       d="m 131.69891,160.27818 c 0.90766,0.93187 4.72466,-2.43835 6.85582,-3.33909 1.73196,-0.73206 3.59546,-1.19808 5.21785,-2.10333 1.79949,-1.00411 3.45791,-2.2631 5.29953,-3.18704 2.76446,-1.38703 5.68354,-2.50567 8.55252,-3.69911 1.40264,-0.58344 2.93262,-0.53832 4.0719,-1.51618 1.41464,-1.21513 4.72113,-1.77751 4.6077,-3.06651 -0.10545,-1.19827 -3.22286,-1.14614 -4.51958,-2.23467 -4.16775,-3.49846 -6.69559,-2.71996 -10.17385,-3.38086 -2.45532,-0.46646 -4.76712,-0.009 -7.13553,-0.69494 -2.59724,-0.75196 -4.83973,-2.29762 -7.42768,-3.08418 -1.6284,-0.49497 -3.31667,-0.42441 -4.94287,-0.8039 -2.43047,-0.56716 -0.93533,2.04111 -0.75439,3.09449 0.33486,1.94961 0.2946,3.93232 0.52052,5.89224 0.19523,1.6939 -0.39329,3.40956 -0.0473,5.1393 0.37394,1.87003 0.78568,3.79772 0.70338,5.69792 -0.0788,1.81926 -0.27846,3.66388 -0.59263,5.48547 -0.15438,0.895 -0.69357,1.32997 -0.23537,1.80039 z"
       id="path2870-5"
       sodipodi:nodetypes="csssssssssssssssss" />
    <path
       style="color:#000000;fill:none;stroke:#80ff00;stroke-width:3.99999976;stroke-linecap:round;stroke-linejoin:round;stroke-miterlimit:4;stroke-opacity:1;stroke-dasharray:none;stroke-dashoffset:0;marker:none;visibility:visible;display:inline;overflow:visible;enable-background:accumulate"
       d="m 48.997177,205.64894 c -7.83522,2.07067 -8.91721,-28.38439 3.27961,-57.83997 3.51344,-8.48502 -4.5846,-22.35979 -23.79086,-20.81311 -11.94566,0.96199 -16.58866,23.28912 -15.76604,32.50318 0.5228,5.85584 -5.2093,11.86772 -8.22226,21.88767 -2.27141,7.55383 0.13315,16.42937 -4.5e-4,17.51223"
       id="path2960-5"
       sodipodi:nodetypes="csssss" />
    <path
       sodipodi:nodetypes="cssssssssccs"
       id="path2907"
       d="m 100.168,182.92442 c 0.10705,17.01612 2.31611,17.14212 0.36419,17.29636 -2.531969,0.20007 -7.623749,0.17088 -10.394139,-0.0457 -4.54891,-0.35562 -5.79148,0.5665 -7.74769,0.2819 -3.41036,-0.49615 -16.77346,0.99812 -16.70983,-0.86119 0.13149,-3.84255 1.17923,-14.18403 1.22392,-16.54199 0.10178,-5.37022 1.741,-13.80789 1.7975,-18.23125 0.0231,-1.80845 4.13995,-2.24752 12.43697,-1.14064 9.96355,1.3292 16.95758,-1.69254 16.95758,1.22274 l 0,1e-5 0,-1e-5 c 0,0 2.033789,12.02495 2.071499,18.01977 z"
       style="color:#000000;fill:none;stroke:#c87137;stroke-width:4;stroke-linecap:round;stroke-linejoin:round;stroke-miterlimit:4;stroke-opacity:1;stroke-dasharray:none;stroke-dashoffset:0;marker:none;visibility:visible;display:inline;overflow:visible;enable-background:accumulate" />
    <path
       sodipodi:nodetypes="csssc"
       id="path2910"
       d="m 83.888051,199.31281 c 0.16395,-3.85882 0.4205,-8.16744 0.4205,-12.09105 0,-1.50196 -0.92089,-3.41011 -0.5455,-4.83165 0.25073,-0.94949 -0.22097,-7.45576 -0.22097,-8.63784 0,-3.90593 0.096,-5.07339 0.096,-8.99491"
       style="color:#000000;fill:none;stroke:#c87137;stroke-width:4;stroke-linecap:round;stroke-linejoin:round;stroke-miterlimit:4;stroke-opacity:1;stroke-dasharray:none;stroke-dashoffset:0;marker:none;visibility:visible;display:inline;overflow:visible;enable-background:accumulate" />
    <path
       sodipodi:nodetypes="csssss"
       id="path2913"
       d="m 109.32632,201.2869 c -1.45344,0.0349 -2.44638,0.32443 -3.64898,0.41345 -1.17354,0.0869 -2.27461,0.0363 -3.20006,0.0634 -0.78842,0.0229 -1.86632,0.13867 -3.254979,0.0717 -1.06654,-0.0514 -2.23612,0.26271 -4.06004,0.17142 -0.61829,-0.0309 -1.64862,0.0588 -2.74559,0.27219"
       style="color:#000000;fill:none;stroke:#80ff00;stroke-width:4;stroke-linecap:round;stroke-linejoin:round;stroke-miterlimit:4;stroke-opacity:1;stroke-dasharray:none;stroke-dashoffset:0;marker:none;visibility:visible;display:inline;overflow:visible;enable-background:accumulate" />
    <path
       id="path2917"
       d="m 80.508831,192.63404 c -0.11914,1.30964 -1.11415,2.60692 -2.91059,4.57353 -2.16321,2.36811 -2.70656,3.19341 -1.48948,4.19202 0.27729,0.22763 2.60361,0.0869 3.00446,0.1003 3.60532,0.12036 9.87336,1.48851 9.1682,0.16566 -3.85774,-7.23707 -5.11123,-5.84621 -4.95293,-9.0315"
       style="color:#000000;fill:none;stroke:#008000;stroke-width:4;stroke-linecap:butt;stroke-linejoin:miter;stroke-miterlimit:4;stroke-opacity:1;stroke-dasharray:none;stroke-dashoffset:0;marker:none;visibility:visible;display:inline;overflow:visible;enable-background:accumulate" />
    <path
       id="path2919"
       d="m 83.540424,149.77232 c 0.14427,2.80282 5.40265,6.99118 5.56327,8.77288 0.12963,1.43829 -5.16595,0.48183 -7.34989,0.55864 -1.58543,0.0569 -3.86166,0.48804 -5.12241,-0.27062 -0.80769,-0.48573 -0.6716,-1.67962 1.43057,-4.13478 1.92738,-2.251 2.77725,-3.64493 2.65883,-4.92155"
       style="color:#000000;fill:none;stroke:#008000;stroke-width:4;stroke-linecap:butt;stroke-linejoin:miter;stroke-miterlimit:4;stroke-opacity:1;stroke-dasharray:none;stroke-dashoffset:0;marker:none;visibility:visible;display:inline;overflow:visible;enable-background:accumulate" />
    <path
       id="path5493-8"
       style="color:#000000;fill:none;stroke:#ff0000;stroke-width:4;stroke-linecap:round;stroke-linejoin:round;stroke-miterlimit:4;stroke-opacity:1;stroke-dasharray:none;stroke-dashoffset:0;marker:none;visibility:visible;display:inline;overflow:visible;enable-background:accumulate"
       d="m 95.871935,149.0839 c -1.34935,-0.64391 -3.516746,-0.61648 -6.928066,-0.91081 -4.286844,-0.33111 -5.299964,-1.76983 -8.588883,-1.75102 -3.735627,-1.28521 -5.938521,-2.68509 -10.649522,-3.09333 m 35.850006,-0.55501 c -3.53992,0.004 -8.212548,-0.68899 -8.257852,0.96368 -0.531131,6.10013 -3.753107,10.4094 -2.522044,12.49558 3.268602,1.48656 4.689872,2.94995 6.983606,4.66841"
       sodipodi:nodetypes="cccccccc" />
  </g>
</svg>
