<?xml version="1.0" encoding="UTF-8" standalone="no"?>
<!-- Created with Inkscape (http://www.inkscape.org/) -->

<svg
   xmlns:dc="http://purl.org/dc/elements/1.1/"
   xmlns:cc="http://creativecommons.org/ns#"
   xmlns:rdf="http://www.w3.org/1999/02/22-rdf-syntax-ns#"
   xmlns:svg="http://www.w3.org/2000/svg"
   xmlns="http://www.w3.org/2000/svg"
   xmlns:sodipodi="http://sodipodi.sourceforge.net/DTD/sodipodi-0.dtd"
   xmlns:inkscape="http://www.inkscape.org/namespaces/inkscape"
   width="480"
   height="320"
   id="svg2"
   version="1.1"
   inkscape:version="0.47 r22583"
   sodipodi:docname="itnas227.svg"
   inkscape:export-xdpi="90"
   inkscape:export-ydpi="90"
   inkscape:export-filename="itnas227.png">
  <defs
     id="defs4" />
  <sodipodi:namedview
     id="base"
     pagecolor="#ffffff"
     bordercolor="#666666"
     borderopacity="1.0"
     inkscape:pageopacity="1"
     inkscape:pageshadow="2"
     inkscape:zoom="1"
     inkscape:cx="311.08387"
     inkscape:cy="121.0709"
     inkscape:document-units="px"
     inkscape:current-layer="layer1"
     showgrid="false"
     inkscape:snap-nodes="true"
     inkscape:snap-global="true"
     inkscape:snap-grids="true"
     showguides="true"
     inkscape:window-width="1280"
     inkscape:window-height="800"
     inkscape:window-x="1280"
     inkscape:window-y="1024"
     inkscape:window-maximized="1">
    <inkscape:grid
       empspacing="5"
       visible="true"
       enabled="true"
       snapvisiblegridlinesonly="true"
       type="xygrid"
       id="grid2816" />
  </sodipodi:namedview>
  <metadata
     id="metadata7">
    <rdf:RDF>
      <cc:Work
         rdf:about="">
        <dc:format>image/svg+xml</dc:format>
        <dc:type
           rdf:resource="http://purl.org/dc/dcmitype/StillImage" />
        <dc:title></dc:title>
      </cc:Work>
    </rdf:RDF>
  </metadata>
  <g
     inkscape:label="Layer 1"
     inkscape:groupmode="layer"
     id="layer1"
     transform="translate(0,0)">
    <path
       style="fill:none;stroke:#000000;stroke-width:2;stroke-linecap:butt;stroke-linejoin:miter;stroke-miterlimit:4;stroke-opacity:1;stroke-dasharray:2, 2;stroke-dashoffset:0"
       d="m 306.30988,248.01934 0,0 c 5.28436,-0.4066 8.46657,0.20982 8.6829,3.98208 0.37273,6.49962 -7.5777,12.89561 -5.70101,24.80211 1.51797,9.63059 10.60438,10.20382 12.35702,12.59987 1.5553,2.12628 -5.31962,5.45759 -1.02271,11.08433 2.62042,3.4314 11.36778,4.49929 13.45831,-2.6864 1.91266,-6.57434 -5.92748,-7.81691 -3.56501,-9.76833 4.25494,-3.51461 6.68027,-5.28954 6.28322,-14.10293 -0.62319,-13.91066 -1.91871,-12.77644 -4.89386,-18.33302 -2.87638,-5.3721 2.13465,-9.71167 4.53654,-9.89648"
       id="path5999" />
    <g
       transform="matrix(-0.08405024,-0.49288493,0.49288493,-0.08405024,12.858845,514.70662)"
       id="g4295"
       style="stroke-width:2;stroke-miterlimit:4;stroke-dasharray:none">
      <path
         id="path3379"
         style="fill:none;stroke:#00ff00;stroke-width:2;stroke-linecap:butt;stroke-linejoin:miter;stroke-miterlimit:4;stroke-opacity:1;stroke-dasharray:none"
         d="m 355.9297,715.24596 c 0,0 39.24793,-13.01169 39.24793,-13.01169 l -39.16834,-13.76569 c 0,0 -0.0796,26.77738 -0.0796,26.77738 l 1e-5,0 z"
         sodipodi:nodetypes="ccccc" />
      <g
         id="g4287"
         style="stroke-width:2;stroke-miterlimit:4;stroke-dasharray:none">
        <path
           id="path3383"
           d="m 371.62036,708.72351 -0.0314,-13.73249"
           style="fill:none;stroke:#0000ff;stroke-width:2;stroke-linecap:butt;stroke-linejoin:bevel;stroke-miterlimit:4;stroke-opacity:1;stroke-dasharray:none" />
        <path
           id="path3385"
           d="m 376.18181,705.21741 0.0878,-6.72028"
           style="fill:none;stroke:#0000ff;stroke-width:2;stroke-linecap:butt;stroke-linejoin:bevel;stroke-miterlimit:4;stroke-opacity:1;stroke-dasharray:none" />
        <path
           style="color:#000000;fill:none;stroke:#0000ff;stroke-width:2;stroke-linecap:butt;stroke-linejoin:bevel;stroke-miterlimit:4;stroke-opacity:1;stroke-dasharray:none;stroke-dashoffset:0;marker:none;visibility:visible;display:inline;overflow:visible;enable-background:accumulate"
           d="m 353.79955,695.04474 c -1.74046,2.59236 -4.57365,5.20477 -5.72669,7.95796 -1.15304,2.75321 -0.1313,5.68189 2.47034,5.66704 2.60164,-0.0149 3.72687,-2.79593 2.86335,-5.66704 -0.86353,-2.8711 -3.98623,-5.06415 -6.232,-7.53595"
           id="path3030-6-4"
           sodipodi:nodetypes="czzzc" />
        <path
           style="color:#000000;fill:none;stroke:#0000ff;stroke-width:2;stroke-linecap:butt;stroke-linejoin:bevel;stroke-miterlimit:4;stroke-opacity:1;stroke-dasharray:none;stroke-dashoffset:0;marker:none;visibility:visible;display:inline;overflow:visible;enable-background:accumulate"
           d="m 366.35051,708.65083 c -2.13356,-3.95705 -5.08175,-4.05662 -7.74352,-0.088"
           id="rect10452-1-7-4-2-0"
           sodipodi:nodetypes="cc" />
        <path
           style="color:#000000;fill:none;stroke:#0000ff;stroke-width:2;stroke-linecap:butt;stroke-linejoin:bevel;stroke-miterlimit:4;stroke-opacity:1;stroke-dasharray:none;stroke-dashoffset:0;marker:none;visibility:visible;display:inline;overflow:visible;enable-background:accumulate"
           d="m 366.25372,695.06371 c -1.66338,4.19209 -5.97081,4.14958 -7.61852,0.0367"
           id="rect10452-1-4-4-0-7-9"
           sodipodi:nodetypes="cc" />
        <path
           style="color:#000000;fill:none;stroke:#0000ff;stroke-width:2;stroke-linecap:butt;stroke-linejoin:bevel;stroke-miterlimit:4;stroke-opacity:1;stroke-dasharray:none;stroke-dashoffset:0;marker:none;visibility:visible;display:inline;overflow:visible;enable-background:accumulate"
           d="m 357.79068,701.88677 9.33026,0.0884"
           id="rect10452-0-7-4-1-8" />
      </g>
    </g>
    <g
       transform="matrix(0.06747087,-0.49542676,0.49542676,0.06747087,258.5259,404.0056)"
       id="g2941"
       style="stroke-width:2;stroke-miterlimit:4;stroke-dasharray:none">
      <path
         id="path2914"
         style="fill:none;stroke:#00ff00;stroke-width:2;stroke-linecap:butt;stroke-linejoin:miter;stroke-miterlimit:4;stroke-opacity:1;stroke-dasharray:none"
         d="m 264.52427,95.80081 c 0,0 39.24793,-13.01169 39.24793,-13.01169 L 264.60386,69.02343 c 0,0 -0.0796,26.77738 -0.0796,26.77738 l 10e-6,0 z"
         sodipodi:nodetypes="ccccc" />
      <g
         id="g2936"
         style="stroke-width:2;stroke-miterlimit:4;stroke-dasharray:none">
        <path
           id="path2918"
           style="color:#000000;fill:none;stroke:#0000ff;stroke-width:2;stroke-linecap:butt;stroke-linejoin:bevel;stroke-miterlimit:4;stroke-opacity:1;stroke-dasharray:none;stroke-dashoffset:0;marker:none;visibility:visible;display:inline;overflow:visible;enable-background:accumulate"
           d="m 273.83282,88.55378 -7.30791,-12.283319 m 0,12.283319 7.30791,-12.283319"
           sodipodi:nodetypes="cccc" />
        <path
           sodipodi:nodetypes="cccc"
           d="m 283.11077,88.55378 -7.3079,-12.283319 m 0,12.283319 7.3079,-12.283319"
           style="color:#000000;fill:none;stroke:#0000ff;stroke-width:2;stroke-linecap:butt;stroke-linejoin:bevel;stroke-miterlimit:4;stroke-opacity:1;stroke-dasharray:none;stroke-dashoffset:0;marker:none;visibility:visible;display:inline;overflow:visible;enable-background:accumulate"
           id="path2930" />
        <path
           sodipodi:nodetypes="cccc"
           d="m 262.31454,88.55378 -7.3079,-12.283319 m 0,12.283319 7.3079,-12.283319"
           style="color:#000000;fill:none;stroke:#0000ff;stroke-width:2;stroke-linecap:butt;stroke-linejoin:bevel;stroke-miterlimit:4;stroke-opacity:1;stroke-dasharray:none;stroke-dashoffset:0;marker:none;visibility:visible;display:inline;overflow:visible;enable-background:accumulate"
           id="path2934" />
      </g>
    </g>
    <path
       style="color:#000000;fill:none;stroke:#ba4571;stroke-width:2;stroke-linecap:butt;stroke-linejoin:miter;stroke-miterlimit:4;stroke-opacity:1;stroke-dasharray:none;stroke-dashoffset:0;marker:none;visibility:visible;display:inline;overflow:visible;enable-background:accumulate"
       d="m 400,235 0,20"
       id="path11954-1" />
    <path
       style="color:#000000;fill:none;stroke:#ba4571;stroke-width:2;stroke-linecap:butt;stroke-linejoin:miter;stroke-miterlimit:4;stroke-opacity:1;stroke-dasharray:none;stroke-dashoffset:0;marker:none;visibility:visible;display:inline;overflow:visible;enable-background:accumulate"
       d="m 390,245 20,0"
       id="path11956-5" />
    <g
       id="g7765"
       transform="matrix(-0.88971826,0.45651005,-0.45651005,-0.88971826,96.02886,54.211819)">
      <g
         transform="translate(-106.19878,-52.789203)"
         id="g7160">
        <path
           sodipodi:nodetypes="ccccc"
           d="m 169.3616,113.77679 0.52265,13.84374 c -10.55148,-7.48858 -17.42179,-6.72932 -27.37094,-1.40548 l 0.45482,-12.51201 c 9.77928,-6.31967 17.42892,-6.1614 26.39347,0.0737 z"
           style="fill:none;stroke:#0000ff;stroke-width:4;stroke-linecap:butt;stroke-linejoin:miter;stroke-miterlimit:4;stroke-opacity:1;stroke-dasharray:none"
           id="rect10452-1-8-0-7-2" />
        <path
           style="color:#000000;fill:none;stroke:#0000ff;stroke-width:4;stroke-linecap:butt;stroke-linejoin:miter;stroke-miterlimit:4;stroke-opacity:1;stroke-dasharray:none;stroke-dashoffset:0;marker:none;visibility:visible;display:inline;overflow:visible;enable-background:accumulate"
           d="m 143.72874,89.083426 c 0,7.603452 0.15858,14.476734 6.26332,14.385864 6.05465,-0.0901 6.6486,-12.445714 12.60668,-12.397124 6.00815,0.049 6.07007,6.582042 6.07007,14.378274"
           id="path4346-45"
           sodipodi:nodetypes="czzs" />
        <path
           id="path6598"
           style="color:#000000;fill:none;stroke:#0000ff;stroke-width:4;stroke-linecap:square;stroke-linejoin:miter;stroke-miterlimit:4;stroke-opacity:1;stroke-dasharray:none;stroke-dashoffset:0;marker:none;visibility:visible;display:inline;overflow:visible;enable-background:accumulate"
           d="m 156.19878,84.457876 0,-16.5 m 11.10714,8.25 -22.21428,0" />
      </g>
      <path
         sodipodi:nodetypes="ccccccccccccc"
         d="M 50,-30 30,40 20,50 0,120 l 20,-10 20,0 10,10 10,-10 20,0 20,10 L 80,50 70,40 50,-30 z"
         style="color:#000000;fill:none;stroke:#808080;stroke-width:4;stroke-linecap:butt;stroke-linejoin:miter;stroke-miterlimit:4;stroke-opacity:1;stroke-dasharray:none;stroke-dashoffset:0;marker:none;visibility:visible;display:inline;overflow:visible;enable-background:accumulate"
         id="path10399-9-40-1" />
    </g>
    <g
       id="g5325"
       transform="matrix(-0.04745502,0.24545473,-0.24545473,-0.04745502,307.81047,129.33949)">
      <path
         sodipodi:nodetypes="cccc"
         id="path4547-1"
         d="m 290,245 -25,25 50,0 -25,-25 z"
         style="fill:none;stroke:#00ff66;stroke-width:4;stroke-linecap:butt;stroke-linejoin:miter;stroke-miterlimit:4;stroke-opacity:1;stroke-dasharray:none" />
      <path
         transform="translate(0,-10)"
         d="m 300,270 c 0,5.52285 -4.47715,10 -10,10 -5.52285,0 -10,-4.47715 -10,-10 0,-5.52285 4.47715,-10 10,-10 5.52285,0 10,4.47715 10,10 z"
         sodipodi:ry="10"
         sodipodi:rx="10"
         sodipodi:cy="270"
         sodipodi:cx="290"
         id="path4551"
         style="color:#000000;fill:none;stroke:#00ff66;stroke-width:4;stroke-linecap:butt;stroke-linejoin:miter;stroke-miterlimit:4;stroke-opacity:1;stroke-dasharray:none;stroke-dashoffset:0;marker:none;visibility:visible;display:inline;overflow:visible;enable-background:accumulate"
         sodipodi:type="arc" />
    </g>
    <g
       transform="matrix(0.14081706,0.20656853,-0.20656853,0.14081706,244.33036,164.67556)"
       id="g7865">
      <path
         style="fill:none;stroke:#00ff66;stroke-width:4;stroke-linecap:butt;stroke-linejoin:miter;stroke-miterlimit:4;stroke-opacity:1;stroke-dasharray:none"
         d="m 290,245 -25,25 50,0 -25,-25 z"
         id="path7867"
         sodipodi:nodetypes="cccc" />
      <path
         sodipodi:type="arc"
         style="color:#000000;fill:none;stroke:#00ff66;stroke-width:4;stroke-linecap:butt;stroke-linejoin:miter;stroke-miterlimit:4;stroke-opacity:1;stroke-dasharray:none;stroke-dashoffset:0;marker:none;visibility:visible;display:inline;overflow:visible;enable-background:accumulate"
         id="path7869"
         sodipodi:cx="290"
         sodipodi:cy="270"
         sodipodi:rx="10"
         sodipodi:ry="10"
         d="m 300,270 c 0,5.52285 -4.47715,10 -10,10 -5.52285,0 -10,-4.47715 -10,-10 0,-5.52285 4.47715,-10 10,-10 5.52285,0 10,4.47715 10,10 z"
         transform="translate(0,-10)" />
    </g>
    <g
       id="g7894"
       transform="matrix(0.83432302,0.55127588,-0.55127588,0.83432302,234.48872,187.02027)">
      <path
         sodipodi:open="true"
         sodipodi:end="7.8539816"
         sodipodi:start="4.712389"
         d="M 9.807655e-8,-5 C 2.7614238,-4.9999999 5.0000001,-2.7614237 5,9.807655e-8 4.9999999,2.7614237 2.7614238,4.9999999 1.6987242e-7,5"
         sodipodi:ry="5"
         sodipodi:rx="5"
         sodipodi:cy="0"
         sodipodi:cx="0"
         id="path7831"
         style="color:#000000;fill:none;stroke:#ff0101;stroke-width:1;stroke-linecap:butt;stroke-linejoin:miter;stroke-miterlimit:4;stroke-opacity:1;stroke-dasharray:none;stroke-dashoffset:0;marker:none;visibility:visible;display:inline;overflow:visible;enable-background:accumulate"
         sodipodi:type="arc" />
      <path
         id="path7871"
         d="M 0,0 10,0"
         style="color:#000000;fill:none;stroke:#ff0101;stroke-width:1;stroke-linecap:butt;stroke-linejoin:miter;stroke-miterlimit:4;stroke-opacity:1;stroke-dasharray:none;stroke-dashoffset:0;marker:none;visibility:visible;display:inline;overflow:visible;enable-background:accumulate" />
    </g>
    <g
       transform="matrix(0.95441405,-0.29848588,0.29848588,0.95441405,234.32841,257.77948)"
       id="g7898">
      <path
         sodipodi:type="arc"
         style="color:#000000;fill:none;stroke:#ff0101;stroke-width:1;stroke-linecap:butt;stroke-linejoin:miter;stroke-miterlimit:4;stroke-opacity:1;stroke-dasharray:none;stroke-dashoffset:0;marker:none;visibility:visible;display:inline;overflow:visible;enable-background:accumulate"
         id="path7900"
         sodipodi:cx="0"
         sodipodi:cy="0"
         sodipodi:rx="5"
         sodipodi:ry="5"
         d="M 9.807655e-8,-5 C 2.7614238,-4.9999999 5.0000001,-2.7614237 5,9.807655e-8 4.9999999,2.7614237 2.7614238,4.9999999 1.6987242e-7,5"
         sodipodi:start="4.712389"
         sodipodi:end="7.8539816"
         sodipodi:open="true" />
      <path
         style="color:#000000;fill:none;stroke:#ff0101;stroke-width:1;stroke-linecap:butt;stroke-linejoin:miter;stroke-miterlimit:4;stroke-opacity:1;stroke-dasharray:none;stroke-dashoffset:0;marker:none;visibility:visible;display:inline;overflow:visible;enable-background:accumulate"
         d="M 0,0 10,0"
         id="path7902" />
    </g>
  </g>
</svg>
