<?xml version="1.0" encoding="UTF-8" standalone="no"?>
<!-- Created with Inkscape (http://www.inkscape.org/) -->

<svg
   xmlns:dc="http://purl.org/dc/elements/1.1/"
   xmlns:cc="http://creativecommons.org/ns#"
   xmlns:rdf="http://www.w3.org/1999/02/22-rdf-syntax-ns#"
   xmlns:svg="http://www.w3.org/2000/svg"
   xmlns="http://www.w3.org/2000/svg"
   xmlns:sodipodi="http://sodipodi.sourceforge.net/DTD/sodipodi-0.dtd"
   xmlns:inkscape="http://www.inkscape.org/namespaces/inkscape"
   width="480"
   height="320"
   id="svg2"
   version="1.1"
   inkscape:version="0.48.0 r9654"
   sodipodi:docname="itnas384.svg"
   inkscape:export-xdpi="90"
   inkscape:export-ydpi="90"
   inkscape:export-filename="itnas384.png">
  <defs
     id="defs4">
    <inkscape:perspective
       sodipodi:type="inkscape:persp3d"
       inkscape:vp_x="0 : 160 : 1"
       inkscape:vp_y="0 : 1000 : 0"
       inkscape:vp_z="480 : 160 : 1"
       inkscape:persp3d-origin="240 : 106.66667 : 1"
       id="perspective8" />
  </defs>
  <sodipodi:namedview
     id="base"
     pagecolor="#ffffff"
     bordercolor="#666666"
     borderopacity="1.0"
     inkscape:pageopacity="1"
     inkscape:pageshadow="2"
     inkscape:zoom="1"
     inkscape:cx="187.71705"
     inkscape:cy="100.39022"
     inkscape:document-units="px"
     inkscape:current-layer="layer1"
     showgrid="false"
     inkscape:snap-nodes="true"
     inkscape:snap-global="false"
     inkscape:snap-grids="true"
     showguides="true"
     inkscape:window-width="1280"
     inkscape:window-height="998"
     inkscape:window-x="1276"
     inkscape:window-y="-4"
     inkscape:window-maximized="1">
    <inkscape:grid
       empspacing="5"
       visible="true"
       enabled="true"
       snapvisiblegridlinesonly="true"
       type="xygrid"
       id="grid2816" />
  </sodipodi:namedview>
  <metadata
     id="metadata7">
    <rdf:RDF>
      <cc:Work
         rdf:about="">
        <dc:format>image/svg+xml</dc:format>
        <dc:type
           rdf:resource="http://purl.org/dc/dcmitype/StillImage" />
        <dc:title></dc:title>
      </cc:Work>
    </rdf:RDF>
  </metadata>
  <g
     inkscape:label="Layer 1"
     inkscape:groupmode="layer"
     id="layer1"
     transform="translate(0,0)">
    <path
       style="color:#000000;fill:none;stroke:#808080;stroke-width:4;stroke-linecap:round;stroke-linejoin:round;stroke-miterlimit:4;stroke-opacity:1;stroke-dasharray:none;stroke-dashoffset:0;marker:none;visibility:visible;display:inline;overflow:visible;enable-background:accumulate"
       d="m 10.108481,178.00148 c -1.6576806,12.70527 1.313973,25.5361 -0.310869,38.22681 -1.9529329,6.2142 1.547356,12.48437 0.221943,18.78065 -1.1879793,9.47391 -0.7518293,19.07508 -0.042285,28.55931 -1.2145902,8.55373 0.786096,17.19738 -0.3387244,25.77834 -0.7713123,5.29525 -0.8003881,10.65008 0.4344814,15.88686 0.233116,1.53686 0.42052,3.08651 0.417461,4.64344"
       id="path3830"
       inkscape:connector-curvature="0" />
    <path
       style="color:#000000;fill:none;stroke:#ffff00;stroke-width:4;stroke-linecap:round;stroke-linejoin:miter;stroke-miterlimit:4;stroke-opacity:1;stroke-dasharray:none;stroke-dashoffset:0;marker:none;visibility:visible;display:inline;overflow:visible;enable-background:accumulate"
       d="m 64.04296,47.919561 c -2.15131,0.994779 -6.17819,3.417349 -2.61675,7.043204 -1.2335,14.291567 -3.036831,14.032094 -1.767767,24.230232 1.518194,12.20013 1.414497,19.724773 1.767767,19.743153 0.90702,0.0472 4.29918,2.31625 6.54184,0.59678 3.88533,-2.978913 11.47064,-1.61198 15.70045,-1.87548 5.30904,-0.33072 29.41589,0.83986 30.09254,0.21936 5.68997,-5.217812 0.0485,-13.742595 0.0749,-13.870602 3.32288,-16.095994 0.80925,-34.207899 -1.38327,-34.914387 -9.29739,-0.679289 -11.98992,-0.509398 -15.245526,-0.450238 -3.484563,0.06332 -2.895779,1.713385 -9.948449,0.749348 -16.892707,-2.803378 -5.151027,-1.792636 -23.215735,-1.47137 z"
       id="path7361"
       inkscape:connector-curvature="0"
       sodipodi:nodetypes="ccscsssccscc" />
    <path
       style="color:#000000;fill:none;stroke:#ffff00;stroke-width:4;stroke-linecap:round;stroke-linejoin:miter;stroke-miterlimit:4;stroke-opacity:1;stroke-dasharray:none;stroke-dashoffset:0;marker:none;visibility:visible;display:inline;overflow:visible;enable-background:accumulate"
       d="m 460.93934,-23.35965 c 7,15.5 4,33.5 5.5,50.5 3.5,11 0.5,15 0.5,27 2.5,14 5,23.5 3,33 -5,4 -5,5 -6.72414,16.77828 -6.91765,13.99083 -6.97812,19.79877 -4.0342,36.33643 -0.60176,15.91936 -0.52017,25.27127 -5.6128,44.11204 1.6088,5.06772 -2.48384,4.34612 -6.8833,8.97643 3.0162,28.48005 -4.07379,44.4593 -0.21584,50.48436 3.24141,5.06219 -8.24237,8.53218 -24.10665,8.39982 -9.50976,-0.0793 -12.23214,-0.15461 -12.64926,4.13646 0.0719,7.95037 -0.90595,4.19837 -8.08777,6.16886 -16.29358,1.94821 -14.41008,5.81704 -20.54405,3.4637 -16.4288,0.5493 -20.90145,6.38958 -30.34983,-8.21026 -4.94663,-9.61066 -0.89608,-7.7059 -10.06394,-17.5661 -5.31962,-19.8891 0.10665,-39.76209 -3.8656,-62.78795 4.13946,-7.72263 -7.54746,-18.89307 -10.14288,-25.9916 -13.37269,-8.48204 -24.4408,-6.11632 -32.48717,-13.72986 -9.82211,-4.24369 -9.76456,-21.23699 -11.37199,-36.04875 0.1508,-4.210079 -10.8465,-7.201191 -10.9825,-11.588749 -0.26396,-8.515656 5.89025,-20.214381 5.25027,-27.489574 0.11102,-6.15614 0.3749,-13.744091 -1.48475,-19.220374 -1.66804,-4.912021 -4.20894,-7.70229 -8.0021,-12.69017 -3.25326,-10.686831 -5.60026,-8.066213 -12.19679,-9.500096 -9.34408,-1.38823 -58.97312,-0.723166 -57.84722,10.909754 0.0838,7.085026 -2.20907,5.390202 0.57818,12.06256 2.41842,5.789421 -1.07539,21.941426 -3.69985,27.773844 -1.4884,9.850896 -4.55133,19.140836 -8.63137,28.246085 -8.13011,8.80616 -3.49971,19.3716 -13.34445,25.47486 -10.37437,-2.51174 -30.72533,-0.11222 -38.50343,3.37857 -12.24354,-0.10001 1.98828,0.34831 -13.75908,0.77388 -5.42762,-2.79279 -17.30384,-0.56633 -22.42755,-0.53633 -2.16011,-1.36167 -3.13011,-2.53582 -10.27441,-3.03795 -17.465334,5.89429 -9.118556,3.3361 -29.03553,1.92183 C 48.894965,126.27638 38.921675,125.5589 28.390392,126.06569 12.134724,127.25395 16.939745,104.32549 16.418268,93.846212 15.110756,82.26833 20.916171,68.383046 12.93934,58.64035 c -2.892797,-11.786452 1.041161,-12.053046 -0.5,-24 -11,-8 -28.5,-8.5 -28.5,-8.5"
       id="path7383"
       inkscape:connector-curvature="0"
       sodipodi:nodetypes="ccccccccccccscccscscccccccccssccccccccc" />
    <path
       style="color:#000000;fill:none;stroke:#ff0000;stroke-width:4;stroke-linecap:round;stroke-linejoin:round;stroke-miterlimit:4;stroke-opacity:1;stroke-dasharray:none;stroke-dashoffset:0;marker:none;visibility:visible;display:inline;overflow:visible;enable-background:accumulate"
       d="m 175.93934,122.64035 c 5.20653,0 9.42558,-0.80649 12.98555,2.99782 0.47585,6.60986 0.19766,12.569 -2.16016,18.99411 -2.0714,15.8734 -1.72326,18.91283 -1.08009,25.99705 l -1.12754,4.20828 c -5.44785,0.81907 -20.55915,2.39402 -29.36994,2.04431 -9.97593,-1.36211 -20.09089,-1.84864 -30.21575,-1.56586 -45.826155,2.56432 -76.529517,-1.02542 -114.799797,-1.34778 -2.3435446,-9.36698 -1.5004976,-13.79979 -1.0800787,-19.32069 0,0 -3.5102616,-21.25957 -1.3500997,-28.75368 2.4746114,-3.51018 7.0295884,-4.25356 11.1979054,-4.25356"
       id="path7397"
       inkscape:connector-curvature="0"
       sodipodi:nodetypes="ccccccccccc" />
    <path
       style="color:#000000;fill:none;stroke:#ff0000;stroke-width:4;stroke-linecap:round;stroke-linejoin:round;stroke-miterlimit:4;stroke-opacity:1;stroke-dasharray:none;stroke-dashoffset:0;marker:none;visibility:visible;display:inline;overflow:visible;enable-background:accumulate"
       d="m 182.18464,152.06513 c -23.33681,1.75022 -47.70874,-1.06944 -70.75191,1.8626 -10.63639,-1.93519 -21.239212,-1.7091 -32.074005,-0.77725 -18.097714,3.29595 -29.904137,-0.51793 -43.661227,-1.98796 -15.460001,1.70229 -20.089974,0.41449 -30.146006,0.58415"
       id="path7399"
       inkscape:connector-curvature="0"
       sodipodi:nodetypes="ccccc" />
    <path
       style="color:#000000;fill:none;stroke:#ffff00;stroke-width:4;stroke-linecap:round;stroke-linejoin:miter;stroke-miterlimit:4;stroke-opacity:1;stroke-dasharray:none;stroke-dashoffset:0;marker:none;visibility:visible;display:inline;overflow:visible;enable-background:accumulate"
       d="m 179.93934,114.14035 c 4.23373,-0.81592 7.8018,0.14473 11.96911,-1 4.5947,-1.26213 8.74491,1.61232 13.52161,1 4.40444,-0.5646 41.62399,-1.24542 46.80557,0 3.2246,0.77505 5.96947,-1.65216 9.36112,-1 0.86562,0.16645 12.69389,0.34751 16.2046,-0.56494 3.51071,-0.91245 4.76747,0.90189 5.638,0.0649"
       id="path7449"
       inkscape:connector-curvature="0"
       sodipodi:nodetypes="csssscc" />
    <path
       style="color:#000000;fill:none;stroke:#ff0000;stroke-width:4;stroke-linecap:round;stroke-linejoin:round;stroke-miterlimit:4;stroke-opacity:1;stroke-dasharray:none;stroke-dashoffset:0;marker:none;visibility:visible;display:inline;overflow:visible;enable-background:accumulate"
       d="m 188.43934,170.64035 c 12.5,0 24.5,0 37,0 3.02525,0 7.08743,0.72814 10,0 4.63356,-1.15839 9.80319,-1 15,-1 5.09634,0 16.34993,1.55002 21,0 0.92679,-0.30893 3.92463,0.76884 5,0.5 2.87958,-0.71989 6.20139,0.43287 9,-0.5 2.43566,-0.81189 7.69552,0.70112 10.5,0 7.96302,-1.99076 19.31264,2.09368 26.5,-1.5 1.17691,-0.58846 11.76026,1.97949 12.5,0.5"
       id="path7451"
       inkscape:connector-curvature="0"
       sodipodi:nodetypes="cssssssssc" />
    <path
       style="color:#000000;fill:none;stroke:#008000;stroke-width:3.99999952;stroke-linecap:round;stroke-linejoin:miter;stroke-miterlimit:4;stroke-opacity:1;stroke-dasharray:none;stroke-dashoffset:0;marker:none;visibility:visible;display:inline;overflow:visible;enable-background:accumulate"
       d="m 12.511454,138.51863 c 22.892488,-1.94777 43.883521,-0.30337 64.00416,1.86785 17.154111,-0.1446 43.198276,-3.58579 49.430966,-0.62397 5.31764,1.87205 15.17973,-2.21797 23.07013,-1.81743 11.44279,0.0493 20.83316,2.06354 34.3281,-0.55773"
       id="path7389"
       inkscape:connector-curvature="0"
       sodipodi:nodetypes="ccccc" />
    <path
       style="color:#000000;fill:none;stroke:#008000;stroke-width:4;stroke-linecap:round;stroke-linejoin:miter;stroke-miterlimit:4;stroke-opacity:1;stroke-dasharray:none;stroke-dashoffset:0;marker:none;visibility:visible;display:inline;overflow:visible;enable-background:accumulate"
       d="m 5.076533,162.90981 c 26.279561,0.92078 52.566052,3.89062 78.921465,1.5346 21.597332,0.882 34.297662,0.48792 51.444672,0.65596 9.5788,-1.95224 19.21242,-2.59341 28.75333,-1.44867 6.95738,0.19014 14.49646,-0.90043 20.95929,0.64568"
       id="path7393"
       inkscape:connector-curvature="0"
       sodipodi:nodetypes="ccccc" />
    <path
       style="color:#000000;fill:none;stroke:#ff0000;stroke-width:4;stroke-linecap:round;stroke-linejoin:round;stroke-miterlimit:4;stroke-opacity:1;stroke-dasharray:none;stroke-dashoffset:0;marker:none;visibility:visible;display:inline;overflow:visible;enable-background:accumulate"
       d="m 189.94287,143.33149 37.76351,-0.68006 c 1.51474,0.54964 2.97772,1.30475 6.23875,-0.11232 l 61.39024,-1.10554 c 1.23865,1.27104 2.05059,3.14148 2.0798,4.60382"
       id="path3708"
       sodipodi:nodetypes="ccccs"
       inkscape:connector-curvature="0" />
    <path
       style="color:#000000;fill:none;stroke:#008000;stroke-width:3.99999976;stroke-linecap:round;stroke-linejoin:miter;stroke-miterlimit:4;stroke-opacity:1;stroke-dasharray:none;stroke-dashoffset:0;marker:none;visibility:visible;display:inline;overflow:visible;enable-background:accumulate"
       d="m 188.43325,157.17943 81.39359,-0.73332 1.37494,1.50574 c 0,0.87999 2.3753,-0.90543 2.3753,-1.53953 l 52.85879,-0.47624"
       id="path3710"
       sodipodi:nodetypes="ccccc"
       inkscape:connector-curvature="0" />
    <path
       style="color:#000000;fill:none;stroke:#008000;stroke-width:3.99999952;stroke-linecap:round;stroke-linejoin:miter;stroke-miterlimit:4;stroke-opacity:1;stroke-dasharray:none;stroke-dashoffset:0;marker:none;visibility:visible;display:inline;overflow:visible;enable-background:accumulate"
       d="m 284.61583,127.23942 -94.16236,2.52994"
       id="path3712"
       inkscape:connector-curvature="0"
       sodipodi:nodetypes="cc" />
    <path
       sodipodi:nodetypes="ccccccccccc"
       inkscape:connector-curvature="0"
       id="path8327"
       d="m 344.88845,250.64035 c -3.48086,6 -7.80153,5.19351 -10.18157,8.99782 -0.31813,6.60986 -0.13215,12.569 1.44419,18.99411 1.38485,15.8734 1.1521,18.91283 0.7221,25.99705 l 0.75382,4.20828 c 10.1422,-0.68093 13.74495,2.39402 19.63546,2.04431 8.25528,-2.94792 14.49001,-2.90676 20.20093,-1.56586 29.63737,-0.93568 50.1643,2.97458 76.75013,-1.34778 1.56679,-9.36698 1.00317,-13.79979 0.7221,-19.32069 0,0 2.3468,-21.25957 0.90262,-28.75368 -1.65443,-3.51018 -4.19968,-5.25356 -8.98644,-8.75356"
       style="color:#000000;fill:none;stroke:#ff0000;stroke-width:4;stroke-linecap:round;stroke-linejoin:round;stroke-miterlimit:4;stroke-opacity:1;stroke-dasharray:none;stroke-dashoffset:0;marker:none;visibility:visible;display:inline;overflow:visible;enable-background:accumulate" />
    <path
       style="color:#000000;fill:none;stroke:#808080;stroke-width:4;stroke-linecap:round;stroke-linejoin:round;stroke-miterlimit:4;stroke-opacity:1;stroke-dasharray:none;stroke-dashoffset:0;marker:none;visibility:visible;display:inline;overflow:visible;enable-background:accumulate"
       d="M 455.13308,308.08402 C 483.03035,308.77763 468.96834,311 497,309"
       id="path3857"
       inkscape:connector-curvature="0"
       sodipodi:nodetypes="cc" />
    <path
       sodipodi:nodetypes="ccccc"
       inkscape:connector-curvature="0"
       id="path8329"
       d="m 339.21312,286.06513 c 15.60197,1.75022 31.89598,-1.06944 47.30163,1.8626 7.11103,-1.93519 14.19961,-1.7091 21.44328,-0.77725 12.09934,3.29595 19.9926,-0.51793 29.18999,-1.98796 10.33588,1.70229 13.43128,0.41449 20.1543,0.58415"
       style="color:#000000;fill:none;stroke:#ff0000;stroke-width:4;stroke-linecap:round;stroke-linejoin:round;stroke-miterlimit:4;stroke-opacity:1;stroke-dasharray:none;stroke-dashoffset:0;marker:none;visibility:visible;display:inline;overflow:visible;enable-background:accumulate" />
    <path
       sodipodi:nodetypes="ccccc"
       inkscape:connector-curvature="0"
       id="path8331"
       d="m 338.43748,298.20197 c 15.30492,1.94777 29.33861,0.30337 42.79039,-1.86785 11.46849,0.1446 28.88048,3.58579 33.04738,0.62397 3.55514,-1.87205 10.14851,2.21797 15.42368,1.81743 7.65015,-0.0493 13.92814,-2.06354 22.95027,0.55773"
       style="color:#000000;fill:none;stroke:#008000;stroke-width:3.99999952;stroke-linecap:round;stroke-linejoin:miter;stroke-miterlimit:4;stroke-opacity:1;stroke-dasharray:none;stroke-dashoffset:0;marker:none;visibility:visible;display:inline;overflow:visible;enable-background:accumulate" />
    <path
       sodipodi:nodetypes="ccccc"
       inkscape:connector-curvature="0"
       id="path8333"
       d="m 455.61986,265.31079 c -17.56936,9.07922 -32.96176,5.51744 -50.43214,8.62192 -12.81591,4.23361 -22.76122,0.35556 -34.22496,0.18752 -11.90397,1.95224 -7.36634,-0.0153 -16.78115,0.15902 -4.33247,-1.79404 -11.25678,-7.42497 -19.11347,-9.1507"
       style="color:#000000;fill:none;stroke:#008000;stroke-width:4;stroke-linecap:round;stroke-linejoin:miter;stroke-miterlimit:4;stroke-opacity:1;stroke-dasharray:none;stroke-dashoffset:0;marker:none;visibility:visible;display:inline;overflow:visible;enable-background:accumulate" />
    <path
       style="color:#000000;fill:none;stroke:#808080;stroke-width:4;stroke-linecap:round;stroke-linejoin:round;stroke-miterlimit:4;stroke-opacity:1;stroke-dasharray:none;stroke-dashoffset:0;marker:none;visibility:visible;display:inline;overflow:visible;enable-background:accumulate"
       d="m 456.59204,167.16548 c 9.39993,22.13532 7.356,24.3069 9.22834,32.34828 5.50084,6.43422 11.00169,23.15467 16.50253,43.41091 0,0 6.89212,18.21522 11.69354,29.07569 1.71846,11.20819 11.04526,32.70047 16.04526,33.20801"
       id="path8335"
       inkscape:connector-curvature="0"
       sodipodi:nodetypes="ccccc" />
    <path
       style="color:#000000;fill:none;stroke:#808080;stroke-width:4;stroke-linecap:round;stroke-linejoin:round;stroke-miterlimit:4;stroke-opacity:1;stroke-dasharray:none;stroke-dashoffset:0;marker:none;visibility:visible;display:inline;overflow:visible;enable-background:accumulate"
       d="m 512.53659,168.16548 c -3.11092,8.44975 -13.03326,16.09611 -18.43333,44.45915 -6.81925,28.72273 -11.12379,38.91607 -18.10778,56.46828 -4.22267,6.54783 -4.90232,2.92562 -8.33582,10.5645 -4.90733,10.6072 -5.2503,22.31495 -11.06762,26.66375"
       id="path3032"
       inkscape:connector-curvature="0"
       sodipodi:nodetypes="ccccc" />
    <path
       style="color:#000000;fill:none;stroke:#0000ff;stroke-width:3.99999976;stroke-linecap:round;stroke-linejoin:round;stroke-miterlimit:4;stroke-opacity:1;stroke-dasharray:none;stroke-dashoffset:0;marker:none;visibility:visible;display:inline;overflow:visible;enable-background:accumulate"
       d="m 63.51829,102.32009 c -3.293708,10.28152 -0.571554,26.54647 -1.767767,37.61761 -0.711155,6.58186 1.566354,10.07851 1.698469,18.61805 0.105345,6.80921 -3.355489,6.86476 -1.646818,15.29869 1.526952,7.53699 0.726704,25.92116 1.295664,34.59777 0.526005,8.02152 -1.580782,5.86585 -0.03184,14.00309 1.47678,7.75814 -0.987151,12.25643 -0.650471,19.67348 0.383515,8.44886 1.962159,15.74754 2.435704,23.90802 0.494636,8.52392 0.738075,13.92988 -1.065307,23.75677 -1.33784,7.29009 -0.966035,15.54052 -3.096066,22.5582"
       id="path8337"
       inkscape:connector-curvature="0"
       sodipodi:nodetypes="ssssssssss" />
    <path
       style="color:#000000;fill:none;stroke:#0000ff;stroke-width:3.99999976;stroke-linecap:round;stroke-linejoin:round;stroke-miterlimit:4;stroke-opacity:1;stroke-dasharray:none;stroke-dashoffset:0;marker:none;visibility:visible;display:inline;overflow:visible;enable-background:accumulate"
       d="m 113.48244,312.35177 c -1.75004,-7.55186 -1.28447,-7.17762 -1.67338,-24.42218 0.79213,-11.22343 3.31184,-18.74913 0.74116,-27.77678 0.37006,-12.45646 -0.18352,-17.90768 0.31273,-26.74809 -0.29489,-12.25009 1.2881,-9.68971 -0.64354,-36.74743 1.59594,-10.03762 -1.05017,-12.84664 -1.59384,-17.68871 1.67828,-9.62313 -0.54386,-15.26112 0.66134,-20.40916 -0.70591,-6.40743 2.07083,-13.68928 1.74703,-22.34045 -1.34787,-7.87837 -1.33677,-14.49442 0.2246,-22.20721 -0.25437,-4.77173 -0.66975,-8.6201 -0.67165,-13.08492"
       id="path8344"
       inkscape:connector-curvature="0"
       sodipodi:nodetypes="cccccccccc" />
    <path
       style="color:#000000;fill:none;stroke:#0000ff;stroke-width:3.99999976;stroke-linecap:round;stroke-linejoin:round;stroke-miterlimit:4;stroke-opacity:1;stroke-dasharray:none;stroke-dashoffset:0;marker:none;visibility:visible;display:inline;overflow:visible;enable-background:accumulate"
       d="m 63.164737,110.11923 c 14.195613,0.55972 12.254725,0.35355 26.516507,0.35355 0.49409,0 4.517583,0.20417 6.415471,0 3.654439,-0.39315 2.923553,-2.75512 15.858395,-1.41421"
       id="path3793"
       inkscape:connector-curvature="0"
       sodipodi:nodetypes="cssc" />
    <path
       style="color:#000000;fill:none;stroke:#0000ff;stroke-width:3.99999976;stroke-linecap:round;stroke-linejoin:round;stroke-miterlimit:4;stroke-opacity:1;stroke-dasharray:none;stroke-dashoffset:0;marker:none;visibility:visible;display:inline;overflow:visible;enable-background:accumulate"
       d="m 110.18734,130.27177 c -5.92748,3.41366 -14.680134,2.12132 -21.566759,2.12132 -4.207784,0 -8.916604,0.59498 -13.081475,0 -4.12003,-0.58857 -7.557515,-2.23165 -11.313709,-0.35355 -0.600535,0.30027 -0.832602,-0.22806 -1.414213,0.35355"
       id="path3795"
       inkscape:connector-curvature="0" />
    <path
       style="color:#000000;fill:none;stroke:#0000ff;stroke-width:3.99999976;stroke-linecap:round;stroke-linejoin:round;stroke-miterlimit:4;stroke-opacity:1;stroke-dasharray:none;stroke-dashoffset:0;marker:none;visibility:visible;display:inline;overflow:visible;enable-background:accumulate"
       d="m 63.871844,150.95009 c 2.83531,-0.22231 5.406542,0.30157 8.131728,0.44425 8.843529,0.463 17.620065,0.44424 26.516504,0.44424 1.365278,0 4.051624,-0.0511 5.303304,-0.44424 1.63544,-0.51375 7.07107,-2.6249 7.07107,-0.22213"
       id="path3797"
       inkscape:connector-curvature="0" />
    <path
       style="color:#000000;fill:none;stroke:#0000ff;stroke-width:3.99999976;stroke-linecap:round;stroke-linejoin:round;stroke-miterlimit:4;stroke-opacity:1;stroke-dasharray:none;stroke-dashoffset:0;marker:none;visibility:visible;display:inline;overflow:visible;enable-background:accumulate"
       d="m 111.248,170.57686 c -5.1873,0.31049 -9.18501,-2.12291 -14.142137,-1.06067 -4.614078,0.98874 -20.760569,1.71688 -25.809398,0.70711 -1.441626,-0.28832 -5.640037,2.4917 -6.717514,1.41422 -1.05939,-1.05939 -1.050323,-1.76777 -2.828427,-1.76777"
       id="path3799"
       inkscape:connector-curvature="0"
       sodipodi:nodetypes="csssc" />
    <path
       style="color:#000000;fill:none;stroke:#0000ff;stroke-width:3.99999976;stroke-linecap:round;stroke-linejoin:round;stroke-miterlimit:4;stroke-opacity:1;stroke-dasharray:none;stroke-dashoffset:0;marker:none;visibility:visible;display:inline;overflow:visible;enable-background:accumulate"
       d="m 64.266168,192.45456 c 3.065541,-0.36707 6.149336,-0.19381 9.219425,-0.0468 7.211654,0.34541 14.279853,0.49244 21.373427,1.08476 5.085352,0.42462 12.74048,-2.38144 16.23792,-0.97719"
       id="path3801"
       inkscape:connector-curvature="0" />
    <path
       style="color:#000000;fill:none;stroke:#0000ff;stroke-width:3.99999976;stroke-linecap:round;stroke-linejoin:round;stroke-miterlimit:4;stroke-opacity:1;stroke-dasharray:none;stroke-dashoffset:0;marker:none;visibility:visible;display:inline;overflow:visible;enable-background:accumulate"
       d="m 113.72288,210.88194 c 0.15971,0.80163 -5.6042,1.22603 -10.96016,1.70409 -3.212511,0.28674 -6.260581,0.81218 -9.545944,0.97377 -2.752925,0.13539 -18.17438,0.2188 -20.85965,-0.24344 -2.706121,-0.46583 -4.401142,-1.18364 -6.717515,-1.58237 -0.808931,-0.13925 -2.419851,-0.34622 -2.828427,-0.48689"
       id="path3803"
       inkscape:connector-curvature="0" />
    <path
       style="color:#000000;fill:none;stroke:#808080;stroke-width:4;stroke-linecap:round;stroke-linejoin:round;stroke-miterlimit:4;stroke-opacity:1;stroke-dasharray:none;stroke-dashoffset:0;marker:none;visibility:visible;display:inline;overflow:visible;enable-background:accumulate"
       d="m 10.485281,310.23045 c 18.563184,2.21711 36.0801,1.29543 53.738985,0.79965 9.342828,2.22512 9.956524,-0.992 17.683112,-0.55927 14.627062,0.81921 27.126752,1.47801 39.945862,1.27534 7.53054,-1.0466 12.48289,-1.44865 16.25442,-1.5555 19.95094,0.78919 26.42392,1.41189 35.01236,1.32704 12.7952,-0.45514 20.63461,-1.26535 36.77632,-0.88387 6.60506,1.27956 14.11266,1.88935 19.79197,1.31742 l 28.98564,-1.17908 c 13.43503,2.47488 12.38063,0.81641 22.28013,0.10931 7.53734,0.29558 21.51376,0.99917 31.11368,0.89497 13.36548,-0.14508 7.42318,-1.89955 21.56532,-1.19244"
       id="path3911"
       inkscape:connector-curvature="0" />
    <path
       style="color:#000000;fill:none;stroke:#0000ff;stroke-width:3.99999976;stroke-linecap:round;stroke-linejoin:round;stroke-miterlimit:4;stroke-opacity:1;stroke-dasharray:none;stroke-dashoffset:0;marker:none;visibility:visible;display:inline;overflow:visible;enable-background:accumulate"
       d="m 64.57895,232.80226 c 11.108203,0.15684 22.108254,0.7071 33.234019,0.7071 2.515711,0 6.121581,-0.78789 8.485281,0 2.00764,0.66922 3.75324,1.76777 6.01041,1.76777"
       id="path3805"
       inkscape:connector-curvature="0" />
    <path
       style="color:#000000;fill:none;stroke:#0000ff;stroke-width:3.99999976;stroke-linecap:round;stroke-linejoin:round;stroke-miterlimit:4;stroke-opacity:1;stroke-dasharray:none;stroke-dashoffset:0;marker:none;visibility:visible;display:inline;overflow:visible;enable-background:accumulate"
       d="m 111.60155,253.66191 c -13.16867,0.4553 -26.382936,0.35355 -39.597978,0.35355 -1.555629,0 -6.859577,-0.9186 -7.778175,0 -0.176415,0.17641 0,1.49093 0,1.76777"
       id="path3807"
       inkscape:connector-curvature="0" />
    <path
       style="color:#000000;fill:none;stroke:#0000ff;stroke-width:3.99999976;stroke-linecap:round;stroke-linejoin:round;stroke-miterlimit:4;stroke-opacity:1;stroke-dasharray:none;stroke-dashoffset:0;marker:none;visibility:visible;display:inline;overflow:visible;enable-background:accumulate"
       d="m 66.700271,276.99644 c 15.063952,1.902 30.085309,2.12132 45.254839,2.12132"
       id="path3809"
       inkscape:connector-curvature="0" />
    <path
       style="color:#000000;fill:none;stroke:#0000ff;stroke-width:3.99999976;stroke-linecap:round;stroke-linejoin:round;stroke-miterlimit:4;stroke-opacity:1;stroke-dasharray:none;stroke-dashoffset:0;marker:none;visibility:visible;display:inline;overflow:visible;enable-background:accumulate"
       d="m 111.248,297.85608 c -11.722605,-0.67316 -23.584914,-0.35355 -35.355341,-0.35355 -2.761853,0 -7.617509,-0.87852 -10.253048,0 -1.29217,0.43072 -1.948384,0.7071 -3.535534,0.7071"
       id="path3811"
       inkscape:connector-curvature="0" />
    <path
       inkscape:connector-curvature="0"
       style="fill:none;stroke:#80ff00;stroke-width:3.99999976;stroke-linecap:round;stroke-linejoin:round;stroke-miterlimit:4;stroke-opacity:1;stroke-dasharray:none"
       d="m 135.5068,306.64072 c 0.25037,-0.7283 1.59582,-4.64126 2.26256,-6.58018 1.64303,-5.0036 2.64799,-2.92932 3.55571,-4.95801 3.54784,-7.92924 4.5091,-5.74431 6.98971,-9.96874 5.98118,-4.1537 7.54723,-12.8481 8.88206,-14.46348 1.41527,4.89901 2.60527,9.88054 4.07589,14.75543 3.54984,5.57609 3.98589,7.77545 6.09128,10.68045 3.83176,5.28701 -0.7099,2.53722 5.10304,9.14785 0.92711,0.58534 3.1929,1.17983 1.84427,2.69497"
       id="path2958"
       sodipodi:nodetypes="ccscccscc" />
    <path
       inkscape:connector-curvature="0"
       style="fill:none;stroke:#80ff00;stroke-width:3.99999976000000010;stroke-linecap:round;stroke-linejoin:round;stroke-miterlimit:4;stroke-opacity:1;stroke-dasharray:none"
       d="m 131.90293,193.08078 c -1.84765,-0.003 0.84424,-2.7012 -1.34548,-2.61125 -2.17359,-1.79444 -2.35655,-4.88699 -4.59372,-6.64291 -1.1614,-1.48251 -1.36858,-3.50431 -2.57972,-4.95806 -1.20764,-1.56983 -1.73131,-3.46673 -2.32138,-5.3355 -0.59618,-1.59184 -1.60463,-2.94921 -2.34222,-4.45703 -1.35139,-0.73515 -1.66924,-1.94296 -2.95222,-2.76934 -1.5422,-1.00349 -1.61795,-3.13855 -3.51348,-3.866 -0.7562,0.47391 -0.8119,2.37531 -1.29291,3.41184 -0.89811,2.98898 -1.79807,5.97817 -2.69211,8.967 0.0125,1.77678 -0.91017,3.76464 -0.14431,5.33898 0.22611,1.41778 -0.26026,2.97409 -0.34442,4.4445 -0.29533,1.65843 -0.45811,3.53298 -0.5735,5.23906 -0.32446,1.79116 -0.36814,3.55145 -1.09479,5.38281 -0.56609,1.43528 -1.24728,3.2411 1.15634,2.80112 1.7264,0.051 3.47488,-1.20819 5.21129,-1.1494 2.01022,-0.45335 3.9493,-0.35119 6.02559,-1.49236 2.08228,-0.24749 4.3472,-0.99945 6.34621,-0.85949 1.83981,-0.56996 3.75318,-0.69921 5.53991,-0.97837 0.43982,-0.008 1.27084,0.12262 1.51066,-0.46558 z"
       id="path2942" />
    <path
       inkscape:connector-curvature="0"
       style="fill:none;stroke:#80ff00;stroke-width:3.99999952;stroke-linecap:round;stroke-linejoin:round;stroke-miterlimit:4;stroke-opacity:1;stroke-dasharray:none"
       d="m 88.241461,209.636 c 9.539294,-0.7045 9.983462,6.46304 14.218919,6.73289 6.75763,1.99303 5.96613,-3.19558 11.27231,-4.7827 6.85504,-1.17271 13.68269,0.4453 7.42043,3.19672 -3.39421,4.48833 -3.32783,8.214 -7.60557,12.88278 -5.46999,9.21052 -6.71499,5.52078 -12.43779,3.92916 -4.383427,0.6916 -5.160379,-2.8465 -11.127825,-2.66689"
       id="path2956-7"
       sodipodi:nodetypes="ccccccc" />
    <path
       inkscape:connector-curvature="0"
       style="fill:none;stroke:#80ff00;stroke-width:3.99999952;stroke-linecap:round;stroke-linejoin:round;stroke-miterlimit:4;stroke-opacity:1;stroke-dasharray:none"
       d="m 119.86546,196.67381 c -0.0337,8.59963 3.53886,11.47761 4.51793,18.36774 10.12881,12.75171 6.3119,21.47326 13.21314,32.77472 8.04933,6.92355 10.28381,16.06388 19.32832,22.72109 6.19877,3.09195 6.16979,9.47986 17.29277,13.70378"
       id="path2952-1"
       sodipodi:nodetypes="ccccc" />
    <path
       inkscape:connector-curvature="0"
       style="color:#000000;fill:none;stroke:#80ff00;stroke-width:4;stroke-linecap:round;stroke-linejoin:round;stroke-miterlimit:4;stroke-opacity:1;stroke-dasharray:none;stroke-dashoffset:0;marker:none;visibility:visible;display:inline;overflow:visible;enable-background:accumulate"
       d="m 330.87491,282.97151 c -5.75514,2.45408 -8.51993,5.89131 -22.01758,1.69291 -4.04692,-1.25879 -3.60286,0.0586 -25.1943,1.757 -1.12557,0.0885 -3.08847,1.29804 -8.73408,4.92003 -5.8376,3.74515 -8.42688,13.42852 -17.36586,13.58182 -9.33105,0.16003 -11.61091,-1.75376 -16.77251,-5.68116 -12.53404,-1.00037 -24.884,-1.70984 -31.56326,-3.55959 -10.94628,-3.03146 -9.3821,-5.28819 -17.42569,-10.09004 -2.86121,-1.70808 -10.58294,-2.61596 -17.38311,-1.44126"
       id="path4125"
       sodipodi:nodetypes="csssscsss" />
    <path
       style="color:#000000;fill:none;stroke:#808080;stroke-width:4;stroke-linecap:round;stroke-linejoin:round;stroke-miterlimit:4;stroke-opacity:1;stroke-dasharray:none;stroke-dashoffset:0;marker:none;visibility:visible;display:inline;overflow:visible;enable-background:accumulate"
       d="m 10.43934,177.61522 c 9.223162,21.39843 7.179229,20.58231 9.051569,28.50423 5.500844,6.33864 11.001687,22.8107 16.502531,42.76602 0,0 6.892116,17.94462 11.693544,28.64375 1.718458,11.04168 11.045252,32.21468 16.045252,32.71468 5.06066,-2.56066 9.17522,-21.71986 9.17522,-21.71986 11.050253,-35.26167 14.661419,-30.1579 20.423089,-51.53048 4.949747,-6.01041 8.377795,-11.68576 21.105715,-48.80887 4.59619,-4.59619 1.56374,-10.27657 6.06374,-8.27657 5.63521,0.77518 17.34738,37.01426 22.09157,54.67189 2,8.5 2.52031,13.19012 7.52031,19.69012 3.40274,15.74489 6.73869,33.59937 14.34583,48.9696 1.74366,3.52308 4.64237,6.785 7.98163,6.65062 5.64055,-4.38246 5.98352,-16.09021 10.89085,-26.69741 3.4335,-7.63888 4.11315,-4.01667 8.33582,-10.5645 6.98399,-17.55221 11.28853,-27.74555 18.10778,-56.46828 5.40007,-28.36304 15.32241,-33.0094 18.43333,-41.45915 4.02512,-1.06066 5.91173,12.17003 10.41173,29.67003 21.5,49 8.17525,27.42137 31.67525,79.92137 5.5,21 3.64524,18.59794 10.14524,25.59794 5,1 14.60609,-38.89935 19.23722,-46.56149 5.20711,-5.57538 8.27531,-11.38555 9.65399,-26.3353 9.97487,-23.11091 20.1088,-33.7362 24.93202,-66.29255"
       id="path3028" />
    <path
       style="color:#000000;fill:none;stroke:#808080;stroke-width:4;stroke-linecap:round;stroke-linejoin:round;stroke-miterlimit:4;stroke-opacity:1;stroke-dasharray:none;stroke-dashoffset:0;marker:none;visibility:visible;display:inline;overflow:visible;enable-background:accumulate"
       d="m 334.26257,309.85669 c -9.39993,-21.43208 -7.356,-24.8586 -9.22834,-32.78052 -5.50084,-4.21732 -11.00169,-22.8107 -16.50253,-42.76602 0,0 -6.89212,-17.94462 -11.69354,-28.64375 -1.71846,-11.04168 -11.75236,-31.15402 -16.75236,-31.65402 -4,1.5 -8.46812,20.6592 -8.46812,20.6592 -11.05025,35.26167 -14.66141,30.1579 -20.42309,51.53048 -4.94974,6.01041 -3.42804,12.74642 -16.15596,49.86953 -4.59619,4.59619 -1.21019,12.75144 -6.06374,14.64053 -5.63521,-0.77518 -22.29713,-44.43888 -27.04132,-62.09651 -2,-8.5 -2.52031,-13.19012 -7.52031,-19.69012 -3.40274,-15.74489 -6.38514,-28.29607 -13.99228,-43.6663 -1.74366,-3.52308 -0.75328,-3.24947 -4.4461,-6.29707 -2.34141,-0.56624 -9.78176,10.29709 -14.77993,21.04056 -3.4335,7.63888 -4.11315,4.01667 -8.33582,10.5645 -6.98399,17.55221 -11.28853,27.74555 -18.10778,56.46828 -5.40007,28.36304 -8.95845,35.13072 -12.06937,43.58047 -4.02512,1.06066 -12.27569,-14.29135 -16.77569,-31.79135 -21.5,-49 -8.17525,-27.42137 -31.67525,-79.92137 -5.5,-21 -4.352347,-12.58753 -10.852347,-19.58753 -5,-1 -13.898983,32.88894 -18.530113,40.55108 -5.20711,5.57538 -8.27531,11.38555 -9.65399,26.3353 -9.97487,23.11091 -11.623519,33.91818 -24.75525,63.70676"
       id="path3903" />
    <path
       style="color:#000000;fill:none;stroke:#808080;stroke-width:4;stroke-linecap:round;stroke-linejoin:round;stroke-miterlimit:4;stroke-opacity:1;stroke-dasharray:none;stroke-dashoffset:0;marker:none;visibility:visible;display:inline;overflow:visible;enable-background:accumulate"
       d="m 333.75439,170.80047 c -1.53689,1.21682 -24.8582,3.07253 -26.16295,1.76777 -1.78167,-1.78166 -17.60972,-0.38753 -19.79899,0.70711 -2.31502,1.1575 -17.85596,-0.94534 -20.50609,0.35355 0,0 -14.09471,-1.74405 -28.99138,0.35356 -3.63595,0.51198 -17.32759,1.18376 -21.92031,0.7071 -3.40657,-0.35355 -10.85039,0.34837 -12.711,0.31834 -5.5411,-0.0894 -3.8949,1.80298 -12.74484,1.09588 -1.68516,-0.13465 -8.11517,2.50387 -14.84924,3.18198 -10.52198,1.05954 -18.02493,3.08517 -31.81981,0.7071 -4.17113,-0.71905 -14.65153,-1.30345 -17.66749,-0.5235 -7.48616,1.93597 -12.31121,-0.77956 -20.1623,0.56748 -18.4115,3.15891 -23.611254,0.79195 -36.41642,-0.39754 -1.583668,-0.14711 -5.101804,-0.81223 -6.717514,-0.35355 -4.741124,1.34597 -22.039057,-0.28305 -29.353692,-0.86882 -3.75326,-0.30056 -1.807546,-1.13406 -6.3552,-0.89894 -5.404107,0.2794 -11.284253,0.35355 -17.6776693,0.35355"
       id="path3034"
       inkscape:connector-curvature="0"
       sodipodi:nodetypes="csssssssssssssssc" />
    <path
       style="color:#000000;fill:none;stroke:#ff0000;stroke-width:4;stroke-linecap:round;stroke-linejoin:round;stroke-miterlimit:4;stroke-opacity:1;stroke-dasharray:none;stroke-dashoffset:0;marker:none;visibility:visible;display:inline;overflow:visible;enable-background:accumulate"
       d="m 14.367644,78.802884 c -12.4942327,0.379849 -24.488691,0.744505 -36.982918,1.124354"
       id="path7451-0"
       inkscape:connector-curvature="0"
       sodipodi:nodetypes="cc" />
    <path
       style="color:#000000;fill:none;stroke:#ff0000;stroke-width:4;stroke-linecap:round;stroke-linejoin:round;stroke-miterlimit:4;stroke-opacity:1;stroke-dasharray:none;stroke-dashoffset:0;marker:none;visibility:visible;display:inline;overflow:visible;enable-background:accumulate"
       d="m 12.034948,51.552325 -37.766741,0.46781"
       id="path3708-9"
       sodipodi:nodetypes="cc"
       inkscape:connector-curvature="0" />
    <path
       style="color:#000000;fill:none;stroke:#008000;stroke-width:3.99999952;stroke-linecap:round;stroke-linejoin:miter;stroke-miterlimit:4;stroke-opacity:1;stroke-dasharray:none;stroke-dashoffset:0;marker:none;visibility:visible;display:inline;overflow:visible;enable-background:accumulate"
       d="M 13.967805,65.450758 -67.43025,66.541021"
       id="path3710-4"
       sodipodi:nodetypes="cc"
       inkscape:connector-curvature="0" />
    <path
       style="color:#000000;fill:none;stroke:#008000;stroke-width:3.99999952;stroke-linecap:round;stroke-linejoin:miter;stroke-miterlimit:4;stroke-opacity:1;stroke-dasharray:none;stroke-dashoffset:0;marker:none;visibility:visible;display:inline;overflow:visible;enable-background:accumulate"
       d="m -83.0833,38.344604 94.195758,-0.33263"
       id="path3712-8"
       inkscape:connector-curvature="0"
       sodipodi:nodetypes="cc" />
    <path
       sodipodi:nodetypes="cc"
       inkscape:connector-curvature="0"
       id="path3913"
       d="m 456.96256,167.54849 c 18.44176,0.1197 36.16175,1.38641 45.32347,1.15979"
       style="color:#000000;fill:none;stroke:#808080;stroke-width:4;stroke-linecap:round;stroke-linejoin:round;stroke-miterlimit:4;stroke-opacity:1;stroke-dasharray:none;stroke-dashoffset:0;marker:none;visibility:visible;display:inline;overflow:visible;enable-background:accumulate" />
    <path
       style="color:#000000;fill:none;stroke:#c87137;stroke-width:3.99999976;stroke-linecap:round;stroke-linejoin:round;stroke-miterlimit:4;stroke-opacity:1;stroke-dasharray:none;stroke-dashoffset:0;marker:none;visibility:visible;display:inline;overflow:visible;enable-background:accumulate"
       d="m 64.5,52.25 c 0.866226,7 0.462754,14 -2,21 0.321053,12.157015 3.101882,14.305372 2.75,21.75 3.62653,0.08129 6.043154,-1.640871 10.25,-1.5 20.357651,1.108055 26.22025,-0.104287 36.5,0.25 0.78164,-4.332638 -3.74357,-9.071908 -0.75,-15.5 0.16656,-9.208175 -0.0874,-17.7855 -1.25,-25 C 101.77299,51.81897 94.635592,53.656776 87,54 75.652807,50.039184 72.526517,51.758776 64.5,52.25 z"
       id="path3050"
       inkscape:connector-curvature="0"
       sodipodi:nodetypes="ccccccccc" />
  </g>
</svg>
