<?xml version="1.0" encoding="UTF-8" standalone="no"?>
<!-- Created with Inkscape (http://www.inkscape.org/) -->

<svg
   xmlns:dc="http://purl.org/dc/elements/1.1/"
   xmlns:cc="http://creativecommons.org/ns#"
   xmlns:rdf="http://www.w3.org/1999/02/22-rdf-syntax-ns#"
   xmlns:svg="http://www.w3.org/2000/svg"
   xmlns="http://www.w3.org/2000/svg"
   xmlns:sodipodi="http://sodipodi.sourceforge.net/DTD/sodipodi-0.dtd"
   xmlns:inkscape="http://www.inkscape.org/namespaces/inkscape"
   width="480"
   height="320"
   id="svg2"
   version="1.1"
   inkscape:version="0.48.0 r9654"
   sodipodi:docname="itnas301.svg"
   inkscape:export-xdpi="90"
   inkscape:export-ydpi="90"
   inkscape:export-filename="itnas301.png">
  <defs
     id="defs4">
    <inkscape:perspective
       sodipodi:type="inkscape:persp3d"
       inkscape:vp_x="0 : 160 : 1"
       inkscape:vp_y="0 : 1000 : 0"
       inkscape:vp_z="480 : 160 : 1"
       inkscape:persp3d-origin="240 : 106.66667 : 1"
       id="perspective8" />
  </defs>
  <sodipodi:namedview
     id="base"
     pagecolor="#ffffff"
     bordercolor="#666666"
     borderopacity="1.0"
     inkscape:pageopacity="1"
     inkscape:pageshadow="2"
     inkscape:zoom="2"
     inkscape:cx="236.9737"
     inkscape:cy="104.67998"
     inkscape:document-units="px"
     inkscape:current-layer="layer1"
     showgrid="false"
     inkscape:snap-nodes="true"
     inkscape:snap-global="false"
     inkscape:snap-grids="true"
     showguides="true"
     inkscape:window-width="1280"
     inkscape:window-height="998"
     inkscape:window-x="1276"
     inkscape:window-y="-4"
     inkscape:window-maximized="1">
    <inkscape:grid
       empspacing="5"
       visible="true"
       enabled="true"
       snapvisiblegridlinesonly="true"
       type="xygrid"
       id="grid2816" />
  </sodipodi:namedview>
  <metadata
     id="metadata7">
    <rdf:RDF>
      <cc:Work
         rdf:about="">
        <dc:format>image/svg+xml</dc:format>
        <dc:type
           rdf:resource="http://purl.org/dc/dcmitype/StillImage" />
        <dc:title />
      </cc:Work>
    </rdf:RDF>
  </metadata>
  <g
     inkscape:label="Layer 1"
     inkscape:groupmode="layer"
     id="layer1"
     transform="translate(0,0)">
    <path
       style="color:#000000;fill:none;stroke:#0000ff;stroke-width:4;stroke-linecap:round;stroke-linejoin:round;stroke-miterlimit:4;stroke-opacity:1;stroke-dasharray:none;stroke-dashoffset:0;marker:none;visibility:visible;display:inline;overflow:visible;enable-background:accumulate"
       d="m 280.5,202 c -9.50812,-9.6159 -24.55041,-10.0126 -30.5,-11.5 -8.963,-2.24075 -17.95317,-4.73829 -27,-7 -14.45301,-3.61325 -31.64776,0.71306 -44.5,-2.5 -4.40603,-1.10151 -6.9683,-3.2855 -11.5,-4.5 -22.80747,-6.11244 -43.79399,9.09919 -67,5 -8.562727,-1.51255 -9.286296,1.89137 -19.5,3.5"
       id="path3128"
       inkscape:connector-curvature="0"
       sodipodi:nodetypes="csssssc" />
    <path
       style="color:#000000;fill:none;stroke:#808080;stroke-width:4;stroke-linecap:butt;stroke-linejoin:miter;stroke-miterlimit:4;stroke-opacity:1;stroke-dasharray:none;stroke-dashoffset:0;marker:none;visibility:visible;display:inline;overflow:visible;enable-background:accumulate"
       d="M 51.18127,201.51265 C 44.12764,150.45561 51.17227,166.1979 37.81031,125.01796 28.01044,94.815213 39.40003,77.74277 24.86406,57.005334 17.58869,45.205264 22.50537,38.291275 34.06941,34.302261 49.76146,28.88929 79.779,23.155125 106.01184,25.321 c 27.49504,2.270087 14.43055,5.958559 37.97903,3.565355 C 162.2089,27.034879 157,-6.7872909 156,-21.75"
       id="path3174"
       inkscape:connector-curvature="0"
       sodipodi:nodetypes="cscsssc" />
    <path
       style="color:#000000;fill:none;stroke:#808080;stroke-width:4;stroke-linecap:butt;stroke-linejoin:miter;stroke-miterlimit:4;stroke-opacity:1;stroke-dasharray:none;stroke-dashoffset:0;marker:none;visibility:visible;display:inline;overflow:visible;enable-background:accumulate"
       d="m 494,235 -32,0 c -50.24879,-3.613 -57.92844,0.33561 -65.79257,-15.88925 C 378.0298,181.6076 389.68832,202.97408 380,154 372.711,117.15438 380,101.74043 353,56 341.46175,29.126256 324.7636,35.602653 308.0388,38.610649 256.55055,47.870936 280.29303,37.804542 237.75337,45.445198 226.50686,43.291173 218.44165,34.152361 217.64943,26.558162 216.41382,14.713553 223.14024,-0.67148643 223,-10"
       id="path3161"
       inkscape:connector-curvature="0"
       sodipodi:nodetypes="ccsscscsc" />
    <path
       style="color:#000000;fill:none;stroke:#808080;stroke-width:4;stroke-linecap:butt;stroke-linejoin:miter;stroke-miterlimit:4;stroke-opacity:1;stroke-dasharray:none;stroke-dashoffset:0;marker:none;visibility:visible;display:inline;overflow:visible;enable-background:accumulate"
       d="M 280.11985,201.90555 C 281.34964,198.20348 283.20239,195.3988 286,194 c 14.93581,-7.4679 21.44019,26.35159 20,35 -0.54613,3.27952 -5.3628,25.17241 0.48181,37.79192 C 316.85693,289.19358 309.13723,283.66866 326,291 c 48.7495,21.19457 88.51255,-2.61603 135,9 14.08382,2.12503 28.51132,3.19552 42.99342,3.27056"
       id="path3001"
       inkscape:connector-curvature="0"
       sodipodi:nodetypes="csssscc" />
    <path
       style="fill:none;stroke:#000000;stroke-width:1;stroke-linecap:butt;stroke-linejoin:miter;stroke-opacity:1;display:inline;stroke-miterlimit:4;stroke-dasharray:none"
       d="m 483.30019,235.12653 0,65.49381"
       id="path3099"
       inkscape:connector-curvature="0" />
    <path
       style="color:#000000;fill:none;stroke:#0000ff;stroke-width:4;stroke-linecap:round;stroke-linejoin:round;stroke-miterlimit:4;stroke-opacity:1;stroke-dasharray:none;stroke-dashoffset:0;marker:none;visibility:visible;display:inline;overflow:visible;enable-background:accumulate"
       d="m 161.17574,-30.357485 c -2.13617,-1.161223 0.25094,12.220958 0.27696,32.611634 0.014,11.010126 -1.41504,15.495958 -3.54828,20.429764 -3.71103,8.582964 1.54494,8.850002 6.66994,14.713645 16.63902,-15.582835 5.34343,-13.750316 4.84069,-23.269492 -0.99261,-18.7945002 -3.22673,-41.76071 -8.23931,-44.485551 z"
       id="path4063"
       inkscape:connector-curvature="0"
       sodipodi:nodetypes="ssscss" />
    <path
       style="color:#000000;fill:none;stroke:#808080;stroke-width:4;stroke-linecap:butt;stroke-linejoin:miter;stroke-miterlimit:4;stroke-opacity:1;stroke-dasharray:none;stroke-dashoffset:0;marker:none;visibility:visible;display:inline;overflow:visible;enable-background:accumulate"
       d="m 184.23604,19.391949 0,0 c 4.89777,-0.424318 4.27903,9.315048 1.66441,9.972047 -3.78754,0.951726 -10.18948,-3.716252 -1.66441,-9.972047 z"
       id="path3972"
       inkscape:connector-curvature="0"
       sodipodi:nodetypes="ccsc" />
    <path
       style="color:#000000;fill:none;stroke:#808080;stroke-width:4;stroke-linecap:butt;stroke-linejoin:miter;stroke-miterlimit:4;stroke-opacity:1;stroke-dasharray:none;stroke-dashoffset:0;marker:none;visibility:visible;display:inline;overflow:visible;enable-background:accumulate"
       d="m 203.45326,21.276624 c 6.81233,1.672127 8.46413,8.271664 -1.83583,9.053789 -8.12794,0.617193 -4.80785,-10.684519 1.83583,-9.053789 z"
       id="path3974"
       inkscape:connector-curvature="0"
       sodipodi:nodetypes="sss" />
    <path
       style="color:#000000;fill:none;stroke:#808080;stroke-width:4;stroke-linecap:butt;stroke-linejoin:miter;stroke-miterlimit:4;stroke-opacity:1;stroke-dasharray:none;stroke-dashoffset:0;marker:none;visibility:visible;display:inline;overflow:visible;enable-background:accumulate"
       d="m 163.76735,20.864338 c 17.68075,4.40964 -12.4194,16.487924 0,0 z"
       id="path3976"
       inkscape:connector-curvature="0" />
    <path
       style="color:#000000;fill:none;stroke:#0000ff;stroke-width:4;stroke-linecap:round;stroke-linejoin:round;stroke-miterlimit:4;stroke-opacity:1;stroke-dasharray:none;stroke-dashoffset:0;marker:none;visibility:visible;display:inline;overflow:visible;enable-background:accumulate"
       d="M 446.04615,293.40704 C 464.44927,294.83932 483.82131,297.4521 502,298"
       id="path4033" />
    <path
       id="path3019"
       style="color:#000000;fill:none;stroke:#c87137;stroke-width:4;stroke-linecap:round;stroke-linejoin:round;stroke-miterlimit:4;stroke-opacity:1;stroke-dasharray:none;stroke-dashoffset:0;marker:none;visibility:visible;display:inline;overflow:visible;enable-background:accumulate"
       d="m 307.5,256.5 c 4.65825,0.56983 12.18096,1.92699 20.5,10 10.80234,10.48286 -0.47425,19.20376 20.5,26 m 0,0 c 11.94819,3.87155 37.72879,2.83569 63.5,0.5 10.5446,-0.95567 22.09092,-0.52341 34.04615,0.40704" />
    <path
       style="color:#000000;fill:none;stroke:#c87137;stroke-width:4;stroke-linecap:round;stroke-linejoin:round;stroke-miterlimit:4;stroke-opacity:1;stroke-dasharray:none;stroke-dashoffset:0;marker:none;visibility:visible;display:inline;overflow:visible;enable-background:accumulate"
       d="m 72.269939,194.40882 c -18.825503,11.95903 47.298071,32.08827 53.771521,7.96927 1.35489,-5.04807 -12.21848,-11.67584 -19.4901,-13.66402 -21.826681,-5.96777 -28.561156,2.42057 -24.336414,7.62944 8.266902,10.19261 15.545037,11.68551 32.300804,13.6603 26.99203,3.18122 76.85975,-1.46137 42.60166,-24.0059 -22.15327,-14.5786 -55.39045,26.10698 -35.21796,33.52552 13.57054,4.99064 89.45434,-22.38265 68.67579,-28.77189 -42.99747,-13.22139 -48.74211,18.62208 -29.50046,28.98381 10.79348,5.81233 82.20098,-17.47498 63.04801,-27.40656 -19.59376,-10.16013 -55.77876,25.50255 -36.51072,31.19894 20.82608,6.157 98.18162,-16.47781 76.40298,-21.99913 -11.86478,-3.00796 -31.52025,-7.52767 -40.70817,-0.86661 -29.88072,21.66293 57.0871,34.34396 16.93787,5.42823"
       id="path3042"
       inkscape:connector-curvature="0"
       sodipodi:nodetypes="ssssssssssssss" />
    <path
       inkscape:connector-curvature="0"
       style="fill:none;stroke:#80ff00;stroke-width:4;stroke-linecap:round;stroke-linejoin:round;stroke-miterlimit:4;stroke-opacity:1;stroke-dasharray:none"
       d="m 214.27527,53.431887 c -0.36728,1.794118 2.84887,-0.32108 2.32091,1.787977 1.34471,2.441119 4.376,3.189442 5.66983,5.685065 1.23801,1.401016 3.20222,1.97525 4.40173,3.41923 1.31536,1.462031 3.09226,2.320429 4.82798,3.238083 1.45967,0.872552 2.60422,2.101969 3.95235,3.096122 0.45858,1.447494 1.59307,1.97895 2.15584,3.376876 0.68655,1.682258 2.7895,2.149701 3.13131,4.12409 -0.62168,0.646599 -2.51912,0.349821 -3.64377,0.625473 -3.14519,0.320236 -6.29093,0.642265 -9.43514,0.958629 -1.76016,-0.340048 -3.91708,0.188813 -5.32547,-0.845154 -1.3612,-0.481163 -3.00262,-0.296191 -4.47819,-0.485815 -1.70442,-0.01935 -3.59669,-0.207277 -5.31234,-0.410072 -1.84194,-0.01557 -3.59706,-0.297557 -5.5594,0.06942 -1.5373,0.284706 -3.46526,0.612717 -2.5472,-1.639355 0.29524,-1.685291 1.8948,-3.150244 2.1844,-4.8467 0.85256,-1.867712 1.13967,-3.768939 2.6878,-5.573906 0.66273,-1.975671 1.86246,-4.035562 2.12417,-6.00192 0.93405,-1.680778 1.44569,-3.514287 2.08049,-5.197273 0.096,-0.425467 0.13294,-1.256275 0.76454,-1.380525 z"
       id="path2942" />
    <path
       inkscape:connector-curvature="0"
       style="fill:none;stroke:#80ff00;stroke-width:4;stroke-linecap:round;stroke-linejoin:round;stroke-miterlimit:4;stroke-opacity:1;stroke-dasharray:none"
       d="m 187.02402,32.549685 c -1.48888,3.09182 -2.54779,7.806742 -4.18082,10.783488 -1.68321,4.077095 -0.70175,7.83145 -4.34707,10.590396 -1.91931,2.064692 -6.24594,8.71987 -6.11356,3.24945 0.14733,-3.592193 -0.61618,-5.216493 -0.11855,-9.425125 -0.30827,-4.377843 1.9726,-7.107019 3.53464,-10.706158 0.29794,-2.76496 -0.12343,-8.116227 0.82887,-8.849033"
       id="path2956-7-4"
       sodipodi:nodetypes="ccccccc" />
    <path
       style="color:#000000;fill:none;stroke:#0000ff;stroke-width:4;stroke-linecap:round;stroke-linejoin:round;stroke-miterlimit:4;stroke-opacity:1;stroke-dasharray:none;stroke-dashoffset:0;marker:none;visibility:visible;display:inline;overflow:visible;enable-background:accumulate"
       d="m 153.72915,51.205335 c -29.35867,17.175906 -30.88332,-11.060346 0,0 z"
       id="path4073"
       inkscape:connector-curvature="0"
       sodipodi:nodetypes="cc" />
    <path
       sodipodi:nodetypes="cc"
       inkscape:connector-curvature="0"
       id="path4092"
       d="m 111.24332,61.61739 c -5.7324,33.527367 -28.333271,16.532916 0,0 z"
       style="color:#000000;fill:none;stroke:#0000ff;stroke-width:4;stroke-linecap:round;stroke-linejoin:round;stroke-miterlimit:4;stroke-opacity:1;stroke-dasharray:none;stroke-dashoffset:0;marker:none;visibility:visible;display:inline;overflow:visible;enable-background:accumulate" />
    <path
       style="color:#000000;fill:none;stroke:#0000ff;stroke-width:4;stroke-linecap:round;stroke-linejoin:round;stroke-miterlimit:4;stroke-opacity:1;stroke-dasharray:none;stroke-dashoffset:0;marker:none;visibility:visible;display:inline;overflow:visible;enable-background:accumulate"
       d="m 112.44238,109.14773 c 14.86214,30.59512 -13.407633,29.93904 0,0 z"
       id="path4094"
       inkscape:connector-curvature="0"
       sodipodi:nodetypes="cc" />
    <path
       style="color:#000000;fill:none;stroke:#c87137;stroke-width:4;stroke-linecap:round;stroke-linejoin:round;stroke-miterlimit:4;stroke-opacity:1;stroke-dasharray:none;stroke-dashoffset:0;marker:none;visibility:visible;display:inline;overflow:visible;enable-background:accumulate"
       d="m 308.25,262 c 7.34103,0.0272 17.94464,8.75679 19.70815,16.66388 C 330.2532,288.95425 329,287.69262 325.25,287.75"
       id="path4097"
       inkscape:connector-curvature="0"
       sodipodi:nodetypes="csc" />
    <path
       style="color:#000000;fill:none;stroke:#0000ff;stroke-width:4;stroke-linecap:round;stroke-linejoin:round;stroke-miterlimit:4;stroke-opacity:1;stroke-dasharray:none;stroke-dashoffset:0;marker:none;visibility:visible;display:inline;overflow:visible;enable-background:accumulate"
       d="m 80.5,185 c -16.039194,2.52613 -33.442078,15.55792 -28,21 0.789206,14.28921 9.706873,18.50709 32.165483,12.42993 C 88.57791,215.41994 107.90681,224.66487 130,228.5 c 12.3752,2.1482 25.97902,-1.2521 38.5,0 29.29167,2.92917 66.42145,7.29004 92,-6 9.54834,-4.9611 27.72454,-12.52441 18.5,-22"
       id="path3917"
       inkscape:connector-curvature="0"
       sodipodi:nodetypes="cccsssc" />
    <path
       inkscape:connector-curvature="0"
       style="color:#000000;fill:none;stroke:#80ff00;stroke-width:4;stroke-linecap:round;stroke-linejoin:round;stroke-miterlimit:4;stroke-opacity:1;stroke-dasharray:none;stroke-dashoffset:0;marker:none;visibility:visible;display:inline;overflow:visible;enable-background:accumulate"
       d="m 54.90649,210.62615 c -0.55435,-1.25073 3.74459,-3.48595 5.25253,-5.14099 1.22554,-1.34501 2.25157,-2.92562 3.59922,-4.09448 1.49479,-1.2964 3.17588,-2.35273 4.61138,-3.72251 2.15493,-2.05615 4.11568,-4.37084 6.12828,-6.60681 0.98391,-1.09317 1.43722,-2.56843 2.69485,-3.2472 1.56239,-0.84248 3.14235,-3.7568 4.27819,-3.11394 1.05589,0.5976 0.001,3.54364 0.57229,5.22974 1.83556,5.41925 0.3106,7.50265 -0.21213,11.08807 -0.36907,2.53094 -1.5319,4.54203 -1.67353,7.08115 -0.15524,2.78454 0.52612,5.56069 0.40537,8.35069 -0.076,1.75559 -0.68568,3.33349 -0.86594,5.03905 -0.26944,2.54906 -2.15885,0.0434 -3.05854,-0.56589 -1.66517,-1.12778 -3.48168,-1.91215 -5.19147,-2.94049 -1.4777,-0.88872 -3.22844,-1.04036 -4.69004,-2.08745 -1.58013,-1.13203 -3.2006,-2.32379 -4.95563,-3.03392 -1.68026,-0.67992 -3.42268,-1.25523 -5.18113,-1.712 -0.864,-0.22442 -1.43386,0.10838 -1.71372,-0.52301 z"
       id="path2870"
       sodipodi:nodetypes="csssssssssssssssss" />
    <path
       inkscape:connector-curvature="0"
       style="fill:none;stroke:#80ff00;stroke-width:4;stroke-linecap:round;stroke-linejoin:round;stroke-miterlimit:4;stroke-opacity:1;stroke-dasharray:none"
       d="m 157.46825,281.62906 c 0,0 -2.21062,-5.11107 -11.30276,-5.99717 -5.48243,0.61049 -4.61965,1.96287 -12.03514,4.83457 -4.00519,0.67935 -12.88426,5.34461 -15.16102,6.29091 2.61049,3.6194 -3.07816,7.3295 -2.28386,14.19406 -3.12251,5.6426 -0.47232,11.16727 13.93073,13.08871 3.1855,0.12071 8.46799,0.99907 10.09383,-0.12071"
       id="path2958"
       sodipodi:nodetypes="ccccccc" />
    <path
       inkscape:connector-curvature="0"
       style="color:#000000;fill:none;stroke:#80ff00;stroke-width:4;stroke-linecap:round;stroke-linejoin:round;stroke-miterlimit:4;stroke-opacity:1;stroke-dasharray:none;stroke-dashoffset:0;marker:none;visibility:visible;display:inline;overflow:visible;enable-background:accumulate"
       d="m 130.84703,288.08356 c -3.46745,0.19749 -6.78678,1.71214 -10.01348,-0.009 -3.34856,-1.78691 -5.159,-5.56295 -7.67156,-8.51194 -2.76748,-3.24813 -9.21177,-4.67775 -22.043658,-15.18868 -12.831889,-10.51092 -8.955801,-18.39587 -15.9957,-23.11392 -3.097762,-2.07607 -7.71945,-7.89781 -8.764238,-11.51681 -0.805724,-2.7917 -1.783769,-8.33245 1.095611,-12.44102"
       id="path2833"
       sodipodi:nodetypes="csscsss" />
    <path
       inkscape:connector-curvature="0"
       style="fill:none;stroke:#80ff00;stroke-width:3.99999976;stroke-linecap:round;stroke-linejoin:round;stroke-miterlimit:4;stroke-opacity:1;stroke-dasharray:none"
       d="m 132.0205,287.49278 c 7.89496,-0.97543 12.30785,0.70619 23.17714,-10.47406 12.84775,-7.48058 18.23655,-4.84257 30.19686,-7.07304 7.44988,-2.69466 13.02767,-3.15324 22.96522,-4.61223 8.34794,-1.40409 17.02555,-10.96524 24.31411,-15.88803 4.321,-2.55069 9.76166,-9.91295 10.17541,-14.78039 5.9962,-9.43279 7.77048,-12.17856 10.08522,-24.69702 6.87134,-14.47018 1.52415,-21.82171 11.92611,-25.79368 -0.22215,0.49967 1.85254,-0.64322 1.95413,-1.20221"
       id="path4123"
       sodipodi:nodetypes="ccccccccc" />
    <path
       style="color:#000000;fill:none;stroke:#808080;stroke-width:4;stroke-linecap:round;stroke-linejoin:miter;stroke-miterlimit:4;stroke-opacity:1;stroke-dasharray:none;stroke-dashoffset:0;marker:none;visibility:visible;display:inline;overflow:visible;enable-background:accumulate"
       d="m 175,283.5 c -11.18199,-1.5576 -14.27676,0.40071 -23.09137,3.75036 C 145.56183,289.66222 145.79298,294.85707 147,305"
       id="path4671"
       inkscape:connector-curvature="0"
       sodipodi:nodetypes="csc" />
    <path
       style="color:#000000;fill:none;stroke:#0000ff;stroke-width:4;stroke-linecap:round;stroke-linejoin:round;stroke-miterlimit:4;stroke-opacity:1;stroke-dasharray:none;stroke-dashoffset:0;marker:none;visibility:visible;display:inline;overflow:visible;enable-background:accumulate"
       d="m 91.5,211.5 c 5.44191,-9.39965 13.49068,-10.1066 22.5,-21 10.8873,-5.47183 19.26711,-9.80132 18.5,-3 -0.3939,3.49235 -15.59075,13.3185 -14.5,15.5 0.37336,0.74672 26.36043,-9.31978 31,-4.5 -1.58215,11.32426 -26.41098,13.43637 -44,18.5"
       id="path4692"
       inkscape:connector-curvature="0"
       sodipodi:nodetypes="ccsscc" />
    <path
       style="color:#000000;fill:none;stroke:#0000ff;stroke-width:4;stroke-linecap:round;stroke-linejoin:round;stroke-miterlimit:4;stroke-opacity:1;stroke-dasharray:none;stroke-dashoffset:0;marker:none;visibility:visible;display:inline;overflow:visible;enable-background:accumulate"
       d="M 49.866508,194.51912 C 43.90494,181.31875 27.410197,144.85499 30.722084,168.25619 c 1.916833,13.54401 2.067875,18.64728 9.932531,29.67482 3.669722,5.14556 -33.1586576,-28.93721 -27.881585,-12.84979 2.405304,7.33269 20.231295,25.68213 34.716829,26.24865"
       id="path4694"
       inkscape:connector-curvature="0"
       sodipodi:nodetypes="csssc" />
    <path
       inkscape:connector-curvature="0"
       style="fill:none;stroke:#80ff00;stroke-width:3.99999976;stroke-linecap:round;stroke-linejoin:round;stroke-miterlimit:4;stroke-opacity:1;stroke-dasharray:none"
       d="m 96.668285,213.68774 c -3.04386,3.02228 -5.864824,6.37158 -10.216803,7.86885 -4.984663,2.35646 -9.809208,5.06729 -15.255322,6.79811 -3.122621,1.63262 -3.02249,5.70852 -9.322181,-0.0956 -5.94874,-4.93516 -8.166338,-9.6971 -7.628444,-14.88928 0.0443,-5.48566 -0.348378,-11.72511 0.750828,-16.50482 1.23677,-1.00692 -0.168028,-2.64782 0.835299,-3.76558"
       id="path2956"
       sodipodi:nodetypes="ccccccc" />
    <path
       style="color:#000000;fill:none;stroke:#80ff00;stroke-width:4;stroke-linecap:round;stroke-linejoin:round;stroke-miterlimit:4;stroke-opacity:1;stroke-dasharray:none;stroke-dashoffset:0;marker:none;visibility:visible;display:inline;overflow:visible;enable-background:accumulate"
       d="m 207.23708,65.280834 c -5.21915,-3.558304 -5.89272,-3.944914 -7.17138,-1.778404 -5.18315,8.782083 -1.12369,8.865968 -3.43098,13.928915 -1.78233,3.911332 -5.32601,12.46005 -13.69278,7.14263 -4.87839,-3.100413 -5.89772,-12.754509 -7.10122,-16.876467 -1.66494,-5.702345 -3.6867,-11.21836 -10.91773,-13.000107"
       id="path4733"
       inkscape:connector-curvature="0"
       sodipodi:nodetypes="cssssc" />
    <path
       inkscape:connector-curvature="0"
       style="color:#000000;fill:none;stroke:#80ff00;stroke-width:3.99999976;stroke-linecap:round;stroke-linejoin:round;stroke-miterlimit:4;stroke-opacity:1;stroke-dasharray:none;stroke-dashoffset:0;marker:none;visibility:visible;display:inline;overflow:visible;enable-background:accumulate"
       d="m 163.88131,54.798611 c -10.41872,-1.671585 -17.76119,8.127313 -41.40098,10.118176 -5.09006,0.428667 -17.43183,12.820373 -15.01065,23.070402 3.85764,16.331221 9.59814,24.006221 22.93972,19.315671 16.96524,-5.96453 16.34239,-12.161612 26.74396,-8.949988 16.02453,4.947788 24.60749,-7.589199 37.44394,-11.165399"
       id="path4125-8"
       sodipodi:nodetypes="csssss" />
    <path
       inkscape:connector-curvature="0"
       style="fill:none;stroke:#80ff00;stroke-width:3.99999928;stroke-linecap:round;stroke-linejoin:round;stroke-miterlimit:4;stroke-opacity:1;stroke-dasharray:none"
       d="m 195.79901,31.102803 c 0.13052,3.724862 -0.46366,7.006191 0.51854,10.480152 -2.56309,5.345214 1.65421,6.421149 2.50647,13.193635 0.54746,2.858723 2.35279,10.702967 3.36705,5.11637 1.58246,-3.692651 4.26528,-5.939263 5.03792,-10.203711 1.01782,-4.304581 2.16911,-5.318473 2.64808,-9.475752 0.0679,-2.675423 -1.73398,-5.71743 -0.84829,-8.566756"
       id="path2956-6"
       sodipodi:nodetypes="ccccccc" />
  </g>
</svg>
