<?xml version="1.0" encoding="UTF-8" standalone="no"?>
<!-- Created with Inkscape (http://www.inkscape.org/) -->

<svg
   xmlns:dc="http://purl.org/dc/elements/1.1/"
   xmlns:cc="http://creativecommons.org/ns#"
   xmlns:rdf="http://www.w3.org/1999/02/22-rdf-syntax-ns#"
   xmlns:svg="http://www.w3.org/2000/svg"
   xmlns="http://www.w3.org/2000/svg"
   xmlns:sodipodi="http://sodipodi.sourceforge.net/DTD/sodipodi-0.dtd"
   xmlns:inkscape="http://www.inkscape.org/namespaces/inkscape"
   inkscape:export-filename="itnas174.png"
   inkscape:export-ydpi="90"
   inkscape:export-xdpi="90"
   sodipodi:docname="itnas174.svg"
   inkscape:version="0.47 r22583"
   version="1.1"
   id="svg2"
   height="320"
   width="480">
  <defs
     id="defs4" />
  <sodipodi:namedview
     id="base"
     pagecolor="#ffffff"
     bordercolor="#666666"
     borderopacity="1.0"
     inkscape:pageopacity="1"
     inkscape:pageshadow="2"
     inkscape:zoom="2.8284271"
     inkscape:cx="157.0649"
     inkscape:cy="167.68778"
     inkscape:document-units="px"
     inkscape:current-layer="layer1"
     showgrid="false"
     inkscape:snap-nodes="true"
     inkscape:snap-global="false"
     inkscape:snap-grids="true"
     showguides="true"
     inkscape:window-width="1280"
     inkscape:window-height="774"
     inkscape:window-x="1276"
     inkscape:window-y="1020"
     inkscape:window-maximized="1"
     inkscape:object-nodes="true">
    <inkscape:grid
       empspacing="5"
       visible="true"
       enabled="true"
       snapvisiblegridlinesonly="true"
       type="xygrid"
       id="grid2816" />
  </sodipodi:namedview>
  <metadata
     id="metadata7">
    <rdf:RDF>
      <cc:Work
         rdf:about="">
        <dc:format>image/svg+xml</dc:format>
        <dc:type
           rdf:resource="http://purl.org/dc/dcmitype/StillImage" />
        <dc:title></dc:title>
      </cc:Work>
    </rdf:RDF>
  </metadata>
  <g
     inkscape:label="Layer 1"
     inkscape:groupmode="layer"
     id="layer1"
     transform="translate(0,0)">
    <path
       style="color:#000000;fill:none;stroke:#008000;stroke-width:4;stroke-linecap:butt;stroke-linejoin:miter;stroke-miterlimit:4;stroke-opacity:1;stroke-dasharray:none;stroke-dashoffset:0;marker:none;visibility:visible;display:inline;overflow:visible;enable-background:accumulate"
       d="m -102.44326,263.37369 c 9.465331,0.33197 19.293721,1.65239 33.324423,0.89616 10.961691,2.00488 23.641571,3.14011 36.004876,1.97828 3.178795,-0.32319 15.719078,1.61115 18.87966,1.89933 19.929888,-0.0799 29.33378,4.74382 48.747691,7.05403 12.070607,0.94885 23.83913,3.91612 35.75969,5.86509 19.74238,3.24596 39.80533,1.66159 59.70554,2.0176 16.90844,-0.0578 33.74455,2.16436 50.29203,5.51774 15.96429,3.49756 32.44203,3.77167 48.68812,2.63975 7.89786,-0.61773 15.80038,-1.24665 23.72749,-1.30935 19.11001,-0.27831 38.2137,0.89705 57.32204,0.4375 22.85019,-1.00998 45.64473,-3.27873 68.53101,-3.44943 18.9332,-0.67644 37.67267,2.90167 56.06981,6.98437 11.68253,3.25376 24.06604,3.01283 35.62067,6.81212 0.32446,0.20535 4.46519,1.87418 6.35156,2 19.57612,1.30568 29.00549,-0.55743 43.14213,-1.10166"
       id="path2852"
       sodipodi:nodetypes="ccccccccccccccsc" />
    <path
       id="path2833"
       style="color:#000000;fill:none;stroke:#808080;stroke-width:4;stroke-linecap:round;stroke-linejoin:round;stroke-miterlimit:4;stroke-opacity:1;stroke-dasharray:none;stroke-dashoffset:0;marker:none;visibility:visible;display:inline;overflow:visible;enable-background:accumulate"
       d="m 230.56636,99.76882 c 12.54815,-0.530986 16.68853,-5.769325 50.25301,-8.535631 10.77671,-1.788669 26.35144,-3.42308 33.37381,-6.793414 5.83766,-1.026781 11.99827,-2.247426 18.57341,-3.49212 20.06545,-3.798451 39.01383,-4.668934 59.39697,-7.020815 5.37624,-0.620331 2.16113,20.162327 2.04173,37.11673 -0.0942,13.37583 -1.8854,30.97602 -0.62751,38.5437 -0.86843,12.86944 -0.99893,22.36627 -0.93923,28.40361 0.14479,14.65165 3.64949,29.32287 -0.47499,28.87203 -17.08044,-1.86703 -42.81765,-2.26099 -55.86143,-2.12132 -26.88249,0.28786 -40.00115,1.35172 -55.86144,1.41422 -19.07225,-0.96116 -41.65622,-0.51266 -50.20458,-0.70711 -1.10197,2.45134 -2.79176,5.61383 -2.82842,7.68978 m -71.92834,69.2913 0.22741,-0.40606 c 3.18833,-2.53705 6.02884,-5.46313 9.48992,-7.59682 3.44321,-2.48366 5.90419,-6.20642 9.54543,-8.54561 4.74269,-3.00802 8.06223,-7.55452 12.14234,-11.28781 3.54668,-1.98751 5.53801,-5.73849 9.033,-7.75077 3.40391,-1.82477 6.43427,-4.20636 9.21933,-6.85754 2.37082,-2.19008 4.46819,-4.48427 6.79969,-6.72584 3.28691,-2.66283 4.92586,-6.60032 7.65189,-9.71588 3.18379,-2.93465 8.0104,-10.00173 8.0104,-10.00173 0,0 16.14613,0 16.14613,0 21.80155,-1.27986 42.66983,7.62884 61.2316,5.69053 35.44981,1.03896 38.18789,-1.7647 63.47135,-0.92003 21.92524,-1.30097 31.21586,2.75224 53.74367,4.33376 15.70055,2.94191 30.62685,4.13636 45.0745,2.73731 10.44109,0.86384 17.62743,2.10968 36.94633,4.94975 6.2354,-4.4724 -3.08547,-36.48746 -0.75472,-65.66058 0.36841,-4.61127 -3.30022,-47.17958 -0.7926,-68.956408 1.14098,-9.908568 2.21075,-33.93803 -0.574,-49.93788 -23.23716,4.01579 -43.17095,5.992555 -52.20525,7.80472 -18.60397,3.73172 -44.33057,8.833219 -67.2958,9.87295 -21.55667,0.97596 -40.49063,7.252626 -60.84569,11.07533 -23.83185,4.077789 -46.01957,3.478477 -57.99061,5.22199 -24.00532,3.496236 -64.9985,7.64998 -82.16924,9.62229 -30.30723,3.481228 -35.71428,4.43379 -51.90558,7.7631 -15.01055,3.086518 -14.61038,5.104988 -34.7751,7.013408 -8.11419,0.76794 -36.73028,11.22342 -51.755822,13.93292 -13.253632,2.38997 -26.563557,4.85606 -39.55159,8.03149 -11.412137,2.79015 -23.18089,3.8356 -34.31571,8.01881 -17.62031,-0.33287 -30.34256,9.64802 -48.90538,14.41505 -23.936728,8.06401 -45.036288,22.19367 -68.179788,23.61982 -31.02274,7.59874 -55.13147,8.02551 -90.99666,13.63662 -6.68274,1.04551 -25.26087,3.54729 -24.40158,7.52532 1.82469,8.44731 34.74701,0.74228 51.93902,3.47362 29.82126,-0.30237 59.66704,0.068 89.47595,-0.73566 20.56183,2.53426 41.126498,6.03695 61.800258,7.37424 13.17374,-1.91538 26.01279,1.09129 39.03681,2.4476 21.43871,1.80412 42.85852,2.93763 64.36256,3.46963 17.930972,-0.98217 35.780472,1.85534 53.740122,0.7071 5.66605,-0.005 11.30473,0.70782 16.97056,0.70711 6.56554,0.1583 9.48519,-0.18428 12.38806,0.1111 1.40054,0.20896 2.80084,0.48704 4.22503,0.44394 1.01209,-0.002 2.02315,-0.0597 3.03526,-0.06 2.24955,0.26487 3.06824,-9.3801 1.71295,-9.3575 -7.54247,0.72974 -15.08106,0.54891 -22.62741,0 -15.07697,-1.09667 -29.11212,0.59296 -46.66905,0 -11.924596,-0.40274 -26.515912,-1.60019 -35.355342,-2.82843 -1.509679,-0.20977 -2.178571,-12.58568 -0.730897,-30.18033 1.481894,-18.01057 -1.882922,-34.83828 1.438004,-35.5806 15.636704,-3.49526 26.208613,-7.59221 38.183765,-9.8995 19.95358,-3.84452 36.2728,-10.44323 57.06854,-13.67766 19.41012,-3.01892 36.86819,-6.40767 61.7254,-9.863966 13.90543,-1.933494 26.71449,-3.754126 39.29955,-5.363864"
       sodipodi:nodetypes="ccccssccccccccsssssssssssssscsscsscccccccccccsscccsssssssssccccccs" />
    <path
       style="fill:none;stroke:#0000ff;stroke-width:4;stroke-linecap:butt;stroke-linejoin:miter;stroke-miterlimit:4;stroke-opacity:1;stroke-dasharray:none"
       d="m 93.80081,242.32843 c -1.98926,0.27241 -4.05052,0.49747 -5.83427,1.49526 -1.69373,0.94516 -3.17574,2.23277 -4.48113,3.66058 -1.54477,1.71508 -2.82494,3.66401 -3.8096,5.75041 -0.54046,1.18021 -0.82204,2.45579 -1.1238,3.71157 -0.25266,1.28363 -0.12395,2.59861 -0.20257,3.89719 -0.0387,1.59856 -0.10356,3.24691 0.47324,4.76934 0.27893,1.05941 0.85496,1.99977 1.35313,2.96565 0.97586,1.311 1.9301,2.6502 3.13779,3.76279 1.63849,1.4824 3.28898,3.02331 5.32148,3.95122 1.32845,0.64353 2.71064,1.18738 4.1235,1.61476 1.62831,0.45252 3.32044,0.69876 5.01098,0.70248 1.66311,-0.0792 3.30017,-0.47433 4.87461,-1.00062 1.49964,-0.5417 3.00626,-1.13381 4.31087,-2.06627 1.34526,-0.85232 2.69299,-1.73688 3.78753,-2.90612 1.0506,-1.00529 1.80863,-2.27517 2.36298,-3.61109 0.38888,-0.97445 0.74201,-1.97252 0.98933,-2.99242 0.35816,-1.71285 0.55334,-3.45829 0.64343,-5.20473 -0.0902,-2.07906 -0.20733,-4.17404 -0.67068,-6.20826 -0.2817,-1.16456 -0.58373,-2.35082 -1.27456,-3.35086 -0.89047,-1.34775 -2.01279,-2.52666 -3.12562,-3.69091 -1.10745,-1.1097 -2.38971,-2.02785 -3.73916,-2.81757 -1.20388,-0.80969 -2.53066,-1.45334 -3.94642,-1.78746 -1.69528,-0.44646 -3.4624,-0.47885 -5.20267,-0.59597 -0.99295,-0.022 -1.98552,-0.11689 -2.97839,-0.049 z"
       id="path8177"
       sodipodi:nodetypes="cssssssssss" />
    <path
       style="fill:none;stroke:#c87137;stroke-width:4;stroke-linecap:round;stroke-linejoin:round;stroke-opacity:1;color:#000000;stroke-miterlimit:4;stroke-dasharray:none;stroke-dashoffset:0;marker:none;visibility:visible;display:inline;overflow:visible;enable-background:accumulate"
       d="m 411.75,245.5 c -14.51862,3.01982 -24.61813,1.42113 -33.73446,2.43618 -9.93577,1.1063 -20.0192,4.19195 -31.01554,9.06382 -14.0099,6.20701 -21.00291,8.62847 -30.5,18.25 -4.41021,4.46799 -6.75,11.25 -6.75,11.25"
       id="path8848"
       sodipodi:nodetypes="cssss" />
    <path
       style="color:#000000;fill:none;stroke:#94f3f3;stroke-width:4;stroke-linecap:round;stroke-linejoin:round;stroke-miterlimit:4;stroke-opacity:1;stroke-dasharray:none;stroke-dashoffset:0;marker:none;visibility:visible;display:inline;overflow:visible;enable-background:accumulate"
       d="m 417.58386,250.43223 c -2.47035,-3.28246 -5.98513,-8.52686 -3.86191,-12.42506 3.81422,-7.00284 6.54062,-5.57008 12.11869,-5.99079 5.9794,-0.45098 10.84484,-2.15978 17.18942,-2.07539 9.44611,0.12566 9.68451,1.6305 17.77967,1.2907 6.86911,-0.28834 21.62031,-1.40966 28.44822,1.63162 6.92678,3.0853 9.14305,7.67506 4.88819,12.43546 -4.85023,5.4265 -20.94362,4.87277 -26.42627,7.64913 -5.73823,2.90578 -15.6125,2.19144 -22.59084,1.46418 -5.39679,-0.56244 -11.15057,-2.7869 -16.97255,-2.13737 -3.32357,0.37079 -7.13511,2.7251 -10.57262,-1.84248 z"
       id="path8820"
       sodipodi:nodetypes="cssssssssss" />
    <path
       style="color:#000000;fill:none;stroke:#c87137;stroke-width:4;stroke-linecap:round;stroke-linejoin:round;stroke-miterlimit:4;stroke-opacity:1;stroke-dasharray:none;stroke-dashoffset:0;marker:none;visibility:visible;display:inline;overflow:visible;enable-background:accumulate"
       d="m 169.79197,180.92442 c -0.10705,17.01612 -2.31611,17.14212 -0.36419,17.29636 2.53197,0.20007 7.62375,0.17088 10.39414,-0.0457 4.54891,-0.35562 5.79148,0.5665 7.74769,0.2819 3.41036,-0.49615 16.77346,0.99812 16.70983,-0.86119 -0.13149,-3.84255 -1.17923,-14.18403 -1.22392,-16.54199 -0.10178,-5.37022 -1.741,-13.80789 -1.7975,-18.23125 -0.0231,-1.80845 -4.13995,-2.24752 -12.43697,-1.14064 -9.96355,1.3292 -16.95758,-1.69254 -16.95758,1.22274 l 0,1e-5 0,-1e-5 c 0,0 -2.03379,12.02495 -2.0715,18.01977 z"
       id="path2893"
       sodipodi:nodetypes="cssssssssccs" />
    <path
       style="color:#000000;fill:none;stroke:#00ffff;stroke-width:4;stroke-linecap:butt;stroke-linejoin:miter;stroke-miterlimit:4;stroke-opacity:1;stroke-dasharray:none;stroke-dashoffset:0;marker:none;visibility:visible;display:inline;overflow:visible;enable-background:accumulate"
       d="m 37.411994,142.63686 c -2.619966,0.36786 -1.793204,5.52336 -1.832297,7.68783 -0.171637,9.50156 -0.379606,15.50522 -0.474802,22.7252 -0.0701,5.317 0.634695,12.7282 -0.184202,17.88058 -0.528619,3.326 1.894627,3.89527 4.687059,3.97496 7.665589,0.21879 15.520409,0.58293 23.269126,1.2613 6.271115,0.54903 12.64199,-0.41862 18.854927,0.4201 1.927272,0.26016 5.564128,1.08107 5.202053,-1.94004 -0.880609,-7.34771 0.160013,-14.7259 -0.228269,-22.10493 -0.691612,-13.14364 0.735445,-12.4464 -0.03723,-23.83159 -0.164403,-2.42243 1.448813,-7.64257 -2.633114,-7.21858 -4.251162,0.44158 -8.555744,-0.14285 -12.807832,0.25034 -6.181076,0.57151 -11.815704,0.13298 -17.807439,0.37479 -5.232271,0.21116 -10.793344,-0.21211 -16.007978,0.52007 z"
       id="path3604"
       sodipodi:nodetypes="csssssssssssss" />
    <path
       id="path3618"
       style="color:#000000;fill:none;stroke:#ffff00;stroke-width:4;stroke-linecap:round;stroke-linejoin:round;stroke-miterlimit:4;stroke-opacity:1;stroke-dasharray:none;stroke-dashoffset:0;marker:none;visibility:visible;display:inline;overflow:visible;enable-background:accumulate"
       d="m 151.41034,278.90336 c -5.04683,-0.90967 -31.95531,1.47518 -33.47542,-3.43472 -1.25458,-4.05226 16.05016,-2.46008 30.6277,-1.8454 3.89482,0.1671 7.90782,-6.05959 2.7001,-5.27532 -9.46351,1.42518 -15.26357,-1.89119 -23.9324,-0.209 -1.80982,0.3512 -4.88054,-0.031 -7.8581,-0.0635 -2.24987,-1.81685 -1.44962,-4.17687 3.71284,-4.97664 11.33381,-1.75585 18.55329,2.12096 31.08542,-0.39236 2.76221,-0.55396 0.33859,-7.43754 -3.9253,-5.85419 -3.85232,1.43052 -8.96313,-0.24852 -14.70681,0.25387 -5.58922,0.48888 -16.24666,1.44921 -15.98937,-2.39293 -0.23242,-3.59893 5.70775,-2.34131 8.0749,-3.06222 4.91818,-1.49783 18.56741,1.30468 22.93726,0.11538 16.20189,2.3667 5.64879,14.02593 10.25004,16.2146 4.94239,2.35093 17.70814,-12.75881 21.86855,-16.58698 6.56262,-6.03854 11.07409,-7.73566 20.67917,-16.07122"
       sodipodi:nodetypes="cscsscsssscscssc" />
    <path
       style="color:#000000;fill:none;stroke:#ff0000;stroke-width:4;stroke-linecap:butt;stroke-linejoin:miter;stroke-miterlimit:4;stroke-opacity:1;stroke-dasharray:none;stroke-dashoffset:0;marker:none;visibility:visible;display:inline;overflow:visible;enable-background:accumulate"
       d="m 342.54673,198.25736 c 0.5242,1.87087 1.3803,3.22833 5.70692,0.82511 7.99593,-4.44726 4.00029,-1.07535 11.80019,-5.3741 5.92279,-3.26882 13.40535,-7.76203 15.32418,-7.28548 1.75437,0.43569 3.44003,3.98897 6.0411,9.36158 2.68549,5.54697 6.61218,7.88648 7.68864,5.04622 0.64511,-1.70216 0.0585,-3.81944 -2.97398,-8.86565 -6.23139,-10.36922 -2.37502,-6.79638 -8.41841,-16.47875 -2.69536,-4.31833 -4.03223,-8.11967 -6.69192,-14.37503 -0.62246,-1.46402 -5.80474,-0.63393 -4.90486,1.71791 1.49167,3.89856 6.1454,13.11913 5.64355,15.70978 -0.25496,1.31697 -3.39653,3.30081 -8.32423,5.89029 -4.57659,2.40497 -7.45547,3.83792 -11.34339,6.29035 -5.83933,3.68336 -10.13694,5.43499 -9.54779,7.53777 z"
       id="path3637"
       sodipodi:nodetypes="csssssssssssss" />
    <path
       style="color:#000000;fill:none;stroke:#ff00ae;stroke-width:4;stroke-linecap:butt;stroke-linejoin:round;stroke-miterlimit:4;stroke-opacity:1;stroke-dasharray:none;stroke-dashoffset:0;marker:none;visibility:visible;display:inline;overflow:visible;enable-background:accumulate"
       d="m 227.9603,192.06325 c 0.31455,1.015 0.36939,1.80549 0.63436,2.75486 0.33781,1.1733 0.51238,2.24316 0.81967,3.6059 0.21616,1.12592 0.57899,1.93425 0.77071,2.28984 3.21078,0.34183 10.84991,0.3362 12.99168,0.31904 2.33431,-0.0188 9.58036,0.54842 9.20475,-0.83262 -1.02581,-3.77157 0.15585,-3.59035 -1.09399,-9.44114 -0.37737,-1.76679 0.95314,-8.35383 -1.09946,-8.25119 -7.02851,0.35147 -15.97414,4.97401 -21.18955,7.18951 -0.33175,0.14093 -0.7353,0.22806 -1.08374,0.40095 -0.011,0.71557 -0.0181,1.24712 0.0456,1.96488 z"
       id="path3782"
       inkscape:export-xdpi="90"
       inkscape:export-ydpi="90"
       sodipodi:nodetypes="ccccssssscc" />
    <path
       id="path2909-4"
       style="fill:none;stroke:#0000ff;stroke-width:3.99999976;stroke-linecap:round;stroke-linejoin:round;stroke-miterlimit:4;stroke-opacity:1;stroke-dasharray:none"
       d="m 168.28226,198.7527 c -1.98707,-5.40827 -3.77816,-10.66729 -5.15387,-15.14914 -1.61194,-1.87379 -2.71443,-4.05375 -3.88228,-6.38999 -1.31756,-2.37241 -2.20967,-3.59338 -4.01711,-4.80293 -2.5205,4.6408 -3.35187,5.4245 -5.63847,10.10047 -2.79582,4.83527 -3.26931,11.80699 -4.1914,14.95179 1.95698,-1.39102 4.17191,-1.60533 6.41136,-7.04127 1.72145,-3.0443 2.75307,-8.23164 4.09712,-9.18285 1.27698,3.94117 2.5238,4.72709 4.44495,9.11175 1.06232,3.36829 1.4861,4.90189 2.805,8.78659"
       sodipodi:nodetypes="cccccccccc" />
    <path
       style="color:#000000;fill:none;stroke:#c87137;stroke-width:4;stroke-linecap:round;stroke-linejoin:round;stroke-miterlimit:4;stroke-opacity:1;stroke-dasharray:none;stroke-dashoffset:0;marker:none;visibility:visible;display:inline;overflow:visible;enable-background:accumulate"
       d="m 186.07192,162.75736 c -0.16395,3.85882 -0.4205,8.16744 -0.4205,12.09105 0,1.50196 0.92089,3.41011 0.5455,4.83165 -0.25073,0.94949 0.22097,7.45576 0.22097,8.63784 0,3.90593 -0.096,5.07339 -0.096,8.99491"
       id="path2897"
       sodipodi:nodetypes="csssc" />
    <path
       style="fill:none;stroke:#0000ff;stroke-width:4;stroke-linecap:round;stroke-linejoin:round;stroke-miterlimit:4;stroke-opacity:1;stroke-dasharray:none"
       d="m 145.03892,137.00905 c -2.3518,0.1417 -3.143,2.1737 -3.9697,3.4318 -1.832,1.7184 -1.1944,2.3784 -2.8355,4.5757 -0.091,1.9654 -1.202,3.5113 -0.8506,5.6591 -0.3259,3.1406 2.2267,5.7915 4.3975,7.6565 1.7996,1.0762 3.4568,2.301 5.657,2.1273 1.5536,-0.1232 3.305,0.2747 4.7017,-0.2619 1.6701,-1.8922 5.1419,-2.6222 6.1358,-4.2968 0.1171,-1.855 0.084,-3.6988 0.3741,-5.4995 0.96315,-2.50734 -0.83423,-5.04881 -1.125,-7.8695 -1.0516,-0.9901 -0.4364,-2.9191 -1.6339,-3.2348 -0.6613,-0.677 -2.3021,-0.3764 -3.1823,-0.8765 -2.2722,-0.9549 -5.0428,-0.7026 -7.6691,-1.4114 z"
       id="path2905-4"
       sodipodi:nodetypes="cccccsccccccc" />
    <path
       style="fill:none;stroke:#0000ff;stroke-width:4;stroke-linecap:round;stroke-linejoin:round;stroke-miterlimit:4;stroke-opacity:1;stroke-dasharray:none"
       d="m 149.30732,164.46125 c 0.4616,2.4965 -1.4538,5.5017 -0.7455,6.4704 -1.0087,3.7438 -3.96345,7.6778 -5.02055,11.4047 -1.1105,3.1715 -0.9517,6.513 -1.4224,9.5789 0,1.5253 -0.17677,5.70215 2.2981,5.28281"
       id="path2907"
       sodipodi:nodetypes="ccccc" />
    <path
       style="color:#000000;fill:none;stroke:#008000;stroke-width:4;stroke-linecap:butt;stroke-linejoin:miter;stroke-miterlimit:4;stroke-opacity:1;stroke-dasharray:none;stroke-dashoffset:0;marker:none;visibility:visible;display:inline;overflow:visible;enable-background:accumulate"
       d="m 104.83057,163.805 c -3.85774,7.23707 -5.11123,5.84621 -4.952927,9.0315 0.139287,2.80307 5.390207,7.00078 5.547657,8.78276 0.12707,1.43852 -5.1668,0.47264 -7.350868,0.54557 -1.585535,0.0541 -3.862518,0.48117 -5.121953,-0.27928 -0.806815,-0.48717 -0.710872,-1.71776 1.43793,-4.13223 3.784182,-4.25199 3.426041,-5.47372 -0.243017,-9.49034 -2.163213,-2.36811 -2.706566,-3.19341 -1.489484,-4.19202 0.277292,-0.22763 2.603616,-0.0869 3.004457,-0.1003 3.605321,-0.12036 9.873365,-1.48851 9.168205,-0.16566 z"
       id="path2862-4"
       sodipodi:nodetypes="csssssssss" />
    <path
       id="path5493"
       style="color:#000000;fill:none;stroke:#ff0000;stroke-width:4;stroke-linecap:round;stroke-linejoin:round;stroke-miterlimit:4;stroke-opacity:1;stroke-dasharray:none;stroke-dashoffset:0;marker:none;visibility:visible;display:inline;overflow:visible;enable-background:accumulate"
       d="m 121.14667,162.66729 c -0.0408,1.49457 0.86389,3.4643 1.97948,6.70144 1.43729,4.05228 0.53361,5.56213 1.88566,8.56034 0.34159,3.93573 -0.0437,6.51718 1.49529,10.98839 m -15.05773,-32.53913 c 1.4408,3.23343 2.70356,7.78534 4.23235,7.15597 5.79068,-1.99045 11.03676,-0.79479 12.44371,-2.76662 0.032,-3.59063 0.79257,-5.48352 1.43216,-8.27731"
       sodipodi:nodetypes="cccccccc" />
    <path
       style="fill:none;stroke:#0000ff;stroke-width:4;stroke-linecap:round;stroke-linejoin:round;stroke-miterlimit:4;stroke-opacity:1;stroke-dasharray:none"
       d="m 147.53266,164.60893 c -2.42841,1.70929 -4.68632,3.1047 -6.33405,4.41712 -2.72733,2.16806 -5.83522,3.85563 -7.90043,6.80189 -1.2301,1.58322 -2.27882,2.84199 -3.6602,4.30308 -0.80407,0.62818 -1.051,1.97323 -1.93895,2.27946"
       id="path5286" />
    <path
       style="fill:none;stroke:#0000ff;stroke-width:4;stroke-linecap:round;stroke-linejoin:round;stroke-miterlimit:4;stroke-opacity:1;stroke-dasharray:none"
       d="m 149.43734,163.40745 c 3.84066,0.0906 7.68516,0.1298 11.44959,0.94446 2.68936,1.90896 4.28832,2.4021 7.81071,2.8189 0.6692,0.33429 3.42677,1.64309 4.49254,0.65635"
       id="path2911-0"
       sodipodi:nodetypes="cccc" />
    <path
       style="color:#000000;fill:none;stroke:#80ff00;stroke-width:4;stroke-linecap:round;stroke-linejoin:round;stroke-miterlimit:4;stroke-opacity:1;stroke-dasharray:none;stroke-dashoffset:0;marker:none;visibility:visible;display:inline;overflow:visible;enable-background:accumulate"
       d="m 94.36315,197.16689 c 0.28899,0.0386 3.37714,-0.21454 3.66537,-0.22622 0.40762,-0.0165 2.78743,0.0775 3.1991,0.10061 0.49921,0.028 2.75438,0.0926 3.25438,0.0949 1.52081,0.007 2.82362,0.12573 4.53468,-0.0885 0.61425,-0.0769 1.70718,0.24311 2.28472,-0.006"
       id="path3655"
       sodipodi:nodetypes="csssss" />
    <path
       style="color:#000000;fill:none;stroke:#80ff00;stroke-width:4;stroke-linecap:round;stroke-linejoin:round;stroke-miterlimit:4;stroke-opacity:1;stroke-dasharray:none;stroke-dashoffset:0;marker:none;visibility:visible;display:inline;overflow:visible;enable-background:accumulate"
       d="m 92.14265,192.13213 c 0.28792,0.0386 1.6601,0.0441 3.60471,-0.0161 0.66633,-0.0206 1.79571,-0.0835 3.25975,-0.10948 1.16722,-0.0207 1.75492,0.0427 3.58282,0.16288 1.51754,0.0998 2.42209,-0.002 4.14559,0.0536 1.07067,0.0348 1.64724,-0.12897 2.34537,-0.21641"
       id="path3655-1"
       sodipodi:nodetypes="csssss" />
    <path
       style="color:#000000;fill:none;stroke:#80ff00;stroke-width:4;stroke-linecap:round;stroke-linejoin:round;stroke-miterlimit:4;stroke-opacity:1;stroke-dasharray:none;stroke-dashoffset:0;marker:none;visibility:visible;display:inline;overflow:visible;enable-background:accumulate"
       d="m 93.66083,187.17891 c 1.45384,0.002 2.45309,0.26898 3.6574,0.33077 1.1752,0.0603 2.27484,-0.0152 3.20067,-0.009 0.78873,0.005 1.86897,0.0964 3.25577,-0.002 1.0651,-0.0755 2.24148,0.21203 4.06288,0.0795 0.61742,-0.0449 1.64952,0.0215 2.75103,0.20999"
       id="path3655-4"
       sodipodi:nodetypes="csssss" />
    <path
       style="fill:none;stroke:#80ff00;stroke-width:3.99999976;stroke-linecap:round;stroke-linejoin:round;stroke-miterlimit:4;stroke-opacity:1;stroke-dasharray:none"
       d="m 254.13327,151.39944 c -0.25721,1.85578 -2.5503,-1.01291 -2.7629,1.19216 -2.07059,2.07384 -5.1486,2.06885 -7.18991,4.20891 -1.62331,1.07614 -3.64767,1.16084 -5.24945,2.28869 -1.71589,1.11726 -3.66051,1.52751 -5.58651,2.00616 -1.65345,0.5017 -3.13219,1.43184 -4.72217,2.08072 -0.91171,1.31259 -2.14777,1.55815 -3.14013,2.79647 -1.20288,1.48787 -3.32094,1.43365 -4.29995,3.29331 0.36374,0.78853 2.23306,0.96054 3.19006,1.50696 2.82699,1.08458 5.65391,2.17107 8.4813,3.25157 1.7557,0.0959 3.59101,1.14405 5.25054,0.47084 1.43069,-0.14061 2.90009,0.44294 4.34001,0.61727 1.59649,0.39788 3.42456,0.67582 5.09284,0.89587 1.7235,0.43523 3.45517,0.58654 5.16301,1.42825 1.33892,0.65627 3.0278,1.45074 2.9243,-0.99055 0.28798,-1.73106 -0.71439,-3.56426 -0.41734,-5.3049 -0.17084,-2.04692 0.19691,-3.9885 -0.64382,-6.14379 0.0423,-2.10676 -0.38825,-4.42776 0.0251,-6.42723 -0.30942,-1.88287 -0.17366,-3.81275 -0.2033,-5.62454 0.0527,-0.44229 0.296,-1.26906 -0.25167,-1.54587 z"
       id="path2942" />
    <path
       style="fill:none;stroke:#80ff00;stroke-width:3.99999976;stroke-linecap:round;stroke-linejoin:round;stroke-miterlimit:4;stroke-opacity:1;stroke-dasharray:none"
       d="m 255.99187,165.31556 c 5.66842,-0.23959 12.25955,-0.54658 19.1129,-0.7791 10.03649,-2.39731 22.51537,4.87176 34.24797,9.20359 6.54608,4.16743 14.31403,8.91494 20.56069,12.14179 5.77959,2.85518 14.06356,8.25391 20.48916,11.54053"
       id="path2952-1"
       sodipodi:nodetypes="ccccc"
       inkscape:transform-center-x="-24.605946"
       inkscape:transform-center-y="11.647867" />
    <path
       style="fill:none;stroke:#80ff00;stroke-width:3.99999976;stroke-linecap:round;stroke-linejoin:round;stroke-miterlimit:4;stroke-opacity:1;stroke-dasharray:none"
       d="m 289.2862,201.73092 c -0.33375,-4.27644 -0.28518,-8.65517 -2.60531,-12.62991 -2.23876,-5.03861 -4.12492,-10.24123 -7.12163,-15.10698 -1.30036,-3.27497 -3.09585,-11.66416 -5.42015,-5.23113 -3.6655,4.26658 -6.59721,8.69468 -8.36771,13.60521 -2.34259,4.96052 -5.40615,10.41025 -6.4919,15.19303 0.6767,1.44414 -1.30134,2.3121 -0.88304,3.75468"
       id="path2956" />
    <path
       style="fill:none;stroke:#80ff00;stroke-width:3.99999976;stroke-linecap:round;stroke-linejoin:round;stroke-miterlimit:4;stroke-opacity:1;stroke-dasharray:none"
       d="m 308.24078,199.88615 c 0.76197,0.0668 4.85589,0.42533 6.8845,0.60298 6.38327,0.53378 9.00959,-0.39751 16.95193,-0.26745 5.08802,0.82604 18.13753,-0.19184 18.04087,-2.68395 -3.79067,1.18182 -10.43953,1.73962 -15.12608,-1.28781 -6.83925,-1.98534 -12.62863,-2.17185 -17.18731,-4.25338 -0.33415,-0.39453 -0.34696,-1.19526 -2.13628,-1.08406"
       id="path2958"
       sodipodi:nodetypes="ccccccc" />
    <path
       style="color:#000000;fill:none;stroke:#80ff00;stroke-width:4;stroke-linecap:round;stroke-linejoin:round;stroke-miterlimit:4;stroke-opacity:1;stroke-dasharray:none;stroke-dashoffset:0;marker:none;visibility:visible;display:inline;overflow:visible;enable-background:accumulate"
       d="m 261.55589,132.10799 c 8.86802,14.04461 29.95645,30.63625 46.8169,21.22818 8.89289,-4.96223 17.81816,-11.84128 27.8422,-4.41981 13.13314,9.72354 28.96824,12.23073 37.95185,23.97253 7.19308,9.40153 6.60741,19.53177 3.22881,22.57062 -5.2249,4.69947 -16.76261,4.81695 -27.76684,1.722"
       id="path4125"
       sodipodi:nodetypes="csssss"
       inkscape:transform-center-x="29.428534"
       inkscape:transform-center-y="-29.181694" />
  </g>
</svg>
