<?xml version="1.0" encoding="UTF-8" standalone="no"?>
<!-- Created with Inkscape (http://www.inkscape.org/) -->

<svg
   xmlns:dc="http://purl.org/dc/elements/1.1/"
   xmlns:cc="http://creativecommons.org/ns#"
   xmlns:rdf="http://www.w3.org/1999/02/22-rdf-syntax-ns#"
   xmlns:svg="http://www.w3.org/2000/svg"
   xmlns="http://www.w3.org/2000/svg"
   xmlns:sodipodi="http://sodipodi.sourceforge.net/DTD/sodipodi-0.dtd"
   xmlns:inkscape="http://www.inkscape.org/namespaces/inkscape"
   width="480"
   height="320"
   id="svg2"
   version="1.1"
   inkscape:version="0.47 r22583"
   sodipodi:docname="itnas-jz-oroborus.svg"
   inkscape:export-xdpi="90"
   inkscape:export-ydpi="90"
   inkscape:export-filename="itnas103.png">
  <defs
     id="defs4" />
  <sodipodi:namedview
     id="base"
     pagecolor="#ffffff"
     bordercolor="#666666"
     borderopacity="1.0"
     inkscape:pageopacity="1"
     inkscape:pageshadow="2"
     inkscape:zoom="1"
     inkscape:cx="239.66356"
     inkscape:cy="140.17504"
     inkscape:document-units="px"
     inkscape:current-layer="layer1"
     showgrid="false"
     inkscape:snap-nodes="true"
     inkscape:snap-global="false"
     inkscape:snap-grids="true"
     showguides="true"
     inkscape:window-width="1280"
     inkscape:window-height="774"
     inkscape:window-x="-4"
     inkscape:window-y="-4"
     inkscape:window-maximized="1"
     inkscape:guide-bbox="true">
    <inkscape:grid
       empspacing="5"
       visible="true"
       enabled="true"
       snapvisiblegridlinesonly="true"
       type="xygrid"
       id="grid2816" />
  </sodipodi:namedview>
  <metadata
     id="metadata7">
    <rdf:RDF>
      <cc:Work
         rdf:about="">
        <dc:format>image/svg+xml</dc:format>
        <dc:type
           rdf:resource="http://purl.org/dc/dcmitype/StillImage" />
        <dc:title />
      </cc:Work>
    </rdf:RDF>
  </metadata>
  <g
     inkscape:label="Layer 1"
     inkscape:groupmode="layer"
     id="layer1"
     transform="translate(0,0)">
    <path
       style="fill:none;stroke:#00ff00;stroke-width:8;stroke-linecap:butt;stroke-linejoin:miter;stroke-miterlimit:4;stroke-opacity:1;stroke-dasharray:2, 2;stroke-dashoffset:0;marker-start:none;marker-mid:none;marker-end:none"
       d="m 288.20895,221.80836 c -12.93038,-7.1973 -29.47798,-13.49908 -39.29002,-28.24964 -20.18372,-30.34244 -19.56728,-61.95256 1.31533,-73.06062 10.03084,-5.3357 19.91971,7.99468 -4.829,19.66194"
       id="path2848" />
    <path
       style="fill:none;stroke:#00ff00;stroke-width:8;stroke-linecap:butt;stroke-linejoin:miter;stroke-miterlimit:4;stroke-opacity:1;stroke-dasharray:none;marker-start:none;marker-mid:none;marker-end:none"
       d="m 228.63873,179.49678 c -6.8431,-5.4472 -9.86667,-15.03656 -8.2345,-33.60124 3.5147,-39.97716 64.36214,-63.819543 107.28214,-12.49668 40.43246,48.34834 20.92608,82.78416 -11.88672,92.49048 -9.09236,2.6896 -18.67058,0.88414 -27.5907,-4.08098"
       id="path2826-1-9" />
    <g
       id="g2937"
       transform="matrix(-1.1528119,1.634327,-1.634327,-1.1528119,545.93678,-72.945403)"
       inkscape:transform-center-y="12.452522"
       inkscape:transform-center-x="-24.160252">
      <path
         id="path3028-1-1"
         d="m 206.19224,50.959145 -22.97456,0.002"
         style="color:#000000;fill:none;stroke:#0000ff;stroke-width:4;stroke-linecap:butt;stroke-linejoin:bevel;stroke-miterlimit:4;stroke-opacity:1;stroke-dasharray:none;stroke-dashoffset:0;marker:none;visibility:visible;display:inline;overflow:visible;enable-background:accumulate" />
      <path
         id="rect10452-0-7-5-7"
         d="m 199.99646,42.691859 -11.26117,0.06514"
         style="color:#000000;fill:none;stroke:#0000ff;stroke-width:3.99999976;stroke-linecap:butt;stroke-linejoin:bevel;stroke-miterlimit:4;stroke-opacity:1;stroke-dasharray:none;stroke-dashoffset:0;marker:none;visibility:visible;display:inline;overflow:visible;enable-background:accumulate" />
      <path
         sodipodi:nodetypes="cccc"
         d="m 208.30239,56.809745 c 0,0 -14.55766,-39.164966 -14.55766,-39.164966 l -12.23664,39.211847 c 0,0 26.7943,-0.04688 26.7943,-0.04688 z"
         style="fill:none;stroke:#00ff00;stroke-width:2;stroke-linecap:butt;stroke-linejoin:miter;stroke-miterlimit:4;stroke-opacity:1;stroke-dasharray:none"
         id="path10399-9-40" />
    </g>
    <path
       id="path10436-7-4"
       style="fill:none;stroke:#00ff00;stroke-width:4px;stroke-linecap:butt;stroke-linejoin:miter;stroke-opacity:1"
       d="m 295.86895,146.37988 43.95836,43.28508 c 0,0 -29.66414,-40.49324 -29.66414,-40.49324 0,0 36.91362,-30.9049 36.91362,-30.9049 0,0 20.60051,49.56452 20.60051,49.56452 0,0 -12.99397,-63.64586 -12.99397,-63.64586"
       sodipodi:nodetypes="cccccc" />
    <path
       id="path10402-6-4-8"
       style="fill:none;stroke:#00ff00;stroke-width:4px;stroke-linecap:butt;stroke-linejoin:miter;stroke-opacity:1"
       d="m 238.76609,160.7292 21.64489,-52.37504 -26.5786,40.24218 -28.11589,-10.79078 c 0,0 18.53232,-45.119043 18.53232,-45.119043 l -32.15246,48.079503"
       sodipodi:nodetypes="cccccc"
       inkscape:transform-center-x="-5.1504382"
       inkscape:transform-center-y="-16.530211" />
    <path
       style="fill:none;stroke:#0000ff;stroke-width:8;stroke-linecap:butt;stroke-linejoin:miter;stroke-miterlimit:4;stroke-opacity:1;stroke-dasharray:none"
       d="m 283.22611,128.5128 c 9.19994,-3.89832 21.36222,-5.93772 29.27003,-11.29506 7.90778,-5.35734 10.29675,-14.99134 3.30125,-19.505203 -6.9955,-4.5139 -14.87757,0.96682 -17.58961,10.169663 -2.71203,9.20276 1.81485,20.5434 3.50462,31.09584"
       id="path3030-6-8"
       sodipodi:nodetypes="czzzc" />
    <g
       id="g2942"
       transform="matrix(-0.38126026,-1.5539114,1.5539114,-0.38126026,156.50457,449.70376)">
      <path
         sodipodi:nodetypes="cc"
         id="rect10452-1-7-4-2-2"
         d="m 206.66319,105.19515 c -7.91409,4.26712 -8.11323,10.1635 -0.17602,15.48704"
         style="fill:none;stroke:#0000ff;stroke-width:5;stroke-linecap:butt;stroke-linejoin:miter;stroke-miterlimit:4;stroke-opacity:1;stroke-dasharray:none" />
      <path
         sodipodi:nodetypes="cc"
         id="rect10452-1-4-4-0-7-4"
         d="m 179.489,105.38873 c 8.38416,3.32675 8.29912,11.94162 0.0734,15.23703"
         style="fill:none;stroke:#0000ff;stroke-width:5;stroke-linecap:butt;stroke-linejoin:miter;stroke-miterlimit:4;stroke-opacity:1;stroke-dasharray:none" />
      <path
         id="rect10452-0-7-4-1-5"
         d="m 193.13509,122.31481 0.17678,-18.66053"
         style="fill:none;stroke:#0000ff;stroke-width:5;stroke-linecap:butt;stroke-linejoin:bevel;stroke-miterlimit:4;stroke-opacity:1;stroke-dasharray:none" />
    </g>
    <path
       style="fill:none;stroke:#000000;stroke-width:1px;stroke-linecap:butt;stroke-linejoin:miter;stroke-opacity:1"
       d="m -89.037432,166.20132 32.69028,29.11331"
       id="path2888" />
    <path
       style="fill:none;stroke:#000000;stroke-width:1px;stroke-linecap:butt;stroke-linejoin:miter;stroke-opacity:1"
       d="m -81.588859,115.12769 -6.706873,44.76057"
       id="path2858" />
    <path
       style="fill:none;stroke:#000000;stroke-width:1px;stroke-linecap:butt;stroke-linejoin:miter;stroke-opacity:1"
       d="m -31.246322,179.99414 -24.57175,14.55391"
       id="path2892" />
    <path
       style="fill:none;stroke:#000000;stroke-width:1px;stroke-linecap:butt;stroke-linejoin:miter;stroke-opacity:1"
       d="m -22.563492,153.3934 -7.93741,25.25539"
       id="path2860" />
    <path
       style="fill:none;stroke:#000000;stroke-width:1px;stroke-linecap:butt;stroke-linejoin:miter;stroke-opacity:1"
       d="m -49.518022,120.87906 23.90906,28.02868"
       id="path2868" />
    <path
       style="fill:none;stroke:#000000;stroke-width:1px;stroke-linecap:butt;stroke-linejoin:miter;stroke-opacity:1"
       d="m -54.054632,122.41585 -24.017723,9.4551"
       id="path2870" />
    <path
       style="fill:none;stroke:#000000;stroke-width:1px;stroke-linecap:butt;stroke-linejoin:miter;stroke-opacity:1"
       d="m -77.65328,136.35045 -1.320424,16.0859"
       id="path2872" />
  </g>
</svg>
