<?xml version="1.0" encoding="UTF-8" standalone="no"?>
<!-- Created with Inkscape (http://www.inkscape.org/) -->

<svg
   xmlns:dc="http://purl.org/dc/elements/1.1/"
   xmlns:cc="http://creativecommons.org/ns#"
   xmlns:rdf="http://www.w3.org/1999/02/22-rdf-syntax-ns#"
   xmlns:svg="http://www.w3.org/2000/svg"
   xmlns="http://www.w3.org/2000/svg"
   xmlns:sodipodi="http://sodipodi.sourceforge.net/DTD/sodipodi-0.dtd"
   xmlns:inkscape="http://www.inkscape.org/namespaces/inkscape"
   inkscape:export-filename="itnas177.png"
   inkscape:export-ydpi="90"
   inkscape:export-xdpi="90"
   sodipodi:docname="itnas177.svg"
   inkscape:version="0.47 r22583"
   version="1.1"
   id="svg2"
   height="320"
   width="480">
  <defs
     id="defs4" />
  <sodipodi:namedview
     id="base"
     pagecolor="#ffffff"
     bordercolor="#666666"
     borderopacity="1.0"
     inkscape:pageopacity="1"
     inkscape:pageshadow="2"
     inkscape:zoom="2"
     inkscape:cx="230.35782"
     inkscape:cy="156.86984"
     inkscape:document-units="px"
     inkscape:current-layer="layer1"
     showgrid="false"
     inkscape:snap-nodes="true"
     inkscape:snap-global="false"
     inkscape:snap-grids="true"
     showguides="true"
     inkscape:window-width="1280"
     inkscape:window-height="998"
     inkscape:window-x="-4"
     inkscape:window-y="-4"
     inkscape:window-maximized="1"
     inkscape:object-nodes="true">
    <inkscape:grid
       empspacing="5"
       visible="true"
       enabled="true"
       snapvisiblegridlinesonly="true"
       type="xygrid"
       id="grid2816" />
  </sodipodi:namedview>
  <metadata
     id="metadata7">
    <rdf:RDF>
      <cc:Work
         rdf:about="">
        <dc:format>image/svg+xml</dc:format>
        <dc:type
           rdf:resource="http://purl.org/dc/dcmitype/StillImage" />
        <dc:title></dc:title>
      </cc:Work>
    </rdf:RDF>
  </metadata>
  <g
     inkscape:label="Layer 1"
     inkscape:groupmode="layer"
     id="layer1"
     transform="translate(0,0)">
    <path
       style="color:#000000;fill:none;stroke:#008000;stroke-width:4;stroke-linecap:butt;stroke-linejoin:miter;stroke-miterlimit:4;stroke-opacity:1;stroke-dasharray:none;stroke-dashoffset:0;marker:none;visibility:visible;display:inline;overflow:visible;enable-background:accumulate"
       d="m -22.44326,263.37369 c 9.465331,0.33197 19.293721,1.65239 33.324423,0.89616 10.961691,2.00488 23.641571,3.14011 36.004876,1.97828 3.178795,-0.32319 15.719078,1.61115 18.87966,1.89933 19.929888,-0.0799 29.33378,4.74382 48.747691,7.05403 12.07061,0.94885 23.83913,3.91612 35.75969,5.86509 19.74238,3.24596 39.80533,1.66159 59.70554,2.0176 16.90844,-0.0578 33.74455,2.16436 50.29203,5.51774 15.96429,3.49756 32.44203,3.77167 48.68812,2.63975 7.89786,-0.61773 15.80038,-1.24665 23.72749,-1.30935 19.11001,-0.27831 38.2137,0.89705 57.32204,0.4375 22.85019,-1.00998 45.64473,-3.27873 68.53101,-3.44943 18.9332,-0.67644 37.67267,2.90167 56.06981,6.98437 11.68253,3.25376 24.06604,3.01283 35.62067,6.81212 0.32446,0.20535 4.46519,1.87418 6.35156,2 19.57612,1.30568 29.00549,-0.55743 43.14213,-1.10166"
       id="path2852"
       sodipodi:nodetypes="ccccccccccccccsc" />
    <path
       style="color:#000000;fill:none;stroke:#808080;stroke-width:4;stroke-linecap:round;stroke-linejoin:round;stroke-miterlimit:4;stroke-opacity:1;stroke-dasharray:none;stroke-dashoffset:0;marker:none;visibility:visible;display:inline;overflow:visible;enable-background:accumulate"
       d="m 110.25121,135.61243 c 0.22053,-1.33536 0.61832,-2.13895 1.2879,-2.28862 15.6367,-3.49526 26.20861,-7.59221 38.18376,-9.8995 19.95358,-3.84452 36.2728,-10.44323 57.06854,-13.67766 19.41012,-3.01892 36.86819,-6.40767 61.7254,-9.863966 13.90543,-1.933494 26.71449,-3.754126 39.29955,-5.363864"
       id="path2912" />
    <path
       style="color:#000000;fill:none;stroke:#808080;stroke-width:4;stroke-linecap:round;stroke-linejoin:round;stroke-miterlimit:4;stroke-opacity:1;stroke-dasharray:none;stroke-dashoffset:0;marker:none;visibility:visible;display:inline;overflow:visible;enable-background:accumulate"
       d="m 111.73425,209.01272 c 3.89017,0.13624 7.7863,0.50663 11.67757,0.3487 17.93478,-0.72788 35.78047,1.85534 53.74012,0.7071 5.66605,-0.005 11.30473,0.70782 16.97056,0.70711 6.56554,0.1583 9.48519,-0.18428 12.38806,0.1111 1.40054,0.20896 2.80084,0.48704 4.22503,0.44394 1.01209,-0.002 2.02315,-0.0597 3.03526,-0.06 2.24955,0.26487 3.06824,-9.3801 1.71295,-9.3575 -7.54247,0.72974 -15.08106,0.54891 -22.62741,0 -15.07697,-1.09667 -29.11212,0.59296 -46.66905,0 -11.9246,-0.40274 -26.51591,-1.60019 -35.35534,-2.82843"
       id="path2906" />
    <path
       style="color:#000000;fill:none;stroke:#808080;stroke-width:4;stroke-linecap:round;stroke-linejoin:round;stroke-miterlimit:4;stroke-opacity:1;stroke-dasharray:none;stroke-dashoffset:0;marker:none;visibility:visible;display:inline;overflow:visible;enable-background:accumulate"
       d="m 310.56636,99.76882 c 12.54815,-0.530986 16.68853,-5.769325 50.25301,-8.535631 10.77671,-1.788669 26.35144,-3.42308 33.37381,-6.793414 5.83766,-1.026781 11.99827,-2.247426 18.57341,-3.49212 20.06545,-3.798451 39.01383,-4.668934 59.39697,-7.020815 5.37624,-0.620331 2.16113,20.162327 2.04173,37.11673 -0.0942,13.37583 -1.8854,30.97602 -0.62751,38.5437 -0.86843,12.86944 -0.99893,22.36627 -0.93923,28.40361 0.14479,14.65165 3.64949,29.32287 -0.47499,28.87203 -17.08044,-1.86703 -42.81765,-2.26099 -55.86143,-2.12132 -26.88249,0.28786 -40.00115,1.35172 -55.86144,1.41422 -19.07225,-0.96116 -41.65622,-0.51266 -50.20458,-0.70711 -1.10197,2.45134 -2.79176,5.61383 -2.82842,7.68978"
       id="path2904" />
    <path
       style="color:#000000;fill:none;stroke:#808080;stroke-width:4;stroke-linecap:round;stroke-linejoin:round;stroke-miterlimit:4;stroke-opacity:1;stroke-dasharray:none;stroke-dashoffset:0;marker:none;visibility:visible;display:inline;overflow:visible;enable-background:accumulate"
       d="m 235.47935,282.42978 0.22741,-0.40606 c 3.18833,-2.53705 6.02884,-5.46313 9.48992,-7.59682 3.44321,-2.48366 5.90419,-6.20642 9.54543,-8.54561 4.74269,-3.00802 8.06223,-7.55452 12.14234,-11.28781 3.54668,-1.98751 5.53801,-5.73849 9.033,-7.75077 3.40391,-1.82477 6.43427,-4.20636 9.21933,-6.85754 2.37082,-2.19008 4.46819,-4.48427 6.79969,-6.72584 3.28691,-2.66283 4.92586,-6.60032 7.65189,-9.71588 3.18379,-2.93465 8.0104,-10.00173 8.0104,-10.00173 0,0 16.14613,0 16.14613,0 21.80155,-1.27986 42.66983,7.62884 61.2316,5.69053 35.44981,1.03896 38.18789,-1.7647 63.47135,-0.92003 21.92524,-1.30097 31.21586,2.75224 53.74367,4.33376 15.70055,2.94191 30.62685,4.13636 45.0745,2.73731 10.44109,0.86384 17.62743,2.10968 36.94633,4.94975 6.2354,-4.4724 -3.08547,-36.48746 -0.75472,-65.66058 0.36841,-4.61127 -3.30022,-47.17958 -0.7926,-68.956408 1.14098,-9.908568 2.21075,-33.93803 -0.574,-49.93788 -23.23716,4.01579 -43.17095,5.992555 -52.20525,7.80472 -18.60397,3.73172 -44.33057,8.833219 -67.2958,9.87295 -21.55667,0.97596 -40.49063,7.252626 -60.84569,11.07533 -23.83185,4.077789 -46.01957,3.478477 -57.99061,5.22199 -24.00532,3.496236 -64.9985,7.64998 -82.16924,9.62229 -30.30723,3.481228 -35.71428,4.43379 -51.90558,7.7631 -15.01055,3.086518 -14.61038,5.104988 -34.7751,7.013408 -8.11419,0.76794 -36.73028,11.22342 -51.75582,13.93292 -4.5366,0.81807 -9.0798,1.64505 -13.61442,2.50635"
       id="path2833" />
    <path
       style="fill:none;stroke:#0000ff;stroke-width:4;stroke-linecap:butt;stroke-linejoin:miter;stroke-miterlimit:4;stroke-opacity:1;stroke-dasharray:none"
       d="m 173.80081,242.32843 c -1.98926,0.27241 -4.05052,0.49747 -5.83427,1.49526 -1.69373,0.94516 -3.17574,2.23277 -4.48113,3.66058 -1.54477,1.71508 -2.82494,3.66401 -3.8096,5.75041 -0.54046,1.18021 -0.82204,2.45579 -1.1238,3.71157 -0.25266,1.28363 -0.12395,2.59861 -0.20257,3.89719 -0.0387,1.59856 -0.10356,3.24691 0.47324,4.76934 0.27893,1.05941 0.85496,1.99977 1.35313,2.96565 0.97586,1.311 1.9301,2.6502 3.13779,3.76279 1.63849,1.4824 3.28898,3.02331 5.32148,3.95122 1.32845,0.64353 2.71064,1.18738 4.1235,1.61476 1.62831,0.45252 3.32044,0.69876 5.01098,0.70248 1.66311,-0.0792 3.30017,-0.47433 4.87461,-1.00062 1.49964,-0.5417 3.00626,-1.13381 4.31087,-2.06627 1.34526,-0.85232 2.69299,-1.73688 3.78753,-2.90612 1.0506,-1.00529 1.80863,-2.27517 2.36298,-3.61109 0.38888,-0.97445 0.74201,-1.97252 0.98933,-2.99242 0.35816,-1.71285 0.55334,-3.45829 0.64343,-5.20473 -0.0902,-2.07906 -0.20733,-4.17404 -0.67068,-6.20826 -0.2817,-1.16456 -0.58373,-2.35082 -1.27456,-3.35086 -0.89047,-1.34775 -2.01279,-2.52666 -3.12562,-3.69091 -1.10745,-1.1097 -2.38971,-2.02785 -3.73916,-2.81757 -1.20388,-0.80969 -2.53066,-1.45334 -3.94642,-1.78746 -1.69528,-0.44646 -3.4624,-0.47885 -5.20267,-0.59597 -0.99295,-0.022 -1.98552,-0.11689 -2.97839,-0.049 z"
       id="path8177"
       sodipodi:nodetypes="cssssssssss" />
    <path
       style="color:#000000;fill:none;stroke:#c87137;stroke-width:4;stroke-linecap:round;stroke-linejoin:round;stroke-miterlimit:4;stroke-opacity:1;stroke-dasharray:none;stroke-dashoffset:0;marker:none;visibility:visible;display:inline;overflow:visible;enable-background:accumulate"
       d="m 491.75,245.5 c -14.51862,3.01982 -24.61813,1.42113 -33.73446,2.43618 -9.93577,1.1063 -20.0192,4.19195 -31.01554,9.06382 -14.0099,6.20701 -21.00291,8.62847 -30.5,18.25 -4.41021,4.46799 -6.75,11.25 -6.75,11.25"
       id="path8848"
       sodipodi:nodetypes="cssss" />
    <path
       style="color:#000000;fill:none;stroke:#94f3f3;stroke-width:4;stroke-linecap:round;stroke-linejoin:round;stroke-miterlimit:4;stroke-opacity:1;stroke-dasharray:none;stroke-dashoffset:0;marker:none;visibility:visible;display:inline;overflow:visible;enable-background:accumulate"
       d="m 497.58386,250.43223 c -2.47035,-3.28246 -5.98513,-8.52686 -3.86191,-12.42506 3.81422,-7.00284 6.54062,-5.57008 12.11869,-5.99079 5.9794,-0.45098 10.84484,-2.15978 17.18942,-2.07539 9.44611,0.12566 9.68451,1.6305 17.77967,1.2907 6.86911,-0.28834 21.62031,-1.40966 28.44822,1.63162 6.92678,3.0853 9.14305,7.67506 4.88819,12.43546 -4.85023,5.4265 -20.94362,4.87277 -26.42627,7.64913 -5.73823,2.90578 -15.6125,2.19144 -22.59084,1.46418 -5.39679,-0.56244 -11.15057,-2.7869 -16.97255,-2.13737 -3.32357,0.37079 -7.13511,2.7251 -10.57262,-1.84248 z"
       id="path8820"
       sodipodi:nodetypes="cssssssssss" />
    <path
       style="color:#000000;fill:none;stroke:#c87137;stroke-width:4;stroke-linecap:round;stroke-linejoin:round;stroke-miterlimit:4;stroke-opacity:1;stroke-dasharray:none;stroke-dashoffset:0;marker:none;visibility:visible;display:inline;overflow:visible;enable-background:accumulate"
       d="m 249.79197,180.92442 c -0.10705,17.01612 -2.31611,17.14212 -0.36419,17.29636 2.53197,0.20007 7.62375,0.17088 10.39414,-0.0457 4.54891,-0.35562 5.79148,0.5665 7.74769,0.2819 3.41036,-0.49615 16.77346,0.99812 16.70983,-0.86119 -0.13149,-3.84255 -1.17923,-14.18403 -1.22392,-16.54199 -0.10178,-5.37022 -1.741,-13.80789 -1.7975,-18.23125 -0.0231,-1.80845 -4.13995,-2.24752 -12.43697,-1.14064 -9.96355,1.3292 -16.95758,-1.69254 -16.95758,1.22274 l 0,1e-5 0,-1e-5 c 0,0 -2.03379,12.02495 -2.0715,18.01977 z"
       id="path2893"
       sodipodi:nodetypes="cssssssssccs" />
    <path
       style="color:#000000;fill:none;stroke:#00ffff;stroke-width:4;stroke-linecap:butt;stroke-linejoin:miter;stroke-miterlimit:4;stroke-opacity:1;stroke-dasharray:none;stroke-dashoffset:0;marker:none;visibility:visible;display:inline;overflow:visible;enable-background:accumulate"
       d="m 117.41199,142.63686 c -2.61996,0.36786 -1.7932,5.52336 -1.83229,7.68783 -0.17164,9.50156 -0.37961,15.50522 -0.4748,22.7252 -0.0701,5.317 0.63469,12.7282 -0.18421,17.88058 -0.52862,3.326 1.89463,3.89527 4.68706,3.97496 7.66559,0.21879 15.52041,0.58293 23.26913,1.2613 6.27111,0.54903 12.64199,-0.41862 18.85492,0.4201 1.92728,0.26016 5.56413,1.08107 5.20206,-1.94004 -0.88061,-7.34771 0.16001,-14.7259 -0.22827,-22.10493 -0.69161,-13.14364 0.73544,-12.4464 -0.0372,-23.83159 -0.1644,-2.42243 1.44881,-7.64257 -2.63311,-7.21858 -4.25117,0.44158 -8.55575,-0.14285 -12.80784,0.25034 -6.18107,0.57151 -11.8157,0.13298 -17.80744,0.37479 -5.23227,0.21116 -10.79334,-0.21211 -16.00797,0.52007 z"
       id="path3604"
       sodipodi:nodetypes="csssssssssssss" />
    <path
       id="path3618"
       style="color:#000000;fill:none;stroke:#ffff00;stroke-width:4;stroke-linecap:round;stroke-linejoin:round;stroke-miterlimit:4;stroke-opacity:1;stroke-dasharray:none;stroke-dashoffset:0;marker:none;visibility:visible;display:inline;overflow:visible;enable-background:accumulate"
       d="m 268.00946,247.12482 c -8.82459,9.15783 -8.56871,9.23823 -19.40185,18.57308 -0.85977,0.099 -0.72217,-9.65266 -3.96585,-8.84974 -3.16812,0.66906 2.13946,13.11805 -6.2597,17.25525 -3.5303,-2.26989 8.94914,-21.2578 -7.7209,-22.33708 -4.36985,1.1893 -18.01908,-1.61321 -22.93726,-0.11538 -2.36715,0.72091 -8.30732,-0.53671 -8.0749,3.06222 -0.25729,3.84214 10.40015,2.88181 15.98937,2.39293 5.74368,-0.50239 10.85449,1.17665 14.70681,-0.25387 4.26389,-1.58335 6.68751,5.30023 3.9253,5.85419 -12.53213,2.51332 -19.75161,-1.36349 -31.08542,0.39236 -5.16246,0.79977 -5.96271,3.15979 -3.71284,4.97664 2.97756,0.0325 6.04828,0.4147 7.8581,0.0635 8.66883,-1.68219 14.46889,1.63418 23.9324,0.209 5.20772,-0.78427 1.19472,5.44242 -2.7001,5.27532 -14.57754,-0.61468 -31.88228,-2.20686 -30.6277,1.8454 1.52011,4.9099 28.42859,2.52505 33.47542,3.43472"
       sodipodi:nodetypes="cccccscsssscsscsc" />
    <path
       style="color:#000000;fill:none;stroke:#ff0000;stroke-width:4;stroke-linecap:butt;stroke-linejoin:miter;stroke-miterlimit:4;stroke-opacity:1;stroke-dasharray:none;stroke-dashoffset:0;marker:none;visibility:visible;display:inline;overflow:visible;enable-background:accumulate"
       d="m 422.54673,198.25736 c 0.5242,1.87087 1.3803,3.22833 5.70692,0.82511 7.99593,-4.44726 4.00029,-1.07535 11.80019,-5.3741 5.92279,-3.26882 13.40535,-7.76203 15.32418,-7.28548 1.75437,0.43569 3.44003,3.98897 6.0411,9.36158 2.68549,5.54697 6.61218,7.88648 7.68864,5.04622 0.64511,-1.70216 0.0585,-3.81944 -2.97398,-8.86565 -6.23139,-10.36922 -2.37502,-6.79638 -8.41841,-16.47875 -2.69536,-4.31833 -4.03223,-8.11967 -6.69192,-14.37503 -0.62246,-1.46402 -5.80474,-0.63393 -4.90486,1.71791 1.49167,3.89856 6.1454,13.11913 5.64355,15.70978 -0.25496,1.31697 -3.39653,3.30081 -8.32423,5.89029 -4.57659,2.40497 -7.45547,3.83792 -11.34339,6.29035 -5.83933,3.68336 -10.13694,5.43499 -9.54779,7.53777 z"
       id="path3637"
       sodipodi:nodetypes="csssssssssssss" />
    <path
       style="color:#000000;fill:none;stroke:#ff00ae;stroke-width:4;stroke-linecap:butt;stroke-linejoin:round;stroke-miterlimit:4;stroke-opacity:1;stroke-dasharray:none;stroke-dashoffset:0;marker:none;visibility:visible;display:inline;overflow:visible;enable-background:accumulate"
       d="m 267.16529,238.14772 c -0.74579,-0.75694 -1.15774,-1.43383 -1.82934,-2.15526 -0.83919,-0.88685 -1.48586,-1.75684 -2.38501,-2.82597 -0.70937,-0.90068 -1.40307,-1.45188 -1.73675,-1.6796 -3.00878,1.17183 -9.791,4.68721 -11.68536,5.68664 -2.06461,1.08938 -8.76095,3.91533 -7.79273,4.96932 2.64422,2.8784 1.51145,3.26044 5.3101,7.88258 1.14705,1.39579 2.99225,7.85756 4.76813,6.82318 6.08096,-3.54194 11.90197,-11.75826 15.51604,-16.12261 0.22989,-0.27761 0.54827,-0.54043 0.77829,-0.85411 -0.31905,-0.6406 -0.557,-1.11596 -0.94341,-1.72418 z"
       id="path3782"
       inkscape:export-xdpi="90"
       inkscape:export-ydpi="90"
       sodipodi:nodetypes="ccccssssscc" />
    <path
       style="color:#000000;fill:none;stroke:#c87137;stroke-width:4;stroke-linecap:round;stroke-linejoin:round;stroke-miterlimit:4;stroke-opacity:1;stroke-dasharray:none;stroke-dashoffset:0;marker:none;visibility:visible;display:inline;overflow:visible;enable-background:accumulate"
       d="m 266.07192,162.75736 c -0.16395,3.85882 -0.4205,8.16744 -0.4205,12.09105 0,1.50196 0.92089,3.41011 0.5455,4.83165 -0.25073,0.94949 0.22097,7.45576 0.22097,8.63784 0,3.90593 -0.096,5.07339 -0.096,8.99491"
       id="path2897"
       sodipodi:nodetypes="csssc" />
    <path
       style="fill:none;stroke:#0000ff;stroke-width:4;stroke-linecap:round;stroke-linejoin:round;stroke-miterlimit:4;stroke-opacity:1;stroke-dasharray:none"
       d="m 143.05162,146.3219 c 2.20646,-0.82618 3.7551,0.70899 5.0217,1.52261 2.3722,0.82571 2.0578,1.68785 4.45017,3.0287 0.88179,1.75885 2.5251,2.71991 3.07678,4.82518 0.5123,4.02695 0.18024,6.36494 -0.90686,8.7828 -1.20702,1.71461 -2.22354,3.50714 -4.30448,4.24247 -1.46962,0.51874 -2.90821,1.59398 -4.40245,1.67123 -2.2949,-1.05029 -5.76378,-0.30655 -7.35239,-1.43279 -0.86078,-1.64736 -1.57976,-3.34553 -2.57654,-4.87298 -1.8989,-1.89962 -0.53528,-4.12669 -1.41579,-6.82216 0.55854,-1.33199 -0.94894,-2.77274 0.14236,-4.57092 0.80453,-2.73705 5.51558,-4.80586 8.2675,-6.37414 z"
       id="path2905-4"
       sodipodi:nodetypes="cccccscccccc" />
    <path
       id="path5493"
       style="color:#000000;fill:none;stroke:#ff0000;stroke-width:4;stroke-linecap:round;stroke-linejoin:round;stroke-miterlimit:4;stroke-opacity:1;stroke-dasharray:none;stroke-dashoffset:0;marker:none;visibility:visible;display:inline;overflow:visible;enable-background:accumulate"
       d="m 183.3269,171.31388 c -0.30625,-1.46342 0.23335,-3.56274 0.75481,-6.94679 0.69291,-4.24342 -0.46514,-5.56827 0.33155,-8.75929 -0.36455,-3.93367 -1.20327,-6.4053 -0.4849,-11.07906 m -9.02423,34.70005 c 0.84213,-3.43829 1.27434,-8.14228 2.89076,-7.79514 6.05252,0.92774 11.00194,-1.18278 12.73746,0.50707 0.67072,3.52758 1.75614,5.25482 2.88289,7.89011"
       sodipodi:nodetypes="cccccccc" />
    <path
       style="color:#000000;fill:none;stroke:#80ff00;stroke-width:4;stroke-linecap:round;stroke-linejoin:round;stroke-miterlimit:4;stroke-opacity:1;stroke-dasharray:none;stroke-dashoffset:0;marker:none;visibility:visible;display:inline;overflow:visible;enable-background:accumulate"
       d="m 210.71122,197.69974 c -0.28429,-0.0597 -1.65233,-0.16643 -3.59605,-0.25029 -0.66606,-0.0285 -1.79698,-0.0492 -3.25895,-0.13124 -1.16558,-0.0654 -1.747,-0.17195 -3.56105,-0.42673 -1.50606,-0.2114 -2.41563,-0.17662 -4.13034,-0.35924 -1.06519,-0.11356 -1.65227,0.007 -2.35495,0.0428"
       id="path3655-1"
       sodipodi:nodetypes="csssss" />
    <path
       style="color:#000000;fill:none;stroke:#80ff00;stroke-width:4;stroke-linecap:round;stroke-linejoin:round;stroke-miterlimit:4;stroke-opacity:1;stroke-dasharray:none;stroke-dashoffset:0;marker:none;visibility:visible;display:inline;overflow:visible;enable-background:accumulate"
       d="m 240.63365,199.2869 c 1.45344,0.0349 2.44638,0.32443 3.64898,0.41345 1.17354,0.0869 2.27461,0.0363 3.20006,0.0634 0.78842,0.0229 1.86632,0.13867 3.25498,0.0717 1.06654,-0.0514 2.23612,0.26271 4.06004,0.17142 0.61829,-0.0309 1.64862,0.0588 2.74559,0.27219"
       id="path3655-4"
       sodipodi:nodetypes="csssss" />
    <path
       id="path4455"
       style="color:#000000;fill:none;stroke:#ff0000;stroke-width:4;stroke-linecap:round;stroke-linejoin:round;stroke-miterlimit:4;stroke-opacity:1;stroke-dasharray:none;stroke-dashoffset:0;marker:none;visibility:visible;display:inline;overflow:visible;enable-background:accumulate"
       d="m 277.67551,142.60964 c -2.54536,-0.0119 -4.45202,0.7492 -6.68912,1.54292 -0.92037,0.32652 -3.15944,0.94223 -3.86461,1.31185 -0.64996,0.34074 -4.30404,0.91741 -5.10182,1.33562 -2.89318,1.51668 -5.32912,1.51682 -8.54495,1.57858 m -8.00479,11.29269 c 1.09221,-0.2241 2.57796,-0.90519 3.68446,-1.48521 0.4432,-0.23208 2.30071,-0.58813 2.6342,-0.93466 0.42938,-0.44625 2.00689,-1.72488 2.087,-1.80818 0.76167,-0.7915 -1.07709,-8.86266 -2.13086,-9.68359 -1.35572,-1.05618 -0.15578,-3.88303 -0.78504,-4.05154 -1.6803,-0.44996 -8.74707,0.16796 -10.25115,0.19684"
       sodipodi:nodetypes="csssccsssssc" />
    <path
       style="color:#000000;fill:none;stroke:#ffff00;stroke-width:4;stroke-linecap:butt;stroke-linejoin:miter;stroke-miterlimit:4;stroke-opacity:1;stroke-dasharray:none;stroke-dashoffset:0;marker:none;visibility:visible;display:inline;overflow:visible;enable-background:accumulate"
       d="m 178.97549,196.555 c -1.02119,-6.8618 0.66819,-4.7849 0.625,-7.625 -0.038,-2.4993 -0.54357,-6.6591 -0.625,-8.25 -0.0657,-1.2843 4.30765,0 6.12501,0 1.31936,-0.001 3.26971,-1.0513 3.99999,0 0.78185,1.1256 0,2.2643 0,2.5 0,3.8334 -0.003,6.3248 0.5,10.125 0.0205,0.155 1.0383,1.2531 -0.5,3.375 -0.18296,0.2524 -2.16647,0 -2.49999,0 -3,0 -7.42879,1.1935 -7.62501,-0.125 z"
       id="path2862"
       sodipodi:nodetypes="csssssssss" />
    <path
       sodipodi:nodetypes="cccccsccsssssssscccccssccccccccsssssssssssssscsscssccccccs"
       d="m 109.98733,135.50193 c -0.21561,-1.41887 -1.86741,-2.02331 -2.56,-2.17812 -15.636702,-3.49526 -26.208612,-7.59221 -38.183762,-9.8995 -19.95358,-3.84452 -36.2728,-10.44323 -57.06854,-13.67766 -19.4101197,-3.01892 -36.86819,-6.40767 -61.7254,-9.863966 -13.90543,-1.933494 -26.71449,-3.754126 -39.299553,-5.363864 M 111.74593,208.86733 c -5.32425,0.16331 -10.72194,0.32783 -16.191312,0.49409 -17.93097,-0.98217 -35.78047,1.85534 -53.74012,0.7071 -5.66605,-0.005 -11.30473,0.70782 -16.97056,0.70711 -6.56554,0.1583 -9.48519,-0.18428 -12.38806,0.1111 -1.40054,0.20896 -2.8008397,0.48704 -4.2250297,0.44394 -1.01209,-0.002 -2.02315,-0.0597 -3.03526,-0.06 -2.24955,0.26487 -3.06824,-9.3801 -1.71295,-9.3575 7.5424697,0.72974 15.0810597,0.54891 22.6274097,0 15.07697,-1.09667 29.11212,0.59296 46.66905,0 11.9246,-0.40274 26.51591,-1.60019 35.355342,-2.82843 M -91.599925,99.76882 c -12.548145,-0.530986 -16.688525,-5.769325 -50.253005,-8.535631 -10.77671,-1.788669 -26.35144,-3.42308 -33.37381,-6.793414 -5.83766,-1.026781 -11.99827,-2.247426 -18.57341,-3.49212 -20.06545,-3.798451 -39.01383,-4.668934 -59.39697,-7.020815 -5.37624,-0.620331 -2.16113,20.162327 -2.04173,37.11673 0.0942,13.37583 1.8854,30.97602 0.62751,38.5437 0.86843,12.86944 0.99893,22.36627 0.93923,28.40361 -0.14479,14.65165 -3.64949,29.32287 0.47499,28.87203 17.08044,-1.86703 42.81765,-2.26099 55.86143,-2.12132 26.88249,0.28786 40.00115,1.35172 55.86144,1.41422 19.07225,-0.96116 41.656215,-0.51266 50.204575,-0.70711 1.10197,2.45134 2.79176,5.61383 2.82842,7.68978 m 71.928343,69.2913 -0.22741,-0.40606 c -3.18833,-2.53705 -6.02884,-5.46313 -9.48992,-7.59682 -3.44321,-2.48366 -5.90419,-6.20642 -9.54543,-8.54561 -4.74269,-3.00802 -8.06223,-7.55452 -12.14234,-11.28781 -3.54668,-1.98751 -5.53801,-5.73849 -9.033,-7.75077 -3.40391,-1.82477 -6.43427,-4.20636 -9.21933,-6.85754 -2.37082,-2.19008 -4.46819,-4.48427 -6.79969,-6.72584 -3.28691,-2.66283 -4.92586,-6.60032 -7.65189,-9.71588 -3.18379,-2.93465 -8.010403,-10.00173 -8.010403,-10.00173 0,0 -16.146125,0 -16.146125,0 -21.80155,-1.27986 -42.66983,7.62884 -61.2316,5.69053 -35.44981,1.03896 -38.18789,-1.7647 -63.47135,-0.92003 -21.92524,-1.30097 -31.21586,2.75224 -53.74367,4.33376 -15.70055,2.94191 -30.62685,4.13636 -45.0745,2.73731 -10.44109,0.86384 -17.62743,2.10968 -36.94633,4.94975 -6.2354,-4.4724 3.08547,-36.48746 0.75472,-65.66058 -0.36841,-4.61127 3.30022,-47.17958 0.7926,-68.956408 -1.14098,-9.908568 -2.21075,-33.93803 0.574,-49.93788 23.23716,4.01579 43.17095,5.992555 52.20525,7.80472 18.60397,3.73172 44.33057,8.833219 67.2958,9.87295 21.55667,0.97596 40.49063,7.252626 60.84569,11.07533 23.83185,4.077789 46.01957,3.478477 57.99061,5.22199 24.00532,3.496236 64.998498,7.64998 82.169238,9.62229 30.30723,3.481228 35.7142803,4.43379 51.9055803,7.7631 15.0105497,3.086518 14.6103797,5.104988 34.7750997,7.013408 8.11419,0.76794 36.73028,11.22342 51.75582,13.93292 4.715782,0.85038 9.438692,1.71039 14.151692,2.60856"
       style="color:#000000;fill:none;stroke:#808080;stroke-width:4;stroke-linecap:round;stroke-linejoin:round;stroke-miterlimit:4;stroke-opacity:1;stroke-dasharray:none;stroke-dashoffset:0;marker:none;visibility:visible;display:inline;overflow:visible;enable-background:accumulate"
       id="path2842" />
    <path
       sodipodi:nodetypes="csssssssssssss"
       id="path2859"
       d="m 52.538828,195.17407 c 0.468603,2.60383 5.588392,1.57891 7.75276,1.53451 9.501113,-0.19483 15.508327,-0.21849 22.726608,-0.40175 5.31575,-0.13496 12.694265,-1.12498 17.874384,-0.50534 3.34391,0.39998 3.81933,-2.04341 3.79129,-4.83684 -0.0769,-7.66832 -0.0159,-15.53134 0.36319,-23.30046 0.30683,-6.28761 -0.90574,-12.61645 -0.30719,-18.8571 0.18565,-1.93587 0.86573,-5.60167 -2.13917,-5.12339 -7.308301,1.16326 -14.721127,0.40789 -22.0797,1.08039 -13.1072,1.19787 -12.465501,-0.255 -23.812435,0.95604 -2.41429,0.25768 -7.692748,-1.15306 -7.111689,2.90948 0.605162,4.23098 0.187137,8.55489 0.74398,12.78866 0.809406,6.15444 0.588454,11.80179 1.061105,17.77975 0.412741,5.22024 0.204201,10.79349 1.136895,15.97601 z"
       style="color:#000000;fill:none;stroke:#00ffff;stroke-width:4;stroke-linecap:butt;stroke-linejoin:miter;stroke-miterlimit:4;stroke-opacity:1;stroke-dasharray:none;stroke-dashoffset:0;marker:none;visibility:visible;display:inline;overflow:visible;enable-background:accumulate" />
    <path
       sodipodi:nodetypes="csssccsssssc"
       d="m 33.09877,144.38214 c -0.654131,2.45993 -0.398958,4.49696 -0.195714,6.86197 0.08363,0.97299 0.114117,3.29499 0.293748,4.07063 0.165621,0.7149 -0.198854,4.39622 0.0044,5.27374 0.737171,3.18235 0.122363,5.53944 -0.629716,8.66669 m 8.906124,10.59634 c 0.05888,-1.11341 -0.225033,-2.72297 -0.506972,-3.94006 -0.112659,-0.48743 0.01174,-2.37467 -0.239352,-2.78483 -0.323391,-0.52812 -1.162371,-2.37734 -1.22275,-2.47587 -0.573592,-0.93683 -8.847506,-1.19517 -9.907872,-0.38278 -1.364216,1.04518 -3.796601,-0.82953 -4.1185,-0.26319 -0.85957,1.51228 -2.045659,8.50616 -2.397418,9.96881"
       style="color:#000000;fill:none;stroke:#ff0000;stroke-width:4;stroke-linecap:round;stroke-linejoin:round;stroke-miterlimit:4;stroke-opacity:1;stroke-dasharray:none;stroke-dashoffset:0;marker:none;visibility:visible;display:inline;overflow:visible;enable-background:accumulate"
       id="path2861" />
    <path
       sodipodi:nodetypes="csssssssss"
       id="path2863"
       d="m 27.654643,196.555 c -1.02119,-6.8618 0.66819,-4.7849 0.625,-7.625 -0.038,-2.4993 -0.54357,-6.6591 -0.625,-8.25 -0.0657,-1.2843 4.30765,0 6.12501,0 1.31936,-0.001 3.26971,-1.0513 3.99999,0 0.78185,1.1256 0,2.2643 0,2.5 0,3.8334 -0.003,6.3248 0.5,10.125 0.0205,0.155 1.0383,1.2531 -0.5,3.375 -0.18296,0.2524 -2.16647,0 -2.49999,0 -3,0 -7.42879,1.1935 -7.62501,-0.125 z"
       style="color:#000000;fill:none;stroke:#ffff00;stroke-width:4;stroke-linecap:butt;stroke-linejoin:miter;stroke-miterlimit:4;stroke-opacity:1;stroke-dasharray:none;stroke-dashoffset:0;marker:none;visibility:visible;display:inline;overflow:visible;enable-background:accumulate" />
    <path
       style="fill:none;stroke:#0000ff;stroke-width:3.99999976;stroke-linecap:round;stroke-linejoin:round;stroke-miterlimit:4;stroke-opacity:1;stroke-dasharray:none"
       d="m 83.001339,155.28605 c -0.17608,-2.53898 -1.927233,-3.07682 -3.01936,-3.77669 -1.508223,-1.72145 -2.05598,-0.92177 -3.968044,-2.35895 -1.677908,0.21419 -3.022105,-0.74947 -4.845146,-0.0243 -2.68545,0.1457 -4.885722,2.47356 -6.424881,5.1353 -0.875318,2.13166 -1.880689,4.13194 -1.680883,6.50068 0.141551,1.67253 -0.156558,3.64358 0.333789,5.0793 1.277605,1.89241 2.356611,5.18249 3.807794,5.99807 1.584392,-0.16816 3.155705,0.62686 4.697866,0.65576 2.343212,-0.43844 4.686445,-2.00078 7.029567,-2.43931 0.819486,-1.30324 2.132503,-2.10624 2.373543,-3.46088 0.561695,-0.82821 0.266833,-2.56743 0.672556,-3.60587 0.76079,-2.62708 0.480566,-4.72958 1.023199,-7.70311 z"
       id="path2905"
       sodipodi:nodetypes="cccccsccccccc" />
    <path
       style="fill:none;stroke:#0000ff;stroke-width:4;stroke-linecap:round;stroke-linejoin:round;stroke-miterlimit:4;stroke-opacity:1;stroke-dasharray:none"
       d="m 65.837808,172.57061 c -2.284903,1.10672 -5.690259,0.0562 -6.436614,0.99592 -3.877257,0.0196 -7.750922,0.76984 -11.624708,0.73824 -3.352403,-0.23026 -6.532338,0.80837 -9.613357,1.16702 -1.470761,0.40422 -2.941426,0.80843 -4.412091,1.21263"
       id="path2907-1" />
    <path
       id="path2909"
       style="fill:none;stroke:#0000ff;stroke-width:4;stroke-linecap:round;stroke-linejoin:round;stroke-miterlimit:4;stroke-opacity:1;stroke-dasharray:none"
       d="m 14.215631,194.54205 c -2.419539,-0.91954 -1.565072,-0.13089 -0.459263,-0.44344 2.824683,0.26942 4.942246,-0.4008 7.672497,-0.53683 3.688441,0.34309 7.152018,-1.8359 11.074457,-0.97795 0.658005,-2.72835 0.139848,-5.65537 0.356528,-8.48262 -0.246503,-2.4869 0.184913,-4.9293 0.463652,-7.35132 M 20.25883,198.14184 c -1.301702,-0.10851 0.999169,-0.57242 1.266307,-0.48272 0.842532,0.60819 4.781677,-1.30781 6.906221,-0.94068 3.538483,0.0658 8.414912,0.0917 11.551666,0.78895 -0.64837,-4.29205 -2.48204,-5.82182 -2.896333,-10.19076 -0.874546,-3.18065 -1.935576,-7.86814 -2.50802,-9.96879"
       sodipodi:nodetypes="cccccccccccc" />
    <path
       id="path2911"
       style="fill:none;stroke:#0000ff;stroke-width:4;stroke-linecap:round;stroke-linejoin:round;stroke-miterlimit:4;stroke-opacity:1;stroke-dasharray:none"
       d="m 75.727185,197.64268 c -0.01207,-0.9392 -1.211643,-1.59582 -1.555705,-2.55643 -0.953682,-1.77016 -1.819695,-3.16098 -2.936816,-4.82583 -2.149166,-2.88558 -2.775994,-6.3661 -3.978467,-9.63609 -0.728928,-1.97639 -1.345147,-4.55816 -2.425398,-7.24686 -1.758314,3.82377 -3.269516,7.56069 -4.719166,11.20469 -1.518862,2.61201 -1.671119,6.4201 -2.270481,9.10239 -0.612872,0.99854 1.247375,5.30224 -1.086836,3.86467"
       sodipodi:nodetypes="cccscccc" />
    <path
       id="path2896"
       d="m 182.43517,175.08837 c -2.46929,0.59011 -5.56953,-1.16732 -6.5003,-0.40985 -3.79098,-0.81365 -7.73538,-0.91294 -11.51196,-1.77586 -3.2247,-0.94494 -6.55351,-0.61357 -9.63965,-0.92506 -1.52326,0.0789 -3.31158,0.6881 -4.83475,-1.00079"
       style="fill:none;stroke:#0000ff;stroke-width:4;stroke-linecap:round;stroke-linejoin:round;stroke-miterlimit:4;stroke-opacity:1;stroke-dasharray:none"
       sodipodi:nodetypes="ccccc" />
    <path
       style="fill:none;stroke:#0000ff;stroke-width:4;stroke-linecap:round;stroke-linejoin:round;stroke-miterlimit:4;stroke-opacity:1;stroke-dasharray:none"
       d="m 197.6055,198.1945 c -0.65009,-1.83524 -1.26685,-0.37107 -2.29356,-0.6217 -3.07768,0.18141 -4.66563,-0.12411 -7.41887,-0.29166 -3.9004,0.4764 -6.70418,-0.41375 -11.02134,0.21488 0.26205,-3.36801 0.82624,-7.23026 1.57484,-10.7814 0.13447,-3.44614 1.06103,-7.10056 3.28624,-10.57244"
       id="path2918"
       sodipodi:nodetypes="cccccc" />
    <path
       style="fill:none;stroke:#0000ff;stroke-width:4;stroke-linecap:round;stroke-linejoin:round;stroke-miterlimit:4;stroke-opacity:1;stroke-dasharray:none"
       d="m 201.76053,193.54564 c 1.26611,-0.0928 -1.09852,-0.57808 -1.86657,-0.41295 -0.64306,0.52029 -3.79639,-0.23492 -5.88891,-0.2744 -3.78206,0.76341 -7.23579,-0.45193 -10.14387,0.1446 -0.40575,-3.49497 -1.3719,-3.21267 -0.62272,-7.12698 0.53849,-2.80936 0.94603,-8.322 -0.58468,-10.11906"
       id="path2898"
       sodipodi:nodetypes="cccccc" />
    <path
       sodipodi:nodetypes="cccscccc"
       d="m 140.49576,197.64268 c 0.27727,-2.61858 2.00715,-3.01003 2.35121,-3.97064 0.95368,-1.77016 1.81969,-3.86809 2.14131,-5.62133 0.73496,-3.5043 1.02677,-5.12093 2.74103,-7.77993 1.27126,-1.97186 2.4942,-2.43684 3.66284,-6.89331 2.73058,2.8515 4.8605,7.4723 5.77982,11.1163 0.90015,2.96557 0.61046,4.82911 1.20983,7.5114 -0.0942,1.17532 0.78555,3.71125 1.08683,5.54405"
       style="fill:none;stroke:#0000ff;stroke-width:4;stroke-linecap:round;stroke-linejoin:round;stroke-miterlimit:4;stroke-opacity:1;stroke-dasharray:none"
       id="path2900" />
    <path
       style="fill:none;stroke:#80ff00;stroke-width:3.99999976;stroke-linecap:round;stroke-linejoin:round;stroke-miterlimit:4;stroke-opacity:1;stroke-dasharray:none"
       d="m 421.06094,163.04048 c -6.26015,-0.32282 -11.23258,0.85305 -17.28886,1.25582 -12.40937,-0.36392 -22.18188,-1.95401 -34.50623,-1.01994 -7.66449,-1.21423 -17.71084,0.47931 -24.72595,0.008 -6.43861,-0.31603 -17.45361,0.37746 -23.4027,-1.35249"
       id="path2952-1" />
    <path
       style="fill:none;stroke:#80ff00;stroke-width:3.99999976;stroke-linecap:round;stroke-linejoin:round;stroke-miterlimit:4;stroke-opacity:1;stroke-dasharray:none"
       d="m 386.20791,201.07215 c 0.33444,-4.27638 0.2866,-8.65512 2.60739,-12.62947 2.23959,-5.03825 4.12662,-10.24055 7.12413,-15.10583 1.3009,-3.27473 3.09779,-11.66363 5.421,-5.23022 3.66481,4.26719 6.59579,8.69578 8.36547,13.60661 2.34175,4.9609 5.40442,10.41113 6.48939,15.19409 -0.67696,1.44403 1.30095,2.31231 0.8824,3.75483"
       id="path2956" />
    <path
       style="fill:none;stroke:#80ff00;stroke-width:3.99999976;stroke-linecap:round;stroke-linejoin:round;stroke-miterlimit:4;stroke-opacity:1;stroke-dasharray:none"
       d="m 309.78147,201.49931 c 0.22755,-0.73576 1.45034,-4.68876 2.0563,-6.64753 1.97898,-6.14738 6.08498,-7.94088 10.07489,-15.24829 1.59552,-4.37605 7.16031,-12.52162 8.42679,-14.73337 1.56733,4.85249 2.91207,9.7945 4.53396,14.62117 1.92233,7.49008 5.34368,14.23137 11.80711,19.46964 0.94491,0.55614 3.22813,1.0797 1.9274,2.63616"
       id="path2958" />
    <path
       style="color:#000000;fill:none;stroke:#80ff00;stroke-width:3.99999976;stroke-linecap:round;stroke-linejoin:round;stroke-miterlimit:4;stroke-opacity:1;stroke-dasharray:none;stroke-dashoffset:0;marker:none;visibility:visible;display:inline;overflow:visible;enable-background:accumulate"
       d="m 322.16493,148.0035 c -0.70617,-1.0925 -5.11259,1.45923 -7.37949,1.92222 -1.84228,0.37631 -3.76107,0.46587 -5.53007,1.03357 -1.96211,0.62971 -3.83615,1.53711 -5.82376,2.07992 -2.98363,0.81491 -6.06593,1.33622 -9.11387,1.94074 -1.49012,0.29551 -2.98119,-0.0503 -4.29087,0.68381 -1.6264,0.91245 -4.97887,0.81205 -5.12174,2.09812 -0.13281,1.19555 2.93371,1.75892 3.99043,3.08169 3.3964,4.25134 6.0281,3.98637 9.30785,5.31991 2.3152,0.94128 4.67176,0.94878 6.85855,2.0878 2.39807,1.24915 4.2919,3.20651 6.67403,4.48775 1.49889,0.80624 3.16795,1.06984 4.68744,1.76243 2.271,1.0351 1.31931,-1.81671 1.34955,-2.88508 0.056,-1.97737 0.48629,-3.91325 0.65112,-5.87925 0.14249,-1.69915 1.05764,-3.26514 1.05941,-5.02914 0.002,-1.90705 -0.0217,-3.87808 0.43354,-5.72478 0.43585,-1.76803 0.99519,-3.53711 1.66225,-5.26104 0.32777,-0.84701 0.94211,-1.16716 0.58563,-1.71867 z"
       id="path2870"
       sodipodi:nodetypes="csssssssssssssssss" />
    <path
       style="color:#000000;fill:none;stroke:#80ff00;stroke-width:3.99999976;stroke-linecap:round;stroke-linejoin:round;stroke-miterlimit:4;stroke-opacity:1;stroke-dasharray:none;stroke-dashoffset:0;marker:none;visibility:visible;display:inline;overflow:visible;enable-background:accumulate"
       d="m 421.08611,163.10594 c 13.30002,1.11235 20.48332,-12.25184 32.47513,-27.24688 6.22837,-7.78831 8.2171,-15.89135 3.07876,-27.35113 -5.94373,-13.255997 -10.18267,-18.844599 -24.31774,-19.290461 -11.38126,-0.358931 -23.81407,10.820541 -32.75548,8.74119 -13.0625,-3.0377 -28.96862,7.658101 -41.99323,10.472971"
       id="path4125-8"
       sodipodi:nodetypes="csssss" />
    <path
       style="color:#000000;fill:none;stroke:#008000;stroke-width:4;stroke-linecap:butt;stroke-linejoin:miter;stroke-miterlimit:4;stroke-opacity:1;stroke-dasharray:none;stroke-dashoffset:0;marker:none;visibility:visible;display:inline;overflow:visible;enable-background:accumulate"
       d="m 268.39048,148.56119 c 0.11914,1.30964 1.11415,2.60692 2.91059,4.57353 2.16321,2.36811 2.70656,3.19341 1.48948,4.19202 -0.27729,0.22763 -2.60361,0.0869 -3.00446,0.1003 -3.60532,0.12036 -9.87336,1.48851 -9.1682,0.16566 3.85774,-7.23707 5.11123,-5.84621 4.95293,-9.0315"
       id="path2844" />
    <path
       style="color:#000000;fill:none;stroke:#008000;stroke-width:4;stroke-linecap:butt;stroke-linejoin:miter;stroke-miterlimit:4;stroke-opacity:1;stroke-dasharray:none;stroke-dashoffset:0;marker:none;visibility:visible;display:inline;overflow:visible;enable-background:accumulate"
       d="m 267.30343,190.3755 c -0.14427,2.80282 -5.40265,6.99118 -5.56327,8.77288 -0.12963,1.43829 5.16595,0.48183 7.34989,0.55864 1.58543,0.0569 3.86166,0.48804 5.12241,-0.27062 0.80769,-0.48573 0.6716,-1.67962 -1.43057,-4.13478 -1.92738,-2.251 -2.77725,-3.64493 -2.65883,-4.92155"
       id="path2862-4-1" />
    <path
       style="color:#000000;fill:none;stroke:#80ff00;stroke-width:4;stroke-linecap:round;stroke-linejoin:round;stroke-miterlimit:4;stroke-opacity:1;stroke-dasharray:none;stroke-dashoffset:0;marker:none;visibility:visible;display:inline;overflow:visible;enable-background:accumulate"
       d="m 284.94428,234.21091 c -0.20413,0.20818 -2.79463,1.90819 -3.02907,2.07628 -0.3315,0.23775 -2.15017,1.77554 -2.46011,2.04749 -0.3764,0.32911 -2.11488,1.76704 -2.50758,2.07653 -1.19477,0.94098 -2.14889,1.83601 -3.62975,2.71958 -0.53164,0.31716 -1.19645,1.24178 -1.80504,1.40065"
       id="path3655-7"
       sodipodi:nodetypes="csssss" />
  </g>
</svg>
