<?xml version="1.0" encoding="UTF-8" standalone="no"?>
<!-- Created with Inkscape (http://www.inkscape.org/) -->

<svg
   xmlns:dc="http://purl.org/dc/elements/1.1/"
   xmlns:cc="http://creativecommons.org/ns#"
   xmlns:rdf="http://www.w3.org/1999/02/22-rdf-syntax-ns#"
   xmlns:svg="http://www.w3.org/2000/svg"
   xmlns="http://www.w3.org/2000/svg"
   xmlns:sodipodi="http://sodipodi.sourceforge.net/DTD/sodipodi-0.dtd"
   xmlns:inkscape="http://www.inkscape.org/namespaces/inkscape"
   width="480"
   height="320"
   id="svg2"
   version="1.1"
   inkscape:version="0.48.0 r9654"
   sodipodi:docname="itnas284.svg"
   inkscape:export-xdpi="90"
   inkscape:export-ydpi="90"
   inkscape:export-filename="itnas284.png">
  <defs
     id="defs4">
    <inkscape:perspective
       sodipodi:type="inkscape:persp3d"
       inkscape:vp_x="0 : 160 : 1"
       inkscape:vp_y="0 : 1000 : 0"
       inkscape:vp_z="480 : 160 : 1"
       inkscape:persp3d-origin="240 : 106.66667 : 1"
       id="perspective8" />
  </defs>
  <sodipodi:namedview
     id="base"
     pagecolor="#ffffff"
     bordercolor="#666666"
     borderopacity="1.0"
     inkscape:pageopacity="1"
     inkscape:pageshadow="2"
     inkscape:zoom="2"
     inkscape:cx="327.79988"
     inkscape:cy="184.24417"
     inkscape:document-units="px"
     inkscape:current-layer="layer1"
     showgrid="false"
     inkscape:snap-nodes="true"
     inkscape:snap-global="false"
     inkscape:snap-grids="true"
     showguides="true"
     inkscape:window-width="1280"
     inkscape:window-height="998"
     inkscape:window-x="1276"
     inkscape:window-y="-4"
     inkscape:window-maximized="1">
    <inkscape:grid
       empspacing="5"
       visible="true"
       enabled="true"
       snapvisiblegridlinesonly="true"
       type="xygrid"
       id="grid2816" />
  </sodipodi:namedview>
  <metadata
     id="metadata7">
    <rdf:RDF>
      <cc:Work
         rdf:about="">
        <dc:format>image/svg+xml</dc:format>
        <dc:type
           rdf:resource="http://purl.org/dc/dcmitype/StillImage" />
        <dc:title></dc:title>
      </cc:Work>
    </rdf:RDF>
  </metadata>
  <g
     inkscape:label="Layer 1"
     inkscape:groupmode="layer"
     id="layer1"
     transform="translate(0,0)">
    <path
       id="path4103"
       style="color:#000000;fill:none;stroke:#c87137;stroke-width:4;stroke-linecap:round;stroke-linejoin:round;stroke-miterlimit:4;stroke-opacity:1;stroke-dasharray:none;stroke-dashoffset:0;marker:none;visibility:visible;display:inline;overflow:visible;enable-background:accumulate"
       d="m 285.58563,152.31522 c -12.23925,-0.34446 -24.95023,2.58654 -25.08527,7.32851 -0.12053,4.22997 7.08555,6.31799 11.01969,7.06442 20.27613,3.84697 25.82851,0.56565 30.3369,-2.67706 8.73988,-6.28623 -0.47666,-11.27134 -16.27132,-11.71587 z"
       inkscape:connector-curvature="0"
       sodipodi:nodetypes="sssss" />
    <path
       inkscape:connector-curvature="0"
       id="path4112"
       d="m 451.64958,118.92781 c -5.44567,5.39414 -7.47049,5.20131 -10.53714,3.64007 -15.01219,-7.64274 1.19175,-27.125085 8.03714,-26.27065"
       style="color:#000000;fill:none;stroke:#808080;stroke-width:3.99999952;stroke-linecap:round;stroke-linejoin:round;stroke-miterlimit:4;stroke-opacity:1;stroke-dasharray:none;stroke-dashoffset:0;marker:none;visibility:visible;display:inline;overflow:visible;enable-background:accumulate"
       sodipodi:nodetypes="csc" />
    <path
       sodipodi:nodetypes="csc"
       style="color:#000000;fill:none;stroke:#808080;stroke-width:3.99999952;stroke-linecap:round;stroke-linejoin:round;stroke-miterlimit:4;stroke-opacity:1;stroke-dasharray:none;stroke-dashoffset:0;marker:none;visibility:visible;display:inline;overflow:visible;enable-background:accumulate"
       d="m 86.93414,36.42781 c 6.44567,3.89414 10.212713,2.557822 12.03714,-0.35993 7.29964,-11.674104 2.15726,-22.002548 -9.53714,-24.27065"
       id="path4114"
       inkscape:connector-curvature="0" />
    <path
       style="color:#000000;fill:none;stroke:#808080;stroke-width:3.99999952;stroke-linecap:round;stroke-linejoin:round;stroke-miterlimit:4;stroke-opacity:1;stroke-dasharray:none;stroke-dashoffset:0;marker:none;visibility:visible;display:inline;overflow:visible;enable-background:accumulate"
       d="M 7.177387,99.37628 C 19.702482,92.785613 30.366223,84.393265 43.261162,81.037188 61.44983,75.634787 77.425783,71.176232 94.96748,60.385917 c 18.92263,-10.45026 36.80571,-22.685646 56.57521,-31.617078 8.37489,-9.278987 19.58894,0.203393 29.68544,2.033292 9.90459,3.174952 20.11978,6.986116 27.22518,14.57074 21.59058,9.464804 43.41657,18.399319 65.74277,26.067528 4.85175,3.559342 21.87912,3.492698 8.89022,8.014145 -14.29686,6.950284 -28.4678,14.707765 -39.60269,26.070556 -24.9769,13.09328 -41.12596,38.07336 -67.65222,48.75494 -10.5405,2.78289 -18.04947,10.38119 -27.12838,15.48446 -11.24832,-0.0233 -17.42874,-9.73214 -28.1596,-12.66527 C 104.18688,143.63434 86.407023,137.18403 70.357526,134.59146 59.780746,123.39551 44.862522,120.45962 32.205537,112.55854 24.205173,106.88933 17.726877,101.35412 7.177387,99.37628 z"
       id="path2984"
       inkscape:connector-curvature="0"
       sodipodi:nodetypes="ccccccccccccccc" />
    <path
       style="color:#000000;fill:none;stroke:#808080;stroke-width:3.99999952;stroke-linecap:round;stroke-linejoin:round;stroke-miterlimit:4;stroke-opacity:1;stroke-dasharray:none;stroke-dashoffset:0;marker:none;visibility:visible;display:inline;overflow:visible;enable-background:accumulate"
       d="m 286.38775,-33.499989 c 0,34.26931042 8.15723,72.579786 0.9603,107.910612 16.21726,2.690539 34.65013,18.767062 50.89613,18.767062 2.35108,-10.570566 1.66401,-24.275646 0,-35.657419 -1.2548,-8.582803 1.2548,-17.691084 0,-26.273887 -2.692,-18.413195 -5.76183,-35.6633172 -5.76183,-54.424483"
       id="path2994"
       inkscape:connector-curvature="0" />
    <path
       style="color:#000000;fill:none;stroke:#808080;stroke-width:3.99999952;stroke-linecap:round;stroke-linejoin:round;stroke-miterlimit:4;stroke-opacity:1;stroke-dasharray:none;stroke-dashoffset:0;marker:none;visibility:visible;display:inline;overflow:visible;enable-background:accumulate"
       d="m 431.2577,139.08059 c -12.04187,-6.21275 -23.98258,-12.6169 -34.54865,-21.09468 -10.89294,-4.63627 -18.97442,-13.54596 -30.91029,-16.3823 -10.63202,-0.89059 -24.87711,-14.45677 -32.98115,-5.740545 -9.61294,12.609085 -24.66074,19.556195 -35.89364,30.413515 -7.60387,12.90422 -25.44327,14.72087 -35.67113,25.3303 -9.82859,5.33053 -16.38971,14.22833 -23.88632,22.24396 -7.59154,8.65953 -16.2808,13.39859 -24.2723,18.35368 -4.58928,5.24489 11.38804,8.64849 15.03595,13.79282 21.85763,16.87575 38.95802,23.03857 66.3168,35.94534 8.13184,8.34951 19.91451,12.63679 31.8123,18.67068 7.92079,10.70449 37.95219,-17.89131 45.18826,-25.37543 5.06189,-8.92792 15.12701,-13.23654 22.47686,-19.92872 11.58268,-8.89219 23.71041,-18.6589 39.78132,-25.18452 10.2665,-4.80523 30.11622,-24.65127 37.11086,-34.25804 -8.84702,-6.57555 -31.35828,-11.5715 -39.55887,-16.78606 z"
       id="path2998"
       inkscape:connector-curvature="0"
       sodipodi:nodetypes="cccccccccccccccc" />
    <path
       style="color:#000000;fill:none;stroke:#808080;stroke-width:3.99999952;stroke-linecap:round;stroke-linejoin:round;stroke-miterlimit:4;stroke-opacity:1;stroke-dasharray:none;stroke-dashoffset:0;marker:none;visibility:visible;display:inline;overflow:visible;enable-background:accumulate"
       d="m 292.64958,129.92781 c 0,-5.04353 0,-10.08707 0,-15.13058"
       id="path3008"
       inkscape:connector-curvature="0" />
    <path
       style="color:#000000;fill:none;stroke:#808080;stroke-width:3.99999952;stroke-linecap:round;stroke-linejoin:round;stroke-miterlimit:4;stroke-opacity:1;stroke-dasharray:none;stroke-dashoffset:0;marker:none;visibility:visible;display:inline;overflow:visible;enable-background:accumulate"
       d="m 87.428684,322.42347 c 3.695068,0 3.945809,-5.00396 5.157186,-7.08391 0.558735,-0.95933 15.67162,-10.59693 16.96363,-11.33639 7.31194,-4.18485 27.17961,-5.98891 33.00601,-9.74037 16.44267,-10.587 36.97481,-19.42042 52.60333,-31.87758 -10.52147,0 -18.96899,-10.35614 -27.84883,-14.16781 -2.91734,-1.25226 -6.44012,-1.28366 -9.28294,-2.65646 -7.15577,-3.45555 -14.0539,-9.82588 -20.62876,-14.16782 -15.1373,-9.99642 -33.22084,-16.6644 -48.477571,-26.56463 -9.117768,-1.98102 -16.117213,-8.04377 -23.723071,-12.39684 -2.897559,-1.65837 -7.474677,-1.98956 -9.282942,-3.54196"
       id="path3022"
       inkscape:connector-curvature="0"
       sodipodi:nodetypes="ccsscssscsc" />
    <path
       style="color:#000000;fill:none;stroke:#808080;stroke-width:3.99999952;stroke-linecap:round;stroke-linejoin:round;stroke-miterlimit:4;stroke-opacity:1;stroke-dasharray:none;stroke-dashoffset:0;marker:none;visibility:visible;display:inline;overflow:visible;enable-background:accumulate"
       d="m 182.67489,321.11707 c 17.95158,-8.58575 -11.06101,4.84343 9.58558,-3.05635 10.37714,-3.97048 16.72318,-14.62035 26.62662,-19.35688 2.0083,-0.96052 4.42759,-0.99452 6.39038,-2.03757 4.9087,-2.60855 8.04749,-8.66634 13.84585,-10.18784 10.85232,7.82359 24.3472,12.34074 35.14714,20.37568 6.8304,5.08168 19.57828,20.15327 27.51026,20.15327"
       id="path3024"
       inkscape:connector-curvature="0"
       sodipodi:nodetypes="cssscsc" />
    <path
       style="color:#000000;fill:none;stroke:#808080;stroke-width:3.99999952;stroke-linecap:round;stroke-linejoin:round;stroke-miterlimit:4;stroke-opacity:1;stroke-dasharray:none;stroke-dashoffset:0;marker:none;visibility:visible;display:inline;overflow:visible;enable-background:accumulate"
       d="m 195.15885,261.69489 c 0,-4.90336 0,-9.80673 0,-14.71008"
       id="path3028"
       inkscape:connector-curvature="0" />
    <path
       style="color:#000000;fill:none;stroke:#808080;stroke-width:3.99999952;stroke-linecap:round;stroke-linejoin:round;stroke-miterlimit:4;stroke-opacity:1;stroke-dasharray:none;stroke-dashoffset:0;marker:none;visibility:visible;display:inline;overflow:visible;enable-background:accumulate"
       d="m 238.85269,286.47843 c 0,-4.69176 0,-9.38353 0,-14.07529"
       id="path3032"
       inkscape:connector-curvature="0" />
    <path
       style="color:#000000;fill:none;stroke:#808080;stroke-width:3.99999952;stroke-linecap:round;stroke-linejoin:round;stroke-miterlimit:4;stroke-opacity:1;stroke-dasharray:none;stroke-dashoffset:0;marker:none;visibility:visible;display:inline;overflow:visible;enable-background:accumulate"
       d="m 137.06043,65.496268 c -3.16133,34.333374 0.22981,61.743072 1.48943,93.751772"
       id="path4001"
       inkscape:connector-curvature="0" />
    <path
       style="color:#000000;fill:none;stroke:#808080;stroke-width:3.99999952;stroke-linecap:round;stroke-linejoin:round;stroke-miterlimit:4;stroke-opacity:1;stroke-dasharray:none;stroke-dashoffset:0;marker:none;visibility:visible;display:inline;overflow:visible;enable-background:accumulate"
       d="m 138.92979,172.99736 c 0.0337,2.29563 0.0517,4.6204 0.0513,6.978 C 130.98182,179.04928 120.4946,167.58915 112.52203,166.4868 101.85617,159.25245 93.309269,157.86415 90.965834,153.70147 80.88264,150.88641 67.43838,142.44122 67.43838,142.44122"
       id="path3046"
       inkscape:connector-curvature="0" />
    <path
       style="color:#000000;fill:none;stroke:#808080;stroke-width:3.99999952;stroke-linecap:round;stroke-linejoin:round;stroke-miterlimit:4;stroke-opacity:1;stroke-dasharray:none;stroke-dashoffset:0;marker:none;visibility:visible;display:inline;overflow:visible;enable-background:accumulate"
       d="m 388.18,170.12264 c -1.18892,14.33225 -4.7404,33.08414 -4.43701,47.37751"
       id="path3995"
       inkscape:connector-curvature="0"
       sodipodi:nodetypes="cc" />
    <path
       style="color:#000000;fill:none;stroke:#808080;stroke-width:3.99999952;stroke-linecap:round;stroke-linejoin:round;stroke-miterlimit:4;stroke-opacity:1;stroke-dasharray:none;stroke-dashoffset:0;marker:none;visibility:visible;display:inline;overflow:visible;enable-background:accumulate"
       d="m 382.64941,231.74526 c 0.009,25.12273 -0.92605,48.52207 3.60998,75.93508 -2.04718,-3.60686 18.84748,14.26496 28.33207,18.1574"
       id="path3942"
       inkscape:connector-curvature="0"
       sodipodi:nodetypes="ccc" />
    <path
       style="color:#000000;fill:none;stroke:#808080;stroke-width:3.99999952;stroke-linecap:round;stroke-linejoin:round;stroke-miterlimit:4;stroke-opacity:1;stroke-dasharray:none;stroke-dashoffset:0;marker:none;visibility:visible;display:inline;overflow:visible;enable-background:accumulate"
       d="m 355.52966,152.29394 c -9.26564,32.90801 -10.19206,65.94251 -9.54039,97.70525"
       id="path3989"
       inkscape:connector-curvature="0"
       sodipodi:nodetypes="cc" />
    <path
       style="color:#000000;fill:none;stroke:#808080;stroke-width:3.99999952;stroke-linecap:round;stroke-linejoin:round;stroke-miterlimit:4;stroke-opacity:1;stroke-dasharray:none;stroke-dashoffset:0;marker:none;visibility:visible;display:inline;overflow:visible;enable-background:accumulate"
       d="m 346.48279,264.49564 c 0.0852,9.43482 -0.33404,10.97116 -0.33404,20.67974 -8.37024,-1.23143 -5.91673,-4.29988 -11.53908,-7.00105 -2.76338,-1.32764 -10.45728,-3.49153 -14.23268,-5.9142 -9.14456,-5.86807 -6.67249,-4.13428 -22.24305,-11.08655 -35.24252,-15.73581 -37.24767,-21.89598 -64.3492,-34.65155 -3.46983,-1.6331 -7.96605,-5.71396 -10.90282,-7.43222 -11.76073,-6.8811 -18.5316,-7.44625 -28.33917,-11.93652 -7.91921,-3.62569 -14.73159,-9.06818 -19.33236,-11.28666 -0.87832,-12.03741 -1.67447,-23.15248 -2.36071,-33.88898"
       id="path3985"
       inkscape:connector-curvature="0"
       sodipodi:nodetypes="ccsssssscc" />
    <path
       style="color:#000000;fill:none;stroke:#808080;stroke-width:3.99999952;stroke-linecap:round;stroke-linejoin:round;stroke-miterlimit:4;stroke-opacity:1;stroke-dasharray:none;stroke-dashoffset:0;marker:none;visibility:visible;display:inline;overflow:visible;enable-background:accumulate"
       d="m 172.08097,149.24543 c -1.18638,-21.01541 -1.89004,-41.38783 -1.89004,-65.451276"
       id="path3892"
       inkscape:connector-curvature="0" />
    <path
       style="color:#000000;fill:none;stroke:#c87137;stroke-width:4;stroke-linecap:round;stroke-linejoin:round;stroke-miterlimit:4;stroke-opacity:1;stroke-dasharray:none;stroke-dashoffset:0;marker:none;visibility:visible;display:inline;overflow:visible;enable-background:accumulate"
       d="m 226.25637,-47.133073 c 4.37022,22.021713 2.92306,44.7851365 2.92306,67.22707 0,5.802653 -4.82095,39.997338 0,44.818047 2.10536,2.105247 18.27297,0 32.06866,2.922916 13.79568,2.922916 26.39269,11.636764 26.39269,9.743054 0,-20.219872 5.63326,-99.592006 -4.87178,-110.096507 -7.20838,-7.208011 -21.02767,-11.880387 -32.15374,-15.588886 -7.85652,-2.618707 -15.22776,-8.156354 -24.35889,0.974306 z"
       id="path3930"
       inkscape:connector-curvature="0"
       sodipodi:nodetypes="csscsssc" />
    <path
       style="color:#000000;fill:none;stroke:#c87137;stroke-width:4;stroke-linecap:round;stroke-linejoin:round;stroke-miterlimit:4;stroke-opacity:1;stroke-dasharray:none;stroke-dashoffset:0;marker:none;visibility:visible;display:inline;overflow:visible;enable-background:accumulate"
       d="m 341.10225,94.714464 c 1.33666,-15.414454 1.92526,-30.747318 0.88365,-46.920458 -0.58444,-9.074716 -1.16888,-18.149432 -1.75333,-27.224148 -0.45822,-7.11478 -7.87026,-43.223036 -3.13095,-48.614551 3.14387,-3.576508 21.71565,25.1257253 22.1725,25.9090819 3.80515,6.5244763 8.90712,8.4558481 13.52453,12.5142811 0.993,0.87278 4.65582,87.85066 5.15689,95.63085 0.19964,3.09984 3.09807,17.34613 1.25238,19.44581 -1.35813,1.54502 -34.31009,-28.783713 -38.10567,-30.740866 z"
       id="path3932"
       inkscape:connector-curvature="0"
       sodipodi:nodetypes="csssssssc" />
    <path
       style="color:#000000;fill:none;stroke:#808080;stroke-width:3.99999952;stroke-linecap:round;stroke-linejoin:round;stroke-miterlimit:4;stroke-opacity:1;stroke-dasharray:none;stroke-dashoffset:0;marker:none;visibility:visible;display:inline;overflow:visible;enable-background:accumulate"
       d="M 9.522218,-42 C 5.258461,-19.265624 9.643953,3.3746503 10.149636,26.01899 10.69189,50.300972 7.522218,74.587628 7.522218,99"
       id="path3948"
       inkscape:connector-curvature="0"
       sodipodi:nodetypes="csc" />
    <path
       style="color:#000000;fill:none;stroke:#808080;stroke-width:3.99999952;stroke-linecap:round;stroke-linejoin:round;stroke-miterlimit:4;stroke-opacity:1;stroke-dasharray:none;stroke-dashoffset:0;marker:none;visibility:visible;display:inline;overflow:visible;enable-background:accumulate"
       d="m 470,154 c 1.18748,-26.16687 2.5207,-53.3828 0.0326,-80.08457 C 467.21817,43.712345 468,15.869621 468,-11"
       id="path3954"
       inkscape:connector-curvature="0"
       sodipodi:nodetypes="csc" />
    <path
       style="color:#000000;fill:none;stroke:#c87137;stroke-width:4;stroke-linecap:round;stroke-linejoin:round;stroke-miterlimit:4;stroke-opacity:1;stroke-dasharray:none;stroke-dashoffset:0;marker:none;visibility:visible;display:inline;overflow:visible;enable-background:accumulate"
       d="m 136.54059,65.339719 c 29.75137,-11.789385 28.9621,-17.071619 48.12513,-4.728497 6.20144,3.99442 19.57632,7.339085 19.57632,9.456994 0,0.09492 -12.78472,4.232304 -13.86657,4.728497 -27.95114,12.819978 -21.76987,4.087359 -53.83488,-9.456994 z"
       id="path3082"
       inkscape:connector-curvature="0"
       sodipodi:nodetypes="csssc" />
    <path
       style="color:#000000;fill:none;stroke:#c87137;stroke-width:4;stroke-linecap:round;stroke-linejoin:round;stroke-miterlimit:4;stroke-opacity:1;stroke-dasharray:none;stroke-dashoffset:0;marker:none;visibility:visible;display:inline;overflow:visible;enable-background:accumulate"
       d="m 383.731,140.47931 c 3.59272,1.28382 14.08586,5.03976 16.62806,7.36144 6.04751,5.52291 10.1667,2.70766 14.36061,7.36146 3.98252,4.41922 -12.00542,8.0805 -15.87224,8.83372 -3.80596,0.74138 -8.8736,9.02489 -12.84896,5.15301 -3.66037,-3.56507 -9.66321,-8.5356 -17.38389,-11.04216 -1.7896,-0.58101 -13.60477,-4.64899 -13.60477,-5.88916 0,-1.53535 12.00673,-4.70078 12.84895,-5.52108 3.21471,-3.13101 12.22901,-6.9669 15.87224,-6.25723 z"
       id="path3858"
       inkscape:connector-curvature="0"
       sodipodi:nodetypes="csssssssc" />
    <path
       style="color:#000000;fill:none;stroke:#808080;stroke-width:3.99999952;stroke-linecap:round;stroke-linejoin:round;stroke-miterlimit:4;stroke-opacity:1;stroke-dasharray:none;stroke-dashoffset:0;marker:none;visibility:visible;display:inline;overflow:visible;enable-background:accumulate"
       d="M 161,24 C 159.28847,14.890774 160,5.3075269 160,-4"
       id="path3973"
       inkscape:connector-curvature="0" />
    <path
       inkscape:connector-curvature="0"
       style="fill:none;stroke:#80ff00;stroke-width:3.99999976;stroke-linecap:round;stroke-linejoin:round;stroke-miterlimit:4;stroke-opacity:1;stroke-dasharray:none"
       d="m 207.01674,79.433759 c -0.86544,1.66166 2.66555,0.651791 1.56142,2.572319 0.48633,2.889924 2.99814,4.668992 3.42225,7.595917 0.69975,1.817575 2.30074,3.059355 2.95298,4.906595 0.75139,1.90472 2.0988,3.36567 3.3914,4.87156 1.05709,1.36681 1.72359,2.98164 2.64369,4.43163 -0.0173,1.59807 0.848,2.51429 0.9395,4.09853 0.11851,1.90962 1.87638,3.09244 1.59705,5.17543 -0.75328,0.43201 -2.37663,-0.51071 -3.47323,-0.61972 -2.93262,-0.75366 -5.86626,-1.50573 -8.79683,-2.26294 -1.48662,-0.93898 -3.58982,-1.14781 -4.55252,-2.65794 -1.0847,-0.94342 -2.62046,-1.31901 -3.89515,-2.01107 -1.53181,-0.60057 -3.18289,-1.43304 -4.67018,-2.22012 -1.65698,-0.64369 -3.15612,-1.52354 -5.03581,-1.82683 -1.47154,-0.24073 -3.3084,-0.57155 -1.80978,-2.50148 0.7681,-1.57782 2.64713,-2.49141 3.41338,-4.08228 1.32506,-1.5695 2.15009,-3.36513 4.08396,-4.63487 1.186,-1.741738 2.88152,-3.384176 3.70296,-5.25339 1.34297,-1.35548 2.35032,-3.007171 3.42407,-4.466811 0.21329,-0.391044 0.49391,-1.205902 1.10068,-1.114258 z"
       id="path2942" />
    <path
       inkscape:connector-curvature="0"
       style="fill:none;stroke:#80ff00;stroke-width:3.99999976;stroke-linecap:round;stroke-linejoin:round;stroke-miterlimit:4;stroke-opacity:1;stroke-dasharray:none"
       d="m 173.39544,108.67353 c -6.10433,-1.42507 -7.31237,-7.34539 -12.38654,-10.67611 -9.98044,-5.26134 -18.86891,-6.80085 -30.45142,-11.114449 -7.70073,-0.95784 -17.69847,-0.816865 -24.72128,-0.479864 -6.443472,0.193227 -17.443248,2.289833 -23.424243,-0.593888"
       id="path2952-1"
       sodipodi:nodetypes="ccccc" />
    <path
       inkscape:connector-curvature="0"
       style="fill:none;stroke:#80ff00;stroke-width:3.99999976;stroke-linecap:round;stroke-linejoin:round;stroke-miterlimit:4;stroke-opacity:1;stroke-dasharray:none"
       d="m 133.30393,117.97243 c 3.05439,-2.5254 6.03676,-5.20042 9.62284,-7.0884 4.28482,-2.5538 8.55094,-5.28798 12.99907,-7.56344 2.72746,-1.69528 9.14344,-6.38877 5.59934,-1.944 -1.561,3.43324 -1.18942,4.68796 -3.89611,8.07996 -2.52828,3.55311 -1.65259,4.92033 -7.92655,8.90778 -1.24111,0.72397 -1.10056,1.70396 -2.24456,2.48603"
       id="path2956"
       sodipodi:nodetypes="ccccccc" />
    <path
       inkscape:connector-curvature="0"
       style="fill:none;stroke:#80ff00;stroke-width:3.99999952;stroke-linecap:round;stroke-linejoin:round;stroke-miterlimit:4;stroke-opacity:1;stroke-dasharray:none"
       d="m 170.52631,103.97304 c 1.1431,-0.0931 4.59773,1.6803 6.45252,-0.10814 3.70361,-1.69286 5.39376,-2.54929 6.7504,-5.71368 4.6708,-5.17707 4.34786,-7.315503 5.16564,-11.266096 -3.84767,4.110777 -8.19848,3.553116 -12.42491,3.939351 -4.95079,0.996325 -6.93789,0.04004 -11.26076,-2.620405 -2.27545,-1.928102 -9.97298,-0.871789 -11.78213,1.436217 -5.93839,7.575733 -3.82536,12.649383 -3.82536,12.649383"
       id="path2956-7"
       sodipodi:nodetypes="ccccccsc" />
    <path
       inkscape:connector-curvature="0"
       style="fill:none;stroke:#80ff00;stroke-width:3.99999952;stroke-linecap:round;stroke-linejoin:round;stroke-miterlimit:4;stroke-opacity:1;stroke-dasharray:none"
       d="m 118.62594,68.226026 c -5.10953,-3.589381 -5.56786,-2.994892 -4.23859,-5.686889 3.33173,-4.677177 2.5074,-5.512955 7.98036,-9.308991 2.70975,-2.557811 4.38285,-1.984426 11.04908,-5.059772 -2.1903,10.571644 4.12183,13.054632 2.20389,16.648405 -1.54807,3.040496 -3.92182,2.856328 -12.03415,-1.872503"
       id="path2958"
       sodipodi:nodetypes="cccccc" />
    <path
       inkscape:connector-curvature="0"
       style="color:#000000;fill:none;stroke:#80ff00;stroke-width:3.99999976;stroke-linecap:round;stroke-linejoin:round;stroke-miterlimit:4;stroke-opacity:1;stroke-dasharray:none;stroke-dashoffset:0;marker:none;visibility:visible;display:inline;overflow:visible;enable-background:accumulate"
       d="m 181.20506,97.64392 c 1.24821,-0.36631 2.9193,4.4436 4.33388,6.2745 1.14958,1.48798 2.54434,2.80874 3.51345,4.39381 1.07485,1.75815 1.9017,3.6691 3.05261,5.37808 1.72762,2.56545 3.72168,4.97295 5.63537,7.42104 0.93561,1.19684 2.29075,1.90853 2.80329,3.31975 0.63599,1.75308 3.24062,3.86613 2.50905,4.93347 -0.68009,0.9922 -3.37046,-0.5835 -5.03453,-0.27167 -5.34839,1.00206 -7.16856,-0.91706 -10.52333,-2.04868 -2.36813,-0.79885 -4.15782,-2.33199 -6.55779,-2.89723 -2.63202,-0.6194 -5.34437,-0.374 -7.98516,-0.9591 -1.66167,-0.36816 -3.09792,-1.25833 -4.701,-1.72594 -2.39589,-0.69897 0.18707,-2.23743 0.86179,-3.06633 1.24879,-1.53415 2.18696,-3.28133 3.34589,-4.87796 1.00159,-1.37995 1.33102,-3.16355 2.48154,-4.50072 1.24384,-1.44559 2.54874,-2.92301 3.40982,-4.61891 0.82439,-1.62366 1.55592,-3.32876 2.1764,-5.07 0.30487,-0.85552 0.0486,-1.49916 0.67871,-1.68408 z"
       id="path2870"
       sodipodi:nodetypes="csssssssssssssssss" />
    <path
       inkscape:connector-curvature="0"
       style="fill:none;stroke:#80ff00;stroke-width:3.99999976;stroke-linecap:round;stroke-linejoin:round;stroke-miterlimit:4;stroke-opacity:1;stroke-dasharray:none"
       d="m 124.92619,100.69758 c -0.65635,-0.22983 -4.63225,-1.13682 -6.37934,-1.74969 -5.51032,-1.90477 -8.57525,-1.88987 -15.48191,-4.5635 -6.134765,-1.43598 -12.037708,-1.01643 -12.244287,-6.469776 -1.482789,3.653666 4.760986,8.038916 7.954605,10.299006 5.167912,3.36409 4.062782,3.57277 9.117852,7.73446 0.64487,0.89069 2.35843,2.2122 3.259,4.13488"
       id="path2958-6"
       sodipodi:nodetypes="ccccccc" />
    <path
       inkscape:connector-curvature="0"
       style="color:#000000;fill:none;stroke:#80ff00;stroke-width:4;stroke-linecap:round;stroke-linejoin:round;stroke-miterlimit:4;stroke-opacity:1;stroke-dasharray:none;stroke-dashoffset:0;marker:none;visibility:visible;display:inline;overflow:visible;enable-background:accumulate"
       d="m 197.60194,90.197382 c -1.66621,-2.223407 -7.47582,-3.149935 -9.81814,-4.903053 -2.43114,-1.819164 -5.10559,-3.282148 -7.78092,-4.846963 -2.94671,-1.723604 -6.5284,-4.363505 -9.74678,-6.372575 -4.02007,-2.509521 -8.16289,-4.108618 -12.17552,-6.757034 -4.89272,-3.229184 -9.10257,-7.565336 -13.58473,-11.452128 -2.25391,-1.954488 -4.28421,-4.089549 -6.72227,-5.860637 -1.88077,-1.366016 -5.78872,-3.710798 -7.28946,-7.808708"
       id="path2833-4"
       sodipodi:nodetypes="csssssss" />
    <path
       inkscape:connector-curvature="0"
       style="fill:none;stroke:#80ff00;stroke-width:3.99999952;stroke-linecap:round;stroke-linejoin:round;stroke-miterlimit:4;stroke-opacity:1;stroke-dasharray:none"
       d="m 247.31381,85.089345 c -5.25631,-4.21644 -13.4987,-4.993313 -18.06098,-9.587912 -4.08078,-4.337488 -6.10771,-8.977674 -8.98252,-14.90362 -1.99662,-5.802975 -5.95276,-12.057053 -11.92426,-17.433539 -5.12624,-4.425373 -10.9468,-7.829886 -17.69968,-9.806516 -3.7769,-1.359565 -7.55051,-2.971798 -11.44487,-2.645424 -8.85997,-0.529222 -17.04909,1.330645 -26.01624,0.389763 -3.70929,0.195551 -8.17194,0.403185 -8.94651,0.501463 -6.69273,-0.784358 -11.00691,4.762393 -12.26702,7.672591 0.41048,-0.151218 -0.6102,1.445302 -1.06173,1.49722"
       id="path4123"
       sodipodi:nodetypes="cccccccccc" />
    <path
       style="color:#000000;fill:none;stroke:#808080;stroke-width:3.99999952;stroke-linecap:round;stroke-linejoin:round;stroke-miterlimit:4;stroke-opacity:1;stroke-dasharray:none;stroke-dashoffset:0;marker:none;visibility:visible;display:inline;overflow:visible;enable-background:accumulate"
       d="m 242.67406,104.70872 c 0,-5.518403 0,-11.036821 0,-16.555232"
       id="path3004"
       inkscape:connector-curvature="0" />
    <path
       inkscape:connector-curvature="0"
       style="color:#000000;fill:none;stroke:#80ff00;stroke-width:3.99999976;stroke-linecap:round;stroke-linejoin:round;stroke-miterlimit:4;stroke-opacity:1;stroke-dasharray:none;stroke-dashoffset:0;marker:none;visibility:visible;display:inline;overflow:visible;enable-background:accumulate"
       d="m 81.973154,85.44235 c -17.023738,-3.5894 -31.618788,-2.9596 -48.141338,6.821 -8.5816,5.08 9.699854,7.80753 16.61776,18.28949 8.002232,12.12491 14.046078,9.70006 27.108548,15.11956 10.517651,4.3636 25.704776,7.51867 33.729136,3.4169 11.94141,-6.10402 28.74787,1.48928 41.98834,-0.012"
       id="path4125-8"
       sodipodi:nodetypes="csssss" />
    <path
       style="color:#000000;fill:none;stroke:#808080;stroke-width:3.99999952;stroke-linecap:round;stroke-linejoin:round;stroke-miterlimit:4;stroke-opacity:1;stroke-dasharray:none;stroke-dashoffset:0;marker:none;visibility:visible;display:inline;overflow:visible;enable-background:accumulate"
       d="M 147.94822,168 C 146.98357,160.86314 148.5,154.28956 148.5,147.5"
       id="path4052"
       inkscape:connector-curvature="0" />
    <path
       style="fill:none;stroke:#808080;stroke-width:3.99999951999999980;stroke-linecap:round;stroke-linejoin:round;stroke-opacity:1;color:#000000;stroke-miterlimit:4;stroke-dasharray:none;stroke-dashoffset:0;marker:none;visibility:visible;display:inline;overflow:visible;enable-background:accumulate"
       d="m 331,261.5 c 0.5913,-6.81356 -1.5,-15.08554 -1.5,-20.5"
       id="path4054"
       inkscape:connector-curvature="0" />
    <path
       style="color:#000000;fill:none;stroke:#808080;stroke-width:3.99999952;stroke-linecap:round;stroke-linejoin:round;stroke-miterlimit:4;stroke-opacity:1;stroke-dasharray:none;stroke-dashoffset:0;marker:none;visibility:visible;display:inline;overflow:visible;enable-background:accumulate"
       d="m 212.5,193 c -2.02393,-16.95298 -0.41898,-15.76156 0,-20.5"
       id="path4073"
       inkscape:connector-curvature="0"
       sodipodi:nodetypes="cc" />
  </g>
</svg>
