<?xml version="1.0" encoding="UTF-8" standalone="no"?>
<!-- Created with Inkscape (http://www.inkscape.org/) -->

<svg
   xmlns:dc="http://purl.org/dc/elements/1.1/"
   xmlns:cc="http://creativecommons.org/ns#"
   xmlns:rdf="http://www.w3.org/1999/02/22-rdf-syntax-ns#"
   xmlns:svg="http://www.w3.org/2000/svg"
   xmlns="http://www.w3.org/2000/svg"
   xmlns:sodipodi="http://sodipodi.sourceforge.net/DTD/sodipodi-0.dtd"
   xmlns:inkscape="http://www.inkscape.org/namespaces/inkscape"
   width="480"
   height="320"
   id="svg2"
   version="1.1"
   inkscape:version="0.47 r22583"
   sodipodi:docname="itnas211.svg"
   inkscape:export-xdpi="90"
   inkscape:export-ydpi="90"
   inkscape:export-filename="itnas211.png">
  <defs
     id="defs4" />
  <sodipodi:namedview
     id="base"
     pagecolor="#ffffff"
     bordercolor="#666666"
     borderopacity="1.0"
     inkscape:pageopacity="1"
     inkscape:pageshadow="2"
     inkscape:zoom="1"
     inkscape:cx="254.15285"
     inkscape:cy="125.14322"
     inkscape:document-units="px"
     inkscape:current-layer="layer1"
     showgrid="false"
     inkscape:snap-nodes="true"
     inkscape:snap-global="false"
     inkscape:snap-grids="true"
     showguides="true"
     inkscape:window-width="1280"
     inkscape:window-height="998"
     inkscape:window-x="-4"
     inkscape:window-y="-4"
     inkscape:window-maximized="1"
     inkscape:object-nodes="true">
    <inkscape:grid
       empspacing="5"
       visible="true"
       enabled="true"
       snapvisiblegridlinesonly="true"
       type="xygrid"
       id="grid2816" />
  </sodipodi:namedview>
  <metadata
     id="metadata7">
    <rdf:RDF>
      <cc:Work
         rdf:about="">
        <dc:format>image/svg+xml</dc:format>
        <dc:type
           rdf:resource="http://purl.org/dc/dcmitype/StillImage" />
        <dc:title />
      </cc:Work>
    </rdf:RDF>
  </metadata>
  <g
     inkscape:label="Layer 1"
     inkscape:groupmode="layer"
     id="layer1"
     transform="translate(0,0)">
    <path
       style="color:#000000;fill:none;stroke:#c87137;stroke-width:3.99999928;stroke-linecap:round;stroke-linejoin:round;stroke-miterlimit:4;stroke-opacity:1;stroke-dasharray:none;stroke-dashoffset:0;marker:none;visibility:visible;display:inline;overflow:visible;enable-background:accumulate"
       d="m -290.58106,105.79285 c 1.77546,-9.516023 0.9872,-13.482383 0.119,-22.973843 -1.17612,-12.85576 0.5094,-20.57156 1.87552,-33.3405 2.71494,-25.37616 -0.2035,-38.18116 -0.47392,-57.51794 -0.1356,-9.70074 1.14302,-21.78864 0.9519,-31.63408 -0.26966,-13.8899 -3.04474,-19.9188 -2.45868,-33.8271 0.1946,-14.52908 1.46042,-15.88358 1.40924,-30.201337"
       id="path2832"
       sodipodi:nodetypes="csssscc" />
    <path
       style="color:#000000;fill:none;stroke:#c87137;stroke-width:3.99999976;stroke-linecap:round;stroke-linejoin:round;stroke-miterlimit:4;stroke-opacity:1;stroke-dasharray:none;stroke-dashoffset:0;marker:none;visibility:visible;display:inline;overflow:visible;enable-background:accumulate"
       d="m -363.17013,-97.889733 c 0.72897,7.38286 1.29942,14.7757 2.10573,22.22044 1.05076,9.7021 -2.78774,19.25654 -2.78774,29.0609 0,22.31714 4.73043,48.18234 0.68201,69.54284 -2.14882,11.33766 -1.5473,22.3867 0,32.5861 -0.40882,18.62116 3.09257,29.395 0.187,48.460703"
       id="path2850"
       sodipodi:nodetypes="cssscc" />
    <path
       style="color:#000000;fill:none;stroke:#c87137;stroke-width:3.99999976;stroke-linecap:round;stroke-linejoin:round;stroke-miterlimit:4;stroke-opacity:1;stroke-dasharray:none;stroke-dashoffset:0;marker:none;visibility:visible;display:inline;overflow:visible;enable-background:accumulate"
       d="m 290.29956,148.01474 c -12.15478,-2.30956 -26.43518,-10.87036 -34,-2 -14.92864,9.07882 -15.81982,17.24514 -16,24"
       id="path4395"
       sodipodi:nodetypes="ccc" />
    <path
       style="color:#000000;fill:none;stroke:#c87137;stroke-width:3.99999976;stroke-linecap:round;stroke-linejoin:round;stroke-miterlimit:4;stroke-opacity:1;stroke-dasharray:none;stroke-dashoffset:0;marker:none;visibility:visible;display:inline;overflow:visible;enable-background:accumulate"
       d="m 301.83428,176.9584 -25.17996,13.56352 c -8.06034,12.6937 -0.72644,16.25666 -12.35724,26.23544"
       id="path4397"
       sodipodi:nodetypes="ccc" />
    <path
       sodipodi:nodetypes="cssssc"
       id="path4261"
       d="m 572.83736,60.02226 c -6.44834,7.82614 -10.23766,9.85882 -18.5716,15.54192 -11.28812,7.69746 -16.33932,14.2408 -25.72444,23.92476 -18.65136,19.24518 -31.1541,25.50704 -47.05262,38.29042 -7.97586,6.41318 -16.871,15.56882 -25.00436,22.03458 -11.47448,9.1218 -23.97944,17.88592 -34.85216,27.7084"
       style="color:#000000;fill:none;stroke:#c87137;stroke-width:3.99999905;stroke-linecap:round;stroke-linejoin:round;stroke-miterlimit:4;stroke-opacity:1;stroke-dasharray:none;stroke-dashoffset:0;marker:none;visibility:visible;display:inline;overflow:visible;enable-background:accumulate" />
    <path
       sodipodi:nodetypes="cssscc"
       id="path4263"
       d="m 371.47992,138.26118 c 5.95556,-4.17294 11.81492,-8.47268 17.86696,-12.6264 7.88702,-5.41328 12.46992,-14.4466 19.74628,-20.72366 C 425.65608,90.62302 447.94292,77.65718 461.15062,60.9058 468.1609,52.01454 476.7541,45.39758 485.33464,40.0432 498.8874,27.81076 509.17106,23.57312 521.4224,9.15928"
       style="color:#000000;fill:none;stroke:#c87137;stroke-width:3.99999928;stroke-linecap:round;stroke-linejoin:round;stroke-miterlimit:4;stroke-opacity:1;stroke-dasharray:none;stroke-dashoffset:0;marker:none;visibility:visible;display:inline;overflow:visible;enable-background:accumulate" />
    <path
       style="color:#000000;fill:none;stroke:#c87137;stroke-width:3.99999976;stroke-linecap:round;stroke-linejoin:round;stroke-miterlimit:4;stroke-opacity:1;stroke-dasharray:none;stroke-dashoffset:0;marker:none;visibility:visible;display:inline;overflow:visible;enable-background:accumulate"
       d="m 195.8999,118.92659 c 2.37724,-21.723863 0.95388,-47.938403 3.84448,-75.343763 1.1572,-31.54076 -5.3703,-56.55424 -4.48522,-89.2229 0.96108,-22.85858 -1.08386,-38.13102 5.12598,-54.1946"
       id="path4281"
       sodipodi:nodetypes="cccc" />
    <path
       style="color:#000000;fill:none;stroke:#c87137;stroke-width:3.99999928;stroke-linecap:round;stroke-linejoin:round;stroke-miterlimit:4;stroke-opacity:1;stroke-dasharray:none;stroke-dashoffset:0;marker:none;visibility:visible;display:inline;overflow:visible;enable-background:accumulate"
       d="m 131.18436,-94.692473 c -4.59826,30.00404 1.17414,34.1652 1.28148,58.63892 -1.31992,18.99042 -3.47158,36.96321997 0,52.53068 -2.1358,37.2772 -1.70866,36.19132 -3.84446,50.08742 -1.66538,16.99986 1.04754,29.06256 2.56298,38.481783"
       id="path4277"
       sodipodi:nodetypes="ccccc" />
    <path
       sodipodi:nodetypes="cccc"
       id="path4306"
       d="m -95.72322,-97.265733 c -2.37724,19.8414 -0.95386,43.78438 -3.84448,68.81496 -1.1572,28.80759997 5.3703,51.65356 4.48522,81.49136 -0.96108,20.87778 1.08386,34.82684 -5.12596,49.498483"
       style="color:#000000;fill:none;stroke:#c87137;stroke-width:3.99999928;stroke-linecap:round;stroke-linejoin:round;stroke-miterlimit:4;stroke-opacity:1;stroke-dasharray:none;stroke-dashoffset:0;marker:none;visibility:visible;display:inline;overflow:visible;enable-background:accumulate" />
    <path
       sodipodi:nodetypes="ccccc"
       id="path4308"
       d="m -30.95232,99.908347 c 4.31608,-30.12898 -1.10208,-34.30746 -1.20286,-58.88308 1.23894,-19.0695 3.25856,-37.11712 0,-52.74944 2.00478,-37.43236 1.60382,-36.34198 3.60858,-50.29592 1.56318,-17.0707 -0.98326,-29.18358 -2.40572,-38.642017"
       style="color:#000000;fill:none;stroke:#c87137;stroke-width:3.99999928;stroke-linecap:round;stroke-linejoin:round;stroke-miterlimit:4;stroke-opacity:1;stroke-dasharray:none;stroke-dashoffset:0;marker:none;visibility:visible;display:inline;overflow:visible;enable-background:accumulate" />
    <path
       style="color:#000000;fill:none;stroke:#94f3f3;stroke-width:4;stroke-linecap:round;stroke-linejoin:round;stroke-miterlimit:4;stroke-opacity:1;stroke-dasharray:none;stroke-dashoffset:0;marker:none;visibility:visible;display:inline;overflow:visible;enable-background:accumulate"
       d="m -314.46166,-596.13731 c -18.27173,19.8708 -36.54345,84.73741 -54.81518,135.88452 -21.08111,37.03718 -24.2956,92.07562 -53.29254,146.57208 -7.35086,35.33344 -20.74226,89.225 -46.83798,138.78208 -9.26278,23.16672 -17.5986,26.92776 -32.3395,68.86166 49.70446,9.293197 87.23158,-0.7315 127.90209,7.633977 l 89.83599,-7.633957 120.28884,6.107157 c -11.16606,-16.799557 -22.33212,-40.984657 -33.49816,-96.187917 -35.71884,-93.90668 -20.28902,-74.45632 -25.88494,-103.82188 -11.77242,-32.74484 -14.13652,-71.03674 -25.66958,-108.40225 -12.18116,-21.48166 -35.23616,-83.34861 -47.41732,-131.30417 -2.54492,-14.82598 -5.09726,-37.33804 -18.27172,-56.4913 z"
       id="path4156"
       sodipodi:nodetypes="ccccccccccccc" />
    <path
       sodipodi:nodetypes="cccccscccccccc"
       id="path4265"
       d="m 102.70886,-103.06381 c -0.40596,-35.1692 -32.67052,-105.8277 -48.09506,-154.0583 -7.24432,-46.46958 -32.0662,-74.18174 -43.73646,-139.5839 -13.2914,-25.56609 -32.47402,-67.76574 -43.22304,-126.83845 -6.4931,-23.29691 -4.13118,-37.12637 -16.89714,-76.31699 -12.9404,30.55402 -23.45252,60.52716 -35.9001,86.49264 -28.26132,58.95253 -18.11428,66.95822 -31.71672,98.41553 -23.0669,41.10381 -25.87782,67.84329 -31.00018,92.91477 -15.37796,33.39684 -27.36126,70.8018 -37.61324,110.62112 -4.12516,18.90286 -22.9442,54.78038 -35.71582,106.11668 13.65006,9.862057 30.84662,-1.59704 62.93778,5.03556 42.8175,3.413997 84.92174,0.517937 127.68556,-1.31908 20.25042,-1.2359 57.64142,0.97132 86.75986,3.084217 8.3918,2.44886 28.16706,0.3898 46.51456,-4.563797 z"
       style="color:#000000;fill:none;stroke:#94f3f3;stroke-width:3.99999928;stroke-linecap:round;stroke-linejoin:round;stroke-miterlimit:4;stroke-opacity:1;stroke-dasharray:none;stroke-dashoffset:0;marker:none;visibility:visible;display:inline;overflow:visible;enable-background:accumulate" />
    <path
       style="color:#000000;fill:none;stroke:#94f3f3;stroke-width:4;stroke-linecap:round;stroke-linejoin:round;stroke-miterlimit:4;stroke-opacity:1;stroke-dasharray:none;stroke-dashoffset:0;marker:none;visibility:visible;display:inline;overflow:visible;enable-background:accumulate"
       d="m 192.42238,-597.65209 c -0.43712,0.49108 -0.92446,0.98404 -1.36158,1.52534 -12.46486,29.69306 -23.82588,47.97284 -30.99618,75.06261 -7.62686,28.8146 -21.33744,43.4552 -29.79478,70.40632 -8.78112,23.20028 -12.89658,47.63267 -18.5817,63.98385 -19.63118,45.11214 -25.00228,65.76924 -37.16338,113.6777 -3.83016,25.22136 -11.8272,44.31138 -18.66178,62.85992 -4.07696,18.68208 -22.48186,53.98564 -35.24112,104.36514 42.4047,5.08712 76.33666,-2.11546 112.77162,5.3788 36.0764,-0.68814 75.39614,1.874697 105.24284,-5.05768 34.97416,-0.7231 69.94832,0.83928 104.92246,3.53236 -11.16604,-16.79958 -15.90554,-39.68872 -27.07158,-94.89198 -32.30304,-84.92638 -29.21558,-78.56806 -31.23646,-98.02294 -10.49722,-27.961 -24.97678,-55.18778 -33.07862,-100.59194 -13.29142,-25.56608 -26.01388,-60.06409 -36.76292,-119.13681 -6.43748,-23.09745 -10.58516,-44.66349 -22.98682,-83.09069 z"
       id="path4267"
       sodipodi:nodetypes="ccsccccccccccccc" />
    <path
       style="color:#000000;fill:none;stroke:#94f3f3;stroke-width:4;stroke-linecap:round;stroke-linejoin:round;stroke-miterlimit:4;stroke-opacity:1;stroke-dasharray:none;stroke-dashoffset:0;marker:none;visibility:visible;display:inline;overflow:visible;enable-background:accumulate"
       d="m 931.63982,-287.3996 c -0.85468,0.2732 -1.70914,0.55592 -2.56084,0.8313 -20.73964,0.61922 -58.05668,15.62958 -95.9071,31.0096 -37.45828,12.80602 -74.30678,26.67914 -110.23182,43.473 -25.4479,9.05182 -48.87356,21.1909 -75.25372,27.50216 -42.7914,23.6918 -87.29578,34.10006 -135.50046,54.88374 -23.55772,8.06404 -31.8204,4.2422 -73.1386,20.37782 11.0591,24.32698 27.38478,43.65524 43.80254,64.81658 25.39666,34.75558 55.1191,64.81376 84.44858,96.10576 14.16524,14.57944 36.88072,44.442 54.30972,67.94178 3.63268,7.9719 18.13158,21.66084 33.8627,32.37112 26.30978,-23.23366 40.59006,-71.52208 66.95654,-114.6801 20.77234,-33.74494 30.3546,-44.82342 45.19244,-61.35074 17.0512,-30.2889 44.44964,-57.0006 65.14874,-90.11962 16.25308,-54.3299 40.45894,-82.35066 68.20328,-121.58544 9.54022,-11.5979 24.91018,-28.22092 30.77504,-50.71526 -0.1976,-0.006 -0.4245,0.014 -0.6256,0.01 0.1806,-0.29762 0.33658,-0.5697 0.51862,-0.87138 z"
       id="path4271"
       sodipodi:nodetypes="ccccccccccccccccsc" />
    <path
       style="color:#000000;fill:none;stroke:#c87137;stroke-width:3.99999976;stroke-linecap:round;stroke-linejoin:round;stroke-miterlimit:4;stroke-opacity:1;stroke-dasharray:none;stroke-dashoffset:0;marker:none;visibility:visible;display:inline;overflow:visible;enable-background:accumulate"
       d="m 355.45894,228.10052 c -1.00434,7 -1.81016,14 -8,21 -10.66666,7.6033 -21.33334,11.89818 -32,17"
       id="path4399"
       sodipodi:nodetypes="ccc" />
    <path
       sodipodi:nodetypes="ccc"
       id="path4461"
       d="m 408.6523,233.71744 c -4.7267,6.98802 -1.67442,17.85256 -4.97648,28.3999 -3.34456,9.76534 -10.46192,18.5777 -23.48966,26.36626"
       style="color:#000000;fill:none;stroke:#c87137;stroke-width:3.99999976;stroke-linecap:round;stroke-linejoin:round;stroke-miterlimit:4;stroke-opacity:1;stroke-dasharray:none;stroke-dashoffset:0;marker:none;visibility:visible;display:inline;overflow:visible;enable-background:accumulate" />
    <path
       id="path2949"
       style="color:#000000;fill:none;stroke:#008000;stroke-width:4;stroke-linecap:round;stroke-linejoin:round;stroke-miterlimit:4;stroke-opacity:1;stroke-dasharray:none;stroke-dashoffset:0;marker:none;visibility:visible;display:inline;overflow:visible;enable-background:accumulate"
       d="m 179.52082,224.15332 c 13.53508,2.03623 25.12511,0.37579 36.0222,8.17046 22.20035,23.32019 24.79558,24.75436 46.78954,41.1346 27.61272,23.36358 26.7551,25.34754 61.50084,21.81288 14.47422,-1.3779 55.4253,19.35452 100.04942,13.98002 39.5,-2.25 53.12866,-32.30218 41.6005,-55.62132 -19.33334,-26 -69.64258,-15.736 -111.18376,-27.61522 -19.93724,-12.4897 -44.18366,-32.08644 -50,-50 -6.62876,-10.32658 -10.59108,-24.3196 -19.7575,-42.10852 -4.58224,-24.0502 -13.7329,-43.20994 9.29924,-43.91252 15.41114,9.68148 55.9724,-4.07256 67.2693,21.30038 10.16548,43.14322 24.12238,61.22134 59.58934,78.38704 54.24562,4.18312 80.72284,15.41008 105.50644,11.40476 21.59102,3.88624 46.00416,11.97744 70.8479,10.90324"
       sodipodi:nodetypes="cccccccccccccc" />
    <path
       style="fill:none;stroke:#80ff00;stroke-width:3.99999976;stroke-linecap:round;stroke-linejoin:round;stroke-miterlimit:4;stroke-opacity:1;stroke-dasharray:none"
       d="m 106.9875,71.759095 c -1.34621,3.496854 5.44393,0.69546 3.68159,4.760802 1.61653,5.633781 7.00841,8.604411 8.50957,14.325735 1.79945,3.454703 5.26041,5.562405 6.97211,9.086753 1.92165,3.616265 4.92798,6.216565 7.83547,8.918525 2.40823,2.47851 4.09594,5.53775 6.25061,8.21239 0.32513,3.17973 2.25073,4.80596 2.78892,7.93376 0.66502,3.76835 4.42455,5.7236 4.3379,9.92594 -1.39985,1.02798 -4.83796,-0.48038 -7.04177,-0.45036 -5.99755,-0.83813 -11.99677,-1.673 -17.99105,-2.51863 -3.16555,-1.53165 -7.39225,-1.4736 -9.64509,-4.25815 -2.36783,-1.63092 -5.50434,-2.03197 -8.1932,-3.12057 -3.17929,-0.84894 -6.647725,-2.13194 -9.780511,-3.36164 -3.437677,-0.90652 -6.614872,-2.31785 -10.418582,-2.49779 -2.978559,-0.14742 -6.703382,-0.39173 -4.159231,-4.5642 1.171604,-3.30839 4.700284,-5.54656 5.865261,-8.88051 2.280284,-3.41709 3.516011,-7.171122 7.073621,-10.129474 1.965201,-3.728111 4.965307,-7.373539 6.177339,-11.273004 2.364033,-2.995848 3.994433,-6.504843 5.800013,-9.647106 0.33528,-0.825311 0.71034,-2.507579 1.93681,-2.461917 z"
       id="path2942" />
    <path
       style="color:#000000;fill:none;stroke:#80ff00;stroke-width:3.99999976;stroke-linecap:round;stroke-linejoin:round;stroke-miterlimit:4;stroke-opacity:1;stroke-dasharray:none;stroke-dashoffset:0;marker:none;visibility:visible;display:inline;overflow:visible;enable-background:accumulate"
       d="m -107.2097,78.996983 c -35.59153,-3.093899 -48.07925,1.495778 -84.60881,-10.345226 -18.97303,-6.150238 -28.17888,-10.093281 -51.66603,-18.996692 -27.16851,-10.298973 -33.24058,-16.858184 -61.00892,-11.480911 -22.35846,4.329756 -32.41455,14.562865 -49.21302,21.972487 -14.88279,6.564603 -33.19082,7.655976 -57.70477,12.360804 -17.74008,3.404825 -33.87165,32.975495 -28.92593,44.763775"
       id="path4125-8"
       sodipodi:nodetypes="cssssss" />
    <path
       style="fill:none;stroke:#80ff00;stroke-width:3.99999952;stroke-linecap:round;stroke-linejoin:round;stroke-miterlimit:4;stroke-opacity:1;stroke-dasharray:none"
       d="m 179.80237,245.35936 c -4.28101,-6.1946 -2.15653,-10.82457 -4.60906,-17.26748 -2.86802,-8.535 -0.88088,-9.84906 -4.00238,-20.24213 -0.94477,-7.07926 -0.0395,-11.12021 -2.47176,-16.01133 0.73537,-12.98204 -9.05016,9.26937 -14.81243,17.50311 -6.62553,7.93758 -7.58968,10.64731 -12.18265,18.32981 -3.45715,4.80426 -9.80985,14.65585 -9.48024,16.99169"
       id="path2956-7"
       sodipodi:nodetypes="ccccccc" />
    <path
       style="fill:none;stroke:#80ff00;stroke-width:3.99999952;stroke-linecap:round;stroke-linejoin:round;stroke-miterlimit:4;stroke-opacity:1;stroke-dasharray:none"
       d="m 90.415928,244.24224 c -4.619751,-7.33578 -4.437773,-15.26721 -5.69588,-21.79861 -3.420196,-7.68442 -3.249509,-8.15192 -5.639,-16.41931 -3.348383,-10.39469 -7.569603,-13.57673 -11.689924,-21.91294 -3.28256,7.6156 -6.917246,16.10918 -12.878523,22.05381 -9.080117,10.38145 -5.620346,10.35711 -13.314468,20.06224 -0.79165,3.61545 -3.166966,7.74492 -5.375635,15.35459"
       id="path2958-6"
       sodipodi:nodetypes="ccccccc" />
    <path
       style="color:#000000;fill:none;stroke:#80ff00;stroke-width:4;stroke-linecap:round;stroke-linejoin:round;stroke-miterlimit:4;stroke-opacity:1;stroke-dasharray:none;stroke-dashoffset:0;marker:none;visibility:visible;display:inline;overflow:visible;enable-background:accumulate"
       d="m 197.6123,191.55366 c -5.40731,-1.88879 -9.92431,-4.20683 -15.79028,-4.56415 -6.08786,-0.37011 -12.17767,1.44871 -18.25105,0.4483 -6.4167,-1.05696 -14.65524,-4.57731 -22.18217,-5.2457 -9.43624,-0.83794 -19.08127,-1.07253 -28.57345,-2.50928 -11.57396,-1.75185 -22.234556,2.89031 -34.584465,2.49456 -6.031887,-0.19329 -11.086083,0.27512 -18.944137,0.53583 -5.62729,0.1867 -9.442162,2.06351 -17.37951,-1.69263"
       id="path2833"
       sodipodi:nodetypes="csssssss" />
    <path
       style="color:#000000;fill:none;stroke:#80ff00;stroke-width:4;stroke-linecap:round;stroke-linejoin:round;stroke-miterlimit:4;stroke-opacity:1;stroke-dasharray:none;stroke-dashoffset:0;marker:none;visibility:visible;display:inline;overflow:visible;enable-background:accumulate"
       d="m -220.8088,230.07163 c 13.99383,-10.94402 39.04654,-3.42164 87.9999,-14.68876 17.84142,-4.10639 34.76632,-26.43611 54.932926,-29.13633 26.137487,-3.49969 41.829397,-9.48174 58.972366,-5.08954 16.0743471,4.11841 18.4744737,2.85447 32.744595,-1.73049 5.682234,-1.82568 17.473639,-1.49786 28.066221,1.61829"
       id="path4125"
       sodipodi:nodetypes="csssss" />
    <path
       style="color:#000000;fill:none;stroke:#80ff00;stroke-width:3.99999976;stroke-linecap:round;stroke-linejoin:round;stroke-miterlimit:4;stroke-opacity:1;stroke-dasharray:none;stroke-dashoffset:0;marker:none;visibility:visible;display:inline;overflow:visible;enable-background:accumulate"
       d="m 204.91832,215.75472 c 3.55757,-1.21908 7.21329,-0.7509 10.90848,-1.14103 4.09857,-0.4328 8.19724,-0.95738 12.25104,-1.69746 4.98066,-0.90928 9.35709,-1.45019 16.45253,0.45901 2.93394,0.78943 6.39934,0.32359 9.0258,-1.13196 3.26226,-1.80791 12.26339,-0.10169 13.06761,-2.56153 0.74759,-2.28672 -3.80478,-5.68792 -6.55642,-7.66126 -7.87014,-5.64403 -10.66806,-6.48931 -17.06741,-11.03205 -4.07591,-2.89339 -6.81533,-6.10107 -10.6325,-9.22304 -4.18596,-3.42378 -8.37393,-7.32757 -12.51558,-10.80767 -2.60601,-2.18988 -5.7665,-3.38665 -8.45918,-5.36242 -4.02444,-2.95281 -3.32401,3.01911 -3.81894,5.0986 -0.916,3.84883 -2.54802,7.46375 -3.67252,11.24592 -0.97192,3.26879 -3.40241,5.96175 -4.12524,9.41491 -0.78143,3.73321 -1.53908,7.60208 -3.18352,11.03223 -1.57438,3.28402 -3.39103,6.51974 -5.40016,9.62311 -0.98719,1.52477 -3.0795,2.67095 -1.84756,3.1263 6.42018,0.91442 9.16715,0.23997 15.57357,0.61834 z"
       id="path2870"
       sodipodi:nodetypes="cssssssssssssssscc" />
    <path
       style="fill:none;stroke:#80ff00;stroke-width:3.99999976;stroke-linecap:round;stroke-linejoin:round;stroke-miterlimit:4;stroke-opacity:1;stroke-dasharray:none"
       d="m -138.51247,142.0651 c 0.74533,-1.34793 4.75025,-8.58994 6.73483,-12.17841 6.37965,-11.23061 15.15021,-13.06944 25.94002,-25.75211 4.9071,-7.918472 19.122122,-21.600645 22.503132,-25.415372 1.228474,10.081824 2.846187,19.881138 5.169743,29.518052 4.726575,13.683 13.054395,28.49813 15.467629,45.69584"
       id="path2958-1"
       sodipodi:nodetypes="cccccc" />
    <path
       style="color:#000000;fill:none;stroke:#80ff00;stroke-width:4;stroke-linecap:round;stroke-linejoin:round;stroke-miterlimit:4;stroke-opacity:1;stroke-dasharray:none;stroke-dashoffset:0;marker:none;visibility:visible;display:inline;overflow:visible;enable-background:accumulate"
       d="M 89.963937,95.823124 C 83.525794,93.2156 78.276239,90.118015 70.998193,89.390371 63.44473,88.636057 55.830464,88.958385 48.08276,89.063887 39.549095,89.179983 28.472817,88.154739 18.988974,88.010622 7.1427139,87.830619 -3.7905425,89.757978 -15.800273,89.271031 -30.443948,88.677519 -45.05554,84.832545 -59.669684,82.301162 -67.01849,81.02829 -74.12191,79.080097 -81.628074,78.437654 -87.41822,77.942512 -100.19328,77.75963 -104.62827,79.463427"
       id="path2833-4"
       sodipodi:nodetypes="csssssss" />
    <path
       style="fill:none;stroke:#80ff00;stroke-width:3.99999928;stroke-linecap:round;stroke-linejoin:round;stroke-miterlimit:4;stroke-opacity:1;stroke-dasharray:none"
       d="m 56.623689,163.03311 c -0.275293,-1.46802 -0.147566,-9.35969 -0.880349,-13.26812 -2.207171,-12.26915 0.516109,-16.88572 -3.302863,-32.85201 0.0605,-12.25259 0.605165,-17.68826 1.515564,-27.390441 5.484877,9.540334 11.376574,17.808221 16.301157,28.755151 12.32245,11.83083 10.792336,13.40617 20.504715,29.71863 4.138405,3.91314 6.081924,8.1219 12.368427,13.43835"
       id="path2958-6-2"
       sodipodi:nodetypes="ccccccc"
       inkscape:transform-center-x="-23.413911"
       inkscape:transform-center-y="34.735366" />
    <path
       style="color:#000000;fill:none;stroke:#ff0000;stroke-width:4;stroke-linecap:round;stroke-linejoin:round;stroke-miterlimit:4;stroke-opacity:1;stroke-dasharray:none;stroke-dashoffset:0;marker:none;visibility:visible;display:inline;overflow:visible;enable-background:accumulate"
       d="m 266.82483,223.64204 c 1.33464,2.52964 4.25826,4.30019 6.48621,8.78559 2.34703,2.16705 9.33558,9.77581 9.42092,11.19034 0.0925,1.53214 -16.56731,-3.24602 -18.15654,-3.64513 -2.30388,-0.57859 4.90018,4.01646 6.82006,5.32335 4.38445,3.26327 9.3532,3.12963 11.0628,6.9482 2.22979,-2.50877 5.05298,-4.62113 6.61686,-7.57471 2.33025,-3.77183 3.8593,-4.7241 5.58369,-6.39202 2.68087,-4.30717 4.01862,-4.72833 5.91815,-6.77485 -4.51033,-0.92135 -8.89917,-1.72143 -13.77065,-3.20713 -1.68851,0.14783 -4.35271,-0.2763 -9.66054,-2.24993 -1.66169,-0.57028 -6.722,-1.67841 -10.32096,-2.40371 z"
       id="path5756"
       sodipodi:nodetypes="ccsscccccccc" />
    <path
       style="color:#000000;fill:none;stroke:#ff0000;stroke-width:4;stroke-linecap:round;stroke-linejoin:round;stroke-miterlimit:4;stroke-opacity:1;stroke-dasharray:none;stroke-dashoffset:0;marker:none;visibility:visible;display:inline;overflow:visible;enable-background:accumulate"
       d="m 290.77874,244.06662 c 3.10756,2.87576 5.60455,3.80335 8.48257,4.84362 7.41605,0.89919 21.40104,-2.34484 29.3166,-1.9841 18.62149,3.38305 26.69977,9.38317 42.18175,11.65282 12.91869,-0.45778 13.16026,-3.37811 19.55959,-9.37467 4.80432,-9.20087 4.85346,-14.1518 18.04687,-11.37481"
       id="path5758"
       sodipodi:nodetypes="cccccc" />
    <path
       style="color:#000000;fill:none;stroke:#ff0000;stroke-width:4;stroke-linecap:round;stroke-linejoin:round;stroke-miterlimit:4;stroke-opacity:1;stroke-dasharray:none;stroke-dashoffset:0;marker:none;visibility:visible;display:inline;overflow:visible;enable-background:accumulate"
       d="m 276.13693,280.25026 c 3.94572,-2.71282 8.45267,-7.31907 10.49634,-12.18412 2.52744,-6.0167 8.50571,-11.51911 12.6017,-18.44087 -0.12668,9.0714 -0.56365,14.26598 -2.25483,27.34907 -2.31321,9.48319 -0.74973,10.91676 -1.29024,15.64967"
       id="path5760"
       sodipodi:nodetypes="csccc" />
    <path
       style="color:#000000;fill:none;stroke:#ff0000;stroke-width:4;stroke-linecap:round;stroke-linejoin:round;stroke-miterlimit:4;stroke-opacity:1;stroke-dasharray:none;stroke-dashoffset:0;marker:none;visibility:visible;display:inline;overflow:visible;enable-background:accumulate"
       d="m 338.81705,293.82091 c 3.38991,-4.46738 0.35026,-4.02418 7.30939,-13.82232 4.54647,-2.0715 9.16976,-13.07384 14.79557,-22.77401 0.95242,9.03986 2.14062,16.57274 0.4934,26.3533 0.88316,9.44247 -0.099,12.89541 -0.11058,16.1293"
       id="path5762"
       sodipodi:nodetypes="ccccc" />
    <path
       sodipodi:nodetypes="cccccccccc"
       id="path5785"
       d="m 374.31066,299.56966 c 1.82793,0.46108 3.21124,-0.25528 6.44291,1.52456 1.9399,1.1928 4.32044,1.3559 6.56587,1.5537 3.44522,0.87147 5.40082,1.28881 7.89378,1.86789 -0.2782,-2.20733 -0.10402,-4.53163 -0.88988,-6.6077 -0.8597,-2.81522 -0.67046,-3.98928 -0.75093,-5.57595 -0.97311,-3.22458 -0.60376,-4.06965 -0.7959,-5.90996 -2.40375,1.81399 -4.69498,3.62177 -7.53395,5.36407 -0.6561,0.89693 -2.01653,2.02153 -5.28528,3.76309 -0.99976,0.56628 -3.73346,2.56852 -5.6466,4.02031 z"
       style="color:#000000;fill:none;stroke:#ff0000;stroke-width:4;stroke-linecap:round;stroke-linejoin:round;stroke-miterlimit:4;stroke-opacity:1;stroke-dasharray:none;stroke-dashoffset:0;marker:none;visibility:visible;display:inline;overflow:visible;enable-background:accumulate" />
    <path
       style="fill:none;stroke:#000000;stroke-width:4;stroke-linecap:round;stroke-linejoin:round;stroke-opacity:1;stroke-miterlimit:4;stroke-dasharray:none"
       d="m 463.53194,277.77605 c -2.32274,9.17197 -11.41205,18.0589 -18.071,21.4104 -6.56304,1.91976 -9.22081,0.3088 -15.56479,0.54816 -6.19087,-2.32826 -4.99473,-14.34875 -4.66273,-19.76603 0.72809,-7.27704 4.84692,-8.47932 8.7954,-14.04342 3.52994,-4.71766 8.9961,-10.50069 14.88882,-6.28747 3.52017,6.68091 14.96143,8.73952 14.6143,18.13836 z"
       id="path5861"
       sodipodi:nodetypes="ccccccc" />
    <path
       sodipodi:nodetypes="cccccc"
       id="path5787"
       d="m 397.08461,295.10819 c 2.11658,-0.0431 3.21237,-1.35784 4.73435,-1.19992 3.70706,-0.45747 8.98001,1.0676 14.41189,0.76059 9.74726,0.15157 12.58054,-1.0706 19.9036,-3.82443 7.34853,-1.09718 14.27935,-3.07839 15.01372,-1.21694 3.24232,5.09191 -3.63046,9.57022 -12.17735,11.48487"
       style="color:#000000;fill:none;stroke:#ff0000;stroke-width:4;stroke-linecap:round;stroke-linejoin:round;stroke-miterlimit:4;stroke-opacity:1;stroke-dasharray:none;stroke-dashoffset:0;marker:none;visibility:visible;display:inline;overflow:visible;enable-background:accumulate" />
    <path
       sodipodi:nodetypes="ccccc"
       id="path5789"
       d="m 385.13262,285.92217 c 1.905,-2.35243 9.7838,-5.86455 10.38362,-3.66414 1.50936,2.96882 5.28675,7.57699 6.66462,11.82924 -3.41719,3.51028 -3.53149,6.13905 -7.08523,5.05641 -3.2939,-0.82825 -7.68618,-1.1274 -11.04126,-2.22278"
       style="color:#000000;fill:none;stroke:#ff0000;stroke-width:4;stroke-linecap:round;stroke-linejoin:round;stroke-miterlimit:4;stroke-opacity:1;stroke-dasharray:none;stroke-dashoffset:0;marker:none;visibility:visible;display:inline;overflow:visible;enable-background:accumulate" />
    <path
       sodipodi:nodetypes="ccccc"
       id="path5791"
       d="m 412.52575,301.16258 c 3.35836,-0.34086 6.99916,-0.14792 12.75014,-1.72489 4.06687,-0.48847 1.76801,-2.03567 6.18103,-6.33946 6.01267,11.30861 0.5074,11.29506 -3.98245,11.33673 -3.96733,0.62096 -8.03965,1.15442 -11.20229,1.26951"
       style="color:#000000;fill:none;stroke:#ff0000;stroke-width:4;stroke-linecap:round;stroke-linejoin:round;stroke-miterlimit:4;stroke-opacity:1;stroke-dasharray:none;stroke-dashoffset:0;marker:none;visibility:visible;display:inline;overflow:visible;enable-background:accumulate" />
    <path
       sodipodi:nodetypes="ccc"
       id="path4257"
       d="m 244.68067,213.46683 c 11.74478,2.92609 20.70471,6.49085 23.31658,7.51395 4.64501,4.63624 4.31716,5.4396 8.7712,6.96605"
       style="color:#000000;fill:none;stroke:#80ff00;stroke-width:3.99999976;stroke-linecap:round;stroke-linejoin:round;stroke-miterlimit:4;stroke-opacity:1;stroke-dasharray:none;stroke-dashoffset:0;marker:none;visibility:visible;display:inline;overflow:visible;enable-background:accumulate" />
    <path
       style="color:#000000;fill:none;stroke:#80ff00;stroke-width:3.99999976;stroke-linecap:round;stroke-linejoin:round;stroke-miterlimit:4;stroke-opacity:1;stroke-dasharray:none;stroke-dashoffset:0;marker:none;visibility:visible;display:inline;overflow:visible;enable-background:accumulate"
       d="m 245.84825,213.47488 c 11.24579,2.99625 19.53713,6.4828 22.149,7.5059 6.73175,-2.01385 6.70243,0.13317 11.84923,-1.76487"
       id="path4234"
       sodipodi:nodetypes="ccc" />
  </g>
</svg>
