<?xml version="1.0" encoding="UTF-8" standalone="no"?>
<!-- Created with Inkscape (http://www.inkscape.org/) -->

<svg
   xmlns:dc="http://purl.org/dc/elements/1.1/"
   xmlns:cc="http://creativecommons.org/ns#"
   xmlns:rdf="http://www.w3.org/1999/02/22-rdf-syntax-ns#"
   xmlns:svg="http://www.w3.org/2000/svg"
   xmlns="http://www.w3.org/2000/svg"
   xmlns:sodipodi="http://sodipodi.sourceforge.net/DTD/sodipodi-0.dtd"
   xmlns:inkscape="http://www.inkscape.org/namespaces/inkscape"
   inkscape:export-ydpi="90"
   inkscape:export-xdpi="90"
   sodipodi:docname="itnas047.svg"
   inkscape:version="0.47 r22583"
   version="1.1"
   id="svg2"
   height="320"
   width="480"
   inkscape:export-filename="itnas047.png">
  <defs
     id="defs4" />
  <sodipodi:namedview
     id="base"
     pagecolor="#ffffff"
     bordercolor="#666666"
     borderopacity="1.0"
     inkscape:pageopacity="1"
     inkscape:pageshadow="2"
     inkscape:zoom="1"
     inkscape:cx="247.90422"
     inkscape:cy="160.9431"
     inkscape:document-units="px"
     inkscape:current-layer="layer1"
     showgrid="false"
     inkscape:snap-nodes="true"
     inkscape:snap-global="false"
     inkscape:snap-grids="true"
     showguides="true"
     inkscape:window-width="1280"
     inkscape:window-height="774"
     inkscape:window-x="-4"
     inkscape:window-y="-4"
     inkscape:window-maximized="1">
    <inkscape:grid
       empspacing="5"
       visible="true"
       enabled="true"
       snapvisiblegridlinesonly="true"
       type="xygrid"
       id="grid2816" />
  </sodipodi:namedview>
  <metadata
     id="metadata7">
    <rdf:RDF>
      <cc:Work
         rdf:about="">
        <dc:format>image/svg+xml</dc:format>
        <dc:type
           rdf:resource="http://purl.org/dc/dcmitype/StillImage" />
        <dc:title />
      </cc:Work>
    </rdf:RDF>
  </metadata>
  <g
     inkscape:label="Layer 1"
     inkscape:groupmode="layer"
     id="layer1"
     transform="translate(0,0)">
    <path
       style="fill:none;stroke:#0000ff;stroke-width:4;stroke-linecap:round;stroke-linejoin:round;stroke-miterlimit:4;stroke-opacity:1;stroke-dasharray:none"
       d="m 414.67168,176.2706 c -2.35181,0.14162 -3.14301,2.17366 -3.96967,3.43175 -1.83205,1.7184 -1.1944,2.37844 -2.83548,4.57567 -0.0915,1.96543 -1.20204,3.51135 -0.85064,5.65915 -0.32593,3.14061 2.22671,5.79145 4.39754,7.65646 1.79957,1.07623 3.45678,2.30102 5.65694,2.12729 1.55362,-0.12315 3.30503,0.27474 4.7017,-0.26188 1.6701,-1.89219 5.1419,-2.62221 6.13586,-4.29682 0.11705,-1.85498 0.0838,-3.69871 0.37405,-5.49942 -2.6e-4,-2.74819 3.8e-4,-5.49639 0,-8.24457 -1.05158,-0.99004 -1.5614,-2.54402 -2.75886,-2.8598 -0.66131,-0.67695 -2.30214,-0.3764 -3.18237,-0.87651 -2.27219,-0.95488 -5.04281,-0.70259 -7.66907,-1.41132 z"
       id="path2905" />
    <path
       style="fill:none;stroke:#0000ff;stroke-width:4;stroke-linecap:round;stroke-linejoin:round;stroke-miterlimit:4;stroke-opacity:1;stroke-dasharray:none"
       d="m 416.94006,201.72278 c 0.46165,2.49649 -1.45382,5.50167 -0.74552,6.47042 -1.00868,3.74372 -1.31177,7.67779 -2.36888,11.40463 -1.1105,3.17153 -0.95164,6.51302 -1.42236,9.57898 0,1.52523 0,3.05045 0,4.57568"
       id="path2907" />
    <path
       id="path2909"
       style="fill:none;stroke:#0000ff;stroke-width:4;stroke-linecap:round;stroke-linejoin:round;stroke-miterlimit:4;stroke-opacity:1;stroke-dasharray:none"
       d="m 413.25394,235.46836 c 1.11785,1.86838 3.40382,6.09601 5.10386,8.9229 1.57732,4.09528 4.56825,6.64374 6.28736,10.57038 2.14561,2.47373 3.62978,5.2055 5.3381,8.30498 1.31556,1.70825 1.45755,6.08637 2.38847,6.54804 0.20385,0.19449 0.86642,2.44625 0.16346,1.34529 M 412.4033,233.75249 c -1.97364,2.65674 -4.18914,5.22974 -5.41717,8.33399 -2.14095,3.17804 -3.24463,6.99264 -5.6412,9.9687 -0.33732,3.74932 -3.46307,6.39023 -4.25322,10.00928 -0.95663,2.56083 -2.23668,4.37595 -2.83548,7.14949 -0.63283,0.95925 -0.14002,2.01237 -0.28354,-0.57196" />
    <path
       style="fill:none;stroke:#0000ff;stroke-width:4;stroke-linecap:round;stroke-linejoin:round;stroke-miterlimit:4;stroke-opacity:1;stroke-dasharray:none"
       d="m 401.34493,220.88341 c 2.87631,-2.54668 5.74088,-5.16178 8.50644,-7.72145 2.53649,-1.64227 3.85271,-4.86404 5.34822,-6.9358 1.00688,-0.61488 0.14703,-5.07131 2.41263,-2.89552 1.49735,2.56449 2.6965,4.93254 3.86461,6.68554 1.92917,2.90115 3.34739,6.14092 6.10803,8.44826 1.47333,1.35987 2.63868,2.5114 3.97752,4.01162 0.55785,0.85438 1.87707,1.21443 2.107,2.12508"
       id="path2911" />
    <path
       style="fill:none;stroke:#80ff00;stroke-width:3.99999976;stroke-linecap:round;stroke-linejoin:round;stroke-miterlimit:4;stroke-opacity:1;stroke-dasharray:none"
       d="m 293.87248,222.94407 c 0.86077,1.66406 2.06697,-1.80487 3.00227,0.20326 2.64333,1.26526 5.54378,0.23486 8.18152,1.57225 1.88921,0.47367 3.82605,-0.12107 5.71211,0.40853 1.99013,0.48154 3.96032,0.22027 5.93574,0.0297 1.72611,-0.078 3.43032,0.30618 5.14569,0.38809 1.29703,0.93367 2.54426,0.75328 3.89257,1.59013 1.62996,1.00192 3.60886,0.24498 5.15161,1.67207 -0.0802,0.86467 -1.78526,1.64976 -2.50543,2.48391 -2.30402,1.96469 -4.60723,3.93115 -6.91296,5.89217 -1.62334,0.67556 -3.00443,2.27538 -4.79358,2.19341 -1.39576,0.3442 -2.58669,1.38412 -3.88619,2.02827 -1.37269,0.90722 -3.00358,1.77844 -4.50316,2.54187 -1.4799,0.98478 -3.06226,1.70453 -4.39191,3.06725 -1.04369,1.06498 -2.37129,2.37691 -3.08729,0.0407 -0.84832,-1.53615 -0.51422,-3.59867 -1.37436,-5.14075 -0.52111,-1.98682 -1.51489,-3.69494 -1.44049,-6.0072 -0.74194,-1.97221 -1.10952,-4.304 -2.16549,-6.0515 -0.33576,-1.87827 -1.10689,-3.6526 -1.68272,-5.37069 -0.19616,-0.3999 -0.70202,-1.09794 -0.27791,-1.5414 z"
       id="path2942"
       inkscape:transform-center-x="-15.475274"
       inkscape:transform-center-y="-0.77705521" />
    <path
       style="fill:none;stroke:#80ff00;stroke-width:3.99999976;stroke-linecap:round;stroke-linejoin:round;stroke-miterlimit:4;stroke-opacity:1;stroke-dasharray:none"
       d="m 297.33252,236.13836 c -6.26547,0.19599 -11.21306,-1.08023 -17.2599,-1.6056 -12.41423,0.11263 -22.21693,1.50453 -34.51981,0.32112 -7.68757,1.05876 -17.69755,-0.83775 -24.72068,-0.50913 -6.44379,0.18561 -17.44245,-0.73073 -23.42536,0.8784"
       id="path2952" />
    <path
       style="fill:none;stroke:#80ff00;stroke-width:3.99999976;stroke-linecap:round;stroke-linejoin:round;stroke-miterlimit:4;stroke-opacity:1;stroke-dasharray:none"
       d="m 261.9043,270.2402 c 0.30471,-4.27859 0.2264,-8.65695 2.51947,-12.64734 2.20447,-5.05365 4.05528,-10.26897 7.0189,-15.15498 1.2781,-3.2837 3.01658,-11.68492 5.38452,-5.26779 3.69438,4.24159 6.65608,8.6497 8.45988,13.54812 2.37626,4.94451 5.47675,10.37332 6.59495,15.14858 -0.66689,1.44874 1.31701,2.30322 0.90842,3.74863"
       id="path2956" />
    <path
       style="fill:none;stroke:#80ff00;stroke-width:3.99999976;stroke-linecap:round;stroke-linejoin:round;stroke-miterlimit:4;stroke-opacity:1;stroke-dasharray:none"
       d="m 185.75084,272.04765 c 0.21165,-0.74049 1.34879,-4.71892 1.91228,-6.6904 1.84565,-6.18868 5.912,-8.07046 9.74311,-15.46234 1.50051,-4.40956 6.88807,-12.67343 8.10644,-14.91202 1.67184,4.81753 3.12306,9.72925 4.84886,14.51977 2.08369,7.44681 5.64981,14.11262 12.22495,19.21004 0.95668,0.53556 3.25075,1.00973 1.98386,2.59385"
       id="path2958" />
    <path
       style="color:#000000;fill:none;stroke:#80ff00;stroke-width:4;stroke-linecap:butt;stroke-linejoin:miter;stroke-miterlimit:4;stroke-opacity:1;stroke-dasharray:none;stroke-dashoffset:0;marker:none;visibility:visible;display:inline;overflow:visible;enable-background:accumulate"
       d="m 41.183384,253.58481 c 13.512267,-9.65986 39.302586,-17.06682 51.366245,-1.99187 6.362914,7.95121 12.032431,17.68967 24.115861,14.59954 15.83146,-4.04864 33.62251,-8.51221 46.80002,-15.21508 10.12384,-5.14959 9.292,-5.67902 16.02647,-12.19081 0.54907,-0.53091 10.17251,-3.91941 17.06623,-3.60462"
       id="path4125"
       sodipodi:nodetypes="csssss"
       inkscape:transform-center-x="77.351337"
       inkscape:transform-center-y="15.979049" />
    <path
       style="fill:none;stroke:#008000;stroke-width:4;stroke-linecap:butt;stroke-linejoin:miter;stroke-opacity:1;stroke-miterlimit:4;stroke-dasharray:none"
       d="m -16.970563,274.74517 c 32.144815,-5.70476 65.033983,-1.49052 97.507837,-2.83766 28.752326,-0.18161 57.600666,-0.80843 86.055266,3.81628 48.72352,2.57064 97.57209,0.38302 146.34828,1.14275 30.02432,-0.0625 60.05363,0.63287 89.97594,-1.54819 21.38344,-0.89459 43.57746,3.06322 64.37741,-3.18896 11.14672,-1.68394 21.84356,-7.38227 33.33743,-6.57661"
       id="path4190" />
    <g
       id="g4230"
       transform="translate(-11.313709,-9.8994949)">
      <path
         sodipodi:nodetypes="csssssscc"
         id="path4202"
         d="m 38.671573,25.944544 c -5.430479,7.450879 -9.310018,7.388925 -14.729121,14.724258 -7.115345,9.631376 -1.570906,23.289283 5.079989,31.916876 7.192509,9.330178 20.752507,5.816368 30.547182,5.260564 8.004509,-0.45422 10.902131,-6.975949 16.295781,-6.648434 6.003807,0.364567 6.973067,-11.28078 7.082161,-19.052076 C 83.067723,43.58623 84.88679,32.72173 76.184121,27.314266 68.375262,22.462176 60.371218,17.763541 50.784197,17.639118 46.123264,18.55518 37.505395,20.182367 38.671573,25.944544 z"
         style="fill:none;stroke:#ffff00;stroke-width:4;stroke-linecap:butt;stroke-linejoin:miter;stroke-miterlimit:4;stroke-opacity:1;stroke-dasharray:none" />
      <path
         id="path4215"
         d="M 31,81 C 28.148613,84.553942 24.105327,87.346267 24.536612,92.015165 21.832544,96.043458 21.188425,100.66969 20,105 c -1.284479,-0.52275 -1.919186,3.77422 -2,5"
         style="fill:none;stroke:#ffff00;stroke-width:4;stroke-linecap:butt;stroke-linejoin:miter;stroke-miterlimit:4;stroke-opacity:1;stroke-dasharray:none" />
      <path
         id="path4217"
         d="m 53.280734,83.999998 c 4.109561,4.16047 0.225882,10.218352 3.166602,14.792056 1.215413,5.697486 7.524659,9.190686 6.531011,15.084746 L 62.937021,115"
         style="fill:none;stroke:#ffff00;stroke-width:4;stroke-linecap:butt;stroke-linejoin:miter;stroke-miterlimit:4;stroke-opacity:1;stroke-dasharray:none" />
      <path
         id="path4219"
         d="m 76,78 c 3.400595,3.924314 5.608335,9.266142 10.25064,12 2.62092,4.847886 4.316418,10.49689 8.888485,13.99058 2.816275,3.7582 6.029785,7.79196 9.904355,10.00942"
         style="fill:none;stroke:#ffff00;stroke-width:4;stroke-linecap:butt;stroke-linejoin:miter;stroke-miterlimit:4;stroke-opacity:1;stroke-dasharray:none" />
      <path
         id="path4221"
         d="m 90,56.987967 c 14.33334,0.01397 28.66662,0.07609 43,0.05204"
         style="fill:none;stroke:#ffff00;stroke-width:4;stroke-linecap:butt;stroke-linejoin:miter;stroke-miterlimit:4;stroke-opacity:1;stroke-dasharray:none" />
      <path
         id="path4223"
         d="m 86.000002,33 c 5.268561,-0.876096 9.823061,-4.205192 14.951108,-4.876265 4.62153,1.300794 7.8844,-3.002146 12.17425,-3.773924 C 115.24759,22.885947 120.60982,23.2369 120.85644,21"
         style="fill:none;stroke:#ffff00;stroke-width:4;stroke-linecap:butt;stroke-linejoin:miter;stroke-miterlimit:4;stroke-opacity:1;stroke-dasharray:none" />
    </g>
  </g>
</svg>
