<?xml version="1.0" encoding="UTF-8" standalone="no"?>
<!-- Created with Inkscape (http://www.inkscape.org/) -->

<svg
   xmlns:dc="http://purl.org/dc/elements/1.1/"
   xmlns:cc="http://creativecommons.org/ns#"
   xmlns:rdf="http://www.w3.org/1999/02/22-rdf-syntax-ns#"
   xmlns:svg="http://www.w3.org/2000/svg"
   xmlns="http://www.w3.org/2000/svg"
   xmlns:sodipodi="http://sodipodi.sourceforge.net/DTD/sodipodi-0.dtd"
   xmlns:inkscape="http://www.inkscape.org/namespaces/inkscape"
   width="480"
   height="320"
   id="svg2"
   version="1.1"
   inkscape:version="0.48.0 r9654"
   sodipodi:docname="itnas287.svg"
   inkscape:export-xdpi="90"
   inkscape:export-ydpi="90"
   inkscape:export-filename="itnas287.png">
  <defs
     id="defs4">
    <inkscape:perspective
       sodipodi:type="inkscape:persp3d"
       inkscape:vp_x="0 : 160 : 1"
       inkscape:vp_y="0 : 1000 : 0"
       inkscape:vp_z="480 : 160 : 1"
       inkscape:persp3d-origin="240 : 106.66667 : 1"
       id="perspective8" />
  </defs>
  <sodipodi:namedview
     id="base"
     pagecolor="#ffffff"
     bordercolor="#666666"
     borderopacity="1.0"
     inkscape:pageopacity="1"
     inkscape:pageshadow="2"
     inkscape:zoom="2"
     inkscape:cx="232.88665"
     inkscape:cy="167.86984"
     inkscape:document-units="px"
     inkscape:current-layer="layer1"
     showgrid="false"
     inkscape:snap-nodes="true"
     inkscape:snap-global="false"
     inkscape:snap-grids="true"
     showguides="true"
     inkscape:window-width="1280"
     inkscape:window-height="998"
     inkscape:window-x="1276"
     inkscape:window-y="-4"
     inkscape:window-maximized="1"
     inkscape:object-nodes="true">
    <inkscape:grid
       empspacing="5"
       visible="true"
       enabled="true"
       snapvisiblegridlinesonly="true"
       type="xygrid"
       id="grid2816" />
  </sodipodi:namedview>
  <metadata
     id="metadata7">
    <rdf:RDF>
      <cc:Work
         rdf:about="">
        <dc:format>image/svg+xml</dc:format>
        <dc:type
           rdf:resource="http://purl.org/dc/dcmitype/StillImage" />
        <dc:title></dc:title>
      </cc:Work>
    </rdf:RDF>
  </metadata>
  <g
     inkscape:label="Layer 1"
     inkscape:groupmode="layer"
     id="layer1"
     transform="translate(0,0)">
    <path
       style="color:#000000;fill:none;stroke:#0000ff;stroke-width:4;stroke-linecap:round;stroke-linejoin:round;stroke-miterlimit:4;stroke-opacity:1;stroke-dasharray:none;stroke-dashoffset:0;marker:none;visibility:visible;display:inline;overflow:visible;enable-background:accumulate"
       d="m 358.98822,282.84437 c 4.02343,-1.32674 11.26922,-2.5417 17.01932,-1.42114 15.78979,3.07705 38.53594,3.80523 53.97501,2.31841 7.30718,-0.7037 14.43518,-1.4538 22.01892,-1.35795 18.74035,0.23685 44.65353,2.83171 61.0227,-1.4104"
       id="path3053"
       inkscape:connector-curvature="0"
       sodipodi:nodetypes="csssc" />
    <path
       inkscape:connector-curvature="0"
       style="fill:none;stroke:#80ff00;stroke-width:3.99999976;stroke-linecap:round;stroke-linejoin:round;stroke-miterlimit:4;stroke-opacity:1;stroke-dasharray:none"
       d="m 214.8429,154.42821 c -2.42209,2.85899 -3.22264,-4.44237 -5.9435,-0.94563 -5.71849,1.28506 -10.91202,-2.02011 -16.65197,-0.59184 -3.89444,0.079 -7.40439,-1.94614 -11.31782,-1.7568 -4.09484,0.0493 -7.81877,-1.34062 -11.58451,-2.59501 -3.33008,-0.92356 -6.82397,-0.93635 -10.20449,-1.54334 -2.94576,1.24052 -5.29652,0.33139 -8.29897,1.36007 -3.6253,1.22472 -7.14469,-1.13545 -10.79008,0.95699 -0.23018,1.72144 2.74292,4.01414 3.77408,5.96205 3.61322,4.85979 7.22427,9.72269 10.84255,14.576 2.86279,2.04235 4.84,5.77853 8.36404,6.41891 2.56708,1.29486 4.42406,3.85416 6.66929,5.69099 2.27037,2.38197 5.06034,4.80939 7.64245,6.96788 2.44487,2.5811 5.20766,4.69141 7.19073,7.94227 1.55859,2.54251 3.56023,5.6933 6.00019,1.45902 2.3405,-2.61535 2.61092,-6.78531 4.97695,-9.40714 1.90384,-3.6403 4.60451,-6.52581 5.49294,-11.06664 2.32791,-3.51308 4.08663,-7.89447 6.92628,-10.82897 1.49405,-3.51161 3.79036,-6.62585 5.68085,-9.71776 0.56262,-0.69067 1.85918,-1.82645 1.23063,-2.88059 z"
       id="path2942" />
    <path
       inkscape:connector-curvature="0"
       style="fill:none;stroke:#80ff00;stroke-width:3.99999976;stroke-linecap:round;stroke-linejoin:round;stroke-miterlimit:4;stroke-opacity:1;stroke-dasharray:none"
       d="m 250.10232,257.71768 c -0.54215,-8.5376 -0.31676,-17.30272 -4.84012,-25.11817 -4.32945,-9.9492 -7.94899,-20.24761 -13.79924,-29.80573 -2.50452,-6.4759 -5.84941,-23.15636 -10.68589,-10.14471 -7.45522,8.75641 -13.4477,17.79227 -17.13216,27.72428 -4.82994,10.06613 -11.11605,21.1542 -13.42742,30.78972 1.311,2.84949 -2.67011,4.70429 -1.87584,7.56611"
       id="path2956" />
    <path
       inkscape:connector-curvature="0"
       style="color:#000000;fill:none;stroke:#80ff00;stroke-width:4;stroke-linecap:round;stroke-linejoin:round;stroke-miterlimit:4;stroke-opacity:1;stroke-dasharray:none;stroke-dashoffset:0;marker:none;visibility:visible;display:inline;overflow:visible;enable-background:accumulate"
       d="m 398.63808,211.5907 c 26.78584,-2.37477 88.35039,18.09871 70.89426,-16.34588 -14.14279,-27.90667 2.13557,-57.82224 -40.2264,-62.37532 -32.49476,-3.49255 -65.0686,-24.03739 -94.38275,-27.90791 -22.52112,-2.97357 -21.74912,-1.15892 -40.22496,1.95101 -1.50645,0.25358 -21.20837,-5.05687 -32.21698,-13.381521"
       id="path4125"
       sodipodi:nodetypes="ssssss" />
    <path
       inkscape:connector-curvature="0"
       style="color:#000000;fill:none;stroke:#80ff00;stroke-width:4;stroke-linecap:round;stroke-linejoin:round;stroke-miterlimit:4;stroke-opacity:1;stroke-dasharray:none;stroke-dashoffset:0;marker:none;visibility:visible;display:inline;overflow:visible;enable-background:accumulate"
       d="m 201.7185,179.70071 c 8.76716,9.30272 15.69094,4.98715 22.87525,6.36009 7.45625,1.42408 15.06898,1.7812 22.79529,2.3662 8.51009,0.64442 19.45102,2.65212 28.88436,3.64036 11.78315,1.23437 22.8446,0.28847 34.76324,1.84314 14.53261,1.89542 28.74367,7.02651 43.07426,10.84945 7.20624,1.92236 14.1079,4.49549 21.52703,5.80392 5.72302,1.00889 18.43103,2.32886 23.00015,1.02683"
       id="path2833"
       sodipodi:nodetypes="csssssss" />
    <path
       inkscape:connector-curvature="0"
       style="fill:none;stroke:#80ff00;stroke-width:3.99999952;stroke-linecap:round;stroke-linejoin:round;stroke-miterlimit:4;stroke-opacity:1;stroke-dasharray:none"
       d="m 374.81824,289.59125 c 1.10945,-8.62874 -4.77054,-18.96629 -4.10304,-27.63578 2.02483,-10.87062 0.63295,-19.67523 -3.02498,-31.57613 -1.11468,-7.43974 -0.97774,-28.04754 -7.96035,-17.31752 -4.46394,7.15555 -8.14795,8.88568 -12.72591,17.8585 -6.41898,7.83584 -11.51108,10.68013 -15.49487,19.16873 -4.49922,4.49336 -14.79879,10.94643 -14.59823,14.10053"
       id="path2956-7"
       sodipodi:nodetypes="ccccccc" />
    <path
       style="fill:none;stroke:#008000;stroke-width:4;stroke-linecap:butt;stroke-linejoin:miter;stroke-opacity:1;color:#000000;stroke-miterlimit:4;stroke-dasharray:none;stroke-dashoffset:0;marker:none;visibility:visible;display:inline;overflow:visible;enable-background:accumulate"
       d="m -7.0710678,256.36039 c 41.5746948,-10.18023 49.7098238,-3.27623 91.9238818,1.41422 17.296036,1.92178 55.486656,-3.34148 72.831996,-1.41422 14.68805,3.98903 46.87766,6.29275 57.27565,7.77818 17.53383,2.50483 28.23596,-3.48486 45.96194,-2.12133 18.69057,9.15855 46.90141,4.65891 60.10408,7.77818 10.94445,2.73611 33.49823,11.18939 43.13351,16.97056 19.54397,17.1849 35.03452,18.85388 66.46804,14.84925 7.02574,-1.40515 22.67274,-1.42329 29.69848,-2.82843 12.23408,-2.44682 22.72942,-3.53554 35.35534,-3.53554"
       id="path3036"
       inkscape:connector-curvature="0"
       sodipodi:nodetypes="cccsccccsc" />
    <path
       style="color:#000000;fill:none;stroke:#808080;stroke-width:4;stroke-linecap:butt;stroke-linejoin:miter;stroke-miterlimit:4;stroke-opacity:1;stroke-dasharray:none;stroke-dashoffset:0;marker:none;visibility:visible;display:inline;overflow:visible;enable-background:accumulate"
       d="m -29,136 c 5.296423,-10.73021 18.175643,-14.75607 27.6971104,-18.33766 2.22493036,-0.83693 5.2374092,-4.83542 7.4526286,-5.92065 6.802095,-3.33236 14.469734,-2.85183 21.404528,-7.65075 3.316561,-2.29507 8.502239,-0.37592 11.861845,-1.94483 18.612379,-8.691823 46.445915,-7.483976 68.770358,-9.239923 18.93602,-1.489426 40.42566,-5.888703 56.42352,-13.836219 C 170.71132,76.038908 180.47384,69.305231 187,68 c 45.93973,-9.187947 79.59752,-7.900413 127,0 6.35669,1.059448 13.7787,-0.382511 20,1 11.66413,2.59203 25.45652,6.728262 36,12 8.83061,4.415303 24.9518,21.11532 37,28 11.48239,6.56137 24.31086,8.82771 37,12 12.19694,3.04924 23.82471,7.95618 36,11 9.97403,2.49351 23.70018,0 34,0"
       id="path3051"
       inkscape:connector-curvature="0"
       sodipodi:nodetypes="csssssssssssssc" />
    <path
       style="color:#000000;fill:none;stroke:#ff0000;stroke-width:4;stroke-linecap:butt;stroke-linejoin:miter;stroke-miterlimit:4;stroke-opacity:1;stroke-dasharray:none;stroke-dashoffset:0;marker:none;visibility:visible;display:inline;overflow:visible;enable-background:accumulate"
       d="m 117,208 c 3.79605,0 14.57396,0.42604 17,-2 -1.21628,-4.3894 7.87963,-25.04169 3,-30 -2.66324,-15.32647 -36.13274,-13 -44,-8 0.116535,30.94456 -15.825875,40 24,40 z"
       id="path3067"
       inkscape:connector-curvature="0"
       sodipodi:nodetypes="scccs" />
    <path
       style="fill:none;stroke:#00ffff;stroke-width:4;stroke-linecap:butt;stroke-linejoin:miter;stroke-opacity:1;color:#000000;stroke-miterlimit:4;stroke-dasharray:none;stroke-dashoffset:0;marker:none;visibility:visible;display:inline;overflow:visible;enable-background:accumulate"
       d="m 72,152 c -24.113085,-10.96779 -54.236021,36.38199 -29,49 4.478103,0.0817 22.910898,1.61088 25,0 0.833333,-0.83333 -0.833333,-4.16667 0,-5 7.846841,-7.84684 8.936663,-31.65834 4,-44 z"
       id="path3069"
       inkscape:connector-curvature="0"
       sodipodi:nodetypes="cccsc" />
    <path
       style="fill:none;stroke:#c87137;stroke-width:4;stroke-linecap:round;stroke-linejoin:round;stroke-opacity:1;color:#000000;stroke-miterlimit:4;stroke-dasharray:none;stroke-dashoffset:0;marker:none;visibility:visible;display:inline;overflow:visible;enable-background:accumulate"
       d="m 8,213 c 1.02944,-10.42974 50.462401,-5.70747 84,1 1.789786,0.35795 29.46357,-2.06531 46.71658,0.17887 14.64646,1.90514 19.54835,8.29128 18.28342,10.82113 -2.0139,4.02779 -51.25188,-1 -55,-1 -44.803091,0 -88.436003,-4 -94,-11 z"
       id="path3073"
       inkscape:connector-curvature="0"
       sodipodi:nodetypes="cssssc" />
    <path
       style="fill:none;stroke:#c87137;stroke-width:4;stroke-linecap:round;stroke-linejoin:round;stroke-opacity:1;color:#000000;stroke-miterlimit:4;stroke-dasharray:none;stroke-dashoffset:0;marker:none;visibility:visible;display:inline;overflow:visible;enable-background:accumulate"
       d="m 10.0838,227.26563 c 34.647741,5.74207 46.315222,-0.88231 78.089041,4.38693 9.868618,1.63657 19.418289,4.80396 29.281059,4.00361 7.53097,-0.61113 61.02439,-7.46695 40.44138,9.70343 -2.06901,1.72597 -15.20361,4.53581 -17.98962,4.62794 -36.50825,1.20723 -52.699938,1.79657 -88.183274,-4.08785 -9.356072,-1.55158 -19.995682,0.6592 -29.083305,-2.03994 -2.803645,-0.83266 -20.5334307,-9.10506 -17.4203528,-12.43106 1.6582901,-1.77171 2.7316151,-3.00666 4.8650718,-4.16306 z"
       id="path3075"
       inkscape:connector-curvature="0"
       sodipodi:nodetypes="cssssscsc" />
    <path
       style="color:#000000;fill:none;stroke:#80ff00;stroke-width:3.99999976;stroke-linecap:round;stroke-linejoin:round;stroke-miterlimit:4;stroke-opacity:1;stroke-dasharray:none;stroke-dashoffset:0;marker:none;visibility:visible;display:inline;overflow:visible;enable-background:accumulate"
       d="m 163.55449,177.27999 c -8.32344,3.80178 -19.73151,5.74923 -21.94352,-2.45559"
       id="path3083"
       inkscape:connector-curvature="0" />
    <path
       style="fill:none;stroke:#000000;stroke-width:4;stroke-linecap:round;stroke-linejoin:round;stroke-miterlimit:4;stroke-opacity:1;stroke-dasharray:none"
       d="M 356.81981,91.071068 C 332.97132,89.569554 313.99002,85.421743 296,83 251.14394,76.961659 224.59859,72.403473 181.14214,81 c -7.17158,1.418678 -9.97591,9.731371 -4.31371,11.110913 6.1241,1.492078 11.91321,-1.100505 18.64645,-1.100505 15.14792,3.616918 38.06439,-0.0086 49.76776,6.989592 1.06993,0.713288 6.74269,6.25731 5,8 -27.20164,4.86177 -66.14813,-0.0343 -93.77817,-4.94975 -6.2814,3.1407 -10.17982,3 -18,3 -14.79262,0 -60.198556,2.19445 -71.46447,5.94975 -12.256675,4.08556 -24.02446,9 -36,9 -4.515137,0 -30.34588941,2.51586 -24,9.53553 8.168164,9.03544 56.116379,-4.52803 64,-3.53553 57.803,7.27702 122.88557,-15.77695 180,0.88909 15.75114,4.59619 61.66874,-7.99951 74,-3.88909 10.44997,3.48332 27.58542,6 39,6 12.66256,0 25.93237,8.46619 35,13 8.09237,4.04618 20.14594,3.04865 29,6 2.87681,0.95894 12.89769,8.20462 11,12 -3.59808,7.19615 -18.92263,6.67956 -29,5 -26.14033,-4.35672 -50.31545,-14.86309 -76,-20 -26.1536,-5.23072 -58.02225,5.40062 -84,-1 -15.26936,-3.7622 -10.68584,-10.74989 -39.25337,-7.20798 -24.27341,3.00951 -65.26223,-1.8439 -69.28574,2.51128"
       id="path3904"
       inkscape:connector-curvature="0"
       sodipodi:nodetypes="csssccccsssssssssssssssc" />
    <path
       style="fill:none;stroke:#000000;stroke-width:4;stroke-linecap:round;stroke-linejoin:round;stroke-miterlimit:4;stroke-opacity:1;stroke-dasharray:none"
       d="m 232.15076,152.75736 c 5.75955,11.12284 40.78653,10.00679 54.55635,8.70711 37.25646,-3.51649 73.33891,6.58486 94.11091,14.37436 16.92807,6.34803 38.53018,6.2342 56.24264,3.50432 25.44525,-2.33271 20.82807,17.91093 6.50431,18.71751 -57.76446,0 -91.40638,-6.37565 -146.43324,-17.41421 -6.98769,-1.40176 -15.13297,-1.34069 -23.13173,-1.76777 -14.32333,-0.76477 -35.68387,-6.81741 -50.07107,-10.41421"
       id="path3116"
       inkscape:connector-curvature="0"
       sodipodi:nodetypes="cssccssc" />
    <path
       style="fill:none;stroke:#000000;stroke-width:4;stroke-linecap:round;stroke-linejoin:round;stroke-miterlimit:4;stroke-opacity:1;stroke-dasharray:none"
       d="m 85,153 c 4.659308,-0.24259 44,3.30892 44,-1 0,-1.11076 0.70711,-6.29289 0,-7 -9.46797,-9.46797 -72.564764,-10.21762 -87,-3 -5.066667,2.53333 -14.983586,-1.53333 -20.050253,1 -3.012127,1.50606 -2.573749,6.57375 -5,9 C -6.5868825,175.53663 35.311736,151.37653 28,166 c -4.528267,9.05653 -9.725003,5.08896 -15.636039,11 -8.1302093,8.13021 4.910005,11 8.636039,11"
       id="path3120"
       inkscape:connector-curvature="0"
       sodipodi:nodetypes="csssssssc" />
    <path
       style="fill:none;stroke:#000000;stroke-width:4;stroke-linecap:round;stroke-linejoin:round;stroke-opacity:1;stroke-miterlimit:4;stroke-dasharray:none"
       d="m 380.42345,227.36901 c 12.72792,0 25.45584,0 38.18376,0 8.01388,0 16.02776,0 24.04164,0 12.60025,0 20.82221,-1.09809 29.69848,7.77818 0.50187,0.50187 2.74293,2.20681 1.41421,3.53553 -10.07742,10.07743 -65.00472,-1.43876 -77.78174,4.94975 -2.2734,1.1367 -9.55322,-1.76049 -11.31371,0 -3.08098,3.08098 10.58424,10.59542 12.02081,11.31371 10.01913,5.00956 69.16422,-0.13225 71.41779,2.12132 5.64896,5.64896 -6.57204,11.3137 -10.6066,11.3137 -24.51304,0 -49.02607,0 -73.53911,0"
       id="path3122"
       inkscape:connector-curvature="0" />
    <path
       style="fill:none;stroke:#000000;stroke-width:4;stroke-linecap:round;stroke-linejoin:round;stroke-opacity:1;stroke-miterlimit:4;stroke-dasharray:none"
       d="m 247.48737,204.74159 c 21.4938,-0.59092 42.23627,1.82224 62.2254,8.48529 9.06272,3.0209 21.8309,-2.30014 26.16295,6.36396 4.07703,8.15406 -7.77845,8.48528 -12.72792,8.48528 -8.05674,0 -20.69766,2.52887 -28.28427,0 -6.98436,-2.32812 -24.09881,-5.65686 -31.1127,-5.65686 -3.64773,0 -8.62218,-1.14041 -10.6066,2.82843 -2.60418,5.20835 9.14038,5.62218 11.31371,7.07107 9.04644,6.03096 23.4145,7.46461 32.52691,12.02081 3.86673,1.93337 8.63852,-0.27693 12.02081,1.41422 0.45768,0.22884 2.92534,2.73151 2.12132,3.53553 -2.04529,2.0453 -16.73775,0 -19.79899,0 -4.00693,0 -8.01387,0 -12.02081,0 -4.24264,0 -8.48528,0 -12.72792,0"
       id="path3124"
       inkscape:connector-curvature="0" />
    <path
       style="fill:none;stroke:#000000;stroke-width:4;stroke-linecap:round;stroke-linejoin:round;stroke-opacity:1;stroke-miterlimit:4;stroke-dasharray:none"
       d="m 218.496,219.59084 c 4.90633,-1.08928 16.64682,4.89012 13.43502,11.31371 -0.11599,0.23199 -22.87156,-0.21881 -26.87005,7.77817 -3.995,7.98999 6.49775,8.48528 12.02081,8.48528 3.96079,0 7.89095,0.70711 12.02082,0.70711 3.5408,0 5.40134,2.82843 9.19239,2.82843"
       id="path3126"
       inkscape:connector-curvature="0" />
    <path
       style="fill:none;stroke:#000000;stroke-width:4;stroke-linecap:round;stroke-linejoin:round;stroke-miterlimit:4;stroke-opacity:1;stroke-dasharray:none"
       d="m 352.84628,243.63247 c 0.9368,0.11338 4.97587,0.0522 5.65686,1.41421 8.15684,16.31369 -14.03907,8.38222 -16.97056,11.31371 -0.89687,0.89686 -0.70711,2.90916 -0.70711,4.24264 0,12.65778 10.53829,5.6227 17.67767,9.19239"
       id="path3128"
       inkscape:connector-curvature="0"
       sodipodi:nodetypes="csssc" />
    <path
       style="fill:none;stroke:#000000;stroke-width:4;stroke-linecap:round;stroke-linejoin:round;stroke-opacity:1;stroke-miterlimit:4;stroke-dasharray:none"
       d="m 164.04877,192.72078 c -4.35973,1.15707 -14.8274,-2.14316 -17.67767,0.70711 -2.07498,2.07498 -0.73474,9.53212 1.41422,10.6066 4.51387,2.25693 18.69567,-2.51753 21.92031,0.7071 8.14568,8.14569 13.16359,4.10693 20.50609,7.77818 0.91603,0.45801 1.55139,9.76233 0.70711,10.6066 -3.41042,3.41042 -15.96139,-2.27235 -20.5061,0 -7.36043,3.68022 6.48567,10.85001 7.77818,13.43503 2.35061,4.70122 -2.87003,9.9827 -4.24264,12.72792"
       id="path3132"
       inkscape:connector-curvature="0" />
  </g>
</svg>
