<?xml version="1.0" encoding="UTF-8" standalone="no"?>
<!-- Created with Inkscape (http://www.inkscape.org/) -->

<svg
   xmlns:dc="http://purl.org/dc/elements/1.1/"
   xmlns:cc="http://creativecommons.org/ns#"
   xmlns:rdf="http://www.w3.org/1999/02/22-rdf-syntax-ns#"
   xmlns:svg="http://www.w3.org/2000/svg"
   xmlns="http://www.w3.org/2000/svg"
   xmlns:sodipodi="http://sodipodi.sourceforge.net/DTD/sodipodi-0.dtd"
   xmlns:inkscape="http://www.inkscape.org/namespaces/inkscape"
   inkscape:export-ydpi="90"
   inkscape:export-xdpi="90"
   sodipodi:docname="itnas050.svg"
   inkscape:version="0.47 r22583"
   version="1.1"
   id="svg2"
   height="320"
   width="480"
   inkscape:export-filename="itnas050.png">
  <defs
     id="defs4" />
  <sodipodi:namedview
     id="base"
     pagecolor="#ffffff"
     bordercolor="#666666"
     borderopacity="1.0"
     inkscape:pageopacity="1"
     inkscape:pageshadow="2"
     inkscape:zoom="1"
     inkscape:cx="217.88911"
     inkscape:cy="127.61668"
     inkscape:document-units="px"
     inkscape:current-layer="layer1"
     showgrid="false"
     inkscape:snap-nodes="true"
     inkscape:snap-global="false"
     inkscape:snap-grids="true"
     showguides="true"
     inkscape:window-width="1280"
     inkscape:window-height="774"
     inkscape:window-x="-4"
     inkscape:window-y="-4"
     inkscape:window-maximized="1">
    <inkscape:grid
       empspacing="5"
       visible="true"
       enabled="true"
       snapvisiblegridlinesonly="true"
       type="xygrid"
       id="grid2816" />
  </sodipodi:namedview>
  <metadata
     id="metadata7">
    <rdf:RDF>
      <cc:Work
         rdf:about="">
        <dc:format>image/svg+xml</dc:format>
        <dc:type
           rdf:resource="http://purl.org/dc/dcmitype/StillImage" />
        <dc:title></dc:title>
      </cc:Work>
    </rdf:RDF>
  </metadata>
  <g
     inkscape:label="Layer 1"
     inkscape:groupmode="layer"
     id="layer1"
     transform="translate(0,0)">
    <path
       style="fill:none;stroke:#008000;stroke-width:4;stroke-linecap:butt;stroke-linejoin:miter;stroke-opacity:1;stroke-miterlimit:4;stroke-dasharray:none"
       d="m -16.970563,274.74517 c 32.144815,-5.70476 65.033983,-1.49052 97.507837,-2.83766 28.752326,-0.18161 57.600666,-0.80843 86.055266,3.81628 48.72352,2.57064 97.57209,0.38302 146.34828,1.14275 30.02432,-0.0625 60.05363,0.63287 89.97594,-1.54819 21.38344,-0.89459 43.57746,3.06322 64.37741,-3.18896 11.14672,-1.68394 21.84356,-7.38227 33.33743,-6.57661"
       id="path4190" />
    <path
       style="fill:none;stroke:#0000ff;stroke-width:3.99999976;stroke-linecap:round;stroke-linejoin:round;stroke-miterlimit:4;stroke-opacity:1;stroke-dasharray:none"
       d="m 384.21873,198.29963 c -1.67533,1.72715 -1.86443,1.92988 -4.09388,3.04034 -1.51497,0.75459 -3.15456,0.93435 -5.12623,0.93464 -2.83818,4.1e-4 -5.48434,-2.23245 -7.06695,-4.63773 -1.18624,-1.80285 -2.17471,-3.66513 -2.06861,-6.0065 0.0749,-1.65334 -0.70246,-3.73155 0.12673,-5.00289 1.30687,-2.00376 1.31296,-4.61846 3.76208,-6.54974 1.2789,-1.00847 3.34313,-0.29406 4.99228,-0.42682 2.48071,-0.19973 4.69721,-0.8225 6.86561,-0.12635 1.25606,0.40325 2.74725,1.85563 3.29801,3.00277 0.39606,0.82494 1.29242,3.48735 1.69592,4.45316 0.99435,2.37999 1.70709,4.44998 0.64178,7.07823 -1.21191,2.98991 -1.09839,2.25289 -3.02674,4.24089 z"
       id="path2905"
       sodipodi:nodetypes="cssssssssssss" />
    <path
       style="fill:none;stroke:#0000ff;stroke-width:4;stroke-linecap:round;stroke-linejoin:round;stroke-miterlimit:4;stroke-opacity:1;stroke-dasharray:none"
       d="m 376.90385,204.40058 c -0.70968,2.43761 0.89474,5.61974 0.0929,6.51257 0.62814,3.82602 0.53519,7.77065 1.21317,11.5847 0.78685,3.26691 0.29354,6.57564 0.45409,9.67334 -0.15297,1.51756 -0.30593,3.0351 -0.45891,4.55264"
       id="path2907" />
    <path
       id="path2909"
       style="fill:none;stroke:#0000ff;stroke-width:4;stroke-linecap:round;stroke-linejoin:round;stroke-miterlimit:4;stroke-opacity:1;stroke-dasharray:none"
       d="m 379.51755,237.58144 c 1.23932,1.79012 3.80069,5.85681 5.68448,8.56471 1.84548,3.98163 4.99888,6.32609 6.97466,10.13006 2.30496,2.32595 3.96707,4.95327 5.8772,7.9326 1.42598,1.61723 1.85807,5.97629 2.81756,6.3752 0.21628,0.18054 1.02677,2.3834 0.25237,1.33148 m -22.56881,-35.98972 c -1.79307,2.7818 -3.83302,5.49609 -4.85243,8.67496 -1.92544,3.31304 -2.77367,7.19246 -4.96756,10.32093 -0.0879,3.76342 -3.03158,6.60586 -3.57994,10.26935 -0.78465,2.61864 -1.94149,4.51466 -2.355,7.32183 -0.5678,0.9991 -0.006,2.01722 -0.32086,-0.5519" />
    <g
       id="g4230"
       transform="translate(-11.313709,-9.8994949)">
      <path
         sodipodi:nodetypes="csssssscc"
         id="path4202"
         d="m 38.671573,25.944544 c -5.430479,7.450879 -9.310018,7.388925 -14.729121,14.724258 -7.115345,9.631376 -1.570906,23.289283 5.079989,31.916876 7.192509,9.330178 20.752507,5.816368 30.547182,5.260564 8.004509,-0.45422 10.902131,-6.975949 16.295781,-6.648434 6.003807,0.364567 6.973067,-11.28078 7.082161,-19.052076 C 83.067723,43.58623 84.88679,32.72173 76.184121,27.314266 68.375262,22.462176 60.371218,17.763541 50.784197,17.639118 46.123264,18.55518 37.505395,20.182367 38.671573,25.944544 z"
         style="fill:none;stroke:#ffff00;stroke-width:4;stroke-linecap:round;stroke-linejoin:round;stroke-miterlimit:4;stroke-opacity:1;stroke-dasharray:none" />
      <path
         id="path4215"
         d="M 31,81 C 28.148613,84.553942 24.105327,87.346267 24.536612,92.015165 21.832544,96.043458 21.188425,100.66969 20,105 c -1.284479,-0.52275 -1.919186,3.77422 -2,5"
         style="fill:none;stroke:#ffff00;stroke-width:4;stroke-linecap:round;stroke-linejoin:round;stroke-miterlimit:4;stroke-opacity:1;stroke-dasharray:none" />
      <path
         id="path4217"
         d="m 53.280734,83.999998 c 4.109561,4.16047 0.225882,10.218352 3.166602,14.792056 1.215413,5.697486 7.524659,9.190686 6.531011,15.084746 L 62.937021,115"
         style="fill:none;stroke:#ffff00;stroke-width:4;stroke-linecap:round;stroke-linejoin:round;stroke-miterlimit:4;stroke-opacity:1;stroke-dasharray:none" />
      <path
         id="path4219"
         d="m 76,78 c 3.400595,3.924314 5.608335,9.266142 10.25064,12 2.62092,4.847886 4.316418,10.49689 8.888485,13.99058 2.816275,3.7582 6.029785,7.79196 9.904355,10.00942"
         style="fill:none;stroke:#ffff00;stroke-width:4;stroke-linecap:round;stroke-linejoin:round;stroke-miterlimit:4;stroke-opacity:1;stroke-dasharray:none" />
      <path
         id="path4221"
         d="m 90,56.987967 c 14.33334,0.01397 28.66662,0.07609 43,0.05204"
         style="fill:none;stroke:#ffff00;stroke-width:4;stroke-linecap:round;stroke-linejoin:round;stroke-miterlimit:4;stroke-opacity:1;stroke-dasharray:none" />
      <path
         id="path4223"
         d="m 86.000002,33 c 5.268561,-0.876096 9.823061,-4.205192 14.951108,-4.876265 4.62153,1.300794 7.8844,-3.002146 12.17425,-3.773924 C 115.24759,22.885947 120.60982,23.2369 120.85644,21"
         style="fill:none;stroke:#ffff00;stroke-width:4;stroke-linecap:round;stroke-linejoin:round;stroke-miterlimit:4;stroke-opacity:1;stroke-dasharray:none" />
    </g>
    <path
       style="color:#000000;fill:none;stroke:#0000ff;stroke-width:4;stroke-linecap:round;stroke-linejoin:round;stroke-miterlimit:4;stroke-opacity:1;stroke-dasharray:none;stroke-dashoffset:0;marker:none;visibility:visible;display:inline;overflow:visible;enable-background:accumulate"
       d="m 396.11675,234.9135 c -1.90945,-3.16069 -3.67788,-6.53367 -6.38247,-8.91545 -3.29557,-3.19265 -5.25464,-7.66864 -8.00539,-11.39976 -1.18513,-1.63267 -1.98333,-3.5704 -2.45836,-5.59979 -0.76979,-1.37407 -1.64332,-3.59909 -3.02152,-3.93054 -0.65022,1.49563 -0.97406,3.2072 -1.86486,4.58813 -2.39235,3.9359 -3.98086,8.44966 -5.23058,13.02215 -0.87165,2.92331 -1.8735,5.79291 -3.25416,8.44591 -0.84507,1.65497 -1.14224,3.83417 -2.59735,4.95816 l -0.0916,0.19526 -0.0585,0.26578"
       id="path2831" />
    <path
       style="fill:none;stroke:#80ff00;stroke-width:3.99999952;stroke-linecap:round;stroke-linejoin:round;stroke-miterlimit:4;stroke-opacity:1;stroke-dasharray:none"
       d="m 271.82558,274.24866 c 0.38404,-4.26566 0.44499,-8.64408 2.51308,-12.55367 2.02366,-4.97531 3.75098,-10.12422 6.41587,-14.90594 1.18357,-3.23804 2.90815,-11.57483 4.73658,-5.08046 3.02092,4.36553 5.41332,8.8724 6.8059,13.82966 1.87843,5.02291 4.35922,10.55463 5.17182,15.3654 -0.60986,1.42503 1.05386,2.34692 0.66403,3.77749"
       id="path2956" />
    <path
       style="fill:none;stroke:#80ff00;stroke-width:3.99999928;stroke-linecap:round;stroke-linejoin:round;stroke-miterlimit:4;stroke-opacity:1;stroke-dasharray:none"
       d="m 191.82345,272.93728 c 0.25202,-0.71738 1.60629,-4.57161 2.27739,-6.48144 2.17547,-5.98818 5.34008,-9.95497 9.3953,-16.95476 1.7162,-4.24922 7.23896,-11.9711 8.51917,-14.08548 1.09062,4.95311 1.97571,9.97942 3.11697,14.91073 1.55562,5.8417 1.96051,8.92366 5.51069,13.90846 0.81162,0.62301 4.73447,5.90647 5.37448,9.13258"
       id="path2958"
       sodipodi:nodetypes="ccccccc" />
    <path
       style="color:#000000;fill:none;stroke:#80ff00;stroke-width:3.99999976;stroke-linecap:round;stroke-linejoin:round;stroke-miterlimit:4;stroke-opacity:1;stroke-dasharray:none;stroke-dashoffset:0;marker:none;visibility:visible;display:inline;overflow:visible;enable-background:accumulate"
       d="m 299.83218,235.0265 c 14.06381,-5.03837 18.89395,6.84123 31.97666,20.89464 6.84653,7.35452 17.34203,13.53191 28.40324,14.3059 14.49214,1.01396 30.75449,2.2355 43.72757,-0.092 9.96679,-1.78818 9.40801,-2.54765 16.88103,-6.67397 0.60932,-0.33643 9.67191,-0.60254 15.4149,1.81611"
       id="path4125"
       sodipodi:nodetypes="csssss" />
    <path
       style="color:#000000;fill:none;stroke:#80ff00;stroke-width:3.99999976;stroke-linecap:round;stroke-linejoin:round;stroke-miterlimit:4;stroke-opacity:1;stroke-dasharray:none;stroke-dashoffset:0;marker:none;visibility:visible;display:inline;overflow:visible;enable-background:accumulate"
       d="m 299.5022,234.88196 c -3.71735,0.92077 -6.81108,2.15398 -10.87018,2.09237 -4.21263,-0.0644 -8.38932,-0.66697 -12.65359,-1.16963 -4.69683,-0.55359 -10.86895,-0.68816 -16.10639,-1.16775 -6.54207,-0.59908 -12.44486,-2.19162 -19.09683,-2.64776 -8.11087,-0.55629 -16.41381,0.50395 -24.6334,0.9118 -4.13327,0.20502 -8.17483,0.7597 -12.35419,0.64252 -3.22385,-0.0906 -10.27812,-0.74222 -12.61306,-1.84609"
       id="path2833-1"
       sodipodi:nodetypes="csssssss" />
    <g
       id="g3714">
      <path
         sodipodi:nodetypes="ccccs"
         id="path3708"
         d="m 66.468037,269.79543 2.595074,-66.73048 c 0.877499,-1.31014 2.045597,-2.55767 0.217217,-5.58558 l 2.137457,-54.96317 c 1.892079,-1.00585 4.615231,-1.58249 6.707555,-1.49201"
         style="fill:none;stroke:#c87137;stroke-width:4;stroke-linecap:round;stroke-linejoin:round;stroke-miterlimit:4;stroke-opacity:1;stroke-dasharray:none" />
      <path
         sodipodi:nodetypes="ccccc"
         id="path3710"
         d="m 55.861436,151.00148 116.888544,-0.69165 c 0,0 1.37494,0.98891 1.37494,0.98891 0,0.57794 2.3753,-0.59465 2.3753,-1.0111 l 118.36331,-0.70037"
         style="fill:none;stroke:#c87137;stroke-width:4;stroke-linecap:round;stroke-linejoin:round;stroke-opacity:1;stroke-miterlimit:4;stroke-dasharray:none" />
      <path
         id="path3712"
         d="m 278.60007,141.45554 1.41421,69.65002"
         style="fill:none;stroke:#c87137;stroke-width:4;stroke-linecap:round;stroke-linejoin:round;stroke-miterlimit:4;stroke-opacity:1;stroke-dasharray:none" />
    </g>
    <path
       id="path3747"
       style="fill:none;stroke:#808080;stroke-width:4;stroke-linecap:butt;stroke-linejoin:miter;stroke-miterlimit:4;stroke-opacity:1;stroke-dasharray:none"
       d="m 70.374174,267.98155 c -0.358027,-0.92788 5.959144,-3.28737 8.962975,-4.83233 3.637441,-1.87084 7.135711,-4.02743 10.821865,-5.82486 6.61005,-3.22321 13.269276,-6.35894 19.980406,-9.32138 5.14255,-2.27003 10.38761,-4.21141 15.41166,-6.83311 3.96117,-2.06703 8.11176,-4.06555 12.37368,-4.89705 2.74104,-0.53479 5.51803,-0.52571 8.14457,-1.73758 1.47289,-0.67957 2.85798,-0.0746 3.46394,0.53902 0.76435,0.77419 0.85768,4.64299 0.18756,6.81416 -0.5019,1.62608 0.59896,3.31174 0.11417,4.8672 -1.0835,3.47899 -0.38389,4.49425 -0.14014,8.11603 0.16816,2.49851 0.58209,5.03891 0.72514,7.50083 0.15437,2.65639 1.45846,7.90109 -0.027,8.06098 -3.40647,0.36667 -10.5344,-2.16597 -15.94718,-2.75291 -11.81072,-1.28069 -23.78039,-2.78574 -35.692216,-1.16624 -5.322572,0.72364 -10.723181,-0.009 -16.03425,1.07833 -4.078638,0.83522 -11.886827,1.57764 -12.345504,0.38889 z"
       sodipodi:nodetypes="cssssssssssssssss" />
    <path
       style="fill:none;stroke:#80ff00;stroke-width:3.99999976;stroke-linecap:round;stroke-linejoin:round;stroke-miterlimit:4;stroke-opacity:1;stroke-dasharray:none"
       d="m 187.16911,217.49668 c -0.27368,-2.42315 -2.17744,1.40516 -3.01811,2.08366 -2.13218,1.72088 -4.35733,2.96015 -6.68652,4.41186 -1.94018,1.20925 -3.88901,2.38053 -6.0207,3.32576 -3.1351,1.3901 -6.16547,2.88251 -9.26838,4.69177 -1.61156,0.93966 -2.35223,2.36689 -3.94006,3.854 -1.37359,1.28646 -3.34662,2.37813 -0.56109,3.19459 3.032,0.88871 6.00213,2.18794 9.16226,2.62275 2.27999,0.31371 4.52804,0.11498 6.89044,0.0862 1.93082,-0.0235 3.85225,0.24736 5.77134,0.53801 3.18887,0.48296 6.36535,0.86354 9.5548,1.62897 2.46259,0.591 1.56871,-2.52479 1.42609,-3.91034 -0.27225,-2.64475 -0.9658,-5.17652 -1.37097,-7.8219 -0.5575,-3.63997 -0.89579,-7.1524 -1.25045,-10.77108 -0.13088,-1.33531 -0.53718,-2.59314 -0.68865,-3.93427 z"
       id="path2942"
       sodipodi:nodetypes="cssssssssssssss" />
    <path
       style="color:#000000;fill:none;stroke:#ffff00;stroke-width:4;stroke-linecap:butt;stroke-linejoin:miter;stroke-miterlimit:4;stroke-opacity:1;stroke-dasharray:none;stroke-dashoffset:0;marker:none;visibility:visible;display:inline;overflow:visible;enable-background:accumulate"
       d="m 164.98936,255.29683 c -1.64573,-0.2316 -3.77723,-0.13841 -4.91545,0.77536 -4.0847,3.27918 -5.82558,9.62771 -2.38324,13.29196 2.09726,2.23243 7.64251,3.24299 10.72459,1.77226 4.78642,-2.28402 5.72817,-8.49154 3.57487,-12.40583 -1.05845,-1.92403 -4.25404,-3.04722 -7.00077,-3.43375 z"
       id="path2839"
       sodipodi:nodetypes="csssss" />
    <path
       style="color:#000000;fill:none;stroke:#00ffff;stroke-width:4;stroke-linecap:butt;stroke-linejoin:miter;stroke-miterlimit:4;stroke-opacity:1;stroke-dasharray:none;stroke-dashoffset:0;marker:none;visibility:visible;display:inline;overflow:visible;enable-background:accumulate"
       d="m 72.875,238.625 c -1.021189,6.86182 0.668191,4.78497 0.625,7.625 -0.03801,2.49935 -0.54357,6.65911 -0.625,8.25 -0.06574,1.28434 4.307642,-0.002 6.125,0 1.319362,0.001 3.269723,1.05131 4,0 0.78185,-1.12555 0,-2.26425 0,-2.5 0,-3.83333 -0.0027,-6.32478 0.5,-10.125 0.02049,-0.15493 1.038305,-1.25303 -0.5,-3.375 -0.182956,-0.25237 -2.166463,0 -2.5,0 -3,0 -7.428777,-1.19351 -7.625,0.125 z"
       id="path2862"
       sodipodi:nodetypes="csssssssss" />
    <path
       style="color:#000000;fill:none;stroke:#ff0000;stroke-width:4;stroke-linecap:butt;stroke-linejoin:miter;stroke-miterlimit:4;stroke-opacity:1;stroke-dasharray:none;stroke-dashoffset:0;marker:none;visibility:visible;display:inline;overflow:visible;enable-background:accumulate"
       d="m 87.660175,235.00651 c 1.26167,3.89186 1.806158,5.64241 3.564375,8.37485 0.973907,1.51355 3.043379,1.55614 4.410239,1.8898 1.70553,0.41633 3.26042,0.57444 5.080361,0.009 3.01699,-0.93731 3.8948,-4.0524 5.35682,-8.15953 0.9422,-2.64686 1.24917,-4.94854 1.59005,-7.25299 0.18984,-1.28336 0.7881,-6.07044 -3.91291,-7.15163 -3.65757,-0.84121 -3.969081,3.38569 -5.427621,3.58938 -1.4324,0.20003 -1.5282,-2.96157 -2.91708,-3.76365 -1.7498,-1.01051 -4.524078,-0.73899 -6.259745,1.13188 -2.73745,2.95068 -2.763203,7.38843 -1.484489,11.33286 z"
       id="path2889"
       sodipodi:nodetypes="cssssssssss" />
    <path
       style="color:#000000;fill:none;stroke:#ff0000;stroke-width:4;stroke-linecap:butt;stroke-linejoin:miter;stroke-miterlimit:4;stroke-opacity:1;stroke-dasharray:none;stroke-dashoffset:0;marker:none;visibility:visible;display:inline;overflow:visible;enable-background:accumulate"
       d="m 133.50564,229.02348 c -0.40079,1.75395 -2.77114,0.99019 -3.91411,1.81071 -1.42616,1.02383 -3.16271,2.98928 -5.06207,3.14531 -3.14862,0.25872 -6.18815,-1.06479 -9.07977,-4.32739 -1.86351,-2.1026 -3.43005,-4.40652 -4.0098,-6.66275 -0.8327,-3.24062 -0.70257,-5.51227 1.83902,-7.7424 2.82102,-2.47532 6.22168,1.2835 7.25989,0.23902 1.22653,-1.23392 -0.224,-5.65302 1.12152,-6.5259 3.54317,-2.29857 6,-0.0518 7.11282,2.24482 1.34406,2.77381 2.81613,5.1499 4.90702,8.71842 1.8071,3.08416 0.54128,5.96766 -0.17452,9.10016 z"
       id="path2889-7"
       sodipodi:nodetypes="cssssssssss" />
  </g>
</svg>
