<?xml version="1.0" encoding="UTF-8" standalone="no"?>
<!-- Created with Inkscape (http://www.inkscape.org/) -->

<svg
   xmlns:dc="http://purl.org/dc/elements/1.1/"
   xmlns:cc="http://creativecommons.org/ns#"
   xmlns:rdf="http://www.w3.org/1999/02/22-rdf-syntax-ns#"
   xmlns:svg="http://www.w3.org/2000/svg"
   xmlns="http://www.w3.org/2000/svg"
   xmlns:sodipodi="http://sodipodi.sourceforge.net/DTD/sodipodi-0.dtd"
   xmlns:inkscape="http://www.inkscape.org/namespaces/inkscape"
   width="480"
   height="320"
   id="svg2"
   version="1.1"
   inkscape:version="0.47 r22583"
   sodipodi:docname="itnas220.svg"
   inkscape:export-xdpi="90"
   inkscape:export-ydpi="90"
   inkscape:export-filename="itnas220.png">
  <defs
     id="defs4" />
  <sodipodi:namedview
     id="base"
     pagecolor="#ffffff"
     bordercolor="#666666"
     borderopacity="1.0"
     inkscape:pageopacity="1"
     inkscape:pageshadow="2"
     inkscape:zoom="1"
     inkscape:cx="263.88641"
     inkscape:cy="216.88933"
     inkscape:document-units="px"
     inkscape:current-layer="layer1"
     showgrid="false"
     inkscape:snap-nodes="true"
     inkscape:snap-global="false"
     inkscape:snap-grids="true"
     showguides="true"
     inkscape:window-width="1280"
     inkscape:window-height="774"
     inkscape:window-x="1276"
     inkscape:window-y="1020"
     inkscape:window-maximized="1">
    <inkscape:grid
       empspacing="5"
       visible="true"
       enabled="true"
       snapvisiblegridlinesonly="true"
       type="xygrid"
       id="grid2816" />
  </sodipodi:namedview>
  <metadata
     id="metadata7">
    <rdf:RDF>
      <cc:Work
         rdf:about="">
        <dc:format>image/svg+xml</dc:format>
        <dc:type
           rdf:resource="http://purl.org/dc/dcmitype/StillImage" />
        <dc:title></dc:title>
      </cc:Work>
    </rdf:RDF>
  </metadata>
  <g
     inkscape:label="Layer 1"
     inkscape:groupmode="layer"
     id="layer1"
     transform="translate(0,0)">
    <path
       style="fill:none;stroke:#80ff00;stroke-width:3.99999976;stroke-linecap:round;stroke-linejoin:round;stroke-miterlimit:4;stroke-opacity:1;stroke-dasharray:none"
       d="m 167.99473,218.4064 c -0.11245,1.87014 -2.62113,-0.81213 -2.66215,1.40279 -1.90354,2.22815 -4.97269,2.46183 -6.84191,4.75373 -1.535,1.19877 -3.54669,1.44016 -5.0562,2.68882 -1.62411,1.24694 -3.53104,1.80673 -5.41414,2.43328 -1.60957,0.6284 -3.01174,1.67038 -4.54662,2.4406 -0.80719,1.37933 -2.02049,1.71999 -2.91385,3.03152 -1.08388,1.57667 -3.19978,1.68682 -4.03164,3.6168 0.42377,0.75798 2.30081,0.78452 3.29729,1.25507 2.90258,0.86213 5.80523,1.72613 8.70788,2.58418 1.75785,-0.0405 3.66892,0.86217 5.27124,0.063 1.41545,-0.25111 2.92571,0.21674 4.3748,0.27891 1.62254,0.27289 3.46666,0.40825 5.14698,0.49829 1.75205,0.30029 3.49024,0.31688 5.25819,1.02363 1.38578,0.55047 3.13118,1.2116 2.83871,-1.21431 0.1529,-1.74816 -0.9886,-3.49815 -0.82742,-5.25657 -0.32901,-2.02752 -0.11294,-3.99177 -1.11825,-6.07538 -0.12117,-2.10368 -0.73036,-4.38432 -0.47336,-6.40985 -0.45446,-1.85318 -0.46876,-3.78778 -0.63878,-5.59182 0.018,-0.44505 0.1967,-1.28819 -0.37078,-1.5217 z"
       id="path2942" />
    <path
       style="fill:none;stroke:#80ff00;stroke-width:3.99999976;stroke-linecap:round;stroke-linejoin:round;stroke-miterlimit:4;stroke-opacity:1;stroke-dasharray:none"
       d="m 209.35335,268.75784 c -0.1979,-0.74428 -1.30555,-4.21277 -1.83256,-6.19423 -1.73116,-6.22171 -5.76205,-8.17825 -9.45603,-15.63959 -1.41896,-4.43646 -6.653,-12.7984 -7.82986,-15.0591 -1.76045,4.78582 -3.30207,9.66998 -5.11598,14.42782 -2.22082,7.40706 -5.37676,8.03191 -9.44632,15.28823 -0.6111,1.58709 -2.8509,5.99094 -4.73338,7.29061"
       id="path2958"
       sodipodi:nodetypes="ccccccc" />
    <path
       style="color:#000000;fill:none;stroke:#80ff00;stroke-width:4;stroke-linecap:round;stroke-linejoin:round;stroke-miterlimit:4;stroke-opacity:1;stroke-dasharray:none;stroke-dashoffset:0;marker:none;visibility:visible;display:inline;overflow:visible;enable-background:accumulate"
       d="m 426.65812,248.87237 c -13.71906,-9.36378 -39.66431,-16.2084 -51.39741,-0.87478 -6.1885,8.08763 -11.64498,17.94707 -23.79278,15.12038 -15.91573,-3.70358 -33.79959,-7.77934 -47.11968,-14.19417 -10.23339,-4.9283 -9.08714,-5.84711 -16.28771,-11.83951 -2.42165,-2.01532 -10.25534,-3.69729 -17.14057,-3.23277"
       id="path4125"
       sodipodi:nodetypes="csssss" />
    <path
       style="fill:none;stroke:#80ff00;stroke-width:3.99999952;stroke-linecap:round;stroke-linejoin:round;stroke-miterlimit:4;stroke-opacity:1;stroke-dasharray:none"
       d="m 278.65306,268.87088 c -0.55941,-4.25289 -4.85005,-9.01063 -5.62566,-13.18319 -0.40513,-5.49873 -2.18155,-9.27149 -5.43131,-13.972 -1.47174,-3.20172 -4.0079,-12.79451 -5.98882,-6.24759 -1.22903,4.3227 -2.77041,5.95285 -3.82446,11.14437 -2.07703,5.07744 -4.15039,7.54083 -4.98177,12.3742 -1.58195,3.09538 -5.68726,8.57949 -5.19327,9.99794"
       id="path2956-7"
       sodipodi:nodetypes="ccccccc" />
    <path
       style="fill:none;stroke:#80ff00;stroke-width:3.99999976;stroke-linecap:round;stroke-linejoin:round;stroke-miterlimit:4;stroke-opacity:1;stroke-dasharray:none"
       d="m 171.42468,232.95898 c 6.26071,0.31162 11.23103,-0.87315 17.28658,-1.28674 12.41002,0.34172 22.18534,1.91433 34.508,0.95822 7.66665,1.20052 17.70995,-0.51099 24.72589,-0.0527 6.43917,0.30451 17.45293,-0.40871 23.40508,1.31064"
       id="path2952-1" />
    <path
       style="fill:none;stroke:#80ff00;stroke-width:4;stroke-linecap:round;stroke-linejoin:round;stroke-miterlimit:4;stroke-opacity:1;stroke-dasharray:none"
       d="m 277.16981,225.95489 c 6.55157,-0.44757 12.57465,3.6032 18.74112,5.57792 5.62064,1.96849 9.5581,5.15222 14.84062,9.08621 4.44651,4.22963 10.83989,7.95643 18.61732,9.97554 6.58895,1.56462 13.32356,1.90327 20.22746,0.54504 3.97841,-0.53422 8.07041,-0.84269 11.37604,-2.92723 8.10671,-3.61391 14.51696,-9.03881 22.90852,-12.33678 3.20169,-1.88314 7.06638,-4.12423 7.70849,-4.56846 6.30099,-2.3886 7.57312,-9.29947 7.3501,-12.46292 -0.29458,0.32338 -0.12456,-1.56388 0.25217,-1.81805"
       id="path4123"
       sodipodi:nodetypes="cccccccccc" />
    <path
       style="fill:none;stroke:#80ff00;stroke-width:4;stroke-linecap:round;stroke-linejoin:round;stroke-miterlimit:4;stroke-opacity:1;stroke-dasharray:none"
       d="m 230.17244,196.68865 c -1.55403,3.05949 -2.85669,6.31151 -5.78702,8.54072 -3.1954,3.04059 -6.18026,6.31023 -9.88313,8.99136 -1.9625,2.02361 -5.85445,7.67678 -5.6062,2.21039 -1.40558,-4.27478 -2.2193,-8.44466 -2.02708,-12.6162 -0.21541,-4.38337 -0.81431,-9.34883 -0.1549,-13.2166 0.94176,-0.86076 -0.25526,-2.10711 0.49498,-3.04573"
       id="path2956" />
    <path
       style="color:#000000;fill:none;stroke:#80ff00;stroke-width:4;stroke-linecap:round;stroke-linejoin:round;stroke-miterlimit:4;stroke-opacity:1;stroke-dasharray:none;stroke-dashoffset:0;marker:none;visibility:visible;display:inline;overflow:visible;enable-background:accumulate"
       d="m 199.71641,216.31724 c 2.62743,0.90357 4.9087,2.19795 7.8293,2.37111 3.03109,0.18005 6.01805,0.78919 9.07142,1.32112 3.36313,0.58586 7.80271,0.88182 11.55763,1.42505 4.69024,0.67852 8.88649,2.1316 13.66069,2.69924 5.82125,0.69223 11.83563,0.0981 17.76784,0.0232 2.98305,-0.0376 5.91192,-0.35767 8.91722,-0.13642 2.31824,0.17083 6.79975,1.76199 9.01933,1.86057"
       id="path2833"
       sodipodi:nodetypes="csssssss" />
    <path
       style="color:#000000;fill:none;stroke:#80ff00;stroke-width:3.99999976;stroke-linecap:round;stroke-linejoin:round;stroke-miterlimit:4;stroke-opacity:1;stroke-dasharray:none;stroke-dashoffset:0;marker:none;visibility:visible;display:inline;overflow:visible;enable-background:accumulate"
       d="m 202.30052,201.63532 c -0.58334,-1.16273 -5.24084,0.89529 -7.54461,1.10931 -1.87226,0.17398 -3.78942,0.0547 -5.60961,0.4268 -2.0189,0.41285 -3.98042,1.11135 -6.01522,1.43508 -3.05451,0.486 -6.17515,0.66944 -9.27075,0.93933 -1.51341,0.13191 -2.9581,-0.37386 -4.33977,0.21371 -1.71587,0.73038 -5.0376,0.26646 -5.31932,1.52939 -0.26185,1.17407 2.7253,2.06717 3.6321,3.49688 2.91454,4.59511 5.55946,4.61754 8.67496,6.29942 2.19926,1.18722 4.54106,1.4506 6.59118,2.8204 2.24823,1.50224 3.91823,3.65372 6.14712,5.18612 1.40247,0.96428 3.03302,1.4076 4.46828,2.26114 2.14513,1.27563 1.5088,-1.66268 1.65494,-2.72144 0.27041,-1.95959 0.90843,-3.83727 1.28582,-5.77375 0.32599,-1.67366 1.40604,-3.13094 1.5994,-4.88431 0.20902,-1.89555 0.39967,-3.85749 1.05275,-5.64383 0.6253,-1.71022 1.37348,-3.4081 2.22386,-5.04936 0.41782,-0.8064 1.0633,-1.05793 0.76884,-1.64489 z"
       id="path2870"
       sodipodi:nodetypes="csssssssssssssssss" />
    <path
       style="fill:none;stroke:#80ff00;stroke-width:4;stroke-linecap:round;stroke-linejoin:round;stroke-miterlimit:4;stroke-opacity:1;stroke-dasharray:none"
       d="m 281.40559,194.92207 c -0.19998,0.58274 -2.33374,3.65835 -2.86624,5.20988 -1.73298,4.86714 -4.72554,6.57222 -6.35723,12.93966 -3.22213,4.78009 -4.99263,6.88231 -8.1121,10.63677 -1.13444,-3.91856 -2.08873,-7.90333 -3.26746,-11.80256 -1.35376,-6.03625 -2.81668,-5.61106 -5.78567,-12.32799 -1.05812,-1.19245 -1.89608,-3.38614 -4.65552,-5.68457"
       id="path2958-6"
       sodipodi:nodetypes="ccccccc" />
    <path
       style="fill:none;stroke:#008000;stroke-width:4;stroke-linecap:butt;stroke-linejoin:miter;stroke-miterlimit:4;stroke-opacity:1;stroke-dasharray:none;color:#000000;stroke-dashoffset:0;marker:none;visibility:visible;display:inline;overflow:visible;enable-background:accumulate"
       d="m 500.65242,270.74635 c -32.14481,-5.7047 -65.03398,-1.4905 -97.50784,-2.8376 -28.75233,-0.1816 -57.60067,-0.8085 -86.05527,3.8162 -48.72352,2.5707 -97.57209,0.3831 -146.34828,1.1428 -30.02432,-0.062 -60.05363,0.6329 -89.975935,-1.5482 -21.38344,-0.8946 -43.57746,3.0632 -64.37741,-3.189 -11.14672,-1.6839 -21.8435605,-7.3822 -33.33743,-6.5766"
       id="path4190" />
    <g
       id="g4206"
       transform="translate(49.000001,-1689)">
      <path
         sodipodi:open="true"
         inkscape:transform-center-y="29.238219"
         inkscape:transform-center-x="-32.091535"
         transform="matrix(-1.1013827,-0.07995262,0.0822745,-1.0703004,828.53981,2023.2186)"
         sodipodi:end="4.8040282"
         sodipodi:start="0.80631561"
         d="M 446.68696,263.77401 A 36.75,36.75 0 1 1 424.61303,200.6542"
         sodipodi:ry="36.75"
         sodipodi:rx="36.75"
         sodipodi:cy="237.25"
         sodipodi:cx="421.25"
         id="path3750"
         style="color:#000000;fill:none;stroke:#ffff00;stroke-width:3.67391968;stroke-linecap:round;stroke-linejoin:round;stroke-miterlimit:4;stroke-opacity:1;stroke-dasharray:none;stroke-dashoffset:0;marker:none;visibility:visible;display:inline;overflow:visible;enable-background:accumulate"
         sodipodi:type="arc" />
      <path
         transform="matrix(1.1044514,0,0,1.0732825,-83.736369,1479.1493)"
         sodipodi:open="true"
         sodipodi:end="4.0435768"
         sodipodi:start="0.73974463"
         sodipodi:type="arc"
         style="color:#000000;fill:none;stroke:#ffff00;stroke-width:3.67391968;stroke-linecap:round;stroke-linejoin:round;stroke-miterlimit:4;stroke-opacity:1;stroke-dasharray:none;stroke-dashoffset:0;marker:none;visibility:visible;display:inline;overflow:visible;enable-background:accumulate"
         id="path3752"
         sodipodi:cx="421.25"
         sodipodi:cy="237.25"
         sodipodi:rx="36.75"
         sodipodi:ry="36.75"
         d="M 448.39505,262.02315 A 36.75,36.75 0 1 1 398.463,208.41747" />
      <path
         id="path3761"
         d="m 322.30831,1709.1094 c -8.13811,-0.029 -40.64404,0.3559 -45,-4"
         style="color:#000000;fill:none;stroke:#ffff00;stroke-width:4;stroke-linecap:round;stroke-linejoin:round;stroke-miterlimit:4;stroke-opacity:1;stroke-dasharray:none;stroke-dashoffset:0;marker:none;visibility:visible;display:inline;overflow:visible;enable-background:accumulate" />
      <path
         id="path3763"
         d="m 315.30831,1742.1094 c -12.71827,4.4482 -26.1705,6.7235 -39,11 -2.62235,0.8741 -2.19105,2 -5,2"
         style="color:#000000;fill:none;stroke:#ffff00;stroke-width:4;stroke-linecap:round;stroke-linejoin:round;stroke-miterlimit:4;stroke-opacity:1;stroke-dasharray:none;stroke-dashoffset:0;marker:none;visibility:visible;display:inline;overflow:visible;enable-background:accumulate" />
      <path
         id="path3765-5"
         d="m 333.30831,1772.1094 c -0.33333,1 -0.34151,2.1769 -1,3 -2.6092,3.2615 -9.6974,8.2846 -13,12 -3.60502,4.0556 -7.49494,7.8576 -11,12 -1.55265,1.8349 -2.39201,4.2133 -4,6 -1.42782,1.5864 -3.49077,2.4907 -5,4 -1.24693,1.2469 -5.46157,7 -6,7"
         style="color:#000000;fill:none;stroke:#ffff00;stroke-width:4;stroke-linecap:round;stroke-linejoin:round;stroke-miterlimit:4;stroke-opacity:1;stroke-dasharray:none;stroke-dashoffset:0;marker:none;visibility:visible;display:inline;overflow:visible;enable-background:accumulate" />
      <path
         id="path3767"
         d="m 363.30831,1790.1094 c -0.87511,6.823 1.34586,14.2707 0,21 -1.16414,5.8207 -4.04117,11.247 -5,17 -0.49191,2.9514 -4,5.3041 -4,8"
         style="color:#000000;fill:none;stroke:#ffff00;stroke-width:4;stroke-linecap:round;stroke-linejoin:round;stroke-miterlimit:4;stroke-opacity:1;stroke-dasharray:none;stroke-dashoffset:0;marker:none;visibility:visible;display:inline;overflow:visible;enable-background:accumulate" />
      <path
         id="path3775-1"
         d="m 392.41114,1789.5232 c 6.19095,12.9305 1.35984,26.5182 2.13665,39.7546 0.0586,0.9983 0.82537,1.9044 0.75968,2.9023 -0.2523,3.8325 -2.06593,7.9035 -1.08411,11.6543"
         style="color:#000000;fill:none;stroke:#ffff00;stroke-width:4;stroke-linecap:round;stroke-linejoin:round;stroke-miterlimit:4;stroke-opacity:1;stroke-dasharray:none;stroke-dashoffset:0;marker:none;visibility:visible;display:inline;overflow:visible;enable-background:accumulate" />
    </g>
  </g>
</svg>
