<?xml version="1.0" encoding="UTF-8" standalone="no"?>
<!-- Created with Inkscape (http://www.inkscape.org/) -->

<svg
   xmlns:dc="http://purl.org/dc/elements/1.1/"
   xmlns:cc="http://creativecommons.org/ns#"
   xmlns:rdf="http://www.w3.org/1999/02/22-rdf-syntax-ns#"
   xmlns:svg="http://www.w3.org/2000/svg"
   xmlns="http://www.w3.org/2000/svg"
   xmlns:sodipodi="http://sodipodi.sourceforge.net/DTD/sodipodi-0.dtd"
   xmlns:inkscape="http://www.inkscape.org/namespaces/inkscape"
   width="480"
   height="320"
   id="svg2"
   version="1.1"
   inkscape:version="0.47 r22583"
   sodipodi:docname="itnas224.svg"
   inkscape:export-xdpi="90"
   inkscape:export-ydpi="90"
   inkscape:export-filename="itnas224.png">
  <defs
     id="defs4" />
  <sodipodi:namedview
     id="base"
     pagecolor="#ffffff"
     bordercolor="#666666"
     borderopacity="1.0"
     inkscape:pageopacity="1"
     inkscape:pageshadow="2"
     inkscape:zoom="1"
     inkscape:cx="349.52846"
     inkscape:cy="117.45999"
     inkscape:document-units="px"
     inkscape:current-layer="layer1"
     showgrid="false"
     inkscape:snap-nodes="true"
     inkscape:snap-global="false"
     inkscape:snap-grids="true"
     showguides="true"
     inkscape:window-width="1280"
     inkscape:window-height="998"
     inkscape:window-x="-4"
     inkscape:window-y="-4"
     inkscape:window-maximized="1">
    <inkscape:grid
       empspacing="5"
       visible="true"
       enabled="true"
       snapvisiblegridlinesonly="true"
       type="xygrid"
       id="grid2816" />
  </sodipodi:namedview>
  <metadata
     id="metadata7">
    <rdf:RDF>
      <cc:Work
         rdf:about="">
        <dc:format>image/svg+xml</dc:format>
        <dc:type
           rdf:resource="http://purl.org/dc/dcmitype/StillImage" />
        <dc:title></dc:title>
      </cc:Work>
    </rdf:RDF>
  </metadata>
  <g
     inkscape:label="Layer 1"
     inkscape:groupmode="layer"
     id="layer1"
     transform="translate(0,0)">
    <path
       style="fill:none;stroke:#80ff00;stroke-width:4;stroke-linecap:round;stroke-linejoin:round;stroke-miterlimit:4;stroke-opacity:1;stroke-dasharray:none"
       d="m 488.21397,308.61892 c 6.42685,1.34872 11.12327,6.88315 16.52157,10.45851 4.87468,3.42113 7.79938,7.55462 11.81479,12.77551 3.13055,5.27835 8.27134,10.60157 15.20798,14.65721 5.91629,3.29543 12.30575,5.45054 19.31901,6.01855 3.97396,0.56644 7.99591,1.381 11.74346,0.27264 8.78353,-1.27618 16.42627,-4.75604 25.39812,-5.6508 3.59282,-0.94273 7.92093,-2.04988 8.65955,-2.303 6.71289,-0.5874 9.81426,-6.89293 10.45885,-9.99804 -0.37133,0.23121 0.3049,-1.53892 0.7365,-1.68121"
       id="path4123"
       sodipodi:nodetypes="cccccccccc" />
    <path
       style="fill:none;stroke:#80ff00;stroke-width:4;stroke-linecap:round;stroke-linejoin:round;stroke-miterlimit:4;stroke-opacity:1;stroke-dasharray:none"
       d="m 450.9324,267.68788 c -2.3266,2.52237 -4.46357,5.29833 -7.88922,6.64783 -3.90114,2.05837 -7.66185,4.39438 -11.95374,5.96898 -2.43836,1.41449 -7.71947,5.79805 -5.99582,0.60459 -0.19167,-4.49585 0.15769,-8.72999 1.47582,-12.6925 0.98326,-4.2771 1.75555,-9.21856 3.4407,-12.76182 1.14015,-0.57261 0.32665,-2.09724 1.30362,-2.79679"
       id="path2956" />
    <path
       style="color:#000000;fill:none;stroke:#80ff00;stroke-width:4;stroke-linecap:round;stroke-linejoin:round;stroke-miterlimit:4;stroke-opacity:1;stroke-dasharray:none;stroke-dashoffset:0;marker:none;visibility:visible;display:inline;overflow:visible;enable-background:accumulate"
       d="m 416.28996,278.30638 c 2.28324,1.58323 4.12718,3.44858 6.89096,4.40849 2.86823,0.99655 5.57746,2.39409 8.37156,3.73535 3.07758,1.4773 7.26987,2.96798 10.7361,4.51067 4.32962,1.92692 7.97345,4.46513 12.41399,6.30815 5.4144,2.24733 11.36405,3.30911 17.0936,4.84827 2.88111,0.77404 5.78681,1.26152 8.61905,2.29072 2.18469,0.79407 6.06554,3.54265 8.17491,4.24038"
       id="path2833"
       sodipodi:nodetypes="csssssss" />
    <path
       style="color:#000000;fill:none;stroke:#80ff00;stroke-width:3.99999976;stroke-linecap:round;stroke-linejoin:round;stroke-miterlimit:4;stroke-opacity:1;stroke-dasharray:none;stroke-dashoffset:0;marker:none;visibility:visible;display:inline;overflow:visible;enable-background:accumulate"
       d="m 422.7647,264.87826 c -0.2456,-1.27746 -5.287,-0.56181 -7.56229,-0.98159 -1.84913,-0.34108 -3.66183,-0.97661 -5.51465,-1.11288 -2.05514,-0.15102 -4.13264,-0.0116 -6.17888,-0.25266 -3.07168,-0.36192 -6.12484,-1.03297 -9.17736,-1.61401 -1.49234,-0.28412 -2.74536,-1.16327 -4.23467,-0.97307 -1.84975,0.23688 -4.9206,-1.11182 -5.53476,0.0271 -0.5709,1.0588 2.06139,2.72968 2.54577,4.35194 1.55688,5.21399 4.09629,5.95396 6.63786,8.41881 1.79411,1.73994 3.97634,2.62948 5.57734,4.50462 1.75568,2.05641 2.77854,4.58059 4.50743,6.66078 1.08783,1.30896 2.53667,2.17849 3.68615,3.38978 1.71801,1.81031 1.90368,-1.19038 2.3319,-2.16964 0.79249,-1.81248 1.91652,-3.44627 2.8057,-5.20746 0.76831,-1.5222 2.20357,-2.63134 2.8659,-4.26627 0.71601,-1.76753 1.43239,-3.60392 2.54611,-5.14573 1.0663,-1.47609 2.24752,-2.90693 3.5117,-4.25551 0.62115,-0.6626 1.31069,-0.72936 1.18672,-1.37424 z"
       id="path2870"
       sodipodi:nodetypes="csssssssssssssssss" />
    <path
       style="fill:none;stroke:#80ff00;stroke-width:4;stroke-linecap:round;stroke-linejoin:round;stroke-miterlimit:4;stroke-opacity:1;stroke-dasharray:none"
       d="m 500.71937,279.90319 c -0.35074,0.50652 -3.23965,2.88696 -4.17355,4.23552 -2.98981,4.21347 -6.33297,5.04165 -9.6328,10.72653 -4.39932,3.72523 -6.67426,5.26753 -10.69621,8.03356 -0.0275,-4.07936 0.13677,-8.17353 0.0611,-12.24634 0.33665,-6.17702 -1.18676,-6.16516 -2.21974,-13.436 -0.69446,-1.43502 -0.90509,-3.77383 -2.93652,-6.73535"
       id="path2958-6"
       sodipodi:nodetypes="ccccccc" />
    <path
       style="color:#000000;fill:none;stroke:#008000;stroke-width:4;stroke-linecap:butt;stroke-linejoin:miter;stroke-miterlimit:4;stroke-opacity:1;stroke-dasharray:none;stroke-dashoffset:0;marker:none;visibility:visible;display:inline;overflow:visible;enable-background:accumulate"
       d="M 488.13437,314.57107 C 458.56136,300.74106 425.1845,298.23117 394.16582,288.52512 366.4402,280.90806 340.16061,267.52343 311.47861,264.62595 290.84487,262.11727 272.16426,253.6118 252.04606,248.72496 226.35411,238.29595 200.37473,230.40824 173.04718,223.54015 144.70901,213.29458 112.20239,208.92734 83.864175,199.07609 63.440897,192.67754 39.520586,198.13009 21.047566,186.70751 10.716486,182.196 1.8589605,173.92332 -9.4517696,171.72664"
       id="path4190"
       sodipodi:nodetypes="cccccccc" />
    <g
       id="g4206"
       transform="matrix(0,-1,1,0,-1688,429.99998)">
      <path
         sodipodi:open="true"
         inkscape:transform-center-y="29.238219"
         inkscape:transform-center-x="-32.091535"
         transform="matrix(-1.1013827,-0.07995262,0.0822745,-1.0703004,828.53981,2023.2186)"
         sodipodi:end="4.8040282"
         sodipodi:start="0.80631561"
         d="m 446.68696,263.77401 c -14.6488,14.04845 -37.91253,13.56176 -51.96097,-1.08705 -14.04845,-14.6488 -13.56176,-37.91253 1.08705,-51.96097 7.68698,-7.37195 18.19408,-11.04644 28.79999,-10.07179"
         sodipodi:ry="36.75"
         sodipodi:rx="36.75"
         sodipodi:cy="237.25"
         sodipodi:cx="421.25"
         id="path3750"
         style="color:#000000;fill:none;stroke:#ffff00;stroke-width:3.67391968;stroke-linecap:round;stroke-linejoin:round;stroke-miterlimit:4;stroke-opacity:1;stroke-dasharray:none;stroke-dashoffset:0;marker:none;visibility:visible;display:inline;overflow:visible;enable-background:accumulate"
         sodipodi:type="arc" />
      <path
         transform="matrix(1.1044514,0,0,1.0732825,-83.736369,1479.1493)"
         sodipodi:open="true"
         sodipodi:end="4.0435768"
         sodipodi:start="0.73974463"
         sodipodi:type="arc"
         style="color:#000000;fill:none;stroke:#ffff00;stroke-width:3.67391968;stroke-linecap:round;stroke-linejoin:round;stroke-miterlimit:4;stroke-opacity:1;stroke-dasharray:none;stroke-dashoffset:0;marker:none;visibility:visible;display:inline;overflow:visible;enable-background:accumulate"
         id="path3752"
         sodipodi:cx="421.25"
         sodipodi:cy="237.25"
         sodipodi:rx="36.75"
         sodipodi:ry="36.75"
         d="m 448.39505,262.02315 c -13.68184,14.99179 -36.9264,16.05373 -51.9182,2.3719 -14.99179,-13.68184 -16.05373,-36.9264 -2.3719,-51.9182 1.34047,-1.4688 2.79793,-2.82639 4.35805,-4.05938" />
      <path
         id="path3761"
         d="m 322.30831,1709.1094 c -8.13811,-0.029 -40.64404,0.3559 -45,-4"
         style="color:#000000;fill:none;stroke:#ff0000;stroke-width:4;stroke-linecap:round;stroke-linejoin:round;stroke-miterlimit:4;stroke-opacity:1;stroke-dasharray:none;stroke-dashoffset:0;marker:none;visibility:visible;display:inline;overflow:visible;enable-background:accumulate" />
      <path
         id="path3763"
         d="m 315.30831,1742.1094 c -12.71827,4.4482 -26.1705,6.7235 -39,11 -2.62235,0.8741 -2.19105,2 -5,2"
         style="color:#000000;fill:none;stroke:#ff0000;stroke-width:4;stroke-linecap:round;stroke-linejoin:round;stroke-miterlimit:4;stroke-opacity:1;stroke-dasharray:none;stroke-dashoffset:0;marker:none;visibility:visible;display:inline;overflow:visible;enable-background:accumulate" />
      <path
         id="path3765-5"
         d="m 333.30831,1772.1094 c -0.33333,1 -0.34151,2.1769 -1,3 -2.6092,3.2615 -9.6974,8.2846 -13,12 -3.60502,4.0556 -7.49494,7.8576 -11,12 -1.55265,1.8349 -2.39201,4.2133 -4,6 -1.42782,1.5864 -3.49077,2.4907 -5,4 -1.24693,1.2469 -5.46157,7 -6,7"
         style="color:#000000;fill:none;stroke:#ff0000;stroke-width:4;stroke-linecap:round;stroke-linejoin:round;stroke-miterlimit:4;stroke-opacity:1;stroke-dasharray:none;stroke-dashoffset:0;marker:none;visibility:visible;display:inline;overflow:visible;enable-background:accumulate" />
      <path
         id="path3767"
         d="m 363.30831,1790.1094 c -0.87511,6.823 1.34586,14.2707 0,21 -1.16414,5.8207 -4.04117,11.247 -5,17 -0.49191,2.9514 -4,5.3041 -4,8"
         style="color:#000000;fill:none;stroke:#ff0000;stroke-width:4;stroke-linecap:round;stroke-linejoin:round;stroke-miterlimit:4;stroke-opacity:1;stroke-dasharray:none;stroke-dashoffset:0;marker:none;visibility:visible;display:inline;overflow:visible;enable-background:accumulate" />
      <path
         id="path3775-1"
         d="m 392.41114,1789.5232 c 6.19095,12.9305 1.35984,26.5182 2.13665,39.7546 0.0586,0.9983 0.82537,1.9044 0.75968,2.9023 -0.2523,3.8325 -2.06593,7.9035 -1.08411,11.6543"
         style="color:#000000;fill:none;stroke:#ff0000;stroke-width:4;stroke-linecap:round;stroke-linejoin:round;stroke-miterlimit:4;stroke-opacity:1;stroke-dasharray:none;stroke-dashoffset:0;marker:none;visibility:visible;display:inline;overflow:visible;enable-background:accumulate" />
    </g>
    <path
       style="fill:none;stroke:#80ff00;stroke-width:3.99999976;stroke-linecap:round;stroke-linejoin:round;stroke-miterlimit:4;stroke-opacity:1;stroke-dasharray:none"
       d="m 177.926,162.19027 c -1.24997,1.39558 -1.54933,-2.26482 -2.95755,-0.5547 -2.8759,0.56334 -5.42603,-1.16033 -8.31465,-0.52572 -1.94758,-0.0143 -3.67388,-1.07497 -5.63249,-1.03435 -2.04734,-0.0319 -3.88938,-0.77801 -5.75422,-1.45696 -1.65164,-0.50759 -3.39774,-0.56222 -5.07898,-0.91227 -1.48944,0.57934 -2.65183,0.0925 -4.16668,0.56517 -1.82886,0.56208 -3.5553,-0.66616 -5.40619,0.32935 -0.13885,0.85722 1.3155,2.04418 1.80399,3.03199 1.73883,2.47886 3.47654,4.95923 5.21796,7.43493 1.40259,1.06037 2.33928,2.95498 4.09136,3.32424 1.26513,0.68265 2.15791,1.98753 3.25478,2.93652 1.10187,1.22188 2.46282,2.47365 3.72357,3.58815 1.18633,1.3238 2.53804,2.41669 3.4843,4.06888 0.74391,1.29229 1.70084,2.89473 2.97882,0.81209 1.20591,-1.27486 1.39872,-3.35529 2.61743,-4.63306 1.00184,-1.79315 2.39148,-3.19809 2.89821,-5.45538 1.21203,-1.72368 2.15157,-3.88926 3.61136,-5.31678 0.7953,-1.73446 1.98594,-3.2593 2.97352,-4.77859 0.29059,-0.33754 0.95445,-0.88719 0.65488,-1.42272 z"
       id="path2942"
       inkscape:transform-center-x="11.930147"
       inkscape:transform-center-y="-3.2551554" />
    <path
       style="fill:none;stroke:#80ff00;stroke-width:3.99999976;stroke-linecap:round;stroke-linejoin:round;stroke-miterlimit:4;stroke-opacity:1;stroke-dasharray:none"
       d="m 163.5258,208.89495 c 2.21239,-1.1259 4.31274,-2.05466 5.55451,-3.68623 3.85197,-5.18353 4.36882,-3.50433 9.10505,-11.1013 3.26277,-3.74232 9.62202,-11.66456 7.85257,-15.10945 -0.26704,-1.82168 -6.59354,0.004 -13.07324,4.58549 -6.90828,2.47704 -3.60991,2.7675 -13.64378,3.36728 -2.53065,0.27291 -6.48598,-0.43865 -8.34947,1.55736"
       id="path2958"
       sodipodi:nodetypes="ccccccc"
       inkscape:transform-center-x="16.624693"
       inkscape:transform-center-y="13.18343" />
    <path
       style="color:#000000;fill:none;stroke:#80ff00;stroke-width:4;stroke-linecap:round;stroke-linejoin:round;stroke-miterlimit:4;stroke-opacity:1;stroke-dasharray:none;stroke-dashoffset:0;marker:none;visibility:visible;display:inline;overflow:visible;enable-background:accumulate"
       d="m 268.98394,202.81761 c 16.42819,9.17486 22.6377,26.36536 41.84611,28.32036 10.41559,-2.70809 13.0611,-1.85639 20.50902,-16.43653 7.43367,-14.55224 -6.48438,-23.2963 -20.9151,-26.51014 -10.48602,-2.33533 -10.2925,-4.91386 -19.31653,-7.46204 -13.31218,-3.75905 -19.97531,-1.34235 -27.69444,-8.44007"
       id="path4125"
       sodipodi:nodetypes="ccssss" />
    <path
       style="fill:none;stroke:#80ff00;stroke-width:3.99999952;stroke-linecap:round;stroke-linejoin:round;stroke-miterlimit:4;stroke-opacity:1;stroke-dasharray:none"
       d="m 222.90792,203.13957 c 4.24741,0.59957 9.60367,-0.62649 13.83157,-0.25673 5.40648,1.08175 9.51712,0.38019 14.91604,-1.49254 3.47887,-0.56086 13.40047,-0.43635 7.62284,-4.09765 -3.83588,-2.34142 -4.99387,-4.26295 -9.7137,-6.66838 -4.33607,-3.36051 -7.43996,-5.49852 -12.32774,-5.09566 -3.3925,-0.75822 -9.72852,-3.36278 -10.97853,-2.52999"
       id="path2956-7"
       sodipodi:nodetypes="ccccccc"
       inkscape:transform-center-x="17.06274"
       inkscape:transform-center-y="-5.4752735" />
    <path
       style="fill:none;stroke:#80ff00;stroke-width:3.99999976;stroke-linecap:round;stroke-linejoin:round;stroke-miterlimit:4;stroke-opacity:1;stroke-dasharray:none"
       d="m 172.09173,175.79998 c 7.46683,0.6711 11.07444,0.56286 16.28074,3.23036 11.89891,3.54142 21.43432,10.09004 33.58467,12.35523 7.09485,3.14355 17.48896,1.58924 24.14734,3.84744 6.14103,1.9604 16.96422,4.12153 22.26872,7.32255"
       id="path2952-1"
       sodipodi:nodetypes="ccccc" />
  </g>
</svg>
