<?xml version="1.0" encoding="UTF-8" standalone="no"?>
<!-- Created with Inkscape (http://www.inkscape.org/) -->

<svg
   xmlns:dc="http://purl.org/dc/elements/1.1/"
   xmlns:cc="http://creativecommons.org/ns#"
   xmlns:rdf="http://www.w3.org/1999/02/22-rdf-syntax-ns#"
   xmlns:svg="http://www.w3.org/2000/svg"
   xmlns="http://www.w3.org/2000/svg"
   xmlns:sodipodi="http://sodipodi.sourceforge.net/DTD/sodipodi-0.dtd"
   xmlns:inkscape="http://www.inkscape.org/namespaces/inkscape"
   width="480"
   height="320"
   id="svg2"
   version="1.1"
   inkscape:version="0.47 r22583"
   sodipodi:docname="itnas101.svg"
   inkscape:export-xdpi="90"
   inkscape:export-ydpi="90"
   inkscape:export-filename="itnas101.png">
  <defs
     id="defs4" />
  <sodipodi:namedview
     id="base"
     pagecolor="#ffffff"
     bordercolor="#666666"
     borderopacity="1.0"
     inkscape:pageopacity="1"
     inkscape:pageshadow="2"
     inkscape:zoom="1"
     inkscape:cx="227.46505"
     inkscape:cy="153.4972"
     inkscape:document-units="px"
     inkscape:current-layer="layer1"
     showgrid="false"
     inkscape:snap-nodes="true"
     inkscape:snap-global="false"
     inkscape:snap-grids="false"
     showguides="true"
     inkscape:window-width="1280"
     inkscape:window-height="774"
     inkscape:window-x="-4"
     inkscape:window-y="-4"
     inkscape:window-maximized="1"
     inkscape:snap-to-guides="false"
     inkscape:object-nodes="true">
    <inkscape:grid
       empspacing="5"
       visible="true"
       enabled="true"
       snapvisiblegridlinesonly="true"
       type="xygrid"
       id="grid2816" />
  </sodipodi:namedview>
  <metadata
     id="metadata7">
    <rdf:RDF>
      <cc:Work
         rdf:about="">
        <dc:format>image/svg+xml</dc:format>
        <dc:type
           rdf:resource="http://purl.org/dc/dcmitype/StillImage" />
        <dc:title />
      </cc:Work>
    </rdf:RDF>
  </metadata>
  <g
     inkscape:label="Layer 1"
     inkscape:groupmode="layer"
     id="layer1"
     transform="translate(0,0)">
    <g
       transform="matrix(0.27340754,-0.96189829,0.96189829,0.27340754,-666.11035,362.13419)"
       id="g4295">
      <path
         id="path3379"
         style="fill:none;stroke:#00ff00;stroke-width:2;stroke-linecap:butt;stroke-linejoin:miter;stroke-miterlimit:4;stroke-opacity:1;stroke-dasharray:none"
         d="m 355.9297,715.24596 c 0,0 39.24793,-13.01169 39.24793,-13.01169 l -39.16834,-13.76569 c 0,0 -0.0796,26.77738 -0.0796,26.77738 l 1e-5,0 z"
         sodipodi:nodetypes="ccccc" />
      <g
         id="g4287">
        <path
           id="path3383"
           d="m 371.62036,708.72351 -0.0314,-13.73249"
           style="fill:none;stroke:#0000ff;stroke-width:2;stroke-linecap:butt;stroke-linejoin:bevel;stroke-miterlimit:4;stroke-opacity:1;stroke-dasharray:none" />
        <path
           id="path3385"
           d="m 376.18181,705.21741 0.0878,-6.72028"
           style="fill:none;stroke:#0000ff;stroke-width:2;stroke-linecap:butt;stroke-linejoin:bevel;stroke-miterlimit:4;stroke-opacity:1;stroke-dasharray:none" />
        <path
           style="color:#000000;fill:none;stroke:#0000ff;stroke-width:2;stroke-linecap:butt;stroke-linejoin:bevel;stroke-miterlimit:4;stroke-opacity:1;stroke-dasharray:none;stroke-dashoffset:0;marker:none;visibility:visible;display:inline;overflow:visible;enable-background:accumulate"
           d="m 353.79955,695.04474 c -1.74046,2.59236 -4.57365,5.20477 -5.72669,7.95796 -1.15304,2.75321 -0.1313,5.68189 2.47034,5.66704 2.60164,-0.0149 3.72687,-2.79593 2.86335,-5.66704 -0.86353,-2.8711 -3.98623,-5.06415 -6.232,-7.53595"
           id="path3030-6-4"
           sodipodi:nodetypes="czzzc" />
        <path
           style="color:#000000;fill:none;stroke:#0000ff;stroke-width:2;stroke-linecap:butt;stroke-linejoin:bevel;stroke-miterlimit:4;stroke-opacity:1;stroke-dasharray:none;stroke-dashoffset:0;marker:none;visibility:visible;display:inline;overflow:visible;enable-background:accumulate"
           d="m 366.35051,708.65083 c -2.13356,-3.95705 -5.08175,-4.05662 -7.74352,-0.088"
           id="rect10452-1-7-4-2-0"
           sodipodi:nodetypes="cc" />
        <path
           style="color:#000000;fill:none;stroke:#0000ff;stroke-width:2;stroke-linecap:butt;stroke-linejoin:bevel;stroke-miterlimit:4;stroke-opacity:1;stroke-dasharray:none;stroke-dashoffset:0;marker:none;visibility:visible;display:inline;overflow:visible;enable-background:accumulate"
           d="m 366.25372,695.06371 c -1.66338,4.19209 -5.97081,4.14958 -7.61852,0.0367"
           id="rect10452-1-4-4-0-7-9"
           sodipodi:nodetypes="cc" />
        <path
           style="color:#000000;fill:none;stroke:#0000ff;stroke-width:2;stroke-linecap:butt;stroke-linejoin:bevel;stroke-miterlimit:4;stroke-opacity:1;stroke-dasharray:none;stroke-dashoffset:0;marker:none;visibility:visible;display:inline;overflow:visible;enable-background:accumulate"
           d="m 357.79068,701.88677 9.33026,0.0884"
           id="rect10452-0-7-4-1-8" />
      </g>
    </g>
    <path
       id="path3379-1"
       style="fill:none;stroke:#00ff00;stroke-width:2;stroke-linecap:butt;stroke-linejoin:miter;stroke-miterlimit:4;stroke-opacity:1;stroke-dasharray:none"
       d="m 197.93901,118.55897 c 0,0 41.24708,-2.89541 41.24708,-2.89541 L 204.64201,92.63401 c 0,0 -6.70299,25.92498 -6.70299,25.92498 l 1e-5,-10e-6 z"
       sodipodi:nodetypes="ccccc" />
    <path
       sodipodi:nodetypes="ccccc"
       d="m 38.766056,161.47882 c 0,0 33.016436,-24.89216 33.016436,-24.89216 l -41.513881,-0.50129 c 0,0 8.497436,25.39346 8.497436,25.39346 l 9e-6,-10e-6 z"
       style="fill:none;stroke:#00ff00;stroke-width:2;stroke-linecap:butt;stroke-linejoin:miter;stroke-miterlimit:4;stroke-opacity:1;stroke-dasharray:none"
       id="path4697" />
    <g
       style="display:inline"
       id="g5142"
       transform="matrix(0.48036764,0.13873335,-0.13873335,0.48036764,-48.059335,79.596955)">
      <rect
         y="200"
         x="360"
         height="20"
         width="20"
         id="rect5063"
         style="color:#000000;fill:none;stroke:#59bbbc;stroke-width:4;stroke-linecap:butt;stroke-linejoin:bevel;stroke-miterlimit:4;stroke-opacity:1;stroke-dasharray:none;stroke-dashoffset:0;marker:none;visibility:visible;display:inline;overflow:visible;enable-background:accumulate" />
      <path
         id="path5065-9"
         d="m 370.49997,190.00003 -20.49999,19.99999 19.99999,20 20,-20 -19.5,-19.99999 z"
         style="fill:none;stroke:#59bbbc;stroke-width:4;stroke-linecap:butt;stroke-linejoin:bevel;stroke-miterlimit:4;stroke-opacity:1;stroke-dasharray:none;display:inline" />
      <rect
         y="190"
         x="350"
         height="40"
         width="40"
         id="rect5089"
         style="color:#000000;fill:none;stroke:#59bbbc;stroke-width:4;stroke-linecap:butt;stroke-linejoin:miter;stroke-miterlimit:4;stroke-opacity:1;stroke-dasharray:none;stroke-dashoffset:0;marker:none;visibility:visible;display:inline;overflow:visible;enable-background:accumulate" />
    </g>
    <path
       id="rect5864"
       style="color:#000000;fill:none;stroke:#000000;stroke-width:3;stroke-linecap:butt;stroke-linejoin:miter;stroke-miterlimit:4;stroke-dashoffset:0;stroke-opacity:1;marker:none;visibility:visible;display:inline;overflow:visible;enable-background:accumulate"
       d="m -3.951884,84.386243 402.759884,2.98e-4 3.9e-4,-38.036867 91.68481,0 m 0,157.684816 -91.68481,0 -3.9e-4,-38.18847 -250.34017,0.006 0,0 0,161.53405"
       sodipodi:nodetypes="cccccccccc" />
    <g
       id="g5933"
       transform="translate(-4.5,0.19209145)">
      <g
         id="g5137"
         style="display:inline"
         transform="translate(115,35)">
        <path
           sodipodi:type="arc"
           style="color:#000000;fill:none;stroke:#85ff99;stroke-width:2.66666675;stroke-linecap:butt;stroke-linejoin:miter;stroke-miterlimit:4;stroke-opacity:1;stroke-dasharray:none;stroke-dashoffset:0;marker:none;visibility:visible;display:inline;overflow:visible;enable-background:accumulate"
           id="path4662"
           sodipodi:cx="329.5"
           sodipodi:cy="90"
           sodipodi:rx="20"
           sodipodi:ry="20"
           d="m 349.5,90 c 0,11.04569 -8.95431,20 -20,20 -11.04569,0 -20,-8.95431 -20,-20 0,-11.045695 8.95431,-20 20,-20 11.04569,0 20,8.954305 20,20 z"
           transform="matrix(0.75,0,0,0.75,82.875,22.5)" />
        <path
           sodipodi:type="arc"
           style="color:#000000;fill:none;stroke:#85ff99;stroke-width:4.00000048;stroke-linecap:butt;stroke-linejoin:miter;stroke-miterlimit:4;stroke-opacity:1;stroke-dasharray:none;stroke-dashoffset:0;marker:none;visibility:visible;display:inline;overflow:visible;enable-background:accumulate"
           id="path4666"
           sodipodi:cx="330"
           sodipodi:cy="90"
           sodipodi:rx="10"
           sodipodi:ry="10"
           d="m 340,90 c 0,5.522847 -4.47715,10 -10,10 -5.52285,0 -10,-4.477153 -10,-10 0,-5.522847 4.47715,-10 10,-10 5.52285,0 10,4.477153 10,10 z"
           transform="matrix(0.5,0,0,0.5,165,45)" />
        <path
           sodipodi:type="arc"
           style="color:#000000;fill:none;stroke:#85ff99;stroke-width:2.00000024;stroke-linecap:butt;stroke-linejoin:miter;stroke-miterlimit:4;stroke-opacity:1;stroke-dasharray:none;stroke-dashoffset:0;marker:none;visibility:visible;display:inline;overflow:visible;enable-background:accumulate"
           id="path4666-3"
           sodipodi:cx="330"
           sodipodi:cy="90"
           sodipodi:rx="10"
           sodipodi:ry="10"
           d="m 340,90 c 0,5.522847 -4.47715,10 -10,10 -5.52285,0 -10,-4.477153 -10,-10 0,-5.522847 4.47715,-10 10,-10 5.52285,0 10,4.477153 10,10 z" />
      </g>
      <path
         sodipodi:nodetypes="cccc"
         id="rect5895"
         d="m 465.00006,125 0,19.99998 -40.00006,0 L 425,125"
         style="color:#000000;fill:none;stroke:#85ff99;stroke-width:2;stroke-linecap:butt;stroke-linejoin:miter;stroke-miterlimit:4;stroke-opacity:1;stroke-dasharray:none;stroke-dashoffset:0;marker:none;visibility:visible;display:inline;overflow:visible;enable-background:accumulate" />
    </g>
    <path
       style="color:#000000;fill:none;stroke:#ff0000;stroke-width:4;stroke-linecap:butt;stroke-linejoin:miter;stroke-miterlimit:4;stroke-opacity:1;stroke-dasharray:none;stroke-dashoffset:0;marker:none;visibility:visible;display:inline;overflow:visible;enable-background:accumulate"
       d="m 154.73506,325.18198 0,-153.08862 237.93408,0 0,37.72666 102.65916,0"
       id="path7067"
       sodipodi:nodetypes="ccccc" />
    <path
       sodipodi:nodetypes="cccc"
       id="path7293"
       d="m -14.970568,77.959771 407.639708,0 0,-37.72666 102.65916,0"
       style="color:#000000;fill:none;stroke:#ff0000;stroke-width:4;stroke-linecap:butt;stroke-linejoin:miter;stroke-miterlimit:4;stroke-opacity:1;stroke-dasharray:none;stroke-dashoffset:0;marker:none;visibility:visible;display:inline;overflow:visible;enable-background:accumulate" />
    <path
       style="fill:none;stroke:#000000;stroke-width:3;stroke-linecap:butt;stroke-linejoin:miter;stroke-opacity:1;color:#000000;stroke-miterlimit:4;stroke-dasharray:3,3;stroke-dashoffset:0;marker:none;visibility:visible;display:inline;overflow:visible;enable-background:accumulate"
       d="m 398.808,84.386541 0,81.459479"
       id="path2837" />
    <rect
       style="color:#000000;fill:none;stroke:#000000;stroke-width:2;stroke-linecap:butt;stroke-linejoin:miter;stroke-miterlimit:4;stroke-opacity:1;stroke-dasharray:2, 2;stroke-dashoffset:0;marker:none;visibility:visible;display:inline;overflow:visible;enable-background:accumulate"
       id="rect3652"
       width="8.1317205"
       height="80.963722"
       x="394.74213"
       y="84.634422" />
  </g>
</svg>
