<?xml version="1.0" encoding="UTF-8" standalone="no"?>
<!-- Created with Inkscape (http://www.inkscape.org/) -->

<svg
   xmlns:dc="http://purl.org/dc/elements/1.1/"
   xmlns:cc="http://creativecommons.org/ns#"
   xmlns:rdf="http://www.w3.org/1999/02/22-rdf-syntax-ns#"
   xmlns:svg="http://www.w3.org/2000/svg"
   xmlns="http://www.w3.org/2000/svg"
   xmlns:sodipodi="http://sodipodi.sourceforge.net/DTD/sodipodi-0.dtd"
   xmlns:inkscape="http://www.inkscape.org/namespaces/inkscape"
   width="480"
   height="320"
   id="svg2"
   version="1.1"
   inkscape:version="0.47 r22583"
   sodipodi:docname="itnas057.svg"
   inkscape:export-xdpi="90"
   inkscape:export-ydpi="90"
   inkscape:export-filename="itnas057.png">
  <defs
     id="defs4" />
  <sodipodi:namedview
     id="base"
     pagecolor="#ffffff"
     bordercolor="#666666"
     borderopacity="1.0"
     inkscape:pageopacity="1"
     inkscape:pageshadow="2"
     inkscape:zoom="1"
     inkscape:cx="229.85264"
     inkscape:cy="172.71226"
     inkscape:document-units="px"
     inkscape:current-layer="layer1"
     showgrid="false"
     inkscape:snap-nodes="true"
     inkscape:snap-global="false"
     inkscape:snap-grids="true"
     showguides="true"
     inkscape:window-width="1280"
     inkscape:window-height="774"
     inkscape:window-x="-4"
     inkscape:window-y="-4"
     inkscape:window-maximized="1">
    <inkscape:grid
       empspacing="5"
       visible="true"
       enabled="true"
       snapvisiblegridlinesonly="true"
       type="xygrid"
       id="grid2816" />
  </sodipodi:namedview>
  <metadata
     id="metadata7">
    <rdf:RDF>
      <cc:Work
         rdf:about="">
        <dc:format>image/svg+xml</dc:format>
        <dc:type
           rdf:resource="http://purl.org/dc/dcmitype/StillImage" />
        <dc:title></dc:title>
      </cc:Work>
    </rdf:RDF>
  </metadata>
  <g
     inkscape:label="Layer 1"
     inkscape:groupmode="layer"
     id="layer1"
     transform="translate(0,0)">
    <path
       style="color:#000000;fill:none;stroke:#008000;stroke-width:4;stroke-linecap:butt;stroke-linejoin:miter;stroke-miterlimit:4;stroke-opacity:1;stroke-dasharray:none;stroke-dashoffset:0;marker:none;visibility:visible;display:inline;overflow:visible;enable-background:accumulate"
       d="m 501.33871,312.22183 c -12.59246,-1.08022 -25.65197,1.56647 -38.18377,0 -6.57891,-0.82237 -13.15991,-2.16452 -19.79899,-2.82843 -4.60517,-0.46052 -9.50428,0 -14.14213,0 -11.07801,0 -22.15601,0 -33.23402,0 -30.4056,0 -60.81119,0 -91.21678,0 -39.12657,0 -78.25315,0 -117.37972,0 -12.96363,0 -25.92725,0 -38.89088,0 -5.79521,0 -11.91353,-0.57641 -17.67767,0 -8.25305,0.82531 -16.45252,2.13708 -24.74873,2.82843 -6.962231,0.58018 -14.225351,0 -21.213211,0 -7.75273,0 -15.76815,0.55395 -23.33452,-0.70711 -6.66743,-1.11124 -14.45166,0 -21.2132,0 -15.55635,0 -31.1127,0 -46.66905,0"
       id="path3669" />
    <path
       style="color:#000000;fill:none;stroke:#c87137;stroke-width:4;stroke-linecap:round;stroke-linejoin:round;stroke-miterlimit:4;stroke-opacity:1;stroke-dasharray:none;stroke-dashoffset:0;marker:none;visibility:visible;display:inline;overflow:visible;enable-background:accumulate"
       d="m 208.02411,305.53401 c -4.81501,-0.57835 -10.19877,1.93609 -14.50582,0.16047 -3.72314,-1.5349 -7.62424,-4.68845 -8.67719,-9.19831 -1.4335,-6.13985 -3.0566,-12.24703 -4.50491,-18.38854 -2.14412,-9.09205 -0.5436,-18.44227 -0.97443,-27.66057 -0.2159,-4.6197 2.32201,-8.88343 2.18456,-13.5754 -0.19392,-6.61925 -0.43967,-13.24236 -0.0182,-19.87042 0.22479,-3.53511 -0.056,-7.16683 -1.79976,-10.39323 -1.05645,-1.95468 -0.16871,-4.34704 -0.18676,-6.49939"
       id="path2832"
       sodipodi:nodetypes="cssssssss" />
    <path
       style="color:#000000;fill:none;stroke:#c87137;stroke-width:4;stroke-linecap:round;stroke-linejoin:round;stroke-miterlimit:4;stroke-opacity:1;stroke-dasharray:none;stroke-dashoffset:0;marker:none;visibility:visible;display:inline;overflow:visible;enable-background:accumulate"
       d="m 150.12395,204.86949 c 0.45761,3.71047 0.81571,7.426 1.32187,11.16764 0.65961,4.87606 0,10.42792 0,15.35551 0,11.21612 1.21952,23.46559 -1.32187,34.20092 -1.34892,5.69814 1.57039,20.15198 0,25.12722 -2.48739,7.88042 -10.57713,11.51778 -17.84516,15.35549 -1.06949,0.56473 -3.99913,0 -5.28746,0"
       id="path2850"
       sodipodi:nodetypes="cssssss" />
    <path
       style="fill:none;stroke:#00ffff;stroke-width:4;stroke-linecap:round;stroke-linejoin:round;stroke-miterlimit:4;stroke-opacity:1;stroke-dasharray:none"
       d="m 181.10813,201.10086 c 5.57492,3.75806 6.17758,6.51685 12.79781,7.15693 7.75186,0.74949 15.22283,-2.18119 21.79884,-4.95071 12.3442,-5.1988 -10.99637,-22.35055 0.0338,-13.28145 4.6311,3.80772 6.22193,3.14912 11.99162,3.38355 6.17275,0.25079 8.29642,0.38058 10.34326,-8.25737 2.18202,-9.20837 2.28338,-19.02791 0.53047,-28.21275 -0.63354,-3.31965 -5.07145,-6.67616 -7.61623,-6.96726 -11.77075,-1.34647 -7.24756,-0.0525 1.95857,-3.63918 4.98221,-1.94103 18.34195,-9.96652 11.18428,-15.63568 -5.38827,-4.26772 -13.40953,-6.58189 -20.282,-3.71336 -3.06544,1.2795 -8.47851,2.13371 -9.79906,5.11936 -4.17045,9.42903 -2.2461,7.60092 -1.32277,-2.68328 0.50703,-5.64728 -4.14158,-17.08417 -6.09296,-18.41097 -0.50219,-0.34145 -3.98408,-4.59066 -7.64068,-5.80405 -4.13162,-1.37103 -6.7415,2.31199 -12.47332,8.09765 -3.15908,3.18875 -2.99312,9.5257 -1.60913,-0.008 0.0978,-0.67365 -3.93119,-6.77869 -4.85321,-8.09135 -4.79747,-6.830044 -9.41373,-7.235896 -16.45222,-12.321695 -6.58524,-4.758295 -15.71316,-5.194427 -22.71319,-3.776109 -5.47436,1.109196 -8.01228,9.952369 -11.33761,15.260964 -4.07044,6.49809 4.29016,27.92875 -0.28453,21.07533 -1.51293,-2.26654 -7.93569,-13.63002 -12.93437,-19.24944 -5.99962,-6.74467 -11.15907,2.54163 -16.1178,5.69854 -6.658941,4.23931 -12.366911,9.20706 -14.747211,17.818 -2.16295,7.82468 -3.16337,16.93316 4.90371,21.72868 2.20482,1.31066 17.885651,11.76776 8.95287,6.75224 -4.47636,-2.51336 -10.87128,1.38261 -14.48994,4.51697 -4.46983,3.87161 -7.92615,8.2674 -8.5142,15.00635 -0.72481,8.30614 7.01742,11.93004 13.85228,13.36251 7.29362,1.5286 19.106991,7.7638 21.435491,6.63764 5.55927,-2.68869 -8.97961,7.54457 -13.464941,11.59267 -4.92313,4.44322 -7.02194,14.87496 1.30809,16.81426 9.736811,2.26681 20.416821,5.93835 29.988811,2.68965 6.9539,-2.36013 12.26276,-8.85377 15.44927,-15.14473 1.47891,-2.91973 2.41226,-18.3039 4.102,-11.68725 1.48945,5.83238 8.43941,9.18945 13.38547,12.85217 8.31132,6.15479 15.92018,-7.64371 15.87985,-12.12514 -0.0339,-3.76415 -3.38396,-5.80547 2.84884,-1.60394 l 4e-5,2.5e-4 z"
       id="path2827"
       sodipodi:nodetypes="cssssssssssssssssssssssssssssssssssssssc" />
    <path
       style="fill:none;stroke:#80ff00;stroke-width:3.99999976;stroke-linecap:round;stroke-linejoin:round;stroke-miterlimit:4;stroke-opacity:1;stroke-dasharray:none"
       d="m 222.90628,62.269509 c -0.87088,1.658812 2.6634,0.660556 1.55296,2.577447 0.47683,2.891501 2.98276,4.678821 3.39724,7.607125 0.69377,1.819867 2.29068,3.066912 2.93683,4.916289 0.74512,1.907176 2.08772,3.372543 3.37536,4.882698 1.05259,1.370272 1.71376,2.987274 2.62909,4.44029 -0.0225,1.598005 0.83972,2.517069 0.92602,4.101606 0.11224,1.909997 1.8662,3.098591 1.58001,5.180633 -0.7547,0.42954 -2.37493,-0.518512 -3.47117,-0.631127 -2.93012,-0.763311 -5.86127,-1.525022 -8.78934,-2.291877 -1.48352,-0.943855 -3.58602,-1.159605 -4.54374,-2.672894 -1.08161,-0.946965 -2.61612,-1.327624 -3.88851,-2.023882 -1.52983,-0.605594 -3.17817,-1.443492 -4.66287,-2.235475 -1.65485,-0.649129 -3.15109,-1.5339 -5.02976,-1.843374 -1.47075,-0.245566 -3.30651,-0.582419 -1.80154,-2.507431 0.77328,-1.575286 2.6553,-2.482676 3.42678,-4.07103 1.33023,-1.565108 2.16115,-3.35803 4.0992,-4.621387 1.19173,-1.737818 2.89262,-3.374697 3.72022,-5.241179 1.34742,-1.351063 2.3602,-2.999432 3.43875,-4.455529 0.21457,-0.39033 0.49788,-1.204264 1.10434,-1.110628 z"
       id="path2942"
       inkscape:transform-center-x="-10.061186"
       inkscape:transform-center-y="5.9794533" />
    <path
       style="fill:none;stroke:#80ff00;stroke-width:3.99999976;stroke-linecap:round;stroke-linejoin:round;stroke-miterlimit:4;stroke-opacity:1;stroke-dasharray:none"
       d="m 178.20623,108.87565 c 0.3047,-4.2786 0.2264,-8.6569 2.5195,-12.6473 2.2045,-5.0537 4.0553,-10.269 7.0189,-15.155 1.2781,-3.2837 3.0166,-11.6849 5.3845,-5.2678 3.6944,4.2416 6.6561,8.6497 8.4599,13.5481 2.3762,4.9445 5.4767,10.3733 6.5949,15.1486 -0.6669,1.4487 1.317,2.3032 0.9085,3.7486"
       id="path2956" />
    <path
       style="fill:none;stroke:#80ff00;stroke-width:3.99999976;stroke-linecap:round;stroke-linejoin:round;stroke-miterlimit:4;stroke-opacity:1;stroke-dasharray:none"
       d="m 98.552829,112.18315 c 0.2116,-0.7405 1.3487,-4.719 1.912201,-6.6904 1.8457,-6.1887 5.912,-8.0705 9.7431,-15.4624 1.5006,-4.4095 6.8881,-12.6734 8.1065,-14.912 1.6718,4.8175 3.123,9.7293 4.8488,14.5198 2.0837,7.4468 5.6499,14.1126 12.225,19.21 0.9567,0.5356 3.2507,1.0097 1.9839,2.5939"
       id="path2958" />
    <path
       style="color:#000000;fill:none;stroke:#80ff00;stroke-width:4;stroke-linecap:round;stroke-linejoin:round;stroke-miterlimit:4;stroke-opacity:1;stroke-dasharray:none;stroke-dashoffset:0;marker:none;visibility:visible;display:inline;overflow:visible;enable-background:accumulate"
       d="m 211.42889,72.638679 c -3.64747,-0.9537 -6.67803,-2.2143 -10.67228,-2.1887 -4.14536,0.027 -8.26115,0.5925 -12.462,1.0573 -4.62701,0.5119 -10.70099,0.5917 -15.85908,1.0248 -6.44295,0.541 -12.26764,2.0811 -18.8172,2.4782 -7.98598,0.4843 -16.14354,-0.6496 -24.22613,-1.1303 -4.06437,-0.2417 -8.03475,-0.8322 -12.14792,-0.7521 -3.17282,0.062 -10.12028,0.651 -12.42942,1.7341"
       id="path2833"
       sodipodi:nodetypes="csssssss" />
    <path
       style="color:#000000;fill:none;stroke:#80ff00;stroke-width:3.99999976;stroke-linecap:round;stroke-linejoin:round;stroke-miterlimit:4;stroke-opacity:1;stroke-dasharray:none;stroke-dashoffset:0;marker:none;visibility:visible;display:inline;overflow:visible;enable-background:accumulate"
       d="m 104.70696,75.31685 c -14.389536,3.967138 -21.329007,0.93469 -32.71153,8.445748 -3.589739,2.368784 -8.76898,10.184217 -11.315565,15.875252 -4.957831,11.07962 -8.302247,15.00076 -12.335077,27.9914 -3.10491,10.0016 -7.261213,12.61048 -4.895949,24.1482 1.904465,9.28994 8.087556,16.92902 16.086243,19.9169 9.947604,3.71589 18.318469,14.5897 29.545858,23.0665"
       id="path4125-8"
       sodipodi:nodetypes="cssssss" />
    <path
       sodipodi:type="arc"
       style="color:#000000;fill:none;stroke:#ffff00;stroke-width:3.67391965;stroke-linecap:round;stroke-linejoin:round;stroke-miterlimit:4;stroke-opacity:1;stroke-dasharray:none;stroke-dashoffset:0;marker:none;visibility:visible;display:inline;overflow:visible;enable-background:accumulate"
       id="path3750"
       sodipodi:cx="421.25"
       sodipodi:cy="237.25"
       sodipodi:rx="36.75"
       sodipodi:ry="36.75"
       d="M 446.68696,263.77401 A 36.75,36.75 0 1 1 424.61303,200.6542"
       sodipodi:start="0.80631561"
       sodipodi:end="4.8040282"
       transform="matrix(-1.1013827,-0.07995262,0.0822745,-1.0703004,877.2315,340.10922)"
       inkscape:transform-center-x="-32.091535"
       inkscape:transform-center-y="29.238219"
       sodipodi:open="true" />
    <path
       d="M 448.39505,262.02315 A 36.75,36.75 0 1 1 398.463,208.41747"
       sodipodi:ry="36.75"
       sodipodi:rx="36.75"
       sodipodi:cy="237.25"
       sodipodi:cx="421.25"
       id="path3752"
       style="color:#000000;fill:none;stroke:#ffff00;stroke-width:3.67391972;stroke-linecap:round;stroke-linejoin:round;stroke-miterlimit:4;stroke-opacity:1;stroke-dasharray:none;stroke-dashoffset:0;marker:none;visibility:visible;display:inline;overflow:visible;enable-background:accumulate"
       sodipodi:type="arc"
       sodipodi:start="0.73974463"
       sodipodi:end="4.0435768"
       sodipodi:open="true"
       transform="matrix(1.1044514,0,0,1.0732825,-35.044681,-203.96009)" />
    <path
       style="fill:none;stroke:#ffff00;stroke-width:4;stroke-linecap:round;stroke-linejoin:round;stroke-opacity:1;color:#000000;stroke-miterlimit:4;stroke-dasharray:none;stroke-dashoffset:0;marker:none;visibility:visible;display:inline;overflow:visible;enable-background:accumulate"
       d="m 371,26 c -8.13811,-0.02918 -40.64404,0.355965 -45,-4"
       id="path3761" />
    <path
       style="fill:none;stroke:#ffff00;stroke-width:4;stroke-linecap:round;stroke-linejoin:round;stroke-opacity:1;color:#000000;stroke-miterlimit:4;stroke-dasharray:none;stroke-dashoffset:0;marker:none;visibility:visible;display:inline;overflow:visible;enable-background:accumulate"
       d="m 364,59 c -12.71827,4.448213 -26.1705,6.723499 -39,11 -2.62235,0.874117 -2.19105,2 -5,2"
       id="path3763" />
    <path
       style="fill:none;stroke:#ffff00;stroke-width:4;stroke-linecap:round;stroke-linejoin:round;stroke-opacity:1;color:#000000;stroke-miterlimit:4;stroke-dasharray:none;stroke-dashoffset:0;marker:none;visibility:visible;display:inline;overflow:visible;enable-background:accumulate"
       d="m 382,89 c -0.33333,1 -0.34151,2.176892 -1,3 -2.6092,3.261506 -9.6974,8.28458 -13,12 -3.60502,4.05565 -7.49494,7.85766 -11,12 -1.55265,1.83495 -2.39201,4.21334 -4,6 -1.42782,1.58647 -3.49077,2.49077 -5,4 -1.24693,1.24693 -5.46157,7 -6,7"
       id="path3765" />
    <path
       style="fill:none;stroke:#ffff00;stroke-width:4;stroke-linecap:round;stroke-linejoin:round;stroke-opacity:1;color:#000000;stroke-miterlimit:4;stroke-dasharray:none;stroke-dashoffset:0;marker:none;visibility:visible;display:inline;overflow:visible;enable-background:accumulate"
       d="m 412,107 c -0.87511,6.82304 1.34586,14.27072 0,21 -1.16414,5.82068 -4.04117,11.24703 -5,17 -0.49191,2.95146 -4,5.30412 -4,8"
       id="path3767" />
    <path
       style="fill:none;stroke:#ffff00;stroke-width:4;stroke-linecap:round;stroke-linejoin:round;stroke-opacity:1;color:#000000;stroke-miterlimit:4;stroke-dasharray:none;stroke-dashoffset:0;marker:none;visibility:visible;display:inline;overflow:visible;enable-background:accumulate"
       d="m 441.10283,106.41378 c 6.19095,12.93054 1.35984,26.51829 2.13665,39.75468 0.0586,0.99828 0.82537,1.90438 0.75968,2.90222 -0.2523,3.83253 -2.06593,7.90357 -1.08411,11.65439"
       id="path3775" />
    <path
       style="fill:none;stroke:#0000ff;stroke-width:4;stroke-linecap:round;stroke-linejoin:round;stroke-miterlimit:4;stroke-opacity:1;stroke-dasharray:none"
       d="m 191.70017,116.81585 c -2.3518,0.1417 -3.143,2.1737 -3.9697,3.4318 -1.832,1.7184 -1.1944,2.3784 -2.8355,4.5757 -0.091,1.9654 -1.202,3.5113 -0.8506,5.6591 -0.3259,3.1406 2.2267,5.7915 4.3975,7.6565 1.7996,1.0762 3.4568,2.301 5.657,2.1273 1.5536,-0.1232 3.305,0.2747 4.7017,-0.2619 1.6701,-1.8922 5.1419,-2.6222 6.1358,-4.2968 0.1171,-1.855 0.084,-3.6988 0.3741,-5.4995 -3e-4,-2.7482 4e-4,-5.4964 0,-8.2445 -1.0516,-0.9901 -1.5614,-2.5441 -2.7589,-2.8598 -0.6613,-0.677 -2.3021,-0.3764 -3.1823,-0.8765 -2.2722,-0.9549 -5.0428,-0.7026 -7.6691,-1.4114 z"
       id="path2905" />
    <path
       style="fill:none;stroke:#0000ff;stroke-width:4;stroke-linecap:round;stroke-linejoin:round;stroke-miterlimit:4;stroke-opacity:1;stroke-dasharray:none"
       d="m 193.96857,142.26805 c 0.4616,2.4965 -1.4538,5.5017 -0.7455,6.4704 -1.0087,3.7438 -1.3118,7.6778 -2.3689,11.4047 -1.1105,3.1715 -0.9517,6.513 -1.4224,9.5789 0,1.5253 0,3.0505 0,4.5757"
       id="path2907" />
    <path
       id="path2863"
       style="color:#000000;fill:none;stroke:#0000ff;stroke-width:4;stroke-linecap:round;stroke-linejoin:round;stroke-miterlimit:4;stroke-opacity:1;stroke-dasharray:none;stroke-dashoffset:0;marker:none;visibility:visible;display:inline;overflow:visible;enable-background:accumulate"
       d="m 162.82806,210.15567 c 0,-0.51887 0.57653,-3.21322 0.75,-3.73071 0.49967,-1.49053 0.73975,-3.06008 1.25,-4.58219 0.82106,-2.44925 0.48291,-4.12602 1.1875,-6.58255 0.6992,-2.43774 1.02186,-5.02593 2.5625,-7.37735 1.00477,-1.53353 1.62303,-3.4065 2.0625,-3.59234 2.33334,-0.98668 4.85968,-2.53555 7.1875,-3.41267 3.72398,-1.40321 7.97801,-2.68688 11.68122,-4.77954 m -0.17678,0.46184 c 1.44569,0.01 2.42984,0.51662 3.8931,0.85238 4.29135,0.98476 8.80928,2.21828 12.60913,4.36296 1.94681,1.09882 2.13466,4.66935 3.20482,7.31093 1.2132,2.99468 2.65572,5.32119 3.88781,8.12806 1.06399,2.4239 1.38685,4.21965 2.2066,6.75857 0.85959,2.66231 2.15236,5.14014 3.09974,7.75525" />
    <path
       style="color:#000000;fill:none;stroke:#c87137;stroke-width:4;stroke-linecap:round;stroke-linejoin:round;stroke-miterlimit:4;stroke-opacity:1;stroke-dasharray:none;stroke-dashoffset:0;marker:none;visibility:visible;display:inline;overflow:visible;enable-background:accumulate"
       d="m 218.68464,141.87484 c -0.003,2.36304 -0.0743,4.64419 0.57573,6.95272 0.2016,0.71603 0.79824,1.0504 1.15149,1.63592 0.50347,0.83452 0.60445,2.0857 1.1515,2.86289 0.21456,0.30483 0.60014,0.19503 0.86361,0.40899 0.91623,0.74383 1.8515,2.37642 2.87871,2.86286 2.66412,1.26166 5.58249,1.22695 8.34828,1.22695 2.11306,0 4.2816,0.36867 6.0453,-1.63591 3.371,-3.83139 1.85546,-5.04532 2.87872,-9.40663 0.64423,-2.74582 2.01509,-3.88474 2.01509,-6.54371"
       id="path2928" />
    <path
       style="color:#000000;fill:none;stroke:#ff0000;stroke-width:4;stroke-linecap:butt;stroke-linejoin:miter;stroke-miterlimit:4;stroke-opacity:1;stroke-dasharray:none;stroke-dashoffset:0;marker:none;visibility:visible;display:inline;overflow:visible;enable-background:accumulate"
       d="m 228.63388,141.92417 c -0.55162,-0.14386 -2.70854,-0.54146 -3.25,0 -1.1357,1.1357 -1.85283,1.37923 -2,3.25 -0.11114,1.41275 0.12027,1.81469 1.25,2.25 1.68967,0.65107 2.91058,0.059 4.25,-1 0.81117,-0.64134 0.59532,-0.62629 1,-1.25 0.75085,-1.15723 -0.29725,-3.00153 -1.25,-3.25 z"
       id="path3727"
       sodipodi:nodetypes="cssssss" />
    <path
       style="color:#000000;fill:none;stroke:#0000ff;stroke-width:4;stroke-linecap:round;stroke-linejoin:round;stroke-miterlimit:4;stroke-opacity:1;stroke-dasharray:none;stroke-dashoffset:0;marker:none;visibility:visible;display:inline;overflow:visible;enable-background:accumulate"
       d="m 165.48959,127.4948 c 0.72215,1.55746 3.38392,1.87228 4.17596,3.32322 0.23017,0.42164 1.91567,2.94436 2.03658,3.44454 1.14861,4.75146 0.17273,2.87238 3.55784,4.92894 0.66567,0.40441 2.77971,2.15864 3.4702,2.47487 0.48825,0.22361 2.59352,1.6381 3.02175,2.03033 0.1887,0.17284 9.43699,5.60171 9.58371,5.8033 0.41126,0.56503 6.76247,-1.21638 7.67581,-0.7981 2.91457,1.3348 4.27884,0.88028 7.245,0.2981 3.75802,-0.7376 4.04415,-0.42981 7.48405,-2.79289 0.96736,-0.66454 6.37732,-2.34322 7.43676,-2.70711 1.02364,-0.3516 3.07784,-1.41069 3.63543,-2.17678 0.1418,-0.19482 2.05865,-1.5181 2.18732,-1.82322"
       id="path2879"
       sodipodi:nodetypes="cssssssssssss" />
    <path
       style="color:#000000;fill:none;stroke:#ff0000;stroke-width:4;stroke-linecap:butt;stroke-linejoin:miter;stroke-miterlimit:4;stroke-opacity:1;stroke-dasharray:none;stroke-dashoffset:0;marker:none;visibility:visible;display:inline;overflow:visible;enable-background:accumulate"
       d="m 236.10983,146.91161 c -1.17919,-0.26731 -4.13885,1.85619 -4.25,3.125 -0.0715,0.81582 1.06465,2.91481 1.625,3.125 0.94947,0.35615 2.2845,0.25445 3.25,0 0.46759,-0.12323 0.74061,-1.48123 1,-2 0.23977,-0.47954 0.30427,-1.82385 0,-2.25 -0.48017,-0.67251 -0.42129,-1.72714 -1.625,-2 z"
       id="path3729"
       sodipodi:nodetypes="cssssss" />
    <path
       style="color:#000000;fill:none;stroke:#ff0000;stroke-width:4;stroke-linecap:butt;stroke-linejoin:miter;stroke-miterlimit:4;stroke-opacity:1;stroke-dasharray:none;stroke-dashoffset:0;marker:none;visibility:visible;display:inline;overflow:visible;enable-background:accumulate"
       d="m 235.5481,137.28033 c -0.59759,0.21188 -1.33988,0.58988 -1.75,1 -0.62596,0.62596 -0.42871,2.26948 -0.14645,3.11612 0.20158,0.60463 0.62294,0.79549 1.14645,0.88388 0.57549,0.0972 2.07673,0.32349 2.5,0 0.40656,-0.31071 1.25456,-0.78784 1.5,-1.5 0.32064,-0.93035 0.24963,-1.4406 0,-2.25 -0.20992,-0.68064 -0.67978,-1.24879 -1,-1.5 -0.29149,-0.22867 -0.93595,-0.21591 -2.25,0.25 z"
       id="path3733"
       sodipodi:nodetypes="cssssssss" />
  </g>
</svg>
