<?xml version="1.0" encoding="UTF-8" standalone="no"?>
<!-- Created with Inkscape (http://www.inkscape.org/) -->

<svg
   xmlns:dc="http://purl.org/dc/elements/1.1/"
   xmlns:cc="http://creativecommons.org/ns#"
   xmlns:rdf="http://www.w3.org/1999/02/22-rdf-syntax-ns#"
   xmlns:svg="http://www.w3.org/2000/svg"
   xmlns="http://www.w3.org/2000/svg"
   xmlns:sodipodi="http://sodipodi.sourceforge.net/DTD/sodipodi-0.dtd"
   xmlns:inkscape="http://www.inkscape.org/namespaces/inkscape"
   width="480"
   height="320"
   id="svg2"
   version="1.1"
   inkscape:version="0.47 r22583"
   sodipodi:docname="itnas183.svg"
   inkscape:export-xdpi="90"
   inkscape:export-ydpi="90"
   inkscape:export-filename="itnas183.png">
  <defs
     id="defs4" />
  <sodipodi:namedview
     id="base"
     pagecolor="#ffffff"
     bordercolor="#666666"
     borderopacity="1.0"
     inkscape:pageopacity="1"
     inkscape:pageshadow="2"
     inkscape:zoom="1"
     inkscape:cx="204.14509"
     inkscape:cy="185.96575"
     inkscape:document-units="px"
     inkscape:current-layer="layer1"
     showgrid="false"
     inkscape:snap-nodes="true"
     inkscape:snap-global="false"
     inkscape:snap-grids="true"
     showguides="true"
     inkscape:window-width="1280"
     inkscape:window-height="998"
     inkscape:window-x="-4"
     inkscape:window-y="-4"
     inkscape:window-maximized="1">
    <inkscape:grid
       empspacing="5"
       visible="true"
       enabled="true"
       snapvisiblegridlinesonly="true"
       type="xygrid"
       id="grid2816" />
  </sodipodi:namedview>
  <metadata
     id="metadata7">
    <rdf:RDF>
      <cc:Work
         rdf:about="">
        <dc:format>image/svg+xml</dc:format>
        <dc:type
           rdf:resource="http://purl.org/dc/dcmitype/StillImage" />
        <dc:title />
      </cc:Work>
    </rdf:RDF>
  </metadata>
  <g
     inkscape:label="Layer 1"
     inkscape:groupmode="layer"
     id="layer1"
     transform="translate(0,0)">
    <path
       sodipodi:nodetypes="cssssss"
       id="path4621"
       d="m 61.320074,86.103614 c -0.91522,7.42094 -1.63142,14.851996 -2.64374,22.335276 -1.31922,9.75212 0,20.85584 0,30.71102 0,22.43224 -2.43904,46.93118 2.64374,68.40184 2.69784,11.39628 -3.14078,40.30396 0,50.25444 4.97478,15.76084 21.15426,23.03556 35.69032,30.71098 2.13898,1.12946 7.998256,0 10.574916,0"
       style="color:#000000;fill:none;stroke:#c87137;stroke-width:4;stroke-linecap:round;stroke-linejoin:round;stroke-miterlimit:4;stroke-opacity:1;stroke-dasharray:none;stroke-dashoffset:0;marker:none;visibility:visible;display:inline;overflow:visible;enable-background:accumulate" />
    <path
       style="color:#000000;fill:none;stroke:#c87137;stroke-width:4;stroke-linecap:round;stroke-linejoin:round;stroke-miterlimit:4;stroke-opacity:1;stroke-dasharray:none;stroke-dashoffset:0;marker:none;visibility:visible;display:inline;overflow:visible;enable-background:accumulate"
       d="m 444.18501,296.07479 c -9.63002,-1.1567 -20.39754,3.87218 -29.01164,0.32094 -7.44628,-3.0698 -15.24848,-9.3769 -17.35438,-18.39662 -2.867,-12.2797 -6.1132,-24.49406 -9.00982,-36.77708 -4.28824,-18.1841 -1.0872,-36.88454 -1.94886,-55.32114 -0.4318,-9.2394 4.64402,-17.76686 4.36912,-27.1508 -0.38784,-13.2385 -0.87934,-26.48472 -0.0364,-39.74084 0.44958,-7.07022 -0.112,-14.33366 -3.59952,-20.78646 -2.1129,-3.909361 -0.33742,-8.694081 -0.37352,-12.998781"
       id="path2832"
       sodipodi:nodetypes="cssssssss" />
    <path
       style="color:#000000;fill:none;stroke:#c87137;stroke-width:4;stroke-linecap:round;stroke-linejoin:round;stroke-miterlimit:4;stroke-opacity:1;stroke-dasharray:none;stroke-dashoffset:0;marker:none;visibility:visible;display:inline;overflow:visible;enable-background:accumulate"
       d="m 328.38469,94.74575 c 0.91522,7.42094 1.63142,14.852 2.64374,22.33528 1.31922,9.75212 0,20.85584 0,30.71102 0,22.43224 2.43904,46.93118 -2.64374,68.40184 -2.69784,11.39628 3.14078,40.30396 0,50.25444 -4.97478,15.76084 -21.15426,23.03556 -35.69032,30.71098 -2.13898,1.12946 -7.99826,0 -10.57492,0"
       id="path2850"
       sodipodi:nodetypes="cssssss" />
    <path
       style="fill:none;stroke:#94f3f3;stroke-width:4;stroke-linecap:round;stroke-linejoin:round;stroke-miterlimit:4;stroke-opacity:1;stroke-dasharray:none"
       d="m 390.35305,87.208489 c 11.14984,7.516121 12.35516,13.033701 25.59562,14.313861 15.50372,1.49898 30.44566,-4.36238 43.59768,-9.901421 24.6884,-10.3976 -21.99274,-44.7011 0.0676,-26.5629 9.2622,7.61544 12.44386,6.29824 23.98324,6.7671 12.3455,0.50158 16.59284,0.76116 20.68652,-16.51474 4.36404,-18.41674 4.56676,-38.05582 1.06094,-56.4255101 -1.26708,-6.6393 -10.14286,-13.3527399 -15.23246,-13.9345199 -23.54376,-2.69124 -16.36196,1.29504 3.91714,-7.27836 9.84984,-4.16422 36.6839,-19.93304 22.36856,-31.27136 -10.77654,-8.53544 -26.81906,-13.16378 -40.564,-7.42672 -6.13088,2.559 -16.95702,4.26742 -19.59812,10.23872 -8.3409,18.85806 -4.4922,15.20184 -2.64554,-5.36656 1.01406,-11.29456 -8.28316,-34.16834 -12.18592,-36.82194 -1.00438,-0.6829 -7.96816,-9.181319 -15.28136,-11.608099 -8.26324,-2.74206 -13.483,4.62398 -24.94664,16.195299 -6.31816,6.3775 -5.98624,19.0514 -3.21826,-0.016 0.1956,-1.3473 -7.86238,-13.557379 -9.70642,-16.182699 -9.59494,-13.66009 -18.82746,-14.47179 -32.90444,-24.64339 -13.17048,-9.51659 -31.42632,-10.38886 -45.42638,-7.55222 -10.94872,2.21839 -16.02456,19.90474 -22.67522,30.52193 -8.14088,12.996179 8.58032,55.857499 -0.56906,42.150659 -3.02586,-4.53308 -15.87138,-27.26004 -25.86874,-38.498879 -11.99924,-13.48934 -22.31815,5.083259 -32.23561,11.397079 -13.31788,8.47862 -24.73382,18.41412 -29.49442,35.636 -4.3259,15.64936 -6.32674,33.86632 9.80742,43.45736 4.40964,2.62132 35.77131,23.53552 17.90574,13.5044799 -8.95272,-5.02672 -21.74256,2.76522 -28.97988,9.0339401 -8.93966,7.74323 -15.8523,16.53481 -17.0284,30.01271 -1.44962,16.61228 14.03484,23.86008 27.70456,26.72502 14.58724,3.0572 38.21399,15.5276 42.87099,13.27528 11.11854,-5.37738 -17.95923,15.089141 -26.92989,23.185341 -9.84626,8.88644 -14.04388,29.74992 2.61618,33.62852 19.47363,4.53362 40.83365,11.8767 59.97763,5.3793 13.9078,-4.72026 24.52552,-17.70754 30.89854,-30.28946 2.95782,-5.83946 4.82452,-36.607801 8.204,-23.374501 2.9789,11.664761 16.87882,18.378901 26.77094,25.704341 16.62264,12.30958 31.84036,-15.28742 31.7597,-24.250281 -0.0678,-7.5283 -6.76792,-11.61094 5.69768,-3.20788 z"
       id="path2827"
       sodipodi:nodetypes="cssssssssssssssssssssssssssssssssssssss" />
    <path
       style="fill:none;stroke:#008000;stroke-width:4;stroke-linecap:butt;stroke-linejoin:miter;stroke-miterlimit:4;stroke-opacity:1;stroke-dasharray:none"
       d="m -15.594717,296.75478 c 35.702468,-8.22228 65.803427,0.40958 97.50784,-3.87992 28.714557,2.56668 57.268827,-4.02353 86.055257,0.61578 52.26202,3.62167 98.79441,5.38023 147.40894,9.11026 30.02432,0.062 58.99297,-2.94356 88.91528,-0.76246 21.89599,-0.82404 44.52141,-3.16565 64.02386,-0.1572 11.14672,1.6839 21.84356,8.60707 33.33743,7.80147"
       id="path4190"
       sodipodi:nodetypes="ccccccc" />
    <path
       id="path5493"
       style="color:#000000;fill:none;stroke:#ff0000;stroke-width:4;stroke-linecap:round;stroke-linejoin:round;stroke-miterlimit:4;stroke-opacity:1;stroke-dasharray:none;stroke-dashoffset:0;marker:none;visibility:visible;display:inline;overflow:visible;enable-background:accumulate"
       d="m 439.39633,264.19051 c -0.19275,-2.98391 1.4688,-6.98813 3.45762,-13.5408 2.57102,-8.20595 0.65256,-11.15624 3.13166,-17.24927 0.38988,-7.89139 -0.57227,-13.02196 2.17086,-22.07267 m -27.67329,66.15364 c 2.63903,-6.56954 4.82405,-15.7612 7.92636,-14.61702 11.72147,3.54734 22.11738,0.76717 25.07606,4.60338 0.33114,7.17402 1.99211,10.90062 3.47829,16.43655"
       sodipodi:nodetypes="cccccccc" />
    <path
       style="fill:none;stroke:#80ff00;stroke-width:3.99999976;stroke-linecap:round;stroke-linejoin:round;stroke-miterlimit:4;stroke-opacity:1;stroke-dasharray:none"
       d="m 407.77984,198.52688 c -0.11965,3.74514 5.3693,-1.13598 5.04417,3.28267 3.38181,4.78703 9.45123,5.81608 12.75298,10.72379 2.83686,2.66933 6.7989,3.51955 9.57585,6.28353 3.00548,2.78158 6.70048,4.24667 10.33566,5.8403 3.09014,1.54709 5.69126,3.87977 8.60659,5.69554 1.35426,2.89528 3.70803,3.79654 5.24636,6.5726 1.86906,3.33905 6.06273,3.94703 7.365,7.94346 -0.9832,1.43165 -4.72626,1.13982 -6.79725,1.89397 -5.93898,1.18392 -11.87838,2.37158 -17.81676,3.54731 -3.49342,-0.40357 -7.46516,1.04324 -10.50939,-0.84399 -2.77289,-0.76003 -5.86648,-0.10564 -8.76386,-0.24795 -3.28149,0.24549 -6.979,0.17641 -10.34198,0.0471 -3.54446,0.27629 -7.00917,-0.01 -10.65995,1.07294 -2.86095,0.84181 -6.4584,1.83794 -5.43041,-2.93969 0.0166,-3.50965 2.61129,-6.78516 2.6132,-10.31676 1.02764,-3.97746 0.95806,-7.92906 3.34282,-11.89407 0.62786,-4.16731 2.25981,-8.59746 2.11985,-12.67855 1.24547,-3.60727 1.62922,-7.45749 2.29915,-11.01912 0.0453,-0.88969 -0.15518,-2.60162 1.01787,-2.96245 z"
       id="path2942"
       inkscape:transform-center-x="-32.39232"
       inkscape:transform-center-y="0.28878504" />
    <path
       style="fill:none;stroke:#80ff00;stroke-width:3.99999976;stroke-linecap:round;stroke-linejoin:round;stroke-miterlimit:4;stroke-opacity:1;stroke-dasharray:none"
       d="m 331.00909,297.30736 c 0.60506,-9.0406 0.44402,-18.29146 5.02617,-26.72524 4.40385,-10.68038 8.10017,-21.70179 14.02242,-32.02862 2.55284,-6.93954 6.02132,-24.69234 10.76364,-11.13615 7.39311,8.95814 13.32097,18.26886 16.93354,28.61679 4.75742,10.44474 10.96393,21.91195 13.20518,32.0005 -1.33232,3.06166 2.63635,4.86501 1.82081,7.91946"
       id="path2956" />
    <path
       style="fill:none;stroke:#80ff00;stroke-width:3.99999976;stroke-linecap:round;stroke-linejoin:round;stroke-miterlimit:4;stroke-opacity:1;stroke-dasharray:none"
       d="m 179.11111,289.90263 c 0.40533,-1.44662 2.58348,-9.21882 3.66289,-13.07004 3.54198,-12.07686 11.62861,-15.1525 19.11212,-29.30048 2.8947,-8.57329 13.46974,-24.20226 15.85242,-28.47702 3.45946,9.93013 6.48003,20.0115 10.04683,29.89677 4.34658,15.26461 11.63911,29.21782 24.91123,40.5429 1.92616,1.23521 6.52526,2.5749 4.03001,5.53117"
       id="path2958" />
    <path
       sodipodi:nodetypes="cssssssssssssssssssssssssssssssssssssss"
       id="path4623"
       d="m 75.33345,-68.899966 c 13.415,-0.92133 17.22165,-5.09337 29.32299,0.42985 14.16989,6.46735 24.16723,19.02403 32.77675,30.40528 16.16143,21.36434 -41.42347,27.67608 -13.24507,23.02521 11.83091,-1.95268 13.92508,0.78089 24.14774,6.1543796 10.93678,5.74889 14.74304,7.65142 9.63396,24.6547294 -5.44644,18.126151 -15.10688,35.226165 -27.34147,49.370108 -4.42189,5.11201 -15.46658,6.477503 -20.16323,4.43202 -21.72602,-9.462107 -13.5134,-9.315524 -0.25479,8.261573 6.43989,8.537441 21.76841,35.625436 3.69925,38.269646 -13.6024,1.99056 -29.80594,-2.03804 -38.82948,-13.88764 C 71.05519,96.92972 62.54032,90.028919 63.24496,83.537747 65.47028,63.03787 66.97035,68.130045 58.26738,86.857766 53.4884,97.141579 33.98531,112.28349 29.27829,112.62566 c -1.21136,0.088 -11.4951,3.95612 -19.04041,2.39391 -8.5255099,-1.76513 -9.35428988,-10.75499 -13.4812699,-26.511843 -2.27459,-8.684349 4.36021,-19.48793 -2.79356,-1.597962 -0.50547,1.26411 -13.5952201,7.796768 -16.5061701,9.145542 -15.14626,7.017943 -23.54394,3.096556 -40.82246,4.850303 -16.16585,1.64082 -32.40394,-6.747321 -43.10093,-16.21425 -8.36555,-7.403595 -3.901,-25.254056 -4.34,-37.774566 -0.53738,-15.32599 35.40192,-44.0498209 20.61789,-36.768261 -4.88933,2.40813 -27.3901,15.645851 -41.67204,20.366561 -17.14178,5.666 -16.77147,-15.577461 -22.1933,-26.0093409 -7.28084,-14.0086495 -12.18581,-28.3257391 -7.68103,-45.6162991 4.09346,-15.71176 11.4853,-32.48143 30.25363,-32.70237 5.12958,-0.0604 42.74901,-2.45557 22.2617,-2.72094 -10.26652,-0.13297 -17.43423,-13.28281 -20.55887,-22.333346 -3.8596,-11.179378 -5.43968,-22.250958 0.29253,-34.505698 7.06527,-15.10468 24.09769,-13.62284 37.36429,-9.25633 14.15704,4.65963 40.85262,5.69901 43.75542,9.98087 6.93042,10.22289 -7.98736,-22.05489 -11.69701,-33.55531 -4.07175,-12.62293 2.74414,-32.7835 19.10669,-27.79669 19.12587,5.82899 41.29156012,10.17104 54.6074,25.38276 9.67375,11.05108 12.3594,27.60984 11.57408,41.69187 -0.36447,6.53568 -14.15856,34.101938 -4.6058,24.34049 8.42047,-8.60443 23.81412,-7.45428 36.04501,-8.84047 20.55267,-2.32931 19.90279,29.178634 15.34407,36.895984 -3.8291,6.48212 -11.67307,6.66018 3.32498,5.63015 z"
       style="fill:none;stroke:#94f3f3;stroke-width:4;stroke-linecap:round;stroke-linejoin:round;stroke-miterlimit:4;stroke-opacity:1;stroke-dasharray:none" />
    <path
       style="color:#000000;fill:none;stroke:#80ff00;stroke-width:3.99999976;stroke-linecap:round;stroke-linejoin:round;stroke-miterlimit:4;stroke-opacity:1;stroke-dasharray:none;stroke-dashoffset:0;marker:none;visibility:visible;display:inline;overflow:visible;enable-background:accumulate"
       d="m 120.80569,270.87518 c -15.8825,-4.54463 -31.951233,-11.0602 -43.802249,-19.48224 -8.336271,-3.46223 -13.947507,-5.23392 -23.785032,-14.38537 -12.505644,-11.6335 -23.487831,-6.14153 -21.64574,-28.30268 2.065109,-24.84418 9.761878,-19.96014 33.948773,-18.13861 20.213059,1.52227 48.506668,16.66891 60.567938,13.4254 11.1641,-3.00225 25.57355,3.11718 40.49499,2.94552 16.18437,5.52317 25.54661,8.54443 37.20688,10.06379"
       id="path4125-8"
       sodipodi:nodetypes="ccsssscs" />
    <path
       style="color:#000000;fill:none;stroke:#80ff00;stroke-width:4;stroke-linecap:round;stroke-linejoin:round;stroke-miterlimit:4;stroke-opacity:1;stroke-dasharray:none;stroke-dashoffset:0;marker:none;visibility:visible;display:inline;overflow:visible;enable-background:accumulate"
       d="m 399.83242,225.42484 c -6.5721,-2.24864 -11.98444,-5.05213 -19.29152,-5.37745 -7.58355,-0.33682 -15.16848,0.40483 -22.89859,0.93727 -8.51428,0.58635 -19.63023,0.17327 -29.10762,0.55219 -11.83818,0.47332 -22.64855,3.00047 -34.66685,3.17633 -14.65413,0.21465 -29.45547,-2.81899 -44.18693,-4.54088 -7.40781,-0.86583 -14.60784,-2.41947 -22.13799,-2.64714 -5.80863,-0.17523 -19.28704,0.49923 -23.87312,-0.57051"
       id="path2833"
       sodipodi:nodetypes="csssssss" />
    <path
       style="fill:none;stroke:#0000ff;stroke-width:4;stroke-linecap:round;stroke-linejoin:round;stroke-miterlimit:4;stroke-opacity:1;stroke-dasharray:none"
       d="m 133.91524,216.44782 c 3.47339,5.3647 7.44016,10.60915 9.36184,16.70375 3.71892,6.38192 5.27662,13.806 9.53582,19.84515 0.0492,7.17667 5.80911,12.69662 6.77764,19.69884 1.47324,5.01863 3.71096,8.67276 4.43975,14.03802 1.09595,1.92401 -0.0549,3.8454 0.6565,-1.04097"
       id="path2909" />
    <path
       style="fill:none;stroke:#0000ff;stroke-width:4;stroke-linecap:round;stroke-linejoin:round;stroke-miterlimit:4;stroke-opacity:1;stroke-dasharray:none"
       d="m 137.99932,103.36488 c -4.7036,0.2834 -6.286,4.3474 -7.9394,6.8636 -3.664,3.4368 -2.3888,4.7568 -5.671,9.1514 -0.182,3.9308 -2.404,7.0226 -1.7012,11.3182 -0.6518,6.2812 4.4534,11.583 8.795,15.313 3.5992,2.1524 6.9136,4.602 11.314,4.2546 3.1072,-0.2464 6.61,0.5494 9.4034,-0.5238 3.3402,-3.7844 10.2838,-5.2444 12.2716,-8.5936 0.2342,-3.71 0.168,-7.3976 0.7482,-10.999 -6e-4,-5.4964 8e-4,-10.9928 0,-16.489 -2.1032,-1.9802 -3.1228,-5.0882 -5.5178,-5.7196 -1.3226,-1.354 -4.6042,-0.7528 -6.3646,-1.753 -4.5444,-1.9098 -10.0856,-1.4052 -15.3382,-2.8228 z"
       id="path2905" />
    <path
       style="fill:none;stroke:#0000ff;stroke-width:4;stroke-linecap:round;stroke-linejoin:round;stroke-miterlimit:4;stroke-opacity:1;stroke-dasharray:none"
       d="m 142.88967,152.32474 c 0.9232,4.993 -2.9076,11.0034 -1.491,12.9408 -2.0174,7.4876 -2.6236,15.3556 -4.7378,22.8094 -2.221,6.343 -1.9034,13.026 -2.8448,19.1578 0,3.0506 0,6.101 0,9.1514"
       id="path2907" />
    <path
       style="fill:none;stroke:#0000ff;stroke-width:4;stroke-linecap:round;stroke-linejoin:round;stroke-miterlimit:4;stroke-opacity:1;stroke-dasharray:none"
       d="m 133.25796,217.37582 c -1.82035,3.76396 -5.45806,12.23249 -8.22959,17.92911 -2.26346,8.07745 -7.64707,13.50142 -10.2263,21.28723 -3.72689,5.11507 -6.09142,10.58867 -8.82233,16.80383 -2.24495,3.49931 -1.60998,11.82901 -3.35488,12.88865 -0.36266,0.40915 -1.20235,4.80984 -0.042,2.58326"
       id="path2881" />
    <path
       id="path5493-4"
       style="color:#000000;fill:none;stroke:#ff0000;stroke-width:4;stroke-linecap:round;stroke-linejoin:round;stroke-miterlimit:4;stroke-opacity:1;stroke-dasharray:none;stroke-dashoffset:0;marker:none;visibility:visible;display:inline;overflow:visible;enable-background:accumulate"
       d="m 83.395754,158.60893 c -2.95062,-0.48434 -7.09842,0.77664 -13.81456,2.11342 -8.41846,1.75418 -11.16644,-0.44426 -17.47318,1.42558 -7.89158,-0.38568 -12.9031,-1.84616 -22.17916,-0.004 m 68.54794,-21.05458 c -6.79662,1.98224 -16.15822,3.25564 -15.3237,6.45518 2.38114,12.01276 -1.40476,22.08604 2.12288,25.40656 7.10702,1.03286 10.65282,3.05114 16.016396,5.07288"
       sodipodi:nodetypes="cccccccc" />
    <path
       style="fill:none;stroke:#0000ff;stroke-width:4;stroke-linecap:round;stroke-linejoin:round;stroke-miterlimit:4;stroke-opacity:1;stroke-dasharray:none"
       d="m 84.000202,159.61742 c 5.62581,0.88206 13.86518,2.61283 25.377668,2.77744 4.9655,0.071 9.05891,-2.61853 14.62481,-2.71574 2.14259,-0.0374 12.06775,-4.29393 17.66435,-2.92012 5.8491,1.43581 10.61132,12.72421 11.41989,16.97085 1.33772,7.02619 4.9719,7.79359 5.56386,14.31878 0.33766,3.72191 2.61538,9.6958 3.65078,13.4518 0.55712,2.02086 2.92976,4.83573 2.77157,6.95718"
       id="path2911-0"
       sodipodi:nodetypes="csssssss" />
  </g>
</svg>
