<?xml version="1.0" encoding="UTF-8" standalone="no"?>
<!-- Created with Inkscape (http://www.inkscape.org/) -->

<svg
   xmlns:dc="http://purl.org/dc/elements/1.1/"
   xmlns:cc="http://creativecommons.org/ns#"
   xmlns:rdf="http://www.w3.org/1999/02/22-rdf-syntax-ns#"
   xmlns:svg="http://www.w3.org/2000/svg"
   xmlns="http://www.w3.org/2000/svg"
   xmlns:xlink="http://www.w3.org/1999/xlink"
   xmlns:sodipodi="http://sodipodi.sourceforge.net/DTD/sodipodi-0.dtd"
   xmlns:inkscape="http://www.inkscape.org/namespaces/inkscape"
   width="480"
   height="320"
   id="svg2"
   version="1.1"
   inkscape:version="0.48.0 r9654"
   sodipodi:docname="itnas274.svg"
   inkscape:export-xdpi="90"
   inkscape:export-ydpi="90"
   inkscape:export-filename="itnas274.png">
  <defs
     id="defs4">
    <inkscape:perspective
       sodipodi:type="inkscape:persp3d"
       inkscape:vp_x="0 : 160 : 1"
       inkscape:vp_y="0 : 1000 : 0"
       inkscape:vp_z="480 : 160 : 1"
       inkscape:persp3d-origin="240 : 106.66667 : 1"
       id="perspective8" />
  </defs>
  <sodipodi:namedview
     id="base"
     pagecolor="#ffffff"
     bordercolor="#666666"
     borderopacity="1.0"
     inkscape:pageopacity="1"
     inkscape:pageshadow="2"
     inkscape:zoom="2"
     inkscape:cx="247.39703"
     inkscape:cy="158.91065"
     inkscape:document-units="px"
     inkscape:current-layer="layer1"
     showgrid="false"
     inkscape:snap-nodes="true"
     inkscape:snap-global="false"
     inkscape:snap-grids="true"
     showguides="true"
     inkscape:window-width="1280"
     inkscape:window-height="998"
     inkscape:window-x="1276"
     inkscape:window-y="-4"
     inkscape:window-maximized="1">
    <inkscape:grid
       empspacing="5"
       visible="true"
       enabled="true"
       snapvisiblegridlinesonly="true"
       type="xygrid"
       id="grid2816" />
  </sodipodi:namedview>
  <metadata
     id="metadata7">
    <rdf:RDF>
      <cc:Work
         rdf:about="">
        <dc:format>image/svg+xml</dc:format>
        <dc:type
           rdf:resource="http://purl.org/dc/dcmitype/StillImage" />
        <dc:title></dc:title>
      </cc:Work>
    </rdf:RDF>
  </metadata>
  <g
     inkscape:label="Layer 1"
     inkscape:groupmode="layer"
     id="layer1"
     transform="translate(0,0)">
    <path
       style="color:#000000;fill:none;stroke:#808080;stroke-width:4;stroke-linecap:butt;stroke-linejoin:miter;stroke-miterlimit:4;stroke-opacity:1;stroke-dasharray:none;stroke-dashoffset:0;marker:none;visibility:visible;display:inline;overflow:visible;enable-background:accumulate"
       d="m 402.04206,210.8183 c -1.72943,6.63103 6.32127,12.91733 11.23056,3.75153 1.79135,-3.71675 -1.15053,-10.19737 -6.23056,-10.12653 0,0 -5.25,-0.75 -5,6.375 z"
       id="path5338"
       inkscape:connector-curvature="0"
       sodipodi:nodetypes="cccc" />
    <path
       style="color:#000000;fill:none;stroke:#808080;stroke-width:4;stroke-linecap:butt;stroke-linejoin:miter;stroke-miterlimit:4;stroke-opacity:1;stroke-dasharray:none;stroke-dashoffset:0;marker:none;visibility:visible;display:inline;overflow:visible;enable-background:accumulate"
       d="m 411.13103,40.959848 c -8.96309,1.44995 -16.87816,-4.82624 -12.44734,-11.79026 4.43515,-8.49716 15.83574,-4.39964 16.56725,4.26742 1.34933,3.13782 0.35474,9.39164 -4.11991,7.52284 z"
       id="path5340"
       inkscape:connector-curvature="0"
       sodipodi:nodetypes="cccc" />
    <path
       style="color:#000000;fill:none;stroke:#808080;stroke-width:4;stroke-linecap:butt;stroke-linejoin:miter;stroke-miterlimit:4;stroke-opacity:1;stroke-dasharray:none;stroke-dashoffset:0;marker:none;visibility:visible;display:inline;overflow:visible;enable-background:accumulate"
       d="m 372.43617,247.31526 c -2.625,-3.41666 -3.25,-4.58333 -4.75,-6.125 -8.56091,-5.33875 -11.77391,13.46128 -5.51278,17.21113 7.18447,6.34479 18.73105,-6.12463 10.26278,-11.08613 z"
       id="path5342"
       inkscape:connector-curvature="0"
       sodipodi:nodetypes="cccc" />
    <path
       style="color:#000000;fill:none;stroke:#808080;stroke-width:4;stroke-linecap:butt;stroke-linejoin:miter;stroke-miterlimit:4;stroke-opacity:1;stroke-dasharray:none;stroke-dashoffset:0;marker:none;visibility:visible;display:inline;overflow:visible;enable-background:accumulate"
       d="m 178.7218,92.979266 c -6.28578,-4.512276 -6.97565,-9.032866 -3.23839,-15.543055 1.38881,-0.58671 5.81839,-2.35868 10.46171,0.58254 6.97207,5.031029 1.60363,20.295898 -7.22332,14.960515 z"
       id="path5344"
       inkscape:connector-curvature="0"
       sodipodi:nodetypes="cccc" />
    <path
       style="color:#000000;fill:none;stroke:#808080;stroke-width:4;stroke-linecap:butt;stroke-linejoin:miter;stroke-miterlimit:4;stroke-opacity:1;stroke-dasharray:none;stroke-dashoffset:0;marker:none;visibility:visible;display:inline;overflow:visible;enable-background:accumulate"
       d="m 418.19015,164.04053 c -2.5977,-4.25554 -10.85788,-0.73825 -8.81169,5.96014 -1.37206,10.04603 14.7664,11.64604 13.7666,0.8018 0.0463,-3.07757 -2.02549,-5.89149 -4.95491,-6.76194 z"
       id="path5346"
       inkscape:connector-curvature="0" />
    <path
       style="color:#000000;fill:none;stroke:#808080;stroke-width:4;stroke-linecap:butt;stroke-linejoin:miter;stroke-miterlimit:4;stroke-opacity:1;stroke-dasharray:none;stroke-dashoffset:0;marker:none;visibility:visible;display:inline;overflow:visible;enable-background:accumulate"
       d="m 116.76435,65.354775 c -5.08714,8.18484 -13.17635,-2.39259 -14.27658,-8.39567 -0.24141,-3.94858 3.65157,-2.73446 6.8868,-3.93076 7.90282,3.0126 8.58378,1.62942 7.38978,12.32643 z"
       id="path5348"
       inkscape:connector-curvature="0"
       sodipodi:nodetypes="cccc" />
    <path
       style="color:#000000;fill:none;stroke:#808080;stroke-width:4;stroke-linecap:butt;stroke-linejoin:miter;stroke-miterlimit:4;stroke-opacity:1;stroke-dasharray:none;stroke-dashoffset:0;marker:none;visibility:visible;display:inline;overflow:visible;enable-background:accumulate"
       d="m 393.59664,139.01754 c 8.99829,3.18336 13.62141,-7.33131 10.58576,-14.38483 0.0299,-5.0478 -8.05391,-3.06659 -13.22526,-3.24945 -5.17136,-0.18287 -8.52069,15.90298 2.6395,17.63428 z"
       id="path5350"
       inkscape:connector-curvature="0"
       sodipodi:nodetypes="cccc" />
    <path
       style="color:#000000;fill:none;stroke:#808080;stroke-width:4;stroke-linecap:butt;stroke-linejoin:miter;stroke-miterlimit:4;stroke-opacity:1;stroke-dasharray:none;stroke-dashoffset:0;marker:none;visibility:visible;display:inline;overflow:visible;enable-background:accumulate"
       d="m 213.76706,67.586203 c -6.52238,5.56903 -16.05723,-0.48218 -17.03763,-8.07865 -2.07441,-6.34344 5.17418,-7.30862 10.96467,-10.10992 5.79049,-2.80129 12.37372,11.78366 6.07296,18.18857 z"
       id="path5352"
       inkscape:connector-curvature="0"
       sodipodi:nodetypes="cccc" />
    <use
       x="0"
       y="0"
       xlink:href="#path5338"
       id="use5560"
       transform="matrix(1,0,0,-1,-283.04401,252.61442)"
       width="480"
       height="320" />
    <use
       x="0"
       y="0"
       xlink:href="#path5340"
       id="use5562"
       transform="matrix(1,0,0,-1,-18.254071,237.51403)"
       width="480"
       height="320" />
    <use
       x="0"
       y="0"
       xlink:href="#path5342"
       id="use5564"
       transform="matrix(1,0,0,-1,52.579655,502.72525)"
       width="480"
       height="320" />
    <use
       x="0"
       y="0"
       xlink:href="#path5344"
       id="use5566"
       transform="matrix(1,0,0,-1,22.768285,168.56499)"
       width="480"
       height="320" />
    <use
       x="0"
       y="0"
       xlink:href="#path5346"
       id="use5568"
       transform="matrix(1,0,0,-1,0.63291006,292.26892)"
       width="480"
       height="320" />
    <use
       x="0"
       y="0"
       xlink:href="#path5348"
       id="use5570"
       transform="matrix(1,0,0,-1,307.07778,289.54444)"
       width="480"
       height="320" />
    <use
       x="0"
       y="0"
       xlink:href="#path5350"
       id="use5572"
       transform="matrix(1,0,0,-1,-47.955321,215.2263)"
       width="480"
       height="320" />
    <use
       x="0"
       y="0"
       xlink:href="#path5352"
       id="use5574"
       transform="matrix(1,0,0,-1,187.78291,238.35701)"
       width="480"
       height="320" />
    <use
       x="0"
       y="0"
       xlink:href="#path5338"
       id="use5576"
       transform="matrix(-1,0,0,1,825.26441,-112.01888)"
       width="480"
       height="320" />
    <use
       x="0"
       y="0"
       xlink:href="#path5340"
       id="use5578"
       transform="matrix(-1,0,0,1,580.25412,2.91782)"
       width="480"
       height="320" />
    <use
       x="0"
       y="0"
       xlink:href="#path5342"
       id="use5580"
       transform="matrix(-1,0,0,1,640.31741,-166.29282)"
       width="480"
       height="320" />
    <use
       x="0"
       y="0"
       xlink:href="#path5344"
       id="use5582"
       transform="matrix(-1,0,0,1,550.84819,94.951959)"
       width="480"
       height="320" />
    <use
       x="0"
       y="0"
       xlink:href="#path5346"
       id="use5584"
       transform="matrix(-1,0,0,1,804.42171,-114.91484)"
       width="480"
       height="320" />
    <use
       x="0"
       y="0"
       xlink:href="#path5348"
       id="use5586"
       transform="matrix(-1,0,0,1,525.786,18.4557)"
       width="480"
       height="320" />
    <use
       x="0"
       y="0"
       xlink:href="#path5350"
       id="use5588"
       transform="matrix(-1,0,0,1,756.91147,-89.42573)"
       width="480"
       height="320" />
    <use
       x="0"
       y="0"
       xlink:href="#path5352"
       id="use5590"
       transform="matrix(-1,0,0,1,503.74677,24.308144)"
       width="480"
       height="320" />
    <use
       x="0"
       y="0"
       xlink:href="#use5560"
       id="use5592"
       transform="matrix(-1,0,0,1,427.73404,20.351791)"
       width="480"
       height="320" />
    <use
       x="0"
       y="0"
       xlink:href="#use5562"
       id="use5594"
       transform="matrix(-1,0,0,1,758.51555,-95.75526)"
       width="480"
       height="320" />
    <use
       x="0"
       y="0"
       xlink:href="#use5564"
       id="use5596"
       transform="matrix(-1,0,0,1,836.4418,-58.74545)"
       width="480"
       height="320" />
    <use
       x="0"
       y="0"
       xlink:href="#use5566"
       id="use5598"
       transform="matrix(-1,0,0,1,569.91914,120.40679)"
       width="480"
       height="320" />
    <use
       x="0"
       y="0"
       xlink:href="#use5568"
       id="use5600"
       transform="matrix(-1,0,0,1,808.35094,32.29404)"
       width="480"
       height="320" />
    <use
       x="0"
       y="0"
       xlink:href="#use5570"
       id="use5602"
       transform="matrix(-1,0,0,1,762.28322,-168.11804)"
       width="480"
       height="320" />
    <use
       x="0"
       y="0"
       xlink:href="#use5572"
       id="use5604"
       transform="matrix(-1,0,0,1,660.99828,-45.055327)"
       width="480"
       height="320" />
    <use
       x="0"
       y="0"
       xlink:href="#use5574"
       id="use5606"
       transform="matrix(-1,0,0,1,764.13455,-23.74441)"
       width="480"
       height="320" />
    <use
       x="0"
       y="0"
       xlink:href="#path5338"
       id="use5608"
       transform="matrix(0,1,-1,0,595.09148,-372.59106)"
       width="480"
       height="320" />
    <use
       x="0"
       y="0"
       xlink:href="#path5340"
       id="use5610"
       transform="matrix(0,1,-1,0,355.51031,-320.13123)"
       width="480"
       height="320" />
    <use
       x="0"
       y="0"
       xlink:href="#path5342"
       id="use5612"
       transform="matrix(0,1,-1,0,507.70812,-305.81396)"
       width="480"
       height="320" />
    <use
       x="0"
       y="0"
       xlink:href="#path5344"
       id="use5614"
       transform="matrix(0,1,-1,0,374.44052,-141.00207)"
       width="480"
       height="320" />
    <use
       x="0"
       y="0"
       xlink:href="#path5346"
       id="use5616"
       transform="matrix(0,1,-1,0,367.87784,-377.9484)"
       width="480"
       height="320" />
    <use
       x="0"
       y="0"
       xlink:href="#path5348"
       id="use5618"
       transform="matrix(0,1,-1,0,218.42125,-52.626575)"
       width="480"
       height="320" />
    <use
       x="0"
       y="0"
       xlink:href="#path5350"
       id="use5620"
       transform="matrix(0,1,-1,0,310.96464,-336.73333)"
       width="480"
       height="320" />
    <use
       x="0"
       y="0"
       xlink:href="#path5352"
       id="use5622"
       transform="matrix(0,1,-1,0,206.39548,-167.78043)"
       width="480"
       height="320" />
    <use
       x="0"
       y="0"
       xlink:href="#use5560"
       id="use5624"
       transform="matrix(0,1,-1,0,260.1596,-85.24622)"
       width="480"
       height="320" />
    <use
       x="0"
       y="0"
       xlink:href="#use5562"
       id="use5626"
       transform="matrix(0,1,-1,0,313.9493,-303.13769)"
       width="480"
       height="320" />
    <use
       x="0"
       y="0"
       xlink:href="#use5564"
       id="use5628"
       transform="matrix(0,1,-1,0,643.60443,-191.4658)"
       width="480"
       height="320" />
    <use
       x="0"
       y="0"
       xlink:href="#use5566"
       id="use5630"
       transform="matrix(0,1,-1,0,216.71386,-141.31609)"
       width="480"
       height="320" />
    <use
       x="0"
       y="0"
       xlink:href="#use5568"
       id="use5632"
       transform="matrix(0,1,-1,0,489.03604,-189.74102)"
       width="480"
       height="320" />
    <use
       x="0"
       y="0"
       xlink:href="#use5570"
       id="use5634"
       transform="matrix(0,1,-1,0,551.17161,-352.58349)"
       width="480"
       height="320" />
    <use
       x="0"
       y="0"
       xlink:href="#use5572"
       id="use5636"
       transform="matrix(0,1,-1,0,422.46244,-308.246)"
       width="480"
       height="320" />
    <use
       x="0"
       y="0"
       xlink:href="#use5574"
       id="use5638"
       transform="matrix(0,1,-1,0,593.92547,-248.107)"
       width="480"
       height="320" />
    <use
       x="0"
       y="0"
       xlink:href="#use5576"
       id="use5640"
       transform="matrix(0,1,-1,0,465.46157,-354.63547)"
       width="480"
       height="320" />
    <use
       x="0"
       y="0"
       xlink:href="#use5578"
       id="use5642"
       transform="matrix(0,1,-1,0,406.33185,-89.03826)"
       width="480"
       height="320" />
    <use
       x="0"
       y="0"
       xlink:href="#use5580"
       id="use5644"
       transform="matrix(-0.89855324,0.43886454,-0.43886454,-0.89855324,389.2405,-7.820169)"
       width="480"
       height="320" />
    <use
       x="0"
       y="0"
       xlink:href="#use5582"
       id="use5646"
       transform="matrix(0,1,-1,0,550.53162,-239.13725)"
       width="480"
       height="320" />
    <use
       x="0"
       y="0"
       xlink:href="#use5584"
       id="use5648"
       transform="matrix(0,1,-1,0,285.13662,-302.04514)"
       width="480"
       height="320" />
    <use
       x="0"
       y="0"
       xlink:href="#use5586"
       id="use5650"
       transform="matrix(0,1,-1,0,213.31852,-329.85164)"
       width="480"
       height="320" />
    <use
       x="0"
       y="0"
       xlink:href="#use5588"
       id="use5652"
       transform="matrix(0,1,-1,0,198.06057,-278.23147)"
       width="480"
       height="320" />
    <use
       x="0"
       y="0"
       xlink:href="#use5590"
       id="use5654"
       transform="matrix(0,1,-1,0,478.66195,-193.04719)"
       width="480"
       height="320" />
    <use
       x="0"
       y="0"
       xlink:href="#use5592"
       id="use5656"
       transform="matrix(0,1,-1,0,342.47837,-242.40379)"
       width="480"
       height="320" />
    <use
       x="0"
       y="0"
       xlink:href="#use5594"
       id="use5658"
       transform="matrix(0,1,-1,0,520.06976,-313.34592)"
       width="480"
       height="320" />
    <use
       x="0"
       y="0"
       xlink:href="#use5596"
       id="use5660"
       transform="matrix(0,1,-1,0,435.50667,-375.43895)"
       width="480"
       height="320" />
    <use
       x="0"
       y="0"
       xlink:href="#use5598"
       id="use5662"
       transform="matrix(0,1,-1,0,435.70139,-303.50274)"
       width="480"
       height="320" />
    <use
       x="0"
       y="0"
       xlink:href="#use5600"
       id="use5664"
       transform="matrix(0,1,-1,0,420.2914,-351.34235)"
       width="480"
       height="320" />
    <use
       x="0"
       y="0"
       xlink:href="#use5602"
       id="use5666"
       transform="matrix(0,1,-1,0,311.48568,-261.62083)"
       width="480"
       height="320" />
    <use
       x="0"
       y="0"
       xlink:href="#use5604"
       id="use5668"
       transform="matrix(0,1,-1,0,433.65453,-235.10056)"
       width="480"
       height="320" />
    <use
       x="0"
       y="0"
       xlink:href="#use5606"
       id="use5670"
       transform="matrix(0,1,-1,0,548.30096,-118.94174)"
       width="480"
       height="320" />
    <path
       style="color:#000000;fill:none;stroke:#808080;stroke-width:3.99999952;stroke-linecap:round;stroke-linejoin:miter;stroke-miterlimit:4;stroke-opacity:1;stroke-dasharray:none;stroke-dashoffset:0;marker:none;visibility:visible;display:inline;overflow:visible;enable-background:accumulate"
       d="m 136.67876,101.26828 c 2.31029,6.72649 2.79467,16.17407 1.80312,23.28924 -0.29006,11.97111 -2.45268,22.51984 -1.93044,34.57304 -1.06211,7.08268 1.36661,15.98484 0.29849,22.9691 0.0877,6.91201 0.35445,14.01731 1.87393,20.80323 0.6951,8.4954 -2.72448,16.61475 -2.5818,25.13059 -0.49775,4.53371 1.56449,8.66008 0.72828,13.25814 0.0236,5.5568 0.59499,11.17387 -0.2255,16.76229 -0.0717,5.55688 0.27839,11.29685 2.66383,16.27566 l 0.41308,2.91957"
       id="path4260"
       inkscape:connector-curvature="0"
       sodipodi:nodetypes="cccccccccc" />
    <path
       style="color:#000000;fill:none;stroke:#808080;stroke-width:3.99999976;stroke-linecap:round;stroke-linejoin:miter;stroke-miterlimit:4;stroke-opacity:1;stroke-dasharray:none;stroke-dashoffset:0;marker:none;visibility:visible;display:inline;overflow:visible;enable-background:accumulate"
       d="m 183.82148,101.37179 c -0.15546,6.46112 -2.10064,15.08423 -1.30574,21.58475 0.75347,11.11387 1.67027,22.27806 2.78318,33.43374 -1.16735,7.55395 -1.25223,10.84548 -0.99923,18.56698 -1.48733,6.86026 0.56756,14.09411 -1.50295,20.81707 0.11106,10.15886 1.49945,20.1187 0.75272,30.30008 -0.4727,6.54278 0.75286,13.24074 -0.2911,19.64883 -1.78545,4.35875 -0.81154,10.05097 -1.01395,15.0176 0.8543,4.78792 1.31514,11.57438 1.34759,16.4693"
       id="path4262"
       inkscape:connector-curvature="0"
       sodipodi:nodetypes="ccccccccc" />
    <path
       style="color:#000000;fill:none;stroke:#808080;stroke-width:3.99999976;stroke-linecap:round;stroke-linejoin:miter;stroke-miterlimit:4;stroke-opacity:1;stroke-dasharray:none;stroke-dashoffset:0;marker:none;visibility:visible;display:inline;overflow:visible;enable-background:accumulate"
       d="m 233.22282,103.29253 c 0.36726,10.88663 0.28383,19.89318 -1.68192,30.74865 -2.55821,8.75944 0.41765,18.01637 -0.74739,28.86326 0.2684,9.09237 0.89972,18.21962 0.38434,27.23661 0.41151,5.75936 0.35968,11.33534 -1.10452,16.78884 0.4733,10.39575 0.50241,18.98937 2.7646,30.93267 0.61034,12.42307 -2.15489,27.28834 -1.5188,39.71339"
       id="path4264"
       inkscape:connector-curvature="0"
       sodipodi:nodetypes="ccccccc" />
    <path
       style="color:#000000;fill:none;stroke:#808080;stroke-width:3.99999976;stroke-linecap:round;stroke-linejoin:miter;stroke-miterlimit:4;stroke-opacity:1;stroke-dasharray:none;stroke-dashoffset:0;marker:none;visibility:visible;display:inline;overflow:visible;enable-background:accumulate"
       d="m 271.86043,102.89726 c 0.88031,8.8798 2.35568,17.71032 2.61637,26.65815 0.8026,9.82341 0.33256,19.68305 -1.14852,29.36175 0.25386,5.09847 -0.93821,10.10135 0.5847,15.4052 1.93579,10.0707 -1.31121,19.83294 0.17547,29.97478 -0.45291,4.11027 -0.71068,9.28383 -0.7286,14.43234 0.98756,9.11695 1.95728,18.16442 1.46157,27.20048 -0.25453,4.76276 -1.24035,9.44946 -2.49136,14.13178 -0.43244,4.08107 -0.3432,6.9824 0.45573,10.10504 0.82509,2.15085 0.58267,4.7643 0.80423,7.19259"
       id="path4266"
       inkscape:connector-curvature="0"
       sodipodi:nodetypes="cccccccccc" />
    <path
       sodipodi:nodetypes="cccccccccc"
       inkscape:connector-curvature="0"
       id="path4288"
       d="m 99.48454,251.83572 c 9.84974,-2.62285 20.75165,-2.73546 31.16536,-1.62155 17.52291,0.31417 32.96091,2.74949 50.60519,2.14416 10.36604,1.19379 23.4007,-1.56567 33.62267,-0.36497 10.11796,-0.10737 20.51911,-0.41773 30.45463,-2.14559 12.43664,-0.79677 24.31662,3.06413 36.78235,2.89257 6.6357,0.55804 12.679,-1.78099 19.40837,-0.83996 8.13411,-0.0332 16.35725,-0.68662 24.53637,0.23546 8.13404,0.0746 16.53676,-0.32844 23.82834,-3.0343 l 2.07798,-0.0248"
       style="color:#000000;fill:none;stroke:#808080;stroke-width:4;stroke-linecap:round;stroke-linejoin:miter;stroke-miterlimit:4;stroke-opacity:1;stroke-dasharray:none;stroke-dashoffset:0;marker:none;visibility:visible;display:inline;overflow:visible;enable-background:accumulate" />
    <path
       sodipodi:nodetypes="ccccccccc"
       inkscape:connector-curvature="0"
       id="path4290"
       d="m 101.02548,214.07899 c 9.43068,0.13062 18.3659,1.85248 27.85519,1.13829 16.22307,-0.68278 32.51976,-1.51079 48.80425,-2.51312 11.02462,1.02883 15.82893,1.10039 27.09979,0.86645 10.01172,1.31402 20.57289,-0.52102 30.38351,1.31156 14.82835,-0.11066 29.36767,-1.35644 44.22787,-0.70462 9.54951,0.41252 19.32749,-0.68472 28.67975,0.23573 6.36007,1.58196 14.66977,0.70962 21.91896,0.8837 6.98961,-0.76499 13.97663,-1.18024 21.12147,-1.21481"
       style="color:#000000;fill:none;stroke:#808080;stroke-width:4;stroke-linecap:round;stroke-linejoin:miter;stroke-miterlimit:4;stroke-opacity:1;stroke-dasharray:none;stroke-dashoffset:0;marker:none;visibility:visible;display:inline;overflow:visible;enable-background:accumulate" />
    <path
       sodipodi:nodetypes="ccccccc"
       inkscape:connector-curvature="0"
       id="path4292"
       d="m 101.69397,172.83325 c 15.89092,-0.33921 29.03707,-0.27561 44.8798,1.45897 12.78256,2.26368 26.29774,-0.39235 42.12885,0.63053 13.27184,-0.24923 26.59502,-0.8211 39.75591,-0.37356 8.40702,-0.37254 16.54585,-0.333 24.50423,0.96211 15.17455,-0.43289 27.71811,-0.46884 45.1536,-2.49366 18.13384,-0.55706 36.17934,1.88641 54.31608,1.30641"
       style="color:#000000;fill:none;stroke:#808080;stroke-width:4;stroke-linecap:round;stroke-linejoin:miter;stroke-miterlimit:4;stroke-opacity:1;stroke-dasharray:none;stroke-dashoffset:0;marker:none;visibility:visible;display:inline;overflow:visible;enable-background:accumulate" />
    <path
       sodipodi:nodetypes="cccccccccc"
       inkscape:connector-curvature="0"
       id="path4294"
       d="m 101.2062,135.82401 c 12.96227,-0.7929 24.35333,-2.11468 37.41418,-2.35688 14.33951,-0.72492 28.73042,-0.31867 42.85602,0.98649 7.44221,-0.23163 14.74314,0.82212 22.4866,-0.53779 14.70181,-1.73249 28.94728,1.14227 43.75239,-0.1911 5.99895,0.39774 13.55015,0.62083 21.06506,0.63071 13.30855,-0.8885 26.51569,-1.76107 39.70441,-1.33103 6.95159,0.22066 13.79129,1.09144 20.6243,2.19794 5.95637,0.37966 10.19133,0.29689 14.7502,-0.41692 3.14039,-0.73591 6.95479,-0.52351 10.49947,-0.7233"
       style="color:#000000;fill:none;stroke:#808080;stroke-width:4;stroke-linecap:round;stroke-linejoin:miter;stroke-miterlimit:4;stroke-opacity:1;stroke-dasharray:none;stroke-dashoffset:0;marker:none;visibility:visible;display:inline;overflow:visible;enable-background:accumulate" />
    <path
       style="color:#000000;fill:none;stroke:#808080;stroke-width:4;stroke-linecap:round;stroke-linejoin:miter;stroke-miterlimit:4;stroke-opacity:1;stroke-dasharray:none;stroke-dashoffset:0;marker:none;visibility:visible;display:inline;overflow:visible;enable-background:accumulate"
       d="m 353.99126,102.50863 c -16.86613,-1.06681 -33.80148,-0.0323 -50.70103,-0.30034 -17.34753,-0.18926 -34.84658,2.1416 -52.05448,-0.75851 -13.50384,-0.1804 -27.10103,0.59809 -40.54523,-0.19375 -13.12773,-1.48078 -26.39034,-0.0504 -39.58335,-0.46012 -21.37479,0.0921 -19.24959,-0.31703 -40.62438,-0.22395 -2.55108,1.14248 -28.83964,0.71278 -31.49778,1.0338"
       id="path5269"
       inkscape:connector-curvature="0"
       sodipodi:nodetypes="ccccccc" />
    <path
       style="color:#000000;fill:none;stroke:#c87137;stroke-width:4;stroke-linecap:round;stroke-linejoin:round;stroke-miterlimit:4;stroke-opacity:1;stroke-dasharray:none;stroke-dashoffset:0;marker:none;visibility:visible;display:inline;overflow:visible;enable-background:accumulate"
       d="m 121.01529,182.60897 c 3.07974,-2.44895 0.58173,-4.4777 -2.78476,-4.71237 -2.40158,-0.1674 -2.66008,7.8624 -5.82733,9.23246 -2.82055,1.2201 -1.6168,4.48229 2.75228,5.26383"
       id="path5905"
       inkscape:connector-curvature="0"
       sodipodi:nodetypes="cssc" />
    <path
       style="color:#000000;fill:none;stroke:#c87137;stroke-width:4;stroke-linecap:round;stroke-linejoin:round;stroke-miterlimit:4;stroke-opacity:1;stroke-dasharray:none;stroke-dashoffset:0;marker:none;visibility:visible;display:inline;overflow:visible;enable-background:accumulate"
       d="m 163.29513,150.32921 c -3.07717,3.47654 -5.711,0.63392 -5.67462,-3.02221 0.0319,-3.20261 0.99294,-5.13875 0.30141,-9.27491 3.06861,-0.39401 5.13171,-10.4553 11.70699,-8.76472"
       id="path5907"
       inkscape:connector-curvature="0"
       sodipodi:nodetypes="sscc" />
    <path
       id="path5163"
       style="color:#000000;fill:none;stroke:#c87137;stroke-width:4;stroke-linecap:round;stroke-linejoin:round;stroke-miterlimit:4;stroke-opacity:1;stroke-dasharray:none;stroke-dashoffset:0;marker:none;visibility:visible;display:inline;overflow:visible;enable-background:accumulate"
       d="m 255.63779,133.67895 c 0.19869,-0.20535 -2.52787,-2.5831 -3.77402,-2.9601 -2.39169,-0.72365 -1.44065,0.217 -9.86136,-0.30544 -1.03331,-0.0641 -4.99216,-1.21634 -2.8017,-3.58707 0.74317,-0.80426 13.85649,10.16333 16.43705,6.85266 z"
       inkscape:connector-curvature="0"
       sodipodi:nodetypes="cssssc" />
    <path
       style="color:#000000;fill:none;stroke:#c87137;stroke-width:3.99999976;stroke-linecap:round;stroke-linejoin:round;stroke-miterlimit:4;stroke-opacity:1;stroke-dasharray:none;stroke-dashoffset:0;marker:none;visibility:visible;display:inline;overflow:visible;enable-background:accumulate"
       d="m 180.95686,109.13421 c 0.43717,7.5e-4 2.8268,0.28552 2.33653,0.74566 -0.72535,0.6808 -4.77944,2.73095 -5.41127,3.09217 -0.16166,0.0925 -0.49335,0.5161 -1.55551,0.75634 1.34396,1.11683 4.41133,2.07239 4.47061,1.06051 7.34565,1.11051 -5.84813,-4.55557 -3.49438,-5.61913 2.8505,-0.42583 1.07483,0.27936 3.65402,-0.0356 z"
       id="path5183"
       inkscape:connector-curvature="0"
       sodipodi:nodetypes="csscccc" />
    <path
       sodipodi:nodetypes="ccccccccc"
       inkscape:connector-curvature="0"
       id="path5191"
       d="m 317.70129,278.13366 c 2.91415,-6.73852 1.25033,-16.68292 -0.0417,-23.79284 -0.41851,-11.96949 -0.71507,-22.26197 -0.0996,-34.3178 -1.38152,-7.07705 2.42347,-16.49338 1.03472,-23.47201 0.0833,-6.9124 -2.3557,-13.76338 -0.44875,-20.55719 0.85019,-8.49898 -0.53746,-16.60653 -0.39075,-25.12305 -0.65243,-4.53107 0.95657,-8.66614 -0.12712,-13.25977 0.007,-5.55688 -0.0384,-11.17536 -1.10598,-16.75945 -0.11416,-5.55644 3.56116,-9.80487 -0.67591,-16.78123"
       style="color:#000000;fill:none;stroke:#808080;stroke-width:3.99999976;stroke-linecap:round;stroke-linejoin:miter;stroke-miterlimit:4;stroke-opacity:1;stroke-dasharray:none;stroke-dashoffset:0;marker:none;visibility:visible;display:inline;overflow:visible;enable-background:accumulate" />
    <path
       sodipodi:nodetypes="cccccccccccc"
       inkscape:connector-curvature="0"
       id="path5211"
       d="m 314.75742,211.00819 c -5.13899,-0.36475 -7.91178,-0.0598 -13.01863,-0.86797 -4.17638,0.47717 -8.0402,0.6342 -12.26836,-0.2988 -5.99515,0.0597 -6.05257,0.71447 -12.04931,0.7422 -0.8798,-1.79353 1.61452,-10.46068 0.36192,-14.43805 1.7e-4,-10.96253 1.36727,-7.52312 0.44965,-18.449 4.04307,-0.67941 5.57205,0.43542 9.62572,-0.29046 4.52076,-0.45379 9.04243,-0.74952 13.55227,-1.34394 4.72209,-0.36125 8.42772,-0.0985 13.16324,0.46449 -0.51518,4.05485 0.9159,8.00778 0.13375,13.77422 -0.41484,7.28135 1.66915,6.29255 -0.0375,11.88417 z"
       style="color:#000000;fill:none;stroke:#c87137;stroke-width:3.99999952;stroke-linecap:round;stroke-linejoin:round;stroke-miterlimit:4;stroke-opacity:1;stroke-dasharray:none;stroke-dashoffset:0;marker:none;visibility:visible;display:inline;overflow:visible;enable-background:accumulate" />
    <path
       style="color:#000000;fill:none;stroke:#c87137;stroke-width:4;stroke-linecap:round;stroke-linejoin:round;stroke-miterlimit:4;stroke-opacity:1;stroke-dasharray:none;stroke-dashoffset:0;marker:none;visibility:visible;display:inline;overflow:visible;enable-background:accumulate"
       d="m 278.32863,137.78527 c 4.9434,0.37271 8.33213,-1.47185 13.24462,-0.64587 4.01745,-0.4876 7.49373,-0.90352 11.56097,0.0499 5.767,-0.0609 5.82223,0.29176 11.59074,0.26342 0.84632,1.83277 -1.0721,10.68951 0.13282,14.75389 -1.5e-4,11.20231 -0.59378,7.17671 0.28893,18.3416 -3.8892,0.69427 -6.56242,-0.29625 -10.46181,-0.145 -4.34871,-0.19472 -8.69832,-0.58054 -13.03651,0.0268 -4.54237,0.36913 -9.06893,1.12223 -13.62423,1.2228 0.49557,-4.26721 -1.362,-7.58118 -0.60962,-13.47375 0.39906,-7.44062 -0.88418,-6.68567 0.75756,-12.39961 z"
       id="path5188"
       inkscape:connector-curvature="0"
       sodipodi:nodetypes="cccccccccccc" />
    <use
       x="0"
       y="0"
       xlink:href="#path5269"
       id="use6446"
       transform="matrix(-1,0,0,-1,453.152,380.79816)"
       width="480"
       height="320" />
    <path
       style="color:#000000;fill:none;stroke:#c87137;stroke-width:4;stroke-linecap:round;stroke-linejoin:round;stroke-miterlimit:4;stroke-opacity:1;stroke-dasharray:none;stroke-dashoffset:0;marker:none;visibility:visible;display:inline;overflow:visible;enable-background:accumulate"
       d="m 296,209.5 c 0.67783,-2.06339 -0.29939,-4.36429 0.72194,-6.35236 0.66721,-3.07408 -0.0359,-6.24515 0.48225,-9.33613 0.10629,-3.85307 0.022,-7.70773 0.0463,-11.56151 -0.69671,-1.58236 -0.22283,-3.37925 -0.75074,-5.00009"
       id="path5219"
       inkscape:connector-curvature="0" />
    <path
       style="color:#000000;fill:none;stroke:#c87137;stroke-width:4;stroke-linecap:round;stroke-linejoin:round;stroke-miterlimit:4;stroke-opacity:1;stroke-dasharray:none;stroke-dashoffset:0;marker:none;visibility:visible;display:inline;overflow:visible;enable-background:accumulate"
       d="m 287,209 c 0.11815,-2.69568 -0.358,-5.46825 0.49967,-8.08569 0.5505,-4.9782 0.0853,-9.99126 0.25027,-14.98456 6.2e-4,-2.80992 0.002,-5.61983 -6e-5,-8.42975"
       id="path5221"
       inkscape:connector-curvature="0" />
    <path
       style="color:#000000;fill:none;stroke:#c87137;stroke-width:4;stroke-linecap:round;stroke-linejoin:round;stroke-miterlimit:4;stroke-opacity:1;stroke-dasharray:none;stroke-dashoffset:0;marker:none;visibility:visible;display:inline;overflow:visible;enable-background:accumulate"
       d="m 305.5,209.5 c -4.4e-4,-5.91667 6e-4,-11.83333 0,-17.75 -0.63399,-2.01008 -0.0568,-4.12804 -0.25,-6.18571 0,-3.27143 0,-6.54286 0,-9.81429"
       id="path5227"
       inkscape:connector-curvature="0" />
    <path
       sodipodi:nodetypes="ccccccc"
       inkscape:connector-curvature="0"
       id="path5672"
       d="m 354.75982,102.73382 c -1.06681,11.67414 -0.0323,23.39618 -0.30034,35.09345 -0.18926,12.00734 2.1416,24.11956 -0.75851,36.03026 -0.1804,9.34687 0.59809,18.75837 -0.19375,28.06396 -1.48078,9.08655 -0.0504,18.26646 -0.46012,27.39819 0.0921,14.79487 -0.31703,13.32388 -0.22395,28.11875 1.14248,1.76577 0.71278,19.96177 1.0338,21.80164"
       style="color:#000000;fill:none;stroke:#808080;stroke-width:4;stroke-linecap:round;stroke-linejoin:miter;stroke-miterlimit:4;stroke-opacity:1;stroke-dasharray:none;stroke-dashoffset:0;marker:none;visibility:visible;display:inline;overflow:visible;enable-background:accumulate" />
    <use
       x="0"
       y="0"
       xlink:href="#path5672"
       id="use6448"
       transform="matrix(-1,0,0,-1,453.152,380.79816)"
       width="480"
       height="320" />
    <path
       style="color:#000000;fill:none;stroke:#808080;stroke-width:4;stroke-linecap:round;stroke-linejoin:miter;stroke-miterlimit:4;stroke-opacity:1;stroke-dasharray:none;stroke-dashoffset:0;marker:none;visibility:visible;display:inline;overflow:visible;enable-background:accumulate"
       d="M 99,119.5 C 95.62972,114.78293 93.0533,106.52158 89.94684,100.41615 87.29363,91.909874 86.46486,90.524739 85.80962,82.0231 80.00249,66.593676 78.57287,59.910707 75.4182,53.734327 73.3166,48.321345 75.37,42.641071 71.5,34"
       id="path6450"
       inkscape:connector-curvature="0"
       sodipodi:nodetypes="ccccc" />
    <path
       sodipodi:nodetypes="ccccc"
       inkscape:connector-curvature="0"
       id="path6492"
       d="m 71.5,126.5 c 3.37028,4.71707 1.9467,12.97842 5.05316,19.08385 2.65321,8.50628 3.48198,9.89141 4.13722,18.39305 5.80713,15.42942 4.73675,18.61239 10.39142,28.28877 C 92.6834,199.67865 95.13,203.35893 99,212"
       style="color:#000000;fill:none;stroke:#808080;stroke-width:4;stroke-linecap:round;stroke-linejoin:miter;stroke-miterlimit:4;stroke-opacity:1;stroke-dasharray:none;stroke-dashoffset:0;marker:none;visibility:visible;display:inline;overflow:visible;enable-background:accumulate" />
    <path
       sodipodi:nodetypes="ccccc"
       inkscape:connector-curvature="0"
       id="path6494"
       d="m 70.5,179 c 3.37028,4.71707 5.9467,12.97842 9.05316,19.08385 2.65321,8.50628 3.48198,9.89141 4.13722,18.39305 5.80713,15.42942 7.23675,22.11239 10.39142,28.28877 C 96.1834,250.17865 94.13,255.85893 98,264.5"
       style="color:#000000;fill:none;stroke:#808080;stroke-width:4;stroke-linecap:round;stroke-linejoin:miter;stroke-miterlimit:4;stroke-opacity:1;stroke-dasharray:none;stroke-dashoffset:0;marker:none;visibility:visible;display:inline;overflow:visible;enable-background:accumulate" />
    <path
       style="color:#000000;fill:none;stroke:#808080;stroke-width:4;stroke-linecap:round;stroke-linejoin:miter;stroke-miterlimit:4;stroke-opacity:1;stroke-dasharray:none;stroke-dashoffset:0;marker:none;visibility:visible;display:inline;overflow:visible;enable-background:accumulate"
       d="M 98,172 C 94.62972,167.28293 96.0533,159.02158 92.94684,152.91615 90.29363,144.40987 89.46486,143.02474 88.80962,134.5231 83.00249,119.09368 84.07287,115.91071 78.4182,106.23433 76.8166,98.82135 74.37,95.14107 70.5,86.5"
       id="path6496"
       inkscape:connector-curvature="0"
       sodipodi:nodetypes="ccccc" />
    <path
       style="color:#000000;fill:none;stroke:#c87137;stroke-width:3.99999952;stroke-linecap:round;stroke-linejoin:round;stroke-miterlimit:4;stroke-opacity:1;stroke-dasharray:none;stroke-dashoffset:0;marker:none;visibility:visible;display:inline;overflow:visible;enable-background:accumulate"
       d="m 255.05299,132.68975 c 11.31558,0.29677 3.11205,-18.49126 0.28355,-30.94677 1.33047,-9.360336 5.94258,-17.700204 -4.57947,-26.437986"
       id="path6548"
       inkscape:connector-curvature="0"
       sodipodi:nodetypes="ccc" />
    <path
       style="color:#000000;fill:none;stroke:#c87137;stroke-width:3.99999976;stroke-linecap:round;stroke-linejoin:round;stroke-miterlimit:4;stroke-opacity:1;stroke-dasharray:none;stroke-dashoffset:0;marker:none;visibility:visible;display:inline;overflow:visible;enable-background:accumulate"
       d="m 183.48889,115.38776 c 7.64053,12.09369 17.28671,1.05362 30.98731,0.84639 4.52305,-2.08286 15.01494,-21.742131 20.37342,-32.335204 -0.78183,-4.277979 1.8158,-6.049304 3.59279,-8.363465"
       id="path6498"
       inkscape:connector-curvature="0"
       sodipodi:nodetypes="cccc" />
    <g
       id="g6898"
       transform="matrix(-0.53666559,0.84379502,-0.84379502,-0.53666559,624.30975,141.64629)">
      <path
         sodipodi:nodetypes="ssss"
         inkscape:connector-curvature="0"
         id="path6851"
         d="m 260.10061,227.39164 c -4.88996,-2.16352 -6.60689,-2.21905 -11.68348,-4.60128 -6.34872,-2.97919 -8.15387,-3.10264 -12.75899,-4.75833 C 226.13152,214.60691 222.23201,214.30276 214.75,213"
         style="color:#000000;fill:none;stroke:#c87137;stroke-width:4;stroke-linecap:round;stroke-linejoin:round;stroke-miterlimit:4;stroke-opacity:1;stroke-dasharray:none;stroke-dashoffset:0;marker:none;visibility:visible;display:inline;overflow:visible;enable-background:accumulate" />
      <path
         sodipodi:nodetypes="ssss"
         inkscape:connector-curvature="0"
         id="path6856"
         d="m 213.5,212 c 3.52739,1.43799 -3.92305,3.68567 -9,-0.5 -4.61181,-3.80219 -7.5883,-9.97594 -6,-9 7.25265,4.45643 4.55455,5.24177 15,9.5 z"
         style="color:#000000;fill:none;stroke:#808080;stroke-width:4;stroke-linecap:round;stroke-linejoin:miter;stroke-miterlimit:4;stroke-opacity:1;stroke-dasharray:none;stroke-dashoffset:0;marker:none;visibility:visible;display:inline;overflow:visible;enable-background:accumulate" />
    </g>
    <path
       inkscape:connector-curvature="0"
       style="fill:none;stroke:#80ff00;stroke-width:3.99999976;stroke-linecap:round;stroke-linejoin:round;stroke-miterlimit:4;stroke-opacity:1;stroke-dasharray:none"
       d="m 246.12787,213.49744 c 1.23741,1.40676 1.56977,-2.25074 2.96246,-0.52797 2.87069,0.58929 5.43628,-1.11129 8.31906,-0.45062 1.94761,0.003 3.68345,-1.04173 5.64159,-0.98343 2.04753,-0.0134 3.89626,-0.74285 5.76714,-1.40496 1.65618,-0.49263 3.40268,-0.53151 5.08701,-0.86636 1.48417,0.59277 2.65089,0.11637 4.16142,0.60279 1.82371,0.57856 3.56118,-0.63403 5.40299,0.37815 0.13108,0.85843 -1.33392,2.03219 -1.83128,3.01558 -1.76114,2.46304 -3.52117,4.92763 -5.28488,7.38751 -1.41216,1.0476 -2.36589,2.93374 -4.12164,3.28663 -1.27131,0.67114 -2.17576,1.96793 -3.28119,2.90699 -1.11285,1.21189 -2.48503,2.45131 -3.7558,3.55436 -1.19825,1.31306 -2.55979,2.3937 -3.52094,4.03728 -0.75553,1.28552 -1.72689,2.87924 -2.98601,0.78516 -1.19435,-1.28571 -1.3683,-3.3678 -2.57547,-4.6565 -0.9856,-1.80215 -2.36252,-3.21956 -2.84886,-5.48132 -1.19639,-1.73461 -2.11632,-3.90857 -3.56316,-5.34918 -0.77951,-1.74164 -1.95645,-3.27712 -2.93025,-4.80524 -0.28772,-0.34005 -0.94642,-0.89582 -0.64199,-1.42862 z"
       id="path2942" />
    <path
       inkscape:connector-curvature="0"
       style="fill:none;stroke:#80ff00;stroke-width:3.99999976;stroke-linecap:round;stroke-linejoin:round;stroke-miterlimit:4;stroke-opacity:1;stroke-dasharray:none"
       d="m 165.48965,166.21107 c -3.30933,7.74577 -7.63424,14.45925 -11.63212,21.49659 -3.85023,6.3712 -8.75537,10.37144 -14.92344,15.82472 -6.31525,4.35465 -19.11286,3.41802 -23.5784,12.41481 -3.60457,7.65943 -5.74669,15.8116 -5.85629,24.60618 -0.36713,5.00423 1.6072,10.01474 4.43642,13.99703 5.06844,9.86933 11.3065,7.17333 15.32491,0.90247 2.15909,-4.1105 6.38708,-7.73994 8.08431,-9.69131 6.30246,-8.37834 11.04083,-10.25961 17.28335,-12.11424"
       id="path4123"
       sodipodi:nodetypes="ccccccccc" />
    <path
       inkscape:connector-curvature="0"
       style="fill:none;stroke:#80ff00;stroke-width:3.99999952;stroke-linecap:round;stroke-linejoin:round;stroke-miterlimit:4;stroke-opacity:1;stroke-dasharray:none"
       d="m 269.94458,247.07946 c -4.47397,-2.26528 -10.79565,-1.70769 -15.53355,-0.64444 -9.85424,1.23855 -17.77486,1.18357 -27.40223,3.43772 -6.20804,-0.0172 -13.94127,2.55718 -19.54454,3.04779 -5.12853,0.54208 -13.47027,1.01451 -18.66594,1.8092"
       id="path2952-1"
       sodipodi:nodetypes="ccccc" />
    <path
       inkscape:connector-curvature="0"
       style="fill:none;stroke:#80ff00;stroke-width:3.99999976;stroke-linecap:round;stroke-linejoin:round;stroke-miterlimit:4;stroke-opacity:1;stroke-dasharray:none"
       d="m 247.11809,266.99102 c -3.54396,-3.17932 -5.41467,-5.33835 -5.66113,-9.9341 -0.89922,-5.43977 -1.95066,-11.48397 0.75722,-16.51619 1.10719,-3.3452 2.41045,-11.82483 5.10589,-5.53828 3.90807,4.04559 8.40503,7.92716 9.14682,13.09414 1.29196,5.33154 1.92317,11.1238 -0.4446,15.41885 -1.46547,0.62918 -0.56451,2.59241 -1.83588,3.39219"
       id="path2956"
       sodipodi:nodetypes="ccccccc" />
    <path
       inkscape:connector-curvature="0"
       style="fill:none;stroke:#80ff00;stroke-width:3.99999976;stroke-linecap:round;stroke-linejoin:round;stroke-miterlimit:4;stroke-opacity:1;stroke-dasharray:none"
       d="m 164.02143,270.81666 c -0.43995,-0.63211 -7.65525,-4.79336 -10.09845,-9.11156 -1.06643,-6.36939 -0.8459,-7.88282 1.45252,-13.28387 3.93572,-3.3231 7.94024,-12.28624 8.92682,-14.63624 2.14883,4.62447 4.08768,9.365 6.28751,13.95717 2.82363,7.19887 4.27799,8.85025 2.68098,17.01511 -2.07675,2.1771 -2.02135,2.46699 -4.3673,4.94927"
       id="path2958"
       sodipodi:nodetypes="ccccccc" />
    <path
       inkscape:connector-curvature="0"
       style="color:#000000;fill:none;stroke:#80ff00;stroke-width:4;stroke-linecap:round;stroke-linejoin:round;stroke-miterlimit:4;stroke-opacity:1;stroke-dasharray:none;stroke-dashoffset:0;marker:none;visibility:visible;display:inline;overflow:visible;enable-background:accumulate"
       d="m 133.0142,180.34168 c -3.6832,16.36803 -12.21754,22.73547 -11.49588,38.16475 0.38067,8.13804 -5.79617,23.39968 3.51312,26.99065 12.19684,4.70472 20.93403,17.90428 31.93682,13.56526 8.45306,-3.33353 9.57462,-1.84777 16.93779,-3.24357 2.8642,-0.54295 9.46607,-1.06759 14.38994,-1.10315"
       id="path4125"
       sodipodi:nodetypes="csssss" />
    <path
       inkscape:connector-curvature="0"
       style="color:#000000;fill:none;stroke:#80ff00;stroke-width:4;stroke-linecap:round;stroke-linejoin:round;stroke-miterlimit:4;stroke-opacity:1;stroke-dasharray:none;stroke-dashoffset:0;marker:none;visibility:visible;display:inline;overflow:visible;enable-background:accumulate"
       d="m 251.53896,225.85453 c -1.83152,2.51893 -5.20765,5.79221 -8.86118,5.95511 -3.79177,0.16862 -7.58426,-0.20194 -11.44933,-0.46792 -4.25716,-0.29291 -9.81512,-0.086 -14.55383,-0.27518 -5.9191,-0.23629 -11.32437,-1.49952 -17.33352,-1.58707 -7.32707,-0.10687 -14.72765,1.41041 -22.09332,2.27183 -3.70387,0.43314 -7.30384,1.21019 -11.06891,1.32426 -2.90431,0.0878 -9.09242,0.17133 -11.36331,0.6201"
       id="path2833"
       sodipodi:nodetypes="csssssss" />
    <path
       inkscape:connector-curvature="0"
       style="color:#000000;fill:none;stroke:#80ff00;stroke-width:3.99999976;stroke-linecap:round;stroke-linejoin:round;stroke-miterlimit:4;stroke-opacity:1;stroke-dasharray:none;stroke-dashoffset:0;marker:none;visibility:visible;display:inline;overflow:visible;enable-background:accumulate"
       d="m 275.02672,234.78531 c 1.103,-0.68966 4.01036,3.4907 5.86663,4.87181 1.50853,1.12247 3.20801,2.01775 4.56899,3.28241 1.50954,1.40277 2.82148,3.01963 4.39097,4.35451 2.35594,2.00391 4.92582,3.78384 7.42924,5.62452 1.22396,0.89987 2.72088,1.21936 3.59531,2.43987 1.08557,1.51634 4.1639,2.84793 3.74732,4.07332 -0.38703,1.13895 -3.40286,0.34791 -4.921,1.09734 -4.87939,2.4085 -7.15002,1.05191 -10.68573,0.86778 -2.49584,-0.13002 -4.6329,-1.12314 -7.0964,-1.01959 -2.70151,0.11363 -5.24695,1.08243 -7.94765,1.23185 -1.69936,0.0941 -3.32258,-0.37548 -4.99237,-0.39306 -2.49564,-0.0263 -0.42379,-2.20487 0.002,-3.18511 0.78836,-1.81428 1.2201,-3.74984 1.90505,-5.60003 0.59196,-1.59907 0.42774,-3.40541 1.17464,-5.00349 0.80747,-1.72766 1.66515,-3.50246 2.03652,-5.36784 0.35565,-1.78587 0.59973,-3.62515 0.72713,-5.46924 0.0626,-0.90608 -0.35784,-1.45662 0.1989,-1.80479 z"
       id="path2870"
       sodipodi:nodetypes="csssssssssssssssss" />
    <path
       inkscape:connector-curvature="0"
       style="fill:none;stroke:#80ff00;stroke-width:3.99999952;stroke-linecap:round;stroke-linejoin:round;stroke-miterlimit:4;stroke-opacity:1;stroke-dasharray:none"
       d="m 171.5244,243.8236 c 3.4284,-0.14877 6.73744,2.61073 10.13251,2.64348 4.3886,-0.44299 7.60739,0.43373 11.76138,2.34269 2.72663,0.71578 5.87301,-0.0687 7.05246,4.78689 -0.17764,3.93068 -4.68965,5.2807 -8.63395,6.83078 -3.71263,2.34027 -5.36612,4.31532 -9.05912,5.64031 -2.21958,1.67546 -6.92105,3.94954 -8.10713,3.75693"
       id="path2956-7"
       sodipodi:nodetypes="ccccccc" />
    <path
       inkscape:connector-curvature="0"
       style="fill:none;stroke:#80ff00;stroke-width:3.99999952;stroke-linecap:round;stroke-linejoin:round;stroke-miterlimit:4;stroke-opacity:1;stroke-dasharray:none"
       d="m 279.19323,274.72954 c -0.42694,-0.57206 -4.14514,-3.10213 -5.28168,-4.62523 -5.81395,-3.55862 -7.97882,-4.02749 -10.0536,-7.56968 -1.31776,-8.3373 -2.7608,-15.33283 -1.58313,-19.13758 3.10082,-2.24169 7.87753,-14.1435 12.39822,-13.17369 5.97347,-0.48841 7.14561,-2.10778 15.00521,-1.80479 1.37896,-0.24044 3.87261,1.7704 6.56496,1.50728"
       id="path2958-6"
       sodipodi:nodetypes="ccccccc" />
  </g>
</svg>
