<?xml version="1.0" encoding="UTF-8" standalone="no"?>
<!-- Created with Inkscape (http://www.inkscape.org/) -->

<svg
   xmlns:dc="http://purl.org/dc/elements/1.1/"
   xmlns:cc="http://creativecommons.org/ns#"
   xmlns:rdf="http://www.w3.org/1999/02/22-rdf-syntax-ns#"
   xmlns:svg="http://www.w3.org/2000/svg"
   xmlns="http://www.w3.org/2000/svg"
   xmlns:sodipodi="http://sodipodi.sourceforge.net/DTD/sodipodi-0.dtd"
   xmlns:inkscape="http://www.inkscape.org/namespaces/inkscape"
   width="480"
   height="320"
   id="svg2"
   version="1.1"
   inkscape:version="0.47 r22583"
   sodipodi:docname="itnas214.svg"
   inkscape:export-xdpi="90"
   inkscape:export-ydpi="90"
   inkscape:export-filename="itnas214.png">
  <defs
     id="defs4" />
  <sodipodi:namedview
     id="base"
     pagecolor="#ffffff"
     bordercolor="#666666"
     borderopacity="1.0"
     inkscape:pageopacity="1"
     inkscape:pageshadow="2"
     inkscape:zoom="1"
     inkscape:cx="277.4435"
     inkscape:cy="161.67039"
     inkscape:document-units="px"
     inkscape:current-layer="layer1"
     showgrid="false"
     inkscape:snap-nodes="true"
     inkscape:snap-global="false"
     inkscape:snap-grids="true"
     showguides="true"
     inkscape:window-width="1280"
     inkscape:window-height="774"
     inkscape:window-x="1276"
     inkscape:window-y="1020"
     inkscape:window-maximized="1">
    <inkscape:grid
       empspacing="5"
       visible="true"
       enabled="true"
       snapvisiblegridlinesonly="true"
       type="xygrid"
       id="grid2816" />
  </sodipodi:namedview>
  <metadata
     id="metadata7">
    <rdf:RDF>
      <cc:Work
         rdf:about="">
        <dc:format>image/svg+xml</dc:format>
        <dc:type
           rdf:resource="http://purl.org/dc/dcmitype/StillImage" />
        <dc:title></dc:title>
      </cc:Work>
    </rdf:RDF>
  </metadata>
  <g
     inkscape:label="Layer 1"
     inkscape:groupmode="layer"
     id="layer1"
     transform="translate(0,0)">
    <path
       sodipodi:nodetypes="cssssc"
       id="path4261"
       d="m 453.78737,121.76491 c 0.84817,5.49167 0.37647,7.79617 -0.20256,13.30044 -0.78434,7.45535 0.0361,11.90562 0.62551,19.28486 1.17124,14.665 -0.55329,22.10864 -0.92384,33.3072 -0.18586,5.61805 0.36415,12.60386 0.14662,18.30623 -0.3069,8.04484 -1.08624,16.38903 -0.93133,24.43587"
       style="color:#000000;fill:none;stroke:#c87137;stroke-width:3.99999905;stroke-linecap:round;stroke-linejoin:round;stroke-miterlimit:4;stroke-opacity:1;stroke-dasharray:none;stroke-dashoffset:0;marker:none;visibility:visible;display:inline;overflow:visible;enable-background:accumulate" />
    <path
       sodipodi:nodetypes="cssscc"
       id="path4263"
       d="m 417.46711,230.98695 c 0.37156,-3.89117 0.6637,-7.78787 1.0741,-11.71152 0.53477,-5.11333 -1.38022,-10.15747 -1.37182,-15.32658 0.0192,-11.76621 2.41138,-25.3947 0.40135,-36.66367 -1.0669,-5.98129 -0.75605,-11.8056 0.0279,-17.18026 -0.18886,-9.8183 1.57465,-15.49241 0.13528,-25.54945"
       style="color:#000000;fill:none;stroke:#c87137;stroke-width:3.99999928;stroke-linecap:round;stroke-linejoin:round;stroke-miterlimit:4;stroke-opacity:1;stroke-dasharray:none;stroke-dashoffset:0;marker:none;visibility:visible;display:inline;overflow:visible;enable-background:accumulate" />
    <path
       style="color:#000000;fill:none;stroke:#94f3f3;stroke-width:4;stroke-linecap:round;stroke-linejoin:round;stroke-miterlimit:4;stroke-opacity:1;stroke-dasharray:none;stroke-dashoffset:0;marker:none;visibility:visible;display:inline;overflow:visible;enable-background:accumulate"
       d="m 439.87604,-127.56773 c -0.17643,0.4125 -0.34919,0.82803 -0.52381,1.24011 -6.55319,8.04269 -13.09132,27.06164 -19.66428,46.403212 -7.41764,18.350951 -14.23235,36.820627 -19.64073,55.897041 -4.9063,12.58217 -7.98375,25.410226 -14.23114,37.447941 -5.04791,23.929476 -15.67786,44.159316 -23.59666,69.183436 -4.66112,11.54437 -8.8099,13.41712 -16.2321,34.31685 12.81534,3.78067 25.4646,3.93458 38.83694,4.65356 21.4497,1.77362 42.53933,0.37474 63.96677,-0.47183 10.14706,-0.58349 28.86965,0.60238 43.4569,1.70438 4.20239,1.23565 14.12202,0.2346 23.31892,-2.20705 -0.17268,-17.54914 -13.75342,-38.75029 -21.43938,-62.84131 -5.95837,-18.89578 -7.01039,-26.14363 -8.40225,-37.1614 -5.8697,-16.358089 -7.00088,-35.456977 -12.74661,-54.120234 -15.21892,-23.924038 -17.88976,-42.244478 -23.64176,-65.572426 -1.26212,-7.40196 -2.51601,-18.6522 -9.10004,-28.23074 -0.0669,0.0727 -0.13362,0.16504 -0.20095,0.23976 -0.0534,-0.16567 -0.10521,-0.31368 -0.15968,-0.48122 z"
       id="path4271"
       sodipodi:nodetypes="ccccccccccccccccsc" />
    <path
       style="color:#000000;fill:none;stroke:#c87137;stroke-width:3.99999928;stroke-linecap:round;stroke-linejoin:round;stroke-miterlimit:4;stroke-opacity:1;stroke-dasharray:none;stroke-dashoffset:0;marker:none;visibility:visible;display:inline;overflow:visible;enable-background:accumulate"
       d="m 72.25649,224.13014 c 0.88773,-4.75801 0.4936,-6.74119 0.0595,-11.48692 -0.58806,-6.42788 0.2547,-10.28578 0.93776,-16.67025 1.35747,-12.68808 -0.10175,-19.09058 -0.23696,-28.75897 -0.0678,-4.85037 0.57151,-10.89432 0.47595,-15.81704 -0.13483,-6.94495 -1.52237,-9.9594 -1.22934,-16.91355 0.0973,-7.26454 0.73021,-7.94179 0.70462,-15.10067"
       id="path2832"
       sodipodi:nodetypes="csssscc" />
    <path
       style="color:#000000;fill:none;stroke:#c87137;stroke-width:3.99999976;stroke-linecap:round;stroke-linejoin:round;stroke-miterlimit:4;stroke-opacity:1;stroke-dasharray:none;stroke-dashoffset:0;marker:none;visibility:visible;display:inline;overflow:visible;enable-background:accumulate"
       d="m 35.96195,122.28885 c 0.36449,3.69143 0.64971,7.38785 1.05287,11.11022 0.52538,4.85105 -1.39387,9.62827 -1.39387,14.53045 0,11.15857 2.36521,24.09117 0.341,34.77142 -1.07441,5.66883 -0.77364,11.19335 0,16.29305 -0.20441,9.31058 1.54629,14.6975 0.0935,24.23035"
       id="path2850"
       sodipodi:nodetypes="cssscc" />
    <path
       style="color:#000000;fill:none;stroke:#94f3f3;stroke-width:4;stroke-linecap:round;stroke-linejoin:round;stroke-miterlimit:4;stroke-opacity:1;stroke-dasharray:none;stroke-dashoffset:0;marker:none;visibility:visible;display:inline;overflow:visible;enable-background:accumulate"
       d="m 308.25821,22.841219 c -0.21856,0.126826 -0.46223,0.254137 -0.68079,0.393933 -6.23243,7.668494 -11.91294,12.389408 -15.49809,19.385576 -3.81343,7.44163 -10.66872,11.222691 -14.89739,18.183055 -4.39056,5.991676 -6.44829,12.301556 -9.29085,16.524392 -9.81559,11.650605 -12.50114,16.985485 -18.58169,29.358265 -1.91508,6.51364 -5.9136,11.4438 -9.33089,16.23413 -2.03848,4.82481 -17.19206,12.46872 -17.62056,26.95322 0.14005,20.51504 37.15319,26.16654 53.91094,34.26959 18.39175,2.90156 37.69807,-1.06286 52.62142,-1.30619 17.49935,-3.36873 53.50461,-15.09172 51.6861,-31.96821 1.66698,-6.33864 -4.70277,-10.24996 -10.28579,-24.50669 C 354.1391,104.42931 355.68283,106.0714 354.67239,101.047 349.42378,93.82583 342.184,86.79427 338.13308,75.068251 331.48737,68.465585 325.12614,59.556171 319.75162,44.300118 316.53288,38.335001 314.45904,32.765382 308.25821,22.841219 z"
       id="path4267"
       sodipodi:nodetypes="ccsccccccccccccc" />
    <path
       id="path4277"
       style="color:#000000;fill:none;stroke:#c87137;stroke-width:3.99999928;stroke-linecap:round;stroke-linejoin:round;stroke-miterlimit:4;stroke-opacity:1;stroke-dasharray:none;stroke-dashoffset:0;marker:none;visibility:visible;display:inline;overflow:visible;enable-background:accumulate"
       d="m 315.49697,214.69701 c 1.18862,-5.87642 0.47694,-12.96758 1.92224,-20.38088 0.5786,-8.53193 -2.68515,-15.29821 -2.24261,-24.13525 0.54664,-6.14559 3.65893,-7.91415 2.43867,-14.859 -0.17086,-5.5254 -3.57508,-5.56411 -9.32407,-8.927 -6.13396,-0.5121 -11.02809,-1.82336 -16.54899,1 -5.8133,2.32624 -5.9359,3.30941 -9.1048,10.5796 -1.79734,8.62879 1.08886,8.5495 1.14253,15.43492 -0.65996,5.34276 -1.73579,10.39921 0,14.77895 -1.0679,10.48755 -0.85433,10.18205 -1.92223,14.09158 -0.83269,4.78273 0.52377,8.17644 1.28149,10.82644"
       sodipodi:nodetypes="ccccccccccc" />
    <path
       sodipodi:nodetypes="cccc"
       id="path4306"
       d="m 169.68541,122.60085 c -1.18862,10.51652 -0.47693,23.207 -1.92224,36.47394 -0.5786,15.26888 2.68515,27.3779 2.24261,43.19281 -0.48054,11.06584 0.54193,18.45925 -2.56298,26.23565"
       style="color:#000000;fill:none;stroke:#c87137;stroke-width:3.99999928;stroke-linecap:round;stroke-linejoin:round;stroke-miterlimit:4;stroke-opacity:1;stroke-dasharray:none;stroke-dashoffset:0;marker:none;visibility:visible;display:inline;overflow:visible;enable-background:accumulate" />
    <path
       sodipodi:nodetypes="ccccc"
       id="path4308"
       d="m 202.07086,228.96606 c 2.15804,-16.2329 -0.55104,-18.48418 -0.60143,-31.72504 0.61947,-10.27427 1.62928,-19.99797 0,-28.42036 1.00239,-20.16781 0.80191,-19.58034 1.80429,-27.09844 0.78159,-9.19736 -0.49163,-15.72354 -1.20286,-20.81956"
       style="color:#000000;fill:none;stroke:#c87137;stroke-width:3.99999905;stroke-linecap:round;stroke-linejoin:round;stroke-miterlimit:4;stroke-opacity:1;stroke-dasharray:none;stroke-dashoffset:0;marker:none;visibility:visible;display:inline;overflow:visible;enable-background:accumulate" />
    <path
       style="color:#000000;fill:none;stroke:#94f3f3;stroke-width:4;stroke-linecap:round;stroke-linejoin:round;stroke-miterlimit:4;stroke-opacity:1;stroke-dasharray:none;stroke-dashoffset:0;marker:none;visibility:visible;display:inline;overflow:visible;enable-background:accumulate"
       d="m 60.31619,-126.83494 c -9.13587,9.9354 -18.27173,42.3687 -27.40759,67.94226 C 22.36804,-40.37409 20.7608,-12.85487 6.26233,14.39336 2.5869,32.06008 -4.1088,59.00586 -17.15666,83.7844 c -4.63139,11.58336 -8.7993,13.46388 -16.16975,34.43083 24.85223,4.6466 43.61579,-0.36575 63.95104,3.81699 l 44.918,-3.81698 60.14442,3.05358 C 130.10402,112.86904 124.52099,100.77649 118.93797,73.17486 101.07855,26.22152 108.79346,35.9467 105.9955,21.26392 100.10929,4.8915 98.92724,-14.25445 93.16071,-32.937205 87.07013,-43.678035 75.54263,-74.61151 69.45205,-98.58929 c -1.27246,-7.41299 -2.54863,-18.66902 -9.13586,-28.24565 z"
       id="path4156"
       sodipodi:nodetypes="ccccccccccccc" />
    <path
       sodipodi:nodetypes="cccccscccccccc"
       id="path4265"
       d="m 268.90145,119.70181 c -0.20298,-17.5846 -16.33526,-52.91385 -24.04753,-77.02915 -3.62216,-23.23479 -16.0331,-37.09087 -21.86823,-69.79195 -6.6457,-12.783045 -16.23701,-33.88287 -21.61152,-63.41923 -3.24655,-11.64845 -2.06559,-18.56318 -8.44857,-38.15849 -6.4702,15.27701 -11.72626,30.26358 -17.95005,43.24632 -14.13066,29.476265 -9.05714,33.47911 -15.85836,49.207765 -11.53345,20.551905 -12.93891,33.921645 -15.50009,46.457385 -7.68898,16.69842 -13.68063,35.4009 -18.80662,55.31056 -2.06258,9.45143 -11.4721,27.39019 -17.85791,53.05834 6.82503,4.93103 15.42331,-0.79852 31.46889,2.51778 21.40875,1.707 42.46087,0.25897 63.84278,-0.65954 10.12521,-0.61795 28.82071,0.48566 43.37993,1.54211 4.1959,1.22443 14.08353,0.1949 23.25728,-2.2819 z"
       style="color:#000000;fill:none;stroke:#94f3f3;stroke-width:3.99999928;stroke-linecap:round;stroke-linejoin:round;stroke-miterlimit:4;stroke-opacity:1;stroke-dasharray:none;stroke-dashoffset:0;marker:none;visibility:visible;display:inline;overflow:visible;enable-background:accumulate" />
    <path
       style="fill:none;stroke:#80ff00;stroke-width:3.99999976;stroke-linecap:round;stroke-linejoin:round;stroke-miterlimit:4;stroke-opacity:1;stroke-dasharray:none"
       d="m 197.98079,184.33008 c -0.20046,1.86277 2.71981,-0.36427 2.39137,1.82655 1.5059,2.51404 4.49326,3.25558 5.95474,5.82672 1.31389,1.43769 3.25731,2.01071 4.5378,3.49331 1.39378,1.49996 3.18085,2.36955 4.9333,3.30094 1.48243,0.88767 2.69152,2.14864 4.07669,3.16368 0.56621,1.4945 1.70584,2.03247 2.36832,3.47446 0.80617,1.73514 2.87417,2.19614 3.37301,4.2377 -0.54408,0.6768 -2.39932,0.39038 -3.46025,0.68843 -3.00564,0.36671 -6.01163,0.73528 -9.01664,1.09793 -1.72655,-0.33274 -3.76126,0.23912 -5.20802,-0.81641 -1.35389,-0.48333 -2.92094,-0.2735 -4.36015,-0.45355 -1.64533,-0.001 -3.48624,-0.17475 -5.15809,-0.36582 -1.77759,0.004 -3.49427,-0.26879 -5.35523,0.13367 -1.45811,0.31201 -3.28923,0.67325 -2.59685,-1.6701 0.14038,-1.74922 1.55737,-3.28465 1.69126,-5.04537 0.66209,-1.94439 0.77613,-3.9172 2.1144,-5.8043 0.46983,-2.05414 1.45033,-4.20147 1.53421,-6.2415 0.75675,-1.75163 1.09301,-3.65682 1.56112,-5.40737 0.0561,-0.44185 0.0205,-1.30296 0.619,-1.4387 z"
       id="path2942" />
    <path
       style="fill:none;stroke:#80ff00;stroke-width:3.99999952;stroke-linecap:round;stroke-linejoin:round;stroke-miterlimit:4;stroke-opacity:1;stroke-dasharray:none"
       d="m 192.53451,198.02551 c -4.0893,-1.59724 -8.60631,-2.17889 -13.42366,-2.78829 -9.85248,-0.52331 -24.99851,-3.90522 -27.78148,-2.41601 -6.17846,0.6055 -14.12088,0.3667 -19.74543,-1.00483 -3.03551,-0.40706 -13.74353,0.28345 -18.57661,1.38231"
       id="path2952-1"
       sodipodi:nodetypes="ccccc" />
    <path
       style="fill:none;stroke:#80ff00;stroke-width:3.99999952;stroke-linecap:round;stroke-linejoin:round;stroke-miterlimit:4;stroke-opacity:1;stroke-dasharray:none"
       d="m 163.45821,224.12548 c 2.25055,-3.04703 3.70152,-5.44919 5.02133,-9.14153 2.3131,-3.9583 1.60368,-9.44661 4.26239,-13.47146 1.2174,-2.66206 3.11008,-9.56109 4.61336,-4.07842 1.31764,4.24666 4.04061,7.83982 4.56017,12.02472 0.72353,4.75628 2.12083,8.33279 4.35074,12.62564 0.006,1.66851 1.26518,2.74642 1.4708,3.98019"
       id="path2956"
       sodipodi:nodetypes="ccccccc" />
    <path
       style="fill:none;stroke:#80ff00;stroke-width:3.99999952;stroke-linecap:round;stroke-linejoin:round;stroke-miterlimit:4;stroke-opacity:1;stroke-dasharray:none"
       d="m 106.24783,223.27492 c 0.0526,-2.33391 0.87507,-3.34632 2.09801,-4.7758 4.48242,-5.37415 4.74405,-7.92 5.97249,-12.47966 1.2499,-5.21738 5.65126,-9.86289 6.65084,-11.60499 1.28184,3.92031 3.26124,7.40725 4.58656,11.30812 3.83126,5.16497 5.90296,10.53419 8.68059,16.35417 1.1478,1.1116 0.93166,2.15405 0.93166,2.15405"
       id="path2958"
       sodipodi:nodetypes="ccccccc" />
    <path
       style="color:#000000;fill:none;stroke:#80ff00;stroke-width:4;stroke-linecap:round;stroke-linejoin:round;stroke-miterlimit:4;stroke-opacity:1;stroke-dasharray:none;stroke-dashoffset:0;marker:none;visibility:visible;display:inline;overflow:visible;enable-background:accumulate"
       d="m 342.11919,199.66723 c 2.60072,-2.25546 5.23268,-4.89444 9.54617,-5.2145 4.51804,-0.33526 7.99965,-1.67962 11.63715,-0.38966 3.99631,1.4172 10.07577,2.00416 14.81519,1.83436 5.92003,-0.21212 11.05731,-1.70113 17.06505,-1.54367 7.32532,0.19216 14.77718,-1.23354 22.10155,-0.0721 3.6831,0.58401 7.3254,-0.9405 11.08357,-1.19537 2.81601,-0.19097 8.0386,1.50537 11.4403,1.27856"
       id="path2833"
       sodipodi:nodetypes="csssssss" />
    <path
       style="color:#000000;fill:none;stroke:#c87137;stroke-width:3.99999976;stroke-linecap:round;stroke-linejoin:round;stroke-miterlimit:4;stroke-opacity:1;stroke-dasharray:none;stroke-dashoffset:0;marker:none;visibility:visible;display:inline;overflow:visible;enable-background:accumulate"
       d="m 275.6515,231.81724 c -3.44994,5.1348 -10.19173,10.01872 -7.59956,15.23964 1.24124,8.64765 4.82088,10.66184 7.89124,12.0718"
       id="path4395"
       sodipodi:nodetypes="ccc" />
    <path
       style="color:#000000;fill:none;stroke:#c87137;stroke-width:3.99999976;stroke-linecap:round;stroke-linejoin:round;stroke-miterlimit:4;stroke-opacity:1;stroke-dasharray:none;stroke-dashoffset:0;marker:none;visibility:visible;display:inline;overflow:visible;enable-background:accumulate"
       d="m 289.10686,232.68985 -4.79405,13.47282 c 1.26522,7.41108 5.1803,6.27426 4.21085,13.87511"
       id="path4397"
       sodipodi:nodetypes="ccc" />
    <path
       style="color:#000000;fill:none;stroke:#008000;stroke-width:4;stroke-linecap:round;stroke-linejoin:round;stroke-miterlimit:4;stroke-opacity:1;stroke-dasharray:none;stroke-dashoffset:0;marker:none;visibility:visible;display:inline;overflow:visible;enable-background:accumulate"
       d="m 243.25,228 c 3.80324,-3.55741 6.57355,-7.94116 13.5,-9 12.56675,0.18128 18.72144,-2.04196 26.25,-3.75 9.24361,-1.84617 14.9798,-1.58788 21,-1.5 11.9596,1.22853 10.54054,4.3964 22.25,5.25 4.90124,0.0532 10.81826,-0.65536 13.25,1.25 12.09367,6.56202 10.76698,9.26389 14.5,13.25"
       id="path2847"
       sodipodi:nodetypes="ccccccc" />
    <path
       style="color:#000000;fill:none;stroke:#c87137;stroke-width:3.99999976;stroke-linecap:round;stroke-linejoin:round;stroke-miterlimit:4;stroke-opacity:1;stroke-dasharray:none;stroke-dashoffset:0;marker:none;visibility:visible;display:inline;overflow:visible;enable-background:accumulate"
       d="m 302.79299,233.74182 c 2.3652,2.62831 4.794,5.18041 5.49778,9.7992 -0.49901,6.53054 -2.26799,12.00107 -3.7272,17.73015"
       id="path4399"
       sodipodi:nodetypes="ccc" />
    <path
       style="fill:none;stroke:#80ff00;stroke-width:3.99999952;stroke-linecap:round;stroke-linejoin:round;stroke-miterlimit:4;stroke-opacity:1;stroke-dasharray:none"
       d="m 351.28443,229.58013 c 0.22161,-4.37071 3.50537,-7.98239 3.36638,-12.29407 2.20972,-6.00667 1.72045,-9.79462 1.63877,-14.47985 0.695,-3.31566 2.0239,-13.19756 4.18131,-6.49647 1.76812,4.13351 4.00804,4.94024 4.69724,11.42657 0.33641,5.91682 3.84984,8.01974 5.94911,12.68385 0.84076,2.84369 5.77637,8.41399 5.95815,10.06074"
       id="path2956-7"
       sodipodi:nodetypes="ccccccc" />
    <path
       style="fill:none;stroke:#80ff00;stroke-width:3.99999952;stroke-linecap:round;stroke-linejoin:round;stroke-miterlimit:4;stroke-opacity:1;stroke-dasharray:none"
       d="m 414.32204,230.70512 c 0.20665,-0.72681 3.4329,-4.28035 3.98324,-6.21539 1.80436,-6.0755 5.41125,-8.40143 6.97936,-16.29705 3.66782,-6.09272 4.93088,-9.17314 8.54584,-14.00731 2.28807,4.57759 5.5325,9.04151 7.2882,13.69621 4.52259,6.10801 1.96612,6.2708 6.17533,13.89902 0.31495,1.79505 3.0794,4.22411 4.64858,8.19975"
       id="path2958-6"
       sodipodi:nodetypes="ccccccc" />
    <path
       style="color:#000000;fill:none;stroke:#80ff00;stroke-width:3.99999976;stroke-linecap:round;stroke-linejoin:round;stroke-miterlimit:4;stroke-opacity:1;stroke-dasharray:none;stroke-dashoffset:0;marker:none;visibility:visible;display:inline;overflow:visible;enable-background:accumulate"
       d="m 209.52533,211.35784 c 6.12138,4.61072 2.46362,7.43183 0.4879,9.0866 -0.47307,2.58526 -0.89636,2.35795 0.71439,4.95265"
       id="path4234"
       sodipodi:nodetypes="ccc" />
    <path
       sodipodi:nodetypes="ccc"
       id="path4461"
       d="m 321.05111,234.12712 c -0.28646,4.2085 3.76375,8.13719 4.98772,13.526 1.00904,5.06151 0.14783,10.65945 -3.52532,17.30053"
       style="color:#000000;fill:none;stroke:#c87137;stroke-width:3.99999976;stroke-linecap:round;stroke-linejoin:round;stroke-miterlimit:4;stroke-opacity:1;stroke-dasharray:none;stroke-dashoffset:0;marker:none;visibility:visible;display:inline;overflow:visible;enable-background:accumulate" />
    <path
       style="fill:none;stroke:#008000;stroke-width:4;stroke-linecap:butt;stroke-linejoin:miter;stroke-miterlimit:4;stroke-opacity:1;stroke-dasharray:none"
       d="m -36.103641,224.13132 c 10.633836,4.12643 22.544264,8.18878 33.6909836,6.50488 21.6530484,-1.69512 43.4070014,-8.55222 64.7309634,-6.72454 9.320463,4.75061 109.819234,3.10763 121.088634,4.96221 26.15504,4.09271 43.33494,1.78257 61.84141,0.08 15.06005,-1.38549 31.20579,0.85617 53.39417,0.56276 28.37151,5.10974 75.62677,2.97755 85.80526,5.8162 32.47386,-1.3471 65.17959,-0.46854 97.75784,-2.5876 12.65879,0.24216 25.84522,0.32745 39.83601,-0.74523"
       id="path4190"
       sodipodi:nodetypes="cccsccccc" />
    <path
       style="color:#000000;fill:none;stroke:#008000;stroke-width:4;stroke-linecap:round;stroke-linejoin:round;stroke-miterlimit:4;stroke-opacity:1;stroke-dasharray:none;stroke-dashoffset:0;marker:none;visibility:visible;display:inline;overflow:visible;enable-background:accumulate"
       d="m 262.4722,229.62783 c -6.58735,13.76177 -8.3113,34.617 -5.61587,53.97271 7.12081,17.04149 6.43349,18.23344 24.06645,21.78313 13.14597,4.80665 16.59105,0.2621 32.84462,-3.28538 14.29441,-7.23322 12.35979,-11.8721 15.90219,-22.63434 8.62709,-16.49788 13.10021,-34.6596 8.43605,-45.20948"
       id="path5055"
       sodipodi:nodetypes="cccccc" />
    <path
       style="fill:none;stroke:#000000;stroke-width:4;stroke-linecap:round;stroke-linejoin:round;stroke-miterlimit:4;stroke-opacity:1;stroke-dasharray:none"
       d="m 282.17279,285.46769 c 7.15903,-2.76984 12.83188,-1.66343 15.32283,0.39944 2.63713,2.12553 2.48557,4.46254 1.88352,7.30123 0.31266,4.34324 -2.84076,6.12383 -5.25532,7.30163 -3.47056,0.42303 -4.96166,-0.0115 -8.27221,0.46333 -3.00844,1.20199 -5.14392,0.22849 -6.86491,-4.26325 -0.9513,-5.34659 0.59094,-9.08991 3.18609,-11.20238 z"
       id="path5861"
       sodipodi:nodetypes="ccccccc" />
    <path
       style="fill:none;stroke:#80ff00;stroke-width:3.99999976;stroke-linecap:round;stroke-linejoin:round;stroke-miterlimit:4;stroke-opacity:1;stroke-dasharray:none"
       d="m 439.02314,194.30333 c 8.36199,-1.01285 13.77738,7.11946 21.40097,9.83756 6.94197,2.68807 8.50801,6.28955 12.46939,13.67989 7.8727,8.03005 13.96734,10.91036 23.56683,7.95516 9.12317,-3.01629 16.68592,-5.15877 25.35736,-5.51404 15.34024,-2.46429 14.951,0.61282 30.34157,-0.68153 4.06483,-0.84884 5.07013,-4.7025 9.81646,-5.3938 7.91198,-2.11802 7.29383,-11.16371 10.07904,-17.53235"
       id="path4123"
       sodipodi:nodetypes="cccccccc" />
    <path
       style="color:#000000;fill:none;stroke:#80ff00;stroke-width:4;stroke-linecap:round;stroke-linejoin:round;stroke-miterlimit:4;stroke-opacity:1;stroke-dasharray:none;stroke-dashoffset:0;marker:none;visibility:visible;display:inline;overflow:visible;enable-background:accumulate"
       d="m -13.624661,218.14552 c 13.83059986,3.92177 28.252638,-2.82978 45.464262,-4.55326 8.760873,-0.87727 13.72924,4.4057 23.705905,4.56196 10.776206,0.16878 13.084831,-5.85203 23.139727,-13.13757 7.492001,-5.42853 12.626578,-8.43518 19.858421,-11.04679 2.102946,-0.75943 8.647316,1.13255 13.948186,-0.40988"
       id="path4125"
       sodipodi:nodetypes="csssss" />
    <path
       sodipodi:nodetypes="cccccccccc"
       id="path5785"
       d="m 285.87736,285.71289 c 0.52137,0.78526 1.27406,0.98542 1.87149,2.73063 0.3168,1.09367 1.14282,1.95451 1.9072,2.78275 0.98183,1.48095 1.56515,2.29299 2.29292,3.34554 0.63927,-0.91037 1.48532,-1.71185 1.89261,-2.74435 0.62851,-1.33083 1.09332,-1.70165 1.59709,-2.31584 0.72419,-1.52044 1.14502,-1.70895 1.69275,-2.45456 -1.49945,-0.13702 -2.9552,-0.2385 -4.59158,-0.54844 -0.54442,0.1111 -1.42596,0.07 -3.22114,-0.3847 -0.56037,-0.12662 -2.24522,-0.30497 -3.44134,-0.41101 z"
       style="color:#000000;fill:none;stroke:#ff0000;stroke-width:4;stroke-linecap:round;stroke-linejoin:round;stroke-miterlimit:4;stroke-opacity:1;stroke-dasharray:none;stroke-dashoffset:0;marker:none;visibility:visible;display:inline;overflow:visible;enable-background:accumulate" />
    <path
       sodipodi:nodetypes="ccccccc"
       id="path5787-4"
       d="m 313.7978,272.97729 c 0.768,1.77958 0.57254,2.36594 0.37508,4.58802 -0.57393,1.45735 -0.40542,6.08924 -0.1905,7.40228 -1.11612,1.11426 -2.27806,1.99779 -3.29347,2.24192 -3.04484,2.08828 -5.09201,2.29071 -6.65687,3.10638 -1.00989,0.63189 -4.25554,1.66345 -5.11256,1.66045 -0.64131,0.0912 -1.25525,0.18244 -2.54448,0.27366"
       style="color:#000000;fill:none;stroke:#ff0000;stroke-width:4;stroke-linecap:round;stroke-linejoin:round;stroke-miterlimit:4;stroke-opacity:1;stroke-dasharray:none;stroke-dashoffset:0;marker:none;visibility:visible;display:inline;overflow:visible;enable-background:accumulate"
       inkscape:transform-center-x="7.2750268"
       inkscape:transform-center-y="-1.9832424" />
    <path
       sodipodi:nodetypes="ccccc"
       id="path5789-8"
       d="m 298.62148,302.62728 c -0.23498,-1.36838 -0.41198,-2.34674 -0.32224,-3.52343 0.45668,-1.69791 0.59854,-4.473 0.87678,-6.78147 1.06909,1.79427 2.66611,3.54881 3.16484,5.38328 0.48802,1.05359 0.84384,2.00511 1.51763,3.20218"
       style="color:#000000;fill:none;stroke:#ff0000;stroke-width:4;stroke-linecap:round;stroke-linejoin:round;stroke-miterlimit:4;stroke-opacity:1;stroke-dasharray:none;stroke-dashoffset:0;marker:none;visibility:visible;display:inline;overflow:visible;enable-background:accumulate" />
    <path
       sodipodi:nodetypes="ccccc"
       id="path5791-8"
       d="m 315.47084,296.85244 c 0.004,-1.78747 -1.11642,-3.39175 -0.66584,-7.34242 l -0.83585,-4.43057 c 1.45865,0.80603 3.26004,1.83165 5.44871,3.43036 l 3.18535,1.49362"
       style="color:#000000;fill:none;stroke:#ff0000;stroke-width:4;stroke-linecap:round;stroke-linejoin:round;stroke-miterlimit:4;stroke-opacity:1;stroke-dasharray:none;stroke-dashoffset:0;marker:none;visibility:visible;display:inline;overflow:visible;enable-background:accumulate" />
    <path
       style="color:#000000;fill:none;stroke:#ff0000;stroke-width:4;stroke-linecap:round;stroke-linejoin:round;stroke-miterlimit:4;stroke-opacity:1;stroke-dasharray:none;stroke-dashoffset:0;marker:none;visibility:visible;display:inline;overflow:visible;enable-background:accumulate"
       d="m 262.64982,261.62579 c 1.37057,0.40827 2.45389,-0.0863 4.83518,1.36311 1.42404,0.96386 3.22784,1.16562 4.92742,1.38914 2.58309,0.7713 4.05265,1.1508 5.92398,1.67006 -0.11608,-1.67423 0.1171,-3.42174 -0.39082,-5.01368 -0.53208,-2.15203 -0.3373,-3.03133 -0.32979,-4.23087 -0.60065,-2.46452 -0.28308,-3.08975 -0.34956,-4.48424 -1.90723,1.28854 -3.72835,2.57662 -5.96342,3.79693 -0.53792,0.6549 -1.6215,1.4582 -4.18346,2.66374 -0.78511,0.39402 -2.9513,1.81397 -4.46953,2.84581 z"
       id="path5756"
       sodipodi:nodetypes="cccccccccc" />
    <path
       style="color:#000000;fill:none;stroke:#ff0000;stroke-width:4;stroke-linecap:round;stroke-linejoin:round;stroke-miterlimit:4;stroke-opacity:1;stroke-dasharray:none;stroke-dashoffset:0;marker:none;visibility:visible;display:inline;overflow:visible;enable-background:accumulate"
       d="m 280.00495,259.46685 c 2.07776,0.40574 3.38359,0.14314 4.88101,-0.17151 3.39001,-1.56829 11.66821,-3.67735 13.26842,-8.19784 5.26666,-8.35033 4.19509,-12.29408 5.09442,-20.06595 1.80816,-4.9802 4.04133,-8.6756 2.22095,-13.35103 -1.10947,-5.1691 -0.40707,-6.13035 1.1512,-12.41548"
       id="path5758"
       sodipodi:nodetypes="cccccc" />
    <path
       style="color:#000000;fill:none;stroke:#80ff00;stroke-width:3.99999976;stroke-linecap:round;stroke-linejoin:round;stroke-miterlimit:4;stroke-opacity:1;stroke-dasharray:none;stroke-dashoffset:0;marker:none;visibility:visible;display:inline;overflow:visible;enable-background:accumulate"
       d="m 331.5313,189.26901 c -1.29686,-0.10175 -1.94153,4.9496 -2.94871,7.03255 -0.81852,1.69284 -1.91134,3.27255 -2.53321,5.02324 -0.68975,1.94183 -1.10529,3.98207 -1.87957,5.89148 -1.16223,2.86626 -2.6177,5.63282 -3.98618,8.42254 -0.66906,1.36388 -1.8486,2.33941 -2.05948,3.82595 -0.2613,1.84645 -2.37492,4.45063 -1.43922,5.34442 0.86984,0.83088 3.17802,-1.26512 4.87063,-1.30272 5.44013,-0.1209 6.82603,-2.37376 9.87582,-4.17202 2.15283,-1.26947 3.58834,-3.13836 5.82055,-4.1857 2.44782,-1.14858 5.15277,-1.46665 7.61641,-2.5831 1.55025,-0.70245 2.77236,-1.86937 4.24474,-2.65716 2.20058,-1.17743 -0.64385,-2.15094 -1.47483,-2.82313 -1.53796,-1.24408 -2.81588,-2.76058 -4.27879,-4.08429 -1.26431,-1.14408 -1.95401,-2.82161 -3.35528,-3.89315 -1.51489,-1.15843 -3.09607,-2.33544 -4.28797,-3.81764 -1.14113,-1.41906 -2.20815,-2.93694 -3.17392,-4.51308 -0.47451,-0.7744 -0.3563,-1.457 -1.01098,-1.50822 z"
       id="path2870"
       sodipodi:nodetypes="csssssssssssssssss" />
    <path
       style="color:#000000;fill:none;stroke:#ff0000;stroke-width:4;stroke-linecap:round;stroke-linejoin:round;stroke-miterlimit:4;stroke-opacity:1;stroke-dasharray:none;stroke-dashoffset:0;marker:none;visibility:visible;display:inline;overflow:visible;enable-background:accumulate"
       d="m 291.80928,278.94911 c 0.32677,-2.37176 -2.64277,-6.704 -2.70877,-9.50009 -0.077,-3.26206 0.10361,-7.05594 -1.07419,-10.90103 3.30913,3.10254 4.98522,3.07573 9.24967,8.10772 3.96632,3.15127 3.7811,3.95449 5.34785,5.74842"
       id="path5760"
       sodipodi:nodetypes="csccc"
       inkscape:transform-center-x="-7.531644"
       inkscape:transform-center-y="9.1993361" />
    <path
       style="color:#000000;fill:none;stroke:#ff0000;stroke-width:4;stroke-linecap:round;stroke-linejoin:round;stroke-miterlimit:4;stroke-opacity:1;stroke-dasharray:none;stroke-dashoffset:0;marker:none;visibility:visible;display:inline;overflow:visible;enable-background:accumulate"
       d="m 324.07065,241.25086 c -2.62723,-0.97979 -6.65432,-1.90165 -7.92841,-1.49711 -5.26142,-0.91913 -9.03857,-2.40366 -13.03515,-3.80464 4.19126,-1.75785 9.0936,-3.52636 12.54726,-4.03137 4.39398,-1.78268 5.24282,-1.91675 6.79288,-2.37691"
       id="path5762"
       sodipodi:nodetypes="ccccc" />
  </g>
</svg>
