<?xml version="1.0" encoding="UTF-8" standalone="no"?>
<!-- Created with Inkscape (http://www.inkscape.org/) -->

<svg
   xmlns:dc="http://purl.org/dc/elements/1.1/"
   xmlns:cc="http://creativecommons.org/ns#"
   xmlns:rdf="http://www.w3.org/1999/02/22-rdf-syntax-ns#"
   xmlns:svg="http://www.w3.org/2000/svg"
   xmlns="http://www.w3.org/2000/svg"
   xmlns:sodipodi="http://sodipodi.sourceforge.net/DTD/sodipodi-0.dtd"
   xmlns:inkscape="http://www.inkscape.org/namespaces/inkscape"
   width="480"
   height="320"
   id="svg2"
   version="1.1"
   inkscape:version="0.47 r22583"
   sodipodi:docname="itnas212.svg"
   inkscape:export-xdpi="90"
   inkscape:export-ydpi="90"
   inkscape:export-filename="itnas212.png">
  <defs
     id="defs4" />
  <sodipodi:namedview
     id="base"
     pagecolor="#ffffff"
     bordercolor="#666666"
     borderopacity="1.0"
     inkscape:pageopacity="1"
     inkscape:pageshadow="2"
     inkscape:zoom="1"
     inkscape:cx="231.53065"
     inkscape:cy="250.51784"
     inkscape:document-units="px"
     inkscape:current-layer="layer1"
     showgrid="false"
     inkscape:snap-nodes="true"
     inkscape:snap-global="false"
     inkscape:snap-grids="true"
     showguides="true"
     inkscape:window-width="1280"
     inkscape:window-height="998"
     inkscape:window-x="-4"
     inkscape:window-y="-4"
     inkscape:window-maximized="1"
     inkscape:object-nodes="true">
    <inkscape:grid
       empspacing="5"
       visible="true"
       enabled="true"
       snapvisiblegridlinesonly="true"
       type="xygrid"
       id="grid2816" />
  </sodipodi:namedview>
  <metadata
     id="metadata7">
    <rdf:RDF>
      <cc:Work
         rdf:about="">
        <dc:format>image/svg+xml</dc:format>
        <dc:type
           rdf:resource="http://purl.org/dc/dcmitype/StillImage" />
        <dc:title></dc:title>
      </cc:Work>
    </rdf:RDF>
  </metadata>
  <g
     inkscape:label="Layer 1"
     inkscape:groupmode="layer"
     id="layer1"
     transform="translate(0,0)">
    <path
       style="color:#000000;fill:none;stroke:#c87137;stroke-width:3.99999928;stroke-linecap:round;stroke-linejoin:round;stroke-miterlimit:4;stroke-opacity:1;stroke-dasharray:none;stroke-dashoffset:0;marker:none;visibility:visible;display:inline;overflow:visible;enable-background:accumulate"
       d="m -290.58106,105.79285 c 1.77546,-9.516023 0.9872,-13.482383 0.119,-22.973843 -1.17612,-12.85576 0.5094,-20.57156 1.87552,-33.3405 2.71494,-25.37616 -0.2035,-38.18116 -0.47392,-57.51794 -0.1356,-9.70074 1.14302,-21.78864 0.9519,-31.63408 -0.26966,-13.8899 -3.04474,-19.9188 -2.45868,-33.8271 0.1946,-14.52908 1.46042,-15.88358 1.40924,-30.201337"
       id="path2832"
       sodipodi:nodetypes="csssscc" />
    <path
       style="color:#000000;fill:none;stroke:#c87137;stroke-width:3.99999976;stroke-linecap:round;stroke-linejoin:round;stroke-miterlimit:4;stroke-opacity:1;stroke-dasharray:none;stroke-dashoffset:0;marker:none;visibility:visible;display:inline;overflow:visible;enable-background:accumulate"
       d="m -363.17013,-97.889733 c 0.72897,7.38286 1.29942,14.7757 2.10573,22.22044 1.05076,9.7021 -2.78774,19.25654 -2.78774,29.0609 0,22.31714 4.73043,48.18234 0.68201,69.54284 -2.14882,11.33766 -1.5473,22.3867 0,32.5861 -0.40882,18.62116 3.09257,29.395 0.187,48.460703"
       id="path2850"
       sodipodi:nodetypes="cssscc" />
    <path
       style="color:#000000;fill:none;stroke:#c87137;stroke-width:3.99999976;stroke-linecap:round;stroke-linejoin:round;stroke-miterlimit:4;stroke-opacity:1;stroke-dasharray:none;stroke-dashoffset:0;marker:none;visibility:visible;display:inline;overflow:visible;enable-background:accumulate"
       d="m 290.29956,148.01474 c -12.15478,-2.30956 -26.43518,-10.87036 -34,-2 -14.92864,9.07882 -15.81982,17.24514 -16,24"
       id="path4395"
       sodipodi:nodetypes="ccc" />
    <path
       style="color:#000000;fill:none;stroke:#c87137;stroke-width:3.99999976;stroke-linecap:round;stroke-linejoin:round;stroke-miterlimit:4;stroke-opacity:1;stroke-dasharray:none;stroke-dashoffset:0;marker:none;visibility:visible;display:inline;overflow:visible;enable-background:accumulate"
       d="m 301.83428,176.9584 -25.17996,13.56352 c -8.06034,12.6937 -0.72644,16.25666 -12.35724,26.23544"
       id="path4397"
       sodipodi:nodetypes="ccc" />
    <path
       sodipodi:nodetypes="cssssc"
       id="path4261"
       d="m 572.83736,60.02226 c -6.44834,7.82614 -10.23766,9.85882 -18.5716,15.54192 -11.28812,7.69746 -16.33932,14.2408 -25.72444,23.92476 -18.65136,19.24518 -31.1541,25.50704 -47.05262,38.29042 -7.97586,6.41318 -16.871,15.56882 -25.00436,22.03458 -11.47448,9.1218 -23.97944,17.88592 -34.85216,27.7084"
       style="color:#000000;fill:none;stroke:#c87137;stroke-width:3.99999905;stroke-linecap:round;stroke-linejoin:round;stroke-miterlimit:4;stroke-opacity:1;stroke-dasharray:none;stroke-dashoffset:0;marker:none;visibility:visible;display:inline;overflow:visible;enable-background:accumulate" />
    <path
       sodipodi:nodetypes="cssscc"
       id="path4263"
       d="m 371.47992,138.26118 c 5.95556,-4.17294 11.81492,-8.47268 17.86696,-12.6264 7.88702,-5.41328 12.46992,-14.4466 19.74628,-20.72366 C 425.65608,90.62302 447.94292,77.65718 461.15062,60.9058 468.1609,52.01454 476.7541,45.39758 485.33464,40.0432 498.8874,27.81076 509.17106,23.57312 521.4224,9.15928"
       style="color:#000000;fill:none;stroke:#c87137;stroke-width:3.99999928;stroke-linecap:round;stroke-linejoin:round;stroke-miterlimit:4;stroke-opacity:1;stroke-dasharray:none;stroke-dashoffset:0;marker:none;visibility:visible;display:inline;overflow:visible;enable-background:accumulate" />
    <path
       style="color:#000000;fill:none;stroke:#c87137;stroke-width:3.99999976;stroke-linecap:round;stroke-linejoin:round;stroke-miterlimit:4;stroke-opacity:1;stroke-dasharray:none;stroke-dashoffset:0;marker:none;visibility:visible;display:inline;overflow:visible;enable-background:accumulate"
       d="m 195.8999,118.92659 c 2.37724,-21.723863 0.95388,-47.938403 3.84448,-75.343763 1.1572,-31.54076 -5.3703,-56.55424 -4.48522,-89.2229 0.96108,-22.85858 -1.08386,-38.13102 5.12598,-54.1946"
       id="path4281"
       sodipodi:nodetypes="cccc" />
    <path
       style="color:#000000;fill:none;stroke:#c87137;stroke-width:3.99999928;stroke-linecap:round;stroke-linejoin:round;stroke-miterlimit:4;stroke-opacity:1;stroke-dasharray:none;stroke-dashoffset:0;marker:none;visibility:visible;display:inline;overflow:visible;enable-background:accumulate"
       d="m 131.18436,-94.692473 c -4.59826,30.00404 1.17414,34.1652 1.28148,58.63892 -1.31992,18.99042 -3.47158,36.96321997 0,52.53068 -2.1358,37.2772 -1.70866,36.19132 -3.84446,50.08742 -1.66538,16.99986 1.04754,29.06256 2.56298,38.481783"
       id="path4277"
       sodipodi:nodetypes="ccccc" />
    <path
       sodipodi:nodetypes="cccc"
       id="path4306"
       d="m -95.72322,-97.265733 c -2.37724,19.8414 -0.95386,43.78438 -3.84448,68.81496 -1.1572,28.80759997 5.3703,51.65356 4.48522,81.49136 -0.96108,20.87778 1.08386,34.82684 -5.12596,49.498483"
       style="color:#000000;fill:none;stroke:#c87137;stroke-width:3.99999928;stroke-linecap:round;stroke-linejoin:round;stroke-miterlimit:4;stroke-opacity:1;stroke-dasharray:none;stroke-dashoffset:0;marker:none;visibility:visible;display:inline;overflow:visible;enable-background:accumulate" />
    <path
       sodipodi:nodetypes="ccccc"
       id="path4308"
       d="m -30.95232,99.908347 c 4.31608,-30.12898 -1.10208,-34.30746 -1.20286,-58.88308 1.23894,-19.0695 3.25856,-37.11712 0,-52.74944 2.00478,-37.43236 1.60382,-36.34198 3.60858,-50.29592 1.56318,-17.0707 -0.98326,-29.18358 -2.40572,-38.642017"
       style="color:#000000;fill:none;stroke:#c87137;stroke-width:3.99999928;stroke-linecap:round;stroke-linejoin:round;stroke-miterlimit:4;stroke-opacity:1;stroke-dasharray:none;stroke-dashoffset:0;marker:none;visibility:visible;display:inline;overflow:visible;enable-background:accumulate" />
    <path
       style="color:#000000;fill:none;stroke:#94f3f3;stroke-width:4;stroke-linecap:round;stroke-linejoin:round;stroke-miterlimit:4;stroke-opacity:1;stroke-dasharray:none;stroke-dashoffset:0;marker:none;visibility:visible;display:inline;overflow:visible;enable-background:accumulate"
       d="m -314.46166,-596.13731 c -18.27173,19.8708 -36.54345,84.73741 -54.81518,135.88452 -21.08111,37.03718 -24.2956,92.07562 -53.29254,146.57208 -7.35086,35.33344 -20.74226,89.225 -46.83798,138.78208 -9.26278,23.16672 -17.5986,26.92776 -32.3395,68.86166 49.70446,9.293197 87.23158,-0.7315 127.90209,7.633977 l 89.83599,-7.633957 120.28884,6.107157 c -11.16606,-16.799557 -22.33212,-40.984657 -33.49816,-96.187917 -35.71884,-93.90668 -20.28902,-74.45632 -25.88494,-103.82188 -11.77242,-32.74484 -14.13652,-71.03674 -25.66958,-108.40225 -12.18116,-21.48166 -35.23616,-83.34861 -47.41732,-131.30417 -2.54492,-14.82598 -5.09726,-37.33804 -18.27172,-56.4913 z"
       id="path4156"
       sodipodi:nodetypes="ccccccccccccc" />
    <path
       sodipodi:nodetypes="cccccscccccccc"
       id="path4265"
       d="m 102.70886,-103.06381 c -0.40596,-35.1692 -32.67052,-105.8277 -48.09506,-154.0583 -7.24432,-46.46958 -32.0662,-74.18174 -43.73646,-139.5839 -13.2914,-25.56609 -32.47402,-67.76574 -43.22304,-126.83845 -6.4931,-23.29691 -4.13118,-37.12637 -16.89714,-76.31699 -12.9404,30.55402 -23.45252,60.52716 -35.9001,86.49264 -28.26132,58.95253 -18.11428,66.95822 -31.71672,98.41553 -23.0669,41.10381 -25.87782,67.84329 -31.00018,92.91477 -15.37796,33.39684 -27.36126,70.8018 -37.61324,110.62112 -4.12516,18.90286 -22.9442,54.78038 -35.71582,106.11668 13.65006,9.862057 30.84662,-1.59704 62.93778,5.03556 42.8175,3.413997 84.92174,0.517937 127.68556,-1.31908 20.25042,-1.2359 57.64142,0.97132 86.75986,3.084217 8.3918,2.44886 28.16706,0.3898 46.51456,-4.563797 z"
       style="color:#000000;fill:none;stroke:#94f3f3;stroke-width:3.99999928;stroke-linecap:round;stroke-linejoin:round;stroke-miterlimit:4;stroke-opacity:1;stroke-dasharray:none;stroke-dashoffset:0;marker:none;visibility:visible;display:inline;overflow:visible;enable-background:accumulate" />
    <path
       style="color:#000000;fill:none;stroke:#94f3f3;stroke-width:4;stroke-linecap:round;stroke-linejoin:round;stroke-miterlimit:4;stroke-opacity:1;stroke-dasharray:none;stroke-dashoffset:0;marker:none;visibility:visible;display:inline;overflow:visible;enable-background:accumulate"
       d="m 192.42238,-597.65209 c -0.43712,0.49108 -0.92446,0.98404 -1.36158,1.52534 -12.46486,29.69306 -23.82588,47.97284 -30.99618,75.06261 -7.62686,28.8146 -21.33744,43.4552 -29.79478,70.40632 -8.78112,23.20028 -12.89658,47.63267 -18.5817,63.98385 -19.63118,45.11214 -25.00228,65.76924 -37.16338,113.6777 -3.83016,25.22136 -11.8272,44.31138 -18.66178,62.85992 -4.07696,18.68208 -22.48186,53.98564 -35.24112,104.36514 42.4047,5.08712 76.33666,-2.11546 112.77162,5.3788 36.0764,-0.68814 75.39614,1.874697 105.24284,-5.05768 34.97416,-0.7231 69.94832,0.83928 104.92246,3.53236 -11.16604,-16.79958 -15.90554,-39.68872 -27.07158,-94.89198 -32.30304,-84.92638 -29.21558,-78.56806 -31.23646,-98.02294 -10.49722,-27.961 -24.97678,-55.18778 -33.07862,-100.59194 -13.29142,-25.56608 -26.01388,-60.06409 -36.76292,-119.13681 -6.43748,-23.09745 -10.58516,-44.66349 -22.98682,-83.09069 z"
       id="path4267"
       sodipodi:nodetypes="ccsccccccccccccc" />
    <path
       style="color:#000000;fill:none;stroke:#94f3f3;stroke-width:4;stroke-linecap:round;stroke-linejoin:round;stroke-miterlimit:4;stroke-opacity:1;stroke-dasharray:none;stroke-dashoffset:0;marker:none;visibility:visible;display:inline;overflow:visible;enable-background:accumulate"
       d="m 931.63982,-287.3996 c -0.85468,0.2732 -1.70914,0.55592 -2.56084,0.8313 -20.73964,0.61922 -58.05668,15.62958 -95.9071,31.0096 -37.45828,12.80602 -74.30678,26.67914 -110.23182,43.473 -25.4479,9.05182 -48.87356,21.1909 -75.25372,27.50216 -42.7914,23.6918 -87.29578,34.10006 -135.50046,54.88374 -23.55772,8.06404 -31.8204,4.2422 -73.1386,20.37782 11.0591,24.32698 27.38478,43.65524 43.80254,64.81658 25.39666,34.75558 55.1191,64.81376 84.44858,96.10576 14.16524,14.57944 36.88072,44.442 54.30972,67.94178 3.63268,7.9719 18.13158,21.66084 33.8627,32.37112 26.30978,-23.23366 40.59006,-71.52208 66.95654,-114.6801 20.77234,-33.74494 30.3546,-44.82342 45.19244,-61.35074 17.0512,-30.2889 44.44964,-57.0006 65.14874,-90.11962 16.25308,-54.3299 40.45894,-82.35066 68.20328,-121.58544 9.54022,-11.5979 24.91018,-28.22092 30.77504,-50.71526 -0.1976,-0.006 -0.4245,0.014 -0.6256,0.01 0.1806,-0.29762 0.33658,-0.5697 0.51862,-0.87138 z"
       id="path4271"
       sodipodi:nodetypes="ccccccccccccccccsc" />
    <path
       style="color:#000000;fill:none;stroke:#c87137;stroke-width:3.99999976;stroke-linecap:round;stroke-linejoin:round;stroke-miterlimit:4;stroke-opacity:1;stroke-dasharray:none;stroke-dashoffset:0;marker:none;visibility:visible;display:inline;overflow:visible;enable-background:accumulate"
       d="m 355.45894,228.10052 c -1.00434,7 -1.81016,14 -8,21 -10.66666,7.6033 -21.33334,11.89818 -32,17"
       id="path4399"
       sodipodi:nodetypes="ccc" />
    <path
       sodipodi:nodetypes="ccc"
       id="path4461"
       d="m 408.6523,233.71744 c -4.7267,6.98802 -1.67442,17.85256 -4.97648,28.3999 -3.34456,9.76534 -10.46192,18.5777 -23.48966,26.36626"
       style="color:#000000;fill:none;stroke:#c87137;stroke-width:3.99999976;stroke-linecap:round;stroke-linejoin:round;stroke-miterlimit:4;stroke-opacity:1;stroke-dasharray:none;stroke-dashoffset:0;marker:none;visibility:visible;display:inline;overflow:visible;enable-background:accumulate" />
    <path
       id="path2949"
       style="color:#000000;fill:none;stroke:#008000;stroke-width:4;stroke-linecap:round;stroke-linejoin:round;stroke-miterlimit:4;stroke-opacity:1;stroke-dasharray:none;stroke-dashoffset:0;marker:none;visibility:visible;display:inline;overflow:visible;enable-background:accumulate"
       d="m 179.52082,224.15332 c 13.53508,2.03623 25.12511,0.37579 36.0222,8.17046 22.20035,23.32019 24.79558,24.75436 46.78954,41.1346 27.61272,23.36358 26.7551,25.34754 61.50084,21.81288 14.47422,-1.3779 55.4253,19.35452 100.04942,13.98002 39.5,-2.25 53.12866,-32.30218 41.6005,-55.62132 -19.33334,-26 -69.64258,-15.736 -111.18376,-27.61522 -19.93724,-12.4897 -44.18366,-32.08644 -50,-50 -6.62876,-10.32658 -10.59108,-24.3196 -19.7575,-42.10852 -4.58224,-24.0502 -13.7329,-43.20994 9.29924,-43.91252 15.41114,9.68148 55.9724,-4.07256 67.2693,21.30038 10.16548,43.14322 24.12238,61.22134 59.58934,78.38704 54.24562,4.18312 80.72284,15.41008 105.50644,11.40476 21.59102,3.88624 46.00416,11.97744 70.8479,10.90324"
       sodipodi:nodetypes="cccccccccccccc" />
    <path
       style="fill:none;stroke:#80ff00;stroke-width:3.99999976;stroke-linecap:round;stroke-linejoin:round;stroke-miterlimit:4;stroke-opacity:1;stroke-dasharray:none"
       d="m 84.246933,33.307929 c 1.529846,3.420506 4.332251,-3.369223 5.971678,0.747219 5.134292,2.82696 11.042899,1.099139 16.157899,4.069633 3.71835,1.160543 7.65343,0.193162 11.35927,1.46503 3.91908,1.187843 7.88279,0.890181 11.84886,0.734282 3.45557,0.04049 6.81474,1.001371 10.23054,1.359948 2.48368,2.011903 4.99463,1.793529 7.59175,3.617749 3.14069,2.186026 7.17824,0.899455 10.09654,3.924459 -0.25834,1.717438 -3.75241,3.091281 -5.2853,4.674928 -4.82382,3.661121 -9.64651,7.325722 -14.47334,10.979241 -3.31834,1.164186 -6.25794,4.201789 -9.82091,3.835307 -2.82614,0.528604 -5.32241,2.469518 -7.99045,3.608186 -2.84399,1.65538 -6.19964,3.209666 -9.28079,4.563561 -3.06703,1.79797 -6.30827,3.055264 -9.11831,5.625143 -2.205053,2.007803 -5.005097,4.47636 -6.169136,-0.269924 -1.519358,-3.163797 -0.6177,-7.243994 -2.159859,-10.421119 C 92.390811,67.795078 90.600708,64.271538 91.012166,59.662943 89.754892,55.6405 89.286064,50.942629 87.376139,47.333328 86.919285,43.544523 85.581245,39.913976 84.626757,36.417849 84.278066,35.598115 83.34986,34.14583 84.247171,33.308477 z"
       id="path2942" />
    <path
       style="color:#000000;fill:none;stroke:#80ff00;stroke-width:3.99999976;stroke-linecap:round;stroke-linejoin:round;stroke-miterlimit:4;stroke-opacity:1;stroke-dasharray:none;stroke-dashoffset:0;marker:none;visibility:visible;display:inline;overflow:visible;enable-background:accumulate"
       d="m -108.63004,76.326429 c -35.72179,-0.531969 -47.84797,4.941962 -85.13304,-4.247253 -19.36545,-4.772929 -28.83051,-8.045219 -52.896,-15.240303 -27.8375,-8.322883 -34.36458,-14.42947 -61.67548,-7.073476 -21.99013,5.922979 -31.286,16.851307 -47.50947,25.447241 -14.37336,7.61563 -32.55588,10.017925 -56.66903,16.469681 -17.45003,4.669029 -31.4181,35.321031 -25.63924,46.724031"
       id="path4125-8"
       sodipodi:nodetypes="cssssss" />
    <path
       style="fill:none;stroke:#80ff00;stroke-width:3.99999952;stroke-linecap:round;stroke-linejoin:round;stroke-miterlimit:4;stroke-opacity:1;stroke-dasharray:none"
       d="m 115.40954,217.06862 c -8.60851,-3.59537 -13.39597,-10.00633 -18.56769,-14.59928 -7.778568,-4.45804 -8.921087,-5.1639 -16.663281,-8.83909 -10.86546,-4.09955 -14.778276,-6.52846 -22.372555,-13.26837 -0.304503,7.67071 -0.239342,15.71293 2.509001,23.85754 0.194858,11.60254 1.676154,10.91276 0.886344,22.48256 1.563522,3.26784 2.064862,7.71744 4.882093,14.85992"
       id="path2958-6"
       sodipodi:nodetypes="ccccccc" />
    <path
       style="color:#000000;fill:none;stroke:#80ff00;stroke-width:4;stroke-linecap:round;stroke-linejoin:round;stroke-miterlimit:4;stroke-opacity:1;stroke-dasharray:none;stroke-dashoffset:0;marker:none;visibility:visible;display:inline;overflow:visible;enable-background:accumulate"
       d="m 174.02766,111.28931 c -3.73848,4.3394 -6.31902,12.36308 -9.80361,17.09541 -7.87966,10.70115 -6.16872,3.67842 -11.40263,14.19317 -3.44192,6.9147 -6.78857,8.41766 -11.79817,14.83318 -5.52191,7.07159 -14.8979,12.17852 -23.4907,16.45982 -11.14742,5.55413 -21.701756,6.14581 -34.051665,6.54156 -6.031887,0.19329 -11.086083,-0.27512 -18.944137,-0.53583 -5.62729,-0.1867 -9.442162,-2.06351 -17.37951,1.69263"
       id="path2833"
       sodipodi:nodetypes="csssssss" />
    <path
       style="color:#000000;fill:none;stroke:#80ff00;stroke-width:4;stroke-linecap:round;stroke-linejoin:round;stroke-miterlimit:4;stroke-opacity:1;stroke-dasharray:none;stroke-dashoffset:0;marker:none;visibility:visible;display:inline;overflow:visible;enable-background:accumulate"
       d="m -216.68228,197.92518 c 13.99383,-10.94402 39.04654,-3.42164 87.9999,-14.68876 17.84142,-4.10639 35.938183,-0.40373 55.93293,3.36367 25.914743,4.88284 41.762848,-0.96579 58.972366,-5.08954 16.1367485,-3.86669 17.8527734,-3.43104 32.744595,-1.73049 5.929786,0.67714 17.548432,4.97825 28.066221,1.61829"
       id="path4125"
       sodipodi:nodetypes="csssss" />
    <path
       style="color:#000000;fill:none;stroke:#80ff00;stroke-width:3.99999976;stroke-linecap:round;stroke-linejoin:round;stroke-miterlimit:4;stroke-opacity:1;stroke-dasharray:none;stroke-dashoffset:0;marker:none;visibility:visible;display:inline;overflow:visible;enable-background:accumulate"
       d="m 201.17878,111.91837 c -0.47445,-3.7306 0.72334,-7.21611 1.08854,-10.91384 0.40499,-4.10142 0.72011,-8.22149 0.81511,-12.34119 0.11674,-5.061637 0.47204,-9.45703 3.77669,-16.019775 1.36644,-2.713676 1.61102,-6.201681 0.71669,-9.068227 -1.11084,-3.560467 2.38041,-12.030575 0.13403,-13.315627 -2.08829,-1.194581 -6.33983,2.575914 -8.82886,4.871637 -7.11897,6.566152 -8.5126,9.135324 -14.25561,14.483787 -3.65787,3.406572 -7.35326,5.44071 -11.18266,8.547663 -4.19956,3.407089 -8.86962,6.719075 -13.11537,10.071382 -2.67164,2.10931 -4.48282,4.96248 -6.9623,7.19997 -3.70566,3.34415 2.28452,3.86588 4.22096,4.77111 3.58406,1.67542 6.79425,4.00475 10.27087,5.87088 3.00471,1.61288 5.15051,4.53774 8.38615,5.94396 3.49805,1.52024 7.13377,3.04463 10.16049,5.34877 2.89778,2.20597 5.69927,4.63943 8.33222,7.23464 1.29363,1.27514 1.99301,3.55601 2.68808,2.44161 2.19386,-6.10261 2.08886,-8.92921 3.75497,-15.12675 z"
       id="path2870"
       sodipodi:nodetypes="cssssssssssssssscc" />
    <path
       style="fill:none;stroke:#80ff00;stroke-width:3.99999976;stroke-linecap:round;stroke-linejoin:round;stroke-miterlimit:4;stroke-opacity:1;stroke-dasharray:none"
       d="m -135.32651,141.47817 c 0.64668,-1.39794 4.12161,-8.90866 5.84358,-12.63029 5.55732,-11.65945 14.17332,-14.12289 24.02524,-27.54711 4.32624,-8.250182 17.522826,-22.917117 20.621385,-26.964622 1.948752,9.967682 4.265468,19.625652 7.274553,29.070992 5.696247,13.30856 15.065693,27.48792 18.706768,44.46812"
       id="path2958-1"
       sodipodi:nodetypes="cccccc" />
    <path
       style="color:#000000;fill:none;stroke:#80ff00;stroke-width:4;stroke-linecap:round;stroke-linejoin:round;stroke-miterlimit:4;stroke-opacity:1;stroke-dasharray:none;stroke-dashoffset:0;marker:none;visibility:visible;display:inline;overflow:visible;enable-background:accumulate"
       d="m 88.742709,59.460536 c -8.608655,1.861181 -12.566952,7.148276 -19.87845,10.444761 -6.92019,3.120059 -14.159627,4.657524 -21.879787,5.318708 -8.503336,0.72815 -19.624629,0.500354 -29.094365,1.037144 -11.8286389,0.670517 -22.5954085,3.377449 -34.609121,3.753544 -14.648515,0.458809 -29.498345,-2.327764 -44.256461,-3.803949 -7.421199,-0.74226 -14.646105,-2.175708 -22.179019,-2.277872 -5.810749,-0.07838 -18.565996,0.655914 -22.867296,2.673562"
       id="path2833-4"
       sodipodi:nodetypes="csssssss" />
    <path
       style="fill:none;stroke:#80ff00;stroke-width:3.99999928;stroke-linecap:round;stroke-linejoin:round;stroke-miterlimit:4;stroke-opacity:1;stroke-dasharray:none"
       d="M 60.811219,148.38967 C 60.431295,146.94519 59.992407,139.0647 58.981055,135.21893 55.899171,123.13978 58.284158,118.3397 53.329332,102.68861 52.510464,90.463267 52.663674,85.002522 52.875524,75.260024 c 6.155326,9.12216 12.625117,16.945963 18.322528,27.511296 13.139633,10.9161 11.726506,12.59718 22.584386,28.17065 4.408534,3.6061 6.649052,7.66454 13.300842,12.51619"
       id="path2958-6-2"
       sodipodi:nodetypes="ccccccc"
       inkscape:transform-center-x="-26.460435"
       inkscape:transform-center-y="34.579923" />
    <path
       sodipodi:nodetypes="cccccccccc"
       id="path5785"
       d="m 378.90382,279.58145 c 0.93585,1.6365 2.4114,2.13598 3.37109,5.69835 0.48647,2.2247 2.02028,4.05253 3.43539,5.80713 1.76212,3.08608 2.81804,4.78419 4.13021,6.98155 1.39696,-1.73154 3.19197,-3.21836 4.14223,-5.22452 1.43145,-2.57206 2.40839,-3.25016 3.49545,-4.40874 1.64764,-2.93771 2.51254,-3.25786 3.70483,-4.67282 -2.97401,-0.47311 -5.8655,-0.86948 -9.08976,-1.70586 -1.10116,0.14958 -2.8549,-0.0502 -6.37677,-1.1966 -1.10138,-0.32731 -4.43986,-0.90755 -6.81267,-1.27844 z"
       style="color:#000000;fill:none;stroke:#ff0000;stroke-width:4;stroke-linecap:round;stroke-linejoin:round;stroke-miterlimit:4;stroke-opacity:1;stroke-dasharray:none;stroke-dashoffset:0;marker:none;visibility:visible;display:inline;overflow:visible;enable-background:accumulate" />
    <path
       style="fill:none;stroke:#000000;stroke-width:4;stroke-linecap:round;stroke-linejoin:round;stroke-opacity:1;stroke-miterlimit:4;stroke-dasharray:none"
       d="m 463.53194,277.77605 c -2.32274,9.17197 -11.41205,18.0589 -18.071,21.4104 -6.56304,1.91976 -9.22081,0.3088 -15.56479,0.54816 -6.19087,-2.32826 -4.99473,-14.34875 -4.66273,-19.76603 0.72809,-7.27704 4.84692,-8.47932 8.7954,-14.04342 3.52994,-4.71766 8.9961,-10.50069 14.88882,-6.28747 3.52017,6.68091 14.96143,8.73952 14.6143,18.13836 z"
       id="path5861"
       sodipodi:nodetypes="ccccccc" />
    <path
       sodipodi:nodetypes="cccccc"
       id="path5787"
       d="m 395.95961,292.23319 c 0.99158,1.0819 4.33737,1.51716 5.85935,1.67508 3.70706,-0.45747 9.10501,-1.4324 14.53689,-1.73941 9.74726,0.15157 11.861,-0.25221 19.6536,-0.94943 7.34853,0.90282 11.77945,1.16682 13.76372,0.90806 6.49232,-2.15809 2.46997,-6.55834 7.44765,-13.76513"
       style="color:#000000;fill:none;stroke:#ff0000;stroke-width:4;stroke-linecap:round;stroke-linejoin:round;stroke-miterlimit:4;stroke-opacity:1;stroke-dasharray:none;stroke-dashoffset:0;marker:none;visibility:visible;display:inline;overflow:visible;enable-background:accumulate" />
    <path
       sodipodi:nodetypes="ccccc"
       id="path5789"
       d="m 382.5768,290.78213 c 2.16863,1.1605 8.00495,2.42102 9.77002,2.74759 4.5432,0.43176 6.08602,-0.46609 10.80202,0.61039 -2.20117,4.37654 -1.51836,6.91766 -5.23316,6.9557 -3.3904,0.20236 -7.66881,1.24008 -11.19801,1.20614"
       style="color:#000000;fill:none;stroke:#ff0000;stroke-width:4;stroke-linecap:round;stroke-linejoin:round;stroke-miterlimit:4;stroke-opacity:1;stroke-dasharray:none;stroke-dashoffset:0;marker:none;visibility:visible;display:inline;overflow:visible;enable-background:accumulate" />
    <path
       sodipodi:nodetypes="ccccc"
       id="path5791"
       d="m 412.52575,301.16258 c 3.35836,-0.34086 6.99916,-0.14792 12.75014,-1.72489 4.06687,-0.48847 1.76801,-2.03567 6.18103,-6.33946 6.01267,11.30861 0.5074,11.29506 -3.98245,11.33673 -3.96733,0.62096 -8.03965,1.15442 -11.20229,1.26951"
       style="color:#000000;fill:none;stroke:#ff0000;stroke-width:4;stroke-linecap:round;stroke-linejoin:round;stroke-miterlimit:4;stroke-opacity:1;stroke-dasharray:none;stroke-dashoffset:0;marker:none;visibility:visible;display:inline;overflow:visible;enable-background:accumulate" />
    <path
       sodipodi:nodetypes="ccc"
       id="path4257"
       d="m 208.62135,69.516867 c 8.87192,-0.88765 17.78809,9.488025 19.19949,11.91218 0.76049,6.518623 0.005,6.944575 2.54699,10.907457"
       style="color:#000000;fill:none;stroke:#80ff00;stroke-width:3.99999976;stroke-linecap:round;stroke-linejoin:round;stroke-miterlimit:4;stroke-opacity:1;stroke-dasharray:none;stroke-dashoffset:0;marker:none;visibility:visible;display:inline;overflow:visible;enable-background:accumulate" />
    <path
       style="color:#000000;fill:none;stroke:#80ff00;stroke-width:3.99999976;stroke-linecap:round;stroke-linejoin:round;stroke-miterlimit:4;stroke-opacity:1;stroke-dasharray:none;stroke-dashoffset:0;marker:none;visibility:visible;display:inline;overflow:visible;enable-background:accumulate"
       d="m 208.62135,69.516867 c 8.66466,-0.710655 17.78809,9.488025 19.19949,11.91218 6.52653,2.603161 5.16994,4.267558 10.38242,5.976994"
       id="path4234"
       sodipodi:nodetypes="ccc" />
    <path
       style="fill:none;stroke:#80ff00;stroke-width:3.99999952;stroke-linecap:round;stroke-linejoin:round;stroke-miterlimit:4;stroke-opacity:1;stroke-dasharray:none"
       d="m 195.92518,191.06871 c -0.7998,-0.93738 -5.09674,-5.97399 -7.22587,-8.46976 -6.61596,-7.93713 -5.52577,-15.02274 -11.98853,-26.67115 -4.54974,-5.90257 -10.79748,-20.39733 -12.70321,-24.00253 7.9011,2.03491 15.73267,4.44734 23.64556,6.38638 11.77041,3.81273 23.81175,4.95817 36.42526,0.70483 1.56059,-0.80127 4.2227,-3.43954 5.2133,-0.34894"
       id="path2958" />
    <path
       style="color:#000000;fill:none;stroke:#ff0000;stroke-width:4;stroke-linecap:round;stroke-linejoin:round;stroke-miterlimit:4;stroke-opacity:1;stroke-dasharray:none;stroke-dashoffset:0;marker:none;visibility:visible;display:inline;overflow:visible;enable-background:accumulate"
       d="m 233.86019,81.592883 c -1.26115,2.567076 -0.64617,4.868087 -4.29694,9.082031 -2.37473,2.487737 -3.37278,5.977985 -4.37897,9.25535 -2.38054,4.837546 -3.61788,7.609486 -5.26457,11.127216 3.34037,0.32816 6.7091,1.36939 10.01766,0.89738 4.42105,-0.33334 6.09044,0.34337 8.45353,0.75726 5.06022,-0.36459 6.18755,0.46974 8.95985,0.80262 -1.90717,-4.18983 -3.84097,-8.21009 -5.50407,-13.02391 -1.11248,-1.278764 -2.33619,-3.683004 -3.86126,-9.136669 -0.51591,-1.679353 -2.59544,-6.423869 -4.12523,-9.761278 z"
       id="path5756"
       sodipodi:nodetypes="cccccccccc" />
    <path
       style="color:#000000;fill:none;stroke:#ff0000;stroke-width:4;stroke-linecap:round;stroke-linejoin:round;stroke-miterlimit:4;stroke-opacity:1;stroke-dasharray:none;stroke-dashoffset:0;marker:none;visibility:visible;display:inline;overflow:visible;enable-background:accumulate"
       d="m 232.50396,114.6453 c -1.64195,3.90267 -1.66126,6.56633 -1.65638,9.62658 1.68687,7.27741 4.13179,22.7482 7.40927,29.96235 6.76655,18.28499 4.76176,25.21414 7.91446,40.5407 4.84108,11.98608 7.45251,17.94407 12.59249,23.68336 7.51005,9.69957 10.42491,10.85104 20.9003,13.6034"
       id="path5758"
       sodipodi:nodetypes="cccccc" />
    <path
       style="color:#000000;fill:none;stroke:#ff0000;stroke-width:4;stroke-linecap:round;stroke-linejoin:round;stroke-miterlimit:4;stroke-opacity:1;stroke-dasharray:none;stroke-dashoffset:0;marker:none;visibility:visible;display:inline;overflow:visible;enable-background:accumulate"
       d="m 199.84899,106.09592 c 3.79349,5.96074 6.09202,11.64814 11.65515,13.69065 6.15018,2.25805 11.78121,2.46478 19.16937,1.68789 -6.56189,-4.22048 -10.30849,-4.3886 -17.31169,-8.08398 -3.78617,-3.81161 -5.06251,-9.82729 -7.70366,-14.090561"
       id="path5760"
       sodipodi:nodetypes="csccc" />
    <path
       style="color:#000000;fill:none;stroke:#ff0000;stroke-width:4;stroke-linecap:round;stroke-linejoin:round;stroke-miterlimit:4;stroke-opacity:1;stroke-dasharray:none;stroke-dashoffset:0;marker:none;visibility:visible;display:inline;overflow:visible;enable-background:accumulate"
       d="m 213.32381,219.45982 c 4.33058,-3.98559 9.94034,-10.63203 10.48081,-13.37963 6.82343,-8.94816 13.1841,-14.60789 19.61319,-20.75368 -1.02079,9.43441 -2.72465,20.20309 -5.23859,27.10331 -1.17693,9.83501 -1.77715,11.54012 -2.49145,14.85341"
       id="path5762"
       sodipodi:nodetypes="ccccc"
       inkscape:transform-center-x="15.610948"
       inkscape:transform-center-y="20.518745" />
  </g>
</svg>
