<?xml version="1.0" encoding="UTF-8" standalone="no"?>
<!-- Created with Inkscape (http://www.inkscape.org/) -->
<svg
   xmlns:dc="http://purl.org/dc/elements/1.1/"
   xmlns:cc="http://creativecommons.org/ns#"
   xmlns:rdf="http://www.w3.org/1999/02/22-rdf-syntax-ns#"
   xmlns:svg="http://www.w3.org/2000/svg"
   xmlns="http://www.w3.org/2000/svg"
   xmlns:sodipodi="http://sodipodi.sourceforge.net/DTD/sodipodi-0.dtd"
   xmlns:inkscape="http://www.inkscape.org/namespaces/inkscape"
   width="480"
   height="320"
   id="svg2"
   version="1.1"
   inkscape:version="0.46"
   sodipodi:docname="itnas059.svg"
   inkscape:export-xdpi="90"
   inkscape:export-ydpi="90"
   inkscape:export-filename="itnas059.png"
   sodipodi:version="0.32"
   inkscape:output_extension="org.inkscape.output.svg.inkscape">
  <defs
     id="defs4" />
  <sodipodi:namedview
     id="base"
     pagecolor="#ffffff"
     bordercolor="#666666"
     borderopacity="1.0"
     inkscape:pageopacity="1"
     inkscape:pageshadow="2"
     inkscape:zoom="2"
     inkscape:cx="298.9973"
     inkscape:cy="146.76958"
     inkscape:document-units="px"
     inkscape:current-layer="layer1"
     showgrid="false"
     inkscape:snap-nodes="true"
     inkscape:snap-global="false"
     inkscape:snap-grids="true"
     showguides="true"
     inkscape:window-width="1680"
     inkscape:window-height="1002"
     inkscape:window-x="1680"
     inkscape:window-y="25"
     inkscape:window-maximized="1">
    <inkscape:grid
       empspacing="5"
       visible="true"
       enabled="true"
       snapvisiblegridlinesonly="true"
       type="xygrid"
       id="grid2816" />
  </sodipodi:namedview>
  <metadata
     id="metadata7">
    <rdf:RDF>
      <cc:Work
         rdf:about="">
        <dc:format>image/svg+xml</dc:format>
        <dc:type
           rdf:resource="http://purl.org/dc/dcmitype/StillImage" />
        <dc:title />
      </cc:Work>
    </rdf:RDF>
  </metadata>
  <g
     inkscape:label="Layer 1"
     inkscape:groupmode="layer"
     id="layer1"
     transform="translate(0,0)">
    <path
       style="color:#000000;fill:none;stroke:#008000;stroke-width:4;stroke-linecap:butt;stroke-linejoin:miter;stroke-miterlimit:4;stroke-opacity:1;stroke-dasharray:none;stroke-dashoffset:0;marker:none;visibility:visible;display:inline;overflow:visible;enable-background:accumulate"
       d="m 501.33871,312.22183 c -12.59246,-1.08022 -25.65197,1.56647 -38.18377,0 -6.57891,-0.82237 -13.15991,-2.16452 -19.79899,-2.82843 -4.60517,-0.46052 -9.50428,0 -14.14213,0 -11.07801,0 -22.15601,0 -33.23402,0 -30.4056,0 -60.81119,0 -91.21678,0 -39.12657,0 -78.25315,0 -117.37972,0 -12.96363,0 -25.92725,0 -38.89088,0 -5.79521,0 -11.91353,-0.57641 -17.67767,0 -8.25305,0.82531 -16.45252,2.13708 -24.74873,2.82843 -6.962231,0.58018 -14.225351,0 -21.213211,0 -7.75273,0 -15.76815,0.55395 -23.33452,-0.70711 -6.66743,-1.11124 -14.45166,0 -21.2132,0 -15.55635,0 -31.1127,0 -46.66905,0"
       id="path3669" />
    <path
       style="fill:none;stroke:#c87137;stroke-width:4;stroke-linecap:round;stroke-linejoin:round;marker:none;stroke-miterlimit:4;stroke-dasharray:none;stroke-dashoffset:0;stroke-opacity:1;visibility:visible;display:inline;overflow:visible;enable-background:accumulate"
       d="M 124.02411,307.53401 C 119.2091,306.95566 113.82534,309.4701 109.51829,307.69448 C 105.79515,306.15958 101.89405,303.00603 100.8411,298.49617 C 99.4076,292.35632 97.7845,286.24914 96.33619,280.10763 C 94.19207,271.01558 95.79259,261.66536 95.36176,252.44706 C 95.14586,247.82736 97.68377,243.56363 97.54632,238.87166 C 97.3524,232.25241 97.10665,225.6293 97.52812,219.00124 C 97.75291,215.46613 97.47212,211.83441 95.72836,208.60801 C 94.67191,206.65333 95.55965,204.26097 95.5416,202.10862"
       id="path2832"
       sodipodi:nodetypes="cssssssss" />
    <path
       style="fill:none;stroke:#c87137;stroke-width:4;stroke-linecap:round;stroke-linejoin:round;marker:none;stroke-miterlimit:4;stroke-dasharray:none;stroke-dashoffset:0;stroke-opacity:1;visibility:visible;display:inline;overflow:visible;enable-background:accumulate"
       d="M 66.12395,206.86949 C 66.58156,210.57996 66.93966,214.29549 67.44582,218.03713 C 68.10543,222.91319 67.44582,228.46505 67.44582,233.39264 C 67.44582,244.60876 68.66534,256.85823 66.12395,267.59356 C 64.77503,273.2917 67.69434,287.74554 66.12395,292.72078 C 63.63656,300.6012 55.54682,304.23856 48.27879,308.07627 C 47.2093,308.641 44.27966,308.07627 42.99133,308.07627"
       id="path2850"
       sodipodi:nodetypes="cssssss" />
    <path
       style="fill:none;stroke:#00ffff;stroke-width:4;stroke-linecap:round;stroke-linejoin:round;stroke-miterlimit:4;stroke-dasharray:none;stroke-opacity:1"
       d="M 61.75 90.53125 C 59.399965 90.777398 56.935866 90.881929 54.8125 92.03125 C 52.242215 94.131896 50.651689 97.112231 49.096204 99.98224 C 48.022538 102.05041 46.931295 104.1128 45.917129 106.21047 C 45.187123 107.71241 44.69287 109.34013 44.61977 111.01596 C 44.50033 113.16576 44.81059 115.30995 45.03034 117.44406 C 45.348184 119.97621 45.678899 122.51124 46.14185 125.02012 C 46.490663 125.76071 47.071407 127.11661 45.96875 127.5 C 44.785163 127.6173 44.330669 126.27506 43.886368 125.42306 C 43.18884 123.99878 42.218976 122.73235 41.394168 121.38117 C 39.012562 117.78233 36.696819 114.13109 34.073905 110.70052 C 32.797551 109.13928 31.576619 107.38234 29.708294 106.48748 C 28.672839 105.93852 27.437286 105.86005 26.335224 106.2541 C 24.955941 106.68097 23.812676 107.61087 22.728938 108.53126 C 19.102548 111.45964 15.469666 114.38084 11.765417 117.2103 C 9.1474934 119.35444 6.6140357 121.74746 5.03125 124.78125 C 4.0703071 126.76814 3.6091625 128.97105 3.5688475 131.17286 C 3.3929303 134.91075 3.4336304 138.66246 3.8495033 142.38429 C 4.0953744 145.06779 4.547253 147.80967 5.8140747 150.21849 C 6.9287904 152.07915 8.856713 153.2087 10.661482 154.30443 C 13.031615 155.58741 15.518961 156.63586 17.904628 157.88981 C 19.517508 158.69165 21.113814 159.52622 22.71875 160.34375 C 20.88069 159.92461 19.103391 159.13374 17.192549 159.1136 C 14.565825 158.90424 11.898773 159.52635 9.56373 160.72189 C 8.2142703 161.55672 6.8928173 162.57067 6.09375 163.96875 C 5.6045327 165.22676 4.993749 166.46697 4.9042181 167.83536 C 4.4663579 170.75927 4.6559139 173.7246 4.6775389 176.66842 C 4.757594 179.62324 4.8700674 182.57702 4.96875 185.53125 C 5.1852192 186.70386 5.5119949 187.88281 6.25 188.84375 C 7.4457884 190.52792 9.4098022 191.38829 11.1875 192.3125 C 14.325552 193.80004 17.532038 195.14037 20.65625 196.65625 C 22.108217 197.41065 23.569519 198.14403 25.008305 198.92337 C 25.794387 199.54828 27.090975 199.2537 27.65625 200.15625 C 27.943484 201.06375 26.967735 201.72651 26.325477 202.17842 C 25.068705 203.16661 23.882537 204.25044 22.645361 205.26661 C 19.521209 207.88272 16.327673 210.41723 13.28125 213.125 C 12.003332 214.66281 10.91508 216.40781 10.421225 218.36402 C 9.8868722 220.18883 9.8498073 222.21769 10.5625 224 C 11.140117 225.39533 12.249651 226.51642 13.600854 227.17756 C 15.692374 228.19341 18.029331 228.51494 20.250123 229.14683 C 24.69346 230.22607 29.178425 231.20965 33.73983 231.61767 C 36.003699 231.81102 38.279112 231.81646 40.541995 231.60594 C 41.888233 231.48231 43.232272 231.2447 44.535458 230.88776 C 46.380368 230.28355 48.158314 229.45231 49.805425 228.42558 C 52.447779 226.60399 54.799924 224.36214 56.722058 221.79158 C 58.586832 219.36695 60.334094 216.77038 61.21875 213.8125 C 61.989729 210.7272 62.648104 207.61602 63.28125 204.5 C 63.21519 203.42683 65.031357 202.96236 65.34375 204.09375 C 65.836132 205.15685 65.968031 206.41805 66.823479 207.28443 C 68.611673 209.56437 70.853999 211.44108 73.251956 213.04906 C 75.496673 214.64149 77.72009 216.27773 80.125 217.625 C 81.695871 218.25677 83.501242 218.35106 85.078051 217.68753 C 87.199157 216.83618 88.88766 215.18546 90.266553 213.40501 C 91.498376 211.70537 92.57232 209.87828 93.342735 207.92159 C 93.766225 206.76891 94.357531 205.54453 93.986913 204.2914 C 93.67064 203.45428 93.452536 202.15593 94.5 201.75 C 95.535841 201.60771 96.168666 202.63952 97 203.0625 C 99.019745 204.76858 101.21337 206.2529 103.3396 207.82015 C 104.21457 208.42537 105.10788 209.02551 106.15625 209.28125 C 109.18712 210.28406 112.43925 210.31479 115.58722 210.0054 C 120.57378 209.36777 125.35089 207.6855 130.00175 205.84024 C 131.72734 205.12469 133.64896 204.4114 134.6875 202.75 C 135.43572 201.54041 135.2905 200.01164 134.91094 198.70157 C 134.49059 197.34879 133.8112 196.08781 133.07411 194.88524 C 132.29646 193.71975 131.48464 192.57547 130.625 191.46875 C 131.66521 191.50332 132.22519 192.59991 133.15599 192.93907 C 134.71043 193.91336 136.43102 194.66025 138.26797 194.86569 C 141.06876 195.28339 143.91209 195.38814 146.74011 195.32453 C 148.4912 195.24477 150.42776 194.79005 151.53125 193.3125 C 152.75566 191.65201 153.20074 189.58748 153.74288 187.63512 C 154.67224 184.07401 155.18109 180.41616 155.45178 176.7496 C 155.57944 174.77629 155.71968 172.80209 155.62837 170.82372 C 155.48536 167.05632 155.10703 163.29309 154.45072 159.58087 C 154.1898 157.99623 153.46376 156.48785 152.31303 155.35772 C 150.70739 153.595 148.44992 152.57129 146.15439 152.05882 C 145.22262 151.858 144.29062 151.6435 143.33127 151.71875 C 142.72942 151.77217 141.5034 151.66364 141.75 150.78125 C 142.29735 149.87933 143.58551 150.08177 144.44542 149.64899 C 147.85679 148.57189 151.2786 147.349 154.25 145.3125 C 156.55321 143.88157 158.59893 142.06073 160.42695 140.06746 C 161.54031 138.8383 162.20273 137.13018 161.90625 135.46875 C 161.62209 134.28168 160.60286 133.50995 159.78125 132.6875 C 157.84286 131.10797 155.53789 130.07287 153.21756 129.1913 C 149.66053 127.86512 145.70176 127.53763 142.01651 128.52185 C 139.71635 129.11291 137.45897 129.88056 135.26091 130.77629 C 134.1362 131.33248 132.9291 131.75208 131.88751 132.45669 C 130.36463 133.50798 129.61344 135.27496 128.98961 136.9489 C 128.5823 137.89469 128.11494 138.81321 127.6875 139.75 C 127.97794 136.35827 128.48256 132.97638 128.49603 129.56724 C 128.52489 127.11445 127.73472 124.7497 127 122.4375 C 126.03764 119.38883 124.88459 116.3402 122.96875 113.75 C 122.05223 112.63793 121.1129 111.53524 119.95766 110.66057 C 118.54667 109.53357 117.1251 108.36905 115.48542 107.59117 C 114.34634 107.04431 112.99984 106.97989 111.82883 107.47044 C 109.85989 108.17347 108.35378 109.69687 106.82851 111.06414 C 104.43841 113.31548 102.27789 115.81947 100.46875 118.5625 C 100.32896 117.2587 101.11018 115.92551 100.53125 114.65625 C 99.975131 113.31715 99.161599 112.09676 98.432145 110.84639 C 96.92397 108.53581 95.344411 106.24502 93.430988 104.24802 C 91.157659 101.96529 88.341455 100.34756 85.5999 98.703062 C 82.594194 96.820791 79.590797 94.924931 76.483081 93.216391 C 74.317576 92.141444 71.963019 91.503873 69.600224 91.037043 C 67.005246 90.643586 64.3762 90.406109 61.75 90.53125 z "
       id="path2827"
       sodipodi:nodetypes="cssssssssssssssssssssssssssssssssssssssc" />
    <path
       style="fill:none;stroke:#ffff00;stroke-width:4;stroke-linecap:round;stroke-linejoin:round;stroke-opacity:1;color:#000000;stroke-miterlimit:4;stroke-dasharray:none;stroke-dashoffset:0;marker:none;visibility:visible;display:inline;overflow:visible;enable-background:accumulate"
       d="m 382,89 c -0.33333,1 -0.34151,2.176892 -1,3 -2.6092,3.261506 -9.6974,8.28458 -13,12 -3.60502,4.05565 -7.49494,7.85766 -11,12 -1.55265,1.83495 -2.39201,4.21334 -4,6 -1.42782,1.58647 -3.49077,2.49077 -5,4 -1.24693,1.24693 -5.46157,7 -6,7"
       id="path3765" />
    <path
       style="fill:none;stroke:#ffff00;stroke-width:4;stroke-linecap:round;stroke-linejoin:round;stroke-opacity:1;color:#000000;stroke-miterlimit:4;stroke-dasharray:none;stroke-dashoffset:0;marker:none;visibility:visible;display:inline;overflow:visible;enable-background:accumulate"
       d="m 412,107 c -0.87511,6.82304 1.34586,14.27072 0,21 -1.16414,5.82068 -4.04117,11.24703 -5,17 -0.49191,2.95146 -4,5.30412 -4,8"
       id="path3767" />
    <path
       style="fill:none;stroke:#80ff00;stroke-width:3.99999976;stroke-linecap:round;stroke-linejoin:round;stroke-miterlimit:4;stroke-dasharray:none;stroke-opacity:1"
       d="M 346.11266,160.14588 C 347.46376,161.44381 347.48803,157.77134 349.02038,159.37118 C 351.9304,159.71748 354.34425,157.80764 357.27227,158.22407 C 359.2133,158.06391 360.85533,156.87692 362.81145,156.7707 C 364.85063,156.5855 366.63162,155.70351 368.44036,154.88677 C 370.04934,154.25689 371.78645,154.07161 373.43673,153.59659 C 374.96541,154.06272 376.08804,153.49019 377.63404,153.84805 C 379.49988,154.27155 381.12946,152.91744 383.04973,153.77149 C 383.25238,154.61589 381.89105,155.90845 381.47793,156.9301 C 379.92969,159.53225 378.38269,162.13583 376.83159,164.73502 C 375.51233,165.89744 374.72024,167.85694 373.00027,168.35592 C 371.78981,169.13142 370.99733,170.49948 369.97462,171.52798 C 368.96736,172.82897 367.70403,174.17918 366.53031,175.38498 C 365.44647,176.79395 364.18041,177.98502 363.36057,179.70346 C 362.71557,181.04786 361.88137,182.71746 360.45097,180.73641 C 359.15295,179.55545 358.80489,177.4953 357.49383,176.31245 C 356.36052,174.59935 354.86949,173.3025 354.19511,171.08951 C 352.85738,169.46141 351.75823,167.37232 350.19563,166.05819 C 349.2727,164.38812 347.97111,162.95679 346.87249,161.51578 C 346.55726,161.2011 345.85426,160.70256 346.1129,160.14607 L 346.11266,160.14588 z"
       id="path2942"
       inkscape:transform-center-x="-10.744406"
       inkscape:transform-center-y="-5.2463516" />
    <path
       style="fill:none;stroke:#80ff00;stroke-width:3.99999976;stroke-linecap:round;stroke-linejoin:round;stroke-miterlimit:4;stroke-dasharray:none;stroke-opacity:1"
       d="M 305.07949,197.1169 C 307.04138,193.30242 308.69028,189.24573 312.36726,186.4778 C 316.3807,182.69732 320.13242,178.62923 324.77795,175.30132 C 327.24385,172.78426 332.14453,165.74255 331.7996,172.57388 C 333.5295,177.92619 334.52022,183.14361 334.25351,188.35676 C 334.49502,193.83728 335.21218,200.0478 334.36345,204.87828 C 333.18081,205.94826 334.66917,207.51376 333.72543,208.68227"
       id="path2956" />
    <path
       style="fill:none;stroke:#80ff00;stroke-width:3.99999976;stroke-linecap:round;stroke-linejoin:round;stroke-miterlimit:4;stroke-dasharray:none;stroke-opacity:1"
       d="M 230.53687,168.85029 C 231.02249,168.25256 233.63183,165.0412 234.92484,163.44995 C 239.05447,158.4848 243.53315,158.35272 249.96131,153.06157 C 253.0743,149.59677 261.27633,144.11555 263.27656,142.53601 C 262.92028,147.62289 262.32409,152.70977 262.02807,157.79304 C 261.01709,165.45949 261.67626,172.9905 265.71863,180.262 C 266.38782,181.13053 268.31084,182.46813 266.52332,183.42691"
       id="path2958" />
    <path
       style="fill:none;stroke:#80ff00;stroke-width:4;stroke-linecap:round;stroke-linejoin:round;marker:none;stroke-miterlimit:4;stroke-dasharray:none;stroke-dashoffset:0;stroke-opacity:1;visibility:visible;display:inline;overflow:visible;enable-background:accumulate"
       d="M 351.81582,172.08168 C 348.25633,173.32411 344.60105,172.19375 340.91821,170.64734 C 337.09587,169.04283 333.08907,167.9451 329.04363,166.72134 C 324.58781,165.37338 318.97132,163.05937 314.05814,161.43022 C 307.92111,159.39526 301.95987,158.522 295.78136,156.31283 C 288.24777,153.61924 281.19244,149.37026 273.94931,145.75137 C 270.30705,143.93162 266.88832,141.82808 263.07471,140.28504 C 260.13288,139.09497 253.51307,137.15585 251.27656,136.36917"
       id="path2833"
       sodipodi:nodetypes="csssssss" />
    <path
       sodipodi:type="arc"
       style="color:#000000;fill:none;stroke:#ffff00;stroke-width:3.67391965;stroke-linecap:round;stroke-linejoin:round;stroke-miterlimit:4;stroke-opacity:1;stroke-dasharray:none;stroke-dashoffset:0;marker:none;visibility:visible;display:inline;overflow:visible;enable-background:accumulate"
       id="path3750"
       sodipodi:cx="421.25"
       sodipodi:cy="237.25"
       sodipodi:rx="36.75"
       sodipodi:ry="36.75"
       d="M 446.68696,263.77401 A 36.75,36.75 0 1 1 424.61303,200.6542"
       sodipodi:start="0.80631561"
       sodipodi:end="4.8040282"
       transform="matrix(-1.1013827,-0.07995262,0.0822745,-1.0703004,877.2315,340.10922)"
       inkscape:transform-center-x="-32.091535"
       inkscape:transform-center-y="29.238219"
       sodipodi:open="true" />
    <path
       d="M 448.39505,262.02315 A 36.75,36.75 0 1 1 398.463,208.41747"
       sodipodi:ry="36.75"
       sodipodi:rx="36.75"
       sodipodi:cy="237.25"
       sodipodi:cx="421.25"
       id="path3752"
       style="color:#000000;fill:none;stroke:#ffff00;stroke-width:3.67391972;stroke-linecap:round;stroke-linejoin:round;stroke-miterlimit:4;stroke-opacity:1;stroke-dasharray:none;stroke-dashoffset:0;marker:none;visibility:visible;display:inline;overflow:visible;enable-background:accumulate"
       sodipodi:type="arc"
       sodipodi:start="0.73974463"
       sodipodi:end="4.0435768"
       sodipodi:open="true"
       transform="matrix(1.1044514,0,0,1.0732825,-35.044681,-203.96009)" />
    <path
       style="fill:none;stroke:#ffff00;stroke-width:4;stroke-linecap:round;stroke-linejoin:round;stroke-opacity:1;color:#000000;stroke-miterlimit:4;stroke-dasharray:none;stroke-dashoffset:0;marker:none;visibility:visible;display:inline;overflow:visible;enable-background:accumulate"
       d="m 371,26 c -8.13811,-0.02918 -40.64404,0.355965 -45,-4"
       id="path3761" />
    <path
       style="fill:none;stroke:#ffff00;stroke-width:4;stroke-linecap:round;stroke-linejoin:round;stroke-opacity:1;color:#000000;stroke-miterlimit:4;stroke-dasharray:none;stroke-dashoffset:0;marker:none;visibility:visible;display:inline;overflow:visible;enable-background:accumulate"
       d="m 364,59 c -12.71827,4.448213 -26.1705,6.723499 -39,11 -2.62235,0.874117 -2.19105,2 -5,2"
       id="path3763" />
    <path
       style="fill:none;stroke:#ffff00;stroke-width:4;stroke-linecap:round;stroke-linejoin:round;stroke-opacity:1;color:#000000;stroke-miterlimit:4;stroke-dasharray:none;stroke-dashoffset:0;marker:none;visibility:visible;display:inline;overflow:visible;enable-background:accumulate"
       d="m 441.10283,106.41378 c 6.19095,12.93054 1.35984,26.51829 2.13665,39.75468 0.0586,0.99828 0.82537,1.90438 0.75968,2.90222 -0.2523,3.83253 -2.06593,7.90357 -1.08411,11.65439"
       id="path3775" />
    <path
       style="fill:none;stroke:#0000ff;stroke-width:4;stroke-linecap:round;stroke-linejoin:round;stroke-miterlimit:4;stroke-dasharray:none;stroke-opacity:1"
       d="M 413.42348,213.62219 C 411.07645,213.82828 410.34122,215.8812 409.54931,217.16148 C 407.76508,218.92944 408.42053,219.57172 406.84025,221.81316 C 406.80314,223.78032 405.73492,225.35608 406.14504,227.49344 C 405.90532,230.6418 408.5296,233.22175 410.75069,235.02657 C 412.57911,236.05305 414.26925,237.23198 416.46386,236.99806 C 418.0135,236.83234 419.77515,237.18209 421.15662,236.60742 C 422.77424,234.67017 426.22473,233.84531 427.17237,232.14411 C 427.2386,230.28659 427.15499,228.44439 427.39564,226.63642 C 427.32003,223.88926 427.24543,221.14207 427.16972,218.39502 C 426.09139,217.4341 425.5392,215.89466 424.3335,215.61189 C 423.65389,214.95326 422.02195,215.29871 421.12837,214.82292 C 418.83086,213.93064 416.06822,214.25876 413.42348,213.62219 z"
       id="path2905" />
    <path
       style="fill:none;stroke:#0000ff;stroke-width:4;stroke-linecap:round;stroke-linejoin:round;stroke-miterlimit:4;stroke-dasharray:none;stroke-opacity:1"
       d="M 416.03491,238.11879 C 416.56475,240.6017 414.73241,243.65826 415.46699,244.60719 C 414.56126,248.37722 414.36607,252.31805 413.41149,256.07252 C 412.38831,259.27326 412.63861,262.60915 412.2521,265.6868 C 412.2939,267.21152 412.33569,268.73615 412.37748,270.26078"
       id="path2907" />
    <path
       style="fill:none;stroke:#c87137;stroke-width:4;stroke-linecap:round;stroke-linejoin:round;marker:none;stroke-miterlimit:4;stroke-dasharray:none;stroke-dashoffset:0;stroke-opacity:1;visibility:visible;display:inline;overflow:visible;enable-background:accumulate"
       d="M 432.24565,261.97399 C 432.3074,264.33622 432.29863,266.61847 433.01168,268.90832 C 433.23282,269.61856 433.8384,269.93645 434.20756,270.51207 C 434.73371,271.33248 434.86893,272.58043 435.43708,273.34233 C 435.65991,273.64117 436.04233,273.52085 436.31157,273.72751 C 437.24784,274.44595 438.22749,276.0523 439.26764,276.51041 C 441.96534,277.69859 444.88166,277.58393 447.64641,277.50814 C 449.75868,277.45024 451.9365,277.75935 453.64461,275.70719 C 456.90936,271.78487 455.36113,270.61293 456.2645,266.22521 C 456.83324,263.46277 458.17238,262.28672 458.09952,259.62875"
       id="path2928" />
    <path
       style="fill:none;stroke:#ff0000;stroke-width:4;stroke-linecap:butt;stroke-linejoin:miter;marker:none;stroke-miterlimit:4;stroke-dasharray:none;stroke-dashoffset:0;stroke-opacity:1;visibility:visible;display:inline;overflow:visible;enable-background:accumulate"
       d="M 442.1925,261.75067 C 441.63715,261.62198 439.47014,261.28363 438.94372,261.83973 C 437.83957,263.00612 437.12938,263.26921 437.03353,265.14331 C 436.96114,266.55857 437.20348,266.95402 438.34471,267.35821 C 440.05159,267.96274 441.25582,267.33744 442.56571,266.24213 C 443.35901,265.5788 443.14365,265.59976 443.53109,264.9652 C 444.24995,263.78783 443.1517,261.97294 442.1925,261.75067 z"
       id="path3727"
       sodipodi:nodetypes="cssssss" />
    <path
       style="fill:none;stroke:#ff0000;stroke-width:4;stroke-linecap:butt;stroke-linejoin:miter;marker:none;stroke-miterlimit:4;stroke-dasharray:none;stroke-dashoffset:0;stroke-opacity:1;visibility:visible;display:inline;overflow:visible;enable-background:accumulate"
       d="M 449.80231,266.53138 C 448.61624,266.29649 445.71588,268.50029 445.63953,269.77167 C 445.59042,270.58914 446.78366,272.65621 447.34955,272.85097 C 448.30843,273.18097 449.64017,273.04272 450.59833,272.76191 C 451.06237,272.62592 451.29808,271.26094 451.54316,270.73526 C 451.76969,270.24933 451.79733,268.90376 451.4815,268.48611 C 450.98308,267.82701 451.01304,266.77116 449.80231,266.53138 z"
       id="path3729"
       sodipodi:nodetypes="cssssss" />
    <path
       style="fill:none;stroke:#ff0000;stroke-width:4;stroke-linecap:butt;stroke-linejoin:miter;marker:none;stroke-miterlimit:4;stroke-dasharray:none;stroke-dashoffset:0;stroke-opacity:1;visibility:visible;display:inline;overflow:visible;enable-background:accumulate"
       d="M 448.97688,256.91911 C 448.38532,257.14729 447.65366,257.54549 447.25493,257.96669 C 446.64636,258.60957 446.88857,260.24707 447.19393,261.08565 C 447.412,261.68453 447.83843,261.86378 448.36417,261.93779 C 448.9421,262.01918 450.44898,262.20425 450.86323,261.86928 C 451.26112,261.54755 452.09573,261.04736 452.32156,260.32874 C 452.61659,259.38996 452.53162,258.88184 452.25991,258.07959 C 452.03142,257.40496 451.54616,256.84989 451.21918,256.60755 C 450.92153,256.38696 450.27767,256.41737 448.97688,256.91911 z"
       id="path3733"
       sodipodi:nodetypes="cssssssss" />
    <path
       id="path2909"
       style="fill:none;stroke:#0000ff;stroke-width:4;stroke-linecap:round;stroke-linejoin:round;stroke-miterlimit:4;stroke-dasharray:none;stroke-opacity:1"
       d="M 413.12525,271.4738 C 414.29149,273.31236 416.68716,277.47878 418.46044,280.2603 C 420.1442,284.313 423.20077,286.78238 425.02187,290.66283 C 427.23137,293.07963 428.78643,295.77172 430.57513,298.82552 C 431.93481,300.49877 432.19114,304.87167 433.13379,305.30889 C 433.34271,305.49799 434.06391,307.73162 433.33238,306.64946 M 412.23002,269.78072 C 410.32651,272.48817 408.17898,275.11817 407.03241,278.2534 C 404.97527,281.48635 403.97161,285.32848 401.65358,288.36609 C 401.41435,292.12292 398.35873,294.84459 397.66335,298.4831 C 396.77398,301.06801 395.54174,302.91594 395.01561,305.70424 C 394.40808,306.67964 394.92824,307.7196 394.71726,305.13984" />
    <path
       style="fill:none;stroke:#0000ff;stroke-width:4;stroke-linecap:round;stroke-linejoin:round;stroke-miterlimit:4;stroke-dasharray:none;stroke-opacity:1"
       d="M 396.89002,266.3986 C 400.20688,262.98724 401.32278,258.86114 404.75456,255.70165 C 407.43677,253.23225 408.2047,248.74069 410.2146,246.23385 C 411.09028,245.14166 413.45931,239.68211 415.64828,242.88544 C 417.79853,246.03209 418.759,249.49214 420.10466,251.84117 C 422.33058,255.72679 424.0211,260.01202 427.14807,263.1583 C 428.90343,264.92451 430.29398,266.45441 431.73463,268.53214 C 432.481,269.60857 433.89917,270.15892 434.16427,271.37887"
       id="path2911"
       sodipodi:nodetypes="csssssss" />
    <path
       style="fill:none;stroke:#80ff00;stroke-width:3.99999976;stroke-linecap:round;stroke-linejoin:round;stroke-miterlimit:4;stroke-dasharray:none;stroke-opacity:1"
       d="M 251.4948,136.46872 C 243.7165,133.23657 235.93236,131.45254 228.15606,129.20835 C 220.95068,127.33774 214.64631,127.90076 206.42321,128.30594 C 198.86211,129.60018 189.63015,129.01673 180.15063,125.69677 C 172.22133,122.73265 164.99454,118.39444 158.77369,112.17689 C 155.01583,108.8519 150.9829,105.68217 149.00304,101.21636 C 143.10434,91.819673 140.2278,81.724418 133.8134,72.457328 C 131.8012,68.272962 129.35001,63.255322 128.99281,62.347058 C 124.11531,55.479761 127.60724,47.419961 130.04166,44.291405 C 130.12226,44.832245 131.26006,42.754788 131.04593,42.228533"
       id="path4123" />
  </g>
</svg>
