<?xml version="1.0" encoding="UTF-8" standalone="no"?>
<!-- Created with Inkscape (http://www.inkscape.org/) -->

<svg
   xmlns:dc="http://purl.org/dc/elements/1.1/"
   xmlns:cc="http://creativecommons.org/ns#"
   xmlns:rdf="http://www.w3.org/1999/02/22-rdf-syntax-ns#"
   xmlns:svg="http://www.w3.org/2000/svg"
   xmlns="http://www.w3.org/2000/svg"
   xmlns:sodipodi="http://sodipodi.sourceforge.net/DTD/sodipodi-0.dtd"
   xmlns:inkscape="http://www.inkscape.org/namespaces/inkscape"
   width="480"
   height="320"
   id="svg2"
   version="1.1"
   inkscape:version="0.47 r22583"
   sodipodi:docname="itnas239.svg"
   inkscape:export-xdpi="90"
   inkscape:export-ydpi="90"
   inkscape:export-filename="itnas239.png">
  <defs
     id="defs4" />
  <sodipodi:namedview
     id="base"
     pagecolor="#ffffff"
     bordercolor="#666666"
     borderopacity="1.0"
     inkscape:pageopacity="1"
     inkscape:pageshadow="2"
     inkscape:zoom="2"
     inkscape:cx="461.69801"
     inkscape:cy="165.43879"
     inkscape:document-units="px"
     inkscape:current-layer="layer1"
     showgrid="false"
     inkscape:snap-nodes="true"
     inkscape:snap-global="true"
     inkscape:snap-grids="true"
     showguides="true"
     inkscape:window-width="1280"
     inkscape:window-height="998"
     inkscape:window-x="1276"
     inkscape:window-y="-4"
     inkscape:window-maximized="1"
     inkscape:object-nodes="true"
     inkscape:object-paths="false"
     inkscape:snap-intersection-paths="true">
    <inkscape:grid
       empspacing="5"
       visible="true"
       enabled="true"
       snapvisiblegridlinesonly="true"
       type="xygrid"
       id="grid2816" />
  </sodipodi:namedview>
  <metadata
     id="metadata7">
    <rdf:RDF>
      <cc:Work
         rdf:about="">
        <dc:format>image/svg+xml</dc:format>
        <dc:type
           rdf:resource="http://purl.org/dc/dcmitype/StillImage" />
        <dc:title />
      </cc:Work>
    </rdf:RDF>
  </metadata>
  <g
     inkscape:label="Layer 1"
     inkscape:groupmode="layer"
     id="layer1"
     transform="translate(0,0)">
    <path
       id="path2901"
       d="m 468.12243,92.473128 3.14534,131.380422 M 268,9.5 397.99313,11.456441"
       style="color:#000000;fill:none;stroke:#000000;stroke-width:6;stroke-miterlimit:4;stroke-opacity:1;stroke-dasharray:none;marker:none;visibility:visible;display:inline;overflow:visible;enable-background:accumulate"
       sodipodi:nodetypes="cccc" />
    <g
       transform="matrix(0.48343439,0.87538061,-0.87538061,0.48343439,388.70453,-155.14785)"
       id="g2902">
      <path
         sodipodi:nodetypes="cssss"
         id="path2826-1-9"
         d="m 155.84667,156.77677 c 0,0 7.31915,1.84882 19.18161,2.74431 20.00873,1.51044 32.61201,26.15557 56.46606,26.73291 25.22413,0.6105 49.44363,-1.76414 67.62722,-22.84639 16.02901,-18.58419 19.47737,-32.80294 14.17952,-65.590347"
         style="fill:none;stroke:#00ff00;stroke-width:4;stroke-linecap:butt;stroke-linejoin:miter;stroke-miterlimit:4;stroke-opacity:1;stroke-dasharray:none;marker-start:none;marker-mid:none;marker-end:none" />
      <g
         inkscape:transform-center-x="16.538443"
         inkscape:transform-center-y="-6.5770454"
         transform="matrix(0.21423078,-0.97678308,0.97678308,0.21423078,58.215054,334.67517)"
         id="g2937">
        <path
           style="color:#000000;fill:none;stroke:#0000ff;stroke-width:4;stroke-linecap:butt;stroke-linejoin:bevel;stroke-miterlimit:4;stroke-opacity:1;stroke-dasharray:none;stroke-dashoffset:0;marker:none;visibility:visible;display:inline;overflow:visible;enable-background:accumulate"
           d="m 206.19224,50.959145 -22.97456,0.002"
           id="path3028-1-1" />
        <path
           style="color:#000000;fill:none;stroke:#0000ff;stroke-width:3.99999976;stroke-linecap:butt;stroke-linejoin:bevel;stroke-miterlimit:4;stroke-opacity:1;stroke-dasharray:none;stroke-dashoffset:0;marker:none;visibility:visible;display:inline;overflow:visible;enable-background:accumulate"
           d="m 199.99646,42.691859 -11.26117,0.06514"
           id="rect10452-0-7-5-7" />
        <path
           id="path10399-9-40"
           style="fill:none;stroke:#00ff00;stroke-width:2;stroke-linecap:butt;stroke-linejoin:miter;stroke-miterlimit:4;stroke-opacity:1;stroke-dasharray:none"
           d="m 208.30239,56.809745 c 0,0 -14.55766,-39.164966 -14.55766,-39.164966 l -12.23664,39.211847 c 0,0 26.7943,-0.04688 26.7943,-0.04688 z"
           sodipodi:nodetypes="cccc" />
        <path
           style="color:#000000;fill:none;stroke:#b344ac;stroke-width:2;stroke-linecap:butt;stroke-linejoin:bevel;stroke-miterlimit:4;stroke-opacity:1;stroke-dasharray:none;stroke-dashoffset:0;marker:none;visibility:visible;display:inline;overflow:visible;enable-background:accumulate"
           d="m 183.9217,27.815647 19.97105,-1.075829 -19.43314,11.061348 19.97104,-1.075839 -20.50895,-8.90968 z"
           id="path10281-7"
           sodipodi:nodetypes="ccccc" />
      </g>
      <path
         sodipodi:nodetypes="czzzc"
         id="path3030-6-8"
         d="m 217.38106,195.93847 c 3.45241,-3.61104 8.63302,-6.95493 11.20336,-10.98009 2.57035,-4.02516 1.76021,-8.92147 -2.34528,-9.60923 -4.10547,-0.68779 -6.63961,3.38894 -6.06314,8.15123 0.57648,4.76227 4.89986,9.07321 7.76456,13.58381"
         style="fill:none;stroke:#0000ff;stroke-width:4;stroke-linecap:butt;stroke-linejoin:miter;stroke-miterlimit:4;stroke-opacity:1;stroke-dasharray:none" />
      <g
         transform="matrix(0.43430588,-0.67184702,0.67184702,0.43430588,48.335443,258.26927)"
         id="g2942">
        <path
           style="fill:none;stroke:#0000ff;stroke-width:5;stroke-linecap:butt;stroke-linejoin:miter;stroke-miterlimit:4;stroke-opacity:1;stroke-dasharray:none"
           d="m 206.66319,105.19515 c -7.91409,4.26712 -8.11323,10.1635 -0.17602,15.48704"
           id="rect10452-1-7-4-2-2"
           sodipodi:nodetypes="cc" />
        <path
           style="fill:none;stroke:#0000ff;stroke-width:5;stroke-linecap:butt;stroke-linejoin:miter;stroke-miterlimit:4;stroke-opacity:1;stroke-dasharray:none"
           d="m 179.489,105.38873 c 8.38416,3.32675 8.29912,11.94162 0.0734,15.23703"
           id="rect10452-1-4-4-0-7-4"
           sodipodi:nodetypes="cc" />
        <path
           style="fill:none;stroke:#0000ff;stroke-width:5;stroke-linecap:butt;stroke-linejoin:bevel;stroke-miterlimit:4;stroke-opacity:1;stroke-dasharray:none"
           d="m 193.13509,122.31481 0.17678,-18.66053"
           id="rect10452-0-7-4-1-5" />
      </g>
      <g
         id="g5210"
         transform="matrix(-0.28081448,0.95976207,0.95976207,0.28081448,118.79689,-103.46705)"
         inkscape:transform-center-x="-15.60571"
         inkscape:transform-center-y="12.453659">
        <path
           id="path10402-6-4-8"
           style="fill:none;stroke:#00ff00;stroke-width:2px;stroke-linecap:butt;stroke-linejoin:miter;stroke-opacity:1"
           d="m 229.1168,170.13131 -12.64386,-23.2507 12.04746,-20.88833 16.30879,5.44103 c 0,0 -0.41469,23.58056 -0.41469,23.58056 l -24.23977,10.51664"
           sodipodi:nodetypes="cccccc" />
        <path
           sodipodi:nodetypes="ccccc"
           id="path10281"
           d="m 222.00556,159.06172 9.31497,3.63748 -11.13372,1.01998 9.31497,3.63749 -7.49622,-8.29497 z"
           style="color:#000000;fill:none;stroke:#b344ac;stroke-width:2;stroke-linecap:butt;stroke-linejoin:bevel;stroke-miterlimit:4;stroke-opacity:1;stroke-dasharray:none;stroke-dashoffset:0;marker:none;visibility:visible;display:inline;overflow:visible;enable-background:accumulate" />
      </g>
      <g
         id="g5266"
         transform="matrix(0.91735011,-0.39808137,0.39808137,0.91735011,-71.336544,111.05625)"
         inkscape:transform-center-x="-18.488378"
         inkscape:transform-center-y="15.959922">
        <path
           id="path10436-7-4"
           style="fill:none;stroke:#00ff00;stroke-width:2px;stroke-linecap:butt;stroke-linejoin:miter;stroke-opacity:1"
           d="m 289.44932,207.29086 -30.04366,9.96528 c 0,0 -17.19495,-17.36969 -17.19495,-17.36969 0,0 13.65337,-19.82467 13.65337,-19.82467 0,0 21.40995,5.36557 21.40995,5.36557 0,0 8.63226,29.84922 8.63226,29.84922"
           sodipodi:nodetypes="cccccc" />
        <path
           sodipodi:nodetypes="ccccc"
           id="path10281-1"
           d="m 279.08901,212.2628 4.66754,-8.84388 -0.24559,11.17764 4.66753,-8.84389 -9.08948,6.51013 z"
           style="color:#000000;fill:none;stroke:#b344ac;stroke-width:2;stroke-linecap:butt;stroke-linejoin:bevel;stroke-miterlimit:4;stroke-opacity:1;stroke-dasharray:none;stroke-dashoffset:0;marker:none;visibility:visible;display:inline;overflow:visible;enable-background:accumulate" />
      </g>
      <path
         style="color:#000000;fill:none;stroke:#b344ac;stroke-width:2;stroke-linecap:butt;stroke-linejoin:bevel;stroke-miterlimit:4;stroke-opacity:1;stroke-dasharray:none;stroke-dashoffset:0;marker:none;visibility:visible;display:inline;overflow:visible;enable-background:accumulate"
         d="m 309.60041,100.63885 9.94603,-1.037537 -9.42725,6.010547 9.94603,-1.03753 -10.46481,-3.93548 z"
         id="path10281-11"
         sodipodi:nodetypes="ccccc" />
    </g>
    <path
       id="path4154-1-7-8"
       style="fill:none;stroke:#b44cad;stroke-width:2;stroke-linecap:butt;stroke-linejoin:round;stroke-miterlimit:4;stroke-opacity:1;stroke-dasharray:2, 2;stroke-dashoffset:0"
       d="m 328.00083,34.49882 c 0,0 37.80038,-8.894099 60.81898,2.801489 19.15515,9.732597 43.38616,-11.580667 61.37826,-19.040893 3.67832,-1.525175 9.20664,2.284609 9.17718,6.647383 -0.14035,20.782549 -17.04258,46.522309 -3.92952,84.753901 9.74197,28.40305 -4.30424,56.44165 -4.30424,56.44165"
       sodipodi:nodetypes="cssssc" />
    <g
       id="g14670"
       transform="matrix(0.25,0,0,0.25,253.60471,-110.94248)"
       style="stroke-width:4;stroke-miterlimit:4;stroke-dasharray:none">
      <path
         d="m 420,822.36218 -30,30 m 0,-30 30,30"
         style="fill:none;stroke:#ff0000;stroke-width:4;stroke-linecap:butt;stroke-linejoin:miter;stroke-miterlimit:4;stroke-opacity:1;stroke-dasharray:none"
         id="path14672" />
      <path
         transform="translate(0,732.36218)"
         d="m 420,105 c 0,8.28427 -6.71573,15 -15,15 -8.28427,0 -15,-6.71573 -15,-15 0,-8.284271 6.71573,-15 15,-15 8.28427,0 15,6.715729 15,15 z"
         sodipodi:ry="15"
         sodipodi:rx="15"
         sodipodi:cy="105"
         sodipodi:cx="405"
         id="path14674"
         style="color:#000000;fill:none;stroke:#ff0000;stroke-width:4;stroke-linecap:butt;stroke-linejoin:miter;stroke-miterlimit:4;stroke-opacity:1;stroke-dasharray:none;stroke-dashoffset:0;marker:none;visibility:visible;display:inline;overflow:visible;enable-background:accumulate"
         sodipodi:type="arc" />
    </g>
    <g
       transform="matrix(0.25,0,0,0.25,241.8864,-103.81432)"
       id="g14676"
       style="stroke-width:4;stroke-miterlimit:4;stroke-dasharray:none">
      <path
         id="path14678"
         style="fill:none;stroke:#ff0000;stroke-width:4;stroke-linecap:butt;stroke-linejoin:miter;stroke-miterlimit:4;stroke-opacity:1;stroke-dasharray:none"
         d="m 420,822.36218 -30,30 m 0,-30 30,30" />
      <path
         sodipodi:type="arc"
         style="color:#000000;fill:none;stroke:#ff0000;stroke-width:4;stroke-linecap:butt;stroke-linejoin:miter;stroke-miterlimit:4;stroke-opacity:1;stroke-dasharray:none;stroke-dashoffset:0;marker:none;visibility:visible;display:inline;overflow:visible;enable-background:accumulate"
         id="path14680"
         sodipodi:cx="405"
         sodipodi:cy="105"
         sodipodi:rx="15"
         sodipodi:ry="15"
         d="m 420,105 c 0,8.28427 -6.71573,15 -15,15 -8.28427,0 -15,-6.71573 -15,-15 0,-8.284271 6.71573,-15 15,-15 8.28427,0 15,6.715729 15,15 z"
         transform="translate(0,732.36218)" />
    </g>
    <g
       style="stroke-width:4;stroke-miterlimit:4;stroke-dasharray:none"
       id="g14093"
       transform="matrix(0.25,0,0,0.25,225.01802,-129.0261)">
      <path
         d="m 420,822.36218 -30,30 m 0,-30 30,30"
         style="fill:none;stroke:#ff0000;stroke-width:4;stroke-linecap:butt;stroke-linejoin:miter;stroke-miterlimit:4;stroke-opacity:1;stroke-dasharray:none"
         id="path14095" />
      <path
         transform="translate(0,732.36218)"
         d="m 420,105 c 0,8.28427 -6.71573,15 -15,15 -8.28427,0 -15,-6.71573 -15,-15 0,-8.284271 6.71573,-15 15,-15 8.28427,0 15,6.715729 15,15 z"
         sodipodi:ry="15"
         sodipodi:rx="15"
         sodipodi:cy="105"
         sodipodi:cx="405"
         id="path14097"
         style="color:#000000;fill:none;stroke:#ff0000;stroke-width:4;stroke-linecap:butt;stroke-linejoin:miter;stroke-miterlimit:4;stroke-opacity:1;stroke-dasharray:none;stroke-dashoffset:0;marker:none;visibility:visible;display:inline;overflow:visible;enable-background:accumulate"
         sodipodi:type="arc" />
    </g>
    <g
       style="stroke-width:4;stroke-miterlimit:4;stroke-dasharray:none"
       transform="matrix(0.25,0,0,0.25,239.75392,-136.99364)"
       id="g14099">
      <path
         id="path14101"
         style="fill:none;stroke:#ff0000;stroke-width:4;stroke-linecap:butt;stroke-linejoin:miter;stroke-miterlimit:4;stroke-opacity:1;stroke-dasharray:none"
         d="m 420,822.36218 -30,30 m 0,-30 30,30" />
      <path
         sodipodi:type="arc"
         style="color:#000000;fill:none;stroke:#ff0000;stroke-width:4;stroke-linecap:butt;stroke-linejoin:miter;stroke-miterlimit:4;stroke-opacity:1;stroke-dasharray:none;stroke-dashoffset:0;marker:none;visibility:visible;display:inline;overflow:visible;enable-background:accumulate"
         id="path14103"
         sodipodi:cx="405"
         sodipodi:cy="105"
         sodipodi:rx="15"
         sodipodi:ry="15"
         d="m 420,105 c 0,8.28427 -6.71573,15 -15,15 -8.28427,0 -15,-6.71573 -15,-15 0,-8.284271 6.71573,-15 15,-15 8.28427,0 15,6.715729 15,15 z"
         transform="translate(0,732.36218)" />
    </g>
    <g
       id="g3638"
       transform="matrix(0.5,0,0,0.5,123.21975,-367.54387)">
      <path
         d="m 420,822.36218 -30,30 m 0,-30 30,30"
         style="fill:none;stroke:#ff0000;stroke-width:4;stroke-linecap:butt;stroke-linejoin:miter;stroke-miterlimit:4;stroke-opacity:1;stroke-dasharray:none"
         id="path3633" />
      <path
         transform="translate(0,732.36218)"
         d="m 420,105 c 0,8.28427 -6.71573,15 -15,15 -8.28427,0 -15,-6.71573 -15,-15 0,-8.284271 6.71573,-15 15,-15 8.28427,0 15,6.715729 15,15 z"
         sodipodi:ry="15"
         sodipodi:rx="15"
         sodipodi:cy="105"
         sodipodi:cx="405"
         id="path3636"
         style="color:#000000;fill:none;stroke:#ff0000;stroke-width:4;stroke-linecap:butt;stroke-linejoin:miter;stroke-miterlimit:4;stroke-opacity:1;stroke-dasharray:none;stroke-dashoffset:0;marker:none;visibility:visible;display:inline;overflow:visible;enable-background:accumulate"
         sodipodi:type="arc" />
    </g>
    <g
       style="stroke-width:4;stroke-miterlimit:4;stroke-dasharray:none"
       transform="matrix(0.25,0,0,0.25,256.96616,-44.033314)"
       id="g14136">
      <path
         id="path14138"
         style="fill:none;stroke:#ff0000;stroke-width:4;stroke-linecap:butt;stroke-linejoin:miter;stroke-miterlimit:4;stroke-opacity:1;stroke-dasharray:none"
         d="m 420,822.36218 -30,30 m 0,-30 30,30" />
      <path
         sodipodi:type="arc"
         style="color:#000000;fill:none;stroke:#ff0000;stroke-width:4;stroke-linecap:butt;stroke-linejoin:miter;stroke-miterlimit:4;stroke-opacity:1;stroke-dasharray:none;stroke-dashoffset:0;marker:none;visibility:visible;display:inline;overflow:visible;enable-background:accumulate"
         id="path14140"
         sodipodi:cx="405"
         sodipodi:cy="105"
         sodipodi:rx="15"
         sodipodi:ry="15"
         d="m 420,105 c 0,8.28427 -6.71573,15 -15,15 -8.28427,0 -15,-6.71573 -15,-15 0,-8.284271 6.71573,-15 15,-15 8.28427,0 15,6.715729 15,15 z"
         transform="translate(0,732.36218)" />
    </g>
    <g
       style="stroke-width:4;stroke-miterlimit:4;stroke-dasharray:none"
       id="g14142"
       transform="matrix(0.25,0,0,0.25,242.10282,-37.258205)">
      <path
         d="m 420,822.36218 -30,30 m 0,-30 30,30"
         style="fill:none;stroke:#ff0000;stroke-width:4;stroke-linecap:butt;stroke-linejoin:miter;stroke-miterlimit:4;stroke-opacity:1;stroke-dasharray:none"
         id="path14144" />
      <path
         transform="translate(0,732.36218)"
         d="m 420,105 c 0,8.28427 -6.71573,15 -15,15 -8.28427,0 -15,-6.71573 -15,-15 0,-8.284271 6.71573,-15 15,-15 8.28427,0 15,6.715729 15,15 z"
         sodipodi:ry="15"
         sodipodi:rx="15"
         sodipodi:cy="105"
         sodipodi:cx="405"
         id="path14146"
         style="color:#000000;fill:none;stroke:#ff0000;stroke-width:4;stroke-linecap:butt;stroke-linejoin:miter;stroke-miterlimit:4;stroke-opacity:1;stroke-dasharray:none;stroke-dashoffset:0;marker:none;visibility:visible;display:inline;overflow:visible;enable-background:accumulate"
         sodipodi:type="arc" />
    </g>
    <g
       id="g6590"
       style="color:#000000;fill:none;stroke:#b344ac;stroke-width:2;stroke-linecap:butt;stroke-linejoin:bevel;stroke-miterlimit:4;stroke-opacity:1;stroke-dasharray:none;stroke-dashoffset:0;marker:none;visibility:visible;display:inline;overflow:visible;enable-background:accumulate"
       transform="translate(-287.9976,-1439.3567)">
      <path
         d="m 745,1465 c 0,2.7614 -2.23858,5 -5,5 -2.76142,0 -5,-2.2386 -5,-5 0,-2.7614 2.23858,-5 5,-5 2.76142,0 5,2.2386 5,5 z"
         sodipodi:ry="5"
         sodipodi:rx="5"
         sodipodi:cy="1465"
         sodipodi:cx="740"
         id="path6584"
         style="color:#000000;fill:none;stroke:#000000;stroke-width:2;stroke-linecap:butt;stroke-linejoin:miter;stroke-miterlimit:4;stroke-opacity:1;stroke-dasharray:2, 2;stroke-dashoffset:0;marker:none;visibility:visible;display:inline;overflow:visible;enable-background:accumulate"
         sodipodi:type="arc" />
    </g>
    <path
       style="fill:none;stroke:#000000;stroke-width:1px;stroke-linecap:butt;stroke-linejoin:miter;stroke-opacity:1"
       d="m 462,-14 -306.07746,0"
       id="path7597" />
  </g>
</svg>
