<?xml version="1.0" encoding="UTF-8" standalone="no"?>
<!-- Created with Inkscape (http://www.inkscape.org/) -->

<svg
   xmlns:dc="http://purl.org/dc/elements/1.1/"
   xmlns:cc="http://creativecommons.org/ns#"
   xmlns:rdf="http://www.w3.org/1999/02/22-rdf-syntax-ns#"
   xmlns:svg="http://www.w3.org/2000/svg"
   xmlns="http://www.w3.org/2000/svg"
   xmlns:sodipodi="http://sodipodi.sourceforge.net/DTD/sodipodi-0.dtd"
   xmlns:inkscape="http://www.inkscape.org/namespaces/inkscape"
   width="480"
   height="320"
   id="svg2"
   version="1.1"
   inkscape:version="0.47 r22583"
   sodipodi:docname="itnas216.svg"
   inkscape:export-xdpi="90"
   inkscape:export-ydpi="90"
   inkscape:export-filename="itnas216.png">
  <defs
     id="defs4" />
  <sodipodi:namedview
     id="base"
     pagecolor="#ffffff"
     bordercolor="#666666"
     borderopacity="1.0"
     inkscape:pageopacity="1"
     inkscape:pageshadow="2"
     inkscape:zoom="1"
     inkscape:cx="339.44982"
     inkscape:cy="144.48105"
     inkscape:document-units="px"
     inkscape:current-layer="layer1"
     showgrid="false"
     inkscape:snap-nodes="true"
     inkscape:snap-global="false"
     inkscape:snap-grids="true"
     showguides="true"
     inkscape:window-width="1280"
     inkscape:window-height="774"
     inkscape:window-x="1276"
     inkscape:window-y="1020"
     inkscape:window-maximized="1"
     inkscape:object-nodes="true">
    <inkscape:grid
       empspacing="5"
       visible="true"
       enabled="true"
       snapvisiblegridlinesonly="true"
       type="xygrid"
       id="grid2816" />
  </sodipodi:namedview>
  <metadata
     id="metadata7">
    <rdf:RDF>
      <cc:Work
         rdf:about="">
        <dc:format>image/svg+xml</dc:format>
        <dc:type
           rdf:resource="http://purl.org/dc/dcmitype/StillImage" />
        <dc:title></dc:title>
      </cc:Work>
    </rdf:RDF>
  </metadata>
  <g
     inkscape:label="Layer 1"
     inkscape:groupmode="layer"
     id="layer1"
     transform="translate(0,0)">
    <path
       style="color:#000000;fill:none;stroke:#c87137;stroke-width:3.99999928;stroke-linecap:round;stroke-linejoin:round;stroke-miterlimit:4;stroke-opacity:1;stroke-dasharray:none;stroke-dashoffset:0;marker:none;visibility:visible;display:inline;overflow:visible;enable-background:accumulate"
       d="m -401.23083,173.00417 c 1.77546,-9.51602 0.98719,-13.48238 0.11892,-22.97384 -1.17613,-12.85576 0.50939,-20.57156 1.87552,-33.3405 2.71493,-25.37616 -0.2035,-38.18116 -0.47392,-57.51794 -0.13558,-9.70074 1.14301,-21.78864 0.95189,-31.63408 -0.26965,-13.8899 -3.04473,-19.9188 -2.45868,-33.8271 0.19454,-14.52908 1.46042,-15.88358 1.40924,-30.20134"
       id="path2832"
       sodipodi:nodetypes="csssscc" />
    <path
       style="color:#000000;fill:none;stroke:#c87137;stroke-width:3.99999976;stroke-linecap:round;stroke-linejoin:round;stroke-miterlimit:4;stroke-opacity:1;stroke-dasharray:none;stroke-dashoffset:0;marker:none;visibility:visible;display:inline;overflow:visible;enable-background:accumulate"
       d="m -473.81991,-30.67841 c 0.72897,7.38286 1.29942,14.7757 2.10573,22.22044 1.05076,9.7021 -2.78773,19.25654 -2.78773,29.0609 0,22.31714 4.73042,48.18234 0.682,69.54284 -2.14882,11.33766 -1.5473,22.3867 0,32.5861 -0.40881,18.62116 3.09257,29.395 0.187,48.4607"
       id="path2850"
       sodipodi:nodetypes="cssscc" />
    <path
       style="color:#000000;fill:none;stroke:#c87137;stroke-width:3.99999976;stroke-linecap:round;stroke-linejoin:round;stroke-miterlimit:4;stroke-opacity:1;stroke-dasharray:none;stroke-dashoffset:0;marker:none;visibility:visible;display:inline;overflow:visible;enable-background:accumulate"
       d="m 179.64978,134.61589 c -12.15478,-2.30956 -26.43518,-10.87036 -34,-2 -14.92864,9.07882 -15.81982,17.24514 -16,24"
       id="path4395"
       sodipodi:nodetypes="ccc" />
    <path
       style="color:#000000;fill:none;stroke:#c87137;stroke-width:3.99999976;stroke-linecap:round;stroke-linejoin:round;stroke-miterlimit:4;stroke-opacity:1;stroke-dasharray:none;stroke-dashoffset:0;marker:none;visibility:visible;display:inline;overflow:visible;enable-background:accumulate"
       d="m 191.1845,163.55955 -25.17996,13.56352 c -8.06034,12.6937 -0.72644,16.25666 -12.35724,26.23544"
       id="path4397"
       sodipodi:nodetypes="ccc" />
    <path
       sodipodi:nodetypes="cssssc"
       id="path4261"
       d="m 462.18758,46.62341 c -6.44834,7.82614 -10.23766,9.85882 -18.5716,15.54192 -11.28812,7.69746 -16.33932,14.2408 -25.72444,23.92476 -18.65136,19.24518 -31.1541,25.50704 -47.05262,38.29042 -7.97586,6.41318 -16.871,15.56882 -25.00436,22.03458 -11.47448,9.1218 -23.97944,17.88592 -34.85216,27.7084"
       style="color:#000000;fill:none;stroke:#c87137;stroke-width:3.99999905;stroke-linecap:round;stroke-linejoin:round;stroke-miterlimit:4;stroke-opacity:1;stroke-dasharray:none;stroke-dashoffset:0;marker:none;visibility:visible;display:inline;overflow:visible;enable-background:accumulate" />
    <path
       sodipodi:nodetypes="cssscc"
       id="path4263"
       d="m 260.83014,124.86233 c 5.95556,-4.17294 11.81492,-8.47268 17.86696,-12.6264 7.88702,-5.41328 12.46992,-14.4466 19.74628,-20.72366 16.56292,-14.2881 38.84976,-27.25394 52.05746,-44.00532 7.01028,-8.89126 15.60348,-15.50822 24.18402,-20.8626 13.55276,-12.23244 23.83642,-16.47008 36.08776,-30.88392"
       style="color:#000000;fill:none;stroke:#c87137;stroke-width:3.99999928;stroke-linecap:round;stroke-linejoin:round;stroke-miterlimit:4;stroke-opacity:1;stroke-dasharray:none;stroke-dashoffset:0;marker:none;visibility:visible;display:inline;overflow:visible;enable-background:accumulate" />
    <path
       style="color:#000000;fill:none;stroke:#c87137;stroke-width:3.99999976;stroke-linecap:round;stroke-linejoin:round;stroke-miterlimit:4;stroke-opacity:1;stroke-dasharray:none;stroke-dashoffset:0;marker:none;visibility:visible;display:inline;overflow:visible;enable-background:accumulate"
       d="m 85.25012,186.13791 c 2.37724,-21.72386 0.95388,-47.9384 3.84448,-75.34376 1.1572,-31.54076 -5.3703,-56.55424 -4.48522,-89.2229 0.96108,-22.85858 -1.08386,-38.13102 5.12598,-54.1946"
       id="path4281"
       sodipodi:nodetypes="cccc" />
    <path
       style="color:#000000;fill:none;stroke:#c87137;stroke-width:3.99999928;stroke-linecap:round;stroke-linejoin:round;stroke-miterlimit:4;stroke-opacity:1;stroke-dasharray:none;stroke-dashoffset:0;marker:none;visibility:visible;display:inline;overflow:visible;enable-background:accumulate"
       d="m 20.53458,-27.48115 c -4.59826,30.00404 1.17414,34.1652 1.28148,58.63892 -1.31992,18.99042 -3.47158,36.96322 0,52.53068 -2.1358,37.2772 -1.70866,36.19132 -3.84446,50.08742 -1.66538,16.99986 1.04754,29.06256 2.56298,38.48178"
       id="path4277"
       sodipodi:nodetypes="ccccc" />
    <path
       sodipodi:nodetypes="cccc"
       id="path4306"
       d="m -206.373,-30.05441 c -2.37724,19.8414 -0.95386,43.78438 -3.84448,68.81496 -1.1572,28.8076 5.3703,51.65356 4.48522,81.49136 -0.96108,20.87778 1.08386,34.82684 -5.12596,49.49848"
       style="color:#000000;fill:none;stroke:#c87137;stroke-width:3.99999928;stroke-linecap:round;stroke-linejoin:round;stroke-miterlimit:4;stroke-opacity:1;stroke-dasharray:none;stroke-dashoffset:0;marker:none;visibility:visible;display:inline;overflow:visible;enable-background:accumulate" />
    <path
       sodipodi:nodetypes="ccccc"
       id="path4308"
       d="m -141.6021,167.11967 c 4.31608,-30.12898 -1.10208,-34.30746 -1.20286,-58.88308 1.23894,-19.0695 3.25856,-37.11712 0,-52.74944 2.00478,-37.43236 1.60382,-36.34198 3.60858,-50.29592 1.56318,-17.0707 -0.98326,-29.18358 -2.40572,-38.64202"
       style="color:#000000;fill:none;stroke:#c87137;stroke-width:3.99999928;stroke-linecap:round;stroke-linejoin:round;stroke-miterlimit:4;stroke-opacity:1;stroke-dasharray:none;stroke-dashoffset:0;marker:none;visibility:visible;display:inline;overflow:visible;enable-background:accumulate" />
    <path
       style="color:#000000;fill:none;stroke:#94f3f3;stroke-width:4;stroke-linecap:round;stroke-linejoin:round;stroke-miterlimit:4;stroke-opacity:1;stroke-dasharray:none;stroke-dashoffset:0;marker:none;visibility:visible;display:inline;overflow:visible;enable-background:accumulate"
       d="m -425.11144,-528.92599 c -18.27172,19.8708 -36.54345,84.73741 -54.81518,135.88452 -21.0811,37.03718 -24.2956,92.07563 -53.29253,146.57208 -7.35086,35.33344 -20.74227,89.225 -46.83798,138.78208 -9.26279,23.16672 -17.5986,26.92776 -32.33951,68.86166 49.70447,9.2932 87.23159,-0.7315 127.90209,7.63398 l 89.83599,-7.63396 120.28884,6.10716 c -11.16606,-16.79956 -22.33212,-40.98466 -33.49816,-96.18793 -35.71884,-93.90667 -20.28902,-74.4563 -25.88494,-103.82186 -11.77242,-32.74486 -14.13652,-71.03675 -25.66958,-108.40227 -12.18116,-21.48165 -35.23616,-83.3486 -47.41732,-131.30416 -2.54492,-14.82598 -5.09725,-37.33804 -18.27172,-56.4913 z"
       id="path4156"
       sodipodi:nodetypes="ccccccccccccc" />
    <path
       sodipodi:nodetypes="cccccscccccccc"
       id="path4265"
       d="m -7.94092,-35.85249 c -0.40596,-35.1692 -32.67052,-105.8277 -48.09506,-154.05829 -7.24432,-46.4696 -32.0662,-74.18176 -43.73646,-139.58392 -13.2914,-25.56608 -32.47402,-67.76574 -43.22304,-126.83845 -6.4931,-23.2969 -4.13118,-37.12636 -16.89714,-76.31698 -12.9404,30.55402 -23.45252,60.52716 -35.9001,86.49263 -28.26132,58.95253 -18.11428,66.95823 -31.71672,98.41553 -23.0669,41.10381 -25.87782,67.8433 -31.00018,92.91477 -15.37796,33.39684 -27.36126,70.80182 -37.61324,110.62112 -4.12516,18.90287 -22.9442,54.78039 -35.71582,106.11669 13.65006,9.86206 30.84662,-1.59704 62.93778,5.03556 42.8175,3.414 84.92174,0.51794 127.68556,-1.31908 20.25042,-1.2359 57.64142,0.97132 86.75986,3.08422 8.3918,2.44886 28.16706,0.3898 46.51456,-4.5638 z"
       style="color:#000000;fill:none;stroke:#94f3f3;stroke-width:3.99999928;stroke-linecap:round;stroke-linejoin:round;stroke-miterlimit:4;stroke-opacity:1;stroke-dasharray:none;stroke-dashoffset:0;marker:none;visibility:visible;display:inline;overflow:visible;enable-background:accumulate" />
    <path
       style="color:#000000;fill:none;stroke:#94f3f3;stroke-width:4;stroke-linecap:round;stroke-linejoin:round;stroke-miterlimit:4;stroke-opacity:1;stroke-dasharray:none;stroke-dashoffset:0;marker:none;visibility:visible;display:inline;overflow:visible;enable-background:accumulate"
       d="m 81.7726,-530.44077 c -0.43712,0.49108 -0.92446,0.98404 -1.36158,1.52534 -12.46486,29.69306 -23.82588,47.97284 -30.99618,75.06261 -7.62686,28.8146 -21.33744,43.4552 -29.79478,70.40632 -8.78112,23.20028 -12.89658,47.63266 -18.5817,63.98385 -19.63118,45.11214 -25.00228,65.76924 -37.16338,113.67771 -3.83016,25.22134 -11.8272,44.31136 -18.66178,62.85992 -4.07696,18.68206 -22.48186,53.98563 -35.24112,104.36513 42.4047,5.08712 76.33666,-2.11546 112.77162,5.3788 36.0764,-0.68814 75.39614,1.8747 105.24284,-5.05768 34.97416,-0.7231 69.94832,0.83928 104.92246,3.53236 -11.16604,-16.79958 -15.90554,-39.68872 -27.07158,-94.89199 -32.30304,-84.92637 -29.21558,-78.56804 -31.23646,-98.02294 -10.49722,-27.96099 -24.97678,-55.18776 -33.07862,-100.59192 -13.29142,-25.56609 -26.01388,-60.0641 -36.76292,-119.13682 -6.43748,-23.09745 -10.58516,-44.66349 -22.98682,-83.09069 z"
       id="path4267"
       sodipodi:nodetypes="ccsccccccccccccc" />
    <path
       style="color:#000000;fill:none;stroke:#94f3f3;stroke-width:4;stroke-linecap:round;stroke-linejoin:round;stroke-miterlimit:4;stroke-opacity:1;stroke-dasharray:none;stroke-dashoffset:0;marker:none;visibility:visible;display:inline;overflow:visible;enable-background:accumulate"
       d="m 820.99,-300.79846 c -0.8546,0.27321 -1.7091,0.55593 -2.5608,0.8313 -20.73964,0.61923 -58.05668,15.6296 -95.9071,31.0096 -37.45828,12.80603 -74.30678,26.67914 -110.23182,43.473 -25.4479,9.05182 -48.87356,21.19091 -75.25372,27.50218 -42.7914,23.69179 -87.29578,34.10005 -135.50046,54.88374 -23.55772,8.06402 -31.8204,4.2422 -73.1386,20.37781 11.0591,24.32698 27.38478,43.65524 43.80254,64.81658 25.39666,34.75558 55.1191,64.81376 84.44858,96.10576 14.16524,14.57944 36.88072,44.442 54.30972,67.94178 3.63268,7.9719 18.13158,21.66084 33.8627,32.37112 26.30978,-23.23366 40.59006,-71.52208 66.95654,-114.6801 20.77234,-33.74494 30.3546,-44.82342 45.19244,-61.35074 17.0512,-30.2889 44.44964,-57.0006 65.14874,-90.11961 16.25308,-54.32991 40.45894,-82.35067 68.20328,-121.58545 9.54022,-11.5979 24.91016,-28.22092 30.77506,-50.71525 -0.1976,-0.007 -0.4245,0.0135 -0.6256,0.01 0.1806,-0.29764 0.3366,-0.56971 0.5186,-0.87139 z"
       id="path4271"
       sodipodi:nodetypes="ccccccccccccccccsc" />
    <path
       style="color:#000000;fill:none;stroke:#c87137;stroke-width:3.99999976;stroke-linecap:round;stroke-linejoin:round;stroke-miterlimit:4;stroke-opacity:1;stroke-dasharray:none;stroke-dashoffset:0;marker:none;visibility:visible;display:inline;overflow:visible;enable-background:accumulate"
       d="m 242.80916,214.20167 c -1.00434,7 -1.81016,17 -8,24 -10.66666,7.6033 -21.33334,11.89818 -32,17"
       id="path4399"
       sodipodi:nodetypes="ccc" />
    <path
       sodipodi:nodetypes="ccc"
       id="path4461"
       d="m 296.00252,221.31859 c -4.7267,6.98802 -1.67442,19.85256 -4.97648,30.3999 -3.34456,9.76534 -10.46192,18.5777 -23.48966,26.36626"
       style="color:#000000;fill:none;stroke:#c87137;stroke-width:3.99999976;stroke-linecap:round;stroke-linejoin:round;stroke-miterlimit:4;stroke-opacity:1;stroke-dasharray:none;stroke-dashoffset:0;marker:none;visibility:visible;display:inline;overflow:visible;enable-background:accumulate" />
    <path
       id="path2949"
       style="color:#000000;fill:none;stroke:#008000;stroke-width:4;stroke-linecap:butt;stroke-linejoin:miter;stroke-miterlimit:4;stroke-opacity:1;stroke-dasharray:none;stroke-dashoffset:0;marker:none;visibility:visible;display:inline;overflow:visible;enable-background:accumulate"
       d="m -538.24086,179.42093 c 37.76616,-6.38974 66.33528,-3.6784 100.79868,-6 34.25096,-1.3128 70.3619,1.3208 103.66182,2 41.12768,5.37378 77.72798,-2.51868 115.33816,-2 52.33998,-2.9489 79.96372,-0.8298 145.7408,0 41.38518,6.0316 81.6842,-1.54994 123.2592,6 26.90864,-5.4819 47.03408,16.53266 54.33544,39.504 19.72548,25.97184 24.79558,24.75436 46.78954,41.1346 27.61272,23.36358 26.7551,25.34754 61.50084,21.81288 14.97422,-1.6279 57.1753,20.35452 100.04942,13.98002 11.03582,-1.52804 20.70284,-5.7429 28.20682,-11.55672 5.53088,-2.12216 25.60308,9.37724 36.71848,13.29096 11.78258,4.14862 44.47556,7.46336 51.87196,4.97304 7.49804,-2.52454 16.79286,-0.60832 18.6473,-11.44718 2.09084,-12.22048 -5.63592,-36.17272 -14.66464,-44.27318 -14.12148,-12.66966 -36.21454,-6.59304 -42.12872,-3.78348 -11.27806,5.3577 -34.38776,-0.1996 -37.0507,-2.82476 -19.33334,-26 -69.64258,-15.736 -111.18376,-27.61522 -19.93724,-12.4897 -44.18366,-32.08644 -50,-50 -6.62876,-10.32658 -10.59108,-24.3196 -19.7575,-42.10852 -4.58224,-24.0502 -13.7329,-43.20994 9.29924,-43.91252 15.41114,9.68148 55.9724,-4.07256 67.2693,21.30038 10.16548,43.14322 24.12238,61.22134 59.58934,78.38704 54.24562,4.18312 80.72284,15.41008 105.50644,11.40476 21.59102,3.88624 46.00416,11.97744 70.8479,10.90324"
       sodipodi:nodetypes="cccccccccccsssssccccccccc" />
    <path
       style="fill:none;stroke:#80ff00;stroke-width:3.99999976;stroke-linecap:round;stroke-linejoin:round;stroke-miterlimit:4;stroke-opacity:1;stroke-dasharray:none"
       d="m 288.87563,292.70274 c -4.51266,0.69442 -11.54005,-2.27446 -14.55699,-6.69441 -2.90692,-5.5756 -6.55727,-10.44657 -8.44707,-20.16333 -0.94641,-17.097 0.75075,-21.42421 -7.78384,-13.41769 -4.38652,3.04458 -8.91146,7.153 -13.86341,7.32413 -6.33992,5.28874 -9.00649,5.72098 -12.4234,9.34189 -5.06482,1.90037 -16.23334,7.96244 -15.21343,9.31922"
       id="path2956-7"
       sodipodi:nodetypes="ccccccc" />
    <path
       style="fill:none;stroke:#80ff00;stroke-width:3.99999952;stroke-linecap:round;stroke-linejoin:round;stroke-miterlimit:4;stroke-opacity:1;stroke-dasharray:none"
       d="m 110.57181,220.60462 c 1.03448,-0.66952 8.19022,-2.87068 10.94446,-4.65286 8.73868,-5.51406 15.55194,-4.4987 25.98474,-12.4974 10.97338,-3.53742 17.41574,-7.13121 26.96052,-9.18231 -3.05688,7.56462 -7.53952,17.48553 -10.5029,25.07449 -5.3284,11.16636 -2.50218,12.30496 -6.13094,26.53728 0.191,3.18274 -1.20136,7.66834 0.29914,14.69238"
       id="path2958-6"
       sodipodi:nodetypes="ccccccc" />
    <path
       style="color:#000000;fill:none;stroke:#80ff00;stroke-width:4;stroke-linecap:round;stroke-linejoin:round;stroke-miterlimit:4;stroke-opacity:1;stroke-dasharray:none;stroke-dashoffset:0;marker:none;visibility:visible;display:inline;overflow:visible;enable-background:accumulate"
       d="m 284.23811,255.92534 c -5.52733,-1.50176 -10.56336,-2.14587 -15.60245,-5.16994 -5.2293,-3.13902 -9.9109,-6.95019 -14.79574,-10.69517 -5.38048,-4.12485 -13.00457,-8.77622 -19.13289,-13.1972 -7.65487,-5.5222 -13.57937,-11.86966 -21.50569,-17.28621 -9.66458,-6.60464 -23.00384,-8.93601 -33.7052,-14.36878 -5.38126,-2.73185 -8.24195,-5.5351 -13.38011,-8.71848 -3.96327,-2.45584 -12.50467,-4.16536 -17.32851,-4.94305"
       id="path2833"
       sodipodi:nodetypes="csssssss" />
    <path
       style="color:#000000;fill:none;stroke:#80ff00;stroke-width:4;stroke-linecap:round;stroke-linejoin:round;stroke-miterlimit:4;stroke-opacity:1;stroke-dasharray:none;stroke-dashoffset:0;marker:none;visibility:visible;display:inline;overflow:visible;enable-background:accumulate"
       d="m -111.83386,164.83383 c 8.4838,-4.005 33.046121,-5.86476 82.075139,-2.8876 31.0481129,-3.87141 40.442648,2.12075 50.785962,5.49512 25.807791,3.07525 38.967702,5.38685 62.142955,4.77478 17.686904,-4.17618 24.407514,-2.19084 39.039524,1.05927 8.60191,0.93229 16.16428,6.28794 26.29858,8.23389"
       id="path4125"
       sodipodi:nodetypes="cccccc" />
    <path
       style="fill:none;stroke:#000000;stroke-width:4;stroke-linecap:round;stroke-linejoin:round;stroke-miterlimit:4;stroke-opacity:1;stroke-dasharray:none"
       d="m 340.4647,275.62853 c -4.56898,1.73516 -8.63328,3.37846 -11.0833,5.01422 -6.56304,1.91976 -9.2208,0.3088 -15.56478,0.54816 -6.19088,-2.32826 -4.99474,-14.34874 -4.66274,-19.76602 0.7281,-7.27704 4.84694,-8.47932 8.7954,-14.04342 3.52994,-4.71766 8.9961,-10.5007 14.88882,-6.28748 1.38738,2.63308 6.99816,4.7404 13.26654,6.90276"
       id="path5861"
       sodipodi:nodetypes="ccccccs" />
    <path
       style="color:#000000;fill:none;stroke:#80ff00;stroke-width:3.99999976;stroke-linecap:round;stroke-linejoin:round;stroke-miterlimit:4;stroke-opacity:1;stroke-dasharray:none;stroke-dashoffset:0;marker:none;visibility:visible;display:inline;overflow:visible;enable-background:accumulate"
       d="m 286.1831,227.32523 c 1.80874,-1.8701 9.46644,4.8434 13.73508,6.62984 3.4691,1.45192 7.1993,2.37082 10.45044,4.16986 3.60604,1.99554 6.93172,4.50182 10.62146,6.33674 5.5387,2.75458 11.38468,4.97124 17.131,7.33792 2.80936,1.15696 5.86902,1.05584 8.15446,3.00362 2.8378,2.42026 9.45472,3.52172 9.23692,6.10052 -0.20238,2.39726 -6.4376,2.31498 -9.02334,4.50114 -8.3108,7.02626 -13.37194,5.48706 -20.32374,6.83336 -4.90734,0.9502 -9.53414,0.0522 -14.26608,1.44016 -5.18918,1.52214 -9.66322,4.62932 -14.83352,6.22066 -3.2533,1.00146 -6.63034,0.87226 -9.88006,1.64264 -4.8569,1.15146 -1.88502,-4.07562 -1.53058,-6.1836 0.65606,-3.90158 0.56152,-7.86672 0.99956,-11.78812 0.37852,-3.38918 -0.81056,-6.81632 -0.1308,-10.27818 0.73492,-3.74264 1.54458,-7.60096 1.36658,-11.40076 -0.1704,-3.63792 -0.58272,-7.32574 -1.2238,-10.9667 -0.31506,-1.78892 -1.3965,-2.655 -0.48338,-3.5991 z"
       id="path2870"
       sodipodi:nodetypes="csssssssssssssssss" />
    <path
       style="color:#000000;fill:none;stroke:#c87137;stroke-width:3.99999976;stroke-linecap:round;stroke-linejoin:round;stroke-miterlimit:4;stroke-opacity:1;stroke-dashoffset:0;marker:none;visibility:visible;display:inline;overflow:visible;enable-background:accumulate"
       d="m 426.02678,297.01193 c -4.31178,2.91 -12.312,0.1096 -19.83744,-1.32606 -4.61752,-0.88096 -14.52918,0.512 -17.4413,-0.99038 -4.1752,-2.154 -6.21902,-2.5673 -8.99328,-6.7068 -5.54,-8.2663 -9.01336,-14.26494 -8.22734,-15.29354 0.67186,-0.87922 10.89324,10.81034 12.72106,9.94386 0.7723,-0.44648 -0.6206,-15.32892 0.75368,-15.58298 1.4357,-0.26542 3.91334,5.06624 6.85696,16.6384 2.81418,-0.34972 5.98914,-2.13402 8.02862,-2.25512 6.15054,-0.36518 14.58122,-1.57748 21.26876,0.99456 6.246,2.40222 7.06574,10.08368 4.87028,14.57806 z"
       id="path4844"
       sodipodi:nodetypes="csssscscssc" />
    <path
       style="fill:none;stroke:#80ff00;stroke-width:3.99999976;stroke-linecap:round;stroke-linejoin:round;stroke-miterlimit:4;stroke-opacity:1;stroke-dasharray:none"
       d="m 293.24516,36.24171 c 14.5666,8.46222 20.8804,25.16776 30.82692,37.93864 8.82856,11.98848 12.46878,24.1127 17.82808,39.68228 3.21654,15.00118 7.69454,35.64384 24.37122,46.84304 14.24906,9.1435 30.22726,18.19294 46.55986,11.66036 9.52682,-3.154 22.30734,-2.41188 26.59338,-12.45736 9.48388,-20.06058 4.98864,-25.74362 4.70784,-50.19274 -3.61638,-13.50758 1.44828,-26.06024 1.4365,-36.49744 -4.1793,-16.02258 -9.2287,-22.38204 -16.0741,-26.38176 -6.81878,-7.7747 -1.99038,-13.61444 -14.35806,-23.23644"
       id="path4123"
       sodipodi:nodetypes="cccccccccc" />
    <path
       style="fill:none;stroke:#80ff00;stroke-width:3.99999976;stroke-linecap:round;stroke-linejoin:round;stroke-miterlimit:4;stroke-opacity:1;stroke-dasharray:none"
       d="m 119.42792,82.92883 c -2.38704,-12.99698 1.37062,-25.10494 11.31886,-32.0617 21.61462,-12.21916 42.24754,-14.88164 66.85334,-17.24844 15.375,2.1176 35.395,-1.6756 49.4414,-1.0182 15.3466,-2.7028 37.35458,-2.48634 46.1006,3.5068"
       id="path2952-1"
       sodipodi:nodetypes="ccccc" />
    <path
       style="fill:none;stroke:#80ff00;stroke-width:3.99999976;stroke-linecap:round;stroke-linejoin:round;stroke-miterlimit:4;stroke-opacity:1;stroke-dasharray:none"
       d="m 203.1181,76.46885 c -7.11314,-4.79588 -13.91098,-10.31782 -23.02206,-11.62724 -10.6762,-2.76006 -18.67072,-9.2763 -30.01886,-10.63422 -19.1217,-5.03634 -19.61952,-5.90778 -14.9344,1.98344 9.54846,7.15846 11.42364,13.36846 16.91292,22.2488 4.85602,9.8385 7.07118,26.19292 13.21188,33.8419 3.10356,0.73616 2.0029,4.9138 4.78262,6.05276"
       id="path2956"
       sodipodi:nodetypes="ccccccc" />
    <path
       style="color:#000000;fill:none;stroke:#80ff00;stroke-width:3.99999976;stroke-linecap:round;stroke-linejoin:round;stroke-miterlimit:4;stroke-opacity:1;stroke-dasharray:none;stroke-dashoffset:0;marker:none;visibility:visible;display:inline;overflow:visible;enable-background:accumulate"
       d="m 91.0522,90.56575 c -1.44398,2.16422 6.74084,8.22392 9.39192,12.01662 2.1546,3.08224 3.8437,6.53272 6.29134,9.32838 2.7149,3.1008 5.86948,5.8193 8.44514,9.03596 3.86654,4.82852 7.2726,10.07142 10.8041,15.18512 1.72646,2.5001 2.27654,5.51158 4.66468,7.33194 2.96706,2.25998 5.44676,8.49278 7.9207,7.73304 2.2998,-0.70626 0.89704,-6.78212 2.48512,-9.77268 5.1039,-9.61188 2.52634,-14.23146 2.3677,-21.31066 -0.1122,-4.99722 -1.97096,-9.32832 -1.61812,-14.24696 0.38708,-5.39396 2.47466,-10.4252 2.93328,-15.81538 0.2887,-3.39168 -0.55378,-6.66448 -0.49006,-10.00366 0.0952,-4.99062 -4.38268,-0.9778 -6.36756,-0.1844 -3.67368,1.46854 -7.56866,2.21706 -11.30796,3.47678 -3.2318,1.08866 -6.83318,0.6534 -10.07216,2.05188 -3.50164,1.51194 -7.10046,3.12144 -10.85158,3.75336 -3.59132,0.605 -7.28268,0.98416 -10.97678,1.12974 -1.81504,0.0714 -2.8908,-0.80166 -3.61976,0.29086 z"
       id="path2870-7"
       sodipodi:nodetypes="csssssssssssssssss" />
    <path
       style="fill:none;stroke:#80ff00;stroke-width:3.99999952;stroke-linecap:round;stroke-linejoin:round;stroke-miterlimit:4;stroke-opacity:1;stroke-dasharray:none"
       d="m 246.15722,86.004514 c 2.04923,-4.821694 5.57194,-10.465404 6.79198,-13.889584 3.8708,-10.70616 6.3573,-4.967 10.97882,-19.3351 4.85994,-9.64922 7.24332,-13.6916 11.47034,-20.9353 -1.3552,10.05974 -2.87204,20.17596 -4.18584,30.2145 -2.36172,15.27212 -5.88346,11.37123 -7.4932,29.19815 0.084,3.46714 -2.69026,14.19206 -5.52724,20.72644"
       id="path2958-6-4"
       sodipodi:nodetypes="ccccccc"
       inkscape:transform-center-y="38.291185"
       inkscape:transform-center-x="13.327034" />
  </g>
</svg>
