<?xml version="1.0" encoding="UTF-8" standalone="no"?>
<!-- Created with Inkscape (http://www.inkscape.org/) -->

<svg
   xmlns:dc="http://purl.org/dc/elements/1.1/"
   xmlns:cc="http://creativecommons.org/ns#"
   xmlns:rdf="http://www.w3.org/1999/02/22-rdf-syntax-ns#"
   xmlns:svg="http://www.w3.org/2000/svg"
   xmlns="http://www.w3.org/2000/svg"
   xmlns:sodipodi="http://sodipodi.sourceforge.net/DTD/sodipodi-0.dtd"
   xmlns:inkscape="http://www.inkscape.org/namespaces/inkscape"
   width="480"
   height="320"
   id="svg2"
   version="1.1"
   inkscape:version="0.48.0 r9654"
   sodipodi:docname="itnas347.svg"
   inkscape:export-xdpi="90"
   inkscape:export-ydpi="90"
   inkscape:export-filename="itnas347.png">
  <defs
     id="defs4">
    <inkscape:perspective
       sodipodi:type="inkscape:persp3d"
       inkscape:vp_x="0 : 160 : 1"
       inkscape:vp_y="0 : 1000 : 0"
       inkscape:vp_z="480 : 160 : 1"
       inkscape:persp3d-origin="240 : 106.66667 : 1"
       id="perspective8" />
  </defs>
  <sodipodi:namedview
     id="base"
     pagecolor="#ffffff"
     bordercolor="#666666"
     borderopacity="1.0"
     inkscape:pageopacity="1"
     inkscape:pageshadow="2"
     inkscape:zoom="1"
     inkscape:cx="221.44817"
     inkscape:cy="148.51134"
     inkscape:document-units="px"
     inkscape:current-layer="layer1"
     showgrid="false"
     inkscape:snap-nodes="true"
     inkscape:snap-global="false"
     inkscape:snap-grids="true"
     showguides="true"
     inkscape:window-width="1030"
     inkscape:window-height="774"
     inkscape:window-x="-4"
     inkscape:window-y="-4"
     inkscape:window-maximized="1">
    <inkscape:grid
       empspacing="5"
       visible="true"
       enabled="true"
       snapvisiblegridlinesonly="true"
       type="xygrid"
       id="grid2816" />
  </sodipodi:namedview>
  <metadata
     id="metadata7">
    <rdf:RDF>
      <cc:Work
         rdf:about="">
        <dc:format>image/svg+xml</dc:format>
        <dc:type
           rdf:resource="http://purl.org/dc/dcmitype/StillImage" />
        <dc:title></dc:title>
      </cc:Work>
    </rdf:RDF>
  </metadata>
  <g
     inkscape:label="Layer 1"
     inkscape:groupmode="layer"
     id="layer1"
     transform="translate(0,0)">
    <path
       style="fill:none;stroke:#808080;stroke-width:4;stroke-linecap:round;stroke-linejoin:round;stroke-opacity:1;color:#000000;stroke-miterlimit:4;stroke-dasharray:none;stroke-dashoffset:0;marker:none;visibility:visible;display:inline;overflow:visible;enable-background:accumulate"
       d="m 381.74159,23.722259 c 2.9941,12.315227 -5.03022,22.657453 -6.61549,34.09611 -1.29428,9.338928 -2.48081,18.891841 -2.48081,28.129289"
       id="path6038"
       inkscape:connector-curvature="0" />
    <path
       style="color:#000000;fill:none;stroke:#808080;stroke-width:4;stroke-linecap:round;stroke-linejoin:round;stroke-miterlimit:4;stroke-opacity:1;stroke-dasharray:none;stroke-dashoffset:0;marker:none;visibility:visible;display:inline;overflow:visible;enable-background:accumulate"
       d="m 400.10112,25.136472 c -2.39478,7.539525 -3.97127,15.38806 -5.65686,23.147588 -0.84884,3.907612 -2.37355,8.007724 -3.53553,11.573793 -1.99247,6.114806 0,21.148815 0,28.211122"
       id="path6040"
       inkscape:connector-curvature="0" />
    <path
       style="color:#000000;fill:none;stroke:#808080;stroke-width:4;stroke-linecap:round;stroke-linejoin:round;stroke-miterlimit:4;stroke-opacity:1;stroke-dasharray:none;stroke-dashoffset:0;marker:none;visibility:visible;display:inline;overflow:visible;enable-background:accumulate"
       d="m 406.34376,96.22583 c 0.96361,-2.978476 -0.98992,-6.929744 0,-9.899495 2.49212,-7.476361 3.77181,-14.143861 6.36396,-21.920311 1.38838,-4.165142 -1.8025,-16.9011 0.7071,-21.92031 1.08369,-2.167376 2.82843,-5.281406 2.82843,-8.485281"
       id="path6042"
       inkscape:connector-curvature="0" />
    <path
       style="color:#000000;fill:none;stroke:#808080;stroke-width:4;stroke-linecap:round;stroke-linejoin:round;stroke-miterlimit:4;stroke-opacity:1;stroke-dasharray:none;stroke-dashoffset:0;marker:none;visibility:visible;display:inline;overflow:visible;enable-background:accumulate"
       d="m 433.77165,38.128252 c -0.45554,4.608311 -0.58838,9.266269 -1.66558,13.862507 -1.38195,5.896206 -4.2181,10.297824 -6.20532,15.668214 -0.81332,2.197932 -1.10401,4.635696 -1.91964,6.839748 -2.96972,8.025459 1.11366,17.398366 -3.01065,24.105449"
       id="path6044"
       inkscape:connector-curvature="0" />
    <path
       style="color:#000000;fill:none;stroke:#808080;stroke-width:4;stroke-linecap:round;stroke-linejoin:round;stroke-miterlimit:4;stroke-opacity:1;stroke-dasharray:none;stroke-dashoffset:0;marker:none;visibility:visible;display:inline;overflow:visible;enable-background:accumulate"
       d="m 15.464466,155.64466 c 0.937692,-5.26355 -0.374369,-20.03011 -1.5,-25 C 9.862986,112.53578 12.598556,116.00373 17,106 21.502551,95.76647 20.58942,94.894481 22,92 24.040117,87.813722 43.213205,68.595598 48,67 c 7.526128,-2.508709 16.607504,-3.535835 24,-6 8.950942,-2.983647 13.48018,-10 25,-10 9.08107,0 11.44845,12.289537 30.26346,7.585786 C 138.75714,55.712366 146.23206,59.589312 154,57 c 18.33274,-6.110912 46.82059,-9.153019 66.67157,-7.656854 14.79289,1.114937 18.30797,6.338213 29.95291,6.436293 50.11815,0.422121 37.21822,6.115256 65.13288,24.676405 16.549,11.00384 14.72899,4.1232 41.88376,7.305248 C 365.55649,88.688631 358.13645,55.955971 361,56 c 8.14512,0.125236 0.037,-26.9577 6.99296,-31.607695 7.19963,-4.812895 26.41731,-0.726934 36.21281,1.277568 2.40961,0.493089 3.74979,2.838516 6.06218,3.5 14.03953,4.016161 19.76591,3.328952 33.81089,11.437822 1.67723,0.96835 6.93464,-1.394763 6.9282,4 -0.0149,12.450572 -14.57249,50.451465 -9.6639,58.534445"
       id="path6106"
       inkscape:connector-curvature="0"
       sodipodi:nodetypes="cssssssssssssssssssc" />
    <path
       style="color:#000000;fill:none;stroke:#008000;stroke-width:4;stroke-linecap:round;stroke-linejoin:round;stroke-miterlimit:4;stroke-opacity:1;stroke-dasharray:none;stroke-dashoffset:0;marker:none;visibility:visible;display:inline;overflow:visible;enable-background:accumulate"
       d="m 441.34314,103.14214 c 0.61138,1.00675 8.42315,4.53102 9.65686,11.07106 4.02444,21.33408 12.18042,1.49008 15.98519,22.6581 1.5022,8.35756 3.34005,3.71928 4.1733,13.78177 1.12569,13.5941 -1.7744,11.87492 -1.45138,26.28806 C 470.00843,190.38611 471,214.31717 471,229 c 0,12.32497 -12.04546,23.17618 -15.97056,34.75736 -7.42659,21.91243 -7.21295,5.24193 -16.92031,29.58579 -8.39697,21.05768 -9.60242,33.72792 -9.60242,33.72792"
       id="path5857" />
    <path
       id="path5983"
       style="color:#000000;fill:none;stroke:#008000;stroke-width:4;stroke-linecap:round;stroke-linejoin:round;stroke-miterlimit:4;stroke-opacity:1;stroke-dasharray:none;stroke-dashoffset:0;marker:none;visibility:visible;display:inline;overflow:visible;enable-background:accumulate"
       d="m 49.594406,244.92752 c 10.034869,21.25394 3.515349,24.85175 17.144614,33.57087 14.822149,9.48226 19.544406,17.83643 27.438474,15.49876 21.048586,-6.23312 23.405046,-12.76614 32.661116,-16.44656 11.26904,-4.48082 12.74209,-12.34318 24.7574,-10.30751 8.45325,1.43217 17.81092,-6.33633 26.4747,-8.39153 3.0709,-0.72846 6.63519,0.95632 9.64887,-0.17757 1.46646,-0.55174 3.07967,-2.56048 4.77464,-3.05197 10.82979,-3.14032 20.10779,-2.54325 30.60135,-6.49139 5.91315,-2.22479 3.36419,-6.72445 20.23493,-14.20491 7.58233,-3.36199 14.3408,-8.31196 20.23493,-14.20491 1.90922,-1.90884 3.61299,-0.16885 5.52221,-2.0777 3.88537,-3.88458 10.5034,-11.0617 15.4603,-11.15293 1.0493,0.0148 9.15971,-2.8218 10.21795,-3.15215 6.68112,-3.62689 14.83363,3.11568 22.10772,3.54529 12.45432,0.73558 24.70523,6.69417 33.81758,15.18624 m 0,0 c 2.07935,1.93781 -0.0705,5.33191 0.17239,5.92505 6.84047,16.70263 -0.26822,23.2215 1.60427,34.55177 0.63532,3.84423 -3.77564,10.15988 -4.9251,14.96226 -8.21904,34.33879 -5.05869,9.33943 -15.90154,37.16872 -4.9825,12.78811 -6.5684,14.28505 -14.17353,21.79197"
       inkscape:connector-curvature="0"
       sodipodi:nodetypes="csssssssssssccsccssssc" />
    <path
       style="color:#000000;fill:none;stroke:#c87137;stroke-width:3.99999976;stroke-linecap:round;stroke-linejoin:round;stroke-miterlimit:4;stroke-opacity:1;stroke-dasharray:none;stroke-dashoffset:0;marker:none;visibility:visible;display:inline;overflow:visible;enable-background:accumulate"
       d="m 15.803053,156.34129 c -0.282065,4.94187 -6.7958148,63.81231 -6.3124988,64.56015 1.2872438,1.99176 24.9631708,9.80493 25.4938808,10.62612 0.965988,1.49468 1.290229,2.78186 2.834969,4.38658 4.663594,4.84462 12.775206,8.59594 12.376659,8.53233 -1.457467,-0.23263 0.394967,-3.4339 0.592448,-5.15085 0.938042,-8.1555 1.876086,-16.31104 2.814129,-24.46655 0.390943,-3.39893 4.277495,-34.33738 3.999024,-34.76825 -2.841373,-4.3965 -9.80038,-6.06293 -12.228549,-9.82005 -5.873227,-9.08774 -17.451418,-17.48144 -29.570062,-13.89948 z"
       id="path5853"
       inkscape:connector-curvature="0" />
    <path
       style="color:#000000;fill:none;stroke:#0000ff;stroke-width:3.99999976;stroke-linecap:round;stroke-linejoin:round;stroke-miterlimit:4;stroke-opacity:1;stroke-dasharray:none;stroke-dashoffset:0;marker:none;visibility:visible;display:inline;overflow:visible;enable-background:accumulate"
       d="m 417.71719,315.40338 c 1.97126,-3.7495 4.08754,-7.1954 6.33381,-10.40814 14.0263,-34.7958 6.33091,-22.23292 19.75697,-41.30715 2.23843,-5.60297 3.94499,-10.18413 5.26281,-14.11011"
       id="path3250"
       inkscape:connector-curvature="0"
       sodipodi:nodetypes="cccc" />
    <path
       style="color:#000000;fill:none;stroke:#0000ff;stroke-width:4;stroke-linecap:round;stroke-linejoin:round;stroke-miterlimit:4;stroke-opacity:1;stroke-dasharray:none;stroke-dashoffset:0;marker:none;visibility:visible;display:inline;overflow:visible;enable-background:accumulate"
       d="m 455.06586,215.37007 c 0.26422,-3.13639 0.51596,-6.59541 0.9002,-10.76167 2.24719,-24.36599 -6.50256,-33.50515 -4.91939,-43.62423 2.91383,-18.62422 -4.43484,-12.26382 -11.5375,-24.74293 -10.67849,-18.76172 -10.01124,-6.79968 -9.32028,-36.44117"
       id="path4436"
       inkscape:connector-curvature="0"
       sodipodi:nodetypes="csssc" />
    <path
       style="color:#000000;fill:none;stroke:#0000ff;stroke-width:4;stroke-linecap:round;stroke-linejoin:round;stroke-miterlimit:4;stroke-opacity:1;stroke-dasharray:none;stroke-dashoffset:0;marker:none;visibility:visible;display:inline;overflow:visible;enable-background:accumulate"
       d="m 413.15403,96.942826 c -0.31878,11.487794 -3.83835,19.809174 0.70411,30.846724 5.35668,13.01597 14.86413,19.66778 20.89606,33.9557 2.70559,6.40878 0.86959,13.41862 3.44973,21.67101 0.59015,1.88757 0.87875,4.26142 0.97364,6.83641"
       id="path3269"
       inkscape:connector-curvature="0"
       sodipodi:nodetypes="csssc" />
    <path
       style="color:#000000;fill:none;stroke:#0000ff;stroke-width:4;stroke-linecap:round;stroke-linejoin:round;stroke-miterlimit:4;stroke-opacity:1;stroke-dasharray:none;stroke-dashoffset:0;marker:none;visibility:visible;display:inline;overflow:visible;enable-background:accumulate"
       d="m 415.51192,250.13131 c -3.48362,5.26928 -5.56082,7.9669 -6.13203,15.62969"
       id="path3291"
       inkscape:connector-curvature="0"
       sodipodi:nodetypes="cc" />
    <path
       style="color:#000000;fill:none;stroke:#0000ff;stroke-width:4;stroke-linecap:round;stroke-linejoin:round;stroke-miterlimit:4;stroke-opacity:1;stroke-dasharray:none;stroke-dashoffset:0;marker:none;visibility:visible;display:inline;overflow:visible;enable-background:accumulate"
       d="m 395.36194,289.62421 c -3.67837,6.46916 -9.26071,17.03344 -11.06582,23.85677"
       id="path3244" />
    <path
       style="color:#000000;fill:none;stroke:#0000ff;stroke-width:4;stroke-linecap:round;stroke-linejoin:round;stroke-miterlimit:4;stroke-opacity:1;stroke-dasharray:none;stroke-dashoffset:0;marker:none;visibility:visible;display:inline;overflow:visible;enable-background:accumulate"
       d="m 398.18487,92.222039 c 0.63465,7.11919 -2.17853,6.501838 -3.15503,13.520851 -0.82395,5.92255 -2.36255,20.46875 0.83552,27.73324 5.27388,11.97975 17.28892,21.21764 17.79544,35.60798 0.21655,6.15219 1.07398,10.48781 2.51232,13.68851"
       id="path3273"
       inkscape:connector-curvature="0"
       sodipodi:nodetypes="csssc" />
    <path
       style="color:#000000;fill:none;stroke:#0000ff;stroke-width:4;stroke-linecap:round;stroke-linejoin:round;stroke-miterlimit:4;stroke-opacity:1;stroke-dasharray:none;stroke-dashoffset:0;marker:none;visibility:visible;display:inline;overflow:visible;enable-background:accumulate"
       d="m 380.63462,86.479398 c -0.80364,12.036414 -9.16474,36.746742 -2.07193,47.003102 12.37251,17.89093 6.678,16.86532 17.11639,31.72476 5.75181,8.18792 7.14994,9.2402 9.99017,29.66298 1.73418,12.46967 -5.07765,29.16867 -10.66926,48.62976 -1.78103,6.19871 -3.73972,11.70073 -5.77783,16.70047"
       id="path3285"
       inkscape:connector-curvature="0"
       sodipodi:nodetypes="cssssc" />
    <path
       style="color:#000000;fill:none;stroke:#0000ff;stroke-width:4;stroke-linecap:round;stroke-linejoin:round;stroke-miterlimit:4;stroke-opacity:1;stroke-dasharray:none;stroke-dashoffset:0;marker:none;visibility:visible;display:inline;overflow:visible;enable-background:accumulate"
       d="m 376.37409,286.59776 c -4.45532,8.59831 -8.25589,16.67963 -10.21923,26.58383"
       id="path5356" />
    <path
       style="color:#000000;fill:none;stroke:#80ff00;stroke-width:3.99999952;stroke-linecap:round;stroke-linejoin:round;stroke-miterlimit:4;stroke-opacity:1;stroke-dasharray:none;stroke-dashoffset:0;marker:none;visibility:visible;display:inline;overflow:visible;enable-background:accumulate"
       d="m 347.02148,196.6462 c -0.98957,-3.16976 3.97999,-4.63404 -0.2712,-9.53284 -1.99419,-2.29799 -2.00429,-10.67045 -2.70148,-13.08495 -3.22135,-11.15604 -5.17449,-8.95058 -5.82445,-21.03175 -0.53019,-9.85542 -5.0597,-9.46136 -4.6779,-19.10169 0.14338,-3.62032 1.18029,-10.18277 -1.76432,-10.46682 -3.29035,-0.31742 -4.42018,4.93641 -5.95179,6.5675 -3.88864,4.14118 -6.1329,4.73555 -8.51458,13.63674 -2.61182,9.7613 -5.66783,5.68486 -6.93108,8.4046 -6.0321,12.98693 -16.14254,10.91139 -21.36966,24.62893 -0.73093,1.91819 0.13873,3.39906 -1.74133,4.26786"
       id="path3015"
       inkscape:connector-curvature="0"
       sodipodi:nodetypes="sssssssssss" />
    <path
       style="color:#000000;fill:none;stroke:#c87137;stroke-width:4;stroke-linecap:round;stroke-linejoin:round;stroke-miterlimit:4;stroke-opacity:1;stroke-dasharray:none;stroke-dashoffset:0;marker:none;visibility:visible;display:inline;overflow:visible;enable-background:accumulate"
       d="m 315.24445,194.60699 c -17.54548,0.71791 -22.58224,5.14895 -38.67272,5.80563 -4.99754,0.20398 -9.99486,-0.37392 -14.74134,1.02229 -3.6243,1.06616 -29.11201,9.87033 -20.78503,-0.63119 0.83702,-1.05558 6.98048,-3.76878 8.33489,-4.09763 17.74847,-4.30921 25.61455,-6.24677 43.58357,-6.9801 4.73799,-0.19336 9.72111,-2.35919 14.44455,-1.96347 1.45724,0.12206 10.97879,2.36583 9.79363,4.31103 -0.63133,1.03617 -1.03095,1.75001 -1.95756,2.53338 z"
       id="path3075"
       inkscape:connector-curvature="0"
       sodipodi:nodetypes="cssssscsc" />
    <path
       style="color:#000000;fill:none;stroke:#c87137;stroke-width:4;stroke-linecap:round;stroke-linejoin:round;stroke-miterlimit:4;stroke-opacity:1;stroke-dasharray:none;stroke-dashoffset:0;marker:none;visibility:visible;display:inline;overflow:visible;enable-background:accumulate"
       d="m 168.79585,249.42073 c 2.85528,4.39399 23.7172,-9.06928 37.06525,-19.75898 0.71232,-0.57049 13.55642,-5.85789 20.70057,-10.82144 6.06482,-4.21368 6.77278,-8.17621 5.62945,-9.00858 -1.82029,-1.32524 -22.5254,12.22886 -24.18953,13.09073 -19.89212,10.30203 -38.34495,22.11096 -39.20574,26.49827 z"
       id="path3073"
       inkscape:connector-curvature="0"
       sodipodi:nodetypes="cssssc" />
    <path
       sodipodi:nodetypes="csssssccc"
       inkscape:connector-curvature="0"
       id="path5440"
       d="m 91.794296,279.51419 c 16.534744,-9.3726 23.065664,-8.89845 36.364604,-17.53984 4.19405,-2.72522 4.68048,-2.63846 8.62154,-5.62954 3.00932,-2.28393 23.37323,-14.86175 24.51628,-4.56016 0.14905,1.33891 -4.57518,3.56208 -8.40403,4.49178 -15.55056,3.77583 -22,12.81897 -38.53691,19.88676 -4.36037,1.8636 -6.6262,3.38262 -10.68703,6.69158 -2.21202,-0.58374 -11.347672,5.49615 -10.930684,3.25685 -2.342474,-3.16934 -3.673131,-3.93587 -0.94377,-6.59743 z"
       style="color:#000000;fill:none;stroke:#c87137;stroke-width:4;stroke-linecap:round;stroke-linejoin:round;stroke-miterlimit:4;stroke-opacity:1;stroke-dasharray:none;stroke-dashoffset:0;marker:none;visibility:visible;display:inline;overflow:visible;enable-background:accumulate" />
    <path
       sodipodi:nodetypes="cssssscc"
       inkscape:connector-curvature="0"
       id="path5442"
       d="m 202.15743,247.79923 c -5.69157,-7.85091 3.55025,-7.25681 9.46545,-11.50195 8.80257,-6.31731 14.88243,-8.60744 23.21956,-14.06619 12.90074,-8.44685 15.09218,-5.19428 21.27777,-11.31099 5.39222,-5.33217 7.47765,-5.68755 10.59371,-0.78664 1.74439,2.74356 -21.06597,14.73447 -22.84932,15.31043 -21.72029,7.01476 -36.0491,23.51833 -41.70715,22.35538 z"
       style="color:#000000;fill:none;stroke:#c87137;stroke-width:4;stroke-linecap:round;stroke-linejoin:round;stroke-miterlimit:4;stroke-opacity:1;stroke-dasharray:none;stroke-dashoffset:0;marker:none;visibility:visible;display:inline;overflow:visible;enable-background:accumulate" />
    <path
       inkscape:connector-curvature="0"
       id="path4219-0"
       d="m 20.956415,150.90133 c 1.672785,-4.91588 5.171271,-9.51697 5.189781,-14.90441 2.863561,-4.70865 6.88568,-9.0224 7.595674,-14.73252 1.824147,-4.32759 3.685821,-9.13717 3.645765,-13.60123 C 35.414655,97.902519 37.821988,90.770056 42.5,85"
       style="fill:none;stroke:#ffff00;stroke-width:4;stroke-linecap:round;stroke-linejoin:round;stroke-miterlimit:4;stroke-opacity:1;stroke-dasharray:none"
       sodipodi:nodetypes="ccccc" />
    <path
       inkscape:connector-curvature="0"
       id="path4219-0-0"
       d="m 54.442305,244.02914 c 5.00434,1.38593 9.29989,6.6127 14.6794,6.31986 3.86625,3.08669 9.90521,0.35282 15.64682,4.73167 10.42576,3.07103 13.834875,5.15168 25.289165,4.85373"
       style="fill:none;stroke:#ffff00;stroke-width:4;stroke-linecap:round;stroke-linejoin:round;stroke-miterlimit:4;stroke-opacity:1;stroke-dasharray:none"
       sodipodi:nodetypes="cccc" />
    <path
       style="color:#000000;fill:none;stroke:#80ff00;stroke-width:3.99999952;stroke-linecap:round;stroke-linejoin:round;stroke-miterlimit:4;stroke-opacity:1;stroke-dasharray:none;stroke-dashoffset:0;marker:none;visibility:visible;display:inline;overflow:visible;enable-background:accumulate"
       d="m 162.76766,137.1609 c 12.34986,-2.03991 8.8907,-1.79591 22.2864,-3.01706 8.95073,-0.81595 11.04475,-0.45394 43.59642,-9.63462 14.57925,-4.11184 10.9497,-6.28444 39.48126,-4.23085 26.26992,1.89081 26.4227,-0.83014 42.29109,-0.66494 13.02579,0.13561 11.3832,4.01549 31.23258,4.42222 6.44492,0.1321 3.7743,-1.90633 9.09789,2.22376 5.14439,3.99107 19.63777,7.05807 25.1832,25.8838 5.87421,19.94188 2.5932,6.47765 9.10323,18.50171 7.43077,13.72471 7.87718,19.38146 5.73,39.40938 -2.53917,23.68423 -6.99176,18.22082 -10.08663,28.73623 -5.98208,20.32524 -12.15886,10.44448 -17.61817,31.6529 -3.52232,13.68358 1.2482,8.50749 -7.6763,29.99707"
       id="path6294"
       inkscape:connector-curvature="0"
       sodipodi:nodetypes="sssssssssssss" />
    <path
       style="color:#000000;fill:none;stroke:#80ff00;stroke-width:3.99999952;stroke-linecap:round;stroke-linejoin:round;stroke-miterlimit:4;stroke-opacity:1;stroke-dasharray:none;stroke-dashoffset:0;marker:none;visibility:visible;display:inline;overflow:visible;enable-background:accumulate"
       d="m 191.28416,198.64719 c 4.5761,1.75257 4.70893,-10.6607 5.62912,-19.57477 1.51364,-14.66285 5.87026,-8.4123 4.04915,-22.03352 -1.21413,-9.08125 -0.81567,-11.92757 1.08604,-15.74219 2.5222,-11.67275 5.98928,-11.06062 8.14489,-7.8048 6.68047,10.09011 5.91109,4.83557 9.84354,13.16847 2.42804,5.14506 4.55859,4.10127 9.4302,10.23566 10.1282,12.75356 1.39798,6.09295 9.00453,12.72674 1.58664,1.38372 4.5572,13.97203 5.88005,16.23457"
       id="path6301"
       inkscape:connector-curvature="0"
       sodipodi:nodetypes="ssscssssc" />
    <path
       style="color:#000000;fill:none;stroke:#80ff00;stroke-width:3.99999976;stroke-linecap:round;stroke-linejoin:round;stroke-miterlimit:4;stroke-opacity:1;stroke-dasharray:none;stroke-dashoffset:0;marker:none;visibility:visible;display:inline;overflow:visible;enable-background:accumulate"
       d="m 170.4604,154.59911 c -1.55058,-6.54995 -7.28348,-17.25253 -10.43381,-22.80982 -1.64506,-2.90195 -1.00086,-5.9106 -2.7445,-8.98647 -0.33853,-0.59717 -1.62163,-0.78811 -1.96017,-1.38529 -0.52996,-0.93488 -1.48955,-6.54877 -1.64773,-6.53347 -0.46392,0.0447 -15.21394,10.24361 -16.32453,11.61706 -1.37748,1.70349 -2.81098,4.27297 -4.97946,5.20562 -11.57399,4.9779 -18.18193,11.05703 -27.11877,22.10902 -0.3275,0.40502 -2.15942,2.09539 -2.072,2.56243 0.73598,3.93366 11.53794,3.57438 13.88895,3.77547 7.0699,0.60476 15.46459,2.4999 21.80864,0.64784 2.99708,-0.87495 10.03213,-0.18232 13.09312,-0.4782 0.81008,-0.0784 3.78863,0.59889 4.32158,0.36966 0.99284,-0.427 1.22573,-1.69324 2.21675,-1.78903 1.96691,-0.19014 7.2223,1.62897 9.47859,0.65857 1.60376,-0.68977 2.27824,-3.79635 2.47329,-4.96337 z"
       id="path3039"
       inkscape:connector-curvature="0"
       sodipodi:nodetypes="cssccssssssssssc" />
    <path
       style="color:#000000;fill:none;stroke:#ffff00;stroke-width:3.99999976;stroke-linecap:round;stroke-linejoin:round;stroke-miterlimit:4;stroke-opacity:1;stroke-dasharray:none;stroke-dashoffset:0;marker:none;visibility:visible;display:inline;overflow:visible;enable-background:accumulate"
       d="m 60.187154,176.54479 c 7.366295,2.56707 15.041633,-1.77496 22.504054,-3.52336 3.189297,-0.74727 4.791501,0.17079 7.767109,-0.21633 5.052985,-0.6574 10.235743,-4.19879 15.351383,-5.39737 3.34402,-0.7835 4.81664,0.10235 7.8998,0.38705"
       id="path3044"
       inkscape:connector-curvature="0"
       sodipodi:nodetypes="ccscc" />
    <path
       style="color:#000000;fill:none;stroke:#ffff00;stroke-width:3.99999976;stroke-linecap:round;stroke-linejoin:round;stroke-miterlimit:4;stroke-opacity:1;stroke-dasharray:none;stroke-dashoffset:0;marker:none;visibility:visible;display:inline;overflow:visible;enable-background:accumulate"
       d="m 9.4999993,224.99998 c 0.4004356,2.30988 3.3919547,5.17273 4.1250007,7.40299 3.669855,11.16544 0.851066,5.72871 1.767857,15.73134 1.00258,10.93864 -0.420994,10.76683 5.665396,18.15029 4.730306,5.73838 2.123471,11.86413 4.941745,20.71538"
       id="path3050"
       inkscape:connector-curvature="0"
       sodipodi:nodetypes="csssc" />
    <path
       style="color:#000000;fill:none;stroke:#000000;stroke-width:4;stroke-linecap:round;stroke-linejoin:round;stroke-miterlimit:4;stroke-opacity:1;stroke-dasharray:none;stroke-dashoffset:0;marker:none;visibility:visible;display:inline;overflow:visible;enable-background:accumulate"
       d="m 366.49999,111.50001 c -20.21597,-9.91585 -45.55718,-10.05475 -58.87386,-10.03172 -21.63297,0.0374 -43.12672,0.51549 -64.75074,2.30732 -19.74601,1.63622 -45.89913,14.87399 -61.39702,8.12083 -12.37151,-5.39085 -0.21628,-13.936966 -36.60575,-9.61577 -24.29731,2.88527 -40.71589,4.64423 -68.713254,4.65008 -11.550536,0.002 -32.321816,-13.007584 -16.386955,-15.903379 42.247659,-7.677542 41.525549,3.08665 77.646519,-2.804117 16.60149,-2.707445 43.22899,-8.895971 56.03515,2.111158 14.45961,12.428298 34.00089,-1.912422 59.50331,-3.483815 8.4744,-0.52217 50.91365,4.502911 33.28907,-7.90127 -11.58879,-8.156193 -32.70042,-13.471101 -44.32361,-9.427132 -34.04004,11.843292 -27.87518,-4.149086 -45.96529,-3.489048 -38.8373,1.417023 -74.28208,7.054587 -116.457562,7.46686 C 68.698399,73.605595 64,79.5 54,79.5"
       id="path3063"
       inkscape:connector-curvature="0"
       sodipodi:nodetypes="ssssssssssssssc" />
    <path
       style="color:#000000;fill:none;stroke:#000000;stroke-width:4;stroke-linecap:round;stroke-linejoin:round;stroke-miterlimit:4;stroke-opacity:1;stroke-dasharray:none;stroke-dashoffset:0;marker:none;visibility:visible;display:inline;overflow:visible;enable-background:accumulate"
       d="m 121,121.50001 c -17.68116,4.7547 -34.393968,-5.71909 -46.899891,0.24601 -10.148825,4.84081 -16.334143,-4.81639 -24.810867,0.50149 -4.734112,2.96995 -5.560279,6.15906 -1.80442,11.38499 8.094731,11.26307 18.4412,8.95806 34.980779,1.31053 4.209194,-1.94624 9.674012,1.484 12.888355,4.89285 2.879474,3.05371 -0.876395,6.54379 -3.335295,9.19835 -6.990809,7.54708 -12.447798,10.21263 -23.965801,9.36303 -11.943172,-0.88096 -15.50155,-6.21092 -23.052861,-10.89731"
       id="path3067"
       inkscape:connector-curvature="0"
       sodipodi:nodetypes="sssssssss" />
    <path
       style="color:#000000;fill:none;stroke:#000000;stroke-width:4;stroke-linecap:round;stroke-linejoin:round;stroke-miterlimit:4;stroke-opacity:1;stroke-dasharray:none;stroke-dashoffset:0;marker:none;visibility:visible;display:inline;overflow:visible;enable-background:accumulate"
       d="m 118.5,178.5 c 17.72886,-1.70576 45.7386,-3.10157 62,-8 6.27642,-1.89065 7.86142,11.83966 -2.5,15.5 -17.70254,6.25371 -15.96259,9.6241 -54.05411,4.25432 C 107.60349,187.95052 92.269641,191 87,191 79.828365,191 66.000001,194.17414 68.649547,202.23661 71.299095,210.29909 96.582543,208.89184 112,208 c 17.28732,-1 40.53395,-3.87271 51.84411,-0.59514 14.69835,4.25943 32.18087,-6.27834 32.15589,5.59514 -0.0227,10.78528 -9.01501,8.29621 -18,8 -30.33333,-1 -36.66667,-4 -76,0 -10.241156,1.04147 -30.614915,-3.38509 -37,3 -4.198522,4.19852 3.672364,11 6,11 22.333333,0 33.90992,0.34754 60,-3 9.04456,-1.16048 30.12164,-2.37836 32,-0.5 1.96882,1.96882 -7.09765,7.4439 -16.5,9 -16.41782,2.71717 -15.78172,5.29908 -28.5,7.5 -8.43847,1.46029 -10.26562,-1.5 -19,-1.5"
       id="path3078"
       inkscape:connector-curvature="0"
       sodipodi:nodetypes="ssssssssssssssssss" />
    <path
       style="fill:none;stroke:#000000;stroke-width:4;stroke-linecap:round;stroke-linejoin:round;stroke-opacity:1;color:#000000;stroke-miterlimit:4;stroke-dasharray:none;stroke-dashoffset:0;marker:none;visibility:visible;display:inline;overflow:visible;enable-background:accumulate"
       d="m 206,204 c 0.0456,-0.0912 1.6306,-4.3153 3,-5 6.36502,-3.18251 18,-3.47908 18,-13 0,-1.22068 0.38804,-2.30598 -1,-3 -6.1125,-3.05625 -15.30388,2.39223 -19,-5 -2.91978,-5.83955 5.26133,-5.52266 7,-9 1.43622,-2.87243 1,-7.54914 1,-11"
       id="path3086"
       inkscape:connector-curvature="0" />
    <path
       style="fill:none;stroke:#000000;stroke-width:4;stroke-linecap:round;stroke-linejoin:round;stroke-opacity:1;color:#000000;stroke-miterlimit:4;stroke-dasharray:none;stroke-dashoffset:0;marker:none;visibility:visible;display:inline;overflow:visible;enable-background:accumulate"
       d="m 312,133 c -20.59946,1.38455 -21.3988,3.90691 -43.5,1.5 -18.36477,-2 -32.05872,-0.94128 -33.5,0.5 -5.81302,5.81302 -5.33131,10 1,12 8.42709,2.66204 59.147,-5.14067 60.5,1 1.5543,7.0543 -2.5,6.35777 -7,10 -10.72839,8.68339 -31.97167,-2.83914 -36.5,3 -5.18191,6.68191 -7.65246,13.57623 9.5,15 2.85578,-3.56067 9.69026,0.5 15.5,-1.5"
       id="path3092"
       inkscape:connector-curvature="0"
       sodipodi:nodetypes="csssssscc" />
    <path
       style="color:#000000;fill:none;stroke:#000000;stroke-width:4;stroke-linecap:round;stroke-linejoin:round;stroke-miterlimit:4;stroke-opacity:1;stroke-dasharray:none;stroke-dashoffset:0;marker:none;visibility:visible;display:inline;overflow:visible;enable-background:accumulate"
       d="m 326.5,160 c -0.61003,3.98826 -4.44068,4.94068 -6.5,7 -1.5,1.5 -7.5,-1.5 -9,0 -1.12905,1.12905 -4.0771,2.6542 -5,4.5 -0.20938,0.41877 -0.40509,4.98922 0,5 10.70601,0.28482 6.74753,0.21178 16.5,3.5 0.93044,0.31371 8.45931,1.03952 8.5,2 0.13093,3.09019 0.97188,6.46987 1,9"
       id="path3096"
       inkscape:connector-curvature="0"
       sodipodi:nodetypes="ssssssss" />
    <path
       style="color:#000000;fill:none;stroke:#000000;stroke-width:4;stroke-linecap:round;stroke-linejoin:round;stroke-miterlimit:4;stroke-opacity:1;stroke-dasharray:none;stroke-dashoffset:0;marker:none;visibility:visible;display:inline;overflow:visible;enable-background:accumulate"
       d="m 346.5,143 c 4.92252,0.0953 8.80531,2.23643 13,3.5 6.17521,1.86016 8.42626,8.09936 7,11 -3.35355,6.82024 -15.20998,8.37003 -13,13 2.98023,6.24366 24.62296,5.47908 27.70571,17.97325 2.0079,8.13788 -19.98105,2.25289 -21.70571,15.52675 -1.49697,11.52145 19.61304,2.06273 20.5,10.5 0.99119,9.42878 -14.62121,3.26258 -18.61521,12.56461 C 359.7016,230.98477 362.16097,237.01709 370,238"
       id="path3098"
       inkscape:connector-curvature="0"
       sodipodi:nodetypes="sssssssss" />
    <path
       style="fill:none;stroke:#808080;stroke-width:4;stroke-linecap:round;stroke-linejoin:round;stroke-opacity:1;color:#000000;stroke-miterlimit:4;stroke-dasharray:none;stroke-dashoffset:0;marker:none;visibility:visible;display:inline;overflow:visible;enable-background:accumulate"
       d="M 20,65 C 19.313964,48.472739 7.0415107,43.22592 18.005285,27.283387 26.004716,15.651335 40.490869,6.725928 52.532789,18.324797 62.68435,28.102858 65.041945,37.373931 52.611946,45.726275 33.582501,58.51312 19.574907,33.218111 37.617196,26.314856 52.046856,20.793848 69.497047,7.5720627 84.26592,16.674938 c 12.342022,7.607073 14.137213,29.03287 30.73619,29.271855 16.90165,0.243343 43.09365,-3.187421 43.07722,-23.701048 -0.0189,-23.6622377 -43.24469,-24.6452693 -45.98268,0.236501 -2.11558,19.22553 -35.695883,21.147154 -30.237515,2.24726 4.902419,-16.974892 35.730195,-12.266207 51.491095,-10.220015 14.13054,1.834527 27.29956,7.061832 39.2636,14.464902 C 186.51805,37.578006 207.67702,40.794973 229,32 c 15.7782,-6.507948 35.24387,-0.459817 49.53211,-11.535253 12.28455,-9.522287 19.98653,27.096672 0.10349,20.889217 -15.28808,-4.772915 -34.5464,6.04365 -47.89666,-6.290663 -9.60858,-8.877374 -13.75663,-31.7242725 -32.84139,-21.207112 -20.18921,11.125793 5.67469,15.287177 20.50554,4.111581 22.67637,-17.08748431 54.72099,-3.224689 82.07459,-5.110781 18.39432,-1.26833 32.95948,16.680991 38.71683,32.945854 5.27425,14.90008 -4.82296,19.803586 -17.77509,9.494509 C 300.52033,38.663 324.17561,29.661088 338.26933,27.369987 353.0204,24.972026 357.72279,15.687347 368.57572,13.203075 389.32628,8.4532011 415.28529,10.840883 436,15 c 15.04633,3.021017 34.47781,-0.145053 29.56314,21.289977 -3.50615,15.291856 6.13424,35.090821 -5.19285,47.223603 -12.4991,13.388154 8.07253,32.68672 10.39572,12.244793 2.50282,-22.022509 -0.66123,-37.646192 -8.96177,-53.224435 C 456.23714,32.085757 461.85872,19.33492 459,8"
       id="path3119"
       inkscape:connector-curvature="0"
       sodipodi:nodetypes="sssssssssssssssssssssssssssss" />
    <path
       style="color:#000000;fill:none;stroke:#808080;stroke-width:4;stroke-linecap:round;stroke-linejoin:round;stroke-miterlimit:4;stroke-opacity:1;stroke-dasharray:none;stroke-dashoffset:0;marker:none;visibility:visible;display:inline;overflow:visible;enable-background:accumulate"
       d="m 308,226 c 14.83033,4.90989 22.39545,19.96625 27.12576,34.66732 4.24538,13.19398 -2.10511,25.85209 -16.66331,24.88926 -20.41893,-1.35044 -33.79591,7.02444 -49.06474,-7.86239 -6.99208,-6.81715 -22.73884,-20.95725 -14.06667,-28.69248 20.15543,-17.97784 33.92576,-10.79336 42.62357,0.051 6.2517,7.79455 13.66807,20.74275 6.65463,29.08043 -8.92117,10.60561 -10.67521,22.76241 -43.56763,23.62694 -16.12343,0.42378 -27.64055,3.87317 -45.5651,-4.22249 -12.36443,-5.58442 2.95607,-15.24283 -12.12772,-23.86195 -13.61721,-7.78109 -28.47065,6.85362 -30.16104,19.13123 -2.1428,15.56358 22.70517,17.1646 35.51554,18.3606 15.08751,1.40859 21.19575,-11.33179 30.92184,-19.44234 13.82248,-11.52652 -0.81097,-25.96989 -15.12701,-21.90883 -14.57205,4.13368 -27.73915,23.6171 -40.64843,31.49563 -12.14772,7.41375 -18.6596,8.26773 -39.05075,-2.13121 -21.00578,-10.71239 -17.49666,6.02282 -46.707898,9.46264 C 84.866608,310.20063 74.772973,298.8718 60.656948,302.54364 16.898941,313.92592 9.0957197,300.63869 45.656345,292.44074 57.207661,289.8506 35.577323,263.27364 32,252"
       id="path3126"
       inkscape:connector-curvature="0"
       sodipodi:nodetypes="ssssssssssssssssssss" />
    <path
       style="color:#000000;fill:none;stroke:#80ff00;stroke-width:3.99999976;stroke-linecap:round;stroke-linejoin:round;stroke-miterlimit:4;stroke-opacity:1;stroke-dasharray:none;stroke-dashoffset:0;marker:none;visibility:visible;display:inline;overflow:visible;enable-background:accumulate"
       d="m 411.29806,241.55255 c 1.62148,-4.38652 3.08316,-9.56769 3.85438,-14.43698 0.0709,-0.44703 -0.79422,-1.5133 -0.59424,-1.90439 0.43165,-0.8441 1.75572,-1.65803 1.92855,-2.74924 0.93054,-5.87503 0.32689,-13.37642 1.09827,-18.24663 0.96568,-6.09699 3.77612,-10.45088 6.32766,-15.44053 0.40254,-0.78721 1.02714,-5.87775 1.76693,-5.49964 4.55525,2.32815 8.36753,16.28165 10.67263,17.45977 3.18385,1.62725 3.78772,8.87216 5.89013,9.94668 4.47584,2.28757 5.85735,10.95781 7.55559,16.40026 0.6631,2.12506 5.0813,11.52844 4.15967,13.3307 -6.50253,0.5939 -14.89343,0.7727 -20.90172,-0.0115 -7.27136,-1.05806 -8.80569,4.35751 -21.75785,1.15156 z"
       id="path3199"
       inkscape:connector-curvature="0"
       sodipodi:nodetypes="csssssssssccc" />
    <path
       style="fill:none;stroke:#80ff00;stroke-width:3.99999951999999980;stroke-linecap:round;stroke-linejoin:round;stroke-opacity:1;color:#000000;stroke-miterlimit:4;stroke-dasharray:none;stroke-dashoffset:0;marker:none;visibility:visible;display:inline;overflow:visible;enable-background:accumulate"
       d="m 430.49999,241 c -0.20414,7.25807 2.99844,14.5078 1.5,22 -1.54104,7.70522 -7.36721,15.30081 -11.5,21.5 -1.50583,2.25874 -2.20241,5.34289 -4,7.5 -2.20046,2.64055 -5.28418,5.6403 -7,8.5 -9.14328,15.23881 -16.5,31.47938 -16.5,50"
       id="path3218"
       inkscape:connector-curvature="0" />
    <path
       style="color:#000000;fill:none;stroke:#80ff00;stroke-width:3.99999952;stroke-linecap:round;stroke-linejoin:round;stroke-miterlimit:4;stroke-opacity:1;stroke-dasharray:none;stroke-dashoffset:0;marker:none;visibility:visible;display:inline;overflow:visible;enable-background:accumulate"
       d="m 369.04381,279.56692 c 1.85962,0.41631 9.43721,0.0286 11.87766,0.62759 1.72493,0.4234 3.41294,1.99006 5.11369,2.54122 2.97722,0.96483 5.61181,-1.16326 8.44791,-0.6574 12.66974,3.97723 7.78356,1.07165 11.15197,1.17913 5.98224,0.41117 11.72305,-1.27528 18.15121,-2.75284 -7.22277,-9.77309 -7.67574,-6.57466 -16.99579,-8.36166 -13.0103,-2.49456 -9.66671,0.56839 -19.54301,-5.9568 -5.99987,-3.96406 -9.27899,-0.78181 -10.88237,-3.31016"
       id="path3226"
       inkscape:connector-curvature="0"
       sodipodi:nodetypes="csscccssc" />
  </g>
</svg>
