<?xml version="1.0" encoding="UTF-8" standalone="no"?>
<!-- Created with Inkscape (http://www.inkscape.org/) -->

<svg
   xmlns:dc="http://purl.org/dc/elements/1.1/"
   xmlns:cc="http://creativecommons.org/ns#"
   xmlns:rdf="http://www.w3.org/1999/02/22-rdf-syntax-ns#"
   xmlns:svg="http://www.w3.org/2000/svg"
   xmlns="http://www.w3.org/2000/svg"
   xmlns:xlink="http://www.w3.org/1999/xlink"
   xmlns:sodipodi="http://sodipodi.sourceforge.net/DTD/sodipodi-0.dtd"
   xmlns:inkscape="http://www.inkscape.org/namespaces/inkscape"
   width="480"
   height="320"
   id="svg2"
   version="1.1"
   inkscape:version="0.47 r22583"
   sodipodi:docname="itnas129.svg"
   inkscape:export-filename="itnas129.png"
   inkscape:export-xdpi="90"
   inkscape:export-ydpi="90">
  <defs
     id="defs4">
    <linearGradient
       id="linearGradient3814">
      <stop
         style="stop-color:#ff0000;stop-opacity:1;"
         offset="0"
         id="stop3816" />
      <stop
         id="stop3818"
         offset="0.33425784"
         style="stop-color:#ffff00;stop-opacity:1;" />
      <stop
         id="stop3820"
         offset="0.66302657"
         style="stop-color:#00ff00;stop-opacity:1;" />
      <stop
         style="stop-color:#00ffff;stop-opacity:1;"
         offset="1"
         id="stop3822" />
    </linearGradient>
    <linearGradient
       gradientTransform="matrix(-1,0,0.26985845,-1,948.90856,1053.3067)"
       y2="893.3067"
       x2="1119.975"
       y1="893.3067"
       x1="1479.975"
       gradientUnits="userSpaceOnUse"
       id="linearGradient5429-6"
       xlink:href="#linearGradient3814"
       inkscape:collect="always" />
    <linearGradient
       inkscape:collect="always"
       xlink:href="#linearGradient5329-8"
       id="linearGradient5349-7"
       x1="-294.22601"
       y1="561.9223"
       x2="-294.22601"
       y2="339.34622"
       gradientUnits="userSpaceOnUse"
       gradientTransform="matrix(1,0,0,1.0782828,544.226,406.451)" />
    <linearGradient
       id="linearGradient5329-8">
      <stop
         style="stop-color:#c0406d;stop-opacity:1;"
         offset="0"
         id="stop5331-2" />
      <stop
         id="stop4026"
         offset="0.5"
         style="stop-color:#bfb540;stop-opacity:1" />
      <stop
         style="stop-color:#40c040;stop-opacity:1"
         offset="1"
         id="stop5333-0" />
    </linearGradient>
  </defs>
  <sodipodi:namedview
     id="base"
     pagecolor="#ffffff"
     bordercolor="#666666"
     borderopacity="1.0"
     inkscape:pageopacity="1"
     inkscape:pageshadow="2"
     inkscape:zoom="1"
     inkscape:cx="289.83584"
     inkscape:cy="180.93985"
     inkscape:document-units="px"
     inkscape:current-layer="layer1"
     showgrid="true"
     inkscape:snap-nodes="true"
     inkscape:snap-global="true"
     inkscape:snap-grids="true"
     showguides="true"
     inkscape:window-width="1280"
     inkscape:window-height="774"
     inkscape:window-x="-4"
     inkscape:window-y="-4"
     inkscape:window-maximized="1"
     inkscape:snap-to-guides="false"
     inkscape:object-paths="false"
     inkscape:object-nodes="false">
    <inkscape:grid
       empspacing="5"
       visible="true"
       enabled="true"
       snapvisiblegridlinesonly="true"
       type="xygrid"
       id="grid2816" />
  </sodipodi:namedview>
  <metadata
     id="metadata7">
    <rdf:RDF>
      <cc:Work
         rdf:about="">
        <dc:format>image/svg+xml</dc:format>
        <dc:type
           rdf:resource="http://purl.org/dc/dcmitype/StillImage" />
        <dc:title></dc:title>
      </cc:Work>
    </rdf:RDF>
  </metadata>
  <g
     inkscape:label="Layer 1"
     inkscape:groupmode="layer"
     id="layer1"
     transform="translate(0,-732.36218)">
    <g
       id="g2965"
       transform="matrix(0,1,-1,0,852.99458,610.6031)">
      <path
         style="fill:none;stroke:#0000ff;stroke-width:4;stroke-linecap:butt;stroke-linejoin:bevel;stroke-miterlimit:4;stroke-opacity:1;stroke-dasharray:none"
         d="m 133.39254,813.06126 c 0,0 0.0632,27.65906 0.0632,27.65906 l 12.07545,-14.44412 -12.13868,-13.21494 z"
         id="rect10452-0"
         sodipodi:nodetypes="cccc" />
      <path
         sodipodi:nodetypes="cc"
         id="rect10452-1-7"
         d="m 151.22823,812.17189 c 6.89212,7.09944 8.9135,16.0226 -0.26296,29.13855"
         style="fill:none;stroke:#0000ff;stroke-width:4;stroke-linecap:butt;stroke-linejoin:miter;stroke-miterlimit:4;stroke-opacity:1;stroke-dasharray:none" />
      <path
         sodipodi:nodetypes="cc"
         id="rect10452-1-4-4"
         d="m 168.17181,812.47108 c -7.29825,9.26679 -7.43338,20.14595 -0.26297,29.13854"
         style="fill:none;stroke:#0000ff;stroke-width:4;stroke-linecap:butt;stroke-linejoin:miter;stroke-miterlimit:4;stroke-opacity:1;stroke-dasharray:none" />
      <path
         id="rect10452-1-8-0"
         style="fill:none;stroke:#0000ff;stroke-width:4;stroke-linecap:butt;stroke-linejoin:miter;stroke-miterlimit:4;stroke-opacity:1;stroke-dasharray:none"
         d="m 179.31071,813.72794 13.84374,-0.52265 c -7.48858,10.55148 -6.72932,17.42179 -1.40548,27.37095 l -12.51201,-0.45482 c -6.31967,-9.77929 -6.1614,-17.42893 0.0737,-26.39348 z"
         sodipodi:nodetypes="ccccc" />
    </g>
    <g
       id="g3826"
       transform="translate(-193.95259,182.45237)">
      <path
         id="path3028"
         d="m 232.80034,808.92455 -27.65906,0.0632"
         style="fill:none;stroke:#0000ff;stroke-width:4;stroke-linecap:butt;stroke-linejoin:bevel;stroke-miterlimit:4;stroke-opacity:1;stroke-dasharray:none" />
      <path
         id="rect10452-0-7"
         d="M 225.59987,799.73718 212.06434,799.5604"
         style="fill:none;stroke:#0000ff;stroke-width:4;stroke-linecap:butt;stroke-linejoin:bevel;stroke-miterlimit:4;stroke-opacity:1;stroke-dasharray:none" />
      <path
         sodipodi:nodetypes="cc"
         id="rect10452-1-7-4"
         d="m 233.31471,820.26027 c -7.91409,4.26712 -8.11323,10.1635 -0.17602,15.48704"
         style="fill:none;stroke:#0000ff;stroke-width:4;stroke-linecap:butt;stroke-linejoin:miter;stroke-miterlimit:4;stroke-opacity:1;stroke-dasharray:none" />
      <path
         sodipodi:nodetypes="cc"
         id="rect10452-1-4-4-0"
         d="m 206.14052,820.45385 c 8.38416,3.32675 8.29912,11.94162 0.0734,15.23703"
         style="fill:none;stroke:#0000ff;stroke-width:4;stroke-linecap:butt;stroke-linejoin:miter;stroke-miterlimit:4;stroke-opacity:1;stroke-dasharray:none" />
      <path
         sodipodi:nodetypes="czzzc"
         id="path3030"
         d="m 205.75,843.61218 c 5.18474,3.48093 10.40953,9.14731 15.91593,11.45339 5.5064,2.30607 11.36378,0.2626 11.33408,-4.94068 -0.0297,-5.20328 -5.59186,-7.45374 -11.33408,-5.7267 -5.74221,1.72705 -10.12832,7.97246 -15.0719,12.46399"
         style="fill:none;stroke:#0000ff;stroke-width:4;stroke-linecap:butt;stroke-linejoin:miter;stroke-miterlimit:4;stroke-opacity:1;stroke-dasharray:none" />
      <path
         id="rect10452-0-7-4"
         d="m 219.78661,837.37993 0.17678,-18.66053"
         style="fill:none;stroke:#0000ff;stroke-width:4;stroke-linecap:butt;stroke-linejoin:bevel;stroke-miterlimit:4;stroke-opacity:1;stroke-dasharray:none" />
    </g>
    <g
       id="g5500"
       transform="matrix(1.7952013,0,0,4.5254425,-31.942106,-2932.0118)"
       style="fill:none;stroke:#808080;stroke-width:1.05252919999999990;stroke-opacity:1;stroke-miterlimit:4;stroke-dasharray:none;stroke-linecap:square">
      <path
         transform="translate(0.70710678,732.36218)"
         d="m 23.334524,96.554255 c 8.982059,0 16.263457,7.281395 16.263456,16.263455 0,8.98206 -7.281397,16.26346 -16.263455,16.26346"
         sodipodi:ry="16.263456"
         sodipodi:rx="16.263456"
         sodipodi:cy="112.81771"
         sodipodi:cx="23.334524"
         id="path5454"
         style="color:#000000;fill:none;stroke:#808080;stroke-width:1.05252919999999990;stroke-linecap:square;stroke-linejoin:miter;stroke-miterlimit:4;stroke-opacity:1;stroke-dasharray:none;stroke-dashoffset:0;marker:none;visibility:visible;display:inline;overflow:visible;enable-background:accumulate"
         sodipodi:type="arc"
         sodipodi:start="4.712389"
         sodipodi:end="7.8539816"
         sodipodi:open="true" />
      <path
         transform="matrix(0.40818238,0,0,0.40818238,14.516889,799.12969)"
         d="m 23.334524,96.554255 c 8.982059,0 16.263457,7.281395 16.263456,16.263455 0,8.98206 -7.281397,16.26346 -16.263455,16.26346"
         sodipodi:ry="16.263456"
         sodipodi:rx="16.263456"
         sodipodi:cy="112.81771"
         sodipodi:cx="23.334524"
         id="path5454-9"
         style="color:#000000;fill:none;stroke:#808080;stroke-width:2.57857578000000000;stroke-linecap:square;stroke-linejoin:miter;stroke-miterlimit:4;stroke-opacity:1;stroke-dasharray:none;stroke-dashoffset:0;marker:none;visibility:visible;display:inline;overflow:visible;enable-background:accumulate"
         sodipodi:type="arc"
         sodipodi:start="4.712389"
         sodipodi:end="7.8539816"
         sodipodi:open="true" />
    </g>
    <rect
       style="color:#000000;fill:none;stroke:#000000;stroke-width:1;stroke-linecap:butt;stroke-linejoin:miter;stroke-miterlimit:4;stroke-opacity:1;stroke-dasharray:none;stroke-dashoffset:0;marker:none;visibility:visible;display:inline;overflow:visible;enable-background:accumulate"
       id="rect2850"
       width="38.183765"
       height="71.417786"
       x="7.0710678"
       y="5.3374906"
       transform="translate(0,732.36218)" />
    <rect
       style="color:#000000;fill:none;stroke:#000000;stroke-width:0.99999988;stroke-linecap:butt;stroke-linejoin:miter;stroke-miterlimit:4;stroke-opacity:1;stroke-dasharray:none;stroke-dashoffset:0;marker:none;visibility:visible;display:inline;overflow:visible;enable-background:accumulate"
       id="rect2850-1"
       width="36.062443"
       height="68.589355"
       x="7.6568551"
       y="975.64105" />
    <path
       id="path3891"
       style="fill:none;stroke:url(#linearGradient5349-7);stroke-width:4;stroke-linecap:butt;stroke-linejoin:miter;stroke-opacity:1;color:#000000;stroke-miterlimit:4;stroke-dasharray:none;stroke-dashoffset:0;marker:none;visibility:visible;display:inline;overflow:visible;enable-background:accumulate;fill-opacity:1"
       d="m 400,1012.3622 20,0 m -60,0 20,0 m -60,0 20,0 m -60,0 20,0 m -60,0 20,0 m -60,0 20,0 m -59.48676,-0.2908 19.48676,0.2908 m -60,-120.00002 20,120.00002 m 260,-240.00002 20,0 m -60,0 20,0 m -60,0 20,0 m -60,0 20,0 m -60,0 20,0 m -60,0 20,0 M 160.51324,772.65299 180,772.36218 m -60,120 20,-120 m -60,120 20,0"
       sodipodi:nodetypes="cccccccccccccccccccccccccccccccccc" />
    <path
       id="path2854"
       transform="translate(360,732.36218)"
       style="color:#000000;fill:none;stroke:url(#linearGradient5429-6);stroke-width:4;stroke-linecap:butt;stroke-linejoin:miter;stroke-miterlimit:4;stroke-dashoffset:0;stroke-opacity:1;marker:none;visibility:visible;display:inline;overflow:visible;enable-background:accumulate;stroke-dasharray:none;fill-opacity:1"
       d="m 80,40 c 0,5.52285 -4.477153,10 -10,10 -5.522847,0 -10,-4.47715 -10,-10 0,-5.52285 4.477153,-10 10,-10 5.522847,0 10,4.47715 10,10 z m -40,0 c 0,5.52285 -4.477153,10 -10,10 -5.522847,0 -10,-4.47715 -10,-10 0,-5.52285 4.477153,-10 10,-10 5.522847,0 10,4.47715 10,10 z M 0,40 c 0,5.52285 -4.477153,10 -10,10 -5.522847,0 -10,-4.47715 -10,-10 0,-5.52285 4.477153,-10 10,-10 5.522847,0 10,4.47715 10,10 z m -40,0 c 0,5.52285 -4.477153,10 -10,10 -5.522847,0 -10,-4.47715 -10,-10 0,-5.52285 4.477153,-10 10,-10 5.522847,0 10,4.47715 10,10 z m -40,0 c 0,5.52285 -4.477153,10 -10,10 -5.522847,0 -10,-4.47715 -10,-10 0,-5.52285 4.477153,-10 10,-10 5.522847,0 10,4.47715 10,10 z m -40,0 c 0,5.52285 -4.47715,10 -10,10 -5.52285,0 -10,-4.47715 -10,-10 0,-5.52285 4.47715,-10 10,-10 5.52285,0 10,4.47715 10,10 z m -40,0 c 0,5.52285 -4.47715,10 -10,10 -5.52285,0 -10,-4.47715 -10,-10 0,-5.52285 4.47715,-10 10,-10 5.52285,0 10,4.47715 10,10 z m -40,0 c 0,5.52285 -4.47715,10 -10,10 -5.52285,0 -10,-4.47715 -10,-10 0,-5.52285 4.47715,-10 10,-10 5.52285,0 10,4.47715 10,10 z m -40,120 c 0,5.52285 -4.47715,10 -10,10 -5.52285,0 -10,-4.47715 -10,-10 0,-5.52285 4.47715,-10 10,-10 5.52285,0 10,4.47715 10,10 z m -40,0 c 0,5.52285 -4.47715,10 -10,10 -5.52285,0 -10,-4.47715 -10,-10 0,-5.52285 4.47715,-10 10,-10 5.52285,0 10,4.47715 10,10 z M 80,280 c 0,5.52285 -4.47715,10 -10,10 -5.52285,0 -10,-4.47715 -10,-10 0,-5.52285 4.47715,-10 10,-10 5.52285,0 10,4.47715 10,10 z m -40,0 c 0,5.52285 -4.47715,10 -10,10 -5.52285,0 -10,-4.47715 -10,-10 0,-5.52285 4.47715,-10 10,-10 5.52285,0 10,4.47715 10,10 z m -40,0 c 0,5.52285 -4.47715,10 -10,10 -5.52285,0 -10,-4.47715 -10,-10 0,-5.52285 4.47715,-10 10,-10 5.52285,0 10,4.47715 10,10 z m -40,0 c 0,5.52285 -4.47715,10 -10,10 -5.52285,0 -10,-4.47715 -10,-10 0,-5.52285 4.47715,-10 10,-10 5.52285,0 10,4.47715 10,10 z m -40,0 c 0,5.52285 -4.47715,10 -10,10 -5.52285,0 -10,-4.47715 -10,-10 0,-5.52285 4.47715,-10 10,-10 5.52285,0 10,4.47715 10,10 z m -40,0 c 0,5.52285 -4.47715,10 -10,10 -5.52285,0 -10,-4.47715 -10,-10 0,-5.52285 4.47715,-10 10,-10 5.52285,0 10,4.47715 10,10 z m -40,0 c 0,5.52285 -4.47715,10 -10,10 -5.52285,0 -10,-4.47715 -10,-10 0,-5.52285 4.47715,-10 10,-10 5.52285,0 10,4.47715 10,10 z m -40,0 c 0,5.52285 -4.47715,10 -10,10 -5.52285,0 -10,-4.47715 -10,-10 0,-5.52285 4.47715,-10 10,-10 5.52285,0 10,4.47715 10,10 z"
       sodipodi:nodetypes="csssccsssccsssccsssccsssccsssccsssccsssccsssccsssccsssccsssccsssccsssccsssccsssccsssccsssc" />
    <g
       id="g3722"
       transform="matrix(2,0,0,2,-80.280105,-791.2587)"
       style="stroke-width:2;stroke-miterlimit:4;stroke-dasharray:none">
      <path
         sodipodi:nodetypes="ccccc"
         d="m 207.30344,847.57889 c 0,0 39.24793,-13.01169 39.24793,-13.01169 l -39.16834,-13.76569 c 0,0 -0.0796,26.77738 -0.0796,26.77738 l 1e-5,0 z"
         style="fill:none;stroke:#00ff00;stroke-width:2;stroke-linecap:butt;stroke-linejoin:miter;stroke-miterlimit:4;stroke-opacity:1;stroke-dasharray:none"
         id="path10399-9-4-4" />
      <g
         id="g3716"
         style="stroke-width:2;stroke-miterlimit:4;stroke-dasharray:none">
        <path
           sodipodi:nodetypes="cccc"
           id="rect10452-0-5-8"
           d="m 227.57485,840.41435 c 0,0 0.05,-12.14372 0.05,-12.14372 l -8.51534,6.31586 8.46544,5.82786 z"
           style="fill:none;stroke:#0000ff;stroke-width:2;stroke-linecap:butt;stroke-linejoin:bevel;stroke-miterlimit:4;stroke-opacity:1;stroke-dasharray:none" />
        <path
           style="fill:none;stroke:#0000ff;stroke-width:2;stroke-linecap:butt;stroke-linejoin:miter;stroke-miterlimit:4;stroke-opacity:1;stroke-dasharray:none"
           d="m 218.63419,840.76677 c -4.85019,-4.72267 -4.74488,-8.82143 0.24962,-12.79259"
           id="rect10452-1-7-5-8"
           sodipodi:nodetypes="cc" />
        <path
           style="fill:none;stroke:#0000ff;stroke-width:2;stroke-linecap:butt;stroke-linejoin:miter;stroke-miterlimit:4;stroke-opacity:1;stroke-dasharray:none"
           d="m 208.18013,840.59927 c 4.53113,-4.05298 4.64714,-8.82913 0.24963,-12.79259"
           id="rect10452-1-4-4-1-2"
           sodipodi:nodetypes="cc" />
        <path
           sodipodi:nodetypes="ccccc"
           d="m 202.78549,840.02369 -7.47903,0.19993 c 4.07263,-4.61661 3.68055,-7.6346 0.831,-12.01409 l 6.75714,0.22637 c 3.38789,4.30704 3.28232,7.66524 -0.10908,11.58779 z"
           style="fill:none;stroke:#0000ff;stroke-width:2;stroke-linecap:butt;stroke-linejoin:miter;stroke-miterlimit:4;stroke-opacity:1;stroke-dasharray:none"
           id="rect10452-1-8-0-7-4" />
      </g>
    </g>
    <g
       transform="matrix(-2,0,0,-2,1163.1779,2322.3442)"
       id="g4295"
       style="stroke-width:2;stroke-miterlimit:4;stroke-dasharray:none">
      <path
         id="path3379"
         style="fill:none;stroke:#00ff00;stroke-width:2;stroke-linecap:butt;stroke-linejoin:miter;stroke-miterlimit:4;stroke-opacity:1;stroke-dasharray:none"
         d="m 355.9297,715.24596 c 0,0 39.24793,-13.01169 39.24793,-13.01169 l -39.16834,-13.76569 c 0,0 -0.0796,26.77738 -0.0796,26.77738 l 1e-5,0 z"
         sodipodi:nodetypes="ccccc" />
      <g
         id="g4287"
         style="stroke-width:2;stroke-miterlimit:4;stroke-dasharray:none">
        <path
           id="path3383"
           d="m 371.62036,708.72351 -0.0314,-13.73249"
           style="fill:none;stroke:#0000ff;stroke-width:2;stroke-linecap:butt;stroke-linejoin:bevel;stroke-miterlimit:4;stroke-opacity:1;stroke-dasharray:none" />
        <path
           id="path3385"
           d="m 376.18181,705.21741 0.0878,-6.72028"
           style="fill:none;stroke:#0000ff;stroke-width:2;stroke-linecap:butt;stroke-linejoin:bevel;stroke-miterlimit:4;stroke-opacity:1;stroke-dasharray:none" />
        <path
           style="color:#000000;fill:none;stroke:#0000ff;stroke-width:2;stroke-linecap:butt;stroke-linejoin:bevel;stroke-miterlimit:4;stroke-opacity:1;stroke-dasharray:none;stroke-dashoffset:0;marker:none;visibility:visible;display:inline;overflow:visible;enable-background:accumulate"
           d="m 353.79955,695.04474 c -1.74046,2.59236 -4.57365,5.20477 -5.72669,7.95796 -1.15304,2.75321 -0.1313,5.68189 2.47034,5.66704 2.60164,-0.0149 3.72687,-2.79593 2.86335,-5.66704 -0.86353,-2.8711 -3.98623,-5.06415 -6.232,-7.53595"
           id="path3030-6-4"
           sodipodi:nodetypes="czzzc" />
        <path
           style="color:#000000;fill:none;stroke:#0000ff;stroke-width:2;stroke-linecap:butt;stroke-linejoin:bevel;stroke-miterlimit:4;stroke-opacity:1;stroke-dasharray:none;stroke-dashoffset:0;marker:none;visibility:visible;display:inline;overflow:visible;enable-background:accumulate"
           d="m 366.35051,708.65083 c -2.13356,-3.95705 -5.08175,-4.05662 -7.74352,-0.088"
           id="rect10452-1-7-4-2-0"
           sodipodi:nodetypes="cc" />
        <path
           style="color:#000000;fill:none;stroke:#0000ff;stroke-width:2;stroke-linecap:butt;stroke-linejoin:bevel;stroke-miterlimit:4;stroke-opacity:1;stroke-dasharray:none;stroke-dashoffset:0;marker:none;visibility:visible;display:inline;overflow:visible;enable-background:accumulate"
           d="m 366.25372,695.06371 c -1.66338,4.19209 -5.97081,4.14958 -7.61852,0.0367"
           id="rect10452-1-4-4-0-7-9"
           sodipodi:nodetypes="cc" />
        <path
           style="color:#000000;fill:none;stroke:#0000ff;stroke-width:2;stroke-linecap:butt;stroke-linejoin:bevel;stroke-miterlimit:4;stroke-opacity:1;stroke-dasharray:none;stroke-dashoffset:0;marker:none;visibility:visible;display:inline;overflow:visible;enable-background:accumulate"
           d="m 357.79068,701.88677 9.33026,0.0884"
           id="rect10452-0-7-4-1-8" />
      </g>
    </g>
    <path
       style="color:#000000;fill:none;stroke:#99fa94;stroke-width:4;stroke-linecap:butt;stroke-linejoin:bevel;stroke-miterlimit:4;stroke-opacity:1;stroke-dasharray:8,4;stroke-dashoffset:2;marker:none;visibility:visible;display:inline;overflow:visible;enable-background:accumulate"
       d="m 382.82263,877.87564 0,40"
       id="path3976"
       sodipodi:nodetypes="cc" />
    <path
       style="color:#000000;fill:none;stroke:#99fa94;stroke-width:4;stroke-linecap:butt;stroke-linejoin:bevel;stroke-miterlimit:4;stroke-opacity:1;stroke-dasharray:8,4;stroke-dashoffset:2;marker:none;visibility:visible;display:inline;overflow:visible;enable-background:accumulate"
       d="m 392.82263,877.87564 0,40"
       id="path3978"
       sodipodi:nodetypes="cc" />
    <path
       style="color:#000000;fill:none;stroke:#99fa94;stroke-width:4;stroke-linecap:butt;stroke-linejoin:bevel;stroke-miterlimit:4;stroke-opacity:1;stroke-dasharray:8,4;stroke-dashoffset:2;marker:none;visibility:visible;display:inline;overflow:visible;enable-background:accumulate"
       d="m 402.82263,877.87564 0,40"
       id="path3980"
       sodipodi:nodetypes="cc" />
    <path
       sodipodi:type="spiral"
       style="color:#000000;fill:none;stroke:#ffa900;stroke-width:4;stroke-linecap:butt;stroke-linejoin:miter;stroke-miterlimit:4;stroke-opacity:1;stroke-dasharray:none;stroke-dashoffset:0;marker:none;visibility:visible;display:inline;overflow:visible;enable-background:accumulate"
       id="path3775"
       sodipodi:cx="62.5"
       sodipodi:cy="257.5"
       sodipodi:expansion="1"
       sodipodi:revolution="3"
       sodipodi:radius="30.610456"
       sodipodi:argument="-17.948399"
       sodipodi:t0="0"
       d="m 62.5,257.5 c 0.95263,1.20332 -1.15206,1.8778 -2,1.58333 -2.297865,-0.79799 -2.32574,-3.86336 -1.166667,-5.58333 2.07331,-3.07662 6.513417,-2.949 9.166667,-0.75 3.893752,3.22711 3.595477,9.20113 0.333334,12.75 -4.347924,4.73008 -11.90245,4.25214 -16.333334,-0.0833 -5.575814,-5.45575 -4.914127,-14.6103 0.499999,-19.91667 6.557232,-6.42672 17.321843,-5.57921 23.500001,0.91667 7.280745,7.65516 6.246233,20.03568 -1.333332,27.08333 -8.750908,8.13679 -22.751072,6.91455 -30.666668,-1.75 -8.994203,-9.84522 -7.583783,-25.46753 2.166665,-34.25 10.93853,-9.8526 28.184783,-8.25367 37.833335,2.58333 10.71172,12.03113 8.924048,30.90263 -2.999998,41.41667"
       transform="translate(187.5,564.86218)" />
    <g
       transform="matrix(2,0,0,2,-337.5444,786.78394)"
       id="g2941"
       style="stroke-width:2;stroke-miterlimit:4;stroke-dasharray:none">
      <path
         id="path2914"
         style="fill:none;stroke:#00ff00;stroke-width:2;stroke-linecap:butt;stroke-linejoin:miter;stroke-miterlimit:4;stroke-opacity:1;stroke-dasharray:none"
         d="m 264.52427,95.80081 c 0,0 39.24793,-13.01169 39.24793,-13.01169 L 264.60386,69.02343 c 0,0 -0.0796,26.77738 -0.0796,26.77738 l 10e-6,0 z"
         sodipodi:nodetypes="ccccc" />
      <g
         id="g2936"
         style="stroke-width:2;stroke-miterlimit:4;stroke-dasharray:none">
        <path
           id="path2918"
           style="color:#000000;fill:none;stroke:#0000ff;stroke-width:2;stroke-linecap:butt;stroke-linejoin:bevel;stroke-miterlimit:4;stroke-opacity:1;stroke-dasharray:none;stroke-dashoffset:0;marker:none;visibility:visible;display:inline;overflow:visible;enable-background:accumulate"
           d="m 273.83282,88.55378 -7.30791,-12.283319 m 0,12.283319 7.30791,-12.283319"
           sodipodi:nodetypes="cccc" />
        <path
           sodipodi:nodetypes="cccc"
           d="m 283.11077,88.55378 -7.3079,-12.283319 m 0,12.283319 7.3079,-12.283319"
           style="color:#000000;fill:none;stroke:#0000ff;stroke-width:2;stroke-linecap:butt;stroke-linejoin:bevel;stroke-miterlimit:4;stroke-opacity:1;stroke-dasharray:none;stroke-dashoffset:0;marker:none;visibility:visible;display:inline;overflow:visible;enable-background:accumulate"
           id="path2930" />
        <path
           sodipodi:nodetypes="cccc"
           d="m 262.31454,88.55378 -7.3079,-12.283319 m 0,12.283319 7.3079,-12.283319"
           style="color:#000000;fill:none;stroke:#0000ff;stroke-width:2;stroke-linecap:butt;stroke-linejoin:bevel;stroke-miterlimit:4;stroke-opacity:1;stroke-dasharray:none;stroke-dashoffset:0;marker:none;visibility:visible;display:inline;overflow:visible;enable-background:accumulate"
           id="path2934" />
      </g>
    </g>
  </g>
</svg>
