<?xml version="1.0" encoding="UTF-8" standalone="no"?>
<!-- Created with Inkscape (http://www.inkscape.org/) -->

<svg
   xmlns:dc="http://purl.org/dc/elements/1.1/"
   xmlns:cc="http://creativecommons.org/ns#"
   xmlns:rdf="http://www.w3.org/1999/02/22-rdf-syntax-ns#"
   xmlns:svg="http://www.w3.org/2000/svg"
   xmlns="http://www.w3.org/2000/svg"
   xmlns:sodipodi="http://sodipodi.sourceforge.net/DTD/sodipodi-0.dtd"
   xmlns:inkscape="http://www.inkscape.org/namespaces/inkscape"
   width="480"
   height="320"
   id="svg2"
   version="1.1"
   inkscape:version="0.47 r22583"
   sodipodi:docname="itnas194.svg"
   inkscape:export-xdpi="90"
   inkscape:export-ydpi="90"
   inkscape:export-filename="itnas194.png">
  <defs
     id="defs4" />
  <sodipodi:namedview
     id="base"
     pagecolor="#ffffff"
     bordercolor="#666666"
     borderopacity="1.0"
     inkscape:pageopacity="1"
     inkscape:pageshadow="2"
     inkscape:zoom="1"
     inkscape:cx="300.29459"
     inkscape:cy="142.92049"
     inkscape:document-units="px"
     inkscape:current-layer="layer1"
     showgrid="false"
     inkscape:snap-nodes="true"
     inkscape:snap-global="false"
     inkscape:snap-grids="true"
     showguides="true"
     inkscape:window-width="1280"
     inkscape:window-height="774"
     inkscape:window-x="1276"
     inkscape:window-y="1020"
     inkscape:window-maximized="1">
    <inkscape:grid
       empspacing="5"
       visible="true"
       enabled="true"
       snapvisiblegridlinesonly="true"
       type="xygrid"
       id="grid2816" />
  </sodipodi:namedview>
  <metadata
     id="metadata7">
    <rdf:RDF>
      <cc:Work
         rdf:about="">
        <dc:format>image/svg+xml</dc:format>
        <dc:type
           rdf:resource="http://purl.org/dc/dcmitype/StillImage" />
        <dc:title></dc:title>
      </cc:Work>
    </rdf:RDF>
  </metadata>
  <g
     inkscape:label="Layer 1"
     inkscape:groupmode="layer"
     id="layer1"
     transform="translate(0,0)">
    <path
       style="color:#000000;fill:none;stroke:#c87137;stroke-width:4;stroke-linecap:round;stroke-linejoin:round;stroke-miterlimit:4;stroke-opacity:1;stroke-dasharray:none;stroke-dashoffset:0;marker:none;visibility:visible;display:inline;overflow:visible;enable-background:accumulate"
       d="m 73.539105,134.73803 c 3.300645,-0.0871 6.628625,0.13881 9.899495,0 5.23625,-3.71135 12.53023,-0.53365 16.99856,-5.258 6.22726,-4.26815 3.31264,-16.20591 5.71653,-23.34953 2.80392,-10.18722 3.65664,-19.098014 4.06996,-29.354309 -0.24962,-9.014446 4.08625,-18.692584 3.62054,-27.722652 0,-30.599771 2.12132,-25.137097 2.12132,-55.736869"
       id="path3230"
       sodipodi:nodetypes="ccccccc" />
    <path
       sodipodi:nodetypes="ccccccc"
       id="path3241"
       d="m 212.16706,136.15225 c -3.30065,-0.0871 -6.62862,0.13881 -9.89949,0 -5.23625,-3.71135 -12.53024,-0.53365 -16.99857,-5.258 -6.22726,-4.26815 -4.01974,-16.91302 -6.42363,-24.05664 0.73161,-10.89433 -0.82821,-19.098017 1.58689,-29.354312 0.24962,-9.014446 -1.96493,-17.27837 -3.62054,-27.722652 0,-30.599771 0,-23.722883 0,-54.3226556"
       style="color:#000000;fill:none;stroke:#c87137;stroke-width:4;stroke-linecap:round;stroke-linejoin:round;stroke-miterlimit:4;stroke-opacity:1;stroke-dasharray:none;stroke-dashoffset:0;marker:none;visibility:visible;display:inline;overflow:visible;enable-background:accumulate" />
    <path
       style="color:#000000;fill:none;stroke:#008000;stroke-width:4;stroke-linecap:butt;stroke-linejoin:miter;stroke-miterlimit:4;stroke-opacity:1;stroke-dasharray:none;stroke-dashoffset:0;marker:none;visibility:visible;display:inline;overflow:visible;enable-background:accumulate"
       d="m 512.3556,141.51119 c -14.85566,-0.88338 -31.74913,4.52256 -48,1 -18.24713,-1.31484 -31.35922,-5.66093 -49,-7 -15.08464,-0.70412 -27.34135,2.27997 -41.14903,1.29165 -21.58102,1.0372 -43.27606,2.8392 -65.02775,2.70835 -21.71067,2.51124 -40.7299,3.11223 -61.42249,0.0555 -34.35217,-2.38333 -48.61404,3.06949 -73.40073,-0.0555 -19.98378,-2.98315 -38.04719,4.35479 -57.66908,3 -16.64996,-0.33966 -33.28518,-4.39802 -49.83092,-3.5 -18.40515,2.80193 -34.54511,1.89781 -52.39934,2.5 -12.42187,0.53712 -24.62844,-0.50848 -36.75472,-3.02291"
       id="path2949"
       sodipodi:nodetypes="ccccccccccc" />
    <path
       style="fill:none;stroke:#0000ff;stroke-width:4;stroke-linecap:round;stroke-linejoin:round;stroke-miterlimit:4;stroke-opacity:1;stroke-dasharray:none"
       d="m 250.60925,209.27042 c 3.25631,-5.6673 6.1501,-11.69633 10.87544,-16.40275 4.08312,-6.3885 10.23622,-11.45152 13.72495,-18.13005 6.68629,-3.64809 8.92888,-11.34969 14.98602,-15.69662 3.94644,-3.7822 6.22948,-7.53277 10.87733,-10.85207 1.24375,-1.90441 3.6239,-1.88518 -1.30613,-0.0387"
       id="path2909-1" />
    <path
       style="fill:none;stroke:#0000ff;stroke-width:4;stroke-linecap:round;stroke-linejoin:round;stroke-miterlimit:4;stroke-opacity:1;stroke-dasharray:none"
       d="m 189.08187,173.82426 c -0.36121,-4.61313 -1.55427,-7.12909 -3.79401,-9.14121 -3.32711,-3.37432 -3.92857,-3.6737 -7.78115,-7.57796 -3.85902,-0.76954 -6.58255,-3.43016 -10.93497,-3.37963 -6.78517,-2.51686 -12.93213,1.54267 -16.45898,6.39857 -2.6679,3.23563 -5.58694,6.1451 -5.90351,10.54785 -0.22248,3.10899 -1.53468,6.45278 -0.89262,9.37556 3.24056,3.87007 3.82852,9.50289 6.84168,11.97057 3.6329,0.78805 7.002,5.69643 10.85068,5.0603 3.96486,-1.15181 7.85392,0.74193 14.62873,0.15922 2.82897,-1.1961 6.15437,-2.8641 6.94292,-4.82914 1.53707,-1.10456 2.37389,-3.11294 3.62684,-4.70342 2.56983,-4.20652 0.68496,-8.90017 2.87439,-13.88071 z"
       id="path2905-7"
       sodipodi:nodetypes="cccccsccccccc" />
    <path
       style="fill:none;stroke:#0000ff;stroke-width:4;stroke-linecap:round;stroke-linejoin:round;stroke-miterlimit:4;stroke-opacity:1;stroke-dasharray:none"
       d="m 189.56721,185.64042 c 3.88559,3.26873 11.00377,2.90619 11.98875,5.09481 7.50705,1.94385 14.64786,5.30264 22.17331,7.14562 6.61234,1.20151 12.26652,4.77832 18.06322,6.98815 2.65258,1.50667 5.30499,3.01322 7.95739,4.51975"
       id="path2907-4" />
    <path
       style="fill:none;stroke:#0000ff;stroke-width:4;stroke-linecap:round;stroke-linejoin:round;stroke-miterlimit:4;stroke-opacity:1;stroke-dasharray:none"
       d="m 250.8748,209.04803 c 3.48328,-2.6497 10.89851,-8.81227 16.1855,-12.81524 5.96169,-6.4076 13.52389,-9.01388 19.63645,-15.0156 5.88787,-3.05063 10.693,-7.02799 16.19146,-11.52393 3.74733,-2.22074 7.16021,-10.1321 9.27606,-10.33689 0.53044,-0.2157 3.41601,-3.87939 1.27852,-2.34864"
       id="path2881-0" />
    <path
       id="path2911-4"
       style="fill:none;stroke:#0000ff;stroke-width:4;stroke-linecap:round;stroke-linejoin:round;stroke-miterlimit:4;stroke-opacity:1;stroke-dasharray:none"
       d="m 113.89056,192.45065 c 11.06334,-0.87859 19.5099,2.48862 27.43137,1.4086 12.61675,1.06189 19.16534,-1.21368 27.24779,-0.45316 5.60936,-0.91363 11.06473,-1.12148 19.28881,-3.18718 2.04759,0.36335 3.40544,-0.44122 7.73132,-1.01616 -0.84155,-0.5947 -1.07316,-4.30493 -3.02041,-5.14575 -7.48936,-3.23391 -16.0213,-8.3843 -28.58795,-13.79769 -11.04945,-3.81828 -17.09023,-7.69111 -31.07213,-12.61804 -2.32438,-1.59245 -8.71906,-2.81875 -11.92252,-5.35962"
       sodipodi:nodetypes="cccccsccc" />
    <path
       style="fill:none;stroke:#80ff00;stroke-width:3.99999976;stroke-linecap:round;stroke-linejoin:round;stroke-miterlimit:4;stroke-opacity:1;stroke-dasharray:none"
       d="m 291.86647,252.74712 c -0.117,-3.6792 5.47929,1.59014 5.153,-2.76711 3.45807,-4.38855 9.65475,-4.85697 13.0312,-9.37083 2.89912,-2.36255 6.94447,-2.84314 9.78253,-5.30375 3.07134,-2.45758 6.84487,-3.56419 10.55751,-4.80211 3.15622,-1.24074 5.81427,-3.29452 8.79241,-4.81399 1.38604,-2.71568 3.7898,-3.38928 5.36354,-5.97182 1.91208,-3.10465 6.19354,-3.32737 7.52789,-7.12634 -1.00177,-1.4898 -4.82288,-1.5367 -6.93586,-2.45959 -6.06069,-1.68768 -12.12189,-3.37912 -18.18199,-5.05875 -3.56638,0.0848 -7.61872,-1.68561 -10.72853,-0.10759 -2.83136,0.49801 -5.98834,-0.41808 -8.94601,-0.53622 -3.34929,-0.53223 -7.12359,-0.79326 -10.55652,-0.96561 -3.61765,-0.58573 -7.15466,-0.61343 -10.8798,-1.99871 -2.91922,-1.07895 -6.59007,-2.37454 -5.54682,2.39681 0.0125,3.4394 2.65688,6.87866 2.65436,10.33824 1.04394,3.98753 0.96785,7.85217 3.3971,11.94812 0.63543,4.13802 2.2958,8.62267 2.14781,12.60791 1.26672,3.64428 1.65351,7.44994 2.33287,10.99832 0.0452,0.87551 -0.16169,2.53464 1.03525,2.9924 z"
       id="path2942" />
    <path
       style="fill:none;stroke:#80ff00;stroke-width:3.99999952;stroke-linecap:round;stroke-linejoin:round;stroke-miterlimit:4;stroke-opacity:1;stroke-dasharray:none"
       d="m 314.4407,216.82696 c 0.64086,6.87187 5.12512,16.28845 6.57112,24.77442 0.44234,3.34608 3.08058,12.40314 0.57714,12.82993 -7.56569,1.28978 -21.35785,6.40539 -29.52556,9.65958 -4.59299,0.92839 -23.76003,4.72665 -13.46957,-2.35491 8.21277,-2.08976 18.13082,-5.14163 26.90862,-8.10365 10.39838,-3.11873 9.31701,-4.35707 6.93476,-18.29303 -2.07806,-8.81603 -3.56368,-14.91512 -4.31608,-21.22673"
       id="path2956"
       inkscape:transform-center-y="-30.026362"
       inkscape:transform-center-x="-26.311455"
       sodipodi:nodetypes="ccsccccc" />
    <path
       style="fill:none;stroke:#80ff00;stroke-width:3.99999952;stroke-linecap:round;stroke-linejoin:round;stroke-miterlimit:4;stroke-opacity:1;stroke-dasharray:none"
       d="m 446.53794,195.72671 c -0.51589,1.48124 -3.28803,9.4396 -4.66178,13.38309 -4.46512,12.39176 -12.79401,16.71895 -21.36229,31.77944 -3.55041,8.85884 -15.32609,25.87216 -18.03664,30.44244 -2.70673,-9.15024 -4.96262,-18.52 -7.78021,-27.60883 -3.18851,-14.22412 -9.42576,-26.68507 -21.84865,-35.60014 -1.63795,-0.89002 -3.62332,-2.9479 -4.90011,-6.3343"
       id="path2958"
       sodipodi:nodetypes="ccccccc" />
    <path
       style="color:#000000;fill:none;stroke:#80ff00;stroke-width:4;stroke-linecap:round;stroke-linejoin:round;stroke-miterlimit:4;stroke-opacity:1;stroke-dasharray:none;stroke-dashoffset:0;marker:none;visibility:visible;display:inline;overflow:visible;enable-background:accumulate"
       d="m 284.61963,227.80549 c -6.72216,1.24591 -11.23448,5.29196 -14.05153,12.04299 -2.92327,7.00559 -2.31781,16.65486 2.41459,22.79021 5.21239,6.75779 16.90699,13.39027 26.3401,12.3999 11.78287,-1.2371 22.40741,-4.45734 34.38924,-5.40923 14.60966,-1.16088 29.57606,0.91023 44.38798,1.67686 7.44826,0.38546 14.73171,1.40797 22.26274,1.21146 5.78389,-0.1509 17.95681,1.59926 23.59587,-0.85036"
       id="path2833"
       sodipodi:nodetypes="csssssss" />
    <path
       id="path2916"
       d="m 217.74935,134.63304 c 8.16575,-2.96571 16.60357,-5.67089 23.79818,-10.13434 9.25835,-5.06162 18.90168,-9.92666 27.67836,-15.52355 6.04807,-3.15848 21.84283,-9.945219 9.00351,-7.88421 -8.93295,-0.43689 -18.68504,8.66543 -28.48497,10.2418 -9.99244,1.49591 -20.62369,2.91216 -30.45436,3.12941 -3.25622,-0.44475 -4.96939,-1.17859 -7.17921,-1.38673"
       style="fill:none;stroke:#80ff00;stroke-width:3.99999952;stroke-linecap:round;stroke-linejoin:round;stroke-miterlimit:4;stroke-opacity:1;stroke-dasharray:none"
       sodipodi:nodetypes="ccccccc" />
    <path
       id="path2918"
       d="m 332.74201,133.20727 c 1.43159,-0.0417 9.12305,-0.26601 12.93429,-0.37718 9.64538,-0.0573 13.99391,-1.68959 17.85995,-2.26165 7.17987,-0.84089 17.39689,-11.64382 21.37062,-16.58648 6.41055,-3.48368 7.27466,-5.66598 10.79996,-8.51583 -8.93882,3.40453 -18.45402,4.67038 -28.4216,7.541 -8.34324,4.01627 -20.37159,5.12172 -33.24512,5.79849 -2.38307,-0.0261 -7.327,-0.73751 -10.67903,-0.22616"
       style="fill:none;stroke:#80ff00;stroke-width:3.99999952;stroke-linecap:round;stroke-linejoin:round;stroke-miterlimit:4;stroke-opacity:1;stroke-dasharray:none"
       sodipodi:nodetypes="cccccccc" />
    <path
       sodipodi:nodetypes="csssssss"
       id="path2920"
       d="m 252.54691,101.69022 c 4.6755,-2.239627 12.0048,-3.877169 17.85461,-3.738313 6.07109,0.144798 12.08448,1.150355 18.22513,1.996892 6.76362,0.932341 15.65822,1.208831 23.20183,2.028171 9.42268,1.0234 17.91304,3.62997 27.49573,4.42578 11.68432,0.97051 23.66328,-0.64352 35.51495,-1.21443 5.95967,-0.28704 11.79103,-1.13483 17.81354,-0.90544 4.64566,0.17696 14.93444,2.65179 18.15931,3.07882"
       style="color:#000000;fill:none;stroke:#80ff00;stroke-width:4;stroke-linecap:round;stroke-linejoin:round;stroke-miterlimit:4;stroke-opacity:1;stroke-dasharray:none;stroke-dashoffset:0;marker:none;visibility:visible;display:inline;overflow:visible;enable-background:accumulate" />
    <path
       style="color:#000000;fill:none;stroke:#80ff00;stroke-width:3.99999976;stroke-linecap:round;stroke-linejoin:round;stroke-miterlimit:4;stroke-opacity:1;stroke-dasharray:none;stroke-dashoffset:0;marker:none;visibility:visible;display:inline;overflow:visible;enable-background:accumulate"
       d="m 424.20695,271.67756 c 11.37242,-5.37968 63.19722,-7.54828 48.72108,-43.62846 -7.42685,-18.51061 -31.6147,-37.85344 -54.50241,-43.59476 -29.63951,0.44853 -35.7655,-4.45355 -61.06883,-9.87934 -22.76398,0.67022 -26.36335,3.73808 -65.75834,12.49983 -28.14568,14.62617 -44.73922,36.77868 -49.57578,64.46756"
       id="path4125-8"
       sodipodi:nodetypes="cscccs" />
    <path
       style="color:#000000;fill:none;stroke:#80ff00;stroke-width:3.99999952;stroke-linecap:round;stroke-linejoin:round;stroke-miterlimit:4;stroke-opacity:1;stroke-dasharray:none;stroke-dashoffset:0;marker:none;visibility:visible;display:inline;overflow:visible;enable-background:accumulate"
       d="m 694.23211,207.64641 c -0.007,0.0111 -39.88118,-4.16768 -55.40277,-16.56626 -8.06815,-3.23561 -40.09285,-21.81539 -57.43469,-27.29694 -21.69117,-5.63662 -24.72093,-11.06455 -38.32177,-16.93896 -15.79127,-6.82049 -18.23,-2.15552 -32.82606,-2.16257 -11.45526,-0.006 -24.84573,-2.27471 -45.18731,-10.22545 -17.76616,-1.35022 -35.43754,-21.60769 -54.23884,-27.102"
       id="path4125-8-8"
       sodipodi:nodetypes="cccsscs" />
    <path
       style="color:#000000;fill:none;stroke:#80ff00;stroke-width:3.99999976;stroke-linecap:round;stroke-linejoin:round;stroke-miterlimit:4;stroke-opacity:1;stroke-dasharray:none;stroke-dashoffset:0;marker:none;visibility:visible;display:inline;overflow:visible;enable-background:accumulate"
       d="m 243.44227,75.722456 c -2.25819,-1.459681 -8.09018,6.48964 -11.83954,9.03205 -3.04704,2.066272 -6.48711,3.667847 -9.23105,6.027609 -3.04342,2.61748 -5.68053,5.674513 -8.84731,8.152876 -4.75365,3.720479 -9.94705,6.980359 -15.00408,10.366009 -2.47239,1.65515 -5.5119,2.14331 -7.26667,4.46181 -2.1785,2.88056 -8.41544,5.21105 -7.54379,7.6597 0.81029,2.27629 6.93098,1.00306 10.03504,2.61919 9.97666,5.19411 14.56966,2.73873 21.76024,2.70789 5.07587,-0.0219 9.40441,-1.77493 14.41904,-1.34056 5.49924,0.47657 10.69798,2.62046 16.19625,3.16735 3.4597,0.34424 6.75314,-0.42712 10.15043,-0.30528 5.07746,0.18205 0.81814,-4.29671 -0.0682,-6.26453 -1.64044,-3.64213 -2.55777,-7.48935 -3.98851,-11.19238 -1.23652,-3.20043 -0.93857,-6.73769 -2.49034,-9.95069 -1.67766,-3.473545 -3.45838,-7.044486 -4.25138,-10.748022 -0.75923,-3.545765 -1.29286,-7.186022 -1.58914,-10.824829 -0.14552,-1.787868 0.69894,-2.831306 -0.441,-3.568193 z"
       id="path2870"
       sodipodi:nodetypes="csssssssssssssssss" />
    <path
       sodipodi:nodetypes="ccccccccccc"
       id="path3641"
       d="m -19.113372,284.69163 c 14.870805,0.57461 31.648336,-5.18108 47.968871,-1.99685 18.270505,0.93553 31.470044,5.00831 49.134831,5.98065 13.28754,3.71385 27.70956,0.50653 41.53657,1.20457 21.55483,-1.48445 43.81048,-1.40817 64.35747,-7.40556 20.2014,-4.35498 41.40366,-2.03571 62.07465,-3.29014 34.06759,5.29391 48.06365,-0.62019 72.85468,-1.51368 18.90966,4.83796 38.05895,-2.6235 57.63586,-2.1977 16.65343,-0.006 33.28461,3.46582 49.44491,4.974 17.29166,2.70674 34.92034,-4.97999 52.78406,-6.09776 12.40804,-0.79504 24.63369,-0.003 36.80959,2.25878"
       style="color:#000000;fill:none;stroke:#008000;stroke-width:4;stroke-linecap:butt;stroke-linejoin:miter;stroke-miterlimit:4;stroke-opacity:1;stroke-dasharray:none;stroke-dashoffset:0;marker:none;visibility:visible;display:inline;overflow:visible;enable-background:accumulate" />
    <path
       style="fill:none;stroke:#0000ff;stroke-width:3.99999952;stroke-linecap:round;stroke-linejoin:round;stroke-miterlimit:4;stroke-opacity:1;stroke-dasharray:none"
       d="m 109.59709,31.588665 c -5.97549,0.02469 -11.001246,2.898047 -13.978066,5.341133 -4.66256,3.38784 -6.29215,4.272783 -8.97683,9.796799 -1.71788,4.73036 -5.60819,7.659867 -6.38417,13.172408 -3.18597,7.42147 1.60302,14.006588 5.48666,20.213418 3.57712,3.997977 6.3604,9.31885 11.86722,10.569433 3.888876,0.88171 7.864416,3.186549 11.684606,2.939291 5.5196,-3.349609 14.55601,-2.489635 18.25821,-5.822569 4.04697,-3.323581 9.1302,-11.069844 11.12576,-15.286078 2.09088,-6.712078 -2.38559,-15.610365 -3.03705,-20.35567 -1.81542,-3.21835 -5.97084,-12.540279 -7.74044,-14.431551 -4.82389,-4.061492 -12.00171,-3.780241 -18.3059,-6.136612 z"
       id="path2905"
       sodipodi:nodetypes="cccccscccccc" />
    <path
       style="fill:none;stroke:#0000ff;stroke-width:3.99999976;stroke-linecap:round;stroke-linejoin:round;stroke-miterlimit:4;stroke-opacity:1;stroke-dasharray:none"
       d="m 98.698074,93.838323 c -1.20522,6.971027 -7.37437,13.892247 -6.83157,16.912027 -5.05519,9.44185 -8.92205,19.81371 -14.05553,29.18143 -4.77124,7.8462 -7.2609,16.90362 -10.72222,24.84724 -1.27486,4.09132 -2.54965,8.18237 -3.824444,12.27344"
       id="path2907" />
    <path
       id="path2909"
       style="fill:none;stroke:#0000ff;stroke-width:3.99999976;stroke-linecap:round;stroke-linejoin:round;stroke-miterlimit:4;stroke-opacity:1;stroke-dasharray:none"
       d="m 103.99449,281.8136 c 0.0248,7.27606 0.88196,4.43248 -0.49717,1.53993 -1.52985,-8.01945 -4.304616,-13.5162 -6.523276,-21.03341 -2.0139,-10.46658 -8.57344,-18.81774 -9.69868,-29.52613 -5.14406,-9.0957 -7.8075,-20.20349 -12.46533,-29.79974 -2.82626,-9.13153 -7.56014,-17.03566 -11.821105,-25.10932 -3.49883,9.59582 -7.55414,20.92392 -10.60809,28.45079 -2.65612,11.15192 -8.32148,17.52898 -11.28106,28.16395 -3.98628,6.40222 -6.62078,13.72027 -9.65846,22.0165 -2.42096,4.46754 -2.17703,16.82185 -3.98021,17.86831 -0.38371,0.49353 -1.43549,6.68243 -0.16439,3.76266"
       sodipodi:nodetypes="ccccccccccc" />
    <path
       style="fill:none;stroke:#0000ff;stroke-width:3.99999976;stroke-linecap:round;stroke-linejoin:round;stroke-miterlimit:4;stroke-opacity:1;stroke-dasharray:none"
       d="m 169.89034,165.22927 c -11.16688,-9.96721 -22.45361,-20.2379 -33.42395,-30.30614 -8.57977,-6.15795 -16.74477,-22.68631 -24.12152,-31.12964 -3.32808,-2.28299 -12.21557,-19.059581 -12.22666,-8.673382 0.40592,13.443542 3.27781,22.690572 4.59806,30.798242 2.19311,13.41663 7.76149,27.99577 7.02558,39.15196 -0.12298,6.5137 -0.0606,11.99752 0.38334,19.07029 0.6668,3.94709 -1.24505,6.03954 0.20315,10.1023"
       id="path2911"
       sodipodi:nodetypes="cccccccc" />
  </g>
</svg>
