<?xml version="1.0" encoding="UTF-8" standalone="no"?>
<!-- Created with Inkscape (http://www.inkscape.org/) -->

<svg
   xmlns:dc="http://purl.org/dc/elements/1.1/"
   xmlns:cc="http://creativecommons.org/ns#"
   xmlns:rdf="http://www.w3.org/1999/02/22-rdf-syntax-ns#"
   xmlns:svg="http://www.w3.org/2000/svg"
   xmlns="http://www.w3.org/2000/svg"
   xmlns:sodipodi="http://sodipodi.sourceforge.net/DTD/sodipodi-0.dtd"
   xmlns:inkscape="http://www.inkscape.org/namespaces/inkscape"
   inkscape:export-ydpi="90"
   inkscape:export-xdpi="90"
   sodipodi:docname="itnas053.svg"
   inkscape:version="0.47 r22583"
   version="1.1"
   id="svg2"
   height="320"
   width="480"
   inkscape:export-filename="itnas053.png">
  <defs
     id="defs4" />
  <sodipodi:namedview
     id="base"
     pagecolor="#ffffff"
     bordercolor="#666666"
     borderopacity="1.0"
     inkscape:pageopacity="1"
     inkscape:pageshadow="2"
     inkscape:zoom="1"
     inkscape:cx="232.56556"
     inkscape:cy="124.36002"
     inkscape:document-units="px"
     inkscape:current-layer="layer1"
     showgrid="false"
     inkscape:snap-nodes="true"
     inkscape:snap-global="false"
     inkscape:snap-grids="true"
     showguides="true"
     inkscape:window-width="1280"
     inkscape:window-height="774"
     inkscape:window-x="-4"
     inkscape:window-y="-4"
     inkscape:window-maximized="1">
    <inkscape:grid
       empspacing="5"
       visible="true"
       enabled="true"
       snapvisiblegridlinesonly="true"
       type="xygrid"
       id="grid2816" />
  </sodipodi:namedview>
  <metadata
     id="metadata7">
    <rdf:RDF>
      <cc:Work
         rdf:about="">
        <dc:format>image/svg+xml</dc:format>
        <dc:type
           rdf:resource="http://purl.org/dc/dcmitype/StillImage" />
        <dc:title></dc:title>
      </cc:Work>
    </rdf:RDF>
  </metadata>
  <g
     inkscape:label="Layer 1"
     inkscape:groupmode="layer"
     id="layer1"
     transform="translate(0,0)">
    <path
       style="fill:none;stroke:#008000;stroke-width:4;stroke-linecap:butt;stroke-linejoin:miter;stroke-miterlimit:4;stroke-opacity:1;stroke-dasharray:none"
       d="m 500.6316,274.74517 c -32.14482,-5.70476 -65.03398,-1.49052 -97.50784,-2.83766 -28.75232,-0.18161 -57.60066,-0.80843 -86.05526,3.81628 -48.72352,2.57064 -97.57209,0.38302 -146.34828,1.14275 -30.02432,-0.0625 -60.05363,0.63287 -89.975943,-1.54819 -21.38344,-0.89459 -43.57746,3.06322 -64.37741,-3.18896 -11.14672,-1.68394 -21.84356,-7.38227 -33.33743,-6.57661"
       id="path4190" />
    <path
       style="fill:none;stroke:#0000ff;stroke-width:3.99999976;stroke-linecap:round;stroke-linejoin:round;stroke-miterlimit:4;stroke-opacity:1;stroke-dasharray:none"
       d="m 398.20994,194.76055 c -1.51243,-1.92073 -1.6904,-2.13793 -2.59413,-4.63354 -0.61412,-1.69584 -0.68421,-3.49879 -0.56698,-5.65593 0.16877,-3.10516 2.41081,-5.88668 4.75043,-7.49583 1.75363,-1.20615 3.55095,-2.1929 5.73027,-1.95776 1.5389,0.16605 3.52522,-0.57878 4.66258,0.39304 1.7926,1.53169 4.23302,1.6713 5.88989,4.44899 0.86518,1.45047 0.0753,3.67254 0.10091,5.48355 0.0386,2.7242 0.48786,5.18086 -0.29122,7.51781 -0.45128,1.3537 -1.89592,2.9113 -2.99959,3.45553 -0.79367,0.39137 -3.33242,1.23666 -4.25804,1.629 -2.28094,0.96686 -4.25574,1.64138 -6.64568,0.34223 -2.71882,-1.47794 -2.03758,-1.31627 -3.77844,-3.52709 z"
       id="path2905"
       sodipodi:nodetypes="cssssssssssss" />
    <path
       style="fill:none;stroke:#0000ff;stroke-width:4;stroke-linecap:round;stroke-linejoin:round;stroke-miterlimit:4;stroke-opacity:1;stroke-dasharray:none"
       d="m 404.19648,200.06392 c -0.84121,2.3954 0.58775,5.66009 -0.26146,6.50798 0.4191,3.85452 0.11173,7.78826 0.58126,11.63354 0.60799,3.30487 -0.0646,6.58187 -0.0727,9.68372 -0.23528,1.50699 -0.47056,3.01397 -0.70585,4.52094"
       id="path2907" />
    <path
       id="path2909"
       style="fill:none;stroke:#0000ff;stroke-width:4;stroke-linecap:round;stroke-linejoin:round;stroke-miterlimit:4;stroke-opacity:1;stroke-dasharray:none"
       d="m 405.00155,233.33783 c 1.14012,1.85487 3.4765,6.05486 5.21021,8.86122 1.62618,4.07611 4.6474,6.58862 6.41335,10.49442 2.17503,2.44788 3.69178,5.16172 5.43703,8.24053 1.3359,1.6924 1.53026,6.06851 2.46663,6.51902 0.20614,0.19203 0.89561,2.43572 0.17957,1.34323 m -20.57785,-37.164 c -1.94173,2.68016 -4.12629,5.27947 -5.3171,8.39819 -2.10279,3.20341 -3.16077,7.03095 -5.52158,10.03546 -0.29246,3.75306 -3.38639,6.43118 -4.1332,10.05942 -0.92593,2.57209 -2.18418,4.40238 -2.74977,7.1829 -0.6213,0.96674 -0.11571,2.01391 -0.29036,-0.56853" />
    <g
       id="g4230"
       transform="translate(-11.313709,-9.8994949)">
      <path
         sodipodi:nodetypes="csssssscc"
         id="path4202"
         d="m 38.671573,25.944544 c -5.430479,7.450879 -9.310018,7.388925 -14.729121,14.724258 -7.115345,9.631376 -1.570906,23.289283 5.079989,31.916876 7.192509,9.330178 20.752507,5.816368 30.547182,5.260564 8.004509,-0.45422 10.902131,-6.975949 16.295781,-6.648434 6.003807,0.364567 6.973067,-11.28078 7.082161,-19.052076 C 83.067723,43.58623 84.88679,32.72173 76.184121,27.314266 68.375262,22.462176 60.371218,17.763541 50.784197,17.639118 46.123264,18.55518 37.505395,20.182367 38.671573,25.944544 z"
         style="fill:none;stroke:#ffff00;stroke-width:4;stroke-linecap:round;stroke-linejoin:round;stroke-miterlimit:4;stroke-opacity:1;stroke-dasharray:none" />
      <path
         id="path4215"
         d="M 31,81 C 28.148613,84.553942 24.105327,87.346267 24.536612,92.015165 21.832544,96.043458 21.188425,100.66969 20,105 c -1.284479,-0.52275 -1.919186,3.77422 -2,5"
         style="fill:none;stroke:#ffff00;stroke-width:4;stroke-linecap:round;stroke-linejoin:round;stroke-miterlimit:4;stroke-opacity:1;stroke-dasharray:none" />
      <path
         id="path4217"
         d="m 53.280734,83.999998 c 4.109561,4.16047 0.225882,10.218352 3.166602,14.792056 1.215413,5.697486 7.524659,9.190686 6.531011,15.084746 L 62.937021,115"
         style="fill:none;stroke:#ffff00;stroke-width:4;stroke-linecap:round;stroke-linejoin:round;stroke-miterlimit:4;stroke-opacity:1;stroke-dasharray:none" />
      <path
         id="path4219"
         d="m 76,78 c 3.400595,3.924314 5.608335,9.266142 10.25064,12 2.62092,4.847886 4.316418,10.49689 8.888485,13.99058 2.816275,3.7582 6.029785,7.79196 9.904355,10.00942"
         style="fill:none;stroke:#ffff00;stroke-width:4;stroke-linecap:round;stroke-linejoin:round;stroke-miterlimit:4;stroke-opacity:1;stroke-dasharray:none" />
      <path
         id="path4221"
         d="m 90,56.987967 c 14.33334,0.01397 28.66662,0.07609 43,0.05204"
         style="fill:none;stroke:#ffff00;stroke-width:4;stroke-linecap:round;stroke-linejoin:round;stroke-miterlimit:4;stroke-opacity:1;stroke-dasharray:none" />
      <path
         id="path4223"
         d="m 86.000002,33 c 5.268561,-0.876096 9.823061,-4.205192 14.951108,-4.876265 4.62153,1.300794 7.8844,-3.002146 12.17425,-3.773924 C 115.24759,22.885947 120.60982,23.2369 120.85644,21"
         style="fill:none;stroke:#ffff00;stroke-width:4;stroke-linecap:round;stroke-linejoin:round;stroke-miterlimit:4;stroke-opacity:1;stroke-dasharray:none" />
    </g>
    <path
       style="color:#000000;fill:none;stroke:#0000ff;stroke-width:4;stroke-linecap:round;stroke-linejoin:round;stroke-miterlimit:4;stroke-opacity:1;stroke-dasharray:none;stroke-dashoffset:0;marker:none;visibility:visible;display:inline;overflow:visible;enable-background:accumulate"
       d="m 421.72129,231.57669 c -1.73471,-3.25986 -3.38587,-6.65723 -5.88809,-9.2494 -3.18586,-3.30037 -4.83848,-7.93742 -7.37349,-11.81831 -1.10329,-1.68904 -1.5476,-3.75097 -2.15014,-5.72522 -0.45532,-1.49188 -1.83199,-4.57831 -2.80326,-4.08907 -1.11747,0.56289 -4.81416,9.08729 -6.92993,11.45087 -5.78113,6.45828 -7.40535,3.55267 -13.25406,7.26392 -2.94592,1.8693 -3.73242,5.19071 -6.7959,6.79557"
       id="path2831"
       sodipodi:nodetypes="csssssss" />
    <path
       style="fill:none;stroke:#80ff00;stroke-width:3.99999976;stroke-linecap:round;stroke-linejoin:round;stroke-miterlimit:4;stroke-opacity:1;stroke-dasharray:none"
       d="m 335.20271,183.72081 c 0.63829,1.76144 2.28323,-1.52213 2.95069,0.59024 2.45727,1.59684 5.46668,0.95054 7.90913,2.61825 1.81196,0.7142 3.8095,0.37524 5.61114,1.14455 1.91103,0.73519 3.89846,0.73117 5.88193,0.79794 1.72169,0.14614 3.36179,0.74772 5.05209,1.05102 1.16522,1.09378 2.42531,1.07638 3.65393,2.08072 1.48654,1.20453 3.54679,0.71016 4.89183,2.32498 -0.19144,0.84701 -1.98388,1.40479 -2.806,2.13863 -2.53892,1.64988 -5.07737,3.30159 -7.61753,4.94757 -1.69718,0.4596 -3.27379,1.86724 -5.03716,1.55462 -1.42858,0.1606 -2.74414,1.03755 -4.1161,1.50811 -1.47854,0.72183 -3.20856,1.3746 -4.79437,1.93747 -1.59497,0.78483 -3.25709,1.29368 -4.75203,2.47278 -1.17277,0.92088 -2.65902,2.04984 -3.06653,-0.35938 -0.64239,-1.63305 -0.044,-3.63488 -0.69727,-5.27542 -0.25947,-2.03757 -1.02373,-3.8599 -0.65059,-6.14307 -0.48037,-2.0517 -0.54294,-4.41147 -1.36384,-6.28093 -0.0897,-1.90599 -0.62467,-3.76522 -0.97323,-5.54341 -0.14367,-0.42161 -0.55395,-1.17952 -0.076,-1.56439 z"
       id="path2942-1" />
    <path
       style="fill:none;stroke:#80ff00;stroke-width:3.99999976;stroke-linecap:round;stroke-linejoin:round;stroke-miterlimit:4;stroke-opacity:1;stroke-dasharray:none"
       d="m 335.9916,198.05528 c -2.21164,5.11514 -5.35651,7.8352 -11.11686,9.72858 -11.78203,3.87265 -20.83449,7.78978 -32.43759,11.81196 -7.28505,2.52529 -16.94192,5.16684 -23.47596,7.76215 -5.99087,2.37948 -16.68805,5.12647 -21.79209,8.63837"
       id="path2952-1"
       sodipodi:nodetypes="cssss"
       inkscape:transform-center-x="-42.62997"
       inkscape:transform-center-y="-18.625873" />
    <path
       style="color:#000000;fill:none;stroke:#80ff00;stroke-width:3.99999976;stroke-linecap:round;stroke-linejoin:round;stroke-miterlimit:4;stroke-opacity:1;stroke-dasharray:none;stroke-dashoffset:0;marker:none;visibility:visible;display:inline;overflow:visible;enable-background:accumulate"
       d="m 341.17875,237.82151 c -2.98265,-1.24279 -5.13556,-3.83421 -8.14413,-5.03131 -1.60527,-0.63873 -3.2371,-1.23739 -4.60088,-2.35184 -2.6147,-2.13667 -4.79091,-4.73678 -7.41372,-6.86899 -1.82812,-1.48617 -3.7262,-2.91909 -5.44382,-4.51513 -1.70427,-1.58364 -3.32615,-5.70393 -4.29721,-5.50279 -0.81685,0.1692 1.47313,3.47999 2.39842,5.0797 1.44892,2.50499 3.29447,4.7784 4.7776,7.27851 1.13633,1.91551 2.86412,3.39451 4.11267,5.25249 1.72907,2.57304 4.57685,4.07011 6.86258,6.10956 1.28966,1.15072 2.19064,2.57049 3.28429,3.88307 1.20608,1.44753 2.31093,2.64668 4.13354,3.58711 0,0 0.17711,0.0888 0.26399,0.13622"
       id="path3643"
       sodipodi:nodetypes="cssssssssssss"
       inkscape:transform-center-x="-15.053809"
       inkscape:transform-center-y="16.17588" />
    <path
       style="color:#000000;fill:none;stroke:#80ff00;stroke-width:3.99999976;stroke-linecap:round;stroke-linejoin:round;stroke-miterlimit:4;stroke-opacity:1;stroke-dasharray:none;stroke-dashoffset:0;marker:none;visibility:visible;display:inline;overflow:visible;enable-background:accumulate"
       d="m 288.98694,274.44257 c -2.20823,-1.65056 -5.26168,-2.3894 -6.76378,-4.79063 -0.66464,-4.99463 -3.80463,-6.75386 -7.15208,-9.9552 -1.81099,-1.90162 -3.09466,-3.97749 -4.23229,-6.35312 -1.15323,-2.40819 -4.04829,-3.83557 -5.19726,-6.47294 -1.51508,-3.47778 -3.05397,-6.96109 -4.72207,-10.3573 -0.59828,-1.21807 -2.2885,-4.57231 -3.3794,-1.94725 -1.42732,3.43459 -1.82346,7.23112 -2.4112,10.91791 -0.37772,2.36934 0.17247,4.65777 0.30188,6.98771 0.14806,2.66559 0.52087,5.29241 1.01465,7.91482 0.51336,2.72641 0.98565,5.74851 0.15489,8.33563 -0.74357,2.31561 -1.17881,4.09633 0.37841,6.10297"
       id="path3681"
       sodipodi:nodetypes="cccsssssssss" />
    <path
       style="color:#000000;fill:none;stroke:#80ff00;stroke-width:4;stroke-linecap:round;stroke-linejoin:round;stroke-miterlimit:4;stroke-opacity:1;stroke-dasharray:none;stroke-dashoffset:0;marker:none;visibility:visible;display:inline;overflow:visible;enable-background:accumulate"
       d="m 95.547984,271.30919 c 16.088236,-2.70363 36.003996,-16.30374 50.261816,-9.17964 7.52014,3.75756 14.73383,6.19189 26.04961,4.96545 15.63366,-1.69441 31.41252,-14.32855 43.67838,-16.36445 10.12962,-1.68133 4.77389,-5.46749 13.85558,-9.7717 0.55017,-0.26074 9.39738,-3.92252 16.23475,-4.80695"
       id="path4125-1"
       sodipodi:nodetypes="csssss"
       inkscape:transform-center-x="74.504104"
       inkscape:transform-center-y="19.566325" />
    <path
       style="color:#000000;fill:none;stroke:#80ff00;stroke-width:4;stroke-linecap:round;stroke-linejoin:round;stroke-miterlimit:4;stroke-opacity:1;stroke-dasharray:none;stroke-dashoffset:0;marker:none;visibility:visible;display:inline;overflow:visible;enable-background:accumulate"
       d="m 361.33157,201.14357 c 5.35007,2.76313 23.28912,0.78858 28.14192,-3.90723 1.60891,-1.55687 5.78161,-5.27568 6.50631,-5.57623"
       id="path2866"
       sodipodi:nodetypes="csc" />
  </g>
</svg>
