<?xml version="1.0" encoding="UTF-8" standalone="no"?>
<!-- Created with Inkscape (http://www.inkscape.org/) -->

<svg
   xmlns:dc="http://purl.org/dc/elements/1.1/"
   xmlns:cc="http://creativecommons.org/ns#"
   xmlns:rdf="http://www.w3.org/1999/02/22-rdf-syntax-ns#"
   xmlns:svg="http://www.w3.org/2000/svg"
   xmlns="http://www.w3.org/2000/svg"
   xmlns:sodipodi="http://sodipodi.sourceforge.net/DTD/sodipodi-0.dtd"
   xmlns:inkscape="http://www.inkscape.org/namespaces/inkscape"
   width="480"
   height="320"
   id="svg2"
   version="1.1"
   inkscape:version="0.47 r22583"
   sodipodi:docname="itnas231.svg"
   inkscape:export-xdpi="90"
   inkscape:export-ydpi="90"
   inkscape:export-filename="itnas231.png">
  <defs
     id="defs4" />
  <sodipodi:namedview
     id="base"
     pagecolor="#ffffff"
     bordercolor="#666666"
     borderopacity="1.0"
     inkscape:pageopacity="1"
     inkscape:pageshadow="2"
     inkscape:zoom="1"
     inkscape:cx="275.60628"
     inkscape:cy="202.01137"
     inkscape:document-units="px"
     inkscape:current-layer="layer1"
     showgrid="false"
     inkscape:snap-nodes="true"
     inkscape:snap-global="false"
     inkscape:snap-grids="true"
     showguides="true"
     inkscape:window-width="1280"
     inkscape:window-height="774"
     inkscape:window-x="1276"
     inkscape:window-y="1020"
     inkscape:window-maximized="1"
     inkscape:object-nodes="true">
    <inkscape:grid
       empspacing="5"
       visible="true"
       enabled="true"
       snapvisiblegridlinesonly="true"
       type="xygrid"
       id="grid2816" />
  </sodipodi:namedview>
  <metadata
     id="metadata7">
    <rdf:RDF>
      <cc:Work
         rdf:about="">
        <dc:format>image/svg+xml</dc:format>
        <dc:type
           rdf:resource="http://purl.org/dc/dcmitype/StillImage" />
        <dc:title></dc:title>
      </cc:Work>
    </rdf:RDF>
  </metadata>
  <g
     inkscape:label="Layer 1"
     inkscape:groupmode="layer"
     id="layer1"
     transform="translate(0,0)">
    <path
       style="color:#000000;fill:none;stroke:#c87137;stroke-width:3.99999952;stroke-linecap:round;stroke-linejoin:round;stroke-miterlimit:4;stroke-opacity:1;stroke-dasharray:none;stroke-dashoffset:0;marker:none;visibility:visible;display:inline;overflow:visible;enable-background:accumulate"
       d="m 40.68102,228.54443 c 0.88773,-4.72589 0.4936,-6.69569 0.0595,-11.40938 -0.58806,-6.38449 0.2547,-10.21635 0.93776,-16.55772 1.35746,-12.60243 -0.10175,-18.96171 -0.23696,-28.56483 -0.0678,-4.81763 0.5715,-10.82077 0.47594,-15.71026 -0.13482,-6.89807 -1.52236,-9.89217 -1.22934,-16.79938 0.0973,-7.2155 0.73021,-7.88818 0.70462,-14.99873"
       id="path2832"
       sodipodi:nodetypes="csssscc" />
    <path
       style="color:#000000;fill:none;stroke:#c87137;stroke-width:3.99999976;stroke-linecap:round;stroke-linejoin:round;stroke-miterlimit:4;stroke-opacity:1;stroke-dasharray:none;stroke-dashoffset:0;marker:none;visibility:visible;display:inline;overflow:visible;enable-background:accumulate"
       d="m 4.3864803,127.41024 c 0.36449,3.69143 0.64971,7.38785 1.05287,11.11022 0.52538,4.85105 -1.39387,9.62827 -1.39387,14.53045 0,11.15857 2.36521,24.09117 0.341,34.77142 -1.07441,5.66883 -0.77365,11.19335 0,16.29305 -0.2044,9.31058 1.54629,14.6975 0.0935,24.23035"
       id="path2850"
       sodipodi:nodetypes="cssscc" />
    <path
       style="color:#000000;fill:none;stroke:#c87137;stroke-width:3.99999976;stroke-linecap:round;stroke-linejoin:round;stroke-miterlimit:4;stroke-opacity:1;stroke-dasharray:none;stroke-dashoffset:0;marker:none;visibility:visible;display:inline;overflow:visible;enable-background:accumulate"
       d="m 331.12132,193.79394 c -6.07739,-1.15478 -13.21759,-5.43518 -17,-1 -7.46431,4.53941 -7.90991,8.62257 -8,12"
       id="path4395"
       sodipodi:nodetypes="ccc" />
    <path
       style="color:#000000;fill:none;stroke:#c87137;stroke-width:3.99999976;stroke-linecap:round;stroke-linejoin:round;stroke-miterlimit:4;stroke-opacity:1;stroke-dasharray:none;stroke-dashoffset:0;marker:none;visibility:visible;display:inline;overflow:visible;enable-background:accumulate"
       d="m 336.88868,208.26577 -12.58997,6.78176 c -4.03017,6.34685 -0.36323,8.12833 -6.17862,13.11772"
       id="path4397"
       sodipodi:nodetypes="ccc" />
    <path
       sodipodi:nodetypes="cssssc"
       id="path4261"
       d="m 472.39023,149.7977 c -3.22418,3.91307 -5.11883,4.92941 -9.2858,7.77096 -5.64407,3.84873 -8.16967,7.1204 -12.86223,11.96238 -9.32568,9.62259 -15.57705,12.75352 -23.5263,19.14521 -3.98793,3.20659 -8.4355,7.78441 -12.50219,11.01729 -5.73723,4.5609 -11.98972,8.94296 -17.42608,13.8542"
       style="color:#000000;fill:none;stroke:#c87137;stroke-width:3.99999905;stroke-linecap:round;stroke-linejoin:round;stroke-miterlimit:4;stroke-opacity:1;stroke-dasharray:none;stroke-dashoffset:0;marker:none;visibility:visible;display:inline;overflow:visible;enable-background:accumulate" />
    <path
       sodipodi:nodetypes="cssscc"
       id="path4263"
       d="m 371.7115,188.91716 c 2.97778,-2.08647 5.90746,-4.23634 8.93348,-6.3132 3.94351,-2.70664 6.23496,-7.2233 9.87314,-10.36183 8.28146,-7.14405 19.42488,-13.62697 26.02873,-22.00266 3.50514,-4.44563 7.80174,-7.75411 12.09201,-10.4313 6.77638,-6.11622 11.91821,-8.23504 18.04388,-15.44196"
       style="color:#000000;fill:none;stroke:#c87137;stroke-width:3.99999928;stroke-linecap:round;stroke-linejoin:round;stroke-miterlimit:4;stroke-opacity:1;stroke-dasharray:none;stroke-dashoffset:0;marker:none;visibility:visible;display:inline;overflow:visible;enable-background:accumulate" />
    <path
       style="color:#000000;fill:none;stroke:#c87137;stroke-width:4;stroke-linecap:round;stroke-linejoin:round;stroke-miterlimit:4;stroke-opacity:1;stroke-dasharray:none;stroke-dashoffset:0;marker:none;visibility:visible;display:inline;overflow:visible;enable-background:accumulate"
       d="m 284.01073,231.57576 c 1.07583,-10.44062 0.43168,-23.03949 1.73983,-36.21067 0.5237,-15.15868 -2.43035,-27.18031 -2.0298,-42.88107 0.43495,-10.98597 -0.4905,-18.326 2.31978,-26.04625"
       id="path4281"
       sodipodi:nodetypes="cccc" />
    <path
       style="color:#000000;fill:none;stroke:#c87137;stroke-width:3.99999928;stroke-linecap:round;stroke-linejoin:round;stroke-miterlimit:4;stroke-opacity:1;stroke-dasharray:none;stroke-dashoffset:0;marker:none;visibility:visible;display:inline;overflow:visible;enable-background:accumulate"
       d="m 251.56372,126.18044 c -2.29912,15.958 0.58707,18.17117 0.64074,31.18779 -0.65996,10.10028 -1.73579,19.65931 0,27.93905 -1.0679,19.8263 -0.85433,19.24876 -1.92223,26.63956 -0.83269,9.04157 0.52377,15.45725 1.28149,20.46698"
       id="path4277"
       sodipodi:nodetypes="ccccc" />
    <path
       sodipodi:nodetypes="cccc"
       id="path4306"
       d="m 138.10994,129.84356 c -1.18863,9.9207 -0.47693,21.89219 -1.92225,34.40748 -0.57859,14.4038 2.68516,25.82678 2.24262,40.74568 -0.48054,10.43889 0.54193,17.41342 -2.56299,24.74924"
       style="color:#000000;fill:none;stroke:#c87137;stroke-width:3.99999928;stroke-linecap:round;stroke-linejoin:round;stroke-miterlimit:4;stroke-opacity:1;stroke-dasharray:none;stroke-dashoffset:0;marker:none;visibility:visible;display:inline;overflow:visible;enable-background:accumulate" />
    <path
       sodipodi:nodetypes="ccccc"
       id="path4308"
       d="m 170.49538,228.78416 c 2.15804,-15.27693 -0.55104,-17.39564 -0.60143,-29.85673 0.61948,-9.66921 1.62928,-18.82027 0,-26.74665 1.00239,-18.98012 0.80191,-18.42724 1.8043,-25.5026 0.78158,-8.65571 -0.49164,-14.79756 -1.20287,-19.59347"
       style="color:#000000;fill:none;stroke:#c87137;stroke-width:3.99999928;stroke-linecap:round;stroke-linejoin:round;stroke-miterlimit:4;stroke-opacity:1;stroke-dasharray:none;stroke-dashoffset:0;marker:none;visibility:visible;display:inline;overflow:visible;enable-background:accumulate" />
    <path
       style="color:#000000;fill:none;stroke:#94f3f3;stroke-width:4;stroke-linecap:round;stroke-linejoin:round;stroke-miterlimit:4;stroke-opacity:1;stroke-dasharray:none;stroke-dashoffset:0;marker:none;visibility:visible;display:inline;overflow:visible;enable-background:accumulate"
       d="m 28.74072,-121.71355 c -9.13586,9.9354 -18.27173,42.368715 -27.4075897,67.942265 -10.54055,18.51859 -12.1478003,46.0378208 -26.6462703,73.28604 -3.67543,17.66672 -10.37113,44.6125 -23.41899,69.391036 -4.63139,11.583359 -8.7993,13.463879 -16.16976,34.430829 24.85224,4.6466 43.6158,-0.36575 63.95105034,3.81699 l 44.91798966,-3.81698 60.14442,3.05358 C 98.528545,117.99043 92.945515,105.89788 87.36249,78.296255 69.50307,31.342915 77.21798,41.068105 74.42002,26.385325 68.53381,10.012895 67.35176,-9.1330542 61.58523,-27.815815 c -6.09057,-10.74082 -17.61807,-41.6743 -23.70866,-65.65208 -1.27246,-7.412985 -2.54862,-18.669025 -9.13586,-28.245655 z"
       id="path4156"
       sodipodi:nodetypes="ccccccccccccc" />
    <path
       sodipodi:nodetypes="cccccscccccccc"
       id="path4265"
       d="m 237.32597,124.8232 c -0.20298,-17.5846 -16.33526,-52.913845 -24.04753,-77.029135 -3.62216,-23.2348 -16.03309,-37.09088 -21.86823,-69.79196 -6.6457,-12.78304 -16.23701,-33.88287 -21.61152,-63.41923 -3.24655,-11.64845 -2.06559,-18.563175 -8.44857,-38.158495 -6.4702,15.27702 -11.72626,30.263585 -17.95004,43.246325 -14.13066,29.47626 -9.05714,33.47911 -15.85836,49.20776 -11.53346,20.551911 -12.93891,33.9216505 -15.50009,46.45739 -7.68899,16.69842 -13.680635,35.40091 -18.806625,55.31056 -2.06258,9.45143 -11.472105,27.390186 -17.857915,53.058335 6.82503,4.93103 15.423315,-0.79852 31.4689,2.51778 21.40875,1.707 42.46087,0.25897 63.84278,-0.65954 10.1252,-0.61795 28.8207,0.48566 43.37993,1.54211 4.1959,1.22443 14.08353,0.1949 23.25727,-2.2819 z"
       style="color:#000000;fill:none;stroke:#94f3f3;stroke-width:3.99999928;stroke-linecap:round;stroke-linejoin:round;stroke-miterlimit:4;stroke-opacity:1;stroke-dasharray:none;stroke-dashoffset:0;marker:none;visibility:visible;display:inline;overflow:visible;enable-background:accumulate" />
    <path
       style="color:#000000;fill:none;stroke:#94f3f3;stroke-width:4;stroke-linecap:round;stroke-linejoin:round;stroke-miterlimit:4;stroke-opacity:1;stroke-dasharray:none;stroke-dashoffset:0;marker:none;visibility:visible;display:inline;overflow:visible;enable-background:accumulate"
       d="m 282.18273,-122.47094 c -0.21856,0.24554 -0.46223,0.49202 -0.68079,0.76267 -6.23243,14.84654 -11.91294,23.986425 -15.49809,37.531315 -3.81343,14.4073 -10.66872,21.7276 -14.89739,35.20316 -4.39056,11.60014 -6.44829,23.81633 -9.29085,31.991921 -9.81559,22.5560695 -12.50114,32.884619 -18.58169,56.838859 -1.91508,12.61067 -5.9136,22.15568 -9.33089,31.42996 -2.03848,9.34103 -11.24093,26.992806 -17.62056,52.182555 21.20235,2.54356 38.16833,-1.05773 56.38581,2.6894 18.0382,-0.34407 37.69808,0.93735 52.62143,-2.52884 17.48707,-0.36155 34.97415,0.41964 52.46122,1.76618 -5.58302,-8.39979 -7.95277,-19.84436 -13.53579,-47.445985 -16.15152,-42.46319 -14.60779,-39.28402 -15.61823,-49.01147 -5.24861,-13.9805 -12.48839,-27.5938795 -16.53931,-50.29596 -6.64571,-12.78305 -13.00694,-30.03205 -18.38146,-59.56841 -3.21874,-11.54873 -5.29258,-22.331745 -11.49341,-41.545355 z"
       id="path4267"
       sodipodi:nodetypes="ccsccccccccccccc" />
    <path
       style="color:#000000;fill:none;stroke:#94f3f3;stroke-width:4;stroke-linecap:round;stroke-linejoin:round;stroke-miterlimit:4;stroke-opacity:1;stroke-dasharray:none;stroke-dashoffset:0;marker:none;visibility:visible;display:inline;overflow:visible;enable-background:accumulate"
       d="m 651.79143,-23.913236 c -0.4273,0.13661 -0.85455,0.27797 -1.28039,0.41565 -10.36982,0.30962 -29.02835,7.8148 -47.95355,15.5048003 -18.72914,6.40302 -37.15339,13.33957 -55.11591,21.7364997 -12.72395,4.52591 -24.43678,10.59546 -37.62687,13.75109 -21.3957,11.8459 -43.64789,17.05003 -67.75022,27.44187 -11.77886,4.03201 -15.9102,2.1211 -36.5693,10.18891 5.52955,12.16349 13.69238,21.82762 21.90127,32.40829 12.69833,17.377786 27.55955,32.406876 42.22429,48.052876 7.08261,7.28972 18.44036,22.221 27.15486,33.97089 1.81634,3.98595 9.06578,10.83042 16.93135,16.18556 13.15489,-11.61683 20.29503,-35.76104 33.47827,-57.34005 10.38617,-16.87247 15.1773,-22.41171 22.59622,-30.67537 8.5256,-15.144446 22.22482,-28.500296 32.57437,-45.059806 8.12654,-27.16495 20.22947,-41.17533 34.10164,-60.7927197 4.7701,-5.79895 12.45508,-14.1104603 15.38753,-25.3576303 -0.0988,-0.004 -0.21225,0.007 -0.3128,0.005 0.0903,-0.14882 0.1683,-0.28485 0.2593,-0.43569 z"
       id="path4271"
       sodipodi:nodetypes="ccccccccccccccccsc" />
    <path
       style="color:#000000;fill:none;stroke:#c87137;stroke-width:3.99999976;stroke-linecap:round;stroke-linejoin:round;stroke-miterlimit:4;stroke-opacity:1;stroke-dasharray:none;stroke-dashoffset:0;marker:none;visibility:visible;display:inline;overflow:visible;enable-background:accumulate"
       d="m 362.70101,233.58683 c -0.50217,3.5 -0.90508,8.5 -4,12 -5.33333,3.80165 -10.66667,5.94909 -16,8.5"
       id="path4399"
       sodipodi:nodetypes="ccc" />
    <path
       sodipodi:nodetypes="ccc"
       id="path4461"
       d="m 389.29769,237.14529 c -2.36335,3.49401 -0.83721,9.92628 -2.48823,15.19995 -1.67228,4.88267 -5.23097,9.28885 -11.74484,13.18313"
       style="color:#000000;fill:none;stroke:#c87137;stroke-width:3.99999976;stroke-linecap:round;stroke-linejoin:round;stroke-miterlimit:4;stroke-opacity:1;stroke-dasharray:none;stroke-dashoffset:0;marker:none;visibility:visible;display:inline;overflow:visible;enable-background:accumulate" />
    <path
       id="path2949"
       style="color:#000000;fill:none;stroke:#008000;stroke-width:4;stroke-linecap:butt;stroke-linejoin:round;stroke-miterlimit:4;stroke-opacity:1;stroke-dasharray:none;stroke-dashoffset:0;marker:none;visibility:visible;display:inline;overflow:visible;enable-background:accumulate"
       d="m -11.303175,231.95634 c 18.8996413,-2.79816 33.119083,-1.6545 50.287423,-2.57187 17.036219,-0.33724 34.967306,1.32247 51.476752,2.0191 20.351,2.99632 38.43765,-0.70036 56.99029,-0.28013 25.77596,-2.39213 37.40979,4.82347 69.68452,0.31785 20.32392,1.40657 46.58119,2.34228 50.56778,8.2406 4.9562,7.29507 15.78973,18.37429 23.53947,26.3021 9.86274,12.98592 14.89779,9.37718 25.89477,17.5673 13.80635,11.68179 13.37754,12.67377 30.75042,10.90644 7.48711,-0.81395 28.58764,10.17726 50.02471,6.99001 5.51791,-0.76402 10.35141,-2.87145 14.1034,-5.77836 2.76545,-1.06108 12.80154,-8.74641 18.35924,-6.78955 5.89129,2.07431 22.23779,3.73168 25.93598,2.48652 3.74902,-1.26227 8.39644,-0.30416 9.32365,-5.72359 1.04542,-6.11024 -2.81796,-18.25183 -7.33232,-22.30206 -7.06074,-6.33483 -18.10727,-3.29652 -21.06436,-1.89174 -5.63903,2.67885 -17.19388,-13.53483 -18.52535,-14.84741 -9.66667,-13 -34.82129,-7.868 -55.59188,-13.80761 -9.96862,-6.24485 -22.09183,-16.04322 -25,-25 -3.31438,-5.16329 -5.29554,-12.1598 -9.87875,-21.05426 -2.29112,-12.0251 -6.86645,-21.60497 4.64962,-21.95626 7.70557,4.84074 27.9862,-2.03628 33.63465,10.65019 5.08274,21.57161 12.06119,30.61067 29.79467,39.19352 27.12281,2.09156 40.36142,7.70504 52.75322,5.70238 10.79551,1.94312 23.00208,5.98872 35.42395,5.45162"
       sodipodi:nodetypes="cccccccccccsssssccccccccc" />
    <path
       style="color:#000000;fill:none;stroke:#80ff00;stroke-width:4;stroke-linecap:round;stroke-linejoin:round;stroke-miterlimit:4;stroke-opacity:1;stroke-dasharray:none;stroke-dashoffset:0;marker:none;visibility:visible;display:inline;overflow:visible;enable-background:accumulate"
       d="m 283.06085,197.57013 c 3.13449,0.86489 7.06832,3.19767 8.67233,5.65967 1.66469,2.55513 4.81147,3.67187 7.17649,5.64121 2.60498,2.16911 6.49104,4.4478 9.29292,6.97856 3.54227,3.1995 3.8815,8.86957 7.67967,12.91644 1.73262,6.45071 6.60115,11.47193 10.63071,15.93053 2.01455,2.22904 5.79978,3.16853 8.47418,4.72773 2.81356,1.64034 5.22236,0.46109 7.70427,0.52609"
       id="path2833"
       sodipodi:nodetypes="cssscsss" />
    <path
       style="color:#000000;fill:none;stroke:#80ff00;stroke-width:4;stroke-linecap:round;stroke-linejoin:round;stroke-miterlimit:4;stroke-opacity:1;stroke-dasharray:none;stroke-dashoffset:0;marker:none;visibility:visible;display:inline;overflow:visible;enable-background:accumulate"
       d="m 343.41681,250.21368 c 6.81,2.29204 16.93219,3.2436 25.25895,5.70088 3.45034,2.9899 6.47602,3.65127 10.72926,4.44222 7.9282,-0.5223 15.59435,2.33138 23.85481,4.46167 11.0727,-1.69518 5.39829,-10.79465 -5.59009,-10.10165 -5.54593,-0.56076 -16.12438,2.01708 -25.1356,-6.833 -6.05161,-4.166 -16.96655,-3.96409 -18.22212,-4.08937"
       id="path4125"
       sodipodi:nodetypes="ccccccc" />
    <path
       style="fill:none;stroke:#80ff00;stroke-width:3.99999976;stroke-linecap:round;stroke-linejoin:round;stroke-miterlimit:4;stroke-opacity:1;stroke-dasharray:none"
       d="m 383.43164,270.62344 c 8.02398,-2.13107 13.80727,-0.26249 21.45048,1.97584 7.37297,-0.77733 9.26606,1.38227 14.0247,3.40483 3.51108,0.28106 10.3743,0.3583 18.27378,2.83733 4.42671,2.76371 16.5701,0.23341 12.96628,6.22472 -5.07801,2.29965 -16.04587,-0.97356 -24.97155,-3.02423 -4.25465,-0.40325 -12.88283,-1.37092 -18.33164,-0.46885 -9.82673,-1.04544 -16.36346,0.30922 -25.0543,0.37548 -17.12353,6.59952 -19.78676,11.7163 -4.1704,13.06438 9.29902,-0.25288 16.62098,-2.77819 23.48586,-2.75889"
       id="path4123"
       sodipodi:nodetypes="cccccccccc" />
    <path
       style="color:#000000;fill:none;stroke:#80ff00;stroke-width:4;stroke-linecap:round;stroke-linejoin:round;stroke-miterlimit:4;stroke-opacity:1;stroke-dasharray:none;stroke-dashoffset:0;marker:none;visibility:visible;display:inline;overflow:visible;enable-background:accumulate"
       d="m 384.05724,270.54629 c -3.16286,1.24532 -6.18223,2.77491 -9.96894,2.77712 -3.98507,0.002 -7.97213,0.17534 -11.98679,-0.19617 -4.45293,-0.41208 -10.45887,-0.46416 -15.39633,-1.12873 -6.13001,-0.82508 -11.40462,-2.45402 -17.11061,-4.77536 -6.9483,-2.82674 -13.40728,-7.35233 -19.54824,-12.33688 -3.08321,-2.50262 -5.75702,-5.33767 -8.5821,-8.23275 -2.15144,-2.20473 -5.25644,-10.82205 -7.01815,-12.14054"
       id="path2833-1"
       sodipodi:nodetypes="csssssss" />
    <path
       style="color:#000000;fill:none;stroke:#008000;stroke-width:4;stroke-linecap:round;stroke-linejoin:round;stroke-miterlimit:4;stroke-opacity:1;stroke-dasharray:none;stroke-dashoffset:0;marker:none;visibility:visible;display:inline;overflow:visible;enable-background:accumulate"
       d="m 311.38561,270.03932 c -1.78781,-4.90498 -7.02762,-8.57462 -13.38798,-9.92345 -12.642,3.54287 -26.84889,20.46489 -41.40975,21.29477 -13.78888,5.21713 -42.30509,10.37868 -62.81119,11.08579 0,0 -21.40532,1.69918 -38.18376,0.70711 -14.30625,-0.74038 -15.14214,2 -24.33453,1.29289 -21.2132,-2.82843 -76.781741,0.82842 -102.944692,1.53553 -19.5,2.5 -41.012193,-4.24264 -41.012193,-4.24264"
       id="path7075"
       sodipodi:nodetypes="cccccccc" />
    <path
       style="fill:none;stroke:#80ff00;stroke-width:3.99999976;stroke-linecap:round;stroke-linejoin:round;stroke-miterlimit:4;stroke-opacity:1;stroke-dasharray:none"
       d="m 263.36933,247.81978 c 0.59343,-0.49088 3.15296,4.15517 5.47875,5.23244 8.56799,1.63592 13.62273,4.86455 19.15363,4.01921 3.4372,-3.14343 8.84586,-11.3935 10.40769,-13.40758 -5.08353,0.40114 -10.15239,7.02962 -13.99542,6.13302 -7.65724,-3.34085 -6.3142,-5.80388 -13.26421,-12.72288 -2.44864,-2.32347 -4.35313,-5.33975 -6.28982,-4.73664"
       id="path2958"
       sodipodi:nodetypes="ccccccc" />
    <path
       style="fill:none;stroke:#80ff00;stroke-width:3.99999976;stroke-linecap:round;stroke-linejoin:round;stroke-miterlimit:4;stroke-opacity:1;stroke-dasharray:none"
       d="m 286.37541,183.99955 c -0.91264,1.63621 -2.00945,-1.86874 -3.00717,0.10917 -2.68165,1.18189 -5.54837,0.0611 -8.22674,1.31534 -1.90306,0.41427 -3.82035,-0.24083 -5.7221,0.22943 -2.00421,0.41901 -3.96525,0.0962 -5.93373,-0.15609 -1.72285,-0.13201 -3.43823,0.19863 -5.15528,0.2268 -1.32563,0.89266 -2.56661,0.6733 -3.94046,1.46751 -1.6606,0.95033 -3.61476,0.13187 -5.20149,1.50996 0.0531,0.86677 1.7328,1.7049 2.42652,2.56115 2.24132,2.03587 4.48186,4.07347 6.72503,6.10567 1.60146,0.72597 2.93177,2.36832 4.72248,2.34268 1.38429,0.3877 2.5421,1.46441 3.82079,2.149 1.34358,0.9497 2.94644,1.8716 4.42139,2.68162 1.44838,1.03055 3.00734,1.79948 4.29373,3.20318 1.00979,1.09713 2.29568,2.44991 3.08445,0.13724 0.89608,-1.50882 0.62667,-3.58071 1.53468,-5.09518 0.58301,-1.96957 1.62976,-3.64565 1.62782,-5.9591 0.80334,-1.94804 1.24374,-4.26719 2.35392,-5.98071 0.3944,-1.86692 1.22069,-3.61624 1.85005,-5.31547 0.20946,-0.3931 0.73603,-1.07536 0.32602,-1.53192 z"
       id="path2942" />
    <path
       style="color:#000000;fill:none;stroke:#80ff00;stroke-width:3.99999976;stroke-linecap:round;stroke-linejoin:round;stroke-miterlimit:4;stroke-opacity:1;stroke-dasharray:none;stroke-dashoffset:0;marker:none;visibility:visible;display:inline;overflow:visible;enable-background:accumulate"
       d="m 303.49268,224.11798 c 0.003,-1.30086 -5.08279,-1.55987 -7.23627,-2.40587 -1.75014,-0.68751 -3.4083,-1.65716 -5.20118,-2.14422 -1.98862,-0.5402 -4.05457,-0.79953 -6.01726,-1.4265 -2.94627,-0.94108 -5.81543,-2.18215 -8.70108,-3.33471 -1.41076,-0.5635 -2.47309,-1.66549 -3.97134,-1.76284 -1.86099,-0.12025 -4.61824,-2.02989 -5.43834,-1.02898 -0.76238,0.93046 1.50294,3.07272 1.66902,4.75759 0.53389,5.4152 2.88554,6.62593 4.91034,9.53027 1.42937,2.05015 3.40187,3.33958 4.61587,5.48566 1.33123,2.3535 1.85392,5.02644 3.15431,7.39817 0.8182,1.49239 2.07462,2.62229 2.97199,4.03058 1.34121,2.10476 2.09579,-0.80542 2.70288,-1.68506 1.12363,-1.62806 2.53865,-3.01749 3.74739,-4.57673 1.04471,-1.3476 2.66499,-2.16278 3.62697,-3.64139 1.03998,-1.59853 2.09344,-3.2646 3.4808,-4.56566 1.32826,-1.24563 2.76069,-2.4249 4.25887,-3.50763 0.73612,-0.53198 1.42572,-0.466 1.42703,-1.12268 z"
       id="path2870"
       sodipodi:nodetypes="csssssssssssssssss"
       inkscape:transform-center-x="9.1175257"
       inkscape:transform-center-y="-6.5272645" />
    <path
       style="color:#000000;fill:none;stroke:#80ff00;stroke-width:3.99999976;stroke-linecap:round;stroke-linejoin:round;stroke-miterlimit:4;stroke-opacity:1;stroke-dasharray:none;stroke-dashoffset:0;marker:none;visibility:visible;display:inline;overflow:visible;enable-background:accumulate"
       d="m 326.21142,285.56635 c 1.83006,0.40083 3.16803,-1.24768 5.09662,-1.31271 4.68857,-1.14181 6.705,0.86941 11.40267,-1.1571 4.71703,-1.34472 8.50405,-2.79625 12.65033,-4.73349 4.49525,-0.91934 8.69319,-2.48999 12.98421,-3.67528 2.1424,-0.43609 4.03217,-1.30448 6.3683,-1.28134 0.49629,0.005 1.54901,-0.59891 2.03146,0.16589 0.66031,1.04704 -0.7698,2.3206 -1.45521,3.29619 -1.97178,2.80658 -4.95761,4.93859 -7.87968,6.6325 -1.65774,0.96099 -4.65906,0.99511 -6.41511,1.67165 -2.06271,0.7947 -3.725,2.05053 -5.79283,3.14879 -5.01028,2.38322 -8.63049,0.96459 -13.30563,3.22037"
       id="path3681"
       sodipodi:nodetypes="cccccssssscc" />
    <path
       style="fill:none;stroke:#80ff00;stroke-width:3.99999952;stroke-linecap:round;stroke-linejoin:round;stroke-miterlimit:4;stroke-opacity:1;stroke-dasharray:none"
       d="m 355.5396,232.46427 c -2.57982,2.26288 -6.88774,2.1836 -9.55523,4.28411 -3.14416,3.09359 -6.20272,4.4257 -10.6368,5.53866 -2.57405,1.14939 -9.15957,5.58126 -6.89757,0.59864 1.54097,-3.24823 1.47378,-5.04176 3.57826,-8.72027 1.42905,-4.14949 1.48139,-6.72478 3.53093,-10.07042 0.68129,-2.69621 1.01167,-8.05387 2.057,-8.64645"
       id="path2956-7"
       sodipodi:nodetypes="ccccccc" />
    <path
       style="fill:none;stroke:#80ff00;stroke-width:3.99999952;stroke-linecap:round;stroke-linejoin:round;stroke-miterlimit:4;stroke-opacity:1;stroke-dasharray:none"
       d="m 326.90587,196.27944 c -0.56642,0.24243 -4.2789,0.72192 -5.78697,1.36729 -4.77274,1.97819 -8.04438,0.90156 -13.86218,3.96093 -5.70677,0.81506 -8.45352,0.91133 -13.33058,1.11481 2.14622,-3.46927 4.46238,-6.84927 6.56459,-10.33841 3.57017,-5.05202 2.27374,-5.85218 5.26573,-12.55888 0.17502,-1.58458 1.24054,-3.67724 1.0952,-7.2656"
       id="path2958-6"
       sodipodi:nodetypes="ccccccc" />
    <g
       id="g8805"
       transform="translate(7,0.5)">
      <path
         sodipodi:nodetypes="csscc"
         id="path2859"
         d="m 72.470732,90.876305 c 8.353001,15.968585 6.97346,18.851005 12.482142,28.147305 2.799703,4.72471 3.99205,17.69971 1.557433,26.39618 -2.967608,10.60031 -6.165557,22.77974 -12.033268,30.69723 -6.435151,13.88607 -24.279162,18.66515 -28.126088,21.09254"
         style="color:#000000;fill:none;stroke:#c87137;stroke-width:3.99999976;stroke-linecap:round;stroke-linejoin:round;stroke-miterlimit:4;stroke-opacity:1;stroke-dasharray:none;stroke-dashoffset:0;marker:none;visibility:visible;display:inline;overflow:visible;enable-background:accumulate" />
      <path
         style="fill:none;stroke:#c87137;stroke-width:3.99999976;stroke-linecap:round;stroke-linejoin:round;stroke-miterlimit:4;stroke-opacity:1;stroke-dasharray:none"
         d="m 48.86016,195.94568 c -4.320691,-17.05833 -4.993093,-32.34815 -7.760727,-50.29683 1.284436,-2.68929 1.511357,-4.98475 4.70973,-9.20021 4.413542,-7.18548 12.001114,-18.48114 11.551822,-20.01674 5.273852,-8.29634 11.196884,-14.13844 15.829874,-22.580035"
         id="path3708"
         sodipodi:nodetypes="ccccc" />
      <path
         sodipodi:nodetypes="cccccsccccccc"
         id="path2905"
         d="m 41.217282,101.34224 c 3.104176,0.42817 6.695779,1.32858 7.663514,3.08137 2.253811,2.46587 0.965883,4.15094 2.917622,7.23237 -0.08011,2.61555 0.110225,5.77903 -0.575175,8.59126 -2.999496,2.9391 -3.544418,5.57747 -6.613579,7.82881 -2.496341,1.24327 -3.694031,3.57314 -6.593907,3.11804 -2.047596,-0.32209 -4.410725,0.0266 -6.20803,-0.82763 -2.021365,-2.6798 -4.42564,-3.62751 -5.572545,-5.94968 0.03422,-2.47183 -2.608523,-6.16346 -2.80926,-8.58095 0.281152,-3.64428 2.935978,-6.41365 3.217253,-10.05778 1.495645,-1.20551 0.705431,-3.21415 2.325652,-3.51046 0.946093,-0.83018 2.8412,-1.38895 4.059498,-1.96219 3.11065,-1.034137 4.633887,1.70847 8.188957,1.03684 z"
         style="fill:none;stroke:#0000ff;stroke-width:4;stroke-linecap:round;stroke-linejoin:round;stroke-miterlimit:4;stroke-opacity:1;stroke-dasharray:none" />
      <path
         id="path2907"
         d="m 37.984042,133.86193 c -0.867156,3.26338 1.36579,7.44415 0.327573,8.65637 0.955143,5.06759 0.955179,10.31532 1.976231,15.36544 1.148602,4.31908 0.596656,8.73392 0.907626,12.84761 -0.155823,2.02265 -0.311636,4.04518 -0.467451,6.0677"
         style="fill:none;stroke:#0000ff;stroke-width:4;stroke-linecap:round;stroke-linejoin:round;stroke-miterlimit:4;stroke-opacity:1;stroke-dasharray:none" />
      <path
         sodipodi:nodetypes="ccccccccc"
         d="m 40.549638,176.81444 c -1.595206,2.50107 -4.405889,8.55092 -6.241112,12.79207 -1.02745,4.92036 -3.214935,5.55583 -3.770243,15.27712 -2.490737,8.68609 -6.733417,15.59734 -7.078115,20.78323 m 17.267853,-48.92628 c 2.345716,3.58849 5.02077,7.07142 6.332194,11.2371 2.31529,4.28957 2.810578,9.4057 4.828864,13.44079 -0.936681,5.0152 1.253638,9.28615 1.06158,14.13767 0.922378,3.54085 2.221227,6.71236 3.03194,10.34873"
         style="fill:none;stroke:#0000ff;stroke-width:4;stroke-linecap:round;stroke-linejoin:round;stroke-miterlimit:4;stroke-opacity:1;stroke-dasharray:none"
         id="path2909" />
      <path
         sodipodi:nodetypes="csssssss"
         id="path2911-0"
         d="m 85.126135,152.67211 c -8.279252,-2.53603 -17.734317,-5.02554 -26.908592,-7.88962 -6.191493,-1.93288 -11.925104,-3.95973 -18.64078,-5.6361 -2.585192,-0.64535 -13.387497,-2.82842 -18.117631,-4.47076 -5.05238,-1.75422 -10.302658,1.0021 -7.304694,2.61238 4.807743,2.58235 5.378633,5.00971 11.09826,5.27808 3.305207,0.1551 7.437599,1.04269 9.895952,1.97915 1.333626,0.50802 4.339385,1.18457 6.463737,1.13619"
         style="fill:none;stroke:#0000ff;stroke-width:4;stroke-linecap:round;stroke-linejoin:round;stroke-miterlimit:4;stroke-opacity:1;stroke-dasharray:none" />
    </g>
    <g
       id="g8813"
       transform="translate(-8.5,0)">
      <path
         style="color:#000000;fill:none;stroke:#c87137;stroke-width:3.99999976;stroke-linecap:round;stroke-linejoin:round;stroke-miterlimit:4;stroke-opacity:1;stroke-dasharray:none;stroke-dashoffset:0;marker:none;visibility:visible;display:inline;overflow:visible;enable-background:accumulate"
         d="m 136.87509,146.43168 c 11.67638,13.727 10.96816,16.84307 18.39561,24.69162 3.77489,3.98892 7.80601,16.37933 7.35408,25.39885 -0.55087,10.99408 -0.9773,23.57913 -4.94959,32.59787 -3.20627,14.96509 -19.55235,23.57056 -22.7675,26.7883"
         id="path8793"
         sodipodi:nodetypes="csscc" />
      <path
         sodipodi:nodetypes="ccccc"
         id="path8795"
         d="m 137.07543,254.12102 c -7.98474,-15.68117 -12.02049,-30.44407 -18.68742,-47.33688 0.65816,-2.9067 0.37203,-5.19553 2.5594,-10.01374 2.71592,-7.98337 7.61874,-20.6769 6.8411,-22.07519 3.30938,-9.25693 7.79441,-16.26385 10.44667,-25.52077"
         style="fill:none;stroke:#c87137;stroke-width:3.99999976;stroke-linecap:round;stroke-linejoin:round;stroke-miterlimit:4;stroke-opacity:1;stroke-dasharray:none" />
      <path
         style="fill:none;stroke:#0000ff;stroke-width:4;stroke-linecap:round;stroke-linejoin:round;stroke-miterlimit:4;stroke-opacity:1;stroke-dasharray:none"
         d="m 126.72059,183.45652 c -0.26687,3.44984 -0.93458,7.4597 -2.45297,8.60848 -2.10376,2.60227 -3.64398,1.25521 -6.30425,3.55151 -2.32109,0.0298 -5.11801,0.38326 -7.63538,-0.24695 -2.71379,-3.18181 -5.07197,-3.66464 -7.17872,-6.95455 -1.19249,-2.70249 -3.300943,-3.92066 -3.0028,-7.14595 0.21117,-2.2774 -0.183624,-4.87315 0.50827,-6.89802 2.30178,-2.3551 3.05451,-5.05496 5.07105,-6.42748 2.19204,-0.074 5.36808,-3.16158 7.50344,-3.49279 3.24016,0.14584 5.79101,2.95442 9.03103,3.1004 1.12272,1.59831 2.87433,0.63417 3.19575,2.41128 0.77011,1.00798 1.33412,3.07701 1.8864,4.39744 1.02944,3.39082 -1.34609,5.19827 -0.62182,9.09663 z"
         id="path8797"
         sodipodi:nodetypes="cccccsccccccc" />
      <path
         sodipodi:nodetypes="ccccc"
         style="fill:none;stroke:#0000ff;stroke-width:4;stroke-linecap:round;stroke-linejoin:round;stroke-miterlimit:4;stroke-opacity:1;stroke-dasharray:none"
         d="m 115.86666,198.14226 c 0.38069,3.3551 0.30513,7.79771 -0.73308,9.00993 0.95514,5.06759 -0.81259,10.13854 0.20846,15.18866 -0.61916,4.67263 1.12698,8.73392 1.43795,12.84761 -0.15582,2.02265 0.39548,4.04518 0.23966,6.0677"
         id="path8799" />
      <path
         id="path8801"
         style="fill:none;stroke:#0000ff;stroke-width:4;stroke-linecap:round;stroke-linejoin:round;stroke-miterlimit:4;stroke-opacity:1;stroke-dasharray:none"
         d="m 133.63505,290.71264 c -1.59521,-2.40841 -2.8149,-10.06278 -4.65012,-14.19734 -1.02745,-4.86068 -0.84423,-5.40779 -5.36124,-13.99747 -2.49073,-8.54142 -3.90498,-15.02947 -6.371,-20.19534 m -15.25906,47.74654 c 2.34572,-3.72473 3.60656,-7.00948 4.91799,-11.25133 2.31529,-4.42405 2.81057,-9.56894 4.82886,-13.72126 -0.93668,-4.9608 2.3143,-7.41443 2.12224,-12.25479 0.92238,-3.59443 2.22123,-6.84138 3.03194,-10.52483"
         sodipodi:nodetypes="ccccccccc" />
      <path
         style="fill:none;stroke:#0000ff;stroke-width:4;stroke-linecap:round;stroke-linejoin:round;stroke-miterlimit:4;stroke-opacity:1;stroke-dasharray:none"
         d="m 119.04269,207.54839 c -5.65591,-0.39549 -9.63536,0.23474 -12.09334,0.5638 -5.47196,-0.57909 -7.010286,-0.64996 -10.630037,-0.31194 -5.336163,0.35881 -9.695415,-3.16686 -6.339999,-3.72074 4.617813,-0.76226 12.982186,-2.63208 19.081656,-1.88997 5.51822,0.67138 8.97735,0.019 16.59618,-0.35389 8.84175,1.09789 16.46676,1.03692 24.57922,0.31351 3.31605,-0.1501 10.78642,-0.0539 12.82046,0.56079"
         id="path8803"
         sodipodi:nodetypes="cccssccs" />
    </g>
    <path
       id="path3747"
       style="color:#000000;fill:none;stroke:#ff0000;stroke-width:4;stroke-linecap:round;stroke-linejoin:round;stroke-miterlimit:4;stroke-opacity:1;stroke-dasharray:none;stroke-dashoffset:0;marker:none;visibility:visible;display:inline;overflow:visible;enable-background:accumulate"
       d="m 488.02357,168.64214 c -5.30338,-0.85292 -9.37303,-2.44015 -13.74189,-2.99399 -4.13023,-0.52359 -8.54732,-1.80795 -8.64111,-3.07863 1.72818,-3.05014 7.00277,-3.24254 10.31635,-3.73915 3.73591,0.73738 7.66148,-0.0647 11.71074,-0.71457"
       sodipodi:nodetypes="csccs" />
  </g>
</svg>
