<?xml version="1.0" encoding="UTF-8" standalone="no"?>
<!-- Created with Inkscape (http://www.inkscape.org/) -->

<svg
   xmlns:dc="http://purl.org/dc/elements/1.1/"
   xmlns:cc="http://creativecommons.org/ns#"
   xmlns:rdf="http://www.w3.org/1999/02/22-rdf-syntax-ns#"
   xmlns:svg="http://www.w3.org/2000/svg"
   xmlns="http://www.w3.org/2000/svg"
   xmlns:sodipodi="http://sodipodi.sourceforge.net/DTD/sodipodi-0.dtd"
   xmlns:inkscape="http://www.inkscape.org/namespaces/inkscape"
   width="480"
   height="320"
   id="svg2"
   version="1.1"
   inkscape:version="0.47 r22583"
   sodipodi:docname="itnas006.svg"
   inkscape:export-filename="D:\My Documents\ITNAS\itnas006.png"
   inkscape:export-xdpi="90"
   inkscape:export-ydpi="90">
  <defs
     id="defs4" />
  <sodipodi:namedview
     id="base"
     pagecolor="#ffffff"
     bordercolor="#666666"
     borderopacity="1.0"
     inkscape:pageopacity="1"
     inkscape:pageshadow="2"
     inkscape:zoom="1.4142136"
     inkscape:cx="127.14517"
     inkscape:cy="176.84933"
     inkscape:document-units="px"
     inkscape:current-layer="layer1"
     showgrid="true"
     inkscape:snap-nodes="true"
     inkscape:snap-global="false"
     inkscape:snap-grids="true"
     showguides="true"
     inkscape:window-width="1280"
     inkscape:window-height="774"
     inkscape:window-x="-4"
     inkscape:window-y="-4"
     inkscape:window-maximized="1">
    <inkscape:grid
       empspacing="5"
       visible="true"
       enabled="true"
       snapvisiblegridlinesonly="true"
       type="xygrid"
       id="grid2816" />
  </sodipodi:namedview>
  <metadata
     id="metadata7">
    <rdf:RDF>
      <cc:Work
         rdf:about="">
        <dc:format>image/svg+xml</dc:format>
        <dc:type
           rdf:resource="http://purl.org/dc/dcmitype/StillImage" />
        <dc:title></dc:title>
      </cc:Work>
    </rdf:RDF>
  </metadata>
  <g
     inkscape:label="Layer 1"
     inkscape:groupmode="layer"
     id="layer1"
     transform="translate(0,-732.36218)">
    <path
       sodipodi:type="arc"
       style="color:#000000;fill:none;stroke:#ff00ae;stroke-width:2.35867286;stroke-linecap:butt;stroke-linejoin:miter;stroke-miterlimit:4;stroke-opacity:1;stroke-dasharray:none;stroke-dashoffset:0;marker:none;visibility:visible;display:inline;overflow:visible;enable-background:accumulate"
       id="path10521-4"
       sodipodi:cx="89.272232"
       sodipodi:cy="73.573288"
       sodipodi:rx="24.902489"
       sodipodi:ry="22.902489"
       d="m 114.17472,73.573288 a 24.902489,22.902489 0 1 1 -49.804977,-1e-6 l 24.902489,1e-6 z"
       transform="matrix(-0.40545861,0.70487695,-0.76643159,-0.440866,137.68202,754.31901)"
       sodipodi:start="0"
       sodipodi:end="3.1415927" />
    <path
       sodipodi:type="star"
       style="fill:none;stroke:#ffde01;stroke-width:10.85019207;stroke-linecap:butt;stroke-linejoin:bevel;stroke-miterlimit:4;stroke-opacity:1;stroke-dasharray:none"
       id="path10549"
       sodipodi:sides="12"
       sodipodi:cx="40"
       sodipodi:cy="132"
       sodipodi:r1="102.95278"
       sodipodi:r2="51.476391"
       sodipodi:arg1="1.5732065"
       sodipodi:arg2="1.8350059"
       inkscape:flatsided="false"
       inkscape:rounded="1"
       inkscape:randomized="0"
       d="M 39.751866,234.95248 C -15.120375,234.82023 79.525414,196.01985 26.557128,181.69012 -26.411157,167.36039 35.763497,248.58605 -11.691131,221.0354 -59.14576,193.48474 42.22009,207.20552 3.5130717,168.31147 -35.193946,129.41742 -21.961946,230.84823 -49.283532,183.26135 -76.605119,135.67447 4.3198937,198.23994 -9.754342,145.20319 -23.828578,92.166448 -63.084735,186.62411 -62.952483,131.75187 -62.82023,76.879625 -24.019847,171.52541 -9.6901199,118.55713 4.6396066,65.588843 -76.586053,127.7635 -49.035398,80.308869 -21.484744,32.85424 -35.205521,134.22009 3.6885297,95.513072 42.58258,56.806054 -58.848232,70.038054 -11.261351,42.716468 36.32553,15.394881 -26.239936,96.319894 26.796808,82.245658 79.833552,68.171422 -14.624107,28.915265 40.248134,29.047517 95.120375,29.17977 0.4745856,67.980153 53.442872,82.30988 106.41116,96.639607 44.236503,15.413947 91.691131,42.964602 139.14576,70.515256 37.77991,56.794479 76.486928,95.68853 115.19395,134.58258 101.96195,33.151768 129.28353,80.738649 156.60512,128.32553 75.680106,65.760064 89.754342,118.79681 c 14.074238,53.03674 53.330398,-41.420917 53.198138,13.45132 -0.13225,54.87225 -38.93263,-39.773544 -53.26236,13.19474 -14.329727,52.96829 66.89593,-9.20637 39.34528,38.24826 -27.55066,47.45463 -13.82988,-53.91122 -52.72393,-15.2042 -38.89405,38.70702 62.53676,25.47502 14.949881,52.7966 -47.586881,27.32159 14.978589,-53.60342 -38.058159,-39.52919 -53.03674446,14.07424 41.420915,53.3304 -13.451326,53.19814 z"
       transform="matrix(0.1843505,0,0,0.18430658,86.83282,896.44979)" />
    <path
       sodipodi:type="star"
       style="fill:none;stroke:#0155ff;stroke-width:10.85019207;stroke-linecap:butt;stroke-linejoin:bevel;stroke-miterlimit:4;stroke-opacity:1;stroke-dasharray:none"
       id="path10549-5"
       sodipodi:sides="3"
       sodipodi:cx="40"
       sodipodi:cy="132"
       sodipodi:r1="102.95278"
       sodipodi:r2="51.476391"
       sodipodi:arg1="1.5732065"
       sodipodi:arg2="2.6204041"
       inkscape:flatsided="false"
       inkscape:rounded="1"
       inkscape:randomized="0"
       d="m 39.751866,234.95248 c -89.159468,-0.21489 0,0 -44.3936334,-77.32181 -44.3936306,-77.321801 -89.1594666,-0.21489 -44.3936306,-77.321801 44.7658376,-77.1069174 0,0 89.159467,0.21489 89.159461,0.21489 44.765836,-77.1069172 89.159461,0.21489 44.39363,77.321811 0,0 -44.765832,77.106921 -44.765832,77.10691 44.393632,77.32181 -44.765832,77.10691 z"
       transform="matrix(0.1843505,0,0,0.18430658,57.21002,877.99321)" />
    <path
       sodipodi:type="star"
       style="fill:none;stroke:#01baff;stroke-width:10.85019207;stroke-linecap:butt;stroke-linejoin:bevel;stroke-miterlimit:4;stroke-opacity:1;stroke-dasharray:none"
       id="path10549-5-8"
       sodipodi:sides="5"
       sodipodi:cx="40"
       sodipodi:cy="132"
       sodipodi:r1="102.95278"
       sodipodi:r2="51.476391"
       sodipodi:arg1="1.5732065"
       sodipodi:arg2="2.201525"
       inkscape:flatsided="false"
       inkscape:rounded="1.5"
       inkscape:randomized="0"
       d="M 39.751866,234.95248 C -62.798922,234.70532 92.462703,234.05003 9.6426536,173.57223 -73.1774,113.09443 -26.535435,261.18605 -57.990307,163.57808 -89.445178,65.970105 -40.843481,213.43019 -8.9184765,115.97497 23.00653,18.519753 -103.42382,108.64173 -20.313207,48.563843 62.797402,-11.514039 -62.426722,80.276593 40.124065,80.523759 142.67486,80.770924 17.89464,-11.62226 100.7147,48.855541 183.53475,109.33334 57.540285,18.602986 88.995153,116.21096 c 31.454867,97.60798 80.766797,-49.616125 48.841797,47.8391 -31.925,97.45521 15.43026,-50.40986 -67.680345,9.66802 -83.110614,60.07788 72.146055,61.48157 -30.404739,61.2344 z"
       transform="matrix(0.1843505,0,0,0.18430658,54.57798,924.4462)" />
    <g
       id="g10703"
       transform="matrix(0.76237931,2.3199832,-1.7372257,0.5684387,1400.7652,275.26931)"
       style="stroke:#808080;stroke-width:0.94663483;stroke-miterlimit:4;stroke-opacity:1;stroke-dasharray:none">
      <rect
         transform="translate(0,732.36218)"
         y="70"
         x="40"
         height="10"
         width="10"
         id="rect10695"
         style="color:#000000;fill:none;stroke:#808080;stroke-width:0.94663483;stroke-linecap:butt;stroke-linejoin:miter;stroke-miterlimit:4;stroke-opacity:1;stroke-dasharray:none;stroke-dashoffset:0;marker:none;visibility:visible;display:inline;overflow:visible;enable-background:accumulate" />
      <path
         sodipodi:nodetypes="cc"
         transform="translate(0,732.36218)"
         id="path10699"
         d="M 40,70 50,80"
         style="fill:none;stroke:#808080;stroke-width:0.94663483;stroke-linecap:butt;stroke-linejoin:miter;stroke-miterlimit:4;stroke-opacity:1;stroke-dasharray:none" />
      <path
         sodipodi:nodetypes="cc"
         transform="translate(0,732.36218)"
         id="path10701"
         d="M 50,70 40,80"
         style="fill:none;stroke:#808080;stroke-width:0.94663483;stroke-linecap:butt;stroke-linejoin:miter;stroke-miterlimit:4;stroke-opacity:1;stroke-dasharray:none" />
    </g>
    <g
       transform="matrix(0.48993729,0.87175768,-0.87175768,0.48993729,736.15909,435.7495)"
       id="g10714"
       style="stroke-width:2;stroke-miterlimit:4;stroke-dasharray:none">
      <g
         id="g10719"
         transform="matrix(0.24573995,-0.9693358,0.9693358,0.24573995,-762.87114,743.94085)"
         style="stroke-width:2;stroke-miterlimit:4;stroke-dasharray:none">
        <path
           style="fill:none;stroke:#000000;stroke-width:2;stroke-linecap:butt;stroke-linejoin:miter;stroke-miterlimit:4;stroke-opacity:1;stroke-dasharray:none"
           d="m 105,802.36218 0,45"
           id="path10708"
           sodipodi:nodetypes="cc" />
        <path
           style="fill:none;stroke:#000000;stroke-width:2;stroke-linecap:butt;stroke-linejoin:miter;stroke-miterlimit:4;stroke-opacity:1;stroke-dasharray:none"
           d="m 100,842.36218 10,0"
           id="path10710" />
        <path
           style="fill:none;stroke:#000000;stroke-width:2;stroke-linecap:butt;stroke-linejoin:miter;stroke-miterlimit:4;stroke-opacity:1;stroke-dasharray:none"
           d="m 100,807.36218 10,0"
           id="path10712"
           sodipodi:nodetypes="cc" />
      </g>
    </g>
    <g
       id="g10748"
       style="stroke-width:2;stroke-miterlimit:4;stroke-dasharray:none"
       transform="matrix(0.93776881,-0.06233932,0.06233932,0.93776881,-221.76,57.147539)">
      <path
         sodipodi:end="1.5707963"
         sodipodi:start="0"
         transform="matrix(0.98522163,0,0,1.010101,13.004935,726.75612)"
         d="M 220.25,35.25 C 220.25,48.919047 208.88923,60 194.875,60 l 0,-24.75 z"
         sodipodi:ry="24.75"
         sodipodi:rx="25.375"
         sodipodi:cy="35.25"
         sodipodi:cx="194.875"
         id="path10724"
         style="color:#000000;fill:none;stroke:#c9ff00;stroke-width:2.13317943;stroke-linecap:butt;stroke-linejoin:miter;stroke-miterlimit:4;stroke-opacity:1;stroke-dasharray:none;stroke-dashoffset:0;marker:none;visibility:visible;display:inline;overflow:visible;enable-background:accumulate"
         sodipodi:type="arc" />
      <path
         sodipodi:end="1.5707963"
         sodipodi:start="0"
         transform="matrix(-0.98522163,0,0,-1.010101,421.99507,822.96824)"
         d="M 220.25,35.25 C 220.25,48.919047 208.88923,60 194.875,60 l 0,-24.75 z"
         sodipodi:ry="24.75"
         sodipodi:rx="25.375"
         sodipodi:cy="35.25"
         sodipodi:cx="194.875"
         id="path10724-1"
         style="color:#000000;fill:none;stroke:#c9ff00;stroke-width:2.13317943;stroke-linecap:butt;stroke-linejoin:miter;stroke-miterlimit:4;stroke-opacity:1;stroke-dasharray:none;stroke-dashoffset:0;marker:none;visibility:visible;display:inline;overflow:visible;enable-background:accumulate"
         sodipodi:type="arc" />
    </g>
    <g
       id="g2853">
      <path
         style="color:#000000;fill:none;stroke:#000000;stroke-width:6.0795455;stroke-miterlimit:4;stroke-opacity:1;marker:none;visibility:visible;display:inline;overflow:visible;enable-background:accumulate"
         d="m 12.53978,745.90198 454.92044,0 c 0,0 0,-6.46969 0,21.2018 9.89955,6.56177 16.69205,21.14787 10.74348,32.73899 10.06573,14.24501 -13.52362,6.07539 -0.30648,45.5421 -18.29781,-0.30017 -0.4214,30.26273 -10.437,36.97731 0,31.54919 0,156.46022 0,156.46022 l -454.92044,0 0,-292.92042 z"
         id="rect10457"
         sodipodi:nodetypes="ccccccccc" />
      <rect
         transform="matrix(0,-1,1,0,0,0)"
         y="329.90231"
         x="-1016.7883"
         height="115.85236"
         width="248.85234"
         id="rect10459"
         style="color:#000000;fill:none;stroke:#d8bc00;stroke-width:4;stroke-linecap:butt;stroke-linejoin:miter;stroke-miterlimit:4;stroke-opacity:1;stroke-dasharray:8,4;stroke-dashoffset:0;marker:none;visibility:visible;display:inline;overflow:visible;enable-background:accumulate" />
      <rect
         transform="translate(0,732.36218)"
         y="297.75"
         x="38.25"
         height="7.0857863"
         width="125.86039"
         id="rect2860"
         style="color:#000000;fill:none;stroke:#000000;stroke-width:2;stroke-linecap:butt;stroke-linejoin:miter;stroke-miterlimit:4;stroke-opacity:1;stroke-dasharray:none;stroke-dashoffset:0;marker:none;visibility:visible;display:inline;overflow:visible;enable-background:accumulate" />
    </g>
    <path
       id="path10436-7"
       style="fill:none;stroke:#00ff00;stroke-width:2px;stroke-linecap:butt;stroke-linejoin:miter;stroke-opacity:1"
       d="m 69.80957,908.69166 -38.986498,9.62929 c 0,0 31.46145,16.16304 31.46145,16.16304 0,0 9.876398,28.42218 9.876398,28.42218 0,0 -12.791118,31.45858 -12.791118,31.45858 0,0 35.095008,-21.30093 35.095008,-21.30093"
       sodipodi:nodetypes="cccccc" />
    <path
       sodipodi:nodetypes="cssss"
       id="path2826-1-1"
       d="m 163.1896,909.77088 c -5.96232,2.45968 -8.11114,4.9756 -16.67904,10.51921 -18.25309,11.81015 -39.88516,17.44188 -68.45526,25.17433 -51.260108,13.87347 -63.303792,16.8721 -55.153754,68.01238 4.573816,28.7 31.431026,14.2573 66.833874,8.2501"
       style="fill:none;stroke:#00ff00;stroke-width:4;stroke-linecap:butt;stroke-linejoin:miter;stroke-miterlimit:4;stroke-opacity:1;stroke-dasharray:none;marker-start:none;marker-mid:none;marker-end:none" />
    <path
       id="path10402-6-4"
       style="fill:none;stroke:#00ff00;stroke-width:2px;stroke-linecap:butt;stroke-linejoin:miter;stroke-opacity:1"
       d="m 166.9676,872.15881 -25.56322,17.66612 -8.14635,28.63395 12.72892,16.46905 c 0,0 24.19088,-9.17279 24.19088,-9.17279 l 22.55269,-21.38892"
       sodipodi:nodetypes="cccccc" />
    <g
       id="g3642"
       transform="matrix(-0.97448106,0.03569318,-0.08967381,-1.0229027,495.43126,1729.8995)">
      <g
         id="g3646"
         transform="matrix(-0.93273817,-0.27052583,0.35513795,-0.96911014,215.79759,1687.5813)">
        <path
           style="fill:none;stroke:#0000ff;stroke-width:4;stroke-linecap:butt;stroke-linejoin:bevel;stroke-miterlimit:4;stroke-opacity:1;stroke-dasharray:none"
           d="m 276.61597,827.67132 c 0,0 -11.38067,-10.772 -11.38067,-10.772 l -3.45626,14.16208 14.83693,-3.39008 z"
           id="rect10452-0"
           sodipodi:nodetypes="cccc" />
        <path
           id="path10399-9"
           style="fill:none;stroke:#00ff00;stroke-width:2;stroke-linecap:butt;stroke-linejoin:miter;stroke-miterlimit:4;stroke-opacity:1;stroke-dasharray:none"
           d="m 270.4993,840.77804 c 0,0 19.00475,-36.06212 19.00475,-36.06212 l -38.38597,17.58503 c 0,0 16.94307,16.39968 19.38122,18.47709 z"
           sodipodi:nodetypes="cccc" />
      </g>
    </g>
    <path
       style="fill:none;stroke:#808080;stroke-width:2;stroke-linecap:butt;stroke-linejoin:miter;stroke-miterlimit:4;stroke-opacity:1;stroke-dasharray:none"
       d="m 74.229152,958.08506 c -6.111816,2.42811 -7.864153,-5.83543 -8.701176,-9.41784 -0.837386,-3.584 -2.420241,-11.33022 3.534289,-12.54543"
       id="path3646"
       sodipodi:nodetypes="czc" />
    <g
       id="g10654"
       style="stroke-width:2;stroke-miterlimit:4;stroke-dasharray:none"
       transform="matrix(-0.31593018,-0.94878244,0.94878244,-0.31593018,-769.28272,1510.3561)">
      <rect
         transform="translate(0,732.36218)"
         y="245"
         x="275"
         height="30"
         width="10"
         id="rect10650"
         style="color:#000000;fill:none;stroke:#000000;stroke-width:2;stroke-linecap:butt;stroke-linejoin:miter;stroke-miterlimit:4;stroke-opacity:1;stroke-dasharray:none;stroke-dashoffset:0;marker:none;visibility:visible;display:inline;overflow:visible;enable-background:accumulate" />
      <rect
         ry="5"
         transform="translate(0,732.36218)"
         y="245"
         x="270"
         height="30"
         width="20"
         id="rect10652"
         style="color:#000000;fill:none;stroke:#000000;stroke-width:2;stroke-linecap:butt;stroke-linejoin:miter;stroke-miterlimit:4;stroke-opacity:1;stroke-dasharray:none;stroke-dashoffset:0;marker:none;visibility:visible;display:inline;overflow:visible;enable-background:accumulate" />
    </g>
    <g
       id="g10690"
       transform="matrix(-0.86500804,0.33978201,-0.33978201,-0.86500804,511.00361,1612.4994)"
       style="stroke:#ff0101;stroke-width:2.15204263;stroke-miterlimit:4;stroke-opacity:1;stroke-dasharray:none">
      <path
         sodipodi:nodetypes="cc"
         id="path10669"
         d="m 100,827.36218 80,0"
         style="fill:none;stroke:#ff0101;stroke-width:2.15204263;stroke-linecap:butt;stroke-linejoin:miter;stroke-miterlimit:4;stroke-opacity:1;stroke-dasharray:none" />
      <path
         sodipodi:nodetypes="cccccccc"
         transform="translate(0,732.36218)"
         id="path10673"
         d="m 105,100 20,-10 20,10 20,-10 0,10 -20,-10 -20,10 -20,-10"
         style="fill:none;stroke:#ff0101;stroke-width:2.15204263;stroke-linecap:butt;stroke-linejoin:miter;stroke-miterlimit:4;stroke-opacity:1;stroke-dasharray:none" />
      <path
         sodipodi:nodetypes="ccccccc"
         id="rect10675"
         d="m 165,817.36218 15,5 0,10 -15,5 5,-5 0,-10 -5,-5 z"
         style="color:#000000;fill:none;stroke:#ff0101;stroke-width:2.15204263;stroke-linecap:butt;stroke-linejoin:miter;stroke-miterlimit:4;stroke-opacity:1;stroke-dasharray:none;stroke-dashoffset:0;marker:none;visibility:visible;display:inline;overflow:visible;enable-background:accumulate" />
    </g>
    <g
       id="g2884"
       transform="matrix(0.1895149,-0.98187785,-0.98187785,-0.1895149,948.03598,1327.2387)">
      <path
         style="fill:none;stroke:#0000ff;stroke-width:2;stroke-linecap:butt;stroke-linejoin:miter;stroke-miterlimit:4;stroke-opacity:1;stroke-dasharray:none"
         d="m 251.00219,887.03633 c -4.79084,1.23438 -9.167,-0.0985 -12.58982,-7.33332"
         id="rect10452-1"
         sodipodi:nodetypes="cc" />
      <path
         style="fill:none;stroke:#0000ff;stroke-width:2;stroke-linecap:butt;stroke-linejoin:miter;stroke-miterlimit:4;stroke-opacity:1;stroke-dasharray:none"
         d="m 247.04946,894.69586 c -2.21645,-5.46551 -6.90782,-8.21952 -12.58981,-7.33332"
         id="rect10452-1-4"
         sodipodi:nodetypes="cc" />
      <path
         sodipodi:nodetypes="ccccc"
         d="m 243.82465,899.23294 -3.19109,6.14857 c -2.96401,-6.00152 -6.29008,-7.46185 -12.15328,-7.74197 l 3.3076,-5.3155 c 6.03234,-0.19663 9.48704,1.86523 12.03677,6.90891 z"
         style="fill:none;stroke:#0000ff;stroke-width:2;stroke-linecap:butt;stroke-linejoin:miter;stroke-miterlimit:4;stroke-opacity:1;stroke-dasharray:none"
         id="rect10452-1-8" />
    </g>
    <g
       id="g3638"
       transform="translate(5,10)">
      <path
         d="m 420,822.36218 -30,30 m 0,-30 30,30"
         style="fill:none;stroke:#ff0000;stroke-width:2;stroke-linecap:butt;stroke-linejoin:miter;stroke-miterlimit:4;stroke-opacity:1;stroke-dasharray:none"
         id="path3633" />
      <path
         transform="translate(0,732.36218)"
         d="m 420,105 a 15,15 0 1 1 -30,0 15,15 0 1 1 30,0 z"
         sodipodi:ry="15"
         sodipodi:rx="15"
         sodipodi:cy="105"
         sodipodi:cx="405"
         id="path3636"
         style="color:#000000;fill:none;stroke:#ff0000;stroke-width:2;stroke-linecap:butt;stroke-linejoin:miter;stroke-miterlimit:4;stroke-opacity:1;stroke-dasharray:none;stroke-dashoffset:0;marker:none;visibility:visible;display:inline;overflow:visible;enable-background:accumulate"
         sodipodi:type="arc" />
    </g>
  </g>
</svg>
