<?xml version="1.0" encoding="UTF-8" standalone="no"?>
<!-- Created with Inkscape (http://www.inkscape.org/) -->

<svg
   xmlns:dc="http://purl.org/dc/elements/1.1/"
   xmlns:cc="http://creativecommons.org/ns#"
   xmlns:rdf="http://www.w3.org/1999/02/22-rdf-syntax-ns#"
   xmlns:svg="http://www.w3.org/2000/svg"
   xmlns="http://www.w3.org/2000/svg"
   xmlns:sodipodi="http://sodipodi.sourceforge.net/DTD/sodipodi-0.dtd"
   xmlns:inkscape="http://www.inkscape.org/namespaces/inkscape"
   width="480"
   height="320"
   id="svg2"
   version="1.1"
   inkscape:version="0.47 r22583"
   sodipodi:docname="itnas058.svg"
   inkscape:export-xdpi="90"
   inkscape:export-ydpi="90"
   inkscape:export-filename="itnas058.png">
  <defs
     id="defs4" />
  <sodipodi:namedview
     id="base"
     pagecolor="#ffffff"
     bordercolor="#666666"
     borderopacity="1.0"
     inkscape:pageopacity="1"
     inkscape:pageshadow="2"
     inkscape:zoom="1.4142136"
     inkscape:cx="295.91709"
     inkscape:cy="121.88867"
     inkscape:document-units="px"
     inkscape:current-layer="layer1"
     showgrid="false"
     inkscape:snap-nodes="true"
     inkscape:snap-global="false"
     inkscape:snap-grids="true"
     showguides="true"
     inkscape:window-width="1280"
     inkscape:window-height="774"
     inkscape:window-x="-4"
     inkscape:window-y="-4"
     inkscape:window-maximized="1">
    <inkscape:grid
       empspacing="5"
       visible="true"
       enabled="true"
       snapvisiblegridlinesonly="true"
       type="xygrid"
       id="grid2816" />
  </sodipodi:namedview>
  <metadata
     id="metadata7">
    <rdf:RDF>
      <cc:Work
         rdf:about="">
        <dc:format>image/svg+xml</dc:format>
        <dc:type
           rdf:resource="http://purl.org/dc/dcmitype/StillImage" />
        <dc:title></dc:title>
      </cc:Work>
    </rdf:RDF>
  </metadata>
  <g
     inkscape:label="Layer 1"
     inkscape:groupmode="layer"
     id="layer1"
     transform="translate(0,0)">
    <path
       style="color:#000000;fill:none;stroke:#008000;stroke-width:4;stroke-linecap:butt;stroke-linejoin:miter;stroke-miterlimit:4;stroke-opacity:1;stroke-dasharray:none;stroke-dashoffset:0;marker:none;visibility:visible;display:inline;overflow:visible;enable-background:accumulate"
       d="m 501.33871,312.22183 c -12.59246,-1.08022 -25.65197,1.56647 -38.18377,0 -6.57891,-0.82237 -13.15991,-2.16452 -19.79899,-2.82843 -4.60517,-0.46052 -9.50428,0 -14.14213,0 -11.07801,0 -22.15601,0 -33.23402,0 -30.4056,0 -60.81119,0 -91.21678,0 -39.12657,0 -78.25315,0 -117.37972,0 -12.96363,0 -25.92725,0 -38.89088,0 -5.79521,0 -11.91353,-0.57641 -17.67767,0 -8.25305,0.82531 -16.45252,2.13708 -24.74873,2.82843 -6.962231,0.58018 -14.225351,0 -21.213211,0 -7.75273,0 -15.76815,0.55395 -23.33452,-0.70711 -6.66743,-1.11124 -14.45166,0 -21.2132,0 -15.55635,0 -31.1127,0 -46.66905,0"
       id="path3669" />
    <path
       style="color:#000000;fill:none;stroke:#c87137;stroke-width:4;stroke-linecap:round;stroke-linejoin:round;stroke-miterlimit:4;stroke-opacity:1;stroke-dasharray:none;stroke-dashoffset:0;marker:none;visibility:visible;display:inline;overflow:visible;enable-background:accumulate"
       d="m 208.02411,305.53401 c -4.81501,-0.57835 -10.19877,1.93609 -14.50582,0.16047 -3.72314,-1.5349 -7.62424,-4.68845 -8.67719,-9.19831 -1.4335,-6.13985 -3.0566,-12.24703 -4.50491,-18.38854 -2.14412,-9.09205 -0.5436,-18.44227 -0.97443,-27.66057 -0.2159,-4.6197 2.32201,-8.88343 2.18456,-13.5754 -0.19392,-6.61925 -0.43967,-13.24236 -0.0182,-19.87042 0.22479,-3.53511 -0.056,-7.16683 -1.79976,-10.39323 -1.05645,-1.95468 -0.16871,-4.34704 -0.18676,-6.49939"
       id="path2832"
       sodipodi:nodetypes="cssssssss" />
    <path
       style="color:#000000;fill:none;stroke:#c87137;stroke-width:4;stroke-linecap:round;stroke-linejoin:round;stroke-miterlimit:4;stroke-opacity:1;stroke-dasharray:none;stroke-dashoffset:0;marker:none;visibility:visible;display:inline;overflow:visible;enable-background:accumulate"
       d="m 150.12395,204.86949 c 0.45761,3.71047 0.81571,7.426 1.32187,11.16764 0.65961,4.87606 0,10.42792 0,15.35551 0,11.21612 1.21952,23.46559 -1.32187,34.20092 -1.34892,5.69814 1.57039,20.15198 0,25.12722 -2.48739,7.88042 -10.57713,11.51778 -17.84516,15.35549 -1.06949,0.56473 -3.99913,0 -5.28746,0"
       id="path2850"
       sodipodi:nodetypes="cssssss" />
    <path
       style="fill:none;stroke:#00ffff;stroke-width:4;stroke-linecap:round;stroke-linejoin:round;stroke-miterlimit:4;stroke-opacity:1;stroke-dasharray:none"
       d="m 181.10813,201.10086 c 5.57492,3.75806 6.17758,6.51685 12.79781,7.15693 7.75186,0.74949 15.22283,-2.18119 21.79884,-4.95071 12.3442,-5.1988 -10.99637,-22.35055 0.0338,-13.28145 4.6311,3.80772 6.22193,3.14912 11.99162,3.38355 6.17275,0.25079 8.29642,0.38058 10.34326,-8.25737 2.18202,-9.20837 2.28338,-19.02791 0.53047,-28.21275 -0.63354,-3.31965 -5.07145,-6.67616 -7.61623,-6.96726 -11.77075,-1.34647 -7.24756,-0.0525 1.95857,-3.63918 4.98221,-1.94103 18.34195,-9.96652 11.18428,-15.63568 -5.38827,-4.26772 -13.40953,-6.58189 -20.282,-3.71336 -3.06544,1.2795 -8.47851,2.13371 -9.79906,5.11936 -4.17045,9.42903 -2.2461,7.60092 -1.32277,-2.68328 0.50703,-5.64728 -4.14158,-17.08417 -6.09296,-18.41097 -0.50219,-0.34145 -3.98408,-4.59066 -7.64068,-5.80405 -4.13162,-1.37103 -6.7415,2.31199 -12.47332,8.09765 -3.15908,3.18875 -2.99312,9.5257 -1.60913,-0.008 0.0978,-0.67365 -3.93119,-6.77869 -4.85321,-8.09135 -4.79747,-6.830044 -9.41373,-7.235896 -16.45222,-12.321695 -6.58524,-4.758295 -15.71316,-5.194427 -22.71319,-3.776109 -5.47436,1.109196 -8.01228,9.952369 -11.33761,15.260964 -4.07044,6.49809 4.29016,27.92875 -0.28453,21.07533 -1.51293,-2.26654 -7.93569,-13.63002 -12.93437,-19.24944 -5.99962,-6.74467 -11.15907,2.54163 -16.1178,5.69854 -6.658941,4.23931 -12.366911,9.20706 -14.747211,17.818 -2.16295,7.82468 -3.16337,16.93316 4.90371,21.72868 2.20482,1.31066 17.885651,11.76776 8.95287,6.75224 -4.47636,-2.51336 -10.87128,1.38261 -14.48994,4.51697 -4.46983,3.87161 -7.92615,8.2674 -8.5142,15.00635 -0.72481,8.30614 7.01742,11.93004 13.85228,13.36251 7.29362,1.5286 19.106991,7.7638 21.435491,6.63764 5.55927,-2.68869 -8.97961,7.54457 -13.464941,11.59267 -4.92313,4.44322 -7.02194,14.87496 1.30809,16.81426 9.736811,2.26681 20.416821,5.93835 29.988811,2.68965 6.9539,-2.36013 12.26276,-8.85377 15.44927,-15.14473 1.47891,-2.91973 2.41226,-18.3039 4.102,-11.68725 1.48945,5.83238 8.43941,9.18945 13.38547,12.85217 8.31132,6.15479 15.92018,-7.64371 15.87985,-12.12514 -0.0339,-3.76415 -3.38396,-5.80547 2.84884,-1.60394 l 4e-5,2.5e-4 z"
       id="path2827"
       sodipodi:nodetypes="cssssssssssssssssssssssssssssssssssssssc" />
    <path
       style="fill:none;stroke:#80ff00;stroke-width:3.99999976;stroke-linecap:round;stroke-linejoin:round;stroke-miterlimit:4;stroke-opacity:1;stroke-dasharray:none"
       d="m 271.08702,98.005065 c -1.65586,0.876481 1.82416,2.049995 -0.17518,3.004045 -1.24049,2.65506 -0.18295,5.5457 -1.49567,8.19589 -0.45598,1.89349 0.15689,3.82473 -0.35503,5.71566 -0.46294,1.99455 -0.18327,3.9622 0.0258,5.93575 0.0941,1.72532 -0.27409,3.43302 -0.33996,5.14905 -0.92154,1.30571 -0.72951,2.55119 -1.55368,3.90727 -0.98668,1.63926 -0.21122,3.611 -1.62384,5.16706 -0.86538,-0.0721 -1.66643,-1.76979 -2.50724,-2.48216 -1.98615,-2.28548 -3.97406,-4.57023 -5.95652,-6.85748 -0.69063,-1.61701 -2.30337,-2.98306 -2.23841,-4.77277 -0.35727,-1.39247 -1.40822,-2.57364 -2.06456,-3.86707 -0.91998,-1.3641 -1.80645,-2.98683 -2.58387,-4.47921 -0.99853,-1.47066 -1.73304,-3.04612 -3.10814,-4.36303 -1.07467,-1.03367 -2.39891,-2.34893 -0.0695,-3.08673 1.52814,-0.86272 3.59363,-0.54788 5.12766,-1.42241 1.98189,-0.53961 3.68056,-1.54932 5.99343,-1.49652 1.96521,-0.76036 4.29346,-1.14974 6.03097,-2.22202 1.87512,-0.353314 3.64215,-1.140994 5.35479,-1.732883 0.3976,-0.200792 1.09127,-0.712235 1.53872,-0.292287 z"
       id="path2942" />
    <path
       style="fill:none;stroke:#80ff00;stroke-width:3.99999976;stroke-linecap:round;stroke-linejoin:round;stroke-miterlimit:4;stroke-opacity:1;stroke-dasharray:none"
       d="m 211.87311,123.07264 c 1.90921,-3.84112 3.50213,-7.92012 7.14066,-10.73839 3.96104,-3.83535 7.65642,-7.95469 12.25571,-11.34622 2.43103,-2.550755 7.23434,-9.659251 6.98346,-2.823815 1.80338,5.328005 2.86581,10.531295 2.67088,15.747615 0.31691,5.47668 1.11947,11.67675 0.33729,16.51845 -1.1678,1.08615 0.34196,2.63102 -0.5856,3.8124"
       id="path2956" />
    <path
       style="fill:none;stroke:#80ff00;stroke-width:3.99999976;stroke-linecap:round;stroke-linejoin:round;stroke-miterlimit:4;stroke-opacity:1;stroke-dasharray:none"
       d="m 136.94855,95.834546 c 0.47735,-0.604358 3.04225,-3.85132 4.31324,-5.460213 4.06091,-5.021516 8.53734,-5.215218 14.89207,-10.594333 3.06501,-3.507306 11.19084,-9.100887 13.16914,-10.707799 -0.28624,5.091295 -0.81237,10.185895 -1.0384,15.272759 -0.90538,7.679644 -0.14263,15.200876 3.99943,22.41605 0.68107,0.85924 2.62232,2.17025 0.84817,3.15354"
       id="path2958" />
    <path
       style="color:#000000;fill:none;stroke:#80ff00;stroke-width:4;stroke-linecap:round;stroke-linejoin:round;stroke-miterlimit:4;stroke-opacity:1;stroke-dasharray:none;stroke-dashoffset:0;marker:none;visibility:visible;display:inline;overflow:visible;enable-background:accumulate"
       d="m 256.38181,102.19588 c -3.01057,-2.269374 -5.33387,-4.587934 -9.03764,-6.083512 -3.84406,-1.55176 -7.86559,-2.594247 -11.92749,-3.762219 -4.47394,-1.286506 -10.12175,-3.523005 -15.05688,-5.08439 -6.16446,-1.950304 -12.13715,-2.741442 -18.34548,-4.865381 -7.56995,-2.58965 -14.68308,-6.741136 -21.97533,-10.260002 -3.66695,-1.769459 -7.11431,-3.825751 -10.9488,-5.316158 -2.95792,-1.149475 -9.60723,-3.247283 -12.15478,-3.123895"
       id="path2833"
       sodipodi:nodetypes="csssssss" />
    <path
       style="color:#000000;fill:none;stroke:#80ff00;stroke-width:3.99999976;stroke-linecap:round;stroke-linejoin:round;stroke-miterlimit:4;stroke-opacity:1;stroke-dasharray:none;stroke-dashoffset:0;marker:none;visibility:visible;display:inline;overflow:visible;enable-background:accumulate"
       d="m 156.6626,64.079964 c -14.81694,-1.804247 -20.0814,-7.24827 -33.46531,-4.631215 -4.22092,0.825348 -11.98356,6.083383 -16.50338,10.378051 -8.799441,8.361096 -13.383931,10.715433 -22.054771,21.195748 -6.675751,8.068878 -11.511974,8.900778 -13.712978,20.470962 -1.772202,9.31608 1.040556,18.73279 7.301578,24.53848 7.786549,7.22027 11.39228,20.46073 18.551563,32.57086"
       id="path4125-8"
       sodipodi:nodetypes="cssssss" />
    <path
       sodipodi:type="arc"
       style="color:#000000;fill:none;stroke:#ffff00;stroke-width:3.67391965;stroke-linecap:round;stroke-linejoin:round;stroke-miterlimit:4;stroke-opacity:1;stroke-dasharray:none;stroke-dashoffset:0;marker:none;visibility:visible;display:inline;overflow:visible;enable-background:accumulate"
       id="path3750"
       sodipodi:cx="421.25"
       sodipodi:cy="237.25"
       sodipodi:rx="36.75"
       sodipodi:ry="36.75"
       d="M 446.68696,263.77401 A 36.75,36.75 0 1 1 424.61303,200.6542"
       sodipodi:start="0.80631561"
       sodipodi:end="4.8040282"
       transform="matrix(-1.1013827,-0.07995262,0.0822745,-1.0703004,877.2315,340.10922)"
       inkscape:transform-center-x="-32.091535"
       inkscape:transform-center-y="29.238219"
       sodipodi:open="true" />
    <path
       d="M 448.39505,262.02315 A 36.75,36.75 0 1 1 398.463,208.41747"
       sodipodi:ry="36.75"
       sodipodi:rx="36.75"
       sodipodi:cy="237.25"
       sodipodi:cx="421.25"
       id="path3752"
       style="color:#000000;fill:none;stroke:#ffff00;stroke-width:3.67391972;stroke-linecap:round;stroke-linejoin:round;stroke-miterlimit:4;stroke-opacity:1;stroke-dasharray:none;stroke-dashoffset:0;marker:none;visibility:visible;display:inline;overflow:visible;enable-background:accumulate"
       sodipodi:type="arc"
       sodipodi:start="0.73974463"
       sodipodi:end="4.0435768"
       sodipodi:open="true"
       transform="matrix(1.1044514,0,0,1.0732825,-35.044681,-203.96009)" />
    <path
       style="fill:none;stroke:#ffff00;stroke-width:4;stroke-linecap:round;stroke-linejoin:round;stroke-opacity:1;color:#000000;stroke-miterlimit:4;stroke-dasharray:none;stroke-dashoffset:0;marker:none;visibility:visible;display:inline;overflow:visible;enable-background:accumulate"
       d="m 371,26 c -8.13811,-0.02918 -40.64404,0.355965 -45,-4"
       id="path3761" />
    <path
       style="fill:none;stroke:#ffff00;stroke-width:4;stroke-linecap:round;stroke-linejoin:round;stroke-opacity:1;color:#000000;stroke-miterlimit:4;stroke-dasharray:none;stroke-dashoffset:0;marker:none;visibility:visible;display:inline;overflow:visible;enable-background:accumulate"
       d="m 364,59 c -12.71827,4.448213 -26.1705,6.723499 -39,11 -2.62235,0.874117 -2.19105,2 -5,2"
       id="path3763" />
    <path
       style="fill:none;stroke:#ffff00;stroke-width:4;stroke-linecap:round;stroke-linejoin:round;stroke-opacity:1;color:#000000;stroke-miterlimit:4;stroke-dasharray:none;stroke-dashoffset:0;marker:none;visibility:visible;display:inline;overflow:visible;enable-background:accumulate"
       d="m 382,89 c -0.33333,1 -0.34151,2.176892 -1,3 -2.6092,3.261506 -9.6974,8.28458 -13,12 -3.60502,4.05565 -7.49494,7.85766 -11,12 -1.55265,1.83495 -2.39201,4.21334 -4,6 -1.42782,1.58647 -3.49077,2.49077 -5,4 -1.24693,1.24693 -5.46157,7 -6,7"
       id="path3765" />
    <path
       style="fill:none;stroke:#ffff00;stroke-width:4;stroke-linecap:round;stroke-linejoin:round;stroke-opacity:1;color:#000000;stroke-miterlimit:4;stroke-dasharray:none;stroke-dashoffset:0;marker:none;visibility:visible;display:inline;overflow:visible;enable-background:accumulate"
       d="m 412,107 c -0.87511,6.82304 1.34586,14.27072 0,21 -1.16414,5.82068 -4.04117,11.24703 -5,17 -0.49191,2.95146 -4,5.30412 -4,8"
       id="path3767" />
    <path
       style="fill:none;stroke:#ffff00;stroke-width:4;stroke-linecap:round;stroke-linejoin:round;stroke-opacity:1;color:#000000;stroke-miterlimit:4;stroke-dasharray:none;stroke-dashoffset:0;marker:none;visibility:visible;display:inline;overflow:visible;enable-background:accumulate"
       d="m 441.10283,106.41378 c 6.19095,12.93054 1.35984,26.51829 2.13665,39.75468 0.0586,0.99828 0.82537,1.90438 0.75968,2.90222 -0.2523,3.83253 -2.06593,7.90357 -1.08411,11.65439"
       id="path3775" />
    <path
       style="fill:none;stroke:#0000ff;stroke-width:4;stroke-linecap:round;stroke-linejoin:round;stroke-miterlimit:4;stroke-opacity:1;stroke-dasharray:none"
       d="m 271.24961,285.52796 c -0.5151,-2.29907 -2.6473,-2.75593 -4.02119,-3.37132 -1.98867,-1.53437 -2.53849,-0.79964 -4.96947,-2.06915 -1.95475,0.22374 -3.6581,-0.62639 -5.72232,0.0632 -3.15237,0.17935 -5.36206,3.12219 -6.85683,5.56273 -0.77529,1.94825 -1.72001,3.77964 -1.1975,5.92394 0.36949,1.51404 0.25612,3.30649 1.00868,4.59969 2.13442,1.34682 3.40898,4.65768 5.2207,5.37167 1.84992,-0.18036 3.66482,-0.5072 5.48874,-0.50811 2.71295,-0.43876 5.42606,-0.87653 8.13889,-1.31538 0.80964,-1.19609 2.2624,-1.9473 2.383,-3.17982 0.56282,-0.76085 0.004,-2.33267 0.35755,-3.28138 0.58015,-2.39545 -0.11095,-5.0903 0.16975,-7.79605 z"
       id="path2905" />
    <path
       style="fill:none;stroke:#0000ff;stroke-width:4;stroke-linecap:round;stroke-linejoin:round;stroke-miterlimit:4;stroke-opacity:1;stroke-dasharray:none"
       d="m 247.48535,299.82809 c -2.39087,0.85399 -5.66317,-0.55741 -6.50646,0.29637 -3.85677,-0.39847 -7.78874,-0.07 -11.63656,-0.51899 -3.30805,-0.59027 -6.58141,0.0996 -9.68313,0.12409 -1.50576,0.24336 -3.01143,0.4867 -4.51709,0.73004"
       id="path2907" />
    <path
       id="path2863"
       style="color:#000000;fill:none;stroke:#0000ff;stroke-width:3.99999976;stroke-linecap:round;stroke-linejoin:round;stroke-miterlimit:4;stroke-opacity:1;stroke-dasharray:none;stroke-dashoffset:0;marker:none;visibility:visible;display:inline;overflow:visible;enable-background:accumulate"
       d="m 176.3556,305.19653 c 2.57595,-0.49545 4.64211,0.67525 7.25936,0.14134 2.49593,-0.50903 3.91338,-0.17293 6.35711,-0.33435 5.15134,-0.34028 10.19427,2.02149 15.40503,0.52224 2.68115,-0.77141 4.84799,-1.97501 6.70011,-3.38493 0.63154,-0.48074 2.14953,-0.58628 1.82207,-1.14161 -1.2363,-2.09659 -2.43942,-2.68512 -5.54423,-3.74611 -2.24316,-0.76654 -4.84161,-0.47216 -7.30044,-0.80969 -2.47778,-0.34013 -7.00053,-0.26711 -9.46247,-0.73606 -1.53001,-0.29144 -5.55169,-0.75834 -7.0755,-0.82323 -0.52905,-0.0225 -7.07951,0.15357 -7.52372,-0.11399"
       sodipodi:nodetypes="cssssssssss" />
    <path
       style="color:#000000;fill:none;stroke:#c87137;stroke-width:4;stroke-linecap:round;stroke-linejoin:round;stroke-miterlimit:4;stroke-opacity:1;stroke-dasharray:none;stroke-dashoffset:0;marker:none;visibility:visible;display:inline;overflow:visible;enable-background:accumulate"
       d="m 288.68464,289.87484 c -0.003,2.36304 -0.0743,4.64419 0.57573,6.95272 0.2016,0.71603 0.79824,1.0504 1.15149,1.63592 0.50347,0.83452 0.60445,2.0857 1.1515,2.86289 0.21456,0.30483 0.60014,0.19503 0.86361,0.40899 0.91623,0.74383 1.8515,2.37642 2.87871,2.86286 2.66412,1.26166 5.58249,1.22695 8.34828,1.22695 2.11306,0 4.2816,0.36867 6.0453,-1.63591 3.371,-3.83139 1.85546,-5.04532 2.87872,-9.40663 0.64423,-2.74582 2.01509,-3.88474 2.01509,-6.54371"
       id="path2928" />
    <path
       style="color:#000000;fill:none;stroke:#ff0000;stroke-width:4;stroke-linecap:butt;stroke-linejoin:miter;stroke-miterlimit:4;stroke-opacity:1;stroke-dasharray:none;stroke-dashoffset:0;marker:none;visibility:visible;display:inline;overflow:visible;enable-background:accumulate"
       d="m 298.63388,289.92417 c -0.55162,-0.14386 -2.70854,-0.54146 -3.25,0 -1.1357,1.1357 -1.85283,1.37923 -2,3.25 -0.11114,1.41275 0.12027,1.81469 1.25,2.25 1.68967,0.65107 2.91058,0.059 4.25,-1 0.81117,-0.64134 0.59532,-0.62629 1,-1.25 0.75085,-1.15723 -0.29725,-3.00153 -1.25,-3.25 z"
       id="path3727"
       sodipodi:nodetypes="cssssss" />
    <path
       style="color:#000000;fill:none;stroke:#0000ff;stroke-width:4;stroke-linecap:round;stroke-linejoin:round;stroke-miterlimit:4;stroke-opacity:1;stroke-dasharray:none;stroke-dashoffset:0;marker:none;visibility:visible;display:inline;overflow:visible;enable-background:accumulate"
       d="m 278.44688,277.89037 c -3.36363,-2.63508 -4.33292,-3.85799 -7.13884,-4.88985 -1.06832,-0.39287 -7.78227,-1.60431 -9.1712,-1.61683 -9.22535,-0.0831 -11.61849,-5.39909 -13.11927,0.0647 -0.29512,1.07441 -2.30065,4.05536 -2.37202,4.98992 -0.0505,0.66084 -1.29183,4.29492 -1.78196,5.21624 -0.21598,0.40598 -3.8848,13.25264 -4.20551,13.6854 -0.89891,1.21297 8.13601,3.74734 9.01358,4.62308 1.94884,1.94477 2.01175,3.91061 6.1173,4.54382 5.20159,0.80225 4.77017,1.4975 13.36897,-0.70926 2.41815,-0.62058 11.30864,-0.54051 13.12961,-0.58606 1.75943,-0.044 6.09393,-0.74838 8.35862,-1.77352"
       id="path2879"
       sodipodi:nodetypes="csssssssssss" />
    <path
       style="color:#000000;fill:none;stroke:#ff0000;stroke-width:4;stroke-linecap:butt;stroke-linejoin:miter;stroke-miterlimit:4;stroke-opacity:1;stroke-dasharray:none;stroke-dashoffset:0;marker:none;visibility:visible;display:inline;overflow:visible;enable-background:accumulate"
       d="m 306.10983,294.91161 c -1.17919,-0.26731 -4.13885,1.85619 -4.25,3.125 -0.0715,0.81582 1.06465,2.91481 1.625,3.125 0.94947,0.35615 2.2845,0.25445 3.25,0 0.46759,-0.12323 0.74061,-1.48123 1,-2 0.23977,-0.47954 0.30427,-1.82385 0,-2.25 -0.48017,-0.67251 -0.42129,-1.72714 -1.625,-2 z"
       id="path3729"
       sodipodi:nodetypes="cssssss" />
    <path
       style="color:#000000;fill:none;stroke:#ff0000;stroke-width:4;stroke-linecap:butt;stroke-linejoin:miter;stroke-miterlimit:4;stroke-opacity:1;stroke-dasharray:none;stroke-dashoffset:0;marker:none;visibility:visible;display:inline;overflow:visible;enable-background:accumulate"
       d="m 305.5481,285.28033 c -0.59759,0.21188 -1.33988,0.58988 -1.75,1 -0.62596,0.62596 -0.42871,2.26948 -0.14645,3.11612 0.20158,0.60463 0.62294,0.79549 1.14645,0.88388 0.57549,0.0972 2.07673,0.32349 2.5,0 0.40656,-0.31071 1.25456,-0.78784 1.5,-1.5 0.32064,-0.93035 0.24963,-1.4406 0,-2.25 -0.20992,-0.68064 -0.67978,-1.24879 -1,-1.5 -0.29149,-0.22867 -0.93595,-0.21591 -2.25,0.25 z"
       id="path3733"
       sodipodi:nodetypes="cssssssss" />
  </g>
</svg>
