<?xml version="1.0" encoding="UTF-8" standalone="no"?>
<!-- Created with Inkscape (http://www.inkscape.org/) -->
<svg
   xmlns:dc="http://purl.org/dc/elements/1.1/"
   xmlns:cc="http://creativecommons.org/ns#"
   xmlns:rdf="http://www.w3.org/1999/02/22-rdf-syntax-ns#"
   xmlns:svg="http://www.w3.org/2000/svg"
   xmlns="http://www.w3.org/2000/svg"
   xmlns:sodipodi="http://sodipodi.sourceforge.net/DTD/sodipodi-0.dtd"
   xmlns:inkscape="http://www.inkscape.org/namespaces/inkscape"
   width="480"
   height="320"
   id="svg2"
   version="1.1"
   inkscape:version="0.46"
   sodipodi:docname="itnas142.svg"
   inkscape:export-xdpi="90"
   inkscape:export-ydpi="90"
   inkscape:export-filename="itnas142.png"
   sodipodi:version="0.32"
   inkscape:output_extension="org.inkscape.output.svg.inkscape">
  <defs
     id="defs4" />
  <sodipodi:namedview
     id="base"
     pagecolor="#ffffff"
     bordercolor="#666666"
     borderopacity="1.0"
     inkscape:pageopacity="1"
     inkscape:pageshadow="2"
     inkscape:zoom="1"
     inkscape:cx="174.47518"
     inkscape:cy="161.64042"
     inkscape:document-units="px"
     inkscape:current-layer="layer1"
     showgrid="false"
     inkscape:snap-nodes="true"
     inkscape:snap-global="false"
     inkscape:snap-grids="false"
     showguides="true"
     inkscape:window-width="1680"
     inkscape:window-height="1002"
     inkscape:window-x="1680"
     inkscape:window-y="25"
     inkscape:window-maximized="1"
     inkscape:snap-to-guides="false"
     inkscape:object-nodes="true">
    <inkscape:grid
       empspacing="5"
       visible="true"
       enabled="true"
       snapvisiblegridlinesonly="true"
       type="xygrid"
       id="grid2816" />
  </sodipodi:namedview>
  <metadata
     id="metadata7">
    <rdf:RDF>
      <cc:Work
         rdf:about="">
        <dc:format>image/svg+xml</dc:format>
        <dc:type
           rdf:resource="http://purl.org/dc/dcmitype/StillImage" />
        <dc:title />
      </cc:Work>
    </rdf:RDF>
  </metadata>
  <g
     inkscape:label="Layer 1"
     inkscape:groupmode="layer"
     id="layer1"
     transform="translate(0,0)">
    <g
       transform="matrix(0.9980054,-6.312763e-2,6.312763e-2,0.9980054,-56.190896,-548.53639)"
       id="g4295">
      <path
         id="path3379"
         style="fill:none;stroke:#00ff00;stroke-width:2;stroke-linecap:butt;stroke-linejoin:miter;stroke-miterlimit:4;stroke-dasharray:none;stroke-opacity:1"
         d="M 355.9297,715.24596 C 355.9297,715.24596 395.17763,702.23427 395.17763,702.23427 L 356.00929,688.46858 C 356.00929,688.46858 355.92969,715.24596 355.92969,715.24596 L 355.9297,715.24596 L 355.9297,715.24596 z"
         sodipodi:nodetypes="ccccc" />
      <g
         id="g4287">
        <path
           id="path3383"
           d="M 371.62036,708.72351 L 371.58896,694.99102"
           style="fill:none;stroke:#0000ff;stroke-width:2;stroke-linecap:butt;stroke-linejoin:bevel;stroke-miterlimit:4;stroke-dasharray:none;stroke-opacity:1" />
        <path
           id="path3385"
           d="M 376.18181,705.21741 L 376.26961,698.49713"
           style="fill:none;stroke:#0000ff;stroke-width:2;stroke-linecap:butt;stroke-linejoin:bevel;stroke-miterlimit:4;stroke-dasharray:none;stroke-opacity:1" />
        <path
           style="fill:none;stroke:#0000ff;stroke-width:2;stroke-linecap:butt;stroke-linejoin:bevel;marker:none;stroke-miterlimit:4;stroke-dasharray:none;stroke-dashoffset:0;stroke-opacity:1;visibility:visible;display:inline;overflow:visible;enable-background:accumulate"
           d="M 353.79955,695.04474 C 352.05909,697.6371 349.2259,700.24951 348.07286,703.0027 C 346.91982,705.75591 347.94156,708.68459 350.5432,708.66974 C 353.14484,708.65484 354.27007,705.87381 353.40655,703.0027 C 352.54302,700.1316 349.42032,697.93855 347.17455,695.46675"
           id="path3030-6-4"
           sodipodi:nodetypes="czzzc" />
        <path
           style="fill:none;stroke:#0000ff;stroke-width:2;stroke-linecap:butt;stroke-linejoin:bevel;marker:none;stroke-miterlimit:4;stroke-dasharray:none;stroke-dashoffset:0;stroke-opacity:1;visibility:visible;display:inline;overflow:visible;enable-background:accumulate"
           d="M 366.35051,708.65083 C 364.21695,704.69378 361.26876,704.59421 358.60699,708.56283"
           id="rect10452-1-7-4-2-0"
           sodipodi:nodetypes="cc" />
        <path
           style="fill:none;stroke:#0000ff;stroke-width:2;stroke-linecap:butt;stroke-linejoin:bevel;marker:none;stroke-miterlimit:4;stroke-dasharray:none;stroke-dashoffset:0;stroke-opacity:1;visibility:visible;display:inline;overflow:visible;enable-background:accumulate"
           d="M 366.25372,695.06371 C 364.59034,699.2558 360.28291,699.21329 358.6352,695.10041"
           id="rect10452-1-4-4-0-7-9"
           sodipodi:nodetypes="cc" />
        <path
           style="fill:none;stroke:#0000ff;stroke-width:2;stroke-linecap:butt;stroke-linejoin:bevel;marker:none;stroke-miterlimit:4;stroke-dasharray:none;stroke-dashoffset:0;stroke-opacity:1;visibility:visible;display:inline;overflow:visible;enable-background:accumulate"
           d="M 357.79068,701.88677 L 367.12094,701.97517"
           id="rect10452-0-7-4-1-8" />
      </g>
    </g>
    <path
       id="path3379-1"
       style="fill:none;stroke:#00ff00;stroke-width:2;stroke-linecap:butt;stroke-linejoin:miter;stroke-miterlimit:4;stroke-dasharray:none;stroke-opacity:1"
       d="M 65.184347,172.01835 C 65.184347,172.01835 104.50268,159.22092 104.50268,159.22092 L 81.127662,193.53218 C 81.127662,193.53218 65.184346,172.01833 65.184346,172.01833 L 65.18436,172.01833 L 65.184347,172.01835 z"
       sodipodi:nodetypes="ccccc" />
    <path
       sodipodi:nodetypes="ccccc"
       d="M 195.19327,121.42258 C 195.19327,121.42258 235.87415,114.02187 235.87415,114.02187 L 199.01316,94.918947 C 199.01316,94.918947 195.19325,121.42257 195.19325,121.42257 L 195.19327,121.42258 L 195.19327,121.42258 z"
       style="fill:none;stroke:#00ff00;stroke-width:2;stroke-linecap:butt;stroke-linejoin:miter;stroke-miterlimit:4;stroke-dasharray:none;stroke-opacity:1"
       id="path4697" />
    <g
       style="display:inline"
       id="g5142"
       transform="matrix(2.9456456e-2,0.4991316,-0.4991316,2.9456456e-2,416.33492,-60.137277)">
      <rect
         y="200"
         x="360"
         height="20"
         width="20"
         id="rect5063"
         style="fill:none;stroke:#59bbbc;stroke-width:4;stroke-linecap:butt;stroke-linejoin:bevel;marker:none;stroke-miterlimit:4;stroke-dasharray:none;stroke-dashoffset:0;stroke-opacity:1;visibility:visible;display:inline;overflow:visible;enable-background:accumulate" />
      <path
         id="path5065-9"
         d="M 370.49997,190.00003 L 349.99998,210.00002 L 369.99997,230.00002 L 389.99997,210.00002 L 370.49997,190.00003 z"
         style="fill:none;stroke:#59bbbc;stroke-width:4;stroke-linecap:butt;stroke-linejoin:bevel;stroke-miterlimit:4;stroke-dasharray:none;stroke-opacity:1;display:inline" />
      <rect
         y="190"
         x="350"
         height="40"
         width="40"
         id="rect5089"
         style="fill:none;stroke:#59bbbc;stroke-width:4;stroke-linecap:butt;stroke-linejoin:miter;marker:none;stroke-miterlimit:4;stroke-dasharray:none;stroke-dashoffset:0;stroke-opacity:1;visibility:visible;display:inline;overflow:visible;enable-background:accumulate" />
    </g>
    <path
       id="rect5864"
       style="color:#000000;fill:none;stroke:#000000;stroke-width:3;stroke-linecap:butt;stroke-linejoin:miter;stroke-miterlimit:4;stroke-dashoffset:0;stroke-opacity:1;marker:none;visibility:visible;display:inline;overflow:visible;enable-background:accumulate"
       d="m -3.951884,84.386243 402.759884,2.98e-4 3.9e-4,-38.036867 91.68481,0 m 0,157.684816 -91.68481,0 -3.9e-4,-38.18847 -250.34017,0.006 0,0 0,161.53405"
       sodipodi:nodetypes="cccccccccc" />
    <g
       id="g5933"
       transform="translate(-4.5,0.19209145)">
      <g
         id="g5137"
         style="display:inline"
         transform="translate(115,35)">
        <path
           sodipodi:type="arc"
           style="color:#000000;fill:none;stroke:#85ff99;stroke-width:2.66666675;stroke-linecap:butt;stroke-linejoin:miter;stroke-miterlimit:4;stroke-opacity:1;stroke-dasharray:none;stroke-dashoffset:0;marker:none;visibility:visible;display:inline;overflow:visible;enable-background:accumulate"
           id="path4662"
           sodipodi:cx="329.5"
           sodipodi:cy="90"
           sodipodi:rx="20"
           sodipodi:ry="20"
           d="m 349.5,90 c 0,11.04569 -8.95431,20 -20,20 -11.04569,0 -20,-8.95431 -20,-20 0,-11.045695 8.95431,-20 20,-20 11.04569,0 20,8.954305 20,20 z"
           transform="matrix(0.75,0,0,0.75,82.875,22.5)" />
        <path
           sodipodi:type="arc"
           style="color:#000000;fill:none;stroke:#85ff99;stroke-width:4.00000048;stroke-linecap:butt;stroke-linejoin:miter;stroke-miterlimit:4;stroke-opacity:1;stroke-dasharray:none;stroke-dashoffset:0;marker:none;visibility:visible;display:inline;overflow:visible;enable-background:accumulate"
           id="path4666"
           sodipodi:cx="330"
           sodipodi:cy="90"
           sodipodi:rx="10"
           sodipodi:ry="10"
           d="m 340,90 c 0,5.522847 -4.47715,10 -10,10 -5.52285,0 -10,-4.477153 -10,-10 0,-5.522847 4.47715,-10 10,-10 5.52285,0 10,4.477153 10,10 z"
           transform="matrix(0.5,0,0,0.5,165,45)" />
        <path
           sodipodi:type="arc"
           style="color:#000000;fill:none;stroke:#85ff99;stroke-width:2.00000024;stroke-linecap:butt;stroke-linejoin:miter;stroke-miterlimit:4;stroke-opacity:1;stroke-dasharray:none;stroke-dashoffset:0;marker:none;visibility:visible;display:inline;overflow:visible;enable-background:accumulate"
           id="path4666-3"
           sodipodi:cx="330"
           sodipodi:cy="90"
           sodipodi:rx="10"
           sodipodi:ry="10"
           d="m 340,90 c 0,5.522847 -4.47715,10 -10,10 -5.52285,0 -10,-4.477153 -10,-10 0,-5.522847 4.47715,-10 10,-10 5.52285,0 10,4.477153 10,10 z" />
      </g>
      <path
         sodipodi:nodetypes="cccc"
         id="rect5895"
         d="m 465.00006,125 0,19.99998 -40.00006,0 L 425,125"
         style="color:#000000;fill:none;stroke:#85ff99;stroke-width:2;stroke-linecap:butt;stroke-linejoin:miter;stroke-miterlimit:4;stroke-opacity:1;stroke-dasharray:none;stroke-dashoffset:0;marker:none;visibility:visible;display:inline;overflow:visible;enable-background:accumulate" />
    </g>
    <path
       style="color:#000000;fill:none;stroke:#ff0000;stroke-width:4;stroke-linecap:butt;stroke-linejoin:miter;stroke-miterlimit:4;stroke-opacity:1;stroke-dasharray:none;stroke-dashoffset:0;marker:none;visibility:visible;display:inline;overflow:visible;enable-background:accumulate"
       d="m 154.73506,325.18198 0,-153.08862 237.93408,0 0,37.72666 102.65916,0"
       id="path7067"
       sodipodi:nodetypes="ccccc" />
    <path
       sodipodi:nodetypes="cccc"
       id="path7293"
       d="m -14.970568,77.959771 407.639708,0 0,-37.72666 102.65916,0"
       style="color:#000000;fill:none;stroke:#ff0000;stroke-width:4;stroke-linecap:butt;stroke-linejoin:miter;stroke-miterlimit:4;stroke-opacity:1;stroke-dasharray:none;stroke-dashoffset:0;marker:none;visibility:visible;display:inline;overflow:visible;enable-background:accumulate" />
    <path
       style="fill:none;stroke:#000000;stroke-width:3;stroke-linecap:butt;stroke-linejoin:miter;stroke-opacity:1;color:#000000;stroke-miterlimit:4;stroke-dasharray:3,3;stroke-dashoffset:0;marker:none;visibility:visible;display:inline;overflow:visible;enable-background:accumulate"
       d="m 398.808,84.386541 0,81.459479"
       id="path2837" />
    <rect
       style="color:#000000;fill:none;stroke:#000000;stroke-width:2;stroke-linecap:butt;stroke-linejoin:miter;stroke-miterlimit:4;stroke-opacity:1;stroke-dasharray:2, 2;stroke-dashoffset:0;marker:none;visibility:visible;display:inline;overflow:visible;enable-background:accumulate"
       id="rect3652"
       width="8.1317205"
       height="80.963722"
       x="394.74213"
       y="84.634422" />
    <g
       id="g5104"
       transform="matrix(0.2502315,-0.968186,0.968186,0.2502315,-769.14217,439.39275)">
      <path
         sodipodi:nodetypes="ccccc"
         d="M 355.62606,745.63864 C 355.62606,745.63864 394.87399,732.62695 394.87399,732.62695 L 355.70565,718.86126 C 355.70565,718.86126 355.62605,745.63864 355.62605,745.63864 L 355.62606,745.63864 L 355.62606,745.63864 z"
         style="fill:none;stroke:#00ff00;stroke-width:2;stroke-linecap:butt;stroke-linejoin:miter;stroke-miterlimit:4;stroke-dasharray:none;stroke-opacity:1"
         id="path3379-8" />
      <g
         id="g5099">
        <path
           sodipodi:nodetypes="ccccc"
           d="M 358.42604,725.24779 L 358.42604,739.25211 L 366.67604,725.24779 L 366.67604,739.25211 L 358.42604,725.24779 z"
           style="fill:none;stroke:#0000ff;stroke-width:2;stroke-linecap:butt;stroke-linejoin:bevel;marker:none;stroke-miterlimit:4;stroke-dasharray:none;stroke-dashoffset:0;stroke-opacity:1;visibility:visible;display:inline;overflow:visible;enable-background:accumulate"
           id="rect10452-0-7-5-3-2-9-5-0" />
        <path
           id="rect10452-0-7-5-3-2-9-7-9"
           style="fill:none;stroke:#0000ff;stroke-width:2;stroke-linecap:butt;stroke-linejoin:miter;marker:none;stroke-miterlimit:4;stroke-dasharray:none;stroke-dashoffset:0;stroke-opacity:1;visibility:visible;display:inline;overflow:visible;enable-background:accumulate"
           d="M 345.94393,725.9549 L 354.19393,725.9549 M 345.94393,738.54501 L 354.19393,738.54501 M 350.06893,725.9549 L 350.06893,738.54501" />
        <path
           style="fill:none;stroke:#0000ff;stroke-width:2;stroke-linecap:butt;stroke-linejoin:miter;marker:none;stroke-miterlimit:4;stroke-dasharray:none;stroke-dashoffset:0;stroke-opacity:1;visibility:visible;display:inline;overflow:visible;enable-background:accumulate"
           d="M 377.00351,726.19172 C 373.20179,726.19172 369.76515,726.26872 369.81058,729.23458 C 369.85568,732.17608 376.03344,732.46464 376.00914,735.35921 C 375.98464,738.27811 372.71812,738.30819 368.82,738.30819"
           id="path4346-4"
           sodipodi:nodetypes="czzs" />
      </g>
    </g>
  </g>
</svg>
