<?xml version="1.0" encoding="UTF-8" standalone="no"?>
<!-- Created with Inkscape (http://www.inkscape.org/) -->

<svg
   xmlns:dc="http://purl.org/dc/elements/1.1/"
   xmlns:cc="http://creativecommons.org/ns#"
   xmlns:rdf="http://www.w3.org/1999/02/22-rdf-syntax-ns#"
   xmlns:svg="http://www.w3.org/2000/svg"
   xmlns="http://www.w3.org/2000/svg"
   xmlns:sodipodi="http://sodipodi.sourceforge.net/DTD/sodipodi-0.dtd"
   xmlns:inkscape="http://www.inkscape.org/namespaces/inkscape"
   width="480"
   height="320"
   id="svg2"
   version="1.1"
   inkscape:version="0.47 r22583"
   sodipodi:docname="itnas218.svg"
   inkscape:export-xdpi="90"
   inkscape:export-ydpi="90"
   inkscape:export-filename="itnas218.png">
  <defs
     id="defs4" />
  <sodipodi:namedview
     id="base"
     pagecolor="#ffffff"
     bordercolor="#666666"
     borderopacity="1.0"
     inkscape:pageopacity="1"
     inkscape:pageshadow="2"
     inkscape:zoom="1"
     inkscape:cx="287.50467"
     inkscape:cy="123.0216"
     inkscape:document-units="px"
     inkscape:current-layer="layer1"
     showgrid="false"
     inkscape:snap-nodes="true"
     inkscape:snap-global="false"
     inkscape:snap-grids="true"
     showguides="true"
     inkscape:window-width="1280"
     inkscape:window-height="998"
     inkscape:window-x="-4"
     inkscape:window-y="-4"
     inkscape:window-maximized="1"
     inkscape:object-nodes="true">
    <inkscape:grid
       empspacing="5"
       visible="true"
       enabled="true"
       snapvisiblegridlinesonly="true"
       type="xygrid"
       id="grid2816" />
  </sodipodi:namedview>
  <metadata
     id="metadata7">
    <rdf:RDF>
      <cc:Work
         rdf:about="">
        <dc:format>image/svg+xml</dc:format>
        <dc:type
           rdf:resource="http://purl.org/dc/dcmitype/StillImage" />
        <dc:title />
      </cc:Work>
    </rdf:RDF>
  </metadata>
  <g
     inkscape:label="Layer 1"
     inkscape:groupmode="layer"
     id="layer1"
     transform="translate(0,0)">
    <path
       style="color:#000000;fill:none;stroke:#c87137;stroke-width:3.99999952;stroke-linecap:round;stroke-linejoin:round;stroke-miterlimit:4;stroke-opacity:1;stroke-dasharray:none;stroke-dashoffset:0;marker:none;visibility:visible;display:inline;overflow:visible;enable-background:accumulate"
       d="m -401.23083,170.17575 c 1.77546,-9.45178 0.98719,-13.39137 0.11892,-22.81876 -1.17613,-12.76897 0.50939,-20.43269 1.87552,-33.11543 2.71493,-25.204858 -0.2035,-37.923417 -0.47392,-57.129662 -0.13558,-9.635255 1.14301,-21.641553 0.95189,-31.420531 -0.26965,-13.796136 -3.04473,-19.7843372 -2.45868,-33.598748 0.19454,-14.431 1.46042,-15.776356 1.40924,-29.997463"
       id="path2832"
       sodipodi:nodetypes="csssscc" />
    <path
       style="color:#000000;fill:none;stroke:#c87137;stroke-width:3.99999976;stroke-linecap:round;stroke-linejoin:round;stroke-miterlimit:4;stroke-opacity:1;stroke-dasharray:none;stroke-dashoffset:0;marker:none;visibility:visible;display:inline;overflow:visible;enable-background:accumulate"
       d="m -473.81991,-32.092624 c 0.72897,7.38286 1.29942,14.7757 2.10573,22.2204399 1.05076,9.70210002 -2.78773,19.25654 -2.78773,29.0609001 0,22.317141 4.73042,48.18234 0.682,69.54284 -2.14882,11.337664 -1.5473,22.386704 0,32.586104 -0.40881,18.62116 3.09257,29.395 0.187,48.4607"
       id="path2850"
       sodipodi:nodetypes="cssscc" />
    <path
       style="color:#000000;fill:none;stroke:#c87137;stroke-width:3.99999976;stroke-linecap:round;stroke-linejoin:round;stroke-miterlimit:4;stroke-opacity:1;stroke-dasharray:none;stroke-dashoffset:0;marker:none;visibility:visible;display:inline;overflow:visible;enable-background:accumulate"
       d="m 179.64978,78.047347 c -12.15478,-2.30956 -26.43518,-10.87036 -34,-2 -14.92864,9.078823 -15.81982,17.245143 -16,24.000003"
       id="path4395"
       sodipodi:nodetypes="ccc" />
    <path
       style="color:#000000;fill:none;stroke:#c87137;stroke-width:3.99999976;stroke-linecap:round;stroke-linejoin:round;stroke-miterlimit:4;stroke-opacity:1;stroke-dasharray:none;stroke-dashoffset:0;marker:none;visibility:visible;display:inline;overflow:visible;enable-background:accumulate"
       d="m 191.1845,106.99101 -25.17996,13.56352 c -8.06034,12.6937 -0.72644,16.25666 -12.35724,26.23544"
       id="path4397"
       sodipodi:nodetypes="ccc" />
    <path
       sodipodi:nodetypes="cssssc"
       id="path4261"
       d="m 462.18758,-9.9451325 c -6.44834,7.8261396 -10.23766,9.85881963 -18.5716,15.5419196 -11.28812,7.6974599 -16.33932,14.2407999 -25.72444,23.9247599 -18.65136,19.24518 -31.1541,25.50704 -47.05262,38.29042 -7.97586,6.41318 -16.871,15.568823 -25.00436,22.034583 -11.47448,9.1218 -23.97944,17.88592 -34.85216,27.7084"
       style="color:#000000;fill:none;stroke:#c87137;stroke-width:3.99999905;stroke-linecap:round;stroke-linejoin:round;stroke-miterlimit:4;stroke-opacity:1;stroke-dasharray:none;stroke-dashoffset:0;marker:none;visibility:visible;display:inline;overflow:visible;enable-background:accumulate" />
    <path
       sodipodi:nodetypes="cssscc"
       id="path4263"
       d="m 260.83014,68.293787 c 5.95556,-4.17294 11.81492,-8.47268 17.86696,-12.6264 7.88702,-5.41328 12.46992,-14.4466 19.74628,-20.72366 16.56292,-14.2881 38.84976,-27.2539399 52.05746,-44.0053199 7.01028,-8.8912591 15.60348,-15.5082191 24.18402,-20.8626001 13.55276,-12.23244 23.83642,-16.47008 36.08776,-30.88392"
       style="color:#000000;fill:none;stroke:#c87137;stroke-width:3.99999928;stroke-linecap:round;stroke-linejoin:round;stroke-miterlimit:4;stroke-opacity:1;stroke-dasharray:none;stroke-dashoffset:0;marker:none;visibility:visible;display:inline;overflow:visible;enable-background:accumulate" />
    <path
       style="color:#000000;fill:none;stroke:#c87137;stroke-width:3.99999976;stroke-linecap:round;stroke-linejoin:round;stroke-miterlimit:4;stroke-opacity:1;stroke-dasharray:none;stroke-dashoffset:0;marker:none;visibility:visible;display:inline;overflow:visible;enable-background:accumulate"
       d="m 85.25012,184.7237 c 2.37724,-21.72386 0.95388,-47.9384 3.84448,-75.34376 1.1572,-31.540764 -5.3703,-56.554244 -4.48522,-89.222904 0.96108,-22.8585801 -1.08386,-38.13102 5.12598,-54.1946"
       id="path4281"
       sodipodi:nodetypes="cccc" />
    <path
       style="color:#000000;fill:none;stroke:#c87137;stroke-width:3.99999928;stroke-linecap:round;stroke-linejoin:round;stroke-miterlimit:4;stroke-opacity:1;stroke-dasharray:none;stroke-dashoffset:0;marker:none;visibility:visible;display:inline;overflow:visible;enable-background:accumulate"
       d="m 20.53458,-34.552219 c -4.59826,30.8537928 1.17414,35.1328023 1.28148,60.299651 -1.31992,19.528252 -3.47158,38.010065 0,54.018416 -2.1358,38.332942 -1.70866,37.216312 -3.84446,51.505962 -1.66538,17.48132 1.04754,29.88565 2.56298,39.57164"
       id="path4277"
       sodipodi:nodetypes="ccccc" />
    <path
       sodipodi:nodetypes="cccc"
       id="path4306"
       d="m -206.373,-31.468624 c -2.37724,19.8414 -0.95386,43.78438 -3.84448,68.814961 -1.1572,28.807599 5.3703,51.653559 4.48522,81.491363 -0.96108,20.87778 1.08386,34.82684 -5.12596,49.49848"
       style="color:#000000;fill:none;stroke:#c87137;stroke-width:3.99999928;stroke-linecap:round;stroke-linejoin:round;stroke-miterlimit:4;stroke-opacity:1;stroke-dasharray:none;stroke-dashoffset:0;marker:none;visibility:visible;display:inline;overflow:visible;enable-background:accumulate" />
    <path
       sodipodi:nodetypes="ccccc"
       id="path4308"
       d="m -141.6021,168.53389 c 4.31608,-30.55386 -1.10208,-34.79127 -1.20286,-59.71345 1.23894,-19.338418 3.25856,-37.640544 0,-53.49331 2.00478,-37.960227 1.60382,-36.854471 3.60858,-51.0051878 1.56318,-17.3114292 -0.98326,-29.5951242 -2.40572,-39.1869462"
       style="color:#000000;fill:none;stroke:#c87137;stroke-width:3.99999928;stroke-linecap:round;stroke-linejoin:round;stroke-miterlimit:4;stroke-opacity:1;stroke-dasharray:none;stroke-dashoffset:0;marker:none;visibility:visible;display:inline;overflow:visible;enable-background:accumulate" />
    <path
       style="color:#000000;fill:none;stroke:#94f3f3;stroke-width:4;stroke-linecap:round;stroke-linejoin:round;stroke-miterlimit:4;stroke-opacity:1;stroke-dasharray:none;stroke-dashoffset:0;marker:none;visibility:visible;display:inline;overflow:visible;enable-background:accumulate"
       d="m -425.11144,-530.3402 c -18.27172,19.8708 -36.54345,84.73741 -54.81518,135.88452 -21.0811,37.03718 -24.2956,92.07563 -53.29253,146.57208 -7.35086,35.33344 -20.74227,89.225 -46.83798,138.78208 -9.26279,23.166719 -17.5986,26.927759 -32.33951,68.861656 49.70447,9.2932 87.23159,-0.7315 127.90209,7.63398 l 89.83599,-7.63396 120.28884,6.10716 c -11.16606,-16.799557 -22.33212,-40.984657 -33.49816,-96.187926 -35.71884,-93.90667 -20.28902,-74.4563 -25.88494,-103.82186 -11.77242,-32.74486 -14.13652,-71.03675 -25.66958,-108.40227 -12.18116,-21.48165 -35.23616,-83.3486 -47.41732,-131.30416 -2.54492,-14.82598 -5.09725,-37.33804 -18.27172,-56.4913 z"
       id="path4156"
       sodipodi:nodetypes="ccccccccccccc" />
    <path
       sodipodi:nodetypes="cccccscccccccc"
       id="path4265"
       d="M -7.94092,-37.266704 C -8.34688,-72.435901 -40.61144,-143.0944 -56.03598,-191.32499 c -7.24432,-46.4696 -32.0662,-74.18176 -43.73646,-139.58392 -13.2914,-25.56608 -32.47402,-67.76574 -43.22304,-126.83845 -6.4931,-23.2969 -4.13118,-37.12636 -16.89714,-76.31698 -12.9404,30.55402 -23.45252,60.52716 -35.9001,86.49263 -28.26132,58.95253 -18.11428,66.95823 -31.71672,98.41553 -23.0669,41.10381 -25.87782,67.8433 -31.00018,92.91477 -15.37796,33.39684 -27.36126,70.80182 -37.61324,110.62112 -4.12516,18.90287 -22.9442,54.780389 -35.71582,106.116686 13.65006,9.86206 30.84662,-1.59704 62.93778,5.03556 42.8175,3.414 84.92174,0.51794 127.68556,-1.31908 20.25042,-1.2359 57.64142,0.97132 86.75986,3.08422 8.3918,2.44886 28.16706,0.3898 46.51456,-4.5638 z"
       style="color:#000000;fill:none;stroke:#94f3f3;stroke-width:3.99999928;stroke-linecap:round;stroke-linejoin:round;stroke-miterlimit:4;stroke-opacity:1;stroke-dasharray:none;stroke-dashoffset:0;marker:none;visibility:visible;display:inline;overflow:visible;enable-background:accumulate" />
    <path
       style="color:#000000;fill:none;stroke:#94f3f3;stroke-width:4;stroke-linecap:round;stroke-linejoin:round;stroke-miterlimit:4;stroke-opacity:1;stroke-dasharray:none;stroke-dashoffset:0;marker:none;visibility:visible;display:inline;overflow:visible;enable-background:accumulate"
       d="m 81.7726,-531.85498 c -0.43712,0.49108 -0.92446,0.98404 -1.36158,1.52534 -12.46486,29.69306 -23.82588,47.97284 -30.99618,75.06261 -7.62686,28.8146 -21.33744,43.4552 -29.79478,70.40632 -8.78112,23.20028 -12.89658,47.63266 -18.5817,63.98385 -19.63118,45.11214 -25.00228,65.76924 -37.16338,113.67771 -3.83016,25.22134 -11.8272,44.31136 -18.66178,62.85992 -4.07696,18.68206 -22.48186,53.985629 -35.24112,104.365126 42.4047,5.08712 76.33666,-2.11546 112.77162,5.3788 36.0764,-0.68814 75.39614,1.8747 105.24284,-5.05768 34.97416,-0.7231 69.94832,0.83928 104.92246,3.53236 -11.16604,-16.799577 -15.90554,-39.688717 -27.07158,-94.891986 -32.30304,-84.92637 -29.21558,-78.56804 -31.23646,-98.02294 -10.49722,-27.96099 -24.97678,-55.18776 -33.07862,-100.59192 -13.29142,-25.56609 -26.01388,-60.0641 -36.76292,-119.13682 -6.43748,-23.09745 -10.58516,-44.66349 -22.98682,-83.09069 z"
       id="path4267"
       sodipodi:nodetypes="ccsccccccccccccc" />
    <path
       style="color:#000000;fill:none;stroke:#94f3f3;stroke-width:4;stroke-linecap:round;stroke-linejoin:round;stroke-miterlimit:4;stroke-opacity:1;stroke-dasharray:none;stroke-dashoffset:0;marker:none;visibility:visible;display:inline;overflow:visible;enable-background:accumulate"
       d="m 820.99,-357.367 c -0.8546,0.27321 -1.7091,0.55593 -2.5608,0.8313 -20.73964,0.61923 -58.05668,15.6296 -95.9071,31.0096 -37.45828,12.80603 -74.30678,26.67914 -110.23182,43.473 -25.4479,9.05182 -48.87356,21.19091 -75.25372,27.50218 -42.7914,23.69179 -87.29578,34.10005 -135.50046,54.88374 -23.55772,8.06402 -31.8204,4.2422 -73.1386,20.37781 11.0591,24.32698 27.38478,43.65524 43.80254,64.81658 25.39666,34.755577 55.1191,64.813757 84.44858,96.105758 14.16524,14.5794391 36.88072,44.441999 54.30972,67.941779 3.63268,7.9719 18.13158,21.66084 33.8627,32.371123 26.30978,-23.233663 40.59006,-71.522083 66.95654,-114.680103 20.77234,-33.74494 30.3546,-44.82342 45.19244,-61.35074 17.0512,-30.288897 44.44964,-57.000597 65.14874,-90.119607 16.25308,-54.32991 40.45894,-82.35067 68.20328,-121.58545 9.54022,-11.5979 24.91016,-28.22092 30.77506,-50.71525 -0.1976,-0.007 -0.4245,0.0135 -0.6256,0.01 0.1806,-0.29764 0.3366,-0.56971 0.5186,-0.87139 z"
       id="path4271"
       sodipodi:nodetypes="ccccccccccccccccsc" />
    <path
       style="color:#000000;fill:none;stroke:#c87137;stroke-width:3.99999976;stroke-linecap:round;stroke-linejoin:round;stroke-miterlimit:4;stroke-opacity:1;stroke-dasharray:none;stroke-dashoffset:0;marker:none;visibility:visible;display:inline;overflow:visible;enable-background:accumulate"
       d="m 242.80916,157.63313 c -1.00434,7 -1.81016,17 -8,24 -10.66666,7.6033 -21.33334,11.89818 -32,17"
       id="path4399"
       sodipodi:nodetypes="ccc" />
    <path
       sodipodi:nodetypes="ccc"
       id="path4461"
       d="m 296.00252,164.75005 c -4.7267,6.98802 -1.67442,19.85256 -4.97648,30.3999 -3.34456,9.76534 -10.46192,18.5777 -23.48966,26.36626"
       style="color:#000000;fill:none;stroke:#c87137;stroke-width:3.99999976;stroke-linecap:round;stroke-linejoin:round;stroke-miterlimit:4;stroke-opacity:1;stroke-dasharray:none;stroke-dashoffset:0;marker:none;visibility:visible;display:inline;overflow:visible;enable-background:accumulate" />
    <path
       id="path2949"
       style="color:#000000;fill:none;stroke:#008000;stroke-width:4;stroke-linecap:butt;stroke-linejoin:miter;stroke-miterlimit:4;stroke-opacity:1;stroke-dasharray:none;stroke-dashoffset:0;marker:none;visibility:visible;display:inline;overflow:visible;enable-background:accumulate"
       d="m -538.24086,176.92346 c 37.76616,-6.38974 66.33528,-3.6784 100.79868,-6 34.25096,-1.3128 70.3619,1.3208 103.66182,2 41.12768,5.37378 77.72798,-2.51868 115.33816,-2 52.33998,-2.9489 79.96372,-0.8298 145.7408,0 41.38518,6.0316 81.6842,-1.54994 123.2592,6 26.90864,-5.4819 47.03408,16.53266 54.33544,39.504 19.72548,25.97184 24.79558,24.75436 46.78954,41.1346 27.61272,23.36358 26.7551,25.34754 61.50084,21.81288 14.97422,-1.6279 57.1753,20.35452 100.04942,13.98002 11.03582,-1.52804 20.70284,-5.7429 28.20682,-11.55672 5.53088,-2.12216 25.60308,-17.49282 36.71848,-13.5791 11.78258,4.14862 44.47556,7.46336 51.87196,4.97304 7.49804,-2.52454 16.79286,-0.60832 18.6473,-11.44718 2.09084,-12.22048 -5.63592,-36.50367 -14.66464,-44.60413 -14.12148,-12.66966 -36.21454,-6.59304 -42.12872,-3.78348 -11.27806,5.3577 -34.38776,-27.06966 -37.0507,-29.69482 -19.33334,-26 -69.64258,-15.736 -111.18376,-27.61522 -19.93724,-12.4897 -44.18366,-32.08644 -50,-50 -6.62876,-10.32658 -10.59108,-24.3196 -19.7575,-42.108523 -4.58224,-24.0502 -13.7329,-43.20994 9.29924,-43.91252 15.41114,9.68148 55.9724,-4.07256 67.2693,21.30038 10.16548,43.143223 24.12238,61.221343 59.58934,78.387043 54.24562,4.18312 80.72284,15.41008 105.50644,11.40476 21.59102,3.88624 46.00416,11.97744 70.8479,10.90324"
       sodipodi:nodetypes="cccccccccccsssssccccccccc" />
    <path
       style="fill:none;stroke:#80ff00;stroke-width:3.99999952;stroke-linecap:round;stroke-linejoin:round;stroke-miterlimit:4;stroke-opacity:1;stroke-dasharray:none"
       d="m 270.71384,237.40209 c 1.2238,-0.14399 8.95789,-0.0824 12.21593,-0.46591 10.24761,-1.32513 15.22316,-2.97213 28.36016,-3.46368 10.9528,-4.34103 27.77711,-7.12363 24.98615,-15.97779 -4.83211,9.29854 -18.65342,5.43217 -26.80627,6.91269 -11.61678,4.25792 -12.48531,1.33781 -26.99522,3.61569 -3.1508,-0.48869 -7.74721,1.47704 -14.59961,2.07456"
       id="path2958-6"
       sodipodi:nodetypes="ccccccc" />
    <path
       style="color:#000000;fill:none;stroke:#80ff00;stroke-width:4;stroke-linecap:round;stroke-linejoin:round;stroke-miterlimit:4;stroke-opacity:1;stroke-dasharray:none;stroke-dashoffset:0;marker:none;visibility:visible;display:inline;overflow:visible;enable-background:accumulate"
       d="m 202.38762,171.71124 c 5.25219,3.8349 10.74933,6.35405 16.3889,8.00711 5.85266,1.71623 11.34517,4.22117 17.01761,6.61072 6.24797,2.6319 14.79978,5.20648 21.84614,7.93599 8.80158,3.40939 16.13737,8.05439 25.17491,11.29298 11.01955,3.94905 24.51512,2.83515 36.24179,5.38843 5.89683,1.28388 9.37288,3.27357 15.14855,5.05575 4.45511,1.37502 9.96936,5.46762 14.47965,8.89062"
       id="path2833"
       sodipodi:nodetypes="csssssss" />
    <path
       style="color:#000000;fill:none;stroke:#80ff00;stroke-width:4;stroke-linecap:round;stroke-linejoin:round;stroke-miterlimit:4;stroke-opacity:1;stroke-dasharray:none;stroke-dashoffset:0;marker:none;visibility:visible;display:inline;overflow:visible;enable-background:accumulate"
       d="m 285.67527,178.18822 c 13.03022,6.06072 25.42345,14.01225 43.96364,15.95346 2.50991,0.26279 20.94393,7.47915 33.0064,15.87003 17.93595,17.78777 39.11772,12.73535 50.20401,13.91093 21.98325,-1.27887 22.28306,30.41024 0.12139,33.69257 -16.85352,-1.15908 -31.45069,-10.12308 -47.31202,-9.15577 -8.49863,-1.62336 -9.59376,-17.11773 -16.70957,-23.41064"
       id="path4125"
       sodipodi:nodetypes="csccccc" />
    <path
       style="color:#000000;fill:none;stroke:#80ff00;stroke-width:3.99999976;stroke-linecap:round;stroke-linejoin:round;stroke-miterlimit:4;stroke-opacity:1;stroke-dasharray:none;stroke-dashoffset:0;marker:none;visibility:visible;display:inline;overflow:visible;enable-background:accumulate"
       d="m 191.30425,197.9089 c -2.31567,1.22898 -7.22549,-7.59328 -10.61662,-10.63616 -2.75592,-2.47302 -5.93413,-4.51646 -8.37027,-7.2543 -2.70203,-3.0368 -4.97126,-6.47584 -7.80524,-9.38478 -4.25406,-4.36678 -8.97518,-8.31367 -13.55299,-12.37332 -2.23811,-1.98464 -5.13095,-2.8413 -6.61497,-5.42075 -1.8421,-3.20452 -7.65665,-6.32265 -6.59051,-8.72684 0.99102,-2.23496 6.78982,-0.2128 9.93727,-1.50259 10.11611,-4.14527 14.33048,-1.09241 21.27674,-0.21637 4.90336,0.61858 8.92637,2.9214 13.81228,3.06567 5.35804,0.15814 10.57805,-1.42604 15.94161,-1.34012 3.37495,0.0539 6.4873,1.23027 9.78161,1.50459 4.92356,0.40992 0.39808,4.49443 -0.63824,6.40469 -1.91815,3.53563 -3.15618,7.36612 -4.87722,10.9887 -1.4874,3.13093 -1.52271,6.78682 -3.3159,9.89353 -1.93866,3.35869 -3.98586,6.80499 -5.09059,10.50299 -1.05768,3.54046 -1.90601,7.20414 -2.52489,10.8942 -0.30401,1.81308 0.41685,2.98035 -0.75225,3.60079 z"
       id="path2870"
       sodipodi:nodetypes="csssssssssssssssss" />
    <path
       style="fill:none;stroke:#80ff00;stroke-width:3.99999976;stroke-linecap:round;stroke-linejoin:round;stroke-miterlimit:4;stroke-opacity:1;stroke-dasharray:none"
       d="m 163.70872,258.22287 c 16.04795,-4.26214 30.0894,12.20297 45.34763,12.50207 13.72977,-0.0386 23.7775,3.59779 37.07224,7.28554 11.49404,4.86448 27.7574,12.16406 47.23169,4.98394 17.07962,-5.35476 33.46969,-6.28318 50.10859,-14.89311 9.70011,-4.4814 27.09333,-6.23274 35.60263,-5.42624 17.85135,4.10134 40.14063,3.93025 50.29665,-0.66906 7.20765,-11.98261 -16.01848,-16.1144 -24.8719,-21.64181 -15.79896,-4.95807 -29.52539,-10.7694 -36.54756,-7.08888 -10.20795,1.65517 -11.88926,6.83847 -26.60702,12.21713"
       id="path4123"
       sodipodi:nodetypes="cccccccccc" />
    <path
       style="fill:none;stroke:#80ff00;stroke-width:3.99999976;stroke-linecap:round;stroke-linejoin:round;stroke-miterlimit:4;stroke-opacity:1;stroke-dasharray:none"
       d="m 217.48454,264.72922 c -8.29775,-2.17823 -17.60591,-2.83268 -25.38531,-7.87446 -10.1362,-4.97932 -21.04222,-9.2213 -24.91512,-19.7025 -8.68624,-17.76383 -10.13218,-15.73693 -0.98194,-15.03351 10.64832,5.38794 17.39985,-0.2789 27.79313,0.70713 10.97165,-0.006 20.25047,11.34986 29.82853,13.4655 2.03515,2.45605 5.29256,3.86084 7.54532,5.84809"
       id="path2956"
       sodipodi:nodetypes="ccccccc"
       inkscape:transform-center-x="-37.625201"
       inkscape:transform-center-y="25.560519" />
    <path
       style="color:#000000;fill:none;stroke:#80ff00;stroke-width:3.99999976;stroke-linecap:round;stroke-linejoin:round;stroke-miterlimit:4;stroke-opacity:1;stroke-dasharray:none;stroke-dashoffset:0;marker:none;visibility:visible;display:inline;overflow:visible;enable-background:accumulate"
       d="m 167.24764,194.56397 c -0.0986,-2.59984 -10.28183,-2.71213 -14.6528,-4.23115 -3.5523,-1.23441 -6.94327,-3.04001 -10.565,-3.87046 -4.01714,-0.92102 -8.16643,-1.2746 -12.13865,-2.37112 -5.96288,-1.64584 -11.79556,-3.89732 -17.65413,-5.97061 -2.8642,-1.01368 -5.07501,-3.13122 -8.07688,-3.20633 -3.72861,-0.092 -9.390945,-3.68847 -10.95006,-1.62287 -1.44938,1.92021 3.24842,6.02077 3.71459,9.37459 1.498563,10.77926 6.29463,13.01133 10.57249,18.65403 3.01994,3.98306 7.06452,6.40271 9.66162,10.59469 2.84796,4.59715 4.10553,9.89713 6.8933,14.53315 1.75406,2.91721 4.35495,5.07508 6.26052,7.81789 2.84802,4.09928 4.12403,-1.77659 5.26718,-3.58282 2.11571,-3.3431 4.83276,-6.23253 7.12404,-9.44489 1.98036,-2.77631 5.15337,-4.53454 6.95795,-7.56607 1.95089,-3.27743 3.92333,-6.69085 6.59216,-9.40149 2.55515,-2.59517 5.32371,-5.06599 8.23139,-7.34917 1.42873,-1.1217 2.81205,-1.04487 2.76231,-2.35731 z"
       id="path2870-7"
       sodipodi:nodetypes="csssssssssssssssss" />
    <path
       style="color:#000000;fill:none;stroke:#80ff00;stroke-width:4;stroke-linecap:round;stroke-linejoin:round;stroke-miterlimit:4;stroke-opacity:1;stroke-dasharray:none;stroke-dashoffset:0;marker:none;visibility:visible;display:inline;overflow:visible;enable-background:accumulate"
       d="m 341.13187,245.68636 c -5.77795,3.58236 -11.17182,7.67274 -18.62219,9.03225 -7.84069,1.43074 -15.62418,3.19808 -23.65687,3.9038 -8.9096,0.78277 -20.74623,2.82969 -30.69961,3.28901 -12.35743,0.57026 -23.31935,-0.74737 -35.3779,-3.27306 -14.68394,-3.07558 -29.01302,-9.66916 -42.88057,-17.27965 -6.96254,-3.82103 -13.23844,-8.44274 -19.8335,-13.12839 -5.02245,-3.56834 -16.68705,-9.14894 -20.62548,-11.11289"
       id="path2833-1"
       sodipodi:nodetypes="csssssss" />
    <path
       style="fill:none;stroke:#80ff00;stroke-width:3.99999952;stroke-linecap:round;stroke-linejoin:round;stroke-miterlimit:4;stroke-opacity:1;stroke-dasharray:none"
       d="m 168.21642,188.01802 c 4.22353,4.86871 8.52484,11.61655 16.28192,13.67235 7.4252,5.36685 15.30039,-0.8124 21.71831,-10.15309 2.4674,-3.57538 6.97701,-12.95655 9.51929,-12.10418 0.75718,0.2539 1.33987,1.41557 1.64208,3.90889 0.74513,7.15174 2.72497,10.14596 2.95479,18.61873 1.87353,8.57506 5.78744,12.20884 9.69151,19.01573 4.07743,3.78277 13.1618,9.50368 13.19853,11.90663"
       id="path2956-7-6"
       sodipodi:nodetypes="cccscccc"
       inkscape:transform-center-x="9.4878548"
       inkscape:transform-center-y="30.630901" />
    <path
       style="fill:none;stroke:#80ff00;stroke-width:3.99999952;stroke-linecap:round;stroke-linejoin:round;stroke-miterlimit:4;stroke-opacity:1;stroke-dasharray:none"
       d="m 245.86266,242.67573 c 1.53583,-0.11701 10.70775,1.74138 14.79681,1.43 12.88923,-0.83333 19.76333,4.35214 35.99731,1.80282 14.84084,1.99307 27.60588,-2.20763 32.44468,8.10935 -2.92616,8.60076 -15.61587,12.61478 -24.83667,16.93755 -14.17128,7.02791 -18.96069,3.21371 -36.13445,3.11933 -3.83405,1.09308 -8.28208,-1.27371 -17.26027,-1.30003"
       id="path2958-6-8"
       sodipodi:nodetypes="ccccccc"
       inkscape:transform-center-x="37.357543"
       inkscape:transform-center-y="26.096474" />
  </g>
</svg>
