<?xml version="1.0" encoding="UTF-8" standalone="no"?>
<!-- Created with Inkscape (http://www.inkscape.org/) -->

<svg
   xmlns:dc="http://purl.org/dc/elements/1.1/"
   xmlns:cc="http://creativecommons.org/ns#"
   xmlns:rdf="http://www.w3.org/1999/02/22-rdf-syntax-ns#"
   xmlns:svg="http://www.w3.org/2000/svg"
   xmlns="http://www.w3.org/2000/svg"
   xmlns:sodipodi="http://sodipodi.sourceforge.net/DTD/sodipodi-0.dtd"
   xmlns:inkscape="http://www.inkscape.org/namespaces/inkscape"
   width="480"
   height="320"
   id="svg2"
   version="1.1"
   inkscape:version="0.48.0 r9654"
   sodipodi:docname="itnas389.svg"
   inkscape:export-xdpi="90"
   inkscape:export-ydpi="90"
   inkscape:export-filename="itnas389.png">
  <defs
     id="defs4">
    <inkscape:perspective
       sodipodi:type="inkscape:persp3d"
       inkscape:vp_x="0 : 160 : 1"
       inkscape:vp_y="0 : 1000 : 0"
       inkscape:vp_z="480 : 160 : 1"
       inkscape:persp3d-origin="240 : 106.66667 : 1"
       id="perspective8" />
  </defs>
  <sodipodi:namedview
     id="base"
     pagecolor="#ffffff"
     bordercolor="#666666"
     borderopacity="1.0"
     inkscape:pageopacity="1"
     inkscape:pageshadow="2"
     inkscape:zoom="1"
     inkscape:cx="288.16603"
     inkscape:cy="153.10472"
     inkscape:document-units="px"
     inkscape:current-layer="layer1"
     showgrid="false"
     inkscape:snap-nodes="true"
     inkscape:snap-global="false"
     inkscape:snap-grids="true"
     showguides="true"
     inkscape:window-width="1280"
     inkscape:window-height="998"
     inkscape:window-x="1276"
     inkscape:window-y="-4"
     inkscape:window-maximized="1">
    <inkscape:grid
       empspacing="5"
       visible="true"
       enabled="true"
       snapvisiblegridlinesonly="true"
       type="xygrid"
       id="grid2816" />
  </sodipodi:namedview>
  <metadata
     id="metadata7">
    <rdf:RDF>
      <cc:Work
         rdf:about="">
        <dc:format>image/svg+xml</dc:format>
        <dc:type
           rdf:resource="http://purl.org/dc/dcmitype/StillImage" />
        <dc:title></dc:title>
      </cc:Work>
    </rdf:RDF>
  </metadata>
  <g
     inkscape:label="Layer 1"
     inkscape:groupmode="layer"
     id="layer1"
     transform="translate(0,0)">
    <path
       style="color:#000000;fill:none;stroke:#00ffff;stroke-width:3.99999952;stroke-linecap:round;stroke-linejoin:round;stroke-miterlimit:4;stroke-opacity:1;stroke-dasharray:none;stroke-dashoffset:0;marker:none;visibility:visible;display:inline;overflow:visible;enable-background:accumulate"
       d="M 78.235395,310.28206 C 67.74506,298.58795 60.436189,283.57728 46.534212,275.42424 36.85971,268.18074 30.601603,257.62988 22.338398,249.09363 l -1.421015,-0.49006"
       id="path4043"
       inkscape:connector-curvature="0" />
    <path
       style="color:#000000;fill:none;stroke:#00ffff;stroke-width:3.99999976;stroke-linecap:round;stroke-linejoin:round;stroke-miterlimit:4;stroke-opacity:1;stroke-dasharray:none;stroke-dashoffset:0;marker:none;visibility:visible;display:inline;overflow:visible;enable-background:accumulate"
       d="m 20.243479,154.50001 c 7.351996,9.27849 12.499149,20.46112 21.875308,28.23458 11.372057,8.19114 18.845645,20.03822 29.659382,28.73037 1.659457,1.28851 3.346682,2.56996 5.221833,3.53505"
       id="path4045"
       inkscape:connector-curvature="0" />
    <path
       style="color:#000000;fill:none;stroke:#00ffff;stroke-width:3.99999976;stroke-linecap:round;stroke-linejoin:round;stroke-miterlimit:4;stroke-opacity:1;stroke-dasharray:none;stroke-dashoffset:0;marker:none;visibility:visible;display:inline;overflow:visible;enable-background:accumulate"
       d="M 79.5,116.5 C 68.497846,107.7502 55.628529,100.02412 48.581665,87.576301 41.108806,80.063772 31.767106,74.73027 27.638549,64.443664 25.072887,60.718613 22.197265,57.201553 19,54"
       id="path4047"
       inkscape:connector-curvature="0" />
    <path
       style="color:#000000;fill:none;stroke:#00ffff;stroke-width:3.99999976;stroke-linecap:round;stroke-linejoin:round;stroke-miterlimit:4;stroke-opacity:1;stroke-dasharray:none;stroke-dashoffset:0;marker:none;visibility:visible;display:inline;overflow:visible;enable-background:accumulate"
       d="M 73.85561,28.738645 C 65.92501,16.792232 51.931692,12.67804 43.380657,1.4618593 37.261973,-5.8559101 28.457568,-9.5090908 22.64439,-17.238645"
       id="path4049"
       inkscape:connector-curvature="0" />
    <path
       style="color:#000000;fill:none;stroke:#00ffff;stroke-width:3.99999952;stroke-linecap:round;stroke-linejoin:round;stroke-miterlimit:4;stroke-opacity:1;stroke-dasharray:none;stroke-dashoffset:0;marker:none;visibility:visible;display:inline;overflow:visible;enable-background:accumulate"
       d="m 23.5,15 c 10.02217,12.09775 16.734866,27.384335 30.305343,36.077955 9.382054,7.61849 15.22025,18.407372 23.141243,27.262083 l 1.400636,0.545592"
       id="path4136"
       inkscape:connector-curvature="0" />
    <path
       style="color:#000000;fill:none;stroke:#00ffff;stroke-width:3.99999976;stroke-linecap:round;stroke-linejoin:round;stroke-miterlimit:4;stroke-opacity:1;stroke-dasharray:none;stroke-dashoffset:0;marker:none;visibility:visible;display:inline;overflow:visible;enable-background:accumulate"
       d="M 75.546713,166.88562 C 67.867401,156.69393 61.772057,144.93724 51.161388,137.12688 40.788484,129.57691 35.070781,117.5407 23.499998,111.38562"
       id="path4138"
       inkscape:connector-curvature="0" />
    <path
       style="color:#000000;fill:none;stroke:#00ffff;stroke-width:3.99999976;stroke-linecap:round;stroke-linejoin:round;stroke-miterlimit:4;stroke-opacity:1;stroke-dasharray:none;stroke-dashoffset:0;marker:none;visibility:visible;display:inline;overflow:visible;enable-background:accumulate"
       d="m 23,211.94765 c 11.188667,8.61671 23.576459,16.72689 30.867179,29.02026 9.195934,6.81967 16.2149,14.95795 21.888776,24.88553 1.780598,2.29027 3.692869,4.4798 5.744045,6.53219"
       id="path4140"
       inkscape:connector-curvature="0" />
    <path
       style="color:#000000;fill:none;stroke:#00ffff;stroke-width:3.99999976;stroke-linecap:round;stroke-linejoin:round;stroke-miterlimit:4;stroke-opacity:1;stroke-dasharray:none;stroke-dashoffset:0;marker:none;visibility:visible;display:inline;overflow:visible;enable-background:accumulate"
       d="m 21.5,292.38563 c 8.267649,11.71568 22.372473,15.42963 31.239505,26.39771 6.324631,7.14052 15.229517,10.54145 21.260495,18.10229"
       id="path4142"
       inkscape:connector-curvature="0" />
    <path
       style="color:#000000;fill:none;stroke:#c87137;stroke-width:4;stroke-linecap:round;stroke-linejoin:round;stroke-miterlimit:4;stroke-opacity:1;stroke-dasharray:none;stroke-dashoffset:0;marker:none;visibility:visible;display:inline;overflow:visible;enable-background:accumulate"
       d="m 315,113 c 1.21456,23.21138 17.1076,15.3102 19.08522,25.395 2.5212,12.85684 1.17986,19.69094 2.74534,32.70658 -13.25674,6.15052 -17.56916,10.51914 -28.08064,18.90874 -6.2918,1.80424 -12.8842,2.535 -10.41874,11.2639 4.41806,18.54596 15.63258,34.37282 23.931,51.28816 -5.25862,18.39504 -9.31404,11.42954 -21.52624,20.32498 -5.30486,6.64276 -11.89238,17.95488 -9.86518,26.64932 8.2889,7.94022 11.37908,20.08516 30.15662,28.38904"
       id="path9045"
       inkscape:connector-curvature="0"
       sodipodi:nodetypes="csccccccc" />
    <path
       style="color:#000000;fill:none;stroke:#c87137;stroke-width:4;stroke-linecap:round;stroke-linejoin:round;stroke-miterlimit:4;stroke-opacity:1;stroke-dasharray:none;stroke-dashoffset:0;marker:none;visibility:visible;display:inline;overflow:visible;enable-background:accumulate"
       d="m 350,113.5 c 0.38994,11.34366 -6.16395,19.53714 -5.37127,26.27881 0.76083,6.47079 1.84095,12.98597 3.49715,23.69999 2.55662,8.95072 2.06716,21.32106 -10.54744,20.98604 -12.21502,-0.1278 -14.45266,8.78496 -24.02546,14.79446 -6.83748,8.16672 10.11116,13.32716 9.11302,22.78942 1.45604,11.81838 16.22688,15.7487 16.15528,28.34886 -0.8931,10.67726 -11.92688,18.04504 -19.14344,25.3499 -8.20532,5.23438 -19.12612,15.78604 -11.01154,25.7573 9.30282,12.89968 25.49312,18.02554 36.06492,29.69144"
       id="path9047"
       inkscape:connector-curvature="0"
       sodipodi:nodetypes="cscccccccc" />
    <path
       style="color:#000000;fill:none;stroke:#008000;stroke-width:3.99999976;stroke-linecap:round;stroke-linejoin:miter;stroke-miterlimit:4;stroke-opacity:1;stroke-dasharray:none;stroke-dashoffset:0;marker:none;visibility:visible;display:inline;overflow:visible;enable-background:accumulate"
       d="m 461.41972,49.1029 -77.9643,-0.82504 m 0,2 -23.83067,22.33812 m 2.04209,0 -127.16822,-1.498492 c 0,0 -1.38983,1.230073 -2.24086,1.223597 -0.86389,-0.0066 -2.25557,-1.276577 -2.25557,-1.276577 l -34.39405,-0.405284"
       id="path3819-8"
       inkscape:connector-curvature="0"
       sodipodi:nodetypes="ccccccscc" />
    <path
       sodipodi:nodetypes="ccccccscc"
       inkscape:connector-curvature="0"
       id="path3821-8"
       d="m 459.37153,64.28794 -72.19619,-0.87228 m 2.04208,1.41422 -27.44007,22.2516 m 2.04209,-1.41422 -126.31619,-1.66388 c 0,0 -1.57105,1.223333 -2.49623,1.213826 -0.93599,-0.0096 -2.49961,-1.279633 -2.49961,-1.279633 L 196.31998,83.4609"
       style="color:#000000;fill:none;stroke:#ff0000;stroke-width:4;stroke-linecap:round;stroke-linejoin:round;stroke-miterlimit:4;stroke-opacity:1;stroke-dasharray:none;stroke-dashoffset:0;marker:none;visibility:visible;display:inline;overflow:visible;enable-background:accumulate" />
    <path
       style="color:#000000;fill:none;stroke:#008000;stroke-width:3.99999976;stroke-linecap:round;stroke-linejoin:miter;stroke-miterlimit:4;stroke-opacity:1;stroke-dasharray:none;stroke-dashoffset:0;marker:none;visibility:visible;display:inline;overflow:visible;enable-background:accumulate"
       d="M 458.6472,79.15498 390.78311,78.2879 m 2.04209,-2 -26.70797,22.24674 m 2.04209,0 -132.40598,-1.782555 c 0,0 -1.39426,1.228517 -2.24623,1.219759 -0.86177,-0.0089 -2.24623,-1.28024 -2.24623,-1.28024 L 199.22716,96.26034"
       id="path3823-2"
       inkscape:connector-curvature="0"
       sodipodi:nodetypes="ccccccscc" />
    <path
       style="color:#000000;fill:none;stroke:#808080;stroke-width:3.99999976;stroke-linecap:round;stroke-linejoin:round;stroke-miterlimit:4;stroke-opacity:1;stroke-dasharray:none;stroke-dashoffset:0;marker:none;visibility:visible;display:inline;overflow:visible;enable-background:accumulate"
       d="m 373.38518,111.2615 c -3.00662,14.27774 -1.23042,22.70078 -0.95244,33.52604 0.3,11.68288 -3.03328,20.34788 -0.88472,35.86954 0.88582,6.3994 1.96266,0.47548 0.42294,20.85572 -6.36396,1.67204 -11.3137,-1.45402 -16.97056,0 -3.00662,-14.27772 -1.23042,-22.70076 -0.95244,-33.52602 0.3,-11.68288 -3.03328,-20.3479 -0.88472,-35.86954 0.88582,-6.3994 1.96266,-0.4755 0.42294,-20.85574"
       id="path9100"
       inkscape:connector-curvature="0"
       sodipodi:nodetypes="cssccssc" />
    <path
       sodipodi:nodetypes="cssccssc"
       inkscape:connector-curvature="0"
       id="path9102"
       d="m 202.53048,109.17478 c 3.00662,14.27772 1.23042,22.70076 0.95244,33.52602 -0.3,11.6829 3.03328,20.3479 0.88472,35.86954 -0.88582,6.39942 -1.96266,0.4755 -0.42294,20.85574 6.36396,1.67202 11.3137,2.19776 16.97056,1.04336 3.00662,-14.27772 1.23042,-23.74414 0.95244,-34.56938 -0.3,-11.6829 3.03328,-20.3479 0.88472,-35.86956 -0.88582,-6.3994 -1.96266,-0.47548 -0.42294,-20.85572"
       style="color:#000000;fill:none;stroke:#808080;stroke-width:3.99999976;stroke-linecap:round;stroke-linejoin:round;stroke-miterlimit:4;stroke-opacity:1;stroke-dasharray:none;stroke-dashoffset:0;marker:none;visibility:visible;display:inline;overflow:visible;enable-background:accumulate" />
    <path
       style="color:#000000;fill:none;stroke:#ff0000;stroke-width:4;stroke-linecap:round;stroke-linejoin:round;stroke-miterlimit:4;stroke-opacity:1;stroke-dasharray:none;stroke-dashoffset:0;marker:none;visibility:visible;display:inline;overflow:visible;enable-background:accumulate"
       d="M 168.07146,102.26518 C 173.56265,88.13262 146.73374,81.3623 143.47411,69.36548 138.70886,60.40534 128.29142,51.60116 129,41"
       id="path5390"
       inkscape:connector-curvature="0" />
    <path
       style="color:#000000;fill:none;stroke:#ff0000;stroke-width:4;stroke-linecap:round;stroke-linejoin:round;stroke-miterlimit:4;stroke-opacity:1;stroke-dasharray:none;stroke-dashoffset:0;marker:none;visibility:visible;display:inline;overflow:visible;enable-background:accumulate"
       d="m 103.93955,-16.71704 c -2.308,12.02848 11.51925,21.06992 21.75037,25.0836 10.4714,4.68836 21.98914,7.58666 29.24464,17.14536 14.29856,3.80892 10.47505,-19.38036 11.21418,-28.39204"
       id="path5386"
       inkscape:connector-curvature="0"
       sodipodi:nodetypes="cccc" />
    <path
       style="color:#000000;fill:none;stroke:#808080;stroke-width:4;stroke-linecap:round;stroke-linejoin:round;stroke-miterlimit:4;stroke-opacity:1;stroke-dasharray:none;stroke-dashoffset:0;marker:none;visibility:visible;display:inline;overflow:visible;enable-background:accumulate"
       d="m 172,-6 c -5.69954,28.62492 2.50431,19.6145 -8.43437,28.33036 -11.33004,9.0277 -44.79314,-17.7225 -50.60975,-29.8287 -2.9531,-6.14632 -3.67749,-12.64216 1.33133,-16.94588 12.24664,-10.52266 28.2306,-3.29124 29.83199,22.0404 1.60356,25.36606 -16.27927,54.70938 0.83253,75.68798 10.75811,13.18916 30.96913,19.744 15.56207,22.27438 -17.15988,2.81826 4.29204,23.31864 13.1261,26.61886 19.03589,7.1114 13.76015,-41.69942 19.97911,-33.87676"
       id="path4541"
       inkscape:connector-curvature="0"
       sodipodi:nodetypes="csssssssc" />
    <path
       sodipodi:nodetypes="ccccccscccc"
       inkscape:connector-curvature="0"
       id="path3825-4"
       d="m 457.9486,88.91128 -63.75274,-0.59874 m 3.45948,0 -25.79054,22.35878 m 0.59354,0 -140.95057,-1.4344 c 0,0 -1.74706,1.24869 -2.74972,1.22202 -0.93587,-0.0249 -2.50228,-1.27546 -2.50228,-1.27546 l -26.45847,-0.26926 c -6.23081,-16.36952 -4.9542,-27.78928 -5.87992,-44.1588 1.00659,-10.6339 23.39519,-3.30366 27.1941,-10.99452"
       style="color:#000000;fill:none;stroke:#ff0000;stroke-width:4;stroke-linecap:round;stroke-linejoin:round;stroke-miterlimit:4;stroke-opacity:1;stroke-dasharray:none;stroke-dashoffset:0;marker:none;visibility:visible;display:inline;overflow:visible;enable-background:accumulate" />
    <path
       style="color:#000000;fill:none;stroke:#ff0000;stroke-width:4;stroke-linecap:round;stroke-linejoin:round;stroke-miterlimit:4;stroke-opacity:1;stroke-dasharray:none;stroke-dashoffset:0;marker:none;visibility:visible;display:inline;overflow:visible;enable-background:accumulate"
       d="m 552.43768,312.1241 c -30.46698,3.4142 -56.99246,1.2872 -83.00334,1.1311"
       id="path7397"
       inkscape:connector-curvature="0"
       sodipodi:nodetypes="cc" />
    <path
       style="color:#000000;fill:none;stroke:#ff0000;stroke-width:4;stroke-linecap:round;stroke-linejoin:round;stroke-miterlimit:4;stroke-opacity:1;stroke-dasharray:none;stroke-dashoffset:0;marker:none;visibility:visible;display:inline;overflow:visible;enable-background:accumulate"
       d="m 512.75678,290.4494 c -21.69514,1.7023 -28.19242,0.4145 -42.3041,0.5842"
       id="path7399"
       inkscape:connector-curvature="0"
       sodipodi:nodetypes="cc" />
    <path
       style="color:#000000;fill:none;stroke:#008000;stroke-width:3.99999952;stroke-linecap:round;stroke-linejoin:miter;stroke-miterlimit:4;stroke-opacity:1;stroke-dasharray:none;stroke-dashoffset:0;marker:none;visibility:visible;display:inline;overflow:visible;enable-background:accumulate"
       d="m 471.96766,279.2197 c 32.1252,-1.9477 69.83404,-1.7175 98.06948,0.4537"
       id="path7389"
       inkscape:connector-curvature="0"
       sodipodi:nodetypes="cc" />
    <path
       style="color:#000000;fill:none;stroke:#008000;stroke-width:4;stroke-linecap:round;stroke-linejoin:miter;stroke-miterlimit:4;stroke-opacity:1;stroke-dasharray:none;stroke-dashoffset:0;marker:none;visibility:visible;display:inline;overflow:visible;enable-background:accumulate"
       d="m 469.78616,302.1967 c 36.8783,0.9208 73.76634,3.8906 110.75108,1.5346"
       id="path7393"
       inkscape:connector-curvature="0"
       sodipodi:nodetypes="cc" />
    <path
       style="color:#000000;fill:none;stroke:#ffff00;stroke-width:4;stroke-linecap:round;stroke-linejoin:miter;stroke-miterlimit:4;stroke-opacity:1;stroke-dasharray:none;stroke-dashoffset:0;marker:none;visibility:visible;display:inline;overflow:visible;enable-background:accumulate"
       d="m 485.4956,269.4505 c -23.0853,-1.1883 -16.2615,21.7402 -17.00208,32.2194 -1.85684,11.5779 6.38764,25.4632 -4.94056,35.2059 -4.10816,11.7865 1.4786,12.0531 -0.71008,24.0001 -15.6215,8 -40.47392,8.5 -40.47392,8.5"
       id="path3657"
       inkscape:connector-curvature="0"
       sodipodi:nodetypes="ccccc" />
    <path
       style="color:#000000;fill:none;stroke:#00ffff;stroke-width:3.99999976;stroke-linecap:round;stroke-linejoin:round;stroke-miterlimit:4;stroke-opacity:1;stroke-dasharray:none;stroke-dashoffset:0;marker:none;visibility:visible;display:inline;overflow:visible;enable-background:accumulate"
       d="m 19.360754,-62.5788 c 5.263162,35.77066 1.447454,49.83758 2.205542,91.64436 0.19822,10.93082 -1.270796,11.06928 -2.756928,18.91074 -0.121138,0.63918 1.727062,67.49194 2.205544,71.27894 0.58075,4.59642 0,12.54988 0,17.45606 0,22.4762 -1.553951,54.3516 1.654156,71.27894 1.943552,10.255 -3.813213,29.46136 -1.654156,46.5495 1.144264,9.05644 -2.50863,25.00786 -2.014607,34.17774 0.267191,4.95954 1.159695,6.40624 2.014607,10.9171 2.076864,10.95844 1.102772,29.34444 1.102772,42.1855"
       id="path9150"
       inkscape:connector-curvature="0"
       sodipodi:nodetypes="cssssssssc" />
    <path
       style="color:#000000;fill:none;stroke:#00ffff;stroke-width:4;stroke-linecap:round;stroke-linejoin:round;stroke-miterlimit:4;stroke-opacity:1;stroke-dasharray:none;stroke-dashoffset:0;marker:none;visibility:visible;display:inline;overflow:visible;enable-background:accumulate"
       d="m 76.09114,-11.66526 c 5.324234,22.55964 -2.303504,58.60926 2.059878,77.09762 10.081716,42.71788 -2.206474,94.41832 -2.206474,141.1032 0,10.58466 10.665152,49.20378 8,56.73222 -3.589198,10.13868 1.86024,19.75664 -1.029938,32.00278 -3.188634,13.51078 -4.119754,28.62162 -4.119754,42.1855"
       id="path8944"
       inkscape:connector-curvature="0"
       sodipodi:nodetypes="cssssc" />
    <path
       style="color:#000000;fill:none;stroke:#c87137;stroke-width:4;stroke-linecap:round;stroke-linejoin:round;stroke-miterlimit:4;stroke-opacity:1;stroke-dasharray:none;stroke-dashoffset:0;marker:none;visibility:visible;display:inline;overflow:visible;enable-background:accumulate"
       d="m 323.5,113 c 2.24119,5.489 0.89063,6.69531 5.5,11.5"
       id="path4113"
       inkscape:connector-curvature="0"
       sodipodi:nodetypes="cc" />
    <path
       style="color:#000000;fill:none;stroke:#ffff00;stroke-width:4;stroke-linecap:round;stroke-linejoin:miter;stroke-miterlimit:4;stroke-opacity:1;stroke-dasharray:none;stroke-dashoffset:0;marker:none;visibility:visible;display:inline;overflow:visible;enable-background:accumulate"
       d="m 385,326 c -4.26516,-27.27572 5,-54.81596 -2,-86 -1.94028,-8.64368 -0.0546,-34.9182 4,-41 4.9059,-7.35886 12.75498,-11.75498 19,-18 1.9049,-1.9049 3.36614,-7.57742 7,-10 5.19272,-3.46182 14.75402,-7.75402 23.37468,-15.87236 C 440.99534,146.00932 440.06172,138.87658 444,131 c 1.2531,-2.50622 5.92178,-17.92178 7,-19 1.55272,-1.55272 4.66368,-5.32738 6,-8 1.13832,-2.27664 7.2859,-55.7141 7,-56 -2.3205,-2.3205 -5.85966,-8.95322 -9,-10 -7.51932,-2.50644 -53.41066,2 -65,2 -1.912,0 -10.78322,-1.21678 -12,0 -6.7247,6.7247 -12.09576,15.54788 -21,20 -8.16652,4.08326 -30.97796,-3 -40,-3 -12.3582,0 -49.82284,6.08858 -60,1 -4.97878,-2.48938 -9.4074,0.1104 -15.8935,-1.9278 C 230.59786,52.76988 220.2036,50.98178 213.46446,44.24264 210.07602,40.85418 210.73176,32.4969 198.65453,10.41456 185.32844,-6.28372 194.09911,-35.60356 189,-56"
       id="path5938"
       inkscape:connector-curvature="0"
       sodipodi:nodetypes="csssscsssssssssssscc" />
    <path
       style="color:#000000;fill:none;stroke:#ff0000;stroke-width:4;stroke-linecap:round;stroke-linejoin:round;stroke-miterlimit:4;stroke-opacity:1;stroke-dasharray:none;stroke-dashoffset:0;marker:none;visibility:visible;display:inline;overflow:visible;enable-background:accumulate"
       d="m 193,83 c -12.81262,0.80114 -13.81226,22.05494 -10.63952,32.5069 2.67224,18.89648 -18.69701,11.95052 -24.6026,1.47254 -10.20094,-8.32052 -2.6552,-12.73354 10.31358,-14.71426"
       id="path5392"
       inkscape:connector-curvature="0"
       sodipodi:nodetypes="cccc" />
    <path
       style="color:#000000;fill:none;stroke:#ff0000;stroke-width:4;stroke-linecap:round;stroke-linejoin:round;stroke-miterlimit:4;stroke-opacity:1;stroke-dasharray:none;stroke-dashoffset:0;marker:none;visibility:visible;display:inline;overflow:visible;enable-background:accumulate"
       d="m 129,41 c 12.69275,-3.89672 17.05518,-19.60728 15.98603,-31.14566 0.69598,-14.02208 -4.09508,-29.4899 -17.40293,-36.23062 -9.18323,-9.70972 -27.10421,-4.25896 -23.64355,9.65924"
       id="path5388"
       inkscape:connector-curvature="0" />
    <path
       style="fill:none;stroke:#c87137;stroke-width:4;stroke-linecap:round;stroke-linejoin:round;stroke-opacity:1;color:#000000;stroke-miterlimit:4;stroke-dasharray:none;stroke-dashoffset:0;marker:none;visibility:visible;display:inline;overflow:visible;enable-background:accumulate"
       d="m 332.5,113 c 0.39014,4.49896 3,8.71388 3,12.5"
       id="path4115"
       inkscape:connector-curvature="0" />
    <path
       style="color:#000000;fill:#ffffff;stroke:#00ffff;stroke-width:3.99999976;stroke-linecap:round;stroke-linejoin:round;stroke-miterlimit:4;stroke-opacity:1;stroke-dashoffset:0;marker:none;visibility:visible;display:inline;overflow:visible;enable-background:accumulate"
       d="m 54,189 c -0.353553,-2.47487 1.884425,-0.72677 8.37868,-1 5.570426,-0.23436 -0.705038,11.58217 2.12132,19.5 0,0 -11.207107,1.82843 -11.207107,-1 1.010445,-2.6196 -0.353553,-5.67471 -0.353553,-10.24369 0,-3.53553 1.555635,-3.79149 1.06066,-7.25631 z"
       id="rect4167"
       inkscape:connector-curvature="0"
       sodipodi:nodetypes="ssccss" />
    <path
       style="color:#000000;fill:none;stroke:#008000;stroke-width:3.99999976;stroke-linecap:round;stroke-linejoin:round;stroke-miterlimit:4;stroke-opacity:1;stroke-dasharray:none;stroke-dashoffset:0;marker:none;visibility:visible;display:inline;overflow:visible;enable-background:accumulate"
       d="m 99.630988,231.81682 c 0.785762,13.07644 -0.04334,16.72632 0.898832,29.77696 0.44558,6.1721 4.06095,12.80312 -0.17846,21.64516 -0.17362,0.36214 0.76167,6.58616 0.68126,6.96848 -0.34074,1.6202 16.97848,-1.02972 18.53455,-1.02972 0.76099,0 33.98095,-0.374 34.14333,-0.75786 1.77224,-4.18922 1.36037,-6.76474 1.20046,-7.3185 -1.92505,-6.66622 -2.17923,-16.35512 -1.23345,-23.79168 1.3821,-10.86722 0.96108,-15.54282 -1.28011,-24.2133 -0.89649,-3.46826 -47.34265,-3.56428 -52.766412,-1.27954 z"
       id="path9210"
       inkscape:connector-curvature="0"
       sodipodi:nodetypes="cssssssssc" />
    <path
       style="color:#000000;fill:none;stroke:#008000;stroke-width:4;stroke-linecap:round;stroke-linejoin:round;stroke-miterlimit:4;stroke-opacity:1;stroke-dasharray:none;stroke-dashoffset:0;marker:none;visibility:visible;display:inline;overflow:visible;enable-background:accumulate"
       d="m 181.08545,143.3557 c -25.96923,-3.29908 -30.91805,-0.30132 -52.46692,-0.33128 -11.83766,-2.33604 -32.914194,-4.93934 -32.060168,2.996 0.992246,9.21964 -2.701342,20.71532 1.765484,30.1212 -3.30481,9.98362 -1.497428,17.80962 1.095122,28.59828 0.795042,3.3085 14.250222,1.32974 20.392972,-1.01926 15.58574,1.17564 63.2307,7.699 63.81907,1.65872 1.2547,-9.91338 3.51352,-59.06338 -2.54556,-62.02366 z"
       id="path9210-1"
       inkscape:connector-curvature="0"
       sodipodi:nodetypes="ccscsccc" />
    <path
       style="color:#000000;fill:none;stroke:#ff0000;stroke-width:4;stroke-linecap:round;stroke-linejoin:round;stroke-miterlimit:4;stroke-opacity:1;stroke-dasharray:none;stroke-dashoffset:0;marker:none;visibility:visible;display:inline;overflow:visible;enable-background:accumulate"
       d="m 363.75,35.17856 c -11.56484,5.72456 -38,3.95498 -47,3.95498 -6.47598,0 -19,1.35234 -19,-3.95498 0,-0.40224 -0.38964,-2.37982 0,-2.63664 6.10746,-4.02582 46.5493,-7.06978 56,-3.955 1.33816,0.44104 5.95196,-0.69082 7,0 0.22944,0.1512 2.42372,5.95854 3,6.59164 z"
       id="path5506"
       inkscape:connector-curvature="0"
       sodipodi:nodetypes="csssssc" />
    <path
       style="color:#000000;fill:none;stroke:#008000;stroke-width:3.99999976;stroke-linecap:round;stroke-linejoin:miter;stroke-miterlimit:4;stroke-opacity:1;stroke-dasharray:none;stroke-dashoffset:0;marker:none;visibility:visible;display:inline;overflow:visible;enable-background:accumulate"
       d="m 361,14.42752 c -9.33334,0 -36,0 -40,0 -1.94878,0 -13.95714,2.28014 -16,0.74934 -14.47268,-10.845 26.61848,-14.95314 32,-11.98948 13.3022,7.32564 26.1201,3.29674 24,11.24014 z"
       id="path5508"
       inkscape:connector-curvature="0"
       sodipodi:nodetypes="csssc" />
    <path
       style="fill:none;stroke:#c87137;stroke-width:4;stroke-linecap:round;stroke-linejoin:round;stroke-opacity:1;color:#000000;stroke-miterlimit:4;stroke-dasharray:none;stroke-dashoffset:0;marker:none;visibility:visible;display:inline;overflow:visible;enable-background:accumulate"
       d="m 341.98327,113.50001 c 1.24604,4.13776 1.17586,8.51905 -0.73003,12"
       id="path4117"
       inkscape:connector-curvature="0" />
    <path
       style="color:#000000;fill:none;stroke:#008000;stroke-width:4;stroke-linecap:round;stroke-linejoin:round;stroke-miterlimit:4;stroke-opacity:1;stroke-dasharray:none;stroke-dashoffset:0;marker:none;visibility:visible;display:inline;overflow:visible;enable-background:accumulate"
       d="m 101,233.11996 c 3.64355,3.3093 14.51776,15.38441 19.52749,22.32297 7.38024,4.63207 29.2256,24.73014 31.97251,25.17703"
       id="path4022"
       inkscape:connector-curvature="0"
       sodipodi:nodetypes="ccc" />
    <path
       style="color:#000000;fill:none;stroke:#008000;stroke-width:3.99999976;stroke-linecap:round;stroke-linejoin:round;stroke-miterlimit:4;stroke-opacity:1;stroke-dasharray:none;stroke-dashoffset:0;marker:none;visibility:visible;display:inline;overflow:visible;enable-background:accumulate"
       d="m 154,280.5 c -4.84728,2.60366 -29.77009,-1.61496 -33,0 -2.09322,1.04661 -16.08831,2 -19.5,2"
       id="path3953"
       inkscape:connector-curvature="0" />
    <path
       style="color:#000000;fill:none;stroke:#008000;stroke-width:3.99999976;stroke-linecap:round;stroke-linejoin:round;stroke-miterlimit:4;stroke-opacity:1;stroke-dasharray:none;stroke-dashoffset:0;marker:none;visibility:visible;display:inline;overflow:visible;enable-background:accumulate"
       d="m 98,175.5 c 3.45952,-2.7253 16.64957,-11.32479 21,-13.5 3.45922,-1.72961 7.36224,-7.93112 10.5,-9.5 3.79425,-1.89713 10.18312,-9.90844 11,-9.5 0.45604,0.22802 9.44582,12.68158 10,12 0.3359,-0.41312 11.79679,6.55342 12.5,8.5 1.75917,4.86964 5.37594,6.37594 13,12.5 -7.36105,4.93053 -12.69109,6.69109 -20.97488,16.28521 -2.28378,7.09412 -13.08158,9.99302 -16.2788,11.32935 C 135.54911,204.95089 132.98772,197.48772 117.5,190 111.56388,181.41749 103.15945,180.39567 98,175.5 z"
       id="path4033"
       inkscape:connector-curvature="0"
       sodipodi:nodetypes="csssssccccc" />
    <path
       style="fill:none;stroke:#008000;stroke-width:3.99999976000000010;stroke-linecap:round;stroke-linejoin:round;stroke-opacity:1;color:#000000;stroke-miterlimit:4;stroke-dasharray:none;stroke-dashoffset:0;marker:none;visibility:visible;display:inline;overflow:visible;enable-background:accumulate"
       d="m 177,206.5 c -1.52691,-10.65061 2.98713,-25.02574 -1.5,-34 -0.0399,-0.0798 1,-26.08008 1,-29.5"
       id="path3978"
       inkscape:connector-curvature="0" />
    <path
       style="color:#000000;fill:none;stroke:#008000;stroke-width:3.99999976;stroke-linecap:round;stroke-linejoin:round;stroke-miterlimit:4;stroke-opacity:1;stroke-dasharray:none;stroke-dashoffset:0;marker:none;visibility:visible;display:inline;overflow:visible;enable-background:accumulate"
       d="m 102.5,282.11996 c 1.55673,-1.86248 2.09027,-3.22685 4,-4.5 2.66034,-1.77356 19.55931,-17.56638 20,-19 2.39403,-7.78805 21.8101,-23.65505 25.5,-25.5"
       id="path4003"
       inkscape:connector-curvature="0"
       sodipodi:nodetypes="cssc" />
    <path
       sodipodi:nodetypes="ssscs"
       inkscape:connector-curvature="0"
       id="path4221"
       d="m 189.18575,163.93851 c -0.81281,-0.21359 -6.52441,0.0966 -7.41943,-0.46564 -1.11144,-0.6982 -1.89253,-9.66977 -0.80581,-9.11789 1.85785,0.94349 6.74985,-1.21961 7.63365,-0.49416 0.88383,0.7258 1.94151,10.43205 0.59152,10.07734 z"
       style="color:#000000;fill:#ffffff;stroke:#008000;stroke-width:3.99999976;stroke-linecap:round;stroke-linejoin:round;stroke-miterlimit:4;stroke-opacity:1;stroke-dashoffset:0;marker:none;visibility:visible;display:inline;overflow:visible;enable-background:accumulate" />
    <path
       style="color:#000000;fill:#ffffff;stroke:#008000;stroke-width:3.99999976;stroke-linecap:round;stroke-linejoin:round;stroke-miterlimit:4;stroke-opacity:1;stroke-dashoffset:0;marker:none;visibility:visible;display:inline;overflow:visible;enable-background:accumulate"
       d="m 183.07476,182.03189 c 0.84559,0.63169 6.5772,0.57696 7.3737,-0.11786 0.98909,-0.86282 0.28693,-10.81586 -0.70052,-10.1014 -1.68818,1.22143 -6.85745,-0.1531 -7.6174,0.70152 -0.75996,0.85464 -0.17396,8.68241 0.94424,9.51774 z"
       id="path4201"
       inkscape:connector-curvature="0"
       sodipodi:nodetypes="ssscs" />
    <path
       style="color:#000000;fill:none;stroke:#808080;stroke-width:3.99999976000000010;stroke-linecap:round;stroke-linejoin:round;stroke-miterlimit:4;stroke-opacity:1;stroke-dasharray:none;stroke-dashoffset:0;marker:none;visibility:visible;display:inline;overflow:visible;enable-background:accumulate"
       d="m 220,113 c -4.69295,5.16627 -16.16585,16.11749 -13.88133,18.67741 7.61867,6.05993 9.97107,12.00208 15.88133,19.32259 -6.87303,6.93651 -5.20413,8.70413 -10.5,12 -0.61941,0.38549 -7.97903,5.52097 -7,6.5 0.25,0.25 1.25,-0.25 1.5,0 2.39311,2.39311 4.78522,7.02348 8.5,9.5 2.36911,1.57941 7.22141,4.94281 8.5,7.5 0.0908,0.18166 -5.66144,3.08072 -6.5,3.5 -4.74002,2.37001 -6.04977,7.5 -10.5,7.5"
       id="path4068"
       inkscape:connector-curvature="0"
       sodipodi:nodetypes="cccsssscsc" />
    <path
       style="color:#000000;fill:none;stroke:#0000ff;stroke-width:4;stroke-linecap:round;stroke-linejoin:round;stroke-miterlimit:4;stroke-opacity:1;stroke-dasharray:none;stroke-dashoffset:0;marker:none;visibility:visible;display:inline;overflow:visible;enable-background:accumulate"
       d="m 342.7923,48.65992 c -0.43358,21.1467 -9.37004,28.13754 -12.4769,33.89424 -5.07516,9.40374 -4.93246,33.62638 -17.6916,41.5714 -7.4467,4.63698 -10.31692,1.02885 -14.10942,21.25791 -5.49352,29.30224 0.39721,16.41924 -15.01002,45.98841 -4.67646,8.97494 -1.56241,4.43651 -2.50248,8.78104 -4.70342,21.73677 -9.99072,26.62596 -19.39202,34.91011 -6.3984,5.63809 -10.97978,5.48707 -17.24363,5.9348 -17.63329,1.26039 -11.1158,-2.02696 -24.86454,-10.48514 -7.63093,-4.69452 0.39544,-6.86827 -3.5906,-18.24526 -2.76319,-7.88673 -0.67791,-12.20984 -13.03164,-19.84976 -3.33193,-2.06057 -7.76614,0.90683 -13.11994,7.87002 -6.21049,8.07741 -8.58275,5.82698 -18.99768,5.87614 -10.55018,0.0498 -10.2529,-0.70067 -16.57706,-0.45229 -1.9712,0.0774 -1.89202,-1.11488 -5.62195,-1.32766 C 133.4179,203.51993 116.66062,200.86232 99,199.5 88.8839,198.71966 80,202 60,198"
       id="path9043"
       inkscape:connector-curvature="0"
       sodipodi:nodetypes="csssssssssssssssc" />
    <path
       style="color:#000000;fill:none;stroke:#808080;stroke-width:3.99999976;stroke-linecap:round;stroke-linejoin:round;stroke-miterlimit:4;stroke-opacity:1;stroke-dasharray:none;stroke-dashoffset:0;marker:none;visibility:visible;display:inline;overflow:visible;enable-background:accumulate"
       d="m 369.29424,198.75 c -4.69295,-5.16627 -16.16586,-14.66669 -13.88134,-16.68658 7.61868,-4.71208 9.97108,-9.2252 15.88134,-16.27393 -6.87303,-5.29866 -5.20413,-7.24362 -10.50001,-10.53949 -0.61941,-0.38549 -8.97903,-6.13849 -6.54296,-7.78014 2.43607,-1.64165 5.82818,-6.72916 9.54297,-9.73681 2.36911,-1.91813 5.22141,-6.09988 6.5,-9.23082 0.0908,-0.22241 -3.66144,-3.45278 -4.5,-3.92388 -4.74003,-2.6629 -7.04978,-9.78718 -11.50001,-9.92373"
       id="path4068-4"
       inkscape:connector-curvature="0"
       sodipodi:nodetypes="cccscscsc" />
    <path
       inkscape:connector-curvature="0"
       style="fill:none;stroke:#80ff00;stroke-width:3.99999976;stroke-linecap:round;stroke-linejoin:round;stroke-miterlimit:4;stroke-opacity:1;stroke-dasharray:none"
       d="m 185.07799,275.17708 c 6.8299,-3.67797 16.88324,0.011 24.35931,2.00831 7.06653,4.51108 3.38962,1.10733 10.50371,5.96862 6.80472,4.64989 17.29143,2.92792 22.89022,1.15679 2.84075,0.66064 2.52726,0.79438 12.02991,2.85708 8.46233,0.2211 13.90239,2.50004 21.999,-0.93535 6.93173,-3.1592 9.16014,-1.85596 13.25436,-3.26835 1.34063,-0.46248 3.37991,-0.029 4.7543,-0.39035 8.9885,-6.5038 8.12148,-5.78837 19.22883,-7.69899 6.37514,-2.72768 8.70618,-8.18183 7.90935,-12.15056 0.45084,-10.07436 -10.98634,-14.11551 -12.07196,-17.92809 -0.27728,0.4713 -1.39264,-4.60544 -6.26851,-5.59335"
       id="path4123"
       sodipodi:nodetypes="ccscccsccccc" />
    <path
       inkscape:connector-curvature="0"
       style="fill:none;stroke:#80ff00;stroke-width:3.99999976;stroke-linecap:round;stroke-linejoin:round;stroke-miterlimit:4;stroke-opacity:1;stroke-dasharray:none"
       d="m 197.93806,259.39548 c 2.9175,-3.00355 6.54811,-3.5373 9.6202,-7.89777 0.88647,-2.80592 5.01257,-6.73272 5.51203,-9.87601 0.61812,-3.89007 1.60655,-8.28841 1.4484,-12.98414 1.25192,-3.79917 0.85762,-14.68811 -3.01567,-7.90281 -3.18455,4.20527 -3.0025,4.21539 -4.66834,10.60434 -2.12986,7.90318 -2.48849,8.53662 -4.88052,10.7362 -4.62942,4.25697 -9.39896,9.66322 -10.37347,13.07799 -2.11076,2.23107 -0.70454,3.12281 -3.80768,3.84764"
       id="path2956"
       sodipodi:nodetypes="ccscccscc" />
    <path
       style="fill:none;stroke:#80ff00;stroke-width:3.99999976;stroke-linecap:round;stroke-linejoin:round;stroke-miterlimit:4;stroke-opacity:1;stroke-dasharray:none"
       d="m 209.65524,201.15139 c -2.56406,-0.38916 -2.2337,-1.82613 -6.80684,-3.72908 -3.69561,-2.19577 -2.32129,0.17106 -5.39774,-1.23436 -4.19275,-3.09676 -7.29103,-3.96136 -12.15302,-4.56529 -1.24874,-0.19471 -4.1255,-2.08505 -4.38173,-0.32873 0.43653,1.87904 1.40339,3.5964 1.96125,5.44445 1.51263,4.02165 3.88269,8.76496 7.3263,11.7163 1.8093,3.19323 2.50459,6.03405 4.3409,9.21025 1.38776,1.39738 0.76234,4.91251 3.06833,5.03536 2.11135,-1.01807 2.741,-3.46722 4.50982,-4.87599 3.85217,-2.72544 0.31712,-1.76287 3.55176,-4.16475 2.12004,-2.32617 4.75977,-4.91849 6.88609,-7.23362 0.82762,-0.89277 1.57626,-0.87956 2.55024,-2.70715 -1.55084,-1.68826 -3.00906,-0.15598 -5.45536,-2.56739 z"
       id="path2942-1"
       inkscape:connector-curvature="0"
       sodipodi:nodetypes="cccccccccccccc" />
    <path
       inkscape:connector-curvature="0"
       style="color:#000000;fill:none;stroke:#80ff00;stroke-width:4;stroke-linecap:round;stroke-linejoin:round;stroke-miterlimit:4;stroke-opacity:1;stroke-dasharray:none;stroke-dashoffset:0;marker:none;visibility:visible;display:inline;overflow:visible;enable-background:accumulate"
       d="m 207.19767,214.40237 c 1.55853,3.54523 4.4935,3.13121 8.07369,3.68622 3.71574,0.57562 8.07736,3.53249 11.94899,3.39084 15.20188,-0.55618 11.47236,0.84882 16.16902,1.49878 8.25963,1.14306 9.42939,2.51265 16.5194,4.65191 6.86395,2.07105 7.11134,2.75106 17.65469,4.67884 3.66829,0.67072 8.95537,3.55539 12.91502,5.64766 2.56903,1.35748 8.65292,0.69222 12.27644,0.91143"
       id="path2833"
       sodipodi:nodetypes="csssssss" />
    <path
       inkscape:connector-curvature="0"
       style="fill:none;stroke:#80ff00;stroke-width:3.99999952;stroke-linecap:round;stroke-linejoin:round;stroke-miterlimit:4;stroke-opacity:1;stroke-dasharray:none"
       d="m 280.66036,272.62455 c 2.35578,0.14659 3.46946,-0.61079 6.24196,-0.90179 3.49965,-0.36732 2.38524,-2.23968 7.79288,-3.0066 5.20372,-0.738 3.68653,0.8499 7.5824,-1.27492 1.50354,-3.7189 1.6875,-3.71601 1.31415,-6.78239 -0.43673,-3.58687 0.10796,-5.20245 -0.4528,-9.43232 -3.53074,-4.80016 -2.2929,-11.70106 -6.31484,-11.74619 -1.65779,2.97757 0.78387,6.71255 0.0874,11.75659 0.41638,3.74261 -1.63228,8.31859 -1.72595,10.77311 -0.17647,4.62425 -5.95388,3.32078 -11.45265,3.12982 -2.53724,1.18661 -4.1722,1.98735 -8.827,3.75053 -2.80598,1.06287 -3.14698,0.90025 -6.19073,0.78665"
       id="path2958-6"
       sodipodi:nodetypes="csscscccscsc" />
  </g>
</svg>
