<?xml version="1.0" encoding="UTF-8" standalone="no"?>
<!-- Created with Inkscape (http://www.inkscape.org/) -->

<svg
   xmlns:dc="http://purl.org/dc/elements/1.1/"
   xmlns:cc="http://creativecommons.org/ns#"
   xmlns:rdf="http://www.w3.org/1999/02/22-rdf-syntax-ns#"
   xmlns:svg="http://www.w3.org/2000/svg"
   xmlns="http://www.w3.org/2000/svg"
   xmlns:sodipodi="http://sodipodi.sourceforge.net/DTD/sodipodi-0.dtd"
   xmlns:inkscape="http://www.inkscape.org/namespaces/inkscape"
   width="480"
   height="320"
   id="svg2"
   version="1.1"
   inkscape:version="0.48.0 r9654"
   sodipodi:docname="itnas289.svg"
   inkscape:export-xdpi="90"
   inkscape:export-ydpi="90"
   inkscape:export-filename="itnas289.png">
  <defs
     id="defs4">
    <inkscape:perspective
       sodipodi:type="inkscape:persp3d"
       inkscape:vp_x="0 : 160 : 1"
       inkscape:vp_y="0 : 1000 : 0"
       inkscape:vp_z="480 : 160 : 1"
       inkscape:persp3d-origin="240 : 106.66667 : 1"
       id="perspective8" />
  </defs>
  <sodipodi:namedview
     id="base"
     pagecolor="#ffffff"
     bordercolor="#666666"
     borderopacity="1.0"
     inkscape:pageopacity="1"
     inkscape:pageshadow="2"
     inkscape:zoom="2"
     inkscape:cx="278.41074"
     inkscape:cy="119.7342"
     inkscape:document-units="px"
     inkscape:current-layer="layer1"
     showgrid="false"
     inkscape:snap-nodes="true"
     inkscape:snap-global="false"
     inkscape:snap-grids="true"
     showguides="true"
     inkscape:window-width="1280"
     inkscape:window-height="998"
     inkscape:window-x="1276"
     inkscape:window-y="-4"
     inkscape:window-maximized="1"
     inkscape:object-nodes="true">
    <inkscape:grid
       empspacing="5"
       visible="true"
       enabled="true"
       snapvisiblegridlinesonly="true"
       type="xygrid"
       id="grid2816" />
  </sodipodi:namedview>
  <metadata
     id="metadata7">
    <rdf:RDF>
      <cc:Work
         rdf:about="">
        <dc:format>image/svg+xml</dc:format>
        <dc:type
           rdf:resource="http://purl.org/dc/dcmitype/StillImage" />
        <dc:title></dc:title>
      </cc:Work>
    </rdf:RDF>
  </metadata>
  <g
     inkscape:label="Layer 1"
     inkscape:groupmode="layer"
     id="layer1"
     style="display:inline">
    <path
       style="color:#000000;fill:none;stroke:#0000ff;stroke-width:4;stroke-linecap:round;stroke-linejoin:round;stroke-miterlimit:4;stroke-opacity:1;stroke-dasharray:none;stroke-dashoffset:0;marker:none;visibility:visible;display:inline;overflow:visible;enable-background:accumulate"
       d="m 358.98822,282.84437 c 4.02343,-1.32674 11.26922,-2.5417 17.01932,-1.42114 15.78979,3.07705 38.53594,3.80523 53.97501,2.31841 7.30718,-0.7037 14.43518,-1.4538 22.01892,-1.35795 18.74035,0.23685 44.65353,2.83171 61.0227,-1.4104"
       id="path3053"
       inkscape:connector-curvature="0"
       sodipodi:nodetypes="csssc" />
    <path
       style="color:#000000;fill:none;stroke:#c87137;stroke-width:4;stroke-linecap:round;stroke-linejoin:round;stroke-miterlimit:4;stroke-opacity:1;stroke-dasharray:none;stroke-dashoffset:0;marker:none;visibility:visible;display:inline;overflow:visible;enable-background:accumulate"
       d="m 12.090989,247.09901 c 34.997794,-2.93088 46.093418,4.61231 78.188558,1.92111 9.968403,-0.83585 19.742293,-3.22327 29.508463,-1.63063 7.45723,1.21611 60.22405,12.36105 41.09189,-6.41242 -1.92315,-1.88708 -14.78859,-5.74641 -17.55809,-6.06279 -36.29219,-4.14575 -52.383693,-6.03818 -88.225854,-3.03277 -9.450702,0.79246 -19.877513,-2.26866 -29.153116,-0.31074 -2.861633,0.60397 -21.2004627,7.42051 -18.3655823,10.98658 1.5101014,1.89962 2.4804023,3.21707 4.5137233,4.54164 z"
       id="path3075"
       inkscape:connector-curvature="0"
       sodipodi:nodetypes="cssssscsc" />
    <path
       style="color:#000000;fill:none;stroke:#008000;stroke-width:4;stroke-linecap:butt;stroke-linejoin:miter;stroke-miterlimit:4;stroke-opacity:1;stroke-dasharray:none;stroke-dashoffset:0;marker:none;visibility:visible;display:inline;overflow:visible;enable-background:accumulate"
       d="m -7.0710678,256.36039 c 41.5746948,-10.18023 49.7098238,-3.27623 91.9238818,1.41422 17.296036,1.92178 55.486656,-3.34148 72.831996,-1.41422 14.68805,3.98903 46.87766,6.29275 57.27565,7.77818 17.53383,2.50483 28.23596,-3.48486 45.96194,-2.12133 18.69057,9.15855 46.90141,4.65891 60.10408,7.77818 10.94445,2.73611 33.49823,11.18939 43.13351,16.97056 19.54397,17.1849 35.03452,18.85388 66.46804,14.84925 7.02574,-1.40515 22.67274,-1.42329 29.69848,-2.82843 12.23408,-2.44682 22.72942,-3.53554 35.35534,-3.53554"
       id="path3036"
       inkscape:connector-curvature="0"
       sodipodi:nodetypes="cccsccccsc" />
    <path
       style="color:#000000;fill:none;stroke:#808080;stroke-width:4;stroke-linecap:butt;stroke-linejoin:miter;stroke-miterlimit:4;stroke-opacity:1;stroke-dasharray:none;stroke-dashoffset:0;marker:none;visibility:visible;display:inline;overflow:visible;enable-background:accumulate"
       d="m -29,136 c 5.296423,-10.73021 18.175643,-14.75607 27.6971104,-18.33766 2.22493036,-0.83693 5.2374092,-4.83542 7.4526286,-5.92065 6.802095,-3.33236 14.469734,-2.85183 21.404528,-7.65075 3.316561,-2.29507 8.502239,-0.37592 11.861845,-1.94483 18.612379,-8.691823 46.445915,-7.483976 68.770358,-9.239923 18.93602,-1.489426 40.42566,-5.888703 56.42352,-13.836219 C 170.71132,76.038908 180.47384,69.305231 187,68 c 45.93973,-9.187947 79.59752,-7.900413 127,0 6.35669,1.059448 13.7787,-0.382511 20,1 11.66413,2.59203 25.45652,6.728262 36,12 8.83061,4.415303 24.9518,21.11532 37,28 11.48239,6.56137 24.31086,8.82771 37,12 12.19694,3.04924 23.82471,7.95618 36,11 9.97403,2.49351 23.70018,0 34,0"
       id="path3051"
       inkscape:connector-curvature="0"
       sodipodi:nodetypes="csssssssssssssc" />
    <path
       style="color:#000000;fill:none;stroke:#ff0000;stroke-width:4;stroke-linecap:butt;stroke-linejoin:miter;stroke-miterlimit:4;stroke-opacity:1;stroke-dasharray:none;stroke-dashoffset:0;marker:none;visibility:visible;display:inline;overflow:visible;enable-background:accumulate"
       d="m 157.71037,232.4502 c 2.63693,2.73067 9.81746,10.77957 13.24789,10.83944 2.31257,-3.92406 23.48713,-11.72731 23.66416,-18.68175 9.17489,-12.56243 -15.74851,-35.02227 -24.81026,-37.20822 -22.17869,21.57975 -39.76716,16.40217 -12.10178,45.05052 z"
       id="path3067"
       inkscape:connector-curvature="0"
       sodipodi:nodetypes="scccs" />
    <path
       style="color:#000000;fill:none;stroke:#00ffff;stroke-width:4;stroke-linecap:butt;stroke-linejoin:miter;stroke-miterlimit:4;stroke-opacity:1;stroke-dasharray:none;stroke-dashoffset:0;marker:none;visibility:visible;display:inline;overflow:visible;enable-background:accumulate"
       d="m 246.98335,184.98576 c -18.04497,4.21984 -57.77215,46.24952 -49.71084,52.05221 4.43024,0.30931 22.10213,2.74839 24.94875,1.28028 1.22572,-0.77214 -0.8587,-4.2158 0.36729,-4.98792 11.54164,-7.27069 27.74399,-35.31253 28.65397,-47.63283 z"
       id="path3069"
       inkscape:connector-curvature="0"
       sodipodi:nodetypes="cccscc" />
    <path
       style="color:#000000;fill:none;stroke:#c87137;stroke-width:4;stroke-linecap:round;stroke-linejoin:round;stroke-miterlimit:4;stroke-opacity:1;stroke-dasharray:none;stroke-dashoffset:0;marker:none;visibility:visible;display:inline;overflow:visible;enable-background:accumulate"
       d="m 175.9936,244.56352 c -0.66877,10.45906 48.8778,13.78361 83.05844,12.58149 1.8241,-0.0642 28.74305,6.79738 46.13201,7.36952 14.76184,0.48569 20.63089,-5.02479 19.79123,-7.72575 -1.33684,-4.30019 -50.74038,-7.29175 -54.43927,-7.89717 -44.21474,-7.23693 -87.92078,-10.33741 -94.54241,-4.32809 z"
       id="path3073"
       inkscape:connector-curvature="0"
       sodipodi:nodetypes="cssssc" />
    <path
       style="fill:none;stroke:#80ff00;stroke-width:3.99999976;stroke-linecap:round;stroke-linejoin:round;stroke-miterlimit:4;stroke-opacity:1;stroke-dasharray:none"
       d="m 239.47436,160.3642 c -11.12279,4.99422 -17.7012,6.25773 -20.79968,8.70053 -0.40172,4.13298 6.49773,6.53047 9.34164,7.91963 7.74443,4.44655 7.41271,1.80436 15.91042,6.80816 11.18863,3.03937 16.12257,5.99816 23.15068,9.75904 10.76013,1.48883 14.42873,7.47306 16.53405,2.50158 0.25388,-5.67292 2.65459,-8.71452 1.65211,-21.6159 0.55313,-21.82171 3.08546,-26.03843 1.14288,-29.16717 -2.75298,-3.87517 -8.98908,2.04273 -14.18445,3.23157 -18.18921,4.79796 -17.5571,9.23654 -32.74765,11.86256 z"
       id="path2942"
       inkscape:connector-curvature="0"
       sodipodi:nodetypes="cccccccccc" />
    <path
       style="color:#000000;fill:none;stroke:#808080;stroke-width:4;stroke-linecap:round;stroke-linejoin:round;stroke-miterlimit:4;stroke-opacity:1;stroke-dasharray:none;stroke-dashoffset:0;marker:none;visibility:visible;display:inline;overflow:visible;enable-background:accumulate"
       d="m 16.44435,225.5999 c 24.663652,-0.38565 49.327303,-0.77129 73.990955,-1.15693 2.923635,-0.0457 23.927295,4.18713 20.513125,0.67937 -8.65137,-8.88853 -56.602129,-6.9487 -66.609125,-6.45941 -15.03566,0.73516 -32.043834,0.0818 -29.035541,-2.0463 15.574425,-11.01739 113.720816,4.37106 99.901786,-7.06275 -15.82857,-13.09651 -40.010301,-6.37525 -52.240102,-6.18402 -23.300861,0.36433 -43.341026,7.81358 -54.301597,4.34949"
       id="path6264"
       inkscape:connector-curvature="0"
       sodipodi:nodetypes="ssssssss" />
    <path
       inkscape:connector-curvature="0"
       style="fill:none;stroke:#80ff00;stroke-width:3.99999976;stroke-linecap:round;stroke-linejoin:round;stroke-miterlimit:4;stroke-opacity:1;stroke-dasharray:none"
       d="m 328.29959,254.65122 c 0.42533,-8.56833 1.6351,-17.24237 -1.95685,-25.7173 -3.15998,-10.56472 -5.57881,-21.36512 -10.28635,-31.77967 -1.74687,-6.82739 -3.17556,-23.92618 -9.42216,-11.75554 -8.35643,7.53187 -15.29821,15.57075 -20.0591,24.86193 -5.90847,9.24486 -13.37163,19.27687 -16.74166,28.48873 0.97525,3.03692 -3.16945,4.25576 -2.70645,7.22389"
       id="path2956-1" />
    <path
       inkscape:connector-curvature="0"
       style="fill:none;stroke:#80ff00;stroke-width:3.99999952;stroke-linecap:round;stroke-linejoin:round;stroke-miterlimit:4;stroke-opacity:1;stroke-dasharray:none"
       d="m 475.48281,292.76876 c -0.78667,-8.47801 -8.72121,-14.91497 -9.94528,-23.20227 -0.38276,-11.00436 -3.6334,-18.35279 -9.75026,-27.36866 -2.68717,-6.241 -7.00295,-25.19223 -11.4591,-11.7584 -2.7849,8.85928 -5.98453,12.3454 -8.48772,22.92845 -4.53423,10.49139 -8.85907,15.7249 -10.89051,25.55771 -3.3938,6.43843 -11.99031,17.66537 -11.11492,20.4516"
       id="path2956-7"
       sodipodi:nodetypes="ccccccc" />
    <path
       inkscape:connector-curvature="0"
       style="color:#000000;fill:none;stroke:#80ff00;stroke-width:4;stroke-linecap:round;stroke-linejoin:round;stroke-miterlimit:4;stroke-opacity:1;stroke-dasharray:none;stroke-dashoffset:0;marker:none;visibility:visible;display:inline;overflow:visible;enable-background:accumulate"
       d="m 471.15156,239.66494 c -0.21077,-11.20372 -5.38854,-12.32725 -13.25874,-14.09739 -5.09223,-1.14533 -16.1156,1.01962 -27.38295,-5.30279 -7.44279,-4.17635 -16.73239,-8.14919 -28.20635,-9.14358 -11.80339,-1.02295 -20.10687,-0.0648 -33.41131,-5.99023 -13.38794,-5.96262 -23.69431,-9.16507 -38.14955,-12.48585 -7.26887,-1.66991 -10.2053,-7.42169 -18.10039,-12.87045 -8.30725,-5.73321 -9.18325,-2.88502 -24.33806,-6.38181"
       id="path2833"
       sodipodi:nodetypes="csssssss" />
    <path
       inkscape:connector-curvature="0"
       style="fill:none;stroke:#80ff00;stroke-width:3.99999976;stroke-linecap:round;stroke-linejoin:round;stroke-miterlimit:4;stroke-opacity:1;stroke-dasharray:none"
       d="m 424.9741,258.28604 c -13.9102,-11.4628 -28.20103,-11.5705 -44.24,-15.96081 -13.15585,-6.88516 -22.77821,-10.4338 -34.99294,-9.06906 -15.49842,0.74403 -33.49566,-5.69333 -43.56106,12.47867 3.22148,21.6382 16.51739,10.54313 37.5802,19.5474 9.74676,6.10248 26.14374,12.42424 34.26703,16.74768 23.1421,5.49109 31.83738,7.14404 53.70028,2.91151 14.05526,-4.14307 27.41179,-12.21119 29.15443,-13.09059 14.92366,-8.75 14.94818,-14.4262 13.98278,-31.3364"
       id="path4123"
       sodipodi:nodetypes="ccccccccc" />
  </g>
  <g
     inkscape:groupmode="layer"
     id="layer2"
     inkscape:label="darkness"
     style="display:inline">
    <path
       style="color:#000000;fill:none;stroke:#000000;stroke-width:4;stroke-linecap:round;stroke-linejoin:round;stroke-miterlimit:4;stroke-opacity:1;stroke-dasharray:none;stroke-dashoffset:0;marker:none;visibility:visible;display:inline;overflow:visible;enable-background:accumulate"
       d="m 340.5,210 c 1.63725,17.21842 27.21701,4.35851 43.5,12.5 8.6175,4.30875 2.04077,10.5 21,11 6.74301,0.17783 20.5,-3.18152 20.5,5"
       id="path6350"
       inkscape:connector-curvature="0"
       sodipodi:nodetypes="cssc" />
    <path
       style="fill:none;stroke:#000000;stroke-width:4;stroke-linecap:round;stroke-linejoin:round;stroke-opacity:1;color:#000000;stroke-miterlimit:4;stroke-dasharray:none;stroke-dashoffset:0;marker:none;visibility:visible;display:inline;overflow:visible;enable-background:accumulate"
       d="m 337,247 c 9.90293,2.412 36.11775,-2.76451 41.5,8 1.57349,3.14698 -14.78745,3.21255 -6.5,11.5 4.95629,4.95629 33.10333,-0.5 38.5,-0.5"
       id="path6352"
       inkscape:connector-curvature="0" />
    <path
       style="color:#000000;fill:none;stroke:#000000;stroke-width:4;stroke-linecap:round;stroke-linejoin:round;stroke-miterlimit:4;stroke-opacity:1;stroke-dasharray:none;stroke-dashoffset:0;marker:none;visibility:visible;display:inline;overflow:visible;enable-background:accumulate"
       d="m 269,209 c -42.26248,-0.45016 17.65819,23.5 -29.5,23.5"
       id="path6354"
       inkscape:connector-curvature="0"
       sodipodi:nodetypes="cc" />
    <path
       id="path6376"
       style="fill:none;stroke:#000000;stroke-width:4;stroke-linecap:round;stroke-linejoin:round;stroke-miterlimit:4;stroke-opacity:1;stroke-dasharray:none"
       d="M 472,216 C 437.23758,195.09743 357.44366,201.48342 354.25044,184.99536 352.52267,176.07409 463.70251,193.81115 467,187 c 4.06801,-8.40271 -26.5823,-16.54115 -29.5,-18 -22.30917,-11.15458 -105.06491,4.71755 -132.5,-9 -6.33264,-3.16632 -5.4326,-18.49154 8,-17 38.00218,4.2197 88.12778,-5.54889 122,8 5.74581,2.29832 25.83982,10.66018 31.5,5 7.95314,-7.95314 -21.39785,-21.56275 -26,-22 -9.62114,-0.9141 -21.24859,-2.74859 -32,-6 -14.81181,-4.4793 -79.19544,0.0829 -89.75,-4.5 -5.96177,-2.58867 -51.78427,6.17313 -67.75,2.38909 C 204.44612,114.85534 131.31588,133.61722 71,125 63.134022,123.8762 19.168164,136.57097 11,127.53553 4.6541106,120.51586 26.822365,120.71284 31,119 c 10.97554,-4.5 23.743325,-4.91444 36,-9 11.265914,-3.7553 54.67185,-2.44975 69.46447,-2.44975 7.82018,0 16.27034,-5.50789 23,-3.5 25.02552,7.46671 63.01752,3.14302 96.65685,3.69975 C 280.79001,108.15827 378.34688,119.04063 369,91 c -2.91167,-8.735005 -91.40493,2.679366 -115.12868,0.499999 -23.89364,-2.194973 -43.0312,2.050257 -58.39644,-0.489591 -6.6431,-1.098092 -12.52235,2.592583 -18.64645,1.100505 C 171.16623,90.731371 173.97056,82.418678 181.14214,81 224.59859,72.403473 243.48451,75.552907 296.5,76.5"
       inkscape:connector-curvature="0"
       sodipodi:nodetypes="csssssssssssssssssssssssc" />
    <path
       id="path3132"
       style="fill:none;stroke:#000000;stroke-width:4;stroke-linecap:round;stroke-linejoin:round;stroke-miterlimit:4;stroke-opacity:1;stroke-dasharray:none"
       d="m 250,143 c -17.39068,-7.65129 -12.23833,-0.39793 -41.02114,-0.84402 -24.27341,-0.3762 -52.99451,-2.63623 -73.74842,-0.50433 C 68.890604,148.46626 56.435236,134.78238 42,142 36.933333,144.53333 27.016414,140.46667 21.949747,143 17.351882,141.07256 9.071799,148.1436 11.5,153 c 2.673766,5.34753 7.922923,5.5 13.5,5.5 18.833334,0 37.666667,0 56.500001,0 8.635843,0 17.923034,-0.953 26.499999,0 19.75194,2.19466 40.12945,-7.2498 60,-1.5 9.41421,2.72412 29.06169,-4.12526 35.5,2 8.94954,8.51438 8.0685,41.53425 -4,35.5 -5.37408,-2.68704 -12.30198,-14.70132 -19.5,-19.5 -9.41716,-6.27811 -48.88282,0.64403 -74.25,1.5 -37.401474,1.26205 -58.897323,-4.12646 -64.25,-2.63378 -9.467389,2.64012 -35.1435814,-2.11971 -31.5,12.37172 4.269749,16.98186 21.820724,4.23609 36.5,2.76206 27.34599,-2.74596 51.7111,4.21445 82.26918,1.93361 21.39241,-1.59671 7.10423,9.86217 -0.0635,13.80798 -4.17142,2.29633 -6.90325,13.9483 6.44002,19.51553"
       inkscape:connector-curvature="0"
       sodipodi:nodetypes="cssscssssssssssssssc" />
    <path
       style="color:#000000;fill:none;stroke:#000000;stroke-width:4;stroke-linecap:round;stroke-linejoin:round;stroke-miterlimit:4;stroke-opacity:1;stroke-dasharray:none;stroke-dashoffset:0;marker:none;visibility:visible;display:inline;overflow:visible;enable-background:accumulate"
       d="m 311.75,213.25313 c -30.26248,-2.95016 -3.84181,29.5 -30,24.5"
       id="path6354-7"
       inkscape:connector-curvature="0"
       sodipodi:nodetypes="cc" />
  </g>
</svg>
