<?xml version="1.0" encoding="UTF-8" standalone="no"?>
<!-- Created with Inkscape (http://www.inkscape.org/) -->

<svg
   xmlns:dc="http://purl.org/dc/elements/1.1/"
   xmlns:cc="http://creativecommons.org/ns#"
   xmlns:rdf="http://www.w3.org/1999/02/22-rdf-syntax-ns#"
   xmlns:svg="http://www.w3.org/2000/svg"
   xmlns="http://www.w3.org/2000/svg"
   xmlns:sodipodi="http://sodipodi.sourceforge.net/DTD/sodipodi-0.dtd"
   xmlns:inkscape="http://www.inkscape.org/namespaces/inkscape"
   width="480"
   height="320"
   id="svg2"
   version="1.1"
   inkscape:version="0.47 r22583"
   sodipodi:docname="itnas207.svg"
   inkscape:export-xdpi="90"
   inkscape:export-ydpi="90"
   inkscape:export-filename="itnas207.png">
  <defs
     id="defs4" />
  <sodipodi:namedview
     id="base"
     pagecolor="#ffffff"
     bordercolor="#666666"
     borderopacity="1.0"
     inkscape:pageopacity="1"
     inkscape:pageshadow="2"
     inkscape:zoom="1"
     inkscape:cx="295.40838"
     inkscape:cy="147.4525"
     inkscape:document-units="px"
     inkscape:current-layer="layer1"
     showgrid="false"
     inkscape:snap-nodes="true"
     inkscape:snap-global="false"
     inkscape:snap-grids="true"
     showguides="true"
     inkscape:window-width="1280"
     inkscape:window-height="774"
     inkscape:window-x="1276"
     inkscape:window-y="1020"
     inkscape:window-maximized="1">
    <inkscape:grid
       empspacing="5"
       visible="true"
       enabled="true"
       snapvisiblegridlinesonly="true"
       type="xygrid"
       id="grid2816" />
  </sodipodi:namedview>
  <metadata
     id="metadata7">
    <rdf:RDF>
      <cc:Work
         rdf:about="">
        <dc:format>image/svg+xml</dc:format>
        <dc:type
           rdf:resource="http://purl.org/dc/dcmitype/StillImage" />
        <dc:title></dc:title>
      </cc:Work>
    </rdf:RDF>
  </metadata>
  <g
     inkscape:label="Layer 1"
     inkscape:groupmode="layer"
     id="layer1"
     transform="translate(0,0)">
    <path
       style="fill:none;stroke:#80ff00;stroke-width:3.99999952;stroke-linecap:round;stroke-linejoin:round;stroke-miterlimit:4;stroke-opacity:1;stroke-dasharray:none"
       d="m 175.64479,219.03852 c 0.0624,1.49752 2.10856,-0.61088 2.10864,1.16136 1.48968,1.81032 3.94112,2.04256 5.4024,3.90336 1.21008,0.98152 2.8156,1.20432 4.00456,2.22536 1.28064,1.02136 2.79768,1.49728 4.29464,2.02624 1.27816,0.5264 2.38432,1.38056 3.60064,2.01928 0.62528,1.1152 1.59072,1.4056 2.28592,2.46784 0.84368,1.27712 2.53448,1.39648 3.17136,2.95248 -0.35016,0.6 -1.85192,0.59352 -2.65592,0.9552 -2.3344,0.64672 -4.66888,1.29496 -7.00328,1.9384 -1.40544,-0.0584 -2.94736,0.63544 -4.2172,-0.028 -1.12848,-0.22176 -2.34336,0.13016 -3.50336,0.15848 -1.30184,0.19432 -2.77888,0.27536 -4.12424,0.32256 -1.40584,0.21432 -2.7964,0.20192 -4.22096,0.74112 -1.11656,0.41984 -2.5224,0.92288 -2.25264,-1.0132 -0.0965,-1.40056 0.8424,-2.78344 0.73944,-4.19232 0.29312,-1.61688 0.14928,-3.1912 0.98416,-4.84296 0.128,-1.68088 0.64896,-3.49608 0.47328,-5.12 0.39088,-1.4756 0.43088,-3.0228 0.59352,-4.46328 -0.008,-0.35624 -0.13832,-1.03328 0.31904,-1.21168 z"
       id="path2942" />
    <path
       style="fill:none;stroke:#80ff00;stroke-width:3.99999952;stroke-linecap:round;stroke-linejoin:round;stroke-miterlimit:4;stroke-opacity:1;stroke-dasharray:none"
       d="m 173.71279,229.59948 c -5.01232,0.1568 -8.9704,-0.86424 -13.80792,-1.28448 -9.93136,0.0901 -17.77352,1.2036 -27.61584,0.25688 -6.15,0.84704 -14.15799,-0.67024 -19.77655,-0.40728 -5.15496,0.14848 -13.953919,-0.58464 -18.740239,0.70272"
       id="path2952-1" />
    <path
       style="fill:none;stroke:#80ff00;stroke-width:3.99999952;stroke-linecap:round;stroke-linejoin:round;stroke-miterlimit:4;stroke-opacity:1;stroke-dasharray:none"
       d="m 143.9291,256.2664 c 0.42863,-3.40468 0.55563,-6.90557 2.56018,-9.99394 1.9798,-3.9416 3.68405,-8.0276 6.26299,-11.80237 1.16314,-2.56778 2.91561,-9.20363 4.52934,-3.97496 2.76756,3.54825 4.94261,7.19778 6.17147,11.18885 1.68412,4.05267 3.92586,8.52358 4.61237,12.38663 -0.59545,1.12839 0.95235,1.89688 0.56345,3.03382"
       id="path2956"
       inkscape:transform-center-x="-0.3136713"
       inkscape:transform-center-y="12.8602" />
    <path
       style="fill:none;stroke:#80ff00;stroke-width:3.99999952;stroke-linecap:round;stroke-linejoin:round;stroke-miterlimit:4;stroke-opacity:1;stroke-dasharray:none"
       d="m 84.800395,256.68014 c 0.16928,-0.5924 1.07896,-3.7752 1.52976,-5.35232 2.652836,-4.83333 4.964856,-5.75063 7.206346,-10.95839 3.0655,-5.30147 5.75509,-9.80724 6.485199,-11.9296 1.28333,3.88106 2.46422,7.44765 4.34955,11.0277 3.55444,3.91273 6.07599,11.56092 9.42712,16.89716"
       id="path2958"
       sodipodi:nodetypes="cccccc" />
    <path
       style="fill:none;stroke:#008000;stroke-width:4;stroke-linecap:butt;stroke-linejoin:miter;stroke-miterlimit:4;stroke-opacity:1;stroke-dasharray:none"
       d="m 494.42756,262.8442 c -33.76683,-2.8178 -65.05105,1.44823 -97.79722,-0.14229 -28.53469,3.75405 -60.35243,4.18938 -85.94553,1.99565 -23.4988,-1.77932 -43.85602,-0.75707 -68.38155,3.25875 -24.41864,3.99832 -50.62263,-3.37203 -77.65236,-7.99695 -30.01789,-0.0127 -60.02346,0.32387 -89.987818,0.49084 -21.398303,0.40552 -43.496043,-4.05863 -64.43349,1.71642 -11.18230185,1.42864 -22.006616,6.88091 -33.479066,5.81275"
       id="path4190"
       sodipodi:nodetypes="cccscccc" />
    <path
       style="fill:none;stroke:#80ff00;stroke-width:3.99999952;stroke-linecap:round;stroke-linejoin:round;stroke-miterlimit:4;stroke-opacity:1;stroke-dasharray:none"
       d="m 57.882469,140.7016 c -0.833776,5.0135 -8.733204,6.85601 -11.114218,12.39911 -6.144901,5.28747 -4.813579,10.63369 -9.193717,16.61351 -0.660817,6.98231 -5.032352,13.90441 -4.139386,21.97348 1.228907,6.65974 4.345334,13.31128 8.375424,19.07902 2.095053,3.42406 4.029436,7.04312 7.271183,9.22568 6.461635,6.31065 7.379005,4.76704 20.182404,8.19903 6.764788,1.66763 15.595434,3.58087 22.368552,1.24322 -0.4148,-0.13896 1.38043,-0.74542 1.7651,-0.50335"
       id="path4123"
       sodipodi:nodetypes="ccccccccc" />
    <path
       style="fill:none;stroke:#80ff00;stroke-width:3.99999976;stroke-linecap:round;stroke-linejoin:round;stroke-miterlimit:4;stroke-opacity:1;stroke-dasharray:none"
       d="m 318.4063,224.41158 c -8.11363,0.73322 -11.41458,1.24782 -18.40502,2.05242 -6.85944,1.77084 -14.96484,-0.74787 -21.74319,0.77915 -16.39605,1.57469 -22.10921,0.15837 -37.68034,-1.07599 -6.35777,0.21793 -22.73596,2.24708 -29.87713,1.2007 -6.64032,0.45715 -13.46346,-1.80293 -18.47872,1.52492 -4.28886,2.84585 -3.2509,4.45681 -3.24958,11.45382 -2.22181,12.42349 -2.23126,15.76805 3.50773,19.92547"
       id="path4123-1"
       sodipodi:nodetypes="cccccscc" />
    <path
       style="fill:none;stroke:#80ff00;stroke-width:3.99999976;stroke-linecap:round;stroke-linejoin:round;stroke-miterlimit:4;stroke-opacity:1;stroke-dasharray:none"
       d="m 420.4538,215.80455 c -6.2654,6.696 -10.213,7.9197 -18.7599,7.8944 -11.6642,-0.8874 -22.2169,3.62582 -34.5198,2.44242 -7.6875,1.0588 -17.34395,-3.66623 -24.36715,-3.33753 -6.4437,0.1856 -17.79596,-0.0237 -23.77886,1.58551"
       id="path2952-1-4"
       sodipodi:nodetypes="ccccc" />
    <path
       style="color:#000000;fill:none;stroke:#80ff00;stroke-width:3.99999952;stroke-linecap:round;stroke-linejoin:round;stroke-miterlimit:4;stroke-opacity:1;stroke-dasharray:none;stroke-dashoffset:0;marker:none;visibility:visible;display:inline;overflow:visible;enable-background:accumulate"
       d="m 353.14921,261.97427 c -1.44026,-1.10446 -3.689,-1.35562 -4.8264,-2.77682 -2.8237,-3.52827 -3.33417,-4.94625 -6.57994,-7.75751 -3.51439,-3.04392 -5.70749,-5.69783 -8.04927,-8.99866 -2.43015,-3.42542 -5.11465,-6.41137 -6.99405,-9.93362 -1.20021,-2.24936 -1.95292,-5.50987 -4.27841,-6.5267 -1.06118,-0.464 -1.3223,1.70382 -1.7076,2.66092 -1.14226,2.83749 -1.85657,4.56808 -1.92377,7.70699 -0.0795,3.71297 0.97754,4.48133 1.24773,8.24097 0.2244,3.12266 -0.39481,4.70522 -0.38551,6.6539 0.0179,3.73541 1.38197,6.2087 1.33933,10.31469"
       id="path3681"
       sodipodi:nodetypes="cssssssssss" />
    <path
       style="color:#000000;fill:none;stroke:#80ff00;stroke-width:3.99999976;stroke-linecap:round;stroke-linejoin:round;stroke-miterlimit:4;stroke-opacity:1;stroke-dasharray:none;stroke-dashoffset:0;marker:none;visibility:visible;display:inline;overflow:visible;enable-background:accumulate"
       d="m 430.37647,226.87421 c 1.25943,0.32566 2.77374,-4.5359 4.12823,-6.41168 1.10074,-1.52446 2.45195,-2.88973 3.36917,-4.5054 1.01731,-1.79206 1.78177,-3.72881 2.8767,-5.4742 1.64355,-2.62009 3.55853,-5.09096 5.39186,-7.5998 0.89633,-1.22652 2.22769,-1.98177 2.69421,-3.40887 0.57883,-1.77276 3.11361,-3.96913 2.34783,-5.01219 -0.71189,-0.96963 -3.34978,0.69244 -5.02308,0.43472 -5.37806,-0.8282 -7.13507,1.14892 -10.4514,2.38868 -2.34098,0.87521 -4.08004,2.46553 -6.46043,3.10828 -2.61045,0.7048 -5.32944,0.54702 -7.94988,1.21741 -1.64888,0.42179 -3.0555,1.35809 -4.64258,1.87745 -2.37197,0.77625 0.2595,2.23018 0.96073,3.03677 1.29786,1.49288 2.29218,3.20873 3.50224,4.76696 1.0458,1.34675 1.43288,3.11875 2.62613,4.41792 1.29004,1.40451 2.64214,2.83886 3.55773,4.50596 0.87659,1.59608 1.66301,3.27657 2.33959,4.99678 0.33241,0.84521 0.0972,1.49679 0.73295,1.66121 z"
       id="path2870"
       sodipodi:nodetypes="csssssssssssssssss" />
    <path
       style="color:#000000;fill:none;stroke:#80ff00;stroke-width:3.99999952;stroke-linecap:round;stroke-linejoin:round;stroke-miterlimit:4;stroke-opacity:1;stroke-dasharray:none;stroke-dashoffset:0;marker:none;visibility:visible;display:inline;overflow:visible;enable-background:accumulate"
       d="m 424.76472,259 c -2.7443,-2.74298 -5.34743,-5.9677 -7.43026,-10.96779 -2.14452,-3.37913 -5.59639,-5.37256 -6.58069,-9.71373 -3.7221,-6.96721 -5.76287,-8.91441 -8.23905,-12.16163 -1.47947,6.96386 -0.93768,12.30553 -0.25172,17.2802 2.47353,9.57908 -0.0838,13.23676 2.25172,15.56295"
       id="path4085"
       sodipodi:nodetypes="cccccc" />
  </g>
</svg>
