<?xml version="1.0" encoding="UTF-8" standalone="no"?>
<!-- Created with Inkscape (http://www.inkscape.org/) -->

<svg
   xmlns:dc="http://purl.org/dc/elements/1.1/"
   xmlns:cc="http://creativecommons.org/ns#"
   xmlns:rdf="http://www.w3.org/1999/02/22-rdf-syntax-ns#"
   xmlns:svg="http://www.w3.org/2000/svg"
   xmlns="http://www.w3.org/2000/svg"
   xmlns:sodipodi="http://sodipodi.sourceforge.net/DTD/sodipodi-0.dtd"
   xmlns:inkscape="http://www.inkscape.org/namespaces/inkscape"
   width="480"
   height="320"
   id="svg2"
   version="1.1"
   inkscape:version="0.47 r22583"
   sodipodi:docname="itnas210.svg"
   inkscape:export-xdpi="90"
   inkscape:export-ydpi="90"
   inkscape:export-filename="itnas210.png">
  <defs
     id="defs4" />
  <sodipodi:namedview
     id="base"
     pagecolor="#ffffff"
     bordercolor="#666666"
     borderopacity="1.0"
     inkscape:pageopacity="1"
     inkscape:pageshadow="2"
     inkscape:zoom="1"
     inkscape:cx="305.62484"
     inkscape:cy="159.54152"
     inkscape:document-units="px"
     inkscape:current-layer="layer1"
     showgrid="false"
     inkscape:snap-nodes="true"
     inkscape:snap-global="false"
     inkscape:snap-grids="true"
     showguides="true"
     inkscape:window-width="1280"
     inkscape:window-height="774"
     inkscape:window-x="1276"
     inkscape:window-y="1020"
     inkscape:window-maximized="1"
     inkscape:object-nodes="true">
    <inkscape:grid
       empspacing="5"
       visible="true"
       enabled="true"
       snapvisiblegridlinesonly="true"
       type="xygrid"
       id="grid2816" />
  </sodipodi:namedview>
  <metadata
     id="metadata7">
    <rdf:RDF>
      <cc:Work
         rdf:about="">
        <dc:format>image/svg+xml</dc:format>
        <dc:type
           rdf:resource="http://purl.org/dc/dcmitype/StillImage" />
        <dc:title />
      </cc:Work>
    </rdf:RDF>
  </metadata>
  <g
     inkscape:label="Layer 1"
     inkscape:groupmode="layer"
     id="layer1"
     transform="translate(0,0)">
    <path
       style="color:#000000;fill:none;stroke:#c87137;stroke-width:3.99999928;stroke-linecap:round;stroke-linejoin:round;stroke-miterlimit:4;stroke-opacity:1;stroke-dasharray:none;stroke-dashoffset:0;marker:none;visibility:visible;display:inline;overflow:visible;enable-background:accumulate"
       d="m -290.58106,105.79285 c 1.77546,-9.516023 0.9872,-13.482383 0.119,-22.973843 -1.17612,-12.85576 0.5094,-20.57156 1.87552,-33.3405 2.71494,-25.37616 -0.2035,-38.18116 -0.47392,-57.51794 -0.1356,-9.70074 1.14302,-21.78864 0.9519,-31.63408 -0.26966,-13.8899 -3.04474,-19.9188 -2.45868,-33.8271 0.1946,-14.52908 1.46042,-15.88358 1.40924,-30.201337"
       id="path2832"
       sodipodi:nodetypes="csssscc" />
    <path
       style="color:#000000;fill:none;stroke:#c87137;stroke-width:3.99999976;stroke-linecap:round;stroke-linejoin:round;stroke-miterlimit:4;stroke-opacity:1;stroke-dasharray:none;stroke-dashoffset:0;marker:none;visibility:visible;display:inline;overflow:visible;enable-background:accumulate"
       d="m -363.17013,-97.889733 c 0.72897,7.38286 1.29942,14.7757 2.10573,22.22044 1.05076,9.7021 -2.78774,19.25654 -2.78774,29.0609 0,22.31714 4.73043,48.18234 0.68201,69.54284 -2.14882,11.33766 -1.5473,22.3867 0,32.5861 -0.40882,18.62116 3.09257,29.395 0.187,48.460703"
       id="path2850"
       sodipodi:nodetypes="cssscc" />
    <path
       style="color:#000000;fill:none;stroke:#c87137;stroke-width:3.99999976;stroke-linecap:round;stroke-linejoin:round;stroke-miterlimit:4;stroke-opacity:1;stroke-dasharray:none;stroke-dashoffset:0;marker:none;visibility:visible;display:inline;overflow:visible;enable-background:accumulate"
       d="m 290.29956,148.01474 c -12.15478,-2.30956 -26.43518,-10.87036 -34,-2 -14.92864,9.07882 -15.81982,17.24514 -16,24"
       id="path4395"
       sodipodi:nodetypes="ccc" />
    <path
       style="color:#000000;fill:none;stroke:#c87137;stroke-width:3.99999976;stroke-linecap:round;stroke-linejoin:round;stroke-miterlimit:4;stroke-opacity:1;stroke-dasharray:none;stroke-dashoffset:0;marker:none;visibility:visible;display:inline;overflow:visible;enable-background:accumulate"
       d="m 301.83428,176.9584 -25.17996,13.56352 c -8.06034,12.6937 -0.72644,16.25666 -12.35724,26.23544"
       id="path4397"
       sodipodi:nodetypes="ccc" />
    <path
       sodipodi:nodetypes="cssssc"
       id="path4261"
       d="m 572.83736,60.02226 c -6.44834,7.82614 -10.23766,9.85882 -18.5716,15.54192 -11.28812,7.69746 -16.33932,14.2408 -25.72444,23.92476 -18.65136,19.24518 -31.1541,25.50704 -47.05262,38.29042 -7.97586,6.41318 -16.871,15.56882 -25.00436,22.03458 -11.47448,9.1218 -23.97944,17.88592 -34.85216,27.7084"
       style="color:#000000;fill:none;stroke:#c87137;stroke-width:3.99999905;stroke-linecap:round;stroke-linejoin:round;stroke-miterlimit:4;stroke-opacity:1;stroke-dasharray:none;stroke-dashoffset:0;marker:none;visibility:visible;display:inline;overflow:visible;enable-background:accumulate" />
    <path
       sodipodi:nodetypes="cssscc"
       id="path4263"
       d="m 371.47992,138.26118 c 5.95556,-4.17294 11.81492,-8.47268 17.86696,-12.6264 7.88702,-5.41328 12.46992,-14.4466 19.74628,-20.72366 C 425.65608,90.62302 447.94292,77.65718 461.15062,60.9058 468.1609,52.01454 476.7541,45.39758 485.33464,40.0432 498.8874,27.81076 509.17106,23.57312 521.4224,9.15928"
       style="color:#000000;fill:none;stroke:#c87137;stroke-width:3.99999928;stroke-linecap:round;stroke-linejoin:round;stroke-miterlimit:4;stroke-opacity:1;stroke-dasharray:none;stroke-dashoffset:0;marker:none;visibility:visible;display:inline;overflow:visible;enable-background:accumulate" />
    <path
       style="color:#000000;fill:none;stroke:#c87137;stroke-width:3.99999976;stroke-linecap:round;stroke-linejoin:round;stroke-miterlimit:4;stroke-opacity:1;stroke-dasharray:none;stroke-dashoffset:0;marker:none;visibility:visible;display:inline;overflow:visible;enable-background:accumulate"
       d="m 195.8999,118.92659 c 2.37724,-21.723863 0.95388,-47.938403 3.84448,-75.343763 1.1572,-31.54076 -5.3703,-56.55424 -4.48522,-89.2229 0.96108,-22.85858 -1.08386,-38.13102 5.12598,-54.1946"
       id="path4281"
       sodipodi:nodetypes="cccc" />
    <path
       style="color:#000000;fill:none;stroke:#c87137;stroke-width:3.99999928;stroke-linecap:round;stroke-linejoin:round;stroke-miterlimit:4;stroke-opacity:1;stroke-dasharray:none;stroke-dashoffset:0;marker:none;visibility:visible;display:inline;overflow:visible;enable-background:accumulate"
       d="m 131.18436,-94.692473 c -4.59826,30.00404 1.17414,34.1652 1.28148,58.63892 -1.31992,18.99042 -3.47158,36.96321997 0,52.53068 -2.1358,37.2772 -1.70866,36.19132 -3.84446,50.08742 -1.66538,16.99986 1.04754,29.06256 2.56298,38.481783"
       id="path4277"
       sodipodi:nodetypes="ccccc" />
    <path
       sodipodi:nodetypes="cccc"
       id="path4306"
       d="m -95.72322,-97.265733 c -2.37724,19.8414 -0.95386,43.78438 -3.84448,68.81496 -1.1572,28.80759997 5.3703,51.65356 4.48522,81.49136 -0.96108,20.87778 1.08386,34.82684 -5.12596,49.498483"
       style="color:#000000;fill:none;stroke:#c87137;stroke-width:3.99999928;stroke-linecap:round;stroke-linejoin:round;stroke-miterlimit:4;stroke-opacity:1;stroke-dasharray:none;stroke-dashoffset:0;marker:none;visibility:visible;display:inline;overflow:visible;enable-background:accumulate" />
    <path
       sodipodi:nodetypes="ccccc"
       id="path4308"
       d="m -30.95232,99.908347 c 4.31608,-30.12898 -1.10208,-34.30746 -1.20286,-58.88308 1.23894,-19.0695 3.25856,-37.11712 0,-52.74944 2.00478,-37.43236 1.60382,-36.34198 3.60858,-50.29592 1.56318,-17.0707 -0.98326,-29.18358 -2.40572,-38.642017"
       style="color:#000000;fill:none;stroke:#c87137;stroke-width:3.99999928;stroke-linecap:round;stroke-linejoin:round;stroke-miterlimit:4;stroke-opacity:1;stroke-dasharray:none;stroke-dashoffset:0;marker:none;visibility:visible;display:inline;overflow:visible;enable-background:accumulate" />
    <path
       style="color:#000000;fill:none;stroke:#94f3f3;stroke-width:4;stroke-linecap:round;stroke-linejoin:round;stroke-miterlimit:4;stroke-opacity:1;stroke-dasharray:none;stroke-dashoffset:0;marker:none;visibility:visible;display:inline;overflow:visible;enable-background:accumulate"
       d="m -314.46166,-596.13731 c -18.27173,19.8708 -36.54345,84.73741 -54.81518,135.88452 -21.08111,37.03718 -24.2956,92.07562 -53.29254,146.57208 -7.35086,35.33344 -20.74226,89.225 -46.83798,138.78208 -9.26278,23.16672 -17.5986,26.92776 -32.3395,68.86166 49.70446,9.293197 87.23158,-0.7315 127.90209,7.633977 l 89.83599,-7.633957 120.28884,6.107157 c -11.16606,-16.799557 -22.33212,-40.984657 -33.49816,-96.187917 -35.71884,-93.90668 -20.28902,-74.45632 -25.88494,-103.82188 -11.77242,-32.74484 -14.13652,-71.03674 -25.66958,-108.40225 -12.18116,-21.48166 -35.23616,-83.34861 -47.41732,-131.30417 -2.54492,-14.82598 -5.09726,-37.33804 -18.27172,-56.4913 z"
       id="path4156"
       sodipodi:nodetypes="ccccccccccccc" />
    <path
       sodipodi:nodetypes="cccccscccccccc"
       id="path4265"
       d="m 102.70886,-103.06381 c -0.40596,-35.1692 -32.67052,-105.8277 -48.09506,-154.0583 -7.24432,-46.46958 -32.0662,-74.18174 -43.73646,-139.5839 -13.2914,-25.56609 -32.47402,-67.76574 -43.22304,-126.83845 -6.4931,-23.29691 -4.13118,-37.12637 -16.89714,-76.31699 -12.9404,30.55402 -23.45252,60.52716 -35.9001,86.49264 -28.26132,58.95253 -18.11428,66.95822 -31.71672,98.41553 -23.0669,41.10381 -25.87782,67.84329 -31.00018,92.91477 -15.37796,33.39684 -27.36126,70.8018 -37.61324,110.62112 -4.12516,18.90286 -22.9442,54.78038 -35.71582,106.11668 13.65006,9.862057 30.84662,-1.59704 62.93778,5.03556 42.8175,3.413997 84.92174,0.517937 127.68556,-1.31908 20.25042,-1.2359 57.64142,0.97132 86.75986,3.084217 8.3918,2.44886 28.16706,0.3898 46.51456,-4.563797 z"
       style="color:#000000;fill:none;stroke:#94f3f3;stroke-width:3.99999928;stroke-linecap:round;stroke-linejoin:round;stroke-miterlimit:4;stroke-opacity:1;stroke-dasharray:none;stroke-dashoffset:0;marker:none;visibility:visible;display:inline;overflow:visible;enable-background:accumulate" />
    <path
       style="color:#000000;fill:none;stroke:#94f3f3;stroke-width:4;stroke-linecap:round;stroke-linejoin:round;stroke-miterlimit:4;stroke-opacity:1;stroke-dasharray:none;stroke-dashoffset:0;marker:none;visibility:visible;display:inline;overflow:visible;enable-background:accumulate"
       d="m 192.42238,-597.65209 c -0.43712,0.49108 -0.92446,0.98404 -1.36158,1.52534 -12.46486,29.69306 -23.82588,47.97284 -30.99618,75.06261 -7.62686,28.8146 -21.33744,43.4552 -29.79478,70.40632 -8.78112,23.20028 -12.89658,47.63267 -18.5817,63.98385 -19.63118,45.11214 -25.00228,65.76924 -37.16338,113.6777 -3.83016,25.22136 -11.8272,44.31138 -18.66178,62.85992 -4.07696,18.68208 -22.48186,53.98564 -35.24112,104.36514 42.4047,5.08712 76.33666,-2.11546 112.77162,5.3788 36.0764,-0.68814 75.39614,1.874697 105.24284,-5.05768 34.97416,-0.7231 69.94832,0.83928 104.92246,3.53236 -11.16604,-16.79958 -15.90554,-39.68872 -27.07158,-94.89198 -32.30304,-84.92638 -29.21558,-78.56806 -31.23646,-98.02294 -10.49722,-27.961 -24.97678,-55.18778 -33.07862,-100.59194 -13.29142,-25.56608 -26.01388,-60.06409 -36.76292,-119.13681 -6.43748,-23.09745 -10.58516,-44.66349 -22.98682,-83.09069 z"
       id="path4267"
       sodipodi:nodetypes="ccsccccccccccccc" />
    <path
       style="color:#000000;fill:none;stroke:#94f3f3;stroke-width:4;stroke-linecap:round;stroke-linejoin:round;stroke-miterlimit:4;stroke-opacity:1;stroke-dasharray:none;stroke-dashoffset:0;marker:none;visibility:visible;display:inline;overflow:visible;enable-background:accumulate"
       d="m 931.63982,-287.3996 c -0.85468,0.2732 -1.70914,0.55592 -2.56084,0.8313 -20.73964,0.61922 -58.05668,15.62958 -95.9071,31.0096 -37.45828,12.80602 -74.30678,26.67914 -110.23182,43.473 -25.4479,9.05182 -48.87356,21.1909 -75.25372,27.50216 -42.7914,23.6918 -87.29578,34.10006 -135.50046,54.88374 -23.55772,8.06404 -31.8204,4.2422 -73.1386,20.37782 11.0591,24.32698 27.38478,43.65524 43.80254,64.81658 25.39666,34.75558 55.1191,64.81376 84.44858,96.10576 14.16524,14.57944 36.88072,44.442 54.30972,67.94178 3.63268,7.9719 18.13158,21.66084 33.8627,32.37112 26.30978,-23.23366 40.59006,-71.52208 66.95654,-114.6801 20.77234,-33.74494 30.3546,-44.82342 45.19244,-61.35074 17.0512,-30.2889 44.44964,-57.0006 65.14874,-90.11962 16.25308,-54.3299 40.45894,-82.35066 68.20328,-121.58544 9.54022,-11.5979 24.91018,-28.22092 30.77504,-50.71526 -0.1976,-0.006 -0.4245,0.014 -0.6256,0.01 0.1806,-0.29762 0.33658,-0.5697 0.51862,-0.87138 z"
       id="path4271"
       sodipodi:nodetypes="ccccccccccccccccsc" />
    <path
       style="color:#000000;fill:none;stroke:#c87137;stroke-width:3.99999976;stroke-linecap:round;stroke-linejoin:round;stroke-miterlimit:4;stroke-opacity:1;stroke-dasharray:none;stroke-dashoffset:0;marker:none;visibility:visible;display:inline;overflow:visible;enable-background:accumulate"
       d="m 355.45894,228.10052 c -1.00434,7 -1.81016,14 -8,21 -10.66666,7.6033 -21.33334,11.89818 -32,17"
       id="path4399"
       sodipodi:nodetypes="ccc" />
    <path
       sodipodi:nodetypes="ccc"
       id="path4461"
       d="m 408.6523,233.71744 c -4.7267,6.98802 -1.67442,17.85256 -4.97648,28.3999 -3.34456,9.76534 -10.46192,18.5777 -23.48966,26.36626"
       style="color:#000000;fill:none;stroke:#c87137;stroke-width:3.99999976;stroke-linecap:round;stroke-linejoin:round;stroke-miterlimit:4;stroke-opacity:1;stroke-dasharray:none;stroke-dashoffset:0;marker:none;visibility:visible;display:inline;overflow:visible;enable-background:accumulate" />
    <path
       id="path2949"
       style="color:#000000;fill:none;stroke:#008000;stroke-width:4;stroke-linecap:round;stroke-linejoin:round;stroke-miterlimit:4;stroke-opacity:1;stroke-dasharray:none;stroke-dashoffset:0;marker:none;visibility:visible;display:inline;overflow:visible;enable-background:accumulate"
       d="m 179.52082,224.15332 c 13.53508,2.03623 25.12511,0.37579 36.0222,8.17046 22.20035,23.32019 24.79558,24.75436 46.78954,41.1346 27.61272,23.36358 26.7551,25.34754 61.50084,21.81288 14.47422,-1.3779 55.4253,19.35452 100.04942,13.98002 39.5,-2.25 53.12866,-32.30218 41.6005,-55.62132 -19.33334,-26 -69.64258,-15.736 -111.18376,-27.61522 -19.93724,-12.4897 -44.18366,-32.08644 -50,-50 -6.62876,-10.32658 -10.59108,-24.3196 -19.7575,-42.10852 -4.58224,-24.0502 -13.7329,-43.20994 9.29924,-43.91252 15.41114,9.68148 55.9724,-4.07256 67.2693,21.30038 10.16548,43.14322 24.12238,61.22134 59.58934,78.38704 54.24562,4.18312 80.72284,15.41008 105.50644,11.40476 21.59102,3.88624 46.00416,11.97744 70.8479,10.90324"
       sodipodi:nodetypes="cccccccccccccc" />
    <path
       style="fill:none;stroke:#80ff00;stroke-width:3.99999976;stroke-linecap:round;stroke-linejoin:round;stroke-miterlimit:4;stroke-opacity:1;stroke-dasharray:none"
       d="m 177.77787,74.38424 c -1.43597,3.460968 5.42418,0.835648 3.55756,4.85418 1.47068,5.673602 6.78414,8.78232 8.13723,14.54046 1.70974,3.499968 5.11518,5.696239 6.73541,9.26357 1.82774,3.66463 4.766,6.3416 7.60283,9.11766 2.34349,2.5398 3.95173,5.64155 6.03669,8.37088 0.24301,3.18705 2.12602,4.86242 2.58336,8.00306 0.5676,3.78425 4.27544,5.83582 4.08044,10.03452 -1.42591,0.99153 -4.82397,-0.605 -7.02782,-0.63184 -5.97394,-0.99255 -11.94962,-1.98188 -17.9201,-2.98184 -3.12499,-1.61279 -7.35178,-1.66378 -9.53205,-4.50551 -2.32498,-1.69146 -5.4501,-2.17328 -8.10998,-3.33086 -3.15633,-0.93067 -6.59052,-2.3027 -9.69055,-3.6128 -3.41314,-0.99489 -6.55288,-2.4877 -10.35069,-2.7657 -2.97376,-0.22419 -6.69104,-0.5645 -4.04011,-4.66996 1.25654,-3.27707 4.84178,-5.42348 6.09237,-8.72627 2.36766,-3.35714 3.6998,-7.07804 7.33254,-9.943649 2.0607,-3.676182 5.15384,-7.243013 6.46605,-11.109918 2.44052,-2.933874 4.16088,-6.399649 6.04691,-9.494293 0.35646,-0.816389 0.77478,-2.488423 1.99967,-2.411141 z"
       id="path2942" />
    <path
       style="color:#000000;fill:none;stroke:#80ff00;stroke-width:3.99999976;stroke-linecap:round;stroke-linejoin:round;stroke-miterlimit:4;stroke-opacity:1;stroke-dasharray:none;stroke-dashoffset:0;marker:none;visibility:visible;display:inline;overflow:visible;enable-background:accumulate"
       d="m -36.534762,76.094821 c -35.499887,-4.010901 -48.101831,0.255147 -84.313818,-12.524144 -18.80809,-6.637573 -27.90917,-10.816755 -51.15885,-20.323021 -26.89383,-10.996318 -32.79468,-17.709966 -60.69249,-13.050726 -22.4627,3.751613 -32.77939,13.721935 -49.76339,20.6958 -15.04716,6.17854 -33.37725,6.797322 -58.0044,10.868278 -17.822,2.946113 -34.71093,32.090866 -30.07093,44.002792"
       id="path4125-8"
       sodipodi:nodetypes="cssssss" />
    <path
       style="fill:none;stroke:#80ff00;stroke-width:3.99999952;stroke-linecap:round;stroke-linejoin:round;stroke-miterlimit:4;stroke-opacity:1;stroke-dasharray:none"
       d="m 183.39585,245.35936 c -5.54011,-6.1946 -4.3567,-10.82457 -8.11881,-17.26748 -4.60282,-8.535 -2.88278,-9.84906 -8.11676,-20.24213 -2.38368,-7.07926 -2.29971,-11.12021 -5.72618,-16.01133 -1.90334,-12.98204 -7.16609,9.26937 -11.25479,17.50311 -5.01216,7.93758 -5.42553,10.64731 -8.45697,18.32981 -2.48065,4.80426 -6.83093,14.65585 -6.02654,16.99169"
       id="path2956-7"
       sodipodi:nodetypes="ccccccc" />
    <path
       style="fill:none;stroke:#80ff00;stroke-width:3.99999952;stroke-linecap:round;stroke-linejoin:round;stroke-miterlimit:4;stroke-opacity:1;stroke-dasharray:none"
       d="m 90.213218,244.24224 c -5.363271,-7.33578 -5.985186,-15.26721 -7.905284,-21.79861 -4.199053,-7.68442 -4.075749,-8.15192 -7.303184,-16.41931 -4.401939,-10.39469 -8.945676,-13.57673 -13.910916,-21.91294 -2.510678,7.6156 -5.284495,16.10918 -10.643253,22.05381 -8.027902,10.38145 -4.570598,10.35711 -11.281054,20.06224 -0.425205,3.61545 -2.381978,7.74492 -3.819367,15.35459"
       id="path2958-6"
       sodipodi:nodetypes="ccccccc" />
    <path
       style="color:#000000;fill:none;stroke:#80ff00;stroke-width:4;stroke-linecap:round;stroke-linejoin:round;stroke-miterlimit:4;stroke-opacity:1;stroke-dasharray:none;stroke-dashoffset:0;marker:none;visibility:visible;display:inline;overflow:visible;enable-background:accumulate"
       d="m 194.1123,191.55366 c -5.40731,-1.88879 -9.92431,-4.20683 -15.79028,-4.56415 -6.08786,-0.37011 -12.17767,1.44871 -18.25105,0.4483 -6.4167,-1.05696 -14.65524,-4.57731 -22.18217,-5.2457 -9.43624,-0.83794 -19.08127,-1.07253 -28.57345,-2.50928 -11.573965,-1.75185 -22.234556,2.89031 -34.584465,2.49456 -6.031887,-0.19329 -11.086083,0.27512 -18.944137,0.53583 -5.62729,0.1867 -9.442162,2.06351 -17.37951,-1.69263"
       id="path2833"
       sodipodi:nodetypes="csssssss" />
    <path
       style="color:#000000;fill:none;stroke:#80ff00;stroke-width:4;stroke-linecap:round;stroke-linejoin:round;stroke-miterlimit:4;stroke-opacity:1;stroke-dasharray:none;stroke-dashoffset:0;marker:none;visibility:visible;display:inline;overflow:visible;enable-background:accumulate"
       d="m -224.3088,230.07163 c 13.99383,-10.94402 39.04654,-3.42164 87.9999,-14.68876 17.84142,-4.10639 34.76632,-26.43611 54.932926,-29.13633 26.137487,-3.49969 41.829397,-9.48174 58.972366,-5.08954 16.0743471,4.11841 18.4744737,2.85447 32.744595,-1.73049 5.682234,-1.82568 17.473639,-1.49786 28.066221,1.61829"
       id="path4125"
       sodipodi:nodetypes="csssss" />
    <path
       style="color:#000000;fill:none;stroke:#80ff00;stroke-width:3.99999976;stroke-linecap:round;stroke-linejoin:round;stroke-miterlimit:4;stroke-opacity:1;stroke-dasharray:none;stroke-dashoffset:0;marker:none;visibility:visible;display:inline;overflow:visible;enable-background:accumulate"
       d="m 194.05902,217.89038 c 3.7465,-0.32589 7.18168,1.00942 10.86199,1.52123 4.08209,0.56759 8.18639,1.04613 12.29907,1.30471 5.053,0.31771 9.43081,0.84733 15.8571,4.41007 2.65725,1.47317 6.13279,1.85612 9.0326,1.07636 3.60178,-0.96852 11.92652,2.85644 13.29979,0.66288 1.2766,-2.03919 -2.32203,-6.43716 -4.51707,-9.01541 -6.27817,-7.3742 -8.78996,-8.86879 -13.90606,-14.81972 -3.25858,-3.79031 -5.14431,-7.56359 -8.09669,-11.51339 -3.23758,-4.33159 -6.36144,-9.12952 -9.54244,-13.50509 -2.00151,-2.75332 -4.78048,-4.67642 -6.91771,-7.24282 -3.19431,-3.83558 -3.95358,2.12915 -4.93502,4.0281 -1.81647,3.51468 -4.27149,6.6298 -6.27425,10.02955 -1.73096,2.93826 -4.73876,4.96619 -6.2724,8.14341 -1.658,3.4349 -3.32561,7.00719 -5.74816,9.93999 -2.31935,2.80787 -4.86218,5.51048 -7.55993,8.03826 -1.32553,1.24195 -3.63238,1.85017 -2.54646,2.58896 6.01064,2.43456 8.83918,2.44192 14.96564,4.35291 z"
       id="path2870"
       sodipodi:nodetypes="cssssssssssssssscc" />
    <path
       style="fill:none;stroke:#80ff00;stroke-width:3.99999976;stroke-linecap:round;stroke-linejoin:round;stroke-miterlimit:4;stroke-opacity:1;stroke-dasharray:none"
       d="m -69.453863,138.33455 c 0.779845,-1.32826 4.970231,-8.46455 7.046715,-12.00064 6.6672,-11.06233 15.482271,-12.67432 26.595621,-25.07446 5.109712,-7.789275 19.672921,-21.100237 23.151201,-24.826486 0.968019,10.11016 2.332435,19.947941 4.4066472,29.641586 8.65045452,14.20016 8.67827964,41.8618 14.2838263,46.07959"
       id="path2958-1"
       sodipodi:nodetypes="cccccc" />
    <path
       style="color:#000000;fill:none;stroke:#80ff00;stroke-width:4;stroke-linecap:round;stroke-linejoin:round;stroke-miterlimit:4;stroke-opacity:1;stroke-dasharray:none;stroke-dashoffset:0;marker:none;visibility:visible;display:inline;overflow:visible;enable-background:accumulate"
       d="m 160.13927,98.001165 c -6.36874,-2.772718 -11.53665,-6.004677 -18.79351,-6.919805 -7.5315,-0.948894 -15.15153,-0.823071 -22.89938,-0.917445 -8.53383,-0.104056 -19.579976,-1.414655 -29.056946,-1.803346 -11.837677,-0.4855 -22.817009,1.159211 -34.810183,0.362653 -14.623495,-0.971027 -29.13105,-5.191607 -43.675039,-8.099098 -7.3135286,-1.462 -14.3643345,-3.592767 -21.85143,-4.428606 -5.775447,-0.644325 -18.541536,-1.15666 -23.019001,0.432176"
       id="path2833-4"
       sodipodi:nodetypes="csssssss" />
    <path
       style="fill:none;stroke:#80ff00;stroke-width:3.99999928;stroke-linecap:round;stroke-linejoin:round;stroke-miterlimit:4;stroke-opacity:1;stroke-dasharray:none"
       d="m 105.12823,164.32883 c 0.17395,-1.47463 2.70451,-9.36038 3.16776,-13.28641 3.66795,-11.26135 2.12008,-14.74547 4.96097,-31.51206 3.7922,-12.24696 7.75623,-19.08098 11.61507,-28.756453 2.5376,9.678633 7.63432,16.327963 9.1874,27.398283 5.24783,12.98928 4.80105,15.46254 9.5303,32.00539 2.91532,4.0186 3.56222,8.27608 8.18201,13.75292"
       id="path2958-6-2"
       sodipodi:nodetypes="ccccccc"
       inkscape:transform-center-x="-3.780896"
       inkscape:transform-center-y="34.747497" />
    <path
       style="color:#000000;fill:none;stroke:#ff0000;stroke-width:4;stroke-linecap:round;stroke-linejoin:round;stroke-miterlimit:4;stroke-opacity:1;stroke-dasharray:none;stroke-dashoffset:0;marker:none;visibility:visible;display:inline;overflow:visible;enable-background:accumulate"
       d="m 272.36368,223.48245 c 1.20716,2.59289 4.03908,4.50669 6.04114,9.09736 2.23633,2.28112 8.33205,10.53873 8.71316,11.90362 0.41287,1.47836 -15.02451,-2.34379 -18.52434,1.70752 -1.708,1.97714 7.62488,2.94235 10.10566,3.41258 4.95402,2.37917 7.41613,2.38588 11.20399,3.72428 1.65189,-2.92184 2.72987,-4.52038 3.63715,-7.73693 1.48428,-4.17775 4.08951,-4.52627 5.89474,-6.10634 2.89181,-4.16849 4.24886,-4.52257 6.24784,-6.47207 -4.45892,-1.14458 -8.80253,-2.16198 -13.59407,-3.88817 -1.69378,0.0636 -4.33357,-0.49249 -9.53666,-2.72771 -1.63126,-0.65223 -6.63018,-2.01072 -10.18861,-2.91414 z"
       id="path5756"
       sodipodi:nodetypes="ccsscccccccc"
       inkscape:transform-center-x="7.5098304"
       inkscape:transform-center-y="-5.5022197" />
    <path
       style="color:#000000;fill:none;stroke:#ff0000;stroke-width:4;stroke-linecap:round;stroke-linejoin:round;stroke-miterlimit:4;stroke-opacity:1;stroke-dasharray:none;stroke-dashoffset:0;marker:none;visibility:visible;display:inline;overflow:visible;enable-background:accumulate"
       d="m 295.02138,244.77373 c 3.10756,2.87576 5.60455,3.80335 8.48257,4.84362 7.41605,0.89919 20.91613,0.89193 28.60949,2.78887 18.84089,1.79612 27.40688,4.6102 42.88886,6.87985 11.09782,4.70473 12.96001,2.7704 23.80223,-1.5965 9.67516,-3.75881 9.08507,-1.30188 18.04687,-11.37481"
       id="path5758"
       sodipodi:nodetypes="cccccc" />
    <path
       style="color:#000000;fill:none;stroke:#ff0000;stroke-width:4;stroke-linecap:round;stroke-linejoin:round;stroke-miterlimit:4;stroke-opacity:1;stroke-dasharray:none;stroke-dashoffset:0;marker:none;visibility:visible;display:inline;overflow:visible;enable-background:accumulate"
       d="m 278.96536,281.84125 c 3.39741,-3.02614 7.38015,-9.62394 11.91055,-13.068 5.19522,-3.94947 8.50571,-11.51911 12.6017,-18.44087 -0.12668,9.0714 -0.38687,13.3821 -2.07805,26.46519 0.52743,9.48319 -0.64493,10.91676 -1.29024,15.64967"
       id="path5760"
       sodipodi:nodetypes="csccc" />
    <path
       style="color:#000000;fill:none;stroke:#ff0000;stroke-width:4;stroke-linecap:round;stroke-linejoin:round;stroke-miterlimit:4;stroke-opacity:1;stroke-dasharray:none;stroke-dashoffset:0;marker:none;visibility:visible;display:inline;overflow:visible;enable-background:accumulate"
       d="m 343.05969,294.52802 c 6.57189,-11.71522 5.66396,-10.89421 7.30939,-13.82232 3.83936,-10.55678 9.16976,-13.07384 14.79557,-22.77401 0.95242,9.03986 1.07996,17.6334 0.4934,26.3533 -1.41494,9.61925 -0.099,12.89541 -0.11058,16.1293"
       id="path5762"
       sodipodi:nodetypes="ccccc" />
    <path
       sodipodi:nodetypes="cccccccccc"
       id="path5785"
       d="m 375.91109,271.38913 c 1.32932,1.33673 2.884,1.43521 4.73727,4.62533 1.0484,2.02159 3.00487,3.38753 4.82765,4.71363 2.5042,2.52151 3.96548,3.88652 5.80405,5.66692 0.89846,-2.0353 2.24495,-3.93786 2.64067,-6.12212 0.71314,-2.85587 1.48008,-3.76474 2.22835,-5.1662 0.82679,-3.26516 1.57864,-3.79928 2.36184,-5.47566 -2.9947,0.31676 -5.88976,0.68614 -9.22058,0.71729 -1.02436,0.43086 -2.7697,0.69409 -6.46853,0.50323 -1.14861,-0.0296 -4.52309,0.27861 -6.91071,0.5376 z"
       style="color:#000000;fill:none;stroke:#ff0000;stroke-width:4;stroke-linecap:round;stroke-linejoin:round;stroke-miterlimit:4;stroke-opacity:1;stroke-dasharray:none;stroke-dashoffset:0;marker:none;visibility:visible;display:inline;overflow:visible;enable-background:accumulate" />
    <path
       style="fill:none;stroke:#000000;stroke-width:4;stroke-linecap:round;stroke-linejoin:round;stroke-opacity:1;stroke-miterlimit:4;stroke-dasharray:none"
       d="m 463.53194,277.77605 c -2.32274,9.17197 -11.41205,18.0589 -18.071,21.4104 -6.56304,1.91976 -9.22081,0.3088 -15.56479,0.54816 -6.19087,-2.32826 -4.99473,-14.34875 -4.66273,-19.76603 0.72809,-7.27704 4.84692,-8.47932 8.7954,-14.04342 3.52994,-4.71766 8.9961,-10.50069 14.88882,-6.28747 3.52017,6.68091 14.96143,8.73952 14.6143,18.13836 z"
       id="path5861"
       sodipodi:nodetypes="ccccccc" />
    <path
       sodipodi:nodetypes="cccccc"
       id="path5787"
       d="m 397.44047,279.05306 c 1.927,0.87661 3.48365,0.16516 4.7876,0.96583 3.54024,1.19092 8.00983,4.22163 13.04013,6.29422 8.7228,4.35256 11.43096,5.10108 19.2247,5.78555 7.1001,2.18917 7.81178,8.32073 14.06307,5.39653 4.74777,-3.72812 -0.25041,-10.23263 -7.67831,-14.87393"
       style="color:#000000;fill:none;stroke:#ff0000;stroke-width:4;stroke-linecap:round;stroke-linejoin:round;stroke-miterlimit:4;stroke-opacity:1;stroke-dasharray:none;stroke-dashoffset:0;marker:none;visibility:visible;display:inline;overflow:visible;enable-background:accumulate" />
    <path
       sodipodi:nodetypes="ccccc"
       id="path5789"
       d="m 389.62157,300.69241 c 2.61672,-2.68189 3.71779,-10.80633 5.90755,-11.44396 2.94238,-1.56028 2.57577,-10.22481 6.96268,-9.3674 1.41241,4.69088 1.25674,7.20164 0.23548,10.77351 -0.7714,3.30767 -0.90782,8.2212 -1.94525,11.59465"
       style="color:#000000;fill:none;stroke:#ff0000;stroke-width:4;stroke-linecap:round;stroke-linejoin:round;stroke-miterlimit:4;stroke-opacity:1;stroke-dasharray:none;stroke-dashoffset:0;marker:none;visibility:visible;display:inline;overflow:visible;enable-background:accumulate"
       inkscape:transform-center-x="6.601584"
       inkscape:transform-center-y="8.2250352" />
    <path
       sodipodi:nodetypes="ccccc"
       id="path5791"
       d="m 412.52575,301.16258 c 3.35836,-0.34086 6.99916,-0.14792 12.75014,-1.72489 4.06687,-0.48847 1.76801,-2.03567 6.18103,-6.33946 6.01267,11.30861 0.5074,11.29506 -3.98245,11.33673 -3.96733,0.62096 -8.03965,1.15442 -11.20229,1.26951"
       style="color:#000000;fill:none;stroke:#ff0000;stroke-width:4;stroke-linecap:round;stroke-linejoin:round;stroke-miterlimit:4;stroke-opacity:1;stroke-dasharray:none;stroke-dashoffset:0;marker:none;visibility:visible;display:inline;overflow:visible;enable-background:accumulate" />
  </g>
</svg>
