<?xml version="1.0" encoding="UTF-8" standalone="no"?>
<!-- Created with Inkscape (http://www.inkscape.org/) -->

<svg
   xmlns:dc="http://purl.org/dc/elements/1.1/"
   xmlns:cc="http://creativecommons.org/ns#"
   xmlns:rdf="http://www.w3.org/1999/02/22-rdf-syntax-ns#"
   xmlns:svg="http://www.w3.org/2000/svg"
   xmlns="http://www.w3.org/2000/svg"
   xmlns:sodipodi="http://sodipodi.sourceforge.net/DTD/sodipodi-0.dtd"
   xmlns:inkscape="http://www.inkscape.org/namespaces/inkscape"
   width="480"
   height="320"
   id="svg2"
   version="1.1"
   inkscape:version="0.48.0 r9654"
   sodipodi:docname="itnas322.svg"
   inkscape:export-xdpi="90"
   inkscape:export-ydpi="90"
   inkscape:export-filename="itnas322.png">
  <defs
     id="defs4">
    <inkscape:perspective
       sodipodi:type="inkscape:persp3d"
       inkscape:vp_x="0 : 160 : 1"
       inkscape:vp_y="0 : 1000 : 0"
       inkscape:vp_z="480 : 160 : 1"
       inkscape:persp3d-origin="240 : 106.66667 : 1"
       id="perspective8" />
  </defs>
  <sodipodi:namedview
     id="base"
     pagecolor="#ffffff"
     bordercolor="#666666"
     borderopacity="1.0"
     inkscape:pageopacity="1"
     inkscape:pageshadow="2"
     inkscape:zoom="1"
     inkscape:cx="299"
     inkscape:cy="145"
     inkscape:document-units="px"
     inkscape:current-layer="layer1"
     showgrid="false"
     inkscape:snap-nodes="true"
     inkscape:snap-global="false"
     inkscape:snap-grids="true"
     showguides="true"
     inkscape:window-width="1023"
     inkscape:window-height="774"
     inkscape:window-x="-4"
     inkscape:window-y="-4"
     inkscape:window-maximized="1">
    <inkscape:grid
       empspacing="5"
       visible="true"
       enabled="true"
       snapvisiblegridlinesonly="true"
       type="xygrid"
       id="grid2816" />
  </sodipodi:namedview>
  <metadata
     id="metadata7">
    <rdf:RDF>
      <cc:Work
         rdf:about="">
        <dc:format>image/svg+xml</dc:format>
        <dc:type
           rdf:resource="http://purl.org/dc/dcmitype/StillImage" />
        <dc:title></dc:title>
      </cc:Work>
    </rdf:RDF>
  </metadata>
  <g
     inkscape:label="Layer 1"
     inkscape:groupmode="layer"
     id="layer1"
     transform="translate(0,0)">
    <path
       style="color:#000000;fill:none;stroke:#0000ff;stroke-width:4;stroke-linecap:round;stroke-linejoin:round;stroke-miterlimit:4;stroke-opacity:1;stroke-dasharray:none;stroke-dashoffset:0;marker:none;visibility:visible;display:inline;overflow:visible;enable-background:accumulate"
       d="m 393.20071,281.70588 c -2.51497,-4.48544 -3.85598,-8.35981 -5.65376,-11.74741 -1.09968,-21.35555 5.12236,-15.64958 2.33113,-26.93809 3.98218,-15.34178 -3.94401,-15.31179 1.51681,-26.94701 11.05944,-23.56405 2.66441,-20.54896 1.8935,-38.20384 9.66248,-15.51707 2.51786,-23.82111 8.17169,-35.83684"
       id="path4436"
       inkscape:connector-curvature="0"
       sodipodi:nodetypes="cccscc" />
    <path
       style="fill:none;stroke:#0000ff;stroke-width:4;stroke-linecap:round;stroke-linejoin:round;stroke-opacity:1;color:#000000;stroke-miterlimit:4;stroke-dasharray:none;stroke-dashoffset:0;marker:none;visibility:visible;display:inline;overflow:visible;enable-background:accumulate"
       d="m 417,146 c -0.44823,7.43723 0.83386,15.16375 -0.5,22.5 -1.57295,8.65123 -5.6652,16.8238 -7,25.5 -0.59872,3.89167 3.11839,9.28968 0.5,12.5 -2.51888,3.08832 -5.34947,6.59683 -6,10.5 -1.08103,6.48618 6.63032,14.0758 9,20 0.97762,2.44406 -2.51458,5.42712 -2,8 2.21982,11.09909 0,35.33192 0,48"
       id="path5352"
       inkscape:connector-curvature="0"
       sodipodi:nodetypes="cssssssc" />
    <path
       style="fill:none;stroke:#0000ff;stroke-width:4;stroke-linecap:round;stroke-linejoin:round;stroke-opacity:1;color:#000000;stroke-miterlimit:4;stroke-dasharray:none;stroke-dashoffset:0;marker:none;visibility:visible;display:inline;overflow:visible;enable-background:accumulate"
       d="m 427.5,138.5 c 2.47276,4.1512 3.8159,9.21132 4.5,14 0.57723,4.04063 1.20965,14.1614 0,19 -1.99481,7.97926 -6.19477,15.7209 -4,24.5 1.48309,5.93237 -4.4451,0.46062 -2.53513,16.04464 0.94791,7.73425 8.5717,20.80022 7.53513,28.45536 -3.07735,22.72649 0,32.77832 0,51.5"
       id="path5354"
       inkscape:connector-curvature="0"
       sodipodi:nodetypes="csssssc" />
    <path
       style="fill:none;stroke:#0000ff;stroke-width:4;stroke-linecap:round;stroke-linejoin:round;stroke-opacity:1;color:#000000;stroke-miterlimit:4;stroke-dasharray:none;stroke-dashoffset:0;marker:none;visibility:visible;display:inline;overflow:visible;enable-background:accumulate"
       d="m 450,291.5 c 0.35825,-3.94848 -0.55996,-8.08028 0,-12 2.36288,-16.54019 0.72945,-32.35274 -2.5,-48.5 -1.6909,-8.45449 -0.0497,-27.35078 2.5,-35 2.61395,-7.84186 -5.11321,-15.16036 -2.5,-23 2.50687,-7.5206 -1,-26.70759 -1,-34.5"
       id="path5356"
       inkscape:connector-curvature="0"
       sodipodi:nodetypes="cssssc" />
    <path
       style="color:#000000;fill:none;stroke:#008000;stroke-width:4;stroke-linecap:round;stroke-linejoin:round;stroke-miterlimit:4;stroke-opacity:1;stroke-dasharray:none;stroke-dashoffset:0;marker:none;visibility:visible;display:inline;overflow:visible;enable-background:accumulate"
       d="m 41.547728,211.10556 c -2.302461,6.34357 5.376825,20.52061 10.95778,35.80311 17.754704,14.22612 30.067492,26.8862 64.892132,24.76463 18.02595,6.81283 60.67338,-2.64298 76.79225,4.92602 17.51234,0.62904 41.81498,19.50269 54.01423,18.65195 15.01698,-1.04725 27.23942,-4.79145 44.6371,-9.57976 18.37977,3.27068 47.5642,-7.67675 60.51721,-8.33933 10.73768,-0.40114 31.28882,0.8242 40.52151,6.60537 18.72737,17.1849 27.91383,11.78281 58.03397,7.77818 6.73219,-1.40515 11.11881,-25.46492 16.43679,-32.52691 3.39043,-4.50232 -3.55375,-11.90295 -1.63221,-22.82056 2.10353,-11.95168 1.90738,-6.26271 -0.88056,-16.1622"
       id="path3036"
       inkscape:connector-curvature="0"
       sodipodi:nodetypes="ccccsccccssc" />
    <path
       style="color:#000000;fill:none;stroke:#808080;stroke-width:4;stroke-linecap:round;stroke-linejoin:round;stroke-miterlimit:4;stroke-opacity:1;stroke-dasharray:none;stroke-dashoffset:0;marker:none;visibility:visible;display:inline;overflow:visible;enable-background:accumulate"
       d="m 39.204052,157.92894 c 5.243782,-14.55574 16.173673,-21.75154 23.716161,-29.09112 1.762492,-1.71509 3.991049,-8.53482 5.673258,-10.76237 5.165422,-6.84004 14.733243,-1.08745 19.638193,-10.86313 2.345788,-4.67519 18.285356,-7.961689 22.158096,-6.08476 21.35761,10.35098 18.25608,11.4611 38.47838,8.00149 10.21568,-1.74768 18.21591,20.04135 51.54153,-4.74862 5.57863,-4.14979 14.01202,-1.85042 19.86904,-3.98999 42.29788,-15.45148 72.92184,-14.053845 115.60862,3.32346 5.55816,2.26266 12.55787,-0.16325 18.16672,1.89282 10.51587,3.85486 22.90829,9.88011 32.29853,17.37534 7.86472,6.27756 20.30738,31.21542 31.73946,20.12149 9.58939,-9.30577 40.6665,-8.91699 43.56155,2.34966 6.94085,27.01171 -0.0871,13.73185 0.20309,24.50396 0.23007,8.54143 8.0226,41.16653 3.39857,49.43606"
       id="path3051"
       inkscape:connector-curvature="0"
       sodipodi:nodetypes="csssssssssssssc" />
    <path
       style="color:#000000;fill:none;stroke:#c87137;stroke-width:4;stroke-linecap:round;stroke-linejoin:round;stroke-miterlimit:4;stroke-opacity:1;stroke-dasharray:none;stroke-dashoffset:0;marker:none;visibility:visible;display:inline;overflow:visible;enable-background:accumulate"
       d="m 26.699901,163.81024 1.970064,53.47028 m 0.06994,0.84571 26.348811,-19.93911 m 2.632642,-47.80845 -12.846116,4.54658 m 2.323827,-0.96331 -20.754468,11.62104 m 28.577758,-16.02194 -1.69471,52.26079 c -0.127066,1.79488 -0.633434,2.13194 -3.319113,4.40161"
       id="path5305"
       inkscape:connector-curvature="0"
       sodipodi:nodetypes="ccccccccccc" />
    <path
       style="fill:none;stroke:#80ff00;stroke-width:3.99999976;stroke-linecap:round;stroke-linejoin:round;stroke-miterlimit:4;stroke-opacity:1;stroke-dasharray:none"
       d="m 124.48603,154.37126 c -2.97751,-1.8558 -6.81881,-2.03797 -10.64311,-2.60835 -1.04011,-1.41677 -2.20379,-3.17649 -9.81353,-3.72002 -5.550257,0.0454 -7.207059,-3.71954 -11.32797,-4.18683 -1.923112,-1.19876 -5.483202,-0.50832 -3.135828,2.17179 2.222693,3.96375 3.513605,8.86407 7.499124,13.54021 3.021924,6.5447 4.933014,7.05223 7.123194,10.45682 0.29014,3.41195 3.71834,4.57771 5.08567,1.07165 2.14996,-2.68157 4.20816,-5.67854 6.73423,-7.85692 2.1604,-3.79038 5.81182,-5.76377 8.47824,-8.86835 z"
       id="path5238"
       inkscape:connector-curvature="0"
       sodipodi:nodetypes="ccccccccccc" />
    <path
       inkscape:connector-curvature="0"
       style="fill:none;stroke:#80ff00;stroke-width:4;stroke-linecap:round;stroke-linejoin:round;stroke-miterlimit:4;stroke-opacity:1;stroke-dasharray:none"
       d="m 44.747959,209.59529 c 6.344937,2.62669 6.924726,10.97393 14.964797,16.20099 8.866824,0.58105 12.196518,7.61104 21.38836,2.53513 5.646514,0.58847 18.953414,0.18748 11.539034,-7.6136 -3.31652,-8.06702 3.90951,-16.25524 -1.7529,-22.20502 -5.30244,-6.76502 -11.87519,-10.16174 -19.597881,-9.40409 -1.899701,1.73167 -11.123037,-7.01172 -13.131544,-5.6674"
       id="path2956"
       sodipodi:nodetypes="ccccccc" />
    <path
       style="color:#000000;fill:none;stroke:#ff0000;stroke-width:4;stroke-linecap:round;stroke-linejoin:round;stroke-miterlimit:4;stroke-opacity:1;stroke-dasharray:none;stroke-dashoffset:0;marker:none;visibility:visible;display:inline;overflow:visible;enable-background:accumulate"
       d="m 99.624661,167.8877 c 5.886189,4.99859 8.068479,5.60042 10.152929,0.86142 0.78924,-1.79435 1.89501,-4.02997 0.62232,-7.04625 -0.53413,-1.26587 -3.99762,-2.33304 -4.671,-2.12972 -3.51283,1.0607 -3.19116,3.8991 -0.1735,6.38055"
       id="path3237"
       inkscape:connector-curvature="0"
       sodipodi:nodetypes="csssc" />
    <g
       id="g6898"
       transform="matrix(-0.93177637,0.36303276,0.36303276,0.93177637,216.39339,-92.547962)">
      <path
         sodipodi:nodetypes="ssss"
         inkscape:connector-curvature="0"
         id="path6851"
         d="m 260.10061,227.39164 c -4.88996,-2.16352 -6.60689,-2.21905 -11.68348,-4.60128 -6.34872,-2.97919 -8.15387,-3.10264 -12.75899,-4.75833 C 226.13152,214.60691 222.23201,214.30276 214.75,213"
         style="color:#000000;fill:none;stroke:#c87137;stroke-width:4;stroke-linecap:round;stroke-linejoin:round;stroke-miterlimit:4;stroke-opacity:1;stroke-dasharray:none;stroke-dashoffset:0;marker:none;visibility:visible;display:inline;overflow:visible;enable-background:accumulate" />
      <path
         sodipodi:nodetypes="ssss"
         inkscape:connector-curvature="0"
         id="path6856"
         d="m 213.5,212 c 3.52739,1.43799 -3.92305,3.68567 -9,-0.5 -4.61181,-3.80219 -7.5883,-9.97594 -6,-9 7.25265,4.45643 4.55455,5.24177 15,9.5 z"
         style="color:#000000;fill:none;stroke:#808080;stroke-width:4;stroke-linecap:round;stroke-linejoin:miter;stroke-miterlimit:4;stroke-opacity:1;stroke-dasharray:none;stroke-dashoffset:0;marker:none;visibility:visible;display:inline;overflow:visible;enable-background:accumulate" />
    </g>
    <path
       style="fill:none;stroke:#80ff00;stroke-width:3.99999976;stroke-linecap:round;stroke-linejoin:round;stroke-miterlimit:4;stroke-opacity:1;stroke-dasharray:none"
       d="m 90.38178,206.16004 c -2.83422,-1.77174 -10.81141,-1.62539 -14.162926,-3.1022 -3.361378,-0.9036 -2.073097,-2.29076 -5.316528,-3.57101 -3.193169,-2.14279 -7.018251,-3.53927 -10.890005,-3.22662 -1.854892,-0.66831 -7.097943,-2.10805 -4.698628,1.60872 2.377039,4.79929 3.637178,10.60569 8.138771,13.97532 -1.091894,4.16805 6.151966,7.70051 7.533018,12.36315 3.688957,3.25289 5.225962,-4.03186 8.16772,-5.50082 2.271463,-3.15588 4.518418,-5.88216 7.734908,-8.68676 1.30554,-1.13836 2.75786,-2.24039 3.49367,-3.85978 z"
       id="path2942"
       inkscape:connector-curvature="0"
       sodipodi:nodetypes="ccccccccsc" />
    <path
       inkscape:connector-curvature="0"
       style="fill:none;stroke:#80ff00;stroke-width:3.99999976;stroke-linecap:round;stroke-linejoin:round;stroke-miterlimit:4;stroke-opacity:1;stroke-dasharray:none"
       d="m 82.11792,215.50437 c 2.2654,4.696 10.213,9.4197 16.2599,8.8944 12.4142,0.1126 21.03492,-2.55616 33.33782,0.14953 8.39461,-1.06252 20.87948,-1.19136 27.90268,-3.33753 6.4437,0.1856 17.4424,-0.7308 23.4253,0.8784"
       id="path2952-1"
       sodipodi:nodetypes="ccccc" />
    <path
       inkscape:connector-curvature="0"
       style="fill:none;stroke:#80ff00;stroke-width:3.99999976;stroke-linecap:round;stroke-linejoin:round;stroke-miterlimit:4;stroke-opacity:1;stroke-dasharray:none"
       d="m 142.49154,243.63701 c 0.72041,-0.27225 4.59097,-1.7352 6.50888,-2.46017 6.01442,-2.35232 7.5527,-6.5606 14.60161,-10.99121 4.26995,-1.86093 12.05885,-7.91487 14.18876,-9.31463 -4.93949,-1.26673 -9.95468,-2.30581 -14.87174,-3.6286 -7.59389,-1.45929 -14.53234,-4.4607 -20.1572,-10.59066 -0.61305,-0.90902 -1.27567,-3.15583 -2.74941,-1.76208"
       id="path2958" />
    <path
       inkscape:connector-curvature="0"
       style="color:#000000;fill:none;stroke:#80ff00;stroke-width:4;stroke-linecap:round;stroke-linejoin:round;stroke-miterlimit:4;stroke-opacity:1;stroke-dasharray:none;stroke-dashoffset:0;marker:none;visibility:visible;display:inline;overflow:visible;enable-background:accumulate"
       d="m 336.83874,256.47256 c -12.47187,-10.9702 -26.38619,-6.93434 -46.90524,-12.6495 -6.34206,-1.76645 -6.50623,-8.82701 -23.20284,-6.7041 -3.29795,0.41932 -5.11922,3.3201 -9.25947,1.8034 -13.78338,-5.04927 -23.10634,7.4093 -35.09526,0.53927 -1.35727,-0.77776 -5.16401,-2.08476 -6.43654,-2.88557 -10.55441,-6.64199 -9.1735,-1.585 -15.2187,-8.7413 -0.4929,-0.5835 -9.7266,-4.9229 -16.617,-5.3033"
       id="path4125"
       sodipodi:nodetypes="csssssss" />
    <path
       sodipodi:nodetypes="ccccccc"
       id="path5242"
       d="m 145.97901,195.08455 c -0.24376,-3.42288 -4.58112,-6.52552 -4.0156,-11.31784 -1.7636,-4.04296 -1.24424,-7.0152 -3.61512,-10.924 -1.02248,-2.62696 -2.41328,-9.34792 -4.3076,-4.21424 -2.95552,3.39328 -2.52488,6.11976 -3.96792,10.03848 -1.90096,3.9556 -4.38136,8.29864 -5.27592,12.11888 0.53352,1.15896 -3.8536,2.64256 -3.5268,3.79888"
       style="fill:none;stroke:#80ff00;stroke-width:3.99999952;stroke-linecap:round;stroke-linejoin:round;stroke-miterlimit:4;stroke-opacity:1;stroke-dasharray:none"
       inkscape:connector-curvature="0" />
    <path
       id="path5244"
       d="m 207.25528,192.99502 c -3.35126,-3.42083 -1.43251,-4.48231 -4.00463,-6.05943 -2.89078,-4.24385 -2.25473,-5.74929 -5.31961,-11.66281 -1.20048,-3.5276 -5.51048,-10.13872 -6.4852,-11.9296 -1.33744,3.854 -2.4984,7.78344 -3.87904,11.61584 -1.66696,5.95744 -3.10571,8.1081 -8.36579,12.18602 -0.76536,0.42848 -0.83279,6.11106 -3.00133,5.2571"
       style="fill:none;stroke:#80ff00;stroke-width:3.99999952;stroke-linecap:round;stroke-linejoin:round;stroke-miterlimit:4;stroke-opacity:1;stroke-dasharray:none"
       inkscape:connector-curvature="0"
       sodipodi:nodetypes="ccccccc" />
    <path
       style="color:#000000;fill:none;stroke:#80ff00;stroke-width:4;stroke-linecap:round;stroke-linejoin:round;stroke-miterlimit:4;stroke-opacity:1;stroke-dasharray:none;stroke-dashoffset:0;marker:none;visibility:visible;display:inline;overflow:visible;enable-background:accumulate"
       d="m 197.24478,162.47081 c 7.85553,0.45671 14.10112,-4.02921 20.82437,-2.14374 2.74042,0.76853 5.27424,2.09007 8.18141,2.6813 3.26773,0.66454 6.97247,0.5268 9.93615,1.94242 0.80514,0.38457 1.33802,1.83852 2.16562,2.4362 3.99681,2.88645 8.2658,5.04414 13.18775,5.77348 8.50705,1.26058 15.16436,-3.08083 23.26059,-4.30935 4.78382,-0.72589 8.96881,0.26002 13.45197,0.81816 7.56898,0.94231 17.33964,11.35635 23.18768,11.25085 1.15728,-0.0209 4.54606,2.48905 4.9872,2.0317 1.18536,-1.22891 2.59425,-1.8914 3.84381,-2.54462"
       id="path5248"
       inkscape:connector-curvature="0"
       sodipodi:nodetypes="csssssssscc" />
    <path
       style="color:#000000;fill:none;stroke:#80ff00;stroke-width:3.99999952;stroke-linecap:round;stroke-linejoin:round;stroke-miterlimit:4;stroke-opacity:1;stroke-dasharray:none;stroke-dashoffset:0;marker:none;visibility:visible;display:inline;overflow:visible;enable-background:accumulate"
       d="m 197.38781,162.638 c -4.67061,-1.99902 -5.91705,0.7915 -9.14703,-0.0858 -6.06065,-1.64624 -12.1188,-2.21065 -18.65803,-0.14689 -1.05668,0.33349 -5.41805,0.79174 -6.8672,1.1764 -6.1935,1.64398 -16.50122,-0.43211 -22.58953,1.18395 -1.82378,0.4841 -3.99015,0.84289 -5.75598,0.74362 -10.97507,-0.617 -10.47482,5.99516 -17.58165,-2.65432"
       id="path5269"
       inkscape:connector-curvature="0"
       sodipodi:nodetypes="csssssc" />
    <path
       style="color:#000000;fill:none;stroke:#808080;stroke-width:4;stroke-linecap:round;stroke-linejoin:round;stroke-miterlimit:4;stroke-opacity:1;stroke-dasharray:none;stroke-dashoffset:0;marker:none;visibility:visible;display:inline;overflow:visible;enable-background:accumulate"
       d="m 416,27 c -10.18141,-15.044123 12.28085,-14.040437 21.4412,-5.840584 3.07597,5.355279 -30.91153,39.023713 -11.98148,48.164128 16.61788,14.123828 36.16596,29.798142 40.26842,52.477616 7.82395,21.16157 -33.52601,-9.23272 -47.27287,-21.41193 -21.39516,-5.56537 3.30322,6.25876 10.28238,-8.563413 9.56637,-20.908345 15.82091,-71.276604 37.92481,-78.094759 5.1729,27.712434 12.45397,59.919517 0.14693,61.976942 -54.18065,-3.801508 -15.37005,-14.857273 -68.09706,-27.751991 7.15607,-0.817401 -5.43909,-1.173453 -16.65987,-3.310397 -34.21661,-3.431926 -75.38851,-29.716424 -106.7352,-19.634671 9.52206,14.279244 17.50593,45.528726 31.36507,57.718755 13.44968,-16.65399 40.70248,-43.341298 63.5097,-53.413522 23.17027,-9.368577 47.45959,14.654474 33.41832,33.335794 -7.2664,16.678016 -40.08208,40.193432 -58.68608,27.707821 -14.9673,-17.244994 -2.53659,-53.976647 1.85603,-73.545491 10.34594,-19.2752688 -0.046,2.49642 -10.27544,5.906898 -17.23112,9.881456 -34.43657,29.073333 -50.1986,38.306607 -30.96424,1.882952 30.88368,-50.933474 8.46648,-52.4666731 C 274.558,18.220156 244.95331,30.935445 226.814,36.776535 c -8.49128,5.257664 -45.99428,15.421137 -36.59974,30.777827 18.17613,13.066503 46.11383,-19.08277 66.37512,-5.989973 23.55044,11.625897 -15.40358,27.211356 -20.23004,20.286097 -18.49511,-17.279899 -37.22208,-34.721502 -37.99821,-61.473401 5.38363,-13.878213 26.82215,-2.114508 38.53477,-0.818463 8.579,4.521677 37.46459,11.022625 31.41367,20.800754 -42.28572,0.386151 -79.53529,-12.150826 -115.63707,6.683896 -19.6562,15.424081 8.48196,73.255708 25.41535,36.43604 -1.42267,-1.111949 -44.53149,12.464536 -52.62898,5.217049 -20.04497,-8.552197 -9.97008,-48.461706 6.71153,-64.157377 15.13448,-3.177847 48.47425,8.659829 34.27763,29.594859 -15.1168,6.862532 -51.6752,0.971475 -47.6153,-23.70506 -6.92797,-8.314516 10.31529,-13.514145 -0.0931,-18.099677 C 106.42402,-14.367686 83.158505,95.919656 51.276111,112.08392 38.459202,115.88156 18.533792,105.8134 13.309443,87.187212 25.076696,67.170757 39.750581,47.730837 58.387343,33.57206 62.949737,20.992614 71.460792,19.223503 80.575074,22.324834 91.889042,32.910891 97.596755,57.735049 107.5,67 88.093117,67.946425 74.487206,94.427112 55.611031,89.303827 28.786086,85.51357 48.867929,3.281779 18,25 22.419167,45.887328 4.9522961,35.130101 34.5,90 34.158351,103.45461 50.254563,96.818497 17,150.5"
       id="path5332"
       inkscape:connector-curvature="0"
       sodipodi:nodetypes="cccccccccccccccccccccccccccccccccccccccccc" />
    <path
       style="color:#000000;fill:none;stroke:#000000;stroke-width:4;stroke-linecap:round;stroke-linejoin:round;stroke-miterlimit:4;stroke-opacity:1;stroke-dasharray:none;stroke-dashoffset:0;marker:none;visibility:visible;display:inline;overflow:visible;enable-background:accumulate"
       d="m 296,102.5 c -10.71582,0.5981 -64.11986,-3.735736 -65.5,3 -1.6329,7.96931 30.63469,7.02517 37,7 13.85803,-0.0548 49.26474,0.27531 60,3.5 7.16471,2.15216 43.33418,7.35583 38.5,12.5 -4.66172,4.96065 -34.91608,1.65449 -42,1 -21.11206,-1.95056 -47.43843,-3.9305 -67,-3 -26.45829,1.25856 -55.04694,-2.35955 -79.5,0 -27.92164,2.69425 -36.67741,-6.14656 -65.5,-9 -13.762537,-1.36249 -30.714367,3.06086 -27.292893,9.90381 4.881151,9.7623 22.420993,6.90081 31.792893,8.07106 32.03397,4 65.57236,1.81077 97.5,4.02513 25.08246,1.73961 52.44221,-0.26919 76.5,3 17.12728,2.32741 35.08167,4.28421 52.5,4.5 5.92948,0.0735 45.97818,-1.32276 46,1 0.1078,11.47817 -24.57954,9.12489 -30.5,9.5 -27.92726,1.76941 -63.03198,5.37198 -91,0.5 -25.56504,-4.45339 -49.81536,-8.53366 -74,-8.5 -18.83331,0.0262 -37.75246,0.38909 -56.58579,0.38909"
       id="path5377"
       inkscape:connector-curvature="0"
       sodipodi:nodetypes="sssssssssssssssssss" />
    <path
       style="color:#000000;fill:none;stroke:#000000;stroke-width:4;stroke-linecap:round;stroke-linejoin:round;stroke-miterlimit:4;stroke-opacity:1;stroke-dasharray:none;stroke-dashoffset:0;marker:none;visibility:visible;display:inline;overflow:visible;enable-background:accumulate"
       d="m 380.5,171.5 c -4.53984,0.31296 -45.12488,-1.75024 -46.5,1 -10.4049,20.80979 29.86783,9.43392 37,13 2.60742,1.30371 8.31559,2.86882 6,7.5 -2.79845,5.5969 -18.47105,3.5 -23.5,3.5 -8.80086,0 -53.91227,-5.32794 -58.5,-7.77817 -12.89684,-6.888 -33.77332,-0.31162 -50,-4.72183 -10.89474,-2.96106 -30.48323,-6.99677 -28.8033,-1.24264 3.83938,13.15072 39.88378,16.42545 65.3033,17.61091 C 294.83797,200.9903 313.58087,211 327,211 c 6.71177,0 25.23754,-2.73663 30.5,-0.5 6.38105,2.71205 21.63108,8.25063 14.5,11.5 -19.51183,8.89082 -46.16301,3.03711 -65.5,-2.32843 -12.74179,-3.53553 -30.3171,-6.1089 -43.5,-6.97487 -40.01384,-2.62846 -30.67424,-5.22554 -56.5,-11.1967 -10.28328,-2.37759 -19.67025,-3.32975 -24,2.5 -4.9051,6.60443 25.16841,12.99991 35.5,16.08579 27.146,8.10806 37.9244,1.95196 57.20711,5.87868 15.007,3.05602 31.77013,4.95611 44.79289,10.03553 16.87258,6.58101 53.27781,-2.97651 55.84784,8.09156 C 378.41787,255.15963 348.59375,245.3125 346,254.5 c -3.45557,12.24021 15.71912,3.7162 20.5,5.5 12.48735,4.65916 15.01707,11.45611 -17.5,9.5"
       id="path5473"
       inkscape:connector-curvature="0"
       sodipodi:nodetypes="csssssssssssssssssssssc" />
    <path
       style="color:#000000;fill:none;stroke:#000000;stroke-width:4;stroke-linecap:round;stroke-linejoin:round;stroke-miterlimit:4;stroke-opacity:1;stroke-dasharray:none;stroke-dashoffset:0;marker:none;visibility:visible;display:inline;overflow:visible;enable-background:accumulate"
       d="M 293.12449,255.1528 C 278.1095,249.76923 258.08305,246.51312 248.5,250"
       id="path5471" />
    <path
       style="color:#000000;fill:none;stroke:#000000;stroke-width:4;stroke-linecap:round;stroke-linejoin:round;stroke-miterlimit:4;stroke-opacity:1;stroke-dasharray:none;stroke-dashoffset:0;marker:none;visibility:visible;display:inline;overflow:visible;enable-background:accumulate"
       d="M 212.00468,249.48532 C 203.68083,246.83389 195.44381,243.0405 187,239.5 c -9.28532,-3.89335 -17.65065,-3.1987 -19.5,3"
       id="path5469" />
    <path
       style="color:#000000;fill:none;stroke:#000000;stroke-width:4;stroke-linecap:round;stroke-linejoin:round;stroke-miterlimit:4;stroke-opacity:1;stroke-dasharray:none;stroke-dashoffset:0;marker:none;visibility:visible;display:inline;overflow:visible;enable-background:accumulate"
       d="m 97,255.5 c -8.630489,-2.5435 -27.947109,-6.26745 -28,-10.5 -0.107931,-8.63702 8.148816,-3.5 10.5,-3.5 13.845598,0 29.97991,6.31003 44,5 11.85564,-1.10779 15.10216,-9.91398 8,-10.5 -16.35271,-1.34931 -14.92742,-2 -31.5,-2"
       id="path5381"
       inkscape:connector-curvature="0"
       sodipodi:nodetypes="cssssc" />
    <path
       style="color:#000000;fill:none;stroke:#000000;stroke-width:4;stroke-linecap:round;stroke-linejoin:round;stroke-miterlimit:4;stroke-opacity:1;stroke-dasharray:none;stroke-dashoffset:0;marker:none;visibility:visible;display:inline;overflow:visible;enable-background:accumulate"
       d="m 80.093145,143.09315 c -5.327312,-1.90511 -14.270653,-6.93346 -15.603759,6.68069 -1.011769,10.33254 20.470769,-1.1239 21.177876,14.82235 0.321238,7.24437 -26.895062,-4.99097 -23.006097,6.10051 2.2382,6.38344 11.43934,6.15685 20.681981,5.11396"
       id="path5465"
       inkscape:connector-curvature="0"
       sodipodi:nodetypes="cssss" />
    <path
       style="color:#000000;fill:none;stroke:#000000;stroke-width:4;stroke-linecap:round;stroke-linejoin:round;stroke-miterlimit:4;stroke-opacity:1;stroke-dasharray:none;stroke-dashoffset:0;marker:none;visibility:visible;display:inline;overflow:visible;enable-background:accumulate"
       d="m 117.82396,176.12524 c -3.53107,11.22159 -23.049144,31.11004 -13.53374,36.67294 8.6647,5.06555 15.76987,-22.75529 28.47755,2.94446"
       id="path5383"
       inkscape:connector-curvature="0"
       sodipodi:nodetypes="csc" />
    <path
       style="color:#000000;fill:none;stroke:#000000;stroke-width:4;stroke-linecap:round;stroke-linejoin:round;stroke-miterlimit:4;stroke-opacity:1;stroke-dasharray:none;stroke-dashoffset:0;marker:none;visibility:visible;display:inline;overflow:visible;enable-background:accumulate"
       d="m 150.31373,176.45988 c 8.66367,-0.37491 11.55186,-5.00404 19.55718,-0.12971 11.3009,6.88097 -10.1983,10.83227 -12.05305,16.62332 -2.20366,6.88046 -1.32096,10.37882 14.20808,12.09109"
       id="path5385"
       inkscape:connector-curvature="0"
       sodipodi:nodetypes="ssss" />
    <path
       style="color:#000000;fill:none;stroke:#c87137;stroke-width:4;stroke-linecap:round;stroke-linejoin:round;stroke-miterlimit:4;stroke-opacity:1;stroke-dasharray:none;stroke-dashoffset:0;marker:none;visibility:visible;display:inline;overflow:visible;enable-background:accumulate"
       d="m 266.10234,267.80149 c 17.54443,-0.74305 22.93209,3.25397 39.02148,2.57084 4.99719,-0.21216 9.92918,-1.20346 14.7753,-0.20659 3.70039,0.7612 29.83174,7.41621 20.66062,-2.35677 -0.92187,-0.98236 -7.26961,-3.17549 -8.64666,-3.39061 -18.04525,-2.81893 -26.04517,-4.09591 -44.01296,-3.33302 -4.73766,0.20116 -9.88357,-1.54295 -14.55777,-0.75595 -1.44205,0.24276 -10.74413,3.27026 -9.40137,5.1102 0.71527,0.98012 1.17286,1.65827 2.16136,2.36189 z"
       id="path3075"
       inkscape:connector-curvature="0"
       sodipodi:nodetypes="cssssscsc" />
    <path
       style="color:#000000;fill:none;stroke:#c87137;stroke-width:4;stroke-linecap:round;stroke-linejoin:round;stroke-miterlimit:4;stroke-opacity:1;stroke-dasharray:none;stroke-dashoffset:0;marker:none;visibility:visible;display:inline;overflow:visible;enable-background:accumulate"
       d="m 184.68236,260.36252 c 0.16772,5.23753 24.98637,4.52085 41.94068,2.28665 0.90479,-0.11925 14.63085,2.00743 23.31279,1.45995 7.37028,-0.46479 10.0276,-3.48827 9.48043,-4.79236 -0.87116,-2.07624 -25.60268,-1.20068 -27.47262,-1.32496 -22.35222,-1.48572 -44.25328,-0.93705 -47.26128,2.37072 z"
       id="path3073"
       inkscape:connector-curvature="0"
       sodipodi:nodetypes="cssssc" />
    <path
       sodipodi:nodetypes="csssssccc"
       inkscape:connector-curvature="0"
       id="path5440"
       d="m 105.46197,256.53904 c 18.9989,-0.53456 24.54671,2.94385 40.34428,1.53945 4.98204,-0.4429 5.37115,-0.13837 10.25423,-0.93469 3.72862,-0.60805 27.61203,-2.18052 23.79595,7.45621 -0.496,1.25255 -5.71079,1.00373 -9.52905,0.0314 -15.50747,-3.94901 -25.44184,1.01909 -43.36292,-0.48362 -4.72535,-0.39623 -7.43876,-0.11567 -12.57656,0.90537 -1.68082,-1.55198 -12.60023,-0.46025 -11.18279,-2.24329 -0.58481,-3.89741 -1.40132,-5.198 2.25686,-6.27083 z"
       style="color:#000000;fill:none;stroke:#c87137;stroke-width:4;stroke-linecap:round;stroke-linejoin:round;stroke-miterlimit:4;stroke-opacity:1;stroke-dasharray:none;stroke-dashoffset:0;marker:none;visibility:visible;display:inline;overflow:visible;enable-background:accumulate" />
    <path
       sodipodi:nodetypes="cssssscc"
       inkscape:connector-curvature="0"
       id="path5442"
       d="m 218.68236,278.68709 c -0.82443,-9.66184 6.78554,-4.38429 14.04291,-4.96851 10.7999,-0.86938 17.18957,0.30601 27.14777,-0.0681 15.40919,-0.57896 15.60809,3.33793 24.06279,1.29005 7.37028,-1.78521 9.34003,-1.01358 9.48043,4.79236 0.0786,3.25022 -25.64781,1.75179 -27.47262,1.32496 -22.22505,-5.19853 -43.01469,1.54493 -47.26128,-2.37072 z"
       style="color:#000000;fill:none;stroke:#c87137;stroke-width:4;stroke-linecap:round;stroke-linejoin:round;stroke-miterlimit:4;stroke-opacity:1;stroke-dasharray:none;stroke-dashoffset:0;marker:none;visibility:visible;display:inline;overflow:visible;enable-background:accumulate" />
    <path
       style="color:#000000;fill:none;stroke:#808080;stroke-width:4;stroke-linecap:round;stroke-linejoin:round;stroke-miterlimit:4;stroke-opacity:1;stroke-dasharray:none;stroke-dashoffset:0;marker:none;visibility:visible;display:inline;overflow:visible;enable-background:accumulate"
       d="m 328.5,268.5 c -15.14588,-4.90631 -19.73987,-5.43458 -36,-1 -4.74163,1.29317 -3.26732,-2.75247 -18,-1.5 -1.71016,0.14539 -22.36913,2.26174 -25.5,-0.5 -1.99421,-1.75909 -9.78283,-7.94798 -12,-9.5 -8.15736,-5.71015 -25.05077,2.86105 -34.5,3.5 -29.42027,1.98937 -10.20272,7.73918 -28,-5 -9.79371,-7.01028 -27.1096,-1 -39.5,-1"
       id="path5455"
       inkscape:connector-curvature="0"
       sodipodi:nodetypes="cssssssc" />
  </g>
</svg>
