<?xml version="1.0" encoding="UTF-8" standalone="no"?>
<!-- Created with Inkscape (http://www.inkscape.org/) -->

<svg
   xmlns:dc="http://purl.org/dc/elements/1.1/"
   xmlns:cc="http://creativecommons.org/ns#"
   xmlns:rdf="http://www.w3.org/1999/02/22-rdf-syntax-ns#"
   xmlns:svg="http://www.w3.org/2000/svg"
   xmlns="http://www.w3.org/2000/svg"
   xmlns:sodipodi="http://sodipodi.sourceforge.net/DTD/sodipodi-0.dtd"
   xmlns:inkscape="http://www.inkscape.org/namespaces/inkscape"
   width="480"
   height="320"
   id="svg2"
   version="1.1"
   inkscape:version="0.47 r22583"
   sodipodi:docname="itnas186.svg"
   inkscape:export-xdpi="90"
   inkscape:export-ydpi="90"
   inkscape:export-filename="itnas186.png">
  <defs
     id="defs4" />
  <sodipodi:namedview
     id="base"
     pagecolor="#ffffff"
     bordercolor="#666666"
     borderopacity="1.0"
     inkscape:pageopacity="1"
     inkscape:pageshadow="2"
     inkscape:zoom="1.4142136"
     inkscape:cx="371.17988"
     inkscape:cy="130.45905"
     inkscape:document-units="px"
     inkscape:current-layer="layer1"
     showgrid="false"
     inkscape:snap-nodes="true"
     inkscape:snap-global="false"
     inkscape:snap-grids="true"
     showguides="true"
     inkscape:window-width="1280"
     inkscape:window-height="774"
     inkscape:window-x="1276"
     inkscape:window-y="1020"
     inkscape:window-maximized="1">
    <inkscape:grid
       empspacing="5"
       visible="true"
       enabled="true"
       snapvisiblegridlinesonly="true"
       type="xygrid"
       id="grid2816" />
  </sodipodi:namedview>
  <metadata
     id="metadata7">
    <rdf:RDF>
      <cc:Work
         rdf:about="">
        <dc:format>image/svg+xml</dc:format>
        <dc:type
           rdf:resource="http://purl.org/dc/dcmitype/StillImage" />
        <dc:title></dc:title>
      </cc:Work>
    </rdf:RDF>
  </metadata>
  <g
     inkscape:label="Layer 1"
     inkscape:groupmode="layer"
     id="layer1"
     transform="translate(0,0)">
    <path
       sodipodi:nodetypes="cssssss"
       id="path4621"
       d="m 472.05078,91.053362 c 0.91522,7.42094 1.63142,14.851998 2.64374,22.335278 1.31922,9.75212 0,20.85584 0,30.71102 0,22.43224 2.43904,46.93118 -2.64374,68.40184 -2.69784,11.39628 3.14078,40.30396 0,50.25444 -4.97478,15.76084 -21.15426,23.03556 -35.69032,30.71098 -2.13898,1.12946 -7.99826,0 -10.57492,0"
       style="color:#000000;fill:none;stroke:#c87137;stroke-width:4;stroke-linecap:round;stroke-linejoin:round;stroke-miterlimit:4;stroke-opacity:1;stroke-dasharray:none;stroke-dashoffset:0;marker:none;visibility:visible;display:inline;overflow:visible;enable-background:accumulate" />
    <path
       style="color:#000000;fill:none;stroke:#c87137;stroke-width:4;stroke-linecap:round;stroke-linejoin:round;stroke-miterlimit:4;stroke-opacity:1;stroke-dasharray:none;stroke-dashoffset:0;marker:none;visibility:visible;display:inline;overflow:visible;enable-background:accumulate"
       d="m 203.18501,301.57479 c -9.63002,-1.1567 -20.39754,3.87218 -29.01164,0.32094 -7.44628,-3.0698 -15.24848,-9.3769 -17.35438,-18.39662 -2.867,-12.2797 -6.1132,-24.49406 -9.00982,-36.77708 -4.28824,-18.1841 -1.0872,-36.88454 -1.94886,-55.32114 -0.4318,-9.2394 4.64402,-17.76686 4.36912,-27.1508 -0.38784,-13.2385 -0.87934,-26.48472 -0.0364,-39.74084 0.44958,-7.07022 -0.112,-14.33366 -3.59952,-20.78646 -2.1129,-3.909361 -0.33742,-8.694081 -0.37352,-12.998781"
       id="path2832"
       sodipodi:nodetypes="cssssssss" />
    <path
       style="color:#000000;fill:none;stroke:#c87137;stroke-width:4;stroke-linecap:round;stroke-linejoin:round;stroke-miterlimit:4;stroke-opacity:1;stroke-dasharray:none;stroke-dashoffset:0;marker:none;visibility:visible;display:inline;overflow:visible;enable-background:accumulate"
       d="m 87.38469,100.24575 c 0.91522,7.42094 1.63142,14.852 2.64374,22.33528 1.31922,9.75212 0,20.85584 0,30.71102 0,22.43224 2.43904,46.93118 -2.64374,68.40184 -2.69784,11.39628 3.14078,40.30396 0,50.25444 -4.97478,15.76084 -21.15426,23.03556 -35.69032,30.71098 -2.13898,1.12946 -7.99826,0 -10.57492,0"
       id="path2850"
       sodipodi:nodetypes="cssssss" />
    <path
       style="fill:none;stroke:#94f3f3;stroke-width:4;stroke-linecap:round;stroke-linejoin:round;stroke-miterlimit:4;stroke-opacity:1;stroke-dasharray:none"
       d="m 149.35305,92.708489 c 11.14984,7.516121 12.35516,13.033701 25.59562,14.313861 15.50372,1.49898 30.44566,-4.36238 43.59768,-9.901421 24.6884,-10.3976 -21.99274,-44.7011 0.0676,-26.5629 9.2622,7.61544 12.44386,6.29824 23.98324,6.7671 12.3455,0.50158 16.59284,0.76116 20.68652,-16.51474 4.36404,-18.41674 4.56676,-38.05582 1.06094,-56.4255101 -1.26708,-6.6393 -10.14286,-13.35274 -15.23246,-13.93452 -23.54376,-2.6912399 -16.36196,1.29504 3.91714,-7.2783599 9.84984,-4.16422 36.6839,-19.93304 22.36856,-31.27136 -10.77654,-8.53544 -26.81906,-13.16378 -40.564,-7.42672 -6.13088,2.559 -16.95702,4.26742 -19.59812,10.23872 -8.3409,18.85806 -4.4922,15.20184 -2.64554,-5.36656 1.01406,-11.29456 -8.28316,-34.16834 -12.18592,-36.82194 -1.00438,-0.6829 -7.96816,-9.18132 -15.28136,-11.6081 -8.26324,-2.742059 -13.483,4.62398 -24.94664,16.1953 -6.31816,6.3775 -5.98624,19.0514 -3.21826,-0.016 0.1956,-1.3473 -7.86238,-13.55738 -9.70642,-16.1827 -9.59494,-13.660089 -18.82746,-14.471789 -32.90444,-24.643389 -13.17048,-9.51659 -31.42632,-10.38886 -45.42638,-7.55222 -10.94872,2.21839 -16.02456,19.90474 -22.67522,30.52193 -8.14088,12.996179 8.58032,55.857499 -0.56906,42.150659 -3.02586,-4.53308 -15.87138,-27.26004 -25.86874,-38.49888 -11.9992404,-13.489339 -22.3181504,5.08326 -32.23561,11.39708 -13.317882,8.47862 -24.733822,18.41412 -29.494422,35.636 -4.3259,15.64936 -6.32674,33.86632 9.80742,43.4573599 4.40964,2.62132 35.7713116,23.5355201 17.90574,13.50448 -8.95272,-5.02672 -21.74256,2.76522 -28.97988,9.0339401 -8.93966,7.74323 -15.8523,16.53481 -17.0284,30.01271 -1.44962,16.61228 14.03484,23.86008 27.70456,26.72502 14.58724,3.0572 38.2139916,15.5276 42.870992,13.27528 11.11854,-5.37738 -17.9592304,15.089141 -26.929892,23.185341 -9.84626,8.88644 -14.04388,29.74992 2.61618,33.62852 19.4736316,4.53362 40.833652,11.8767 59.977632,5.3793 13.9078,-4.72026 24.52552,-17.70754 30.89854,-30.28946 2.95782,-5.83946 4.82452,-36.607801 8.204,-23.374501 2.9789,11.664761 16.87882,18.378901 26.77094,25.704341 16.62264,12.30958 31.84036,-15.28742 31.7597,-24.250281 -0.0678,-7.5283 -6.76792,-11.61094 5.69768,-3.20788 z"
       id="path2827"
       sodipodi:nodetypes="cssssssssssssssssssssssssssssssssssssss" />
    <path
       style="fill:none;stroke:#008000;stroke-width:4;stroke-linecap:butt;stroke-linejoin:miter;stroke-miterlimit:4;stroke-opacity:1;stroke-dasharray:none"
       d="m -15.94827,305.24006 c 32.14481,5.7047 65.03398,1.4905 97.50784,2.8376 28.75232,0.1816 57.60066,5.24048 86.05526,0.61578 48.72352,-2.5707 99.12614,-9.5072 147.76249,-5.73899 30.02432,0.062 58.63942,-6.12554 88.56173,-3.94444 21.38344,-2.1054 43.57746,-1.1061 64.37741,5.1461 11.14672,1.6839 21.84356,6.1322 33.33743,5.3266"
       id="path4190"
       sodipodi:nodetypes="ccccccc" />
    <path
       style="fill:none;stroke:#80ff00;stroke-width:3.99999976;stroke-linecap:round;stroke-linejoin:round;stroke-miterlimit:4;stroke-opacity:1;stroke-dasharray:none"
       d="m 463.74564,217.5954 c -2.93021,-2.33543 4.34392,-3.35409 0.76731,-5.96913 -1.4556,-5.67747 1.6927,-10.96757 0.0933,-16.66223 -0.19546,-3.89035 1.72373,-7.45931 1.41735,-11.36533 -0.1717,-4.09153 1.10614,-7.85539 2.24725,-11.65698 0.8235,-3.35621 0.73174,-6.8489 1.23731,-10.24605 -1.32812,-2.90735 -0.48973,-5.28424 -1.60777,-8.25459 -1.33263,-3.58702 0.92117,-7.17546 -1.27944,-10.75661 -1.72754,-0.17862 -3.93024,2.86179 -5.84644,3.95078 -4.74952,3.75703 -9.50216,7.51194 -14.24505,11.27382 -1.95585,2.92258 -5.63112,5.01074 -6.16578,8.55237 -1.21747,2.60467 -3.72019,4.53727 -5.48888,6.83657 -2.31298,2.34064 -4.65584,5.202 -6.7361,7.84754 -2.50681,2.52101 -4.53347,5.34568 -7.72354,7.42514 -2.49475,1.63396 -5.58422,3.72898 -1.27886,6.04116 2.68424,2.26115 6.8604,2.40672 9.55185,4.69326 3.69562,1.79406 6.6607,4.40716 11.22605,5.15935 3.58123,2.22158 8.01321,3.84857 11.03132,6.5992 3.55476,1.38829 6.73631,3.59038 9.88342,5.38751 0.70708,0.54192 1.88126,1.80372 2.91611,1.14391 z"
       id="path2942"
       inkscape:transform-center-x="-4.9314274"
       inkscape:transform-center-y="-27.180448" />
    <path
       style="fill:none;stroke:#80ff00;stroke-width:3.99999976;stroke-linecap:round;stroke-linejoin:round;stroke-miterlimit:4;stroke-opacity:1;stroke-dasharray:none"
       d="m 440.18633,205.6176 c -2.0569,5.62551 -4.10321,8.23372 -9.0853,12.63579 -4.03307,3.56352 -10.37316,6.13486 -16.12059,5.43511 -24.82128,0.636 -44.37793,3.74381 -69.01953,1.78448 -15.33786,2.37171 -35.41788,-1.08972 -49.45148,-0.2 -12.8795,0.58439 -34.9042,-0.88418 -46.81513,2.53177"
       id="path2952-1"
       sodipodi:nodetypes="cscccc" />
    <path
       style="fill:none;stroke:#80ff00;stroke-width:3.99999976;stroke-linecap:round;stroke-linejoin:round;stroke-miterlimit:4;stroke-opacity:1;stroke-dasharray:none"
       d="m 377.89285,294.57836 c 0.86244,-8.5354 0.96512,-17.2928 5.78554,-25.13434 4.70624,-9.97248 8.715,-20.28892 14.92886,-29.88118 2.74946,-6.48888 6.72232,-23.18098 11.07614,-10.21222 7.13446,8.6982 12.79428,17.68586 16.1103,27.58516 4.4576,10.02536 10.33448,21.06176 12.2872,30.67436 -1.41898,2.85664 2.4965,4.68234 1.59428,7.5477"
       id="path2956" />
    <path
       id="path5493"
       style="color:#000000;fill:none;stroke:#ff0000;stroke-width:4;stroke-linecap:round;stroke-linejoin:round;stroke-miterlimit:4;stroke-opacity:1;stroke-dasharray:none;stroke-dashoffset:0;marker:none;visibility:visible;display:inline;overflow:visible;enable-background:accumulate"
       d="m 427.28574,281.55584 c -2.65302,1.37926 -6.98727,1.47288 -13.78567,2.29434 -8.54608,0.95512 -10.47267,3.90011 -17.04807,4.08759 -7.37893,2.82437 -11.6863,5.77312 -21.07484,6.91128 m 71.69597,-1.34273 c -7.07595,0.23322 -16.36849,1.93895 -16.57199,-1.36138 -1.47883,-12.15687 -8.2139,-20.54991 -5.89591,-24.80399 6.4318,-3.19504 9.17263,-6.21733 13.6397,-9.80904"
       sodipodi:nodetypes="cccccccc" />
    <path
       style="fill:none;stroke:#80ff00;stroke-width:3.99999976;stroke-linecap:round;stroke-linejoin:round;stroke-miterlimit:4;stroke-opacity:1;stroke-dasharray:none"
       d="m 227.05977,300.68352 c 0.40664,-1.48564 2.59188,-9.46752 3.6748,-13.42266 3.553,-12.41784 11.64306,-16.27198 19.13976,-31.1404 2.90256,-8.85196 13.49238,-25.499 15.87906,-30.00314 3.45094,9.59708 6.46282,19.38766 10.02116,28.92954 4.3334,14.84616 11.61418,28.0973 24.87738,38.14466 1.92524,1.04978 6.52354,1.9467 4.02546,5.1432"
       id="path2958" />
    <path
       style="color:#000000;fill:none;stroke:#80ff00;stroke-width:4;stroke-linecap:round;stroke-linejoin:round;stroke-miterlimit:4;stroke-opacity:1;stroke-dasharray:none;stroke-dashoffset:0;marker:none;visibility:visible;display:inline;overflow:visible;enable-background:accumulate"
       d="m 23.15912,160.80268 c 2.125728,12.36588 -8.202422,25.84598 -7.135376,39.20765 2.209312,27.66525 -5.352081,53.05911 18.428303,62.89755 18.820252,7.78633 36.901482,29.37952 61.323303,24.29883 31.99683,-6.65659 66.90289,-3.78991 91.50752,-20.18847 18.90293,-12.59849 17.12671,-13.45522 28.97862,-27.96591 0.96637,-1.18314 19.28763,-10.16633 33.05395,-11.15505"
       id="path4125"
       sodipodi:nodetypes="cssssss" />
    <path
       id="path5493-4"
       style="color:#000000;fill:none;stroke:#ff0000;stroke-width:4;stroke-linecap:round;stroke-linejoin:round;stroke-miterlimit:4;stroke-opacity:1;stroke-dasharray:none;stroke-dashoffset:0;marker:none;visibility:visible;display:inline;overflow:visible;enable-background:accumulate"
       d="m 313.25897,260.89362 c 2.67613,1.33382 7.01133,1.35356 13.82277,2.05908 8.56111,0.80929 10.5376,3.721 17.11525,3.79636 7.42599,2.69824 11.78299,5.57311 21.18946,6.55152 M 293.678,273.18014 c 7.07888,0.11259 16.39917,1.65967 16.54641,-1.64367 1.27137,-12.18031 7.86235,-20.68695 5.47222,-24.9009 -6.48535,-3.08494 -9.27728,-6.06006 -13.80494,-9.57512"
       sodipodi:nodetypes="cccccccc" />
    <path
       sodipodi:nodetypes="cssssssssssssssssssssssssssssssssssssss"
       id="path4623"
       d="m 569.60109,-74.910374 c 13.415,-0.92133 17.22165,-5.09337 29.32299,0.42985 14.16989,6.46735 24.16723,19.02403 32.77675,30.40528 16.16143,21.36434 -41.42347,27.67608 -13.24507,23.02521 11.83091,-1.95268 13.92508,0.78089 24.14774,6.15438 10.93678,5.74889 14.74304,7.65142 9.63396,24.6547295 -5.44644,18.1261505 -15.10688,35.2261645 -27.34147,49.3701075 -4.42189,5.11201 -15.46658,6.477503 -20.16323,4.43202 -21.72602,-9.462107 -13.5134,-9.315524 -0.25479,8.261573 6.43989,8.537441 21.76841,35.625434 3.69925,38.269644 -13.6024,1.99056 -29.80594,-2.03804 -38.82948,-13.887633 -4.02491,-5.285475 -12.53978,-12.186276 -11.83514,-18.677448 2.22532,-20.499877 3.72539,-15.407702 -4.97758,3.320019 -4.77898,10.283813 -24.28207,25.425722 -28.98909,25.767892 -1.21136,0.088 -11.4951,3.95612 -19.04041,2.39391 -8.52551,-1.76513 -9.35429,-10.754985 -13.48127,-26.511841 -2.27459,-8.684349 4.36021,-19.48793 -2.79356,-1.597962 -0.50547,1.26411 -13.59522,7.796768 -16.50617,9.145542 -15.14626,7.017945 -23.54394,3.096556 -40.82246,4.850306 -16.16585,1.640815 -32.40394,-6.747324 -43.10093,-16.214253 -8.36555,-7.403595 -3.901,-25.254056 -4.34,-37.774566 -0.53738,-15.32599 35.40192,-44.0498205 20.61789,-36.7682605 -4.88933,2.40813 -27.3901,15.6458505 -41.67204,20.3665605 -17.14178,5.666 -16.77147,-15.5774605 -22.1933,-26.0093405 -7.28084,-14.0086495 -12.18581,-28.3257395 -7.68103,-45.6162995 4.09346,-15.71176 11.4853,-32.48143 30.25363,-32.70237 5.12958,-0.0604 42.74901,-2.45557 22.2617,-2.72094 -10.26652,-0.13297 -17.43423,-13.28281 -20.55887,-22.333346 -3.8596,-11.17938 -5.43968,-22.25096 0.29253,-34.5057 7.06527,-15.10468 24.09769,-13.62284 37.36429,-9.25633 14.15704,4.65963 40.85262,5.69901 43.75542,9.98087 6.93042,10.22289 -7.98736,-22.05489 -11.69701,-33.55531 -4.07175,-12.62293 2.74414,-32.7835 19.10669,-27.79669 19.12587,5.82899 41.29156,10.17104 54.6074,25.38276 9.67375,11.05108 12.3594,27.60984 11.57408,41.69187 -0.36447,6.53568 -14.15856,34.10194 -4.6058,24.34049 8.42047,-8.60443 23.81412,-7.45428 36.04501,-8.84047 20.55267,-2.32931 19.90279,29.178636 15.34407,36.895986 -3.8291,6.48212 -11.67307,6.66018 3.32498,5.63015 z"
       style="fill:none;stroke:#94f3f3;stroke-width:4;stroke-linecap:round;stroke-linejoin:round;stroke-miterlimit:4;stroke-opacity:1;stroke-dasharray:none" />
    <path
       style="fill:none;stroke:#0000ff;stroke-width:4;stroke-linecap:round;stroke-linejoin:round;stroke-miterlimit:4;stroke-opacity:1;stroke-dasharray:none"
       d="m 271.54077,287.5313 c 6.42006,1.61167 12.87056,3.73445 19.5463,3.62615 7.51133,1.52155 15.4043,0.63934 22.73805,2.7881 7.18539,-2.24817 14.4584,1.50428 21.75007,0.19259 5.46386,-0.19378 9.79772,0.78123 15.3807,-0.23657 2.2568,0.43454 3.82526,-1.28252 -0.83969,0.96185"
       id="path2909" />
    <path
       style="fill:none;stroke:#0000ff;stroke-width:4;stroke-linecap:round;stroke-linejoin:round;stroke-miterlimit:4;stroke-opacity:1;stroke-dasharray:none"
       d="m 220.24782,272.47824 c 1.15929,-4.56729 -2.23168,-7.3098 -4.12648,-9.64961 -2.1609,-4.53509 -3.80597,-3.7213 -6.99541,-8.18369 -3.68961,-1.36785 -5.96001,-4.42429 -10.26605,-5.06003 -5.78611,-2.52966 -12.38853,0.72306 -17.26144,3.72592 -3.14431,2.77495 -6.48523,5.18826 -7.49141,9.48615 -0.70945,3.03514 -2.53201,6.13048 -2.35839,9.1179 2.59045,4.33223 1.87144,11.39114 4.45824,14.30267 3.4634,1.35049 6.99673,2.40797 10.25153,4.0551 5.23668,1.66962 10.47274,3.34116 15.70928,5.01054 2.52567,-1.40202 5.79653,-1.42898 7.12585,-3.51885 1.69187,-0.84863 2.11628,-4.15773 3.60413,-5.53096 3.20039,-3.74918 4.40347,-9.18168 7.35015,-13.75514 z"
       id="path2905" />
    <path
       style="fill:none;stroke:#0000ff;stroke-width:4;stroke-linecap:round;stroke-linejoin:round;stroke-miterlimit:4;stroke-opacity:1;stroke-dasharray:none"
       d="m 206.98869,294.55148 c 4.61785,-2.11136 11.38022,0.14038 12.91429,-1.70539 7.75348,0.13317 15.53222,-1.195 23.27648,-0.9597 6.69292,0.60941 13.09736,-1.32617 19.27381,-1.9064 2.95875,-0.74292 5.91732,-1.4858 8.87588,-2.22867"
       id="path2907" />
    <path
       style="fill:none;stroke:#0000ff;stroke-width:4;stroke-linecap:round;stroke-linejoin:round;stroke-miterlimit:4;stroke-opacity:1;stroke-dasharray:none"
       d="m 271.88434,287.49592 c 4.3057,-0.65001 13.8635,-1.67075 20.38471,-2.67044 8.77503,0.19017 15.7609,-3.40972 24.33161,-3.60991 6.20592,-2.09231 12.38734,-2.7649 19.41925,-3.57302 4.15934,-1.13744 12.36812,1.92325 13.92907,0.5512 0.51467,-0.22964 5.18408,0.25358 2.61338,0.71869"
       id="path2881" />
    <path
       style="fill:none;stroke:#0000ff;stroke-width:4;stroke-linecap:round;stroke-linejoin:round;stroke-miterlimit:4;stroke-opacity:1;stroke-dasharray:none"
       d="m 257.87185,278.86943 c -5.85121,1.01925 -11.1261,1.61627 -15.22655,2.58395 -6.78336,1.59396 -13.84509,1.99407 -20.09498,5.56066 -3.57612,1.81391 -6.54728,3.19573 -10.2928,4.65965 -1.99047,0.45002 -3.58504,2.67219 -5.45245,2.46838"
       id="path2894" />
    <path
       style="fill:none;stroke:#0000ff;stroke-width:4;stroke-linecap:round;stroke-linejoin:round;stroke-miterlimit:4;stroke-opacity:1;stroke-dasharray:none"
       d="m 149.84597,304.39005 c 6.45798,0.1127 18.87595,-1.59413 25.91042,-3.65219 8.23631,-4.19792 16.02168,-6.74387 20.50542,-4.27704 1.81687,-0.51435 5.47862,2.03307 9.43252,-1.42478"
       id="path2911"
       sodipodi:nodetypes="cccc" />
  </g>
</svg>
