<?xml version="1.0" encoding="UTF-8" standalone="no"?>
<!-- Created with Inkscape (http://www.inkscape.org/) -->

<svg
   xmlns:dc="http://purl.org/dc/elements/1.1/"
   xmlns:cc="http://creativecommons.org/ns#"
   xmlns:rdf="http://www.w3.org/1999/02/22-rdf-syntax-ns#"
   xmlns:svg="http://www.w3.org/2000/svg"
   xmlns="http://www.w3.org/2000/svg"
   xmlns:sodipodi="http://sodipodi.sourceforge.net/DTD/sodipodi-0.dtd"
   xmlns:inkscape="http://www.inkscape.org/namespaces/inkscape"
   width="480"
   height="320"
   id="svg2"
   version="1.1"
   inkscape:version="0.47 r22583"
   sodipodi:docname="itnas188.svg"
   inkscape:export-xdpi="90"
   inkscape:export-ydpi="90"
   inkscape:export-filename="itnas188.png">
  <defs
     id="defs4" />
  <sodipodi:namedview
     id="base"
     pagecolor="#ffffff"
     bordercolor="#666666"
     borderopacity="1.0"
     inkscape:pageopacity="1"
     inkscape:pageshadow="2"
     inkscape:zoom="2.0000001"
     inkscape:cx="267.45649"
     inkscape:cy="169.38394"
     inkscape:document-units="px"
     inkscape:current-layer="layer1"
     showgrid="false"
     inkscape:snap-nodes="true"
     inkscape:snap-global="false"
     inkscape:snap-grids="true"
     showguides="true"
     inkscape:window-width="1280"
     inkscape:window-height="998"
     inkscape:window-x="-4"
     inkscape:window-y="-4"
     inkscape:window-maximized="1">
    <inkscape:grid
       empspacing="5"
       visible="true"
       enabled="true"
       snapvisiblegridlinesonly="true"
       type="xygrid"
       id="grid2816" />
  </sodipodi:namedview>
  <metadata
     id="metadata7">
    <rdf:RDF>
      <cc:Work
         rdf:about="">
        <dc:format>image/svg+xml</dc:format>
        <dc:type
           rdf:resource="http://purl.org/dc/dcmitype/StillImage" />
        <dc:title />
      </cc:Work>
    </rdf:RDF>
  </metadata>
  <g
     inkscape:label="Layer 1"
     inkscape:groupmode="layer"
     id="layer1"
     transform="translate(0,0)">
    <path
       sodipodi:nodetypes="cssssssss"
       id="path3004"
       d="m -27.5867,294.73203 c 4.815,-0.57835 10.19876,1.93609 14.50581,0.16047 3.72314,-1.5349 7.62424,-4.68845 8.67719,-9.19831 1.4335,-6.13985 3.0566,-12.24703 4.50491,-18.38854 2.14412,-9.09205 0.54361,-18.44227 0.97443,-27.66057 0.2159,-4.6197 -2.32201,-8.88343 -2.18456,-13.5754 0.19392,-6.61925 0.43967,-13.24236 0.0182,-19.87042 -0.22479,-3.53511 0.056,-7.16683 1.79976,-10.39323 1.05645,-1.95468 0.16871,-4.34704 0.18677,-6.49939"
       style="color:#000000;fill:none;stroke:#c87137;stroke-width:4;stroke-linecap:round;stroke-linejoin:round;stroke-miterlimit:4;stroke-opacity:1;stroke-dasharray:none;stroke-dashoffset:0;marker:none;visibility:visible;display:inline;overflow:visible;enable-background:accumulate" />
    <path
       sodipodi:nodetypes="cssssss"
       id="path3006"
       d="m 30.31345,194.06751 c -0.45761,3.71047 -0.81571,7.426 -1.32187,11.16764 -0.6596,4.87606 0,10.42792 0,15.35551 0,11.21612 -1.21951,23.46559 1.32187,34.20092 1.34893,5.69814 -1.57038,20.15198 0,25.12722 2.48739,7.88042 10.57713,11.51778 17.84517,15.35549 1.06949,0.56473 3.99912,0 5.28745,0"
       style="color:#000000;fill:none;stroke:#c87137;stroke-width:4;stroke-linecap:round;stroke-linejoin:round;stroke-miterlimit:4;stroke-opacity:1;stroke-dasharray:none;stroke-dashoffset:0;marker:none;visibility:visible;display:inline;overflow:visible;enable-background:accumulate" />
    <path
       sodipodi:nodetypes="cssssssssssssssssssssssssssssssssssssss"
       id="path3008"
       d="m -0.67072,190.29888 c -5.57493,3.75806 -6.17759,6.51685 -12.79781,7.15693 -7.75186,0.74949 -15.22284,-2.18119 -21.79885,-4.95071 -12.3442,-5.1988 10.99638,-22.35055 -0.0338,-13.28145 -4.6311,3.80772 -6.22193,3.14912 -11.99163,3.38355 -6.17274,0.25079 -8.29642,0.38058 -10.34325,-8.25737 -2.18202,-9.20837 -2.28338,-19.02792 -0.53048,-28.21276 0.63355,-3.31965 5.07143,-6.67637 7.61624,-6.96726 11.77188,-1.34562 8.18098,0.64752 -1.95858,-3.63918 -4.92491,-2.08211 -18.34195,-9.96652 -11.18428,-15.63568 5.38828,-4.26772 13.40954,-6.58189 20.28201,-3.71336 3.06543,1.2795 8.47851,2.13371 9.79906,5.11936 4.17045,9.42903 2.2461,7.60092 1.32277,-2.68328 -0.50703,-5.64728 4.14158,-17.08417 6.09296,-18.41097 0.50219,-0.341451 3.98408,-4.590662 7.64068,-5.804052 4.13162,-1.37103 6.7415,2.311991 12.47332,8.097652 3.15908,3.18875 2.99312,9.5257 1.60913,-0.008 -0.0978,-0.67365 3.93119,-6.778692 4.85321,-8.091352 4.79747,-6.830045 9.41373,-7.235895 16.45222,-12.321695 6.58524,-4.758295 15.71316,-5.19443 22.71319,-3.77611 5.47436,1.109195 8.01228,9.95237 11.33761,15.260965 4.07044,6.498092 -4.29016,27.928752 0.28453,21.075332 1.51293,-2.26654 7.93569,-13.63002 12.93437,-19.249442 5.99962,-6.74467 11.15907,2.541631 16.1178,5.698542 6.65894,4.23931 12.36691,9.20706 14.74721,17.818 2.16295,7.82468 3.16337,16.93316 -4.90371,21.72868 -2.20482,1.31066 -17.88565,11.76776 -8.95287,6.75224 4.47636,-2.51336 10.87128,1.38261 14.48994,4.51697 4.46983,3.87161 7.92615,8.2674 8.5142,15.00636 0.72481,8.30614 -7.01742,11.93004 -13.85228,13.36251 -7.29362,1.5286 -19.10699,7.7638 -21.43549,6.63764 -5.55927,-2.68869 8.97961,7.54457 13.46494,11.59267 4.92313,4.44322 7.02194,14.87496 -1.30809,16.81426 -9.73681,2.26681 -20.41682,5.93835 -29.98881,2.68965 -6.9539,-2.36013 -12.26276,-8.85377 -15.44927,-15.14473 -1.47891,-2.91973 -2.41226,-18.3039 -4.102,-11.68725 -1.48945,5.83238 -8.43941,9.18945 -13.38547,12.85217 C 9.74668,210.1825 2.13782,196.384 2.17815,191.90257 c 0.0339,-3.76415 3.38396,-5.80547 -2.84884,-1.60394 z"
       style="fill:none;stroke:#94f3f3;stroke-width:4;stroke-linecap:round;stroke-linejoin:round;stroke-miterlimit:4;stroke-opacity:1;stroke-dasharray:none" />
    <path
       sodipodi:nodetypes="cssssss"
       id="path4621-8"
       d="m 171.56463,193.86352 c 0.45761,3.71048 0.81571,7.426 1.32187,11.16764 0.65961,4.87606 0,10.42792 0,15.35551 0,11.21612 1.21952,23.46559 -1.32187,34.20092 -1.34892,5.69814 1.57039,20.15198 0,25.12722 -2.48739,7.88042 -9.07453,11.87134 -16.34256,15.70905 -1.06949,0.56473 -5.50173,0.17678 -6.79006,0.17678"
       style="color:#000000;fill:none;stroke:#c87137;stroke-width:4;stroke-linecap:round;stroke-linejoin:round;stroke-miterlimit:4;stroke-opacity:1;stroke-dasharray:none;stroke-dashoffset:0;marker:none;visibility:visible;display:inline;overflow:visible;enable-background:accumulate" />
    <path
       style="color:#000000;fill:none;stroke:#c87137;stroke-width:4;stroke-linecap:round;stroke-linejoin:round;stroke-miterlimit:4;stroke-opacity:1;stroke-dasharray:none;stroke-dashoffset:0;marker:none;visibility:visible;display:inline;overflow:visible;enable-background:accumulate"
       d="m 229.11123,295.6316 c -4.92654,-1.1053 -10.37367,-0.42755 -14.63081,-1.33953 -3.93778,-0.84356 -7.49924,-3.93845 -8.55219,-8.44831 -1.4335,-6.13985 -3.0566,-12.24703 -4.50491,-18.38854 -2.14412,-9.09205 -0.54361,-18.44227 -0.97443,-27.66057 -0.2159,-4.6197 2.32201,-8.88343 2.18456,-13.5754 -0.19392,-6.61925 -0.43967,-13.24236 -0.0182,-19.87042 0.22479,-3.53511 -0.056,-7.16683 -1.79976,-10.39323 -1.05645,-1.95468 -0.16871,-4.34704 -0.18677,-6.49939"
       id="path2832-2"
       sodipodi:nodetypes="cssssssss" />
    <path
       style="color:#000000;fill:none;stroke:#c87137;stroke-width:4;stroke-linecap:round;stroke-linejoin:round;stroke-miterlimit:4;stroke-opacity:1;stroke-dasharray:none;stroke-dashoffset:0;marker:none;visibility:visible;display:inline;overflow:visible;enable-background:accumulate"
       d="m 320.50001,198.5 1.5,17 -2,24 1.5,31 -3.5,20 -6,3.5 -15,1.5"
       id="path2848" />
    <path
       sodipodi:nodetypes="cssssss"
       id="path4621"
       d="m 352.04703,193.18362 c -0.45761,3.71048 -0.81571,7.426 -1.32187,11.16764 -0.65961,4.87606 0,10.42792 0,15.35551 0,11.21612 -1.21952,23.46559 1.32187,34.20092 1.34892,5.69814 -1.57039,20.15198 0,25.12722 2.48739,7.88042 10.57713,11.51778 17.84516,15.35549 1.06949,0.56473 3.99913,0 5.28746,0"
       style="color:#000000;fill:none;stroke:#c87137;stroke-width:4;stroke-linecap:round;stroke-linejoin:round;stroke-miterlimit:4;stroke-opacity:1;stroke-dasharray:none;stroke-dashoffset:0;marker:none;visibility:visible;display:inline;overflow:visible;enable-background:accumulate" />
    <path
       style="color:#000000;fill:none;stroke:#c87137;stroke-width:4;stroke-linecap:round;stroke-linejoin:round;stroke-miterlimit:4;stroke-opacity:1;stroke-dasharray:none;stroke-dashoffset:0;marker:none;visibility:visible;display:inline;overflow:visible;enable-background:accumulate"
       d="m 486.47992,298.44434 c 4.815,-0.57835 10.19876,1.93609 14.50581,0.16047 3.72314,-1.5349 7.62424,-4.68845 8.67719,-9.19831 1.4335,-6.13985 3.0566,-12.24703 4.50491,-18.38854 2.14412,-9.09205 0.54361,-18.44227 0.97443,-27.66057 0.2159,-4.6197 -2.32201,-8.88343 -2.18456,-13.5754 0.19392,-6.61925 0.43967,-13.24236 0.0182,-19.87042 -0.22479,-3.53511 0.056,-7.16683 1.79976,-10.39323 1.05645,-1.95468 0.16871,-4.34704 0.18677,-6.49939"
       id="path2832"
       sodipodi:nodetypes="cssssssss" />
    <path
       style="color:#000000;fill:none;stroke:#c87137;stroke-width:4;stroke-linecap:round;stroke-linejoin:round;stroke-miterlimit:4;stroke-opacity:1;stroke-dasharray:none;stroke-dashoffset:0;marker:none;visibility:visible;display:inline;overflow:visible;enable-background:accumulate"
       d="m 544.38007,197.77982 c -0.45761,3.71047 -0.81571,7.426 -1.32187,11.16764 -0.6596,4.87606 0,10.42792 0,15.35551 0,11.21612 -1.21951,23.46559 1.32187,34.20092 1.34893,5.69814 -1.57038,20.15198 0,25.12722 2.48739,7.88042 10.57713,11.51778 17.84517,15.35549 1.06949,0.56473 3.99912,0 5.28745,0"
       id="path2850"
       sodipodi:nodetypes="cssssss" />
    <path
       style="fill:none;stroke:#94f3f3;stroke-width:4;stroke-linecap:round;stroke-linejoin:round;stroke-miterlimit:4;stroke-opacity:1;stroke-dasharray:none"
       d="m 513.3959,194.01119 c -5.57493,3.75806 -6.17759,6.51685 -12.79781,7.15693 -7.75186,0.74949 -15.22284,-2.18119 -21.79885,-4.95071 -12.3442,-5.1988 10.99638,-22.35055 -0.0338,-13.28145 -4.6311,3.80772 -6.22193,3.14912 -11.99163,3.38355 -6.17274,0.25079 -8.29642,0.38058 -10.34325,-8.25737 -2.18202,-9.20837 -2.28338,-19.02792 -0.53048,-28.21276 0.63355,-3.31965 5.07143,-6.67637 7.61624,-6.96726 11.77188,-1.34562 8.18098,0.64752 -1.95858,-3.63918 -4.92491,-2.08211 -18.34195,-9.96652 -11.18428,-15.63568 5.38828,-4.26772 13.40954,-6.58189 20.28201,-3.71336 3.06543,1.2795 8.47851,2.13371 9.79906,5.11936 4.17045,9.42903 2.2461,7.60092 1.32277,-2.68328 -0.50703,-5.64728 4.14158,-17.08417 6.09296,-18.41097 0.50219,-0.34145 3.98408,-4.590661 7.64068,-5.804051 4.13162,-1.37103 6.7415,2.311991 12.47332,8.097651 3.15908,3.18875 2.99312,9.5257 1.60913,-0.008 -0.0978,-0.67365 3.93119,-6.778691 4.85321,-8.091351 4.79747,-6.830045 9.41373,-7.235895 16.45222,-12.321695 6.58524,-4.758295 15.71316,-5.19443 22.71319,-3.77611 5.47436,1.109195 8.01228,9.95237 11.33761,15.260965 4.07044,6.498091 -4.29016,27.928751 0.28453,21.075331 1.51293,-2.26654 7.93569,-13.63002 12.93437,-19.249441 5.99962,-6.74467 11.15907,2.541631 16.1178,5.698541 6.65894,4.23931 12.36691,9.20706 14.74721,17.818 2.16295,7.82468 3.16337,16.93316 -4.90371,21.72868 -2.20482,1.31066 -17.88565,11.76776 -8.95287,6.75224 4.47636,-2.51336 10.87128,1.38261 14.48994,4.51697 4.46983,3.87161 7.92615,8.2674 8.5142,15.00636 0.72481,8.30614 -7.01742,11.93004 -13.85228,13.36251 -7.29362,1.5286 -19.10699,7.7638 -21.43549,6.63764 -5.55927,-2.68869 8.97961,7.54457 13.46494,11.59267 4.92313,4.44322 7.02194,14.87496 -1.30809,16.81426 -9.73681,2.26681 -20.41682,5.93835 -29.98881,2.68965 -6.9539,-2.36013 -12.26276,-8.85377 -15.44927,-15.14473 -1.47891,-2.91973 -2.41226,-18.3039 -4.102,-11.68725 -1.48945,5.83238 -8.43941,9.18945 -13.38547,12.85217 -8.31132,6.15479 -15.92018,-7.64371 -15.87985,-12.12514 0.0339,-3.76415 3.38396,-5.80547 -2.84884,-1.60394 z"
       id="path2827"
       sodipodi:nodetypes="cssssssssssssssssssssssssssssssssssssss" />
    <path
       style="fill:none;stroke:#008000;stroke-width:4;stroke-linecap:butt;stroke-linejoin:miter;stroke-miterlimit:4;stroke-opacity:1;stroke-dasharray:none"
       d="m 596.04655,300.27697 c -16.0724,2.85235 -32.51699,0.74525 -48.75392,1.4188 -14.37616,0.0908 -28.80033,2.62024 -43.02763,0.30789 -24.36176,-1.28535 -49.56307,-4.7536 -73.88124,-2.86949 -15.01216,0.031 -29.31971,-3.06277 -44.28087,-1.97222 -10.69172,-1.0527 -21.78872,-0.55305 -32.1887,2.57305 -5.57336,0.84195 -10.92178,3.0661 -16.66872,2.6633 -15.84327,1.04888 -30.395,-3.709 -43.63411,-3.61151 -15.17275,0.72003 -23.95011,0.17391 -42.07286,1.76778 -12.48313,0.3344 -37.40453,-3.23296 -49.49748,-1.76777 -18.98535,3.47206 -36.67036,0.82516 -48.08325,1.06065 -17.00853,-1.08526 -34.84278,0.35356 -58.68986,1.76777 -16.57516,0.69309 -32.94714,-3.27309 -49.43146,-2.12132 -16.61701,0.11422 -33.23402,0.81043 -49.85103,-1.76776"
       id="path4190"
       sodipodi:nodetypes="cccccccccccccc" />
    <path
       id="path5493"
       style="color:#000000;fill:none;stroke:#ff0000;stroke-width:4;stroke-linecap:round;stroke-linejoin:round;stroke-miterlimit:4;stroke-opacity:1;stroke-dasharray:none;stroke-dashoffset:0;marker:none;visibility:visible;display:inline;overflow:visible;enable-background:accumulate"
       d="m 411.1763,287.02352 c 1.31732,0.70703 3.48363,0.78237 6.87714,1.23781 4.26637,0.53378 5.2102,2.01883 8.49639,2.15584 3.67055,1.46063 5.80464,2.96324 10.49101,3.59407 m -35.83605,-1.14325 c 3.53614,0.16318 8.17078,1.07714 8.29425,-0.57154 0.81937,-6.06817 4.24186,-10.22 3.11097,-12.36211 -3.1946,-1.63972 -4.545,-3.16878 -6.75469,-4.99388"
       sodipodi:nodetypes="cccccccc" />
    <path
       id="path5493-4"
       style="color:#000000;fill:none;stroke:#ff0000;stroke-width:4;stroke-linecap:round;stroke-linejoin:round;stroke-miterlimit:4;stroke-opacity:1;stroke-dasharray:none;stroke-dashoffset:0;marker:none;visibility:visible;display:inline;overflow:visible;enable-background:accumulate"
       d="m 471.23964,289.4311 c -1.36862,0.60173 -3.53418,0.50727 -6.95293,0.6957 -4.29508,0.19816 -5.35224,1.60476 -8.63907,1.4841 -3.77362,1.16886 -6.01878,2.49979 -10.74012,2.76206 m 35.81558,1.66551 c -3.53805,-0.11419 -8.23003,0.43423 -8.22406,-1.21907 -0.34184,-6.1137 -3.4288,-10.5207 -2.13371,-12.5677 3.31315,-1.38462 4.7791,-2.80327 7.1249,-4.4498"
       sodipodi:nodetypes="cccccccc" />
    <path
       sodipodi:nodetypes="cssssssssssssssssssssssssssssssssssssss"
       id="path4623"
       d="m 303.27188,110.20175 c -6.7075,-0.46066 -8.61083,-2.54668 -14.6615,0.21493 -7.08494,3.23367 -12.08362,9.51201 -16.38838,15.20264 -8.08071,10.68217 20.71174,13.83804 6.62254,11.5126 -5.91546,-0.97634 -6.96254,0.39045 -12.07387,3.07719 -5.46839,2.87445 -7.37152,3.82571 -4.81698,12.32737 2.72322,9.06307 7.55344,17.61308 13.67073,24.68506 2.21095,2.556 7.73329,3.23875 10.08162,2.21601 10.86301,-4.73106 6.7567,-4.65777 0.1274,4.13078 -3.21995,4.26872 -10.88421,17.81272 -1.84963,19.13482 6.8012,0.99528 14.90297,-1.01902 19.41474,-6.94381 2.01245,-2.64274 6.26989,-6.09314 5.91757,-9.33873 -1.11266,-10.24993 -1.86269,-7.70385 2.48879,1.66001 2.38949,5.14191 12.14103,12.71286 14.49454,12.88395 0.60568,0.044 5.74756,1.97806 9.52021,1.19695 4.26275,-0.88256 4.67715,-5.37749 6.74064,-13.25592 1.13729,-4.34217 -2.18011,-9.74396 1.39678,-0.79898 0.25273,0.63206 6.79761,3.89839 8.25308,4.57277 7.57313,3.50898 11.77197,1.54828 20.41123,2.42516 8.08292,0.8204 16.20197,-3.37367 21.55046,-8.10713 4.18278,-3.7018 1.9505,-12.62703 2.17001,-18.88728 0.26869,-7.663 -17.70096,-22.02492 -10.30895,-18.38414 2.44467,1.20407 13.69505,7.82293 20.83602,10.18328 8.57089,2.833 8.38573,-7.78873 11.09665,-13.00467 3.64042,-7.00432 6.09291,-14.16287 3.84052,-22.80815 -2.04673,-7.85588 -5.74265,-16.24071 -15.12682,-16.35118 -2.56479,-0.0302 -21.3745,-1.22779 -11.13085,-1.36047 5.13326,-0.0665 8.71711,-6.641408 10.27943,-11.166676 1.9298,-5.58969 2.71985,-11.12548 -0.14626,-17.25285 -3.53264,-7.55234 -12.04885,-6.81142 -18.68214,-4.628165 -7.07853,2.329815 -20.42631,2.849505 -21.87771,4.990435 -3.46522,5.111445 3.99368,-11.027445 5.8485,-16.777655 2.03588,-6.311465 -1.37207,-16.39175 -9.55335,-13.898345 -9.56293,2.914495 -20.64578,5.08552 -27.3037,12.69138 -4.83687,5.52554 -6.1797,13.80492 -5.78704,20.845935 0.18224,3.26784 7.07928,17.05097 2.3029,12.170245 -4.21023,-4.302215 -11.90706,-3.72714 -18.0225,-4.420235 -10.27634,-1.164655 -9.95139,14.589321 -7.67203,18.447991 1.91454,3.24106 5.83653,3.33009 -1.6625,2.81508 z"
       style="fill:none;stroke:#94f3f3;stroke-width:4;stroke-linecap:round;stroke-linejoin:round;stroke-miterlimit:4;stroke-opacity:1;stroke-dasharray:none" />
    <path
       style="fill:none;stroke:#0000ff;stroke-width:4;stroke-linecap:round;stroke-linejoin:round;stroke-miterlimit:4;stroke-opacity:1;stroke-dasharray:none"
       d="m 296.05162,293.42104 c 3.17024,0.95034 6.34413,2.15666 9.68103,2.25367 3.71738,0.93002 7.67979,0.66803 11.29426,1.90732 3.63989,-0.96029 7.18774,1.07865 10.85952,0.58854 2.73352,0.0268 4.87616,0.612 7.68783,0.23002 1.1174,0.26813 1.93969,-0.55401 -0.44119,0.46142"
       id="path2909" />
    <path
       style="fill:none;stroke:#0000ff;stroke-width:4;stroke-linecap:round;stroke-linejoin:round;stroke-miterlimit:4;stroke-opacity:1;stroke-dasharray:none"
       d="m 279.38092,274.06685 c 1.62675,-1.70432 0.82362,-3.73163 0.57315,-5.21605 0.17288,-2.50585 -0.74346,-2.55551 -1.03637,-5.28234 -1.27086,-1.50198 -1.50888,-3.39076 -3.22802,-4.72533 -1.89851,-2.52293 -5.57289,-2.72812 -8.43265,-2.6173 -2.05098,0.43616 -4.09875,0.66654 -5.59264,2.29114 -1.0545,1.14756 -2.60855,2.04792 -3.26675,3.3916 0.064,2.52301 -1.98301,5.42059 -1.5716,7.32398 1.17661,1.43886 2.45565,2.7673 3.46854,4.28412 1.87048,2.01342 3.74025,4.02753 5.61073,6.04082 1.44432,0.01 2.87542,0.80148 3.96768,0.21784 0.94528,0.046 1.94293,-1.29087 2.92821,-1.52346 2.3147,-0.84668 4.17304,-2.91705 6.57972,-4.18502 z"
       id="path2905" />
    <path
       style="fill:none;stroke:#0000ff;stroke-width:4;stroke-linecap:round;stroke-linejoin:round;stroke-miterlimit:4;stroke-opacity:1;stroke-dasharray:none"
       d="m 268.18461,280.423 c 2.52971,0.21479 4.92166,2.85649 6.04314,2.42946 3.34397,1.96251 7.0579,3.29478 10.37277,5.29949 2.76512,1.90939 6.02972,2.63957 8.86213,3.90401 1.47103,0.40322 2.94199,0.80641 4.41292,1.20959"
       id="path2907" />
    <path
       style="fill:none;stroke:#0000ff;stroke-width:4;stroke-linecap:round;stroke-linejoin:round;stroke-miterlimit:4;stroke-opacity:1;stroke-dasharray:none"
       d="m 296.29311,293.33806 c 2.15633,-0.30109 6.9406,-0.75839 10.20654,-1.22202 4.3862,0.14378 7.89889,-1.6173 12.18509,-1.66982 3.11438,-1.01166 6.20864,-1.31363 9.72886,-1.67865 2.08585,-0.5456 6.173,1.0302 6.96105,0.35288 0.25858,-0.11196 2.59047,0.15555 1.30262,0.37382"
       id="path2881" />
    <path
       style="fill:none;stroke:#80ff00;stroke-width:3.99999976;stroke-linecap:round;stroke-linejoin:round;stroke-miterlimit:4;stroke-opacity:1;stroke-dasharray:none"
       d="m 233.24684,261.6297 c -6.26789,0.0848 -11.19207,-1.27907 -17.22869,-1.91156 -12.41424,-0.10766 -22.24009,1.11011 -34.52007,-0.29138 -7.70508,0.92225 -17.67985,-1.15164 -24.70778,-0.94759 -6.44598,0.0712 -17.42669,-1.04014 -23.4372,0.46267"
       id="path2952-1-7" />
    <path
       style="fill:none;stroke:#80ff00;stroke-width:3.99999976;stroke-linecap:round;stroke-linejoin:round;stroke-miterlimit:4;stroke-opacity:1;stroke-dasharray:none"
       d="m 197.00831,295.65072 c 0.49369,-4.27591 0.60917,-8.65688 3.07657,-12.6168 2.42592,-5.02481 4.50565,-10.21623 7.68251,-15.06272 1.42213,-3.26709 3.53061,-11.64711 5.61228,-5.19469 3.50313,4.29459 6.26691,8.74556 7.85222,13.67087 2.15512,4.97939 5.01241,10.45336 5.91824,15.24598 -0.73034,1.43993 1.21381,2.32238 0.74176,3.76261"
       id="path2956-4" />
    <path
       style="fill:none;stroke:#80ff00;stroke-width:3.99999976;stroke-linecap:round;stroke-linejoin:round;stroke-miterlimit:4;stroke-opacity:1;stroke-dasharray:none"
       d="m 120.94071,295.94091 c 0.22892,-0.73533 1.45913,-4.68603 2.06875,-6.64365 1.99051,-6.14366 6.09987,-7.92946 10.10347,-15.22938 1.60372,-4.37305 7.18377,-12.50817 8.45439,-14.71755 1.55823,4.85543 2.8937,9.79995 4.50655,14.62964 1.90828,7.49368 5.31699,14.24137 11.77059,19.49174 0.94385,0.55792 3.22609,1.08576 1.92245,2.63977"
       id="path2958-0" />
    <path
       id="path2911"
       style="fill:none;stroke:#0000ff;stroke-width:4;stroke-linecap:round;stroke-linejoin:round;stroke-miterlimit:4;stroke-opacity:1;stroke-dasharray:none"
       d="m 294.7547,295.70245 c -2.72983,-0.22211 -6.35484,-0.62792 -8.55697,-1.13065 -4.40328,-1.00523 -5.84044,-1.74462 -8.4986,-4.16476 -1.65766,-1.26535 -2.75294,-2.86074 -4.5393,-5.63593 -0.54268,-0.26288 -0.78591,-0.94715 -1.78263,-2.15736 0.27272,-0.1092 0.84511,-1.7859 1.31475,-1.86074 2.27035,-0.36183 6.63285,0.67579 11.26801,1.92188 2.2829,-0.27623 5.72735,0.63923 10.22829,1.95456 1.07681,-0.0303 2.69902,0.9019 4.33012,0.7487"
       sodipodi:nodetypes="cscccsccc" />
    <path
       style="color:#000000;fill:none;stroke:#80ff00;stroke-width:3.99999976;stroke-linecap:round;stroke-linejoin:round;stroke-miterlimit:4;stroke-opacity:1;stroke-dasharray:none;stroke-dashoffset:0;marker:none;visibility:visible;display:inline;overflow:visible;enable-background:accumulate"
       d="m 228.19454,250.30232 c 0.16028,-1.29103 5.3167,-0.0235 7.62285,-0.21075 1.87415,-0.15211 3.74182,-0.6009 5.59897,-0.54873 2.0599,0.0579 4.35766,0.35771 6.4178,0.32503 3.09256,-0.0491 5.95288,-0.35828 9.04855,-0.62725 1.51345,-0.13149 2.84884,-0.87971 4.31145,-0.53921 1.81619,0.42299 5.00787,-0.6079 5.50351,0.58747 0.46079,1.11105 -2.32721,2.5069 -2.97337,4.0717 -0.27011,0.65411 -1.97642,1.36859 -2.52778,1.57502 -0.95446,0.35727 -3.35337,2.54126 -4.78321,2.14678 -0.68973,-0.19026 -5.65101,3.98511 -6.30604,4.60698 -1.54822,1.46987 -7.12343,4.11484 -6.9989,4.66592 0.29019,1.28304 4.37729,3.72658 5.47729,3.68201 0.76944,-0.0311 2.65724,1.99103 4.93537,3.23491 2.44499,1.33509 7.24267,5.13781 7.2879,5.60538 0.21042,2.17383 -4.13892,0.84824 -5.06401,0.84214 -2.53062,-0.0168 -3.62029,-1.89269 -5.72239,-3.18135 -2.52045,-1.54518 -5.26061,-3.0027 -8.02844,-4.19226 -2.28763,-0.98319 -2.67321,0.42661 -3.00003,-0.59108 -0.60486,-1.88342 -1.55771,-3.62255 -2.26397,-5.46473 -0.61043,-1.59211 -1.92584,-2.84099 -2.41917,-4.53463 -0.53337,-1.83093 -1.0601,-3.73045 -2.01201,-5.37707 -0.91132,-1.57649 -1.94162,-3.11959 -3.06272,-4.58919 -0.5509,-0.72213 -1.12233,-0.83572 -1.04147,-1.48737 l -1e-5,0 z"
       id="path2870-1"
       sodipodi:nodetypes="cssssssssssssssssssssssss"
       inkscape:transform-center-x="-13.356998"
       inkscape:transform-center-y="3.3694332" />
    <path
       style="color:#000000;fill:none;stroke:#94f3f3;stroke-width:4;stroke-linecap:round;stroke-linejoin:round;stroke-miterlimit:4;stroke-opacity:1;stroke-dasharray:none;stroke-dashoffset:0;marker:none;visibility:visible;display:inline;overflow:visible;enable-background:accumulate"
       d="m 172.055,84.886998 c 2.57632,-16.498984 -5.0198,-24.192786 -7.07106,-23.334519 -10.92369,-3.636124 -21.68761,-6.8482 -33.23403,3.535538 -4.35997,6.479722 -6.22478,9.905646 -8.37721,17.833521 0.77675,4.56965 3.78363,10.63504 10.49854,19.643132 -13.03896,-4.866202 -18.78656,-2.09372 -24.28427,4.32843 -6.33822,6.74958 -9.29028,14.74916 -8.94975,23.24874 3.5777,10.3091 10.6621,13.59608 31.8198,9.89949 -23.04344,15.40086 -21.70041,15.27242 -18.38477,31.81981 11.11488,10.71209 0.62441,13.42982 38.18376,13.43503 4.13335,-1.61567 8.30944,-3.06039 10.6066,-12.02082 -3.86663,11.61848 8.10309,22.88526 22.62742,22.62741 19.49351,-5.90418 19.06133,-15.12932 16.26346,-24.74873 4.03302,5.00721 7.00235,13.32435 23.46686,14.74647 8.47902,4.58724 18.21427,1.5163 24.1164,-3.93276 3.19547,-5.78185 3.35571,-11.4364 1.93235,-20.70487 -3.86646,-13.61008 -21.74399,-13.18217 -29.71659,-18.3931 20.1648,2.26071 40.12503,-2.38107 40.30508,-14.14215 1.93499,-14.42091 -6.47679,-23.3845 -49.49747,-9.89949 22.12262,-16.10985 25.20372,-12.61617 28.28427,-28.991382 -3.24759,-5.34777 -4.10414,-5.9951 -16.26346,-7.77817 -9.98136,4.28357 -16.4158,7.50079 -21.92031,12.72792 l -2.82842,0 c 9.21727,-10.40294 20.15348,-12.15381 6.36396,-26.870058 -9.90287,-2.219654 -29.58952,2.605102 -33.94113,16.970558 l -3e-5,0 z"
       id="path2903"
       sodipodi:nodetypes="cccccccccccccccccccccccccc" />
    <path
       style="fill:none;stroke:#80ff00;stroke-width:3.99999976;stroke-linecap:round;stroke-linejoin:round;stroke-miterlimit:4;stroke-opacity:1;stroke-dasharray:none"
       d="m 0.75081,182.20123 c 5.88694,6.02434 10.43124,12.59129 15.39997,18.98027 4.41002,5.99737 6.2258,12.06078 8.89992,19.84747 1.60294,7.50173 5.56941,15.85857 12.16896,23.43018 5.69405,6.26399 12.40353,11.36587 20.48512,14.83644 4.48175,2.25632 8.92136,4.82568 13.80297,5.00765 10.9144,1.9921 21.35644,0.91851 32.34178,3.43759 4.63225,0.31641 10.20117,0.73139 11.17713,0.72618 8.18666,1.98204 14.37605,-4.25057 16.37833,-7.67185 -0.53215,0.12578 0.97501,-1.70148 1.54315,-1.69785"
       id="path4123" />
  </g>
</svg>
