<?xml version="1.0" encoding="UTF-8" standalone="no"?>
<!-- Created with Inkscape (http://www.inkscape.org/) -->

<svg
   xmlns:dc="http://purl.org/dc/elements/1.1/"
   xmlns:cc="http://creativecommons.org/ns#"
   xmlns:rdf="http://www.w3.org/1999/02/22-rdf-syntax-ns#"
   xmlns:svg="http://www.w3.org/2000/svg"
   xmlns="http://www.w3.org/2000/svg"
   xmlns:sodipodi="http://sodipodi.sourceforge.net/DTD/sodipodi-0.dtd"
   xmlns:inkscape="http://www.inkscape.org/namespaces/inkscape"
   width="480"
   height="320"
   id="svg2"
   version="1.1"
   inkscape:version="0.47 r22583"
   sodipodi:docname="itnas236.svg"
   inkscape:export-xdpi="90"
   inkscape:export-ydpi="90"
   inkscape:export-filename="itnas236.png">
  <defs
     id="defs4" />
  <sodipodi:namedview
     id="base"
     pagecolor="#ffffff"
     bordercolor="#666666"
     borderopacity="1.0"
     inkscape:pageopacity="1"
     inkscape:pageshadow="2"
     inkscape:zoom="1.4142136"
     inkscape:cx="244.24721"
     inkscape:cy="165.98171"
     inkscape:document-units="px"
     inkscape:current-layer="layer1"
     showgrid="false"
     inkscape:snap-nodes="true"
     inkscape:snap-global="false"
     inkscape:snap-grids="true"
     showguides="true"
     inkscape:window-width="1280"
     inkscape:window-height="774"
     inkscape:window-x="1276"
     inkscape:window-y="1020"
     inkscape:window-maximized="1"
     inkscape:object-nodes="true">
    <inkscape:grid
       empspacing="5"
       visible="true"
       enabled="true"
       snapvisiblegridlinesonly="true"
       type="xygrid"
       id="grid2816" />
  </sodipodi:namedview>
  <metadata
     id="metadata7">
    <rdf:RDF>
      <cc:Work
         rdf:about="">
        <dc:format>image/svg+xml</dc:format>
        <dc:type
           rdf:resource="http://purl.org/dc/dcmitype/StillImage" />
        <dc:title></dc:title>
      </cc:Work>
    </rdf:RDF>
  </metadata>
  <g
     inkscape:label="Layer 1"
     inkscape:groupmode="layer"
     id="layer1"
     transform="translate(0,0)">
    <path
       style="color:#000000;fill:none;stroke:#c87137;stroke-width:3.99999905;stroke-linecap:round;stroke-linejoin:round;stroke-miterlimit:4;stroke-opacity:1;stroke-dasharray:none;stroke-dashoffset:0;marker:none;visibility:visible;display:inline;overflow:visible;enable-background:accumulate"
       d="m -11.744881,130.1668 c 0.892673,5.16719 0.439695,7.34315 -0.09467,12.53537 -0.723846,7.0327 0.132689,11.21877 0.781896,18.16707 1.2901604,13.80857 -0.373922,20.83889 -0.653619,31.39513 -0.140281,5.29581 0.46637,11.87373 0.295101,17.2493 -0.241626,7.58377 -0.953265,15.45401 -0.733095,23.03542"
       id="path2857"
       sodipodi:nodetypes="cssssc" />
    <path
       style="color:#000000;fill:none;stroke:#c87137;stroke-width:3.99999928;stroke-linecap:round;stroke-linejoin:round;stroke-miterlimit:4;stroke-opacity:1;stroke-dasharray:none;stroke-dashoffset:0;marker:none;visibility:visible;display:inline;overflow:visible;enable-background:accumulate"
       d="m -47.157234,232.20847 c 0.33931,-3.62014 0.59916,-7.2447 0.97703,-10.89537 0.4924,-4.75759 -1.4643,-9.42903 -1.49872,-14.23377 -0.0783,-10.93681 2.20094,-23.62575 0.0976,-34.08228 -1.1164,-5.55007 -0.8538,-10.96652 -0.11436,-15.96921 -0.27017,-9.12439 1.44627,-14.41416 -0.0764,-23.74932"
       id="path2860"
       sodipodi:nodetypes="cssscc" />
    <path
       sodipodi:nodetypes="ccccccccccccccccsc"
       id="path2862"
       d="m -27.877541,-119.03196 c -0.172711,0.41403 -0.341771,0.83109 -0.512721,1.2447 -6.481244,8.10077 -12.849652,27.177252 -19.249982,46.576607 -7.25382,18.416337 -13.90368,36.945992 -19.14186,56.069852 -4.79398,12.6253911 -7.75698,25.480368 -13.89685,37.573277 -4.83447,23.973513 -15.28374,44.297284 -22.979206,69.390956 -4.55807,11.585448 -8.69,13.495088 -15.92564,34.460138 12.84852,3.66632 25.498636,3.70751 38.876846,4.3073 21.46465,1.58241 42.540976,-0.004 63.960023,-1.04183 10.1414624,-0.6739 28.873875,0.34508 43.470371,1.31705 4.213231,1.19816 14.123546,0.10875 23.298322,-2.41478 C 49.692695,110.90442 35.923586,89.825135 28.023229,65.803565 21.896711,46.961629 20.780149,39.723439 19.290167,28.718512 13.274941,12.413386 11.973601,-6.6746699 6.0617894,-25.285985 -9.3697116,-49.073459 -12.203713,-67.369363 -18.163357,-90.645138 c -1.328043,-7.3904 -2.682138,-18.629022 -9.351241,-28.148532 -0.06705,0.0727 -0.132154,0.16624 -0.198809,0.24154 -0.05489,-0.16519 -0.107995,-0.31273 -0.163966,-0.47976 z"
       style="color:#000000;fill:none;stroke:#94f3f3;stroke-width:4;stroke-linecap:round;stroke-linejoin:round;stroke-miterlimit:4;stroke-opacity:1;stroke-dasharray:none;stroke-dashoffset:0;marker:none;visibility:visible;display:inline;overflow:visible;enable-background:accumulate" />
    <path
       style="color:#000000;fill:none;stroke:#c87137;stroke-width:3.99999952;stroke-linecap:round;stroke-linejoin:round;stroke-miterlimit:4;stroke-opacity:1;stroke-dasharray:none;stroke-dashoffset:0;marker:none;visibility:visible;display:inline;overflow:visible;enable-background:accumulate"
       d="m 126.68102,232.54443 c 0.88773,-4.72589 0.4936,-6.69569 0.0595,-11.40938 -0.58806,-6.38449 0.2547,-10.21635 0.93776,-16.55772 1.35746,-12.60243 -0.10175,-18.96171 -0.23696,-28.56483 -0.0678,-4.81763 0.5715,-10.82077 0.47594,-15.71026 -0.13482,-6.89807 -1.52236,-9.89217 -1.22934,-16.79938 0.0973,-7.2155 0.73021,-7.88818 0.70462,-14.99873"
       id="path2832"
       sodipodi:nodetypes="csssscc" />
    <path
       style="color:#000000;fill:none;stroke:#c87137;stroke-width:3.99999976;stroke-linecap:round;stroke-linejoin:round;stroke-miterlimit:4;stroke-opacity:1;stroke-dasharray:none;stroke-dashoffset:0;marker:none;visibility:visible;display:inline;overflow:visible;enable-background:accumulate"
       d="m 90.38648,131.41024 c 0.36449,3.69143 0.64971,7.38785 1.05287,11.11022 0.52538,4.85105 -1.39387,9.62827 -1.39387,14.53045 0,11.15857 2.36521,24.09117 0.341,34.77142 -1.07441,5.66883 -0.77365,11.19335 0,16.29305 -0.2044,9.31058 1.54629,14.6975 0.0935,24.23035"
       id="path2850"
       sodipodi:nodetypes="cssscc" />
    <path
       style="color:#000000;fill:none;stroke:#c87137;stroke-width:3.99999976;stroke-linecap:round;stroke-linejoin:round;stroke-miterlimit:4;stroke-opacity:1;stroke-dasharray:none;stroke-dashoffset:0;marker:none;visibility:visible;display:inline;overflow:visible;enable-background:accumulate"
       d="m 417.12132,197.79394 c -6.07739,-1.15478 -13.21759,-5.43518 -17,-1 -7.46431,4.53941 -7.90991,8.62257 -8,12"
       id="path4395"
       sodipodi:nodetypes="ccc" />
    <path
       style="color:#000000;fill:none;stroke:#c87137;stroke-width:3.99999976;stroke-linecap:round;stroke-linejoin:round;stroke-miterlimit:4;stroke-opacity:1;stroke-dasharray:none;stroke-dashoffset:0;marker:none;visibility:visible;display:inline;overflow:visible;enable-background:accumulate"
       d="m 422.88868,212.26577 -12.58997,6.78176 c -4.03017,6.34685 -0.36323,8.12833 -6.17862,13.11772"
       id="path4397"
       sodipodi:nodetypes="ccc" />
    <path
       sodipodi:nodetypes="cssssc"
       id="path4261"
       d="m 558.39023,153.7977 c -3.22418,3.91307 -5.11883,4.92941 -9.2858,7.77096 -5.64407,3.84873 -8.16967,7.1204 -12.86223,11.96238 -9.32568,9.62259 -15.57705,12.75352 -23.5263,19.14521 -3.98793,3.20659 -8.4355,7.78441 -12.50219,11.01729 -5.73723,4.5609 -11.98972,8.94296 -17.42608,13.8542"
       style="color:#000000;fill:none;stroke:#c87137;stroke-width:3.99999905;stroke-linecap:round;stroke-linejoin:round;stroke-miterlimit:4;stroke-opacity:1;stroke-dasharray:none;stroke-dashoffset:0;marker:none;visibility:visible;display:inline;overflow:visible;enable-background:accumulate" />
    <path
       sodipodi:nodetypes="cssscc"
       id="path4263"
       d="m 457.7115,192.91716 c 2.97778,-2.08647 5.90746,-4.23634 8.93348,-6.3132 3.94351,-2.70664 6.23496,-7.2233 9.87314,-10.36183 8.28146,-7.14405 19.42488,-13.62697 26.02873,-22.00266 3.50514,-4.44563 7.80174,-7.75411 12.09201,-10.4313 6.77638,-6.11622 11.91821,-8.23504 18.04388,-15.44196"
       style="color:#000000;fill:none;stroke:#c87137;stroke-width:3.99999928;stroke-linecap:round;stroke-linejoin:round;stroke-miterlimit:4;stroke-opacity:1;stroke-dasharray:none;stroke-dashoffset:0;marker:none;visibility:visible;display:inline;overflow:visible;enable-background:accumulate" />
    <path
       style="color:#000000;fill:none;stroke:#c87137;stroke-width:4;stroke-linecap:round;stroke-linejoin:round;stroke-miterlimit:4;stroke-opacity:1;stroke-dasharray:none;stroke-dashoffset:0;marker:none;visibility:visible;display:inline;overflow:visible;enable-background:accumulate"
       d="m 370.01073,235.57576 c 1.07583,-10.44062 0.43168,-23.03949 1.73983,-36.21067 0.5237,-15.15868 -2.43035,-27.18031 -2.0298,-42.88107 0.43495,-10.98597 -0.4905,-18.326 2.31978,-26.04625"
       id="path4281"
       sodipodi:nodetypes="cccc" />
    <path
       style="color:#000000;fill:none;stroke:#c87137;stroke-width:3.99999928;stroke-linecap:round;stroke-linejoin:round;stroke-miterlimit:4;stroke-opacity:1;stroke-dasharray:none;stroke-dashoffset:0;marker:none;visibility:visible;display:inline;overflow:visible;enable-background:accumulate"
       d="m 337.56372,130.18044 c -2.29912,15.958 0.58707,18.17117 0.64074,31.18779 -0.65996,10.10028 -1.73579,19.65931 0,27.93905 -1.0679,19.8263 -0.85433,19.24876 -1.92223,26.63956 -0.83269,9.04157 0.52377,15.45725 1.28149,20.46698"
       id="path4277"
       sodipodi:nodetypes="ccccc" />
    <path
       sodipodi:nodetypes="cccc"
       id="path4306"
       d="m 224.10994,133.84356 c -1.18863,9.9207 -0.47693,21.89219 -1.92225,34.40748 -0.57859,14.4038 2.68516,25.82678 2.24262,40.74568 -0.48054,10.43889 0.54193,17.41342 -2.56299,24.74924"
       style="color:#000000;fill:none;stroke:#c87137;stroke-width:3.99999928;stroke-linecap:round;stroke-linejoin:round;stroke-miterlimit:4;stroke-opacity:1;stroke-dasharray:none;stroke-dashoffset:0;marker:none;visibility:visible;display:inline;overflow:visible;enable-background:accumulate" />
    <path
       sodipodi:nodetypes="ccccc"
       id="path4308"
       d="m 256.49538,232.78416 c 2.15804,-15.27693 -0.55104,-17.39564 -0.60143,-29.85673 0.61948,-9.66921 1.62928,-18.82027 0,-26.74665 1.00239,-18.98012 0.80191,-18.42724 1.8043,-25.5026 0.78158,-8.65571 -0.49164,-14.79756 -1.20287,-19.59347"
       style="color:#000000;fill:none;stroke:#c87137;stroke-width:3.99999928;stroke-linecap:round;stroke-linejoin:round;stroke-miterlimit:4;stroke-opacity:1;stroke-dasharray:none;stroke-dashoffset:0;marker:none;visibility:visible;display:inline;overflow:visible;enable-background:accumulate" />
    <path
       style="color:#000000;fill:none;stroke:#94f3f3;stroke-width:4;stroke-linecap:round;stroke-linejoin:round;stroke-miterlimit:4;stroke-opacity:1;stroke-dasharray:none;stroke-dashoffset:0;marker:none;visibility:visible;display:inline;overflow:visible;enable-background:accumulate"
       d="m 114.74072,-117.71355 c -9.13586,9.9354 -18.27173,42.368715 -27.40759,67.942265 -10.54055,18.51859 -12.1478,46.0378208 -26.64627,73.28604 -3.67543,17.66672 -10.37113,44.6125 -23.41899,69.391036 -4.63139,11.583359 -8.7993,13.463879 -16.16976,34.430829 24.85224,4.6466 43.6158,-0.36575 63.95105,3.81699 l 44.91799,-3.81698 60.14442,3.05358 c -5.58303,-8.39978 -11.16605,-20.49233 -16.74908,-48.093955 -17.85942,-46.95334 -10.14451,-37.22815 -12.94247,-51.91093 -5.88621,-16.37243 -7.06826,-35.5183792 -12.83479,-54.20114 -6.09057,-10.74082 -17.61807,-41.6743 -23.70866,-65.65208 -1.27246,-7.412985 -2.54862,-18.669025 -9.13586,-28.245655 z"
       id="path4156"
       sodipodi:nodetypes="ccccccccccccc" />
    <path
       sodipodi:nodetypes="cccccscccccccc"
       id="path4265"
       d="m 323.32597,128.8232 c -0.20298,-17.5846 -16.33526,-52.913845 -24.04753,-77.029135 -3.62216,-23.2348 -16.03309,-37.09088 -21.86823,-69.79196 -6.6457,-12.78304 -16.23701,-33.88287 -21.61152,-63.41923 -3.24655,-11.64845 -2.06559,-18.563175 -8.44857,-38.158495 -6.4702,15.27702 -11.72626,30.263585 -17.95004,43.246325 -14.13066,29.47626 -9.05714,33.47911 -15.85836,49.20776 -11.53346,20.551911 -12.93891,33.9216505 -15.50009,46.45739 -7.68899,16.69842 -13.68063,35.40091 -18.80662,55.31056 -2.06258,9.45143 -11.47211,27.390185 -17.85792,53.058335 6.82503,4.93103 15.42332,-0.79852 31.4689,2.51778 21.40875,1.707 42.46087,0.25897 63.84278,-0.65954 10.1252,-0.61795 28.8207,0.48566 43.37993,1.54211 4.1959,1.22443 14.08353,0.1949 23.25727,-2.2819 z"
       style="color:#000000;fill:none;stroke:#94f3f3;stroke-width:3.99999928;stroke-linecap:round;stroke-linejoin:round;stroke-miterlimit:4;stroke-opacity:1;stroke-dasharray:none;stroke-dashoffset:0;marker:none;visibility:visible;display:inline;overflow:visible;enable-background:accumulate" />
    <path
       style="color:#000000;fill:none;stroke:#94f3f3;stroke-width:4;stroke-linecap:round;stroke-linejoin:round;stroke-miterlimit:4;stroke-opacity:1;stroke-dasharray:none;stroke-dashoffset:0;marker:none;visibility:visible;display:inline;overflow:visible;enable-background:accumulate"
       d="m 368.18273,-118.47094 c -0.21856,0.24554 -0.46223,0.49202 -0.68079,0.76267 -6.23243,14.84654 -11.91294,23.986425 -15.49809,37.531315 -3.81343,14.4073 -10.66872,21.7276 -14.89739,35.20316 -4.39056,11.60014 -6.44829,23.81633 -9.29085,31.991921 -9.81559,22.5560695 -12.50114,32.884619 -18.58169,56.838859 -1.91508,12.61067 -5.9136,22.15568 -9.33089,31.42996 -2.03848,9.34103 -11.24093,26.992805 -17.62056,52.182555 21.20235,2.54356 38.16833,-1.05773 56.38581,2.6894 18.0382,-0.34407 37.69808,0.93735 52.62143,-2.52884 17.48707,-0.36155 34.97415,0.41964 52.46122,1.76618 -5.58302,-8.39979 -7.95277,-19.84436 -13.53579,-47.445985 -16.15152,-42.46319 -14.60779,-39.28402 -15.61823,-49.01147 -5.24861,-13.9805 -12.48839,-27.5938795 -16.53931,-50.29596 -6.64571,-12.78305 -13.00694,-30.03205 -18.38146,-59.56841 -3.21874,-11.54873 -5.29258,-22.331745 -11.49341,-41.545355 z"
       id="path4267"
       sodipodi:nodetypes="ccsccccccccccccc" />
    <path
       style="color:#000000;fill:none;stroke:#94f3f3;stroke-width:4;stroke-linecap:round;stroke-linejoin:round;stroke-miterlimit:4;stroke-opacity:1;stroke-dasharray:none;stroke-dashoffset:0;marker:none;visibility:visible;display:inline;overflow:visible;enable-background:accumulate"
       d="m 737.79143,-19.913236 c -0.4273,0.13661 -0.85455,0.27797 -1.28039,0.41565 -10.36982,0.30962 -29.02835,7.8148 -47.95355,15.5048003 -18.72914,6.40302 -37.15339,13.33957 -55.11591,21.7364997 -12.72395,4.52591 -24.43678,10.59546 -37.62687,13.75109 -21.3957,11.8459 -43.64789,17.05003 -67.75022,27.44187 -11.77886,4.03201 -15.9102,2.1211 -36.5693,10.18891 5.52955,12.16349 13.69238,21.82762 21.90127,32.408286 12.69833,17.37779 27.55955,32.40688 42.22429,48.05288 7.08261,7.28972 18.44036,22.221 27.15486,33.97089 1.81634,3.98595 9.06578,10.83042 16.93135,16.18556 13.15489,-11.61683 20.29503,-35.76104 33.47827,-57.34005 10.38617,-16.87247 15.1773,-22.41171 22.59622,-30.67537 8.5256,-15.144446 22.22482,-28.500296 32.57437,-45.059806 8.12654,-27.16495 20.22947,-41.17533 34.10164,-60.7927197 4.7701,-5.79895 12.45508,-14.1104603 15.38753,-25.3576303 -0.0988,-0.004 -0.21225,0.007 -0.3128,0.005 0.0903,-0.14882 0.1683,-0.28485 0.2593,-0.43569 z"
       id="path4271"
       sodipodi:nodetypes="ccccccccccccccccsc" />
    <path
       style="color:#000000;fill:none;stroke:#c87137;stroke-width:3.99999976;stroke-linecap:round;stroke-linejoin:round;stroke-miterlimit:4;stroke-opacity:1;stroke-dasharray:none;stroke-dashoffset:0;marker:none;visibility:visible;display:inline;overflow:visible;enable-background:accumulate"
       d="m 448.70101,237.58683 c -0.50217,3.5 -0.90508,8.5 -4,12 -5.33333,3.80165 -10.66667,5.94909 -16,8.5"
       id="path4399"
       sodipodi:nodetypes="ccc" />
    <path
       sodipodi:nodetypes="ccc"
       id="path4461"
       d="m 475.29769,241.14529 c -2.36335,3.49401 -0.83721,9.92628 -2.48823,15.19995 -1.67228,4.88267 -5.23097,9.28885 -11.74484,13.18313"
       style="color:#000000;fill:none;stroke:#c87137;stroke-width:3.99999976;stroke-linecap:round;stroke-linejoin:round;stroke-miterlimit:4;stroke-opacity:1;stroke-dasharray:none;stroke-dashoffset:0;marker:none;visibility:visible;display:inline;overflow:visible;enable-background:accumulate" />
    <path
       id="path2949"
       style="color:#000000;fill:none;stroke:#008000;stroke-width:4;stroke-linecap:butt;stroke-linejoin:round;stroke-miterlimit:4;stroke-opacity:1;stroke-dasharray:none;stroke-dashoffset:0;marker:none;visibility:visible;display:inline;overflow:visible;enable-background:accumulate"
       d="m 570.49868,229.78113 c -12.42187,0.5371 -24.62844,-3.5085 -35.42395,-5.45162 -12.3918,2.00266 -25.63041,-3.61082 -52.75322,-5.70238 -17.73348,-8.58285 -24.71193,-17.62191 -29.79467,-39.19352 -5.64845,-12.68647 -25.92908,-5.80945 -33.63465,-10.65019 -11.51607,0.35129 -6.94074,9.93116 -4.64962,21.95626 4.58321,8.89446 6.56437,15.89097 9.87875,21.05426 2.90817,8.95678 15.03138,18.75515 25,25 20.77059,5.93961 45.92521,0.80761 55.59188,13.80761 1.33147,1.31258 12.88632,17.52626 18.52535,14.84741 2.95709,-1.40478 14.00362,-4.44309 21.06436,1.89174 4.51436,4.05023 8.37774,16.19182 7.33232,22.30206 -0.92721,5.41943 -5.57463,4.46132 -9.32365,5.72359 -3.69819,1.24516 -20.04469,-0.41221 -25.93598,-2.48652 -5.5577,-1.95686 -15.59379,5.72847 -18.35924,6.78955 -3.75199,2.90691 -8.58549,5.01434 -14.1034,5.77836 -21.43707,3.18725 -42.5376,-7.80396 -50.02471,-6.99001 -17.37288,1.76733 -16.94407,0.77535 -30.75042,-10.90644 -10.99698,-8.19012 -16.03203,-4.58138 -25.89477,-17.5673 -7.74974,-7.92781 -18.58327,-19.00703 -23.53947,-26.3021 -3.98659,-5.89832 -30.24386,-6.83403 -50.56778,-8.2406 -32.27473,4.50562 -43.90856,-2.70998 -69.68452,-0.31785 -18.55264,-0.42023 -36.63929,3.27645 -56.99029,0.28013 -16.50945,-0.69663 -34.44053,-2.35634 -51.47675,-2.0191 -17.16834,0.91737 -31.387784,-0.22629 -50.287425,2.57187 C 63.609915,233.50195 26.756978,232.56321 0,234.44008 c -18.856181,-1.01876 -37.712362,-0.36908 -56.568543,0"
       sodipodi:nodetypes="cccccccccccsssssccccccccccc" />
    <path
       sodipodi:nodetypes="csc"
       id="path4211"
       d="m 234.27849,226.27908 c 12.54406,-4.0367 6.17238,0.50136 17.16335,-3.51117 6.08881,-2.22287 0.94701,0.41299 13.27236,-1.67744"
       style="fill:none;stroke:#c87137;stroke-width:3.99999976;stroke-linecap:round;stroke-linejoin:round;stroke-miterlimit:4;stroke-opacity:1;stroke-dasharray:none" />
    <path
       style="color:#000000;fill:none;stroke:#80ff00;stroke-width:4;stroke-linecap:round;stroke-linejoin:round;stroke-miterlimit:4;stroke-opacity:1;stroke-dasharray:none;stroke-dashoffset:0;marker:none;visibility:visible;display:inline;overflow:visible;enable-background:accumulate"
       d="m 243.90356,195.49418 c 4.76817,0.25266 11.38489,9.60078 15.22966,15.21835 9.78915,11.34776 4.53244,12.95349 15.71836,20.24001 5.51246,3.89392 12.961,13.54031 18.26603,17.67944 0.57695,2.28409 8.80556,7.11932 20.00411,8.89137"
       id="path2833-1"
       sodipodi:nodetypes="ccccc" />
    <path
       style="color:#000000;fill:none;stroke:#008000;stroke-width:4;stroke-linecap:round;stroke-linejoin:round;stroke-miterlimit:4;stroke-opacity:1;stroke-dasharray:none;stroke-dashoffset:0;marker:none;visibility:visible;display:inline;overflow:visible;enable-background:accumulate"
       d="m 397.38561,274.03932 c -1.78781,-4.90498 -7.02762,-8.57462 -13.38798,-9.92345 -12.642,3.54287 -26.84889,20.46489 -41.40975,21.29477 -13.78888,5.21713 -42.30509,10.37868 -62.81119,11.08579 0,0 -21.40532,1.69918 -38.18376,0.70711 -14.30625,-0.74038 -15.14214,2 -24.33453,1.29289 -21.2132,-2.82843 -76.78174,0.82842 -102.94469,1.53553 -19.500002,1.48825 -28.298125,-0.23926 -41.012195,-2.74687 -32.1507,0.64922 -66.8094482,-0.71856 -98.050252,2.91592"
       id="path7075"
       sodipodi:nodetypes="ccccccccc" />
    <path
       style="fill:none;stroke:#80ff00;stroke-width:3.99999976;stroke-linecap:round;stroke-linejoin:round;stroke-miterlimit:4;stroke-opacity:1;stroke-dasharray:none"
       d="m 445.69164,124.90267 c 2.11903,1.90772 5.19464,1.65939 7.28598,3.6356 1.64804,0.94659 3.67294,0.87111 5.30074,1.87102 1.74153,0.98027 3.69458,1.23631 5.63069,1.56216 1.66433,0.37038 3.16439,1.18253 4.76881,1.70496 0.9427,1.23897 2.18376,1.38652 3.20524,2.54495 1.23793,1.39096 3.35301,1.16943 4.37613,2.9495 -0.34454,0.81636 -2.20828,1.13598 -3.15141,1.75741 -2.79874,1.30683 -5.59738,2.61554 -8.39664,3.91831 -1.75212,0.23456 -3.56077,1.42661 -5.23531,0.88539 -1.43298,-0.0274 -2.88727,0.67172 -4.32191,0.95968 -1.58574,0.52362 -3.40573,0.94577 -5.06748,1.29748 -1.71172,0.57094 -3.43848,0.859 -5.12476,1.83475 -1.32209,0.7614 -2.99059,1.68841 -2.946,-0.75822 -0.3295,-1.70628 0.62797,-3.61658 0.28919,-5.33171 0.1214,-2.05805 -0.29287,-3.96829 0.49531,-6.18754 -0.093,-2.10095 0.28119,-4.45328 -0.17994,-6.41775 0.26384,-1.90514 0.0816,-3.82205 0.0676,-5.6341 -0.0633,-0.43761 -0.32636,-1.24418 0.2142,-1.56396 1.09832,0.8117 1.67092,0.13175 2.78956,0.97205 z"
       id="path2942"
       sodipodi:nodetypes="ccccccccccccsccccccc" />
    <path
       style="fill:none;stroke:#80ff00;stroke-width:3.99999952;stroke-linecap:round;stroke-linejoin:round;stroke-miterlimit:4;stroke-opacity:1;stroke-dasharray:none"
       d="m 441.51964,167.96991 c -0.006,-3.43177 -2.91263,-6.67616 -3.09881,-10.07033 0.24418,-4.39881 -0.77714,-7.59703 -2.87192,-11.70619 -0.83832,-2.70979 -1.86377,-10.60357 -4.10872,-5.66226 -1.41965,3.27206 -2.8102,4.37646 -4.18042,8.35687 -2.17003,3.76725 -4.06835,5.46686 -5.22504,9.19075 -1.57344,2.25867 -5.3763,5.96405 -5.13028,7.14559"
       id="path2956-7"
       sodipodi:nodetypes="ccccccc" />
    <path
       style="fill:none;stroke:#80ff00;stroke-width:3.99999976;stroke-linecap:round;stroke-linejoin:round;stroke-miterlimit:4;stroke-opacity:1;stroke-dasharray:none"
       d="m 411.30883,167.19063 c -2.43895,-1.03143 -5.65023,1.00055 -7.20403,1.96896 -6.34,1.62693 -3.90506,2.7529 -10.73659,3.39864 -6.50399,0.29768 -5.4682,-0.23268 -9.60418,1.07261 2.55323,1.77817 4.82879,3.2669 8.29744,6.73782 3.21725,2.87978 3.14697,3.86781 10.83438,6.9065 1.95999,0.2009 3.75557,1.96366 7.0961,1.719"
       id="path2958-6"
       sodipodi:nodetypes="ccccccc" />
    <path
       style="color:#000000;fill:none;stroke:#80ff00;stroke-width:4;stroke-linecap:round;stroke-linejoin:round;stroke-miterlimit:4;stroke-opacity:1;stroke-dasharray:none;stroke-dashoffset:0;marker:none;visibility:visible;display:inline;overflow:visible;enable-background:accumulate"
       d="m 377.69893,180.54926 c 1.58245,-2.05255 2.44644,-4.59279 3.65104,-7.25903 1.25016,-2.7671 3.23965,-4.11745 5.89092,-5.72268 2.92024,-1.76812 6.12421,-5.9705 8.53199,-9.00515 3.58171,-2.64009 7.18403,-6.76914 11.43537,-8.40755 5.4701,-2.10813 9.97856,-6.94013 14.97671,-9.35352 2.22401,-1.98842 5.6576,-2.30622 8.60284,-3.45991 2.15526,-0.84424 7.18755,-0.93519 9.81475,-0.40172"
       id="path2833-17"
       sodipodi:nodetypes="csscscss" />
    <g
       id="g4999"
       transform="matrix(1.3288894,-0.05434076,0.05434076,1.3288894,26.741463,-151.88474)">
      <path
         id="path2905-4"
         d="m 46.435436,195.23066 c -2.3518,0.1417 -3.143,2.1737 -3.9697,3.4318 -1.832,1.7184 -1.1944,2.3784 -2.8355,4.5757 -0.091,1.9654 -1.202,3.5113 -0.8506,5.6591 -0.3259,3.1406 2.2267,5.7915 4.3975,7.6565 1.7996,1.0762 3.4568,2.301 5.657,2.1273 1.5536,-0.1232 3.305,0.2747 4.7017,-0.2619 1.6701,-1.8922 5.1419,-2.6222 6.1358,-4.2968 0.1171,-1.855 0.084,-3.6988 0.3741,-5.4995 -3e-4,-2.7482 4e-4,-5.4964 0,-8.2445 -1.0516,-0.9901 -1.5614,-2.5441 -2.7589,-2.8598 -0.6613,-0.677 -2.3021,-0.3764 -3.1823,-0.8765 -2.2722,-0.9549 -5.0428,-0.7026 -7.6691,-1.4114 z"
         style="fill:none;stroke:#0000ff;stroke-width:3.00751877;stroke-linecap:round;stroke-linejoin:round;stroke-miterlimit:4;stroke-opacity:1;stroke-dasharray:none" />
      <path
         id="path2907-0"
         d="m 48.703836,220.68286 c 0.4616,2.4965 -1.4538,5.5017 -0.7455,6.4704 -1.0087,3.7438 -0.560548,7.70852 -1.617648,11.43542 -1.797617,3.1434 -1.343282,6.49699 -2.173652,9.54818 0,1.5253 0,3.0505 0,4.5757"
         style="fill:none;stroke:#0000ff;stroke-width:3.00751877;stroke-linecap:round;stroke-linejoin:round;stroke-miterlimit:4;stroke-opacity:1;stroke-dasharray:none"
         sodipodi:nodetypes="ccccc" />
      <path
         style="color:#000000;fill:none;stroke:#c87137;stroke-width:3.00751877;stroke-linecap:round;stroke-linejoin:round;stroke-miterlimit:4;stroke-opacity:1;stroke-dasharray:none;stroke-dashoffset:0;marker:none;visibility:visible;display:inline;overflow:visible;enable-background:accumulate"
         d="m 75.071287,191.95137 c 6.083469,12.10744 5.010952,14.25745 9.03808,21.31387 2.046725,3.58634 2.783735,13.35531 0.846621,19.86324 -2.36119,7.93264 -4.914942,17.0496 -9.423412,22.92974 -5.008376,10.36022 -18.48184,13.73386 -21.403693,15.51147"
         id="path8793-4"
         sodipodi:nodetypes="csscc"
         inkscape:transform-center-x="-28.009723"
         inkscape:transform-center-y="10.269473" />
      <path
         sodipodi:nodetypes="ccccc"
         id="path8795-8"
         d="m 56.030782,270.65035 c -3.038682,-12.87718 -3.356375,-24.38 -5.216565,-37.90745 0.998643,-2.00597 1.197434,-3.72886 3.653683,-6.85867 3.406269,-5.34768 9.249197,-13.74635 8.930287,-14.90629 4.066681,-6.17224 8.591251,-10.49146 12.177925,-16.78076"
         style="fill:none;stroke:#c87137;stroke-width:3.00751877;stroke-linecap:round;stroke-linejoin:round;stroke-miterlimit:4;stroke-opacity:1;stroke-dasharray:none"
         inkscape:transform-center-x="-16.930619"
         inkscape:transform-center-y="11.085447" />
      <path
         d="m 45.015727,254.4776 c 1.119328,1.83101 3.408476,5.98164 5.1108,8.75171 1.579533,4.04069 4.574495,6.4922 6.296001,10.36006 2.148476,2.40337 3.634719,5.08521 5.345368,8.12727 1.317273,1.66483 1.459684,6.03288 2.3918,6.46485 0.204171,0.18787 0.867737,2.41595 0.163779,1.33846 M 44.163848,252.79052 c -1.975987,2.71518 -4.194188,5.35424 -5.423698,8.49291 -2.143474,3.24105 -3.248387,7.08531 -5.647898,10.13252 -0.337536,3.75506 -3.467098,6.49043 -4.25812,10.12963 -0.957691,2.58747 -2.239334,4.44031 -2.838756,7.22911 -0.63356,0.97778 -0.140074,2.0142 -0.283893,-0.5624"
         style="fill:none;stroke:#0000ff;stroke-width:3.00751877;stroke-linecap:round;stroke-linejoin:round;stroke-miterlimit:4;stroke-opacity:1;stroke-dasharray:none"
         id="path2909-9" />
      <path
         id="path2911"
         d="m 51.817903,231.52998 c -3.896864,-0.31629 -6.023736,-3.12847 -8.816559,-4.53873 -3.366938,-2.00199 -13.369908,-2.53451 -12.058164,-7.03075 0.109052,-1.17539 14.165176,3.19397 17.376735,2.71631 3.061331,0.37012 8.202897,2.83007 10.282281,3.50839 3.43812,1.12506 8.262741,4.54771 13.577704,6.41215 2.93516,1.11417 5.233987,1.97781 7.855735,2.96588 1.196457,0.54625 2.633951,0.17166 3.440535,0.78937"
         style="fill:none;stroke:#0000ff;stroke-width:3.00751877;stroke-linecap:round;stroke-linejoin:round;stroke-miterlimit:4;stroke-opacity:1;stroke-dasharray:none"
         inkscape:transform-center-x="-10.854231"
         inkscape:transform-center-y="6.0685233"
         sodipodi:nodetypes="cccccccc" />
    </g>
    <g
       id="g8805"
       transform="translate(116.71669,68.499998)">
      <path
         sodipodi:nodetypes="csscc"
         id="path2859"
         d="m 64.985456,86.234055 c 10.644533,14.541745 9.711018,17.597885 16.546497,25.967055 3.474028,4.25351 6.591087,16.90485 5.482783,25.86741 -1.350937,10.92467 -2.693756,23.44514 -7.312995,32.15027 -4.288781,14.69151 -21.218749,22.08235 -24.659935,25.05713"
         style="color:#000000;fill:none;stroke:#c87137;stroke-width:3.99999976;stroke-linecap:round;stroke-linejoin:round;stroke-miterlimit:4;stroke-opacity:1;stroke-dasharray:none;stroke-dashoffset:0;marker:none;visibility:visible;display:inline;overflow:visible;enable-background:accumulate"
         inkscape:transform-center-x="-33.318341"
         inkscape:transform-center-y="2.3689091" />
      <path
         style="fill:none;stroke:#c87137;stroke-width:3.99999976;stroke-linecap:round;stroke-linejoin:round;stroke-miterlimit:4;stroke-opacity:1;stroke-dasharray:none"
         d="m 57.334077,193.65141 c -6.820237,-16.22157 -9.76895,-31.23942 -15.186546,-48.57333 0.868324,-2.85098 0.749825,-5.15458 3.282649,-9.80049 3.290725,-7.76412 9.10593,-20.06642 8.432305,-21.51769 3.975453,-8.99102 8.959396,-15.652309 12.279481,-24.691233"
         id="path3708"
         sodipodi:nodetypes="ccccc"
         inkscape:transform-center-x="-16.320992"
         inkscape:transform-center-y="2.9739601" />
      <path
         sodipodi:nodetypes="cccccsccccccc"
         id="path2905"
         d="m 39.012537,101.28462 c -3.071012,-0.623 -6.758244,-0.96162 -8.251407,0.37226 -2.942736,1.5813 -2.28487,3.59759 -5.146213,5.85971 -0.789787,2.49475 -2.016076,5.41708 -2.299738,8.2977 1.858127,3.76599 1.499423,6.43606 3.650845,9.57607 1.944395,1.99919 2.303765,4.59411 5.190893,5.1241 2.038842,0.37352 4.153509,1.48444 6.132221,1.27298 2.794163,-1.86008 5.376588,-1.95893 7.227216,-3.77085 0.785541,-2.34394 4.500861,-4.95327 5.490147,-7.16819 0.940435,-3.53205 -0.64859,-7.02383 0.291679,-10.55578 -1.012552,-1.63247 0.397738,-3.26653 -1.033193,-4.08222 -0.618134,-1.09645 -2.221631,-2.25077 -3.181651,-3.19481 -2.593299,-2.00509 -4.93817,0.0791 -8.070799,-1.73097 z"
         style="fill:none;stroke:#0000ff;stroke-width:4;stroke-linecap:round;stroke-linejoin:round;stroke-miterlimit:4;stroke-opacity:1;stroke-dasharray:none" />
      <path
         id="path2907"
         d="m 37.984042,133.86193 c -0.867156,3.26338 1.36579,7.44415 0.327573,8.65637 0.955143,5.06759 0.955179,10.31532 1.976231,15.36544 1.148602,4.31908 0.596656,8.73392 0.907626,12.84761 -0.155823,2.02265 -0.311636,4.04518 -0.467451,6.0677"
         style="fill:none;stroke:#0000ff;stroke-width:4;stroke-linecap:round;stroke-linejoin:round;stroke-miterlimit:4;stroke-opacity:1;stroke-dasharray:none" />
      <path
         sodipodi:nodetypes="ccccccccc"
         d="m 40.549638,176.78042 c -1.595206,2.56659 -4.405889,8.73188 -6.241112,13.0484 -1.02745,4.96256 -3.214935,5.68787 -3.770243,15.43197 -2.490737,8.78838 -6.733417,15.87388 -7.078115,21.07393 m 17.267853,-49.63548 c 2.345716,3.49215 5.02077,6.86521 6.332194,10.97703 2.31529,4.19448 2.810578,9.29027 4.828864,13.24246 -0.936681,5.05367 1.253638,9.23467 1.06158,14.09408 0.922378,3.50296 2.221227,6.62113 3.03194,10.2242"
         style="fill:none;stroke:#0000ff;stroke-width:4;stroke-linecap:round;stroke-linejoin:round;stroke-miterlimit:4;stroke-opacity:1;stroke-dasharray:none"
         id="path2909" />
      <path
         sodipodi:nodetypes="csssssss"
         id="path2911-0"
         d="m 86.729379,145.44624 c -8.565179,-1.2709 -18.28603,-2.32017 -27.785191,-3.78175 -6.410748,-0.98637 -12.382788,-2.13404 -19.273523,-2.78848 -2.652586,-0.25196 -13.65979,-0.79698 -18.582175,-1.71435 -5.257728,-0.97986 -10.03739,2.52977 -6.832531,3.67418 5.139534,1.83524 6.066597,4.15009 11.762143,3.56111 3.291294,-0.34035 7.509906,-0.08 10.080559,0.47878 1.394548,0.30311 4.467643,0.5231 6.560936,0.15794"
         style="fill:none;stroke:#0000ff;stroke-width:4;stroke-linecap:round;stroke-linejoin:round;stroke-miterlimit:4;stroke-opacity:1;stroke-dasharray:none"
         inkscape:transform-center-x="-12.150842"
         inkscape:transform-center-y="2.8325472" />
    </g>
    <g
       id="g8813"
       transform="translate(-88.693407,3.9950684)">
      <path
         style="color:#000000;fill:none;stroke:#c87137;stroke-width:3.99999976;stroke-linecap:round;stroke-linejoin:round;stroke-miterlimit:4;stroke-opacity:1;stroke-dasharray:none;stroke-dashoffset:0;marker:none;visibility:visible;display:inline;overflow:visible;enable-background:accumulate"
         d="m 143.4909,148.75831 c 10.49039,14.65332 9.52466,17.69944 16.27139,26.14031 3.42893,4.28996 6.41224,16.97349 5.20937,25.92386 -1.46621,10.90979 -2.94115,23.41538 -7.65204,32.07127 -4.44365,14.6454 -21.45072,21.85708 -24.92312,24.79535"
         id="path8793"
         sodipodi:nodetypes="csscc"
         inkscape:transform-center-x="-34.315548"
         inkscape:transform-center-y="-0.1409931" />
      <path
         style="fill:none;stroke:#0000ff;stroke-width:4;stroke-linecap:round;stroke-linejoin:round;stroke-miterlimit:4;stroke-opacity:1;stroke-dasharray:none"
         d="m 103.23696,186.4774 c 1.12535,3.27203 2.77942,6.98537 4.53779,7.71566 2.69026,1.99001 3.84248,0.29908 6.99449,1.85308 2.25408,-0.55452 5.05006,-0.91535 7.32823,-2.15802 1.82701,-3.76173 3.98814,-4.82174 5.20042,-8.53553 0.475,-2.91546 2.20963,-4.62444 1.11044,-7.67127 -0.77677,-2.15123 -1.04703,-4.76288 -2.22563,-6.54887 -2.8198,-1.701 -4.22692,-4.12502 -6.52368,-4.94667 -2.14028,0.4793 -5.99037,-1.71094 -8.14043,-1.49485 -3.09951,0.95551 -4.8626,4.31504 -7.96194,5.27064 -0.68498,1.82918 -2.62268,1.33622 -2.48714,3.13707 -0.49206,1.16917 -0.51796,3.31354 -0.72065,4.73039 -0.14419,3.54071 2.60935,4.69311 2.8881,8.64837 z"
         id="path8797"
         sodipodi:nodetypes="cccccsccccccc" />
      <path
         sodipodi:nodetypes="ccccc"
         id="path8795"
         d="m 134.7058,256.0889 c -6.64859,-16.29268 -9.43857,-31.34082 -14.67285,-48.73097 0.89837,-2.84166 0.8042,-5.14637 3.38594,-9.76529 3.37251,-7.72894 9.31729,-19.96916 8.65902,-21.42746 4.07017,-8.94855 9.12416,-15.55684 12.53949,-24.5602"
         style="fill:none;stroke:#c87137;stroke-width:3.99999976;stroke-linecap:round;stroke-linejoin:round;stroke-miterlimit:4;stroke-opacity:1;stroke-dasharray:none"
         inkscape:transform-center-x="-17.820868"
         inkscape:transform-center-y="0.48224187" />
      <path
         sodipodi:nodetypes="ccccc"
         style="fill:none;stroke:#0000ff;stroke-width:4;stroke-linecap:round;stroke-linejoin:round;stroke-miterlimit:4;stroke-opacity:1;stroke-dasharray:none"
         d="m 115.36666,198.14226 c 0.38069,3.3551 0.30513,7.79771 -0.73308,9.00993 0.95514,5.06759 0.68741,9.88854 0.20846,15.18866 0.88084,4.67263 1.12698,8.73392 1.43795,12.84761 -0.15582,2.02265 0.39548,4.04518 0.23966,6.0677"
         id="path8799" />
      <path
         id="path8801"
         style="fill:none;stroke:#0000ff;stroke-width:4;stroke-linecap:round;stroke-linejoin:round;stroke-miterlimit:4;stroke-opacity:1;stroke-dasharray:none"
         d="m 134.04074,289.54414 c -1.63558,-2.36304 -1.7368,-11.1996 -3.64209,-15.28243 -1.11076,-4.83258 -0.43717,-4.87114 -5.09914,-13.33297 -2.63656,-8.4722 -5.91198,-14.2206 -8.46539,-19.31684 m -14.41946,48.20425 c 2.27925,-3.79388 3.48215,-7.11623 4.71903,-11.39746 1.01132,-5.52287 1.14251,-9.69561 3.08721,-13.90775 1.03613,-4.87758 1.8134,-8.39703 3.40825,-12.27822 0.85936,-3.62234 2.1009,-6.90798 2.84714,-10.61613"
         sodipodi:nodetypes="ccccccccc" />
      <path
         style="fill:none;stroke:#0000ff;stroke-width:4;stroke-linecap:round;stroke-linejoin:round;stroke-miterlimit:4;stroke-opacity:1;stroke-dasharray:none"
         d="m 120.62158,208.17413 c -5.60319,-0.86598 -9.62135,-0.56997 -12.09822,-0.44713 -5.40456,-1.0336 -6.93161,-1.23257 -10.566946,-1.19773 -5.347495,-0.0876 -9.397395,-3.96473 -6.007467,-4.23673 4.665332,-0.37407 13.156523,-1.53978 19.172813,-0.29136 5.44296,1.12944 8.94446,0.76793 16.56784,1.03199 8.71932,1.83175 16.32284,2.40716 24.46737,2.36311 3.31701,0.12709 10.75331,0.84622 12.72897,1.62847"
         id="path8803"
         sodipodi:nodetypes="cccssccs"
         inkscape:transform-center-x="-13.291227"
         inkscape:transform-center-y="1.4417293" />
    </g>
    <path
       style="fill:none;stroke:#80ff00;stroke-width:3.99999976;stroke-linecap:round;stroke-linejoin:round;stroke-miterlimit:4;stroke-opacity:1;stroke-dasharray:none"
       d="m 312.12573,288.94217 c -0.0963,-4.2792 0.19384,-8.7133 -1.89828,-12.42013 -1.95228,-4.79351 -3.5442,-9.8003 -6.26118,-14.31703 -1.11474,-3.13646 -2.44036,-11.37758 -5.11134,-4.56001 -3.88764,4.80746 -7.05308,9.6795 -9.08825,14.88306 -2.60789,5.3311 -5.96113,11.25389 -7.30701,16.23612 0.59449,1.36917 -1.42422,2.513 -1.08712,3.91539"
       id="path2956" />
    <path
       style="fill:none;stroke:#80ff00;stroke-width:3.99999952;stroke-linecap:round;stroke-linejoin:round;stroke-miterlimit:4;stroke-opacity:1;stroke-dasharray:none"
       d="m 221.37027,223.71475 c 2.87253,-3.18569 8.23221,-3.71582 11.23728,-6.71271 4.43598,-3.26683 9.19536,-4.15313 12.39699,-8.42796 3.02784,-1.8025 10.55684,-8.26534 8.47567,-1.74961 -1.4391,4.25739 -1.09398,6.47417 -3.1699,11.34793 -1.16865,5.35991 -0.85787,8.56466 -2.91414,13.01715 -0.45239,3.44662 -0.0808,10.14615 -1.29211,11.03431"
       id="path2956-7-8"
       sodipodi:nodetypes="ccccccc" />
    <path
       style="color:#000000;fill:none;stroke:#80ff00;stroke-width:4;stroke-linecap:round;stroke-linejoin:round;stroke-miterlimit:4;stroke-opacity:1;stroke-dasharray:none;stroke-dashoffset:0;marker:none;visibility:visible;display:inline;overflow:visible;enable-background:accumulate"
       d="m 466.95058,297.81603 c -19.25953,-4.99068 -41.06922,-3.129 -52.12005,-18.96143 -5.82866,-8.35067 -14.25606,-16.63266 -26.69145,-17.59225 -12.20641,-0.94192 -21.43623,-8.22455 -24.88332,-8.51671 -11.63031,-0.98573 -22.51092,3.87186 -31.85355,4.55912 -5.17577,0.38074 -11.40141,3.2192 -17.71315,0.42921"
       id="path4125-2"
       sodipodi:nodetypes="csssss" />
    <path
       style="fill:none;stroke:#808080;stroke-width:3.99999976;stroke-linecap:round;stroke-linejoin:round;stroke-miterlimit:4;stroke-opacity:1;stroke-dasharray:none"
       d="m 461.23585,95.939019 c 0.65603,-0.06948 -2.79558,3.682758 -4.37176,5.832271 -2.52175,2.26566 -1.55882,2.32927 -3.70106,4.34966 -1.08294,0.62769 -1.15965,-2.04459 -2.41873,-1.74411 -1.07236,-0.28116 -6.76657,4.55034 -6.98167,3.63982 -0.49115,-1.81537 3.77799,-4.79879 5.59643,-5.7972 0.11087,-1.30482 -2.38669,-3.319738 -0.24548,-3.022867 5.92511,-1.150782 9.0309,-2.930587 12.1223,-3.25759 z"
       id="path3747"
       sodipodi:nodetypes="cccccccs" />
    <path
       style="color:#000000;fill:none;stroke:#80ff00;stroke-width:4;stroke-linecap:round;stroke-linejoin:round;stroke-miterlimit:4;stroke-opacity:1;stroke-dasharray:none;stroke-dashoffset:0;marker:none;visibility:visible;display:inline;overflow:visible;enable-background:accumulate"
       d="m 441.09984,277.42158 c -13.22876,-1.25348 -19.17337,-20.58861 -34.61708,-20.86273 -4.1466,-0.0736 -25.0903,-15.90831 -29.11774,-25.03725 -5.27656,-11.96056 -2.98695,-12.35812 -5.79043,-21.131 -2.86113,-8.95326 -0.59539,-9.61358 0.62433,-16.10695 0.65103,-3.46588 2.00653,-8.89588 5.20886,-13.3929"
       id="path4125"
       sodipodi:nodetypes="csssss" />
    <path
       style="color:#000000;fill:none;stroke:#80ff00;stroke-width:3.99999976;stroke-linecap:round;stroke-linejoin:round;stroke-miterlimit:4;stroke-opacity:1;stroke-dasharray:none;stroke-dashoffset:0;marker:none;visibility:visible;display:inline;overflow:visible;enable-background:accumulate"
       d="m 238.67498,182.65583 c -1.9762,-0.0389 -3.93,-0.32347 -5.85965,-0.0916 -2.12403,0.25519 -4.49344,1.25044 -6.57569,1.43819 -3.09017,0.27862 -5.48981,0.72567 -8.50468,0.71118 -1.46098,-0.007 -2.66283,-0.22113 -4.06645,0.19612 -1.72755,0.51359 -4.66219,-0.44028 -5.09051,0.77366 -0.39815,1.12845 1.97952,1.06311 2.71518,2.46924 0.30048,0.57433 2.10841,1.0534 2.69279,1.16918 1.00958,0.20002 4.89672,2.38945 6.52887,2.2105 2.10358,-0.23063 5.98855,3.35664 6.6799,3.98208 1.64799,1.49085 8.88206,3.41414 8.75079,3.96365 -0.30588,1.27939 -4.42317,3.68192 -5.52196,3.61465 -0.78917,-0.0486 -3.88741,1.22732 -6.81395,2.0468 -3.74189,1.04778 -8.54666,2.22041 -8.65803,3.92334 -0.14452,2.17921 4.66911,1.73093 5.7319,1.51149 2.9897,-0.61727 4.46481,-1.12933 7.1092,-1.96357 3.11969,-0.98418 6.29867,-2.02511 9.19367,-3.12869 2.32583,-0.88662 2.62378,0.46294 2.961,-0.55655 0.6229,-1.88317 1.4839,-3.65229 1.94398,-5.56528 0.39796,-1.65464 1.24914,-2.98964 1.34361,-4.78317 0.10173,-1.93834 0.14385,-3.95408 0.69766,-5.68446 0.52907,-1.65313 1.24857,-3.25204 2.13301,-4.74207 0.43755,-0.73713 0.38621,-1.01634 0.84844,-1.49511 l 1e-5,0 1.4e-4,2.3e-4 c -2.47883,-1.11054 -5.52995,-0.16091 -8.23923,2.2e-4 z"
       id="path2870-1"
       sodipodi:nodetypes="cssssssssssssssssssssssscc" />
  </g>
</svg>
