<?xml version="1.0" encoding="UTF-8" standalone="no"?>
<!-- Created with Inkscape (http://www.inkscape.org/) -->
<svg
   xmlns:dc="http://purl.org/dc/elements/1.1/"
   xmlns:cc="http://creativecommons.org/ns#"
   xmlns:rdf="http://www.w3.org/1999/02/22-rdf-syntax-ns#"
   xmlns:svg="http://www.w3.org/2000/svg"
   xmlns="http://www.w3.org/2000/svg"
   xmlns:sodipodi="http://sodipodi.sourceforge.net/DTD/sodipodi-0.dtd"
   xmlns:inkscape="http://www.inkscape.org/namespaces/inkscape"
   width="480"
   height="320"
   id="svg2"
   version="1.1"
   inkscape:version="0.46"
   sodipodi:docname="itnas099.svg"
   inkscape:export-xdpi="90"
   inkscape:export-ydpi="90"
   inkscape:export-filename="itnas099.png"
   sodipodi:version="0.32"
   inkscape:output_extension="org.inkscape.output.svg.inkscape">
  <defs
     id="defs4" />
  <sodipodi:namedview
     id="base"
     pagecolor="#ffffff"
     bordercolor="#666666"
     borderopacity="1.0"
     inkscape:pageopacity="1"
     inkscape:pageshadow="2"
     inkscape:zoom="1.4142136"
     inkscape:cx="207.59659"
     inkscape:cy="119.65092"
     inkscape:document-units="px"
     inkscape:current-layer="layer1"
     showgrid="false"
     inkscape:snap-nodes="true"
     inkscape:snap-global="false"
     inkscape:snap-grids="true"
     showguides="true"
     inkscape:window-width="1680"
     inkscape:window-height="1002"
     inkscape:window-x="1680"
     inkscape:window-y="25"
     inkscape:window-maximized="1"
     inkscape:object-paths="true">
    <inkscape:grid
       empspacing="5"
       visible="true"
       enabled="true"
       snapvisiblegridlinesonly="true"
       type="xygrid"
       id="grid2816" />
  </sodipodi:namedview>
  <metadata
     id="metadata7">
    <rdf:RDF>
      <cc:Work
         rdf:about="">
        <dc:format>image/svg+xml</dc:format>
        <dc:type
           rdf:resource="http://purl.org/dc/dcmitype/StillImage" />
        <dc:title />
      </cc:Work>
    </rdf:RDF>
  </metadata>
  <g
     inkscape:label="Layer 1"
     inkscape:groupmode="layer"
     id="layer1"
     transform="translate(0,0)">
    <g
       id="g2937"
       transform="matrix(0.4919791,0.8706069,-0.8706069,0.4919791,216.92079,-66.396209)"
       inkscape:transform-center-y="-4.822567"
       inkscape:transform-center-x="-14.358614">
      <path
         id="path3028-1"
         d="M 206.19224,50.959145 L 183.21768,50.961145"
         style="fill:none;stroke:#0000ff;stroke-width:4;stroke-linecap:butt;stroke-linejoin:bevel;marker:none;stroke-miterlimit:4;stroke-dasharray:none;stroke-dashoffset:0;stroke-opacity:1;visibility:visible;display:inline;overflow:visible;enable-background:accumulate" />
      <path
         id="rect10452-0-7-5"
         d="M 199.99646,42.691859 L 188.73529,42.756999"
         style="fill:none;stroke:#0000ff;stroke-width:3.99999976;stroke-linecap:butt;stroke-linejoin:bevel;marker:none;stroke-miterlimit:4;stroke-dasharray:none;stroke-dashoffset:0;stroke-opacity:1;visibility:visible;display:inline;overflow:visible;enable-background:accumulate" />
      <path
         sodipodi:nodetypes="cccc"
         d="M 208.30239,56.809745 C 208.30239,56.809745 193.74473,17.644779 193.74473,17.644779 L 181.50809,56.856626 C 181.50809,56.856626 208.30239,56.809746 208.30239,56.809746 L 208.30239,56.809745 z"
         style="fill:none;stroke:#00ff00;stroke-width:2;stroke-linecap:butt;stroke-linejoin:miter;stroke-miterlimit:4;stroke-dasharray:none;stroke-opacity:1"
         id="path10399-9" />
    </g>
    <path
       style="fill:none;stroke:#00ff00;stroke-width:4;stroke-linecap:butt;stroke-linejoin:miter;marker-start:none;marker-mid:none;marker-end:none;stroke-miterlimit:4;stroke-dasharray:none;stroke-opacity:1"
       d="M 262.72846,131.74745 C 262.72846,131.74745 258.16472,134.3053 249.19269,142.11703 C 234.05936,155.29325 215.45156,159.52077 196.51843,174.04266 C 178.91667,187.54338 160.45999,196.68661 141.67119,198.44886 C 118.59011,200.6137 91.493229,197.53801 67.570977,190.04514"
       id="path2826-1"
       sodipodi:nodetypes="cssss" />
    <path
       style="fill:none;stroke:#0000ff;stroke-width:4;stroke-linecap:butt;stroke-linejoin:miter;stroke-miterlimit:4;stroke-dasharray:none;stroke-opacity:1"
       d="M 211.32352,151.5754 C 210.50391,156.50361 208.10583,162.18419 208.24839,166.95791 C 208.39095,171.7316 211.81764,175.32159 215.59759,173.57809 C 219.37758,171.83457 219.17605,167.03866 216.01795,163.42783 C 212.85983,159.81702 206.85955,158.68915 201.95219,156.57484"
       id="path3030-6"
       sodipodi:nodetypes="czzzc" />
    <g
       id="g2942"
       transform="matrix(0.3789314,0.7045644,-0.7045644,0.3789314,235.67831,-24.003893)">
      <path
         sodipodi:nodetypes="cc"
         id="rect10452-1-7-4-2"
         d="M 206.66319,105.19515 C 198.7491,109.46227 198.54996,115.35865 206.48717,120.68219"
         style="fill:none;stroke:#0000ff;stroke-width:5;stroke-linecap:butt;stroke-linejoin:miter;stroke-miterlimit:4;stroke-dasharray:none;stroke-opacity:1" />
      <path
         sodipodi:nodetypes="cc"
         id="rect10452-1-4-4-0-7"
         d="M 179.489,105.38873 C 187.87316,108.71548 187.78812,117.33035 179.5624,120.62576"
         style="fill:none;stroke:#0000ff;stroke-width:5;stroke-linecap:butt;stroke-linejoin:miter;stroke-miterlimit:4;stroke-dasharray:none;stroke-opacity:1" />
      <path
         id="rect10452-0-7-4-1"
         d="M 193.13509,122.31481 L 193.31187,103.65428"
         style="fill:none;stroke:#0000ff;stroke-width:5;stroke-linecap:butt;stroke-linejoin:bevel;stroke-miterlimit:4;stroke-dasharray:none;stroke-opacity:1" />
    </g>
    <g
       style="display:inline"
       id="g5142"
       transform="matrix(-0.8486973,0.5288789,0.5288789,0.8486973,426.96337,-150.24838)">
      <rect
         y="200"
         x="360"
         height="20"
         width="20"
         id="rect5063"
         style="fill:none;stroke:#59bbbc;stroke-width:2;stroke-linecap:butt;stroke-linejoin:bevel;marker:none;stroke-miterlimit:4;stroke-dasharray:none;stroke-dashoffset:0;stroke-opacity:1;visibility:visible;display:inline;overflow:visible;enable-background:accumulate" />
      <path
         id="path5065-9"
         d="M 370.49997,190.00003 L 349.99998,210.00002 L 369.99997,230.00002 L 389.99997,210.00002 L 370.49997,190.00003 z"
         style="fill:none;stroke:#59bbbc;stroke-width:2;stroke-linecap:butt;stroke-linejoin:bevel;stroke-miterlimit:4;stroke-dasharray:none;stroke-opacity:1;display:inline" />
      <rect
         y="190"
         x="350"
         height="40"
         width="40"
         id="rect5089"
         style="fill:none;stroke:#59bbbc;stroke-width:2;stroke-linecap:butt;stroke-linejoin:miter;marker:none;stroke-miterlimit:4;stroke-dasharray:none;stroke-dashoffset:0;stroke-opacity:1;visibility:visible;display:inline;overflow:visible;enable-background:accumulate" />
    </g>
    <path
       sodipodi:nodetypes="cccccc"
       d="M 194.83099,149.54908 L 168.5648,168.33568 C 168.5648,168.33568 191.73743,163.73722 191.73743,163.73722 C 191.73743,163.73722 202.1012,185.46334 202.1012,185.46334 C 202.1012,185.46334 182.40955,199.74322 182.40955,199.74322 C 182.40955,199.74322 209.09114,190.60629 209.09114,190.60629"
       style="fill:none;stroke:#00ff00;stroke-width:2px;stroke-linecap:butt;stroke-linejoin:miter;stroke-opacity:1"
       id="path10436-7-4"
       inkscape:transform-center-x="7.2059537"
       inkscape:transform-center-y="0.50313489" />
    <path
       sodipodi:nodetypes="cccccc"
       d="M 238.43521,126.63247 L 218.50202,143.50845 L 243.73763,135.32631 L 254.30637,148.59731 C 254.30637,148.59731 245.84058,169.29386 245.84058,169.29386 L 268.76905,156.25209"
       style="fill:none;stroke:#00ff00;stroke-width:2;stroke-linecap:butt;stroke-linejoin:miter;stroke-miterlimit:2;stroke-dasharray:none;stroke-opacity:1"
       id="path10402-6-4-8"
       inkscape:transform-center-x="5.0611122"
       inkscape:transform-center-y="5.6962612" />
    <path
       id="path4154-1-7"
       style="fill:none;stroke:#b344ac;stroke-width:1.99999988;stroke-linecap:butt;stroke-linejoin:bevel;stroke-miterlimit:4;stroke-dasharray:3.99999992, 1.99999995;stroke-dashoffset:0;stroke-opacity:1"
       d="M 228.51175,218.81566 L 264.13164,158.81803"
       sodipodi:nodetypes="cc"
       inkscape:transform-center-x="17.850677"
       inkscape:transform-center-y="29.945036" />
    <path
       style="fill:none;fill-opacity:1;fill-rule:evenodd;stroke:#000000;stroke-width:6;stroke-linecap:butt;stroke-linejoin:miter;marker:none;marker-start:none;marker-mid:none;marker-end:none;stroke-miterlimit:4;stroke-dashoffset:0;stroke-opacity:1;visibility:visible;display:inline;overflow:visible;enable-background:accumulate"
       d="M 253.18777,-2.8639611 L 253.18777,86.201002 L -2.8639612,86.201002"
       id="rect6518"
       sodipodi:nodetypes="ccc" />
    <g
       style="display:inline"
       id="g5205"
       transform="matrix(0,1,-1,0,426.84388,-311.6495)">
      <path
         sodipodi:nodetypes="cc"
         id="path5149"
         d="M 340,290 L 370,290"
         style="fill:none;stroke:#b63266;stroke-width:1.99999976;stroke-linecap:square;stroke-linejoin:miter;stroke-miterlimit:4;stroke-dasharray:none;stroke-opacity:1" />
      <path
         id="path5153"
         d="M 355,310 L 355,290"
         style="fill:none;stroke:#b63266;stroke-width:1.99999988;stroke-linecap:square;stroke-linejoin:miter;stroke-miterlimit:4;stroke-dasharray:none;stroke-opacity:1"
         sodipodi:nodetypes="cc" />
      <rect
         y="295"
         x="340"
         height="10"
         width="30"
         id="rect5181"
         style="fill:none;stroke:#b63266;stroke-width:2;stroke-linecap:square;stroke-linejoin:miter;marker:none;stroke-miterlimit:4;stroke-dasharray:none;stroke-dashoffset:0;stroke-opacity:1;visibility:visible;display:inline;overflow:visible;enable-background:accumulate" />
      <path
         sodipodi:nodetypes="cc"
         id="path5149-1"
         d="M 340,310 L 370,310"
         style="fill:none;stroke:#b63266;stroke-width:1.99999976;stroke-linecap:square;stroke-linejoin:miter;stroke-miterlimit:4;stroke-dasharray:none;stroke-opacity:1;display:inline" />
    </g>
    <path
       style="opacity:1;fill:none;fill-opacity:1;fill-rule:evenodd;stroke:#000000;stroke-width:5.99999952;stroke-linecap:butt;stroke-linejoin:miter;marker:none;marker-start:none;marker-mid:none;marker-end:none;stroke-miterlimit:4;stroke-dasharray:none;stroke-dashoffset:0;stroke-opacity:1;visibility:visible;display:inline;overflow:visible;enable-background:accumulate"
       d="M 482.99998,233.93352 C 480.35735,233.58307 342.49999,233.93352 342.49999,233.93352 L 342.49999,323.99998"
       id="path6541" />
    <path
       style="opacity:1;fill:none;fill-opacity:1;fill-rule:evenodd;stroke:#000000;stroke-width:6;stroke-linecap:butt;stroke-linejoin:miter;marker:none;marker-start:none;marker-mid:none;marker-end:none;stroke-miterlimit:4;stroke-dasharray:none;stroke-dashoffset:0;stroke-opacity:1;visibility:visible;display:inline;overflow:visible;enable-background:accumulate"
       d="M 341.48782,267.75 L -1.7546774,267.75"
       id="path6544"
       sodipodi:nodetypes="cc" />
    <g
       style="display:inline"
       id="g5345"
       transform="matrix(0,1,-1,0,443.1875,-71.25)">
      <path
         transform="matrix(1.2,0,0,1.2,-27,-39)"
         d="M 335,57.5 A 12.5,12.5 0 1 1 310,57.5 A 12.5,12.5 0 1 1 335,57.5 z"
         sodipodi:ry="12.5"
         sodipodi:rx="12.5"
         sodipodi:cy="57.5"
         sodipodi:cx="322.5"
         id="path5237-9"
         style="fill:none;stroke:#8fdc5e;stroke-width:1.66666663;stroke-linecap:butt;stroke-linejoin:miter;marker:none;stroke-miterlimit:4;stroke-dasharray:none;stroke-dashoffset:0;stroke-opacity:1;visibility:visible;display:inline;overflow:visible;enable-background:accumulate"
         sodipodi:type="arc" />
      <path
         transform="matrix(1.2,0,0,1.2,-47,-39)"
         d="M 335,57.5 A 12.5,12.5 0 1 1 310,57.5 A 12.5,12.5 0 1 1 335,57.5 z"
         sodipodi:ry="12.5"
         sodipodi:rx="12.5"
         sodipodi:cy="57.5"
         sodipodi:cx="322.5"
         id="path5237-9-9"
         style="fill:none;stroke:#8fdc5e;stroke-width:1.66666663;stroke-linecap:butt;stroke-linejoin:miter;marker:none;stroke-miterlimit:4;stroke-dasharray:none;stroke-dashoffset:0;stroke-opacity:1;visibility:visible;display:inline;overflow:visible;enable-background:accumulate"
         sodipodi:type="arc" />
    </g>
    <g
       id="g7097"
       transform="matrix(0,1,-1,0,614.86656,145.5429)"
       style="stroke:#2107b7;stroke-opacity:1">
      <path
         transform="matrix(0.7272727,0,0,0.7272727,35.454544,123.18182)"
         d="M 185,442.5 A 27.5,27.5 0 1 1 130,442.5 A 27.5,27.5 0 1 1 185,442.5 z"
         sodipodi:ry="27.5"
         sodipodi:rx="27.5"
         sodipodi:cy="442.5"
         sodipodi:cx="157.5"
         id="path6557"
         style="opacity:1;fill:none;fill-opacity:1;fill-rule:evenodd;stroke:#2107b7;stroke-width:2.75;stroke-linecap:butt;stroke-linejoin:miter;marker:none;marker-start:none;marker-mid:none;marker-end:none;stroke-miterlimit:4;stroke-dasharray:none;stroke-dashoffset:0;stroke-opacity:1;visibility:visible;display:inline;overflow:visible;enable-background:accumulate"
         sodipodi:type="arc" />
      <g
         id="g7093"
         style="stroke:#2107b7;stroke-opacity:1">
        <path
           transform="matrix(0.3636364,0,0,0.3636363,92.727267,274.09094)"
           d="M 185,442.5 A 27.5,27.5 0 1 1 130,442.5 L 157.5,442.5 z"
           sodipodi:ry="27.5"
           sodipodi:rx="27.5"
           sodipodi:cy="442.5"
           sodipodi:cx="157.5"
           id="path7074"
           style="opacity:1;fill:none;fill-opacity:1;fill-rule:evenodd;stroke:#2107b7;stroke-width:5.49999952;stroke-linecap:butt;stroke-linejoin:miter;marker:none;marker-start:none;marker-mid:none;marker-end:none;stroke-miterlimit:4;stroke-dasharray:none;stroke-dashoffset:0;stroke-opacity:1;visibility:visible;display:inline;overflow:visible;enable-background:accumulate"
           sodipodi:type="arc"
           sodipodi:start="0"
           sodipodi:end="3.1415927" />
        <path
           sodipodi:end="3.1415927"
           sodipodi:start="0"
           sodipodi:type="arc"
           style="opacity:1;fill:none;fill-opacity:1;fill-rule:evenodd;stroke:#2107b7;stroke-width:5.49999952;stroke-linecap:butt;stroke-linejoin:miter;marker:none;marker-start:none;marker-mid:none;marker-end:none;stroke-miterlimit:4;stroke-dasharray:none;stroke-dashoffset:0;stroke-opacity:1;visibility:visible;display:inline;overflow:visible;enable-background:accumulate"
           id="path7076"
           sodipodi:cx="157.5"
           sodipodi:cy="442.5"
           sodipodi:rx="27.5"
           sodipodi:ry="27.5"
           d="M 185,442.5 A 27.5,27.5 0 1 1 130,442.5 L 157.5,442.5 z"
           transform="matrix(0.3636364,0,0,-0.3636363,92.727267,615.90908)" />
      </g>
      <path
         id="path7091"
         d="M 130,445 L 169.99986,445"
         style="opacity:1;fill:none;fill-opacity:1;fill-rule:evenodd;stroke:#2107b7;stroke-width:1.99999988;stroke-linecap:butt;stroke-linejoin:miter;marker:none;marker-start:none;marker-mid:none;marker-end:none;stroke-miterlimit:4;stroke-dasharray:none;stroke-dashoffset:0;stroke-opacity:1;visibility:visible;display:inline;overflow:visible;enable-background:accumulate" />
    </g>
    <path
       sodipodi:type="star"
       style="opacity:1;fill:none;fill-opacity:1;fill-rule:nonzero;stroke:#bbcb00;stroke-width:7.16423035;stroke-linecap:butt;stroke-linejoin:bevel;marker:none;marker-start:none;marker-mid:none;marker-end:none;stroke-miterlimit:4;stroke-dasharray:none;stroke-dashoffset:0;stroke-opacity:1;visibility:visible;display:inline;overflow:visible;enable-background:accumulate"
       id="path7137"
       sodipodi:sides="3"
       sodipodi:cx="379.71634"
       sodipodi:cy="67.562881"
       sodipodi:r1="31.693848"
       sodipodi:r2="15.846924"
       sodipodi:arg1="0"
       sodipodi:arg2="1.0471976"
       inkscape:flatsided="false"
       inkscape:rounded="4.4240535"
       inkscape:randomized="0"
       d="M 411.41019,67.562881 C 411.41018,188.99288 492.80126,20.571723 387.6398,81.28672 C 282.47835,142.00171 469.03087,155.72556 363.86942,95.010559 C 258.70796,34.295556 363.86942,188.99288 363.86942,67.562881 C 363.86942,-53.867108 258.70796,100.83019 363.86942,40.115204 C 469.03088,-20.599789 282.47834,-6.8759547 387.6398,53.839043 C 492.80126,114.55404 411.41019,-53.867108 411.41019,67.562881 z"
       transform="matrix(0.1803698,0.2141757,-0.2128875,0.1792849,240.69568,-23.281404)" />
    <path
       sodipodi:type="star"
       style="opacity:1;fill:none;fill-opacity:1;fill-rule:nonzero;stroke:#00ffff;stroke-width:1.66857803;stroke-linecap:butt;stroke-linejoin:bevel;marker:none;marker-start:none;marker-mid:none;marker-end:none;stroke-miterlimit:4;stroke-dasharray:none;stroke-dashoffset:0;stroke-opacity:1;visibility:visible;display:inline;overflow:visible;enable-background:accumulate"
       id="path7160"
       sodipodi:sides="4"
       sodipodi:cx="351.78561"
       sodipodi:cy="137.92"
       sodipodi:r1="15.103807"
       sodipodi:r2="0.15103807"
       sodipodi:arg1="0"
       sodipodi:arg2="0.78539816"
       inkscape:flatsided="false"
       inkscape:rounded="1"
       inkscape:randomized="0"
       d="M 366.88942,137.92 C 366.88942,152.91739 362.49717,127.42204 351.89241,138.0268 C 341.28766,148.63155 366.783,153.02381 351.78561,153.02381 C 336.78823,153.02381 362.28357,148.63155 351.67881,138.0268 C 341.07406,127.42204 336.68181,152.91739 336.68181,137.92 C 336.68181,122.92261 341.07406,148.41795 351.67881,137.8132 C 362.28357,127.20844 336.78823,122.81619 351.78561,122.81619 C 366.783,122.81619 341.28766,127.20844 351.89241,137.8132 C 362.49717,148.41795 366.88942,122.92261 366.88942,137.92 z"
       transform="matrix(-1.0403959,-0.5952137,0.5952137,-1.0403959,614.90441,495.37913)" />
    <path
       transform="matrix(1.1986254,0,0,1.1986254,-122.15917,32.185587)"
       d="M 366.88942,137.92 C 366.88942,136.04017 357.13474,141.29943 357.62128,139.48366 C 358.10781,137.66789 363.92598,147.09988 364.86589,145.4719 C 365.80581,143.84393 354.72838,143.52124 356.05762,142.192 C 357.38685,140.86276 357.70954,151.94019 359.33752,151.00028 C 360.96549,150.06037 351.5335,144.2422 353.34928,143.75566 C 355.16505,143.26913 349.90579,153.02381 351.78561,153.02381 C 353.66544,153.02381 348.40618,143.26913 350.22195,143.75566 C 352.03772,144.2422 342.60573,150.06037 344.23371,151.00028 C 345.86169,151.94019 346.18438,140.86276 347.51361,142.192 C 348.84285,143.52124 337.76542,143.84393 338.70533,145.4719 C 339.64525,147.09988 345.46342,137.66789 345.94995,139.48366 C 346.43649,141.29943 336.68181,136.04017 336.68181,137.92 C 336.68181,139.79982 346.43649,134.54057 345.94995,136.35634 C 345.46342,138.17211 339.64525,128.74012 338.70533,130.36809 C 337.76542,131.99607 348.84285,132.31876 347.51361,133.648 C 346.18438,134.97723 345.86169,123.8998 344.23371,124.83972 C 342.60573,125.77963 352.03772,131.5978 350.22195,132.08434 C 348.40618,132.57087 353.66544,122.81619 351.78561,122.81619 C 349.90579,122.81619 355.16505,132.57087 353.34928,132.08434 C 351.5335,131.5978 360.96549,125.77963 359.33752,124.83972 C 357.70954,123.8998 357.38685,134.97723 356.05762,133.648 C 354.72838,132.31876 365.80581,131.99607 364.86589,130.36809 C 363.92598,128.74012 358.10781,138.17211 357.62128,136.35634 C 357.13474,134.54057 366.88942,139.79982 366.88942,137.92 z"
       inkscape:randomized="0"
       inkscape:rounded="-0.2"
       inkscape:flatsided="false"
       sodipodi:arg2="0.26179939"
       sodipodi:arg1="0"
       sodipodi:r2="6.041523"
       sodipodi:r1="15.103807"
       sodipodi:cy="137.92"
       sodipodi:cx="351.78561"
       sodipodi:sides="12"
       id="path7162"
       style="opacity:1;fill:none;fill-opacity:1;fill-rule:nonzero;stroke:#d35f5f;stroke-width:1.66857803;stroke-linecap:butt;stroke-linejoin:bevel;marker:none;marker-start:none;marker-mid:none;marker-end:none;stroke-miterlimit:4;stroke-dasharray:none;stroke-dashoffset:0;stroke-opacity:1;visibility:visible;display:inline;overflow:visible;enable-background:accumulate"
       sodipodi:type="star" />
  </g>
</svg>
