<?xml version="1.0" encoding="UTF-8" standalone="no"?>
<!-- Created with Inkscape (http://www.inkscape.org/) -->

<svg
   xmlns:dc="http://purl.org/dc/elements/1.1/"
   xmlns:cc="http://creativecommons.org/ns#"
   xmlns:rdf="http://www.w3.org/1999/02/22-rdf-syntax-ns#"
   xmlns:svg="http://www.w3.org/2000/svg"
   xmlns="http://www.w3.org/2000/svg"
   xmlns:sodipodi="http://sodipodi.sourceforge.net/DTD/sodipodi-0.dtd"
   xmlns:inkscape="http://www.inkscape.org/namespaces/inkscape"
   width="480"
   height="320"
   id="svg2"
   version="1.1"
   inkscape:version="0.47 r22583"
   sodipodi:docname="itnas233.svg"
   inkscape:export-xdpi="90"
   inkscape:export-ydpi="90"
   inkscape:export-filename="itnas233.png">
  <defs
     id="defs4" />
  <sodipodi:namedview
     id="base"
     pagecolor="#ffffff"
     bordercolor="#666666"
     borderopacity="1.0"
     inkscape:pageopacity="1"
     inkscape:pageshadow="2"
     inkscape:zoom="1.4142136"
     inkscape:cx="228.58885"
     inkscape:cy="158.90838"
     inkscape:document-units="px"
     inkscape:current-layer="layer1"
     showgrid="false"
     inkscape:snap-nodes="true"
     inkscape:snap-global="false"
     inkscape:snap-grids="true"
     showguides="true"
     inkscape:window-width="1280"
     inkscape:window-height="774"
     inkscape:window-x="1276"
     inkscape:window-y="1020"
     inkscape:window-maximized="1"
     inkscape:object-nodes="true">
    <inkscape:grid
       empspacing="5"
       visible="true"
       enabled="true"
       snapvisiblegridlinesonly="true"
       type="xygrid"
       id="grid2816" />
  </sodipodi:namedview>
  <metadata
     id="metadata7">
    <rdf:RDF>
      <cc:Work
         rdf:about="">
        <dc:format>image/svg+xml</dc:format>
        <dc:type
           rdf:resource="http://purl.org/dc/dcmitype/StillImage" />
        <dc:title></dc:title>
      </cc:Work>
    </rdf:RDF>
  </metadata>
  <g
     inkscape:label="Layer 1"
     inkscape:groupmode="layer"
     id="layer1"
     transform="translate(0,0)">
    <path
       style="color:#000000;fill:none;stroke:#c87137;stroke-width:3.99999905;stroke-linecap:round;stroke-linejoin:round;stroke-miterlimit:4;stroke-opacity:1;stroke-dasharray:none;stroke-dashoffset:0;marker:none;visibility:visible;display:inline;overflow:visible;enable-background:accumulate"
       d="m -11.744881,130.1668 c 0.892673,5.16719 0.439695,7.34315 -0.09467,12.53537 -0.723846,7.0327 0.132689,11.21877 0.781896,18.16707 1.2901604,13.80857 -0.373922,20.83889 -0.653619,31.39513 -0.140281,5.29581 0.46637,11.87373 0.295101,17.2493 -0.241626,7.58377 -0.953265,15.45401 -0.733095,23.03542"
       id="path2857"
       sodipodi:nodetypes="cssssc" />
    <path
       style="color:#000000;fill:none;stroke:#c87137;stroke-width:3.99999928;stroke-linecap:round;stroke-linejoin:round;stroke-miterlimit:4;stroke-opacity:1;stroke-dasharray:none;stroke-dashoffset:0;marker:none;visibility:visible;display:inline;overflow:visible;enable-background:accumulate"
       d="m -47.157234,232.20847 c 0.33931,-3.62014 0.59916,-7.2447 0.97703,-10.89537 0.4924,-4.75759 -1.4643,-9.42903 -1.49872,-14.23377 -0.0783,-10.93681 2.20094,-23.62575 0.0976,-34.08228 -1.1164,-5.55007 -0.8538,-10.96652 -0.11436,-15.96921 -0.27017,-9.12439 1.44627,-14.41416 -0.0764,-23.74932"
       id="path2860"
       sodipodi:nodetypes="cssscc" />
    <path
       sodipodi:nodetypes="ccccccccccccccccsc"
       id="path2862"
       d="m -27.877541,-119.03196 c -0.172711,0.41403 -0.341771,0.83109 -0.512721,1.2447 -6.481244,8.10077 -12.849652,27.177252 -19.249982,46.576607 -7.25382,18.416337 -13.90368,36.945992 -19.14186,56.069852 -4.79398,12.6253911 -7.75698,25.480368 -13.89685,37.573277 -4.83447,23.973513 -15.28374,44.297284 -22.979206,69.390956 -4.55807,11.585448 -8.69,13.495088 -15.92564,34.460138 12.84852,3.66632 25.498636,3.70751 38.876846,4.3073 21.46465,1.58241 42.540976,-0.004 63.960023,-1.04183 10.1414624,-0.6739 28.873875,0.34508 43.470371,1.31705 4.213231,1.19816 14.123546,0.10875 23.298322,-2.41478 C 49.692695,110.90442 35.923586,89.825135 28.023229,65.803565 21.896711,46.961629 20.780149,39.723439 19.290167,28.718512 13.274941,12.413386 11.973601,-6.6746699 6.0617894,-25.285985 -9.3697116,-49.073459 -12.203713,-67.369363 -18.163357,-90.645138 c -1.328043,-7.3904 -2.682138,-18.629022 -9.351241,-28.148532 -0.06705,0.0727 -0.132154,0.16624 -0.198809,0.24154 -0.05489,-0.16519 -0.107995,-0.31273 -0.163966,-0.47976 z"
       style="color:#000000;fill:none;stroke:#94f3f3;stroke-width:4;stroke-linecap:round;stroke-linejoin:round;stroke-miterlimit:4;stroke-opacity:1;stroke-dasharray:none;stroke-dashoffset:0;marker:none;visibility:visible;display:inline;overflow:visible;enable-background:accumulate" />
    <path
       style="color:#000000;fill:none;stroke:#c87137;stroke-width:3.99999952;stroke-linecap:round;stroke-linejoin:round;stroke-miterlimit:4;stroke-opacity:1;stroke-dasharray:none;stroke-dashoffset:0;marker:none;visibility:visible;display:inline;overflow:visible;enable-background:accumulate"
       d="m 126.68102,232.54443 c 0.88773,-4.72589 0.4936,-6.69569 0.0595,-11.40938 -0.58806,-6.38449 0.2547,-10.21635 0.93776,-16.55772 1.35746,-12.60243 -0.10175,-18.96171 -0.23696,-28.56483 -0.0678,-4.81763 0.5715,-10.82077 0.47594,-15.71026 -0.13482,-6.89807 -1.52236,-9.89217 -1.22934,-16.79938 0.0973,-7.2155 0.73021,-7.88818 0.70462,-14.99873"
       id="path2832"
       sodipodi:nodetypes="csssscc" />
    <path
       style="color:#000000;fill:none;stroke:#c87137;stroke-width:3.99999976;stroke-linecap:round;stroke-linejoin:round;stroke-miterlimit:4;stroke-opacity:1;stroke-dasharray:none;stroke-dashoffset:0;marker:none;visibility:visible;display:inline;overflow:visible;enable-background:accumulate"
       d="m 90.38648,131.41024 c 0.36449,3.69143 0.64971,7.38785 1.05287,11.11022 0.52538,4.85105 -1.39387,9.62827 -1.39387,14.53045 0,11.15857 2.36521,24.09117 0.341,34.77142 -1.07441,5.66883 -0.77365,11.19335 0,16.29305 -0.2044,9.31058 1.54629,14.6975 0.0935,24.23035"
       id="path2850"
       sodipodi:nodetypes="cssscc" />
    <path
       style="color:#000000;fill:none;stroke:#c87137;stroke-width:3.99999976;stroke-linecap:round;stroke-linejoin:round;stroke-miterlimit:4;stroke-opacity:1;stroke-dasharray:none;stroke-dashoffset:0;marker:none;visibility:visible;display:inline;overflow:visible;enable-background:accumulate"
       d="m 417.12132,197.79394 c -6.07739,-1.15478 -13.21759,-5.43518 -17,-1 -7.46431,4.53941 -7.90991,8.62257 -8,12"
       id="path4395"
       sodipodi:nodetypes="ccc" />
    <path
       style="color:#000000;fill:none;stroke:#c87137;stroke-width:3.99999976;stroke-linecap:round;stroke-linejoin:round;stroke-miterlimit:4;stroke-opacity:1;stroke-dasharray:none;stroke-dashoffset:0;marker:none;visibility:visible;display:inline;overflow:visible;enable-background:accumulate"
       d="m 422.88868,212.26577 -12.58997,6.78176 c -4.03017,6.34685 -0.36323,8.12833 -6.17862,13.11772"
       id="path4397"
       sodipodi:nodetypes="ccc" />
    <path
       sodipodi:nodetypes="cssssc"
       id="path4261"
       d="m 558.39023,153.7977 c -3.22418,3.91307 -5.11883,4.92941 -9.2858,7.77096 -5.64407,3.84873 -8.16967,7.1204 -12.86223,11.96238 -9.32568,9.62259 -15.57705,12.75352 -23.5263,19.14521 -3.98793,3.20659 -8.4355,7.78441 -12.50219,11.01729 -5.73723,4.5609 -11.98972,8.94296 -17.42608,13.8542"
       style="color:#000000;fill:none;stroke:#c87137;stroke-width:3.99999905;stroke-linecap:round;stroke-linejoin:round;stroke-miterlimit:4;stroke-opacity:1;stroke-dasharray:none;stroke-dashoffset:0;marker:none;visibility:visible;display:inline;overflow:visible;enable-background:accumulate" />
    <path
       sodipodi:nodetypes="cssscc"
       id="path4263"
       d="m 457.7115,192.91716 c 2.97778,-2.08647 5.90746,-4.23634 8.93348,-6.3132 3.94351,-2.70664 6.23496,-7.2233 9.87314,-10.36183 8.28146,-7.14405 19.42488,-13.62697 26.02873,-22.00266 3.50514,-4.44563 7.80174,-7.75411 12.09201,-10.4313 6.77638,-6.11622 11.91821,-8.23504 18.04388,-15.44196"
       style="color:#000000;fill:none;stroke:#c87137;stroke-width:3.99999928;stroke-linecap:round;stroke-linejoin:round;stroke-miterlimit:4;stroke-opacity:1;stroke-dasharray:none;stroke-dashoffset:0;marker:none;visibility:visible;display:inline;overflow:visible;enable-background:accumulate" />
    <path
       style="color:#000000;fill:none;stroke:#c87137;stroke-width:4;stroke-linecap:round;stroke-linejoin:round;stroke-miterlimit:4;stroke-opacity:1;stroke-dasharray:none;stroke-dashoffset:0;marker:none;visibility:visible;display:inline;overflow:visible;enable-background:accumulate"
       d="m 370.01073,235.57576 c 1.07583,-10.44062 0.43168,-23.03949 1.73983,-36.21067 0.5237,-15.15868 -2.43035,-27.18031 -2.0298,-42.88107 0.43495,-10.98597 -0.4905,-18.326 2.31978,-26.04625"
       id="path4281"
       sodipodi:nodetypes="cccc" />
    <path
       style="color:#000000;fill:none;stroke:#c87137;stroke-width:3.99999928;stroke-linecap:round;stroke-linejoin:round;stroke-miterlimit:4;stroke-opacity:1;stroke-dasharray:none;stroke-dashoffset:0;marker:none;visibility:visible;display:inline;overflow:visible;enable-background:accumulate"
       d="m 337.56372,130.18044 c -2.29912,15.958 0.58707,18.17117 0.64074,31.18779 -0.65996,10.10028 -1.73579,19.65931 0,27.93905 -1.0679,19.8263 -0.85433,19.24876 -1.92223,26.63956 -0.83269,9.04157 0.52377,15.45725 1.28149,20.46698"
       id="path4277"
       sodipodi:nodetypes="ccccc" />
    <path
       sodipodi:nodetypes="cccc"
       id="path4306"
       d="m 224.10994,133.84356 c -1.18863,9.9207 -0.47693,21.89219 -1.92225,34.40748 -0.57859,14.4038 2.68516,25.82678 2.24262,40.74568 -0.48054,10.43889 0.54193,17.41342 -2.56299,24.74924"
       style="color:#000000;fill:none;stroke:#c87137;stroke-width:3.99999928;stroke-linecap:round;stroke-linejoin:round;stroke-miterlimit:4;stroke-opacity:1;stroke-dasharray:none;stroke-dashoffset:0;marker:none;visibility:visible;display:inline;overflow:visible;enable-background:accumulate" />
    <path
       sodipodi:nodetypes="ccccc"
       id="path4308"
       d="m 256.49538,232.78416 c 2.15804,-15.27693 -0.55104,-17.39564 -0.60143,-29.85673 0.61948,-9.66921 1.62928,-18.82027 0,-26.74665 1.00239,-18.98012 0.80191,-18.42724 1.8043,-25.5026 0.78158,-8.65571 -0.49164,-14.79756 -1.20287,-19.59347"
       style="color:#000000;fill:none;stroke:#c87137;stroke-width:3.99999928;stroke-linecap:round;stroke-linejoin:round;stroke-miterlimit:4;stroke-opacity:1;stroke-dasharray:none;stroke-dashoffset:0;marker:none;visibility:visible;display:inline;overflow:visible;enable-background:accumulate" />
    <path
       style="color:#000000;fill:none;stroke:#94f3f3;stroke-width:4;stroke-linecap:round;stroke-linejoin:round;stroke-miterlimit:4;stroke-opacity:1;stroke-dasharray:none;stroke-dashoffset:0;marker:none;visibility:visible;display:inline;overflow:visible;enable-background:accumulate"
       d="m 114.74072,-117.71355 c -9.13586,9.9354 -18.27173,42.368715 -27.40759,67.942265 -10.54055,18.51859 -12.1478,46.0378208 -26.64627,73.28604 -3.67543,17.66672 -10.37113,44.6125 -23.41899,69.391036 -4.63139,11.583359 -8.7993,13.463879 -16.16976,34.430829 24.85224,4.6466 43.6158,-0.36575 63.95105,3.81699 l 44.91799,-3.81698 60.14442,3.05358 c -5.58303,-8.39978 -11.16605,-20.49233 -16.74908,-48.093955 -17.85942,-46.95334 -10.14451,-37.22815 -12.94247,-51.91093 -5.88621,-16.37243 -7.06826,-35.5183792 -12.83479,-54.20114 -6.09057,-10.74082 -17.61807,-41.6743 -23.70866,-65.65208 -1.27246,-7.412985 -2.54862,-18.669025 -9.13586,-28.245655 z"
       id="path4156"
       sodipodi:nodetypes="ccccccccccccc" />
    <path
       sodipodi:nodetypes="cccccscccccccc"
       id="path4265"
       d="m 323.32597,128.8232 c -0.20298,-17.5846 -16.33526,-52.913845 -24.04753,-77.029135 -3.62216,-23.2348 -16.03309,-37.09088 -21.86823,-69.79196 -6.6457,-12.78304 -16.23701,-33.88287 -21.61152,-63.41923 -3.24655,-11.64845 -2.06559,-18.563175 -8.44857,-38.158495 -6.4702,15.27702 -11.72626,30.263585 -17.95004,43.246325 -14.13066,29.47626 -9.05714,33.47911 -15.85836,49.20776 -11.53346,20.551911 -12.93891,33.9216505 -15.50009,46.45739 -7.68899,16.69842 -13.68063,35.40091 -18.80662,55.31056 -2.06258,9.45143 -11.47211,27.390185 -17.85792,53.058335 6.82503,4.93103 15.42332,-0.79852 31.4689,2.51778 21.40875,1.707 42.46087,0.25897 63.84278,-0.65954 10.1252,-0.61795 28.8207,0.48566 43.37993,1.54211 4.1959,1.22443 14.08353,0.1949 23.25727,-2.2819 z"
       style="color:#000000;fill:none;stroke:#94f3f3;stroke-width:3.99999928;stroke-linecap:round;stroke-linejoin:round;stroke-miterlimit:4;stroke-opacity:1;stroke-dasharray:none;stroke-dashoffset:0;marker:none;visibility:visible;display:inline;overflow:visible;enable-background:accumulate" />
    <path
       style="color:#000000;fill:none;stroke:#94f3f3;stroke-width:4;stroke-linecap:round;stroke-linejoin:round;stroke-miterlimit:4;stroke-opacity:1;stroke-dasharray:none;stroke-dashoffset:0;marker:none;visibility:visible;display:inline;overflow:visible;enable-background:accumulate"
       d="m 368.18273,-118.47094 c -0.21856,0.24554 -0.46223,0.49202 -0.68079,0.76267 -6.23243,14.84654 -11.91294,23.986425 -15.49809,37.531315 -3.81343,14.4073 -10.66872,21.7276 -14.89739,35.20316 -4.39056,11.60014 -6.44829,23.81633 -9.29085,31.991921 -9.81559,22.5560695 -12.50114,32.884619 -18.58169,56.838859 -1.91508,12.61067 -5.9136,22.15568 -9.33089,31.42996 -2.03848,9.34103 -11.24093,26.992805 -17.62056,52.182555 21.20235,2.54356 38.16833,-1.05773 56.38581,2.6894 18.0382,-0.34407 37.69808,0.93735 52.62143,-2.52884 17.48707,-0.36155 34.97415,0.41964 52.46122,1.76618 -5.58302,-8.39979 -7.95277,-19.84436 -13.53579,-47.445985 -16.15152,-42.46319 -14.60779,-39.28402 -15.61823,-49.01147 -5.24861,-13.9805 -12.48839,-27.5938795 -16.53931,-50.29596 -6.64571,-12.78305 -13.00694,-30.03205 -18.38146,-59.56841 -3.21874,-11.54873 -5.29258,-22.331745 -11.49341,-41.545355 z"
       id="path4267"
       sodipodi:nodetypes="ccsccccccccccccc" />
    <path
       style="color:#000000;fill:none;stroke:#94f3f3;stroke-width:4;stroke-linecap:round;stroke-linejoin:round;stroke-miterlimit:4;stroke-opacity:1;stroke-dasharray:none;stroke-dashoffset:0;marker:none;visibility:visible;display:inline;overflow:visible;enable-background:accumulate"
       d="m 737.79143,-19.913236 c -0.4273,0.13661 -0.85455,0.27797 -1.28039,0.41565 -10.36982,0.30962 -29.02835,7.8148 -47.95355,15.5048003 -18.72914,6.40302 -37.15339,13.33957 -55.11591,21.7364997 -12.72395,4.52591 -24.43678,10.59546 -37.62687,13.75109 -21.3957,11.8459 -43.64789,17.05003 -67.75022,27.44187 -11.77886,4.03201 -15.9102,2.1211 -36.5693,10.18891 5.52955,12.16349 13.69238,21.82762 21.90127,32.408286 12.69833,17.37779 27.55955,32.40688 42.22429,48.05288 7.08261,7.28972 18.44036,22.221 27.15486,33.97089 1.81634,3.98595 9.06578,10.83042 16.93135,16.18556 13.15489,-11.61683 20.29503,-35.76104 33.47827,-57.34005 10.38617,-16.87247 15.1773,-22.41171 22.59622,-30.67537 8.5256,-15.144446 22.22482,-28.500296 32.57437,-45.059806 8.12654,-27.16495 20.22947,-41.17533 34.10164,-60.7927197 4.7701,-5.79895 12.45508,-14.1104603 15.38753,-25.3576303 -0.0988,-0.004 -0.21225,0.007 -0.3128,0.005 0.0903,-0.14882 0.1683,-0.28485 0.2593,-0.43569 z"
       id="path4271"
       sodipodi:nodetypes="ccccccccccccccccsc" />
    <path
       style="color:#000000;fill:none;stroke:#c87137;stroke-width:3.99999976;stroke-linecap:round;stroke-linejoin:round;stroke-miterlimit:4;stroke-opacity:1;stroke-dasharray:none;stroke-dashoffset:0;marker:none;visibility:visible;display:inline;overflow:visible;enable-background:accumulate"
       d="m 448.70101,237.58683 c -0.50217,3.5 -0.90508,8.5 -4,12 -5.33333,3.80165 -10.66667,5.94909 -16,8.5"
       id="path4399"
       sodipodi:nodetypes="ccc" />
    <path
       sodipodi:nodetypes="ccc"
       id="path4461"
       d="m 475.29769,241.14529 c -2.36335,3.49401 -0.83721,9.92628 -2.48823,15.19995 -1.67228,4.88267 -5.23097,9.28885 -11.74484,13.18313"
       style="color:#000000;fill:none;stroke:#c87137;stroke-width:3.99999976;stroke-linecap:round;stroke-linejoin:round;stroke-miterlimit:4;stroke-opacity:1;stroke-dasharray:none;stroke-dashoffset:0;marker:none;visibility:visible;display:inline;overflow:visible;enable-background:accumulate" />
    <path
       id="path2949"
       style="color:#000000;fill:none;stroke:#008000;stroke-width:4;stroke-linecap:butt;stroke-linejoin:round;stroke-miterlimit:4;stroke-opacity:1;stroke-dasharray:none;stroke-dashoffset:0;marker:none;visibility:visible;display:inline;overflow:visible;enable-background:accumulate"
       d="m 570.49868,229.78113 c -12.42187,0.5371 -24.62844,-3.5085 -35.42395,-5.45162 -12.3918,2.00266 -25.63041,-3.61082 -52.75322,-5.70238 -17.73348,-8.58285 -24.71193,-17.62191 -29.79467,-39.19352 -5.64845,-12.68647 -25.92908,-5.80945 -33.63465,-10.65019 -11.51607,0.35129 -6.94074,9.93116 -4.64962,21.95626 4.58321,8.89446 6.56437,15.89097 9.87875,21.05426 2.90817,8.95678 15.03138,18.75515 25,25 20.77059,5.93961 45.92521,0.80761 55.59188,13.80761 1.33147,1.31258 12.88632,17.52626 18.52535,14.84741 2.95709,-1.40478 14.00362,-4.44309 21.06436,1.89174 4.51436,4.05023 8.37774,16.19182 7.33232,22.30206 -0.92721,5.41943 -5.57463,4.46132 -9.32365,5.72359 -3.69819,1.24516 -20.04469,-0.41221 -25.93598,-2.48652 -5.5577,-1.95686 -15.59379,5.72847 -18.35924,6.78955 -3.75199,2.90691 -8.58549,5.01434 -14.1034,5.77836 -21.43707,3.18725 -42.5376,-7.80396 -50.02471,-6.99001 -17.37288,1.76733 -16.94407,0.77535 -30.75042,-10.90644 -10.99698,-8.19012 -16.03203,-4.58138 -25.89477,-17.5673 -7.74974,-7.92781 -18.58327,-19.00703 -23.53947,-26.3021 -3.98659,-5.89832 -30.24386,-6.83403 -50.56778,-8.2406 -32.27473,4.50562 -43.90856,-2.70998 -69.68452,-0.31785 -18.55264,-0.42023 -36.63929,3.27645 -56.99029,0.28013 -16.50945,-0.69663 -34.44053,-2.35634 -51.47675,-2.0191 -17.16834,0.91737 -31.387784,-0.22629 -50.287425,2.57187 C 63.609915,233.50195 26.756978,232.56321 0,234.44008 c -18.856181,-1.01876 -37.712362,-0.36908 -56.568543,0"
       sodipodi:nodetypes="cccccccccccsssssccccccccccc" />
    <path
       style="color:#000000;fill:none;stroke:#80ff00;stroke-width:4;stroke-linecap:round;stroke-linejoin:round;stroke-miterlimit:4;stroke-opacity:1;stroke-dasharray:none;stroke-dashoffset:0;marker:none;visibility:visible;display:inline;overflow:visible;enable-background:accumulate"
       d="m 288.30899,256.80588 c 5.55051,-2.04837 13.24636,-3.99636 20.05274,-4.10865 10.72453,-0.91901 21.4639,-0.58306 31.37036,-4.82554 6.28719,-2.4538 13.12521,-2.86466 19.50269,-5.01023 2.86753,-0.1847 11.06578,-4.82371 21.95053,-2.1912"
       id="path2833-1"
       sodipodi:nodetypes="ccccc" />
    <path
       style="color:#000000;fill:none;stroke:#008000;stroke-width:4;stroke-linecap:round;stroke-linejoin:round;stroke-miterlimit:4;stroke-opacity:1;stroke-dasharray:none;stroke-dashoffset:0;marker:none;visibility:visible;display:inline;overflow:visible;enable-background:accumulate"
       d="m 397.38561,274.03932 c -1.78781,-4.90498 -7.02762,-8.57462 -13.38798,-9.92345 -12.642,3.54287 -26.84889,20.46489 -41.40975,21.29477 -13.78888,5.21713 -42.30509,10.37868 -62.81119,11.08579 0,0 -21.40532,1.69918 -38.18376,0.70711 -14.30625,-0.74038 -15.14214,2 -24.33453,1.29289 -21.2132,-2.82843 -76.78174,0.82842 -102.94469,1.53553 -19.500002,1.48825 -28.298125,-0.23926 -41.012195,-2.74687 -32.1507,0.64922 -66.8094482,-0.71856 -98.050252,2.91592"
       id="path7075"
       sodipodi:nodetypes="ccccccccc" />
    <path
       style="fill:none;stroke:#80ff00;stroke-width:3.99999976;stroke-linecap:round;stroke-linejoin:round;stroke-miterlimit:4;stroke-opacity:1;stroke-dasharray:none"
       d="m 274.24894,210.00714 c -2.15068,-1.73272 -5.22611,-1.23761 -7.35012,-3.04087 -1.66446,-0.81173 -3.69057,-0.57362 -5.33556,-1.44021 -1.75855,-0.83787 -3.71783,-0.93621 -5.66119,-1.10556 -1.67194,-0.23564 -3.18618,-0.9252 -4.80048,-1.31732 -0.96274,-1.16018 -2.20751,-1.20758 -3.24789,-2.28108 -1.26065,-1.28806 -3.37482,-0.89695 -4.42636,-2.59047 0.33245,-0.84211 2.19351,-1.31085 3.12824,-2.00665 2.78206,-1.52878 5.56398,-3.05943 8.34662,-4.58421 1.75057,-0.37491 3.54314,-1.70956 5.22792,-1.3043 1.43509,-0.0879 2.8804,-0.90233 4.31232,-1.30498 1.57958,-0.6499 3.39527,-1.21741 5.0536,-1.70191 1.705,-0.70726 3.42938,-1.13348 5.10273,-2.24251 1.31199,-0.86591 2.96829,-1.92489 2.96105,0.51945 0.35595,1.67569 -0.57342,3.6584 -0.20802,5.34217 -0.0901,2.06288 0.35388,3.9352 -0.40125,6.21251 0.12526,2.08843 -0.21349,4.46522 0.27825,6.38787 -0.23499,1.92179 -0.0233,3.81944 0.0184,5.626 0.07,0.43148 0.34577,1.21494 -0.19055,1.57744 -1.11204,-0.72139 -1.67491,0.003 -2.80771,-0.74537 z"
       id="path2942"
       sodipodi:nodetypes="ccccccccccccsccccccc" />
    <path
       style="color:#000000;fill:none;stroke:#80ff00;stroke-width:3.99999976;stroke-linecap:round;stroke-linejoin:round;stroke-miterlimit:4;stroke-opacity:1;stroke-dasharray:none;stroke-dashoffset:0;marker:none;visibility:visible;display:inline;overflow:visible;enable-background:accumulate"
       d="m 279.43989,246.60103 c -1.27767,-0.24456 -2.47675,4.70464 -3.708,6.66352 -1.0006,1.59199 -2.26135,3.04121 -3.07292,4.71244 -0.90015,1.85368 -1.53867,3.83553 -2.51927,5.64763 -1.47191,2.72022 -3.22427,5.30895 -4.89273,7.93032 -0.81571,1.28156 -2.09583,2.12074 -2.46975,3.57484 -0.46381,1.80628 -2.85233,4.16088 -2.02115,5.15261 0.77268,0.92193 3.29841,-0.90611 4.9848,-0.75636 5.42014,0.48116 7.04657,-1.6047 10.27645,-3.05485 2.27997,-1.02368 3.9133,-2.72243 6.24751,-3.51671 2.55981,-0.87096 5.28332,-0.88811 7.8553,-1.72537 1.61839,-0.52679 2.96199,-1.55149 4.51245,-2.17168 2.31722,-0.92698 -0.40217,-2.20892 -1.15372,-2.96884 -1.39105,-1.40645 -2.49348,-3.05491 -3.8011,-4.53222 -1.13012,-1.27682 -1.63018,-3.02031 -2.9044,-4.24018 -1.37755,-1.31878 -2.81898,-2.66334 -3.83973,-4.26821 -0.97726,-1.5365 -1.86996,-3.16304 -2.65561,-4.83625 -0.386,-0.82211 -0.19308,-1.48745 -0.8381,-1.6107 z"
       id="path2870"
       sodipodi:nodetypes="csssssssssssssssss"
       inkscape:transform-center-x="9.7344603"
       inkscape:transform-center-y="5.9796217" />
    <path
       style="fill:none;stroke:#80ff00;stroke-width:3.99999952;stroke-linecap:round;stroke-linejoin:round;stroke-miterlimit:4;stroke-opacity:1;stroke-dasharray:none"
       d="m 351.36104,237.64372 c 0.31189,-3.41744 -2.28682,-6.85417 -2.1578,-10.24696 0.65158,-4.3625 -0.0708,-7.61942 -1.77971,-11.85962 -0.58508,-2.75764 -0.87612,-10.69022 -3.5742,-5.92959 -1.71987,3.15715 -3.20965,4.15807 -4.94589,8.02404 -2.51447,3.59692 -4.56606,5.15444 -6.06547,8.78013 -1.77931,2.13724 -5.91713,5.55661 -5.78125,6.75052"
       id="path2956-7"
       sodipodi:nodetypes="ccccccc" />
    <path
       style="fill:none;stroke:#80ff00;stroke-width:3.99999976;stroke-linecap:round;stroke-linejoin:round;stroke-miterlimit:4;stroke-opacity:1;stroke-dasharray:none"
       d="m 277.06827,233.13211 c 0.13603,-0.62958 1.76574,-4.02866 2.12798,-5.70483 1.18918,-5.2626 3.62275,-7.27521 4.64119,-14.11496 2.45327,-5.27616 3.83101,-7.62158 6.25563,-11.80738 1.18147,4.05773 2.21435,8.19814 3.43215,12.23232 1.487,6.27854 2.69983,5.7259 5.59114,12.60879 0.96232,1.18426 1.79522,3.44154 4.25878,5.67326"
       id="path2958-6"
       sodipodi:nodetypes="ccccccc" />
    <g
       id="g8805"
       transform="translate(35.466688,4.75)">
      <path
         sodipodi:nodetypes="csscc"
         id="path2859"
         d="m 72.470732,90.876305 c 8.353001,15.968585 6.97346,18.851005 12.482142,28.147305 2.799703,4.72471 3.99205,17.69971 1.557433,26.39618 -2.967608,10.60031 -6.165557,22.77974 -12.033268,30.69723 -6.435151,13.88607 -24.279162,18.66515 -28.126088,21.09254"
         style="color:#000000;fill:none;stroke:#c87137;stroke-width:3.99999976;stroke-linecap:round;stroke-linejoin:round;stroke-miterlimit:4;stroke-opacity:1;stroke-dasharray:none;stroke-dashoffset:0;marker:none;visibility:visible;display:inline;overflow:visible;enable-background:accumulate" />
      <path
         style="fill:none;stroke:#c87137;stroke-width:3.99999976;stroke-linecap:round;stroke-linejoin:round;stroke-miterlimit:4;stroke-opacity:1;stroke-dasharray:none"
         d="m 48.86016,195.94568 c -4.320691,-17.05833 -4.993093,-32.34815 -7.760727,-50.29683 1.284436,-2.68929 1.511357,-4.98475 4.70973,-9.20021 4.413542,-7.18548 12.001114,-18.48114 11.551822,-20.01674 5.273852,-8.29634 11.196884,-14.13844 15.829874,-22.580035"
         id="path3708"
         sodipodi:nodetypes="ccccc" />
      <path
         sodipodi:nodetypes="cccccsccccccc"
         id="path2905"
         d="m 39.012537,101.28462 c -3.071012,-0.623 -6.758244,-0.96162 -8.251407,0.37226 -2.942736,1.5813 -2.28487,3.59759 -5.146213,5.85971 -0.789787,2.49475 -2.016076,5.41708 -2.299738,8.2977 1.858127,3.76599 1.499423,6.43606 3.650845,9.57607 1.944395,1.99919 2.303765,4.59411 5.190893,5.1241 2.038842,0.37352 4.153509,1.48444 6.132221,1.27298 2.794163,-1.86008 5.376588,-1.95893 7.227216,-3.77085 0.785541,-2.34394 4.500861,-4.95327 5.490147,-7.16819 0.940435,-3.53205 -0.64859,-7.02383 0.291679,-10.55578 -1.012552,-1.63247 0.397738,-3.26653 -1.033193,-4.08222 -0.618134,-1.09645 -2.221631,-2.25077 -3.181651,-3.19481 -2.593299,-2.00509 -4.93817,0.0791 -8.070799,-1.73097 z"
         style="fill:none;stroke:#0000ff;stroke-width:4;stroke-linecap:round;stroke-linejoin:round;stroke-miterlimit:4;stroke-opacity:1;stroke-dasharray:none" />
      <path
         id="path2907"
         d="m 37.984042,133.86193 c -0.867156,3.26338 1.36579,7.44415 0.327573,8.65637 0.955143,5.06759 0.955179,10.31532 1.976231,15.36544 1.148602,4.31908 0.596656,8.73392 0.907626,12.84761 -0.155823,2.02265 -0.311636,4.04518 -0.467451,6.0677"
         style="fill:none;stroke:#0000ff;stroke-width:4;stroke-linecap:round;stroke-linejoin:round;stroke-miterlimit:4;stroke-opacity:1;stroke-dasharray:none" />
      <path
         sodipodi:nodetypes="ccccccccc"
         d="m 40.549638,176.81444 c -1.595206,2.50107 -4.405889,8.55092 -6.241112,12.79207 -1.02745,4.92036 -3.214935,5.55583 -3.770243,15.27712 -2.490737,8.68609 -6.733417,15.59734 -7.078115,20.78323 m 17.267853,-48.92628 c 2.345716,3.58849 5.02077,7.07142 6.332194,11.2371 2.31529,4.28957 2.810578,9.4057 4.828864,13.44079 -0.936681,5.0152 1.253638,9.28615 1.06158,14.13767 0.922378,3.54085 2.221227,6.71236 3.03194,10.34873"
         style="fill:none;stroke:#0000ff;stroke-width:4;stroke-linecap:round;stroke-linejoin:round;stroke-miterlimit:4;stroke-opacity:1;stroke-dasharray:none"
         id="path2909" />
      <path
         sodipodi:nodetypes="csssssss"
         id="path2911-0"
         d="m 85.126135,152.67211 c -8.279252,-2.53603 -17.734317,-5.02554 -26.908592,-7.88962 -6.191493,-1.93288 -11.925104,-3.95973 -18.64078,-5.6361 -2.585192,-0.64535 -13.387497,-2.82842 -18.117631,-4.47076 -5.05238,-1.75422 -10.302658,1.0021 -7.304694,2.61238 4.807743,2.58235 5.378633,5.00971 11.09826,5.27808 3.305207,0.1551 7.437599,1.04269 9.895952,1.97915 1.333626,0.50802 4.339385,1.18457 6.463737,1.13619"
         style="fill:none;stroke:#0000ff;stroke-width:4;stroke-linecap:round;stroke-linejoin:round;stroke-miterlimit:4;stroke-opacity:1;stroke-dasharray:none" />
    </g>
    <g
       id="g8813"
       transform="translate(20.43159,5.7450684)">
      <path
         style="color:#000000;fill:none;stroke:#c87137;stroke-width:3.99999976;stroke-linecap:round;stroke-linejoin:round;stroke-miterlimit:4;stroke-opacity:1;stroke-dasharray:none;stroke-dashoffset:0;marker:none;visibility:visible;display:inline;overflow:visible;enable-background:accumulate"
         d="m 145.71906,150.94594 c 9.26259,15.45874 8.05207,18.41612 14.0892,27.37825 3.06829,4.55488 5.00908,17.43919 3.08152,26.26192 -2.34955,10.7542 -4.83772,23.0982 -10.23768,31.34182 -5.62124,14.23501 -23.15898,20.03814 -26.85907,22.68396"
         id="path8793"
         sodipodi:nodetypes="csscc" />
      <path
         sodipodi:nodetypes="ccccc"
         id="path8795"
         d="m 128.22494,257.20501 c -5.30007,-16.77989 -6.85566,-32.00521 -10.65677,-49.76378 1.12674,-2.75908 1.22052,-5.06381 4.16973,-9.45721 3.99056,-7.42871 10.91212,-19.14431 10.37477,-20.65136 4.78519,-8.58748 10.36041,-14.76237 14.4974,-23.45779"
         style="fill:none;stroke:#c87137;stroke-width:3.99999976;stroke-linecap:round;stroke-linejoin:round;stroke-miterlimit:4;stroke-opacity:1;stroke-dasharray:none" />
      <path
         style="fill:none;stroke:#0000ff;stroke-width:4;stroke-linecap:round;stroke-linejoin:round;stroke-miterlimit:4;stroke-opacity:1;stroke-dasharray:none"
         d="m 103.23696,186.4774 c 1.12535,3.27203 2.77942,6.98537 4.53779,7.71566 2.69026,1.99001 3.84248,0.29908 6.99449,1.85308 2.25408,-0.55452 5.05006,-0.91535 7.32823,-2.15802 1.82701,-3.76173 3.98814,-4.82174 5.20042,-8.53553 0.475,-2.91546 2.20963,-4.62444 1.11044,-7.67127 -0.77677,-2.15123 -1.04703,-4.76288 -2.22563,-6.54887 -2.8198,-1.701 -4.22692,-4.12502 -6.52368,-4.94667 -2.14028,0.4793 -5.99037,-1.71094 -8.14043,-1.49485 -3.09951,0.95551 -4.8626,4.31504 -7.96194,5.27064 -0.68498,1.82918 -2.62268,1.33622 -2.48714,3.13707 -0.49206,1.16917 -0.51796,3.31354 -0.72065,4.73039 -0.14419,3.54071 2.60935,4.69311 2.8881,8.64837 z"
         id="path8797"
         sodipodi:nodetypes="cccccsccccccc" />
      <path
         sodipodi:nodetypes="ccccc"
         style="fill:none;stroke:#0000ff;stroke-width:4;stroke-linecap:round;stroke-linejoin:round;stroke-miterlimit:4;stroke-opacity:1;stroke-dasharray:none"
         d="m 115.36666,198.14226 c 0.38069,3.3551 0.30513,7.79771 -0.73308,9.00993 0.95514,5.06759 0.68741,9.88854 0.20846,15.18866 0.88084,4.67263 1.12698,8.73392 1.43795,12.84761 -0.15582,2.02265 0.39548,4.04518 0.23966,6.0677"
         id="path8799" />
      <path
         id="path8801"
         style="fill:none;stroke:#0000ff;stroke-width:4;stroke-linecap:round;stroke-linejoin:round;stroke-miterlimit:4;stroke-opacity:1;stroke-dasharray:none"
         d="m 134.04074,289.10028 c -1.63558,-2.31713 -1.7368,-11.15085 -3.64209,-15.1802 -1.11076,-4.8014 -0.43717,-4.85887 -5.09914,-13.18984 -2.63656,-8.39819 -5.91198,-14.05466 -8.46539,-19.07922 m -14.41946,48.60899 c 2.27925,-3.85786 3.48215,-7.21397 4.71903,-11.52992 1.01132,-5.55126 1.14251,-9.72768 3.08721,-13.9944 1.03613,-4.90667 1.8134,-8.44794 3.40825,-12.37389 0.85936,-3.64646 2.1009,-6.96695 2.84714,-10.69605"
         sodipodi:nodetypes="ccccccccc" />
      <path
         style="fill:none;stroke:#0000ff;stroke-width:4;stroke-linecap:round;stroke-linejoin:round;stroke-miterlimit:4;stroke-opacity:1;stroke-dasharray:none"
         d="m 118.0884,208.30265 c -5.51409,-1.31929 -9.54301,-1.35139 -12.02166,-1.43061 -5.30247,-1.47018 -6.808254,-1.79281 -10.434354,-2.05405 -5.322608,-0.52272 -9.043416,-4.71665 -5.642596,-4.71176 4.680298,0.007 13.23821,-0.46354 19.13289,1.27054 5.33294,1.56882 8.85225,1.49358 16.42882,2.37742 8.54125,2.53554 16.07268,3.72807 24.19376,4.34724 3.29565,0.39672 10.64872,1.71888 12.55413,2.65938"
         id="path8803"
         sodipodi:nodetypes="cccssccs" />
    </g>
    <path
       style="color:#000000;fill:none;stroke:#80ff00;stroke-width:4;stroke-linecap:round;stroke-linejoin:round;stroke-miterlimit:4;stroke-opacity:1;stroke-dasharray:none;stroke-dashoffset:0;marker:none;visibility:visible;display:inline;overflow:visible;enable-background:accumulate"
       d="m 357.71251,209.75561 c -2.37234,-1.0436 -4.84314,-1.62942 -7.75742,-1.88803 -3.0245,-0.26873 -5.99234,-0.96507 -9.02883,-1.58619 -3.34454,-0.68409 -8.51592,1.48241 -12.2533,0.82949 -5.04781,1.21626 -9.57563,-0.51163 -14.29234,-0.72571 -5.85625,-0.2658 -11.94088,-1.29482 -17.16765,-4.03771 -2.98288,-0.0497 -5.1775,-2.40795 -8.17504,-2.7171 -2.31224,-0.23864 -8.22714,-0.77002 -10.01864,-1.2425"
       id="path2833-17"
       sodipodi:nodetypes="csscscss" />
    <g
       id="g4999"
       transform="matrix(1.3288894,-0.05434076,0.05434076,1.3288894,-33.758535,-89.009741)">
      <path
         id="path2905-4"
         d="m 46.435436,195.23066 c -2.3518,0.1417 -3.143,2.1737 -3.9697,3.4318 -1.832,1.7184 -1.1944,2.3784 -2.8355,4.5757 -0.091,1.9654 -1.202,3.5113 -0.8506,5.6591 -0.3259,3.1406 2.2267,5.7915 4.3975,7.6565 1.7996,1.0762 3.4568,2.301 5.657,2.1273 1.5536,-0.1232 3.305,0.2747 4.7017,-0.2619 1.6701,-1.8922 5.1419,-2.6222 6.1358,-4.2968 0.1171,-1.855 0.084,-3.6988 0.3741,-5.4995 -3e-4,-2.7482 4e-4,-5.4964 0,-8.2445 -1.0516,-0.9901 -1.5614,-2.5441 -2.7589,-2.8598 -0.6613,-0.677 -2.3021,-0.3764 -3.1823,-0.8765 -2.2722,-0.9549 -5.0428,-0.7026 -7.6691,-1.4114 z"
         style="fill:none;stroke:#0000ff;stroke-width:3.00751877;stroke-linecap:round;stroke-linejoin:round;stroke-miterlimit:4;stroke-opacity:1;stroke-dasharray:none" />
      <path
         id="path2907-0"
         d="m 48.703836,220.68286 c 0.4616,2.4965 -1.4538,5.5017 -0.7455,6.4704 -1.0087,3.7438 -0.560548,7.70852 -1.617648,11.43542 -1.797617,3.1434 -1.343282,6.49699 -2.173652,9.54818 0,1.5253 0,3.0505 0,4.5757"
         style="fill:none;stroke:#0000ff;stroke-width:3.00751877;stroke-linecap:round;stroke-linejoin:round;stroke-miterlimit:4;stroke-opacity:1;stroke-dasharray:none"
         sodipodi:nodetypes="ccccc" />
      <path
         style="color:#000000;fill:none;stroke:#c87137;stroke-width:3.00751877;stroke-linecap:round;stroke-linejoin:round;stroke-miterlimit:4;stroke-opacity:1;stroke-dasharray:none;stroke-dashoffset:0;marker:none;visibility:visible;display:inline;overflow:visible;enable-background:accumulate"
         d="m 67.443025,187.77955 c 8.072609,10.88264 7.385311,13.18491 12.564586,19.44478 2.63229,3.1815 5.036241,12.67871 4.2457,19.42264 -0.96361,8.22031 -1.913505,17.64041 -5.345018,24.20753 -3.154503,11.06648 -15.848292,16.70416 -18.421407,18.9572"
         id="path8793-4"
         sodipodi:nodetypes="csscc" />
      <path
         d="m 45.017736,254.42846 c 1.1178,1.8684 3.4038,6.096 5.1038,8.9229 1.5773,4.0953 4.5683,6.6437 6.2874,10.5704 2.1456,2.4737 3.6298,5.2055 5.3381,8.305 1.3155,1.7082 1.4575,6.0863 2.3884,6.548 0.2039,0.1945 0.8665,2.4462 0.1635,1.3453 m -20.1319,-37.4075 c -1.9736,2.6568 -4.1891,5.2298 -5.4172,8.334 -2.1409,3.1781 -3.2446,6.9927 -5.641199,9.9687 -0.3373,3.7493 -3.463,6.3902 -4.2532,10.0093 -0.9566,2.5608 -2.2367,4.3759 -2.8355,7.1495 -0.6328,0.9592 -0.14,2.0124 -0.2835,-0.572"
         style="fill:none;stroke:#0000ff;stroke-width:3.00751877;stroke-linecap:round;stroke-linejoin:round;stroke-miterlimit:4;stroke-opacity:1;stroke-dasharray:none"
         id="path2909-9" />
      <path
         sodipodi:nodetypes="ccccc"
         id="path8795-8"
         d="m 62.202618,268.57936 c -5.205277,-12.1639 -7.493944,-23.44121 -11.649932,-36.44813 0.639262,-2.14769 0.539179,-3.87912 2.421358,-7.3843 2.437145,-5.85326 6.750709,-15.13068 6.23731,-16.21861 2.946118,-6.779 6.661591,-11.81116 9.114729,-18.62304"
         style="fill:none;stroke:#c87137;stroke-width:3.00751877;stroke-linecap:round;stroke-linejoin:round;stroke-miterlimit:4;stroke-opacity:1;stroke-dasharray:none" />
      <path
         id="path2911"
         d="m 51.333128,230.76394 c -3.893278,0.35773 -6.471558,-2.04736 -9.465099,-2.95697 -3.660759,-1.39394 -11.823784,0.0996 -11.303796,-4.55512 -0.09445,-1.17665 13.792064,0.40554 16.873855,-0.61663 3.07941,-0.16118 7.495517,1.38702 9.660507,1.69811 3.580264,0.51782 8.921054,3.06094 14.477264,3.98479 3.082909,0.59348 5.49591,1.04944 8.248406,1.57253 1.272499,0.33263 2.624291,-0.2833 3.524986,0.1867"
         style="fill:none;stroke:#0000ff;stroke-width:3.00751877;stroke-linecap:round;stroke-linejoin:round;stroke-miterlimit:4;stroke-opacity:1;stroke-dasharray:none"
         inkscape:transform-center-x="-17.243257"
         inkscape:transform-center-y="9.3093079"
         sodipodi:nodetypes="cccccccc" />
    </g>
    <path
       style="fill:none;stroke:#80ff00;stroke-width:3.99999976;stroke-linecap:round;stroke-linejoin:round;stroke-miterlimit:4;stroke-opacity:1;stroke-dasharray:none"
       d="m 357.94231,275.61833 c 0.45426,-4.26531 0.52926,-8.64367 2.96063,-12.55136 2.38004,-4.97345 4.41224,-10.12077 7.54504,-14.90005 1.39226,-3.23694 3.42375,-11.57215 5.56559,-5.0761 3.54367,4.36831 6.34927,8.87738 7.98051,13.83591 2.20168,5.02464 5.11027,10.55864 6.06064,15.37015 -0.7172,1.42446 1.23557,2.34788 0.77673,3.7781"
       id="path2956" />
    <path
       style="fill:none;stroke:#80ff00;stroke-width:3.99999952;stroke-linecap:round;stroke-linejoin:round;stroke-miterlimit:4;stroke-opacity:1;stroke-dasharray:none"
       d="m 294.67547,291.37091 c -0.32435,-4.27725 2.98955,-8.52286 2.89332,-12.76581 0.69554,-5.465 3.33746,-9.52179 2.45173,-14.78867 0.78409,-3.43542 1.29992,-13.3444 4.58086,-7.34261 2.08908,3.97896 3.93191,5.2585 6.02784,10.12368 3.07378,4.54381 5.60811,6.52982 7.41264,11.09014 2.18291,2.70533 7.28904,7.05838 7.09632,8.54798"
       id="path2956-7-8"
       sodipodi:nodetypes="ccccccc" />
    <path
       style="color:#000000;fill:none;stroke:#80ff00;stroke-width:4;stroke-linecap:round;stroke-linejoin:round;stroke-miterlimit:4;stroke-opacity:1;stroke-dasharray:none;stroke-dashoffset:0;marker:none;visibility:visible;display:inline;overflow:visible;enable-background:accumulate"
       d="m 381.39947,240.49183 c 19.15758,5.36875 44.59014,0.16844 50.01172,18.69931 2.85957,9.77395 4.39791,20.93707 16.7484,22.67627 16.18132,2.27852 34.3327,4.91887 49.06936,3.73315 11.3217,-0.91096 10.75378,-1.717 19.45921,-5.17716 0.7098,-0.28213 10.89869,0.2453 17.15431,3.15897"
       id="path4125-2"
       sodipodi:nodetypes="csssss" />
    <path
       style="color:#000000;fill:none;stroke:#80ff00;stroke-width:3.99999952;stroke-linecap:round;stroke-linejoin:round;stroke-miterlimit:4;stroke-opacity:1;stroke-dasharray:none;stroke-dashoffset:0;marker:none;visibility:visible;display:inline;overflow:visible;enable-background:accumulate"
       d="m 359.09879,210.19369 c 12.16322,4.13914 24.49815,3.7271 29.86307,-12.4568 0.48533,-7.80428 2.13878,-11.59141 -4.80089,-18.85691 -9.9998,-6.76063 -11.15941,-3.83353 -20.95192,-8.49787 -10.0578,0.78268 -17.03003,-4.64292 -26.98331,-2.73352 -10.54721,-0.0177 -23.84323,-2.47176 -34.38553,-4.0532"
       id="path4125-8"
       sodipodi:nodetypes="cccccc" />
    <path
       style="fill:none;stroke:#808080;stroke-width:3.99999976;stroke-linecap:round;stroke-linejoin:round;stroke-miterlimit:4;stroke-opacity:1;stroke-dasharray:none"
       d="m 265.99927,293.30247 c 0.47005,0.46288 -4.62024,0.1772 -7.28168,0.32354 -3.35138,-0.51063 -2.78935,0.27385 -5.71031,-0.0992 -1.1724,-0.43844 0.84391,-2.19384 -0.18744,-2.97607 -0.46337,-1.00712 -7.8111,-2.3407 -7.24402,-3.08483 1.09109,-1.53178 6.1062,-0.12642 8.0319,0.64506 1.07867,-0.7425 1.05046,-3.95138 2.18011,-2.10834 4.65,3.84819 7.99663,5.11853 10.21147,7.29985 z"
       id="path3747"
       sodipodi:nodetypes="cccccccs" />
  </g>
</svg>
