<?xml version="1.0" encoding="UTF-8" standalone="no"?>
<!-- Created with Inkscape (http://www.inkscape.org/) -->

<svg
   xmlns:dc="http://purl.org/dc/elements/1.1/"
   xmlns:cc="http://creativecommons.org/ns#"
   xmlns:rdf="http://www.w3.org/1999/02/22-rdf-syntax-ns#"
   xmlns:svg="http://www.w3.org/2000/svg"
   xmlns="http://www.w3.org/2000/svg"
   xmlns:sodipodi="http://sodipodi.sourceforge.net/DTD/sodipodi-0.dtd"
   xmlns:inkscape="http://www.inkscape.org/namespaces/inkscape"
   width="480"
   height="320"
   id="svg2"
   version="1.1"
   inkscape:version="0.47 r22583"
   sodipodi:docname="itnas210.svg"
   inkscape:export-xdpi="90"
   inkscape:export-ydpi="90"
   inkscape:export-filename="itnas209.png">
  <defs
     id="defs4" />
  <sodipodi:namedview
     id="base"
     pagecolor="#ffffff"
     bordercolor="#666666"
     borderopacity="1.0"
     inkscape:pageopacity="1"
     inkscape:pageshadow="2"
     inkscape:zoom="1"
     inkscape:cx="296.88308"
     inkscape:cy="67.569655"
     inkscape:document-units="px"
     inkscape:current-layer="layer1"
     showgrid="false"
     inkscape:snap-nodes="true"
     inkscape:snap-global="true"
     inkscape:snap-grids="true"
     showguides="true"
     inkscape:window-width="1680"
     inkscape:window-height="1000"
     inkscape:window-x="1680"
     inkscape:window-y="25"
     inkscape:window-maximized="1"
     inkscape:object-nodes="true">
    <inkscape:grid
       empspacing="5"
       visible="true"
       enabled="true"
       snapvisiblegridlinesonly="true"
       type="xygrid"
       id="grid2816" />
  </sodipodi:namedview>
  <metadata
     id="metadata7">
    <rdf:RDF>
      <cc:Work
         rdf:about="">
        <dc:format>image/svg+xml</dc:format>
        <dc:type
           rdf:resource="http://purl.org/dc/dcmitype/StillImage" />
        <dc:title />
      </cc:Work>
    </rdf:RDF>
  </metadata>
  <g
     inkscape:label="Layer 1"
     inkscape:groupmode="layer"
     id="layer1"
     transform="translate(0,0)">
    <path
       style="color:#000000;fill:none;stroke:#c87137;stroke-width:3.99999928;stroke-linecap:round;stroke-linejoin:round;stroke-miterlimit:4;stroke-opacity:1;stroke-dasharray:none;stroke-dashoffset:0;marker:none;visibility:visible;display:inline;overflow:visible;enable-background:accumulate"
       d="m -290.58106,105.79285 c 1.77546,-9.516023 0.9872,-13.482383 0.119,-22.973843 -1.17612,-12.85576 0.5094,-20.57156 1.87552,-33.3405 2.71494,-25.37616 -0.2035,-38.18116 -0.47392,-57.51794 -0.1356,-9.70074 1.14302,-21.78864 0.9519,-31.63408 -0.26966,-13.8899 -3.04474,-19.9188 -2.45868,-33.8271 0.1946,-14.52908 1.46042,-15.88358 1.40924,-30.201337"
       id="path2832"
       sodipodi:nodetypes="csssscc" />
    <path
       style="color:#000000;fill:none;stroke:#c87137;stroke-width:3.99999976;stroke-linecap:round;stroke-linejoin:round;stroke-miterlimit:4;stroke-opacity:1;stroke-dasharray:none;stroke-dashoffset:0;marker:none;visibility:visible;display:inline;overflow:visible;enable-background:accumulate"
       d="m -363.17013,-97.889733 c 0.72897,7.38286 1.29942,14.7757 2.10573,22.22044 1.05076,9.7021 -2.78774,19.25654 -2.78774,29.0609 0,22.31714 4.73043,48.18234 0.68201,69.54284 -2.14882,11.33766 -1.5473,22.3867 0,32.5861 -0.40882,18.62116 3.09257,29.395 0.187,48.460703"
       id="path2850"
       sodipodi:nodetypes="cssscc" />
    <path
       style="color:#000000;fill:none;stroke:#c87137;stroke-width:3.99999976;stroke-linecap:round;stroke-linejoin:round;stroke-miterlimit:4;stroke-opacity:1;stroke-dasharray:none;stroke-dashoffset:0;marker:none;visibility:visible;display:inline;overflow:visible;enable-background:accumulate"
       d="m 290.29956,148.01474 c -12.15478,-2.30956 -26.43518,-10.87036 -34,-2 -14.92864,9.07882 -15.81982,17.24514 -16,24"
       id="path4395"
       sodipodi:nodetypes="ccc" />
    <path
       style="color:#000000;fill:none;stroke:#c87137;stroke-width:3.99999976;stroke-linecap:round;stroke-linejoin:round;stroke-miterlimit:4;stroke-opacity:1;stroke-dasharray:none;stroke-dashoffset:0;marker:none;visibility:visible;display:inline;overflow:visible;enable-background:accumulate"
       d="m 301.83428,176.9584 -25.17996,13.56352 c -8.06034,12.6937 -0.72644,16.25666 -12.35724,26.23544"
       id="path4397"
       sodipodi:nodetypes="ccc" />
    <path
       sodipodi:nodetypes="cssssc"
       id="path4261"
       d="m 572.83736,60.02226 c -6.44834,7.82614 -10.23766,9.85882 -18.5716,15.54192 -11.28812,7.69746 -16.33932,14.2408 -25.72444,23.92476 -18.65136,19.24518 -31.1541,25.50704 -47.05262,38.29042 -7.97586,6.41318 -16.871,15.56882 -25.00436,22.03458 -11.47448,9.1218 -23.97944,17.88592 -34.85216,27.7084"
       style="color:#000000;fill:none;stroke:#c87137;stroke-width:3.99999905;stroke-linecap:round;stroke-linejoin:round;stroke-miterlimit:4;stroke-opacity:1;stroke-dasharray:none;stroke-dashoffset:0;marker:none;visibility:visible;display:inline;overflow:visible;enable-background:accumulate" />
    <path
       sodipodi:nodetypes="cssscc"
       id="path4263"
       d="m 371.47992,138.26118 c 5.95556,-4.17294 11.81492,-8.47268 17.86696,-12.6264 7.88702,-5.41328 12.46992,-14.4466 19.74628,-20.72366 C 425.65608,90.62302 447.94292,77.65718 461.15062,60.9058 468.1609,52.01454 476.7541,45.39758 485.33464,40.0432 498.8874,27.81076 509.17106,23.57312 521.4224,9.15928"
       style="color:#000000;fill:none;stroke:#c87137;stroke-width:3.99999928;stroke-linecap:round;stroke-linejoin:round;stroke-miterlimit:4;stroke-opacity:1;stroke-dasharray:none;stroke-dashoffset:0;marker:none;visibility:visible;display:inline;overflow:visible;enable-background:accumulate" />
    <path
       style="color:#000000;fill:none;stroke:#c87137;stroke-width:3.99999976;stroke-linecap:round;stroke-linejoin:round;stroke-miterlimit:4;stroke-opacity:1;stroke-dasharray:none;stroke-dashoffset:0;marker:none;visibility:visible;display:inline;overflow:visible;enable-background:accumulate"
       d="m 195.8999,118.92659 c 2.37724,-21.723863 0.95388,-47.938403 3.84448,-75.343763 1.1572,-31.54076 -5.3703,-56.55424 -4.48522,-89.2229 0.96108,-22.85858 -1.08386,-38.13102 5.12598,-54.1946"
       id="path4281"
       sodipodi:nodetypes="cccc" />
    <path
       style="color:#000000;fill:none;stroke:#c87137;stroke-width:3.99999928;stroke-linecap:round;stroke-linejoin:round;stroke-miterlimit:4;stroke-opacity:1;stroke-dasharray:none;stroke-dashoffset:0;marker:none;visibility:visible;display:inline;overflow:visible;enable-background:accumulate"
       d="m 131.18436,-94.692473 c -4.59826,30.00404 1.17414,34.1652 1.28148,58.63892 -1.31992,18.99042 -3.47158,36.96321997 0,52.53068 -2.1358,37.2772 -1.70866,36.19132 -3.84446,50.08742 -1.66538,16.99986 1.04754,29.06256 2.56298,38.481783"
       id="path4277"
       sodipodi:nodetypes="ccccc" />
    <path
       sodipodi:nodetypes="cccc"
       id="path4306"
       d="m -95.72322,-97.265733 c -2.37724,19.8414 -0.95386,43.78438 -3.84448,68.81496 -1.1572,28.80759997 5.3703,51.65356 4.48522,81.49136 -0.96108,20.87778 1.08386,34.82684 -5.12596,49.498483"
       style="color:#000000;fill:none;stroke:#c87137;stroke-width:3.99999928;stroke-linecap:round;stroke-linejoin:round;stroke-miterlimit:4;stroke-opacity:1;stroke-dasharray:none;stroke-dashoffset:0;marker:none;visibility:visible;display:inline;overflow:visible;enable-background:accumulate" />
    <path
       sodipodi:nodetypes="ccccc"
       id="path4308"
       d="m -30.95232,99.908347 c 4.31608,-30.12898 -1.10208,-34.30746 -1.20286,-58.88308 1.23894,-19.0695 3.25856,-37.11712 0,-52.74944 2.00478,-37.43236 1.60382,-36.34198 3.60858,-50.29592 1.56318,-17.0707 -0.98326,-29.18358 -2.40572,-38.642017"
       style="color:#000000;fill:none;stroke:#c87137;stroke-width:3.99999928;stroke-linecap:round;stroke-linejoin:round;stroke-miterlimit:4;stroke-opacity:1;stroke-dasharray:none;stroke-dashoffset:0;marker:none;visibility:visible;display:inline;overflow:visible;enable-background:accumulate" />
    <path
       style="color:#000000;fill:none;stroke:#94f3f3;stroke-width:4;stroke-linecap:round;stroke-linejoin:round;stroke-miterlimit:4;stroke-opacity:1;stroke-dasharray:none;stroke-dashoffset:0;marker:none;visibility:visible;display:inline;overflow:visible;enable-background:accumulate"
       d="m -314.46166,-596.13731 c -18.27173,19.8708 -36.54345,84.73741 -54.81518,135.88452 -21.08111,37.03718 -24.2956,92.07562 -53.29254,146.57208 -7.35086,35.33344 -20.74226,89.225 -46.83798,138.78208 -9.26278,23.16672 -17.5986,26.92776 -32.3395,68.86166 49.70446,9.293197 87.23158,-0.7315 127.90209,7.633977 l 89.83599,-7.633957 120.28884,6.107157 c -11.16606,-16.799557 -22.33212,-40.984657 -33.49816,-96.187917 -35.71884,-93.90668 -20.28902,-74.45632 -25.88494,-103.82188 -11.77242,-32.74484 -14.13652,-71.03674 -25.66958,-108.40225 -12.18116,-21.48166 -35.23616,-83.34861 -47.41732,-131.30417 -2.54492,-14.82598 -5.09726,-37.33804 -18.27172,-56.4913 z"
       id="path4156"
       sodipodi:nodetypes="ccccccccccccc" />
    <path
       sodipodi:nodetypes="cccccscccccccc"
       id="path4265"
       d="m 102.70886,-103.06381 c -0.40596,-35.1692 -32.67052,-105.8277 -48.09506,-154.0583 -7.24432,-46.46958 -32.0662,-74.18174 -43.73646,-139.5839 -13.2914,-25.56609 -32.47402,-67.76574 -43.22304,-126.83845 -6.4931,-23.29691 -4.13118,-37.12637 -16.89714,-76.31699 -12.9404,30.55402 -23.45252,60.52716 -35.9001,86.49264 -28.26132,58.95253 -18.11428,66.95822 -31.71672,98.41553 -23.0669,41.10381 -25.87782,67.84329 -31.00018,92.91477 -15.37796,33.39684 -27.36126,70.8018 -37.61324,110.62112 -4.12516,18.90286 -22.9442,54.78038 -35.71582,106.11668 13.65006,9.862057 30.84662,-1.59704 62.93778,5.03556 42.8175,3.413997 84.92174,0.517937 127.68556,-1.31908 20.25042,-1.2359 57.64142,0.97132 86.75986,3.084217 8.3918,2.44886 28.16706,0.3898 46.51456,-4.563797 z"
       style="color:#000000;fill:none;stroke:#94f3f3;stroke-width:3.99999928;stroke-linecap:round;stroke-linejoin:round;stroke-miterlimit:4;stroke-opacity:1;stroke-dasharray:none;stroke-dashoffset:0;marker:none;visibility:visible;display:inline;overflow:visible;enable-background:accumulate" />
    <path
       style="color:#000000;fill:none;stroke:#94f3f3;stroke-width:4;stroke-linecap:round;stroke-linejoin:round;stroke-miterlimit:4;stroke-opacity:1;stroke-dasharray:none;stroke-dashoffset:0;marker:none;visibility:visible;display:inline;overflow:visible;enable-background:accumulate"
       d="m 192.42238,-597.65209 c -0.43712,0.49108 -0.92446,0.98404 -1.36158,1.52534 -12.46486,29.69306 -23.82588,47.97284 -30.99618,75.06261 -7.62686,28.8146 -21.33744,43.4552 -29.79478,70.40632 -8.78112,23.20028 -12.89658,47.63267 -18.5817,63.98385 -19.63118,45.11214 -25.00228,65.76924 -37.16338,113.6777 -3.83016,25.22136 -11.8272,44.31138 -18.66178,62.85992 -4.07696,18.68208 -22.48186,53.98564 -35.24112,104.36514 42.4047,5.08712 76.33666,-2.11546 112.77162,5.3788 36.0764,-0.68814 75.39614,1.874697 105.24284,-5.05768 34.97416,-0.7231 69.94832,0.83928 104.92246,3.53236 -11.16604,-16.79958 -15.90554,-39.68872 -27.07158,-94.89198 -32.30304,-84.92638 -29.21558,-78.56806 -31.23646,-98.02294 -10.49722,-27.961 -24.97678,-55.18778 -33.07862,-100.59194 -13.29142,-25.56608 -26.01388,-60.06409 -36.76292,-119.13681 -6.43748,-23.09745 -10.58516,-44.66349 -22.98682,-83.09069 z"
       id="path4267"
       sodipodi:nodetypes="ccsccccccccccccc" />
    <path
       style="color:#000000;fill:none;stroke:#94f3f3;stroke-width:4;stroke-linecap:round;stroke-linejoin:round;stroke-miterlimit:4;stroke-opacity:1;stroke-dasharray:none;stroke-dashoffset:0;marker:none;visibility:visible;display:inline;overflow:visible;enable-background:accumulate"
       d="m 931.63982,-287.3996 c -0.85468,0.2732 -1.70914,0.55592 -2.56084,0.8313 -20.73964,0.61922 -58.05668,15.62958 -95.9071,31.0096 -37.45828,12.80602 -74.30678,26.67914 -110.23182,43.473 -25.4479,9.05182 -48.87356,21.1909 -75.25372,27.50216 -42.7914,23.6918 -87.29578,34.10006 -135.50046,54.88374 -23.55772,8.06404 -31.8204,4.2422 -73.1386,20.37782 11.0591,24.32698 27.38478,43.65524 43.80254,64.81658 25.39666,34.75558 55.1191,64.81376 84.44858,96.10576 14.16524,14.57944 36.88072,44.442 54.30972,67.94178 3.63268,7.9719 18.13158,21.66084 33.8627,32.37112 26.30978,-23.23366 40.59006,-71.52208 66.95654,-114.6801 20.77234,-33.74494 30.3546,-44.82342 45.19244,-61.35074 17.0512,-30.2889 44.44964,-57.0006 65.14874,-90.11962 16.25308,-54.3299 40.45894,-82.35066 68.20328,-121.58544 9.54022,-11.5979 24.91018,-28.22092 30.77504,-50.71526 -0.1976,-0.006 -0.4245,0.014 -0.6256,0.01 0.1806,-0.29762 0.33658,-0.5697 0.51862,-0.87138 z"
       id="path4271"
       sodipodi:nodetypes="ccccccccccccccccsc" />
    <path
       style="color:#000000;fill:none;stroke:#c87137;stroke-width:3.99999976;stroke-linecap:round;stroke-linejoin:round;stroke-miterlimit:4;stroke-opacity:1;stroke-dasharray:none;stroke-dashoffset:0;marker:none;visibility:visible;display:inline;overflow:visible;enable-background:accumulate"
       d="m 355.45894,228.10052 c -1.00434,7 -1.81016,14 -8,21 -10.66666,7.6033 -21.33334,11.89818 -32,17"
       id="path4399"
       sodipodi:nodetypes="ccc" />
    <path
       sodipodi:nodetypes="ccc"
       id="path4461"
       d="m 408.6523,233.71744 c -4.7267,6.98802 -1.67442,17.85256 -4.97648,28.3999 -3.34456,9.76534 -10.46192,18.5777 -23.48966,26.36626"
       style="color:#000000;fill:none;stroke:#c87137;stroke-width:3.99999976;stroke-linecap:round;stroke-linejoin:round;stroke-miterlimit:4;stroke-opacity:1;stroke-dasharray:none;stroke-dashoffset:0;marker:none;visibility:visible;display:inline;overflow:visible;enable-background:accumulate" />
    <path
       id="path2949"
       style="color:#000000;fill:none;stroke:#008000;stroke-width:4;stroke-linecap:round;stroke-linejoin:round;stroke-miterlimit:4;stroke-opacity:1;stroke-dasharray:none;stroke-dashoffset:0;marker:none;visibility:visible;display:inline;overflow:visible;enable-background:accumulate"
       d="m 179.52082,224.15332 c 13.53508,2.03623 25.12511,0.37579 36.0222,8.17046 22.20035,23.32019 24.79558,24.75436 46.78954,41.1346 27.61272,23.36358 26.7551,25.34754 61.50084,21.81288 14.47422,-1.3779 55.4253,19.35452 100.04942,13.98002 39.5,-2.25 53.12866,-32.30218 41.6005,-55.62132 -19.33334,-26 -69.64258,-15.736 -111.18376,-27.61522 -19.93724,-12.4897 -44.18366,-32.08644 -50,-50 -6.62876,-10.32658 -10.59108,-24.3196 -19.7575,-42.10852 -4.58224,-24.0502 -13.7329,-43.20994 9.29924,-43.91252 15.41114,9.68148 55.9724,-4.07256 67.2693,21.30038 10.16548,43.14322 24.12238,61.22134 59.58934,78.38704 54.24562,4.18312 80.72284,15.41008 105.50644,11.40476 21.59102,3.88624 46.00416,11.97744 70.8479,10.90324"
       sodipodi:nodetypes="cccccccccccccc" />
    <path
       style="fill:none;stroke:#80ff00;stroke-width:3.99999976;stroke-linecap:round;stroke-linejoin:round;stroke-miterlimit:4;stroke-opacity:1;stroke-dasharray:none"
       d="m 104.49562,53.736974 c -1.09182,3.584441 5.4798,0.303026 4.01372,4.484349 2.01663,5.503259 7.60777,8.079325 9.51561,13.67818 2.04271,3.316674 5.64599,5.170593 7.60618,8.563028 2.17619,3.469053 5.36136,5.846926 8.45524,8.333281 2.57987,2.299311 4.48275,5.229561 6.82379,7.742689 0.55246,3.148206 2.58979,4.632069 3.35104,7.713189 0.93371,3.71091 4.82385,5.39135 5.03898,9.58907 -1.32248,1.12578 -4.85996,-0.13198 -7.05594,0.0561 -6.04223,-0.4056 -12.08589,-0.80783 -18.1254,-1.22114 -3.2673,-1.30055 -7.47893,-0.93936 -9.92578,-3.55507 -2.47876,-1.45681 -5.63596,-1.63176 -8.396,-2.5246 -3.23201,-0.61862 -6.783572,-1.64942 -9.996522,-2.65115 -3.493865,-0.65751 -6.764142,-1.83721 -10.570959,-1.74375 -2.981459,0.0667 -6.714211,0.0903 -4.476024,-4.253973 0.931183,-3.383931 4.290161,-5.869543 5.212899,-9.278493 2.029205,-3.571906 2.992367,-7.404936 6.328522,-10.610947 1.692615,-3.859518 4.423401,-7.710828 5.352493,-11.687213 2.142964,-3.157761 3.517361,-6.774704 5.092811,-10.03843 0.27519,-0.847242 0.52857,-2.552087 1.75516,-2.594551 z"
       id="path2942" />
    <path
       style="color:#000000;fill:none;stroke:#80ff00;stroke-width:3.99999976;stroke-linecap:round;stroke-linejoin:round;stroke-miterlimit:4;stroke-opacity:1;stroke-dasharray:none;stroke-dashoffset:0;marker:none;visibility:visible;display:inline;overflow:visible;enable-background:accumulate"
       d="m -108.63004,76.326429 c -35.72179,-0.531969 -47.84797,4.941962 -85.13304,-4.247253 -19.36545,-4.772929 -28.83051,-8.045219 -52.896,-15.240303 -27.8375,-8.322883 -34.36458,-14.42947 -61.67548,-7.073476 -21.99013,5.922979 -31.286,16.851307 -47.50947,25.447241 -14.37336,7.61563 -32.55588,10.017925 -56.66903,16.469681 -17.45003,4.669029 -31.4181,35.321031 -25.63924,46.724031"
       id="path4125-8"
       sodipodi:nodetypes="cssssss" />
    <path
       style="fill:none;stroke:#80ff00;stroke-width:3.99999952;stroke-linecap:round;stroke-linejoin:round;stroke-miterlimit:4;stroke-opacity:1;stroke-dasharray:none"
       d="m 180.89585,244.60936 c -0.94392,-6.90171 -7.53868,-12.94589 -8.82592,-19.74235 -0.71373,-8.88856 -3.58988,-15.15236 -8.82386,-23.07056 -2.38368,-5.31149 -6.54235,-21.01971 -9.61527,-10.70803 -1.90334,6.81695 -4.33766,9.26937 -5.95149,17.50311 -3.24439,7.93758 -5.07198,12.41508 -6.33565,20.09758 -2.48065,4.80426 -8.95225,12.88808 -8.14786,15.22392"
       id="path2956-7"
       sodipodi:nodetypes="ccccccc" />
    <path
       style="fill:none;stroke:#80ff00;stroke-width:3.99999952;stroke-linecap:round;stroke-linejoin:round;stroke-miterlimit:4;stroke-opacity:1;stroke-dasharray:none"
       d="m 91.602305,243.49224 c -0.36561,-1.1927 -4.45677,-7.66321 -5.43041,-10.83845 -4.199053,-9.67401 -12.914584,-16.15323 -15.081359,-26.67236 -6.169706,-10.04114 -6.470802,-14.63739 -12.496702,-22.62005 -2.510678,7.6156 -8.044998,14.48387 -10.643253,22.05381 -3.078155,11.79566 -5.984811,10.71066 -12.341714,23.59777 -2.192972,2.20124 -1.764674,5.70264 -6.294241,11.46551"
       id="path2958-6"
       sodipodi:nodetypes="ccccccc" />
    <path
       style="color:#000000;fill:none;stroke:#80ff00;stroke-width:4;stroke-linecap:round;stroke-linejoin:round;stroke-miterlimit:4;stroke-opacity:1;stroke-dasharray:none;stroke-dashoffset:0;marker:none;visibility:visible;display:inline;overflow:visible;enable-background:accumulate"
       d="m 191.6123,190.80366 c -5.40731,-1.88879 -9.92431,-4.20683 -15.79028,-4.56415 -6.08786,-0.37011 -12.10438,0.12385 -18.25105,0.4483 -6.77025,0.35725 -15.68839,-0.1207 -23.24283,0.0576 -9.43624,0.22272 -17.91251,2.1049 -27.51279,2.08691 -11.705775,-0.0218 -23.74743,-2.64838 -35.645125,-4.22295 -5.982821,-0.79176 -11.845653,-2.13193 -17.883477,-2.41392 -4.657416,-0.21718 -14.043689,-0.92761 -17.37951,0.57514"
       id="path2833"
       sodipodi:nodetypes="csssssss" />
    <path
       style="color:#000000;fill:none;stroke:#80ff00;stroke-width:4;stroke-linecap:round;stroke-linejoin:round;stroke-miterlimit:4;stroke-opacity:1;stroke-dasharray:none;stroke-dashoffset:0;marker:none;visibility:visible;display:inline;overflow:visible;enable-background:accumulate"
       d="m -214.78799,253.71681 c 13.86066,-10.17294 37.18356,-1.76013 81.0352,-14.07094 15.68739,-4.40406 35.033857,8.82962 53.539802,1.36223 24.245947,-9.78379 41.139293,-13.23092 60.61268,-26.65998 14.9607654,-10.31713 14.9389407,-17.65162 29.2090622,-22.23658 5.6822338,-1.82568 15.2993058,-8.37651 26.2984538,-9.34187"
       id="path4125"
       sodipodi:nodetypes="csssss" />
    <path
       style="color:#000000;fill:none;stroke:#80ff00;stroke-width:3.99999976;stroke-linecap:round;stroke-linejoin:round;stroke-miterlimit:4;stroke-opacity:1;stroke-dasharray:none;stroke-dashoffset:0;marker:none;visibility:visible;display:inline;overflow:visible;enable-background:accumulate"
       d="m 206.0367,165.77514 c 2.41553,-0.96652 6.65667,8.29221 9.82097,11.66859 2.57153,2.74403 5.59941,5.10853 7.83009,8.08018 2.47412,3.29612 4.48348,6.9436 7.09969,10.12738 3.92713,4.77934 8.35473,9.19361 12.63003,13.70396 2.09022,2.20503 4.9235,3.36444 6.2121,6.07671 1.59938,3.36941 7.18666,7.0814 5.93298,9.34544 -1.16546,2.10467 -6.82131,-0.52118 -10.07514,0.41591 -10.45794,3.01152 -14.44652,-0.46345 -21.34076,-2.0789 -4.86663,-1.14048 -8.72118,-3.8527 -13.60683,-4.52201 -5.3578,-0.73384 -10.71146,0.27104 -16.08032,-0.39199 -3.3783,-0.41711 -6.40693,-1.91655 -9.68745,-2.54295 -4.90293,-0.93627 -0.0527,-4.49013 1.13307,-6.26866 2.19471,-3.29176 3.73054,-6.94859 5.73446,-10.34765 1.73188,-2.93773 2.04882,-6.55144 4.08533,-9.43231 2.20169,-3.11448 4.51891,-6.30394 5.91097,-9.84404 1.33276,-3.38928 2.46518,-6.92308 3.3696,-10.50771 0.44432,-1.76126 -0.18817,-2.99397 1.03123,-3.48191 z"
       id="path2870"
       sodipodi:nodetypes="csssssssssssssssss" />
    <path
       style="fill:none;stroke:#80ff00;stroke-width:3.99999976;stroke-linecap:round;stroke-linejoin:round;stroke-miterlimit:4;stroke-opacity:1;stroke-dasharray:none"
       d="m -135.32651,141.47817 c 0.64668,-1.39794 4.12161,-8.90866 5.84358,-12.63029 5.55732,-11.65945 14.17332,-14.12289 24.02524,-27.54711 4.32624,-8.250182 17.522826,-22.917117 20.621385,-26.964622 1.948752,9.967682 4.265468,19.625652 7.274553,29.070992 5.696247,13.30856 15.065693,27.48792 18.706768,44.46812"
       id="path2958-1"
       sodipodi:nodetypes="cccccc" />
    <path
       style="color:#000000;fill:none;stroke:#80ff00;stroke-width:4;stroke-linecap:round;stroke-linejoin:round;stroke-miterlimit:4;stroke-opacity:1;stroke-dasharray:none;stroke-dashoffset:0;marker:none;visibility:visible;display:inline;overflow:visible;enable-background:accumulate"
       d="m 89.242709,78.960535 c -6.608655,-2.138818 -12.066952,-4.851723 -19.37845,-5.055238 -7.588119,-0.210353 -15.159627,0.657524 -22.879787,1.318708 -8.503336,0.72815 -19.624629,0.500354 -29.094365,1.037144 -11.8286389,0.670517 -22.5954085,3.377449 -34.609121,3.753544 -14.648515,0.458809 -29.498345,-2.327764 -44.256461,-3.803949 -7.421199,-0.74226 -14.646105,-2.175708 -22.179019,-2.277872 -5.810749,-0.07838 -18.565996,0.655914 -22.867296,2.673562"
       id="path2833-4"
       sodipodi:nodetypes="csssssss" />
    <path
       style="fill:none;stroke:#80ff00;stroke-width:3.99999952;stroke-linecap:round;stroke-linejoin:round;stroke-miterlimit:4;stroke-opacity:1;stroke-dasharray:none"
       d="M 7.7533138,144.48327 C 8.3161109,143.0495 13.979821,135.59965 15.478473,131.7824 20.335819,119.81441 27.995498,115.881 32.762945,100.15482 41.33025,88.566118 45.980787,83.507994 54.180196,74.469802 c 2.407539,9.910422 4.357843,19.966633 6.878049,29.833638 2.72504,15.22349 6.425136,14.32056 13.110495,31.41969 2.513188,3.09333 4.36765,8.66345 11.009906,14.70405"
       id="path2958-6-2"
       sodipodi:nodetypes="ccccccc" />
    <path
       style="color:#000000;fill:none;stroke:#ff0000;stroke-width:4;stroke-linecap:round;stroke-linejoin:round;stroke-miterlimit:4;stroke-opacity:1;stroke-dasharray:none;stroke-dashoffset:0;marker:none;visibility:visible;display:inline;overflow:visible;enable-background:accumulate"
       d="m 266.82483,223.64204 c 1.33464,2.52964 4.25826,4.30019 6.48621,8.78559 2.34703,2.16705 9.33558,9.77581 9.42092,11.19034 0.0925,1.53214 -16.54221,-3.78861 -18.17121,-3.61169 -2.59745,0.28211 5.72359,4.60352 8.04986,5.5853 4.34238,3.36845 7.97085,3.25229 9.84767,6.65281 2.22979,-2.50877 5.05298,-4.62113 6.61686,-7.57471 2.33025,-3.77183 3.8593,-4.7241 5.58369,-6.39202 2.68087,-4.30717 4.01862,-4.72833 5.91815,-6.77485 -4.51033,-0.92135 -8.89917,-1.72143 -13.77065,-3.20713 -1.68851,0.14783 -4.35271,-0.2763 -9.66054,-2.24993 -1.66169,-0.57028 -6.722,-1.67841 -10.32096,-2.40371 z"
       id="path5756"
       sodipodi:nodetypes="ccsscccccccc" />
    <path
       style="color:#000000;fill:none;stroke:#ff0000;stroke-width:4;stroke-linecap:round;stroke-linejoin:round;stroke-miterlimit:4;stroke-opacity:1;stroke-dasharray:none;stroke-dashoffset:0;marker:none;visibility:visible;display:inline;overflow:visible;enable-background:accumulate"
       d="m 290.77874,244.06662 c 3.10756,2.87576 5.60455,3.80335 8.48257,4.84362 7.41605,0.89919 21.40104,-2.34484 29.3166,-1.9841 18.62149,3.38305 26.69977,9.38317 42.18175,11.65282 12.91869,-0.45778 13.16026,-3.37811 19.55959,-9.37467 4.80432,-9.20087 4.85346,-14.1518 18.04687,-11.37481"
       id="path5758"
       sodipodi:nodetypes="cccccc" />
    <path
       style="color:#000000;fill:none;stroke:#ff0000;stroke-width:4;stroke-linecap:round;stroke-linejoin:round;stroke-miterlimit:4;stroke-opacity:1;stroke-dasharray:none;stroke-dashoffset:0;marker:none;visibility:visible;display:inline;overflow:visible;enable-background:accumulate"
       d="m 276.13693,280.25026 c 3.94572,-2.71282 8.45267,-7.31907 10.49634,-12.18412 2.52744,-6.0167 8.50571,-11.51911 12.6017,-18.44087 -0.12668,9.0714 -0.56365,14.26598 -2.25483,27.34907 -2.31321,9.48319 -0.74973,10.91676 -1.29024,15.64967"
       id="path5760"
       sodipodi:nodetypes="csccc" />
    <path
       style="color:#000000;fill:none;stroke:#ff0000;stroke-width:4;stroke-linecap:round;stroke-linejoin:round;stroke-miterlimit:4;stroke-opacity:1;stroke-dasharray:none;stroke-dashoffset:0;marker:none;visibility:visible;display:inline;overflow:visible;enable-background:accumulate"
       d="m 338.81705,293.82091 c 3.38991,-4.46738 0.35026,-4.02418 7.30939,-13.82232 4.54647,-2.0715 9.16976,-13.07384 14.79557,-22.77401 0.95242,9.03986 2.14062,16.57274 0.4934,26.3533 0.88316,9.44247 -0.099,12.89541 -0.11058,16.1293"
       id="path5762"
       sodipodi:nodetypes="ccccc" />
    <path
       sodipodi:nodetypes="cccccccccc"
       id="path5785"
       d="m 374.31066,299.56966 c 1.82793,0.46108 3.21124,-0.25528 6.44291,1.52456 1.9399,1.1928 4.32044,1.3559 6.56587,1.5537 3.44522,0.87147 5.40082,1.28881 7.89378,1.86789 -0.2782,-2.20733 -0.10402,-4.53163 -0.88988,-6.6077 -0.8597,-2.81522 -0.67046,-3.98928 -0.75093,-5.57595 -0.97311,-3.22458 -0.60376,-4.06965 -0.7959,-5.90996 -2.40375,1.81399 -4.69498,3.62177 -7.53395,5.36407 -0.6561,0.89693 -2.01653,2.02153 -5.28528,3.76309 -0.99976,0.56628 -3.73346,2.56852 -5.6466,4.02031 z"
       style="color:#000000;fill:none;stroke:#ff0000;stroke-width:4;stroke-linecap:round;stroke-linejoin:round;stroke-miterlimit:4;stroke-opacity:1;stroke-dasharray:none;stroke-dashoffset:0;marker:none;visibility:visible;display:inline;overflow:visible;enable-background:accumulate" />
    <path
       style="fill:none;stroke:#000000;stroke-width:4;stroke-linecap:round;stroke-linejoin:round;stroke-opacity:1;stroke-miterlimit:4;stroke-dasharray:none"
       d="m 463.53194,277.77605 c -2.32274,9.17197 -11.41205,18.0589 -18.071,21.4104 -6.56304,1.91976 -9.22081,0.3088 -15.56479,0.54816 -6.19087,-2.32826 -4.99473,-14.34875 -4.66273,-19.76603 0.72809,-7.27704 4.84692,-8.47932 8.7954,-14.04342 3.52994,-4.71766 8.9961,-10.50069 14.88882,-6.28747 3.52017,6.68091 14.96143,8.73952 14.6143,18.13836 z"
       id="path5861"
       sodipodi:nodetypes="ccccccc" />
    <path
       sodipodi:nodetypes="cccccc"
       id="path5787"
       d="m 397.08461,295.10819 c 2.11658,-0.0431 3.21237,-1.35784 4.73435,-1.19992 3.70706,-0.45747 8.98001,1.0676 14.41189,0.76059 9.74726,0.15157 12.58054,-1.0706 19.9036,-3.82443 7.34853,-1.09718 14.27935,-3.07839 15.01372,-1.21694 3.24232,5.09191 -3.63046,9.57022 -12.17735,11.48487"
       style="color:#000000;fill:none;stroke:#ff0000;stroke-width:4;stroke-linecap:round;stroke-linejoin:round;stroke-miterlimit:4;stroke-opacity:1;stroke-dasharray:none;stroke-dashoffset:0;marker:none;visibility:visible;display:inline;overflow:visible;enable-background:accumulate" />
    <path
       sodipodi:nodetypes="ccccc"
       id="path5789"
       d="m 385.13262,285.92217 c 1.905,-2.35243 9.7838,-5.86455 10.38362,-3.66414 1.50936,2.96882 5.28675,7.57699 6.66462,11.82924 -3.41719,3.51028 -3.53149,6.13905 -7.08523,5.05641 -3.2939,-0.82825 -7.68618,-1.1274 -11.04126,-2.22278"
       style="color:#000000;fill:none;stroke:#ff0000;stroke-width:4;stroke-linecap:round;stroke-linejoin:round;stroke-miterlimit:4;stroke-opacity:1;stroke-dasharray:none;stroke-dashoffset:0;marker:none;visibility:visible;display:inline;overflow:visible;enable-background:accumulate" />
    <path
       sodipodi:nodetypes="ccccc"
       id="path5791"
       d="m 412.52575,301.16258 c 3.35836,-0.34086 6.99916,-0.14792 12.75014,-1.72489 4.06687,-0.48847 1.76801,-2.03567 6.18103,-6.33946 6.01267,11.30861 0.5074,11.29506 -3.98245,11.33673 -3.96733,0.62096 -8.03965,1.15442 -11.20229,1.26951"
       style="color:#000000;fill:none;stroke:#ff0000;stroke-width:4;stroke-linecap:round;stroke-linejoin:round;stroke-miterlimit:4;stroke-opacity:1;stroke-dasharray:none;stroke-dashoffset:0;marker:none;visibility:visible;display:inline;overflow:visible;enable-background:accumulate" />
    <path
       sodipodi:nodetypes="ccc"
       id="path4257"
       d="m 236.704,226.48513 c 10.81077,5.44325 18.76442,10.89554 21.08648,12.46927 3.50867,5.54617 3.01179,6.25749 7.01974,8.72828"
       style="color:#000000;fill:none;stroke:#80ff00;stroke-width:3.99999976;stroke-linecap:round;stroke-linejoin:round;stroke-miterlimit:4;stroke-opacity:1;stroke-dasharray:none;stroke-dashoffset:0;marker:none;visibility:visible;display:inline;overflow:visible;enable-background:accumulate" />
    <path
       style="color:#000000;fill:none;stroke:#80ff00;stroke-width:3.99999976;stroke-linecap:round;stroke-linejoin:round;stroke-miterlimit:4;stroke-opacity:1;stroke-dasharray:none;stroke-dashoffset:0;marker:none;visibility:visible;display:inline;overflow:visible;enable-background:accumulate"
       d="m 237.84107,226.75038 c 10.3086,5.40168 17.62735,10.63029 19.94941,12.20402 7.01009,-0.48029 6.50819,1.60745 11.94679,0.89072"
       id="path4234"
       sodipodi:nodetypes="ccc" />
  </g>
</svg>
