<?xml version="1.0" encoding="UTF-8" standalone="no"?>
<!-- Created with Inkscape (http://www.inkscape.org/) -->

<svg
   xmlns:dc="http://purl.org/dc/elements/1.1/"
   xmlns:cc="http://creativecommons.org/ns#"
   xmlns:rdf="http://www.w3.org/1999/02/22-rdf-syntax-ns#"
   xmlns:svg="http://www.w3.org/2000/svg"
   xmlns="http://www.w3.org/2000/svg"
   xmlns:sodipodi="http://sodipodi.sourceforge.net/DTD/sodipodi-0.dtd"
   xmlns:inkscape="http://www.inkscape.org/namespaces/inkscape"
   inkscape:export-filename="itnas172.png"
   inkscape:export-ydpi="90"
   inkscape:export-xdpi="90"
   sodipodi:docname="itnas172.svg"
   inkscape:version="0.47 r22583"
   version="1.1"
   id="svg2"
   height="320"
   width="480">
  <defs
     id="defs4" />
  <sodipodi:namedview
     id="base"
     pagecolor="#ffffff"
     bordercolor="#666666"
     borderopacity="1.0"
     inkscape:pageopacity="1"
     inkscape:pageshadow="2"
     inkscape:zoom="1"
     inkscape:cx="68.05071"
     inkscape:cy="169.68181"
     inkscape:document-units="px"
     inkscape:current-layer="layer1"
     showgrid="false"
     inkscape:snap-nodes="true"
     inkscape:snap-global="false"
     inkscape:snap-grids="true"
     showguides="true"
     inkscape:window-width="1280"
     inkscape:window-height="998"
     inkscape:window-x="-4"
     inkscape:window-y="-4"
     inkscape:window-maximized="1"
     inkscape:object-nodes="true">
    <inkscape:grid
       empspacing="5"
       visible="true"
       enabled="true"
       snapvisiblegridlinesonly="true"
       type="xygrid"
       id="grid2816" />
  </sodipodi:namedview>
  <metadata
     id="metadata7">
    <rdf:RDF>
      <cc:Work
         rdf:about="">
        <dc:format>image/svg+xml</dc:format>
        <dc:type
           rdf:resource="http://purl.org/dc/dcmitype/StillImage" />
        <dc:title></dc:title>
      </cc:Work>
    </rdf:RDF>
  </metadata>
  <g
     inkscape:label="Layer 1"
     inkscape:groupmode="layer"
     id="layer1"
     transform="translate(0,0)">
    <path
       style="color:#000000;fill:none;stroke:#008000;stroke-width:4;stroke-linecap:butt;stroke-linejoin:miter;stroke-miterlimit:4;stroke-opacity:1;stroke-dasharray:none;stroke-dashoffset:0;marker:none;visibility:visible;display:inline;overflow:visible;enable-background:accumulate"
       d="m -102.44326,263.37369 c 9.465331,0.33197 19.293721,1.65239 33.324423,0.89616 10.961691,2.00488 23.641571,3.14011 36.004876,1.97828 3.178795,-0.32319 15.719078,1.61115 18.87966,1.89933 19.929888,-0.0799 29.33378,4.74382 48.747691,7.05403 12.070607,0.94885 23.83913,3.91612 35.75969,5.86509 19.74238,3.24596 39.80533,1.66159 59.70554,2.0176 16.90844,-0.0578 33.74455,2.16436 50.29203,5.51774 15.96429,3.49756 32.44203,3.77167 48.68812,2.63975 7.89786,-0.61773 15.80038,-1.24665 23.72749,-1.30935 19.11001,-0.27831 38.2137,0.89705 57.32204,0.4375 22.85019,-1.00998 45.64473,-3.27873 68.53101,-3.44943 18.9332,-0.67644 37.67267,2.90167 56.06981,6.98437 11.68253,3.25376 24.06604,3.01283 35.62067,6.81212 0.32446,0.20535 4.46519,1.87418 6.35156,2 19.57612,1.30568 29.00549,-0.55743 43.14213,-1.10166"
       id="path2852"
       sodipodi:nodetypes="ccccccccccccccsc" />
    <path
       id="path2833"
       style="color:#000000;fill:none;stroke:#808080;stroke-width:4;stroke-linecap:round;stroke-linejoin:round;stroke-miterlimit:4;stroke-opacity:1;stroke-dasharray:none;stroke-dashoffset:0;marker:none;visibility:visible;display:inline;overflow:visible;enable-background:accumulate"
       d="m 230.56636,99.76882 c 12.54815,-0.530986 16.68853,-5.769325 50.25301,-8.535631 10.77671,-1.788669 26.35144,-3.42308 33.37381,-6.793414 5.83766,-1.026781 11.99827,-2.247426 18.57341,-3.49212 20.06545,-3.798451 39.01383,-4.668934 59.39697,-7.020815 5.37624,-0.620331 2.16113,20.162327 2.04173,37.11673 -0.0942,13.37583 -1.8854,30.97602 -0.62751,38.5437 -0.86843,12.86944 -0.99893,22.36627 -0.93923,28.40361 0.14479,14.65165 3.64949,29.32287 -0.47499,28.87203 -17.08044,-1.86703 -42.81765,-2.26099 -55.86143,-2.12132 -26.88249,0.28786 -40.00115,1.35172 -55.86144,1.41422 -19.07225,-0.96116 -41.65622,-0.51266 -50.20458,-0.70711 -1.10197,2.45134 -2.79176,5.61383 -2.82842,7.68978 m -71.92834,69.2913 0.22741,-0.40606 c 3.18833,-2.53705 6.02884,-5.46313 9.48992,-7.59682 3.44321,-2.48366 5.90419,-6.20642 9.54543,-8.54561 4.74269,-3.00802 8.06223,-7.55452 12.14234,-11.28781 3.54668,-1.98751 5.53801,-5.73849 9.033,-7.75077 3.40391,-1.82477 6.43427,-4.20636 9.21933,-6.85754 2.37082,-2.19008 4.46819,-4.48427 6.79969,-6.72584 3.28691,-2.66283 4.92586,-6.60032 7.65189,-9.71588 3.18379,-2.93465 8.0104,-10.00173 8.0104,-10.00173 0,0 16.14613,0 16.14613,0 21.80155,-1.27986 42.66983,7.62884 61.2316,5.69053 35.44981,1.03896 38.18789,-1.7647 63.47135,-0.92003 21.92524,-1.30097 31.21586,2.75224 53.74367,4.33376 15.70055,2.94191 30.62685,4.13636 45.0745,2.73731 10.44109,0.86384 17.62743,2.10968 36.94633,4.94975 6.2354,-4.4724 -3.08547,-36.48746 -0.75472,-65.66058 0.36841,-4.61127 -3.30022,-47.17958 -0.7926,-68.956408 1.14098,-9.908568 2.21075,-33.93803 -0.574,-49.93788 -23.23716,4.01579 -43.17095,5.992555 -52.20525,7.80472 -18.60397,3.73172 -44.33057,8.833219 -67.2958,9.87295 -21.55667,0.97596 -40.49063,7.252626 -60.84569,11.07533 -23.83185,4.077789 -46.01957,3.478477 -57.99061,5.22199 -24.00532,3.496236 -64.9985,7.64998 -82.16924,9.62229 -30.30723,3.481228 -35.71428,4.43379 -51.90558,7.7631 -15.01055,3.086518 -14.61038,5.104988 -34.7751,7.013408 -8.11419,0.76794 -36.73028,11.22342 -51.755822,13.93292 -13.253632,2.38997 -26.563557,4.85606 -39.55159,8.03149 -11.412137,2.79015 -23.18089,3.8356 -34.31571,8.01881 -17.62031,-0.33287 -30.34256,9.64802 -48.90538,14.41505 -23.936728,8.06401 -45.036288,22.19367 -68.179788,23.61982 -31.02274,7.59874 -55.13147,8.02551 -90.99666,13.63662 -6.68274,1.04551 -25.26087,3.54729 -24.40158,7.52532 1.82469,8.44731 34.74701,0.74228 51.93902,3.47362 29.82126,-0.30237 59.66704,0.068 89.47595,-0.73566 20.56183,2.53426 41.126498,6.03695 61.800258,7.37424 13.17374,-1.91538 26.01279,1.09129 39.03681,2.4476 21.43871,1.80412 42.85852,2.93763 64.36256,3.46963 17.930972,-0.98217 35.780472,1.85534 53.740122,0.7071 5.66605,-0.005 11.30473,0.70782 16.97056,0.70711 6.56554,0.1583 9.48519,-0.18428 12.38806,0.1111 1.40054,0.20896 2.80084,0.48704 4.22503,0.44394 1.01209,-0.002 2.02315,-0.0597 3.03526,-0.06 2.24955,0.26487 3.06824,-9.3801 1.71295,-9.3575 -7.54247,0.72974 -15.08106,0.54891 -22.62741,0 -15.07697,-1.09667 -29.11212,0.59296 -46.66905,0 -11.924596,-0.40274 -26.515912,-1.60019 -35.355342,-2.82843 -1.509679,-0.20977 -2.178571,-12.58568 -0.730897,-30.18033 1.481894,-18.01057 -1.882922,-34.83828 1.438004,-35.5806 15.636704,-3.49526 26.208613,-7.59221 38.183765,-9.8995 19.95358,-3.84452 36.2728,-10.44323 57.06854,-13.67766 19.41012,-3.01892 36.86819,-6.40767 61.7254,-9.863966 13.90543,-1.933494 26.71449,-3.754126 39.29955,-5.363864"
       sodipodi:nodetypes="ccccssccccccccsssssssssssssscsscsscccccccccccsscccsssssssssccccccs" />
    <path
       style="fill:none;stroke:#0000ff;stroke-width:4;stroke-linecap:butt;stroke-linejoin:miter;stroke-miterlimit:4;stroke-opacity:1;stroke-dasharray:none"
       d="m 93.80081,242.32843 c -1.98926,0.27241 -4.05052,0.49747 -5.83427,1.49526 -1.69373,0.94516 -3.17574,2.23277 -4.48113,3.66058 -1.54477,1.71508 -2.82494,3.66401 -3.8096,5.75041 -0.54046,1.18021 -0.82204,2.45579 -1.1238,3.71157 -0.25266,1.28363 -0.12395,2.59861 -0.20257,3.89719 -0.0387,1.59856 -0.10356,3.24691 0.47324,4.76934 0.27893,1.05941 0.85496,1.99977 1.35313,2.96565 0.97586,1.311 1.9301,2.6502 3.13779,3.76279 1.63849,1.4824 3.28898,3.02331 5.32148,3.95122 1.32845,0.64353 2.71064,1.18738 4.1235,1.61476 1.62831,0.45252 3.32044,0.69876 5.01098,0.70248 1.66311,-0.0792 3.30017,-0.47433 4.87461,-1.00062 1.49964,-0.5417 3.00626,-1.13381 4.31087,-2.06627 1.34526,-0.85232 2.69299,-1.73688 3.78753,-2.90612 1.0506,-1.00529 1.80863,-2.27517 2.36298,-3.61109 0.38888,-0.97445 0.74201,-1.97252 0.98933,-2.99242 0.35816,-1.71285 0.55334,-3.45829 0.64343,-5.20473 -0.0902,-2.07906 -0.20733,-4.17404 -0.67068,-6.20826 -0.2817,-1.16456 -0.58373,-2.35082 -1.27456,-3.35086 -0.89047,-1.34775 -2.01279,-2.52666 -3.12562,-3.69091 -1.10745,-1.1097 -2.38971,-2.02785 -3.73916,-2.81757 -1.20388,-0.80969 -2.53066,-1.45334 -3.94642,-1.78746 -1.69528,-0.44646 -3.4624,-0.47885 -5.20267,-0.59597 -0.99295,-0.022 -1.98552,-0.11689 -2.97839,-0.049 z"
       id="path8177"
       sodipodi:nodetypes="cssssssssss" />
    <path
       style="fill:none;stroke:#c87137;stroke-width:4;stroke-linecap:round;stroke-linejoin:round;stroke-opacity:1;color:#000000;stroke-miterlimit:4;stroke-dasharray:none;stroke-dashoffset:0;marker:none;visibility:visible;display:inline;overflow:visible;enable-background:accumulate"
       d="m 411.75,245.5 c -14.51862,3.01982 -24.61813,1.42113 -33.73446,2.43618 -9.93577,1.1063 -20.0192,4.19195 -31.01554,9.06382 -14.0099,6.20701 -21.00291,8.62847 -30.5,18.25 -4.41021,4.46799 -6.75,11.25 -6.75,11.25"
       id="path8848"
       sodipodi:nodetypes="cssss" />
    <path
       style="color:#000000;fill:none;stroke:#94f3f3;stroke-width:4;stroke-linecap:round;stroke-linejoin:round;stroke-miterlimit:4;stroke-opacity:1;stroke-dasharray:none;stroke-dashoffset:0;marker:none;visibility:visible;display:inline;overflow:visible;enable-background:accumulate"
       d="m 417.58386,250.43223 c -2.47035,-3.28246 -5.98513,-8.52686 -3.86191,-12.42506 3.81422,-7.00284 6.54062,-5.57008 12.11869,-5.99079 5.9794,-0.45098 10.84484,-2.15978 17.18942,-2.07539 9.44611,0.12566 9.68451,1.6305 17.77967,1.2907 6.86911,-0.28834 21.62031,-1.40966 28.44822,1.63162 6.92678,3.0853 9.14305,7.67506 4.88819,12.43546 -4.85023,5.4265 -20.94362,4.87277 -26.42627,7.64913 -5.73823,2.90578 -15.6125,2.19144 -22.59084,1.46418 -5.39679,-0.56244 -11.15057,-2.7869 -16.97255,-2.13737 -3.32357,0.37079 -7.13511,2.7251 -10.57262,-1.84248 z"
       id="path8820"
       sodipodi:nodetypes="cssssssssss" />
    <path
       style="color:#000000;fill:none;stroke:#c87137;stroke-width:4;stroke-linecap:round;stroke-linejoin:round;stroke-miterlimit:4;stroke-opacity:1;stroke-dasharray:none;stroke-dashoffset:0;marker:none;visibility:visible;display:inline;overflow:visible;enable-background:accumulate"
       d="m 88.167603,179.3564 c -0.10705,17.01612 -2.31611,17.14212 -0.36419,17.29636 2.53197,0.20007 7.62375,0.17088 10.39414,-0.0457 4.548907,-0.35562 5.791477,0.5665 7.747687,0.2819 3.41036,-0.49615 16.77346,0.99812 16.70983,-0.86119 -0.13149,-3.84255 -1.17923,-14.18403 -1.22392,-16.54199 -0.10178,-5.37022 -1.741,-13.80789 -1.7975,-18.23125 -0.0231,-1.80845 -4.13995,-2.24752 -12.43697,-1.14064 -9.963547,1.3292 -16.957577,-1.69254 -16.957577,1.22274 l 0,10e-6 0,-10e-6 c 0,0 -2.03379,12.02495 -2.0715,18.01977 z"
       id="path2893"
       sodipodi:nodetypes="cssssssssccs" />
    <path
       style="color:#000000;fill:none;stroke:#00ffff;stroke-width:4;stroke-linecap:butt;stroke-linejoin:miter;stroke-miterlimit:4;stroke-opacity:1;stroke-dasharray:none;stroke-dashoffset:0;marker:none;visibility:visible;display:inline;overflow:visible;enable-background:accumulate"
       d="m 37.411994,142.63686 c -2.619966,0.36786 -1.793204,5.52336 -1.832297,7.68783 -0.171637,9.50156 -0.379606,15.50522 -0.474802,22.7252 -0.0701,5.317 0.634695,12.7282 -0.184202,17.88058 -0.528619,3.326 1.894627,3.89527 4.687059,3.97496 7.665589,0.21879 15.520409,0.58293 23.269126,1.2613 6.271115,0.54903 12.64199,-0.41862 18.854927,0.4201 1.927272,0.26016 5.564128,1.08107 5.202053,-1.94004 -0.880609,-7.34771 0.160013,-14.7259 -0.228269,-22.10493 -0.691612,-13.14364 0.735445,-12.4464 -0.03723,-23.83159 -0.164403,-2.42243 1.448813,-7.64257 -2.633114,-7.21858 -4.251162,0.44158 -8.555744,-0.14285 -12.807832,0.25034 -6.181076,0.57151 -11.815704,0.13298 -17.807439,0.37479 -5.232271,0.21116 -10.793344,-0.21211 -16.007978,0.52007 z"
       id="path3604"
       sodipodi:nodetypes="csssssssssssss" />
    <path
       style="fill:none;stroke:#ffff00;stroke-width:4;stroke-linecap:round;stroke-linejoin:round;stroke-opacity:1;stroke-miterlimit:4;stroke-dasharray:none;color:#000000;stroke-dashoffset:0;marker:none;visibility:visible;display:inline;overflow:visible;enable-background:accumulate"
       d="m 193.35817,243.17797 c 6.80534,-8.31291 13.63775,-11.67844 17.67397,-17.83899 3.27354,-4.99646 9.93645,-15.98532 12.14583,-25.42582 1.27509,-5.44835 5.89916,-15.8554 15.68805,-14.28122 5.06311,0.81421 24.88424,-1.65196 26.40435,3.25794 1.25458,4.05226 -16.05016,2.46008 -30.6277,1.8454 -3.89482,-0.1671 -7.91191,6.03195 -2.7001,5.27532 6.00027,-0.8711 12.45711,2.09981 29.05892,-0.85166 3.77379,-0.6709 16.77277,0.81776 20.76333,0.26718 16.65293,-2.29762 25.73845,0.24458 36.56549,-0.84508 2.80305,-0.28211 0.6203,6.01323 -3.9253,5.85419 -7.17354,-0.25099 -10.82395,1.34929 -21.77788,0.27646 -8.31083,-0.81397 -22.782,-1.24051 -30.25145,-0.2017 -10.33823,1.43778 -22.20731,0.51733 -32.44113,0.32843"
       id="path3618"
       sodipodi:nodetypes="csssssssssssss" />
    <path
       style="color:#000000;fill:none;stroke:#ff0000;stroke-width:4;stroke-linecap:butt;stroke-linejoin:miter;stroke-miterlimit:4;stroke-opacity:1;stroke-dasharray:none;stroke-dashoffset:0;marker:none;visibility:visible;display:inline;overflow:visible;enable-background:accumulate"
       d="m 342.54673,198.25736 c 0.5242,1.87087 1.3803,3.22833 5.70692,0.82511 7.99593,-4.44726 4.00029,-1.07535 11.80019,-5.3741 5.92279,-3.26882 13.40535,-7.76203 15.32418,-7.28548 1.75437,0.43569 3.44003,3.98897 6.0411,9.36158 2.68549,5.54697 6.61218,7.88648 7.68864,5.04622 0.64511,-1.70216 0.0585,-3.81944 -2.97398,-8.86565 -6.23139,-10.36922 -2.37502,-6.79638 -8.41841,-16.47875 -2.69536,-4.31833 -4.03223,-8.11967 -6.69192,-14.37503 -0.62246,-1.46402 -5.80474,-0.63393 -4.90486,1.71791 1.49167,3.89856 6.1454,13.11913 5.64355,15.70978 -0.25496,1.31697 -3.39653,3.30081 -8.32423,5.89029 -4.57659,2.40497 -7.45547,3.83792 -11.34339,6.29035 -5.83933,3.68336 -10.13694,5.43499 -9.54779,7.53777 z"
       id="path3637"
       sodipodi:nodetypes="csssssssssssss" />
    <path
       style="fill:none;stroke:#0000ff;stroke-width:3.99999976;stroke-linecap:round;stroke-linejoin:round;stroke-miterlimit:4;stroke-opacity:1;stroke-dasharray:none"
       d="m 120.37272,126.69482 c 0.55311,2.53239 0.48857,2.71267 1.76437,5.05983 0.84727,1.55877 2.66746,3.39149 4.47175,4.50471 2.4864,1.53405 4.69802,1.94962 7.33372,1.10113 1.25125,-0.4028 1.40769,-1.39666 5.14653,-2.87609 1.49745,-0.59254 3.3367,-3.79278 3.36628,-5.35729 0.0415,-2.19142 0.76784,-4.38972 0.0206,-6.25575 -0.57708,-1.44097 -2.51582,-3.43342 -3.74549,-4.70323 -2.20485,-2.27683 -3.97834,-3.32444 -5.89633,-3.61867 -1.36494,-0.20933 -3.1553,-0.77037 -4.26772,-0.21989 -0.78241,0.38714 -3.2033,1.22485 -4.07814,1.72185 -2.16396,1.22932 -2.82826,3.33011 -4.24927,5.84229 0,0 -0.13863,3.55453 0.13375,4.80114 z"
       id="path2905"
       sodipodi:nodetypes="cssssssssssss" />
    <path
       style="fill:none;stroke:#0000ff;stroke-width:4;stroke-linecap:round;stroke-linejoin:round;stroke-miterlimit:4;stroke-opacity:1;stroke-dasharray:none"
       d="m 144.55263,170.18961 c -1.68586,-3.45207 -0.95696,-6.17349 -1.44231,-10.01027 -0.1898,-1.50033 0.22619,-3.60448 -1.00259,-7.56988 -1.88878,-6.09529 -2.04949,-7.31221 -1.72231,-7.30459 1.15947,0.027 -0.19876,-6.66312 -2.91703,-5.14981 -2.56984,1.43064 -5.45142,2.9581 -7.81034,4.33934 -3.71471,2.17504 -5.46808,4.11017 -8.41803,5.30647 -2.31498,0.93878 -7.56118,4.56962 -7.69342,4.61254 -3.01475,0.97805 -3.4702,3.04796 -6.94337,3.82374"
       id="path2911"
       sodipodi:nodetypes="cssssssss" />
    <path
       style="fill:none;stroke:#80ff00;stroke-width:3.99999976;stroke-linecap:round;stroke-linejoin:round;stroke-miterlimit:4;stroke-opacity:1;stroke-dasharray:none"
       d="m 208.8343,186.5992 c 1.15888,1.92577 2.4341,6.52772 3.25079,8.68094 1.1679,3.07919 6.27311,5.22068 8.13411,4.83846 12.4142,0.1126 22.2169,1.5045 34.5198,0.3211 7.6875,1.0588 17.6975,-0.8378 24.7207,-0.5091 6.4437,0.1856 19.59396,2.60263 23.5503,-0.2466"
       id="path2952-1"
       sodipodi:nodetypes="cscccc" />
    <path
       style="fill:none;stroke:#80ff00;stroke-width:3.99999976;stroke-linecap:round;stroke-linejoin:round;stroke-miterlimit:4;stroke-opacity:1;stroke-dasharray:none"
       d="m 255.24563,171.28961 c -2.33772,3.77071 -4.47536,7.70451 -7.96643,10.8339 -3.96483,4.09816 -7.77964,8.40915 -12.15594,12.21084 -2.47551,2.69257 -7.80969,9.87668 -6.14683,3.67665 -0.29023,-4.50866 -0.0191,-9.02507 1.2526,-13.75706 0.92128,-4.88362 1.61206,-10.34034 3.2696,-14.82997 1.15938,-1.16804 0.29203,-2.31535 1.28115,-3.53026"
       id="path2956"
       inkscape:transform-center-x="-11.976226"
       inkscape:transform-center-y="-17.281617" />
    <path
       style="fill:none;stroke:#80ff00;stroke-width:3.99999976;stroke-linecap:round;stroke-linejoin:round;stroke-miterlimit:4;stroke-opacity:1;stroke-dasharray:none"
       d="m 316.2909,162.61237 c -0.2116,0.7405 -1.3487,4.719 -1.9122,6.6904 -1.8457,6.1887 -5.912,8.0705 -9.7431,15.4624 -1.5006,4.4095 -6.8881,12.6734 -8.1065,14.912 -1.6718,-4.8175 -3.123,-9.7293 -4.8488,-14.5198 -2.0837,-7.4468 -5.6499,-14.1126 -12.225,-19.21 -0.9567,-0.5356 -3.2507,-1.0097 -1.9839,-2.5939"
       id="path2958" />
    <path
       style="color:#000000;fill:none;stroke:#ff00ae;stroke-width:4;stroke-linecap:butt;stroke-linejoin:miter;stroke-miterlimit:4;stroke-opacity:1;stroke-dasharray:none;stroke-dashoffset:0;marker:none;visibility:visible;display:inline;overflow:visible;enable-background:accumulate"
       d="m 225.91897,147.36535 c -5.01251,-0.94656 -9.94617,-3.05373 -10.375,-0.4375 -0.78189,4.77025 -5.79402,17.89419 -2.40625,18.03125 6.96478,0.28177 5.06953,1.02809 11.59375,1.34375 0.0371,-0.79139 3.4e-4,-1.57885 0.0625,-2.375 0.0315,-1.71058 -0.016,-3.44189 0,-5.15625 0.016,-1.71436 0.0889,-3.43351 0.40625,-5.125 -0.10032,-1.40624 0.002,-2.79071 0.1875,-4.1875 0.0346,-0.62928 0.16506,-1.2365 0.375,-1.8125 0.036,-0.0989 0.11553,-0.1841 0.15625,-0.28125 z"
       id="path2841" />
    <path
       style="color:#000000;fill:none;stroke:#ff00ae;stroke-width:4;stroke-linecap:butt;stroke-linejoin:miter;stroke-miterlimit:4;stroke-opacity:1;stroke-dasharray:none;stroke-dashoffset:0;marker:none;visibility:visible;display:inline;overflow:visible;enable-background:accumulate"
       d="m 238.85179,150.67021 c -0.0524,0.0914 -0.14176,0.16614 -0.18972,0.25985 -0.27931,0.54575 -0.4836,1.13226 -0.59548,1.75248 -0.35578,1.36334 -0.62835,2.7246 -0.70207,4.13249 -0.52335,1.63949 -0.80759,3.33655 -1.03467,5.03588 -0.22713,1.69932 -0.39333,3.42329 -0.63537,5.11695 -0.15983,0.78242 -0.22035,1.56841 -0.35468,2.3492 0.15599,0.0274 0.10884,0.0378 0.27526,0.0656 3.29631,0.55157 10.06062,2.71802 12.07296,3.45147 2.19325,0.79938 9.04844,3.0689 9.17991,1.64371 0.35901,-3.89206 1.40253,-3.30875 2.27935,-9.22695 0.26483,-1.78713 3.81658,-7.49229 1.85776,-8.11417 -6.70712,-2.12938 -15.6716,-4.59166 -21.18782,-6.12627 -0.34726,-0.0966 -0.62008,-0.22962 -0.96543,-0.34031 z"
       id="path3782"
       inkscape:export-xdpi="90"
       inkscape:export-ydpi="90" />
    <path
       style="color:#000000;fill:none;stroke:#80ff00;stroke-width:3.99999976;stroke-linecap:round;stroke-linejoin:round;stroke-miterlimit:4;stroke-opacity:1;stroke-dasharray:none;stroke-dashoffset:0;marker:none;visibility:visible;display:inline;overflow:visible;enable-background:accumulate"
       d="m 303.11791,199.64765 c 17.85695,-0.46026 23.94944,2.21058 42.5409,-2.58657 9.65618,-2.49166 16.11007,-7.77954 18.87777,-20.0298 3.20151,-14.17038 3.16495,-21.18464 -7.87379,-30.02463 -8.8882,-7.11771 -25.54243,-5.63722 -31.44652,-12.66675 -8.62528,-10.26942 -27.76745,-11.26036 -39.87492,-16.8257"
       id="path4125-8"
       sodipodi:nodetypes="csssss" />
    <path
       style="color:#000000;fill:none;stroke:#80ff00;stroke-width:3.99999976;stroke-linecap:round;stroke-linejoin:round;stroke-miterlimit:4;stroke-opacity:1;stroke-dasharray:none;stroke-dashoffset:0;marker:none;visibility:visible;display:inline;overflow:visible;enable-background:accumulate"
       d="m 196.72042,180.61037 c -0.5463,-1.18058 3.96477,-3.54238 5.56716,-5.21138 1.30228,-1.35635 2.40303,-2.93054 3.82795,-4.1227 1.58051,-1.32227 3.34873,-2.42175 4.86939,-3.812 2.28278,-2.08688 4.37006,-4.41402 6.50934,-6.66765 1.04585,-1.10182 1.55003,-2.54706 2.87029,-3.26199 1.64018,-0.88744 3.34624,-3.77509 4.50975,-3.20884 1.0816,0.52641 -0.0803,3.41966 0.47337,5.01959 1.77947,5.14226 0.1496,7.22543 -0.47518,10.71036 -0.44109,2.46 -1.69366,4.45613 -1.89899,6.91321 -0.2251,2.69452 0.41784,5.34111 0.22837,8.0393 -0.11917,1.69779 -0.78797,3.24956 -1.01422,4.90405 -0.33817,2.47274 -2.24054,0.14475 -3.15984,-0.40041 -1.70147,-1.00901 -3.56785,-1.67942 -5.31786,-2.59034 -1.51251,-0.78725 -3.3252,-0.85019 -4.81734,-1.79105 -1.61314,-1.01718 -3.26676,-2.09005 -5.07106,-2.69174 -1.72744,-0.57607 -3.52174,-1.04829 -5.33541,-1.40533 -0.89112,-0.17541 -1.48994,0.1729 -1.76573,-0.42308 z"
       id="path2870"
       sodipodi:nodetypes="csssssssssssssssss" />
    <path
       style="fill:none;stroke:#0000ff;stroke-width:4;stroke-linecap:round;stroke-linejoin:round;stroke-miterlimit:4;stroke-opacity:1;stroke-dasharray:none"
       d="m 139.00453,137.79663 c 2.141,1.36442 3.03351,4.81455 4.22507,4.95686 2.05101,3.29044 4.72226,6.19434 6.72786,9.50866 1.56297,2.97472 4.11567,5.1368 6.03758,7.57145 1.11582,1.03994 2.23156,2.07982 3.3473,3.1197"
       id="path2907-7" />
    <path
       id="path2909-4"
       style="fill:none;stroke:#0000ff;stroke-width:4;stroke-linecap:round;stroke-linejoin:round;stroke-miterlimit:4;stroke-opacity:1;stroke-dasharray:none"
       d="m 160.77109,165.75353 c 1.06363,1.89977 3.22738,6.19122 4.8455,9.06577 1.45906,4.13889 4.37565,6.77211 5.9813,10.74657 2.07368,2.53428 3.47885,5.30758 5.09745,8.45484 1.26591,1.74527 1.28214,6.12565 2.1994,6.61389 0.19777,0.20072 0.79589,2.47006 0.1248,1.34943 M 159.97,164.01392 c -2.04905,2.59902 -4.33752,5.10736 -5.65424,8.17503 -2.23126,3.1153 -3.44405,6.89665 -5.9251,9.80261 -0.44482,3.73805 -3.64506,6.28811 -4.53885,9.88304 -1.02973,2.53229 -2.36145,4.30985 -3.03963,7.06513 -0.66005,0.94064 -0.19771,2.00755 -0.26694,-0.5799" />
    <path
       style="color:#000000;fill:none;stroke:#c87137;stroke-width:4;stroke-linecap:round;stroke-linejoin:round;stroke-miterlimit:4;stroke-opacity:1;stroke-dasharray:none;stroke-dashoffset:0;marker:none;visibility:visible;display:inline;overflow:visible;enable-background:accumulate"
       d="m 104.44755,161.18934 c -0.16395,3.85882 -0.4205,8.16744 -0.4205,12.09105 0,1.50196 0.92089,3.41011 0.5455,4.83165 -0.25073,0.94949 0.22097,7.45576 0.22097,8.63784 0,3.90593 -0.096,5.07339 -0.096,8.99491"
       id="path2897"
       sodipodi:nodetypes="csssc" />
  </g>
</svg>
