<?xml version="1.0" encoding="UTF-8" standalone="no"?>
<!-- Created with Inkscape (http://www.inkscape.org/) -->
<svg
   xmlns:dc="http://purl.org/dc/elements/1.1/"
   xmlns:cc="http://creativecommons.org/ns#"
   xmlns:rdf="http://www.w3.org/1999/02/22-rdf-syntax-ns#"
   xmlns:svg="http://www.w3.org/2000/svg"
   xmlns="http://www.w3.org/2000/svg"
   xmlns:sodipodi="http://sodipodi.sourceforge.net/DTD/sodipodi-0.dtd"
   xmlns:inkscape="http://www.inkscape.org/namespaces/inkscape"
   width="480"
   height="320"
   id="svg2"
   version="1.1"
   inkscape:version="0.46"
   sodipodi:docname="itnas064.svg"
   inkscape:export-xdpi="90"
   inkscape:export-ydpi="90"
   sodipodi:version="0.32"
   inkscape:output_extension="org.inkscape.output.svg.inkscape"
   inkscape:export-filename="itnas064.png">
  <defs
     id="defs4" />
  <sodipodi:namedview
     id="base"
     pagecolor="#ffffff"
     bordercolor="#666666"
     borderopacity="1.0"
     inkscape:pageopacity="1"
     inkscape:pageshadow="2"
     inkscape:zoom="1"
     inkscape:cx="153.11663"
     inkscape:cy="73.772004"
     inkscape:document-units="px"
     inkscape:current-layer="layer1"
     showgrid="false"
     inkscape:snap-nodes="true"
     inkscape:snap-global="false"
     inkscape:snap-grids="true"
     showguides="true"
     inkscape:window-width="1680"
     inkscape:window-height="1002"
     inkscape:window-x="1680"
     inkscape:window-y="25"
     inkscape:window-maximized="1">
    <inkscape:grid
       empspacing="5"
       visible="true"
       enabled="true"
       snapvisiblegridlinesonly="true"
       type="xygrid"
       id="grid2816" />
  </sodipodi:namedview>
  <metadata
     id="metadata7">
    <rdf:RDF>
      <cc:Work
         rdf:about="">
        <dc:format>image/svg+xml</dc:format>
        <dc:type
           rdf:resource="http://purl.org/dc/dcmitype/StillImage" />
        <dc:title />
      </cc:Work>
    </rdf:RDF>
  </metadata>
  <g
     inkscape:label="Layer 1"
     inkscape:groupmode="layer"
     id="layer1"
     transform="translate(0,0)">
    <path
       style="opacity:1;fill:none;fill-opacity:1;fill-rule:nonzero;stroke:#008000;stroke-width:4;stroke-linecap:round;stroke-linejoin:round;marker:none;marker-start:none;marker-mid:none;marker-end:none;stroke-miterlimit:4;stroke-dasharray:none;stroke-dashoffset:0;stroke-opacity:1;visibility:visible;display:inline;overflow:visible;enable-background:accumulate"
       d="M 22.680554,200.49895 C 21.990844,206.50131 25.508982,223.18555 25.508982,233.73297 C 25.508982,241.15082 26.923192,248.69671 26.923192,256.36039 C 26.923192,258.24601 26.923192,260.13163 26.923192,262.01724"
       id="path3654" />
    <path
       style="opacity:1;fill:none;fill-opacity:1;fill-rule:nonzero;stroke:#008000;stroke-width:4;stroke-linecap:round;stroke-linejoin:round;marker:none;marker-start:none;marker-mid:none;marker-end:none;stroke-miterlimit:4;stroke-dasharray:none;stroke-dashoffset:0;stroke-opacity:1;visibility:visible;display:inline;overflow:visible;enable-background:accumulate"
       d="M 33.994262,199.79185 C 33.994262,203.87765 32.580052,215.67962 32.580052,223.12637 C 32.580052,230.19093 32.122382,238.39206 30.458732,245.04668 C 29.383742,249.34662 30.458732,255.44317 30.458732,259.89592"
       id="path3656" />
    <path
       style="opacity:1;fill:none;fill-opacity:1;fill-rule:nonzero;stroke:#008000;stroke-width:4;stroke-linecap:round;stroke-linejoin:round;marker:none;marker-start:none;marker-mid:none;marker-end:none;stroke-miterlimit:4;stroke-dasharray:none;stroke-dashoffset:0;stroke-opacity:1;visibility:visible;display:inline;overflow:visible;enable-background:accumulate"
       d="M 51.265082,204.58474 C 49.712822,210.79377 49.854082,222.95664 47.729542,231.4548 C 45.811492,239.12702 44.901122,246.93148 44.901122,254.78932 C 44.901122,256.45599 44.429712,258.08915 44.194012,259.73907"
       id="path3658" />
    <path
       style="opacity:1;fill:none;fill-opacity:1;fill-rule:nonzero;stroke:#008000;stroke-width:4;stroke-linecap:round;stroke-linejoin:round;marker:none;marker-start:none;marker-mid:none;marker-end:none;stroke-miterlimit:4;stroke-dasharray:none;stroke-dashoffset:0;stroke-opacity:1;visibility:visible;display:inline;overflow:visible;enable-background:accumulate"
       d="M 57.328782,199.08474 C 57.328782,206.93219 58.277652,220.26159 56.621682,230.19744 C 55.231342,238.53945 57.172272,247.79966 58.743002,255.65328 C 58.927902,256.57778 58.743002,257.5389 58.743002,258.48171"
       id="path3660" />
    <path
       style="opacity:1;fill:none;fill-opacity:1;fill-rule:nonzero;stroke:#008000;stroke-width:4;stroke-linecap:round;stroke-linejoin:round;marker:none;marker-start:none;marker-mid:none;marker-end:none;stroke-miterlimit:4;stroke-dasharray:none;stroke-dashoffset:0;stroke-opacity:1;visibility:visible;display:inline;overflow:visible;enable-background:accumulate"
       d="M 41.772442,188.47814 C 42.336852,191.3002 41.065332,207.16032 41.065332,213.93398 C 41.065332,215.3482 41.065332,216.76241 41.065332,218.17662 C 41.065332,225.7915 38.777882,235.43685 37.529792,242.92536 C 36.523802,248.96131 35.408472,254.61305 35.408472,260.60303"
       id="path3662" />
    <path
       style="opacity:1;fill:none;fill-opacity:1;fill-rule:nonzero;stroke:#008000;stroke-width:4;stroke-linecap:round;stroke-linejoin:round;marker:none;marker-start:none;marker-mid:none;marker-end:none;stroke-miterlimit:4;stroke-dasharray:none;stroke-dashoffset:0;stroke-opacity:1;visibility:visible;display:inline;overflow:visible;enable-background:accumulate"
       d="M 165.89051,212.25001 C 165.89051,218.66933 167.39051,229.18643 167.39051,237.05089 C 167.39051,240.23871 168.89051,242.7943 168.89051,245.87833 C 168.89051,249.42305 168.39051,252.43149 168.39051,255.96682 C 168.39051,257.13695 167.89051,258.47955 167.89051,259.75001"
       id="path3751" />
    <path
       style="opacity:1;fill:none;fill-opacity:1;fill-rule:nonzero;stroke:#008000;stroke-width:4;stroke-linecap:round;stroke-linejoin:round;marker:none;marker-start:none;marker-mid:none;marker-end:none;stroke-miterlimit:4;stroke-dasharray:none;stroke-dashoffset:0;stroke-opacity:1;visibility:visible;display:inline;overflow:visible;enable-background:accumulate"
       d="M 188.01551,202.75 C 188.01551,210.73449 186.9469,220.02444 185.01551,227.75 C 183.39181,234.24478 182.51551,243.0982 182.51551,249.75 C 182.51551,252.58333 181.82833,255.50126 182.51551,258.25"
       id="path3753" />
    <path
       style="opacity:1;fill:none;fill-opacity:1;fill-rule:nonzero;stroke:#008000;stroke-width:4;stroke-linecap:round;stroke-linejoin:round;marker:none;marker-start:none;marker-mid:none;marker-end:none;stroke-miterlimit:4;stroke-dasharray:none;stroke-dashoffset:0;stroke-opacity:1;visibility:visible;display:inline;overflow:visible;enable-background:accumulate"
       d="M 176.39051,199.125 C 177.52048,203.64486 176.39051,218.79906 176.39051,225.625 C 176.39051,231.16599 177.89051,236.4709 177.89051,242.125 C 177.89051,246.8452 176.89051,250.90316 176.89051,255.625 C 176.89051,257.55191 175.71068,258.48465 175.39051,259.125"
       id="path3755" />
    <path
       style="opacity:1;fill:none;fill-opacity:1;fill-rule:nonzero;stroke:#008000;stroke-width:4;stroke-linecap:round;stroke-linejoin:round;marker:none;marker-start:none;marker-mid:none;marker-end:none;stroke-miterlimit:4;stroke-dasharray:none;stroke-dashoffset:0;stroke-opacity:1;visibility:visible;display:inline;overflow:visible;enable-background:accumulate"
       d="M 158.89051,200.75 C 158.89051,206.61155 157.39051,217.07541 157.39051,224.75 C 157.39051,230.78231 158.39051,236.73873 158.39051,242.75 C 158.39051,247.5053 158.39051,251.97551 158.39051,256.75 C 158.39051,257.75 158.39051,258.75 158.39051,259.75"
       id="path3757" />
    <path
       style="opacity:1;fill:none;fill-opacity:1;fill-rule:nonzero;stroke:#008000;stroke-width:4;stroke-linecap:round;stroke-linejoin:round;marker:none;marker-start:none;marker-mid:none;marker-end:none;stroke-miterlimit:4;stroke-dasharray:none;stroke-dashoffset:0;stroke-opacity:1;visibility:visible;display:inline;overflow:visible;enable-background:accumulate"
       d="M 199.01551,191.35938 C 199.01551,198.58058 198.23114,212.17078 197.01551,222.0144 C 196.84884,223.364 196.68218,224.71358 196.51551,226.06318 C 196.39533,227.03639 196.18218,227.99117 196.01551,228.95516 C 195.0618,234.47141 196.19066,240.29103 195.01551,245.72866 C 194.32615,248.91847 194.89066,254.9837 195.51551,257.87499"
       id="path3759" />
    <path
       style="fill:none;fill-rule:evenodd;stroke:#0000ff;stroke-width:3.99999976;stroke-linecap:round;stroke-linejoin:round;stroke-miterlimit:4;stroke-dasharray:none;stroke-opacity:1"
       d="M -97.497736,261 C -89.079064,261.74544 -66.924762,261.91681 -58.434878,262.27036 C -57.751032,262.29884 -56.616404,263.60628 -54.322295,263.55885 C -48.227103,263.43283 -21.549931,260.32455 -18.216046,261.437 C -4.0516343,266.16338 8.3502042,257.62557 25.891102,262.7972 C 33.310882,264.9848 71.023992,258.37938 76.827642,259.19365 C 82.707082,260.01855 91.306772,261.7665 105.48509,259.50039 C 108.96267,258.94457 114.89425,261.14398 118.13997,260.60303 C 133.27845,258.07995 152.21748,260.60303 167.63745,260.60303 C 178.96202,260.60303 189.93395,257.16155 200.87146,259.89592 C 208.78613,261.87459 217.45136,261.31014 225.6202,261.31014 C 233.00387,261.31014 240.72523,262.01724 248.24762,262.01724 C 254.77582,262.01724 260.76733,260.3418 266.9645,261.68146 C 267.93414,261.89107 288.06629,261.87789 288.06629,261.87789 C 288.46608,263.36579 292.87671,262.05748 295.9326,262.7281 C 299.61169,263.53549 307.45425,263.14916 308.85305,262.85943 C 313.06296,261.98743 317.54374,264.2652 317.33438,262.10642 C 323.23313,262.44026 318.50823,263.40436 324.09738,261.01984 C 325.17879,263.27721 327.5245,264.95291 330.67733,264.95291 C 334.11745,264.95291 336.43644,266.14223 339.80906,266.75469 C 343.85372,267.48918 351.45812,266.8265 355.7404,266.45919 C 358.83182,266.19402 364.75149,266.33159 367.99345,266.33159 C 371.46456,266.33159 374.47667,266.12213 377.85699,265.96286 C 383.48483,265.6977 387.63098,265.66885 393.21706,265.1522 C 398.62312,264.6522 404.20906,264.16052 409.34663,263.55125 C 414.50529,262.93948 416.44618,262.80361 417.04605,260.57663 C 417.21706,259.94176 423.04,260.6406 426.26174,261.17756 C 430.78404,261.93128 436.37378,262.39485 440.75743,260.89225 C 440.75743,260.89225 449.44354,261.03375 453.8389,260.53869 C 458.93976,259.96417 464.10029,259.83159 469.39525,259.83159 C 471.13074,259.83159 472.46755,259.88036 473.99145,260.18514 C 474.27122,260.3095 474.55099,260.43386 474.83076,260.55822 C 475.78534,260.98255 477.53167,260.38236 478.52389,260.38236 C 480.46735,260.38236 482.14451,260.71959 483.97565,261.08581 C 485.88424,261.46753 487.81907,261.43754 489.77913,261.43754 C 491.30937,261.43754 492.8684,260.90995 494.52744,260.90995 C 496.27779,260.90995 498.63157,261.18856 500.33093,261.6134"
       id="path2849"
       sodipodi:nodetypes="csssssssssssssssccssssssssssssc" />
    <path
       style="fill:none;stroke:#ff8000;stroke-width:4;stroke-linecap:round;stroke-linejoin:round;stroke-miterlimit:4;stroke-dasharray:none;stroke-opacity:1"
       d="M 332.58229,224.84224 C 329.78917,227.40964 338.36789,229.30789 343.76997,231.16677 C 344.9063,231.55817 353.99538,233.82377 355.13184,234.21484 C 359.65876,235.77254 367.56234,240.58252 366.8963,245.52248 C 366.20424,250.65564 361.93088,252.53474 356.3924,252.98065 C 352.93478,253.25892 350.37316,245.53233 349.90808,243.85628 C 348.19217,237.67734 348.13544,234.6474 348.08519,228.27016 C 348.05184,224.03949 347.46635,223.00553 346.79973,220.60505 C 345.72575,216.73755 345.86757,212.14973 343.16892,215.12099 C 341.71016,216.72712 336.75668,221.0055 332.5827,224.84223 L 332.58229,224.84224 z"
       id="path3621"
       sodipodi:nodetypes="csssssssss" />
    <path
       style="fill:none;stroke:#ff8000;stroke-width:4;stroke-linecap:round;stroke-linejoin:round;stroke-miterlimit:4;stroke-dasharray:none;stroke-opacity:1"
       d="M 369.33377,258.09622 C 369.51665,258.93089 374.83216,252.88327 377.63241,249.58177 C 381.87243,244.58278 390.18341,240.73346 396.464,240.13267 C 401.5912,239.6422 404.12408,244.43087 405.34999,248.38054 C 407.02246,253.76895 401.13771,256.89003 396.88518,256.60228 C 391.32775,256.22624 384.91456,253.6876 383.16985,251.78989 C 379.3742,247.66133 377.1591,245.78041 372.29074,242.80507 C 366.08204,239.01057 367.13236,241.90752 367.2437,242.80083 C 367.69848,246.42741 368.50442,254.31064 369.33376,258.09618 L 369.33377,258.09622 z"
       id="path3623"
       sodipodi:nodetypes="cssssssss" />
    <path
       style="opacity:1;fill:none;fill-opacity:1;fill-rule:nonzero;stroke:#008000;stroke-width:4;stroke-linecap:round;stroke-linejoin:round;marker:none;marker-start:none;marker-mid:none;marker-end:none;stroke-miterlimit:4;stroke-dasharray:none;stroke-dashoffset:0;stroke-opacity:1;visibility:visible;display:inline;overflow:visible;enable-background:accumulate"
       d="M -412.99773,256 C -407.33072,254.83196 -396.68588,256.38393 -392.99773,256.5 C -382.19722,256.8399 -369.01526,258.5 -357.99773,258.5 C -344.3783,258.5 -331.06787,255.95965 -317.49773,256.5 C -305.39035,256.9821 -292.55899,259.91225 -280.49773,257.5 C -267.36282,254.87302 -251.30804,258 -237.99773,258 C -218.63022,258 -199.1663,258.12984 -179.99773,256 C -169.52455,254.83631 -159.07575,255 -148.49773,255 C -136.59934,255 -125.85928,265.54594 -114.05839,265.54594 C -100.76308,265.54594 -90.436776,267.22468 -79.997724,275.5 C -69.275254,284 -57.447356,285.12982 -46.497726,287.5 C -32.638466,290.5 -19.510816,290.80186 -7.4977263,293.5 C -0.81918629,295 4.5647242,300.73536 9.0022742,303.5 C 18.418804,309.36661 27.045552,313.5 36.002272,313.5 C 45.044532,313.5 84.657932,314.58608 93.002272,312.5 C 102.88071,312.5 120.75134,306.30266 123.08972,307.27208 C 139.55536,314.09825 167.08443,305.85787 174.53173,310.10051 C 175.25692,310.51364 187.13025,312.19619 189.52685,310.55718 C 193.09105,308.11968 220.25418,310.64713 231.27705,312.22183 C 243.18686,313.92323 256.66953,312.85894 268.04661,310.80761 C 268.63586,310.70137 269.57866,312.10397 270.16791,312.22183 C 272.41032,312.67031 275.08646,310.90155 277.23898,310.80761 C 285.77793,310.43495 294.67098,311.74409 303.04838,313.63604 C 306.32994,314.37714 310.27386,313.9709 313.65498,314.34315 C 322.39661,315.30556 329.03402,312.57453 339.46438,313.63604 C 341.86565,313.88042 347.34191,311.64182 351.13164,309.74695 C 354.3083,308.15862 362.35986,311.92387 362.97568,310.98439 C 363.99026,309.43656 367.99707,314.1854 375.17327,311.33794 C 377.58387,310.38144 388.78461,312.18639 396.03292,313.63604 C 400.49607,314.52867 405.9638,314.6967 410.52861,314.6967 C 414.21026,314.6967 417.8358,314.6967 421.48876,314.6967 C 423.01871,314.6967 424.30103,314.70074 425.7314,314.34315 C 430.79513,314.34315 435.23243,314.82963 439.71607,313.03617 C 443.72289,311.43344 449.72301,311.2572 453.64373,312.04134 C 457.85119,312.88283 461.19202,314.92325 465.58172,316.02067 C 469.70472,317.05142 475.20466,316.02067 479.50938,316.02067 C 484.42937,316.02067 488.98934,316.51809 493.93445,316.51809 C 494.59767,316.51809 495.2609,316.51809 495.92412,316.51809"
       id="path2842"
       sodipodi:nodetypes="csssssssssssssssssssssssssssssss" />
    <path
       style="fill:none;stroke:#c87137;stroke-width:4;stroke-linecap:round;stroke-linejoin:round;marker:none;stroke-miterlimit:4;stroke-dasharray:none;stroke-dashoffset:0;stroke-opacity:1;visibility:visible;display:inline;overflow:visible;enable-background:accumulate"
       d="M 303.37107,294.13272 C 303.29301,296.49443 303.14927,298.77221 303.72565,301.1002 C 303.9044,301.82223 304.49012,302.17542 304.82459,302.77184 C 305.30129,303.62192 305.36248,304.87569 305.88456,305.66988 C 306.08933,305.98135 306.4782,305.88384 306.73475,306.10611 C 307.62688,306.87864 308.50982,308.54012 309.52106,309.05891 C 312.14376,310.4046 315.06176,310.46263 317.82615,310.55047 C 319.93815,310.61757 322.09388,311.055 323.92038,309.10748 C 327.41138,305.3851 325.93517,304.12366 327.09645,299.79707 C 327.82759,297.07302 329.23393,295.97825 329.31839,293.32058"
       id="path2928" />
    <path
       style="fill:none;stroke:#c87137;stroke-width:4;stroke-linecap:round;stroke-linejoin:round;marker:none;stroke-miterlimit:4;stroke-dasharray:none;stroke-dashoffset:0;stroke-opacity:1;visibility:visible;display:inline;overflow:visible;enable-background:accumulate"
       d="M -283.70601,254.42966 C -288.52102,253.85131 -293.90478,256.36575 -298.21183,254.59013 C -301.93497,253.05523 -305.83607,249.90168 -306.88902,245.39182 C -308.32252,239.25197 -309.94562,233.14479 -311.39393,227.00328 C -313.53805,217.91123 -311.93753,208.56101 -312.36836,199.34271 C -312.58426,194.72301 -310.04635,190.45928 -310.1838,185.76731 C -310.37772,179.14806 -310.62347,172.52495 -310.202,165.89689 C -309.97721,162.36178 -310.258,158.73006 -312.00176,155.50366 C -313.05821,153.54898 -312.17047,151.15662 -312.18852,149.00427"
       id="path2832"
       sodipodi:nodetypes="cssssssss" />
    <path
       style="fill:none;stroke:#c87137;stroke-width:4;stroke-linecap:round;stroke-linejoin:round;marker:none;stroke-miterlimit:4;stroke-dasharray:none;stroke-dashoffset:0;stroke-opacity:1;visibility:visible;display:inline;overflow:visible;enable-background:accumulate"
       d="M -341.60617,153.76514 C -341.14856,157.47561 -340.79046,161.19114 -340.2843,164.93278 C -339.62469,169.80884 -340.2843,175.3607 -340.2843,180.28829 C -340.2843,191.50441 -339.06478,203.75388 -341.60617,214.48921 C -342.95509,220.18735 -340.03578,234.64119 -341.60617,239.61643 C -344.09356,247.49685 -352.1833,251.13421 -359.45133,254.97192 C -360.52082,255.53665 -363.45046,254.97192 -364.73879,254.97192"
       id="path2850"
       sodipodi:nodetypes="cssssss" />
    <path
       style="fill:none;stroke:#94f3f3;stroke-width:4;stroke-linecap:round;stroke-linejoin:round;stroke-miterlimit:4;stroke-dasharray:none;stroke-opacity:1"
       d="M -346.90398,37.450061 C -351.84998,37.63939 -356.37625,41.249528 -357.90398,45.918811 C -359.57266,49.653717 -361.2133,53.735019 -360.52243,57.902846 C -359.63203,62.732175 -357.6482,67.254744 -356.09148,71.887561 C -355.74548,72.584218 -355.12331,73.508208 -355.74773,74.231311 C -356.78759,74.851141 -357.50564,73.390019 -358.05842,72.716889 C -358.93603,71.422244 -359.67443,70.025401 -360.74402,68.873126 C -364.76286,63.259798 -369.44591,58.024736 -375.12273,54.043811 C -376.71736,53.005647 -378.88924,53.087993 -380.37273,54.293811 C -382.51705,55.920217 -384.04821,58.186873 -386.0503,59.971381 C -389.67342,63.533391 -393.65001,66.933284 -396.10873,71.458303 C -398.71787,76.563585 -399.0801,82.877372 -396.63276,88.112572 C -394.81854,92.205306 -391.05677,94.937768 -387.31042,97.140161 C -383.08426,99.649226 -378.76434,102.01336 -374.68523,104.76254 C -373.93458,104.80293 -372.47124,106.11396 -373.64716,106.45349 C -374.80027,106.23977 -375.96712,105.69611 -377.13833,106.14242 C -382.5277,107.1904 -387.24066,110.44338 -390.99478,114.34455 C -392.86039,116.35936 -394.54655,118.60941 -395.39074,121.25538 C -396.37937,124.09596 -396.4024,127.40076 -394.8539,130.05226 C -393.74462,132.22541 -391.59297,133.52925 -389.48636,134.58844 C -386.23658,136.23651 -382.86786,137.71436 -379.92867,139.90046 C -377.72067,141.40464 -375.51561,142.91986 -373.18523,144.23129 C -372.34084,145.16824 -373.39794,146.39089 -374.27999,146.82565 C -380.62496,150.57401 -386.59549,155.05787 -391.58005,160.50834 C -394.14357,163.27443 -396.12878,166.86776 -396.02898,170.73129 C -395.97947,172.93325 -394.40317,175.14354 -392.13413,175.43662 C -386.6805,176.97513 -381.08067,177.99527 -375.44732,178.5801 C -370.71817,178.90851 -365.85691,178.36838 -361.51312,176.38075 C -356.53616,174.13981 -356.27685,170.60547 -352.37353,166.84715 C -348.76573,163.17183 -345.52091,159.04668 -343.48383,154.28103 C -342.93714,153.29631 -342.73842,152.1351 -341.99773,151.26254 C -341.25134,150.71443 -339.85302,151.06182 -339.84148,152.10629 C -339.27929,154.35535 -338.39855,156.64476 -336.62766,158.22136 C -334.36639,160.73234 -327.68323,162.87099 -324.79674,164.61168 C -322.24391,165.72372 -321.21828,163.07557 -319.4892,161.03526 C -316.78263,158.28659 -314.79699,154.79733 -313.87487,151.05082 C -313.61104,150.06943 -313.79924,148.89467 -313.21648,148.04379 C -312.24524,147.32059 -311.23191,148.21825 -310.64297,148.96219 C -307.62804,151.44944 -302.67049,155.94384 -298.67047,156.67799 C -294.12657,157.59844 -289.50969,156.403 -285.14403,155.17442 C -281.4457,154.12913 -277.72041,152.87088 -274.51123,150.71084 C -272.318,149.17195 -272.06876,145.89684 -273.40845,143.71423 C -274.51722,141.80015 -275.91324,140.08367 -277.3088,138.37477 C -277.80529,137.71438 -278.53735,136.81453 -277.42791,137.78652 C -274.82485,139.81118 -271.91429,141.91602 -268.47161,141.93137 C -264.84437,142.1149 -260.99437,142.81828 -257.54571,141.31778 C -255.29177,140.00325 -254.5335,137.27661 -254.07295,134.87477 C -252.04133,126.16505 -251.51863,117.03795 -253.0691,108.20729 C -253.46855,105.38735 -254.5552,102.3945 -257.02696,100.75815 C -259.15366,99.258085 -261.77288,98.500507 -264.37273,98.731311 C -265.43988,98.514555 -265.13657,96.758489 -264.09148,96.793811 C -259.33274,95.259846 -254.61001,93.282474 -250.68461,90.123458 C -249.06072,88.791742 -247.50644,87.300056 -246.43523,85.481311 C -245.66981,83.899888 -245.82059,81.90067 -247.04669,80.586414 C -248.92471,78.311637 -251.78294,77.191316 -254.46648,76.168811 C -260.17535,74.123928 -266.59079,74.942063 -272.00968,77.465791 C -273.97425,78.362934 -275.98778,79.36129 -277.3213,81.12685 C -278.29513,81.703496 -277.66001,83.009795 -278.74773,83.418811 C -279.95514,83.64338 -279.44315,81.837306 -279.46825,81.096359 C -279.1721,79.565458 -279.23502,78.013604 -279.38712,76.474666 C -279.80668,70.067127 -282.25682,63.736363 -286.53078,58.912131 C -288.72973,56.562374 -291.54332,54.293097 -294.92584,54.293811 C -297.61439,54.439031 -299.48162,56.612122 -301.29604,58.342117 C -302.89978,59.853018 -304.22896,61.625646 -305.68523,63.262561 C -306.6904,63.707468 -307.45864,62.568347 -307.65187,61.715017 C -308.94795,58.059309 -311.30714,54.875583 -313.87994,52.017093 C -318.39036,47.321545 -324.24152,44.295796 -329.83987,41.118548 C -333.41886,39.240548 -337.3166,37.86469 -341.37632,37.612577 C -343.21221,37.427989 -345.06052,37.392312 -346.90398,37.450061 z"
       id="path2827"
       sodipodi:nodetypes="csssssssssssssssssssssssssssssssssssssscccccccccccccccccccccccccccccc" />
    <path
       id="path3747"
       style="fill:none;stroke:#808080;stroke-width:4;stroke-linecap:round;stroke-linejoin:round;stroke-miterlimit:4;stroke-dasharray:none;stroke-opacity:1"
       d="M 413.38987,258.95546 C 413.38987,258.95546 406.62637,259.7126 403.25998,259.99067 C 399.18351,260.3274 395.14639,260.95844 391.053,261.2087 C 383.71268,261.65753 376.36038,262.0067 369.02644,262.17592 C 363.40665,262.30559 357.81789,262.09237 352.17304,262.59229 C 347.7224,262.98641 343.12298,263.24477 338.86721,262.38231 C 336.13013,261.82764 333.56792,260.75672 330.67755,260.87141 C 329.05673,260.93571 328.0085,259.84682 327.68343,259.04803"
       sodipodi:nodetypes="csssssss" />
    <path
       sodipodi:nodetypes="cssssss"
       id="path4061"
       d="M -119.04126,256.12963 C -119.036,255.55957 -120.92599,254.11042 -121.68162,254.23464 C -123.26648,254.4951 -125.0382,253.83938 -125.20145,255.70885 C -125.3317,257.20039 -126.16184,257.25327 -125.49784,258.26563 C -124.50476,259.7798 -124.06848,259.97955 -122.36284,259.90018 C -121.3299,259.85215 -121.51401,259.73848 -120.82158,259.46773 C -119.53684,258.9654 -119.05253,257.35058 -119.04126,256.12963 z"
       style="opacity:1;fill:none;fill-opacity:1;fill-rule:nonzero;stroke:#808080;stroke-width:4;stroke-linecap:butt;stroke-linejoin:miter;marker:none;marker-start:none;marker-mid:none;marker-end:none;stroke-miterlimit:4;stroke-dasharray:none;stroke-dashoffset:0;stroke-opacity:1;visibility:visible;display:inline;overflow:visible;enable-background:accumulate" />
    <path
       sodipodi:nodetypes="cssssss"
       id="path4063"
       d="M -113.87955,256.09177 C -115.04304,256.42074 -116.62736,259.7008 -116.1184,260.86835 C -115.79114,261.61915 -113.86575,261.80403 -113.27309,261.72076 C -112.26886,261.57969 -111.06895,261.96757 -110.34261,261.28245 C -109.99082,260.9507 -109.41952,260.34449 -109.67425,259.82339 C -110.00382,259.14916 -111.007,257.25422 -111.49613,257.07153 C -112.26954,256.78265 -112.69184,255.756 -113.87955,256.09177 z"
       style="opacity:1;fill:none;fill-opacity:1;fill-rule:nonzero;stroke:#808080;stroke-width:4;stroke-linecap:butt;stroke-linejoin:miter;marker:none;marker-start:none;marker-mid:none;marker-end:none;stroke-miterlimit:4;stroke-dasharray:none;stroke-dashoffset:0;stroke-opacity:1;visibility:visible;display:inline;overflow:visible;enable-background:accumulate" />
    <path
       sodipodi:nodetypes="cssssssss"
       id="path4065"
       d="M -101.18823,257.89117 C -101.5537,257.3731 -102.79649,257.69763 -103.30229,257.41368 C -104.07411,256.98024 -104.79283,257.84136 -105.53168,258.34201 C -106.05928,258.69954 -106.62372,259.36061 -106.56729,259.88853 C -106.5051,260.46881 -106.31722,261.97536 -105.89143,262.29543 C -105.48229,262.60283 -104.26697,262.62302 -103.51504,262.66681 C -102.53259,262.72398 -101.58025,262.61 -100.6995,262.75258 C -99.996326,262.8664 -100.36245,261.52989 -100.20718,261.15369 C -100.06579,260.81123 -100.38432,259.03031 -101.18823,257.89117 z"
       style="opacity:1;fill:none;fill-opacity:1;fill-rule:nonzero;stroke:#808080;stroke-width:4;stroke-linecap:butt;stroke-linejoin:miter;marker:none;marker-start:none;marker-mid:none;marker-end:none;stroke-miterlimit:4;stroke-dasharray:none;stroke-dashoffset:0;stroke-opacity:1;visibility:visible;display:inline;overflow:visible;enable-background:accumulate" />
    <path
       style="fill:none;stroke:#80ff00;stroke-width:4;stroke-linecap:round;stroke-linejoin:round;marker:none;stroke-miterlimit:4;stroke-dasharray:none;stroke-dashoffset:0;stroke-opacity:1;visibility:visible;display:inline;overflow:visible;enable-background:accumulate"
       d="M 209.91382,273.2175 C 215.27072,273.52258 220.22993,273.03944 223.20077,271.8408 C 227.05198,270.28669 230.49051,268.17821 234.16199,266.35028 C 241.46323,262.71515 249.48489,261.35333 257.09963,258.63536 C 263.34467,256.40617 269.54539,254.03661 275.75158,251.98067 C 280.72015,250.33474 285.3165,246.57496 289.82501,245.21085 C 293.91832,243.97244 297.58998,241.65032 300.53345,238.80833 C 302.91854,236.50546 305.49818,235.30331 308.46603,234.65124"
       id="path2965"
       sodipodi:nodetypes="cssssssc" />
    <g
       id="g4230"
       transform="matrix(-0.92986249,-0.10798391,-0.09035455,1.1112908,498.56029,-6.6017505)"
       style="stroke-linecap:round;stroke-linejoin:round">
      <path
         sodipodi:nodetypes="csssssscc"
         id="path4202"
         d="M 45.222162,75.375534 C 54.337824,73.993356 57.023018,76.79414 66.048558,75.485163 77.899195,73.766462 83.705441,60.217782 85.158244,49.421527 86.729356,37.746082 74.692728,30.580889 67.407239,24.010788 61.453314,18.641499 54.779847,21.170136 51.218222,17.106449 47.25369,12.583055 38.29544,20.08661 32.69561,25.476123 c -6.167794,5.936146 -15.168926,12.28642 -12.889767,22.275542 2.045077,8.963187 4.336525,17.957138 10.992492,24.858193 3.929978,2.668096 11.149028,7.648128 14.423827,2.765676 z"
         style="fill:none;stroke:#ffff00;stroke-width:3.91648173;stroke-linecap:round;stroke-linejoin:round;stroke-miterlimit:4;stroke-opacity:1;stroke-dasharray:none" />
      <path
         id="path4215"
         d="M 31,81 C 28.148613,84.553942 24.105327,87.346267 24.536612,92.015165 21.832544,96.043458 21.188425,100.66969 20,105 c -1.284479,-0.52275 -1.919186,3.77422 -2,5"
         style="fill:none;stroke:#ffff00;stroke-width:3.91648173;stroke-linecap:round;stroke-linejoin:round;stroke-miterlimit:4;stroke-opacity:1;stroke-dasharray:none" />
      <path
         id="path4217"
         d="m 53.280734,83.999998 c 4.109561,4.16047 0.225882,10.218352 3.166602,14.792056 1.215413,5.697486 7.524659,9.190686 6.531011,15.084746 L 62.937021,115"
         style="fill:none;stroke:#ffff00;stroke-width:3.91648173;stroke-linecap:round;stroke-linejoin:round;stroke-miterlimit:4;stroke-opacity:1;stroke-dasharray:none" />
      <path
         id="path4219-0"
         d="m 76,78 c 3.400595,3.924314 5.608335,9.266142 10.25064,12 2.62092,4.847886 4.316418,10.49689 8.888485,13.99058 2.816275,3.7582 6.029785,7.79196 9.904355,10.00942"
         style="fill:none;stroke:#ffff00;stroke-width:3.91648173;stroke-linecap:round;stroke-linejoin:round;stroke-miterlimit:4;stroke-opacity:1;stroke-dasharray:none" />
      <path
         id="path4221"
         d="m 90,56.987967 c 14.33334,0.01397 28.66662,0.07609 43,0.05204"
         style="fill:none;stroke:#ffff00;stroke-width:3.91648173;stroke-linecap:round;stroke-linejoin:round;stroke-miterlimit:4;stroke-opacity:1;stroke-dasharray:none" />
      <path
         id="path4223"
         d="m 86.000002,33 c 5.268561,-0.876096 9.823061,-4.205192 14.951108,-4.876265 4.62153,1.300794 7.8844,-3.002146 12.17425,-3.773924 C 115.24759,22.885947 120.60982,23.2369 120.85644,21"
         style="fill:none;stroke:#ffff00;stroke-width:3.91648173;stroke-linecap:round;stroke-linejoin:round;stroke-miterlimit:4;stroke-opacity:1;stroke-dasharray:none" />
    </g>
    <path
       style="fill:none;stroke:#80ff00;stroke-width:3.99999976;stroke-linecap:round;stroke-linejoin:round;stroke-miterlimit:4;stroke-dasharray:none;stroke-opacity:1"
       d="M 247.64761,310.19261 C 246.85176,305.70221 244.96485,301.25687 241.90268,296.77525 C 238.83249,291.20173 236.15398,285.51199 232.22456,280.00174 C 230.40787,276.40284 227.52844,267.41909 225.45986,273.74084 C 221.63368,277.60812 218.0374,281.46065 216.46264,286.28679 C 214.23168,291.07717 209.52854,295.44923 208.73276,300.2477 C 209.18028,301.70746 206.40673,305.35373 207.02847,306.91536"
       id="path2956-1"
       sodipodi:nodetypes="ccccccc" />
    <path
       style="fill:none;stroke:#80ff00;stroke-width:4;stroke-linecap:round;stroke-linejoin:round;marker:none;stroke-miterlimit:4;stroke-dasharray:none;stroke-dashoffset:0;stroke-opacity:1;visibility:visible;display:inline;overflow:visible;enable-background:accumulate"
       d="M 209.20942,273.23515 C 207.59056,273.28719 199.96193,272.59598 199.96193,272.59598 C 185.01842,268.67625 174.7986,272.07222 164.13121,272.30539 C 159.37991,272.40924 145.9025,269.25664 136.00713,266.11872 C 126.22827,263.01775 119.36344,257.19522 117.6179,256.59302 C 104.04242,251.90963 104.34123,246.634 105.81825,236.0294 C 106.53549,230.87979 123.84117,224.49863 127.79108,223.53765 C 137.36995,221.20719 137.75248,219.899 145.89332,222.94676"
       id="path4125"
       sodipodi:nodetypes="csssssss" />
    <path
       style="fill:none;stroke:#80ff00;stroke-width:3.99999976;stroke-linecap:round;stroke-linejoin:round;stroke-miterlimit:4;stroke-dasharray:none;stroke-opacity:1"
       d="M 304.36575,223.73809 C 305.56894,225.17421 305.98925,221.52578 307.34006,223.28159 C 310.19575,223.93979 312.80153,222.30148 315.66754,223.03135 C 317.61452,223.08151 319.37502,222.07858 321.33119,222.184 C 323.37845,222.21987 325.24419,221.53515 327.13048,220.91829 C 328.79803,220.46566 330.54498,220.46885 332.23688,220.17463 C 333.70634,220.80296 334.88419,220.35485 336.38257,220.87741 C 338.19183,221.49971 339.95797,220.32929 341.7749,221.3855 C 341.88528,222.24685 340.39245,223.38502 339.87155,224.35613 C 338.05162,226.77608 336.23278,229.19759 334.41037,231.61428 C 332.9734,232.6276 331.97454,234.49023 330.21079,234.80074 C 328.92372,235.44112 327.98829,236.71573 326.8606,237.6279 C 325.71889,238.81263 324.31726,240.01868 323.02031,241.09083 C 321.79081,242.37466 320.40365,243.42221 319.40321,245.04217 C 318.61696,246.30914 317.60751,247.87901 316.39917,245.75521 C 315.23612,244.44113 315.11234,242.35546 313.93653,241.03807 C 312.99461,239.21273 311.6522,237.76258 311.22046,235.48977 C 310.06616,233.72686 309.19883,231.53138 307.78708,230.05636 C 307.0497,228.29649 305.9101,226.73309 304.97336,225.18197 C 304.69391,224.83511 304.04878,224.26366 304.36594,223.73832 L 304.36575,223.73809 z"
       id="path2942" />
    <path
       sodipodi:nodetypes="cssssss"
       id="path3240"
       d="M 314.08257,297.61033 C 314.08783,297.04027 312.19784,295.59112 311.44221,295.71534 C 309.85735,295.9758 308.08563,295.32008 307.92238,297.18955 C 307.79213,298.68109 306.96199,298.73397 307.62599,299.74633 C 308.61907,301.2605 309.05535,301.46025 310.76099,301.38088 C 311.79393,301.33285 311.60982,301.21918 312.30225,300.94843 C 313.58699,300.4461 314.0713,298.83128 314.08257,297.61033 z"
       style="opacity:1;fill:none;fill-opacity:1;fill-rule:nonzero;stroke:#808080;stroke-width:4;stroke-linecap:butt;stroke-linejoin:miter;marker:none;marker-start:none;marker-mid:none;marker-end:none;stroke-miterlimit:4;stroke-dasharray:none;stroke-dashoffset:0;stroke-opacity:1;visibility:visible;display:inline;overflow:visible;enable-background:accumulate" />
    <path
       sodipodi:nodetypes="cssssss"
       id="path3242"
       d="M 317.74168,301.01962 C 316.57819,301.34859 314.99387,304.62865 315.50283,305.7962 C 315.83009,306.547 317.75548,306.73188 318.34814,306.64861 C 319.35237,306.50754 320.55228,306.89542 321.27862,306.2103 C 321.63041,305.87855 322.20171,305.27234 321.94698,304.75124 C 321.61741,304.07701 320.61423,302.18207 320.1251,301.99938 C 319.35169,301.7105 318.92939,300.68385 317.74168,301.01962 z"
       style="opacity:1;fill:none;fill-opacity:1;fill-rule:nonzero;stroke:#808080;stroke-width:4;stroke-linecap:butt;stroke-linejoin:miter;marker:none;marker-start:none;marker-mid:none;marker-end:none;stroke-miterlimit:4;stroke-dasharray:none;stroke-dashoffset:0;stroke-opacity:1;visibility:visible;display:inline;overflow:visible;enable-background:accumulate" />
    <path
       sodipodi:nodetypes="cssssssss"
       id="path3244"
       d="M 324.26647,294.13162 C 324.17332,293.50449 322.91748,293.23486 322.59364,292.75362 C 322.09954,292.01915 321.07013,292.46457 320.18501,292.57905 C 319.55294,292.66082 318.75135,292.99705 318.5641,293.49386 C 318.35843,294.04002 317.84805,295.46988 318.08418,295.94736 C 318.31116,296.40602 319.3873,296.97111 320.03903,297.34869 C 320.89058,297.84197 321.79229,298.16888 322.51459,298.69265 C 323.09125,299.11081 323.36594,297.75256 323.67393,297.48652 C 323.95434,297.24436 324.47156,295.51069 324.26647,294.13162 z"
       style="opacity:1;fill:none;fill-opacity:1;fill-rule:nonzero;stroke:#808080;stroke-width:4;stroke-linecap:butt;stroke-linejoin:miter;marker:none;marker-start:none;marker-mid:none;marker-end:none;stroke-miterlimit:4;stroke-dasharray:none;stroke-dashoffset:0;stroke-opacity:1;visibility:visible;display:inline;overflow:visible;enable-background:accumulate" />
    <path
       style="fill:none;stroke:#0000ff;stroke-width:4;stroke-linecap:round;stroke-linejoin:round;stroke-miterlimit:4;stroke-dasharray:none;stroke-opacity:1"
       d="M 447.07699,215.21466 C 444.72519,215.35636 443.93399,217.38836 443.10729,218.64646 C 441.27529,220.36486 441.91289,221.02486 440.27179,223.22216 C 440.18079,225.18756 439.06979,226.73346 439.42119,228.88126 C 439.09529,232.02186 441.64789,234.67276 443.81869,236.53776 C 445.61829,237.61396 447.27549,238.83876 449.47569,238.66506 C 451.02929,238.54186 452.78069,238.93976 454.17739,238.40316 C 455.84749,236.51096 459.31929,235.78096 460.31319,234.10636 C 460.43029,232.25136 460.39719,230.40756 460.68729,228.60686 C 460.68699,225.85866 460.68769,223.11046 460.68729,220.36236 C 459.63569,219.37226 459.12589,217.81826 457.92839,217.50256 C 457.26709,216.82556 455.62629,217.12616 454.74609,216.62606 C 452.47389,215.67116 449.70329,215.92346 447.07699,215.21466 L 447.07699,215.21466 z"
       id="path2905" />
    <path
       style="fill:none;stroke:#0000ff;stroke-width:4;stroke-linecap:round;stroke-linejoin:round;stroke-miterlimit:4;stroke-dasharray:none;stroke-opacity:1"
       d="M 450.76981,240.8948 C 449.94309,243.29524 451.39165,246.55126 450.54753,247.40421 C 450.98989,251.2562 450.70624,255.19165 451.19897,259.03411 C 451.82688,262.33522 451.1743,265.61623 451.18514,268.71803 C 450.95894,270.22647 450.79526,272.4223 450.56908,273.93064"
       id="path2907"
       inkscape:transform-center-x="-0.6449537"
       inkscape:transform-center-y="-16.89307"
       sodipodi:nodetypes="ccccc" />
    <path
       id="path2909"
       style="fill:none;stroke:#0000ff;stroke-width:4;stroke-linecap:round;stroke-linejoin:round;stroke-miterlimit:4;stroke-dasharray:none;stroke-opacity:1"
       d="M 472.20978,313.27104 C 472.20978,313.27104 470.40742,310.14197 470.00655,309.07409 C 469.0167,306.43721 467.72042,304.63967 466.86675,302.02355 C 465.70993,298.47843 463.68655,295.46794 462.18777,292.17971 C 460.66646,288.84204 458.06676,285.77566 456.12381,282.50925 C 454.43116,279.66364 452.75217,276.23769 450.27821,274.62382 C 448.85353,277.56168 446.13906,282.77419 444.86154,285.94891 C 443.16195,290.17253 442.55915,289.46587 440.52597,293.3889 C 438.97277,296.38579 437.29839,299.16146 435.54932,302.39871 C 434.48377,304.37085 434.31396,308.71623 433.44422,309.32952 C 433.20836,309.49583 432.68354,311.91629 433.33863,310.72241"
       inkscape:transform-center-x="-0.51044179"
       inkscape:transform-center-y="18.401084"
       sodipodi:nodetypes="csssscsssss" />
    <path
       style="fill:none;stroke:#0000ff;stroke-width:4;stroke-linecap:round;stroke-linejoin:round;stroke-miterlimit:4;stroke-dasharray:none;stroke-opacity:1"
       d="M 466.0747,272.49857 C 464.0684,266.94023 462.77441,261.99555 460.39663,256.9839 C 459.80467,253.561 456.36716,248.97153 454.87166,245.41464 C 453.86476,244.25484 452.073,245.03663 449.8074,241.69868 C 444.59769,243.71443 444.27888,248.1653 443.46793,250.85939 C 442.24584,254.91938 440.12053,258.16615 437.35983,261.30896 C 435.88653,263.18951 436.31212,265.59425 434.97332,267.72197 C 434.41552,268.97161 433.9801,271.00788 433.7502,272.4073"
       id="path2911"
       sodipodi:nodetypes="ccccsccc" />
    <path
       sodipodi:type="star"
       style="opacity:1;fill:none;fill-opacity:1;fill-rule:nonzero;stroke:#ffff00;stroke-width:5.44328356;stroke-linecap:round;stroke-linejoin:round;marker:none;marker-start:none;marker-mid:none;marker-end:none;stroke-miterlimit:4;stroke-dasharray:none;stroke-dashoffset:0;stroke-opacity:1;visibility:visible;display:inline;overflow:visible;enable-background:accumulate"
       id="path2921"
       sodipodi:sides="5"
       sodipodi:cx="12.727922"
       sodipodi:cy="8.5194626"
       sodipodi:r1="12.419742"
       sodipodi:r2="6.2098713"
       sodipodi:arg1="-1.5707963"
       sodipodi:arg2="-0.9424778"
       inkscape:flatsided="false"
       inkscape:rounded="0"
       inkscape:randomized="0"
       d="M 12.727923,-3.900279 L 16.377993,3.4955712 L 24.539799,4.6815517 L 18.633861,10.438418 L 20.028063,18.567245 L 12.727922,14.729334 L 5.4277812,18.567244 L 6.8219839,10.438418 L 0.91604633,4.681551 L 9.0778517,3.4955712 L 12.727923,-3.900279 z"
       transform="matrix(0.7358355,0,0,0.733867,26.746431,18.805565)" />
    <path
       style="fill:none;stroke:#80ff00;stroke-width:3.99999976;stroke-linecap:round;stroke-linejoin:round;marker:none;stroke-miterlimit:4;stroke-dasharray:none;stroke-dashoffset:0;stroke-opacity:1;visibility:visible;display:inline;overflow:visible;enable-background:accumulate"
       d="M 331.07745,255.97705 C 326.42419,255.35536 328.79115,255.441 324.21445,254.31389 C 320.58118,253.41922 320.26353,254.43594 316.69744,253.26927 C 314.00461,252.38824 311.60531,250.79198 308.93133,249.82683 C 306.4134,248.91802 304.0002,247.72603 301.40144,247.0554 C 299.9129,246.67124 295.16994,242.58878 294.68674,243.01254 C 294.20353,243.43641 299.54779,247.73064 301.21182,248.75224 C 303.7011,250.28061 305.59064,252.63537 308.28655,253.86129 C 310.09758,254.68485 311.45216,256.31081 313.31723,256.99311 C 315.41738,257.76136 317.5485,258.47069 319.62501,259.27271 C 320.86506,259.75165 321.61181,260.15 322.38343,260.88068 C 323.09254,261.55223 324.78107,261.91818 325.86616,263.12448 C 326.73091,264.08579 328.55566,263.7108 329.86608,264.03875"
       id="path3643"
       sodipodi:nodetypes="csssszsssssss" />
    <path
       style="opacity:1;fill:none;fill-opacity:1;fill-rule:nonzero;stroke:#ffff00;stroke-width:4;stroke-linecap:round;stroke-linejoin:round;marker:none;marker-start:none;marker-mid:none;marker-end:none;stroke-miterlimit:4;stroke-dasharray:none;stroke-dashoffset:0;stroke-opacity:1;visibility:visible;display:inline;overflow:visible;enable-background:accumulate"
       d="M 31.275053,13.77805 C 30.578926,13.337514 28.719855,12.284109 27.604158,11.495137 C 25.903947,10.292825 23.976751,9.2886573 22.214969,8.1812327 C 20.920068,7.3672803 19.523065,6.7837192 18.231657,5.9719631 C 17.278492,5.3728204 16.644698,4.3342409 15.732324,3.6890512 C 15.623509,3.6121031 15.518443,3.4873892 15.419906,3.3944819"
       id="path2929" />
    <path
       style="opacity:1;fill:none;fill-opacity:1;fill-rule:nonzero;stroke:#ffff00;stroke-width:4;stroke-linecap:round;stroke-linejoin:round;marker:none;marker-start:none;marker-mid:none;marker-end:none;stroke-miterlimit:4;stroke-dasharray:none;stroke-dashoffset:0;stroke-opacity:1;visibility:visible;display:inline;overflow:visible;enable-background:accumulate"
       d="M 22.445913,19.063098 C 21.419856,18.293555 16.707046,16.805897 15.668615,16.513839 C 13.734648,15.96991 12.006649,14.819393 10.072681,14.275465 C 8.1907378,13.746168 6.2765658,12.794988 4.3523932,12.410154 C 3.972073,12.33409 3.5994069,12.296863 3.2332064,12.223623"
       id="path2931" />
    <path
       style="opacity:1;fill:none;fill-opacity:1;fill-rule:nonzero;stroke:#ffff00;stroke-width:4;stroke-linecap:round;stroke-linejoin:round;marker:none;marker-start:none;marker-mid:none;marker-end:none;stroke-miterlimit:4;stroke-dasharray:none;stroke-dashoffset:0;stroke-opacity:1;visibility:visible;display:inline;overflow:visible;enable-background:accumulate"
       d="M 25.181703,29.135779 C 24.067455,28.912929 23.068648,28.203284 21.948497,28.016592 C 21.824143,27.995867 21.699789,27.975141 21.575435,27.954415 C 20.258162,27.73487 18.911456,27.782246 17.596104,27.519176 C 16.443365,27.288628 15.270586,27.35284 14.114189,27.208291 C 13.27669,27.103603 12.434627,27.285816 11.627108,27.083937 C 10.897077,26.901429 10.03892,26.839964 9.2643799,26.710874 C 8.3625518,26.56057 7.4720928,26.389723 6.5907669,26.213458 C 6.4871385,26.192732 6.3835101,26.172007 6.2798817,26.151281 C 5.9931307,26.093931 5.8377999,26.047692 5.5959342,25.902573"
       id="path2933" />
  </g>
</svg>
