<?xml version="1.0" encoding="UTF-8" standalone="no"?>
<!-- Created with Inkscape (http://www.inkscape.org/) -->

<svg
   xmlns:dc="http://purl.org/dc/elements/1.1/"
   xmlns:cc="http://creativecommons.org/ns#"
   xmlns:rdf="http://www.w3.org/1999/02/22-rdf-syntax-ns#"
   xmlns:svg="http://www.w3.org/2000/svg"
   xmlns="http://www.w3.org/2000/svg"
   xmlns:sodipodi="http://sodipodi.sourceforge.net/DTD/sodipodi-0.dtd"
   xmlns:inkscape="http://www.inkscape.org/namespaces/inkscape"
   width="480"
   height="320"
   id="svg2"
   version="1.1"
   inkscape:version="0.47 r22583"
   sodipodi:docname="itnas193.svg"
   inkscape:export-xdpi="90"
   inkscape:export-ydpi="90"
   inkscape:export-filename="itnas193.png">
  <defs
     id="defs4" />
  <sodipodi:namedview
     id="base"
     pagecolor="#ffffff"
     bordercolor="#666666"
     borderopacity="1.0"
     inkscape:pageopacity="1"
     inkscape:pageshadow="2"
     inkscape:zoom="1"
     inkscape:cx="293.50402"
     inkscape:cy="211.79134"
     inkscape:document-units="px"
     inkscape:current-layer="layer1"
     showgrid="false"
     inkscape:snap-nodes="true"
     inkscape:snap-global="false"
     inkscape:snap-grids="true"
     showguides="true"
     inkscape:window-width="1280"
     inkscape:window-height="774"
     inkscape:window-x="1276"
     inkscape:window-y="1020"
     inkscape:window-maximized="1">
    <inkscape:grid
       empspacing="5"
       visible="true"
       enabled="true"
       snapvisiblegridlinesonly="true"
       type="xygrid"
       id="grid2816" />
  </sodipodi:namedview>
  <metadata
     id="metadata7">
    <rdf:RDF>
      <cc:Work
         rdf:about="">
        <dc:format>image/svg+xml</dc:format>
        <dc:type
           rdf:resource="http://purl.org/dc/dcmitype/StillImage" />
        <dc:title></dc:title>
      </cc:Work>
    </rdf:RDF>
  </metadata>
  <g
     inkscape:label="Layer 1"
     inkscape:groupmode="layer"
     id="layer1"
     transform="translate(0,0)">
    <path
       style="color:#000000;fill:none;stroke:#c87137;stroke-width:4;stroke-linecap:round;stroke-linejoin:round;stroke-miterlimit:4;stroke-opacity:1;stroke-dasharray:none;stroke-dashoffset:0;marker:none;visibility:visible;display:inline;overflow:visible;enable-background:accumulate"
       d="m 73.539105,134.73803 c 3.300649,-0.0871 6.628626,0.13881 9.899495,0 5.236252,-3.71135 12.530234,-0.53365 16.99856,-5.258 6.22726,-4.26815 3.31264,-16.20591 5.71653,-23.34953 2.80392,-10.187219 3.65664,-19.098017 4.06996,-29.354312 -0.24962,-9.014446 4.08625,-18.692584 3.62054,-27.722652 0,-30.599771 2.12132,-25.137097 2.12132,-55.7368689"
       id="path3230"
       sodipodi:nodetypes="ccccccc" />
    <path
       sodipodi:nodetypes="ccccccc"
       id="path3241"
       d="m 212.16706,136.15225 c -3.30065,-0.0871 -6.62862,0.13881 -9.89949,0 -5.23625,-3.71135 -12.53024,-0.53365 -16.99857,-5.258 -6.22726,-4.26815 -4.01974,-16.91302 -6.42363,-24.05664 0.73161,-10.894329 -0.82821,-19.09802 1.58689,-29.354315 0.24962,-9.014446 -1.96493,-17.27837 -3.62054,-27.722652 0,-30.599771 0,-23.722883 0,-54.3226555"
       style="color:#000000;fill:none;stroke:#c87137;stroke-width:4;stroke-linecap:round;stroke-linejoin:round;stroke-miterlimit:4;stroke-opacity:1;stroke-dasharray:none;stroke-dashoffset:0;marker:none;visibility:visible;display:inline;overflow:visible;enable-background:accumulate" />
    <path
       style="color:#000000;fill:none;stroke:#008000;stroke-width:4;stroke-linecap:butt;stroke-linejoin:miter;stroke-miterlimit:4;stroke-opacity:1;stroke-dasharray:none;stroke-dashoffset:0;marker:none;visibility:visible;display:inline;overflow:visible;enable-background:accumulate"
       d="m 512.3556,141.51119 c -14.85566,-0.88338 -31.74913,4.52256 -48,1 -18.24713,-1.31484 -31.35922,-5.66093 -49,-7 -15.08464,-0.70412 -27.34135,2.27997 -41.14903,1.29165 -21.58102,1.0372 -43.27606,2.8392 -65.02775,2.70835 -21.71067,2.51124 -40.7299,3.11223 -61.42249,0.0555 -34.35217,-2.38333 -48.61404,3.06949 -73.40073,-0.0555 -19.98378,-2.98315 -38.04719,4.35479 -57.66908,3 -16.64996,-0.33966 -33.28518,-4.39802 -49.83092,-3.5 -18.40515,2.80193 -34.54511,1.89781 -52.39934,2.5 -12.42187,0.53712 -24.62844,-0.50848 -36.75472,-3.02291"
       id="path2949"
       sodipodi:nodetypes="ccccccccccc" />
    <path
       style="fill:none;stroke:#0000ff;stroke-width:4;stroke-linecap:round;stroke-linejoin:round;stroke-miterlimit:4;stroke-opacity:1;stroke-dasharray:none"
       d="m 279.2584,153.36135 c 6.30564,-1.72065 12.60945,-3.95342 19.27872,-3.95678 7.40044,-1.64873 15.33334,-0.89782 22.51701,-3.17138 7.31287,2.12998 14.33477,-1.74774 21.69457,-0.5569 5.46524,0.10243 9.72904,-0.94598 15.365,-0.0207 2.22491,-0.47273 3.89858,1.21969 -0.89858,-0.9487"
       id="path2909-1" />
    <path
       style="fill:none;stroke:#0000ff;stroke-width:4;stroke-linecap:round;stroke-linejoin:round;stroke-miterlimit:4;stroke-opacity:1;stroke-dasharray:none"
       d="m 209.72129,140.7043 c -1.97395,-4.18509 -3.98182,-6.11431 -6.78962,-7.2012 -4.30763,-1.97485 -4.97617,-2.04143 -9.96307,-4.32538 -3.88107,0.64924 -7.37123,-0.87239 -11.42275,0.71861 -7.23673,0.0534 -11.54417,6.02925 -13.11938,11.82038 -1.34681,3.97154 -3.04411,7.7272 -1.77849,11.95598 0.89471,2.98577 0.85383,6.57759 2.49082,9.08261 4.40255,2.46906 6.95018,7.52712 10.6427,8.76563 3.67621,-0.55174 8.56722,2.84254 11.94004,0.88268 3.29855,-2.48321 7.60645,-2.092 13.73411,-5.03978 2.2208,-2.12174 4.73838,-4.86078 4.77868,-6.97775 1.04536,-1.57792 1.11542,-3.75254 1.72279,-5.68402 0.91074,-4.84452 -2.51637,-8.56447 -2.23583,-13.99776 z"
       id="path2905-7"
       sodipodi:nodetypes="cccccsccccccc" />
    <path
       style="fill:none;stroke:#0000ff;stroke-width:4;stroke-linecap:round;stroke-linejoin:round;stroke-miterlimit:4;stroke-opacity:1;stroke-dasharray:none"
       d="m 214.36614,151.58008 c 4.79235,1.67803 11.31915,-1.18568 13.01637,0.51129 7.70843,-0.8452 15.57631,-0.23755 23.26617,-1.18359 6.60859,-1.22193 13.16382,0.11686 19.36744,0.12699 3.01452,0.46787 6.02884,0.93569 9.04315,1.4035"
       id="path2907-4" />
    <path
       style="fill:none;stroke:#0000ff;stroke-width:4;stroke-linecap:round;stroke-linejoin:round;stroke-miterlimit:4;stroke-opacity:1;stroke-dasharray:none"
       d="m 279.6035,153.39101 c 4.33813,0.57854 13.94128,1.44022 20.51253,2.33168 8.74559,-0.33726 15.94456,3.14905 24.51082,3.20593 6.32549,1.99038 12.5371,2.56011 19.60596,3.25127 4.22275,1.06887 12.2222,-2.13212 13.86652,-0.78491 0.52816,0.22123 5.15779,-0.34061 2.56289,-0.76313"
       id="path2881-0" />
    <path
       id="path2911-4"
       style="fill:none;stroke:#0000ff;stroke-width:4;stroke-linecap:round;stroke-linejoin:round;stroke-miterlimit:4;stroke-opacity:1;stroke-dasharray:none"
       d="m 146.02517,184.78921 c 10.03242,-4.74551 19.12414,-4.59313 26.14752,-8.41259 12.1731,-3.48217 17.48881,-7.9325 25.31552,-10.08818 4.92061,-2.84381 9.94758,-4.97311 16.90428,-9.8215 2.04334,-0.38653 3.02754,-1.6204 6.86825,-3.6923 -0.99778,-0.25755 -2.53031,-3.64441 -4.64918,-3.73989 -8.14947,-0.36726 -17.95349,-2.15661 -31.62318,-2.7608 -11.68536,0.34909 -18.70705,-1.12935 -33.52743,-0.77673 -2.73808,-0.66448 -9.15197,0.45707 -13.04837,-0.78237"
       sodipodi:nodetypes="cccccsccc" />
    <path
       style="fill:none;stroke:#80ff00;stroke-width:3.99999976;stroke-linecap:round;stroke-linejoin:round;stroke-miterlimit:4;stroke-opacity:1;stroke-dasharray:none"
       d="m 238.53143,175.02167 c -2.13434,2.99913 -3.39824,-4.58292 -5.77655,-0.91744 -5.40924,1.39922 -10.62476,-1.97961 -16.0449,-0.43126 -3.73776,0.12515 -7.24842,-1.94153 -10.99695,-1.70138 -3.93237,0.0965 -7.60569,-1.30735 -11.31004,-2.56984 -3.26322,-0.92336 -6.62218,-0.89803 -9.91241,-1.49175 -2.7473,1.32226 -5.06826,0.40307 -7.88435,1.50572 -3.40147,1.31336 -6.94392,-1.10151 -10.30593,1.11423 -0.10468,1.79224 2.90815,4.14298 4.03113,6.15676 3.80192,5.01256 7.60197,10.0284 11.40829,15.03418 2.88981,2.09172 5.04321,5.95418 8.47369,6.58101 2.55499,1.31783 4.51299,3.95826 6.79547,5.84296 2.34346,2.45136 5.18939,4.94418 7.81731,7.15976 2.52466,2.65641 5.32299,4.81987 7.44914,8.17772 1.67018,2.62612 3.80741,5.87972 5.8658,1.45059 2.07239,-2.74496 2.04994,-7.08326 4.14648,-9.83521 1.58331,-3.8057 3.98364,-6.8355 4.53001,-11.56619 1.99954,-3.67816 3.3932,-8.25273 5.92377,-11.33498 1.19817,-3.66738 3.19439,-6.93047 4.80198,-10.16593 0.49404,-0.72422 1.66324,-1.91943 0.98773,-3.00842 z"
       id="path2942" />
    <path
       style="fill:none;stroke:#80ff00;stroke-width:3.99999976;stroke-linecap:round;stroke-linejoin:round;stroke-miterlimit:4;stroke-opacity:1;stroke-dasharray:none"
       d="m 285.31072,275.42186 c -0.97538,-8.52325 -1.19401,-17.27852 -6.11786,-25.05555 -4.8379,-9.90926 -8.98289,-20.17173 -15.32323,-29.68087 -2.83516,-6.45188 -7.0287,-23.08992 -11.2104,-10.06465 -7.01865,8.79191 -12.55897,17.85375 -15.74362,27.79608 -4.32445,10.0835 -10.05467,21.19675 -11.87993,30.83438 1.45669,2.8376 -2.43426,4.715 -1.49419,7.56815"
       id="path2956" />
    <path
       style="fill:none;stroke:#80ff00;stroke-width:3.99999952;stroke-linecap:round;stroke-linejoin:round;stroke-miterlimit:4;stroke-opacity:1;stroke-dasharray:none"
       d="m 442.55501,275.91579 c -0.53533,-1.47433 -3.41192,-9.39553 -4.83742,-13.32061 -4.62774,-12.33195 -13.01283,-16.54921 -21.77847,-31.49569 -3.66664,-8.81137 -15.66509,-25.66832 -18.43553,-30.20255 -2.58613,9.18505 -4.71857,18.58368 -7.41636,27.70878 -3.00113,14.26484 -9.07393,26.80675 -21.37847,35.88446 -1.6261,0.91149 -3.58423,2.99531 -4.81637,6.39821"
       id="path2958"
       sodipodi:nodetypes="ccccccc" />
    <path
       style="color:#000000;fill:none;stroke:#80ff00;stroke-width:4;stroke-linecap:round;stroke-linejoin:round;stroke-miterlimit:4;stroke-opacity:1;stroke-dasharray:none;stroke-dashoffset:0;marker:none;visibility:visible;display:inline;overflow:visible;enable-background:accumulate"
       d="m 229.44151,200.29134 c 6.67912,1.9074 12.22858,4.4286 19.54272,4.3774 7.59084,-0.054 15.12754,-1.185 22.82,-2.1146 8.47282,-1.0238 19.5953,-1.1834 29.04062,-2.0496 11.79812,-1.082 22.4641,-4.1622 34.45742,-4.9564 14.62366,-0.9686 29.56152,1.2992 44.36208,2.2606 7.44254,0.4834 14.71191,1.60163 22.24488,1.5042 5.78537,-0.0748 17.93422,1.83533 23.60501,-0.5399"
       id="path2833"
       sodipodi:nodetypes="csssssss" />
    <path
       id="path2916"
       d="m 282.38224,137.34089 c -0.66092,-6.98591 -0.71328,-14.11718 -4.54293,-20.72237 -3.73106,-8.33395 -6.90294,-16.91542 -11.84137,-25.010028 -2.17751,-5.408185 -5.299,-19.176291 -8.82612,-8.825018 -5.73708,6.746819 -10.29547,13.797728 -12.98192,21.699386 -3.60013,7.9512 -8.33912,16.65921 -9.93396,24.39093 1.12546,2.39058 -2.0131,3.69434 -1.30108,6.068"
       style="fill:none;stroke:#80ff00;stroke-width:3.99999952;stroke-linecap:round;stroke-linejoin:round;stroke-miterlimit:4;stroke-opacity:1;stroke-dasharray:none" />
    <path
       id="path2918"
       d="m 406.09376,131.94746 c -0.4043,-1.13965 -2.57682,-7.26266 -3.65342,-10.29669 -2.1922,-7.6945 -6.99827,-11.04849 -9.18189,-14.09328 -3.52883,-5.67051 -7.74488,-16.572928 -14.45602,-21.128029 -1.10711,-5.834927 -4.9639,-7.198779 -7.59479,-10.722393 -1.60175,7.646364 -8.41156,14.990858 -12.20162,23.205187 -0.4319,7.049625 -4.92339,15.302885 -9.5474,26.741155 -0.33115,0.85849 -3.18778,5.92659 -5.44517,8.53597"
       style="fill:none;stroke:#80ff00;stroke-width:3.99999952;stroke-linecap:round;stroke-linejoin:round;stroke-miterlimit:4;stroke-opacity:1;stroke-dasharray:none"
       sodipodi:nodetypes="cccccccc" />
    <path
       sodipodi:nodetypes="csssssss"
       id="path2920"
       d="m 233.38771,77.031 c 5.24741,2.171331 9.5645,0.904048 15.4086,0.610679 6.06522,-0.30378 12.13643,0.255107 18.32282,0.64602 6.81399,0.430485 15.70473,0.04965 23.28824,0.309815 9.47252,0.325 18.13214,2.297687 27.74743,2.383907 11.72409,0.1053 23.55121,-2.388647 35.32839,-3.832913 5.92222,-0.72622 11.67508,-2.002183 17.6981,-2.218008 4.64604,-0.166483 15.08945,1.542057 18.33704,1.72986"
       style="color:#000000;fill:none;stroke:#80ff00;stroke-width:4;stroke-linecap:round;stroke-linejoin:round;stroke-miterlimit:4;stroke-opacity:1;stroke-dasharray:none;stroke-dashoffset:0;marker:none;visibility:visible;display:inline;overflow:visible;enable-background:accumulate" />
    <path
       style="color:#000000;fill:none;stroke:#80ff00;stroke-width:3.99999976;stroke-linecap:round;stroke-linejoin:round;stroke-miterlimit:4;stroke-opacity:1;stroke-dasharray:none;stroke-dashoffset:0;marker:none;visibility:visible;display:inline;overflow:visible;enable-background:accumulate"
       d="m 426.05928,198.46914 c 34.75432,1.08218 43.62271,-12.36199 65.07801,-44.60703 11.04871,-16.60503 30.1764,-41.913 53.76087,-42.67649 28.87209,6.71595 35.89735,3.22256 61.77581,3.27906 22.10559,5.47639 24.97354,9.23699 61.61907,26.14376 24.40935,20.25556 36.42323,45.52589 59.2388,59.87254"
       id="path4125-8"
       sodipodi:nodetypes="cscccs" />
    <path
       style="color:#000000;fill:none;stroke:#80ff00;stroke-width:3.99999952;stroke-linecap:round;stroke-linejoin:round;stroke-miterlimit:4;stroke-opacity:1;stroke-dasharray:none;stroke-dashoffset:0;marker:none;visibility:visible;display:inline;overflow:visible;enable-background:accumulate"
       d="m 389.52642,76.652344 c 0.006,-0.01157 40.08003,1.212187 56.47456,12.431106 8.28499,2.63117 41.59391,18.79611 59.2931,22.98249 22.04809,4.01994 25.47028,9.2094 39.46768,14.06373 16.25168,5.63613 18.33938,0.80386 32.89613,-0.26663 11.42441,-0.84014 24.94586,0.43433 45.81888,6.86171 17.81736,0.035 39.70203,12.01753 56.09158,23.02401"
       id="path4125-8-8"
       sodipodi:nodetypes="cccsscs" />
    <path
       style="color:#000000;fill:none;stroke:#80ff00;stroke-width:3.99999976;stroke-linecap:round;stroke-linejoin:round;stroke-miterlimit:4;stroke-opacity:1;stroke-dasharray:none;stroke-dashoffset:0;marker:none;visibility:visible;display:inline;overflow:visible;enable-background:accumulate"
       d="m 234.61302,50.579158 c -1.60675,-2.156012 -9.84638,3.258073 -14.24731,4.33207 -3.57657,0.872922 -7.3593,1.173187 -10.75427,2.426921 -3.76556,1.390737 -7.30377,3.335175 -11.13639,4.552483 -5.7532,1.827498 -11.75777,3.069877 -17.67842,4.477711 -2.89458,0.688204 -5.91334,0.08486 -8.36695,1.645152 -3.04684,1.939131 -9.70496,1.946367 -9.7427,4.545257 -0.0351,2.415955 6.14508,3.358932 8.48993,5.95677 7.53657,8.349408 12.6977,7.651398 19.44692,10.132048 4.76433,1.75099 9.43252,1.61886 13.98024,3.77605 4.98715,2.36582 9.11075,6.18933 14.07243,8.62075 3.12202,1.53003 6.47757,1.95661 9.61872,3.25647 4.69466,1.94265 2.26627,-3.74102 2.12245,-5.89444 -0.26617,-3.98563 0.21688,-7.91109 0.16847,-11.88062 -0.0418,-3.43074 1.47193,-6.641592 1.13909,-10.194135 -0.35988,-3.840643 -0.78236,-7.808531 -0.23295,-11.555954 0.526,-3.587784 1.29639,-7.185386 2.2887,-10.698791 0.4876,-1.726238 1.64313,-2.409344 0.83204,-3.497742 z"
       id="path2870"
       sodipodi:nodetypes="csssssssssssssssss" />
    <path
       sodipodi:nodetypes="ccccccccccc"
       id="path3641"
       d="m -19.113372,284.69163 c 14.8708048,0.57461 31.648336,-5.18108 47.968871,-1.99685 18.270505,0.93553 31.470044,5.00831 49.134833,5.98065 13.287542,3.71385 27.709558,0.50653 41.536568,1.20457 21.55483,-1.48445 43.81048,-1.40817 64.35747,-7.40556 20.2014,-4.35498 41.40366,-2.03571 62.07465,-3.29014 34.06759,5.29391 48.06365,-0.62019 72.85468,-1.51368 18.90966,4.83796 38.05895,-2.6235 57.63586,-2.1977 16.65343,-0.006 33.28461,3.46582 49.44491,4.974 17.29166,2.70674 34.92034,-4.97999 52.78406,-6.09776 12.40804,-0.79504 24.63369,-0.003 36.80959,2.25878"
       style="color:#000000;fill:none;stroke:#008000;stroke-width:4;stroke-linecap:butt;stroke-linejoin:miter;stroke-miterlimit:4;stroke-opacity:1;stroke-dasharray:none;stroke-dashoffset:0;marker:none;visibility:visible;display:inline;overflow:visible;enable-background:accumulate" />
    <path
       style="fill:none;stroke:#0000ff;stroke-width:3.99999952;stroke-linecap:round;stroke-linejoin:round;stroke-miterlimit:4;stroke-opacity:1;stroke-dasharray:none"
       d="m 43.807359,23.873266 c -5.658951,1.919219 -9.513446,6.238614 -11.561377,9.49992 -3.346848,4.692075 -4.611494,6.04831 -5.404907,12.13869 -0.128361,5.030999 -2.888266,9.043412 -1.875233,14.517353 -0.666815,8.048848 5.963979,12.774394 11.616184,17.428426 4.660729,2.656543 8.988327,6.819502 14.60742,6.258358 3.96771,-0.397635 8.4691,0.52684 12.013479,-0.919653 4.171738,-4.927729 13.014144,-6.979097 15.46766,-11.314414 2.783446,-4.435835 5.146451,-13.394625 5.701271,-18.026159 -0.146637,-7.028673 -7.21494,-14.047035 -9.338253,-18.340501 -2.742699,-2.476114 -9.640936,-9.998092 -11.919144,-11.230228 -5.863239,-2.321222 -12.581002,0.222755 -19.3071,-0.01179 z"
       id="path2905"
       sodipodi:nodetypes="cccccscccccc" />
    <path
       style="fill:none;stroke:#0000ff;stroke-width:3.99999976;stroke-linecap:round;stroke-linejoin:round;stroke-miterlimit:4;stroke-opacity:1;stroke-dasharray:none"
       d="m 53.853728,86.68035 c 1.068696,6.993258 -2.585895,15.51416 -1.113067,18.20572 -1.798477,10.55789 -2.174959,21.62072 -4.071202,32.13315 -2.035432,8.95458 -1.522892,18.33395 -2.285163,26.96532 0.08902,4.28443 0.178026,8.56857 0.267037,12.85272"
       id="path2907" />
    <path
       id="path2909"
       style="fill:none;stroke:#0000ff;stroke-width:3.99999976;stroke-linecap:round;stroke-linejoin:round;stroke-miterlimit:4;stroke-opacity:1;stroke-dasharray:none"
       d="m 6.0357314,273.76185 c -0.024835,7.2712 -0.8819603,4.25953 0.4971739,1.63742 1.5298461,-7.71945 4.3046217,-12.67208 6.5232797,-19.75422 2.013899,-10.07167 8.573442,-17.13653 9.698682,-27.62427 5.144056,-8.08697 7.807502,-18.67247 12.46533,-27.35535 2.826257,-8.5773 7.560142,-15.55314 11.8211,-22.79125 3.498834,10.28193 7.554142,22.40525 10.608092,30.53098 2.656124,11.67278 8.321482,19.16079 11.281064,30.37612 3.986273,7.18391 6.620774,15.01858 9.658452,23.91048 2.420968,4.94228 2.17703,17.24876 3.980213,18.64881 0.383711,0.56877 1.435494,6.96392 0.164391,3.79489"
       sodipodi:nodetypes="ccccccccccc" />
    <path
       style="fill:none;stroke:#0000ff;stroke-width:3.99999976;stroke-linecap:round;stroke-linejoin:round;stroke-miterlimit:4;stroke-opacity:1;stroke-dasharray:none"
       d="M 81.481284,185.18479 C 76.133303,171.20469 70.818097,156.89994 65.691106,142.92025 60.893773,133.51182 61.223745,115.07965 58.543991,104.19272 56.63463,100.6371 56.436576,81.652836 51.660692,90.875847 45.852366,103.00668 44.160734,112.5405 41.613315,120.34998 c -4.20805,12.92701 -5.950666,28.43579 -11.723877,38.01033 -3.098289,5.73098 -5.559318,10.63195 -8.410409,17.11982 -1.218794,3.81296 -3.877645,4.79479 -4.45525,9.06908"
       id="path2911"
       sodipodi:nodetypes="cccccccc" />
    <path
       style="fill:none;stroke:#000000;stroke-width:1px;stroke-linecap:butt;stroke-linejoin:miter;stroke-opacity:1"
       d="m -2.3485489,86.094105 1.83508,193.084515"
       id="path3211" />
  </g>
</svg>
