<?xml version="1.0" encoding="UTF-8" standalone="no"?>
<!-- Created with Inkscape (http://www.inkscape.org/) -->

<svg
   xmlns:dc="http://purl.org/dc/elements/1.1/"
   xmlns:cc="http://creativecommons.org/ns#"
   xmlns:rdf="http://www.w3.org/1999/02/22-rdf-syntax-ns#"
   xmlns:svg="http://www.w3.org/2000/svg"
   xmlns="http://www.w3.org/2000/svg"
   xmlns:sodipodi="http://sodipodi.sourceforge.net/DTD/sodipodi-0.dtd"
   xmlns:inkscape="http://www.inkscape.org/namespaces/inkscape"
   inkscape:export-ydpi="90"
   inkscape:export-xdpi="90"
   sodipodi:docname="itnas054.svg"
   inkscape:version="0.47 r22583"
   version="1.1"
   id="svg2"
   height="320"
   width="480"
   inkscape:export-filename="itnas054.png">
  <defs
     id="defs4" />
  <sodipodi:namedview
     id="base"
     pagecolor="#ffffff"
     bordercolor="#666666"
     borderopacity="1.0"
     inkscape:pageopacity="1"
     inkscape:pageshadow="2"
     inkscape:zoom="1"
     inkscape:cx="156.43461"
     inkscape:cy="161.21756"
     inkscape:document-units="px"
     inkscape:current-layer="layer1"
     showgrid="false"
     inkscape:snap-nodes="true"
     inkscape:snap-global="false"
     inkscape:snap-grids="true"
     showguides="true"
     inkscape:window-width="1280"
     inkscape:window-height="774"
     inkscape:window-x="-4"
     inkscape:window-y="-4"
     inkscape:window-maximized="1">
    <inkscape:grid
       empspacing="5"
       visible="true"
       enabled="true"
       snapvisiblegridlinesonly="true"
       type="xygrid"
       id="grid2816" />
  </sodipodi:namedview>
  <metadata
     id="metadata7">
    <rdf:RDF>
      <cc:Work
         rdf:about="">
        <dc:format>image/svg+xml</dc:format>
        <dc:type
           rdf:resource="http://purl.org/dc/dcmitype/StillImage" />
        <dc:title></dc:title>
      </cc:Work>
    </rdf:RDF>
  </metadata>
  <g
     inkscape:label="Layer 1"
     inkscape:groupmode="layer"
     id="layer1"
     transform="translate(0,0)">
    <path
       style="fill:none;stroke:#808000;stroke-width:3.99999976;stroke-linecap:round;stroke-linejoin:round;stroke-miterlimit:4;stroke-opacity:1;stroke-dasharray:none"
       d="m 240.88361,10.654377 c -5.87035,9.158707 -9.47338,14.678338 -15.61402,23.737969 -10.30391,15.201963 -24.84279,26.792694 -37.6046,39.851674 -8.66219,8.863892 -18.20236,17.11106 -23.6305,28.81965 -5.8485,12.61525 -17.85445,19.31083 -26.36769,30.63226 -3.92136,12.45106 -22.20643,22.9854 -32.71669,36.41483 -5.6191,5.13153 -4.43528,3.45381 -0.63726,5.98565 5.77746,3.85138 14.8848,11.38413 19.99663,16.53391 9.85351,9.9266 21.00019,21.59681 32.41942,30.38359 15.95909,12.28008 31.26761,25.5839 46.73612,38.57232 11.08799,9.31023 23.59901,21.33299 33.2033,31.37911 4.27539,4.47207 8.99237,7.8925 12.29711,11.41579 3.81778,4.07028 1.4107,3.65282 8.79954,-4.91784 9.58935,-11.12315 23.09511,-27.37201 35.2596,-36.51866 12.70441,-9.55265 21.3199,-21.62243 33.81873,-31.76447 13.43211,-10.89933 21.76262,-33.23634 37.1427,-41.73688 7.84129,-4.33388 22.75971,-21.33035 28.58181,-26.56257 2.99963,-2.69572 4.66186,-1.80967 -0.6153,-10.35248 -6.16865,-9.98596 -11.6209,-12.18727 -18.92443,-21.95951 -9.28961,-12.42965 -14.869,-18.9756 -28.15612,-27.37317 -13.41283,-8.477 -19.9353,-16.950672 -32.08658,-26.716657 -11.73624,-9.432431 -19.85239,-20.038369 -33.12385,-25.702069 -11.4509,-4.886788 -17.48522,-13.38531 -23.96858,-20.978478 -4.57143,-5.35395 -10.83999,-12.935015 -15.82579,-17.626702"
       id="path2835"
       sodipodi:nodetypes="csssccssssssssssssssssss" />
    <path
       style="fill:none;stroke:#0000ff;stroke-width:3.99999976;stroke-linecap:round;stroke-linejoin:round;stroke-miterlimit:4;stroke-opacity:1;stroke-dasharray:none"
       d="m 71.65792,143.13251 c 0.9247,0.79943 0.72018,1.26417 1.40061,2.40355 0.46237,0.77426 0.23033,1.90272 0.37743,2.9728 0.21173,1.54039 0.43747,2.7436 -0.55843,3.75553 -0.74645,0.75848 -1.91018,1.53841 -3.00235,1.62974 -0.77122,0.0645 -2.05068,0.30607 -2.70122,-0.0631 -1.02533,-0.58186 -1.98661,-0.16887 -3.06353,-1.37529 -0.56234,-0.62998 -0.82287,-1.92077 -1.00727,-2.80741 -0.27744,-1.33368 -0.54352,-2.37208 -0.3828,-3.59324 0.0931,-0.70737 0.90454,-1.85907 1.39472,-2.23095 0.3525,-0.26743 1.26862,-0.67325 1.68579,-0.95368 1.02803,-0.69104 2.3085,-1.08453 3.60502,-0.67349 1.47493,0.4676 1.18768,0.0154 2.25203,0.93552 z"
       id="path2905"
       sodipodi:nodetypes="cssssssssssss" />
    <path
       style="fill:none;stroke:#0000ff;stroke-width:4;stroke-linecap:round;stroke-linejoin:round;stroke-miterlimit:4;stroke-opacity:1;stroke-dasharray:none"
       d="m 65.07685,154.20168 c -0.35484,1.21881 0.44737,2.80987 0.0464,3.25629 0.31407,1.91301 0.26759,3.88532 0.60658,5.79235 0.39343,1.63346 0.14678,3.28782 0.22705,4.83667 -0.0765,0.75878 -0.15297,1.51755 -0.22945,2.27632"
       id="path2907" />
    <path
       id="path2909"
       style="fill:none;stroke:#0000ff;stroke-width:4;stroke-linecap:round;stroke-linejoin:round;stroke-miterlimit:4;stroke-opacity:1;stroke-dasharray:none"
       d="m 66.3837,170.79211 c 0.61966,0.89506 1.90034,2.92841 2.84224,4.28236 0.92274,1.99081 2.49944,3.16304 3.48733,5.06503 1.15248,1.16298 1.98353,2.47663 2.9386,3.9663 0.71299,0.80861 0.92904,2.98814 1.40878,3.1876 0.10814,0.0903 0.51338,1.1917 0.12618,0.66574 m -11.2844,-17.99486 c -0.89654,1.3909 -1.91651,2.74804 -2.42621,4.33748 -0.96272,1.65652 -1.38684,3.59623 -2.48379,5.16046 -0.0439,1.88171 -1.51579,3.30293 -1.78997,5.13468 -0.39232,1.30932 -0.97074,2.25733 -1.1775,3.66091 -0.2839,0.49955 -0.003,1.00861 -0.16043,-0.27595" />
    <path
       style="color:#000000;fill:none;stroke:#c87137;stroke-width:4;stroke-linecap:round;stroke-linejoin:round;stroke-miterlimit:4;stroke-opacity:1;stroke-dasharray:none;stroke-dashoffset:0;marker:none;visibility:visible;display:inline;overflow:visible;enable-background:accumulate"
       d="m 392.8246,108.70521 c -5.26738,1.52258 -5.00868,1.69005 -10.07047,2.05206 -5.34093,0.38198 -9.56533,2.27186 -10.93683,2.55164"
       id="path2859"
       sodipodi:nodetypes="csc" />
    <path
       style="color:#000000;fill:none;stroke:#ffff00;stroke-width:4;stroke-linecap:butt;stroke-linejoin:miter;stroke-miterlimit:4;stroke-opacity:1;stroke-dasharray:none;stroke-dashoffset:0;marker:none;visibility:visible;display:inline;overflow:visible;enable-background:accumulate"
       d="m 47.27772,138.68597 c -0.82286,-0.11579 -1.88861,-0.0692 -2.45772,0.38768 -2.04235,1.63959 -2.91279,4.81386 -1.19162,6.64598 1.04863,1.11622 3.82125,1.6215 5.36229,0.88613 2.39321,-1.14201 2.86409,-4.24577 1.78744,-6.20291 -0.52923,-0.96202 -2.12702,-1.52361 -3.50039,-1.71688 z"
       id="path2839"
       sodipodi:nodetypes="csssss" />
    <path
       style="color:#000000;fill:none;stroke:#0000ff;stroke-width:4;stroke-linecap:round;stroke-linejoin:round;stroke-miterlimit:4;stroke-opacity:1;stroke-dasharray:none;stroke-dashoffset:0;marker:none;visibility:visible;display:inline;overflow:visible;enable-background:accumulate"
       d="m 74.6833,169.45814 c -0.95473,-1.58034 -1.87148,-3.23161 -3.19123,-4.45772 -1.68033,-1.5611 -2.63153,-3.83125 -4.0027,-5.69988 -0.59677,-0.81327 -0.87466,-1.83062 -1.22918,-2.7999 -0.26789,-0.73245 -1.08528,-1.62668 -1.51076,-1.96527 -0.48953,-0.38956 -2.68314,-2.04524 -3.59036,-3.11018 -1.02278,-1.2006 -2.2227,-2.39221 -3.21262,-3.31563 -0.82171,-0.76652 -2.92764,-0.82293 -4.93193,-1.27989 -1.71429,-0.39085 -2.78295,-1.7264 -4.092,-2.43283"
       id="path2831"
       sodipodi:nodetypes="cssssssss" />
    <path
       style="fill:none;stroke:#80ff00;stroke-width:3.99999976;stroke-linecap:round;stroke-linejoin:round;stroke-miterlimit:4;stroke-opacity:1;stroke-dasharray:none"
       d="m 377.70628,96.96327 c -0.79624,0.49348 0.97964,0.96064 0.0147,1.5045 -0.52863,1.36659 0.0972,2.77265 -0.46763,4.1393 -0.16308,0.96003 0.20822,1.90259 0.0171,2.86328 -0.16318,1.01069 0.0432,1.98273 0.21454,2.96012 0.1056,0.85748 -0.0201,1.72186 0.005,2.58013 -0.41534,0.68264 -0.27723,1.29744 -0.64229,2.0019 -0.4365,0.85126 0.0173,1.80852 -0.63447,2.63275 -0.43414,-0.007 -0.89142,-0.82623 -1.33504,-1.15303 -1.06845,-1.0726 -2.13774,-2.1448 -3.2044,-3.21842 -0.39951,-0.78314 -1.25038,-1.40982 -1.27879,-2.30481 -0.22561,-0.68246 -0.78993,-1.236 -1.1613,-1.85891 -0.50526,-0.64922 -1.00262,-1.42858 -1.44114,-2.14663 -0.54808,-0.6997 -0.96801,-1.46065 -1.69873,-2.07086 -0.57122,-0.47912 -1.27648,-1.09023 -0.13957,-1.53743 0.73299,-0.48229 1.77404,-0.39548 2.50955,-0.88385 0.97034,-0.3365 1.78339,-0.89792 2.93894,-0.95018 0.9545,-0.44606 2.10272,-0.71942 2.93302,-1.31337 0.9234,-0.23987 1.77801,-0.69316 2.61232,-1.04638 0.19153,-0.11363 0.52016,-0.39237 0.75778,-0.19759 z"
       id="path2942-1" />
    <path
       style="fill:none;stroke:#80ff00;stroke-width:3.99999976;stroke-linecap:round;stroke-linejoin:round;stroke-miterlimit:4;stroke-opacity:1;stroke-dasharray:none"
       d="m 369.93877,98.20784 c -0.1467,-1.83911 -3.35191,-3.17082 -5.58595,-5.22036 -4.56945,-4.192093 -7.4456,-10.110824 -12.55158,-11.613821 0,0 -6.04183,-6.302998 -9.65505,-7.988058 -2.92102,-1.362243 -6.31569,-6.025361 -9.09521,-7.392981"
       id="path2952-1"
       sodipodi:nodetypes="cssss" />
    <path
       style="fill:none;stroke:#80ff00;stroke-width:3.99999976;stroke-linecap:round;stroke-linejoin:round;stroke-miterlimit:4;stroke-opacity:1;stroke-dasharray:none"
       d="m 345.8728,101.38445 c 1.48263,-1.5497 2.84968,-3.25999 5.00575,-4.06421 2.46127,-1.24179 4.83799,-2.65866 7.53793,-3.59366 1.53985,-0.85609 4.89001,-3.53513 3.75366,-0.30938 0.0685,2.81161 -0.19817,5.45353 -1.06702,7.91464 -0.66322,2.66153 -1.20218,5.74062 -2.29563,7.93557 -0.71902,0.34482 -0.22806,1.30684 -0.84655,1.73283"
       id="path2956-7" />
    <path
       style="fill:none;stroke:#80ff00;stroke-width:3.99999976;stroke-linecap:round;stroke-linejoin:round;stroke-miterlimit:4;stroke-opacity:1;stroke-dasharray:none"
       d="m 316.4209,77.543357 c 0.32329,-0.224171 2.53088,-2.01251 3.39161,-2.609266 2.73028,-1.847387 4.85265,-1.221813 8.7134,-2.87737 2.01376,-1.253411 6.73712,-2.730154 7.92777,-3.211821 -0.97938,2.491052 -2.07131,4.945051 -3.02183,7.443594 -1.69844,3.681067 -2.76454,6.770789 -2.02902,11.034602 0.17529,0.538062 0.86394,1.504552 -0.12783,1.708365"
       id="path2958-4"
       sodipodi:nodetypes="ccccccc" />
    <path
       style="color:#000000;fill:none;stroke:#80ff00;stroke-width:4;stroke-linecap:round;stroke-linejoin:round;stroke-miterlimit:4;stroke-opacity:1;stroke-dasharray:none;stroke-dashoffset:0;marker:none;visibility:visible;display:inline;overflow:visible;enable-background:accumulate"
       d="m 266.7998,25.169613 c 4.12513,7.208072 13.67629,8.855366 22.92587,11.619782 4.8786,1.458067 8.16167,-1.132996 13.00794,2.79174 6.34946,5.142096 14.49873,6.485972 19.08854,12.280573 3.5262,4.451801 3.03777,4.518832 4.73968,8.882646 0.13879,0.355804 3.80494,3.90292 7.00316,5.197875"
       id="path4125-1"
       sodipodi:nodetypes="csssss" />
    <path
       style="color:#000000;fill:none;stroke:#808000;stroke-width:3.99999976;stroke-linecap:round;stroke-linejoin:round;stroke-miterlimit:4;stroke-opacity:1;stroke-dasharray:none;stroke-dashoffset:0;marker:none;visibility:visible;display:inline;overflow:visible;enable-background:accumulate"
       d="m 249.33662,159.0327 c -0.62012,0.22987 -1.47549,-0.16146 -2.12132,0 -0.25566,0.0639 -0.47141,0.2357 -0.70711,0.35356 -1.35528,0.67763 -0.22545,0.06 -2.12132,1.41421 -0.34577,0.24698 -0.73423,0.43508 -1.06066,0.70711 -0.71392,0.59493 -2.04709,1.97284 -2.47488,2.82842 -0.51211,1.02423 -0.35355,2.08226 -0.35355,3.18198 0,0.58926 0,1.17851 0,1.76777 0,0.2357 0,0.4714 0,0.70711 0,0.11785 -0.0654,0.25549 0,0.35355 0.069,0.10344 1.17254,1.2531 1.41421,1.41421 0.21927,0.14618 0.47141,0.23571 0.70711,0.35356 0.2357,0.11785 0.45711,0.27022 0.70711,0.35355 0.22907,0.0764 1.47831,0 1.76777,0 0.14452,0 2.31958,0.0621 2.47487,0 2.1719,-0.86876 0.31745,-0.31745 1.41421,-1.41421 0.18634,-0.18634 0.52077,-0.16722 0.70711,-0.35356 0.18634,-0.18634 0.20738,-0.48784 0.35355,-0.7071 1.01646,-1.52469 -0.59219,1.83403 0.70711,-1.41422 0.0979,-0.24467 0.20738,-0.48784 0.35355,-0.7071 0.53936,-0.80904 0.27987,0.22107 0.70711,-1.06066 0.0373,-0.11181 0,-0.23571 0,-0.35356 0,-0.47058 0,-1.25747 0,-1.76776 0,-0.94281 0,-1.88562 0,-2.82843 0,-0.15923 0.0538,-0.95306 0,-1.06066 -0.30732,-0.61464 -0.70711,-1.17851 -2.47487,-1.76777 z"
       id="path3625" />
  </g>
</svg>
