<?xml version="1.0" encoding="UTF-8" standalone="no"?>
<!-- Created with Inkscape (http://www.inkscape.org/) -->

<svg
   xmlns:dc="http://purl.org/dc/elements/1.1/"
   xmlns:cc="http://creativecommons.org/ns#"
   xmlns:rdf="http://www.w3.org/1999/02/22-rdf-syntax-ns#"
   xmlns:svg="http://www.w3.org/2000/svg"
   xmlns="http://www.w3.org/2000/svg"
   xmlns:sodipodi="http://sodipodi.sourceforge.net/DTD/sodipodi-0.dtd"
   xmlns:inkscape="http://www.inkscape.org/namespaces/inkscape"
   inkscape:export-filename="itnas176.png"
   inkscape:export-ydpi="90"
   inkscape:export-xdpi="90"
   sodipodi:docname="itnas176.svg"
   inkscape:version="0.47 r22583"
   version="1.1"
   id="svg2"
   height="320"
   width="480">
  <defs
     id="defs4" />
  <sodipodi:namedview
     id="base"
     pagecolor="#ffffff"
     bordercolor="#666666"
     borderopacity="1.0"
     inkscape:pageopacity="1"
     inkscape:pageshadow="2"
     inkscape:zoom="2"
     inkscape:cx="244.65037"
     inkscape:cy="166.32682"
     inkscape:document-units="px"
     inkscape:current-layer="layer1"
     showgrid="false"
     inkscape:snap-nodes="true"
     inkscape:snap-global="false"
     inkscape:snap-grids="true"
     showguides="true"
     inkscape:window-width="1280"
     inkscape:window-height="998"
     inkscape:window-x="-4"
     inkscape:window-y="-4"
     inkscape:window-maximized="1"
     inkscape:object-nodes="true">
    <inkscape:grid
       empspacing="5"
       visible="true"
       enabled="true"
       snapvisiblegridlinesonly="true"
       type="xygrid"
       id="grid2816" />
  </sodipodi:namedview>
  <metadata
     id="metadata7">
    <rdf:RDF>
      <cc:Work
         rdf:about="">
        <dc:format>image/svg+xml</dc:format>
        <dc:type
           rdf:resource="http://purl.org/dc/dcmitype/StillImage" />
        <dc:title />
      </cc:Work>
    </rdf:RDF>
  </metadata>
  <g
     inkscape:label="Layer 1"
     inkscape:groupmode="layer"
     id="layer1"
     transform="translate(0,0)">
    <path
       style="color:#000000;fill:none;stroke:#008000;stroke-width:4;stroke-linecap:butt;stroke-linejoin:miter;stroke-miterlimit:4;stroke-opacity:1;stroke-dasharray:none;stroke-dashoffset:0;marker:none;visibility:visible;display:inline;overflow:visible;enable-background:accumulate"
       d="m -102.44326,263.37369 c 9.465331,0.33197 19.293721,1.65239 33.324423,0.89616 10.961691,2.00488 23.641571,3.14011 36.004876,1.97828 3.178795,-0.32319 15.719078,1.61115 18.87966,1.89933 19.929888,-0.0799 29.33378,4.74382 48.747691,7.05403 12.070607,0.94885 23.83913,3.91612 35.75969,5.86509 19.74238,3.24596 39.80533,1.66159 59.70554,2.0176 16.90844,-0.0578 33.74455,2.16436 50.29203,5.51774 15.96429,3.49756 32.44203,3.77167 48.68812,2.63975 7.89786,-0.61773 15.80038,-1.24665 23.72749,-1.30935 19.11001,-0.27831 38.2137,0.89705 57.32204,0.4375 22.85019,-1.00998 45.64473,-3.27873 68.53101,-3.44943 18.9332,-0.67644 37.67267,2.90167 56.06981,6.98437 11.68253,3.25376 24.06604,3.01283 35.62067,6.81212 0.32446,0.20535 4.46519,1.87418 6.35156,2 19.57612,1.30568 29.00549,-0.55743 43.14213,-1.10166"
       id="path2852"
       sodipodi:nodetypes="ccccccccccccccsc" />
    <path
       id="path2833"
       style="color:#000000;fill:none;stroke:#808080;stroke-width:4;stroke-linecap:round;stroke-linejoin:round;stroke-miterlimit:4;stroke-opacity:1;stroke-dasharray:none;stroke-dashoffset:0;marker:none;visibility:visible;display:inline;overflow:visible;enable-background:accumulate"
       d="m 230.56636,99.76882 c 12.54815,-0.530986 16.68853,-5.769325 50.25301,-8.535631 10.77671,-1.788669 26.35144,-3.42308 33.37381,-6.793414 5.83766,-1.026781 11.99827,-2.247426 18.57341,-3.49212 20.06545,-3.798451 39.01383,-4.668934 59.39697,-7.020815 5.37624,-0.620331 2.16113,20.162327 2.04173,37.11673 -0.0942,13.37583 -1.8854,30.97602 -0.62751,38.5437 -0.86843,12.86944 -0.99893,22.36627 -0.93923,28.40361 0.14479,14.65165 3.64949,29.32287 -0.47499,28.87203 -17.08044,-1.86703 -42.81765,-2.26099 -55.86143,-2.12132 -26.88249,0.28786 -40.00115,1.35172 -55.86144,1.41422 -19.07225,-0.96116 -41.65622,-0.51266 -50.20458,-0.70711 -1.10197,2.45134 -2.79176,5.61383 -2.82842,7.68978 m -71.92834,69.2913 0.22741,-0.40606 c 3.18833,-2.53705 6.02884,-5.46313 9.48992,-7.59682 3.44321,-2.48366 5.90419,-6.20642 9.54543,-8.54561 4.74269,-3.00802 8.06223,-7.55452 12.14234,-11.28781 3.54668,-1.98751 5.53801,-5.73849 9.033,-7.75077 3.40391,-1.82477 6.43427,-4.20636 9.21933,-6.85754 2.37082,-2.19008 4.46819,-4.48427 6.79969,-6.72584 3.28691,-2.66283 4.92586,-6.60032 7.65189,-9.71588 3.18379,-2.93465 8.0104,-10.00173 8.0104,-10.00173 0,0 16.14613,0 16.14613,0 21.80155,-1.27986 42.66983,7.62884 61.2316,5.69053 35.44981,1.03896 38.18789,-1.7647 63.47135,-0.92003 21.92524,-1.30097 31.21586,2.75224 53.74367,4.33376 15.70055,2.94191 30.62685,4.13636 45.0745,2.73731 10.44109,0.86384 17.62743,2.10968 36.94633,4.94975 6.2354,-4.4724 -3.08547,-36.48746 -0.75472,-65.66058 0.36841,-4.61127 -3.30022,-47.17958 -0.7926,-68.956408 1.14098,-9.908568 2.21075,-33.93803 -0.574,-49.93788 -23.23716,4.01579 -43.17095,5.992555 -52.20525,7.80472 -18.60397,3.73172 -44.33057,8.833219 -67.2958,9.87295 -21.55667,0.97596 -40.49063,7.252626 -60.84569,11.07533 -23.83185,4.077789 -46.01957,3.478477 -57.99061,5.22199 -24.00532,3.496236 -64.9985,7.64998 -82.16924,9.62229 -30.30723,3.481228 -35.71428,4.43379 -51.90558,7.7631 -15.01055,3.086518 -14.61038,5.104988 -34.7751,7.013408 -8.11419,0.76794 -36.73028,11.22342 -51.755822,13.93292 -13.253632,2.38997 -26.563557,4.85606 -39.55159,8.03149 -11.412137,2.79015 -23.18089,3.8356 -34.31571,8.01881 -17.62031,-0.33287 -30.34256,9.64802 -48.90538,14.41505 -23.936728,8.06401 -45.036288,22.19367 -68.179788,23.61982 -31.02274,7.59874 -55.13147,8.02551 -90.99666,13.63662 -6.68274,1.04551 -25.26087,3.54729 -24.40158,7.52532 1.82469,8.44731 34.74701,0.74228 51.93902,3.47362 29.82126,-0.30237 59.66704,0.068 89.47595,-0.73566 20.56183,2.53426 41.126498,6.03695 61.800258,7.37424 13.17374,-1.91538 26.01279,1.09129 39.03681,2.4476 21.43871,1.80412 42.85852,2.93763 64.36256,3.46963 17.930972,-0.98217 35.780472,1.85534 53.740122,0.7071 5.66605,-0.005 11.30473,0.70782 16.97056,0.70711 6.56554,0.1583 9.48519,-0.18428 12.38806,0.1111 1.40054,0.20896 2.80084,0.48704 4.22503,0.44394 1.01209,-0.002 2.02315,-0.0597 3.03526,-0.06 2.24955,0.26487 3.06824,-9.3801 1.71295,-9.3575 -7.54247,0.72974 -15.08106,0.54891 -22.62741,0 -15.07697,-1.09667 -29.11212,0.59296 -46.66905,0 -11.924596,-0.40274 -26.515912,-1.60019 -35.355342,-2.82843 -1.509679,-0.20977 -2.178571,-12.58568 -0.730897,-30.18033 1.481894,-18.01057 -1.882922,-34.83828 1.438004,-35.5806 15.636704,-3.49526 26.208613,-7.59221 38.183765,-9.8995 19.95358,-3.84452 36.2728,-10.44323 57.06854,-13.67766 19.41012,-3.01892 36.86819,-6.40767 61.7254,-9.863966 13.90543,-1.933494 26.71449,-3.754126 39.29955,-5.363864"
       sodipodi:nodetypes="ccccssccccccccsssssssssssssscsscsscccccccccccsscccsssssssssccccccs" />
    <path
       style="fill:none;stroke:#0000ff;stroke-width:4;stroke-linecap:butt;stroke-linejoin:miter;stroke-miterlimit:4;stroke-opacity:1;stroke-dasharray:none"
       d="m 93.80081,242.32843 c -1.98926,0.27241 -4.05052,0.49747 -5.83427,1.49526 -1.69373,0.94516 -3.17574,2.23277 -4.48113,3.66058 -1.54477,1.71508 -2.82494,3.66401 -3.8096,5.75041 -0.54046,1.18021 -0.82204,2.45579 -1.1238,3.71157 -0.25266,1.28363 -0.12395,2.59861 -0.20257,3.89719 -0.0387,1.59856 -0.10356,3.24691 0.47324,4.76934 0.27893,1.05941 0.85496,1.99977 1.35313,2.96565 0.97586,1.311 1.9301,2.6502 3.13779,3.76279 1.63849,1.4824 3.28898,3.02331 5.32148,3.95122 1.32845,0.64353 2.71064,1.18738 4.1235,1.61476 1.62831,0.45252 3.32044,0.69876 5.01098,0.70248 1.66311,-0.0792 3.30017,-0.47433 4.87461,-1.00062 1.49964,-0.5417 3.00626,-1.13381 4.31087,-2.06627 1.34526,-0.85232 2.69299,-1.73688 3.78753,-2.90612 1.0506,-1.00529 1.80863,-2.27517 2.36298,-3.61109 0.38888,-0.97445 0.74201,-1.97252 0.98933,-2.99242 0.35816,-1.71285 0.55334,-3.45829 0.64343,-5.20473 -0.0902,-2.07906 -0.20733,-4.17404 -0.67068,-6.20826 -0.2817,-1.16456 -0.58373,-2.35082 -1.27456,-3.35086 -0.89047,-1.34775 -2.01279,-2.52666 -3.12562,-3.69091 -1.10745,-1.1097 -2.38971,-2.02785 -3.73916,-2.81757 -1.20388,-0.80969 -2.53066,-1.45334 -3.94642,-1.78746 -1.69528,-0.44646 -3.4624,-0.47885 -5.20267,-0.59597 -0.99295,-0.022 -1.98552,-0.11689 -2.97839,-0.049 z"
       id="path8177"
       sodipodi:nodetypes="cssssssssss" />
    <path
       style="fill:none;stroke:#c87137;stroke-width:4;stroke-linecap:round;stroke-linejoin:round;stroke-opacity:1;color:#000000;stroke-miterlimit:4;stroke-dasharray:none;stroke-dashoffset:0;marker:none;visibility:visible;display:inline;overflow:visible;enable-background:accumulate"
       d="m 411.75,245.5 c -14.51862,3.01982 -24.61813,1.42113 -33.73446,2.43618 -9.93577,1.1063 -20.0192,4.19195 -31.01554,9.06382 -14.0099,6.20701 -21.00291,8.62847 -30.5,18.25 -4.41021,4.46799 -6.75,11.25 -6.75,11.25"
       id="path8848"
       sodipodi:nodetypes="cssss" />
    <path
       style="color:#000000;fill:none;stroke:#94f3f3;stroke-width:4;stroke-linecap:round;stroke-linejoin:round;stroke-miterlimit:4;stroke-opacity:1;stroke-dasharray:none;stroke-dashoffset:0;marker:none;visibility:visible;display:inline;overflow:visible;enable-background:accumulate"
       d="m 417.58386,250.43223 c -2.47035,-3.28246 -5.98513,-8.52686 -3.86191,-12.42506 3.81422,-7.00284 6.54062,-5.57008 12.11869,-5.99079 5.9794,-0.45098 10.84484,-2.15978 17.18942,-2.07539 9.44611,0.12566 9.68451,1.6305 17.77967,1.2907 6.86911,-0.28834 21.62031,-1.40966 28.44822,1.63162 6.92678,3.0853 9.14305,7.67506 4.88819,12.43546 -4.85023,5.4265 -20.94362,4.87277 -26.42627,7.64913 -5.73823,2.90578 -15.6125,2.19144 -22.59084,1.46418 -5.39679,-0.56244 -11.15057,-2.7869 -16.97255,-2.13737 -3.32357,0.37079 -7.13511,2.7251 -10.57262,-1.84248 z"
       id="path8820"
       sodipodi:nodetypes="cssssssssss" />
    <path
       style="color:#000000;fill:none;stroke:#c87137;stroke-width:4;stroke-linecap:round;stroke-linejoin:round;stroke-miterlimit:4;stroke-opacity:1;stroke-dasharray:none;stroke-dashoffset:0;marker:none;visibility:visible;display:inline;overflow:visible;enable-background:accumulate"
       d="m 169.79197,180.92442 c -0.10705,17.01612 -2.31611,17.14212 -0.36419,17.29636 2.53197,0.20007 7.62375,0.17088 10.39414,-0.0457 4.54891,-0.35562 5.79148,0.5665 7.74769,0.2819 3.41036,-0.49615 16.77346,0.99812 16.70983,-0.86119 -0.13149,-3.84255 -1.17923,-14.18403 -1.22392,-16.54199 -0.10178,-5.37022 -1.741,-13.80789 -1.7975,-18.23125 -0.0231,-1.80845 -4.13995,-2.24752 -12.43697,-1.14064 -9.96355,1.3292 -16.95758,-1.69254 -16.95758,1.22274 l 0,1e-5 0,-1e-5 c 0,0 -2.03379,12.02495 -2.0715,18.01977 z"
       id="path2893"
       sodipodi:nodetypes="cssssssssccs" />
    <path
       style="color:#000000;fill:none;stroke:#00ffff;stroke-width:4;stroke-linecap:butt;stroke-linejoin:miter;stroke-miterlimit:4;stroke-opacity:1;stroke-dasharray:none;stroke-dashoffset:0;marker:none;visibility:visible;display:inline;overflow:visible;enable-background:accumulate"
       d="m 37.411994,142.63686 c -2.619966,0.36786 -1.793204,5.52336 -1.832297,7.68783 -0.171637,9.50156 -0.379606,15.50522 -0.474802,22.7252 -0.0701,5.317 0.634695,12.7282 -0.184202,17.88058 -0.528619,3.326 1.894627,3.89527 4.687059,3.97496 7.665589,0.21879 15.520409,0.58293 23.269126,1.2613 6.271115,0.54903 12.64199,-0.41862 18.854927,0.4201 1.927272,0.26016 5.564128,1.08107 5.202053,-1.94004 -0.880609,-7.34771 0.160013,-14.7259 -0.228269,-22.10493 -0.691612,-13.14364 0.735445,-12.4464 -0.03723,-23.83159 -0.164403,-2.42243 1.448813,-7.64257 -2.633114,-7.21858 -4.251162,0.44158 -8.555744,-0.14285 -12.807832,0.25034 -6.181076,0.57151 -11.815704,0.13298 -17.807439,0.37479 -5.232271,0.21116 -10.793344,-0.21211 -16.007978,0.52007 z"
       id="path3604"
       sodipodi:nodetypes="csssssssssssss" />
    <path
       id="path3618"
       style="color:#000000;fill:none;stroke:#ffff00;stroke-width:4;stroke-linecap:round;stroke-linejoin:round;stroke-miterlimit:4;stroke-opacity:1;stroke-dasharray:none;stroke-dashoffset:0;marker:none;visibility:visible;display:inline;overflow:visible;enable-background:accumulate"
       d="m 188.00946,247.12482 c -8.82459,9.15783 -8.56871,9.23823 -19.40185,18.57308 -0.85977,0.099 -0.72217,-9.65266 -3.96585,-8.84974 -3.16812,0.66906 2.13946,13.11805 -6.2597,17.25525 -3.5303,-2.26989 8.94914,-21.2578 -7.7209,-22.33708 -4.36985,1.1893 -18.01908,-1.61321 -22.93726,-0.11538 -2.36715,0.72091 -8.30732,-0.53671 -8.0749,3.06222 -0.25729,3.84214 10.40015,2.88181 15.98937,2.39293 5.74368,-0.50239 10.85449,1.17665 14.70681,-0.25387 4.26389,-1.58335 6.68751,5.30023 3.9253,5.85419 -12.53213,2.51332 -19.75161,-1.36349 -31.08542,0.39236 -5.16246,0.79977 -5.96271,3.15979 -3.71284,4.97664 2.97756,0.0325 6.04828,0.4147 7.8581,0.0635 8.66883,-1.68219 14.46889,1.63418 23.9324,0.209 5.20772,-0.78427 1.19472,5.44242 -2.7001,5.27532 -14.57754,-0.61468 -31.88228,-2.20686 -30.6277,1.8454 1.52011,4.9099 28.42859,2.52505 33.47542,3.43472"
       sodipodi:nodetypes="cccccscsssscsscsc" />
    <path
       style="color:#000000;fill:none;stroke:#ff0000;stroke-width:4;stroke-linecap:butt;stroke-linejoin:miter;stroke-miterlimit:4;stroke-opacity:1;stroke-dasharray:none;stroke-dashoffset:0;marker:none;visibility:visible;display:inline;overflow:visible;enable-background:accumulate"
       d="m 342.54673,198.25736 c 0.5242,1.87087 1.3803,3.22833 5.70692,0.82511 7.99593,-4.44726 4.00029,-1.07535 11.80019,-5.3741 5.92279,-3.26882 13.40535,-7.76203 15.32418,-7.28548 1.75437,0.43569 3.44003,3.98897 6.0411,9.36158 2.68549,5.54697 6.61218,7.88648 7.68864,5.04622 0.64511,-1.70216 0.0585,-3.81944 -2.97398,-8.86565 -6.23139,-10.36922 -2.37502,-6.79638 -8.41841,-16.47875 -2.69536,-4.31833 -4.03223,-8.11967 -6.69192,-14.37503 -0.62246,-1.46402 -5.80474,-0.63393 -4.90486,1.71791 1.49167,3.89856 6.1454,13.11913 5.64355,15.70978 -0.25496,1.31697 -3.39653,3.30081 -8.32423,5.89029 -4.57659,2.40497 -7.45547,3.83792 -11.34339,6.29035 -5.83933,3.68336 -10.13694,5.43499 -9.54779,7.53777 z"
       id="path3637"
       sodipodi:nodetypes="csssssssssssss" />
    <path
       style="color:#000000;fill:none;stroke:#ff00ae;stroke-width:4;stroke-linecap:butt;stroke-linejoin:round;stroke-miterlimit:4;stroke-opacity:1;stroke-dasharray:none;stroke-dashoffset:0;marker:none;visibility:visible;display:inline;overflow:visible;enable-background:accumulate"
       d="m 187.16529,238.14772 c -0.74579,-0.75694 -1.15774,-1.43383 -1.82934,-2.15526 -0.83919,-0.88685 -1.48586,-1.75684 -2.38501,-2.82597 -0.70937,-0.90068 -1.40307,-1.45188 -1.73675,-1.6796 -3.00878,1.17183 -9.791,4.68721 -11.68536,5.68664 -2.06461,1.08938 -8.76095,3.91533 -7.79273,4.96932 2.64422,2.8784 1.51145,3.26044 5.3101,7.88258 1.14705,1.39579 2.99225,7.85756 4.76813,6.82318 6.08096,-3.54194 11.90197,-11.75826 15.51604,-16.12261 0.22989,-0.27761 0.54827,-0.54043 0.77829,-0.85411 -0.31905,-0.6406 -0.557,-1.11596 -0.94341,-1.72418 z"
       id="path3782"
       inkscape:export-xdpi="90"
       inkscape:export-ydpi="90"
       sodipodi:nodetypes="ccccssssscc" />
    <path
       id="path2909-4"
       style="fill:none;stroke:#0000ff;stroke-width:3.99999976;stroke-linecap:round;stroke-linejoin:round;stroke-miterlimit:4;stroke-opacity:1;stroke-dasharray:none"
       d="m 161.74152,198.7527 c -1.98707,-5.40827 -3.77816,-10.66729 -5.15387,-15.14914 -1.61194,-1.87379 -2.71443,-4.05375 -3.88228,-6.38999 -1.31756,-2.37241 -2.20967,-3.59338 -4.01711,-4.80293 -2.5205,4.6408 -3.35187,5.4245 -5.63847,10.10047 -2.79582,4.83527 -3.26931,11.80699 -4.1914,14.95179 1.95698,-1.39102 4.17191,-1.60533 6.41136,-7.04127 1.72145,-3.0443 2.75307,-8.23164 4.09712,-9.18285 1.27698,3.94117 2.5238,4.72709 4.44495,9.11175 1.06232,3.36829 1.4861,4.90189 2.805,8.78659"
       sodipodi:nodetypes="cccccccccc" />
    <path
       style="color:#000000;fill:none;stroke:#c87137;stroke-width:4;stroke-linecap:round;stroke-linejoin:round;stroke-miterlimit:4;stroke-opacity:1;stroke-dasharray:none;stroke-dashoffset:0;marker:none;visibility:visible;display:inline;overflow:visible;enable-background:accumulate"
       d="m 186.07192,162.75736 c -0.16395,3.85882 -0.4205,8.16744 -0.4205,12.09105 0,1.50196 0.92089,3.41011 0.5455,4.83165 -0.25073,0.94949 0.22097,7.45576 0.22097,8.63784 0,3.90593 -0.096,5.07339 -0.096,8.99491"
       id="path2897"
       sodipodi:nodetypes="csssc" />
    <path
       style="fill:none;stroke:#0000ff;stroke-width:4;stroke-linecap:round;stroke-linejoin:round;stroke-miterlimit:4;stroke-opacity:1;stroke-dasharray:none"
       d="m 137.07175,158.44969 c -1.81518,-1.50205 -2.66924,-4.40497 -2.59437,-5.90852 -0.4652,-2.46834 -0.3565,-2.625 -0.385,-5.36736 1.08618,-1.64051 1.10132,-3.54417 2.65231,-5.07091 3.23708,-2.44951 5.42995,-3.32576 8.06805,-3.58701 2.08795,0.19293 4.14861,0.18186 5.82252,1.62029 1.18165,1.01615 2.83046,1.72828 3.64151,2.98562 0.68788,2.51314 1.77931,4.70907 1.35799,6.64754 -0.3665,1.77794 -0.2763,3.73704 -1.8822,5.10285 -1.35003,2.14449 -1.9078,3.75127 -5.12281,5.15523 -1.43324,0.17891 -2.02038,1.6733 -4.12319,1.62233 -2.7742,0.66525 -4.70446,-1.59451 -7.43481,-3.20006 z"
       id="path2905-4"
       sodipodi:nodetypes="cccccscccccc" />
    <path
       style="fill:none;stroke:#0000ff;stroke-width:4;stroke-linecap:round;stroke-linejoin:round;stroke-miterlimit:4;stroke-opacity:1;stroke-dasharray:none"
       d="m 142.76658,164.46125 c 0.4616,2.4965 -1.4538,5.5017 -0.7455,6.4704 -1.0087,3.7438 -3.96345,7.6778 -5.02055,11.4047 -1.1105,3.1715 -0.9517,6.513 -1.4224,9.5789 0,1.5253 -0.17677,5.70215 2.2981,5.28281"
       id="path2907"
       sodipodi:nodetypes="ccccc" />
    <path
       style="color:#000000;fill:none;stroke:#008000;stroke-width:4;stroke-linecap:butt;stroke-linejoin:miter;stroke-miterlimit:4;stroke-opacity:1;stroke-dasharray:none;stroke-dashoffset:0;marker:none;visibility:visible;display:inline;overflow:visible;enable-background:accumulate"
       d="m 188.39048,148.56119 c 0.11914,1.30964 1.11415,2.60692 2.91059,4.57353 2.16321,2.36811 2.70656,3.19341 1.48948,4.19202 -0.27729,0.22763 -2.60361,0.0869 -3.00446,0.1003 -3.60532,0.12036 -9.87336,1.48851 -9.1682,0.16566 3.85774,-7.23707 5.11123,-5.84621 4.95293,-9.0315"
       id="path2844" />
    <path
       style="color:#000000;fill:none;stroke:#008000;stroke-width:4;stroke-linecap:butt;stroke-linejoin:miter;stroke-miterlimit:4;stroke-opacity:1;stroke-dasharray:none;stroke-dashoffset:0;marker:none;visibility:visible;display:inline;overflow:visible;enable-background:accumulate"
       d="m 187.30343,190.3755 c -0.14427,2.80282 -5.40265,6.99118 -5.56327,8.77288 -0.12963,1.43829 5.16595,0.48183 7.34989,0.55864 1.58543,0.0569 3.86166,0.48804 5.12241,-0.27062 0.80769,-0.48573 0.6716,-1.67962 -1.43057,-4.13478 -1.92738,-2.251 -2.77725,-3.64493 -2.65883,-4.92155"
       id="path2862-4" />
    <path
       id="path5493"
       style="color:#000000;fill:none;stroke:#ff0000;stroke-width:4;stroke-linecap:round;stroke-linejoin:round;stroke-miterlimit:4;stroke-opacity:1;stroke-dasharray:none;stroke-dashoffset:0;marker:none;visibility:visible;display:inline;overflow:visible;enable-background:accumulate"
       d="m 103.3269,171.31388 c -0.30625,-1.46342 0.23335,-3.56274 0.75481,-6.94679 0.69291,-4.24342 -0.46514,-5.56827 0.33155,-8.75929 -0.36455,-3.93367 -1.20327,-6.4053 -0.4849,-11.07906 m -9.024233,34.70005 c 0.842132,-3.43829 1.27434,-8.14228 2.890764,-7.79514 6.052519,0.92774 11.001939,-1.18278 12.737459,0.50707 0.67072,3.52758 1.75614,5.25482 2.88289,7.89011"
       sodipodi:nodetypes="cccccccc" />
    <path
       style="color:#000000;fill:none;stroke:#80ff00;stroke-width:4;stroke-linecap:round;stroke-linejoin:round;stroke-miterlimit:4;stroke-opacity:1;stroke-dasharray:none;stroke-dashoffset:0;marker:none;visibility:visible;display:inline;overflow:visible;enable-background:accumulate"
       d="m 121.37732,172.14481 c -0.0406,0.28763 -0.0559,1.65975 -0.01,3.60473 0.016,0.66648 0.0707,1.79626 0.0863,3.26045 0.0124,1.16735 -0.0551,1.75458 -0.18838,3.58158 -0.11053,1.5168 -0.0152,2.42203 -0.0831,4.1451 -0.0423,1.07039 0.11725,1.64812 0.19972,2.34685"
       id="path3655-1"
       sodipodi:nodetypes="csssss" />
    <path
       style="color:#000000;fill:none;stroke:#80ff00;stroke-width:4;stroke-linecap:round;stroke-linejoin:round;stroke-miterlimit:4;stroke-opacity:1;stroke-dasharray:none;stroke-dashoffset:0;marker:none;visibility:visible;display:inline;overflow:visible;enable-background:accumulate"
       d="m 162.89378,185.43256 c 0.36971,-1.40606 0.88079,-2.30526 1.24522,-3.45477 0.35562,-1.12172 0.56075,-2.2047 0.80096,-3.09885 0.20437,-0.76181 0.56606,-1.7838 0.82166,-3.15038 0.1964,-1.04956 0.77217,-2.11494 1.1047,-3.91062 0.11275,-0.6087 0.43809,-1.59043 0.89909,-2.60844"
       id="path3655-4"
       sodipodi:nodetypes="csssss" />
    <path
       style="fill:none;stroke:#0000ff;stroke-width:4;stroke-linecap:round;stroke-linejoin:round;stroke-miterlimit:4;stroke-opacity:1;stroke-dasharray:none"
       d="m 166.033,179.77142 c -2.25546,-1.93178 -4.16468,-3.77574 -5.84297,-5.04885 -2.77379,-2.1083 -5.17579,-4.70392 -8.54043,-5.9786 -1.83771,-0.80158 -3.31626,-1.50742 -5.07294,-2.48574 -0.80709,-0.62428 -2.17149,-0.53181 -2.68728,-1.3168"
       id="path5286" />
    <path
       style="fill:none;stroke:#0000ff;stroke-width:4;stroke-linecap:round;stroke-linejoin:round;stroke-miterlimit:4;stroke-opacity:1;stroke-dasharray:none"
       d="m 142.25256,165.69282 c -3.06304,2.31876 -6.09711,4.68015 -9.55099,6.38464 -3.29314,0.17891 -4.85173,0.78774 -7.86857,2.6531 -0.73189,0.15468 -3.705,0.84587 -3.92539,2.28147"
       id="path2911-0"
       sodipodi:nodetypes="cccc" />
    <path
       style="color:#000000;fill:none;stroke:#80ff00;stroke-width:4;stroke-linecap:round;stroke-linejoin:round;stroke-miterlimit:4;stroke-opacity:1;stroke-dasharray:none;stroke-dashoffset:0;marker:none;visibility:visible;display:inline;overflow:visible;enable-background:accumulate"
       d="m 204.7675,233.68058 c -0.20413,0.20818 -2.79463,1.90819 -3.02907,2.07628 -0.3315,0.23775 -2.15017,1.77554 -2.46011,2.04749 -0.3764,0.32911 -2.11488,1.76704 -2.50758,2.07653 -1.19477,0.94098 -2.14889,1.83601 -3.62975,2.71958 -0.53164,0.31716 -1.19645,1.24178 -1.80504,1.40065"
       id="path3655"
       sodipodi:nodetypes="csssss" />
    <path
       style="fill:none;stroke:#80ff00;stroke-width:3.99999976;stroke-linecap:round;stroke-linejoin:round;stroke-miterlimit:4;stroke-opacity:1;stroke-dasharray:none"
       d="m 249.77327,175.15476 c -1.33171,-1.29892 -1.41499,2.36941 -2.92331,0.76861 -2.90763,-0.35116 -5.35477,1.55223 -8.2793,1.131 -1.94572,0.15645 -3.60858,1.3392 -5.56856,1.44179 -2.04437,0.18127 -3.84147,1.05913 -5.6653,1.8717 -1.62085,0.62629 -3.36282,0.80824 -5.02253,1.27975 -1.52284,-0.46835 -2.65591,0.10151 -4.19784,-0.25872 -1.86105,-0.42636 -3.51417,0.92329 -5.42281,0.0668 -0.18931,-0.84383 1.19426,-2.13251 1.62424,-3.15228 1.59173,-2.59644 3.18224,-5.19436 4.77676,-7.78786 1.33935,-1.15877 2.1638,-3.11463 3.89364,-3.60995 1.22426,-0.77245 2.03957,-2.13759 3.07992,-3.1631 1.02922,-1.29772 2.31564,-2.64415 3.51,-3.8465 1.10765,-1.40543 2.39423,-2.5929 3.24256,-4.30796 0.66728,-1.34173 1.52922,-3.00798 2.92935,-1.02657 1.28046,1.18198 1.5958,3.24045 2.8893,4.42435 1.10704,1.71321 2.57885,3.0113 3.21845,5.22302 1.31305,1.62868 2.37979,3.71744 3.92305,5.03286 0.89709,1.66987 2.17714,3.10193 3.25378,4.54333 0.31055,0.31487 1.00629,0.81413 0.73846,1.3695 z"
       id="path2942" />
    <path
       style="fill:none;stroke:#80ff00;stroke-width:3.99999976;stroke-linecap:round;stroke-linejoin:round;stroke-miterlimit:4;stroke-opacity:1;stroke-dasharray:none"
       d="m 244.55684,164.37838 c 4.42215,-3.42551 10.27891,-2.49339 17.64323,-1.43291 9.91592,3.94177 20.73504,12.21275 32.71764,15.54458 8.04608,4.91743 14.56403,5.41494 20.56069,9.64179 5.77959,2.85518 15.06356,6.00391 21.48916,9.29053"
       id="path2952-1"
       sodipodi:nodetypes="ccccc"
       inkscape:transform-center-x="-24.605946"
       inkscape:transform-center-y="11.647867" />
    <path
       style="fill:none;stroke:#80ff00;stroke-width:3.99999976;stroke-linecap:round;stroke-linejoin:round;stroke-miterlimit:4;stroke-opacity:1;stroke-dasharray:none"
       d="m 275.85117,201.73092 c -0.33375,-4.27644 -0.28518,-8.65517 -2.60531,-12.62991 -2.23876,-5.03861 -4.12492,-10.24123 -7.12163,-15.10698 -1.30036,-3.27497 -3.09585,-11.66416 -5.42015,-5.23113 -3.6655,4.26658 -6.59721,8.69468 -8.36771,13.60521 -2.34259,4.96052 -5.40615,10.41025 -6.4919,15.19303 0.6767,1.44414 -1.30134,2.3121 -0.88304,3.75468"
       id="path2956" />
    <path
       style="fill:none;stroke:#80ff00;stroke-width:3.99999976;stroke-linecap:round;stroke-linejoin:round;stroke-miterlimit:4;stroke-opacity:1;stroke-dasharray:none"
       d="m 294.80575,199.88615 c 0.76197,0.0668 4.85589,0.42533 6.8845,0.60298 6.38327,0.53378 9.00959,-0.39751 16.95193,-0.26745 5.08802,0.82604 18.13753,-0.19184 18.04087,-2.68395 -3.79067,1.18182 -10.43953,1.73962 -15.12608,-1.28781 -6.83925,-1.98534 -12.62863,-2.17185 -17.18731,-4.25338 -0.33415,-0.39453 -0.34696,-1.19526 -2.13628,-1.08406"
       id="path2958"
       sodipodi:nodetypes="ccccccc" />
    <path
       id="path4125"
       style="color:#000000;fill:none;stroke:#80ff00;stroke-width:4;stroke-linecap:round;stroke-linejoin:round;stroke-miterlimit:4;stroke-opacity:1;stroke-dasharray:none;stroke-dashoffset:0;marker:none;visibility:visible;display:inline;overflow:visible;enable-background:accumulate"
       d="m 276.36496,147.9371 c 25.50006,-10.63643 15.25525,22.42902 30.53758,28.21495 11.18123,4.23324 23.34089,10.5161 34.01907,11.35658 12.33085,5.26381 45.02034,-2.39785 44.98995,5.15239 -3.68939,4.47598 -8.51689,3.54022 -20.5343,5.42253 -14.29819,0.67353 -18.17925,2.19291 -29.18348,-0.90204"
       sodipodi:nodetypes="cscccc" />
    <path
       id="path4455"
       style="color:#000000;fill:none;stroke:#ff0000;stroke-width:4;stroke-linecap:round;stroke-linejoin:round;stroke-miterlimit:4;stroke-opacity:1;stroke-dasharray:none;stroke-dashoffset:0;marker:none;visibility:visible;display:inline;overflow:visible;enable-background:accumulate"
       d="m 201.98292,146.1347 c -2.43578,-0.73897 -4.48043,-0.55452 -6.85107,-0.43334 -0.9753,0.0499 -3.29696,-1.1e-4 -4.07836,0.15254 -0.72021,0.14075 -4.38669,-0.35105 -5.27073,-0.17831 -3.20598,0.62647 -5.54035,-0.0696 -8.63967,-0.92961 m -10.89854,8.53366 c 1.1107,0.0974 2.72913,-0.13056 3.95526,-0.37016 0.49104,-0.0957 2.37283,0.094 2.79145,-0.14273 0.53901,-0.3049 2.41618,-1.0793 2.51675,-1.13623 0.95614,-0.54079 1.50099,-8.80079 0.72582,-9.88866 -0.99729,-1.39961 0.96057,-3.76559 0.40572,-4.10691 -1.48159,-0.91145 -8.43017,-2.33914 -9.87976,-2.74137"
       sodipodi:nodetypes="csssccsssssc" />
    <path
       style="color:#000000;fill:none;stroke:#ffff00;stroke-width:4;stroke-linecap:butt;stroke-linejoin:miter;stroke-miterlimit:4;stroke-opacity:1;stroke-dasharray:none;stroke-dashoffset:0;marker:none;visibility:visible;display:inline;overflow:visible;enable-background:accumulate"
       d="m 98.975495,196.555 c -1.02119,-6.8618 0.66819,-4.7849 0.625,-7.625 -0.038,-2.4993 -0.54357,-6.6591 -0.625,-8.25 -0.0657,-1.2843 4.307645,0 6.125005,0 1.31936,-0.001 3.26971,-1.0513 3.99999,0 0.78185,1.1256 0,2.2643 0,2.5 0,3.8334 -0.003,6.3248 0.5,10.125 0.0205,0.155 1.0383,1.2531 -0.5,3.375 -0.18296,0.2524 -2.16647,0 -2.49999,0 -3,0 -7.428785,1.1935 -7.625005,-0.125 z"
       id="path2862"
       sodipodi:nodetypes="csssssssss" />
  </g>
</svg>
