<?xml version="1.0" encoding="UTF-8" standalone="no"?>
<!-- Created with Inkscape (http://www.inkscape.org/) -->

<svg
   xmlns:dc="http://purl.org/dc/elements/1.1/"
   xmlns:cc="http://creativecommons.org/ns#"
   xmlns:rdf="http://www.w3.org/1999/02/22-rdf-syntax-ns#"
   xmlns:svg="http://www.w3.org/2000/svg"
   xmlns="http://www.w3.org/2000/svg"
   xmlns:xlink="http://www.w3.org/1999/xlink"
   xmlns:sodipodi="http://sodipodi.sourceforge.net/DTD/sodipodi-0.dtd"
   xmlns:inkscape="http://www.inkscape.org/namespaces/inkscape"
   width="480"
   height="320"
   id="svg2"
   version="1.1"
   inkscape:version="0.48.0 r9654"
   sodipodi:docname="itnas281.svg"
   inkscape:export-xdpi="90"
   inkscape:export-ydpi="90"
   inkscape:export-filename="itnas281.png">
  <defs
     id="defs4">
    <inkscape:perspective
       sodipodi:type="inkscape:persp3d"
       inkscape:vp_x="0 : 160 : 1"
       inkscape:vp_y="0 : 1000 : 0"
       inkscape:vp_z="480 : 160 : 1"
       inkscape:persp3d-origin="240 : 106.66667 : 1"
       id="perspective8" />
  </defs>
  <sodipodi:namedview
     id="base"
     pagecolor="#ffffff"
     bordercolor="#666666"
     borderopacity="1.0"
     inkscape:pageopacity="1"
     inkscape:pageshadow="2"
     inkscape:zoom="2"
     inkscape:cx="237.57498"
     inkscape:cy="134.58447"
     inkscape:document-units="px"
     inkscape:current-layer="layer1"
     showgrid="false"
     inkscape:snap-nodes="true"
     inkscape:snap-global="false"
     inkscape:snap-grids="true"
     showguides="true"
     inkscape:window-width="1280"
     inkscape:window-height="998"
     inkscape:window-x="1276"
     inkscape:window-y="-4"
     inkscape:window-maximized="1">
    <inkscape:grid
       empspacing="5"
       visible="true"
       enabled="true"
       snapvisiblegridlinesonly="true"
       type="xygrid"
       id="grid2816" />
  </sodipodi:namedview>
  <metadata
     id="metadata7">
    <rdf:RDF>
      <cc:Work
         rdf:about="">
        <dc:format>image/svg+xml</dc:format>
        <dc:type
           rdf:resource="http://purl.org/dc/dcmitype/StillImage" />
        <dc:title></dc:title>
      </cc:Work>
    </rdf:RDF>
  </metadata>
  <g
     inkscape:groupmode="layer"
     id="layer2"
     inkscape:label="floor"
     sodipodi:insensitive="true">
    <path
       style="color:#000000;fill:none;stroke:#808080;stroke-width:4;stroke-linecap:butt;stroke-linejoin:miter;stroke-miterlimit:4;stroke-opacity:1;stroke-dasharray:none;stroke-dashoffset:0;marker:none;visibility:visible;display:inline;overflow:visible;enable-background:accumulate"
       d="m 402.04206,210.8183 c -1.72943,6.63103 6.32127,12.91733 11.23056,3.75153 1.79135,-3.71675 -1.15053,-10.19737 -6.23056,-10.12653 0,0 -5.25,-0.75 -5,6.375 z"
       id="path5338"
       inkscape:connector-curvature="0"
       sodipodi:nodetypes="cccc" />
    <path
       style="color:#000000;fill:none;stroke:#808080;stroke-width:4;stroke-linecap:butt;stroke-linejoin:miter;stroke-miterlimit:4;stroke-opacity:1;stroke-dasharray:none;stroke-dashoffset:0;marker:none;visibility:visible;display:inline;overflow:visible;enable-background:accumulate"
       d="m 411.13103,40.959848 c -8.96309,1.44995 -16.87816,-4.82624 -12.44734,-11.79026 4.43515,-8.49716 15.83574,-4.39964 16.56725,4.26742 1.34933,3.13782 0.35474,9.39164 -4.11991,7.52284 z"
       id="path5340"
       inkscape:connector-curvature="0"
       sodipodi:nodetypes="cccc" />
    <path
       style="color:#000000;fill:none;stroke:#808080;stroke-width:4;stroke-linecap:butt;stroke-linejoin:miter;stroke-miterlimit:4;stroke-opacity:1;stroke-dasharray:none;stroke-dashoffset:0;marker:none;visibility:visible;display:inline;overflow:visible;enable-background:accumulate"
       d="m 372.43617,247.31526 c -2.625,-3.41666 -3.25,-4.58333 -4.75,-6.125 -8.56091,-5.33875 -11.77391,13.46128 -5.51278,17.21113 7.18447,6.34479 18.73105,-6.12463 10.26278,-11.08613 z"
       id="path5342"
       inkscape:connector-curvature="0"
       sodipodi:nodetypes="cccc" />
    <path
       style="color:#000000;fill:none;stroke:#808080;stroke-width:4;stroke-linecap:butt;stroke-linejoin:miter;stroke-miterlimit:4;stroke-opacity:1;stroke-dasharray:none;stroke-dashoffset:0;marker:none;visibility:visible;display:inline;overflow:visible;enable-background:accumulate"
       d="m 178.7218,92.979266 c -6.28578,-4.512276 -6.97565,-9.032866 -3.23839,-15.543055 1.38881,-0.58671 5.81839,-2.35868 10.46171,0.58254 6.97207,5.031029 1.60363,20.295898 -7.22332,14.960515 z"
       id="path5344"
       inkscape:connector-curvature="0"
       sodipodi:nodetypes="cccc" />
    <path
       style="color:#000000;fill:none;stroke:#808080;stroke-width:4;stroke-linecap:butt;stroke-linejoin:miter;stroke-miterlimit:4;stroke-opacity:1;stroke-dasharray:none;stroke-dashoffset:0;marker:none;visibility:visible;display:inline;overflow:visible;enable-background:accumulate"
       d="m 418.19015,164.04053 c -2.5977,-4.25554 -10.85788,-0.73825 -8.81169,5.96014 -1.37206,10.04603 14.7664,11.64604 13.7666,0.8018 0.0463,-3.07757 -2.02549,-5.89149 -4.95491,-6.76194 z"
       id="path5346"
       inkscape:connector-curvature="0" />
    <path
       style="color:#000000;fill:none;stroke:#808080;stroke-width:4;stroke-linecap:butt;stroke-linejoin:miter;stroke-miterlimit:4;stroke-opacity:1;stroke-dasharray:none;stroke-dashoffset:0;marker:none;visibility:visible;display:inline;overflow:visible;enable-background:accumulate"
       d="m 116.76435,65.354775 c -5.08714,8.18484 -13.17635,-2.39259 -14.27658,-8.39567 -0.24141,-3.94858 3.65157,-2.73446 6.8868,-3.93076 7.90282,3.0126 8.58378,1.62942 7.38978,12.32643 z"
       id="path5348"
       inkscape:connector-curvature="0"
       sodipodi:nodetypes="cccc" />
    <path
       style="color:#000000;fill:none;stroke:#808080;stroke-width:4;stroke-linecap:butt;stroke-linejoin:miter;stroke-miterlimit:4;stroke-opacity:1;stroke-dasharray:none;stroke-dashoffset:0;marker:none;visibility:visible;display:inline;overflow:visible;enable-background:accumulate"
       d="m 393.59664,139.01754 c 8.99829,3.18336 13.62141,-7.33131 10.58576,-14.38483 0.0299,-5.0478 -8.05391,-3.06659 -13.22526,-3.24945 -5.17136,-0.18287 -8.52069,15.90298 2.6395,17.63428 z"
       id="path5350"
       inkscape:connector-curvature="0"
       sodipodi:nodetypes="cccc" />
    <path
       style="color:#000000;fill:none;stroke:#808080;stroke-width:4;stroke-linecap:butt;stroke-linejoin:miter;stroke-miterlimit:4;stroke-opacity:1;stroke-dasharray:none;stroke-dashoffset:0;marker:none;visibility:visible;display:inline;overflow:visible;enable-background:accumulate"
       d="m 213.76706,67.586203 c -6.52238,5.56903 -16.05723,-0.48218 -17.03763,-8.07865 -2.07441,-6.34344 5.17418,-7.30862 10.96467,-10.10992 5.79049,-2.80129 12.37372,11.78366 6.07296,18.18857 z"
       id="path5352"
       inkscape:connector-curvature="0"
       sodipodi:nodetypes="cccc" />
    <use
       x="0"
       y="0"
       xlink:href="#path5338"
       id="use5560"
       transform="matrix(1,0,0,-1,-283.04401,252.61442)"
       width="480"
       height="320" />
    <use
       x="0"
       y="0"
       xlink:href="#path5340"
       id="use5562"
       transform="matrix(1,0,0,-1,-18.254071,237.51403)"
       width="480"
       height="320" />
    <use
       x="0"
       y="0"
       xlink:href="#path5342"
       id="use5564"
       transform="matrix(1,0,0,-1,52.579655,502.72525)"
       width="480"
       height="320" />
    <use
       x="0"
       y="0"
       xlink:href="#path5344"
       id="use5566"
       transform="matrix(1,0,0,-1,22.768285,168.56499)"
       width="480"
       height="320" />
    <use
       x="0"
       y="0"
       xlink:href="#path5346"
       id="use5568"
       transform="matrix(1,0,0,-1,0.63291006,292.26892)"
       width="480"
       height="320" />
    <use
       x="0"
       y="0"
       xlink:href="#path5348"
       id="use5570"
       transform="matrix(1,0,0,-1,307.07778,289.54444)"
       width="480"
       height="320" />
    <use
       x="0"
       y="0"
       xlink:href="#path5350"
       id="use5572"
       transform="matrix(1,0,0,-1,-47.955321,215.2263)"
       width="480"
       height="320" />
    <use
       x="0"
       y="0"
       xlink:href="#path5352"
       id="use5574"
       transform="matrix(1,0,0,-1,187.78291,238.35701)"
       width="480"
       height="320" />
    <use
       x="0"
       y="0"
       xlink:href="#path5338"
       id="use5576"
       transform="matrix(-1,0,0,1,825.26441,-112.01888)"
       width="480"
       height="320" />
    <use
       x="0"
       y="0"
       xlink:href="#path5340"
       id="use5578"
       transform="matrix(-1,0,0,1,580.25412,2.91782)"
       width="480"
       height="320" />
    <use
       x="0"
       y="0"
       xlink:href="#path5342"
       id="use5580"
       transform="matrix(-1,0,0,1,640.31741,-166.29282)"
       width="480"
       height="320" />
    <use
       x="0"
       y="0"
       xlink:href="#path5344"
       id="use5582"
       transform="matrix(-1,0,0,1,550.84819,94.951959)"
       width="480"
       height="320" />
    <use
       x="0"
       y="0"
       xlink:href="#path5346"
       id="use5584"
       transform="matrix(-1,0,0,1,804.42171,-114.91484)"
       width="480"
       height="320" />
    <use
       x="0"
       y="0"
       xlink:href="#path5348"
       id="use5586"
       transform="matrix(-1,0,0,1,525.786,18.4557)"
       width="480"
       height="320" />
    <use
       x="0"
       y="0"
       xlink:href="#path5350"
       id="use5588"
       transform="matrix(-1,0,0,1,756.91147,-89.42573)"
       width="480"
       height="320" />
    <use
       x="0"
       y="0"
       xlink:href="#path5352"
       id="use5590"
       transform="matrix(-1,0,0,1,503.74677,24.308144)"
       width="480"
       height="320" />
    <use
       x="0"
       y="0"
       xlink:href="#use5560"
       id="use5592"
       transform="matrix(-1,0,0,1,427.73404,20.351791)"
       width="480"
       height="320" />
    <use
       x="0"
       y="0"
       xlink:href="#use5562"
       id="use5594"
       transform="matrix(-1,0,0,1,758.51555,-95.75526)"
       width="480"
       height="320" />
    <use
       x="0"
       y="0"
       xlink:href="#use5564"
       id="use5596"
       transform="matrix(-1,0,0,1,836.4418,-58.74545)"
       width="480"
       height="320" />
    <use
       x="0"
       y="0"
       xlink:href="#use5566"
       id="use5598"
       transform="matrix(-1,0,0,1,569.91914,120.40679)"
       width="480"
       height="320" />
    <use
       x="0"
       y="0"
       xlink:href="#use5568"
       id="use5600"
       transform="matrix(-1,0,0,1,808.35094,32.29404)"
       width="480"
       height="320" />
    <use
       x="0"
       y="0"
       xlink:href="#use5570"
       id="use5602"
       transform="matrix(-1,0,0,1,762.28322,-168.11804)"
       width="480"
       height="320" />
    <use
       x="0"
       y="0"
       xlink:href="#use5572"
       id="use5604"
       transform="matrix(-1,0,0,1,660.99828,-45.055327)"
       width="480"
       height="320" />
    <use
       x="0"
       y="0"
       xlink:href="#use5574"
       id="use5606"
       transform="matrix(-1,0,0,1,764.13455,-23.74441)"
       width="480"
       height="320" />
    <use
       x="0"
       y="0"
       xlink:href="#path5338"
       id="use5608"
       transform="matrix(0,1,-1,0,595.09148,-372.59106)"
       width="480"
       height="320" />
    <use
       x="0"
       y="0"
       xlink:href="#path5340"
       id="use5610"
       transform="matrix(0,1,-1,0,355.51031,-320.13123)"
       width="480"
       height="320" />
    <use
       x="0"
       y="0"
       xlink:href="#path5342"
       id="use5612"
       transform="matrix(0,1,-1,0,507.70812,-305.81396)"
       width="480"
       height="320" />
    <use
       x="0"
       y="0"
       xlink:href="#path5344"
       id="use5614"
       transform="matrix(0,1,-1,0,374.44052,-141.00207)"
       width="480"
       height="320" />
    <use
       x="0"
       y="0"
       xlink:href="#path5346"
       id="use5616"
       transform="matrix(0,1,-1,0,367.87784,-377.9484)"
       width="480"
       height="320" />
    <use
       x="0"
       y="0"
       xlink:href="#path5348"
       id="use5618"
       transform="matrix(0,1,-1,0,218.42125,-52.626575)"
       width="480"
       height="320" />
    <use
       x="0"
       y="0"
       xlink:href="#path5350"
       id="use5620"
       transform="matrix(0,1,-1,0,310.96464,-336.73333)"
       width="480"
       height="320" />
    <use
       x="0"
       y="0"
       xlink:href="#path5352"
       id="use5622"
       transform="matrix(0,1,-1,0,206.39548,-167.78043)"
       width="480"
       height="320" />
    <use
       x="0"
       y="0"
       xlink:href="#use5560"
       id="use5624"
       transform="matrix(0,1,-1,0,260.1596,-85.24622)"
       width="480"
       height="320" />
    <use
       x="0"
       y="0"
       xlink:href="#use5562"
       id="use5626"
       transform="matrix(0,1,-1,0,313.9493,-303.13769)"
       width="480"
       height="320" />
    <use
       x="0"
       y="0"
       xlink:href="#use5564"
       id="use5628"
       transform="matrix(0,1,-1,0,643.60443,-191.4658)"
       width="480"
       height="320" />
    <use
       x="0"
       y="0"
       xlink:href="#use5566"
       id="use5630"
       transform="matrix(0,1,-1,0,216.71386,-141.31609)"
       width="480"
       height="320" />
    <use
       x="0"
       y="0"
       xlink:href="#use5568"
       id="use5632"
       transform="matrix(0,1,-1,0,489.03604,-189.74102)"
       width="480"
       height="320" />
    <use
       x="0"
       y="0"
       xlink:href="#use5570"
       id="use5634"
       transform="matrix(0,1,-1,0,551.17161,-352.58349)"
       width="480"
       height="320" />
    <use
       x="0"
       y="0"
       xlink:href="#use5572"
       id="use5636"
       transform="matrix(0,1,-1,0,422.46244,-308.246)"
       width="480"
       height="320" />
    <use
       x="0"
       y="0"
       xlink:href="#use5574"
       id="use5638"
       transform="matrix(0,1,-1,0,593.92547,-248.107)"
       width="480"
       height="320" />
    <use
       x="0"
       y="0"
       xlink:href="#use5576"
       id="use5640"
       transform="matrix(0,1,-1,0,465.46157,-354.63547)"
       width="480"
       height="320" />
    <use
       x="0"
       y="0"
       xlink:href="#use5578"
       id="use5642"
       transform="matrix(0,1,-1,0,406.33185,-89.03826)"
       width="480"
       height="320" />
    <use
       x="0"
       y="0"
       xlink:href="#use5580"
       id="use5644"
       transform="matrix(-0.89855324,0.43886454,-0.43886454,-0.89855324,389.2405,-7.820169)"
       width="480"
       height="320" />
    <use
       x="0"
       y="0"
       xlink:href="#use5582"
       id="use5646"
       transform="matrix(0,1,-1,0,550.53162,-239.13725)"
       width="480"
       height="320" />
    <use
       x="0"
       y="0"
       xlink:href="#use5584"
       id="use5648"
       transform="matrix(0,1,-1,0,285.13662,-302.04514)"
       width="480"
       height="320" />
    <use
       x="0"
       y="0"
       xlink:href="#use5586"
       id="use5650"
       transform="matrix(0,1,-1,0,213.31852,-329.85164)"
       width="480"
       height="320" />
    <use
       x="0"
       y="0"
       xlink:href="#use5588"
       id="use5652"
       transform="matrix(0,1,-1,0,198.06057,-278.23147)"
       width="480"
       height="320" />
    <use
       x="0"
       y="0"
       xlink:href="#use5590"
       id="use5654"
       transform="matrix(0,1,-1,0,478.66195,-193.04719)"
       width="480"
       height="320" />
    <use
       x="0"
       y="0"
       xlink:href="#use5592"
       id="use5656"
       transform="matrix(0,1,-1,0,342.47837,-242.40379)"
       width="480"
       height="320" />
    <use
       x="0"
       y="0"
       xlink:href="#use5594"
       id="use5658"
       transform="matrix(0,1,-1,0,520.06976,-313.34592)"
       width="480"
       height="320" />
    <use
       x="0"
       y="0"
       xlink:href="#use5596"
       id="use5660"
       transform="matrix(0,1,-1,0,435.50667,-375.43895)"
       width="480"
       height="320" />
    <use
       x="0"
       y="0"
       xlink:href="#use5598"
       id="use5662"
       transform="matrix(0,1,-1,0,435.70139,-303.50274)"
       width="480"
       height="320" />
    <use
       x="0"
       y="0"
       xlink:href="#use5600"
       id="use5664"
       transform="matrix(0,1,-1,0,420.2914,-351.34235)"
       width="480"
       height="320" />
    <use
       x="0"
       y="0"
       xlink:href="#use5602"
       id="use5666"
       transform="matrix(0,1,-1,0,311.48568,-261.62083)"
       width="480"
       height="320" />
    <use
       x="0"
       y="0"
       xlink:href="#use5604"
       id="use5668"
       transform="matrix(0,1,-1,0,433.65453,-235.10056)"
       width="480"
       height="320" />
    <use
       x="0"
       y="0"
       xlink:href="#use5606"
       id="use5670"
       transform="matrix(0,1,-1,0,548.30096,-118.94174)"
       width="480"
       height="320" />
    <path
       style="color:#000000;fill:none;stroke:#808080;stroke-width:3.99999952;stroke-linecap:round;stroke-linejoin:miter;stroke-miterlimit:4;stroke-opacity:1;stroke-dasharray:none;stroke-dashoffset:0;marker:none;visibility:visible;display:inline;overflow:visible;enable-background:accumulate"
       d="m 136.67876,101.26828 c 2.31029,6.72649 2.79467,16.17407 1.80312,23.28924 -0.29006,11.97111 -2.45268,22.51984 -1.93044,34.57304 -1.06211,7.08268 1.36661,15.98484 0.29849,22.9691 0.0877,6.91201 0.35445,14.01731 1.87393,20.80323 0.6951,8.4954 -2.72448,16.61475 -2.5818,25.13059 -0.49775,4.53371 1.56449,8.66008 0.72828,13.25814 0.0236,5.5568 0.59499,11.17387 -0.2255,16.76229 -0.0717,5.55688 0.27839,11.29685 2.66383,16.27566 l 0.41308,2.91957"
       id="path4260"
       inkscape:connector-curvature="0"
       sodipodi:nodetypes="cccccccccc" />
    <path
       style="color:#000000;fill:none;stroke:#808080;stroke-width:3.99999976;stroke-linecap:round;stroke-linejoin:miter;stroke-miterlimit:4;stroke-opacity:1;stroke-dasharray:none;stroke-dashoffset:0;marker:none;visibility:visible;display:inline;overflow:visible;enable-background:accumulate"
       d="m 183.82148,101.37179 c -0.15546,6.46112 -2.10064,15.08423 -1.30574,21.58475 0.75347,11.11387 1.67027,22.27806 2.78318,33.43374 -1.16735,7.55395 -1.25223,10.84548 -0.99923,18.56698 -1.48733,6.86026 0.56756,14.09411 -1.50295,20.81707 0.11106,10.15886 1.49945,20.1187 0.75272,30.30008 -0.4727,6.54278 0.75286,13.24074 -0.2911,19.64883 -1.78545,4.35875 -0.81154,10.05097 -1.01395,15.0176 0.8543,4.78792 1.31514,11.57438 1.34759,16.4693"
       id="path4262"
       inkscape:connector-curvature="0"
       sodipodi:nodetypes="ccccccccc" />
    <path
       style="color:#000000;fill:none;stroke:#808080;stroke-width:3.99999976;stroke-linecap:round;stroke-linejoin:miter;stroke-miterlimit:4;stroke-opacity:1;stroke-dasharray:none;stroke-dashoffset:0;marker:none;visibility:visible;display:inline;overflow:visible;enable-background:accumulate"
       d="m 233.22282,103.29253 c 0.36726,10.88663 0.28383,19.89318 -1.68192,30.74865 -2.55821,8.75944 0.41765,18.01637 -0.74739,28.86326 0.2684,9.09237 0.89972,18.21962 0.38434,27.23661 0.41151,5.75936 0.35968,11.33534 -1.10452,16.78884 0.4733,10.39575 0.50241,18.98937 2.7646,30.93267 0.61034,12.42307 -2.15489,27.28834 -1.5188,39.71339"
       id="path4264"
       inkscape:connector-curvature="0"
       sodipodi:nodetypes="ccccccc" />
    <path
       style="color:#000000;fill:none;stroke:#808080;stroke-width:3.99999976;stroke-linecap:round;stroke-linejoin:miter;stroke-miterlimit:4;stroke-opacity:1;stroke-dasharray:none;stroke-dashoffset:0;marker:none;visibility:visible;display:inline;overflow:visible;enable-background:accumulate"
       d="m 271.86043,102.89726 c 0.88031,8.8798 2.35568,17.71032 2.61637,26.65815 0.8026,9.82341 0.33256,19.68305 -1.14852,29.36175 0.25386,5.09847 -0.93821,10.10135 0.5847,15.4052 1.93579,10.0707 -1.31121,19.83294 0.17547,29.97478 -0.45291,4.11027 -0.71068,9.28383 -0.7286,14.43234 0.98756,9.11695 1.95728,18.16442 1.46157,27.20048 -0.25453,4.76276 -1.24035,9.44946 -2.49136,14.13178 -0.43244,4.08107 -0.3432,6.9824 0.45573,10.10504 0.82509,2.15085 0.58267,4.7643 0.80423,7.19259"
       id="path4266"
       inkscape:connector-curvature="0"
       sodipodi:nodetypes="cccccccccc" />
    <path
       sodipodi:nodetypes="cccccccccc"
       inkscape:connector-curvature="0"
       id="path4288"
       d="m 99.48454,251.83572 c 9.84974,-2.62285 20.75165,-2.73546 31.16536,-1.62155 17.52291,0.31417 32.96091,2.74949 50.60519,2.14416 10.36604,1.19379 23.4007,-1.56567 33.62267,-0.36497 10.11796,-0.10737 20.51911,-0.41773 30.45463,-2.14559 12.43664,-0.79677 24.31662,3.06413 36.78235,2.89257 6.6357,0.55804 12.679,-1.78099 19.40837,-0.83996 8.13411,-0.0332 16.35725,-0.68662 24.53637,0.23546 8.13404,0.0746 16.53676,-0.32844 23.82834,-3.0343 l 2.07798,-0.0248"
       style="color:#000000;fill:none;stroke:#808080;stroke-width:4;stroke-linecap:round;stroke-linejoin:miter;stroke-miterlimit:4;stroke-opacity:1;stroke-dasharray:none;stroke-dashoffset:0;marker:none;visibility:visible;display:inline;overflow:visible;enable-background:accumulate" />
    <path
       sodipodi:nodetypes="ccccccccc"
       inkscape:connector-curvature="0"
       id="path4290"
       d="m 101.02548,214.07899 c 9.43068,0.13062 18.3659,1.85248 27.85519,1.13829 16.22307,-0.68278 32.51976,-1.51079 48.80425,-2.51312 11.02462,1.02883 15.82893,1.10039 27.09979,0.86645 10.01172,1.31402 20.57289,-0.52102 30.38351,1.31156 14.82835,-0.11066 29.36767,-1.35644 44.22787,-0.70462 9.54951,0.41252 19.32749,-0.68472 28.67975,0.23573 6.36007,1.58196 14.66977,0.70962 21.91896,0.8837 6.98961,-0.76499 13.97663,-1.18024 21.12147,-1.21481"
       style="color:#000000;fill:none;stroke:#808080;stroke-width:4;stroke-linecap:round;stroke-linejoin:miter;stroke-miterlimit:4;stroke-opacity:1;stroke-dasharray:none;stroke-dashoffset:0;marker:none;visibility:visible;display:inline;overflow:visible;enable-background:accumulate" />
    <path
       sodipodi:nodetypes="ccccccc"
       inkscape:connector-curvature="0"
       id="path4292"
       d="m 101.69397,172.83325 c 15.89092,-0.33921 29.03707,-0.27561 44.8798,1.45897 12.78256,2.26368 26.29774,-0.39235 42.12885,0.63053 13.27184,-0.24923 26.59502,-0.8211 39.75591,-0.37356 8.40702,-0.37254 16.54585,-0.333 24.50423,0.96211 15.17455,-0.43289 27.71811,-0.46884 45.1536,-2.49366 18.13384,-0.55706 36.17934,1.88641 54.31608,1.30641"
       style="color:#000000;fill:none;stroke:#808080;stroke-width:4;stroke-linecap:round;stroke-linejoin:miter;stroke-miterlimit:4;stroke-opacity:1;stroke-dasharray:none;stroke-dashoffset:0;marker:none;visibility:visible;display:inline;overflow:visible;enable-background:accumulate" />
    <path
       sodipodi:nodetypes="cccccccccc"
       inkscape:connector-curvature="0"
       id="path4294"
       d="m 101.2062,135.82401 c 12.96227,-0.7929 24.35333,-2.11468 37.41418,-2.35688 14.33951,-0.72492 28.73042,-0.31867 42.85602,0.98649 7.44221,-0.23163 14.74314,0.82212 22.4866,-0.53779 14.70181,-1.73249 28.94728,1.14227 43.75239,-0.1911 5.99895,0.39774 13.55015,0.62083 21.06506,0.63071 13.30855,-0.8885 26.51569,-1.76107 39.70441,-1.33103 6.95159,0.22066 13.79129,1.09144 20.6243,2.19794 5.95637,0.37966 10.19133,0.29689 14.7502,-0.41692 3.14039,-0.73591 6.95479,-0.52351 10.49947,-0.7233"
       style="color:#000000;fill:none;stroke:#808080;stroke-width:4;stroke-linecap:round;stroke-linejoin:miter;stroke-miterlimit:4;stroke-opacity:1;stroke-dasharray:none;stroke-dashoffset:0;marker:none;visibility:visible;display:inline;overflow:visible;enable-background:accumulate" />
    <path
       style="color:#000000;fill:none;stroke:#808080;stroke-width:4;stroke-linecap:round;stroke-linejoin:miter;stroke-miterlimit:4;stroke-opacity:1;stroke-dasharray:none;stroke-dashoffset:0;marker:none;visibility:visible;display:inline;overflow:visible;enable-background:accumulate"
       d="m 353.99126,102.50863 c -16.86613,-1.06681 -33.80148,-0.0323 -50.70103,-0.30034 -17.34753,-0.18926 -34.84658,2.1416 -52.05448,-0.75851 -13.50384,-0.1804 -27.10103,0.59809 -40.54523,-0.19375 -13.12773,-1.48078 -26.39034,-0.0504 -39.58335,-0.46012 -21.37479,0.0921 -19.24959,-0.31703 -40.62438,-0.22395 -2.55108,1.14248 -28.83964,0.71278 -31.49778,1.0338"
       id="path5269"
       inkscape:connector-curvature="0"
       sodipodi:nodetypes="ccccccc" />
    <path
       sodipodi:nodetypes="ccccccccc"
       inkscape:connector-curvature="0"
       id="path5191"
       d="m 317.70129,278.13366 c 2.91415,-6.73852 1.25033,-16.68292 -0.0417,-23.79284 -0.41851,-11.96949 -0.71507,-22.26197 -0.0996,-34.3178 -1.38152,-7.07705 2.42347,-16.49338 1.03472,-23.47201 0.0833,-6.9124 -2.3557,-13.76338 -0.44875,-20.55719 0.85019,-8.49898 -0.53746,-16.60653 -0.39075,-25.12305 -0.65243,-4.53107 0.95657,-8.66614 -0.12712,-13.25977 0.007,-5.55688 -0.0384,-11.17536 -1.10598,-16.75945 -0.11416,-5.55644 3.56116,-9.80487 -0.67591,-16.78123"
       style="color:#000000;fill:none;stroke:#808080;stroke-width:3.99999976;stroke-linecap:round;stroke-linejoin:miter;stroke-miterlimit:4;stroke-opacity:1;stroke-dasharray:none;stroke-dashoffset:0;marker:none;visibility:visible;display:inline;overflow:visible;enable-background:accumulate" />
    <path
       sodipodi:nodetypes="cccccccccccc"
       inkscape:connector-curvature="0"
       id="path5211"
       d="m 314.75742,211.00819 c -5.13899,-0.36475 -7.91178,-0.0598 -13.01863,-0.86797 -4.17638,0.47717 -8.0402,0.6342 -12.26836,-0.2988 -5.99515,0.0597 -6.05257,0.71447 -12.04931,0.7422 -0.8798,-1.79353 1.61452,-10.46068 0.36192,-14.43805 1.7e-4,-10.96253 1.36727,-7.52312 0.44965,-18.449 4.04307,-0.67941 5.57205,0.43542 9.62572,-0.29046 4.52076,-0.45379 9.04243,-0.74952 13.55227,-1.34394 4.72209,-0.36125 8.42772,-0.0985 13.16324,0.46449 -0.51518,4.05485 0.9159,8.00778 0.13375,13.77422 -0.41484,7.28135 1.66915,6.29255 -0.0375,11.88417 z"
       style="color:#000000;fill:none;stroke:#c87137;stroke-width:3.99999952;stroke-linecap:round;stroke-linejoin:round;stroke-miterlimit:4;stroke-opacity:1;stroke-dasharray:none;stroke-dashoffset:0;marker:none;visibility:visible;display:inline;overflow:visible;enable-background:accumulate" />
    <path
       style="color:#000000;fill:none;stroke:#c87137;stroke-width:4;stroke-linecap:round;stroke-linejoin:round;stroke-miterlimit:4;stroke-opacity:1;stroke-dasharray:none;stroke-dashoffset:0;marker:none;visibility:visible;display:inline;overflow:visible;enable-background:accumulate"
       d="m 278.32863,137.78527 c 4.9434,0.37271 8.33213,-1.47185 13.24462,-0.64587 4.01745,-0.4876 7.49373,-0.90352 11.56097,0.0499 5.767,-0.0609 5.82223,0.29176 11.59074,0.26342 0.84632,1.83277 -1.0721,10.68951 0.13282,14.75389 -1.5e-4,11.20231 -0.59378,7.17671 0.28893,18.3416 -3.8892,0.69427 -6.56242,-0.29625 -10.46181,-0.145 -4.34871,-0.19472 -8.69832,-0.58054 -13.03651,0.0268 -4.54237,0.36913 -9.06893,1.12223 -13.62423,1.2228 0.49557,-4.26721 -1.362,-7.58118 -0.60962,-13.47375 0.39906,-7.44062 -0.88418,-6.68567 0.75756,-12.39961 z"
       id="path5188"
       inkscape:connector-curvature="0"
       sodipodi:nodetypes="cccccccccccc" />
    <use
       x="0"
       y="0"
       xlink:href="#path5269"
       id="use6446"
       transform="matrix(-1,0,0,-1,453.152,380.79816)"
       width="480"
       height="320" />
    <path
       style="color:#000000;fill:none;stroke:#c87137;stroke-width:4;stroke-linecap:round;stroke-linejoin:round;stroke-miterlimit:4;stroke-opacity:1;stroke-dasharray:none;stroke-dashoffset:0;marker:none;visibility:visible;display:inline;overflow:visible;enable-background:accumulate"
       d="m 296,209.5 c 0.67783,-2.06339 -0.29939,-4.36429 0.72194,-6.35236 0.66721,-3.07408 -0.0359,-6.24515 0.48225,-9.33613 0.10629,-3.85307 0.022,-7.70773 0.0463,-11.56151 -0.69671,-1.58236 -0.22283,-3.37925 -0.75074,-5.00009"
       id="path5219"
       inkscape:connector-curvature="0" />
    <path
       style="color:#000000;fill:none;stroke:#c87137;stroke-width:4;stroke-linecap:round;stroke-linejoin:round;stroke-miterlimit:4;stroke-opacity:1;stroke-dasharray:none;stroke-dashoffset:0;marker:none;visibility:visible;display:inline;overflow:visible;enable-background:accumulate"
       d="m 287,209 c 0.11815,-2.69568 -0.358,-5.46825 0.49967,-8.08569 0.5505,-4.9782 0.0853,-9.99126 0.25027,-14.98456 6.2e-4,-2.80992 0.002,-5.61983 -6e-5,-8.42975"
       id="path5221"
       inkscape:connector-curvature="0" />
    <path
       style="color:#000000;fill:none;stroke:#c87137;stroke-width:4;stroke-linecap:round;stroke-linejoin:round;stroke-miterlimit:4;stroke-opacity:1;stroke-dasharray:none;stroke-dashoffset:0;marker:none;visibility:visible;display:inline;overflow:visible;enable-background:accumulate"
       d="m 305.5,209.5 c -4.4e-4,-5.91667 6e-4,-11.83333 0,-17.75 -0.63399,-2.01008 -0.0568,-4.12804 -0.25,-6.18571 0,-3.27143 0,-6.54286 0,-9.81429"
       id="path5227"
       inkscape:connector-curvature="0" />
    <path
       sodipodi:nodetypes="ccccccc"
       inkscape:connector-curvature="0"
       id="path5672"
       d="m 354.75982,102.73382 c -1.06681,11.67414 -0.0323,23.39618 -0.30034,35.09345 -0.18926,12.00734 2.1416,24.11956 -0.75851,36.03026 -0.1804,9.34687 0.59809,18.75837 -0.19375,28.06396 -1.48078,9.08655 -0.0504,18.26646 -0.46012,27.39819 0.0921,14.79487 -0.31703,13.32388 -0.22395,28.11875 1.14248,1.76577 0.71278,19.96177 1.0338,21.80164"
       style="color:#000000;fill:none;stroke:#808080;stroke-width:4;stroke-linecap:round;stroke-linejoin:miter;stroke-miterlimit:4;stroke-opacity:1;stroke-dasharray:none;stroke-dashoffset:0;marker:none;visibility:visible;display:inline;overflow:visible;enable-background:accumulate" />
    <use
       x="0"
       y="0"
       xlink:href="#path5672"
       id="use6448"
       transform="matrix(-1,0,0,-1,453.152,380.79816)"
       width="480"
       height="320" />
    <path
       style="color:#000000;fill:none;stroke:#808080;stroke-width:4;stroke-linecap:round;stroke-linejoin:miter;stroke-miterlimit:4;stroke-opacity:1;stroke-dasharray:none;stroke-dashoffset:0;marker:none;visibility:visible;display:inline;overflow:visible;enable-background:accumulate"
       d="M 99,119.5 C 95.62972,114.78293 93.0533,106.52158 89.94684,100.41615 87.29363,91.909874 86.46486,90.524739 85.80962,82.0231 80.00249,66.593676 78.57287,59.910707 75.4182,53.734327 73.3166,48.321345 75.37,42.641071 71.5,34"
       id="path6450"
       inkscape:connector-curvature="0"
       sodipodi:nodetypes="ccccc" />
    <path
       sodipodi:nodetypes="ccccc"
       inkscape:connector-curvature="0"
       id="path6492"
       d="m 71.5,126.5 c 3.37028,4.71707 1.9467,12.97842 5.05316,19.08385 2.65321,8.50628 3.48198,9.89141 4.13722,18.39305 5.80713,15.42942 4.73675,18.61239 10.39142,28.28877 C 92.6834,199.67865 95.13,203.35893 99,212"
       style="color:#000000;fill:none;stroke:#808080;stroke-width:4;stroke-linecap:round;stroke-linejoin:miter;stroke-miterlimit:4;stroke-opacity:1;stroke-dasharray:none;stroke-dashoffset:0;marker:none;visibility:visible;display:inline;overflow:visible;enable-background:accumulate" />
    <path
       sodipodi:nodetypes="ccccc"
       inkscape:connector-curvature="0"
       id="path6494"
       d="m 70.5,179 c 3.37028,4.71707 5.9467,12.97842 9.05316,19.08385 2.65321,8.50628 3.48198,9.89141 4.13722,18.39305 5.80713,15.42942 7.23675,22.11239 10.39142,28.28877 C 96.1834,250.17865 94.13,255.85893 98,264.5"
       style="color:#000000;fill:none;stroke:#808080;stroke-width:4;stroke-linecap:round;stroke-linejoin:miter;stroke-miterlimit:4;stroke-opacity:1;stroke-dasharray:none;stroke-dashoffset:0;marker:none;visibility:visible;display:inline;overflow:visible;enable-background:accumulate" />
    <path
       style="color:#000000;fill:none;stroke:#808080;stroke-width:4;stroke-linecap:round;stroke-linejoin:miter;stroke-miterlimit:4;stroke-opacity:1;stroke-dasharray:none;stroke-dashoffset:0;marker:none;visibility:visible;display:inline;overflow:visible;enable-background:accumulate"
       d="M 98,172 C 94.62972,167.28293 96.0533,159.02158 92.94684,152.91615 90.29363,144.40987 89.46486,143.02474 88.80962,134.5231 83.00249,119.09368 84.07287,115.91071 78.4182,106.23433 76.8166,98.82135 74.37,95.14107 70.5,86.5"
       id="path6496"
       inkscape:connector-curvature="0"
       sodipodi:nodetypes="ccccc" />
  </g>
  <g
     inkscape:label="Layer 1"
     inkscape:groupmode="layer"
     id="layer1">
    <path
       style="color:#000000;fill:none;stroke:#c87137;stroke-width:4;stroke-linecap:round;stroke-linejoin:round;stroke-miterlimit:4;stroke-opacity:1;stroke-dasharray:none;stroke-dashoffset:0;marker:none;visibility:visible;display:inline;overflow:visible;enable-background:accumulate"
       d="m 119.51529,264.10897 c 3.07974,-2.44895 0.58173,-4.4777 -2.78476,-4.71237 -2.40158,-0.1674 -2.66008,7.8624 -5.82733,9.23246 -2.82055,1.2201 -1.6168,4.48229 2.75228,5.26383"
       id="path5905"
       inkscape:connector-curvature="0"
       sodipodi:nodetypes="cssc" />
    <path
       style="color:#000000;fill:none;stroke:#c87137;stroke-width:4;stroke-linecap:round;stroke-linejoin:round;stroke-miterlimit:4;stroke-opacity:1;stroke-dasharray:none;stroke-dashoffset:0;marker:none;visibility:visible;display:inline;overflow:visible;enable-background:accumulate"
       d="m 126.9794,303.19854 c -4.55708,-0.8879 -3.44375,-4.59978 -0.27465,-6.42336 2.776,-1.59735 4.93203,-1.75149 8.14548,-4.44588 1.89639,2.44444 11.61333,-0.88229 13.49245,5.64161"
       id="path5907"
       inkscape:connector-curvature="0"
       sodipodi:nodetypes="sscc" />
    <path
       inkscape:connector-curvature="0"
       style="fill:none;stroke:#80ff00;stroke-width:3.99999976;stroke-linecap:round;stroke-linejoin:round;stroke-miterlimit:4;stroke-opacity:1;stroke-dasharray:none"
       d="m 162.5106,154.47174 c -0.36894,-1.79879 -2.48352,1.42566 -2.82907,-0.72706 -2.19161,-1.71598 -5.26269,-1.20327 -7.42908,-2.98978 -1.68494,-0.79991 -3.71005,-0.55001 -5.37663,-1.40474 -1.77977,-0.82547 -3.74505,-0.91167 -5.69585,-1.06884 -1.68024,-0.22495 -3.21209,-0.90387 -4.8379,-1.28535 -0.98918,-1.15191 -2.23743,-1.19164 -3.30257,-2.25653 -1.29031,-1.27776 -3.40054,-0.87454 -4.48995,-2.55812 0.31524,-0.84235 2.17012,-1.32139 3.09201,-2.0214 2.75527,-1.54245 5.51036,-3.08675 8.26628,-4.6252 1.74611,-0.38474 3.51404,-1.72749 5.21074,-1.33332 1.43611,-0.0965 2.86704,-0.9179 4.29331,-1.32838 1.56898,-0.65814 3.37628,-1.23547 5.02767,-1.729 1.69345,-0.71615 3.41223,-1.15194 5.06545,-2.26878 1.29633,-0.87199 2.9335,-1.93884 2.97791,0.50051 0.39212,1.66996 -0.49717,3.65414 -0.0955,5.33212 -0.0466,2.05906 0.43782,3.92475 -0.2707,6.20183 0.16968,2.08323 -0.11951,4.45707 0.41389,6.37268 -0.19482,1.91912 0.0574,3.81147 0.13747,5.61396 0.0793,0.43012 0.3721,1.21028 -0.15761,1.57526 z"
       id="path2942" />
    <path
       inkscape:connector-curvature="0"
       style="fill:none;stroke:#80ff00;stroke-width:3.99999952;stroke-linecap:round;stroke-linejoin:round;stroke-miterlimit:4;stroke-opacity:1;stroke-dasharray:none"
       d="m 270.2778,190.23266 c 1.65466,-3.00626 3.06446,-6.21327 6.06712,-8.34406 3.29448,-2.93295 6.38614,-6.10179 10.17591,-8.65861 2.02854,-1.95741 6.10586,-7.47838 5.67644,-2.02322 1.26302,4.31905 1.93798,8.5136 1.60749,12.67648 0.0699,4.38811 0.50378,9.3707 -0.28355,13.21448 -0.96979,0.82904 0.18525,2.11441 -0.59575,3.02763"
       id="path2956" />
    <path
       inkscape:connector-curvature="0"
       style="color:#000000;fill:none;stroke:#80ff00;stroke-width:4;stroke-linecap:round;stroke-linejoin:round;stroke-miterlimit:4;stroke-opacity:1;stroke-dasharray:none;stroke-dashoffset:0;marker:none;visibility:visible;display:inline;overflow:visible;enable-background:accumulate"
       d="m 299.32607,174.50363 c -1.50196,-2.88281 -2.93998,-4.35832 -5.60735,-5.56037 -2.76817,-1.24783 -5.34228,-2.88091 -8.00595,-4.46549 -2.93391,-1.74531 -6.97694,-3.60314 -10.2921,-5.44813 -4.14096,-2.30457 -7.54448,-5.15697 -11.80342,-7.38785 -5.19294,-2.72021 -11.02442,-4.30732 -16.59433,-6.35014 -2.80085,-1.02725 -5.65161,-1.77145 -8.38103,-3.04861 -2.10534,-0.98532 -6.56874,-3.47448 -7.76512,-4.95102"
       id="path2833"
       sodipodi:nodetypes="csssssss" />
    <path
       inkscape:connector-curvature="0"
       style="color:#000000;fill:none;stroke:#80ff00;stroke-width:3.99999952;stroke-linecap:round;stroke-linejoin:round;stroke-miterlimit:4;stroke-opacity:1;stroke-dasharray:none;stroke-dashoffset:0;marker:none;visibility:visible;display:inline;overflow:visible;enable-background:accumulate"
       d="m 233.18564,126.72003 c -0.50838,-0.90807 -4.15586,0.90568 -5.98922,1.16032 -1.48996,0.20697 -3.02643,0.18116 -4.46759,0.54465 -1.59848,0.40322 -3.14072,1.03261 -4.75515,1.36516 -2.42345,0.49926 -4.91076,0.75909 -7.37488,1.08712 -1.20468,0.16031 -2.37759,-0.19143 -3.46047,0.32826 -1.34479,0.646 -4.01627,0.39576 -4.19558,1.41529 -0.16668,0.94779 2.25302,1.55314 3.02959,2.66284 2.49597,3.56652 4.61058,3.48844 7.16141,4.71954 1.80067,0.86896 3.68176,0.9945 5.36988,2.01481 1.85123,1.11897 3.26395,2.77778 5.10079,3.92157 1.15582,0.71973 2.475,1.01486 3.65302,1.6449 1.76062,0.9416 1.14544,-1.38354 1.2238,-2.23495 0.14506,-1.57587 0.58676,-3.09965 0.81813,-4.66091 0.19992,-1.34937 1.01005,-2.5532 1.10095,-3.96147 0.0983,-1.52248 0.17941,-3.09732 0.63655,-4.54862 0.43767,-1.38947 0.97398,-2.7735 1.59401,-4.11603 0.30467,-0.65961 0.81141,-0.88403 0.55475,-1.34246 z"
       id="path2870"
       sodipodi:nodetypes="csssssssssssssssss" />
    <path
       inkscape:connector-curvature="0"
       style="fill:none;stroke:#80ff00;stroke-width:3.99999952;stroke-linecap:round;stroke-linejoin:round;stroke-miterlimit:4;stroke-opacity:1;stroke-dasharray:none"
       d="m 146.93896,135.06205 c 1.53936,-2.10414 5.68366,-11.8195 10.1106,-12.53287 5.748,-2.81439 9.24387,7.54834 11.58755,13.07838 1.69308,2.50137 7.00994,6.8007 2.89746,10.1977 -2.70505,2.10832 -3.03549,7.10011 -6.17626,12.07426 -3.06741,5.60942 -6.21972,5.68152 -9.89623,0.8676 -2.70694,-2.0285 -7.22633,-7.62758 -7.88198,-12.64291"
       id="path2956-7"
       sodipodi:nodetypes="ccccccc" />
    <path
       inkscape:connector-curvature="0"
       style="fill:none;stroke:#80ff00;stroke-width:3.99999952;stroke-linecap:round;stroke-linejoin:round;stroke-miterlimit:4;stroke-opacity:1;stroke-dasharray:none"
       d="m 135.82696,165.49209 c 0.5953,0.4886 3.26641,4.33043 4.85128,5.63139 4.9445,4.15435 5.63545,8.40383 12.38146,13.09443 4.19251,5.86062 6.38897,3.41114 7.55934,11.28921 -4.26415,3.02261 -7.85862,2.11459 -13.52582,4.50849 -7.62497,2.04935 -5.71525,0.99563 -13.19264,2.16909 -2.53796,-0.70888 -6.39844,1.2141 -12.82942,-0.77926"
       id="path2958-6"
       sodipodi:nodetypes="ccccccc" />
    <path
       style="color:#000000;fill:none;stroke:#80ff00;stroke-width:3.99999976;stroke-linecap:round;stroke-linejoin:round;stroke-miterlimit:4;stroke-opacity:1;stroke-dasharray:none;stroke-dashoffset:0;marker:none;visibility:visible;display:inline;overflow:visible;enable-background:accumulate"
       d="m 149.75118,191.04588 c 15.26012,5.70102 25.27296,7.05861 29.55535,-2.61762 4.76986,-10.77773 12.39045,-16.83281 6.99342,-29.61507 -2.42073,-5.73321 -14.8212,-17.69925 -22.04875,-16.9177"
       id="path3232"
       inkscape:connector-curvature="0"
       sodipodi:nodetypes="csss" />
    <g
       id="g6898"
       transform="matrix(-0.99509718,0.09890193,-0.09890193,-0.99509718,465.26881,351.88442)">
      <path
         sodipodi:nodetypes="ssss"
         inkscape:connector-curvature="0"
         id="path6851"
         d="m 260.10061,227.39164 c -4.88996,-2.16352 -6.60689,-2.21905 -11.68348,-4.60128 -6.34872,-2.97919 -8.15387,-3.10264 -12.75899,-4.75833 C 226.13152,214.60691 222.23201,214.30276 214.75,213"
         style="color:#000000;fill:none;stroke:#c87137;stroke-width:4;stroke-linecap:round;stroke-linejoin:round;stroke-miterlimit:4;stroke-opacity:1;stroke-dasharray:none;stroke-dashoffset:0;marker:none;visibility:visible;display:inline;overflow:visible;enable-background:accumulate" />
      <path
         sodipodi:nodetypes="ssss"
         inkscape:connector-curvature="0"
         id="path6856"
         d="m 213.5,212 c 3.52739,1.43799 -3.92305,3.68567 -9,-0.5 -4.61181,-3.80219 -7.5883,-9.97594 -6,-9 7.25265,4.45643 4.55455,5.24177 15,9.5 z"
         style="color:#000000;fill:none;stroke:#808080;stroke-width:4;stroke-linecap:round;stroke-linejoin:miter;stroke-miterlimit:4;stroke-opacity:1;stroke-dasharray:none;stroke-dashoffset:0;marker:none;visibility:visible;display:inline;overflow:visible;enable-background:accumulate" />
    </g>
    <path
       inkscape:connector-curvature="0"
       style="fill:none;stroke:#80ff00;stroke-width:3.99999952;stroke-linecap:round;stroke-linejoin:round;stroke-miterlimit:4;stroke-opacity:1;stroke-dasharray:none"
       d="m 236.5548,177.71046 c 0.21013,-0.57917 1.33889,-3.69102 1.89818,-5.23301 1.706,-4.87666 -0.047,-8.00325 0.93644,-14.59082 1.09529,-3.56165 1.47892,-11.44429 1.73906,-13.46657 -3.34277,2.33836 -6.58678,4.84131 -9.95188,7.13685 -4.84277,3.84934 -10.28014,6.49725 -16.93215,6.71759 -0.87125,-0.10148 -2.58041,-0.87004 -2.50227,0.75081"
       id="path2958" />
    <path
       inkscape:connector-curvature="0"
       style="color:#000000;fill:none;stroke:#80ff00;stroke-width:3.99999976;stroke-linecap:round;stroke-linejoin:round;stroke-miterlimit:4;stroke-opacity:1;stroke-dasharray:none;stroke-dashoffset:0;marker:none;visibility:visible;display:inline;overflow:visible;enable-background:accumulate"
       d="m 150.45817,191.2266 c -16.91651,-5.73711 -12.29463,-4.70763 -28.62595,-14.80428 -8.48229,-5.24414 -8.44006,-18.61171 -7.44891,-31.13155 1.14649,-14.48224 4.25849,-18.3401 17.42281,-23.50731 10.59964,-4.16045 22.0801,-9.12494 34.65246,-7.84222"
       id="path4125-8"
       sodipodi:nodetypes="cssss" />
    <path
       style="color:#000000;fill:none;stroke:#80ff00;stroke-width:4;stroke-linecap:round;stroke-linejoin:round;stroke-miterlimit:4;stroke-opacity:1;stroke-dasharray:none;stroke-dashoffset:0;marker:none;visibility:visible;display:inline;overflow:visible;enable-background:accumulate"
       d="m 300.04173,175.03618 c 6.86813,6.7453 14.14661,17.26089 8.34861,31.58736 -4.50354,11.12796 -13.83577,11.77574 -24.87366,14.82031 -8.07063,2.2261 -21.17662,10.34504 -28.14167,20.86198 -7.67328,11.58631 6.0479,21.70662 10.63474,29.17169"
       id="path3325"
       inkscape:connector-curvature="0"
       sodipodi:nodetypes="sssss" />
  </g>
</svg>
