<?xml version="1.0" encoding="UTF-8" standalone="no"?>
<!-- Created with Inkscape (http://www.inkscape.org/) -->

<svg
   xmlns:dc="http://purl.org/dc/elements/1.1/"
   xmlns:cc="http://creativecommons.org/ns#"
   xmlns:rdf="http://www.w3.org/1999/02/22-rdf-syntax-ns#"
   xmlns:svg="http://www.w3.org/2000/svg"
   xmlns="http://www.w3.org/2000/svg"
   xmlns:sodipodi="http://sodipodi.sourceforge.net/DTD/sodipodi-0.dtd"
   xmlns:inkscape="http://www.inkscape.org/namespaces/inkscape"
   width="480"
   height="320"
   id="svg2"
   version="1.1"
   inkscape:version="0.47 r22583"
   sodipodi:docname="itnas135.svg"
   inkscape:export-xdpi="90"
   inkscape:export-ydpi="90"
   style="display:inline"
   inkscape:export-filename="itnas135.png">
  <defs
     id="defs4" />
  <sodipodi:namedview
     id="base"
     pagecolor="#ffffff"
     bordercolor="#666666"
     borderopacity="1.0"
     inkscape:pageopacity="1"
     inkscape:pageshadow="2"
     inkscape:zoom="1"
     inkscape:cx="223.80141"
     inkscape:cy="212.70202"
     inkscape:document-units="px"
     inkscape:current-layer="layer1"
     showgrid="false"
     inkscape:snap-nodes="true"
     inkscape:snap-global="false"
     inkscape:snap-grids="false"
     showguides="true"
     inkscape:window-width="1280"
     inkscape:window-height="774"
     inkscape:window-x="1276"
     inkscape:window-y="1020"
     inkscape:window-maximized="1"
     inkscape:snap-midpoints="true"
     inkscape:object-paths="false"
     inkscape:object-nodes="false"
     inkscape:snap-smooth-nodes="true">
    <inkscape:grid
       empspacing="5"
       visible="true"
       enabled="true"
       snapvisiblegridlinesonly="true"
       type="xygrid"
       id="grid2816" />
  </sodipodi:namedview>
  <metadata
     id="metadata7">
    <rdf:RDF>
      <cc:Work
         rdf:about="">
        <dc:format>image/svg+xml</dc:format>
        <dc:type
           rdf:resource="http://purl.org/dc/dcmitype/StillImage" />
        <dc:title />
      </cc:Work>
    </rdf:RDF>
  </metadata>
  <g
     inkscape:label="Layer 1"
     inkscape:groupmode="layer"
     id="layer1"
     style="display:inline">
    <path
       inkscape:transform-center-y="11.735162"
       inkscape:transform-center-x="-45.437191"
       sodipodi:nodetypes="ccccc"
       d="M 71.33679,142.13903 41.411583,63.940648 87.623,137.20052 59.114059,58.435022 72.837407,75.710423"
       style="color:#000000;fill:none;stroke:#00b500;stroke-width:4;stroke-linecap:butt;stroke-linejoin:bevel;stroke-miterlimit:4;stroke-opacity:1;stroke-dasharray:none;stroke-dashoffset:0;marker:none;visibility:visible;display:inline;overflow:visible;enable-background:accumulate"
       id="path2887" />
    <g
       id="g2937"
       transform="matrix(0.28156957,-0.95954084,-0.95954084,-0.28156957,436.8043,263.92012)"
       inkscape:transform-center-x="-16.740696"
       inkscape:transform-center-y="0.50977996">
      <path
         id="path3028-1-1"
         d="m 206.19224,50.959145 -22.97456,0.002"
         style="color:#000000;fill:none;stroke:#0000ff;stroke-width:4;stroke-linecap:butt;stroke-linejoin:bevel;stroke-miterlimit:4;stroke-opacity:1;stroke-dasharray:none;stroke-dashoffset:0;marker:none;visibility:visible;display:inline;overflow:visible;enable-background:accumulate" />
      <path
         id="rect10452-0-7-5-7"
         d="m 199.99646,42.691859 -11.26117,0.06514"
         style="color:#000000;fill:none;stroke:#0000ff;stroke-width:3.99999976;stroke-linecap:butt;stroke-linejoin:bevel;stroke-miterlimit:4;stroke-opacity:1;stroke-dasharray:none;stroke-dashoffset:0;marker:none;visibility:visible;display:inline;overflow:visible;enable-background:accumulate" />
      <path
         sodipodi:nodetypes="cccc"
         d="m 208.30239,56.809746 c 0,0 -14.55766,-39.164967 -14.55766,-39.164967 l -12.23664,39.211847 26.7943,-0.04688 z"
         style="fill:none;stroke:#00ff00;stroke-width:2;stroke-linecap:butt;stroke-linejoin:miter;stroke-miterlimit:4;stroke-opacity:1;stroke-dasharray:none"
         id="path10399-9-40" />
    </g>
    <path
       style="fill:none;stroke:#00ff00;stroke-width:4;stroke-linecap:butt;stroke-linejoin:miter;stroke-miterlimit:4;stroke-opacity:1;stroke-dasharray:none;marker-start:none;marker-mid:none;marker-end:none"
       d="m 437.14992,60.898093 c 0,0 -6.63662,-2.653166 -18.47656,-3.809009 -22.86608,-2.23224 -46.69429,2.655553 -56.34634,24.477283 -10.74007,24.281563 -8.74721,47.481363 7.47975,68.663293 12.57951,16.42073 32.21656,28.09431 60.0322,31.45263"
       id="path2826-1-9"
       sodipodi:nodetypes="cssss" />
    <path
       style="fill:none;stroke:#0000ff;stroke-width:4;stroke-linecap:butt;stroke-linejoin:miter;stroke-miterlimit:4;stroke-opacity:1;stroke-dasharray:none"
       d="m 381.12243,75.090855 c -4.92844,-0.818136 -11.0793,-0.385872 -15.55042,-2.064492 -4.4711,-1.678619 -6.76008,-6.082133 -3.8879,-9.095174 2.87221,-3.01306 7.34526,-1.271461 9.74081,2.884633 2.39554,4.156079 1.52242,10.198709 1.93621,15.526095"
       id="path3030-6-8"
       sodipodi:nodetypes="czzzc" />
    <g
       id="g2942"
       transform="matrix(-0.24732817,-0.76080799,-0.76080799,0.24732817,520.97116,178.98126)">
      <path
         sodipodi:nodetypes="cc"
         id="rect10452-1-7-4-2-2"
         d="m 206.66319,105.19515 c -7.91409,4.26712 -8.11323,10.1635 -0.17602,15.48704"
         style="fill:none;stroke:#0000ff;stroke-width:5;stroke-linecap:butt;stroke-linejoin:miter;stroke-miterlimit:4;stroke-opacity:1;stroke-dasharray:none" />
      <path
         sodipodi:nodetypes="cc"
         id="rect10452-1-4-4-0-7-4"
         d="m 179.489,105.38873 c 8.38416,3.32675 8.29912,11.94162 0.0734,15.23703"
         style="fill:none;stroke:#0000ff;stroke-width:5;stroke-linecap:butt;stroke-linejoin:miter;stroke-miterlimit:4;stroke-opacity:1;stroke-dasharray:none" />
      <path
         id="rect10452-0-7-4-1-5"
         d="m 193.13509,122.31481 0.17678,-18.66053"
         style="fill:none;stroke:#0000ff;stroke-width:5;stroke-linecap:butt;stroke-linejoin:bevel;stroke-miterlimit:4;stroke-opacity:1;stroke-dasharray:none" />
    </g>
    <path
       id="path10436-7-5-1"
       style="fill:none;stroke:#00ff00;stroke-width:2;stroke-linecap:butt;stroke-linejoin:miter;stroke-miterlimit:2;stroke-opacity:1;stroke-dasharray:none"
       d="m 323.48698,125.21451 c 0,0 8.91722,-1.62447 8.91722,-1.62447 0,0 16.48218,-19.18203 16.48218,-19.18203 0,0 9.00402,-27.305885 9.00402,-27.305885 0,0 3.60413,2.634927 3.60409,2.635026 -4e-5,1.08e-4 -3.57309,-2.611311 -3.57309,-2.611311 0,0 -29.6369,-11.972938 -29.6369,-11.972938 0,0 -15.73962,-19.328486 -15.73962,-19.328486 0,0 1.38564,-8.663338 1.38564,-8.663338"
       sodipodi:nodetypes="ccccccccc"
       inkscape:transform-center-x="14.476597"
       inkscape:transform-center-y="-6.2808456" />
    <path
       id="path5165"
       style="fill:none;stroke:#00ff00;stroke-width:2;stroke-linecap:butt;stroke-linejoin:miter;stroke-miterlimit:2;stroke-opacity:1;stroke-dasharray:none"
       d="m 431.8959,6.6079147 -8.99025,1.0919942 -8.45615,19.9783971 c 0,0 4.83263,25.046102 4.83263,25.046102 0,0 -0.60877,4.364676 -0.60877,4.364676 0,0 0.60877,-4.364676 0.60877,-4.364676 0,0 11.32012,20.364995 11.32012,20.364995 l 16.75722,13.242303 8.81651,-1.124693"
       sodipodi:nodetypes="ccccccccc" />
    <path
       style="fill:none;stroke:#00ff00;stroke-width:4;stroke-linecap:butt;stroke-linejoin:miter;stroke-miterlimit:4;stroke-opacity:1;stroke-dasharray:none;marker-start:none;marker-mid:none;marker-end:none"
       d="m 67.864683,54.100514 c 0.25,5.5 1.53205,13.51091 6.01603,24.11868 10.25614,24.263006 15.428622,48.514066 41.449327,64.962416 17.86986,11.296 57.35171,6.04433 82.16521,-10.54853 21.49388,-14.37302 47.5914,-30.33303 102.17228,-42.954696"
       id="path2826-1"
       sodipodi:nodetypes="cssss" />
    <path
       sodipodi:nodetypes="cc"
       id="rect10452-1-7"
       d="m 67.932127,106.33521 c 9.58276,2.46458 18.33392,-0.2049 25.173252,-14.677597"
       style="fill:none;stroke:#0000ff;stroke-width:4;stroke-linecap:butt;stroke-linejoin:miter;stroke-miterlimit:4;stroke-opacity:1;stroke-dasharray:none" />
    <path
       sodipodi:nodetypes="cc"
       id="rect10452-1-4-4"
       d="m 76.593927,120.90049 c 4.42814,-10.93296 13.808492,-16.44506 25.173253,-14.6776"
       style="fill:none;stroke:#0000ff;stroke-width:4;stroke-linecap:butt;stroke-linejoin:miter;stroke-miterlimit:4;stroke-opacity:1;stroke-dasharray:none" />
    <path
       id="path10402-6-4"
       style="fill:none;stroke:#00ff00;stroke-width:2px;stroke-linecap:butt;stroke-linejoin:miter;stroke-opacity:1"
       d="m 176.37819,108.60904 1.15587,10.62817 -25.11253,16.50917 -31.601,-5.13833 -10.98098,25.14712 c 0,0 25.04317,23.56478 25.04317,23.56478 l -8.76292,31.25266 -11.86583,1.65442"
       sodipodi:nodetypes="cccccccc"
       inkscape:transform-center-x="-8.8187506"
       inkscape:transform-center-y="-0.3504997" />
    <path
       id="rect10452-1-8-0"
       style="fill:none;stroke:#0000ff;stroke-width:4;stroke-linecap:butt;stroke-linejoin:miter;stroke-miterlimit:4;stroke-opacity:1;stroke-dasharray:none"
       d="m 85.591297,132.96602 8.441622,10.98592 c 3.729061,-12.85723 9.765251,-16.9002 21.211251,-19.51008 l -8.37857,-9.30478 c -11.946381,1.73057 -18.024671,7.0031 -21.274303,17.82894 z"
       sodipodi:nodetypes="ccccc" />
    <g
       id="g5105"
       transform="matrix(0.71775412,0.69629666,0.69629666,-0.71775412,15.545607,327.17575)"
       inkscape:transform-center-x="-0.14737983"
       inkscape:transform-center-y="-18.797269">
      <path
         sodipodi:nodetypes="cccc"
         id="rect10452-0"
         d="m -166.66849,234.65423 c 0,0 10.22266,11.83455 10.22266,11.83455 l 3.85669,-14.05831 -14.07935,2.22376 z"
         style="fill:none;stroke:#0000ff;stroke-width:4;stroke-linecap:butt;stroke-linejoin:bevel;stroke-miterlimit:4;stroke-opacity:1;stroke-dasharray:none" />
      <path
         sodipodi:nodetypes="cccc"
         d="m -161.0302,222.47032 c 0,0 -20.02029,35.50838 -20.02029,35.50838 l 38.86945,-16.48882 c 0,0 -16.47094,-16.87381 -18.84916,-19.01956 z"
         style="fill:none;stroke:#00ff00;stroke-width:2;stroke-linecap:butt;stroke-linejoin:miter;stroke-miterlimit:4;stroke-opacity:1;stroke-dasharray:none"
         id="path10399-9" />
    </g>
    <path
       id="path10436-7"
       style="fill:none;stroke:#00ff00;stroke-width:2px;stroke-linecap:butt;stroke-linejoin:miter;stroke-opacity:1;display:inline"
       d="m 8.017117,89.929083 31.1267,8.11457 c 0,0 26.35006,-14.88614 26.35006,-14.88614 l 8.37478,-3.63459 -8.41055,4.37664 -25.6715,20.700937 -35.4828204,6.79431"
       sodipodi:nodetypes="ccccccc" />
    <path
       style="fill:none;stroke:#000000;stroke-width:4;stroke-linecap:butt;stroke-linejoin:miter;stroke-miterlimit:4;stroke-opacity:1;stroke-dasharray:none"
       d="m -10,215 500,0"
       id="path5125"
       sodipodi:nodetypes="cc" />
    <path
       style="fill:none;stroke:#000000;stroke-width:2;stroke-linecap:butt;stroke-linejoin:miter;stroke-opacity:1;stroke-miterlimit:4;stroke-dasharray:none"
       d="m 35,225 0,90"
       id="path5127" />
    <path
       style="fill:none;stroke:#000000;stroke-width:2;stroke-linecap:butt;stroke-linejoin:miter;stroke-opacity:1;stroke-miterlimit:4;stroke-dasharray:none"
       d="m 30,310 445,0"
       id="path5129"
       sodipodi:nodetypes="cc" />
    <path
       style="fill:none;stroke:#000000;stroke-width:2;stroke-linecap:butt;stroke-linejoin:miter;stroke-miterlimit:4;stroke-opacity:1;stroke-dasharray:1,1;stroke-dashoffset:0"
       d="m 30,305 435,0"
       id="path5131"
       sodipodi:nodetypes="cc" />
    <path
       id="path5133"
       d="m 30,290 435,0"
       style="fill:none;stroke:#000000;stroke-width:2;stroke-linecap:butt;stroke-linejoin:miter;stroke-miterlimit:4;stroke-opacity:1;stroke-dasharray:1,1;stroke-dashoffset:0"
       sodipodi:nodetypes="cc" />
    <path
       style="fill:none;stroke:#000000;stroke-width:2;stroke-linecap:butt;stroke-linejoin:miter;stroke-miterlimit:4;stroke-opacity:1;stroke-dasharray:1,1;stroke-dashoffset:0"
       d="m 30,275 435,0"
       id="path5137"
       sodipodi:nodetypes="cc" />
    <path
       id="path5139"
       d="m 30,260 435,0"
       style="fill:none;stroke:#000000;stroke-width:2;stroke-linecap:butt;stroke-linejoin:miter;stroke-miterlimit:4;stroke-opacity:1;stroke-dasharray:1,1;stroke-dashoffset:0"
       sodipodi:nodetypes="cc" />
    <path
       style="fill:none;stroke:#000000;stroke-width:2;stroke-linecap:butt;stroke-linejoin:miter;stroke-miterlimit:4;stroke-opacity:1;stroke-dasharray:1,1;stroke-dashoffset:0"
       d="m 30,245 435,0"
       id="path5143"
       sodipodi:nodetypes="cc" />
    <path
       style="fill:none;stroke:#000000;stroke-width:2;stroke-linecap:butt;stroke-linejoin:miter;stroke-opacity:1;stroke-miterlimit:4;stroke-dasharray:none"
       d="m 30,230 5,-5 5,5"
       id="path5147" />
    <path
       style="fill:none;stroke:#000000;stroke-width:2;stroke-linecap:butt;stroke-linejoin:miter;stroke-opacity:1;stroke-miterlimit:4;stroke-dasharray:none"
       d="m 470,305 5,5 -5,5"
       id="path5149" />
    <path
       style="fill:none;stroke:#000000;stroke-width:2;stroke-linecap:butt;stroke-linejoin:miter;stroke-opacity:1;stroke-miterlimit:4;stroke-dasharray:none"
       d="m 35,305 60,0 0,-10 45,0 0,10 70,0 0,-10 45,0 0,10 130,0 0,-10 35,0 0,10 45,0"
       id="path5151"
       sodipodi:nodetypes="cccccccccccccc" />
    <path
       style="fill:none;stroke:#000000;stroke-width:2;stroke-linecap:butt;stroke-linejoin:miter;stroke-opacity:1;stroke-miterlimit:4;stroke-dasharray:none"
       d="m 35,260 30,0 0,-10 45,0 0,10 30,0 0,-10 30,0 0,10 30,0 0,-10 65,0 0,10 20,0 0,-10 25,0 0,10 60,0 0,-10 40,0 0,10 20,0 0,-10 20,0 0,10 15,0"
       id="path5153"
       sodipodi:nodetypes="cccccccccccccccccccccccccc" />
    <path
       style="fill:none;stroke:#000000;stroke-width:2;stroke-linecap:butt;stroke-linejoin:miter;stroke-opacity:1;stroke-miterlimit:4;stroke-dasharray:none"
       d="m 35,290 30,0 0,-10 40,0 0,10 25,0 0,-10 c 0,0 30,0 30,0 l 0,10 60,0 0,-10 10,0 0,10 40,0 0,-10 20,0 0,10 55,0 0,-10 20,0 0,10 65,0 0,-10 15,0 0,10 10,0 0,-10 10,0"
       id="path5157"
       sodipodi:nodetypes="cccccccccccccccccccccccccccc" />
    <path
       style="fill:none;stroke:#000000;stroke-width:2;stroke-linecap:butt;stroke-linejoin:miter;stroke-opacity:1;stroke-miterlimit:4;stroke-dasharray:none"
       d="m 35,275 10,0 0,-10 40,0 0,10 10,0 0,-10 5,0 0,10 70,0 0,-10 55,0 0,10 15,0 0,-10 70,0 0,10 10,0 0,-10 20,0 0,10 20,0 0,-10 50,0 0,10 15,0 0,-10 30,0 0,10 10,0"
       id="path5159"
       sodipodi:nodetypes="cccccccccccccccccccccccccccccc" />
    <path
       style="fill:none;stroke:#000000;stroke-width:2;stroke-linecap:butt;stroke-linejoin:miter;stroke-opacity:1;stroke-miterlimit:4;stroke-dasharray:none"
       d="m 35,245 5,0 0,-10 40,0 0,10 10,0 0,-10 90,0 0,10 10,0 0,-10 30,0 0,10 35,0 0,-10 15,0 0,10 35,0 0,-10 160,0"
       id="path5161"
       sodipodi:nodetypes="cccccccccccccccccccc" />
    <rect
       style="color:#000000;fill:none;stroke:#000000;stroke-width:2;stroke-linecap:butt;stroke-linejoin:miter;stroke-miterlimit:4;stroke-opacity:1;stroke-dasharray:none;stroke-dashoffset:0;marker:none;visibility:visible;display:inline;overflow:visible;enable-background:accumulate"
       id="rect5165"
       width="10"
       height="10.000033"
       x="5"
       y="235" />
    <rect
       y="249.99997"
       x="5"
       height="10.000033"
       width="10"
       id="rect5169"
       style="color:#000000;fill:none;stroke:#000000;stroke-width:2;stroke-linecap:butt;stroke-linejoin:miter;stroke-miterlimit:4;stroke-opacity:1;stroke-dasharray:none;stroke-dashoffset:0;marker:none;visibility:visible;display:inline;overflow:visible;enable-background:accumulate" />
    <rect
       y="249.99997"
       x="15"
       height="10"
       width="10"
       id="rect5171"
       style="color:#000000;fill:none;stroke:#000000;stroke-width:2;stroke-linecap:butt;stroke-linejoin:miter;stroke-miterlimit:4;stroke-opacity:1;stroke-dasharray:none;stroke-dashoffset:0;marker:none;visibility:visible;display:inline;overflow:visible;enable-background:accumulate" />
    <rect
       y="265"
       x="15"
       height="10"
       width="10"
       id="rect5175"
       style="color:#000000;fill:none;stroke:#000000;stroke-width:2;stroke-linecap:butt;stroke-linejoin:miter;stroke-miterlimit:4;stroke-opacity:1;stroke-dasharray:none;stroke-dashoffset:0;marker:none;visibility:visible;display:inline;overflow:visible;enable-background:accumulate" />
    <rect
       style="color:#000000;fill:none;stroke:#000000;stroke-width:2;stroke-linecap:butt;stroke-linejoin:miter;stroke-miterlimit:4;stroke-opacity:1;stroke-dasharray:none;stroke-dashoffset:0;marker:none;visibility:visible;display:inline;overflow:visible;enable-background:accumulate"
       id="rect5179"
       width="10"
       height="10"
       x="15"
       y="279.99997" />
    <rect
       y="294.99997"
       x="5"
       height="10.000033"
       width="10"
       id="rect5181"
       style="color:#000000;fill:none;stroke:#000000;stroke-width:2;stroke-linecap:butt;stroke-linejoin:miter;stroke-miterlimit:4;stroke-opacity:1;stroke-dasharray:none;stroke-dashoffset:0;marker:none;visibility:visible;display:inline;overflow:visible;enable-background:accumulate" />
    <rect
       y="294.99997"
       x="15"
       height="10"
       width="10"
       id="rect5183"
       style="color:#000000;fill:none;stroke:#000000;stroke-width:2;stroke-linecap:butt;stroke-linejoin:miter;stroke-miterlimit:4;stroke-opacity:1;stroke-dasharray:none;stroke-dashoffset:0;marker:none;visibility:visible;display:inline;overflow:visible;enable-background:accumulate" />
    <path
       style="fill:none;stroke:#000000;stroke-width:4;stroke-linecap:butt;stroke-linejoin:miter;stroke-opacity:1;color:#000000;stroke-miterlimit:4;stroke-dasharray:none;stroke-dashoffset:0;marker:none;visibility:visible;display:inline;overflow:visible;enable-background:accumulate"
       d="m 305,-5 0,220"
       id="path5185"
       sodipodi:nodetypes="cc" />
    <path
       id="path3469"
       style="color:#000000;fill:none;stroke:#00b500;stroke-width:4;stroke-linecap:butt;stroke-linejoin:bevel;stroke-miterlimit:4;stroke-opacity:1;stroke-dasharray:none;stroke-dashoffset:0;marker:none;visibility:visible;display:inline;overflow:visible;enable-background:accumulate"
       d="M 163.71179,88.13903 88.536583,50.440648 126.248,124.45052 75.239059,54.685022 72.837407,75.710423"
       sodipodi:nodetypes="ccccc"
       inkscape:transform-center-x="-45.437191"
       inkscape:transform-center-y="11.735162" />
  </g>
  <g
     inkscape:groupmode="layer"
     id="layer3"
     inkscape:label="tmp2"
     style="display:none">
    <path
       style="fill:none;stroke:#000000;stroke-width:1px;stroke-linecap:butt;stroke-linejoin:miter;stroke-opacity:1"
       d="M 341.14223,80.502583 327.99937,55.728293"
       id="path5132" />
    <path
       style="fill:none;stroke:#000000;stroke-width:1px;stroke-linecap:butt;stroke-linejoin:miter;stroke-opacity:1"
       d="m 362.70422,93.864813 -21.92804,-13.2396"
       id="path5130" />
    <path
       style="fill:none;stroke:#000000;stroke-width:1px;stroke-linecap:butt;stroke-linejoin:miter;stroke-opacity:1"
       d="m 362.43462,94.124603 23.42346,5.18692"
       id="path5128" />
    <path
       style="fill:none;stroke:#000000;stroke-width:1px;stroke-linecap:butt;stroke-linejoin:miter;stroke-opacity:1"
       d="m 385.91437,99.324713 26.10311,-4.43032"
       id="path5126" />
    <path
       style="fill:none;stroke:#000000;stroke-width:1px;stroke-linecap:butt;stroke-linejoin:miter;stroke-opacity:1;display:inline"
       d="m 381.02685,84.961203 -14.50257,10.17291"
       id="path4234" />
    <path
       style="fill:none;stroke:#000000;stroke-width:1px;stroke-linecap:butt;stroke-linejoin:miter;stroke-opacity:1;display:inline"
       d="M 347.93892,154.71043 366.52335,95.177403"
       id="path4236" />
    <path
       style="fill:none;stroke:#000000;stroke-width:1px;stroke-linecap:butt;stroke-linejoin:miter;stroke-opacity:1;display:inline"
       d="m 390.76389,190.62607 -41.62724,-36.4647"
       id="path4238" />
    <path
       style="fill:none;stroke:#000000;stroke-width:1px;stroke-linecap:butt;stroke-linejoin:miter;stroke-opacity:1;display:inline"
       d="m 436.49821,193.34009 -45.84047,-3.19597"
       id="path4240" />
    <path
       style="fill:none;stroke:#000000;stroke-width:1px;stroke-linecap:butt;stroke-linejoin:miter;stroke-opacity:1;display:inline"
       d="m 469.16967,170.31036 -33.91712,22.80773"
       id="path4243" />
    <path
       style="fill:none;stroke:#000000;stroke-width:1px;stroke-linecap:butt;stroke-linejoin:miter;stroke-opacity:1;display:inline"
       d="m 355.98964,179.69655 4.40255,31.11604"
       id="path4300"
       inkscape:transform-center-x="-27.855163"
       inkscape:transform-center-y="24.88001" />
    <path
       style="fill:none;stroke:#000000;stroke-width:1px;stroke-linecap:butt;stroke-linejoin:miter;stroke-opacity:1;display:inline"
       d="m 341.96925,155.0162 14.14416,24.64942"
       id="path4302"
       inkscape:transform-center-x="-6.2891729"
       inkscape:transform-center-y="12.289528" />
    <path
       style="fill:none;stroke:#000000;stroke-width:1px;stroke-linecap:butt;stroke-linejoin:miter;stroke-opacity:1;display:inline"
       d="m 283.52914,168.11269 29.5388,1.08466"
       id="path4304"
       sodipodi:nodetypes="cc"
       inkscape:transform-center-x="32.796284"
       inkscape:transform-center-y="26.500632" />
    <path
       style="fill:none;stroke:#000000;stroke-width:1px;stroke-linecap:butt;stroke-linejoin:miter;stroke-opacity:1;display:inline"
       d="m 341.49883,154.78974 -28.4548,14.57563"
       id="path4306"
       inkscape:transform-center-x="14.842686"
       inkscape:transform-center-y="6.7128245" />
    <path
       style="fill:none;stroke:#55ffdd;stroke-width:1px;stroke-linecap:butt;stroke-linejoin:miter;stroke-opacity:1;display:inline"
       d="m 324.22692,56.739543 c -0.66055,0.0902 -1.32108,0.18031 -1.98163,0.27046 -0.16514,0.0225 -0.33162,0.0984 -0.49541,0.0676 -0.36624,-0.069 -0.68797,-0.31951 -1.05843,-0.36018 -0.76693,-0.0842 -2.16674,0.4555 -2.97244,0.40569 -0.52604,-0.0325 -1.0268,-0.28926 -1.55384,-0.29256 -0.66666,-0.004 -1.32108,0.1803 -1.98162,0.27046 -1.32109,0.1803 -2.64218,0.36061 -3.96326,0.54091 -0.82568,0.1127 -1.65136,0.22539 -2.47704,0.33808 -0.4954,0.0676 -1.0137,0.0393 -1.48622,0.20284 -0.3522,0.12185 -0.57719,0.49219 -0.9232,0.63064 -0.77369,0.30958 -1.68949,0.0656 -2.47703,0.33807 -0.3522,0.12185 -0.571,0.5088 -0.9232,0.63064 -0.47252,0.1635 -0.99082,0.13523 -1.48622,0.20284 -1.65136,0.22539 -3.30272,0.45077 -4.95408,0.67615 -0.33026,0.0451 -0.6758,0.0262 -0.99081,0.13523 -0.49809,0.1723 -0.93607,0.48626 -1.41861,0.69825 -0.62914,0.2764 -1.28487,0.48947 -1.91401,0.76587 -0.48254,0.21199 -0.91173,0.55384 -1.41861,0.69825 -0.64115,0.18268 -1.32108,0.18031 -1.98163,0.27046 -1.81649,0.24792 -3.63298,0.49584 -5.44947,0.74376 -0.82568,0.11269 -1.6895,0.0657 -2.47704,0.33808 -0.84821,0.29342 -1.49359,1.03547 -2.34181,1.32889 -0.90353,0.31255 -3.43859,0.31791 -4.45866,0.60853 -0.50688,0.14437 -0.93607,0.48626 -1.41861,0.69825 -1.25829,0.55281 -2.59493,0.9248 -3.82802,1.53173 -0.33437,0.16458 -0.58884,0.46606 -0.9232,0.63064 -0.61655,0.30347 -1.30913,0.43978 -1.91402,0.76587 -0.6561,0.35368 -1.1903,0.90759 -1.8464,1.26127 -0.60489,0.32608 -1.28487,0.48947 -1.91401,0.76586 -5.62665,2.47196 5.42951,-2.00851 -4.32344,1.59935 -1.95203,0.72211 -1.17477,0.83274 -3.265,1.95953 -1.20978,0.65216 -2.56974,0.97892 -3.82803,1.53173 -0.48253,0.21199 -0.91173,0.55384 -1.41861,0.69825 -0.64115,0.18268 -1.33736,0.0991 -1.98162,0.27046 -0.58143,0.15465 -2.69482,1.08133 -3.33262,1.46412 -0.6391,0.38356 -1.16801,0.95252 -1.8464,1.26127 -0.92273,0.41995 -1.98211,0.48115 -2.90483,0.9011 -0.015,0.007 -3.64035,2.4901 -3.6928,2.52254 -0.76334,0.47209 -1.55176,0.903 -2.34181,1.32889 -0.46393,0.2501 -0.98341,0.40097 -1.4186,0.69825 -0.4962,0.33896 -0.83574,0.88442 -1.35099,1.19366 -0.58922,0.35363 -1.32481,0.41224 -1.91402,0.76587 -0.51525,0.30924 -0.83574,0.88442 -1.35099,1.19366 -0.58921,0.35362 -1.34658,0.37825 -1.91401,0.76586 -0.38926,0.26591 -0.50232,0.81392 -0.85559,1.12605 -0.55856,0.49352 -1.23093,0.84085 -1.8464,1.26127 -1.53867,1.05106 -3.03948,2.15979 -4.616,3.15318 -0.75935,0.47849 -1.61922,0.79651 -2.3418,1.32889 -0.96758,0.71291 -1.70957,1.70941 -2.70199,2.38732 -0.56743,0.38761 -1.29746,0.46239 -1.91401,0.765867 -0.10024,0.0493 -2.66603,1.4303 -3.265,1.95952 -0.62451,0.55177 -1.09067,1.28663 -1.77879,1.75668 -0.8704,0.59457 -1.92044,0.87627 -2.83721,1.39651 -0.64826,0.36786 -1.1903,0.90759 -1.8464,1.26127 -0.60489,0.32608 -1.3248,0.41224 -1.91401,0.76586 -4.75371,2.85299 2.67295,-0.5913 -3.1974,2.45494 -1.54448,0.80146 -3.3144,1.18088 -4.75122,2.16237 -0.77851,0.5318 -1.05207,1.57793 -1.71117,2.25208 -0.67938,0.6949 -1.51613,1.2162 -2.27419,1.8243 -0.75806,0.6081 -1.47172,1.27613 -2.2742,1.82429 -0.74111,0.50627 -1.62337,0.79092 -2.3418,1.32889 -0.66704,0.49949 -1.09067,1.28663 -1.77879,1.75668 -0.56743,0.38762 -1.30912,0.43979 -1.91401,0.76587 -1.3122,0.70737 -2.42495,1.73845 -3.6928,2.52255 -0.76334,0.47208 -1.57846,0.8568 -2.3418,1.32888 -0.63392,0.39205 -1.17766,0.93212 -1.8464,1.26128 -0.76248,0.3753 -1.64694,0.45818 -2.40942,0.83348 -0.66874,0.32916 -1.20731,0.87772 -1.8464,1.26127 -1.57218,0.94355 -1.53293,0.57829 -3.33262,1.46412 -0.33437,0.16458 -0.56725,0.52022 -0.9232,0.63064 -1.27347,0.39504 -2.68095,0.17559 -3.96326,0.54092 -0.50688,0.14437 -0.90927,0.56276 -1.41861,0.69825 -0.80532,0.21423 -1.65136,0.22538 -2.47703,0.33807 -0.35432,0.0484 -4.3878,0.59886 -4.45867,0.60853 -3.79811,0.51838 -7.59624,1.03676 -11.39436,1.55514 -2.64218,0.36062 -5.28434,0.72123 -7.9265,1.08184 -0.31245,0.0426 -3.78318,0.58588 -3.96326,0.54092 -0.45735,-0.11428 -0.67977,-0.70372 -1.12605,-0.85559 -0.31556,-0.10738 -0.65811,0.15583 -0.99081,0.13523 -0.52604,-0.0325 -1.03215,-0.21763 -1.55384,-0.29256 -0.6802,-0.0977 -1.37909,-0.0729 -2.04924,-0.22495 -0.72689,-0.16493 -1.41125,-0.48024 -2.11686,-0.72035 -0.35281,-0.12006 -0.71587,-0.21342 -1.05843,-0.36018 -0.55237,-0.23665 -1.05257,-0.59438 -1.62145,-0.78797 -0.49895,-0.16979 -1.10154,-0.022 -1.55384,-0.29256 -0.5157,-0.3085 -0.71518,-0.98744 -1.19366,-1.35099 -0.29674,-0.22547 -0.73279,-0.17894 -1.05843,-0.36018 -1.41229,-0.78601 -1.05896,-1.05445 -2.3197,-2.20658 -0.52198,-0.477 -1.12604,-0.85558 -1.68907,-1.28338 -0.37534,-0.28519 -0.72149,-0.61358 -1.12604,-0.85558 -0.5157,-0.3085 -1.14297,-0.42442 -1.62145,-0.78797 -1.58501,-1.20431 -1.6332,-1.87686 -2.95034,-3.12978 -0.34156,-0.3249 -0.77806,-0.53758 -1.12604,-0.85558 -1.682341,-1.5374 -2.530101,-2.73571 -4.144001,-4.48077 -0.56582,-0.61179 -1.22351,-1.13833 -1.75668,-1.77878 -3.14,-3.77179 0.18614,-0.12391 -1.95953,-3.26501 -2.063272,-3.02046 -0.24283,0.35349 -2.882722,-2.63437 -0.34897,-0.39496 -0.4655,-0.94574 -0.69825,-1.4186 -0.39789,-0.45034 -0.75826,-0.93683 -1.19366,-1.351 -0.34156,-0.3249 -0.86015,-0.46632 -1.12605,-0.85558 -0.38761,-0.56744 -0.43978,-1.30912 -0.76586,-1.91401 -0.35369,-0.6561 -0.89342,-1.19814 -1.26128,-1.8464 -0.52023,-0.91677 -0.931,-1.89148 -1.3965,-2.837217 -0.23275,-0.47287 -0.48626,-0.93607 -0.69825,-1.4186 -0.2764,-0.62915 -0.4624,-1.29747 -0.76587,-1.91402 -0.39636,-0.80527 -0.93253,-1.53654 -1.32889,-2.3418 -0.30346,-0.61655 -0.51057,-1.27601 -0.76586,-1.91402 -1.86779,-4.66788 0.43108,1.16532 -1.59935,-4.32343 -0.23842,-0.6445 -0.43978,-1.30913 -0.76587,-1.91402 -0.73848,-1.36991 -1.51199,-1.82232 -1.95952,-3.265 -0.14814,-0.47756 -0.0659,-1.00536 -0.20285,-1.48622 -0.18828,-0.66089 -0.52744,-1.26952 -0.76586,-1.91402 -0.29485,-0.79705 -0.55565,-1.60628 -0.83348,-2.40942 -0.27783,-0.80313 -0.43772,-1.65736 -0.83348,-2.40942 -0.52066,-0.9894 -1.32629,-1.8052 -1.89191,-2.7696 -2.2367,-3.81361 -0.70672,-1.76618 -2.2976,-5.74204 -0.13845,-0.346 -0.46606,-0.58883 -0.63064,-0.9232 -0.30347,-0.61654 -0.48946,-1.28487 -0.76586,-1.91401 -0.212,-0.48254 -0.52596,-0.92052 -0.69826,-1.41861 -0.10897,-0.31502 -0.0365,-0.67244 -0.13523,-0.99081 -0.40719,-1.31267 -1.15516,-2.50625 -1.53173,-3.82803 -0.13699,-0.48086 -0.0743,-1.00303 -0.20284,-1.48622 -0.21848,-0.82127 -0.62628,-1.58523 -0.83348,-2.40942 -0.16255,-0.64655 -0.18031,-1.32109 -0.27046,-1.98163 -0.27783,-0.80314 -0.61501,-1.58815 -0.83348,-2.40942 -0.12855,-0.4832 -0.0659,-1.00536 -0.20285,-1.48622 -0.91352,-3.20653 -0.51843,-0.69525 -2.02714,-3.76042 -3.01336,-6.12212 2.03285,1.78665 -2.72539,-5.17902"
       id="path5095" />
    <path
       style="fill:none;stroke:#000000;stroke-width:1px;stroke-linecap:butt;stroke-linejoin:miter;stroke-opacity:1;display:inline"
       d="m 176.7117,138.84844 50.27965,-34.36505"
       id="path3785"
       sodipodi:nodetypes="cc" />
    <path
       style="fill:none;stroke:#000000;stroke-width:1px;stroke-linecap:butt;stroke-linejoin:miter;stroke-opacity:1;display:inline"
       d="m 175.87041,139.10689 -54.92342,4.17354"
       id="path3787"
       sodipodi:nodetypes="cc" />
    <path
       style="fill:none;stroke:#000000;stroke-width:1px;stroke-linecap:butt;stroke-linejoin:miter;stroke-opacity:1;display:inline"
       d="M 306.28456,69.444633 227.21025,104.13262"
       id="path3789"
       sodipodi:nodetypes="cc" />
    <path
       style="fill:none;stroke:#000000;stroke-width:1px;stroke-linecap:butt;stroke-linejoin:miter;stroke-opacity:1;display:inline"
       d="M 120.30728,141.79612 78.916407,80.320143"
       id="path3791" />
    <path
       style="fill:none;stroke:#000000;stroke-width:1px;stroke-linecap:butt;stroke-linejoin:miter;stroke-opacity:1;display:inline"
       d="m 78.788017,79.669173 -7.69258,-23.90237"
       id="path3793" />
    <path
       style="fill:none;stroke:#000000;stroke-width:1px;stroke-linecap:butt;stroke-linejoin:miter;stroke-opacity:1;display:inline"
       d="M 71.192897,83.985643 45.010967,104.50407"
       id="path3829" />
    <path
       style="fill:none;stroke:#000000;stroke-width:1px;stroke-linecap:butt;stroke-linejoin:miter;stroke-opacity:1;display:inline"
       d="M 9.0445466,111.42323 44.563477,104.78774"
       id="path3831" />
    <path
       style="fill:none;stroke:#000000;stroke-width:1px;stroke-linecap:butt;stroke-linejoin:miter;stroke-opacity:1;display:inline"
       d="m 128.53047,220.0382 11.27409,-40.70804"
       id="path3833" />
    <path
       style="fill:none;stroke:#000000;stroke-width:1px;stroke-linecap:butt;stroke-linejoin:miter;stroke-opacity:1;display:inline"
       d="M 140.23317,178.75408 114.34803,155.15143"
       id="path3835" />
    <path
       style="fill:none;stroke:#000000;stroke-width:1px;stroke-linecap:butt;stroke-linejoin:miter;stroke-opacity:1;display:inline"
       d="m 157.41141,135.83548 -31.46835,-5.19551"
       id="path3837" />
    <path
       style="fill:none;stroke:#000000;stroke-width:1px;stroke-linecap:butt;stroke-linejoin:miter;stroke-opacity:1;display:inline"
       d="M 189.50206,114.37228 157.8543,135.84422"
       id="path3839" />
    <path
       style="fill:none;stroke:#000000;stroke-width:1px;stroke-linecap:butt;stroke-linejoin:miter;stroke-opacity:1;display:inline"
       d="m 12.846727,90.029373 31.47822,7.88174"
       id="path3841" />
    <path
       style="fill:none;stroke:#000000;stroke-width:1px;stroke-linecap:butt;stroke-linejoin:miter;stroke-opacity:1;display:inline"
       d="m 45.154227,97.053663 25.44957,-13.87694"
       id="path3844" />
  </g>
</svg>
