<?xml version="1.0" encoding="UTF-8" standalone="no"?>
<!-- Created with Inkscape (http://www.inkscape.org/) -->

<svg
   xmlns:dc="http://purl.org/dc/elements/1.1/"
   xmlns:cc="http://creativecommons.org/ns#"
   xmlns:rdf="http://www.w3.org/1999/02/22-rdf-syntax-ns#"
   xmlns:svg="http://www.w3.org/2000/svg"
   xmlns="http://www.w3.org/2000/svg"
   xmlns:sodipodi="http://sodipodi.sourceforge.net/DTD/sodipodi-0.dtd"
   xmlns:inkscape="http://www.inkscape.org/namespaces/inkscape"
   width="480"
   height="320"
   id="svg2"
   version="1.1"
   inkscape:version="0.48.0 r9654"
   sodipodi:docname="itnas394.svg"
   inkscape:export-xdpi="90"
   inkscape:export-ydpi="90"
   inkscape:export-filename="itnas394.png">
  <defs
     id="defs4">
    <inkscape:perspective
       sodipodi:type="inkscape:persp3d"
       inkscape:vp_x="0 : 160 : 1"
       inkscape:vp_y="0 : 1000 : 0"
       inkscape:vp_z="480 : 160 : 1"
       inkscape:persp3d-origin="240 : 106.66667 : 1"
       id="perspective8" />
  </defs>
  <sodipodi:namedview
     id="base"
     pagecolor="#ffffff"
     bordercolor="#666666"
     borderopacity="1.0"
     inkscape:pageopacity="1"
     inkscape:pageshadow="2"
     inkscape:zoom="1"
     inkscape:cx="242.40901"
     inkscape:cy="148.92632"
     inkscape:document-units="px"
     inkscape:current-layer="layer1"
     showgrid="false"
     inkscape:snap-nodes="true"
     inkscape:snap-global="false"
     inkscape:snap-grids="true"
     showguides="true"
     inkscape:window-width="1280"
     inkscape:window-height="998"
     inkscape:window-x="1276"
     inkscape:window-y="-4"
     inkscape:window-maximized="1">
    <inkscape:grid
       empspacing="5"
       visible="true"
       enabled="true"
       snapvisiblegridlinesonly="true"
       type="xygrid"
       id="grid2816" />
  </sodipodi:namedview>
  <metadata
     id="metadata7">
    <rdf:RDF>
      <cc:Work
         rdf:about="">
        <dc:format>image/svg+xml</dc:format>
        <dc:type
           rdf:resource="http://purl.org/dc/dcmitype/StillImage" />
        <dc:title></dc:title>
      </cc:Work>
    </rdf:RDF>
  </metadata>
  <g
     inkscape:label="Layer 1"
     inkscape:groupmode="layer"
     id="layer1"
     transform="translate(0,0)">
    <path
       inkscape:connector-curvature="0"
       id="path3855"
       d="m 25.907096,152.83424 c 7.351996,9.27849 12.499149,20.46112 21.875308,28.23458 11.372057,8.19114 18.845645,20.03822 29.659382,28.73037 1.659457,1.28851 3.346682,2.56996 5.221833,3.53505"
       style="color:#000000;fill:none;stroke:#00ffff;stroke-width:3.99999976;stroke-linecap:round;stroke-linejoin:round;stroke-miterlimit:4;stroke-opacity:1;stroke-dasharray:none;stroke-dashoffset:0;marker:none;visibility:visible;display:inline;overflow:visible;enable-background:accumulate" />
    <path
       style="color:#000000;fill:none;stroke:#00ffff;stroke-width:3.99999952;stroke-linecap:round;stroke-linejoin:round;stroke-miterlimit:4;stroke-opacity:1;stroke-dasharray:none;stroke-dashoffset:0;marker:none;visibility:visible;display:inline;overflow:visible;enable-background:accumulate"
       d="M 78.235395,310.28206 C 67.74506,298.58795 60.436189,283.57728 46.534212,275.42424 36.85971,268.18074 30.601603,257.62988 22.338398,249.09363 l -1.421015,-0.49006"
       id="path4043"
       inkscape:connector-curvature="0" />
    <path
       style="color:#000000;fill:none;stroke:#00ffff;stroke-width:3.99999976;stroke-linecap:round;stroke-linejoin:round;stroke-miterlimit:4;stroke-opacity:1;stroke-dasharray:none;stroke-dashoffset:0;marker:none;visibility:visible;display:inline;overflow:visible;enable-background:accumulate"
       d="m 19.243479,154.50001 c 7.351996,9.27849 12.499149,20.46112 21.875308,28.23458 11.372057,8.19114 18.845645,20.03822 29.659382,28.73037 1.659457,1.28851 3.346682,2.56996 5.221833,3.53505"
       id="path4045"
       inkscape:connector-curvature="0" />
    <path
       style="color:#000000;fill:none;stroke:#00ffff;stroke-width:3.99999976;stroke-linecap:round;stroke-linejoin:round;stroke-miterlimit:4;stroke-opacity:1;stroke-dasharray:none;stroke-dashoffset:0;marker:none;visibility:visible;display:inline;overflow:visible;enable-background:accumulate"
       d="M 79.5,116.5 C 68.497846,107.7502 55.628529,100.02412 48.581665,87.576301 41.108806,80.063772 31.767106,74.73027 27.638549,64.443664 25.072887,60.718613 22.197265,57.201553 19,54"
       id="path4047"
       inkscape:connector-curvature="0" />
    <path
       style="color:#000000;fill:none;stroke:#00ffff;stroke-width:3.99999976;stroke-linecap:round;stroke-linejoin:round;stroke-miterlimit:4;stroke-opacity:1;stroke-dasharray:none;stroke-dashoffset:0;marker:none;visibility:visible;display:inline;overflow:visible;enable-background:accumulate"
       d="M 73.85561,28.738645 C 65.92501,16.792232 51.931692,12.67804 43.380657,1.4618593 37.261973,-5.8559101 28.457568,-9.5090908 22.64439,-17.238645"
       id="path4049"
       inkscape:connector-curvature="0" />
    <path
       style="color:#000000;fill:none;stroke:#00ffff;stroke-width:3.99999952;stroke-linecap:round;stroke-linejoin:round;stroke-miterlimit:4;stroke-opacity:1;stroke-dasharray:none;stroke-dashoffset:0;marker:none;visibility:visible;display:inline;overflow:visible;enable-background:accumulate"
       d="m 23.5,15 c 10.02217,12.09775 16.734866,27.384335 30.305343,36.077955 9.382054,7.61849 15.22025,18.407372 23.141243,27.262083 l 1.400636,0.545592"
       id="path4136"
       inkscape:connector-curvature="0" />
    <path
       style="color:#000000;fill:none;stroke:#00ffff;stroke-width:3.99999976;stroke-linecap:round;stroke-linejoin:round;stroke-miterlimit:4;stroke-opacity:1;stroke-dasharray:none;stroke-dashoffset:0;marker:none;visibility:visible;display:inline;overflow:visible;enable-background:accumulate"
       d="M 75.546713,166.88562 C 67.867401,156.69393 61.772057,144.93724 51.161388,137.12688 40.788484,129.57691 35.070781,117.5407 23.499998,111.38562"
       id="path4138"
       inkscape:connector-curvature="0" />
    <path
       style="color:#000000;fill:none;stroke:#00ffff;stroke-width:3.99999976;stroke-linecap:round;stroke-linejoin:round;stroke-miterlimit:4;stroke-opacity:1;stroke-dasharray:none;stroke-dashoffset:0;marker:none;visibility:visible;display:inline;overflow:visible;enable-background:accumulate"
       d="m 23,211.94765 c 11.188667,8.61671 23.576459,16.72689 30.867179,29.02026 9.195934,6.81967 16.2149,14.95795 21.888776,24.88553 1.780598,2.29027 3.692869,4.4798 5.744045,6.53219"
       id="path4140"
       inkscape:connector-curvature="0" />
    <path
       style="color:#000000;fill:none;stroke:#00ffff;stroke-width:3.99999976;stroke-linecap:round;stroke-linejoin:round;stroke-miterlimit:4;stroke-opacity:1;stroke-dasharray:none;stroke-dashoffset:0;marker:none;visibility:visible;display:inline;overflow:visible;enable-background:accumulate"
       d="m 21.5,292.38563 c 8.267649,11.71568 22.372473,15.42963 31.239505,26.39771 6.324631,7.14052 15.229517,10.54145 21.260495,18.10229"
       id="path4142"
       inkscape:connector-curvature="0" />
    <path
       style="color:#000000;fill:none;stroke:#c87137;stroke-width:4;stroke-linecap:round;stroke-linejoin:round;stroke-miterlimit:4;stroke-opacity:1;stroke-dasharray:none;stroke-dashoffset:0;marker:none;visibility:visible;display:inline;overflow:visible;enable-background:accumulate"
       d="m 315,113 c 1.21456,23.21138 17.1076,15.3102 19.08522,25.395 2.5212,12.85684 1.17986,19.69094 2.74534,32.70658 -13.25674,6.15052 -17.56916,10.51914 -28.08064,18.90874 -6.2918,1.80424 -12.8842,2.535 -10.41874,11.2639 4.41806,18.54596 15.63258,34.37282 23.931,51.28816 -5.25862,18.39504 -9.31404,11.42954 -21.52624,20.32498 -5.30486,6.64276 -11.89238,17.95488 -9.86518,26.64932 8.2889,7.94022 11.37908,20.08516 30.15662,28.38904"
       id="path9045"
       inkscape:connector-curvature="0"
       sodipodi:nodetypes="csccccccc" />
    <path
       style="color:#000000;fill:none;stroke:#c87137;stroke-width:4;stroke-linecap:round;stroke-linejoin:round;stroke-miterlimit:4;stroke-opacity:1;stroke-dasharray:none;stroke-dashoffset:0;marker:none;visibility:visible;display:inline;overflow:visible;enable-background:accumulate"
       d="m 350,113.5 c 0.38994,11.34366 -6.16395,19.53714 -5.37127,26.27881 0.76083,6.47079 1.84095,12.98597 3.49715,23.69999 2.55662,8.95072 2.06716,21.32106 -10.54744,20.98604 -12.21502,-0.1278 -14.45266,8.78496 -24.02546,14.79446 -6.83748,8.16672 10.11116,13.32716 9.11302,22.78942 1.45604,11.81838 16.22688,15.7487 16.15528,28.34886 -0.8931,10.67726 -11.92688,18.04504 -19.14344,25.3499 -8.20532,5.23438 -19.12612,15.78604 -11.01154,25.7573 9.30282,12.89968 25.49312,18.02554 36.06492,29.69144"
       id="path9047"
       inkscape:connector-curvature="0"
       sodipodi:nodetypes="cscccccccc" />
    <path
       style="color:#000000;fill:none;stroke:#008000;stroke-width:3.99999976;stroke-linecap:round;stroke-linejoin:miter;stroke-miterlimit:4;stroke-opacity:1;stroke-dasharray:none;stroke-dashoffset:0;marker:none;visibility:visible;display:inline;overflow:visible;enable-background:accumulate"
       d="m 461.41972,49.1029 -77.9643,-0.82504 m 0,2 -23.83067,22.33812 m 2.04209,0 -127.16822,-1.498492 c 0,0 -1.38983,1.230073 -2.24086,1.223597 -0.86389,-0.0066 -2.25557,-1.276577 -2.25557,-1.276577 l -34.39405,-0.405284"
       id="path3819-8"
       inkscape:connector-curvature="0"
       sodipodi:nodetypes="ccccccscc" />
    <path
       sodipodi:nodetypes="ccccccscc"
       inkscape:connector-curvature="0"
       id="path3821-8"
       d="m 459.37153,64.28794 -72.19619,-0.87228 m 2.04208,1.41422 -27.44007,22.2516 m 2.04209,-1.41422 -126.31619,-1.66388 c 0,0 -1.57105,1.223333 -2.49623,1.213826 -0.93599,-0.0096 -2.49961,-1.279633 -2.49961,-1.279633 L 196.31998,83.4609"
       style="color:#000000;fill:none;stroke:#ff0000;stroke-width:4;stroke-linecap:round;stroke-linejoin:round;stroke-miterlimit:4;stroke-opacity:1;stroke-dasharray:none;stroke-dashoffset:0;marker:none;visibility:visible;display:inline;overflow:visible;enable-background:accumulate" />
    <path
       style="color:#000000;fill:none;stroke:#008000;stroke-width:3.99999976;stroke-linecap:round;stroke-linejoin:miter;stroke-miterlimit:4;stroke-opacity:1;stroke-dasharray:none;stroke-dashoffset:0;marker:none;visibility:visible;display:inline;overflow:visible;enable-background:accumulate"
       d="M 458.6472,79.15498 390.78311,78.2879 m 2.04209,-2 -26.70797,22.24674 m 2.04209,0 -132.40598,-1.782555 c 0,0 -1.39426,1.228517 -2.24623,1.219759 -0.86177,-0.0089 -2.24623,-1.28024 -2.24623,-1.28024 L 199.22716,96.26034"
       id="path3823-2"
       inkscape:connector-curvature="0"
       sodipodi:nodetypes="ccccccscc" />
    <path
       style="color:#000000;fill:none;stroke:#808080;stroke-width:3.99999976;stroke-linecap:round;stroke-linejoin:round;stroke-miterlimit:4;stroke-opacity:1;stroke-dasharray:none;stroke-dashoffset:0;marker:none;visibility:visible;display:inline;overflow:visible;enable-background:accumulate"
       d="m 373.38518,111.2615 c -3.00662,14.27774 -1.23042,22.70078 -0.95244,33.52604 0.3,11.68288 -3.03328,20.34788 -0.88472,35.86954 0.88582,6.3994 1.96266,0.47548 0.42294,20.85572 -6.36396,1.67204 -11.3137,-1.45402 -16.97056,0 -3.00662,-14.27772 -1.23042,-22.70076 -0.95244,-33.52602 0.3,-11.68288 -3.03328,-20.3479 -0.88472,-35.86954 0.88582,-6.3994 1.96266,-0.4755 0.42294,-20.85574"
       id="path9100"
       inkscape:connector-curvature="0"
       sodipodi:nodetypes="cssccssc" />
    <path
       sodipodi:nodetypes="cssccssc"
       inkscape:connector-curvature="0"
       id="path9102"
       d="m 202.53048,109.17478 c 3.00662,14.27772 1.23042,22.70076 0.95244,33.52602 -0.3,11.6829 3.03328,20.3479 0.88472,35.86954 -0.88582,6.39942 -1.96266,0.4755 -0.42294,20.85574 6.36396,1.67202 11.3137,2.19776 16.97056,1.04336 3.00662,-14.27772 1.23042,-23.74414 0.95244,-34.56938 -0.3,-11.6829 3.03328,-20.3479 0.88472,-35.86956 -0.88582,-6.3994 -1.96266,-0.47548 -0.42294,-20.85572"
       style="color:#000000;fill:none;stroke:#808080;stroke-width:3.99999976;stroke-linecap:round;stroke-linejoin:round;stroke-miterlimit:4;stroke-opacity:1;stroke-dasharray:none;stroke-dashoffset:0;marker:none;visibility:visible;display:inline;overflow:visible;enable-background:accumulate" />
    <path
       style="color:#000000;fill:none;stroke:#ff0000;stroke-width:4;stroke-linecap:round;stroke-linejoin:round;stroke-miterlimit:4;stroke-opacity:1;stroke-dasharray:none;stroke-dashoffset:0;marker:none;visibility:visible;display:inline;overflow:visible;enable-background:accumulate"
       d="M 168.07146,102.26518 C 173.56265,88.13262 146.73374,81.3623 143.47411,69.36548 138.70886,60.40534 128.29142,51.60116 129,41"
       id="path5390"
       inkscape:connector-curvature="0" />
    <path
       style="color:#000000;fill:none;stroke:#ff0000;stroke-width:4;stroke-linecap:round;stroke-linejoin:round;stroke-miterlimit:4;stroke-opacity:1;stroke-dasharray:none;stroke-dashoffset:0;marker:none;visibility:visible;display:inline;overflow:visible;enable-background:accumulate"
       d="m 103.93955,-16.71704 c -2.308,12.02848 11.51925,21.06992 21.75037,25.0836 10.4714,4.68836 21.98914,7.58666 29.24464,17.14536 14.29856,3.80892 10.47505,-19.38036 11.21418,-28.39204"
       id="path5386"
       inkscape:connector-curvature="0"
       sodipodi:nodetypes="cccc" />
    <path
       style="color:#000000;fill:none;stroke:#808080;stroke-width:4;stroke-linecap:round;stroke-linejoin:round;stroke-miterlimit:4;stroke-opacity:1;stroke-dasharray:none;stroke-dashoffset:0;marker:none;visibility:visible;display:inline;overflow:visible;enable-background:accumulate"
       d="m 172,-6 c -5.69954,28.62492 2.50431,19.6145 -8.43437,28.33036 -11.33004,9.0277 -44.79314,-17.7225 -50.60975,-29.8287 -2.9531,-6.14632 -3.67749,-12.64216 1.33133,-16.94588 12.24664,-10.52266 28.2306,-3.29124 29.83199,22.0404 1.60356,25.36606 -16.27927,54.70938 0.83253,75.68798 10.75811,13.18916 30.96913,19.744 15.56207,22.27438 -17.15988,2.81826 4.29204,23.31864 13.1261,26.61886 19.03589,7.1114 13.76015,-41.69942 19.97911,-33.87676"
       id="path4541"
       inkscape:connector-curvature="0"
       sodipodi:nodetypes="csssssssc" />
    <path
       style="fill:none;stroke:#c87137;stroke-width:4;stroke-linecap:round;stroke-linejoin:round;stroke-opacity:1;color:#000000;stroke-miterlimit:4;stroke-dasharray:none;stroke-dashoffset:0;marker:none;visibility:visible;display:inline;overflow:visible;enable-background:accumulate"
       d="m 341.98327,113.50001 c 1.24604,4.13776 1.17586,8.51905 -0.73003,12"
       id="path4117"
       inkscape:connector-curvature="0" />
    <path
       style="fill:none;stroke:#c87137;stroke-width:4;stroke-linecap:round;stroke-linejoin:round;stroke-opacity:1;color:#000000;stroke-miterlimit:4;stroke-dasharray:none;stroke-dashoffset:0;marker:none;visibility:visible;display:inline;overflow:visible;enable-background:accumulate"
       d="m 332.5,113 c 0.39014,4.49896 3,8.71388 3,12.5"
       id="path4115"
       inkscape:connector-curvature="0" />
    <path
       style="color:#000000;fill:none;stroke:#c87137;stroke-width:4;stroke-linecap:round;stroke-linejoin:round;stroke-miterlimit:4;stroke-opacity:1;stroke-dasharray:none;stroke-dashoffset:0;marker:none;visibility:visible;display:inline;overflow:visible;enable-background:accumulate"
       d="m 323.5,113 c 2.24119,5.489 0.89063,6.69531 5.5,11.5"
       id="path4113"
       inkscape:connector-curvature="0"
       sodipodi:nodetypes="cc" />
    <path
       sodipodi:nodetypes="ccccccscccc"
       inkscape:connector-curvature="0"
       id="path3825-4"
       d="m 457.9486,88.91128 -63.75274,-0.59874 m 3.45948,0 -25.79054,22.35878 m 0.59354,0 -140.95057,-1.4344 c 0,0 -1.74706,1.24869 -2.74972,1.22202 -0.93587,-0.0249 -2.50228,-1.27546 -2.50228,-1.27546 l -26.45847,-0.26926 c -6.23081,-16.36952 -4.9542,-27.78928 -5.87992,-44.1588 1.00659,-10.6339 23.39519,-3.30366 27.1941,-10.99452"
       style="color:#000000;fill:none;stroke:#ff0000;stroke-width:4;stroke-linecap:round;stroke-linejoin:round;stroke-miterlimit:4;stroke-opacity:1;stroke-dasharray:none;stroke-dashoffset:0;marker:none;visibility:visible;display:inline;overflow:visible;enable-background:accumulate" />
    <path
       style="color:#000000;fill:none;stroke:#ff0000;stroke-width:4;stroke-linecap:round;stroke-linejoin:round;stroke-miterlimit:4;stroke-opacity:1;stroke-dasharray:none;stroke-dashoffset:0;marker:none;visibility:visible;display:inline;overflow:visible;enable-background:accumulate"
       d="m 552.43768,312.1241 c -30.46698,3.4142 -56.99246,1.2872 -83.00334,1.1311"
       id="path7397"
       inkscape:connector-curvature="0"
       sodipodi:nodetypes="cc" />
    <path
       style="color:#000000;fill:none;stroke:#ff0000;stroke-width:4;stroke-linecap:round;stroke-linejoin:round;stroke-miterlimit:4;stroke-opacity:1;stroke-dasharray:none;stroke-dashoffset:0;marker:none;visibility:visible;display:inline;overflow:visible;enable-background:accumulate"
       d="m 512.75678,290.4494 c -21.69514,1.7023 -28.19242,0.4145 -42.3041,0.5842"
       id="path7399"
       inkscape:connector-curvature="0"
       sodipodi:nodetypes="cc" />
    <path
       style="color:#000000;fill:none;stroke:#008000;stroke-width:3.99999952;stroke-linecap:round;stroke-linejoin:miter;stroke-miterlimit:4;stroke-opacity:1;stroke-dasharray:none;stroke-dashoffset:0;marker:none;visibility:visible;display:inline;overflow:visible;enable-background:accumulate"
       d="m 471.96766,279.2197 c 32.1252,-1.9477 69.83404,-1.7175 98.06948,0.4537"
       id="path7389"
       inkscape:connector-curvature="0"
       sodipodi:nodetypes="cc" />
    <path
       style="color:#000000;fill:none;stroke:#008000;stroke-width:4;stroke-linecap:round;stroke-linejoin:miter;stroke-miterlimit:4;stroke-opacity:1;stroke-dasharray:none;stroke-dashoffset:0;marker:none;visibility:visible;display:inline;overflow:visible;enable-background:accumulate"
       d="m 469.78616,302.1967 c 36.8783,0.9208 73.76634,3.8906 110.75108,1.5346"
       id="path7393"
       inkscape:connector-curvature="0"
       sodipodi:nodetypes="cc" />
    <path
       style="color:#000000;fill:none;stroke:#ffff00;stroke-width:4;stroke-linecap:round;stroke-linejoin:miter;stroke-miterlimit:4;stroke-opacity:1;stroke-dasharray:none;stroke-dashoffset:0;marker:none;visibility:visible;display:inline;overflow:visible;enable-background:accumulate"
       d="m 485.4956,269.4505 c -23.0853,-1.1883 -16.2615,21.7402 -17.00208,32.2194 -1.85684,11.5779 6.38764,25.4632 -4.94056,35.2059 -4.10816,11.7865 1.4786,12.0531 -0.71008,24.0001 -15.6215,8 -40.47392,8.5 -40.47392,8.5"
       id="path3657"
       inkscape:connector-curvature="0"
       sodipodi:nodetypes="ccccc" />
    <path
       style="color:#000000;fill:none;stroke:#00ffff;stroke-width:3.99999976;stroke-linecap:round;stroke-linejoin:round;stroke-miterlimit:4;stroke-opacity:1;stroke-dasharray:none;stroke-dashoffset:0;marker:none;visibility:visible;display:inline;overflow:visible;enable-background:accumulate"
       d="m 19.360754,-62.5788 c 5.263162,35.77066 1.447454,49.83758 2.205542,91.64436 0.19822,10.93082 -1.270807,11.069278 -2.756928,18.91074 -0.09687,0.511115 1.065513,43.360942 1.77984,62.44742 0.178983,4.78232 1.329836,8.07276 1.425704,8.83152 0.580751,4.59642 1,12.54988 1,17.45606 0,5.66163 2.9014,11.91965 2.80515,18.38491 m -6,0 c -0.285857,19.2013 0.449003,40.23059 2.849006,52.89403 1.94355,10.255 -3.813213,29.46136 -1.654156,46.5495 1.144264,9.05644 -2.50863,25.00786 -2.014607,34.17774 0.267191,4.95954 1.159695,6.40624 2.014607,10.9171 2.076864,10.95844 1.102772,29.34444 1.102772,42.1855"
       id="path9150"
       inkscape:connector-curvature="0"
       sodipodi:nodetypes="csssssccssssc" />
    <path
       style="color:#000000;fill:none;stroke:#00ffff;stroke-width:4;stroke-linecap:round;stroke-linejoin:round;stroke-miterlimit:4;stroke-opacity:1;stroke-dasharray:none;stroke-dashoffset:0;marker:none;visibility:visible;display:inline;overflow:visible;enable-background:accumulate"
       d="m 76.09114,-11.66526 c 5.324234,22.55964 -2.303503,58.60926 2.059878,77.09762 7.324269,31.034126 2.841966,66.80914 -0.157851,101.95771 -1.129374,13.23276 0.951377,26.37672 0.951377,39.14549 0,1.78261 2.3025,4.36037 2.792878,7.45085 m -6,0 c 2.421358,15.26 10.423424,43.02083 8.207122,49.28137 -3.589205,10.13868 1.86024,19.75664 -1.029938,32.00278 -3.188634,13.51078 -4.119754,28.62162 -4.119754,42.1855"
       id="path8944"
       inkscape:connector-curvature="0"
       sodipodi:nodetypes="csssccssc" />
    <path
       style="color:#000000;fill:none;stroke:#ffff00;stroke-width:4;stroke-linecap:round;stroke-linejoin:miter;stroke-miterlimit:4;stroke-opacity:1;stroke-dasharray:none;stroke-dashoffset:0;marker:none;visibility:visible;display:inline;overflow:visible;enable-background:accumulate"
       d="m 385,326 c -4.26516,-27.27572 5,-54.81596 -2,-86 -1.94028,-8.64368 -0.0546,-34.9182 4,-41 4.9059,-7.35886 12.75498,-11.75498 19,-18 1.9049,-1.9049 3.36614,-7.57742 7,-10 5.19272,-3.46182 14.75402,-7.75402 23.37468,-15.87236 C 440.99534,146.00932 440.06172,138.87658 444,131 c 1.2531,-2.50622 5.92178,-17.92178 7,-19 1.55272,-1.55272 4.66368,-5.32738 6,-8 1.13832,-2.27664 7.2859,-55.7141 7,-56 -2.3205,-2.3205 -5.85966,-8.95322 -9,-10 -7.51932,-2.50644 -53.41066,2 -65,2 -1.912,0 -10.78322,-1.21678 -12,0 -6.7247,6.7247 -12.09576,15.54788 -21,20 -8.16652,4.08326 -30.97796,-3 -40,-3 -12.3582,0 -49.82284,6.08858 -60,1 -4.97878,-2.48938 -9.4074,0.1104 -15.8935,-1.9278 C 230.59786,52.76988 220.2036,50.98178 213.46446,44.24264 210.07602,40.85418 210.73176,32.4969 198.65453,10.41456 185.32844,-6.28372 194.09911,-35.60356 189,-56"
       id="path5938"
       inkscape:connector-curvature="0"
       sodipodi:nodetypes="csssscsssssssssssscc" />
    <path
       style="color:#000000;fill:none;stroke:#ff0000;stroke-width:4;stroke-linecap:round;stroke-linejoin:round;stroke-miterlimit:4;stroke-opacity:1;stroke-dasharray:none;stroke-dashoffset:0;marker:none;visibility:visible;display:inline;overflow:visible;enable-background:accumulate"
       d="m 193,83 c -12.81262,0.80114 -13.81226,22.05494 -10.63952,32.5069 2.67224,18.89648 -18.69701,11.95052 -24.6026,1.47254 -10.20094,-8.32052 -2.6552,-12.73354 10.31358,-14.71426"
       id="path5392"
       inkscape:connector-curvature="0"
       sodipodi:nodetypes="cccc" />
    <path
       style="color:#000000;fill:none;stroke:#ff0000;stroke-width:4;stroke-linecap:round;stroke-linejoin:round;stroke-miterlimit:4;stroke-opacity:1;stroke-dasharray:none;stroke-dashoffset:0;marker:none;visibility:visible;display:inline;overflow:visible;enable-background:accumulate"
       d="m 129,41 c 12.69275,-3.89672 17.05518,-19.60728 15.98603,-31.14566 0.69598,-14.02208 -4.09508,-29.4899 -17.40293,-36.23062 -9.18323,-9.70972 -27.10421,-4.25896 -23.64355,9.65924"
       id="path5388"
       inkscape:connector-curvature="0" />
    <path
       style="color:#000000;fill:#ffffff;stroke:#00ffff;stroke-width:3.99999976;stroke-linecap:round;stroke-linejoin:round;stroke-miterlimit:4;stroke-opacity:1;stroke-dashoffset:0;marker:none;visibility:visible;display:inline;overflow:visible;enable-background:accumulate"
       d="m 63.061949,200.39899 c 0.0039,1.7717 -0.128408,5.18097 0.438051,6.76786 0,0 -11.207107,1.82843 -11.207107,-1 1.010445,-2.6196 0.312754,-11.67149 0.312754,-16.24047"
       id="path3863"
       inkscape:connector-curvature="0"
       sodipodi:nodetypes="cccc" />
    <path
       style="color:#000000;fill:#ffffff;stroke:#00ffff;stroke-width:3.99999976;stroke-linecap:round;stroke-linejoin:round;stroke-miterlimit:4;stroke-opacity:1;stroke-dashoffset:0;marker:none;visibility:visible;display:inline;overflow:visible;enable-background:accumulate"
       d="m 57.105109,190.42692 c 0,-3.53553 -0.610673,-4.95833 -1.105648,-8.42315 -0.353553,-2.47487 1.884425,-0.72677 8.37868,-1 4.454001,-0.18739 1.167746,12.82861 1.183269,19.89683"
       id="rect4167"
       inkscape:connector-curvature="0"
       sodipodi:nodetypes="cssc" />
    <path
       style="color:#000000;fill:none;stroke:#0000ff;stroke-width:4;stroke-linecap:round;stroke-linejoin:round;stroke-miterlimit:4;stroke-opacity:1;stroke-dasharray:none;stroke-dashoffset:0;marker:none;visibility:visible;display:inline;overflow:visible;enable-background:accumulate"
       d="m 58.669464,200.97491 c 3.481033,3.65892 8.248703,4.59619 13.081476,4.59619 0.161302,0 6.527232,-0.38056 6.717514,0 0.771592,1.54318 -0.752851,6.33054 -0.333154,8.00933 0.704167,2.81667 3.99036,4.34391 5.656854,6.01041 0.891389,0.89139 0.168495,3.16541 0.707107,4.24264"
       id="path3040"
       inkscape:connector-curvature="0"
       sodipodi:nodetypes="cssssc" />
    <path
       style="color:#000000;fill:none;stroke:#0000ff;stroke-width:4;stroke-linecap:round;stroke-linejoin:round;stroke-miterlimit:4;stroke-opacity:1;stroke-dasharray:none;stroke-dashoffset:0;marker:none;visibility:visible;display:inline;overflow:visible;enable-background:accumulate"
       d="m 62.021402,192.29926 c -0.107965,-2.972 1.71945,-4.4631 3.181981,-6.36396 6.988846,-9.31846 7.785466,2.62539 16.22481,4.73523 2.664951,0.66623 1.908561,-4.5116 3.146999,-4.86248 10.899903,-4.31478 9.027036,-8.38072 10.477687,-12.66893 0.420881,-1.24427 0.522451,-0.37973 2.750001,-6.21411 0.799814,-2.09487 1.095148,-7.57806 -3.220673,-5.09151 -2.440219,1.40593 -6.75986,-1.53237 -9.738956,-0.7341"
       id="path3038"
       inkscape:connector-curvature="0"
       sodipodi:nodetypes="ccscsssc" />
    <path
       style="color:#000000;fill:#ffffff;stroke:#008000;stroke-width:4;stroke-linecap:round;stroke-linejoin:round;stroke-miterlimit:4;stroke-opacity:1;stroke-dasharray:none;stroke-dashoffset:0;marker:none;visibility:visible;display:inline;overflow:visible;enable-background:accumulate"
       d="m 193.04363,120.72672 c -25.2733,-6.82245 -30.58585,-4.53024 -51.92782,-7.50932 -11.40652,-3.93428 -31.92839,-9.39782 -32.16851,-1.42028 -0.27889,9.26869 -5.51122,20.15065 -2.37382,30.07938 -4.64017,9.43733 -3.92095,17.43706 -2.82943,28.47903 0.33472,3.38618 13.93411,3.26766 20.34055,1.78152 15.27816,3.2978 61.58188,16.28094 62.99144,10.37804 2.59974,-9.64836 11.56447,-58.02664 5.96759,-61.78837 z"
       id="path9210-1"
       inkscape:connector-curvature="0"
       sodipodi:nodetypes="ccscsccc" />
    <path
       style="color:#000000;fill:none;stroke:#ff0000;stroke-width:4;stroke-linecap:round;stroke-linejoin:round;stroke-miterlimit:4;stroke-opacity:1;stroke-dasharray:none;stroke-dashoffset:0;marker:none;visibility:visible;display:inline;overflow:visible;enable-background:accumulate"
       d="m 363.75,35.17856 c -11.56484,5.72456 -38,3.95498 -47,3.95498 -6.47598,0 -19,1.35234 -19,-3.95498 0,-0.40224 -0.38964,-2.37982 0,-2.63664 6.10746,-4.02582 46.5493,-7.06978 56,-3.955 1.33816,0.44104 5.95196,-0.69082 7,0 0.22944,0.1512 2.42372,5.95854 3,6.59164 z"
       id="path5506"
       inkscape:connector-curvature="0"
       sodipodi:nodetypes="csssssc" />
    <path
       style="color:#000000;fill:none;stroke:#008000;stroke-width:3.99999976;stroke-linecap:round;stroke-linejoin:miter;stroke-miterlimit:4;stroke-opacity:1;stroke-dasharray:none;stroke-dashoffset:0;marker:none;visibility:visible;display:inline;overflow:visible;enable-background:accumulate"
       d="m 361,14.42752 c -9.33334,0 -36,0 -40,0 -1.94878,0 -13.95714,2.28014 -16,0.74934 -14.47268,-10.845 26.61848,-14.95314 32,-11.98948 13.3022,7.32564 26.1201,3.29674 24,11.24014 z"
       id="path5508"
       inkscape:connector-curvature="0"
       sodipodi:nodetypes="csssc" />
    <path
       sodipodi:nodetypes="ssccss"
       inkscape:connector-curvature="0"
       id="path3036"
       d="m 108.09359,212.9507 c 1.86395,-1.66603 1.64941,1.16564 5.47644,6.41958 3.28262,4.50654 -10.031,5.8329 -15.054678,12.57404 0,0 -7.733703,-8.31459 -5.379509,-9.88232 2.740444,-0.61096 4.527279,-3.43964 8.330187,-5.97212 2.94274,-1.95966 4.01803,-0.80673 6.62756,-3.13918 z"
       style="color:#000000;fill:#ffffff;stroke:#00ffff;stroke-width:3.99999976;stroke-linecap:round;stroke-linejoin:round;stroke-miterlimit:4;stroke-opacity:1;stroke-dashoffset:0;marker:none;visibility:visible;display:inline;overflow:visible;enable-background:accumulate" />
    <path
       style="fill:none;stroke:#80ff00;stroke-width:3.99999976;stroke-linecap:round;stroke-linejoin:round;stroke-miterlimit:4;stroke-opacity:1;stroke-dasharray:none"
       d="m 101.68171,201.16147 c -2.59132,0.10459 -4.82201,2.37045 -9.57682,3.75847 -3.914848,1.77567 -2.28837,-0.42553 -5.500806,0.63278 -4.508116,2.61649 -7.682743,3.13481 -12.581671,3.19992 -1.262581,0.0561 -4.329926,1.61828 -4.391288,-0.15554 0.640691,-1.81958 1.790712,-3.42008 2.548591,-5.19551 1.94609,-3.83075 4.823835,-8.28435 8.571366,-10.83873 2.149769,-2.97467 3.153513,-5.72171 5.32827,-8.67649 1.533134,-1.23615 1.298409,-4.79875 3.603919,-4.66706 1.986456,1.24431 2.342677,3.74788 3.945729,5.34275 3.528785,3.13289 0.121153,1.78707 3.071774,4.53037 1.85114,2.54538 4.189486,5.41251 6.048086,7.94762 0.72432,0.97844 2.17385,4.3271 2.23674,2.97139 0.0629,-1.3557 -1.78548,2.68882 -3.30394,1.15006 z"
       id="path2942-1"
       inkscape:connector-curvature="0"
       sodipodi:nodetypes="ccccccccccccccc" />
    <path
       style="color:#000000;fill:none;stroke:#008000;stroke-width:4;stroke-linecap:round;stroke-linejoin:round;stroke-miterlimit:4;stroke-opacity:1;stroke-dasharray:none;stroke-dashoffset:0;marker:none;visibility:visible;display:inline;overflow:visible;enable-background:accumulate"
       d="m 99.10658,249.63115 c 3.01373,3.89157 11.6266,17.67109 15.35573,25.37399 6.46406,5.84294 24.48871,29.42819 27.11634,30.34516"
       id="path4022"
       inkscape:connector-curvature="0"
       sodipodi:nodetypes="ccc" />
    <path
       style="color:#000000;fill:none;stroke:#008000;stroke-width:3.99999976;stroke-linecap:round;stroke-linejoin:round;stroke-miterlimit:4;stroke-opacity:1;stroke-dasharray:none;stroke-dashoffset:0;marker:none;visibility:visible;display:inline;overflow:visible;enable-background:accumulate"
       d="m 143.0767,305.49256 c -5.22568,1.72264 -29.03772,-6.75851 -32.49894,-5.72878 -2.24313,0.66733 -16.191233,-0.82329 -19.551121,-1.41556"
       id="path3953"
       inkscape:connector-curvature="0" />
    <path
       style="color:#000000;fill:none;stroke:#008000;stroke-width:3.99999976;stroke-linecap:round;stroke-linejoin:round;stroke-miterlimit:4;stroke-opacity:1;stroke-dasharray:none;stroke-dashoffset:0;marker:none;visibility:visible;display:inline;overflow:visible;enable-background:accumulate"
       d="m 106.3405,141.19659 c 3.79997,-2.22614 18.0429,-8.93938 22.65011,-10.49868 3.6634,-1.23987 8.37849,-6.8488 11.70145,-7.97345 4.01821,-1.35996 11.44346,-8.42144 12.19675,-7.90503 0.42053,0.28829 7.6212,13.85508 8.26345,13.25576 0.38928,-0.36325 10.7888,8.10638 11.21896,10.13089 1.07611,5.06459 4.45268,7.05175 11.16678,14.16167 -7.96661,3.87663 -13.48746,4.8911 -23.00644,13.26112 -3.23326,6.71478 -14.32621,8.1085 -17.67625,8.99465 -3.35002,0.88615 -4.86582,-6.85736 -19.18294,-16.39442 -4.70557,-9.31422 -12.89105,-11.47674 -17.33187,-17.03251 z"
       id="path4033"
       inkscape:connector-curvature="0"
       sodipodi:nodetypes="csssssccccc" />
    <path
       style="color:#000000;fill:none;stroke:#008000;stroke-width:3.99999976;stroke-linecap:round;stroke-linejoin:round;stroke-miterlimit:4;stroke-opacity:1;stroke-dasharray:none;stroke-dashoffset:0;marker:none;visibility:visible;display:inline;overflow:visible;enable-background:accumulate"
       d="m 180.35405,182.71759 c -0.0548,-10.75937 6.38429,-24.38138 3.16771,-33.88533 -0.0286,-0.0845 4.56017,-25.69777 5.02825,-29.08551"
       id="path3978"
       inkscape:connector-curvature="0" />
    <path
       sodipodi:nodetypes="ssscs"
       inkscape:connector-curvature="0"
       id="path4221"
       d="m 198.25052,142.22451 c -0.77593,-0.32283 -6.47623,-0.79731 -7.28587,-1.47676 -1.00542,-0.84375 -0.55122,-9.8378 0.44974,-9.14237 1.71123,1.18889 6.85325,-0.28427 7.62944,0.55531 0.77617,0.83994 0.49541,10.5996 -0.79333,10.06346 z"
       style="color:#000000;fill:#ffffff;stroke:#008000;stroke-width:3.99999976;stroke-linecap:round;stroke-linejoin:round;stroke-miterlimit:4;stroke-opacity:1;stroke-dashoffset:0;marker:none;visibility:visible;display:inline;overflow:visible;enable-background:accumulate" />
    <path
       style="color:#000000;fill:#ffffff;stroke:#008000;stroke-width:3.99999976;stroke-linecap:round;stroke-linejoin:round;stroke-miterlimit:4;stroke-opacity:1;stroke-dashoffset:0;marker:none;visibility:visible;display:inline;overflow:visible;enable-background:accumulate"
       d="m 189.7206,159.3112 c 0.75117,0.74148 6.43633,1.47175 7.32043,0.89249 1.09789,-0.71932 1.7646,-10.6748 0.68866,-10.10221 -1.83947,0.97887 -6.77196,-1.09024 -7.64173,-0.34768 -0.86979,0.74258 -1.36069,8.57689 -0.36738,9.55741 z"
       id="path4201"
       inkscape:connector-curvature="0"
       sodipodi:nodetypes="ssscs" />
    <path
       style="color:#000000;fill:none;stroke:#808080;stroke-width:3.99999976000000010;stroke-linecap:round;stroke-linejoin:round;stroke-miterlimit:4;stroke-opacity:1;stroke-dasharray:none;stroke-dashoffset:0;marker:none;visibility:visible;display:inline;overflow:visible;enable-background:accumulate"
       d="m 220,113 c -4.69295,5.16627 -16.16585,16.11749 -13.88133,18.67741 7.61867,6.05993 9.97107,12.00208 15.88133,19.32259 -6.87303,6.93651 -5.20413,8.70413 -10.5,12 -0.61941,0.38549 -7.97903,5.52097 -7,6.5 0.25,0.25 1.25,-0.25 1.5,0 2.39311,2.39311 4.78522,7.02348 8.5,9.5 2.36911,1.57941 7.22141,4.94281 8.5,7.5 0.0908,0.18166 -5.66144,3.08072 -6.5,3.5 -4.74002,2.37001 -6.04977,7.5 -10.5,7.5"
       id="path4068"
       inkscape:connector-curvature="0"
       sodipodi:nodetypes="cccsssscsc" />
    <path
       style="color:#000000;fill:none;stroke:#0000ff;stroke-width:4;stroke-linecap:round;stroke-linejoin:round;stroke-miterlimit:4;stroke-opacity:1;stroke-dasharray:none;stroke-dashoffset:0;marker:none;visibility:visible;display:inline;overflow:visible;enable-background:accumulate"
       d="m 342.7923,48.65992 c -0.43358,21.1467 -9.37004,28.13754 -12.4769,33.89424 -5.07516,9.40374 -4.93246,33.62638 -17.6916,41.5714 -7.4467,4.63698 -10.31692,1.02885 -14.10942,21.25791 -5.49352,29.30224 0.39721,16.41924 -15.01002,45.98841 -4.67646,8.97494 -10.34076,4.1671 -14.34652,2.2403 -11.77449,-5.66362 -8.94065,-14.10105 -20.09913,-8.40018 -4.80741,2.4561 -1.20553,13.83002 4.85346,15.48074 18.25238,4.97271 18.4305,8.06856 16.85475,14.08683 -2.07358,7.91965 -11.73513,-2.95685 -26.04123,-3.92635 -8.33766,-0.56503 -2.09213,-0.0122 -14.0923,4.7222 -3.64425,1.43777 -15.3053,4.97149 -14.35738,13.70365 1.56768,14.44137 -8.58275,11.83739 -18.99768,5.87614 -9.15649,-5.24095 -12.71543,-10.1818 -15.86995,-4.69493 -1.26409,2.19872 0.58285,8.43106 -7.38972,8.21828 -15.16414,-0.40472 -10.15866,-12.89073 -27.81928,-14.25304 -4.86234,-0.37507 1.41046,-1.14573 -19.48027,0.70949 -6.50293,0.5775 -14.87173,-4.52523 -23.05526,-2.56304"
       id="path9043"
       inkscape:connector-curvature="0"
       sodipodi:nodetypes="cssssssssssssssssc" />
    <path
       inkscape:connector-curvature="0"
       style="color:#000000;fill:none;stroke:#80ff00;stroke-width:4;stroke-linecap:round;stroke-linejoin:round;stroke-miterlimit:4;stroke-opacity:1;stroke-dasharray:none;stroke-dashoffset:0;marker:none;visibility:visible;display:inline;overflow:visible;enable-background:accumulate"
       d="m 208.74657,190.33232 c -6.42333,0.0189 -10.74898,-1.61252 -14.35694,-2.99462 -4.93194,-1.88927 -14.89999,-2.38925 -28.77653,-0.63572 -10.25057,1.29533 -17.8004,3.57215 -31.59391,0.81507 -8.57695,-1.71438 -15.54101,1.67166 -19.92144,2.08628 -7.79856,0.73816 -6.75575,-5.34848 -16.98528,0.72342"
       id="path2833"
       sodipodi:nodetypes="csssss" />
    <path
       style="color:#000000;fill:none;stroke:#008000;stroke-width:3.99999976;stroke-linecap:round;stroke-linejoin:round;stroke-miterlimit:4;stroke-opacity:1;stroke-dasharray:none;stroke-dashoffset:0;marker:none;visibility:visible;display:inline;overflow:visible;enable-background:accumulate"
       d="m 92.07743,298.14755 c 1.856418,-1.56395 2.618711,-2.81498 4.720462,-3.73727 2.927838,-1.2848 22.311838,-13.90418 22.994718,-15.23953 3.70968,-7.25419 25.58544,-19.50966 29.5396,-20.68603"
       id="path4003"
       inkscape:connector-curvature="0"
       sodipodi:nodetypes="cssc" />
    <path
       inkscape:connector-curvature="0"
       style="fill:none;stroke:#80ff00;stroke-width:3.99999952;stroke-linecap:round;stroke-linejoin:round;stroke-miterlimit:4;stroke-opacity:1;stroke-dasharray:none"
       d="m 154.30832,201.57606 c -4.23392,0.68854 -13.58018,-2.02341 -17.55207,-2.63801 -7.69327,-0.3385 -12.19866,-1.9487 -17.63569,-3.70785 -3.48985,-0.48777 -11.54106,-2.75708 -5.84149,-6.53873 3.78596,-2.42134 5.02835,-5.8856 9.6967,-8.38944 4.26464,-3.45071 5.38196,-3.57224 12.93018,-5.91137 9.48643,-7.19365 13.58956,-4.39857 16.50279,-9.53683"
       id="path2956-7"
       sodipodi:nodetypes="ccccccc" />
    <path
       style="color:#000000;fill:none;stroke:#008000;stroke-width:3.99999976;stroke-linecap:round;stroke-linejoin:round;stroke-miterlimit:4;stroke-opacity:1;stroke-dasharray:none;stroke-dashoffset:0;marker:none;visibility:visible;display:inline;overflow:visible;enable-background:accumulate"
       d="m 97.984578,248.11014 c -1.496233,13.0143 -2.946322,16.46483 -4.284081,29.48087 -0.632658,6.15574 1.776676,13.3137 -3.933337,21.28553 -0.233852,0.3265 -0.393249,6.61838 -0.538809,6.98094 -0.616832,1.53645 16.899439,1.93337 18.431889,2.2035 0.74943,0.13211 33.52992,5.53075 33.75647,5.18091 2.47258,-3.81795 2.51407,-6.42587 2.45272,-6.99898 -0.73857,-6.89919 0.6931,-16.4851 2.9155,-23.64456 3.24766,-10.46229 3.64471,-15.13998 2.94274,-24.06788 -0.28079,-3.57123 -46.00505,-11.72882 -51.743092,-10.42033 z"
       id="path9210"
       inkscape:connector-curvature="0"
       sodipodi:nodetypes="cssssssssc" />
    <path
       style="color:#000000;fill:none;stroke:#808080;stroke-width:3.99999976;stroke-linecap:round;stroke-linejoin:round;stroke-miterlimit:4;stroke-opacity:1;stroke-dasharray:none;stroke-dashoffset:0;marker:none;visibility:visible;display:inline;overflow:visible;enable-background:accumulate"
       d="m 369.29424,198.75 c -4.69295,-5.16627 -16.16586,-14.66669 -13.88134,-16.68658 7.61868,-4.71208 9.97108,-9.2252 15.88134,-16.27393 -6.87303,-5.29866 -5.20413,-7.24362 -10.50001,-10.53949 -0.61941,-0.38549 -8.97903,-6.13849 -6.54296,-7.78014 2.43607,-1.64165 5.82818,-6.72916 9.54297,-9.73681 2.36911,-1.91813 5.22141,-6.09988 6.5,-9.23082 0.0908,-0.22241 -3.66144,-3.45278 -4.5,-3.92388 -4.74003,-2.6629 -7.04978,-9.78718 -11.50001,-9.92373"
       id="path4068-4"
       inkscape:connector-curvature="0"
       sodipodi:nodetypes="cccscscsc" />
    <path
       inkscape:connector-curvature="0"
       style="fill:none;stroke:#80ff00;stroke-width:3.99999976;stroke-linecap:round;stroke-linejoin:round;stroke-miterlimit:4;stroke-opacity:1;stroke-dasharray:none"
       d="m 247.41285,205.2045 c -4.26331,-3.64906 -8.54128,-7.6224 -11.81654,-6.0322 -8.0451,-3.10931 -11.53339,0.63977 -18.06818,-0.11191 -3.51742,0.20957 -19.99316,-7.81013 -13.23257,-8.84959 4.89362,-2.77348 15.41101,-2.08187 19.91068,-4.72783 9.00845,-1.90757 5.89986,-2.0414 13.37399,-8.79946 3.04677,-3.65643 2.59163,-10.96566 5.871,-11.3808"
       id="path2956"
       sodipodi:nodetypes="ccccccc" />
    <path
       inkscape:connector-curvature="0"
       style="color:#000000;fill:none;stroke:#80ff00;stroke-width:3.99999976;stroke-linecap:round;stroke-linejoin:round;stroke-miterlimit:4;stroke-opacity:1;stroke-dasharray:none;stroke-dashoffset:0;marker:none;visibility:visible;display:inline;overflow:visible;enable-background:accumulate"
       d="m 351.83333,243.90661 c -8.8602,3.65844 -13.04825,-12.13237 -31.37646,-14.26663 -9.90555,-1.15347 -13.22729,-5.5932 -32.34837,-4.04497 -0.85957,-15.89654 0.91064,-20.08809 -11.36058,-29.53703 -9.02215,-6.94713 -16.88487,-9.11464 -25.98327,-10.33598 -10.77872,-1.4469 -18.78775,4.02356 -28.26896,5.02664 -5.18183,0.54819 -5.37668,3.98229 -12.74316,0.9328"
       id="path4125-8"
       sodipodi:nodetypes="cscssss" />
    <path
       style="color:#000000;fill:none;stroke:#ffff00;stroke-width:4;stroke-linecap:round;stroke-linejoin:round;stroke-miterlimit:4;stroke-opacity:1;stroke-dasharray:none;stroke-dashoffset:0;marker:none;visibility:visible;display:inline;overflow:visible;enable-background:accumulate"
       d="m 57.700056,199.94643 c 1.510077,0.86837 6.528126,0.60995 10.035661,2.64787 3.344717,1.94332 5.134531,6.20146 8.486307,6.40711 6.5251,-2.48662 12.198732,-6.93588 18.449353,-9.7002 3.739854,-4.92468 9.554533,-9.65495 16.134373,-8.19309 6.66159,1.44409 13.50114,1.92833 20.1881,0.30899 9.48355,-0.72969 18.98773,0.75739 28.48464,0.26745 5.5317,-4.19734 12.61725,-4.04487 19.17794,-3.95904 6.83068,-1.10415 12.43026,2.6696 18.70736,4.61333 4.16548,-0.97256 6.93511,1.63164 11.25585,2.98175 7.09396,-2.56018 20.22921,-3.2714 26.18888,-4.48238 14.62609,-0.43555 19.17227,-2.71145 31.95089,3.12309 7.46846,3.47824 6.23164,7.27262 15.43304,12.71641 3.09888,20.51873 0.47068,21.83895 9.55755,22.57228 9.49147,0.0177 22.55085,2.4556 30.41052,5.04629 -0.27518,5.27852 4.41666,6.22494 4.15139,13.86695 0.46351,6.08519 0.1103,14.7798 -5.70809,18.03114 -5.70241,3.67971 -11.47479,13.25942 -16.49091,17.35925 -4.38634,6.41869 -7.86536,5.61838 -2.83409,14.20804 C 306.8867,311.36516 313.83927,314.70065 320.25,322"
       id="path3043"
       inkscape:connector-curvature="0"
       sodipodi:nodetypes="cscccccccccccccccccc" />
  </g>
</svg>
