<?xml version="1.0" encoding="UTF-8" standalone="no"?>
<!-- Created with Inkscape (http://www.inkscape.org/) -->

<svg
   xmlns:dc="http://purl.org/dc/elements/1.1/"
   xmlns:cc="http://creativecommons.org/ns#"
   xmlns:rdf="http://www.w3.org/1999/02/22-rdf-syntax-ns#"
   xmlns:svg="http://www.w3.org/2000/svg"
   xmlns="http://www.w3.org/2000/svg"
   xmlns:sodipodi="http://sodipodi.sourceforge.net/DTD/sodipodi-0.dtd"
   xmlns:inkscape="http://www.inkscape.org/namespaces/inkscape"
   width="480"
   height="320"
   id="svg2"
   version="1.1"
   inkscape:version="0.47 r22583"
   sodipodi:docname="itnas197.svg"
   inkscape:export-xdpi="90"
   inkscape:export-ydpi="90"
   inkscape:export-filename="itnas197.png">
  <defs
     id="defs4" />
  <sodipodi:namedview
     id="base"
     pagecolor="#ffffff"
     bordercolor="#666666"
     borderopacity="1.0"
     inkscape:pageopacity="1"
     inkscape:pageshadow="2"
     inkscape:zoom="1"
     inkscape:cx="270.44801"
     inkscape:cy="200.41585"
     inkscape:document-units="px"
     inkscape:current-layer="layer1"
     showgrid="false"
     inkscape:snap-nodes="true"
     inkscape:snap-global="false"
     inkscape:snap-grids="true"
     showguides="true"
     inkscape:window-width="1280"
     inkscape:window-height="774"
     inkscape:window-x="1276"
     inkscape:window-y="1020"
     inkscape:window-maximized="1">
    <inkscape:grid
       empspacing="5"
       visible="true"
       enabled="true"
       snapvisiblegridlinesonly="true"
       type="xygrid"
       id="grid2816" />
  </sodipodi:namedview>
  <metadata
     id="metadata7">
    <rdf:RDF>
      <cc:Work
         rdf:about="">
        <dc:format>image/svg+xml</dc:format>
        <dc:type
           rdf:resource="http://purl.org/dc/dcmitype/StillImage" />
        <dc:title></dc:title>
      </cc:Work>
    </rdf:RDF>
  </metadata>
  <g
     inkscape:label="Layer 1"
     inkscape:groupmode="layer"
     id="layer1"
     transform="translate(0,0)">
    <path
       style="color:#000000;fill:none;stroke:#c87137;stroke-width:4;stroke-linecap:round;stroke-linejoin:round;stroke-miterlimit:4;stroke-opacity:1;stroke-dasharray:none;stroke-dashoffset:0;marker:none;visibility:visible;display:inline;overflow:visible;enable-background:accumulate"
       d="m 130.5391,134.73803 c 3.30065,-0.0871 6.62863,0.13881 9.8995,0 5.23625,-3.71135 12.53023,-0.53365 16.99856,-5.258 6.22726,-4.26815 3.31264,-16.20591 5.71653,-23.34953 2.80392,-10.187219 3.65664,-19.098017 4.06996,-29.354312 -0.24962,-9.014446 4.08625,-18.692584 3.62054,-27.722652 0,-30.599771 2.12132,-25.137097 2.12132,-55.7368689"
       id="path3230"
       sodipodi:nodetypes="ccccccc" />
    <path
       sodipodi:nodetypes="ccccccc"
       id="path3241"
       d="m 269.16706,136.15225 c -3.30065,-0.0871 -6.62862,0.13881 -9.89949,0 -5.23625,-3.71135 -12.53024,-0.53365 -16.99857,-5.258 -6.22726,-4.26815 -4.01974,-16.91302 -6.42363,-24.05664 0.73161,-10.894329 -0.82821,-19.09802 1.58689,-29.354315 0.24962,-9.014446 -1.96493,-17.27837 -3.62054,-27.722652 0,-30.599771 0,-23.722883 0,-54.3226555"
       style="color:#000000;fill:none;stroke:#c87137;stroke-width:4;stroke-linecap:round;stroke-linejoin:round;stroke-miterlimit:4;stroke-opacity:1;stroke-dasharray:none;stroke-dashoffset:0;marker:none;visibility:visible;display:inline;overflow:visible;enable-background:accumulate" />
    <path
       style="color:#000000;fill:none;stroke:#008000;stroke-width:4;stroke-linecap:butt;stroke-linejoin:miter;stroke-miterlimit:4;stroke-opacity:1;stroke-dasharray:none;stroke-dashoffset:0;marker:none;visibility:visible;display:inline;overflow:visible;enable-background:accumulate"
       d="m 569.3556,141.51119 c -14.85566,-0.88338 -31.74913,4.52256 -48,1 -18.24713,-1.31484 -31.35922,-5.66093 -49,-7 -15.08464,-0.70412 -27.34135,2.27997 -41.14903,1.29165 -21.58102,1.0372 -43.27606,2.8392 -65.02775,2.70835 -21.71067,2.51124 -40.7299,3.11223 -61.42249,0.0555 -34.35217,-2.38333 -48.61404,3.06949 -73.40073,-0.0555 -19.98378,-2.98315 -38.04719,4.35479 -57.66908,3 -16.64996,-0.33966 -33.28518,-4.39802 -49.83092,-3.5 -18.40515,2.80193 -34.54511,1.89781 -52.39934,2.5 -12.42187,0.53712 -24.62844,-0.50848 -36.75472,-3.02291 -16.062131,-1.09743 -31.8382312,-0.7647 -47.429462,0.49238 l 0,0"
       id="path2949"
       sodipodi:nodetypes="ccccccccccccc" />
    <path
       sodipodi:nodetypes="cccccccccccc"
       id="path3641"
       d="m 572.48812,276.60794 c -12.1759,-2.26178 -24.40155,-3.05382 -36.80959,-2.25878 -17.86372,1.11777 -35.4924,8.8045 -52.78406,6.09776 -16.1603,-1.50818 -32.79148,-4.98 -49.44491,-4.974 -19.57691,-0.4258 -38.7262,7.03566 -57.63586,2.1977 -24.79103,0.89349 -38.78709,6.80759 -72.85468,1.51368 -20.67099,1.25443 -41.87325,-1.06484 -62.07465,3.29014 -20.54699,5.99739 -42.80264,5.92111 -64.35747,7.40556 -13.82701,-0.69804 -28.24903,2.50928 -41.53657,-1.20457 -17.66479,-0.97234 -30.86433,-5.04512 -49.134831,-5.98065 -16.320535,-3.18423 -33.098066,2.57146 -47.968871,1.99685 -21.803764,-1.31877 -42.214103,-3.10177 -59.806938,-0.40052"
       style="color:#000000;fill:none;stroke:#008000;stroke-width:4;stroke-linecap:butt;stroke-linejoin:miter;stroke-miterlimit:4;stroke-opacity:1;stroke-dasharray:none;stroke-dashoffset:0;marker:none;visibility:visible;display:inline;overflow:visible;enable-background:accumulate" />
    <path
       id="path2916"
       d="m 369.32103,137.27 c -1.44404,-3.22476 -1.63716,-6.52438 -9.59925,-9.53332 -7.77985,-3.81022 -14.4116,-7.74199 -24.67385,-11.42635 -16.20652,-8.96401 -9.35944,-10.41484 -19.80048,-4.56586 -8.06395,4.67425 -19.50043,7.10625 -24.93574,10.79664 -7.31544,3.72475 -16.96613,7.81398 -20.15646,11.41208 2.34528,1.09227 -4.09962,1.73488 -2.60558,2.82449"
       style="fill:none;stroke:#80ff00;stroke-width:3.99999928;stroke-linecap:round;stroke-linejoin:round;stroke-miterlimit:4;stroke-opacity:1;stroke-dasharray:none"
       sodipodi:nodetypes="ccccccc" />
    <path
       id="path2918"
       d="m 481.47109,134.46269 c -0.69327,-0.54805 -4.41864,-3.49261 -6.26476,-4.95166 -3.78084,-3.70734 -11.87602,-5.27283 -15.57583,-6.72259 -5.98983,-2.70704 -13.20531,-7.94543 -24.50748,-10.06913 -1.93735,-2.81865 -8.41456,-4.18288 -12.87013,-5.85926 -2.57227,3.73374 -13.86903,8.14186 -20.0972,12.18009 -0.62208,3.42865 -8.02412,7.495 -15.60238,13.10957 -0.54216,0.42119 -5.25252,2.91951 -8.99479,4.21613"
       style="fill:none;stroke:#80ff00;stroke-width:3.99999952;stroke-linecap:round;stroke-linejoin:round;stroke-miterlimit:4;stroke-opacity:1;stroke-dasharray:none"
       sodipodi:nodetypes="cccccccc" />
    <path
       sodipodi:nodetypes="csssssss"
       id="path2920"
       d="m 290.38771,106.531 c 5.24741,2.17133 9.5645,0.90405 15.4086,0.61068 6.06522,-0.30378 12.13643,0.25511 18.32282,0.64602 6.81399,0.43048 15.70473,0.0496 23.28824,0.30981 9.47252,0.325 18.13214,2.29769 27.74743,2.38391 11.72409,0.1053 23.55121,-0.38865 35.32839,-1.83291 5.92222,-0.72622 11.67508,-2.00219 17.6981,-2.21801 4.64604,-0.16648 15.08945,1.54206 18.33704,1.72986"
       style="color:#000000;fill:none;stroke:#80ff00;stroke-width:4;stroke-linecap:round;stroke-linejoin:round;stroke-miterlimit:4;stroke-opacity:1;stroke-dasharray:none;stroke-dashoffset:0;marker:none;visibility:visible;display:inline;overflow:visible;enable-background:accumulate" />
    <path
       style="color:#000000;fill:none;stroke:#80ff00;stroke-width:3.99999952;stroke-linecap:round;stroke-linejoin:round;stroke-miterlimit:4;stroke-opacity:1;stroke-dasharray:none;stroke-dashoffset:0;marker:none;visibility:visible;display:inline;overflow:visible;enable-background:accumulate"
       d="m 446.52642,108.15234 c 0.006,-0.0116 40.08003,1.21219 56.47456,12.43111 8.28499,2.63117 41.59391,18.79611 59.2931,22.98249 22.04809,4.01994 25.47028,9.2094 39.46768,14.06373 16.25168,5.63613 18.33938,0.80386 32.89613,-0.26663 11.42441,-0.84014 24.94586,0.43433 45.81888,6.86171 17.81736,0.035 39.70203,12.01753 56.09158,23.02401"
       id="path4125-8-8"
       sodipodi:nodetypes="cccsscs" />
    <path
       style="color:#000000;fill:none;stroke:#80ff00;stroke-width:3.99999976;stroke-linecap:round;stroke-linejoin:round;stroke-miterlimit:4;stroke-opacity:1;stroke-dasharray:none;stroke-dashoffset:0;marker:none;visibility:visible;display:inline;overflow:visible;enable-background:accumulate"
       d="m 291.61302,80.079158 c -1.60675,-2.156012 -9.84638,3.258073 -14.24731,4.33207 -3.57657,0.872922 -7.3593,1.173187 -10.75427,2.426921 -3.76556,1.390737 -7.30377,3.335175 -11.13639,4.552483 -5.7532,1.827498 -11.75777,3.069877 -17.67842,4.477711 -2.89458,0.688204 -5.91334,0.08486 -8.36695,1.645152 -3.04684,1.939131 -9.70496,1.946367 -9.7427,4.545255 -0.0351,2.41596 6.14508,3.35893 8.48993,5.95677 7.53657,8.34941 12.6977,7.6514 19.44692,10.13205 4.76433,1.75099 9.43252,1.61886 13.98024,3.77605 4.98715,2.36582 9.11075,6.18933 14.07243,8.62075 3.12202,1.53003 6.47757,1.95661 9.61872,3.25647 4.69466,1.94265 2.26627,-3.74102 2.12245,-5.89444 -0.26617,-3.98563 0.21688,-7.91109 0.16847,-11.88062 -0.0418,-3.43074 1.47193,-6.64159 1.13909,-10.19414 -0.35988,-3.84064 -0.78236,-7.808526 -0.23295,-11.555949 0.526,-3.587784 1.29639,-7.185386 2.2887,-10.698791 0.4876,-1.726238 1.64313,-2.409344 0.83204,-3.497742 z"
       id="path2870"
       sodipodi:nodetypes="csssssssssssssssss" />
    <path
       style="fill:none;stroke:#0000ff;stroke-width:3.99999952;stroke-linecap:round;stroke-linejoin:round;stroke-miterlimit:4;stroke-opacity:1;stroke-dasharray:none"
       d="m 98.772133,26.757795 c -5.277644,2.802419 -8.389077,7.684359 -9.887138,11.232026 -2.550559,5.168329 -3.581181,6.709921 -3.387018,12.848695 0.68061,4.986401 -1.399668,9.38969 0.478619,14.630138 0.6334,8.051546 7.936553,11.651836 14.262324,15.33857 5.02662,1.874227 9.96615,5.288805 15.42239,3.833256 3.85249,-1.029166 8.44389,-0.838993 11.71022,-2.835494 3.32694,-5.533296 11.72559,-8.976991 13.45164,-13.649834 2.03557,-4.825002 2.93038,-14.046882 2.7348,-18.707427 -1.2726,-6.91406 -9.37552,-12.707248 -12.16028,-16.604355 -3.10449,-2.003915 -11.12036,-8.321484 -13.56676,-9.172077 -6.15974,-1.350289 -12.38222,2.238696 -19.058797,3.086504 z"
       id="path2905"
       sodipodi:nodetypes="cccccscccccc" />
    <path
       style="fill:none;stroke:#0000ff;stroke-width:3.99999976;stroke-linecap:round;stroke-linejoin:round;stroke-miterlimit:4;stroke-opacity:1;stroke-dasharray:none"
       d="m 114.01525,86.097877 c 2.84685,6.752324 1.49689,15.726673 3.62453,18.165523 0.98106,10.70835 3.47508,21.70156 4.34936,32.3797 0.33623,9.15906 3.25927,18.35406 4.74964,27.00172 1.19414,4.22209 2.38822,8.44388 3.58231,12.66568"
       id="path2907" />
    <path
       id="path2909"
       style="fill:none;stroke:#0000ff;stroke-width:3.99999976;stroke-linecap:round;stroke-linejoin:round;stroke-miterlimit:4;stroke-opacity:1;stroke-dasharray:none"
       d="m 90.259342,274.23383 c -0.02483,7.27151 -0.88196,4.27034 0.497174,1.63133 1.529846,-7.7382 4.304622,-12.72484 6.52328,-19.83417 2.013897,-10.09635 8.573444,-17.2416 9.698684,-27.74313 5.14405,-8.15002 7.8075,-18.76816 12.46533,-27.50813 2.82625,-8.61194 7.56014,-15.6458 11.8211,-22.93613 3.49883,10.23905 7.55414,22.31267 10.60809,30.40097 2.65612,11.64023 8.32148,19.0588 11.28106,30.23786 3.98628,7.13505 6.62078,14.93744 9.65845,23.79211 2.42097,4.9126 2.17704,17.22207 3.98022,18.60002 0.38371,0.56407 1.43549,6.94633 0.16439,3.79288"
       sodipodi:nodetypes="ccccccccccc" />
    <path
       style="fill:none;stroke:#808080;stroke-width:3.99999976;stroke-linecap:round;stroke-linejoin:round;stroke-miterlimit:4;stroke-opacity:1;stroke-dasharray:none"
       d="m 105.02428,198.32275 c 0.24898,1.29569 -7.810651,-4.95033 -12.360142,-7.72894 -4.940427,-4.64355 -4.904794,-2.71383 -9.292361,-6.64243 -1.433508,-2.05234 3.879065,-2.65577 3.067889,-5.11435 0.379516,-2.18448 -10.209229,-12.71772 -8.430942,-13.2999 3.535024,-1.2849 10.200457,6.71993 12.49677,10.17551 2.619036,9.6e-4 6.213388,-5.31614 5.982798,-0.9989 3.292457,11.61397 7.363038,17.50336 8.535988,23.60901 z"
       id="path3747"
       sodipodi:nodetypes="cccccccs" />
    <path
       style="fill:none;stroke:#0000ff;stroke-width:3.99999976;stroke-linecap:round;stroke-linejoin:round;stroke-miterlimit:4;stroke-opacity:1;stroke-dasharray:none"
       d="m 80.100699,174.11234 c 5.433135,-12.3869 10.935119,-25.08211 16.287449,-37.49769 4.094032,-8.17862 8.561802,-25.48112 12.250532,-35.32267 1.5824,-3.078187 6.38045,-20.828191 5.82874,-11.563944 -0.89851,12.122824 -2.65396,21.272394 -3.66764,28.919934 -1.72474,11.91935 -2.98246,19.32946 -1.90303,37.38341 -0.29511,5.77378 -0.61632,10.68657 -1.1901,17.13656 -0.50406,3.73061 0.22256,4.99969 -0.63051,9.07794"
       id="path2911"
       sodipodi:nodetypes="cccccccc" />
    <path
       style="fill:none;stroke:#000000;stroke-width:1px;stroke-linecap:butt;stroke-linejoin:miter;stroke-opacity:1"
       d="m -36.348549,86.094105 1.83508,193.084515"
       id="path3211" />
    <path
       style="fill:none;stroke:#0000ff;stroke-width:4;stroke-linecap:round;stroke-linejoin:round;stroke-miterlimit:4;stroke-opacity:1;stroke-dasharray:none"
       d="m 11.709176,94.203765 c -4.4654403,1.50466 -4.9289403,5.841165 -5.8660953,8.702405 -2.6366951,4.27602 -1.060448,5.21622 -3.0779555,10.31671 0.8532131,3.8414 -0.4820577,7.40701 1.3205921,11.3689 1.0149974,6.23282 7.3299377,10.01353 12.4964837,12.47708 4.037104,1.1353 7.877125,2.63197 12.033183,1.1449 2.934381,-1.0511 6.52336,-1.19989 8.938468,-2.96683 2.233202,-4.52675 8.552579,-7.75331 9.594439,-11.50605 -0.745039,-3.64195 -1.774136,-7.18366 -2.156819,-10.81137 -1.439236,-5.30463 -2.87654,-10.60977 -4.315916,-15.914145 -2.548184,-1.36066 -4.345742,-4.09343 -6.822511,-4.07594 -1.630894,-0.96061 -4.640725,0.47858 -6.601551,-0.026 -4.885849,-0.65374 -10.101789,1.28365 -15.542318,1.29032 z"
       id="path2905-1" />
    <path
       style="fill:none;stroke:#0000ff;stroke-width:4;stroke-linecap:round;stroke-linejoin:round;stroke-miterlimit:4;stroke-opacity:1;stroke-dasharray:none"
       d="m 27.848711,141.08533 c 2.697108,4.57728 1.315062,11.38084 3.352866,12.87991 0.858503,7.75461 3.178321,15.50697 3.933754,23.25429 0.247735,6.7032 2.997883,13.07008 4.366569,19.23451 1.11958,2.94425 2.239091,5.88831 3.3586,8.83236"
       id="path2907-7" />
    <path
       id="path2909-4"
       style="fill:none;stroke:#0000ff;stroke-width:4;stroke-linecap:round;stroke-linejoin:round;stroke-miterlimit:4;stroke-opacity:1;stroke-dasharray:none"
       d="m 44.295373,208.18273 c 2.316929,3.65863 7.073067,11.95356 10.596113,17.48849 3.333282,8.07882 9.425506,12.96895 13.034932,20.70106 4.398557,4.79848 7.48594,10.15804 11.037527,16.23733 2.705214,3.3249 3.180975,12.06697 5.062558,12.92638 0.416224,0.37489 1.839766,4.83079 0.385867,2.67808 M 42.519198,204.81073 c -3.829843,5.44556 -8.147041,10.74012 -10.466639,17.02917 -4.141522,6.49905 -6.181252,14.19969 -10.842906,20.3122 -0.51016,7.51781 -6.644347,13.01021 -8.065794,20.29865 -1.800538,5.18428 -4.280594,8.89999 -5.356379,14.48522 -1.223268,1.96061 -0.191758,4.03232 -0.591927,-1.12407" />
    <path
       style="fill:none;stroke:#0000ff;stroke-width:4;stroke-linecap:round;stroke-linejoin:round;stroke-miterlimit:4;stroke-opacity:1;stroke-dasharray:none"
       d="m 15.392073,195.88125 c 1.07715,-1.41828 -0.121064,-3.99497 0.437219,-5.88704 0.505131,-3.912 0.710842,-7.14095 0.82525,-11.1132 -0.15054,-7.16825 2.887588,-13.19888 4.736824,-19.68124 1.114184,-3.92081 3.120027,-8.59546 5.029512,-13.98431 0.304431,-6.20526 4.678771,3.14846 7.049503,3.51957 4.636402,2.69393 10.063039,7.65115 16.124991,8.75852 7.349839,2.62986 14.927721,5.28691 22.460685,7.80822 4.563621,2.84449 7.930707,4.86117 11.542854,6.42492"
       id="path2911-0"
       sodipodi:nodetypes="ccccccccc" />
    <path
       style="fill:none;stroke:#80ff00;stroke-width:3.99999976;stroke-linecap:round;stroke-linejoin:round;stroke-miterlimit:4;stroke-opacity:1;stroke-dasharray:none"
       d="m 294.18975,240.49652 c -2.01907,3.07791 -3.56959,-4.45075 -5.80718,-0.69772 -5.35229,1.60335 -10.69219,-1.57527 -16.04972,0.17751 -3.73032,0.26681 -7.31683,-1.66525 -11.05356,-1.28312 -3.92588,0.24555 -7.64979,-1.01799 -11.39936,-2.13909 -3.29588,-0.79895 -6.65147,-0.64626 -9.96185,-1.11478 -2.69518,1.4255 -5.04933,0.59498 -7.82157,1.80363 -3.34922,1.44141 -6.9807,-0.83738 -10.25627,1.50426 -0.0366,1.79492 3.06317,4.02971 4.26171,5.99946 3.98928,4.86478 7.9768,9.7329 11.97022,14.59074 2.96705,1.98062 5.26538,5.75864 8.71716,6.25493 2.60313,1.21999 4.65985,3.78427 7.01216,5.58106 2.43474,2.36072 5.37315,4.74383 8.0832,6.85816 2.62358,2.55875 5.50194,4.61454 7.7539,7.88934 1.76857,2.5609 4.02765,5.73111 5.91659,1.22711 1.96681,-2.82158 1.77985,-7.15591 3.77053,-9.98538 1.43785,-3.86301 3.72155,-6.98166 4.08813,-11.72966 1.85862,-3.75134 3.0778,-8.37547 5.48966,-11.55147 1.05823,-3.71018 2.92927,-7.04663 4.41301,-10.34072 0.46622,-0.74244 1.58925,-1.98113 0.87293,-3.04372 z"
       id="path2942" />
    <path
       style="fill:none;stroke:#80ff00;stroke-width:4;stroke-linecap:round;stroke-linejoin:round;stroke-miterlimit:4;stroke-opacity:1;stroke-dasharray:none"
       d="m 246.63117,295.04397 c 7.80195,-1.39165 15.86001,-2.31938 22.75372,-6.17333 8.86392,-3.99073 18.0921,-7.56935 26.50334,-12.48657 5.78883,-2.3967 20.89104,-6.58001 8.65145,-8.08703 -8.49582,-3.7053 -17.15791,-6.43926 -26.50012,-7.58492 -9.53597,-1.86315 -20.09958,-4.5342 -29.08505,-4.83644 -2.53429,1.18846 -4.48199,-1.13524 -7.05943,-0.27633"
       id="path2956"
       inkscape:transform-center-y="6.4586794"
       inkscape:transform-center-x="35.400367" />
    <path
       style="fill:none;stroke:#80ff00;stroke-width:3.99999952;stroke-linecap:round;stroke-linejoin:round;stroke-miterlimit:4;stroke-opacity:1;stroke-dasharray:none"
       d="m 369.17175,292.54207 c 1.62563,-0.40581 10.35962,-2.58645 14.68746,-3.66708 13.58688,-3.51029 17.75756,-9.96656 34.00427,-16.66009 9.68287,-2.78635 27.8585,-11.96754 32.77941,-14.08409 -10.5417,-2.0467 -21.29256,-3.74401 -31.77445,-5.87666 -16.30075,-2.39422 -30.87285,-7.1526 -41.97315,-16.70748 -1.14187,-1.26119 -3.62941,-2.78513 -7.55407,-3.75511"
       id="path2958"
       sodipodi:nodetypes="ccccccc"
       inkscape:transform-center-x="43.006966"
       inkscape:transform-center-y="3.8553544" />
    <path
       style="color:#000000;fill:none;stroke:#80ff00;stroke-width:4;stroke-linecap:round;stroke-linejoin:round;stroke-miterlimit:4;stroke-opacity:1;stroke-dasharray:none;stroke-dashoffset:0;marker:none;visibility:visible;display:inline;overflow:visible;enable-background:accumulate"
       d="m 286.06466,266.09273 c 6.74665,1.65274 12.38772,3.96167 19.69466,3.63314 7.58333,-0.34182 15.07172,-1.75782 22.7234,-2.97847 8.4279,-1.34437 19.53632,-1.92565 28.942,-3.14941 11.7486,-1.52864 22.2901,-5.0111 34.24468,-6.25954 14.57641,-1.52247 29.58952,0.17722 44.41589,0.57666 7.45552,0.20081 14.76207,1.04256 22.28593,0.65954 5.77837,-0.29415 17.99092,1.1539 23.56755,-1.43467"
       id="path2833"
       sodipodi:nodetypes="csssssss" />
    <path
       style="color:#000000;fill:none;stroke:#80ff00;stroke-width:3.99999976;stroke-linecap:round;stroke-linejoin:round;stroke-miterlimit:4;stroke-opacity:1;stroke-dasharray:none;stroke-dashoffset:0;marker:none;visibility:visible;display:inline;overflow:visible;enable-background:accumulate"
       d="m 482.04075,256.83199 c 34.46728,-2.26123 43.383,-14.06734 79.38513,-19.36857 19.73218,-2.90552 43.91753,7.40966 67.32201,2.21934 29.61591,1.26459 36.13721,-13.00645 61.9992,-13.93136 22.29737,4.63416 25.30587,8.28329 62.56618,23.78821 25.15993,19.31533 38.12348,44.11189 61.4667,57.583"
       id="path4125-8"
       sodipodi:nodetypes="cscccs" />
  </g>
</svg>
