<?xml version="1.0" encoding="UTF-8" standalone="no"?>
<!-- Created with Inkscape (http://www.inkscape.org/) -->

<svg
   xmlns:dc="http://purl.org/dc/elements/1.1/"
   xmlns:cc="http://creativecommons.org/ns#"
   xmlns:rdf="http://www.w3.org/1999/02/22-rdf-syntax-ns#"
   xmlns:svg="http://www.w3.org/2000/svg"
   xmlns="http://www.w3.org/2000/svg"
   xmlns:xlink="http://www.w3.org/1999/xlink"
   xmlns:sodipodi="http://sodipodi.sourceforge.net/DTD/sodipodi-0.dtd"
   xmlns:inkscape="http://www.inkscape.org/namespaces/inkscape"
   width="480"
   height="320"
   id="svg2"
   version="1.1"
   inkscape:version="0.48.0 r9654"
   sodipodi:docname="itnas325.svg"
   inkscape:export-xdpi="90"
   inkscape:export-ydpi="90"
   inkscape:export-filename="itnas325.png">
  <defs
     id="defs4">
    <inkscape:perspective
       sodipodi:type="inkscape:persp3d"
       inkscape:vp_x="0 : 160 : 1"
       inkscape:vp_y="0 : 1000 : 0"
       inkscape:vp_z="480 : 160 : 1"
       inkscape:persp3d-origin="240 : 106.66667 : 1"
       id="perspective8" />
  </defs>
  <sodipodi:namedview
     id="base"
     pagecolor="#ffffff"
     bordercolor="#666666"
     borderopacity="1.0"
     inkscape:pageopacity="1"
     inkscape:pageshadow="2"
     inkscape:zoom="1"
     inkscape:cx="168.44925"
     inkscape:cy="127.52653"
     inkscape:document-units="px"
     inkscape:current-layer="layer1"
     showgrid="false"
     inkscape:snap-nodes="true"
     inkscape:snap-global="true"
     inkscape:snap-grids="true"
     showguides="true"
     inkscape:window-width="1023"
     inkscape:window-height="774"
     inkscape:window-x="-4"
     inkscape:window-y="-4"
     inkscape:window-maximized="1"
     inkscape:object-nodes="false">
    <inkscape:grid
       empspacing="5"
       visible="true"
       enabled="true"
       snapvisiblegridlinesonly="true"
       type="xygrid"
       id="grid2816" />
  </sodipodi:namedview>
  <metadata
     id="metadata7">
    <rdf:RDF>
      <cc:Work
         rdf:about="">
        <dc:format>image/svg+xml</dc:format>
        <dc:type
           rdf:resource="http://purl.org/dc/dcmitype/StillImage" />
        <dc:title></dc:title>
      </cc:Work>
    </rdf:RDF>
  </metadata>
  <g
     inkscape:label="Layer 1"
     inkscape:groupmode="layer"
     id="layer1"
     transform="translate(0,0)">
    <path
       id="path3213"
       style="color:#000000;fill:none;stroke:#ff4000;stroke-width:2;stroke-linecap:butt;stroke-linejoin:miter;stroke-miterlimit:4;stroke-opacity:1;stroke-dasharray:none;stroke-dashoffset:0;marker:none;visibility:visible;display:inline;overflow:visible;enable-background:accumulate"
       d="m 70,190 c 40,0 41.99038,-100 70,-100 m -70,50 c 40,0 41.99038,-56.666667 70,-56.666667 M 70,90 c 40,0 41.99038,-13.333333 70,-13.333333 M 70,40 c 40,0 41.99038,30 70,30"
       inkscape:connector-curvature="0"
       sodipodi:nodetypes="cccccccc" />
    <path
       id="path3159"
       style="color:#000000;fill:none;stroke:#ffcc00;stroke-width:2;stroke-linecap:butt;stroke-linejoin:miter;stroke-miterlimit:4;stroke-opacity:1;stroke-dasharray:none;stroke-dashoffset:0;marker:none;visibility:visible;display:inline;overflow:visible;enable-background:accumulate"
       d="m 160,160 c 10.94378,-3.21825 36.98455,-3.10482 69.84331,-3.10482 45.16054,0 84.88132,-44.54292 130.61214,-44.54292 28.37889,0 28.88993,-2.99567 38.83745,-7.58916 C 412.60523,98.61584 422.82843,94.31677 450,90 m -290,70 c 8.21946,2.44309 37.04043,3.31051 69.94562,3.31051 44.95547,0 85.51239,-45.04767 130.50983,-45.04767 28.37889,0 28.88993,3.69357 38.83745,8.12188 C 412.60523,132.31094 422.82843,135.83846 450,140 m -290,20 c 10.55914,8.40422 37.7299,11.5 69.85648,11.5 44.95374,0 84.45976,-47.02435 130.59897,-47.02435 28.37889,0 28.88993,9.52568 38.83745,23.2242 C 412.60523,166.03196 422.82843,177.1267 450,190 M 160,160 c 9.19864,-7.66405 35.89085,-10.95024 70.01325,-10.95024 45.2341,0 84.14108,-42.01988 130.4422,-42.01988 28.37889,0 28.88993,-11.64805 38.83745,-25.19925 C 412.60523,63.69564 422.82843,52.734866 450,40"
       inkscape:connector-curvature="0"
       sodipodi:nodetypes="csssccsssccsssccsssc" />
    <path
       style="fill:none;stroke:#808080;stroke-width:2;stroke-linecap:butt;stroke-linejoin:miter;stroke-opacity:1;color:#000000;stroke-miterlimit:4;stroke-dasharray:none;stroke-dashoffset:0;marker:none;visibility:visible;display:inline;overflow:visible;enable-background:accumulate"
       d="m 230,160 -55,0"
       id="path3161"
       inkscape:connector-curvature="0" />
    <path
       style="color:#000000;fill:none;stroke:#808080;stroke-width:2;stroke-linecap:butt;stroke-linejoin:miter;stroke-miterlimit:4;stroke-opacity:1;stroke-dasharray:none;stroke-dashoffset:0;marker:none;visibility:visible;display:inline;overflow:visible;enable-background:accumulate"
       d="m 160,145 0,-65"
       id="path3163"
       inkscape:connector-curvature="0" />
    <path
       style="color:#000000;fill:none;stroke:#808080;stroke-width:2;stroke-linecap:butt;stroke-linejoin:miter;stroke-miterlimit:4;stroke-opacity:1;stroke-dasharray:none;stroke-dashoffset:0;marker:none;visibility:visible;display:inline;overflow:visible;enable-background:accumulate"
       d="m 160,175 c 0,25 30,20 30,45"
       id="path3175"
       inkscape:connector-curvature="0"
       sodipodi:nodetypes="cc" />
    <path
       style="color:#000000;fill:none;stroke:#808080;stroke-width:2;stroke-linecap:butt;stroke-linejoin:miter;stroke-miterlimit:4;stroke-opacity:1;stroke-dasharray:none;stroke-dashoffset:0;marker:none;visibility:visible;display:inline;overflow:visible;enable-background:accumulate"
       d="m 190,220 c 0,-20 40,-15 40,-35"
       id="path3165"
       inkscape:connector-curvature="0"
       sodipodi:nodetypes="cc" />
    <g
       id="g4492"
       transform="translate(-380,-1410)"
       style="stroke-width:2;stroke-miterlimit:4;stroke-dasharray:none">
      <path
         sodipodi:open="true"
         sodipodi:end="7.8539816"
         sodipodi:start="4.712389"
         d="M 5.0000001,620 C 7.7614238,620 10,622.23858 10,625 c -10e-8,2.76142 -2.2385762,5 -4.9999998,5"
         sodipodi:ry="5"
         sodipodi:rx="5"
         sodipodi:cy="625"
         sodipodi:cx="5"
         id="path4456"
         style="color:#000000;fill:none;stroke:#ff4000;stroke-width:1;stroke-linecap:butt;stroke-linejoin:miter;stroke-miterlimit:4;stroke-opacity:1;stroke-dasharray:none;stroke-dashoffset:0;marker:none;visibility:visible;display:inline;overflow:visible;enable-background:accumulate"
         sodipodi:type="arc"
         transform="matrix(-2,0,0,-2,560,2690)" />
      <path
         sodipodi:open="true"
         sodipodi:end="4.712389"
         sodipodi:start="1.5707963"
         d="M 5.0000001,630 C 2.2385764,630 7.3992065e-8,627.76142 0,625 c -7.3992064e-8,-2.76142 2.2385761,-5 4.9999999,-5 0,0 1e-7,0 2e-7,0"
         sodipodi:ry="5"
         sodipodi:rx="5"
         sodipodi:cy="625"
         sodipodi:cx="5"
         id="path4460"
         style="color:#000000;fill:none;stroke:#ff4000;stroke-width:1;stroke-linecap:butt;stroke-linejoin:miter;stroke-miterlimit:4;stroke-opacity:1;stroke-dasharray:none;stroke-dashoffset:0;marker:none;visibility:visible;display:inline;overflow:visible;enable-background:accumulate"
         sodipodi:type="arc"
         transform="matrix(-2,0,0,-2,530,2690)" />
      <rect
         y="1430"
         x="520"
         height="20"
         width="30"
         id="rect4465"
         style="color:#000000;fill:none;stroke:#ff4000;stroke-width:2;stroke-linecap:butt;stroke-linejoin:miter;stroke-miterlimit:4;stroke-opacity:1;stroke-dasharray:none;stroke-dashoffset:0;marker:none;visibility:visible;display:inline;overflow:visible;enable-background:accumulate" />
    </g>
    <path
       inkscape:connector-curvature="0"
       style="fill:none;stroke:#a14cee;stroke-width:2;stroke-linecap:butt;stroke-linejoin:miter;stroke-miterlimit:4;stroke-opacity:1;stroke-dasharray:none;display:inline"
       d="m 370,95 0,10 -10,0 20,10 -20,10 10,0 0,10 10,-20 10,20 0,-10 10,0 -20,-10 20,-10 -10,0 0,-10 -10,20 -10,-20 z"
       id="path5401" />
    <g
       id="g3973"
       style="color:#000000;fill:none;stroke:#65fffd;stroke-width:2;stroke-linecap:butt;stroke-linejoin:miter;stroke-miterlimit:4;stroke-opacity:1;stroke-dasharray:none;stroke-dashoffset:0;marker:none;visibility:visible;display:inline;overflow:visible;enable-background:accumulate"
       transform="translate(205,-65.000009)">
      <path
         transform="translate(5,60.000009)"
         d="m 120,135 c 0,11.04569 -8.95431,20 -20,20 -11.045695,0 -20,-8.95431 -20,-20 0,-11.04569 8.954305,-20 20,-20 11.04569,0 20,8.95431 20,20 z"
         sodipodi:ry="20"
         sodipodi:rx="20"
         sodipodi:cy="135"
         sodipodi:cx="100"
         id="path3917"
         style="color:#000000;fill:none;stroke:#65fffd;stroke-width:2;stroke-linecap:butt;stroke-linejoin:miter;stroke-miterlimit:4;stroke-opacity:1;stroke-dasharray:none;stroke-dashoffset:0;marker:none;visibility:visible;display:inline;overflow:visible;enable-background:accumulate"
         sodipodi:type="arc" />
      <path
         inkscape:connector-curvature="0"
         sodipodi:nodetypes="cc"
         id="path3921"
         d="m 105,175.00001 0,40"
         style="color:#000000;fill:none;stroke:#65fffd;stroke-width:2;stroke-linecap:butt;stroke-linejoin:miter;stroke-miterlimit:4;stroke-opacity:1;stroke-dasharray:none;stroke-dashoffset:0;marker:none;visibility:visible;display:inline;overflow:visible;enable-background:accumulate" />
      <path
         inkscape:connector-curvature="0"
         sodipodi:nodetypes="ccc"
         d="m 121,183.00001 -16,12 16,12"
         style="color:#000000;fill:none;stroke:#65fffd;stroke-width:2;stroke-linecap:butt;stroke-linejoin:miter;stroke-miterlimit:4;stroke-opacity:1;stroke-dasharray:none;stroke-dashoffset:0;marker:none;visibility:visible;display:inline;overflow:visible;enable-background:accumulate"
         id="path3923" />
      <path
         inkscape:connector-curvature="0"
         sodipodi:nodetypes="cc"
         id="path3926"
         d="m 105,195.00001 -20,0"
         style="color:#000000;fill:none;stroke:#65fffd;stroke-width:2;stroke-linecap:butt;stroke-linejoin:miter;stroke-miterlimit:4;stroke-opacity:1;stroke-dasharray:none;stroke-dashoffset:0;marker:none;visibility:visible;display:inline;overflow:visible;enable-background:accumulate" />
    </g>
    <g
       id="g3151"
       style="color:#000000;fill:none;stroke:#000000;stroke-width:1;stroke-linecap:butt;stroke-linejoin:bevel;stroke-miterlimit:4;stroke-opacity:1;stroke-dasharray:none;stroke-dashoffset:0;marker:none;visibility:visible;display:inline;overflow:visible;enable-background:accumulate"
       transform="matrix(2,0,0,2,-120,-20)">
      <rect
         y="120"
         x="150"
         height="20"
         width="10"
         id="rect3126"
         style="color:#000000;fill:none;stroke:#000000;stroke-width:1;stroke-linecap:butt;stroke-linejoin:bevel;stroke-miterlimit:4;stroke-opacity:1;stroke-dasharray:none;stroke-dashoffset:0;marker:none;visibility:visible;display:inline;overflow:visible;enable-background:accumulate" />
      <rect
         ry="5"
         y="120"
         x="145"
         height="20"
         width="20"
         id="rect3128"
         style="color:#000000;fill:none;stroke:#000000;stroke-width:1;stroke-linecap:butt;stroke-linejoin:bevel;stroke-miterlimit:4;stroke-opacity:1;stroke-dasharray:none;stroke-dashoffset:0;marker:none;visibility:visible;display:inline;overflow:visible;enable-background:accumulate" />
    </g>
    <path
       inkscape:connector-curvature="0"
       id="path2914"
       style="fill:none;stroke:#00ff00;stroke-width:2.00000024;stroke-linecap:butt;stroke-linejoin:miter;stroke-miterlimit:4;stroke-opacity:1;stroke-dasharray:none"
       d="m 420,41.5 40,-15 0,30 z"
       sodipodi:nodetypes="cccc" />
    <g
       id="g3790"
       transform="matrix(0,1,-1,0,379.99999,-130.00006)">
      <path
         sodipodi:nodetypes="cc"
         id="path10708"
         d="m 265,150 50,3e-5"
         style="fill:none;stroke:#000000;stroke-width:2;stroke-linecap:butt;stroke-linejoin:miter;stroke-miterlimit:4;stroke-opacity:1;stroke-dasharray:none"
         inkscape:connector-curvature="0" />
      <path
         sodipodi:nodetypes="cc"
         id="path10710"
         d="M 310.00006,154.99999 310,145"
         style="fill:none;stroke:#000000;stroke-width:2;stroke-linecap:butt;stroke-linejoin:miter;stroke-miterlimit:4;stroke-opacity:1;stroke-dasharray:none"
         inkscape:connector-curvature="0" />
      <path
         sodipodi:nodetypes="cc"
         id="path10712"
         d="m 270,155 -6e-5,-10"
         style="fill:none;stroke:#000000;stroke-width:2;stroke-linecap:butt;stroke-linejoin:miter;stroke-miterlimit:4;stroke-opacity:1;stroke-dasharray:none"
         inkscape:connector-curvature="0" />
    </g>
    <g
       id="g4174"
       transform="matrix(2,0,0,3,-1485,-322.08653)"
       style="stroke:#552200;stroke-width:0.81649661;stroke-miterlimit:4;stroke-opacity:1;stroke-dasharray:none">
      <path
         inkscape:connector-curvature="0"
         id="path4168"
         d="m 815.00001,155.69551 9.99999,10 5,-5 -5,-5 -10,10"
         style="fill:#000000;fill-opacity:0;stroke:#552200;stroke-width:0.81649661;stroke-linecap:butt;stroke-linejoin:bevel;stroke-miterlimit:4;stroke-opacity:1;stroke-dasharray:none"
         sodipodi:nodetypes="ccccc" />
      <rect
         y="155.69551"
         x="815"
         height="9.9999971"
         width="15"
         id="rect4172"
         style="color:#000000;fill:#000000;fill-opacity:0;stroke:#552200;stroke-width:0.81649661;stroke-linecap:butt;stroke-linejoin:miter;stroke-miterlimit:4;stroke-opacity:1;stroke-dasharray:none;stroke-dashoffset:0;marker:none;visibility:visible;display:inline;overflow:visible;enable-background:accumulate" />
      <path
         sodipodi:nodetypes="ccccc"
         style="fill:#000000;fill-opacity:0;stroke:#552200;stroke-width:0.81649661;stroke-linecap:butt;stroke-linejoin:bevel;stroke-miterlimit:4;stroke-opacity:1;stroke-dasharray:none"
         d="m 829.99999,155.69551 -9.99999,10 -5,-5 5,-5 10,10"
         id="path3035"
         inkscape:connector-curvature="0" />
    </g>
    <path
       inkscape:connector-curvature="0"
       style="color:#000000;fill:none;stroke:#ff4000;stroke-width:2;stroke-linecap:butt;stroke-linejoin:miter;stroke-miterlimit:4;stroke-opacity:1;stroke-dasharray:none;stroke-dashoffset:0;marker:none;visibility:visible;display:inline;overflow:visible;enable-background:accumulate"
       d="M 140,59.999998 140,100 179.99999,59.999998 179.99999,100 140,59.999998 z"
       id="path3795-4"
       sodipodi:nodetypes="ccccc" />
    <use
       x="0"
       y="0"
       xlink:href="#path2914"
       id="use3777"
       transform="translate(0,50)"
       width="480"
       height="320" />
    <use
       x="0"
       y="0"
       xlink:href="#path2914"
       id="use3779"
       width="480"
       height="320"
       transform="translate(0,100)" />
    <use
       x="0"
       y="0"
       xlink:href="#path2914"
       id="use3781"
       transform="translate(0,150)"
       width="480"
       height="320" />
    <g
       id="g5325"
       transform="matrix(1,0,0,-1,-235,300)"
       style="color:#000000;fill:none;stroke:#00ff66;stroke-width:2;stroke-linecap:butt;stroke-linejoin:miter;stroke-miterlimit:4;stroke-opacity:1;stroke-dasharray:none;stroke-dashoffset:0;marker:none;visibility:visible;display:inline;overflow:visible;enable-background:accumulate">
      <path
         inkscape:connector-curvature="0"
         sodipodi:nodetypes="cccc"
         id="path4547-1"
         d="m 290,245 -25,25 50,0 -25,-25 z"
         style="color:#000000;fill:none;stroke:#00ff66;stroke-width:2;stroke-linecap:butt;stroke-linejoin:miter;stroke-miterlimit:4;stroke-opacity:1;stroke-dasharray:none;stroke-dashoffset:0;marker:none;visibility:visible;display:inline;overflow:visible;enable-background:accumulate" />
      <path
         transform="translate(0,-10)"
         d="m 300,270 c 0,5.52285 -4.47715,10 -10,10 -5.52285,0 -10,-4.47715 -10,-10 0,-5.52285 4.47715,-10 10,-10 5.52285,0 10,4.47715 10,10 z"
         sodipodi:ry="10"
         sodipodi:rx="10"
         sodipodi:cy="270"
         sodipodi:cx="290"
         id="path4551"
         style="color:#000000;fill:none;stroke:#00ff66;stroke-width:2;stroke-linecap:butt;stroke-linejoin:miter;stroke-miterlimit:4;stroke-opacity:1;stroke-dasharray:none;stroke-dashoffset:0;marker:none;visibility:visible;display:inline;overflow:visible;enable-background:accumulate"
         sodipodi:type="arc" />
    </g>
    <g
       style="color:#000000;fill:none;stroke:#00ff66;stroke-width:2;stroke-linecap:butt;stroke-linejoin:miter;stroke-miterlimit:4;stroke-opacity:1;stroke-dasharray:none;stroke-dashoffset:0;marker:none;visibility:visible;display:inline;overflow:visible;enable-background:accumulate"
       transform="matrix(1,0,0,-1,-235,300)"
       id="g3806">
      <path
         style="color:#000000;fill:none;stroke:#00ff66;stroke-width:2;stroke-linecap:butt;stroke-linejoin:miter;stroke-miterlimit:4;stroke-opacity:1;stroke-dasharray:none;stroke-dashoffset:0;marker:none;visibility:visible;display:inline;overflow:visible;enable-background:accumulate"
         d="m 290,245 -25,25 50,0 -25,-25 z"
         id="path3808"
         sodipodi:nodetypes="cccc"
         inkscape:connector-curvature="0" />
      <path
         sodipodi:type="arc"
         style="color:#000000;fill:none;stroke:#00ff66;stroke-width:2;stroke-linecap:butt;stroke-linejoin:miter;stroke-miterlimit:4;stroke-opacity:1;stroke-dasharray:none;stroke-dashoffset:0;marker:none;visibility:visible;display:inline;overflow:visible;enable-background:accumulate"
         id="path3810"
         sodipodi:cx="290"
         sodipodi:cy="270"
         sodipodi:rx="10"
         sodipodi:ry="10"
         d="m 300,270 c 0,5.52285 -4.47715,10 -10,10 -5.52285,0 -10,-4.47715 -10,-10 0,-5.52285 4.47715,-10 10,-10 5.52285,0 10,4.47715 10,10 z"
         transform="translate(0,-10)" />
    </g>
    <use
       x="0"
       y="0"
       xlink:href="#g3806"
       id="use3818"
       transform="translate(0,50)"
       width="480"
       height="320" />
    <use
       x="0"
       y="0"
       xlink:href="#g3806"
       id="use3820"
       transform="translate(0,100)"
       width="480"
       height="320" />
    <use
       x="0"
       y="0"
       xlink:href="#g3806"
       id="use3822"
       transform="translate(0,150)"
       width="480"
       height="320" />
    <path
       style="color:#000000;fill:none;stroke:#b15f13;stroke-width:2;stroke-linecap:butt;stroke-linejoin:miter;stroke-miterlimit:4;stroke-opacity:1;stroke-dashoffset:0;marker:none;visibility:visible;display:inline;overflow:visible;enable-background:accumulate"
       d="m 180,30 80,0 0,250 -140,0 0,-250 10,0"
       id="rect3020"
       inkscape:connector-curvature="0"
       sodipodi:nodetypes="cccccc" />
    <g
       transform="matrix(-1.0186859,0,0,-1.1485065,682.56188,1026.5206)"
       id="g4295">
      <path
         inkscape:connector-curvature="0"
         id="path3379"
         style="fill:none;stroke:#00ff00;stroke-width:1.84902644;stroke-linecap:butt;stroke-linejoin:miter;stroke-miterlimit:4;stroke-opacity:1;stroke-dasharray:none"
         d="m 355.9297,715.24596 c 0,0 39.24793,-13.01169 39.24793,-13.01169 l -39.16834,-13.76569 c 0,0 -0.0796,26.77738 -0.0796,26.77738 l 1e-5,0 z"
         sodipodi:nodetypes="ccccc" />
      <g
         id="g4287">
        <path
           inkscape:connector-curvature="0"
           id="path3383"
           d="m 371.62036,708.72351 -0.0314,-13.73249"
           style="fill:none;stroke:#0000ff;stroke-width:1.84902644;stroke-linecap:butt;stroke-linejoin:bevel;stroke-miterlimit:4;stroke-opacity:1;stroke-dasharray:none" />
        <path
           inkscape:connector-curvature="0"
           id="path3385"
           d="m 376.18181,705.21741 0.0878,-6.72028"
           style="fill:none;stroke:#0000ff;stroke-width:1.84902644;stroke-linecap:butt;stroke-linejoin:bevel;stroke-miterlimit:4;stroke-opacity:1;stroke-dasharray:none" />
        <path
           inkscape:connector-curvature="0"
           style="color:#000000;fill:none;stroke:#0000ff;stroke-width:1.84902644;stroke-linecap:butt;stroke-linejoin:bevel;stroke-miterlimit:4;stroke-opacity:1;stroke-dasharray:none;stroke-dashoffset:0;marker:none;visibility:visible;display:inline;overflow:visible;enable-background:accumulate"
           d="m 353.79955,695.04474 c -1.74046,2.59236 -4.57365,5.20477 -5.72669,7.95796 -1.15304,2.75321 -0.1313,5.68189 2.47034,5.66704 2.60164,-0.0149 3.72687,-2.79593 2.86335,-5.66704 -0.86353,-2.8711 -3.98623,-5.06415 -6.232,-7.53595"
           id="path3030-6-4"
           sodipodi:nodetypes="czzzc" />
        <path
           inkscape:connector-curvature="0"
           style="color:#000000;fill:none;stroke:#0000ff;stroke-width:1.84902644;stroke-linecap:butt;stroke-linejoin:bevel;stroke-miterlimit:4;stroke-opacity:1;stroke-dasharray:none;stroke-dashoffset:0;marker:none;visibility:visible;display:inline;overflow:visible;enable-background:accumulate"
           d="m 366.35051,708.65083 c -2.13356,-3.95705 -5.08175,-4.05662 -7.74352,-0.088"
           id="rect10452-1-7-4-2-0"
           sodipodi:nodetypes="cc" />
        <path
           inkscape:connector-curvature="0"
           style="color:#000000;fill:none;stroke:#0000ff;stroke-width:1.84902644;stroke-linecap:butt;stroke-linejoin:bevel;stroke-miterlimit:4;stroke-opacity:1;stroke-dasharray:none;stroke-dashoffset:0;marker:none;visibility:visible;display:inline;overflow:visible;enable-background:accumulate"
           d="m 366.25372,695.06371 c -1.66338,4.19209 -5.97081,4.14958 -7.61852,0.0367"
           id="rect10452-1-4-4-0-7-9"
           sodipodi:nodetypes="cc" />
        <path
           inkscape:connector-curvature="0"
           style="color:#000000;fill:none;stroke:#0000ff;stroke-width:1.84902644;stroke-linecap:butt;stroke-linejoin:bevel;stroke-miterlimit:4;stroke-opacity:1;stroke-dasharray:none;stroke-dashoffset:0;marker:none;visibility:visible;display:inline;overflow:visible;enable-background:accumulate"
           d="m 357.79068,701.88677 9.33026,0.0884"
           id="rect10452-0-7-4-1-8" />
      </g>
    </g>
    <g
       transform="matrix(-1.0207042,0,0,-1.0921903,590.06156,350.42147)"
       id="g2941">
      <path
         inkscape:connector-curvature="0"
         id="path2914-7"
         style="fill:none;stroke:#00ff00;stroke-width:1.89422202;stroke-linecap:butt;stroke-linejoin:miter;stroke-miterlimit:4;stroke-opacity:1;stroke-dasharray:none"
         d="m 264.52427,95.80081 c 0,0 39.24793,-13.01169 39.24793,-13.01169 L 264.60386,69.02343 c 0,0 -0.0796,26.77738 -0.0796,26.77738 l 10e-6,0 z"
         sodipodi:nodetypes="ccccc" />
      <g
         id="g2936">
        <path
           inkscape:connector-curvature="0"
           id="path2918"
           style="color:#000000;fill:none;stroke:#0000ff;stroke-width:1.89422202;stroke-linecap:butt;stroke-linejoin:bevel;stroke-miterlimit:4;stroke-opacity:1;stroke-dasharray:none;stroke-dashoffset:0;marker:none;visibility:visible;display:inline;overflow:visible;enable-background:accumulate"
           d="m 273.83282,88.55378 -7.30791,-12.283319 m 0,12.283319 7.30791,-12.283319"
           sodipodi:nodetypes="cccc" />
        <path
           inkscape:connector-curvature="0"
           sodipodi:nodetypes="cccc"
           d="m 283.11077,88.55378 -7.3079,-12.283319 m 0,12.283319 7.3079,-12.283319"
           style="color:#000000;fill:none;stroke:#0000ff;stroke-width:1.89422202;stroke-linecap:butt;stroke-linejoin:bevel;stroke-miterlimit:4;stroke-opacity:1;stroke-dasharray:none;stroke-dashoffset:0;marker:none;visibility:visible;display:inline;overflow:visible;enable-background:accumulate"
           id="path2930" />
        <path
           inkscape:connector-curvature="0"
           sodipodi:nodetypes="cccc"
           d="m 262.31454,88.55378 -7.3079,-12.283319 m 0,12.283319 7.3079,-12.283319"
           style="color:#000000;fill:none;stroke:#0000ff;stroke-width:1.89422202;stroke-linecap:butt;stroke-linejoin:bevel;stroke-miterlimit:4;stroke-opacity:1;stroke-dasharray:none;stroke-dashoffset:0;marker:none;visibility:visible;display:inline;overflow:visible;enable-background:accumulate"
           id="path2934" />
      </g>
    </g>
  </g>
</svg>
