<?xml version="1.0" encoding="UTF-8" standalone="no"?>
<!-- Created with Inkscape (http://www.inkscape.org/) -->

<svg
   xmlns:dc="http://purl.org/dc/elements/1.1/"
   xmlns:cc="http://creativecommons.org/ns#"
   xmlns:rdf="http://www.w3.org/1999/02/22-rdf-syntax-ns#"
   xmlns:svg="http://www.w3.org/2000/svg"
   xmlns="http://www.w3.org/2000/svg"
   xmlns:sodipodi="http://sodipodi.sourceforge.net/DTD/sodipodi-0.dtd"
   xmlns:inkscape="http://www.inkscape.org/namespaces/inkscape"
   inkscape:export-filename="itnas171.png"
   inkscape:export-ydpi="90"
   inkscape:export-xdpi="90"
   sodipodi:docname="itnas171.svg"
   inkscape:version="0.47 r22583"
   version="1.1"
   id="svg2"
   height="320"
   width="480">
  <defs
     id="defs4" />
  <sodipodi:namedview
     id="base"
     pagecolor="#ffffff"
     bordercolor="#666666"
     borderopacity="1.0"
     inkscape:pageopacity="1"
     inkscape:pageshadow="2"
     inkscape:zoom="1"
     inkscape:cx="322.2595"
     inkscape:cy="150.94692"
     inkscape:document-units="px"
     inkscape:current-layer="layer1"
     showgrid="false"
     inkscape:snap-nodes="true"
     inkscape:snap-global="false"
     inkscape:snap-grids="true"
     showguides="true"
     inkscape:window-width="1280"
     inkscape:window-height="998"
     inkscape:window-x="-4"
     inkscape:window-y="-4"
     inkscape:window-maximized="1"
     inkscape:object-nodes="true">
    <inkscape:grid
       empspacing="5"
       visible="true"
       enabled="true"
       snapvisiblegridlinesonly="true"
       type="xygrid"
       id="grid2816" />
  </sodipodi:namedview>
  <metadata
     id="metadata7">
    <rdf:RDF>
      <cc:Work
         rdf:about="">
        <dc:format>image/svg+xml</dc:format>
        <dc:type
           rdf:resource="http://purl.org/dc/dcmitype/StillImage" />
        <dc:title />
      </cc:Work>
    </rdf:RDF>
  </metadata>
  <g
     inkscape:label="Layer 1"
     inkscape:groupmode="layer"
     id="layer1"
     transform="translate(0,0)">
    <path
       style="color:#000000;fill:none;stroke:#008000;stroke-width:4;stroke-linecap:butt;stroke-linejoin:miter;stroke-miterlimit:4;stroke-opacity:1;stroke-dasharray:none;stroke-dashoffset:0;marker:none;visibility:visible;display:inline;overflow:visible;enable-background:accumulate"
       d="m -102.44326,263.37369 c 9.465331,0.33197 19.293721,1.65239 33.324423,0.89616 10.961691,2.00488 23.641571,3.14011 36.004876,1.97828 3.178795,-0.32319 15.719078,1.61115 18.87966,1.89933 19.929888,-0.0799 29.33378,4.74382 48.747691,7.05403 12.070607,0.94885 23.83913,3.91612 35.75969,5.86509 19.74238,3.24596 39.80533,1.66159 59.70554,2.0176 16.90844,-0.0578 33.74455,2.16436 50.29203,5.51774 15.96429,3.49756 32.44203,3.77167 48.68812,2.63975 7.89786,-0.61773 15.80038,-1.24665 23.72749,-1.30935 19.11001,-0.27831 38.2137,0.89705 57.32204,0.4375 22.85019,-1.00998 45.64473,-3.27873 68.53101,-3.44943 18.9332,-0.67644 37.67267,2.90167 56.06981,6.98437 11.68253,3.25376 24.06604,3.01283 35.62067,6.81212 0.32446,0.20535 4.46519,1.87418 6.35156,2 19.57612,1.30568 29.00549,-0.55743 43.14213,-1.10166"
       id="path2852"
       sodipodi:nodetypes="ccccccccccccccsc" />
    <path
       id="path2833"
       style="color:#000000;fill:none;stroke:#808080;stroke-width:4;stroke-linecap:round;stroke-linejoin:round;stroke-miterlimit:4;stroke-opacity:1;stroke-dasharray:none;stroke-dashoffset:0;marker:none;visibility:visible;display:inline;overflow:visible;enable-background:accumulate"
       d="m 230.56636,99.76882 c 12.54815,-0.530986 16.68853,-5.769325 50.25301,-8.535631 10.77671,-1.788669 26.35144,-3.42308 33.37381,-6.793414 5.83766,-1.026781 11.99827,-2.247426 18.57341,-3.49212 20.06545,-3.798451 39.01383,-4.668934 59.39697,-7.020815 5.37624,-0.620331 2.16113,20.162327 2.04173,37.11673 -0.0942,13.37583 -1.8854,30.97602 -0.62751,38.5437 -0.86843,12.86944 -0.99893,22.36627 -0.93923,28.40361 0.14479,14.65165 3.64949,29.32287 -0.47499,28.87203 -17.08044,-1.86703 -42.81765,-2.26099 -55.86143,-2.12132 -26.88249,0.28786 -40.00115,1.35172 -55.86144,1.41422 -19.07225,-0.96116 -41.65622,-0.51266 -50.20458,-0.70711 -1.10197,2.45134 -2.79176,5.61383 -2.82842,7.68978 m -71.92834,69.2913 0.22741,-0.40606 c 3.18833,-2.53705 6.02884,-5.46313 9.48992,-7.59682 3.44321,-2.48366 5.90419,-6.20642 9.54543,-8.54561 4.74269,-3.00802 8.06223,-7.55452 12.14234,-11.28781 3.54668,-1.98751 5.53801,-5.73849 9.033,-7.75077 3.40391,-1.82477 6.43427,-4.20636 9.21933,-6.85754 2.37082,-2.19008 4.46819,-4.48427 6.79969,-6.72584 3.28691,-2.66283 4.92586,-6.60032 7.65189,-9.71588 3.18379,-2.93465 8.0104,-10.00173 8.0104,-10.00173 0,0 16.14613,0 16.14613,0 21.80155,-1.27986 42.66983,7.62884 61.2316,5.69053 35.44981,1.03896 38.18789,-1.7647 63.47135,-0.92003 21.92524,-1.30097 31.21586,2.75224 53.74367,4.33376 15.70055,2.94191 30.62685,4.13636 45.0745,2.73731 10.44109,0.86384 17.62743,2.10968 36.94633,4.94975 6.2354,-4.4724 -3.08547,-36.48746 -0.75472,-65.66058 0.36841,-4.61127 -3.30022,-47.17958 -0.7926,-68.956408 1.14098,-9.908568 2.21075,-33.93803 -0.574,-49.93788 -23.23716,4.01579 -43.17095,5.992555 -52.20525,7.80472 -18.60397,3.73172 -44.33057,8.833219 -67.2958,9.87295 -21.55667,0.97596 -40.49063,7.252626 -60.84569,11.07533 -23.83185,4.077789 -46.01957,3.478477 -57.99061,5.22199 -24.00532,3.496236 -64.9985,7.64998 -82.16924,9.62229 -30.30723,3.481228 -35.71428,4.43379 -51.90558,7.7631 -15.01055,3.086518 -14.61038,5.104988 -34.7751,7.013408 -8.11419,0.76794 -36.73028,11.22342 -51.755822,13.93292 -13.253632,2.38997 -26.563557,4.85606 -39.55159,8.03149 -11.412137,2.79015 -23.18089,3.8356 -34.31571,8.01881 -17.62031,-0.33287 -30.34256,9.64802 -48.90538,14.41505 -23.936728,8.06401 -45.036288,22.19367 -68.179788,23.61982 -31.02274,7.59874 -55.13147,8.02551 -90.99666,13.63662 -6.68274,1.04551 -25.26087,3.54729 -24.40158,7.52532 1.82469,8.44731 34.74701,0.74228 51.93902,3.47362 29.82126,-0.30237 59.66704,0.068 89.47595,-0.73566 20.56183,2.53426 41.126498,6.03695 61.800258,7.37424 13.17374,-1.91538 26.01279,1.09129 39.03681,2.4476 21.43871,1.80412 42.85852,2.93763 64.36256,3.46963 17.930972,-0.98217 35.780472,1.85534 53.740122,0.7071 5.66605,-0.005 11.30473,0.70782 16.97056,0.70711 6.56554,0.1583 9.48519,-0.18428 12.38806,0.1111 1.40054,0.20896 2.80084,0.48704 4.22503,0.44394 1.01209,-0.002 2.02315,-0.0597 3.03526,-0.06 2.24955,0.26487 3.06824,-9.3801 1.71295,-9.3575 -7.54247,0.72974 -15.08106,0.54891 -22.62741,0 -15.07697,-1.09667 -29.11212,0.59296 -46.66905,0 -11.924596,-0.40274 -26.515912,-1.60019 -35.355342,-2.82843 -1.509679,-0.20977 -2.178571,-12.58568 -0.730897,-30.18033 1.481894,-18.01057 -1.882922,-34.83828 1.438004,-35.5806 15.636704,-3.49526 26.208613,-7.59221 38.183765,-9.8995 19.95358,-3.84452 36.2728,-10.44323 57.06854,-13.67766 19.41012,-3.01892 36.86819,-6.40767 61.7254,-9.863966 13.90543,-1.933494 26.71449,-3.754126 39.29955,-5.363864"
       sodipodi:nodetypes="ccccssccccccccsssssssssssssscsscsscccccccccccsscccsssssssssccccccs" />
    <path
       style="fill:none;stroke:#0000ff;stroke-width:4;stroke-linecap:butt;stroke-linejoin:miter;stroke-miterlimit:4;stroke-opacity:1;stroke-dasharray:none"
       d="m 158.55081,198.82843 c -1.98926,0.27241 -4.05052,0.49747 -5.83427,1.49526 -1.69373,0.94516 -3.17574,2.23277 -4.48113,3.66058 -1.54477,1.71508 -2.82494,3.66401 -3.8096,5.75041 -0.54046,1.18021 -0.82204,2.45579 -1.1238,3.71157 -0.25266,1.28363 -0.12395,2.59861 -0.20257,3.89719 -0.0387,1.59856 -0.10356,3.24691 0.47324,4.76934 0.27893,1.05941 0.85496,1.99977 1.35313,2.96565 0.97586,1.311 1.9301,2.6502 3.13779,3.76279 1.63849,1.4824 3.28898,3.02331 5.32148,3.95122 1.32845,0.64353 2.71064,1.18738 4.1235,1.61476 1.62831,0.45252 3.32044,0.69876 5.01098,0.70248 1.66311,-0.0792 3.30017,-0.47433 4.87461,-1.00062 1.49964,-0.5417 3.00626,-1.13381 4.31087,-2.06627 1.34526,-0.85232 2.69299,-1.73688 3.78753,-2.90612 1.0506,-1.00529 1.80863,-2.27517 2.36298,-3.61109 0.38888,-0.97445 0.74201,-1.97252 0.98933,-2.99242 0.35816,-1.71285 0.55334,-3.45829 0.64343,-5.20473 -0.0902,-2.07906 -0.20733,-4.17404 -0.67068,-6.20826 -0.2817,-1.16456 -0.58373,-2.35082 -1.27456,-3.35086 -0.89047,-1.34775 -2.01279,-2.52666 -3.12562,-3.69091 -1.10745,-1.1097 -2.38971,-2.02785 -3.73916,-2.81757 -1.20388,-0.80969 -2.53066,-1.45334 -3.94642,-1.78746 -1.69528,-0.44646 -3.4624,-0.47885 -5.20267,-0.59597 -0.99295,-0.022 -1.98552,-0.11689 -2.97839,-0.049 z"
       id="path8177"
       sodipodi:nodetypes="cssssssssss" />
    <path
       style="fill:none;stroke:#c87137;stroke-width:4;stroke-linecap:round;stroke-linejoin:round;stroke-opacity:1;color:#000000;stroke-miterlimit:4;stroke-dasharray:none;stroke-dashoffset:0;marker:none;visibility:visible;display:inline;overflow:visible;enable-background:accumulate"
       d="m 411.75,245.5 c -14.51862,3.01982 -24.61813,1.42113 -33.73446,2.43618 -9.93577,1.1063 -20.0192,4.19195 -31.01554,9.06382 -14.0099,6.20701 -21.00291,8.62847 -30.5,18.25 -4.41021,4.46799 -6.75,11.25 -6.75,11.25"
       id="path8848"
       sodipodi:nodetypes="cssss" />
    <path
       style="color:#000000;fill:none;stroke:#94f3f3;stroke-width:4;stroke-linecap:round;stroke-linejoin:round;stroke-miterlimit:4;stroke-opacity:1;stroke-dasharray:none;stroke-dashoffset:0;marker:none;visibility:visible;display:inline;overflow:visible;enable-background:accumulate"
       d="m 417.58386,250.43223 c -2.47035,-3.28246 -5.98513,-8.52686 -3.86191,-12.42506 3.81422,-7.00284 6.54062,-5.57008 12.11869,-5.99079 5.9794,-0.45098 10.84484,-2.15978 17.18942,-2.07539 9.44611,0.12566 9.68451,1.6305 17.77967,1.2907 6.86911,-0.28834 21.62031,-1.40966 28.44822,1.63162 6.92678,3.0853 9.14305,7.67506 4.88819,12.43546 -4.85023,5.4265 -20.94362,4.87277 -26.42627,7.64913 -5.73823,2.90578 -15.6125,2.19144 -22.59084,1.46418 -5.39679,-0.56244 -11.15057,-2.7869 -16.97255,-2.13737 -3.32357,0.37079 -7.13511,2.7251 -10.57262,-1.84248 z"
       id="path8820"
       sodipodi:nodetypes="cssssssssss" />
    <path
       style="color:#000000;fill:none;stroke:#00ffff;stroke-width:4;stroke-linecap:butt;stroke-linejoin:miter;stroke-miterlimit:4;stroke-opacity:1;stroke-dasharray:none;stroke-dashoffset:0;marker:none;visibility:visible;display:inline;overflow:visible;enable-background:accumulate"
       d="m 37.411994,142.63686 c -2.619966,0.36786 -1.793204,5.52336 -1.832297,7.68783 -0.171637,9.50156 -0.379606,15.50522 -0.474802,22.7252 -0.0701,5.317 0.634695,12.7282 -0.184202,17.88058 -0.528619,3.326 1.894627,3.89527 4.687059,3.97496 7.665589,0.21879 15.520409,0.58293 23.269126,1.2613 6.271115,0.54903 12.64199,-0.41862 18.854927,0.4201 1.927272,0.26016 5.564128,1.08107 5.202053,-1.94004 -0.880609,-7.34771 0.160013,-14.7259 -0.228269,-22.10493 -0.691612,-13.14364 0.735445,-12.4464 -0.03723,-23.83159 -0.164403,-2.42243 1.448813,-7.64257 -2.633114,-7.21858 -4.251162,0.44158 -8.555744,-0.14285 -12.807832,0.25034 -6.181076,0.57151 -11.815704,0.13298 -17.807439,0.37479 -5.232271,0.21116 -10.793344,-0.21211 -16.007978,0.52007 z"
       id="path3604"
       sodipodi:nodetypes="csssssssssssss" />
    <path
       style="fill:none;stroke:#ffff00;stroke-width:4;stroke-linecap:round;stroke-linejoin:round;stroke-opacity:1;stroke-miterlimit:4;stroke-dasharray:none;color:#000000;stroke-dashoffset:0;marker:none;visibility:visible;display:inline;overflow:visible;enable-background:accumulate"
       d="m 193.35817,243.17797 c 6.80534,-8.31291 13.63775,-11.67844 17.67397,-17.83899 3.27354,-4.99646 9.93645,-15.98532 12.14583,-25.42582 1.27509,-5.44835 5.89916,-15.8554 15.68805,-14.28122 5.06311,0.81421 24.88424,-1.65196 26.40435,3.25794 1.25458,4.05226 -16.05016,2.46008 -30.6277,1.8454 -3.89482,-0.1671 -7.91191,6.03195 -2.7001,5.27532 6.00027,-0.8711 12.45711,2.09981 29.05892,-0.85166 3.77379,-0.6709 16.77277,0.81776 20.76333,0.26718 16.65293,-2.29762 25.73845,0.24458 36.56549,-0.84508 2.80305,-0.28211 0.6203,6.01323 -3.9253,5.85419 -7.17354,-0.25099 -10.82395,1.34929 -21.77788,0.27646 -8.31083,-0.81397 -22.782,-1.24051 -30.25145,-0.2017 -10.33823,1.43778 -22.20731,0.51733 -32.44113,0.32843"
       id="path3618"
       sodipodi:nodetypes="csssssssssssss" />
    <path
       style="color:#000000;fill:none;stroke:#ff0000;stroke-width:4;stroke-linecap:butt;stroke-linejoin:miter;stroke-miterlimit:4;stroke-opacity:1;stroke-dasharray:none;stroke-dashoffset:0;marker:none;visibility:visible;display:inline;overflow:visible;enable-background:accumulate"
       d="m 342.54673,198.25736 c 0.5242,1.87087 1.3803,3.22833 5.70692,0.82511 7.99593,-4.44726 4.00029,-1.07535 11.80019,-5.3741 5.92279,-3.26882 13.40535,-7.76203 15.32418,-7.28548 1.75437,0.43569 3.44003,3.98897 6.0411,9.36158 2.68549,5.54697 6.61218,7.88648 7.68864,5.04622 0.64511,-1.70216 0.0585,-3.81944 -2.97398,-8.86565 -6.23139,-10.36922 -2.37502,-6.79638 -8.41841,-16.47875 -2.69536,-4.31833 -4.03223,-8.11967 -6.69192,-14.37503 -0.62246,-1.46402 -5.80474,-0.63393 -4.90486,1.71791 1.49167,3.89856 6.1454,13.11913 5.64355,15.70978 -0.25496,1.31697 -3.39653,3.30081 -8.32423,5.89029 -4.57659,2.40497 -7.45547,3.83792 -11.34339,6.29035 -5.83933,3.68336 -10.13694,5.43499 -9.54779,7.53777 z"
       id="path3637"
       sodipodi:nodetypes="csssssssssssss" />
    <path
       style="fill:none;stroke:#0000ff;stroke-width:3.99999976;stroke-linecap:round;stroke-linejoin:round;stroke-miterlimit:4;stroke-opacity:1;stroke-dasharray:none"
       d="m 151.28145,125.28091 c -0.71247,2.49225 -0.65948,2.67626 -2.08146,4.93786 -0.94434,1.50194 -2.87701,3.21563 -4.74823,4.21228 -2.57861,1.3734 -4.81212,1.64799 -7.38875,0.63418 -1.22321,-0.48128 -1.31635,-1.48305 -4.95393,-3.19644 -1.45689,-0.68625 -3.08965,-3.9966 -3.02003,-5.55985 0.0975,-2.18964 -0.48812,-4.42955 0.37592,-6.24447 0.66723,-1.40151 2.72834,-3.2671 4.036,-4.45643 2.3447,-2.13254 4.18102,-3.06565 6.1138,-3.23775 1.37546,-0.12241 3.19777,-0.56887 4.27308,0.051 0.7563,0.43594 3.11924,1.42538 3.96082,1.97682 2.08172,1.36398 2.61156,3.50264 3.87051,6.09982 0,0 -0.0869,3.55617 -0.43773,4.78301 z"
       id="path2905"
       sodipodi:nodetypes="cssssssssssss" />
    <path
       style="fill:none;stroke:#0000ff;stroke-width:4;stroke-linecap:round;stroke-linejoin:round;stroke-miterlimit:4;stroke-opacity:1;stroke-dasharray:none"
       d="m 132.50748,135.18011 c -2.10503,1.39656 -2.79015,4.17639 -4.22464,4.95727 -1.91758,3.35175 -4.22352,6.42358 -6.72705,9.50922 -3.24553,2.47504 -4.73581,4.74662 -6.54902,7.21368 -1.11573,1.04005 -2.23138,2.08003 -2.83492,3.47827"
       id="path2907"
       sodipodi:nodetypes="ccccc" />
    <path
       id="path2909"
       style="fill:none;stroke:#0000ff;stroke-width:4;stroke-linecap:round;stroke-linejoin:round;stroke-miterlimit:4;stroke-opacity:1;stroke-dasharray:none"
       d="m 112.52346,162.47754 c 1.0991,1.84286 3.34273,6.01819 5.01445,8.80624 1.53607,4.05918 4.50199,6.53934 6.18162,10.42671 2.12103,2.42472 3.57785,5.12259 5.2551,8.18304 1.29849,1.67816 1.39598,6.0528 2.32244,6.49328 0.20198,0.18984 0.84185,2.42634 0.14986,1.3415 M 111.68998,160.7811 c -2.0012,2.7016 -4.24351,5.32491 -5.50354,8.45691 -2.17385,3.22667 -3.31668,7.0662 -5.74424,10.09662 -0.37555,3.75678 -3.529011,6.4687 -4.356263,10.10561 -0.98293,2.58244 -2.281863,4.4266 -2.909057,7.21368 -0.64274,0.97356 -0.160518,2.01548 -0.27776,-0.56552" />
    <path
       style="fill:none;stroke:#0000ff;stroke-width:4;stroke-linecap:round;stroke-linejoin:round;stroke-miterlimit:4;stroke-opacity:1;stroke-dasharray:none"
       d="m 103.87686,144.46631 c 3.8323,-0.26897 5.82315,-2.26246 9.38743,-3.76325 1.39378,-0.58686 3.00695,-2.00042 7.05478,-2.92205 6.22198,-1.41667 7.35585,-1.88683 7.18546,-2.16622 -0.6039,-0.99015 5.86739,-3.1639 5.91834,-0.0532 0.0482,2.94083 0.16866,6.2 0.15401,8.93352 -0.023,4.30456 -1.59819,4.88205 -1.15683,8.03457 0.34637,2.474 -0.075,6.68172 -0.21183,6.70634 -1.00172,0.18016 0.18469,4.58761 -0.18739,5.45005"
       id="path2911"
       sodipodi:nodetypes="cssssssss" />
    <path
       style="color:#000000;fill:none;stroke:#ff00ae;stroke-width:4;stroke-linecap:butt;stroke-linejoin:miter;stroke-miterlimit:4;stroke-opacity:1;stroke-dasharray:none;stroke-dashoffset:0;marker:none;visibility:visible;display:inline;overflow:visible;enable-background:accumulate"
       d="m 183.29091,130.09518 c -4.07912,5.73416 -9.75944,13.09641 -13.24455,17.63928 -3.3055,4.30874 -5.43186,10.05864 -7.70996,8.36346 -3.87804,-2.88574 -16.59848,-8.82066 -14.25834,-11.27413 4.92764,-5.16628 2.67557,-4.07625 7.58574,-9.24302 2.30233,-2.42264 6.39289,-8.22729 7.55988,-10.02327 1.27192,-1.95746 5.38953,-7.87898 6.35148,-6.8192 2.62696,2.89414 3.10406,1.7796 7.36303,5.9814 1.28609,1.26882 7.54403,3.70082 6.35272,5.37548 z"
       id="path3782"
       sodipodi:nodetypes="cssssssss" />
    <path
       style="fill:none;stroke:#80ff00;stroke-width:3.99999976;stroke-linecap:round;stroke-linejoin:round;stroke-miterlimit:4;stroke-opacity:1;stroke-dasharray:none"
       d="m 197.12297,146.30266 c -1.33456,1.31494 -1.40527,-2.35693 -2.91727,-0.73786 -2.9054,0.38309 -5.34321,-1.49608 -8.26574,-1.04264 -1.9429,-0.13562 -3.5998,-1.30173 -5.55712,-1.3832 -2.04136,-0.15942 -3.83337,-1.01878 -5.65229,-1.81258 -1.61682,-0.60949 -3.35613,-0.77279 -5.01228,-1.22689 -1.52266,0.48543 -2.65245,-0.0729 -4.19381,0.30453 -1.86032,0.44703 -3.5069,-0.88634 -5.4162,-0.008 -0.19195,0.8469 1.18561,2.12214 1.61162,3.13847 1.58102,2.58236 3.16083,5.16618 4.74466,7.74554 1.33386,1.14564 2.15067,3.09497 3.87681,3.57215 1.22019,0.76013 2.0299,2.11807 3.06554,3.13355 1.02362,1.28814 2.30393,2.62226 3.49281,3.81312 1.10157,1.39515 2.38259,2.57011 3.22411,4.27805 0.66195,1.33613 1.51719,2.99505 2.92243,0.99607 1.28298,-1.19726 1.60494,-3.26166 2.90095,-4.46102 1.11157,-1.72727 2.58604,-3.04289 3.23242,-5.26422 1.31703,-1.64489 2.38964,-3.74773 3.93552,-5.0815 0.90173,-1.6816 2.18512,-3.12928 3.26542,-4.58407 0.31122,-0.31865 1.00788,-0.82604 0.74222,-1.3792 z"
       id="path2942" />
    <path
       style="fill:none;stroke:#80ff00;stroke-width:3.99999976;stroke-linecap:round;stroke-linejoin:round;stroke-miterlimit:4;stroke-opacity:1;stroke-dasharray:none"
       d="m 191.7093,159.27095 c 1.76384,1.4081 4.09356,3.46987 6.00079,3.80594 2.83823,0.50011 4.33299,1.55208 8.25911,2.21346 12.4142,0.1126 22.2169,1.5045 34.5198,0.3211 7.6875,1.0588 17.6975,-0.8378 24.7207,-0.5091 6.4437,0.1856 17.4424,-0.7308 23.4253,0.8784"
       id="path2952-1"
       sodipodi:nodetypes="cscccc" />
    <path
       style="fill:none;stroke:#80ff00;stroke-width:3.99999976;stroke-linecap:round;stroke-linejoin:round;stroke-miterlimit:4;stroke-opacity:1;stroke-dasharray:none"
       d="m 224.1375,200.99775 c -0.3047,-4.2786 -0.2264,-8.6569 -2.5195,-12.6473 -2.2045,-5.0537 -4.0553,-10.269 -7.0189,-15.155 -1.2781,-3.2837 -3.0166,-11.6849 -5.3845,-5.2678 -3.6944,4.2416 -6.6561,8.6497 -8.4599,13.5481 -2.3762,4.9445 -5.4767,10.3733 -6.5949,15.1486 0.6669,1.4487 -1.317,2.3032 -0.9085,3.7486"
       id="path2956" />
    <path
       style="fill:none;stroke:#80ff00;stroke-width:3.99999976;stroke-linecap:round;stroke-linejoin:round;stroke-miterlimit:4;stroke-opacity:1;stroke-dasharray:none"
       d="m 300.2909,202.80525 c -0.2116,-0.7405 -1.3487,-4.719 -1.9122,-6.6904 -1.8457,-6.1887 -5.912,-8.0705 -9.7431,-15.4624 -1.5006,-4.4095 -6.8881,-12.6734 -8.1065,-14.912 -1.6718,4.8175 -3.123,9.7293 -4.8488,14.5198 -2.0837,7.4468 -5.6499,14.1126 -12.225,19.21 -0.9567,0.5356 -3.2507,1.0097 -1.9839,2.5939"
       id="path2958" />
    <path
       id="path4125"
       style="color:#000000;fill:none;stroke:#80ff00;stroke-width:3.99999976;stroke-linecap:round;stroke-linejoin:round;stroke-miterlimit:4;stroke-opacity:1;stroke-dasharray:none;stroke-dashoffset:0;marker:none;visibility:visible;display:inline;overflow:visible;enable-background:accumulate"
       d="m 366.99815,102.50474 c -2.2231,8.72342 13.56966,36.17142 12.84258,45.03018 -0.83572,10.18273 -5.01122,14.36842 -7.02694,22.85618 -1.16244,4.89478 -9.66806,10.39963 -18.15346,10.65972 -6.67409,2.65794 -16.99005,2.63389 -21.24031,-1.71513 -8.40516,-8.60045 -33.25477,-9.37122 -44.18804,-13.35494"
       sodipodi:nodetypes="csscsc" />
  </g>
</svg>
