<?xml version="1.0" encoding="UTF-8" standalone="no"?>
<!-- Created with Inkscape (http://www.inkscape.org/) -->

<svg
   xmlns:dc="http://purl.org/dc/elements/1.1/"
   xmlns:cc="http://creativecommons.org/ns#"
   xmlns:rdf="http://www.w3.org/1999/02/22-rdf-syntax-ns#"
   xmlns:svg="http://www.w3.org/2000/svg"
   xmlns="http://www.w3.org/2000/svg"
   xmlns:sodipodi="http://sodipodi.sourceforge.net/DTD/sodipodi-0.dtd"
   xmlns:inkscape="http://www.inkscape.org/namespaces/inkscape"
   width="480"
   height="320"
   id="svg2"
   version="1.1"
   inkscape:version="0.47 r22583"
   sodipodi:docname="itnas205.svg"
   inkscape:export-xdpi="90"
   inkscape:export-ydpi="90"
   inkscape:export-filename="itnas205.png">
  <defs
     id="defs4" />
  <sodipodi:namedview
     id="base"
     pagecolor="#ffffff"
     bordercolor="#666666"
     borderopacity="1.0"
     inkscape:pageopacity="1"
     inkscape:pageshadow="2"
     inkscape:zoom="1.4142136"
     inkscape:cx="244.77579"
     inkscape:cy="198.15718"
     inkscape:document-units="px"
     inkscape:current-layer="layer1"
     showgrid="false"
     inkscape:snap-nodes="true"
     inkscape:snap-global="false"
     inkscape:snap-grids="true"
     showguides="true"
     inkscape:window-width="1280"
     inkscape:window-height="774"
     inkscape:window-x="1276"
     inkscape:window-y="1020"
     inkscape:window-maximized="1">
    <inkscape:grid
       empspacing="5"
       visible="true"
       enabled="true"
       snapvisiblegridlinesonly="true"
       type="xygrid"
       id="grid2816" />
  </sodipodi:namedview>
  <metadata
     id="metadata7">
    <rdf:RDF>
      <cc:Work
         rdf:about="">
        <dc:format>image/svg+xml</dc:format>
        <dc:type
           rdf:resource="http://purl.org/dc/dcmitype/StillImage" />
        <dc:title></dc:title>
      </cc:Work>
    </rdf:RDF>
  </metadata>
  <g
     inkscape:label="Layer 1"
     inkscape:groupmode="layer"
     id="layer1"
     transform="translate(0,0)">
    <path
       style="color:#000000;fill:none;stroke:#008000;stroke-width:4;stroke-linecap:butt;stroke-linejoin:round;stroke-miterlimit:4;stroke-opacity:1;stroke-dasharray:none;stroke-dashoffset:0;marker:none;visibility:visible;display:inline;overflow:visible;enable-background:accumulate"
       d="m 405.75,76.240828 c -18.83174,2.251944 -18.1767,1.743167 -35.25,10.5625 -23.07989,16.600952 -14.17701,16.650872 -31.625,33.062502 -23.70443,11.31817 -27.60602,21.85575 -47.54266,12.09171 -18.03363,-10.79498 -20.87805,-36.059012 -38.91316,-44.764072 -11.6505,-2.976138 -25.75495,3.8202 -36.01293,11.98486 -14.19713,5.274592 -27.3447,29.005392 -52.63719,34.043902 -15.80728,5.24879 -35.25367,-3.96431 -55.67531,-9.2939 C 96.702416,115.02502 78.47984,105.53096 74.786612,100.0685 62.970043,94.236268 41.817965,84.993392 27.777844,94.229458 14.001867,99.083118 7.0981307,108.45558 -5.3386993,105.69032 -42.115033,160.57421 -44.816851,300.5987 -17.875,302.36583 c 9.851152,-22.30244 23.3699412,-42.1025 48.188024,-57.14615 15.73692,-9.65628 36.752466,-14.01658 54.019906,-8.24021 13.324905,4.22176 23.44511,15.0851 34.22326,23.77366 9.64507,7.42689 18.89419,15.47169 32.78596,17.62792 13.91864,1.675 25.24726,2.87955 38.16238,-0.81097 12.65578,-2.76799 23.90303,-12.60532 32.52163,-20.0988 8.56485,-11.98542 27.34488,-18.67273 46.91063,-27.99608 9.68958,-3.29642 25.28649,0.61014 34.8994,4.37489 13.45401,4.8122 24.53005,14.16817 35.67027,22.80635 10.57055,8.50317 20.76098,17.75079 32.84596,24.08728 9.90229,3.33803 20.58433,0.91551 30.12592,-2.47171 10.53999,-3.23493 22.8048,-9.14697 28.73656,-18.83603 13.1824,-11.27181 11.77237,-26.7677 14.33714,-40.66108 -2.07374,-17.68902 5.58156,-37.28603 -3.03194,-55.0784 -5.17101,-22.66192 -1.98438,-33.24943 -12.92443,-58.41055 -2.48768,-8.260092 -5.04063,-16.863362 -10.54894,-23.674735 -3.47017,-3.468144 -8.35855,-5.592395 -13.29673,-5.370387 z"
       id="path2901"
       sodipodi:nodetypes="ccccccccccccccccccccccccccccc" />
    <path
       style="color:#000000;fill:none;stroke:#80ff00;stroke-width:3.99999976;stroke-linecap:round;stroke-linejoin:round;stroke-miterlimit:4;stroke-opacity:1;stroke-dasharray:none;stroke-dashoffset:0;marker:none;visibility:visible;display:inline;overflow:visible;enable-background:accumulate"
       d="m 210.37052,65.126996 c -0.2182,-0.612735 2.1364,-1.582013 3.01072,-2.339554 0.71057,-0.615632 1.33078,-1.348965 2.09488,-1.877217 0.84753,-0.585909 1.77831,-1.052294 2.59917,-1.674792 1.23223,-0.934419 2.37815,-1.997425 3.54658,-3.021443 0.57122,-0.500649 0.88849,-1.197112 1.57861,-1.49257 0.85732,-0.366672 1.83909,-1.726219 2.39245,-1.390953 0.51439,0.311669 -0.19673,1.698942 0.006,2.520925 0.65032,2.641861 -0.25668,3.604355 -0.72748,5.310846 -0.33237,1.204605 -1.04751,2.141057 -1.26236,3.355008 -0.23557,1.33127 -0.0368,2.67847 -0.25476,4.013191 -0.13715,0.839862 -0.54127,1.581823 -0.72975,2.395224 -0.28171,1.215666 -1.1222,-0.03062 -1.55492,-0.344193 -0.80091,-0.58037 -1.69944,-0.999705 -2.52901,-1.533455 -0.71698,-0.461295 -1.61664,-0.575715 -2.31644,-1.112558 -0.75653,-0.580421 -1.53071,-1.190353 -2.40148,-1.572615 -0.83369,-0.365991 -1.70541,-0.683348 -2.59208,-0.944241 -0.43564,-0.128181 -0.74975,0.01779 -0.85976,-0.291575 z"
       id="path2870"
       sodipodi:nodetypes="csssssssssssssssss" />
    <path
       style="fill:none;stroke:#80ff00;stroke-width:3.99999976;stroke-linecap:round;stroke-linejoin:round;stroke-miterlimit:4;stroke-opacity:1;stroke-dasharray:none"
       d="m 215.94935,69.997395 c -1.32414,2.187347 -2.1549,5.081354 -4.78359,6.598005 -5.05552,3.601792 -8.67435,6.979907 -14.05546,10.018665 -2.84736,2.635783 -7.49303,4.725533 -10.27723,6.871803 -2.5877,1.92166 -7.35783,4.6963 -9.34894,7.069422"
       id="path2952-1"
       sodipodi:nodetypes="ccccc" />
    <path
       style="fill:none;stroke:#80ff00;stroke-width:3.99999976;stroke-linecap:round;stroke-linejoin:round;stroke-miterlimit:4;stroke-opacity:1;stroke-dasharray:none"
       d="m 213.45197,95.928338 c -1.1006,-1.84079 -2.3867,-3.61275 -2.58984,-5.90494 -0.54398,-2.70259 -0.78419,-4.865174 -0.96905,-7.716455 -0.41669,-1.711845 -2.11045,-5.652891 0.69797,-3.701146 2.72897,0.680219 5.57783,1.892241 7.72008,3.383139 2.39004,1.345844 5.21564,2.682721 7.04164,4.319533 0.14162,0.784746 1.19944,0.566726 1.44601,1.276099"
       id="path2956"
       sodipodi:nodetypes="ccccccc" />
    <path
       style="fill:none;stroke:#80ff00;stroke-width:3.99999976;stroke-linecap:round;stroke-linejoin:round;stroke-miterlimit:4;stroke-opacity:1;stroke-dasharray:none"
       d="m 182.87066,119.85696 c -0.12538,-0.36409 -0.41519,-3.19155 -0.74889,-4.16089 -1.01612,-3.06499 0.11135,-5.00087 -0.43564,-9.12762 -0.64797,-2.23699 -0.8069,-7.166892 -0.94873,-8.433322 2.06497,1.49555 4.06655,4.153602 6.14593,5.622612 2.98687,2.45515 6.35763,4.1656 10.51233,4.37149"
       id="path2958"
       sodipodi:nodetypes="cccccc" />
    <path
       style="fill:none;stroke:#80ff00;stroke-width:3.99999976;stroke-linecap:round;stroke-linejoin:round;stroke-miterlimit:4;stroke-opacity:1;stroke-dasharray:none"
       d="m 177.20861,100.8329 c -2.9854,2.97062 -6.22366,5.56285 -9.99345,7.03448 -3.42954,1.44651 -6.73127,1.29769 -10.83364,0.95633 -3.83286,0.14293 -8.13746,0.99743 -12.61692,-1.27308 -3.73458,-1.99194 -5.75812,-6.85609 -8.43141,-10.347902 -1.64328,-1.89575 -4.67314,-4.74504 -5.35998,-7.08899 -2.30402,-5.046265 -3.32903,-8.742007 -5.89714,-13.758048 -0.72145,-2.206574 -3.33801,-6.622383 -3.45517,-7.096103 -1.96466,-3.725262 1.29992,-7.729811 2.71279,-9.119902"
       id="path4123"
       sodipodi:nodetypes="ccccccccc" />
    <path
       sodipodi:nodetypes="csssssssssssssssss"
       id="path2844"
       d="m 107.78509,93.183688 c 0.33849,-0.39519 1.94832,0.85257 2.82208,1.15764 0.71008,0.24795 1.46587,0.38634 2.13663,0.70624 0.74401,0.35481 1.4382,0.81498 2.19697,1.13673 1.13899,0.483 2.33282,0.85493 3.50856,1.25801 0.57483,0.19702 1.18441,0.13989 1.66419,0.50112 0.59577,0.44889 1.93003,0.58886 1.91771,1.10632 -0.0115,0.48101 -1.25721,0.53989 -1.74704,1.007512 -1.57426,1.50307 -2.60327,1.25688 -3.9748,1.60967 -0.96818,0.24897 -1.9027,0.12557 -2.83061,0.45981 -1.01755,0.36658 -1.87319,1.04092 -2.88604,1.42122 -0.63742,0.23917 -1.31313,0.2542 -1.95258,0.44725 -0.9557,0.28853 -0.42554,-0.79087 -0.38023,-1.21598 0.0838,-0.7868 0.017,-1.57723 0.0571,-2.36538 0.0347,-0.681162 -0.24415,-1.350982 -0.1503,-2.050312 0.10152,-0.75603 0.21655,-1.53606 0.13512,-2.29248 -0.078,-0.7242 -0.20484,-1.45544 -0.37679,-2.17456 -0.0846,-0.3533 -0.31075,-0.51324 -0.14002,-0.71266 z"
       style="color:#000000;fill:none;stroke:#80ff00;stroke-width:3.99999952;stroke-linecap:round;stroke-linejoin:round;stroke-miterlimit:4;stroke-opacity:1;stroke-dasharray:none;stroke-dashoffset:0;marker:none;visibility:visible;display:inline;overflow:visible;enable-background:accumulate" />
    <path
       id="path2846"
       d="m 106.38277,98.652128 c -3.19172,0.11335 -4.43074,-0.40871 -6.32729,-1.92453 -4.157651,-2.71551 -7.729666,-4.42593 -11.562882,-7.54816 -2.793969,-1.35228 -5.705737,-4.203466 -8.116656,-5.6515 C 78.189678,82.16075 74.7314,79.416663 72.382836,78.62561"
       style="fill:none;stroke:#80ff00;stroke-width:3.99999952;stroke-linecap:round;stroke-linejoin:round;stroke-miterlimit:4;stroke-opacity:1;stroke-dasharray:none"
       sodipodi:nodetypes="ccccc" />
    <path
       id="path2848"
       d="m 86.088829,104.58567 c 1.050246,-1.35677 1.995133,-2.83166 3.643387,-3.65158 1.854587,-1.193522 3.627254,-2.519282 5.697346,-3.488622 1.153662,-0.80972 3.595448,-3.22097 2.960687,-0.5596 0.289268,2.2313 0.297712,4.355542 -0.188114,6.386232 -0.305442,2.17297 -0.477172,4.66779 -1.163875,6.50547 -0.543275,0.33438 -0.0723,1.05879 -0.528845,1.44937"
       style="fill:none;stroke:#80ff00;stroke-width:3.99999952;stroke-linecap:round;stroke-linejoin:round;stroke-miterlimit:4;stroke-opacity:1;stroke-dasharray:none" />
    <path
       id="path2850"
       d="m 58.925849,89.206788 c 0.234614,-0.19961 1.495446,-1.27187 2.120222,-1.8032 1.986834,-1.650922 5.168396,-2.282686 8.083001,-3.89388 1.477383,-1.135161 5.10348,-2.691501 6.005512,-3.166543 -0.511763,1.974486 -1.117899,3.931452 -1.605712,5.908919 0.07107,3.088274 -0.556639,4.692704 0.283158,7.671754 0.199715,0.39047 0.858259,1.05701 0.08525,1.30347"
       style="fill:none;stroke:#80ff00;stroke-width:3.99999952;stroke-linecap:round;stroke-linejoin:round;stroke-miterlimit:4;stroke-opacity:1;stroke-dasharray:none"
       sodipodi:nodetypes="ccccccc" />
    <path
       id="path2852"
       d="M 71.342018,78.001974 C 67.98998,77.662043 64.000716,76.532579 60.837039,75.84524 c -4.290208,-0.474711 -5.817495,-1.817717 -9.426893,-2.379987 -2.821851,0.163581 -4.809244,-0.314052 -8.657269,0.158211 -4.15725,0.03016 -8.874989,1.110836 -13.97707,-0.75454 -9.235739,-0.769572 -11.4462,0.351904 -15.523676,2.024619 -4.962577,3.180856 -6.129831,5.046743 -6.5086976,9.715289"
       style="fill:none;stroke:#80ff00;stroke-width:3.99999952;stroke-linecap:round;stroke-linejoin:round;stroke-miterlimit:4;stroke-opacity:1;stroke-dasharray:none"
       sodipodi:nodetypes="ccccccc" />
    <path
       sodipodi:nodetypes="csssssssssssssssss"
       id="path2824"
       d="m 98.004549,213.19991 c -0.32525,-0.56326 -2.589779,0.60002 -3.73344,0.7742 -0.929435,0.14157 -1.889873,0.138 -2.787534,0.37697 -0.995658,0.26508 -1.954334,0.67105 -2.960528,0.8921 -1.510421,0.33191 -3.062756,0.51462 -4.600008,0.73979 -0.751547,0.11009 -1.487432,-0.10014 -2.159916,0.2335 -0.835123,0.41475 -2.506715,0.28021 -2.610421,0.91884 -0.09641,0.59368 1.420731,0.95218 1.915143,1.63931 1.589052,2.20845 2.909913,2.14236 4.51415,2.89081 1.132443,0.5283 2.309048,0.59135 3.372387,1.21517 1.166072,0.68414 2.062545,1.70923 3.219845,2.40898 0.728211,0.44033 1.555052,0.61396 2.29642,0.99806 1.108004,0.57403 0.704531,-0.87401 0.74651,-1.40676 0.07771,-0.98602 0.341309,-1.94191 0.473097,-2.91951 0.113906,-0.84492 0.610317,-1.60389 0.655583,-2.48473 0.04889,-0.95228 0.08676,-1.93714 0.360587,-2.84784 0.262134,-0.87194 0.585968,-1.74128 0.962467,-2.58537 0.184984,-0.41472 0.499824,-0.55912 0.335694,-0.84352 z"
       style="color:#000000;fill:none;stroke:#80ff00;stroke-width:3.99999976;stroke-linecap:round;stroke-linejoin:round;stroke-miterlimit:4;stroke-opacity:1;stroke-dasharray:none;stroke-dashoffset:0;marker:none;visibility:visible;display:inline;overflow:visible;enable-background:accumulate" />
    <path
       id="path2826"
       d="m 97.454329,220.60212 c 3.200011,0.48548 6.114611,0.69609 8.728111,2.23876 5.01952,3.6518 7.89753,7.94955 14.30887,10.1577 2.82105,2.66391 7.44575,4.79967 10.20851,6.97348 2.5685,1.94725 7.31085,6.18331 9.2783,8.57608"
       style="fill:none;stroke:#80ff00;stroke-width:3.99999976;stroke-linecap:round;stroke-linejoin:round;stroke-miterlimit:4;stroke-opacity:1;stroke-dasharray:none"
       sodipodi:nodetypes="ccccc" />
    <path
       sodipodi:nodetypes="ccccccc"
       id="path2828"
       d="m 104.05798,243.56438 c 1.11882,-1.82978 2.42245,-3.58888 2.64833,-5.87894 0.57078,-2.69706 0.83245,-4.85715 1.0456,-7.70646 0.43367,-1.70762 2.16646,-5.63166 -0.66119,-3.70789 -2.73559,0.6531 -5.59634,1.83678 -7.753281,3.30634 -2.40329,1.32205 -5.24202,2.63082 -7.08418,4.24942 -0.1494,0.7833 -1.205,0.55479 -1.4586,1.26168"
       style="fill:none;stroke:#80ff00;stroke-width:3.99999976;stroke-linecap:round;stroke-linejoin:round;stroke-miterlimit:4;stroke-opacity:1;stroke-dasharray:none" />
    <path
       sodipodi:nodetypes="ccccccc"
       id="path2830"
       d="m 134.40026,267.79539 c 0.12898,-0.36283 0.44685,-3.18727 0.79015,-4.15325 1.0465,-3.05475 -0.0617,-5.00173 0.52623,-9.12285 0.67014,-2.23044 0.878,-7.15852 1.0324,-8.42348 -2.07972,1.47497 -4.09706,3.05242 -6.19092,4.50071 -3.01109,2.42538 -6.39866,4.10229 -10.5552,4.26692 -0.54492,-0.0599 -1.61623,-0.53332 -1.56083,0.47937"
       style="fill:none;stroke:#80ff00;stroke-width:3.99999976;stroke-linecap:round;stroke-linejoin:round;stroke-miterlimit:4;stroke-opacity:1;stroke-dasharray:none" />
    <path
       sodipodi:nodetypes="ccccccccc"
       id="path2832"
       d="m 140.25087,248.82847 c 2.95577,3.00011 6.79314,4.56186 9.92313,7.13334 2.35251,2.73048 3.40556,6.36444 4.82361,9.56382 2.08083,2.70382 4.07916,4.448 7.12894,5.10223 4.77344,-0.25857 11.0187,0.16975 14.03371,-1.76369 1.66202,-1.87935 1.84502,-4.51093 1.43009,-7.03544 -1.23785,-4.89814 -1.20361,-8.52103 -2.21658,-13.44883 -0.63168,-3.2618 -2.09109,-4.15142 -3.52544,-7.06145 -2.00155,-3.70558 -5.09812,-6.80484 -6.49712,-8.20888"
       style="fill:none;stroke:#80ff00;stroke-width:3.99999976;stroke-linecap:round;stroke-linejoin:round;stroke-miterlimit:4;stroke-opacity:1;stroke-dasharray:none" />
    <path
       style="color:#000000;fill:none;stroke:#80ff00;stroke-width:3.99999952;stroke-linecap:round;stroke-linejoin:round;stroke-miterlimit:4;stroke-opacity:1;stroke-dasharray:none;stroke-dashoffset:0;marker:none;visibility:visible;display:inline;overflow:visible;enable-background:accumulate"
       d="m 194.22362,252.53016 c -0.51496,0.0747 -0.32184,2.10221 -0.53147,3.00364 -0.17033,0.7326 -0.45767,1.44519 -0.5462,2.18304 -0.0982,0.81841 -0.0807,1.65108 -0.21474,2.46428 -0.20117,1.2207 -0.52552,2.42832 -0.81389,3.63733 -0.14101,0.59107 -0.51535,1.07555 -0.46679,1.67416 0.0606,0.74348 -0.53485,1.94567 -0.0911,2.21207 0.41254,0.2476 1.12866,-0.77345 1.78577,-0.93716 2.11205,-0.5261 2.45447,-1.52721 3.48618,-2.49732 0.72827,-0.68484 1.12388,-1.54044 1.90263,-2.14564 0.85402,-0.66365 1.88147,-1.02586 2.74457,-1.67822 0.54304,-0.41063 0.91719,-0.97349 1.42235,-1.41051 0.755,-0.65313 -0.44057,-0.78259 -0.82399,-0.9717 -0.70963,-0.35003 -1.34175,-0.82927 -2.0291,-1.21699 -0.59406,-0.33507 -1.01086,-0.92893 -1.65196,-1.22368 -0.69306,-0.31864 -1.41366,-0.63869 -2.00921,-1.11213 -0.57017,-0.45325 -1.12015,-0.95158 -1.63575,-1.48154 -0.25328,-0.26042 -0.26746,-0.53708 -0.52726,-0.49949 z"
       id="path2834"
       sodipodi:nodetypes="csssssssssssssssss" />
    <path
       style="fill:none;stroke:#80ff00;stroke-width:3.99999952;stroke-linecap:round;stroke-linejoin:round;stroke-miterlimit:4;stroke-opacity:1;stroke-dasharray:none"
       d="m 200.00235,254.1924 c 0.91372,-2.16429 2.54799,-3.91268 4.27041,-5.62377 3.69372,-3.37829 5.74056,-7.10322 10.33001,-8.74852 2.63224,-1.64507 5.57386,-4.0859 7.81497,-5.78494 2.02646,-1.5945 5.16939,-5.40188 7.4192,-6.44105"
       id="path2836"
       sodipodi:nodetypes="ccccc" />
    <path
       style="fill:none;stroke:#80ff00;stroke-width:3.99999952;stroke-linecap:round;stroke-linejoin:round;stroke-miterlimit:4;stroke-opacity:1;stroke-dasharray:none"
       d="m 219.00387,254.87824 c -1.19014,-1.23589 -2.28824,-2.60054 -4.01515,-3.23834 -1.97224,-0.98704 -3.87727,-2.11435 -6.03965,-2.85532 -1.23409,-0.68089 -3.92116,-2.8154 -3.00371,-0.23778 -0.0475,2.24947 0.17271,4.36228 0.87419,6.32891 0.53748,2.12749 0.97666,4.58934 1.85712,6.34246 0.5761,0.27398 0.18581,1.04487 0.68173,1.38406"
       id="path2838" />
    <path
       sodipodi:nodetypes="ccccccc"
       style="fill:none;stroke:#80ff00;stroke-width:3.99999952;stroke-linecap:round;stroke-linejoin:round;stroke-miterlimit:4;stroke-opacity:1;stroke-dasharray:none"
       d="m 244.35435,236.66587 c -0.25473,-0.17321 -1.62362,-1.10358 -2.30194,-1.56459 -2.15294,-1.42755 -5.38401,-1.71331 -8.45506,-3.00153 -1.59095,-0.9696 -5.36346,-2.12673 -6.31137,-2.50196 0.72125,1.90796 1.53444,3.78834 2.2322,5.70184 0.26165,3.07798 1.05835,4.60556 0.54398,7.65768 -0.15654,0.40969 -0.73954,1.14322 0.0555,1.30507"
       id="path2840" />
    <path
       sodipodi:nodetypes="csssssssssssssssss"
       id="path2845"
       d="m 470.83404,238.58721 c 0.49441,0.42265 -1.06287,2.43666 -1.44295,3.52929 -0.3089,0.88796 -0.48077,1.8329 -0.87967,2.67182 -0.44245,0.93051 -1.01665,1.79893 -1.41773,2.74784 -0.6021,1.42443 -1.06526,2.91729 -1.56738,4.38756 -0.24548,0.71881 -0.17315,1.48071 -0.62399,2.08096 -0.56029,0.74534 -0.73327,2.41339 -1.38009,2.39873 -0.6013,-0.0136 -0.67673,-1.57072 -1.26201,-2.1823 -1.88114,-1.96562 -1.57495,-3.2522 -2.01786,-4.96614 -0.31263,-1.20988 -0.15975,-2.37821 -0.57889,-3.53758 -0.4597,-1.2714 -1.30385,-2.34 -1.7805,-3.60563 -0.29993,-0.79637 -0.31965,-1.641 -0.5619,-2.44005 -0.36206,-1.1942 0.98796,-0.53308 1.51942,-0.47707 0.98363,0.10368 1.97158,0.019 2.95681,0.068 0.8515,0.0423 1.68837,-0.30716 2.56267,-0.19081 0.94519,0.12583 1.9204,0.26843 2.8658,0.16553 0.90513,-0.0985 1.819,-0.25813 2.71765,-0.47417 0.44152,-0.10613 0.641,-0.38931 0.89063,-0.176 z"
       style="color:#000000;fill:none;stroke:#80ff00;stroke-width:3.99999976;stroke-linecap:round;stroke-linejoin:round;stroke-miterlimit:4;stroke-opacity:1;stroke-dasharray:none;stroke-dashoffset:0;marker:none;visibility:visible;display:inline;overflow:visible;enable-background:accumulate" />
    <path
       id="path2847"
       d="m 464.18271,238.29972 c 0.17107,-3.12956 1.01906,-5.5395 1.54009,-8.52928 0.47633,-6.18905 0.20337,-11.13203 1.32054,-17.21005 -0.19774,-3.875 1.17638,-8.78021 1.31385,-12.29296 0.1839,-3.21794 1.11214,-8.65772 0.5671,-11.70716"
       style="fill:none;stroke:#80ff00;stroke-width:3.99999976;stroke-linecap:round;stroke-linejoin:round;stroke-miterlimit:4;stroke-opacity:1;stroke-dasharray:none" />
    <path
       sodipodi:nodetypes="ccccccc"
       id="path2849"
       d="m 449.41897,219.1321 c 2.11836,0.33529 4.30279,0.48406 6.1923,1.79752 2.42297,1.31494 4.23677,2.51685 6.54367,4.20274 1.58098,0.77753 5.69154,2.00389 2.39326,2.90825 -2.27144,1.65849 -5.02789,3.06807 -7.54543,3.75656 -2.56504,0.97167 -5.40242,2.28337 -7.82922,2.6356 -0.69309,-0.39435 -1.20384,0.5573 -1.90635,0.29181"
       style="fill:none;stroke:#80ff00;stroke-width:3.99999976;stroke-linecap:round;stroke-linejoin:round;stroke-miterlimit:4;stroke-opacity:1;stroke-dasharray:none" />
    <path
       sodipodi:nodetypes="ccccccc"
       id="path2851"
       d="m 450.65706,180.32149 c 0.35981,0.13718 2.71571,1.72723 3.67359,2.09249 3.00379,1.18487 3.76686,3.29119 7.28484,5.51675 2.13228,0.93665 6.01793,3.9749 7.08085,4.67786 -2.47156,0.62621 -4.98067,1.13846 -7.4411,1.79273 -3.79904,0.71863 -7.27261,2.20928 -10.09392,5.26609 -0.30785,0.4536 -0.64241,1.57606 -1.37724,0.87704"
       style="fill:none;stroke:#80ff00;stroke-width:3.99999976;stroke-linecap:round;stroke-linejoin:round;stroke-miterlimit:4;stroke-opacity:1;stroke-dasharray:none" />
    <path
       sodipodi:nodetypes="ccccccccc"
       id="path2853"
       d="m 460.16886,101.91679 c 0.6663,2.93656 -0.42999,6.79391 -2.36091,10.33143 -1.64797,1.72766 -2.35936,5.56176 -5.28257,9.50667 -0.95236,4.91906 -4.11153,7.24974 -3.97187,12.04292 0.29964,4.22198 1.53535,8.62267 0.84871,13.68083 0.13777,2.58793 2.20816,6.55626 3.01017,9.15076 2.24976,5.79062 5.18286,6.02461 6.05214,11.5924 1.173,2.09007 3.45216,6.51091 4.73242,10.60055 1.8366,3.8152 5.24016,6.19803 5.78597,8.79078"
       style="fill:none;stroke:#80ff00;stroke-width:3.99999976;stroke-linecap:round;stroke-linejoin:round;stroke-miterlimit:4;stroke-opacity:1;stroke-dasharray:none" />
    <path
       style="color:#000000;fill:none;stroke:#80ff00;stroke-width:3.99999952;stroke-linecap:round;stroke-linejoin:round;stroke-miterlimit:4;stroke-opacity:1;stroke-dasharray:none;stroke-dashoffset:0;marker:none;visibility:visible;display:inline;overflow:visible;enable-background:accumulate"
       d="m 448.22595,81.004228 c 0.50363,-0.1308 1.11143,1.81317 1.65404,2.5629 0.44095,0.60932 0.98202,1.15485 1.3496,1.80072 0.4077,0.71639 0.71431,1.49075 1.15303,2.18845 0.65855,1.04733 1.42559,2.03485 2.15999,3.0376 0.35907,0.49022 0.89193,0.79175 1.07915,1.36239 0.23229,0.70886 1.24714,1.58631 0.94128,2.00388 -0.28433,0.38814 -1.34021,-0.27555 -2.00941,-0.1718 -2.15087,0.33359 -2.85452,-0.45656 -4.18158,-0.95099 -0.93677,-0.34906 -1.63307,-0.98446 -2.58551,-1.24054 -1.04448,-0.28079 -2.13201,-0.21648 -3.18049,-0.48334 -0.65974,-0.16806 -1.22279,-0.54193 -1.85784,-0.749 -0.94913,-0.30948 0.10282,-0.89218 0.38299,-1.21511 0.51849,-0.59771 0.91548,-1.28448 1.39884,-1.90829 0.41776,-0.53912 0.57182,-1.2481 1.04857,-1.76829 0.51541,-0.56235 1.05564,-1.13666 1.42115,-1.80391 0.34995,-0.6388 0.6638,-1.31134 0.9337,-1.99971 0.13256,-0.33823 0.0384,-0.59876 0.29247,-0.6648 z"
       id="path2855"
       sodipodi:nodetypes="csssssssssssssssss" />
    <path
       style="fill:none;stroke:#80ff00;stroke-width:3.99999952;stroke-linecap:round;stroke-linejoin:round;stroke-miterlimit:4;stroke-opacity:1;stroke-dasharray:none"
       d="m 444.99101,85.235288 c -1.97438,-1.54557 -3.16671,-3.20557 -4.88913,-4.91666 -3.84132,-3.14711 -7.20856,-5.23196 -10.68356,-8.74852 -2.63224,-1.64507 -5.22031,-4.79301 -7.46142,-6.49205 -2.02646,-1.5945 -5.16939,-4.69477 -7.4192,-5.73394"
       id="path2857" />
    <path
       style="fill:none;stroke:#80ff00;stroke-width:3.99999952;stroke-linecap:round;stroke-linejoin:round;stroke-miterlimit:4;stroke-opacity:1;stroke-dasharray:none"
       d="m 423.73824,80.670604 c 1.59133,-0.641484 3.1513,-1.438101 4.98806,-1.31434 2.20341,-0.0947 4.40281,-0.344884 6.67918,-0.137288 1.4046,-0.116998 4.72941,-0.966759 2.83853,1.010716 -0.87609,2.072399 -1.94065,3.910652 -3.38469,5.418781 -1.36012,1.721975 -2.76718,3.789275 -4.2873,5.029385 -0.63777,0.0146 -0.59666,0.87766 -1.1879,0.98452"
       id="path2859"
       inkscape:transform-center-x="7.2188627"
       inkscape:transform-center-y="5.4702861" />
    <path
       sodipodi:nodetypes="ccccccc"
       style="fill:none;stroke:#80ff00;stroke-width:3.99999952;stroke-linecap:round;stroke-linejoin:round;stroke-miterlimit:4;stroke-opacity:1;stroke-dasharray:none"
       d="m 402.46724,72.628073 c 0.19901,-0.23512 1.26862,-1.498207 1.79864,-2.124087 1.6918,-1.95214 4.72821,-3.093057 7.34189,-5.156921 1.27304,-1.360372 4.59766,-3.485859 5.4104,-4.101317 -0.18374,2.03144 -0.46346,4.06094 -0.62309,6.091425 0.57251,3.035566 0.21417,4.720744 1.5274,7.5235 0.26057,0.352777 1.01877,0.903309 0.29615,1.272234"
       id="path2861"
       inkscape:transform-center-x="6.1844995"
       inkscape:transform-center-y="7.1342445" />
    <path
       sodipodi:nodetypes="ccccccc"
       style="fill:none;stroke:#80ff00;stroke-width:3.99999952;stroke-linecap:round;stroke-linejoin:round;stroke-miterlimit:4;stroke-opacity:1;stroke-dasharray:none"
       d="m 413.57003,58.612108 c -3.296,-0.69864 -7.14057,-2.2508 -10.21192,-3.27457 -4.21422,-0.93359 -5.58813,-2.43313 -9.11607,-3.38052 -2.82307,-0.141 -4.74753,-0.82971 -8.62403,-0.77424 -4.13636,-0.41734 -8.94299,0.14942 -13.81473,-2.25412 -9.09931,-1.75888 -11.41761,-0.88177 -15.6514,0.34249 -5.27603,2.62841 -6.63728,4.35786 -7.51629,8.95854"
       id="path2863" />
    <path
       style="color:#000000;fill:none;stroke:#80ff00;stroke-width:4;stroke-linecap:round;stroke-linejoin:round;stroke-miterlimit:4;stroke-opacity:1;stroke-dasharray:none;stroke-dashoffset:0;marker:none;visibility:visible;display:inline;overflow:visible;enable-background:accumulate"
       d="m 300.8292,217.99135 c -4.36813,2.04732 -14.28236,3.1783 -20.54807,-0.69202 -4.26641,-3.41258 -11.05037,-3.57413 -12.46622,-2.3409 -13.84679,6.53375 -16.07043,6.52101 -21.95959,8.76027 -4.40956,0.47677 -5.40939,-1.25733 -8.9501,0.23311 -2.26655,0.61969 -4.0112,1.38165 -6.96411,3.40343"
       id="path4125"
       sodipodi:nodetypes="cccccc" />
  </g>
</svg>
