<?xml version="1.0" encoding="UTF-8" standalone="no"?>
<!-- Created with Inkscape (http://www.inkscape.org/) -->

<svg
   xmlns:dc="http://purl.org/dc/elements/1.1/"
   xmlns:cc="http://creativecommons.org/ns#"
   xmlns:rdf="http://www.w3.org/1999/02/22-rdf-syntax-ns#"
   xmlns:svg="http://www.w3.org/2000/svg"
   xmlns="http://www.w3.org/2000/svg"
   xmlns:sodipodi="http://sodipodi.sourceforge.net/DTD/sodipodi-0.dtd"
   xmlns:inkscape="http://www.inkscape.org/namespaces/inkscape"
   width="480"
   height="320"
   id="svg2"
   version="1.1"
   inkscape:version="0.48.0 r9654"
   sodipodi:docname="itnas306.svg"
   inkscape:export-xdpi="90"
   inkscape:export-ydpi="90">
  <defs
     id="defs4">
    <inkscape:perspective
       sodipodi:type="inkscape:persp3d"
       inkscape:vp_x="0 : 160 : 1"
       inkscape:vp_y="0 : 1000 : 0"
       inkscape:vp_z="480 : 160 : 1"
       inkscape:persp3d-origin="240 : 106.66667 : 1"
       id="perspective8" />
  </defs>
  <sodipodi:namedview
     id="base"
     pagecolor="#ffffff"
     bordercolor="#666666"
     borderopacity="1.0"
     inkscape:pageopacity="1"
     inkscape:pageshadow="2"
     inkscape:zoom="2.8284271"
     inkscape:cx="415.47421"
     inkscape:cy="88.852111"
     inkscape:document-units="px"
     inkscape:current-layer="layer2"
     showgrid="false"
     inkscape:snap-nodes="true"
     inkscape:snap-global="true"
     inkscape:snap-grids="true"
     showguides="true"
     inkscape:window-width="1280"
     inkscape:window-height="998"
     inkscape:window-x="1276"
     inkscape:window-y="-4"
     inkscape:window-maximized="1"
     inkscape:object-nodes="false">
    <inkscape:grid
       empspacing="5"
       visible="true"
       enabled="true"
       snapvisiblegridlinesonly="true"
       type="xygrid"
       id="grid2816" />
  </sodipodi:namedview>
  <metadata
     id="metadata7">
    <rdf:RDF>
      <cc:Work
         rdf:about="">
        <dc:format>image/svg+xml</dc:format>
        <dc:type
           rdf:resource="http://purl.org/dc/dcmitype/StillImage" />
        <dc:title />
      </cc:Work>
    </rdf:RDF>
  </metadata>
  <g
     inkscape:groupmode="layer"
     id="layer2"
     inkscape:label="Floor"
     style="display:inline">
    <path
       inkscape:connector-curvature="0"
       id="path4279"
       style="color:#000000;fill:none;stroke:#addbf8;stroke-width:6;stroke-linecap:butt;stroke-linejoin:miter;stroke-miterlimit:4;stroke-opacity:1;stroke-dasharray:none;stroke-dashoffset:0;marker:none;visibility:visible;display:inline;overflow:visible;enable-background:accumulate"
       d="m 384.28832,42.659257 -10.49388,12.543092 15.50768,6.422864 m 86.86083,0.49762 c -47.0556,1.970095 -76.23,-13.767901 -98.67914,-7.752672"
       sodipodi:nodetypes="ccccc" />
    <path
       id="path3665"
       style="color:#000000;fill:none;stroke:#addbf8;stroke-width:4;stroke-linecap:butt;stroke-linejoin:miter;stroke-miterlimit:4;stroke-opacity:1;stroke-dasharray:none;stroke-dashoffset:0;marker:none;visibility:visible;display:inline;overflow:visible;enable-background:accumulate"
       d="m 344.10399,27.201025 5.00543,15.579627 m 5.1188,-10.238463 -15.24302,4.897292"
       inkscape:connector-curvature="0" />
    <path
       style="color:#000000;fill:none;stroke:#addbf8;stroke-width:4;stroke-linecap:butt;stroke-linejoin:miter;stroke-miterlimit:4;stroke-opacity:1;stroke-dasharray:none;stroke-dashoffset:0;marker:none;visibility:visible;display:inline;overflow:visible;enable-background:accumulate"
       d="m 354.66054,112.69402 14.6626,18.01767 13.6266,-13.396 -3.40389,-12.90645 z"
       id="path3690"
       inkscape:connector-curvature="0"
       sodipodi:nodetypes="ccccc" />
    <path
       style="color:#000000;fill:none;stroke:#addbf8;stroke-width:4;stroke-linecap:butt;stroke-linejoin:miter;stroke-miterlimit:4;stroke-opacity:1;stroke-dasharray:none;stroke-dashoffset:0;marker:none;visibility:visible;display:inline;overflow:visible;enable-background:accumulate"
       d="m 337.64772,46.000919 24.1263,-7.379974 -14.17282,-14.982798 -7.99128,7.819166 z"
       id="path3688"
       inkscape:connector-curvature="0"
       sodipodi:nodetypes="ccccc" />
    <path
       style="color:#000000;fill:none;stroke:#addbf8;stroke-width:4;stroke-linecap:butt;stroke-linejoin:miter;stroke-miterlimit:4;stroke-opacity:1;stroke-dasharray:none;stroke-dashoffset:0;marker:none;visibility:visible;display:inline;overflow:visible;enable-background:accumulate"
       d="m 345.57296,75.718631 24.2203,-7.736473 -5.36721,-21.188804 -25.6613,8.322423 z"
       id="path3684"
       inkscape:connector-curvature="0"
       sodipodi:nodetypes="ccccc" />
    <path
       style="color:#000000;fill:none;stroke:#addbf8;stroke-width:4;stroke-linecap:butt;stroke-linejoin:miter;stroke-miterlimit:4;stroke-opacity:1;stroke-dasharray:none;stroke-dashoffset:0;marker:none;visibility:visible;display:inline;overflow:visible;enable-background:accumulate"
       d="m 378.19311,96.929576 -5.44077,-19.64308 -23.26089,8.322827 4.5211,19.556897 z"
       id="path3676"
       inkscape:connector-curvature="0"
       sodipodi:nodetypes="ccccc" />
    <path
       id="path3665-7"
       style="color:#000000;fill:none;stroke:#addbf8;stroke-width:4;stroke-linecap:butt;stroke-linejoin:miter;stroke-miterlimit:4;stroke-opacity:1;stroke-dasharray:none;stroke-dashoffset:0;marker:none;visibility:visible;display:inline;overflow:visible;enable-background:accumulate"
       d="m 352.23044,51.559271 6.30319,19.618914 m 9.01412,-13.718071 -24.33141,7.817225"
       inkscape:connector-curvature="0" />
    <path
       id="path3665-15"
       style="color:#000000;fill:none;stroke:#addbf8;stroke-width:4;stroke-linecap:butt;stroke-linejoin:miter;stroke-miterlimit:4;stroke-opacity:1;stroke-dasharray:none;stroke-dashoffset:0;marker:none;visibility:visible;display:inline;overflow:visible;enable-background:accumulate"
       d="m 361.06186,82.514978 5.76246,17.935892 m 9.95768,-13.092856 -25.67784,8.249809"
       inkscape:connector-curvature="0" />
    <path
       id="path3665-2"
       style="color:#000000;fill:none;stroke:#addbf8;stroke-width:4;stroke-linecap:butt;stroke-linejoin:miter;stroke-miterlimit:4;stroke-opacity:1;stroke-dasharray:none;stroke-dashoffset:0;marker:none;visibility:visible;display:inline;overflow:visible;enable-background:accumulate"
       d="m 367.82635,108.19308 5.54617,17.26266 m 7.37298,-11.89105 -20.29213,6.51948"
       inkscape:connector-curvature="0" />
    <path
       sodipodi:nodetypes="ccccc"
       d="m 391.62169,74.977328 -8.03572,14.384 16.27342,4.539421 m 76.30356,-31.777916 c -40.33298,0.41532 -66.0075,16.04656 -89.01456,25.968379"
       style="color:#000000;fill:none;stroke:#addbf8;stroke-width:6;stroke-linecap:butt;stroke-linejoin:miter;stroke-miterlimit:4;stroke-opacity:1;stroke-dasharray:none;stroke-dashoffset:0;marker:none;visibility:visible;display:inline;overflow:visible;enable-background:accumulate"
       id="path4506"
       inkscape:connector-curvature="0" />
    <g
       id="g9341"
       transform="matrix(2.1781073,0,0,2.5657605,-445.97142,121.10219)"
       style="stroke:#000000;stroke-width:0.84602326;stroke-miterlimit:4;stroke-dasharray:0.84602328, 0.84602328;stroke-dashoffset:0;display:inline">
      <rect
         style="color:#000000;fill:none;stroke:#000000;stroke-width:0.84602326;stroke-linecap:butt;stroke-linejoin:miter;stroke-miterlimit:4;stroke-opacity:1;stroke-dasharray:0.84602328, 0.84602328;stroke-dashoffset:0;marker:none;visibility:visible;display:inline;overflow:visible;enable-background:accumulate"
         id="rect9349"
         width="40"
         height="40"
         x="300"
         y="25" />
      <rect
         y="30"
         x="305"
         height="30"
         width="30"
         id="rect9351"
         style="color:#000000;fill:none;stroke:#000000;stroke-width:0.84602326;stroke-linecap:butt;stroke-linejoin:miter;stroke-miterlimit:4;stroke-opacity:1;stroke-dasharray:0.84602328, 0.84602328;stroke-dashoffset:0;marker:none;visibility:visible;display:inline;overflow:visible;enable-background:accumulate" />
      <rect
         style="color:#000000;fill:none;stroke:#000000;stroke-width:0.84602326;stroke-linecap:butt;stroke-linejoin:miter;stroke-miterlimit:4;stroke-opacity:1;stroke-dasharray:0.84602328, 0.84602328;stroke-dashoffset:0;marker:none;visibility:visible;display:inline;overflow:visible;enable-background:accumulate"
         id="rect9353"
         width="20"
         height="20"
         x="310"
         y="35" />
    </g>
    <path
       sodipodi:nodetypes="ccccssc"
       d="m 346.3615,303.03118 10.17972,12.95552 10.45658,-13.26991 m 106.47927,-28.56264 c -15.60968,4.03684 -38.9214,10.25476 -51.67997,10.98264 -17.42634,0.99417 -27.67037,-0.99834 -42.46774,1.50228 -15.25409,2.5778 -24.49706,7.27242 -22.58834,25.57084"
       style="color:#000000;fill:none;stroke:#addbf8;stroke-width:6;stroke-linecap:butt;stroke-linejoin:miter;stroke-miterlimit:4;stroke-opacity:1;stroke-dasharray:none;stroke-dashoffset:0;marker:none;visibility:visible;display:inline;overflow:visible;enable-background:accumulate"
       id="path4506-9"
       inkscape:connector-curvature="0" />
  </g>
  <g
     inkscape:label="Layer 1"
     inkscape:groupmode="layer"
     id="layer1">
    <path
       style="fill:none;stroke:#000000;stroke-width:4;stroke-linecap:butt;stroke-linejoin:miter;stroke-miterlimit:4;stroke-opacity:1;stroke-dasharray:8, 8;stroke-dashoffset:2"
       d="m 490,160 -500,0"
       id="path4521"
       inkscape:connector-curvature="0"
       sodipodi:nodetypes="cc" />
  </g>
  <g
     inkscape:groupmode="layer"
     id="layer3"
     inkscape:label="Ceil">
    <path
       id="path12433"
       style="color:#000000;fill:none;stroke:#000000;stroke-width:6;stroke-linecap:butt;stroke-linejoin:miter;stroke-miterlimit:4;stroke-opacity:1;stroke-dasharray:none;stroke-dashoffset:0;marker:none;visibility:visible;display:inline;overflow:visible;enable-background:accumulate"
       d="m 404.64395,110.89642 -27.2366,35.41504 -37.08016,-11.56764 -82.50177,12.13541 -36.22944,-26.20705 -28.05863,-97.719724 91.32082,-4.568062 8.1017,25.658521 20.27021,-3.062277 29.30967,-30.905414 37.46661,11.473272 90.09418,-11.968376 81.31728,1.41421 83.4386,4.94975 82.02438,0.70711 83.4386,-7.07107 106.77313,2.12132 75.66042,4.94975 -8.48531,73.539103 -48.08326,7.071068 -53.03301,3.535539 -67.88225,-4.949753 -62.92129,6.943093 -0.0789,5.72537 3.24967,67.58816 -14.32843,19.59188 -2.77984,11.77206 7.90385,2.04408 7.39278,-11.16012 12.21113,-7.07023 83.99926,13.81371 86.93588,-1.44908 8.96288,9.86939 6.3102,10.63365 12.04224,2.97242 -1.51941,64.66827 -14.88397,0.32347 -19.85738,5.54341 -14.83315,15.22587 -58.38164,1.0862 -56.95278,-4.98437 -52.7197,5.69332 -34.55179,-1.64965 -3.46887,-14.51445 -23.23551,-12.59852 -24.83646,3.09299 -14.20988,21.26782 2.47186,17.02877 -68.02409,1.4735 0.85713,-12.12926 3.22112,-50.42334 25.92902,-38.0546 65.86938,-36.40301 27.21737,-38.26085 4.11488,-44.22492 -0.025,-8.28699 -82.70647,-2.319615 -86.26703,8.485285 -60.81118,-2.12132 z"
       inkscape:connector-curvature="0"
       sodipodi:nodetypes="cccccccccccccccccccccccccccccccccccccccccccccccccccccccccccc" />
    <path
       id="path5361"
       style="color:#000000;fill:none;stroke:#000000;stroke-width:6;stroke-linecap:butt;stroke-linejoin:miter;stroke-miterlimit:4;stroke-opacity:1;stroke-dasharray:none;stroke-dashoffset:0;marker:none;visibility:visible;display:inline;overflow:visible;enable-background:accumulate"
       d="m 489.64307,-4.34401 -2.12132,82.731493 6.73376,64.796037 23.73416,0 0.004,4.00368 3.98419,0 0.70061,21.02618 -1.29181,28.05811 -0.9088,5.41571 -22.73429,-0.0903 -27,-2.3929 -54.25768,33.82186 -34.64823,13.43503 -15.55635,19.09189 -23.33452,2.12132 -22.62742,-12.02082"
       inkscape:connector-curvature="0"
       sodipodi:nodetypes="cccccccccccccccc" />
    <path
       style="color:#000000;fill:none;stroke:#000000;stroke-width:6;stroke-linecap:butt;stroke-linejoin:miter;stroke-miterlimit:4;stroke-opacity:1;stroke-dasharray:none;stroke-dashoffset:0;marker:none;visibility:visible;display:inline;overflow:visible;enable-background:accumulate"
       d="m 975.74358,242.74401 -87,11.81 -133.99198,9.63006 -135.00802,-3.57806 -45.00001,3.756 -98.99999,16.33 -50.7724,11.73083 -37.47666,0 -15.55635,3.18198 -0.35355,33.58757 -30.05205,0.7071 -0.70711,-34.64823 -50.20458,5.65685 -88.38834,-5.65685 -11.31371,-12.02082 -2.82843,-61.51828 3.53553,-36.06245"
       id="path5363"
       inkscape:connector-curvature="0"
       sodipodi:nodetypes="ccccccccccccccccc" />
    <path
       style="fill:#ffffff;stroke:none"
       d="m 297.69196,36.45018 -12.72792,4.949748 -82.7315,-11.313708 -13.43503,4.242641 -4.94975,-21.92031 109.60155,-4.9497484 z"
       id="path4558"
       inkscape:connector-curvature="0"
       sodipodi:nodetypes="ccccccc" />
    <path
       style="fill:#ffffff;stroke:none"
       d="m 315.01607,257.06749 -117.37973,-57.98275 -17.67767,-3.12132 8.48528,-20.2132 138.59293,-4.24264 z"
       id="path4558-1"
       inkscape:connector-curvature="0"
       sodipodi:nodetypes="cccccc" />
  </g>
</svg>
