<?xml version="1.0" encoding="UTF-8" standalone="no"?>
<!-- Created with Inkscape (http://www.inkscape.org/) -->

<svg
   xmlns:dc="http://purl.org/dc/elements/1.1/"
   xmlns:cc="http://creativecommons.org/ns#"
   xmlns:rdf="http://www.w3.org/1999/02/22-rdf-syntax-ns#"
   xmlns:svg="http://www.w3.org/2000/svg"
   xmlns="http://www.w3.org/2000/svg"
   xmlns:sodipodi="http://sodipodi.sourceforge.net/DTD/sodipodi-0.dtd"
   xmlns:inkscape="http://www.inkscape.org/namespaces/inkscape"
   width="480"
   height="320"
   id="svg2"
   version="1.1"
   inkscape:version="0.47 r22583"
   sodipodi:docname="itnas049.svg"
   inkscape:export-xdpi="90"
   inkscape:export-ydpi="90"
   inkscape:export-filename="itnas049.png">
  <defs
     id="defs4" />
  <sodipodi:namedview
     id="base"
     pagecolor="#ffffff"
     bordercolor="#666666"
     borderopacity="1.0"
     inkscape:pageopacity="1"
     inkscape:pageshadow="2"
     inkscape:zoom="1"
     inkscape:cx="241.12932"
     inkscape:cy="100.5225"
     inkscape:document-units="px"
     inkscape:current-layer="layer1"
     showgrid="false"
     inkscape:snap-nodes="true"
     inkscape:snap-global="false"
     inkscape:snap-grids="true"
     showguides="true"
     inkscape:window-width="1280"
     inkscape:window-height="774"
     inkscape:window-x="-4"
     inkscape:window-y="-4"
     inkscape:window-maximized="1">
    <inkscape:grid
       empspacing="5"
       visible="true"
       enabled="true"
       snapvisiblegridlinesonly="true"
       type="xygrid"
       id="grid2816" />
  </sodipodi:namedview>
  <metadata
     id="metadata7">
    <rdf:RDF>
      <cc:Work
         rdf:about="">
        <dc:format>image/svg+xml</dc:format>
        <dc:type
           rdf:resource="http://purl.org/dc/dcmitype/StillImage" />
        <dc:title></dc:title>
      </cc:Work>
    </rdf:RDF>
  </metadata>
  <g
     inkscape:label="Layer 1"
     inkscape:groupmode="layer"
     id="layer1"
     transform="translate(0,0)">
    <path
       style="color:#000000;fill:none;stroke:#80ff00;stroke-width:4;stroke-linecap:round;stroke-linejoin:round;stroke-miterlimit:4;stroke-opacity:1;stroke-dasharray:none;stroke-dashoffset:0;marker:none;visibility:visible;display:inline;overflow:visible;enable-background:accumulate"
       d="m 205.41451,94.171981 c 0,0 -23.52873,-5.589576 -39.75405,2.412643 -38.44178,18.959226 -33.17505,30.506436 -41.78279,67.326896 -11.81354,50.53357 -6.32181,50.24564 -5.87679,75.61451 0.1507,8.59113 -0.32299,17.85146 0.15841,26.43456 0.4447,7.92873 4.12277,15.5541 5.03952,23.45602 0.94619,8.15576 -0.95608,35.88668 -0.95608,35.88668"
       id="path3597"
       sodipodi:nodetypes="cssssss" />
    <path
       style="color:#000000;fill:none;stroke:#80ff00;stroke-width:4;stroke-linecap:round;stroke-linejoin:round;stroke-miterlimit:4;stroke-opacity:1;stroke-dasharray:none;stroke-dashoffset:0;marker:none;visibility:visible;display:inline;overflow:visible;enable-background:accumulate"
       d="m 203.68209,126.95986 c 0,0 -0.68125,35.91428 -1.02188,53.87142 -0.31956,16.84635 8.39167,28.3089 8.83756,44.46629 0.38149,13.82398 20.62709,47.3905 10.32938,46.61917 -21.19682,-1.58771 -33.68136,-9.3099 -57.36058,-26.51169 -18.09562,-13.14558 -51.23952,-21.37396 -44.27274,-22.98579 15.94866,-3.68986 57.74074,-8.01485 82.27708,-2.81564 19.86803,4.20999 40.44546,5.97833 61.0427,5.61769 20.91128,-0.36614 74.27907,13.41677 66.00938,-9.16602 -4.79648,-13.09818 -8.25557,-26.78233 -14.38944,-39.29455 -7.50655,-15.31231 -8.03782,-22.68962 -17.40779,-36.9087 -9.79118,-14.85828 -8.186,-25.81394 -21.24216,-44.711996"
       id="path3607"
       sodipodi:nodetypes="csssssssssss" />
    <path
       style="color:#000000;fill:none;stroke:#80ff00;stroke-width:4;stroke-linecap:round;stroke-linejoin:round;stroke-miterlimit:4;stroke-opacity:1;stroke-dasharray:none;stroke-dashoffset:0;marker:none;visibility:visible;display:inline;overflow:visible;enable-background:accumulate"
       d="m 192.42663,114.14341 c 7.46092,-2.73276 14.62469,-6.06641 22.68562,-7.18376 8.47829,-1.17521 15.53618,-7.885741 24.52785,-8.096791 5.12631,-0.12032 20.97751,-1.416957 17.8256,4.890461 -3.42709,6.85808 -10.17964,12.92434 -16.69256,18.07122 -2.25148,-1.65377 -27.15423,24.63851 -27.52925,24.36017"
       id="path3633"
       sodipodi:nodetypes="cssscc" />
    <path
       style="color:#000000;fill:none;stroke:#80ff00;stroke-width:4;stroke-linecap:round;stroke-linejoin:round;stroke-miterlimit:4;stroke-opacity:1;stroke-dasharray:none;stroke-dashoffset:0;marker:none;visibility:visible;display:inline;overflow:visible;enable-background:accumulate"
       d="m 264.82189,79.633946 c 6.05693,-2.05855 19.53208,-5.757342 28.32628,-9.081255 12.09071,-4.569878 23.98239,-5.525095 31.37283,-9.789317 1.08926,-0.628494 12.75786,-4.076791 6.43914,0.706259 -10.83357,10.869801 -22.4118,20.705909 -31.91748,32.779311 -4.82451,5.864936 -16.35253,18.955546 -22.90705,25.690086"
       id="path3664"
       sodipodi:nodetypes="cssccc" />
    <path
       style="color:#000000;fill:none;stroke:#80ff00;stroke-width:4;stroke-linecap:round;stroke-linejoin:round;stroke-miterlimit:4;stroke-opacity:1;stroke-dasharray:none;stroke-dashoffset:0;marker:none;visibility:visible;display:inline;overflow:visible;enable-background:accumulate"
       d="m 271.5,58.357864 c -1.46926,-2.220764 -10.24456,7.774087 -14.5,8.5 -13.06796,2.229193 -22.03956,11.55939 -33,18 -12.69993,7.46277 -27.30565,12.28127 -39,20.999996 -6.18991,4.61489 -12.75943,6.4452 -19,10 -3.57668,2.03738 -16.21363,6.22431 -15,11 0.91949,3.61824 7.17687,11.26366 9.46447,12.24264 10.7588,4.60423 20.23295,11.65142 30,18 7.28274,4.73378 8.26065,8.1417 14.75736,13.47487 9.95155,8.16926 19.46629,16.13249 28.53553,24.75736 20.24038,19.24867 9.4983,18.95585 34.24264,36.52513 6.60458,4.68946 14.79667,14.54635 21,12 3.54912,-1.45685 0.67627,-12.07294 0,-18 -0.27501,-2.41031 -1.88725,-4.57658 -2,-7 -0.58838,-12.64596 0.49398,-25.34952 1,-38 0.87463,-21.86577 -1.35908,-26.5432 -3.53553,-48.32233 -0.45075,-4.51052 1.97967,-20.84396 0.24264,-25.02082 C 280.00473,96.207354 277.19245,66.961925 271.5,58.357864 z"
       id="path3635"
       sodipodi:nodetypes="csssssssssssssssss" />
  </g>
</svg>
