<?xml version="1.0" encoding="UTF-8" standalone="no"?>
<!-- Created with Inkscape (http://www.inkscape.org/) -->

<svg
   xmlns:dc="http://purl.org/dc/elements/1.1/"
   xmlns:cc="http://creativecommons.org/ns#"
   xmlns:rdf="http://www.w3.org/1999/02/22-rdf-syntax-ns#"
   xmlns:svg="http://www.w3.org/2000/svg"
   xmlns="http://www.w3.org/2000/svg"
   xmlns:sodipodi="http://sodipodi.sourceforge.net/DTD/sodipodi-0.dtd"
   xmlns:inkscape="http://www.inkscape.org/namespaces/inkscape"
   width="480"
   height="320"
   id="svg2"
   version="1.1"
   inkscape:version="0.47 r22583"
   sodipodi:docname="itnas191.svg"
   inkscape:export-xdpi="90"
   inkscape:export-ydpi="90"
   inkscape:export-filename="itnas191.png">
  <defs
     id="defs4" />
  <sodipodi:namedview
     id="base"
     pagecolor="#ffffff"
     bordercolor="#666666"
     borderopacity="1.0"
     inkscape:pageopacity="1"
     inkscape:pageshadow="2"
     inkscape:zoom="2"
     inkscape:cx="221.30603"
     inkscape:cy="160.65797"
     inkscape:document-units="px"
     inkscape:current-layer="layer1"
     showgrid="false"
     inkscape:snap-nodes="true"
     inkscape:snap-global="false"
     inkscape:snap-grids="true"
     showguides="true"
     inkscape:window-width="1280"
     inkscape:window-height="998"
     inkscape:window-x="-4"
     inkscape:window-y="-4"
     inkscape:window-maximized="1">
    <inkscape:grid
       empspacing="5"
       visible="true"
       enabled="true"
       snapvisiblegridlinesonly="true"
       type="xygrid"
       id="grid2816" />
  </sodipodi:namedview>
  <metadata
     id="metadata7">
    <rdf:RDF>
      <cc:Work
         rdf:about="">
        <dc:format>image/svg+xml</dc:format>
        <dc:type
           rdf:resource="http://purl.org/dc/dcmitype/StillImage" />
        <dc:title></dc:title>
      </cc:Work>
    </rdf:RDF>
  </metadata>
  <g
     inkscape:label="Layer 1"
     inkscape:groupmode="layer"
     id="layer1"
     transform="translate(0,0)">
    <path
       style="color:#000000;fill:none;stroke:#008000;stroke-width:4;stroke-linecap:butt;stroke-linejoin:miter;stroke-miterlimit:4;stroke-opacity:1;stroke-dasharray:none;stroke-dashoffset:0;marker:none;visibility:visible;display:inline;overflow:visible;enable-background:accumulate"
       d="m 503,160.78575 c -14.85566,-0.88338 -31.74913,4.52256 -48,1 -18.24713,-1.31484 -31.35922,-5.66093 -49,-7 -15.08464,-0.70412 -27.34135,2.27997 -41.14903,1.29165 -21.58102,1.0372 -43.27606,2.8392 -65.02775,2.70835 -21.71067,2.51124 -40.7299,3.11223 -61.42249,0.0555 -34.35217,-2.38333 -48.61404,3.06949 -73.40073,-0.0555 -19.98378,-2.98315 -38.04719,4.35479 -57.66908,3 -16.649965,-0.33966 -33.285178,-4.39802 -49.83092,-3.5 -18.405154,2.80193 -34.545112,1.89781 -52.399339,2.5 -12.421873,0.53712 -24.628447,-0.50848 -36.754724,-3.02291"
       id="path2949"
       sodipodi:nodetypes="ccccccccccc" />
    <path
       style="fill:none;stroke:#0000ff;stroke-width:4;stroke-linecap:round;stroke-linejoin:round;stroke-miterlimit:4;stroke-opacity:1;stroke-dasharray:none"
       d="m 178.5769,171.2986 c 6.30564,2.0133 12.60945,4.53863 19.27872,4.85151 7.40044,1.99218 15.33334,1.60944 22.51701,4.21639 7.31287,-1.79059 14.33477,2.41302 21.69457,1.56375 5.46524,0.15121 9.72904,1.3975 15.365,0.73379 2.22491,0.57599 3.89858,-1.03876 -0.89858,0.90699"
       id="path2909-1" />
    <path
       style="fill:none;stroke:#0000ff;stroke-width:4;stroke-linecap:round;stroke-linejoin:round;stroke-miterlimit:4;stroke-opacity:1;stroke-dasharray:none"
       d="m 109.03979,161.56465 c -1.97395,-4.18509 -3.98182,-6.11431 -6.78962,-7.2012 -4.307633,-1.97485 -4.976173,-2.04143 -9.963073,-4.32538 -3.88107,0.64924 -7.37123,-0.87239 -11.42275,0.71861 -7.23673,0.0534 -11.54417,6.02925 -13.11938,11.82038 -1.34681,3.97154 -3.04411,7.7272 -1.77849,11.95598 0.89471,2.98577 0.85383,6.57759 2.49082,9.08261 4.40255,2.46906 6.95018,7.52712 10.6427,8.76563 3.67621,-0.55174 8.56722,2.84254 11.94004,0.88268 3.29855,-2.48321 7.60645,-2.092 13.734113,-5.03978 2.2208,-2.12174 4.73838,-4.86078 4.77868,-6.97775 1.04536,-1.57792 1.11542,-3.75254 1.72279,-5.68402 0.91074,-4.84452 -2.51637,-8.56447 -2.23583,-13.99776 z"
       id="path2905-7"
       sodipodi:nodetypes="cccccsccccccc" />
    <path
       style="fill:none;stroke:#0000ff;stroke-width:4;stroke-linecap:round;stroke-linejoin:round;stroke-miterlimit:4;stroke-opacity:1;stroke-dasharray:none"
       d="m 113.71059,174.23421 c 4.7418,-1.81597 11.34872,0.85773 12.99613,-0.88763 7.72966,0.62184 15.57667,-0.21317 23.29067,0.51001 6.64118,1.03024 13.15493,-0.49763 19.35567,-0.68722 2.99972,-0.55488 5.99924,-1.10971 8.99876,-1.66453"
       id="path2907-4" />
    <path
       style="fill:none;stroke:#0000ff;stroke-width:4;stroke-linecap:round;stroke-linejoin:round;stroke-miterlimit:4;stroke-opacity:1;stroke-dasharray:none"
       d="m 178.922,171.28496 c 4.33813,-0.37721 13.94128,-0.79321 20.51253,-1.3797 8.74559,0.74315 15.94456,-2.40906 24.51082,-2.06838 6.32549,-1.69681 12.5371,-1.97826 19.60596,-2.34136 4.22275,-0.87289 12.2222,2.69936 13.86652,1.42846 0.52816,-0.19672 5.15779,0.57998 2.56289,0.88207"
       id="path2881-0" />
    <path
       id="path2911-4"
       style="fill:none;stroke:#0000ff;stroke-width:4;stroke-linecap:round;stroke-linejoin:round;stroke-miterlimit:4;stroke-opacity:1;stroke-dasharray:none"
       d="m 76.581647,211.77672 c 6.17651,-5.73664 9.69095,-1.18491 14.24755,-6.28987 6.42983,-1.97717 10.608033,-9.25578 14.703203,-10.34487 3.27089,-3.94413 6.24952,-6.27438 11.26111,-13.66328 0.98669,0.10157 1.95201,-2.14355 4.43593,-4.89847 -0.27304,-1.02686 0.7068,-9.15401 -0.0842,-10.34614 -3.04231,-4.5851 -6.07195,-13.05174 -11.18057,-20.71672 -4.77192,-4.65699 -6.84967,-11.15198 -12.859673,-17.25571 -0.76906,-2.72533 -3.82328,-3.24519 -4.78023,-7.76689"
       sodipodi:nodetypes="cccccsccc" />
    <path
       style="fill:none;stroke:#80ff00;stroke-width:3.99999976;stroke-linecap:round;stroke-linejoin:round;stroke-miterlimit:4;stroke-opacity:1;stroke-dasharray:none"
       d="m 133.83515,196.00987 c -1.42511,3.394 -4.32007,-3.72669 -5.83718,0.37093 -4.97104,2.55076 -10.8003,0.39719 -15.7493,3.09585 -3.61945,0.94132 -7.49771,-0.30566 -11.10247,0.75023 -3.815613,0.95599 -7.707303,0.3914 -11.598283,-0.0285 -3.38626,-0.1857 -6.658,0.57521 -9.99835,0.71706 -2.3907,1.89225 -4.85669,1.5041 -7.36264,3.19715 -3.03091,2.02694 -7.01651,0.4472 -9.81114,3.34593 0.29068,1.7716 3.74547,3.40486 5.28252,5.12354 4.8081,4.05741 9.61509,8.11842 14.426,12.16825 3.278,1.40749 6.22559,4.70407 9.71004,4.56379 2.7817,0.7258 5.27081,2.87288 7.91087,4.2115 2.823753,1.87813 6.146853,3.68659 9.196473,5.27233 3.04549,2.03848 6.24995,3.53602 9.06036,6.34623 2.20515,2.19621 5.00352,4.90228 6.04111,0.12969 1.42038,-3.13243 0.44763,-7.36033 1.89004,-10.50487 0.71071,-4.06019 2.38862,-7.54241 1.88487,-12.27783 1.14476,-4.02697 1.50191,-8.79577 3.29541,-12.35771 0.36524,-3.84082 1.59774,-7.46209 2.45712,-10.97123 0.32329,-0.81489 1.20211,-2.23729 0.30434,-3.15175 z"
       id="path2942" />
    <path
       style="fill:none;stroke:#80ff00;stroke-width:3.99999976;stroke-linecap:round;stroke-linejoin:round;stroke-miterlimit:4;stroke-opacity:1;stroke-dasharray:none"
       d="m 184.62922,296.28221 c -0.97538,-8.52325 -1.19401,-17.27852 -6.11786,-25.05555 -4.8379,-9.90926 -8.98289,-20.17173 -15.32323,-29.68087 -2.83516,-6.45188 -7.0287,-23.08992 -11.2104,-10.06465 -7.01865,8.79191 -12.55897,17.85375 -15.74362,27.79608 -4.32445,10.0835 -10.05467,21.19675 -11.87993,30.83438 1.45669,2.8376 -2.43426,4.715 -1.49419,7.56815"
       id="path2956" />
    <path
       style="fill:none;stroke:#80ff00;stroke-width:3.99999976;stroke-linecap:round;stroke-linejoin:round;stroke-miterlimit:4;stroke-opacity:1;stroke-dasharray:none"
       d="m 344.25355,290.41231 c -0.56036,-1.43473 -3.57147,-9.14311 -5.06363,-12.9627 -4.83702,-11.97621 -13.28701,-14.95975 -22.3032,-28.95898 -3.81582,-8.49832 -16.09478,-23.94163 -18.94112,-28.17031 -2.42435,9.90634 -4.39175,19.95902 -6.92869,29.82172 -2.75087,15.21905 -8.60027,29.16133 -20.73537,40.54558 -1.60871,1.20695 -3.52879,3.6786 -4.70072,7.39352"
       id="path2958"
       sodipodi:nodetypes="ccccccc" />
    <path
       style="color:#000000;fill:none;stroke:#80ff00;stroke-width:4;stroke-linecap:round;stroke-linejoin:round;stroke-miterlimit:4;stroke-opacity:1;stroke-dasharray:none;stroke-dashoffset:0;marker:none;visibility:visible;display:inline;overflow:visible;enable-background:accumulate"
       d="m 128.76001,221.15169 c 6.67912,1.9074 12.22858,4.4286 19.54272,4.3774 7.59084,-0.054 15.12754,-1.185 22.82,-2.1146 8.47282,-1.0238 19.5953,-1.1834 29.04062,-2.0496 11.79812,-1.082 22.4641,-4.1622 34.45742,-4.9564 14.62366,-0.9686 29.56152,1.2992 44.36208,2.2606 7.44254,0.4834 14.71298,1.6644 22.24488,1.5042 5.80996,-0.124 18.88547,-1.56717 22.23001,1.8351"
       id="path2833"
       sodipodi:nodetypes="csssssss" />
    <path
       id="path2916"
       d="m 181.70074,155.8927 c -0.66092,-6.8312 -0.71328,-13.8374 -4.54293,-20.12697 -3.73106,-7.9939 -6.90294,-16.26062 -11.84137,-23.95549 -2.17751,-5.20039 -5.299,-18.567459 -8.82612,-8.20735 -5.73708,6.93423 -10.29547,14.10506 -12.98192,22.01315 -3.60013,8.00505 -8.33912,16.8141 -9.93396,24.49749 1.12546,2.29012 -2.0131,3.73735 -1.30108,6.03268"
       style="fill:none;stroke:#80ff00;stroke-width:3.99999952;stroke-linecap:round;stroke-linejoin:round;stroke-miterlimit:4;stroke-opacity:1;stroke-dasharray:none" />
    <path
       id="path2918"
       d="m 303.40399,155.05531 c -0.3655,-1.17677 -2.32958,-7.49921 -3.30289,-10.63207 -1.93055,-7.92729 -6.62046,-11.51036 -8.69982,-14.69088 -3.33495,-5.90548 -7.17966,-17.17453 -13.73294,-22.04684 -0.909,-5.99306 -4.71751,-7.51311 -7.22768,-11.197248 -1.85969,7.752428 -8.91435,15.024108 -12.98037,23.283798 -0.67028,7.18204 -5.43866,15.45823 -10.44729,26.98132 -0.36002,0.86539 -3.38663,5.94431 -5.7311,8.53318"
       style="fill:none;stroke:#80ff00;stroke-width:3.99999952;stroke-linecap:round;stroke-linejoin:round;stroke-miterlimit:4;stroke-opacity:1;stroke-dasharray:none"
       sodipodi:nodetypes="cccccccc" />
    <path
       sodipodi:nodetypes="csssssss"
       id="path2920"
       d="m 132.70621,102.89135 c 5.24741,-1.82867 9.5645,-4.095953 15.4086,-4.389322 6.06522,-0.30378 12.13643,0.255107 18.32282,0.64602 6.81399,0.430485 15.70473,0.04965 23.28824,0.309815 9.47252,0.325 18.13214,2.297687 27.74743,2.383907 11.72409,0.1053 23.55121,-2.388647 35.32839,-3.832913 5.92222,-0.72622 11.67508,-2.002183 17.6981,-2.218008 4.64604,-0.166483 15.08945,1.542057 18.33704,1.72986"
       style="color:#000000;fill:none;stroke:#80ff00;stroke-width:4;stroke-linecap:round;stroke-linejoin:round;stroke-miterlimit:4;stroke-opacity:1;stroke-dasharray:none;stroke-dashoffset:0;marker:none;visibility:visible;display:inline;overflow:visible;enable-background:accumulate" />
    <path
       style="color:#000000;fill:none;stroke:#80ff00;stroke-width:3.99999976;stroke-linecap:round;stroke-linejoin:round;stroke-miterlimit:4;stroke-opacity:1;stroke-dasharray:none;stroke-dashoffset:0;marker:none;visibility:visible;display:inline;overflow:visible;enable-background:accumulate"
       d="m 324.37778,222.05888 c 33.37038,12.75725 42.60076,22.33889 80.63436,27.63647 19.75427,2.75135 37.71804,-2.60822 50.17147,-22.65122 8.61986,-28.36193 6.17816,-35.50824 12.82142,-60.51953 0.43158,-22.76975 -2.4586,-26.5133 -9.30474,-66.28596 -13.24775,-28.820139 -34.5476,-46.965098 -42.5003,-72.716438"
       id="path4125-8"
       sodipodi:nodetypes="cscccs" />
    <path
       style="color:#000000;fill:none;stroke:#80ff00;stroke-width:3.99999952;stroke-linecap:round;stroke-linejoin:round;stroke-miterlimit:4;stroke-opacity:1;stroke-dasharray:none;stroke-dashoffset:0;marker:none;visibility:visible;display:inline;overflow:visible;enable-background:accumulate"
       d="m 288.84492,97.512693 c 0.006,-0.01157 40.08003,1.212187 56.47456,12.431107 8.28499,2.63117 41.59391,18.79611 59.2931,22.98249 19.21966,11.79811 23.86421,16.98914 35.06502,26.68624 12.12107,10.49381 11.46026,18.80554 9.42107,33.25844 -1.62895,11.54529 -21.32092,22.5968 -45.11117,16.96704 -18.44777,-0.1216 -40.39173,9.44352 -60.08874,8.1064"
       id="path4125-8-8"
       sodipodi:nodetypes="cccsscs" />
    <g
       id="g4230"
       transform="translate(-15.5,-13.319559)"
       style="stroke-linecap:round;stroke-linejoin:round">
      <path
         sodipodi:nodetypes="csssssscc"
         id="path4202"
         d="m 38.671573,25.944544 c -5.430479,7.450879 -9.310018,7.388925 -14.729121,14.724258 -7.115345,9.631376 -1.570906,23.289283 5.079989,31.916876 7.192509,9.330178 20.752507,5.816368 30.547182,5.260564 8.004509,-0.45422 10.902131,-6.975949 16.295781,-6.648434 6.003807,0.364567 6.973067,-11.28078 7.082161,-19.052076 C 83.067723,43.58623 84.88679,32.72173 76.184121,27.314266 68.375262,22.462176 60.371218,17.763541 50.784197,17.639118 46.123264,18.55518 37.505395,20.182367 38.671573,25.944544 z"
         style="fill:none;stroke:#ffff00;stroke-width:4;stroke-linecap:round;stroke-linejoin:round;stroke-miterlimit:4;stroke-opacity:1;stroke-dasharray:none" />
      <path
         id="path4215"
         d="M 31,81 C 28.148613,84.553942 24.105327,87.346267 24.536612,92.015165 21.832544,96.043458 21.188425,100.66969 20,105 c -1.284479,-0.52275 -1.919186,3.77422 -2,5"
         style="fill:none;stroke:#ffff00;stroke-width:4;stroke-linecap:round;stroke-linejoin:round;stroke-miterlimit:4;stroke-opacity:1;stroke-dasharray:none" />
      <path
         id="path4217"
         d="m 53.280734,83.999998 c 4.109561,4.16047 0.225882,10.218352 3.166602,14.792056 1.215413,5.697486 7.524659,9.190686 6.531011,15.084746 L 62.937021,115"
         style="fill:none;stroke:#ffff00;stroke-width:4;stroke-linecap:round;stroke-linejoin:round;stroke-miterlimit:4;stroke-opacity:1;stroke-dasharray:none" />
      <path
         id="path4219-0"
         d="m 76,77.999999 c 2.434633,2.970488 4.015249,7.013955 7.338875,9.083334 1.87643,3.66958 3.09031,7.945562 6.36365,10.590091 2.016293,2.844746 4.316983,5.898086 7.090955,7.576576"
         style="fill:none;stroke:#ffff00;stroke-width:4;stroke-linecap:round;stroke-linejoin:round;stroke-miterlimit:4;stroke-opacity:1;stroke-dasharray:none" />
      <path
         id="path4221"
         d="m 90,56.987967 c 14.33334,0.01397 28.66662,0.07609 43,0.05204"
         style="fill:none;stroke:#ffff00;stroke-width:4;stroke-linecap:round;stroke-linejoin:round;stroke-miterlimit:4;stroke-opacity:1;stroke-dasharray:none" />
      <path
         id="path4223"
         d="m 86.000002,33 c 5.268561,-0.876096 9.823061,-4.205192 14.951108,-4.876265 4.62153,1.300794 7.8844,-3.002146 12.17425,-3.773924 C 115.24759,22.885947 120.60982,23.2369 120.85644,21"
         style="fill:none;stroke:#ffff00;stroke-width:4;stroke-linecap:round;stroke-linejoin:round;stroke-miterlimit:4;stroke-opacity:1;stroke-dasharray:none" />
    </g>
    <path
       style="color:#000000;fill:none;stroke:#80ff00;stroke-width:3.99999976;stroke-linecap:round;stroke-linejoin:round;stroke-miterlimit:4;stroke-opacity:1;stroke-dasharray:none;stroke-dashoffset:0;marker:none;visibility:visible;display:inline;overflow:visible;enable-background:accumulate"
       d="m 120.52673,77.634255 c -2.46705,-1.069443 -6.91592,7.728931 -10.1974,10.851986 -2.66677,2.538153 -5.7975,4.682383 -8.11714,7.460324 -2.572773,3.081302 -4.672643,6.529535 -7.38994,9.493845 -4.078882,4.44992 -8.66714,8.51763 -13.100227,12.68702 -2.167359,2.03833 -5.085607,3.01851 -6.436256,5.59348 -1.676413,3.19892 -7.446534,6.52103 -6.184966,8.7935 1.172774,2.1125 7.001618,-0.14757 10.328761,0.93743 10.693595,3.48704 14.821541,0.31144 21.909668,-0.89862 5.00349,-0.8543 8.9858,-3.29369 14.00376,-3.68787 5.50291,-0.4321 10.98293,0.82992 16.49642,0.46739 3.4693,-0.22801 6.59157,-1.5292 9.96283,-1.96634 5.03853,-0.65339 0.10216,-4.37273 -1.09499,-6.16848 -2.21571,-3.32366 -3.75175,-6.96827 -5.77061,-10.38641 -1.74481,-2.95422 -2.03119,-6.49243 -4.08903,-9.40733 -2.22477,-3.151262 -4.56719,-6.381694 -5.95703,-9.904955 -1.33063,-3.373174 -2.45423,-6.876566 -3.34345,-10.417467 -0.43686,-1.739771 0.22499,-2.907612 -1.0204,-3.447503 z"
       id="path2870"
       sodipodi:nodetypes="csssssssssssssssss" />
    <path
       sodipodi:nodetypes="ccccccccccc"
       id="path3641"
       d="m -31.654062,295.5263 c 14.85566,0.88338 31.74913045,-4.52256 48,-1 18.24713,1.31484 31.35922,5.66093 49,7 13.20753,3.98906 27.69306,1.08201 41.502582,2.06711 21.58102,-1.03638 43.83028,-0.49782 64.49742,-6.06711 20.2875,-3.93441 41.43701,-1.17523 62.1296,-2 33.95027,6.00042 48.06616,0.37833 72.8704,0 18.80509,5.22971 38.10524,-1.83237 57.66908,-1 16.64996,0.33966 33.20543,4.15646 49.33092,6 17.2317,3.06535 35.01625,-4.25354 52.89933,-5 12.42188,-0.53712 24.62845,0.50848 36.75473,3.02291"
       style="color:#000000;fill:none;stroke:#008000;stroke-width:4;stroke-linecap:butt;stroke-linejoin:miter;stroke-miterlimit:4;stroke-opacity:1;stroke-dasharray:none;stroke-dashoffset:0;marker:none;visibility:visible;display:inline;overflow:visible;enable-background:accumulate" />
  </g>
</svg>
