<?xml version="1.0" encoding="UTF-8" standalone="no"?>
<!-- Created with Inkscape (http://www.inkscape.org/) -->

<svg
   xmlns:dc="http://purl.org/dc/elements/1.1/"
   xmlns:cc="http://creativecommons.org/ns#"
   xmlns:rdf="http://www.w3.org/1999/02/22-rdf-syntax-ns#"
   xmlns:svg="http://www.w3.org/2000/svg"
   xmlns="http://www.w3.org/2000/svg"
   xmlns:sodipodi="http://sodipodi.sourceforge.net/DTD/sodipodi-0.dtd"
   xmlns:inkscape="http://www.inkscape.org/namespaces/inkscape"
   width="480"
   height="320"
   id="svg2"
   version="1.1"
   inkscape:version="0.48.0 r9654"
   sodipodi:docname="itnas326.svg"
   inkscape:export-xdpi="90"
   inkscape:export-ydpi="90"
   inkscape:export-filename="itnas326.png">
  <defs
     id="defs4">
    <inkscape:perspective
       sodipodi:type="inkscape:persp3d"
       inkscape:vp_x="0 : 160 : 1"
       inkscape:vp_y="0 : 1000 : 0"
       inkscape:vp_z="480 : 160 : 1"
       inkscape:persp3d-origin="240 : 106.66667 : 1"
       id="perspective8" />
  </defs>
  <sodipodi:namedview
     id="base"
     pagecolor="#ffffff"
     bordercolor="#666666"
     borderopacity="1.0"
     inkscape:pageopacity="1"
     inkscape:pageshadow="2"
     inkscape:zoom="1"
     inkscape:cx="258.28843"
     inkscape:cy="152.37029"
     inkscape:document-units="px"
     inkscape:current-layer="layer1"
     showgrid="false"
     inkscape:snap-nodes="true"
     inkscape:snap-global="false"
     inkscape:snap-grids="true"
     showguides="true"
     inkscape:window-width="1023"
     inkscape:window-height="774"
     inkscape:window-x="-4"
     inkscape:window-y="380"
     inkscape:window-maximized="1">
    <inkscape:grid
       empspacing="5"
       visible="true"
       enabled="true"
       snapvisiblegridlinesonly="true"
       type="xygrid"
       id="grid2816" />
  </sodipodi:namedview>
  <metadata
     id="metadata7">
    <rdf:RDF>
      <cc:Work
         rdf:about="">
        <dc:format>image/svg+xml</dc:format>
        <dc:type
           rdf:resource="http://purl.org/dc/dcmitype/StillImage" />
        <dc:title></dc:title>
      </cc:Work>
    </rdf:RDF>
  </metadata>
  <g
     inkscape:label="Layer 1"
     inkscape:groupmode="layer"
     id="layer1"
     transform="translate(0,0)">
    <path
       style="color:#000000;fill:none;stroke:#0000ff;stroke-width:3.99999976;stroke-linecap:round;stroke-linejoin:round;stroke-miterlimit:4;stroke-opacity:1;stroke-dasharray:none;stroke-dashoffset:0;marker:none;visibility:visible;display:inline;overflow:visible;enable-background:accumulate"
       d="m 380,193.84567 c -10.28208,-4.98504 -35.23288,7.76712 -58,1 -6.08932,-1.80994 -17.7499,-4.37495 -25,-8 -15.69249,-7.84625 -53.57603,-7.57603 -73,-8 -16,-0.34923 -60.1358,-4.96488 -74,-33 -8.48476,-17.15724 -11.32394,-14.34896 -28,-27 C 68.758805,78.455061 75.742105,99.327921 33.729558,79.308901 4.163489,65.220635 -26.220128,41.001645 -57,34.845671"
       id="path3015"
       inkscape:connector-curvature="0"
       sodipodi:nodetypes="cssssssc" />
    <path
       style="color:#000000;fill:none;stroke:#c87137;stroke-width:3.99999976;stroke-linecap:round;stroke-linejoin:round;stroke-miterlimit:4;stroke-opacity:1;stroke-dasharray:none;stroke-dashoffset:0;marker:none;visibility:visible;display:inline;overflow:visible;enable-background:accumulate"
       d="m 498.60242,67.495781 c -9.94644,10.37884 -24.57556,21.30365 -34.29302,36.765219 -2.47871,3.9439 -7.75851,3.51003 -9.83217,12.48063 -3.87731,16.7732 -17.63625,34.46007 -30.85155,47.74979 -34.3684,34.56188 -18.46035,13.5335 -33.90167,39.57983 -14.19289,23.94046 -11.18817,24.13816 -34.36146,48.47525 -8.95289,9.40253 -9.43583,10.86801 -22.07025,24.41672 C 331.28311,276.50712 328.41662,291 326,291 c -8.48609,0 -20.7515,12.12724 -30,26 -2.63942,3.95914 -4.27674,8.27674 -7,11"
       id="path3016"
       inkscape:connector-curvature="0"
       sodipodi:nodetypes="ssssssc" />
    <path
       style="color:#000000;fill:none;stroke:#c87137;stroke-width:3.99999976;stroke-linecap:round;stroke-linejoin:round;stroke-miterlimit:4;stroke-opacity:1;stroke-dasharray:none;stroke-dashoffset:0;marker:none;visibility:visible;display:inline;overflow:visible;enable-background:accumulate"
       d="m 507.15486,95.234221 c -16.9602,13.392309 -5.70399,3.88369 -16.9526,16.495769 -20.81026,15.12115 -15.9485,26.9218 -53.42304,67.2442 -16.64993,24.57411 -12.02938,11.86675 -29.00802,42.46882 -17.31309,20.31371 -1.15003,11.69585 -22.13031,30.29397 -11.76617,11.05569 -20.47353,21.89589 -29.71231,35.69139 C 346.34963,294.10114 336.80165,304.19835 329,312 c -5.22004,5.22004 -7.90076,5.80153 -14,18"
       id="path5866"
       inkscape:connector-curvature="0"
       sodipodi:nodetypes="ccccccsc" />
    <path
       style="color:#000000;fill:none;stroke:#c87137;stroke-width:3.99999952;stroke-linecap:round;stroke-linejoin:round;stroke-miterlimit:4;stroke-opacity:1;stroke-dasharray:none;stroke-dashoffset:0;marker:none;visibility:visible;display:inline;overflow:visible;enable-background:accumulate"
       d="m 492.86016,46.949101 c -1.94742,4.0929 -12.16599,12.78458 -15.69046,16.48826 -8.24006,8.65902 -19.87857,22.95032 -28.43896,31.94598 -9.26612,9.737259 -6.13965,3.77226 -11.76785,18.549279 -11.45375,30.07218 -19.58434,33.05421 -27.45832,41.22063 -7.11602,7.38033 -11.3712,17.99355 -17.65177,26.79341 -6.62764,9.28616 -19.13376,22.93475 -28.43896,27.82392 -0.21341,0.11214 -32.83286,44.27217 -33.34223,45.3427 -1.56381,3.28662 0.35876,7.49009 -0.98065,10.30515 -2.58623,5.43543 -15.97078,12.51794 -17.84524,18.42722 C 308.0832,283.50582 307.85589,286.76274 306,288 c -3.77531,2.51688 -15.94135,8.94135 -18,11 -9.72232,9.72232 -1.21193,21.08477 -16,27"
       id="path5875"
       inkscape:connector-curvature="0"
       sodipodi:nodetypes="csssssssscssc" />
    <path
       style="color:#000000;fill:none;stroke:#0000ff;stroke-width:3.99999976;stroke-linecap:round;stroke-linejoin:round;stroke-miterlimit:4;stroke-opacity:1;stroke-dasharray:none;stroke-dashoffset:0;marker:none;visibility:visible;display:inline;overflow:visible;enable-background:accumulate"
       d="m -48,23.845671 c 24.579494,4.915899 44.767324,13.883662 65,24 8.830024,4.415012 25.072804,16.428481 35,22 16.329794,9.1649 13.606329,-0.131224 23,3 18.80941,6.2698 61.91507,39.457539 79,47.999999 12.24508,6.12254 6.00826,9.00826 18,21 23.68932,23.68932 44.23636,26.44467 73.92941,20.48988 23.35468,-4.68366 20.76607,9.35116 40.13714,9.47235 37.84048,4.19463 37.52763,12.64939 56.81857,8.0718 30.87123,-6.7808 22.731,4.52082 37.70785,-18.60425 1.04498,-2.13929 6.14898,-0.91124 7.36227,-2.15319 5.69906,-5.83368 5.10545,-23.60448 17.8798,-35.22128 16.69035,-15.17795 21.32348,-26.541749 29.44909,-34.451059 21.42887,-20.858429 19.18549,-18.562061 27.34558,-36.604255 5.27724,-7.781061 1.71227,-1.910266 8.97548,-6.474011 C 478.99517,41.728253 497.2425,26.670223 506,21"
       id="path5883"
       inkscape:connector-curvature="0"
       sodipodi:nodetypes="cssscssccsssscsc" />
    <path
       style="color:#000000;fill:none;stroke:#808080;stroke-width:4;stroke-linecap:round;stroke-linejoin:round;stroke-miterlimit:4;stroke-opacity:1;stroke-dasharray:none;stroke-dashoffset:0;marker:none;visibility:visible;display:inline;overflow:visible;enable-background:accumulate"
       d="m 485.61941,150.47221 c -8.02627,8.79967 -5.93885,7.9583 -12.81016,18.02396 -10.38043,15.20616 -5.81846,8.63695 -31.6384,37.7379 -36.30908,40.92302 -25.80205,34.73734 -32.81463,48.19478 -5.00839,9.61129 -9.27389,7.82129 -14.17299,15.5941 -3.45806,5.48649 -7.09875,6.89257 -12.58477,18.32237 C 371.11244,294.77512 368.09447,300.95276 364,303 c -4.29387,2.14693 -27.37033,35.5555 -31,41"
       id="path3005"
       inkscape:connector-curvature="0"
       sodipodi:nodetypes="csssscsc" />
    <path
       style="color:#000000;fill:none;stroke:#808080;stroke-width:4;stroke-linecap:round;stroke-linejoin:round;stroke-miterlimit:4;stroke-opacity:1;stroke-dasharray:none;stroke-dashoffset:0;marker:none;visibility:visible;display:inline;overflow:visible;enable-background:accumulate"
       d="m 389.68588,-48.177356 c 4.41784,4.18846 32.18451,19.93104 52.74679,35.87797 5.614,4.3539001 -16.89086,26.725 -18.92538,32.49458 -11.37817,32.266777 -28.13703,40.593397 -32.86303,39.746337 -12.82286,-2.29828 -38.81444,-26.368199 -44.09794,-32.453859 -4.94564,-5.69651 -3.7774,1.11228 -10.1984,-4.56544 -3.79786,-3.358228 9.4039,-11.985908 10.78986,-13.7524679 9.38246,-11.95869 18.765,-23.9173501 28.14744,-35.8760201 5.2131,-6.64457 12.66074,-12.44158 14.40066,-21.4711 z"
       id="path3007"
       inkscape:connector-curvature="0"
       sodipodi:nodetypes="cssssscsc" />
    <path
       style="color:#000000;fill:none;stroke:#808080;stroke-width:4;stroke-linecap:round;stroke-linejoin:round;stroke-miterlimit:4;stroke-opacity:1;stroke-dasharray:none;stroke-dashoffset:0;marker:none;visibility:visible;display:inline;overflow:visible;enable-background:accumulate"
       d="m 201.55762,246.66273 c 0.38059,1.74974 -3.07334,-0.3318 -3.92253,-0.22244 -3.57611,0.46037 -6.35412,5.01039 -8.81856,6.95365 -12.55716,9.9016 -35.44157,39.40574 -43.16881,37.95052 -3.58669,-0.67549 -6.17071,7.57307 -10.96443,8.75917 -2.89295,0.71576 -2.22313,8.70517 -12.68532,-1.7148 -2.19444,-2.18556 -6.25861,-9.18521 -6.3529,-9.3788 -1.55993,-3.20282 -27.051314,-29.32807 -27.807307,-32.80385 -1.102057,-5.06654 10.974177,-10.31113 14.022407,-12.71471 6.5874,-5.19434 13.89218,-10.94262 18.95033,-17.72699 3.56697,-4.78418 7.38,-9.13473 12.06118,-12.82591 6.98739,-5.50973 16.4689,-14.35375 22.39482,-19.32031 0.92591,8.03344 44.88448,46.57735 46.29112,53.04447 z"
       id="path3009"
       inkscape:connector-curvature="0"
       sodipodi:nodetypes="sssssscsssscs" />
    <path
       style="color:#000000;fill:none;stroke:#808080;stroke-width:4;stroke-linecap:round;stroke-linejoin:round;stroke-miterlimit:4;stroke-opacity:1;stroke-dasharray:none;stroke-dashoffset:0;marker:none;visibility:visible;display:inline;overflow:visible;enable-background:accumulate"
       d="m 84.963901,159.87097 c 0,0 4.730582,20.82414 2.828438,29.7788 -5.41731,25.5029 2.551731,14.85423 -0.556199,29.94214 -2.574108,12.49639 -1.46222,33.94322 -1.46222,33.94322 -26.70014,23.2834 -15.94886,17.73852 -56.8211,47.14296 C 27.329101,312.3424 15.300987,326 3,326"
       id="path3017"
       inkscape:connector-curvature="0"
       sodipodi:nodetypes="ccssc" />
    <path
       id="path3019"
       style="color:#000000;fill:none;stroke:#808080;stroke-width:4;stroke-linecap:round;stroke-linejoin:round;stroke-miterlimit:4;stroke-opacity:1;stroke-dasharray:none;stroke-dashoffset:0;marker:none;visibility:visible;display:inline;overflow:visible;enable-background:accumulate"
       d="m 478.82785,-63.591766 c -11.7626,20.73217 -22.52178,36.47316 -35.4431,51.18116 2.86566,-31.06045 -1.83688,-20.61862 -1.86544,-29.70243 -0.0924,-29.39495 5.78996,-59.889314 1.86544,-88.455254"
       inkscape:connector-curvature="0"
       sodipodi:nodetypes="cscc" />
    <path
       id="path3023"
       style="color:#000000;fill:none;stroke:#808080;stroke-width:4;stroke-linecap:round;stroke-linejoin:round;stroke-miterlimit:4;stroke-opacity:1;stroke-dasharray:none;stroke-dashoffset:0;marker:none;visibility:visible;display:inline;overflow:visible;enable-background:accumulate"
       d="m 327.83116,-95.738566 c 15.96564,59.27202 -2.6519,19.7255 1.51722,67.41278 2.58088,29.5203401 11.94836,49.384428 2.73922,51.728068 0,0 -1.0876,12.443389 -19.0876,18.443389 -8,1 -11,9 -11,9 -0.81729,5.03132 -9.9908,25.0046 -18,21 -5.3876,-2.6938 -7.94173,-4.70961 -11,-8 -11.90344,-12.80688 -19.74593,-13.17842 -28,-20 -17.39269,-14.374194 -40.30006,-10.150031 -56,-18 -6.59774,-3.298869 -21.05451,-8.527253 -30,-13 -26.40324,-13.20162192 -56.82794,-20.9139689 -85,-35 -9.885279,-4.942639 -17.700754,-13.422557 -28,-18 -27.966139,-12.429395 -61.238856,-20.825904 -87,-38"
       inkscape:connector-curvature="0"
       sodipodi:nodetypes="cscccsssssssc" />
    <path
       inkscape:connector-curvature="0"
       style="color:#000000;fill:none;stroke:#80ff00;stroke-width:4;stroke-linecap:round;stroke-linejoin:round;stroke-miterlimit:4;stroke-opacity:1;stroke-dasharray:none;stroke-dashoffset:0;marker:none;visibility:visible;display:inline;overflow:visible;enable-background:accumulate"
       d="m 225.63378,133.05952 c -7.43072,-6.0024 -10.2202,-2.75668 -14.28174,-6.5277 -4.45034,-4.13204 -10.44616,-4.00628 -15.68728,-7.31618 -5.77278,-3.64562 -13.1159,-7.74024 -20.6989,-8.0126 -9.3779,-0.33684 -19.47176,-1.22198 -27.85662,-3.05904 -11.4529,-2.50932 -18.18148,-7.03876 -33.1301,-5.08294 -5.91616,0.77404 -9.9392,-3.204579 -15.259264,-4.870039 -7.54238,-2.3611 -11.87162,-6.20702 -15.0777,-12.02018"
       id="path2833"
       sodipodi:nodetypes="csssssss" />
    <path
       style="color:#000000;fill:none;stroke:#ff0000;stroke-width:4;stroke-linecap:butt;stroke-linejoin:miter;stroke-miterlimit:4;stroke-opacity:1;stroke-dasharray:none;stroke-dashoffset:0;marker:none;visibility:visible;display:inline;overflow:visible;enable-background:accumulate"
       d="m 294.69956,205.40021 c 3.78066,-0.3413 14.47664,-1.73462 17.11096,0.46348 -0.81672,4.481 10.09916,24.23182 5.6851,29.60878 -1.27446,15.50386 -34.81762,16.19596 -43.10254,11.92356 -2.6661,-30.8297 -19.3581,-38.41514 20.30648,-41.99582 z"
       id="path3067"
       inkscape:connector-curvature="0"
       sodipodi:nodetypes="scccs" />
    <path
       style="fill:none;stroke:#80ff00;stroke-width:3.99999976;stroke-linecap:round;stroke-linejoin:round;stroke-miterlimit:4;stroke-opacity:1;stroke-dasharray:none"
       d="m 216.39861,154.01123 c 4.9376,1.28687 8.28254,6.74459 16.84285,11.50476 6.78593,5.1794 4.57289,0.11306 10.30653,3.56892 7.57748,7.10298 13.46208,9.46767 22.84735,11.65379 2.40275,0.64082 7.64857,5.04033 8.50123,1.53351 -0.47727,-3.8925 -2.02373,-7.56254 -2.74442,-11.41636 -2.15214,-8.44568 -5.83632,-18.52258 -11.97822,-25.18264 -2.89815,-6.82627 -3.68864,-12.71823 -6.64297,-19.5155 -2.43418,-3.10451 -0.50677,-10.10142 -4.99091,-10.80684 -4.33194,1.644 -6.0535,6.48029 -9.79403,8.98359 -8.0775,4.75772 -0.97297,3.5079 -7.77831,7.73249 -4.6108,4.29199 -10.29113,9.02021 -14.91218,13.28861 -1.79639,1.64521 -5.96889,7.70459 -5.52832,4.97843 0.44065,-2.72613 2.3167,6.10406 5.87134,3.67728 z"
       id="path2942"
       inkscape:connector-curvature="0"
       sodipodi:nodetypes="ccccccccccccccc" />
    <path
       inkscape:connector-curvature="0"
       style="fill:none;stroke:#80ff00;stroke-width:4;stroke-linecap:round;stroke-linejoin:round;stroke-miterlimit:4;stroke-opacity:1;stroke-dasharray:none"
       d="m 133.08939,141.79622 c -0.85589,-0.69573 -5.45443,-4.43358 -7.73304,-6.28575 -7.09692,-5.84249 -6.69252,-8.89978 -13.98014,-16.47251 -4.92101,-4.23063 -9.87849,-16.52088 -10.16319,-19.677049 3.00205,5.543209 11.29927,11.245799 19.09894,14.615639 8.73746,1.62099 0.67748,-0.92637 9.8337,2.98965 1.43037,0.0978 15.91531,3.43912 30.31137,10.0264"
       id="path2958"
       sodipodi:nodetypes="ccccccc" />
    <path
       id="path3747-4"
       style="fill:none;stroke:#808080;stroke-width:3.99999976;stroke-linecap:round;stroke-linejoin:round;stroke-miterlimit:4;stroke-opacity:1;stroke-dasharray:none"
       d="m 288.68477,213.44424 c -3.2778,-3.19864 -3.96258,-1.31548 -11.16558,-3.78993 -4.58458,-7.17297 -3.1406,-3.73203 -8.80269,-7.46077 m -6.23682,7.88348 c 9.94114,7.7276 11.09391,2.10917 19.70509,12.11722 m -39.06759,-33.47351 c 13.96789,3.55689 6.45622,6.41933 20.10572,13.92433 4.50585,6.97345 14.61095,10.74733 23.5271,15.20061"
       inkscape:connector-curvature="0"
       sodipodi:nodetypes="cccccccc" />
    <path
       inkscape:connector-curvature="0"
       style="fill:none;stroke:#80ff00;stroke-width:3.99999952;stroke-linecap:round;stroke-linejoin:round;stroke-miterlimit:4;stroke-opacity:1;stroke-dasharray:none"
       d="m 252.55451,193.34717 c -7.62516,2.27459 -14.88218,-1.34919 -28.12766,-7.01233 -15.14103,-10.41818 -17.50789,-18.41242 -17.32863,-37.63612 -3.78268,-6.37752 1.45186,-30.21842 0.43994,-18.57844 -8.00854,7.62966 -6.99359,11.95546 -9.82015,20.97372 -4.18324,13.34686 6.01979,10.77168 1.19467,19.0389 -1.4474,5.96 -3.56772,20.16214 -2.40094,22.0309"
       id="path2956-7"
       sodipodi:nodetypes="ccccscc" />
    <path
       style="fill:none;stroke:#80ff00;stroke-width:3.99999976;stroke-linecap:round;stroke-linejoin:round;stroke-miterlimit:4;stroke-opacity:1;stroke-dasharray:none"
       d="m 277.18744,114.91399 c 4.58861,7.19861 4.25458,1.6801 8.44839,6.89829 4.66971,9.27709 9.38086,13.52272 17.44025,18.8056 2.03539,1.42866 5.44641,7.36492 7.45397,4.36585 0.89166,-3.81893 0.7029,-7.79703 1.35267,-11.66342 0.88631,-8.67039 0.89559,-19.39966 -2.57871,-27.76678 -0.37151,-7.406675 0.91425,-13.210708 0.47999,-20.60953 -1.21664,-3.752742 3.00098,-9.658642 -0.96635,-11.864374 -4.63312,0.05255 -7.91409,4.000806 -12.28769,5.063696 -9.22152,1.686814 -2.12091,2.958681 -9.96451,4.582807 -5.80633,2.442725 -12.76701,4.926959 -18.57485,7.344027 -2.25291,0.926397 -8.25604,5.179392 -6.90406,2.771437 1.35203,-2.407896 0.0742,6.528495 4.25707,7.454827 4.1829,0.92636 5.44495,7.20189 11.84383,14.61757 z"
       id="path2942-7"
       inkscape:connector-curvature="0"
       sodipodi:nodetypes="cccccccccccccc" />
    <path
       style="color:#000000;fill:none;stroke:#80ff00;stroke-width:3.99999976;stroke-linecap:round;stroke-linejoin:round;stroke-miterlimit:4;stroke-opacity:1;stroke-dasharray:none;stroke-dashoffset:0;marker:none;visibility:visible;display:inline;overflow:visible;enable-background:accumulate"
       d="m 174.05156,67.178731 c -8.04538,-3.0284 -15.42287,-1.01443 -20.46828,-6.73528 -13.44508,-2.86467 -20.89408,-0.48 -31.94374,-6.79357 -4.12473,-1.68355 -3.51099,-1.14506 -8.2615,-4.32883 -6.25599,-2.52881 -11.56654,-0.69155 -18.569679,-10.860775 -3.457517,-2.488643 -2.804504,5.043812 0.463732,9.103405 -0.975992,9.6189 2.449561,11.54383 7.541477,17.51836 5.65826,3.42747 1.41356,-0.10986 9.37084,7.40165 16.10307,11.35776 8.10671,2.88383 11.66833,8.98473 5.66503,3.41395 6.48988,1.85393 15.6363,5.33621"
       id="path3681"
       inkscape:connector-curvature="0"
       sodipodi:nodetypes="cccccccccc" />
    <path
       inkscape:connector-curvature="0"
       style="color:#000000;fill:none;stroke:#80ff00;stroke-width:4;stroke-linecap:round;stroke-linejoin:round;stroke-miterlimit:4;stroke-opacity:1;stroke-dasharray:none;stroke-dashoffset:0;marker:none;visibility:visible;display:inline;overflow:visible;enable-background:accumulate"
       d="m 282.17326,84.118041 c -11.1637,-12.47321 -10.386,-9.94026 -18.33457,-11.68251 -22.0851,-4.84085 -14.59768,-3.38834 -24.50679,-9.9453 -10.06082,-6.65734 -6.51721,-3.84679 -25.69178,-9.77511 -27.80425,-8.596419 -9.55846,-5.30169 -29.68387,-12.812127 -30.5998,-5.197281 -40.98568,-1.399104 -67.0388,-6.236318 -5.67792,-1.054206 -5.37174,3.474155 -19.565832,3.704071 -6.462539,0.104681 -11.759057,-2.202084 -23.319872,-8.575432"
       id="path2833-4"
       sodipodi:nodetypes="cssscsss" />
    <path
       inkscape:connector-curvature="0"
       style="fill:none;stroke:#80ff00;stroke-width:3.99999952;stroke-linecap:round;stroke-linejoin:round;stroke-miterlimit:4;stroke-opacity:1;stroke-dasharray:none"
       d="m 265.3302,132.35077 c -0.4232,-1.481 -0.39929,-7.31668 -6.47604,-13.381 -3.6914,-12.3774 0.8025,-3.74662 -2.44026,-20.477739 -6.45617,-14.52597 5.9335,-18.17694 -1.36466,-27.95735 -8.75649,8.43215 -15.04971,4.52378 -16.24928,12.57316 -9.90582,10.11721 -4.58639,3.12608 -17.71261,12.75252 -13.0535,10.372459 -12.16693,14.757849 -20.56784,14.014139 -7.66985,-0.67899 -8.646,-3.7877 -18.21167,10.38944"
       id="path2958-6"
       sodipodi:nodetypes="ccccccsc" />
    <path
       inkscape:connector-curvature="0"
       sodipodi:nodetypes="ccc"
       id="path4257"
       d="m 288.9623,128.90213 c 0.061,8.91601 -11.09691,16.83145 -13.64152,18.01193 -6.56106,0.15264 -6.91511,-0.6391 -11.09667,1.52439"
       style="color:#000000;fill:none;stroke:#80ff00;stroke-width:3.99999976;stroke-linecap:round;stroke-linejoin:round;stroke-miterlimit:4;stroke-opacity:1;stroke-dasharray:none;stroke-dashoffset:0;marker:none;visibility:visible;display:inline;overflow:visible;enable-background:accumulate" />
    <path
       inkscape:connector-curvature="0"
       style="color:#000000;fill:none;stroke:#80ff00;stroke-width:3.99999976;stroke-linecap:round;stroke-linejoin:round;stroke-miterlimit:4;stroke-opacity:1;stroke-dasharray:none;stroke-dashoffset:0;marker:none;visibility:visible;display:inline;overflow:visible;enable-background:accumulate"
       d="m 288.9623,128.90213 c -0.096,8.69323 -11.09691,16.83145 -13.64152,18.01193 -3.19726,6.25696 -4.72865,4.75185 -6.91417,9.78333"
       id="path4234"
       sodipodi:nodetypes="ccc" />
    <path
       style="color:#000000;fill:none;stroke:#00ffff;stroke-width:4;stroke-linecap:butt;stroke-linejoin:miter;stroke-miterlimit:4;stroke-opacity:1;stroke-dasharray:none;stroke-dashoffset:0;marker:none;visibility:visible;display:inline;overflow:visible;enable-background:accumulate"
       d="m 435.42484,154.82897 c -24.89638,-9.05016 -51.22747,40.50856 -25.08267,51.11612 4.47079,-0.26851 22.96673,-0.18419 24.92356,-1.95344 0.76567,-0.8959 -1.15636,-4.0888 -0.3898,-4.98477 7.20969,-8.43597 6.43566,-32.25982 0.54977,-44.17802 z"
       id="path3069"
       inkscape:connector-curvature="0"
       sodipodi:nodetypes="cccsc" />
    <path
       style="color:#000000;fill:none;stroke:#80ff00;stroke-width:4;stroke-linecap:round;stroke-linejoin:round;stroke-miterlimit:4;stroke-opacity:1;stroke-dasharray:none;stroke-dashoffset:0;marker:none;visibility:visible;display:inline;overflow:visible;enable-background:accumulate"
       d="m -7.6757961,18.823898 c 8.14600932,-0.06405 15.5263719,5.852274 23.3676781,6.883838 10.783574,1.418635 32.880861,-7.035558 38.695715,-5.609155 6.979516,1.712097 10.377105,9.001922 18.605536,8.479678"
       id="path5893"
       inkscape:connector-curvature="0"
       sodipodi:nodetypes="cssc" />
    <path
       style="color:#000000;fill:none;stroke:#80ff00;stroke-width:4;stroke-linecap:round;stroke-linejoin:round;stroke-miterlimit:4;stroke-opacity:1;stroke-dasharray:none;stroke-dashoffset:0;marker:none;visibility:visible;display:inline;overflow:visible;enable-background:accumulate"
       d="m 83.5,85.345671 c -13.842471,-9.02128 -21.950847,-0.95085 -41,-7 -6.067137,-1.92665 -9.541695,-6.22398 -15,-11 -8.3437,-7.30074 -16.387955,-0.38796 -34,-17"
       id="path5895"
       inkscape:connector-curvature="0"
       sodipodi:nodetypes="cssc" />
    <path
       style="color:#000000;fill:none;stroke:#80ff00;stroke-width:4;stroke-linecap:round;stroke-linejoin:round;stroke-miterlimit:4;stroke-opacity:1;stroke-dasharray:none;stroke-dashoffset:0;marker:none;visibility:visible;display:inline;overflow:visible;enable-background:accumulate"
       d="m 199,110.34567 c -3.04607,6.8618 -7.12189,8.13432 -11,15"
       id="path5914"
       inkscape:connector-curvature="0"
       sodipodi:nodetypes="cc" />
    <path
       style="color:#000000;fill:none;stroke:#80ff00;stroke-width:4;stroke-linecap:round;stroke-linejoin:round;stroke-miterlimit:4;stroke-opacity:1;stroke-dasharray:none;stroke-dashoffset:0;marker:none;visibility:visible;display:inline;overflow:visible;enable-background:accumulate"
       d="m 204,109.84567 c -1.66667,8.79243 -2.83333,13.60706 -8,16.5"
       id="path5916"
       inkscape:connector-curvature="0"
       sodipodi:nodetypes="cc" />
    <path
       style="color:#000000;fill:none;stroke:#808080;stroke-width:4;stroke-linecap:round;stroke-linejoin:round;stroke-miterlimit:4;stroke-opacity:1;stroke-dasharray:none;stroke-dashoffset:0;marker:none;visibility:visible;display:inline;overflow:visible;enable-background:accumulate"
       d="m -5.25,168.47067 c 3.6385416,-3.63854 11.3745371,-2.68727 16,-5 13.978582,-6.98929 41.758807,-32.56501 52,-35 21.648744,-5.14729 27.160587,0.84935 53,14 6.06079,3.08456 2.15881,6.14465 8,12 17.0023,17.04353 24.72795,19.21684 39,25 20.13072,8.15714 23.81374,23.24501 34,27 8.01051,2.95294 29.63964,13.87748 38.86291,27.47051 11.52839,16.99025 15.45318,53.18053 -2.86291,42.52949 -9.75542,-5.6729 -23.41125,-34.70563 -29,-30"
       id="path5924"
       inkscape:connector-curvature="0"
       sodipodi:nodetypes="ssssssssss" />
    <g
       id="g6898"
       transform="matrix(0.3591659,-1.9674856,1.9674856,0.3591659,-141.91302,535.47643)">
      <path
         sodipodi:nodetypes="ssss"
         inkscape:connector-curvature="0"
         id="path6851"
         d="m 260.10061,227.39164 c -4.88996,-2.16352 -6.60689,-2.21905 -11.68348,-4.60128 -6.34872,-2.97919 -8.15387,-3.10264 -12.75899,-4.75833 C 226.13152,214.60691 222.23201,214.30276 214.75,213"
         style="color:#000000;fill:none;stroke:#c87137;stroke-width:2;stroke-linecap:round;stroke-linejoin:round;stroke-miterlimit:4;stroke-opacity:1;stroke-dasharray:none;stroke-dashoffset:0;marker:none;visibility:visible;display:inline;overflow:visible;enable-background:accumulate" />
      <path
         sodipodi:nodetypes="ssss"
         inkscape:connector-curvature="0"
         id="path6856"
         d="m 213.5,212 c 3.52739,1.43799 -3.92305,3.68567 -9,-0.5 -4.61181,-3.80219 -7.5883,-9.97594 -6,-9 7.25265,4.45643 4.55455,5.24177 15,9.5 z"
         style="color:#000000;fill:none;stroke:#808080;stroke-width:2;stroke-linecap:round;stroke-linejoin:miter;stroke-miterlimit:4;stroke-opacity:1;stroke-dasharray:none;stroke-dashoffset:0;marker:none;visibility:visible;display:inline;overflow:visible;enable-background:accumulate" />
    </g>
    <path
       style="color:#000000;fill:none;stroke:#ff0000;stroke-width:4;stroke-linecap:round;stroke-linejoin:round;stroke-miterlimit:4;stroke-opacity:1;stroke-dasharray:none;stroke-dashoffset:0;marker:none;visibility:visible;display:inline;overflow:visible;enable-background:accumulate"
       d="m 386,271 c 7.16799,-8.16237 14.08956,-15.14694 17.34576,-27.54844 2.41843,-9.21077 10.01334,-13.53747 -2.1296,-15.96667 -9.78991,-1.95848 -17.98065,-12.8631 -28.26223,-3.64442 -7.4977,6.7226 -13.29181,10.87907 -25.64765,10.41333 -12.53836,-0.47262 -17.10101,19.08669 -22.63404,29.69711 -3.63159,6.96412 -9.64197,12.36443 -15.67227,17.04909"
       id="path3910"
       inkscape:connector-curvature="0"
       sodipodi:nodetypes="sssssss" />
    <path
       style="color:#000000;fill:none;stroke:#00ffff;stroke-width:4;stroke-linecap:butt;stroke-linejoin:miter;stroke-miterlimit:4;stroke-opacity:1;stroke-dasharray:none;stroke-dashoffset:0;marker:none;visibility:visible;display:inline;overflow:visible;enable-background:accumulate"
       d="m 336.30098,368.3548 c 5.57865,4.89279 19.12279,-15.81569 39.95867,-39.46137 15.51431,-13.8671 15.58753,-14.36967 33.31086,-34.95092 1.82523,-2.11941 -25.34892,-21.75679 -37.12734,-35.51348 -7.93086,-9.26277 -6.49794,-7.11036 -13.40447,-4.40814 -2.74714,1.07485 -14.96185,17.82476 -38.8842,40.69964 -15.98863,20.07697 -29.8717,31.12566 -28.51428,32.96776 13.74132,18.64776 11.84238,11.55982 23.02814,22.88967 13.68242,13.85868 2.5519,1.04196 21.63262,17.77684 z"
       id="path3040"
       inkscape:connector-curvature="0"
       sodipodi:nodetypes="scssscsss" />
    <path
       style="color:#000000;fill:none;stroke:#00ffff;stroke-width:4;stroke-linecap:butt;stroke-linejoin:miter;stroke-miterlimit:4;stroke-opacity:1;stroke-dasharray:none;stroke-dashoffset:0;marker:none;visibility:visible;display:inline;overflow:visible;enable-background:accumulate"
       d="m 301.16499,275.36397 c -2.13912,-3.0236 -11.29408,8.48543 -20.93092,16.59581 -3.61595,3.04307 3.45303,7.90671 9.90779,14.63702 2.70108,2.81635 10.10572,-6.61178 20.53028,-16.83717 4.1053,-4.02687 -2.97783,-5.16683 -9.50715,-14.39566 z"
       id="path3105"
       inkscape:connector-curvature="0"
       sodipodi:nodetypes="sssss" />
  </g>
</svg>
