<?xml version="1.0" encoding="UTF-8" standalone="no"?>
<!-- Created with Inkscape (http://www.inkscape.org/) -->

<svg
   xmlns:dc="http://purl.org/dc/elements/1.1/"
   xmlns:cc="http://creativecommons.org/ns#"
   xmlns:rdf="http://www.w3.org/1999/02/22-rdf-syntax-ns#"
   xmlns:svg="http://www.w3.org/2000/svg"
   xmlns="http://www.w3.org/2000/svg"
   xmlns:sodipodi="http://sodipodi.sourceforge.net/DTD/sodipodi-0.dtd"
   xmlns:inkscape="http://www.inkscape.org/namespaces/inkscape"
   width="480"
   height="320"
   id="svg2"
   version="1.1"
   inkscape:version="0.47 r22583"
   sodipodi:docname="itnas002.svg"
   inkscape:export-filename="D:\My Documents\ITNAS\itnas002.png"
   inkscape:export-xdpi="90"
   inkscape:export-ydpi="90">
  <defs
     id="defs4">
    <inkscape:perspective
       sodipodi:type="inkscape:persp3d"
       inkscape:vp_x="0 : 160 : 1"
       inkscape:vp_y="0 : 1000 : 0"
       inkscape:vp_z="480 : 160 : 1"
       inkscape:persp3d-origin="240 : 106.66667 : 1"
       id="perspective43" />
  </defs>
  <sodipodi:namedview
     id="base"
     pagecolor="#ffffff"
     bordercolor="#666666"
     borderopacity="1.0"
     inkscape:pageopacity="1"
     inkscape:pageshadow="2"
     inkscape:zoom="1"
     inkscape:cx="227.43593"
     inkscape:cy="141.20252"
     inkscape:document-units="px"
     inkscape:current-layer="layer1"
     showgrid="false"
     inkscape:snap-nodes="true"
     inkscape:snap-global="false"
     inkscape:snap-grids="true"
     showguides="true"
     inkscape:window-width="1280"
     inkscape:window-height="774"
     inkscape:window-x="-4"
     inkscape:window-y="-4"
     inkscape:window-maximized="1">
    <inkscape:grid
       empspacing="5"
       visible="true"
       enabled="true"
       snapvisiblegridlinesonly="true"
       type="xygrid"
       id="grid2816" />
  </sodipodi:namedview>
  <metadata
     id="metadata7">
    <rdf:RDF>
      <cc:Work
         rdf:about="">
        <dc:format>image/svg+xml</dc:format>
        <dc:type
           rdf:resource="http://purl.org/dc/dcmitype/StillImage" />
        <dc:title />
      </cc:Work>
    </rdf:RDF>
  </metadata>
  <g
     inkscape:label="Layer 1"
     inkscape:groupmode="layer"
     id="layer1"
     transform="translate(0,-732.36218)">
    <g
       id="g10874"
       transform="translate(-25.714275,614.28572)">
      <rect
         y="131.61624"
         x="38.254055"
         height="292.92044"
         width="454.92044"
         id="rect10457"
         style="color:#000000;fill:none;stroke:#000000;stroke-width:6.0795455;stroke-miterlimit:4;stroke-opacity:1;stroke-dasharray:none;marker:none;visibility:visible;display:inline;overflow:visible;enable-background:accumulate" />
      <rect
         transform="matrix(0,-1,1,0,0,0)"
         y="355.61658"
         x="-402.50262"
         height="115.85236"
         width="248.85234"
         id="rect10459"
         style="color:#000000;fill:none;stroke:#d8bc00;stroke-width:4;stroke-linecap:butt;stroke-linejoin:miter;stroke-miterlimit:4;stroke-opacity:1;stroke-dasharray:none;stroke-dashoffset:0;marker:none;visibility:visible;display:inline;overflow:visible;enable-background:accumulate" />
    </g>
    <path
       sodipodi:type="arc"
       style="color:#000000;fill:none;stroke:#ff00ae;stroke-width:2.35867286;stroke-linecap:butt;stroke-linejoin:miter;stroke-miterlimit:4;stroke-opacity:1;stroke-dasharray:none;stroke-dashoffset:0;marker:none;visibility:visible;display:inline;overflow:visible;enable-background:accumulate"
       id="path10521-4"
       sodipodi:cx="89.272232"
       sodipodi:cy="73.573288"
       sodipodi:rx="24.902489"
       sodipodi:ry="22.902489"
       d="m 114.17472,73.573288 c 0,12.648695 -11.14922,22.902489 -24.902488,22.902489 -13.753265,0 -24.902489,-10.253794 -24.902489,-22.902489 0,0 0,-1e-6 0,-1e-6 l 24.902489,1e-6 z"
       transform="matrix(-0.77143456,0.25717098,-0.2796289,-0.83880146,138.4047,820.86331)"
       sodipodi:start="0"
       sodipodi:end="3.1415927" />
    <path
       sodipodi:type="star"
       style="fill:none;stroke:#ffde01;stroke-width:10.85019207;stroke-linecap:butt;stroke-linejoin:bevel;stroke-miterlimit:4;stroke-opacity:1;stroke-dasharray:none"
       id="path10549"
       sodipodi:sides="12"
       sodipodi:cx="40"
       sodipodi:cy="132"
       sodipodi:r1="102.95278"
       sodipodi:r2="51.476391"
       sodipodi:arg1="1.5732065"
       sodipodi:arg2="1.8350059"
       inkscape:flatsided="false"
       inkscape:rounded="1"
       inkscape:randomized="0"
       d="M 39.751866,234.95248 C -15.120375,234.82023 79.525414,196.01985 26.557128,181.69012 -26.411157,167.36039 35.763497,248.58605 -11.691131,221.0354 -59.14576,193.48474 42.22009,207.20552 3.5130717,168.31147 -35.193946,129.41742 -21.961946,230.84823 -49.283532,183.26135 -76.605119,135.67447 4.3198937,198.23994 -9.754342,145.20319 -23.828578,92.166448 -63.084735,186.62411 -62.952483,131.75187 -62.82023,76.879625 -24.019847,171.52541 -9.6901199,118.55713 4.6396066,65.588843 -76.586053,127.7635 -49.035398,80.308869 -21.484744,32.85424 -35.205521,134.22009 3.6885297,95.513072 42.58258,56.806054 -58.848232,70.038054 -11.261351,42.716468 36.32553,15.394881 -26.239936,96.319894 26.796808,82.245658 79.833552,68.171422 -14.624107,28.915265 40.248134,29.047517 95.120375,29.17977 0.4745856,67.980153 53.442872,82.30988 106.41116,96.639607 44.236503,15.413947 91.691131,42.964602 139.14576,70.515256 37.77991,56.794479 76.486928,95.68853 115.19395,134.58258 101.96195,33.151768 129.28353,80.738649 156.60512,128.32553 75.680106,65.760064 89.754342,118.79681 c 14.074238,53.03674 53.330398,-41.420917 53.198138,13.45132 -0.13225,54.87225 -38.93263,-39.773544 -53.26236,13.19474 -14.329727,52.96829 66.89593,-9.20637 39.34528,38.24826 -27.55066,47.45463 -13.82988,-53.91122 -52.72393,-15.2042 -38.89405,38.70702 62.53676,25.47502 14.949881,52.7966 -47.586881,27.32159 14.978589,-53.60342 -38.058159,-39.52919 -53.03674446,14.07424 41.420915,53.3304 -13.451326,53.19814 z"
       transform="matrix(0.1843505,0,0,0.18430658,86.83282,896.44979)" />
    <path
       sodipodi:type="star"
       style="fill:none;stroke:#0155ff;stroke-width:10.85019207;stroke-linecap:butt;stroke-linejoin:bevel;stroke-miterlimit:4;stroke-opacity:1;stroke-dasharray:none"
       id="path10549-5"
       sodipodi:sides="3"
       sodipodi:cx="40"
       sodipodi:cy="132"
       sodipodi:r1="102.95278"
       sodipodi:r2="51.476391"
       sodipodi:arg1="1.5732065"
       sodipodi:arg2="2.6204041"
       inkscape:flatsided="false"
       inkscape:rounded="1"
       inkscape:randomized="0"
       d="m 39.751866,234.95248 c -89.159468,-0.21489 0,0 -44.3936334,-77.32181 -44.3936306,-77.321801 -89.1594666,-0.21489 -44.3936306,-77.321801 44.7658376,-77.1069174 0,0 89.159467,0.21489 89.159461,0.21489 44.765836,-77.1069172 89.159461,0.21489 44.39363,77.321811 0,0 -44.765832,77.106921 -44.765832,77.10691 44.393632,77.32181 -44.765832,77.10691 z"
       transform="matrix(0.1843505,0,0,0.18430658,57.21002,877.99321)" />
    <path
       sodipodi:type="star"
       style="fill:none;stroke:#01baff;stroke-width:10.85019207;stroke-linecap:butt;stroke-linejoin:bevel;stroke-miterlimit:4;stroke-opacity:1;stroke-dasharray:none"
       id="path10549-5-8"
       sodipodi:sides="5"
       sodipodi:cx="40"
       sodipodi:cy="132"
       sodipodi:r1="102.95278"
       sodipodi:r2="51.476391"
       sodipodi:arg1="1.5732065"
       sodipodi:arg2="2.201525"
       inkscape:flatsided="false"
       inkscape:rounded="1.5"
       inkscape:randomized="0"
       d="M 39.751866,234.95248 C -62.798922,234.70532 92.462703,234.05003 9.6426536,173.57223 -73.1774,113.09443 -26.535435,261.18605 -57.990307,163.57808 -89.445178,65.970105 -40.843481,213.43019 -8.9184765,115.97497 23.00653,18.519753 -103.42382,108.64173 -20.313207,48.563843 62.797402,-11.514039 -62.426722,80.276593 40.124065,80.523759 142.67486,80.770924 17.89464,-11.62226 100.7147,48.855541 183.53475,109.33334 57.540285,18.602986 88.995153,116.21096 c 31.454867,97.60798 80.766797,-49.616125 48.841797,47.8391 -31.925,97.45521 15.43026,-50.40986 -67.680345,9.66802 -83.110614,60.07788 72.146055,61.48157 -30.404739,61.2344 z"
       transform="matrix(0.1843505,0,0,0.18430658,54.57798,924.4462)" />
    <g
       id="g10654"
       style="stroke-width:2;stroke-miterlimit:4;stroke-dasharray:none"
       transform="matrix(0.94764821,-0.31931625,0.31931625,0.94764821,-290.14104,149.57981)">
      <rect
         transform="translate(0,732.36218)"
         y="245"
         x="275"
         height="30"
         width="10"
         id="rect10650"
         style="color:#000000;fill:none;stroke:#000000;stroke-width:2;stroke-linecap:butt;stroke-linejoin:miter;stroke-miterlimit:4;stroke-opacity:1;stroke-dasharray:none;stroke-dashoffset:0;marker:none;visibility:visible;display:inline;overflow:visible;enable-background:accumulate" />
      <rect
         ry="5"
         transform="translate(0,732.36218)"
         y="245"
         x="270"
         height="30"
         width="20"
         id="rect10652"
         style="color:#000000;fill:none;stroke:#000000;stroke-width:2;stroke-linecap:butt;stroke-linejoin:miter;stroke-miterlimit:4;stroke-opacity:1;stroke-dasharray:none;stroke-dashoffset:0;marker:none;visibility:visible;display:inline;overflow:visible;enable-background:accumulate" />
    </g>
    <g
       id="g10690"
       transform="matrix(0.90543388,-0.2094761,0.2094761,0.90543388,-181.97489,62.77148)"
       style="stroke:#ff0101;stroke-width:2.15204263;stroke-miterlimit:4;stroke-opacity:1;stroke-dasharray:none">
      <path
         sodipodi:nodetypes="cc"
         id="path10669"
         d="m 100,827.36218 80,0"
         style="fill:none;stroke:#ff0101;stroke-width:2.15204263;stroke-linecap:butt;stroke-linejoin:miter;stroke-miterlimit:4;stroke-opacity:1;stroke-dasharray:none" />
      <path
         sodipodi:nodetypes="cccccccc"
         transform="translate(0,732.36218)"
         id="path10673"
         d="m 105,100 20,-10 20,10 20,-10 0,10 -20,-10 -20,10 -20,-10"
         style="fill:none;stroke:#ff0101;stroke-width:2.15204263;stroke-linecap:butt;stroke-linejoin:miter;stroke-miterlimit:4;stroke-opacity:1;stroke-dasharray:none" />
      <path
         sodipodi:nodetypes="ccccccc"
         id="rect10675"
         d="m 165,817.36218 15,5 0,10 -15,5 5,-5 0,-10 -5,-5 z"
         style="color:#000000;fill:none;stroke:#ff0101;stroke-width:2.15204263;stroke-linecap:butt;stroke-linejoin:miter;stroke-miterlimit:4;stroke-opacity:1;stroke-dasharray:none;stroke-dashoffset:0;marker:none;visibility:visible;display:inline;overflow:visible;enable-background:accumulate" />
    </g>
    <g
       id="g10703"
       transform="matrix(2.3460463,0.67794613,-0.50966661,1.7553677,360.17999,-633.58589)"
       style="stroke:#808080;stroke-width:0.94663483;stroke-miterlimit:4;stroke-opacity:1;stroke-dasharray:none">
      <rect
         transform="translate(0,732.36218)"
         y="70"
         x="40"
         height="10"
         width="10"
         id="rect10695"
         style="color:#000000;fill:none;stroke:#808080;stroke-width:0.94663483;stroke-linecap:butt;stroke-linejoin:miter;stroke-miterlimit:4;stroke-opacity:1;stroke-dasharray:none;stroke-dashoffset:0;marker:none;visibility:visible;display:inline;overflow:visible;enable-background:accumulate" />
      <path
         sodipodi:nodetypes="cc"
         transform="translate(0,732.36218)"
         id="path10699"
         d="M 40,70 50,80"
         style="fill:none;stroke:#808080;stroke-width:0.94663483;stroke-linecap:butt;stroke-linejoin:miter;stroke-miterlimit:4;stroke-opacity:1;stroke-dasharray:none" />
      <path
         sodipodi:nodetypes="cc"
         transform="translate(0,732.36218)"
         id="path10701"
         d="M 50,70 40,80"
         style="fill:none;stroke:#808080;stroke-width:0.94663483;stroke-linecap:butt;stroke-linejoin:miter;stroke-miterlimit:4;stroke-opacity:1;stroke-dasharray:none" />
    </g>
    <g
       transform="translate(-8.286139,10.56247)"
       id="g10714"
       style="stroke-width:2;stroke-miterlimit:4;stroke-dasharray:none">
      <g
         id="g10719"
         transform="matrix(0.24573995,-0.9693358,0.9693358,0.24573995,-762.87114,743.94085)"
         style="stroke-width:2;stroke-miterlimit:4;stroke-dasharray:none">
        <path
           style="fill:none;stroke:#000000;stroke-width:2;stroke-linecap:butt;stroke-linejoin:miter;stroke-miterlimit:4;stroke-opacity:1;stroke-dasharray:none"
           d="m 105,802.36218 0,45"
           id="path10708"
           sodipodi:nodetypes="cc" />
        <path
           style="fill:none;stroke:#000000;stroke-width:2;stroke-linecap:butt;stroke-linejoin:miter;stroke-miterlimit:4;stroke-opacity:1;stroke-dasharray:none"
           d="m 100,842.36218 10,0"
           id="path10710" />
        <path
           style="fill:none;stroke:#000000;stroke-width:2;stroke-linecap:butt;stroke-linejoin:miter;stroke-miterlimit:4;stroke-opacity:1;stroke-dasharray:none"
           d="m 100,807.36218 10,0"
           id="path10712"
           sodipodi:nodetypes="cc" />
      </g>
    </g>
    <g
       id="g10748"
       style="stroke-width:2;stroke-miterlimit:4;stroke-dasharray:none"
       transform="matrix(0.93508953,0.09436152,-0.09436152,0.93508953,80.12585,41.40138)">
      <path
         sodipodi:end="1.5707963"
         sodipodi:start="0"
         transform="matrix(0.98522163,0,0,1.010101,13.004935,726.75612)"
         d="M 220.25,35.25 C 220.25,48.919047 208.88923,60 194.875,60 l 0,-24.75 z"
         sodipodi:ry="24.75"
         sodipodi:rx="25.375"
         sodipodi:cy="35.25"
         sodipodi:cx="194.875"
         id="path10724"
         style="color:#000000;fill:none;stroke:#c9ff00;stroke-width:2.13317943;stroke-linecap:butt;stroke-linejoin:miter;stroke-miterlimit:4;stroke-opacity:1;stroke-dasharray:none;stroke-dashoffset:0;marker:none;visibility:visible;display:inline;overflow:visible;enable-background:accumulate"
         sodipodi:type="arc" />
      <path
         sodipodi:end="1.5707963"
         sodipodi:start="0"
         transform="matrix(-0.98522163,0,0,-1.010101,421.99507,822.96824)"
         d="M 220.25,35.25 C 220.25,48.919047 208.88923,60 194.875,60 l 0,-24.75 z"
         sodipodi:ry="24.75"
         sodipodi:rx="25.375"
         sodipodi:cy="35.25"
         sodipodi:cx="194.875"
         id="path10724-1"
         style="color:#000000;fill:none;stroke:#c9ff00;stroke-width:2.13317943;stroke-linecap:butt;stroke-linejoin:miter;stroke-miterlimit:4;stroke-opacity:1;stroke-dasharray:none;stroke-dashoffset:0;marker:none;visibility:visible;display:inline;overflow:visible;enable-background:accumulate"
         sodipodi:type="arc" />
    </g>
    <g
       id="g3650">
      <path
         sodipodi:nodetypes="cssss"
         id="path2826-1"
         d="m 249.71124,827.24079 c 0,0 1.7867,9.91918 -1.91354,24.32172 -6.50418,25.3162 -21.47485,40.05145 -34.67266,66.79888 -17.43035,35.32536 -45.042,43.60868 -61.44168,43.78687 -25.85521,0.28093 -52.141947,30.44379 -54.905071,57.46204"
         style="fill:none;stroke:#00ff00;stroke-width:4;stroke-linecap:butt;stroke-linejoin:miter;stroke-miterlimit:4;stroke-opacity:1;stroke-dasharray:none;marker-start:none;marker-mid:none;marker-end:none" />
      <path
         style="fill:none;stroke:#0000ff;stroke-width:4;stroke-linecap:butt;stroke-linejoin:miter;stroke-miterlimit:4;stroke-opacity:1;stroke-dasharray:none"
         d="m 250.07565,882.7179 c -9.58169,2.46875 -18.334,-0.19691 -25.17964,-14.66664"
         id="rect10452-1"
         sodipodi:nodetypes="cc" />
      <path
         sodipodi:nodetypes="cccccc"
         d="m 183.05171,892.47451 -8.37244,38.61523 c 0,0 25.44758,-19.74887 25.44758,-19.74887 0,0 26.04295,15.07076 26.04295,15.07076 0,0 0.51108,33.16676 0.51108,33.16676 0,0 25.50763,-33.09096 25.50763,-33.09096"
         style="fill:none;stroke:#00ff00;stroke-width:2px;stroke-linecap:butt;stroke-linejoin:miter;stroke-opacity:1"
         id="path10436-7" />
      <path
         style="fill:none;stroke:#0000ff;stroke-width:4;stroke-linecap:butt;stroke-linejoin:miter;stroke-miterlimit:4;stroke-opacity:1;stroke-dasharray:none"
         d="m 241.42019,897.28695 c -4.4329,-10.93102 -13.81565,-16.43904 -25.17963,-14.66663"
         id="rect10452-1-4"
         sodipodi:nodetypes="cc" />
      <path
         sodipodi:nodetypes="cccccc"
         d="m 219.27898,832.62938 -5.95996,33.77663 24.91028,-16.68266 18.54634,7.0034 c 0,0 2.64818,33.46232 2.64818,33.46232 l 19.34973,-29.87349"
         style="fill:none;stroke:#00ff00;stroke-width:2px;stroke-linecap:butt;stroke-linejoin:miter;stroke-opacity:1"
         id="path10402-6-4" />
      <path
         sodipodi:nodetypes="ccccc"
         d="m 233.97056,905.86113 -6.38218,12.29713 c -5.92802,-12.00305 -12.58016,-14.9237 -24.30656,-15.48393 l 6.6152,-10.63101 c 12.06467,-0.39327 18.97408,3.73046 24.07354,13.81781 z"
         style="fill:none;stroke:#0000ff;stroke-width:4;stroke-linecap:butt;stroke-linejoin:miter;stroke-miterlimit:4;stroke-opacity:1;stroke-dasharray:none"
         id="rect10452-1-8" />
      <g
         transform="matrix(0.93569682,-0.35280513,0.35280513,0.93569682,-284.20121,142.26197)"
         id="g3642">
        <g
           transform="matrix(0.93197898,-0.36251232,0.36251232,0.93197898,-287.05989,149.35472)"
           id="g3646">
          <path
             sodipodi:nodetypes="cccc"
             id="rect10452-0"
             d="m 275.78962,828.43906 c 0,0 -10.55432,-11.53974 -10.55432,-11.53974 l -3.45626,14.16208 14.01058,-2.62234 z"
             style="fill:none;stroke:#0000ff;stroke-width:4;stroke-linecap:butt;stroke-linejoin:bevel;stroke-miterlimit:4;stroke-opacity:1;stroke-dasharray:none" />
          <path
             sodipodi:nodetypes="cccc"
             d="m 270.4993,840.77804 c 0,0 19.00475,-36.06212 19.00475,-36.06212 l -38.38597,17.58503 c 0,0 16.94307,16.39968 19.38122,18.47709 z"
             style="fill:none;stroke:#00ff00;stroke-width:2;stroke-linecap:butt;stroke-linejoin:miter;stroke-miterlimit:4;stroke-opacity:1;stroke-dasharray:none"
             id="path10399-9" />
        </g>
      </g>
    </g>
    <rect
       style="color:#000000;fill:none;stroke:#000000;stroke-width:2;stroke-linecap:butt;stroke-linejoin:miter;stroke-miterlimit:4;stroke-opacity:1;stroke-dasharray:none;stroke-dashoffset:0;marker:none;visibility:visible;display:inline;overflow:visible;enable-background:accumulate"
       id="rect2860"
       width="125.86039"
       height="7.0857863"
       x="38.25"
       y="297.75"
       transform="translate(0,732.36218)" />
  </g>
</svg>
