<?xml version="1.0" encoding="UTF-8" standalone="no"?>
<!-- Created with Inkscape (http://www.inkscape.org/) -->

<svg
   xmlns:dc="http://purl.org/dc/elements/1.1/"
   xmlns:cc="http://creativecommons.org/ns#"
   xmlns:rdf="http://www.w3.org/1999/02/22-rdf-syntax-ns#"
   xmlns:svg="http://www.w3.org/2000/svg"
   xmlns="http://www.w3.org/2000/svg"
   xmlns:sodipodi="http://sodipodi.sourceforge.net/DTD/sodipodi-0.dtd"
   xmlns:inkscape="http://www.inkscape.org/namespaces/inkscape"
   width="480"
   height="320"
   id="svg2"
   version="1.1"
   inkscape:version="0.48.0 r9654"
   sodipodi:docname="itnas388.svg"
   inkscape:export-xdpi="90"
   inkscape:export-ydpi="90"
   inkscape:export-filename="itnas388.png">
  <defs
     id="defs4">
    <inkscape:perspective
       sodipodi:type="inkscape:persp3d"
       inkscape:vp_x="0 : 160 : 1"
       inkscape:vp_y="0 : 1000 : 0"
       inkscape:vp_z="480 : 160 : 1"
       inkscape:persp3d-origin="240 : 106.66667 : 1"
       id="perspective8" />
  </defs>
  <sodipodi:namedview
     id="base"
     pagecolor="#ffffff"
     bordercolor="#666666"
     borderopacity="1.0"
     inkscape:pageopacity="1"
     inkscape:pageshadow="2"
     inkscape:zoom="1"
     inkscape:cx="244.76912"
     inkscape:cy="185.90225"
     inkscape:document-units="px"
     inkscape:current-layer="layer1"
     showgrid="true"
     inkscape:snap-nodes="true"
     inkscape:snap-global="false"
     inkscape:snap-grids="true"
     showguides="true"
     inkscape:window-width="1030"
     inkscape:window-height="774"
     inkscape:window-x="-4"
     inkscape:window-y="380"
     inkscape:window-maximized="1">
    <inkscape:grid
       empspacing="5"
       visible="true"
       enabled="true"
       snapvisiblegridlinesonly="true"
       type="xygrid"
       id="grid2816" />
  </sodipodi:namedview>
  <metadata
     id="metadata7">
    <rdf:RDF>
      <cc:Work
         rdf:about="">
        <dc:format>image/svg+xml</dc:format>
        <dc:type
           rdf:resource="http://purl.org/dc/dcmitype/StillImage" />
        <dc:title />
      </cc:Work>
    </rdf:RDF>
  </metadata>
  <g
     inkscape:label="Layer 1"
     inkscape:groupmode="layer"
     id="layer1"
     transform="translate(0,0)">
    <path
       style="color:#000000;fill:none;stroke:#00ffff;stroke-width:3.99999976;stroke-linecap:round;stroke-linejoin:round;stroke-miterlimit:4;stroke-opacity:1;stroke-dasharray:none;stroke-dashoffset:0;marker:none;visibility:visible;display:inline;overflow:visible;enable-background:accumulate"
       d="m 695,318.5 c -10.98204,-1.80794 -17.98666,-0.22947 -26,-3.07198 -9.9139,-3.51667 -23.17198,-2.28395 -34,0 -10.14278,2.13942 -29.71986,0.28453 -36,-1.22879 -17.7319,-4.27284 -23.0576,-0.61439 -34,-0.61439 -41.9771,0 -6.97842,3.08589 -46.99344,3.73404 -42.38398,0.68652 -65.09858,-2.92996 -107.00656,-1.27646 -47.3006,1.86627 -17.48338,-1.52055 -51,0 -82.32424,3.7348 -2.66666,-1.84319 -109,0 -13.2571,0.2298 -41.96225,-1.85089 -54,0 -6.42671,0.98815 -30.19213,-2.9149 -43.25,-0.69281 C 132.30653,315.5 138.38722,315.15024 117.37006,314.5 106.41388,308.5671 89.210786,305.64461 79.5,310.5 c -5.185682,3.1362 -11.107235,2.46429 -17,3 -10.33177,0.93925 -14.830365,2.66963 -26,-1 -3.001652,-0.98615 -11.82276,0.5 -14,0.5"
       id="path3117"
       inkscape:connector-curvature="0"
       sodipodi:nodetypes="cssssssssscccssc" />
    <path
       style="color:#000000;fill:none;stroke:#ff0000;stroke-width:4;stroke-linecap:round;stroke-linejoin:round;stroke-miterlimit:4;stroke-opacity:1;stroke-dasharray:none;stroke-dashoffset:0;marker:none;visibility:visible;display:inline;overflow:visible;enable-background:accumulate"
       d="m 103.93955,435.78296 c -2.308,12.02848 11.51925,21.06992 21.75037,25.0836 10.4714,4.68836 21.98914,7.58666 29.24464,17.14536 14.29856,3.80892 10.47505,-19.38036 11.21418,-28.39204 0.77023,-11.53362 1.45966,-24.97684 -8.30191,-33.20746 -4.12193,-11.75734 -15.0979,-17.98892 -22.26077,-27.5449 -9.37886,-11.74736 0.1779,-26.0869 -1.11888,-39.05108"
       id="path5386"
       inkscape:connector-curvature="0" />
    <path
       style="fill:none;stroke:#008000;stroke-width:4;stroke-linecap:round;stroke-linejoin:round;stroke-opacity:1;color:#000000;stroke-miterlimit:4;stroke-dasharray:none;stroke-dashoffset:0;marker:none;visibility:visible;display:inline;overflow:visible;enable-background:accumulate"
       d="m 120,231 c -0.86603,0.87279 -2.93463,7.56537 1.7568,8.28269 4.69143,0.71731 12.06175,-0.67651 17.46801,0.20486 C 146.13107,238.36893 143,229.94687 143,228"
       id="path3138"
       inkscape:connector-curvature="0"
       sodipodi:nodetypes="cccc" />
    <path
       style="color:#000000;fill:none;stroke:#808080;stroke-width:4;stroke-linecap:round;stroke-linejoin:round;stroke-miterlimit:4;stroke-opacity:1;stroke-dasharray:none;stroke-dashoffset:0;marker:none;visibility:visible;display:inline;overflow:visible;enable-background:accumulate"
       d="m 126,237 c -4.4925,29.38192 4.03701,41.57725 2.25288,64.77011 -3.01794,39.23165 -19.81141,29.8152 -8.10788,40.85063 14.4102,13.5876 18.84529,45.95592 25.37299,59.37556 3.74384,7.69658 8.11269,-0.5319 12.41246,10.8378 7.10414,18.78518 17.20669,17.4102 14.06955,33.1659 -5.69954,28.62492 2.50431,19.6145 -8.43437,28.33036 -11.33004,9.0277 -44.79314,-17.7225 -50.60975,-29.8287 -2.9531,-6.14632 -3.67749,-12.64216 1.33133,-16.94588 12.24664,-10.52266 28.2306,-3.29124 29.83199,22.0404 1.60356,25.36606 -16.27927,54.70938 0.83253,75.68798 10.75811,13.18916 30.96913,19.744 15.56207,22.27438 -17.15988,2.81826 4.29204,23.31864 13.1261,26.61886 19.03589,7.1114 12.26015,-39.69942 18.47911,-31.87676"
       id="path4541"
       inkscape:connector-curvature="0"
       sodipodi:nodetypes="cssssssssssssc" />
    <path
       style="color:#000000;fill:none;stroke:#00ffff;stroke-width:4;stroke-linecap:round;stroke-linejoin:round;stroke-miterlimit:4;stroke-opacity:1;stroke-dasharray:none;stroke-dashoffset:0;marker:none;visibility:visible;display:inline;overflow:visible;enable-background:accumulate"
       d="m 266.46963,163.52622 c 26.849,-1.72115 54.41558,-0.89544 81.53037,-0.89544 8.07244,0 18.08606,-1.14301 26,0 33.5012,4.83859 69.91098,3.61076 105,3.61076 15.31672,0 51.22124,1.36441 63,-2.88861 6.14024,-2.21708 36.7013,0 45,0 32.97594,0 69.58788,0 104,0 7.27788,0 68.43358,0.40905 69,0 1.33334,-0.96286 5.66666,0.24072 7,-0.72215 3.3958,-2.45228 13.35484,-4.72892 21,-2.8886 10.96842,2.64028 53.2074,1.4443 67,1.4443 2.86926,0 16.1741,-1.31857 18,0 1.73404,1.25224 4.25826,0.0622 7,0.72215 4.39808,1.05869 8.08868,2.19848 12,3.61076 7.73334,2.79231 21.26666,-2.79232 29,0 7.79166,2.81337 80.7133,0.9292 86,-2.88861 1.1152,-0.8053 9.2477,0 11,0 2.0978,0 4.7498,1.03805 7,1.4443 11.797,2.12981 33.2635,0 46,0"
       id="path8946"
       inkscape:connector-curvature="0"
       sodipodi:nodetypes="csssssscsssscsscssc" />
    <path
       style="color:#000000;fill:none;stroke:#00ffff;stroke-width:4;stroke-linecap:round;stroke-linejoin:round;stroke-miterlimit:4;stroke-opacity:1;stroke-dasharray:none;stroke-dashoffset:0;marker:none;visibility:visible;display:inline;overflow:visible;enable-background:accumulate"
       d="m 152,162 c -12.66901,-2.01854 -26.24706,-2.26619 -39.86835,-2.18701 -7.51903,0.0437 -29.981026,1.96157 -40.349594,-1.87006 -13.01775,10.40666 -41.216408,-0.15848 -51.426972,3.55529"
       id="path9173"
       inkscape:connector-curvature="0" />
    <path
       style="color:#000000;fill:#ffffff;stroke:#00ffff;stroke-width:4;stroke-linecap:round;stroke-linejoin:round;stroke-miterlimit:4;stroke-opacity:1;stroke-dasharray:none;stroke-dashoffset:0;marker:none;visibility:visible;display:inline;overflow:visible;enable-background:accumulate"
       d="m 277.5,46 c -1.13036,-7.632342 -2.38665,-15.099262 -1.73519,-22.927624 -0.40275,-5.717681 -7.37362,-5.419343 -11.18526,-7.902652 -14.37527,0.725566 -28.79544,-0.229061 -43.18137,-0.340973 -14.14849,-0.864793 -28.5266,-5.6835649 -42.64751,-2.237219 -6.31424,2.097744 -12.98997,3.236037 -19.71056,3.735819 C 152.79158,17.159901 144.62616,18.551047 143,25.5 c -0.14826,13.238759 1.96406,26.449336 3.50677,39.570326 0.94267,8.122889 -2.25922,15.857096 -2.15274,23.866954 0.60795,11.57735 1.69912,23.20246 1.10253,34.79681 -0.8614,8.39908 -4.50846,16.88783 -2.20011,25.3243 4.38628,6.84 4.41255,13.78097 5.74355,21.44161 4.89468,0.98794 10.02192,0.40571 15,0.5"
       id="path3081"
       inkscape:connector-curvature="0" />
    <path
       style="color:#000000;fill:none;stroke:#ff0000;stroke-width:4;stroke-linecap:round;stroke-linejoin:round;stroke-miterlimit:4;stroke-opacity:1;stroke-dasharray:none;stroke-dashoffset:0;marker:none;visibility:visible;display:inline;overflow:visible;enable-background:accumulate"
       d="m 129,493.5 c 12.69275,-3.89672 17.05518,-19.60728 15.98603,-31.14566 0.69598,-14.02208 -4.09508,-29.4899 -17.40293,-36.23062 -9.18323,-9.70972 -27.10421,-4.25896 -23.64355,9.65924"
       id="path5388"
       inkscape:connector-curvature="0" />
    <path
       style="color:#000000;fill:none;stroke:#ff0000;stroke-width:4;stroke-linecap:round;stroke-linejoin:round;stroke-miterlimit:4;stroke-opacity:1;stroke-dasharray:none;stroke-dashoffset:0;marker:none;visibility:visible;display:inline;overflow:visible;enable-background:accumulate"
       d="m 134.46718,349.31644 c -2.79533,-12.8213 -19.74583,-18.71994 -11.33414,-34.24118 5.13302,-11.2505 14.69581,-20.91555 14.3673,-34.06928 C 138.49501,266.13649 140.44138,250.64279 137,236"
       id="path5363"
       inkscape:connector-curvature="0" />
    <path
       style="color:#000000;fill:none;stroke:#00ffff;stroke-width:3.99999976;stroke-linecap:round;stroke-linejoin:round;stroke-miterlimit:4;stroke-opacity:1;stroke-dasharray:none;stroke-dashoffset:0;marker:none;visibility:visible;display:inline;overflow:visible;enable-background:accumulate"
       d="m 19.366714,161.58695 c 3.666787,36.41403 0.156224,29.21475 -3.122342,71.67011 -0.481728,6.23809 5.234997,1.52969 2.455311,49.42341 -1.120397,19.30436 1.752268,15.43348 2.836418,28.86945"
       id="path9152"
       inkscape:connector-curvature="0"
       sodipodi:nodetypes="cssc" />
    <path
       sodipodi:nodetypes="ccccc"
       inkscape:connector-curvature="0"
       id="path8329"
       d="m 153.18259,192.29009 c 15.95582,1.7502 32.61937,-1.0694 48.37442,1.8626 7.2723,-1.9352 14.52165,-1.7091 21.9296,-0.7772 12.37375,3.2959 20.44603,-0.518 29.85202,-1.988 10.57029,1.7023 13.73589,0.4145 20.61139,0.5841"
       style="color:#000000;fill:none;stroke:#ff0000;stroke-width:4;stroke-linecap:round;stroke-linejoin:round;stroke-miterlimit:4;stroke-opacity:1;stroke-dasharray:none;stroke-dashoffset:0;marker:none;visibility:visible;display:inline;overflow:visible;enable-background:accumulate" />
    <path
       style="color:#000000;fill:none;stroke:#0000ff;stroke-width:4;stroke-linecap:round;stroke-linejoin:round;stroke-miterlimit:4;stroke-opacity:1;stroke-dasharray:none;stroke-dashoffset:0;marker:none;visibility:visible;display:inline;overflow:visible;enable-background:accumulate"
       d="m 286,181 c 0,5.33333 -1.5149,10.88634 0,16 4,13.50229 -0.21814,22.78186 1,24 1.17088,1.17089 10.23962,4.24522 12,4 28.71562,-4 40.27082,0.72918 43,-2 -2.9618,-8.03824 -0.1298,-15.38944 -1,-18 -1.97944,-5.9383 2.77942,-15.44116 0,-21 -1.10126,-2.20251 -48.00804,-3 -55,-3 z"
       id="path9179"
       inkscape:connector-curvature="0"
       sodipodi:nodetypes="cssscssc" />
    <path
       sodipodi:nodetypes="ccccc"
       inkscape:connector-curvature="0"
       id="path8331"
       d="m 154.10601,204.42689 c 15.65203,1.9478 30.004,0.3034 43.76086,-1.8678 11.72859,0.1446 29.53547,3.5858 33.79688,0.624 3.63578,-1.8721 10.37868,2.2179 15.77348,1.8174 7.82366,-0.049 14.24405,-2.0635 23.4708,0.5577"
       style="color:#000000;fill:none;stroke:#008000;stroke-width:3.99999952;stroke-linecap:round;stroke-linejoin:miter;stroke-miterlimit:4;stroke-opacity:1;stroke-dasharray:none;stroke-dashoffset:0;marker:none;visibility:visible;display:inline;overflow:visible;enable-background:accumulate" />
    <g
       transform="matrix(2,0,0,2,-275,-101)"
       style="color:#000000;fill:none;stroke:#008000;stroke-width:2;stroke-linecap:round;stroke-linejoin:round;stroke-miterlimit:4;stroke-opacity:1;stroke-dasharray:none;stroke-dashoffset:0;marker:none;visibility:visible;display:inline;overflow:visible;enable-background:accumulate"
       id="g6785">
      <path
         style="color:#000000;fill:none;stroke:#008000;stroke-width:2;stroke-linecap:round;stroke-linejoin:round;stroke-miterlimit:4;stroke-opacity:1;stroke-dasharray:none;stroke-dashoffset:0;marker:none;visibility:visible;display:inline;overflow:visible;enable-background:accumulate"
         d="m 204,36 c -0.40643,1.445233 -2.20256,8.563983 -0.49961,14.503835 C 205.04166,55.87974 203.72527,60.72527 204,61 c 0.55758,0.557578 8.12538,0.05161 9,0 8.47343,-0.5 24.17072,0.829277 25.5,-0.5 0.96369,-0.963691 -0.5,-8.485639 0,-13.5 0.43916,-4.404213 -1,-3.883939 -1,-8.5 0,-0.205883 0.17124,-1.424435 0,-1.5 -3.37121,-1.487641 -9.96222,-1.20939 -16.47981,-1.362013 C 213.69682,35.466494 206.46614,35.013546 204,36 z"
         id="path5447"
         inkscape:connector-curvature="0"
         transform="translate(-28.5,104)"
         sodipodi:nodetypes="cssssssssc" />
      <path
         style="color:#000000;fill:none;stroke:#008000;stroke-width:2;stroke-linecap:round;stroke-linejoin:round;stroke-miterlimit:4;stroke-opacity:1;stroke-dasharray:none;stroke-dashoffset:0;marker:none;visibility:visible;display:inline;overflow:visible;enable-background:accumulate"
         d="m 174.36511,145.8629 c 6.22991,1.00204 5.68197,-12.9226 11.87657,-1.27212 3.183,5.98641 9.98956,-9.03167 13.83939,-1.162 1.64046,3.35337 4.47597,4.42694 9.0947,-2.14933"
         id="path3142"
         inkscape:connector-curvature="0"
         sodipodi:nodetypes="ssss" />
      <path
         style="color:#000000;fill:none;stroke:#008000;stroke-width:2;stroke-linecap:round;stroke-linejoin:round;stroke-miterlimit:4;stroke-opacity:1;stroke-dasharray:none;stroke-dashoffset:0;marker:none;visibility:visible;display:inline;overflow:visible;enable-background:accumulate"
         d="m 175.86511,146.51944 c 4.46206,6.40556 6.33096,2.6847 10.54011,-0.0864 3.809,-2.50767 4.9559,9.86473 11.47547,2.94308 6.35209,-6.74384 7.88746,1.11173 11.45873,1.34469"
         id="path3144"
         inkscape:connector-curvature="0"
         sodipodi:nodetypes="sssc" />
      <path
         style="color:#000000;fill:none;stroke:#008000;stroke-width:2;stroke-linecap:round;stroke-linejoin:round;stroke-miterlimit:4;stroke-opacity:1;stroke-dasharray:none;stroke-dashoffset:0;marker:none;visibility:visible;display:inline;overflow:visible;enable-background:accumulate"
         d="m 175.86511,153.96024 c 3.48443,-1.39482 5.18133,-5.10944 8.38508,-1.43093 4.24925,4.87892 4.709,2.6695 7.3889,0.65328 6.00788,-4.52003 5.34705,5.82156 12.76484,0.72921 l 4.71118,-3.23425"
         id="path3146"
         inkscape:connector-curvature="0"
         sodipodi:nodetypes="ssssc" />
      <path
         style="color:#000000;fill:none;stroke:#008000;stroke-width:2;stroke-linecap:round;stroke-linejoin:round;stroke-miterlimit:4;stroke-opacity:1;stroke-dasharray:none;stroke-dashoffset:0;marker:none;visibility:visible;display:inline;overflow:visible;enable-background:accumulate"
         d="m 175.36511,155.49217 c 3.63601,-0.22044 4.58272,3.84359 5.87281,3.60822 2.6839,-0.48966 4.18217,-3.5767 6.91292,-3.5767 2.15785,0 2.36925,3.92674 5.63553,4.05552 2.37338,0.0936 3.01629,-5.54724 7.7107,-3.83008 2.90777,1.06362 5.83639,2.29241 8.20903,3.67379"
         id="path3148"
         inkscape:connector-curvature="0"
         sodipodi:nodetypes="ssssss" />
      <path
         style="color:#000000;fill:none;stroke:#008000;stroke-width:2;stroke-linecap:round;stroke-linejoin:round;stroke-miterlimit:4;stroke-opacity:1;stroke-dasharray:none;stroke-dashoffset:0;marker:none;visibility:visible;display:inline;overflow:visible;enable-background:accumulate"
         d="m 175.99011,164.24528 c 8.77497,-8.39215 7.75135,-0.63625 11.17199,-0.63625 2.86446,0 3.16967,-2.05416 6.41748,-3.10889 5.26426,-1.70959 4.95573,3.27981 7.59137,3.84974 1.48646,0.32142 4.07019,-3.53508 8.43159,-5.10373"
         id="path3150"
         inkscape:connector-curvature="0"
         sodipodi:nodetypes="sssss" />
    </g>
    <path
       sodipodi:nodetypes="ccccc"
       inkscape:connector-curvature="0"
       id="path8333"
       d="m 273.94605,174.03579 c -17.96783,9.0792 -33.70932,5.5174 -51.57593,8.6219 -13.10657,4.2336 -23.27743,0.3555 -35.00117,0.1875 -12.17394,1.9522 -7.53341,-0.015 -17.16173,0.159 -4.43074,-1.794 -11.51209,-7.4249 -19.54697,-9.1507"
       style="color:#000000;fill:none;stroke:#008000;stroke-width:4;stroke-linecap:round;stroke-linejoin:miter;stroke-miterlimit:4;stroke-opacity:1;stroke-dasharray:none;stroke-dashoffset:0;marker:none;visibility:visible;display:inline;overflow:visible;enable-background:accumulate" />
    <path
       style="color:#000000;fill:none;stroke:#000000;stroke-width:3.99999976;stroke-linecap:round;stroke-linejoin:miter;stroke-miterlimit:4;stroke-opacity:1;stroke-dasharray:none;stroke-dashoffset:0;marker:none;visibility:visible;display:inline;overflow:visible;enable-background:accumulate"
       d="m 292.5,187.5 c -1.88446,6.95735 1.24114,12.33798 1.15897,17.83831 -0.0882,5.90585 1.21223,11.77398 6.16584,11.73585 3.07781,-0.0237 2.23205,3.92517 3.48217,-10.53129 1.25011,-14.45646 -0.0359,-18.79398 2.25964,-18.62579 2.60154,0.19061 6.871,-0.79 4.61783,14.88564 -1.59988,11.1306 -0.76653,14.18399 4.55199,13.46946 2.80613,-0.377 7.68732,-3.51834 4.20376,-17.72848 -2.6691,-10.88778 -0.0692,-10.66202 2.28725,-9.50289 5.4081,2.6602 4.18988,6.99098 4.69936,14.69778 0.4933,7.46198 -2.23645,10.2016 4.8125,11.95071 2.00228,0.49684 3.71957,-3.49138 3.50672,-12.14814 -0.21284,-8.65676 -2.74604,-11.8489 -2.74604,-14.54116"
       id="path3127"
       inkscape:connector-curvature="0"
       sodipodi:nodetypes="sssssssssssss" />
    <path
       sodipodi:nodetypes="ccccccccccc"
       inkscape:connector-curvature="0"
       id="path8327"
       d="m 160.33896,167.36529 c -3.58979,4.80536 -7.61291,1.65944 -10.06743,4.70628 -0.32809,5.29383 -0.13628,10.06644 1.48938,15.21235 1.4282,12.71291 1.18816,15.14715 0.7447,20.82084 l 0.77742,3.3704 c 10.4596,-0.54533 14.1751,1.91734 20.24995,1.63727 8.51363,-2.36096 14.94348,-2.32804 20.83312,-1.25412 30.56487,-0.74932 51.7342,2.38234 79.15204,-1.07937 1.61583,-7.50197 1.03457,-11.05217 0.7447,-15.47383 0,0 2.42024,-17.02669 0.93086,-23.02867 -1.70619,-2.8113 -4.33111,-4.20757 -9.26766,-7.0107"
       style="color:#000000;fill:none;stroke:#ff0000;stroke-width:3.99999976;stroke-linecap:round;stroke-linejoin:round;stroke-miterlimit:4;stroke-opacity:1;stroke-dasharray:none;stroke-dashoffset:0;marker:none;visibility:visible;display:inline;overflow:visible;enable-background:accumulate" />
    <path
       style="color:#000000;fill:none;stroke:#ffff00;stroke-width:4;stroke-linecap:round;stroke-linejoin:miter;stroke-miterlimit:4;stroke-opacity:1;stroke-dasharray:none;stroke-dashoffset:0;marker:none;visibility:visible;display:inline;overflow:visible;enable-background:accumulate"
       d="m 266.92933,160.773 c -0.83266,7.60965 -3.37734,10.31625 -17.114,8.48048 -15.11486,2.59534 -30.84648,0.98209 -46.34329,1.61406 -13.71136,3.21959 -23.42459,-1.30271 -32.0386,-3.53793 -3.03977,-0.78878 -5.06718,0.45819 -8.29751,0.006 -5.8206,-6.48204 -10.18616,-15.84982 -12.42701,-25.83315 -2.33473,-11.9002 -0.49664,-23.74368 1.19199,-35.39204 -0.56564,-12.244044 -3.63791,-12.306323 -0.65746,-22.10373 0.74141,-8.96035 1.21319,-29.548113 2.79058,-42.390495 0.9433,-7.679976 -4.93144,-12.120843 -2.08131,-14.869032 11.0559,-10.720929 31.99899,-6.298103 54.20073,-4.816335 11.03835,-3.10185 17.66558,2.241496 32.12902,3.048648 4.92863,0.275049 22.8368,-3.38488 28.21753,-0.479336 4.18758,10.982172 -2.18716,16.33162 1.5,22.5"
       id="path3054" />
    <path
       style="color:#000000;fill:none;stroke:#ffff00;stroke-width:4;stroke-linecap:round;stroke-linejoin:miter;stroke-miterlimit:4;stroke-opacity:1;stroke-dasharray:none;stroke-dashoffset:0;marker:none;visibility:visible;display:inline;overflow:visible;enable-background:accumulate"
       d="m 296.67073,156.278 c -9.36964,2.43011 -14.47149,6.46587 -25.19261,3.83719 -16.70878,-4.09678 -30.32865,2.05425 -33.54879,2.15781"
       id="path3115"
       inkscape:connector-curvature="0"
       sodipodi:nodetypes="csc" />
    <path
       style="color:#000000;fill:none;stroke:#ffff00;stroke-width:4;stroke-linecap:round;stroke-linejoin:miter;stroke-miterlimit:4;stroke-opacity:1;stroke-dasharray:none;stroke-dashoffset:0;marker:none;visibility:visible;display:inline;overflow:visible;enable-background:accumulate"
       d="m 233,49 c 21.36258,0 23.80386,-4.459214 45.5,-1.5 5.66667,-0.223201 10.66667,-4.451613 15,-1"
       id="path3092"
       inkscape:connector-curvature="0"
       sodipodi:nodetypes="ccc" />
    <path
       inkscape:connector-curvature="0"
       style="fill:none;stroke:#80ff00;stroke-width:3.99999976;stroke-linecap:round;stroke-linejoin:round;stroke-miterlimit:4;stroke-opacity:1;stroke-dasharray:none"
       d="m 165.84085,223.88966 c 5.17639,3.53534 4.0338,8.12067 12.41398,10.43041 4.37433,7.45809 5.85096,14.07854 10.41767,18.14868 4.21682,3.75828 11.47607,5.13031 15.51028,7.18992 12.91116,0.52762 11.3699,11.31305 25.11375,13.86788 5.33229,3.62247 9.56213,1.95334 17.93559,2.81843"
       id="path2952-1"
       sodipodi:nodetypes="ccsccc" />
    <path
       inkscape:connector-curvature="0"
       style="fill:none;stroke:#80ff00;stroke-width:3.99999976;stroke-linecap:round;stroke-linejoin:round;stroke-miterlimit:4;stroke-opacity:1;stroke-dasharray:none"
       d="m 250.60885,310.87082 c -0.3047,-4.2786 -3.2264,-8.1569 -5.5195,-12.1473 -2.2045,-5.0537 -4.0553,-6.769 -4.0189,-13.155 -1.2781,-3.2837 -3.0166,-14.1849 -5.3845,-7.7678 -3.6944,4.2416 -4.1561,6.1497 -5.9599,11.0481 -2.3762,4.9445 -5.4767,8.3733 -6.5949,13.1486 -3.3331,2.9487 -3.817,6.8032 -3.4085,8.2486"
       id="path2956"
       sodipodi:nodetypes="ccccccc" />
    <path
       style="fill:#ffffff;stroke:#80ff00;stroke-width:3.99999976;stroke-linecap:round;stroke-linejoin:round;stroke-miterlimit:4;stroke-opacity:1;stroke-dasharray:none"
       d="m 169.19409,210.98732 c -2.59341,-0.01 -4.90525,-2.193 -9.70752,-3.4067 -3.977,-1.6317 -2.27132,0.5087 -5.52022,-0.4317 -4.60056,-2.4503 -7.79197,-2.8525 -12.69001,-2.7389 -1.26379,-0.01 -4.38607,-1.4593 -4.38269,0.3156 0.70663,1.795 1.91425,3.3525 2.73638,5.0991 2.08451,3.7572 5.12277,8.1029 8.96097,10.5189 2.25684,2.8943 3.3601,5.6029 5.64117,8.4764 1.5772,1.1794 1.47257,4.7482 3.77173,4.5325 1.93977,-1.3159 2.20447,-3.8308 3.74825,-5.4831 3.41218,-3.2595 0.0559,-1.7903 2.90451,-4.6394 1.75705,-2.6112 3.98929,-5.5617 5.75418,-8.1629 0.68816,-1.0042 2.01459,-4.4035 2.12691,-3.051 0.1123,1.3525 -1.88239,-2.6219 -3.3437,-1.0288 z"
       id="path2942-1"
       inkscape:connector-curvature="0"
       sodipodi:nodetypes="ccccccccccccccc" />
    <path
       inkscape:connector-curvature="0"
       style="color:#000000;fill:none;stroke:#80ff00;stroke-width:3.99999976;stroke-linecap:round;stroke-linejoin:round;stroke-miterlimit:4;stroke-opacity:1;stroke-dasharray:none;stroke-dashoffset:0;marker:none;visibility:visible;display:inline;overflow:visible;enable-background:accumulate"
       d="m 137.63441,219.94379 c 1.72237,0.73701 2.03954,5.16556 6.7777,9.43969 5.23816,9.77412 1.35824,10.2425 7.24436,14.40634 14.3488,4.85129 14.86792,-10.64717 22.62251,-8.64219 -0.50677,6.00478 -6.64326,10.57597 -9.59964,15.8291 -13.36287,6.75227 -10.63576,10.54331 -18.4522,0.91037 -2.99348,-3.11542 -5.33878,-5.77145 -5.51505,-13.19452"
       id="path3681"
       sodipodi:nodetypes="ccccccs" />
    <path
       inkscape:connector-curvature="0"
       style="color:#000000;fill:none;stroke:#80ff00;stroke-width:4;stroke-linecap:round;stroke-linejoin:round;stroke-miterlimit:4;stroke-opacity:1;stroke-dasharray:none;stroke-dashoffset:0;marker:none;visibility:visible;display:inline;overflow:visible;enable-background:accumulate"
       d="m 246.98132,275.76413 c 11.06491,0.58178 9.07925,11.99568 19.7556,18.10898 13.6924,7.84029 17.29711,9.55904 31.66148,10.16883 20.68888,0.87828 20.09735,0.0431 31.64337,2.6943 11.6574,2.67681 11.66554,1.60872 18.18205,-0.19238 10.94782,-3.02587 27.18955,-10.54568 35.77085,-6.78824 7.17442,3.14142 10.85943,-0.95622 17.39783,1.25096"
       id="path4125-1"
       sodipodi:nodetypes="cssssss" />
    <path
       style="color:#000000;fill:none;stroke:#ffff00;stroke-width:4;stroke-linecap:round;stroke-linejoin:miter;stroke-miterlimit:4;stroke-opacity:1;stroke-dasharray:none;stroke-dashoffset:0;marker:none;visibility:visible;display:inline;overflow:visible;enable-background:accumulate"
       d="m 40.798049,34.752366 c -0.123225,3.245253 -0.62024,6.545607 -0.04543,9.768071 1.675295,0.92975 21.852289,-0.822864 25.619541,0.826934 4.3192,0.845307 7.05396,-1.980493 10.704406,-1.847371 11.640142,-2.92e-4 17.788616,1.500394 29.423434,1.5 1.64621,-4.08506 -0.008,-11.152256 -0.17191,-20.260474 -4.08796,0.04908 -14.668635,0.902174 -18.761767,0.73899 -13.009302,-0.06039 -34.019632,-0.565996 -43.94881,0.249592 -3.429179,0.815588 -2.683753,4.953475 -2.819464,9.024258 z"
       id="path3073"
       inkscape:connector-curvature="0"
       sodipodi:nodetypes="ccccccccc" />
    <path
       style="color:#000000;fill:none;stroke:#ffff00;stroke-width:4;stroke-linecap:round;stroke-linejoin:miter;stroke-miterlimit:4;stroke-opacity:1;stroke-dasharray:none;stroke-dashoffset:0;marker:none;visibility:visible;display:inline;overflow:visible;enable-background:accumulate"
       d="m 370.5,22.5 c 0.58792,5.563822 -0.95726,10.542738 1,18.5 0.53273,2.165803 23.93845,1.010308 38,2 9.68527,0.681677 15.16264,-1.707576 20.5,0 4.42082,1.414347 2.88973,-9.330805 2.5,-10.5 -0.73129,-2.193869 0.38528,-9.584329 -2,-9.5 -7.72683,0.273173 -23.11947,-1 -31,-1 -7.52464,0 -22.25673,1.848654 -29,0.5 z"
       id="path3075"
       inkscape:connector-curvature="0"
       sodipodi:nodetypes="cssssssc" />
    <path
       style="fill:none;stroke:#ffff00;stroke-width:4;stroke-linecap:round;stroke-linejoin:miter;stroke-opacity:1;color:#000000;stroke-miterlimit:4;stroke-dasharray:none;stroke-dashoffset:0;marker:none;visibility:visible;display:inline;overflow:visible;enable-background:accumulate"
       d="M 36.5,52 C 33.87933,61.259095 27.638904,67.861096 21,74.5"
       id="path3110"
       inkscape:connector-curvature="0" />
    <path
       style="color:#000000;fill:none;stroke:#ffff00;stroke-width:4;stroke-linecap:round;stroke-linejoin:miter;stroke-miterlimit:4;stroke-opacity:1;stroke-dasharray:none;stroke-dashoffset:0;marker:none;visibility:visible;display:inline;overflow:visible;enable-background:accumulate"
       d="M 55.5,53.5 C 54.072392,60.496526 52.380467,67.291555 50.3,74.189655 49.838962,75.718296 49,76.881349 49,78.5"
       id="path3112"
       inkscape:connector-curvature="0" />
    <path
       style="fill:none;stroke:#ffff00;stroke-width:4;stroke-linecap:round;stroke-linejoin:miter;stroke-opacity:1;color:#000000;stroke-miterlimit:4;stroke-dasharray:none;stroke-dashoffset:0;marker:none;visibility:visible;display:inline;overflow:visible;enable-background:accumulate"
       d="M 74.5,52 C 77.929183,60.438773 77,69.585136 77,78.5"
       id="path3114"
       inkscape:connector-curvature="0" />
    <path
       style="fill:none;stroke:#ffff00;stroke-width:4;stroke-linecap:round;stroke-linejoin:miter;stroke-opacity:1;color:#000000;stroke-miterlimit:4;stroke-dasharray:none;stroke-dashoffset:0;marker:none;visibility:visible;display:inline;overflow:visible;enable-background:accumulate"
       d="m 93,52 c 0.71612,5.793476 1.52138,18.010692 7.5,21"
       id="path3120"
       inkscape:connector-curvature="0" />
    <path
       style="fill:none;stroke:#ffff00;stroke-width:4;stroke-linecap:round;stroke-linejoin:miter;stroke-opacity:1;color:#000000;stroke-miterlimit:4;stroke-dasharray:none;stroke-dashoffset:0;marker:none;visibility:visible;display:inline;overflow:visible;enable-background:accumulate"
       d="m 110,53 c 5.55747,5.052042 9.17583,15.337916 15.5,18.5"
       id="path3122"
       inkscape:connector-curvature="0" />
    <path
       style="fill:none;stroke:#ffff00;stroke-width:4;stroke-linecap:round;stroke-linejoin:miter;stroke-opacity:1;color:#000000;stroke-miterlimit:4;stroke-dasharray:none;stroke-dashoffset:0;marker:none;visibility:visible;display:inline;overflow:visible;enable-background:accumulate"
       d="m 369.99999,47.5 c -1.34379,1.789038 -14.8806,26.295983 -11.05775,23.436335"
       id="path3124"
       inkscape:connector-curvature="0" />
    <path
       style="fill:none;stroke:#ffff00;stroke-width:4;stroke-linecap:round;stroke-linejoin:miter;stroke-opacity:1;color:#000000;stroke-miterlimit:4;stroke-dasharray:none;stroke-dashoffset:0;marker:none;visibility:visible;display:inline;overflow:visible;enable-background:accumulate"
       d="M 385.50878,49.499999 C 385.80727,57.028597 384.8715,65.275313 382.5,71.499998"
       id="path3126"
       inkscape:connector-curvature="0" />
    <path
       style="fill:none;stroke:#ffff00;stroke-width:4;stroke-linecap:round;stroke-linejoin:miter;stroke-opacity:1;color:#000000;stroke-miterlimit:4;stroke-dasharray:none;stroke-dashoffset:0;marker:none;visibility:visible;display:inline;overflow:visible;enable-background:accumulate"
       d="m 404.40171,50.268107 c 0.84594,6.206156 0.75456,12.7518 -0.30342,21.963787"
       id="path3128"
       inkscape:connector-curvature="0"
       sodipodi:nodetypes="cc" />
    <path
       style="fill:none;stroke:#ffff00;stroke-width:4;stroke-linecap:round;stroke-linejoin:miter;stroke-opacity:1;color:#000000;stroke-miterlimit:4;stroke-dasharray:none;stroke-dashoffset:0;marker:none;visibility:visible;display:inline;overflow:visible;enable-background:accumulate"
       d="m 419.3583,50.109605 c 3.52724,4.428064 8.60231,18.248444 7.01694,23.183838"
       id="path3130"
       inkscape:connector-curvature="0" />
    <path
       style="fill:none;stroke:#ffff00;stroke-width:4;stroke-linecap:round;stroke-linejoin:miter;stroke-opacity:1;color:#000000;stroke-miterlimit:4;stroke-dasharray:none;stroke-dashoffset:0;marker:none;visibility:visible;display:inline;overflow:visible;enable-background:accumulate"
       d="M 451,70 C 450.41062,65.437225 440.70585,49.887237 437,48"
       id="path3132"
       inkscape:connector-curvature="0" />
  </g>
</svg>
