<?xml version="1.0" encoding="UTF-8" standalone="no"?>
<!-- Created with Inkscape (http://www.inkscape.org/) -->

<svg
   xmlns:dc="http://purl.org/dc/elements/1.1/"
   xmlns:cc="http://creativecommons.org/ns#"
   xmlns:rdf="http://www.w3.org/1999/02/22-rdf-syntax-ns#"
   xmlns:svg="http://www.w3.org/2000/svg"
   xmlns="http://www.w3.org/2000/svg"
   xmlns:sodipodi="http://sodipodi.sourceforge.net/DTD/sodipodi-0.dtd"
   xmlns:inkscape="http://www.inkscape.org/namespaces/inkscape"
   width="480"
   height="320"
   id="svg2"
   version="1.1"
   inkscape:version="0.48.0 r9654"
   sodipodi:docname="itnas304.svg"
   inkscape:export-xdpi="90"
   inkscape:export-ydpi="90"
   inkscape:export-filename="itnas304.png">
  <defs
     id="defs4">
    <inkscape:perspective
       sodipodi:type="inkscape:persp3d"
       inkscape:vp_x="0 : 160 : 1"
       inkscape:vp_y="0 : 1000 : 0"
       inkscape:vp_z="480 : 160 : 1"
       inkscape:persp3d-origin="240 : 106.66667 : 1"
       id="perspective8" />
  </defs>
  <sodipodi:namedview
     id="base"
     pagecolor="#ffffff"
     bordercolor="#666666"
     borderopacity="1.0"
     inkscape:pageopacity="1"
     inkscape:pageshadow="2"
     inkscape:zoom="4"
     inkscape:cx="125.11056"
     inkscape:cy="151.98523"
     inkscape:document-units="px"
     inkscape:current-layer="layer1"
     showgrid="false"
     inkscape:snap-nodes="true"
     inkscape:snap-global="false"
     inkscape:snap-grids="true"
     showguides="true"
     inkscape:window-width="1280"
     inkscape:window-height="998"
     inkscape:window-x="1276"
     inkscape:window-y="-4"
     inkscape:window-maximized="1">
    <inkscape:grid
       empspacing="5"
       visible="true"
       enabled="true"
       snapvisiblegridlinesonly="true"
       type="xygrid"
       id="grid2816" />
  </sodipodi:namedview>
  <metadata
     id="metadata7">
    <rdf:RDF>
      <cc:Work
         rdf:about="">
        <dc:format>image/svg+xml</dc:format>
        <dc:type
           rdf:resource="http://purl.org/dc/dcmitype/StillImage" />
        <dc:title></dc:title>
      </cc:Work>
    </rdf:RDF>
  </metadata>
  <g
     inkscape:label="Layer 1"
     inkscape:groupmode="layer"
     id="layer1"
     transform="translate(0,0)">
    <path
       style="color:#000000;fill:none;stroke:#c87137;stroke-width:4;stroke-linecap:round;stroke-linejoin:round;stroke-miterlimit:4;stroke-opacity:1;stroke-dasharray:none;stroke-dashoffset:0;marker:none;visibility:visible;display:inline;overflow:visible;enable-background:accumulate"
       d="m 274.5,212.5 c -6.69501,-4.50348 -14.71548,-3.16983 -19.74373,1.17537 -6.54159,5.65296 -16.47365,15.10333 -14.4905,24.79561 1.60665,7.85218 28.42331,11.87479 32.97026,1.06523 4.22183,-10.03665 -8.20988,-18.61342 -17.22459,-25.77277 -8.29945,-6.59131 -19.58953,-4.66284 -29.75976,-5.19421 -11.82373,-0.61776 -8.12335,23.78446 -20.0119,33.41092 -3.85122,3.11843 -14.14823,5.09894 -9.33305,-6.39192 7.48978,-17.87348 -21.23294,-18.32555 -0.70866,-25.89505 8.79352,-3.24311 7.59446,16.4478 16.65134,18.35126 13.44923,2.82659 30.99079,-13.03162 40.3361,-2.35385 7.01623,8.01661 4.55786,17.96275 -4.80494,19.01059 -11.10225,1.24251 -35.11281,0.0986 -26.63057,-5.95118 6.21012,-4.42923 14.1372,-4.44622 4.29857,-19.72047 -7.62667,-11.84024 -16.77469,-7.25425 -29.29123,6.46284 -11.48963,12.59168 -14.9503,10.52534 -32.93052,7.37636 -6.52072,-1.14201 -11.48153,16.25081 -19.993,10.90639 -5.94233,-3.73124 -17.56241,-9.06702 -14.83483,-16.09533 2.54954,-6.56955 18.8561,-13.07781 31.20479,-7.40236 6.57067,3.01988 24.85359,5.94613 21.47633,-0.52454 -5.02679,-9.63109 -16.88164,-3.81013 -15.87013,6.17563 0.9783,9.65798 12.93453,9.43209 11.95081,18.10745 -0.7301,6.43872 -13.91241,-4.35285 -20.49339,-6.50031 -13.03152,-4.25235 -18.85815,-23.43491 -33.91594,-18.48743 -8.60408,2.82701 -22.39589,-3.98351 -28.10146,5.95177 -7.563533,19.84046 4.93209,21.1842 23.14329,20.08454 7.03398,-0.51519 3.12574,-5.94198 0.10593,-10.55464 -3.60533,-5.50704 -6.74101,-8.99996 -13.67702,-3.14716 -6.310724,5.32517 -11.487718,-6.15138 -19.245797,-2.33392 C 71.67003,235.89163 76.595642,235.15933 76,230.5 c -1.394942,-10.91175 3.848274,-1.97317 6.240234,-10.05011 0.953049,-3.21816 -6.019826,-5.38137 -8.467124,-5.15777 -17.757909,1.6225 -10.077463,7.3609 -9.350558,15.33427 0.444799,4.87897 -11.002342,18.98566 23.924449,11.62655"
       id="path3857"
       inkscape:connector-curvature="0"
       sodipodi:nodetypes="ssssssssssssssssssssssssccsssssssc" />
    <path
       style="color:#000000;fill:none;stroke:#808080;stroke-width:4;stroke-linecap:round;stroke-linejoin:miter;stroke-miterlimit:4;stroke-opacity:1;stroke-dasharray:none;stroke-dashoffset:0;marker:none;visibility:visible;display:inline;overflow:visible;enable-background:accumulate"
       d="m 174.91169,283.24621 c -11.18199,-1.5576 -14.27676,0.40071 -23.09137,3.75036 -6.3468,2.41186 -6.11565,7.60671 -4.90863,17.74964 1.87495,12.769 3.21992,27.35782 5.5,38.5 0.91861,4.489 -4.21274,9.35622 -3.09405,21.30957"
       id="path4671-7"
       inkscape:connector-curvature="0"
       sodipodi:nodetypes="cscsc" />
    <path
       id="path3174"
       style="color:#000000;fill:none;stroke:#808080;stroke-width:4;stroke-linecap:butt;stroke-linejoin:miter;stroke-miterlimit:4;stroke-opacity:1;stroke-dasharray:none;stroke-dashoffset:0;marker:none;visibility:visible;display:inline;overflow:visible;enable-background:accumulate"
       d="m 85.76835,363.47387 c -0.16751,-13.53688 1.461,-12.40766 1.5073,-26.93476 0.04897,-15.36047 4.46369,-8.13086 4.20711,-18.2929 -0.14628,-5.79351 -2.83172,-8.9391 -14.14709,-18.93756 -15.42301,-13.62803 -22.87694,-0.79763 -20.92398,-10.56244 5.15345,-25.76727 -4.40247,-52.75076 -3.5,-78.5 l -1.73042,-8.73356 C 44.12764,150.45561 51.17227,166.1979 37.81031,125.01796 28.01044,94.815213 39.40003,77.74277 24.86406,57.005334 17.58869,45.205264 22.50537,38.291275 34.06941,34.302261 49.76146,28.88929 79.779,23.155125 106.01184,25.321 c 27.49504,2.270087 14.43055,5.958559 37.97903,3.565355 C 162.2089,27.034879 157,-6.7872909 156,-21.75"
       inkscape:connector-curvature="0"
       sodipodi:nodetypes="cssssccscsssc" />
    <path
       style="color:#000000;fill:none;stroke:#808080;stroke-width:4;stroke-linecap:butt;stroke-linejoin:miter;stroke-miterlimit:4;stroke-opacity:1;stroke-dasharray:none;stroke-dashoffset:0;marker:none;visibility:visible;display:inline;overflow:visible;enable-background:accumulate"
       d="m 494,235 -32,0 c -50.24879,-3.613 -57.92844,0.33561 -65.79257,-15.88925 C 378.0298,181.6076 389.68832,202.97408 380,154 372.711,117.15438 380,101.74043 353,56 341.46175,29.126256 324.7636,35.602653 308.0388,38.610649 256.55055,47.870936 280.29303,37.804542 237.75337,45.445198 226.50686,43.291173 218.44165,34.152361 217.64943,26.558162 216.41382,14.713553 223.14024,-0.67148643 223,-10"
       id="path3161"
       inkscape:connector-curvature="0"
       sodipodi:nodetypes="ccsscscsc" />
    <path
       style="color:#000000;fill:none;stroke:#808080;stroke-width:4;stroke-linecap:butt;stroke-linejoin:miter;stroke-miterlimit:4;stroke-opacity:1;stroke-dasharray:none;stroke-dashoffset:0;marker:none;visibility:visible;display:inline;overflow:visible;enable-background:accumulate"
       d="M 280.11985,201.90555 C 281.34964,198.20348 283.20239,195.3988 286,194 c 14.93581,-7.4679 21.44019,26.35159 20,35 -0.54613,3.27952 -5.3628,25.17241 0.48181,37.79192 C 316.85693,289.19358 309.13723,283.66866 326,291 c 48.7495,21.19457 88.51255,-2.61603 135,9 14.08382,2.12503 28.51132,3.19552 42.99342,3.27056"
       id="path3001"
       inkscape:connector-curvature="0"
       sodipodi:nodetypes="csssscc" />
    <path
       style="fill:none;stroke:#000000;stroke-width:1;stroke-linecap:butt;stroke-linejoin:miter;stroke-opacity:1;display:inline;stroke-miterlimit:4;stroke-dasharray:none"
       d="m 483.30019,235.12653 0,65.49381"
       id="path3099"
       inkscape:connector-curvature="0" />
    <path
       style="color:#000000;fill:none;stroke:#0000ff;stroke-width:4;stroke-linecap:round;stroke-linejoin:round;stroke-miterlimit:4;stroke-opacity:1;stroke-dasharray:none;stroke-dashoffset:0;marker:none;visibility:visible;display:inline;overflow:visible;enable-background:accumulate"
       d="m 161.17574,-30.357485 c -2.13617,-1.161223 0.25094,12.220958 0.27696,32.611634 0.014,11.010126 -1.41504,15.495958 -3.54828,20.429764 -3.71103,8.582964 1.54494,8.850002 6.66994,14.713645 16.63902,-15.582835 5.34343,-13.750316 4.84069,-23.269492 -0.99261,-18.7945002 -3.22673,-41.76071 -8.23931,-44.485551 z"
       id="path4063"
       inkscape:connector-curvature="0"
       sodipodi:nodetypes="ssscss" />
    <path
       style="color:#000000;fill:none;stroke:#808080;stroke-width:4;stroke-linecap:butt;stroke-linejoin:miter;stroke-miterlimit:4;stroke-opacity:1;stroke-dasharray:none;stroke-dashoffset:0;marker:none;visibility:visible;display:inline;overflow:visible;enable-background:accumulate"
       d="m 184.23604,19.391949 0,0 c 4.89777,-0.424318 4.27903,9.315048 1.66441,9.972047 -3.78754,0.951726 -10.18948,-3.716252 -1.66441,-9.972047 z"
       id="path3972"
       inkscape:connector-curvature="0"
       sodipodi:nodetypes="ccsc" />
    <path
       style="color:#000000;fill:none;stroke:#808080;stroke-width:4;stroke-linecap:butt;stroke-linejoin:miter;stroke-miterlimit:4;stroke-opacity:1;stroke-dasharray:none;stroke-dashoffset:0;marker:none;visibility:visible;display:inline;overflow:visible;enable-background:accumulate"
       d="m 203.45326,21.276624 c 6.81233,1.672127 8.46413,8.271664 -1.83583,9.053789 -8.12794,0.617193 -4.80785,-10.684519 1.83583,-9.053789 z"
       id="path3974"
       inkscape:connector-curvature="0"
       sodipodi:nodetypes="sss" />
    <path
       style="color:#000000;fill:none;stroke:#808080;stroke-width:4;stroke-linecap:butt;stroke-linejoin:miter;stroke-miterlimit:4;stroke-opacity:1;stroke-dasharray:none;stroke-dashoffset:0;marker:none;visibility:visible;display:inline;overflow:visible;enable-background:accumulate"
       d="m 163.76735,20.864338 c 17.68075,4.40964 -12.4194,16.487924 0,0 z"
       id="path3976"
       inkscape:connector-curvature="0" />
    <path
       id="path3019"
       style="color:#000000;fill:none;stroke:#c87137;stroke-width:4;stroke-linecap:round;stroke-linejoin:round;stroke-miterlimit:4;stroke-opacity:1;stroke-dasharray:none;stroke-dashoffset:0;marker:none;visibility:visible;display:inline;overflow:visible;enable-background:accumulate"
       d="m 307.5,256.5 c 4.65825,0.56983 12.18096,1.92699 20.5,10 10.80234,10.48286 -0.47425,19.20376 20.5,26 m 0,0 c 11.94819,3.87155 37.72879,2.83569 63.5,0.5 10.5446,-0.95567 22.09092,-0.52341 34.04615,0.40704 m 0,0 C 464.44927,294.83932 483.82131,297.4521 502,298" />
    <path
       style="color:#000000;fill:none;stroke:#0000ff;stroke-width:4;stroke-linecap:round;stroke-linejoin:round;stroke-miterlimit:4;stroke-opacity:1;stroke-dasharray:none;stroke-dashoffset:0;marker:none;visibility:visible;display:inline;overflow:visible;enable-background:accumulate"
       d="m 163.78476,51.84554 c 14.86614,30.59316 -13.40372,29.94079 0,0 z"
       id="path4073"
       inkscape:connector-curvature="0"
       sodipodi:nodetypes="cc" />
    <path
       sodipodi:nodetypes="cc"
       inkscape:connector-curvature="0"
       id="path4092"
       d="m 163.79551,135.36657 c 13.63472,31.1615 -14.58666,29.38267 0,0 z"
       style="color:#000000;fill:none;stroke:#0000ff;stroke-width:4;stroke-linecap:round;stroke-linejoin:round;stroke-miterlimit:4;stroke-opacity:1;stroke-dasharray:none;stroke-dashoffset:0;marker:none;visibility:visible;display:inline;overflow:visible;enable-background:accumulate" />
    <path
       style="color:#000000;fill:none;stroke:#0000ff;stroke-width:4;stroke-linecap:round;stroke-linejoin:round;stroke-miterlimit:4;stroke-opacity:1;stroke-dasharray:none;stroke-dashoffset:0;marker:none;visibility:visible;display:inline;overflow:visible;enable-background:accumulate"
       d="m 163.44238,90.64773 c 14.86214,30.59512 -13.40763,29.93904 0,0 z"
       id="path4094"
       inkscape:connector-curvature="0"
       sodipodi:nodetypes="cc" />
    <path
       style="color:#000000;fill:none;stroke:#c87137;stroke-width:4;stroke-linecap:round;stroke-linejoin:round;stroke-miterlimit:4;stroke-opacity:1;stroke-dasharray:none;stroke-dashoffset:0;marker:none;visibility:visible;display:inline;overflow:visible;enable-background:accumulate"
       d="m 308.25,262 c 7.34103,0.0272 17.94464,8.75679 19.70815,16.66388 C 330.2532,288.95425 329,287.69262 325.25,287.75"
       id="path4097"
       inkscape:connector-curvature="0"
       sodipodi:nodetypes="csc" />
    <path
       id="path2942"
       style="fill:none;stroke:#80ff00;stroke-width:3.99999976;stroke-linecap:round;stroke-linejoin:round;stroke-miterlimit:4;stroke-opacity:1;stroke-dasharray:none"
       d="m 158.96338,178.93146 c 1.19182,4.80847 -0.0431,2.36033 3.34704,6.71914 0.58826,1.55015 0.39715,2.22222 2.83529,2.37778 1.67168,0.4685 2.23578,-0.39031 3.91552,0.0882 2.05757,0.0471 3.92548,0.61692 6.19648,0.0115 2.08323,0.26468 4.4538,0.0834 6.37193,0.70446 1.91675,-0.10759 3.80973,0.23106 5.61171,0.39324 0.43045,0.0989 1.21213,0.42759 1.57334,-0.086 l 3.3e-4,2e-5 0,0 c -1.80029,-0.45121 1.40809,-2.42077 -0.74574,-2.86466 -1.72983,-2.27163 -1.23818,-5.32205 -3.03832,-7.57168 -0.81085,-1.72282 -0.57477,-3.73832 -1.44031,-5.44527 -0.837,-1.81892 -0.93644,-3.78981 -1.1067,-5.74949 -0.23624,-1.69194 -0.92512,-3.25602 -1.31736,-4.90061 -1.15795,-1.0425 -1.20609,-2.29364 -2.27759,-3.4082 -1.28577,-1.34963 -0.89704,-3.44333 -2.58702,-4.61036 -0.83975,0.27716 -1.306,2.11186 -1.99937,3.00264 -0.66562,5.28438 -1.14255,7.6931 -1.37966,10.01843 -2.21775,4.37052 -3.2052,13.22356 -5.89749,14.24644 -3.65688,-3.24532 -3.7735,-5.20927 -6.34635,-11.79722 -1.91345,-1.31386 -2.68816,-5.40813 -5.56096,-6.58717 -0.88347,3.84782 -1.71067,4.15209 0.87993,8.2923 2.59061,4.14021 0.99814,2.89675 2.9653,7.16659 z"
       inkscape:connector-curvature="0"
       sodipodi:nodetypes="cccccccccccccccccccccccc" />
    <path
       inkscape:connector-curvature="0"
       style="color:#000000;fill:none;stroke:#80ff00;stroke-width:3.99999976;stroke-linecap:round;stroke-linejoin:round;stroke-miterlimit:4;stroke-opacity:1;stroke-dasharray:none;stroke-dashoffset:0;marker:none;visibility:visible;display:inline;overflow:visible;enable-background:accumulate"
       d="m 137.20844,245.19154 c -7.20726,44.07203 1.20624,24.02098 -4.36485,42.39536 -2.89363,9.54343 -6.947,15.02035 -19.30237,17.27289 -14.291951,2.6056 -23.790146,-3.88399 -15.774083,-20.97183 1.350875,-2.87966 -0.771883,-12.10997 -7.17313,-22.93169 -6.82781,-11.54285 -2.442115,-29.86408 -4.13244,-43.08175"
       id="path4125-8"
       sodipodi:nodetypes="csssss" />
    <path
       style="color:#000000;fill:none;stroke:#0000ff;stroke-width:4;stroke-linecap:round;stroke-linejoin:round;stroke-miterlimit:4;stroke-opacity:1;stroke-dasharray:none;stroke-dashoffset:0;marker:none;visibility:visible;display:inline;overflow:visible;enable-background:accumulate"
       d="m 51.5,204 c 26.479605,0.95815 34.778854,6.81007 37.825379,9.8566 1.63373,1.63373 15.691311,-0.1757 18.656851,-1.16421 6.27405,-2.09135 24.59792,-3.65797 30.4467,-1 3.07137,1.39578 13.56424,-1.94542 15.28553,-0.56066 3.61674,2.90963 16.32277,-2.01887 18.26041,-3.13909 10.54058,-6.09388 7.89145,-6.61219 26.27513,-4.99264 11.39254,1.00365 28.23596,-3.00281 42,-0.25 12.30154,2.46031 27.08459,-1 39.75,-1"
       id="path3061"
       inkscape:connector-curvature="0"
       sodipodi:nodetypes="csssssssc" />
    <path
       inkscape:connector-curvature="0"
       style="color:#000000;fill:none;stroke:#80ff00;stroke-width:4;stroke-linecap:round;stroke-linejoin:round;stroke-miterlimit:4;stroke-opacity:1;stroke-dasharray:none;stroke-dashoffset:0;marker:none;visibility:visible;display:inline;overflow:visible;enable-background:accumulate"
       d="m 175.26517,190.49288 c 0.1509,3.90044 0.44291,7.93139 -2.60552,10.81978 -2.75517,2.61054 -7.24976,3.76719 -11.12028,3.93639 -4.26315,0.18643 -10.79926,0.0893 -15.52929,0.43281 -5.90824,0.4291 -12.38269,-2.37347 -18.36375,-1.78648 -7.29283,0.71562 -14.47652,0.55338 -21.6991,2.23549 -3.63192,0.84585 -9.305168,0.63253 -12.161242,3.08846 -2.540007,2.18413 -5.068661,3.18225 -7.111017,7.71009"
       id="path2833"
       sodipodi:nodetypes="csssssss" />
    <path
       style="color:#000000;fill:none;stroke:#ff0000;stroke-width:4;stroke-linecap:round;stroke-linejoin:round;stroke-miterlimit:4;stroke-opacity:1;stroke-dasharray:none;stroke-dashoffset:0;marker:none;visibility:visible;display:inline;overflow:visible;enable-background:accumulate"
       d="m 138.91421,183.02817 c 2.39966,16.4266 1.8226,11.13461 4.25,16.5 6.63436,14.66421 5.86786,8.55388 7.16637,15.29267 1.52293,7.90339 -4.12275,5.7252 -8.91637,4.20733 -6.86152,-2.17266 -10.04575,-2.64174 -10,-7 0.0814,-7.75 -1.61377,-0.93675 -0.25,-11 0.62356,-4.60126 -1.72717,-6.25 -6,-6.75"
       id="path3059"
       inkscape:connector-curvature="0"
       sodipodi:nodetypes="csssssc" />
    <path
       style="color:#000000;fill:none;stroke:#00ffff;stroke-width:4;stroke-linecap:butt;stroke-linejoin:miter;stroke-miterlimit:4;stroke-opacity:1;stroke-dasharray:none;stroke-dashoffset:0;marker:none;visibility:visible;display:inline;overflow:visible;enable-background:accumulate"
       d="m 71.559525,194.36026 c -0.165859,3.70644 12.149291,2.51975 27.889819,3.26075 10.260966,1.7205 10.479986,1.59201 24.051706,2.07609 1.39763,0.0499 0.56806,-16.69307 2.25545,-25.58954 1.13616,-5.99029 0.74399,-4.75832 -2.46928,-6.60913 -1.27811,-0.73617 -11.63284,-0.26791 -28.037227,-2.45439 -12.832735,0.0353 -21.483912,-1.9295 -21.778557,-0.82398 -2.982711,11.19125 -0.810036,8.23479 -1.735544,16.14144 -1.132098,9.67141 0.390954,1.32159 -0.176367,13.99876 z"
       id="path3040"
       inkscape:connector-curvature="0"
       sodipodi:nodetypes="scssscsss" />
    <path
       inkscape:connector-curvature="0"
       style="fill:none;stroke:#80ff00;stroke-width:3.99999976;stroke-linecap:round;stroke-linejoin:round;stroke-miterlimit:4;stroke-opacity:1;stroke-dasharray:none"
       d="m 143.75868,173.30868 c 1.52554,4.00898 3.44044,7.94712 3.04113,12.5321 0.87889,10.26209 8.03472,5.75107 12.63832,9.13673 10.71539,-0.34504 7.78395,12.53055 4.34733,6.61651 -4.36906,-3.54275 -9.68782,-2.6037 -14.7328,-3.94392 -5.41178,-0.89839 -10.38621,-5.48258 -14.68631,-5.06301 -3.80195,-2.37853 -5.14166,-3.49657 -9.08947,-5.66175"
       id="path2956"
       sodipodi:nodetypes="ccccccc" />
    <path
       style="color:#000000;fill:none;stroke:#00ffff;stroke-width:4;stroke-linecap:butt;stroke-linejoin:miter;stroke-miterlimit:4;stroke-opacity:1;stroke-dasharray:none;stroke-dashoffset:0;marker:none;visibility:visible;display:inline;overflow:visible;enable-background:accumulate"
       d="m 141.83002,167.42242 c -1.56661,-0.98754 -3.59405,6.0805 -6.49428,11.67071 -1.08825,2.09751 3.10774,2.99196 7.37709,4.86623 1.78656,0.7843 3.40352,-4.98762 6.26303,-11.70556 1.1261,-2.6456 -2.36407,-1.81717 -7.14584,-4.83138 z"
       id="path3105"
       inkscape:connector-curvature="0"
       sodipodi:nodetypes="sssss" />
    <path
       inkscape:connector-curvature="0"
       style="fill:none;stroke:#80ff00;stroke-width:3.99999952;stroke-linecap:round;stroke-linejoin:round;stroke-miterlimit:4;stroke-opacity:1;stroke-dasharray:none"
       d="m 54.849865,197.34663 c 4.289019,-0.0669 8.327953,3.49596 12.569009,3.65468 5.49903,-0.40119 9.490527,0.80595 14.614758,3.3354 7.306209,0.17398 12.204005,8.85822 5.7468,6.4637 -4.213647,-1.56253 -4.177643,2.15884 -9.159909,3.95885 -4.720202,2.79536 -6.854815,5.20584 -11.515267,6.73329 -2.831547,2.0165 -7.483353,6.852 -8.95869,6.57018"
       id="path2956-7"
       sodipodi:nodetypes="cccsccc" />
  </g>
</svg>
