<?xml version="1.0" encoding="UTF-8" standalone="no"?>
<!-- Created with Inkscape (http://www.inkscape.org/) -->
<svg
   xmlns:dc="http://purl.org/dc/elements/1.1/"
   xmlns:cc="http://creativecommons.org/ns#"
   xmlns:rdf="http://www.w3.org/1999/02/22-rdf-syntax-ns#"
   xmlns:svg="http://www.w3.org/2000/svg"
   xmlns="http://www.w3.org/2000/svg"
   xmlns:sodipodi="http://sodipodi.sourceforge.net/DTD/sodipodi-0.dtd"
   xmlns:inkscape="http://www.inkscape.org/namespaces/inkscape"
   width="480"
   height="320"
   id="svg2"
   version="1.1"
   inkscape:version="0.46"
   sodipodi:docname="itnas060.svg"
   inkscape:export-xdpi="90"
   inkscape:export-ydpi="90"
   sodipodi:version="0.32"
   inkscape:output_extension="org.inkscape.output.svg.inkscape"
   inkscape:export-filename="itnas060.png">
  <defs
     id="defs4">
    <inkscape:perspective
       sodipodi:type="inkscape:persp3d"
       inkscape:vp_x="0 : 160 : 1"
       inkscape:vp_y="0 : 1000 : 0"
       inkscape:vp_z="480 : 160 : 1"
       inkscape:persp3d-origin="240 : 106.66667 : 1"
       id="perspective4059" />
  </defs>
  <sodipodi:namedview
     id="base"
     pagecolor="#ffffff"
     bordercolor="#666666"
     borderopacity="1.0"
     inkscape:pageopacity="1"
     inkscape:pageshadow="2"
     inkscape:zoom="1"
     inkscape:cx="438.78967"
     inkscape:cy="249.26995"
     inkscape:document-units="px"
     inkscape:current-layer="layer1"
     showgrid="false"
     inkscape:snap-nodes="true"
     inkscape:snap-global="false"
     inkscape:snap-grids="true"
     showguides="true"
     inkscape:window-width="1674"
     inkscape:window-height="999"
     inkscape:window-x="1680"
     inkscape:window-y="25"
     inkscape:window-maximized="1">
    <inkscape:grid
       empspacing="5"
       visible="true"
       enabled="true"
       snapvisiblegridlinesonly="true"
       type="xygrid"
       id="grid2816" />
  </sodipodi:namedview>
  <metadata
     id="metadata7">
    <rdf:RDF>
      <cc:Work
         rdf:about="">
        <dc:format>image/svg+xml</dc:format>
        <dc:type
           rdf:resource="http://purl.org/dc/dcmitype/StillImage" />
        <dc:title />
      </cc:Work>
    </rdf:RDF>
  </metadata>
  <g
     inkscape:label="Layer 1"
     inkscape:groupmode="layer"
     id="layer1"
     transform="translate(0,0)">
    <path
       style="fill:none;fill-rule:nonzero;stroke:#008000;stroke-width:4;stroke-linecap:round;stroke-linejoin:round;stroke-opacity:1;opacity:1;color:#000000;fill-opacity:1;marker:none;marker-start:none;marker-mid:none;marker-end:none;stroke-miterlimit:4;stroke-dasharray:none;stroke-dashoffset:0;visibility:visible;display:inline;overflow:visible;enable-background:accumulate"
       d="M 425.67828,200.49895 C 424.98857,206.50131 428.50671,223.18555 428.50671,233.73297 C 428.50671,241.15082 429.92092,248.69671 429.92092,256.36039 C 429.92092,258.24601 429.92092,260.13163 429.92092,262.01724"
       id="path3654" />
    <path
       style="fill:none;fill-rule:nonzero;stroke:#008000;stroke-width:4;stroke-linecap:round;stroke-linejoin:round;stroke-opacity:1;opacity:1;color:#000000;fill-opacity:1;marker:none;marker-start:none;marker-mid:none;marker-end:none;stroke-miterlimit:4;stroke-dasharray:none;stroke-dashoffset:0;visibility:visible;display:inline;overflow:visible;enable-background:accumulate"
       d="M 436.99199,199.79185 C 436.99199,203.87765 435.57778,215.67962 435.57778,223.12637 C 435.57778,230.19093 435.12011,238.39206 433.45646,245.04668 C 432.38147,249.34662 433.45646,255.44317 433.45646,259.89592"
       id="path3656" />
    <path
       style="fill:none;fill-rule:nonzero;stroke:#008000;stroke-width:4;stroke-linecap:round;stroke-linejoin:round;stroke-opacity:1;opacity:1;color:#000000;fill-opacity:1;marker:none;marker-start:none;marker-mid:none;marker-end:none;stroke-miterlimit:4;stroke-dasharray:none;stroke-dashoffset:0;visibility:visible;display:inline;overflow:visible;enable-background:accumulate"
       d="M 454.26281,204.58474 C 452.71055,210.79377 452.85181,222.95664 450.72727,231.4548 C 448.80922,239.12702 447.89885,246.93148 447.89885,254.78932 C 447.89885,256.45599 447.42744,258.08915 447.19174,259.73907"
       id="path3658" />
    <path
       style="fill:none;fill-rule:nonzero;stroke:#008000;stroke-width:4;stroke-linecap:round;stroke-linejoin:round;stroke-opacity:1;opacity:1;color:#000000;fill-opacity:1;marker:none;marker-start:none;marker-mid:none;marker-end:none;stroke-miterlimit:4;stroke-dasharray:none;stroke-dashoffset:0;visibility:visible;display:inline;overflow:visible;enable-background:accumulate"
       d="M 460.32651,199.08474 C 460.32651,206.93219 461.27538,220.26159 459.61941,230.19744 C 458.22907,238.53945 460.17,247.79966 461.74073,255.65328 C 461.92563,256.57778 461.74073,257.5389 461.74073,258.48171"
       id="path3660" />
    <path
       style="fill:none;fill-rule:nonzero;stroke:#008000;stroke-width:4;stroke-linecap:round;stroke-linejoin:round;stroke-opacity:1;opacity:1;color:#000000;fill-opacity:1;marker:none;marker-start:none;marker-mid:none;marker-end:none;stroke-miterlimit:4;stroke-dasharray:none;stroke-dashoffset:0;visibility:visible;display:inline;overflow:visible;enable-background:accumulate"
       d="M 444.77017,188.47814 C 445.33458,191.3002 444.06306,207.16032 444.06306,213.93398 C 444.06306,215.3482 444.06306,216.76241 444.06306,218.17662 C 444.06306,225.7915 441.77561,235.43685 440.52752,242.92536 C 439.52153,248.96131 438.4062,254.61305 438.4062,260.60303"
       id="path3662" />
    <path
       style="fill:none;fill-rule:evenodd;stroke:#0000ff;stroke-width:3.99999976000000013;stroke-linecap:round;stroke-linejoin:round;stroke-miterlimit:4;stroke-dasharray:none;stroke-opacity:1"
       d="M 305.49999,261 C 313.91866,261.74544 335.10069,259 346.59578,259 C 382.88348,259 418.87529,265.92202 455.13883,259.5 C 465.2186,257.71494 474.1413,257.5 483.99999,257.5"
       id="path2849"
       sodipodi:nodetypes="cssc" />
    <path
       style="fill:none;fill-rule:evenodd;stroke:#ff8000;stroke-width:4;stroke-linecap:round;stroke-linejoin:round;stroke-opacity:1;stroke-miterlimit:4;stroke-dasharray:none"
       d="M 466.625,273.25 C 466.2767,269.47221 459.56596,275.14353 454.8125,278.3125 C 453.8125,278.97917 446.5,284.83333 445.5,285.5 C 441.51661,288.15559 432.89969,291.52469 429.375,288 C 425.71247,284.33747 426.80897,279.79982 429.8125,275.125 C 431.6875,272.20667 439.38514,274.85405 441,275.5 C 446.95411,277.88164 449.39805,279.67354 454.5,283.5 C 457.88465,286.03849 459.06187,286.19975 461.375,287.125 C 465.10178,288.61571 468.66424,291.51003 467.9375,287.5625 C 467.54466,285.42865 467.14549,278.89549 466.625,273.25 z"
       id="path3621"
       sodipodi:nodetypes="csssssssss" />
    <path
       style="fill:none;fill-rule:evenodd;stroke:#ff8000;stroke-width:4;stroke-linecap:round;stroke-linejoin:round;stroke-opacity:1;stroke-miterlimit:4;stroke-dasharray:none"
       d="M 405,269.875 C 404.93183,269.02325 398.84646,274.29552 395.625,277.1875 C 390.74721,281.5664 381.9916,284.25506 375.6875,284 C 370.5411,283.79178 368.67988,278.70428 368,274.625 C 367.07246,269.05977 373.32559,266.76416 377.5,267.625 C 382.95537,268.75 388.96579,272.13353 390.4375,274.25 C 393.63925,278.85444 395.57928,281.01793 400,284.625 C 405.6378,289.22515 404.98936,286.21269 405,285.3125 C 405.04039,281.65772 405.30918,273.73796 405,269.875 z"
       id="path3623"
       sodipodi:nodetypes="cssssssss" />
    <path
       style="opacity:1;fill:none;fill-opacity:1;fill-rule:nonzero;stroke:#008000;stroke-width:4;stroke-linecap:round;stroke-linejoin:round;marker:none;marker-start:none;marker-mid:none;marker-end:none;stroke-miterlimit:4;stroke-dasharray:none;stroke-dashoffset:0;stroke-opacity:1;visibility:visible;display:inline;overflow:visible;enable-background:accumulate"
       d="M -10,256 C -4.3329901,254.83196 6.3118532,256.38393 10,256.5 C 20.800513,256.8399 33.98247,258.5 45,258.5 C 58.619431,258.5 71.929855,255.95965 85.5,256.5 C 97.60738,256.9821 110.43874,259.91225 122.5,257.5 C 135.63491,254.87302 151.68969,258 165,258 C 184.36751,258 203.83143,258.12984 223,256 C 233.47318,254.83631 243.92198,255 254.5,255 C 266.39839,255 277.13845,265.54594 288.93934,265.54594 C 302.23465,265.54594 312.56095,267.22468 323,275.5 C 333.72247,284 345.55037,285.12982 356.5,287.5 C 370.35926,290.5 383.48691,290.80186 395.5,293.5 C 402.17854,295 407.56245,300.73536 412,303.5 C 421.41653,309.36661 430.04328,313.5 439,313.5 C 448.04226,313.5 487.65566,314.58608 496,312.5"
       id="path2842"
       sodipodi:nodetypes="cssssssssssssss" />
    <path
       style="fill:none;stroke:#0000ff;stroke-width:4;stroke-linecap:round;stroke-linejoin:round;stroke-miterlimit:4;stroke-dasharray:none;stroke-opacity:1"
       d="M 275.60234,158.83179 C 273.2538,159.01987 272.50285,161.06709 271.70114,162.34126 C 269.90341,164.09548 270.55391,164.74277 268.95649,166.97203 C 268.9043,168.93884 267.82402,170.50636 268.21774,172.64681 C 267.95388,175.79323 270.5583,178.39324 272.76548,180.21504 C 274.58597,181.25551 276.26702,182.44737 278.46336,182.23029 C 280.01423,182.07645 281.77314,182.43971 283.15898,181.87565 C 284.79141,179.95086 288.24813,179.15249 289.20879,177.4586 C 289.28925,175.60165 289.21977,173.75886 289.47428,171.95279 C 289.41975,169.20513 289.36621,166.45745 289.31158,163.70989 C 288.24065,162.74074 287.70028,161.1971 286.49678,160.90509 C 285.82225,160.24128 284.1877,160.5742 283.2978,160.09157 C 281.0072,159.18169 278.24212,159.48862 275.60234,158.83179 L 275.60234,158.83179 z"
       id="path2905" />
    <path
       style="fill:none;stroke:#0000ff;stroke-width:4;stroke-linecap:round;stroke-linejoin:round;stroke-miterlimit:4;stroke-dasharray:none;stroke-opacity:1"
       d="M 276.40366,183.88266 C 275.48825,186.2507 276.81473,189.55834 275.93947,190.37931 C 276.23829,194.24509 275.80849,198.16726 276.158,202.02539 C 276.6627,205.34757 275.88858,208.60203 275.78406,211.70209 C 275.50192,213.20108 275.21981,214.69996 274.9377,216.19884"
       id="path2907" />
    <path
       style="fill:none;stroke:#c87137;stroke-width:4;stroke-linecap:round;stroke-linejoin:round;marker:none;stroke-miterlimit:4;stroke-dasharray:none;stroke-dashoffset:0;stroke-opacity:1;visibility:visible;display:inline;overflow:visible;enable-background:accumulate"
       d="M 293.54763,214.50627 C 293.54463,216.86927 293.47333,219.15047 294.12336,221.45897 C 294.32496,222.17497 294.9216,222.50937 295.27485,223.09487 C 295.77832,223.92937 295.8793,225.18057 296.42635,225.95777 C 296.64091,226.26257 297.02649,226.15277 297.28996,226.36677 C 298.20619,227.11057 299.14146,228.74317 300.16867,229.22957 C 302.83279,230.49127 305.75116,230.45657 308.51695,230.45657 C 310.63001,230.45657 312.79855,230.82527 314.56225,228.82067 C 317.93325,224.98927 316.41771,223.77537 317.44097,219.41407 C 318.0852,216.66817 319.45606,215.52927 319.45606,212.87027"
       id="path2928" />
    <path
       style="fill:none;stroke:#0000ff;stroke-width:4;stroke-linecap:round;stroke-linejoin:round;stroke-miterlimit:4;stroke-dasharray:none;stroke-opacity:1"
       d="M 260.40855,214.32297 C 263.23414,209.96282 263.4062,204.5575 266.38602,200.39169 C 268.62434,197.2625 269.85139,192.17539 271.5963,188.96636 C 272.30028,187.67167 274.45704,181.77916 276.32629,184.91406 C 278.31286,188.24572 280.68343,190.98772 281.88457,193.42018 C 283.87197,197.44489 285.41483,202.01827 288.15821,205.05333 C 289.72038,206.7816 289.39069,209.17574 290.6516,211.25733 C 291.33338,212.38284 292.5523,212.74877 292.80013,214.08033"
       id="path2911"
       sodipodi:nodetypes="csssssss" />
    <path
       style="opacity:1;fill:none;fill-opacity:1;fill-rule:nonzero;stroke:#c87137;stroke-width:3.99999976;stroke-linecap:round;stroke-linejoin:round;marker:none;marker-start:none;marker-mid:none;marker-end:none;stroke-miterlimit:4;stroke-dasharray:none;stroke-dashoffset:0;stroke-opacity:1;visibility:visible;display:inline;overflow:visible;enable-background:accumulate"
       d="M 336.87539,231.93922 C 337.79361,231.46191 339.28126,231.00881 340.49508,230.32552 C 341.97827,229.49061 342.32042,227.59231 345.36323,228.13877 C 347.27774,228.4826 348.08923,230.92155 348.80205,232.65239 C 349.6537,234.72034 347.98387,236.85993 348.57389,238.98009 C 349.13636,241.00125 347.95928,243.17962 348.11404,245.25325 C 348.24403,246.99517 349.85775,248.40828 351.77475,248.04276 C 353.9355,247.63075 355.71503,245.80401 357.92182,245.89708 C 360.62931,246.01128 362.54926,245.38768 364.82527,244.86093 C 367.06554,244.34245 369.4565,246.22048 371.56484,245.47278 C 373.25875,244.87205 374.69289,245.16126 376.27948,244.90384 C 378.25627,244.5831 377.83477,246.06884 377.33357,247.29682 C 376.58339,249.13483 376.84967,251.26133 376.43345,253.1877 C 376.03988,255.00914 373.95659,256.4191 372.24159,256.50297 C 370.0581,256.60976 367.84648,256.60252 365.5859,256.4995 C 362.99271,256.38132 360.45034,256.38347 357.89918,256.0378 C 355.0597,255.65305 352.20145,255.35883 349.32028,255.2689 C 346.76574,255.18915 344.54155,255.95766 342.25442,254.95976 C 340.82373,254.33554 340.32227,250.21404 341.34854,249.2412 C 342.60342,248.05166 343.52359,245.84878 344.70271,244.22386 C 345.84286,242.65262 345.29925,240.77338 345.72761,238.96038 C 346.15306,237.15965 347.0094,234.49354 345.40463,233.02362 C 344.86382,232.52825 344.36233,233.98246 343.77054,234.14077 C 342.93915,234.36316 342.32828,234.28646 341.49888,234.15513 C 339.37136,233.81822 335.54064,232.63306 336.87539,231.93922 z"
       id="path3645"
       sodipodi:nodetypes="cssssssssssssssssssssssss" />
    <path
       style="fill:none;stroke:#c87137;stroke-width:4;stroke-linecap:round;stroke-linejoin:round;marker:none;stroke-miterlimit:4;stroke-dasharray:none;stroke-dashoffset:0;stroke-opacity:1;visibility:visible;display:inline;overflow:visible;enable-background:accumulate"
       d="M 119.29172,254.42966 C 114.47671,253.85131 109.09295,256.36575 104.7859,254.59013 C 101.06276,253.05523 97.16166,249.90168 96.10871,245.39182 C 94.67521,239.25197 93.05211,233.14479 91.6038,227.00328 C 89.45968,217.91123 91.0602,208.56101 90.62937,199.34271 C 90.41347,194.72301 92.95138,190.45928 92.81393,185.76731 C 92.62001,179.14806 92.37426,172.52495 92.79573,165.89689 C 93.02052,162.36178 92.73973,158.73006 90.99597,155.50366 C 89.93952,153.54898 90.82726,151.15662 90.80921,149.00427"
       id="path2832"
       sodipodi:nodetypes="cssssssss" />
    <path
       style="fill:none;stroke:#c87137;stroke-width:4;stroke-linecap:round;stroke-linejoin:round;marker:none;stroke-miterlimit:4;stroke-dasharray:none;stroke-dashoffset:0;stroke-opacity:1;visibility:visible;display:inline;overflow:visible;enable-background:accumulate"
       d="M 61.39156,153.76514 C 61.84917,157.47561 62.20727,161.19114 62.71343,164.93278 C 63.37304,169.80884 62.71343,175.3607 62.71343,180.28829 C 62.71343,191.50441 63.93295,203.75388 61.39156,214.48921 C 60.04264,220.18735 62.96195,234.64119 61.39156,239.61643 C 58.90417,247.49685 50.81443,251.13421 43.5464,254.97192 C 42.47691,255.53665 39.54727,254.97192 38.25894,254.97192"
       id="path2850"
       sodipodi:nodetypes="cssssss" />
    <path
       style="fill:none;stroke:#94f3f3;stroke-width:4;stroke-linecap:round;stroke-linejoin:round;stroke-miterlimit:4;stroke-dasharray:none;stroke-opacity:1"
       d="M 56.09375,37.450061 C 51.147749,37.63939 46.621481,41.249528 45.09375,45.918811 C 43.425071,49.653717 41.784432,53.735019 42.475295,57.902846 C 43.365702,62.732175 45.349527,67.254744 46.90625,71.887561 C 47.252247,72.584218 47.874418,73.508208 47.25,74.231311 C 46.210141,74.851141 45.492091,73.390019 44.939304,72.716889 C 44.061696,71.422244 43.3233,70.025401 42.253706,68.873126 C 38.234867,63.259798 33.55182,58.024736 27.875,54.043811 C 26.280365,53.005647 24.108486,53.087993 22.625,54.293811 C 20.480679,55.920217 18.949521,58.186873 16.94743,59.971381 C 13.324311,63.533391 9.3477153,66.933284 6.8889961,71.458303 C 4.2798558,76.563585 3.9176267,82.877372 6.3649677,88.112572 C 8.1791931,92.205306 11.940958,94.937768 15.687307,97.140161 C 19.913468,99.649226 24.23339,102.01336 28.3125,104.76254 C 29.063153,104.80293 30.526485,106.11396 29.350569,106.45349 C 28.197462,106.23977 27.030612,105.69611 25.859398,106.14242 C 20.470034,107.1904 15.75707,110.44338 12.002946,114.34455 C 10.13734,116.35936 8.4511758,118.60941 7.606987,121.25538 C 6.6183609,124.09596 6.5953261,127.40076 8.143825,130.05226 C 9.2531106,132.22541 11.404758,133.52925 13.511372,134.58844 C 16.761154,136.23651 20.129871,137.71436 23.069055,139.90046 C 25.277056,141.40464 27.482117,142.91986 29.8125,144.23129 C 30.656886,145.16824 29.599788,146.39089 28.717739,146.82565 C 22.372773,150.57401 16.402243,155.05787 11.417678,160.50834 C 8.8541586,163.27443 6.8689488,166.86776 6.96875,170.73129 C 7.0182599,172.93325 8.5945615,175.14354 10.863596,175.43662 C 16.317229,176.97513 21.917062,177.99527 27.550411,178.5801 C 32.279562,178.90851 37.140823,178.36838 41.484605,176.38075 C 46.461573,174.13981 46.720875,170.60547 50.624201,166.84715 C 54.231998,163.17183 57.476815,159.04668 59.513903,154.28103 C 60.060587,153.29631 60.259309,152.1351 61,151.26254 C 61.746385,150.71443 63.144711,151.06182 63.15625,152.10629 C 63.718435,154.35535 64.59918,156.64476 66.370066,158.22136 C 68.631332,160.73234 75.3145,162.87099 78.200982,164.61168 C 80.753812,165.72372 81.779443,163.07557 83.508528,161.03526 C 86.215093,158.28659 88.20074,154.79733 89.122859,151.05082 C 89.386686,150.06943 89.198486,148.89467 89.78125,148.04379 C 90.752482,147.32059 91.765821,148.21825 92.354757,148.96219 C 95.369688,151.44944 100.32724,155.94384 104.32726,156.67799 C 108.87116,157.59844 113.48804,156.403 117.8537,155.17442 C 121.55203,154.12913 125.27732,152.87088 128.4865,150.71084 C 130.67973,149.17195 130.92897,145.89684 129.58928,143.71423 C 128.48051,141.80015 127.08449,140.08367 125.68893,138.37477 C 125.19244,137.71438 124.46038,136.81453 125.56982,137.78652 C 128.17288,139.81118 131.08344,141.91602 134.52612,141.93137 C 138.15336,142.1149 142.00336,142.81828 145.45202,141.31778 C 147.70596,140.00325 148.46423,137.27661 148.92478,134.87477 C 150.9564,126.16505 151.4791,117.03795 149.92863,108.20729 C 149.52918,105.38735 148.44253,102.3945 145.97077,100.75815 C 143.84407,99.258085 141.22485,98.500507 138.625,98.731311 C 137.55785,98.514555 137.86116,96.758489 138.90625,96.793811 C 143.66499,95.259846 148.38772,93.282474 152.31312,90.123458 C 153.93701,88.791742 155.49129,87.300056 156.5625,85.481311 C 157.32792,83.899888 157.17714,81.90067 155.95104,80.586414 C 154.07302,78.311637 151.21479,77.191316 148.53125,76.168811 C 142.82238,74.123928 136.40694,74.942063 130.98805,77.465791 C 129.02348,78.362934 127.00995,79.36129 125.67643,81.12685 C 124.7026,81.703496 125.33772,83.009795 124.25,83.418811 C 123.04259,83.64338 123.55458,81.837306 123.52948,81.096359 C 123.82563,79.565458 123.76271,78.013604 123.61061,76.474666 C 123.19105,70.067127 120.74091,63.736363 116.46695,58.912131 C 114.268,56.562374 111.45441,54.293097 108.07189,54.293811 C 105.38334,54.439031 103.51611,56.612122 101.70169,58.342117 C 100.09795,59.853018 98.768765,61.625646 97.3125,63.262561 C 96.307326,63.707468 95.539085,62.568347 95.34586,61.715017 C 94.049775,58.059309 91.690583,54.875583 89.11779,52.017093 C 84.607363,47.321545 78.756206,44.295796 73.157852,41.118548 C 69.578865,39.240548 65.681126,37.86469 61.621411,37.612577 C 59.785517,37.427989 57.937213,37.392312 56.09375,37.450061 z"
       id="path2827"
       sodipodi:nodetypes="csssssssssssssssssssssssssssssssssssssscccccccccccccccccccccccccccccc" />
    <path
       id="path3747"
       style="fill:none;stroke:#808080;stroke-width:4;stroke-linecap:butt;stroke-linejoin:miter;stroke-miterlimit:4;stroke-dasharray:none;stroke-opacity:1"
       d="M 257.44439,237.35034 C 256.56437,237.81371 253.48715,231.81333 251.60377,229.00926 C 249.32313,225.61373 246.77483,222.38961 244.56145,218.93716 C 240.59233,212.7462 236.7044,206.49623 232.98255,200.17459 C 230.13061,195.33049 227.59319,190.3464 224.40572,185.66085 C 221.89262,181.96656 219.42556,178.07617 218.10469,173.93967 C 217.25517,171.27929 216.94166,168.52004 215.43293,166.05202 C 214.5869,164.66803 215.0269,163.22205 215.56599,162.54892 C 216.24617,161.69983 220.07795,161.15779 222.31225,161.57121 C 223.98562,161.88086 225.53201,160.59167 227.13325,160.89252 C 230.71454,161.56463 231.64167,160.75184 235.21063,160.08909 C 237.6727,159.63188 240.14784,158.9257 242.57648,158.49768 C 245.19697,158.03584 250.25471,156.13143 250.58604,157.58827 C 251.34587,160.9291 249.65823,168.30294 249.70393,173.74726 C 249.80364,185.62679 249.69898,197.69026 252.691,209.33338 C 254.02792,214.53589 253.92748,219.98504 255.6243,225.13388 C 256.92758,229.0879 258.57184,236.75702 257.44441,237.35066 L 257.44439,237.35034 z"
       sodipodi:nodetypes="cssssssssssssssss" />
    <path
       style="fill:none;stroke:#80ff00;stroke-width:3.99999952;stroke-linecap:round;stroke-linejoin:round;stroke-miterlimit:4;stroke-dasharray:none;stroke-opacity:1"
       d="M 219.97034,199.93973 C 220.94012,201.54273 221.91258,198.00125 222.97946,199.94272 C 225.70115,201.02925 228.52654,199.80803 231.2475,200.96695 C 233.16399,201.31381 235.05699,200.59146 236.97413,200.99433 C 238.99189,201.34236 240.94032,200.95055 242.89867,200.62895 C 244.61577,200.43624 246.34176,200.70613 248.05873,200.6737 C 249.41503,201.51903 250.64749,201.25602 252.04851,202.00124 C 253.74154,202.89249 255.66569,202.00548 257.30003,203.32674 C 257.2776,204.19482 255.62849,205.09171 254.96542,205.97191 C 252.79733,208.08559 250.63008,210.20098 248.46003,212.31108 C 246.88518,213.0931 245.61365,214.78137 243.82316,214.81894 C 242.4534,215.25529 241.33432,216.37212 240.08057,217.10141 C 238.77134,218.09793 237.20201,219.07582 235.75656,219.93737 C 234.34544,221.0184 232.8146,221.84187 231.57854,223.29008 C 230.60805,224.42214 229.37074,225.81947 228.50084,223.53608 C 227.55208,222.05982 227.74821,219.97969 226.78734,218.49822 C 226.13518,216.55046 225.02994,214.91235 224.95029,212.60026 C 224.07871,210.68178 223.55678,208.37961 222.38679,206.70632 C 221.92677,204.85449 221.03926,203.13543 220.35033,201.45946 C 220.12713,201.07401 219.57682,200.41074 219.97048,199.94 L 219.97034,199.93973 z"
       id="path2942" />
    <path
       style="fill:none;stroke:#80ff00;stroke-width:3.99999976;stroke-linecap:round;stroke-linejoin:round;stroke-miterlimit:4;stroke-dasharray:none;stroke-opacity:1"
       d="M 125.80145,253.78756 C 126.3358,249.53154 126.49307,245.15537 128.99744,241.29406 C 131.47052,236.36622 133.59911,231.258 136.82117,226.53844 C 138.27401,223.32823 140.46179,215.03267 142.48117,221.56783 C 145.94212,226.00196 148.66248,230.56295 150.20025,235.55127 C 152.30711,240.6164 155.11118,246.20408 155.97096,251.0326 C 155.22712,252.44334 157.1622,253.40329 156.67656,254.82464"
       id="path2956" />
    <path
       style="fill:none;stroke:#80ff00;stroke-width:4;stroke-linecap:round;stroke-linejoin:round;stroke-miterlimit:4;stroke-dasharray:none;stroke-opacity:1"
       d="M 192.11164,255.22844 C 192.28243,254.47748 193.2003,250.44276 193.65515,248.4435 C 195.1597,242.16314 199.11702,240.06181 202.5382,232.47148 C 203.79545,227.98654 208.72303,219.44041 209.8172,217.13854 C 211.74992,221.85742 213.46752,226.68252 215.45267,231.37148 C 217.94045,238.69321 221.86579,245.15404 228.70979,249.88429 C 229.69434,250.36677 232.01082,250.71474 230.83255,252.36584"
       id="path2958" />
    <path
       style="fill:none;stroke:#80ff00;stroke-width:4;stroke-linecap:round;stroke-linejoin:round;marker:none;stroke-miterlimit:4;stroke-dasharray:none;stroke-dashoffset:0;stroke-opacity:1;visibility:visible;display:inline;overflow:visible;enable-background:accumulate"
       d="M 223.40171,213.79145 C 220.11347,214.90935 217.40457,216.30581 213.75072,216.46134 C 209.95862,216.62233 206.16689,216.24413 202.30236,215.97037 C 198.0458,215.66889 192.48743,215.86458 187.74912,215.66588 C 181.8305,215.41767 176.42779,214.14355 170.41882,214.0439 C 163.09198,213.92228 155.68837,215.42465 148.32097,216.27123 C 144.61624,216.69691 141.01471,217.4667 137.24942,217.57319 C 134.34493,217.65512 127.9626,217.38185 125.79734,216.40477"
       id="path2833"
       sodipodi:nodetypes="csssssss" />
    <path
       style="opacity:1;fill:none;fill-opacity:1;fill-rule:nonzero;stroke:#80ff00;stroke-width:3.99999976;stroke-linecap:round;stroke-linejoin:round;marker:none;marker-start:none;marker-mid:none;marker-end:none;stroke-miterlimit:4;stroke-dasharray:none;stroke-dashoffset:0;stroke-opacity:1;visibility:visible;display:inline;overflow:visible;enable-background:accumulate"
       d="M 125.90625,216.5 C 124.33629,215.97481 119.64837,215.56447 117.90625,216 C 114.60745,216.8247 114.40285,224.64201 113.9375,226.96875 C 113.18848,230.71383 112.9375,235.13398 112.9375,238.96875 C 112.9375,243.00461 109.70519,245.96875 105.9375,245.96875 C 101.11083,245.96875 99.522089,233.89169 98.9375,230.96875 C 97.725211,224.90731 97.4375,218.67761 97.4375,212.46875 C 97.4375,206.30886 97.971794,200.83158 99.4375,194.96875 C 100.7248,189.81954 104.35416,186.05209 107.9375,182.46875 C 111.86027,178.54598 117.4801,174.94745 122.4375,172.46875 C 126.9236,170.2257 131.45433,170.46875 136.4375,170.46875 C 143.4647,170.46875 150.64578,170.82289 156.9375,173.96875 C 162.31104,176.65552 166.03304,180.16541 170.4375,183.46875 C 175.91088,187.57378 181.65256,186.96875 188.4375,186.96875 C 194.8803,186.96875 199.35855,181.62664 201.9375,176.46875 C 205.13074,170.08228 204.10582,162.47371 201.9375,155.96875 C 199.72703,149.33734 195.43054,145.96179 190.9375,141.46875 C 187.05737,137.58862 183.38429,136.38007 180.4375,131.46875 C 178.9024,128.91025 178.40879,126.79651 177.9375,123.96875"
       id="path3966"
       sodipodi:nodetypes="csssssssssssssssssc" />
    <path
       style="fill:none;stroke:#ff0000;stroke-width:4;stroke-linecap:butt;stroke-linejoin:miter;marker:none;stroke-miterlimit:4;stroke-dasharray:none;stroke-dashoffset:0;stroke-opacity:1;visibility:visible;display:inline;overflow:visible;enable-background:accumulate"
       d="M 303.49687,214.55557 C 302.94525,214.41167 300.78833,214.01407 300.24687,214.55557 C 299.11117,215.69127 298.39404,215.93477 298.24687,217.80557 C 298.13573,219.21827 298.36714,219.62027 299.49687,220.05557 C 301.18654,220.70667 302.40745,220.11457 303.74687,219.05557 C 304.55804,218.41427 304.34219,218.42927 304.74687,217.80557 C 305.49772,216.64837 304.44962,214.80407 303.49687,214.55557 z"
       id="path3727"
       sodipodi:nodetypes="cssssss" />
    <path
       style="fill:none;stroke:#ff0000;stroke-width:4;stroke-linecap:butt;stroke-linejoin:miter;marker:none;stroke-miterlimit:4;stroke-dasharray:none;stroke-dashoffset:0;stroke-opacity:1;visibility:visible;display:inline;overflow:visible;enable-background:accumulate"
       d="M 310.97282,219.54297 C 309.79363,219.27567 306.83397,221.39917 306.72282,222.66797 C 306.65132,223.48387 307.78747,225.58277 308.34782,225.79297 C 309.29729,226.14917 310.63232,226.04747 311.59782,225.79297 C 312.06541,225.66977 312.33843,224.31177 312.59782,223.79297 C 312.83759,223.31347 312.90209,221.96917 312.59782,221.54297 C 312.11765,220.87047 312.17653,219.81587 310.97282,219.54297 z"
       id="path3729"
       sodipodi:nodetypes="cssssss" />
    <path
       style="fill:none;stroke:#ff0000;stroke-width:4;stroke-linecap:butt;stroke-linejoin:miter;marker:none;stroke-miterlimit:4;stroke-dasharray:none;stroke-dashoffset:0;stroke-opacity:1;visibility:visible;display:inline;overflow:visible;enable-background:accumulate"
       d="M 310.41109,209.91177 C 309.8135,210.12357 309.07121,210.50157 308.66109,210.91177 C 308.03513,211.53767 308.23238,213.18117 308.51464,214.02787 C 308.71622,214.63247 309.13758,214.82337 309.66109,214.91177 C 310.23658,215.00877 311.73782,215.23517 312.16109,214.91177 C 312.56765,214.60097 313.41565,214.12387 313.66109,213.41177 C 313.98173,212.48137 313.91072,211.97117 313.66109,211.16177 C 313.45117,210.48107 312.98131,209.91297 312.66109,209.66177 C 312.3696,209.43307 311.72514,209.44577 310.41109,209.91177 z"
       id="path3733"
       sodipodi:nodetypes="cssssssss" />
    <path
       sodipodi:nodetypes="cssssss"
       id="path4061"
       d="M 283.95647,256.12963 C 283.96173,255.55957 282.07174,254.11042 281.31611,254.23464 C 279.73125,254.4951 277.95953,253.83938 277.79628,255.70885 C 277.66603,257.20039 276.83589,257.25327 277.49989,258.26563 C 278.49297,259.7798 278.92925,259.97955 280.63489,259.90018 C 281.66783,259.85215 281.48372,259.73848 282.17615,259.46773 C 283.46089,258.9654 283.9452,257.35058 283.95647,256.12963 z"
       style="opacity:1;fill:none;fill-opacity:1;fill-rule:nonzero;stroke:#808080;stroke-width:4;stroke-linecap:butt;stroke-linejoin:miter;marker:none;marker-start:none;marker-mid:none;marker-end:none;stroke-miterlimit:4;stroke-dasharray:none;stroke-dashoffset:0;stroke-opacity:1;visibility:visible;display:inline;overflow:visible;enable-background:accumulate" />
    <path
       sodipodi:nodetypes="cssssss"
       id="path4063"
       d="M 289.11818,256.09177 C 287.95469,256.42074 286.37037,259.7008 286.87933,260.86835 C 287.20659,261.61915 289.13198,261.80403 289.72464,261.72076 C 290.72887,261.57969 291.92878,261.96757 292.65512,261.28245 C 293.00691,260.9507 293.57821,260.34449 293.32348,259.82339 C 292.99391,259.14916 291.99073,257.25422 291.5016,257.07153 C 290.72819,256.78265 290.30589,255.756 289.11818,256.09177 z"
       style="opacity:1;fill:none;fill-opacity:1;fill-rule:nonzero;stroke:#808080;stroke-width:4;stroke-linecap:butt;stroke-linejoin:miter;marker:none;marker-start:none;marker-mid:none;marker-end:none;stroke-miterlimit:4;stroke-dasharray:none;stroke-dashoffset:0;stroke-opacity:1;visibility:visible;display:inline;overflow:visible;enable-background:accumulate" />
    <path
       sodipodi:nodetypes="cssssssss"
       id="path4065"
       d="M 301.8095,257.89117 C 301.44403,257.3731 300.20124,257.69763 299.69544,257.41368 C 298.92362,256.98024 298.2049,257.84136 297.46605,258.34201 C 296.93845,258.69954 296.37401,259.36061 296.43044,259.88853 C 296.49263,260.46881 296.68051,261.97536 297.1063,262.29543 C 297.51544,262.60283 298.73076,262.62302 299.48269,262.66681 C 300.46514,262.72398 301.41748,262.61 302.29823,262.75258 C 303.0014,262.8664 302.63528,261.52989 302.79055,261.15369 C 302.93194,260.81123 302.61341,259.03031 301.8095,257.89117 z"
       style="opacity:1;fill:none;fill-opacity:1;fill-rule:nonzero;stroke:#808080;stroke-width:4;stroke-linecap:butt;stroke-linejoin:miter;marker:none;marker-start:none;marker-mid:none;marker-end:none;stroke-miterlimit:4;stroke-dasharray:none;stroke-dashoffset:0;stroke-opacity:1;visibility:visible;display:inline;overflow:visible;enable-background:accumulate" />
    <path
       id="path2909"
       style="fill:none;stroke:#0000ff;stroke-width:4;stroke-linecap:round;stroke-linejoin:round;stroke-miterlimit:4;stroke-dasharray:none;stroke-opacity:1"
       d="M 275.86533,218.02871 C 276.96352,219.9087 279.20517,224.15998 280.87551,227.00451 C 282.40988,231.11609 285.37406,233.69563 287.05199,237.6401 C 289.1716,240.13612 290.62714,242.8833 292.30292,246.00049 C 293.60048,247.72236 293.69667,252.1017 294.62269,252.57312 C 294.82454,252.76974 295.90105,256.27826 295.20961,255.17005 M 275.03263,216.304 C 273.03134,218.94001 270.78905,221.48969 269.52854,224.58088 C 267.35452,227.73641 266.21097,231.53926 263.78337,234.49002 C 263.40686,238.23559 260.25371,240.84365 259.42569,244.45428 C 258.0208,245.55064 256.56263,249.20631 256.20681,251.29568"
       sodipodi:nodetypes="ccccccccccc" />
    <g
       id="g4230"
       transform="matrix(6.0818646e-2,0.9981489,-0.9981489,6.0818646e-2,489.69454,-19.590715)"
       style="stroke-linecap:round;stroke-linejoin:round">
      <path
         sodipodi:nodetypes="csssssscc"
         id="path4202"
         d="M 38.671573,25.944544 C 33.241094,33.395423 29.361555,33.333469 23.942452,40.668802 C 16.827107,50.300178 22.371546,63.958085 29.022441,72.585678 C 36.21495,81.915856 49.774948,78.402046 59.569623,77.846242 C 67.574132,77.392022 70.471754,70.870293 75.865404,71.197808 C 81.869211,71.562375 82.838471,59.917028 82.947565,52.145732 C 83.067723,43.58623 84.88679,32.72173 76.184121,27.314266 C 68.375262,22.462176 60.371218,17.763541 50.784197,17.639118 C 46.123264,18.55518 37.505395,20.182367 38.671573,25.944544 z"
         style="fill:none;stroke:#ffff00;stroke-width:4;stroke-linecap:round;stroke-linejoin:round;stroke-miterlimit:4;stroke-dasharray:none;stroke-opacity:1" />
      <path
         id="path4215"
         d="M 31,81 C 28.148613,84.553942 24.105327,87.346267 24.536612,92.015165 C 21.832544,96.043458 21.188425,100.66969 20,105 C 18.715521,104.47725 18.080814,108.77422 18,110"
         style="fill:none;stroke:#ffff00;stroke-width:4;stroke-linecap:round;stroke-linejoin:round;stroke-miterlimit:4;stroke-dasharray:none;stroke-opacity:1" />
      <path
         id="path4217"
         d="M 53.280734,83.999998 C 57.390295,88.160468 53.506616,94.21835 56.447336,98.792054 C 57.662749,104.48954 63.971995,107.98274 62.978347,113.8768 L 62.937021,115"
         style="fill:none;stroke:#ffff00;stroke-width:4;stroke-linecap:round;stroke-linejoin:round;stroke-miterlimit:4;stroke-dasharray:none;stroke-opacity:1" />
      <path
         id="path4219-0"
         d="M 76,78 C 79.400595,81.924314 81.608335,87.266142 86.25064,90 C 88.87156,94.847886 90.567058,100.49689 95.139125,103.99058 C 97.9554,107.74878 101.16891,111.78254 105.04348,114"
         style="fill:none;stroke:#ffff00;stroke-width:4;stroke-linecap:round;stroke-linejoin:round;stroke-miterlimit:4;stroke-dasharray:none;stroke-opacity:1" />
      <path
         id="path4221"
         d="M 90,56.987967 C 104.33334,57.001937 118.66662,57.064057 133,57.040007"
         style="fill:none;stroke:#ffff00;stroke-width:4;stroke-linecap:round;stroke-linejoin:round;stroke-miterlimit:4;stroke-dasharray:none;stroke-opacity:1" />
      <path
         id="path4223"
         d="M 86.000002,33 C 91.268563,32.123904 95.823063,28.794808 100.95111,28.123735 C 105.57264,29.424529 108.83551,25.121589 113.12536,24.349811 C 115.24759,22.885947 120.60982,23.2369 120.85644,21"
         style="fill:none;stroke:#ffff00;stroke-width:4;stroke-linecap:round;stroke-linejoin:round;stroke-miterlimit:4;stroke-dasharray:none;stroke-opacity:1" />
    </g>
  </g>
</svg>
