<?xml version="1.0" encoding="UTF-8" standalone="no"?>
<!-- Created with Inkscape (http://www.inkscape.org/) -->

<svg
   xmlns:dc="http://purl.org/dc/elements/1.1/"
   xmlns:cc="http://creativecommons.org/ns#"
   xmlns:rdf="http://www.w3.org/1999/02/22-rdf-syntax-ns#"
   xmlns:svg="http://www.w3.org/2000/svg"
   xmlns="http://www.w3.org/2000/svg"
   xmlns:sodipodi="http://sodipodi.sourceforge.net/DTD/sodipodi-0.dtd"
   xmlns:inkscape="http://www.inkscape.org/namespaces/inkscape"
   width="480"
   height="320"
   id="svg2"
   version="1.1"
   inkscape:version="0.47 r22583"
   sodipodi:docname="itnas208.svg"
   inkscape:export-xdpi="90"
   inkscape:export-ydpi="90"
   inkscape:export-filename="itnas208.png">
  <defs
     id="defs4" />
  <sodipodi:namedview
     id="base"
     pagecolor="#ffffff"
     bordercolor="#666666"
     borderopacity="1.0"
     inkscape:pageopacity="1"
     inkscape:pageshadow="2"
     inkscape:zoom="1"
     inkscape:cx="284.68869"
     inkscape:cy="154.93703"
     inkscape:document-units="px"
     inkscape:current-layer="layer1"
     showgrid="false"
     inkscape:snap-nodes="true"
     inkscape:snap-global="false"
     inkscape:snap-grids="true"
     showguides="true"
     inkscape:window-width="1280"
     inkscape:window-height="998"
     inkscape:window-x="-4"
     inkscape:window-y="-4"
     inkscape:window-maximized="1"
     inkscape:object-nodes="true">
    <inkscape:grid
       empspacing="5"
       visible="true"
       enabled="true"
       snapvisiblegridlinesonly="true"
       type="xygrid"
       id="grid2816" />
  </sodipodi:namedview>
  <metadata
     id="metadata7">
    <rdf:RDF>
      <cc:Work
         rdf:about="">
        <dc:format>image/svg+xml</dc:format>
        <dc:type
           rdf:resource="http://purl.org/dc/dcmitype/StillImage" />
        <dc:title />
      </cc:Work>
    </rdf:RDF>
  </metadata>
  <g
     inkscape:label="Layer 1"
     inkscape:groupmode="layer"
     id="layer1"
     transform="translate(0,0)">
    <path
       style="color:#000000;fill:none;stroke:#c87137;stroke-width:3.99999928;stroke-linecap:round;stroke-linejoin:round;stroke-miterlimit:4;stroke-opacity:1;stroke-dasharray:none;stroke-dashoffset:0;marker:none;visibility:visible;display:inline;overflow:visible;enable-background:accumulate"
       d="m 51.559694,240.19414 c 0.887731,-4.75801 0.493594,-6.74119 0.05946,-11.48692 -0.588065,-6.42788 0.254698,-10.28578 0.937761,-16.67025 1.357463,-12.68808 -0.101751,-19.09058 -0.236962,-28.75897 -0.06779,-4.85037 0.571509,-10.89432 0.475948,-15.81704 -0.134827,-6.94495 -1.522366,-9.9594 -1.229339,-16.91355 0.09727,-7.26454 0.730209,-7.94179 0.704617,-15.10067"
       id="path2832"
       sodipodi:nodetypes="csssscc" />
    <path
       style="color:#000000;fill:none;stroke:#c87137;stroke-width:3.99999976;stroke-linecap:round;stroke-linejoin:round;stroke-miterlimit:4;stroke-opacity:1;stroke-dasharray:none;stroke-dashoffset:0;marker:none;visibility:visible;display:inline;overflow:visible;enable-background:accumulate"
       d="m 15.265157,138.35285 c 0.364485,3.69143 0.64971,7.38785 1.052865,11.11022 0.525378,4.85105 -1.393869,9.62827 -1.393869,14.53045 0,11.15857 2.365214,24.09117 0.341004,34.77142 -1.07441,5.66883 -0.77365,11.19335 0,16.29305 -0.204408,9.31058 1.546283,14.6975 0.0935,24.23035"
       id="path2850"
       sodipodi:nodetypes="cssscc" />
    <path
       style="color:#000000;fill:none;stroke:#80ff00;stroke-width:3.99999952;stroke-linecap:round;stroke-linejoin:round;stroke-miterlimit:4;stroke-opacity:1;stroke-dasharray:none;stroke-dashoffset:0;marker:none;visibility:visible;display:inline;overflow:visible;enable-background:accumulate"
       d="m 309.54035,221.42294 c 0.76599,-0.079 2.7763,1.82137 5.12759,2.92065 2.52354,1.17994 7.17462,6.22472 7.24894,6.68855 0.34566,2.15647 -4.07793,1.10484 -5.00159,1.15647 -2.52673,0.1413 -3.73131,-1.6631 -5.90975,-2.81809 -2.61193,-1.38491 -5.43771,-2.6686 -8.27435,-3.68315"
       id="path2870-1" />
    <path
       style="fill:none;stroke:#c87137;stroke-width:3.99999976000000010;stroke-linecap:round;stroke-linejoin:round;stroke-opacity:1;color:#000000;stroke-miterlimit:4;stroke-dasharray:none;stroke-dashoffset:0;marker:none;visibility:visible;display:inline;overflow:visible;enable-background:accumulate"
       d="m 342,221 c -6.07739,-1.15478 -13.21759,-5.43518 -17,-1 -7.46432,4.53941 -7.90991,8.62257 -8,12"
       id="path4395"
       sodipodi:nodetypes="ccc" />
    <path
       style="color:#000000;fill:none;stroke:#c87137;stroke-width:3.99999976;stroke-linecap:round;stroke-linejoin:round;stroke-miterlimit:4;stroke-opacity:1;stroke-dasharray:none;stroke-dashoffset:0;marker:none;visibility:visible;display:inline;overflow:visible;enable-background:accumulate"
       d="m 347.76736,235.47183 -12.58998,6.78176 c -4.03017,6.34685 -0.36322,8.12833 -6.17862,13.11772"
       id="path4397"
       sodipodi:nodetypes="ccc" />
    <path
       sodipodi:nodetypes="cssssc"
       id="path4261"
       d="m 483.2689,177.00376 c -3.22417,3.91307 -5.11883,4.92941 -9.2858,7.77096 -5.64406,3.84873 -8.16966,7.1204 -12.86222,11.96238 -9.32568,9.62259 -15.57705,12.75352 -23.52631,19.14521 -3.98793,3.20659 -8.4355,7.78441 -12.50218,11.01729 -5.73724,4.5609 -11.98972,8.94296 -17.42608,13.8542"
       style="color:#000000;fill:none;stroke:#c87137;stroke-width:3.99999905;stroke-linecap:round;stroke-linejoin:round;stroke-miterlimit:4;stroke-opacity:1;stroke-dasharray:none;stroke-dashoffset:0;marker:none;visibility:visible;display:inline;overflow:visible;enable-background:accumulate" />
    <path
       sodipodi:nodetypes="cssscc"
       id="path4263"
       d="m 382.59018,216.12322 c 2.97778,-2.08647 5.90746,-4.23634 8.93348,-6.3132 3.94351,-2.70664 6.23496,-7.2233 9.87314,-10.36183 8.28146,-7.14405 19.42488,-13.62697 26.02873,-22.00266 3.50514,-4.44563 7.80174,-7.75411 12.09201,-10.4313 6.77638,-6.11622 11.91821,-8.23504 18.04388,-15.44196"
       style="color:#000000;fill:none;stroke:#c87137;stroke-width:3.99999928;stroke-linecap:round;stroke-linejoin:round;stroke-miterlimit:4;stroke-opacity:1;stroke-dasharray:none;stroke-dashoffset:0;marker:none;visibility:visible;display:inline;overflow:visible;enable-background:accumulate" />
    <path
       style="color:#000000;fill:none;stroke:#c87137;stroke-width:3.99999976;stroke-linecap:round;stroke-linejoin:round;stroke-miterlimit:4;stroke-opacity:1;stroke-dasharray:none;stroke-dashoffset:0;marker:none;visibility:visible;display:inline;overflow:visible;enable-background:accumulate"
       d="m 294.80017,246.76101 c 1.18862,-10.86193 0.47694,-23.9692 1.92224,-37.67188 0.5786,-15.77038 -2.68515,-28.27712 -2.24261,-44.61145 0.48054,-11.42929 -0.54193,-19.06551 2.56299,-27.0973"
       id="path4281"
       sodipodi:nodetypes="cccc" />
    <path
       style="color:#000000;fill:none;stroke:#c87137;stroke-width:3.99999928;stroke-linecap:round;stroke-linejoin:round;stroke-miterlimit:4;stroke-opacity:1;stroke-dasharray:none;stroke-dashoffset:0;marker:none;visibility:visible;display:inline;overflow:visible;enable-background:accumulate"
       d="m 262.4424,139.95148 c -2.29913,15.00202 0.58707,17.0826 0.64074,29.31946 -0.65996,9.49521 -1.73579,18.48161 0,26.26534 -1.0679,18.6386 -0.85433,18.09566 -1.92223,25.04371 -0.83269,8.49993 0.52377,14.53128 1.28149,19.24089"
       id="path4277"
       sodipodi:nodetypes="ccccc" />
    <path
       sodipodi:nodetypes="cccc"
       id="path4306"
       d="m 148.98861,138.66485 c -1.18862,9.9207 -0.47693,21.89219 -1.92224,34.40748 -0.5786,14.4038 2.68515,25.82678 2.24261,40.74568 -0.48054,10.43889 0.54193,17.41342 -2.56298,24.74924"
       style="color:#000000;fill:none;stroke:#c87137;stroke-width:3.99999928;stroke-linecap:round;stroke-linejoin:round;stroke-miterlimit:4;stroke-opacity:1;stroke-dasharray:none;stroke-dashoffset:0;marker:none;visibility:visible;display:inline;overflow:visible;enable-background:accumulate" />
    <path
       sodipodi:nodetypes="ccccc"
       id="path4308"
       d="m 181.37406,237.25189 c 2.15804,-15.06449 -0.55104,-17.15373 -0.60143,-29.44154 0.61947,-9.53475 1.62928,-18.55856 0,-26.37472 1.00239,-18.71618 0.80191,-18.17099 1.80429,-25.14796 0.78159,-8.53535 -0.49163,-14.59179 -1.20286,-19.32101"
       style="color:#000000;fill:none;stroke:#c87137;stroke-width:3.99999928;stroke-linecap:round;stroke-linejoin:round;stroke-miterlimit:4;stroke-opacity:1;stroke-dasharray:none;stroke-dashoffset:0;marker:none;visibility:visible;display:inline;overflow:visible;enable-background:accumulate" />
    <path
       style="color:#000000;fill:none;stroke:#94f3f3;stroke-width:4;stroke-linecap:round;stroke-linejoin:round;stroke-miterlimit:4;stroke-opacity:1;stroke-dasharray:none;stroke-dashoffset:0;marker:none;visibility:visible;display:inline;overflow:visible;enable-background:accumulate"
       d="m 39.619391,-110.77094 c -9.135863,9.9354 -18.271726,42.368706 -27.40759,67.942262 C 1.671249,-24.310089 0.064002,3.209135 -14.434467,30.45736 c -3.675429,17.666723 -10.371132,44.612501 -23.41899,69.391043 -4.631391,11.583357 -8.7993,13.463877 -16.169751,34.430827 24.852231,4.6466 43.615791,-0.36575 63.951043,3.81699 l 44.917995,-3.81698 60.14442,3.05358 C 109.40722,128.93304 103.82419,116.84049 98.24117,89.238856 80.38175,42.285519 88.09666,52.010705 85.2987,37.327925 79.41249,20.955496 78.23044,1.809551 72.46391,-16.873207 66.37333,-27.614033 54.84583,-58.547509 48.755252,-82.52529 c -1.272461,-7.41299 -2.548626,-18.66902 -9.135861,-28.24565 z"
       id="path4156"
       sodipodi:nodetypes="ccccccccccccc" />
    <path
       sodipodi:nodetypes="cccccscccccccc"
       id="path4265"
       d="m 248.20465,135.76581 c -0.20298,-17.5846 -16.33526,-52.913851 -24.04753,-77.029145 -3.62216,-23.234798 -16.0331,-37.090878 -21.86823,-69.791957 -6.6457,-12.783042 -16.23701,-33.882869 -21.61152,-63.419225 -3.24655,-11.648453 -2.06559,-18.563183 -8.44857,-38.158493 -6.4702,15.27701 -11.72626,30.26358 -17.95005,43.246319 -14.13066,29.476265 -9.05714,33.479112 -15.85836,49.207764 -11.53345,20.551904 -12.93891,33.921648 -15.50009,46.457383 -7.68898,16.69842 -13.68063,35.400908 -18.80662,55.310562 -2.06258,9.451435 -11.4721,27.390192 -17.85791,53.058342 6.82503,4.93103 15.42331,-0.79852 31.46889,2.51778 21.40875,1.707 42.46087,0.25897 63.84278,-0.65954 10.12521,-0.61795 28.82071,0.48566 43.37993,1.54211 4.1959,1.22443 14.08353,0.1949 23.25728,-2.2819 z"
       style="color:#000000;fill:none;stroke:#94f3f3;stroke-width:3.99999928;stroke-linecap:round;stroke-linejoin:round;stroke-miterlimit:4;stroke-opacity:1;stroke-dasharray:none;stroke-dashoffset:0;marker:none;visibility:visible;display:inline;overflow:visible;enable-background:accumulate" />
    <path
       style="color:#000000;fill:none;stroke:#94f3f3;stroke-width:4;stroke-linecap:round;stroke-linejoin:round;stroke-miterlimit:4;stroke-opacity:1;stroke-dasharray:none;stroke-dashoffset:0;marker:none;visibility:visible;display:inline;overflow:visible;enable-background:accumulate"
       d="m 293.06141,-111.52833 c -0.21856,0.24554 -0.46223,0.49202 -0.68079,0.76267 -6.23243,14.84653 -11.91294,23.98642 -15.49809,37.531307 -3.81343,14.407298 -10.66872,21.727598 -14.89739,35.20316 -4.39056,11.600139 -6.44829,23.816332 -9.29085,31.991924 -9.81559,22.556072 -12.50114,32.884623 -18.58169,56.838854 -1.91508,12.610672 -5.9136,22.155683 -9.33089,31.42996 -2.03848,9.341031 -11.24093,26.992815 -17.62056,52.182565 21.20235,2.54356 38.16833,-1.05773 56.38581,2.6894 18.0382,-0.34407 37.69807,0.93735 52.62142,-2.52884 17.48708,-0.36155 34.97416,0.41964 52.46123,1.76618 -5.58302,-8.39979 -7.95277,-19.84436 -13.53579,-47.445993 C 338.9423,46.429673 340.48603,49.608834 339.47559,39.881387 334.22698,25.900892 326.9872,12.287505 322.93628,-10.414575 316.29057,-23.197618 309.92934,-40.446624 304.55482,-69.982986 301.33608,-81.53171 299.26224,-92.31473 293.06141,-111.52833 z"
       id="path4267"
       sodipodi:nodetypes="ccsccccccccccccc" />
    <path
       style="color:#000000;fill:none;stroke:#94f3f3;stroke-width:4;stroke-linecap:round;stroke-linejoin:round;stroke-miterlimit:4;stroke-opacity:1;stroke-dasharray:none;stroke-dashoffset:0;marker:none;visibility:visible;display:inline;overflow:visible;enable-background:accumulate"
       d="m 662.67013,3.292828 c -0.42734,0.1366057 -0.85457,0.2779609 -1.28042,0.4156492 -10.36982,0.3096159 -29.02834,7.8147978 -47.95355,15.5048018 -18.72914,6.403013 -37.15339,13.339569 -55.11591,21.736499 -12.72395,4.525908 -24.43678,10.595455 -37.62686,13.751086 -21.3957,11.845895 -43.64789,17.050028 -67.75023,27.441871 -11.77886,4.032012 -15.9102,2.1211 -36.5693,10.188907 5.52955,12.163488 13.69239,21.827618 21.90127,32.408288 12.69833,17.37779 27.55955,32.40688 42.22429,48.05288 7.08262,7.28972 18.44036,22.221 27.15486,33.97089 1.81634,3.98595 9.06579,10.83042 16.93135,16.18556 13.15489,-11.61683 20.29503,-35.76104 33.47827,-57.34005 10.38617,-16.87247 15.1773,-22.41171 22.59622,-30.67537 8.5256,-15.14445 22.22482,-28.5003 32.57437,-45.059805 8.12654,-27.164956 20.22947,-41.175333 34.10164,-60.792726 4.77011,-5.79895 12.45509,-14.110456 15.38752,-25.357624 -0.0988,-0.00334 -0.21225,0.00677 -0.3128,0.00492 0.0903,-0.1488191 0.16829,-0.2848559 0.25931,-0.4356942 z"
       id="path4271"
       sodipodi:nodetypes="ccccccccccccccccsc" />
    <path
       style="color:#000000;fill:none;stroke:#c87137;stroke-width:3.99999976;stroke-linecap:round;stroke-linejoin:round;stroke-miterlimit:4;stroke-opacity:1;stroke-dasharray:none;stroke-dashoffset:0;marker:none;visibility:visible;display:inline;overflow:visible;enable-background:accumulate"
       d="m 373.57969,262.29289 c -0.50217,3.5 -0.90508,7 -4,10.5 -5.33333,3.80165 -10.66667,5.94909 -16,8.5"
       id="path4399"
       sodipodi:nodetypes="ccc" />
    <path
       sodipodi:nodetypes="ccc"
       id="path4461"
       d="m 400.17637,265.35135 c -2.36335,3.49401 -0.83721,8.92628 -2.48824,14.19995 -1.67228,4.88267 -5.23096,9.28885 -11.74483,13.18313"
       style="color:#000000;fill:none;stroke:#c87137;stroke-width:3.99999976;stroke-linecap:round;stroke-linejoin:round;stroke-miterlimit:4;stroke-opacity:1;stroke-dasharray:none;stroke-dashoffset:0;marker:none;visibility:visible;display:inline;overflow:visible;enable-background:accumulate" />
    <path
       id="path2949"
       style="color:#000000;fill:none;stroke:#008000;stroke-width:4;stroke-linecap:butt;stroke-linejoin:miter;stroke-miterlimit:4;stroke-opacity:1;stroke-dasharray:none;stroke-dashoffset:0;marker:none;visibility:visible;display:inline;overflow:visible;enable-background:accumulate"
       d="m -16.945322,243.40252 c 18.883081,-3.19487 33.167642,-1.8392 50.399342,-3 17.12548,-0.6564 35.18095,0.6604 51.83091,1 20.56384,2.68689 38.86399,-1.25934 57.66908,-1 26.16999,-1.47445 39.98186,-0.4149 72.8704,0 20.69259,3.0158 40.8421,-0.77497 61.6296,3 13.45432,-2.74095 23.51704,8.26633 27.16772,19.752 9.86274,12.98592 12.39779,12.37718 23.39477,20.5673 13.80636,11.68179 13.37755,12.67377 30.75042,10.90644 7.48711,-0.81395 28.58765,10.17726 50.02471,6.99001 16.25,-2.25 26.56433,-16.15109 20.80025,-27.81066 -9.66667,-13 -34.82129,-7.868 -55.59188,-13.80761 -9.96862,-6.24485 -22.09183,-16.04322 -25,-25 -3.31438,-5.16329 -5.29554,-12.1598 -9.87875,-21.05426 -2.29112,-12.0251 -6.86645,-21.60497 4.64962,-21.95626 7.70557,4.84074 27.9862,-2.03628 33.63465,10.65019 5.08274,21.57161 12.06119,30.61067 29.79467,39.19352 27.12281,2.09156 40.36142,7.70504 52.75322,5.70238 10.79551,1.94312 23.00208,5.98872 35.42395,5.45162"
       sodipodi:nodetypes="ccccccccccccccccccc" />
    <path
       style="fill:none;stroke:#80ff00;stroke-width:3.99999976;stroke-linecap:round;stroke-linejoin:round;stroke-miterlimit:4;stroke-opacity:1;stroke-dasharray:none"
       d="m 104.43081,102.70887 c 1.81832,0.45142 0.008,-2.744073 2.13414,-2.12139 2.69512,-1.150848 3.83517,-4.009963 6.58087,-5.108995 1.60265,-1.106693 2.43411,-2.954359 4.07674,-4.021828 1.67524,-1.177326 2.77925,-2.829912 3.93982,-4.439765 1.08061,-1.348289 2.49397,-2.375068 3.68759,-3.609698 1.5575,-0.358192 2.24513,-1.414276 3.76368,-1.874957 1.82849,-0.563276 2.56583,-2.549602 4.65619,-2.766802 0.59671,0.630885 0.0612,2.430108 0.21255,3.521668 -0.0445,3.02759 -0.0873,6.0558 -0.13572,9.082228 -0.56394,1.665432 -0.27345,3.758918 -1.51553,5.049073 -0.66258,1.275778 -0.66737,2.856798 -1.04099,4.258276 -0.22437,1.62997 -0.64619,3.43028 -1.06234,5.06075 -0.23693,1.76174 -0.74045,3.42549 -0.59423,5.32385 0.11127,1.48694 0.22069,3.35015 -2.00702,2.3462 -1.714,-0.37646 -3.04295,-1.98865 -4.76922,-2.36023 -1.83658,-0.91981 -3.77566,-1.30048 -5.46371,-2.88244 -1.97139,-0.74421 -3.96582,-2.00702 -5.97559,-2.36694 -1.63276,-0.98743 -3.4747,-1.57911 -5.14553,-2.2804 -0.43024,-0.11525 -1.28812,-0.19718 -1.3414,-0.80852 z"
       id="path2942" />
    <path
       style="fill:none;stroke:#80ff00;stroke-width:3.99999976;stroke-linecap:round;stroke-linejoin:round;stroke-miterlimit:4;stroke-opacity:1;stroke-dasharray:none"
       d="m 116.09175,110.49761 c -3.36476,5.56137 -4.62301,10.28849 -5.34288,16.31533 -0.28745,12.41138 0.78788,22.25384 -0.79132,34.51222 0.81055,7.71762 -1.40759,17.66132 -1.30536,24.69146 -0.0221,6.44634 -1.29243,17.4098 0.12316,23.44144"
       id="path2952-1"
       sodipodi:nodetypes="ccccc" />
    <path
       style="fill:none;stroke:#80ff00;stroke-width:3.99999976;stroke-linecap:round;stroke-linejoin:round;stroke-miterlimit:4;stroke-opacity:1;stroke-dasharray:none"
       d="m 145.85234,146.12233 c -4.26656,-0.4424 -8.64511,-0.50522 -12.55956,-2.9257 -4.98004,-2.36619 -10.133,-4.38407 -14.92097,-7.50356 -3.24082,-1.38324 -11.58164,-3.39153 -5.09157,-5.55144 4.35843,-3.55581 8.85967,-6.37394 13.81365,-8.01898 5.01849,-2.21565 10.54437,-5.13962 15.35322,-6.10337 1.42646,0.71323 2.34444,-1.24211 3.77593,-0.78725"
       id="path2956" />
    <path
       style="fill:none;stroke:#80ff00;stroke-width:3.99999976;stroke-linecap:round;stroke-linejoin:round;stroke-miterlimit:4;stroke-opacity:1;stroke-dasharray:none"
       d="m 145.20517,222.29443 c -0.7333,-0.23535 -4.67309,-1.50005 -6.62531,-2.12678 -6.12602,-2.04415 -7.87582,-6.16897 -15.14044,-10.23625 -4.35886,-1.6419 -12.44488,-7.29288 -14.64306,-8.58277 4.86886,-1.51571 9.82487,-2.80789 14.66849,-4.37844 7.51007,-1.84268 14.28732,-5.19225 19.59393,-11.59969 0.56614,-0.93895 1.11391,-3.21648 2.65647,-1.8993"
       id="path2958" />
    <path
       style="color:#000000;fill:none;stroke:#80ff00;stroke-width:3.99999976;stroke-linecap:round;stroke-linejoin:round;stroke-miterlimit:4;stroke-opacity:1;stroke-dasharray:none;stroke-dashoffset:0;marker:none;visibility:visible;display:inline;overflow:visible;enable-background:accumulate"
       d="m 43.305869,162.08845 c -13.556368,11.63217 -19.967162,13.40803 -31.35469,28.86697 -5.9145084,8.02926 -7.5802314,16.20481 -1.991341,27.45174 6.464907,13.00977 10.922208,18.42581 25.063841,18.31061 11.386543,-0.0928 17.262295,-4.20813 26.195761,-6.32138 7.914702,-1.87225 17.01502,-0.74175 29.495435,-0.82269 9.031745,-0.0586 19.655235,-13.12782 18.297125,-19.37373"
       id="path4125-8"
       sodipodi:nodetypes="cssssss" />
    <path
       style="fill:none;stroke:#80ff00;stroke-width:3.99999952;stroke-linecap:round;stroke-linejoin:round;stroke-miterlimit:4;stroke-opacity:1;stroke-dasharray:none"
       d="m 268.86302,238.31036 c 0.77086,-3.34384 4.31284,-5.79726 5.24976,-9.06065 0.74332,-4.34778 2.44666,-7.21626 5.39423,-10.71078 1.41694,-2.43693 4.17061,-9.88194 5.24711,-4.51684 0.64797,3.53626 1.75067,4.9525 2.19281,9.1673 1.26551,4.20225 1.97811,6.57248 2.27031,10.48516 1.02291,2.586 3.88601,7.12647 3.38409,8.21824"
       id="path2956-7"
       sodipodi:nodetypes="ccccccc" />
    <path
       style="fill:none;stroke:#80ff00;stroke-width:3.99999952;stroke-linecap:round;stroke-linejoin:round;stroke-miterlimit:4;stroke-opacity:1;stroke-dasharray:none"
       d="m 215.77008,236.44979 c 0.20404,-0.58135 2.35928,-3.64197 2.90263,-5.18964 1.76696,-4.85491 4.77138,-6.53905 6.44756,-12.89484 3.2555,-4.7575 5.04064,-6.84722 8.18631,-10.57981 1.10702,3.92639 2.0334,7.91765 3.18483,11.82504 1.31148,6.04565 2.77736,5.63068 5.69929,12.36819 1.04976,1.19982 1.87234,3.39941 4.61564,5.71705"
       id="path2958-6"
       sodipodi:nodetypes="ccccccc" />
    <path
       style="color:#000000;fill:none;stroke:#80ff00;stroke-width:4;stroke-linecap:round;stroke-linejoin:round;stroke-miterlimit:4;stroke-opacity:1;stroke-dasharray:none;stroke-dashoffset:0;marker:none;visibility:visible;display:inline;overflow:visible;enable-background:accumulate"
       d="m 297.52111,212.95811 c -2.67165,-1.03145 -4.89143,-2.26301 -7.81709,-2.53656 -3.03634,-0.28354 -6.05102,-0.13411 -9.128,-0.0715 -3.38913,0.0689 -7.83812,-0.31436 -11.61625,-0.34757 -4.71925,-0.0415 -8.98564,0.76184 -13.78297,0.5974 -5.84946,-0.20042 -11.8246,-1.70803 -17.74483,-2.68756 -2.97702,-0.49255 -5.8852,-1.25721 -8.89796,-1.49591 -2.32397,-0.18395 -7.00314,-0.69097 -8.69451,0.006"
       id="path2833"
       sodipodi:nodetypes="csssssss" />
    <path
       style="color:#000000;fill:none;stroke:#80ff00;stroke-width:3.99999952;stroke-linecap:round;stroke-linejoin:round;stroke-miterlimit:4;stroke-opacity:1;stroke-dasharray:none;stroke-dashoffset:0;marker:none;visibility:visible;display:inline;overflow:visible;enable-background:accumulate"
       d="m 302.73119,225.68737 c -2.34454,-0.83854 -3.96888,-1.58985 -3.80869,-2.64665 0.29643,-1.95581 0.21704,-3.93729 0.40426,-5.9013 0.16189,-1.69744 -0.46043,-3.4012 -0.14858,-5.13744 0.33708,-1.87701 0.71065,-3.81246 0.59091,-5.71066 -0.11463,-1.81734 -0.35059,-3.6577 -0.70063,-5.47268 -0.17202,-0.89183 -0.6332,-1.24782 -0.27083,-1.79542 l 0,0 -2.9e-4,6.2e-4 c 0.71801,-1.08484 4.77179,2.34477 6.92029,3.20334 1.74606,0.6978 3.61835,1.12695 5.25827,2.00003 1.81898,0.96843 3.74326,2.25945 5.60276,3.14693 2.79134,1.33222 5.49043,2.32812 8.38242,3.46478 1.41385,0.55574 2.9427,0.47989 4.101,1.43567 1.43823,1.18698 4.75523,1.68404 4.66717,2.97509 -0.0817,1.20004 -3.19964,1.20944 -4.47461,2.32325 -0.53298,0.46559 -2.37899,0.34613 -2.96459,0.28566 -1.01375,-0.10475 -4.1339,0.78357 -5.23884,-0.2064 -0.533,-0.47732 -6.45948,-0.49462 -7.32283,-0.22918 -2.04055,0.62737 -8.21034,0.51512 -8.34403,1.06406 -0.31106,1.27814 3.06093,3.04899 4.156,2.93587"
       id="path5710" />
    <path
       style="color:#000000;fill:none;stroke:#80ff00;stroke-width:4;stroke-linecap:round;stroke-linejoin:round;stroke-miterlimit:4;stroke-opacity:1;stroke-dasharray:none;stroke-dashoffset:0;marker:none;visibility:visible;display:inline;overflow:visible;enable-background:accumulate"
       d="m 93.408819,237.81746 c 7.091421,-4.85936 18.610531,-0.2775 40.724191,-5.7196 7.9109,-1.94685 17.36477,4.97979 26.73381,1.54771 12.27504,-4.49672 20.7731,-5.94583 30.72214,-12.34151 7.64352,-4.9136 7.75138,-8.57928 14.95694,-10.63948 2.86919,-0.82035 7.78128,-3.93832 13.2936,-4.24264"
       id="path4125"
       sodipodi:nodetypes="csssss" />
    <path
       style="fill:none;stroke:#000000;stroke-width:4;stroke-linecap:round;stroke-linejoin:round;stroke-miterlimit:4;stroke-opacity:1;stroke-dasharray:none"
       d="m 425.90131,283.30823 c -1.16136,4.58599 -5.70602,9.02945 -9.0355,10.7052 -3.28152,0.95988 -4.6104,0.1544 -7.78239,0.27408 -3.09544,-1.16413 -2.49737,-7.17437 -2.33137,-9.88301 0.36405,-3.63852 2.42347,-4.23966 4.3977,-7.02171 1.76497,-2.35883 4.49805,-5.25035 7.44441,-3.14374 1.76009,3.34046 7.48072,4.36976 7.30715,9.06918 z"
       id="path5861"
       sodipodi:nodetypes="ccccccc" />
  </g>
</svg>
