<?xml version="1.0" encoding="UTF-8" standalone="no"?>
<!-- Created with Inkscape (http://www.inkscape.org/) -->

<svg
   xmlns:dc="http://purl.org/dc/elements/1.1/"
   xmlns:cc="http://creativecommons.org/ns#"
   xmlns:rdf="http://www.w3.org/1999/02/22-rdf-syntax-ns#"
   xmlns:svg="http://www.w3.org/2000/svg"
   xmlns="http://www.w3.org/2000/svg"
   xmlns:sodipodi="http://sodipodi.sourceforge.net/DTD/sodipodi-0.dtd"
   xmlns:inkscape="http://www.inkscape.org/namespaces/inkscape"
   width="480"
   height="320"
   id="svg2"
   version="1.1"
   inkscape:version="0.48.0 r9654"
   sodipodi:docname="itnas288.svg"
   inkscape:export-xdpi="90"
   inkscape:export-ydpi="90"
   inkscape:export-filename="itnas288.png">
  <defs
     id="defs4">
    <inkscape:perspective
       sodipodi:type="inkscape:persp3d"
       inkscape:vp_x="0 : 160 : 1"
       inkscape:vp_y="0 : 1000 : 0"
       inkscape:vp_z="480 : 160 : 1"
       inkscape:persp3d-origin="240 : 106.66667 : 1"
       id="perspective8" />
  </defs>
  <sodipodi:namedview
     id="base"
     pagecolor="#ffffff"
     bordercolor="#666666"
     borderopacity="1.0"
     inkscape:pageopacity="1"
     inkscape:pageshadow="2"
     inkscape:zoom="2"
     inkscape:cx="202.91074"
     inkscape:cy="132.2342"
     inkscape:document-units="px"
     inkscape:current-layer="layer2"
     showgrid="false"
     inkscape:snap-nodes="true"
     inkscape:snap-global="false"
     inkscape:snap-grids="true"
     showguides="true"
     inkscape:window-width="1280"
     inkscape:window-height="998"
     inkscape:window-x="1276"
     inkscape:window-y="-4"
     inkscape:window-maximized="1"
     inkscape:object-nodes="true">
    <inkscape:grid
       empspacing="5"
       visible="true"
       enabled="true"
       snapvisiblegridlinesonly="true"
       type="xygrid"
       id="grid2816" />
  </sodipodi:namedview>
  <metadata
     id="metadata7">
    <rdf:RDF>
      <cc:Work
         rdf:about="">
        <dc:format>image/svg+xml</dc:format>
        <dc:type
           rdf:resource="http://purl.org/dc/dcmitype/StillImage" />
        <dc:title></dc:title>
      </cc:Work>
    </rdf:RDF>
  </metadata>
  <g
     inkscape:label="Layer 1"
     inkscape:groupmode="layer"
     id="layer1"
     style="display:inline">
    <path
       style="color:#000000;fill:none;stroke:#0000ff;stroke-width:4;stroke-linecap:round;stroke-linejoin:round;stroke-miterlimit:4;stroke-opacity:1;stroke-dasharray:none;stroke-dashoffset:0;marker:none;visibility:visible;display:inline;overflow:visible;enable-background:accumulate"
       d="m 358.98822,282.84437 c 4.02343,-1.32674 11.26922,-2.5417 17.01932,-1.42114 15.78979,3.07705 38.53594,3.80523 53.97501,2.31841 7.30718,-0.7037 14.43518,-1.4538 22.01892,-1.35795 18.74035,0.23685 44.65353,2.83171 61.0227,-1.4104"
       id="path3053"
       inkscape:connector-curvature="0"
       sodipodi:nodetypes="csssc" />
    <path
       style="color:#000000;fill:none;stroke:#c87137;stroke-width:4;stroke-linecap:round;stroke-linejoin:round;stroke-miterlimit:4;stroke-opacity:1;stroke-dasharray:none;stroke-dashoffset:0;marker:none;visibility:visible;display:inline;overflow:visible;enable-background:accumulate"
       d="m 51.805924,247.2617 c 35.080818,-1.66487 45.89675,6.27416 78.068146,4.74396 9.9921,-0.47526 19.84584,-2.50809 29.54811,-0.56375 7.40845,1.48467 59.73828,14.52822 41.29669,-4.92402 -1.85374,-1.95533 -14.57138,-6.27682 -17.32765,-6.69303 -36.11877,-5.45388 -52.13142,-7.92629 -88.058748,-6.21743 -9.473158,0.45059 -19.7826,-2.98513 -29.12287,-1.36351 -2.881581,0.50021 -21.454651,6.64992 -18.750423,10.31606 1.440502,1.95293 2.362587,3.30456 4.346737,4.7017 z"
       id="path3075"
       inkscape:connector-curvature="0"
       sodipodi:nodetypes="cssssscsc" />
    <path
       inkscape:connector-curvature="0"
       style="fill:none;stroke:#80ff00;stroke-width:3.99999976;stroke-linecap:round;stroke-linejoin:round;stroke-miterlimit:4;stroke-opacity:1;stroke-dasharray:none"
       d="m 230.41678,260.43671 c 7.97253,-8.43137 12.56626,-6.58705 21.53285,-12.46643 11.30173,-6.02675 30.5576,-17.69018 33.18728,-22.49061 0.44502,-5.37864 2.24444,-15.98264 6.38739,1.79416 -1.35001,6.26315 -10.44566,10.88744 -17.6729,14.98214 -8.22349,3.47137 -12.40688,9.78057 -21.80409,13.78501 -4.07438,1.25532 -2.91179,1.70797 -8.51539,2.96034"
       id="path2956"
       sodipodi:nodetypes="ccccccc" />
    <path
       id="path4125"
       style="color:#000000;fill:none;stroke:#80ff00;stroke-width:4;stroke-linecap:round;stroke-linejoin:round;stroke-miterlimit:4;stroke-opacity:1;stroke-dasharray:none;stroke-dashoffset:0;marker:none;visibility:visible;display:inline;overflow:visible;enable-background:accumulate"
       d="m 289.57341,98.979796 c 31.76664,5.594434 33.48119,-1.483508 67.50867,9.262514 29.44087,9.29756 22.45567,17.76571 46.72934,38.63205 17.22653,14.80842 20.19851,9.24469 25.14739,27.31502 0.40351,1.47338 10.21749,42.13457 24.95202,45.56157 13.47891,38.02539 0.14249,50.11215 -19.52286,66.46528"
       inkscape:connector-curvature="0"
       sodipodi:nodetypes="cssscc"
       inkscape:transform-center-x="56.986372"
       inkscape:transform-center-y="-107.11822" />
    <path
       inkscape:connector-curvature="0"
       style="color:#000000;fill:none;stroke:#80ff00;stroke-width:4;stroke-linecap:round;stroke-linejoin:round;stroke-miterlimit:4;stroke-opacity:1;stroke-dasharray:none;stroke-dashoffset:0;marker:none;visibility:visible;display:inline;overflow:visible;enable-background:accumulate"
       d="m 266.30323,206.77572 c 6.49827,10.01706 9.1349,9.37695 16.06236,9.30779 7.59066,-0.0758 13.02792,5.08493 20.65793,6.43445 8.404,1.48648 18.63746,3.87899 25.87705,10.00704 8.95307,7.57845 19.02935,15.25242 28.3266,20.60846 12.69914,7.31584 22.73037,8.78937 34.90459,23.1742 4.81815,5.69304 11.8847,5.39948 18.20423,8.33576 8.95928,4.16279 16.19723,4.24959 24.05198,1.57281"
       id="path2833"
       sodipodi:nodetypes="csssssss" />
    <path
       style="color:#000000;fill:none;stroke:#008000;stroke-width:4;stroke-linecap:butt;stroke-linejoin:miter;stroke-miterlimit:4;stroke-opacity:1;stroke-dasharray:none;stroke-dashoffset:0;marker:none;visibility:visible;display:inline;overflow:visible;enable-background:accumulate"
       d="m -7.0710678,256.36039 c 41.5746948,-10.18023 49.7098238,-3.27623 91.9238818,1.41422 17.296036,1.92178 55.486656,-3.34148 72.831996,-1.41422 14.68805,3.98903 46.87766,6.29275 57.27565,7.77818 17.53383,2.50483 28.23596,-3.48486 45.96194,-2.12133 18.69057,9.15855 46.90141,4.65891 60.10408,7.77818 10.94445,2.73611 33.49823,11.18939 43.13351,16.97056 19.54397,17.1849 35.03452,18.85388 66.46804,14.84925 7.02574,-1.40515 22.67274,-1.42329 29.69848,-2.82843 12.23408,-2.44682 22.72942,-3.53554 35.35534,-3.53554"
       id="path3036"
       inkscape:connector-curvature="0"
       sodipodi:nodetypes="cccsccccsc" />
    <path
       style="color:#000000;fill:none;stroke:#808080;stroke-width:4;stroke-linecap:butt;stroke-linejoin:miter;stroke-miterlimit:4;stroke-opacity:1;stroke-dasharray:none;stroke-dashoffset:0;marker:none;visibility:visible;display:inline;overflow:visible;enable-background:accumulate"
       d="m -29,136 c 5.296423,-10.73021 18.175643,-14.75607 27.6971104,-18.33766 2.22493036,-0.83693 5.2374092,-4.83542 7.4526286,-5.92065 6.802095,-3.33236 14.469734,-2.85183 21.404528,-7.65075 3.316561,-2.29507 8.502239,-0.37592 11.861845,-1.94483 18.612379,-8.691823 46.445915,-7.483976 68.770358,-9.239923 18.93602,-1.489426 40.42566,-5.888703 56.42352,-13.836219 C 170.71132,76.038908 180.47384,69.305231 187,68 c 45.93973,-9.187947 79.59752,-7.900413 127,0 6.35669,1.059448 13.7787,-0.382511 20,1 11.66413,2.59203 25.45652,6.728262 36,12 8.83061,4.415303 24.9518,21.11532 37,28 11.48239,6.56137 24.31086,8.82771 37,12 12.19694,3.04924 23.82471,7.95618 36,11 9.97403,2.49351 23.70018,0 34,0"
       id="path3051"
       inkscape:connector-curvature="0"
       sodipodi:nodetypes="csssssssssssssc" />
    <path
       style="color:#000000;fill:none;stroke:#ff0000;stroke-width:4;stroke-linecap:butt;stroke-linejoin:miter;stroke-miterlimit:4;stroke-opacity:1;stroke-dasharray:none;stroke-dashoffset:0;marker:none;visibility:visible;display:inline;overflow:visible;enable-background:accumulate"
       d="m 177.11917,170.87106 c -3.74816,-0.6011 -14.32266,-2.72829 -17.10222,-0.71699 0.50592,4.52662 -11.74529,23.47815 -7.71232,29.14654 0.20287,15.55482 33.61852,18.55721 42.17823,14.86598 4.78464,-30.57264 21.95978,-36.98954 -17.36369,-43.29553 z"
       id="path3067"
       inkscape:connector-curvature="0"
       sodipodi:nodetypes="scccs" />
    <path
       style="color:#000000;fill:none;stroke:#00ffff;stroke-width:4;stroke-linecap:butt;stroke-linejoin:miter;stroke-miterlimit:4;stroke-opacity:1;stroke-dasharray:none;stroke-dashoffset:0;marker:none;visibility:visible;display:inline;overflow:visible;enable-background:accumulate"
       d="m 113.25714,225.81597 c 11.03106,-24.08421 -36.23947,-54.33136 -48.923692,-29.12855 -0.09346,4.47787 -1.671033,22.90659 -0.06564,24.99991 0.83114,0.83552 4.168842,-0.82239 4.999981,0.0131 7.826213,7.86741 31.634771,9.01975 43.989351,4.11551 z"
       id="path3069"
       inkscape:connector-curvature="0"
       sodipodi:nodetypes="cccsc" />
    <path
       style="color:#000000;fill:none;stroke:#c87137;stroke-width:4;stroke-linecap:round;stroke-linejoin:round;stroke-miterlimit:4;stroke-opacity:1;stroke-dasharray:none;stroke-dashoffset:0;marker:none;visibility:visible;display:inline;overflow:visible;enable-background:accumulate"
       d="m 154.14985,218.8413 c -2.52566,10.17154 45.63094,22.29002 79.47687,27.21074 1.80626,0.26256 27.06731,11.82069 44.07462,15.48872 14.43786,3.11386 21.19657,-1.26005 20.85271,-4.06752 -0.54749,-4.4698 -48.62281,-16.2351 -52.15414,-17.49129 -42.21184,-15.0159 -84.66178,-25.87099 -92.25006,-21.14065 z"
       id="path3073"
       inkscape:connector-curvature="0"
       sodipodi:nodetypes="cssssc" />
    <path
       style="color:#000000;fill:none;stroke:#80ff00;stroke-width:3.99999952;stroke-linecap:round;stroke-linejoin:round;stroke-miterlimit:4;stroke-opacity:1;stroke-dasharray:none;stroke-dashoffset:0;marker:none;visibility:visible;display:inline;overflow:visible;enable-background:accumulate"
       d="m 349.35022,274.66476 c 15.7021,5.34524 29.59118,14.97012 45.08779,20.16719 6.94082,3.6163 28.82809,8.90561 26.32616,-5.9253 -7.05947,5.97344 -6.3032,6.02375 -17.02567,3.92508 -10.00244,-5.73999 -24.77464,-8.51371 -30.72302,-17.47178 -2.11535,-3.18565 -16.2446,-9.32211 -20.54548,-11.7902"
       id="path3510"
       inkscape:connector-curvature="0"
       sodipodi:nodetypes="ccccsc" />
    <path
       style="color:#000000;fill:none;stroke:#808080;stroke-width:4;stroke-linecap:round;stroke-linejoin:round;stroke-miterlimit:4;stroke-opacity:1;stroke-dasharray:none;stroke-dashoffset:0;marker:none;visibility:visible;display:inline;overflow:visible;enable-background:accumulate"
       d="m 232.61637,178.85069 c -17.83109,10.09597 -1.9275,30.12264 -14.8825,27.7292 -5.35698,-0.98971 -13.15023,-3.82193 -12.07005,-9.60184 2.85203,-15.26086 6.78351,-13.52361 18.21403,-5.59096 4.49633,3.1204 11.81387,4.50014 12.96759,10.26424 2.1261,10.62231 -14.70154,29.88169 -23.38502,49.20489 -7.92458,17.63442 -40.23887,-14.93949 -27.99966,-27.21205 16.3105,-16.35495 27.11152,8.10249 23.41725,22.22525 -5.49456,21.00509 -33.90922,0.93703 -42.09642,7.82102"
       id="path3065"
       inkscape:connector-curvature="0"
       sodipodi:nodetypes="sssssssss" />
    <path
       style="fill:none;stroke:#80ff00;stroke-width:3.99999976;stroke-linecap:round;stroke-linejoin:round;stroke-miterlimit:4;stroke-opacity:1;stroke-dasharray:none"
       d="m 249.53726,160.09782 c -10.36203,-6.4255 -15.08949,-11.17134 -18.84767,-12.37302 -3.65045,1.97915 -1.77791,9.03916 -1.33838,12.17356 0.64685,8.90671 2.6513,7.15364 3.25767,16.99648 3.74001,10.97431 4.04774,16.71917 4.86218,24.64856 4.7855,9.75172 1.87765,16.14031 7.17619,15.10415 4.84416,-2.96317 8.70831,-2.67486 18.84113,-10.72322 18.39696,-11.74928 23.30876,-12.00926 24.81534,-15.36973 1.67195,-4.44979 -6.72193,-6.30807 -10.61379,-9.94933 -14.15254,-12.39247 -17.47795,-9.38544 -28.15267,-20.50745 z"
       id="path2942"
       inkscape:connector-curvature="0"
       sodipodi:nodetypes="cccccccccc" />
  </g>
  <g
     inkscape:groupmode="layer"
     id="layer2"
     inkscape:label="darkness"
     style="display:inline">
    <path
       id="path3122"
       style="fill:none;stroke:#000000;stroke-width:4;stroke-linecap:round;stroke-linejoin:round;stroke-miterlimit:4;stroke-opacity:1;stroke-dasharray:none"
       d="m 284.40411,164.5638 c 3.15826,9.37736 27.61147,4.58635 35.72863,4.10606 17.76731,-1.05128 38.4933,4.04253 52.40161,6.3449 11.15277,1.84622 21.49864,2.9969 30.66456,-2.02343 13.37114,-5.39531 13.48475,18.24564 5.89289,20.7036 -31.03306,6.19332 -25.88203,6.04612 -56.85889,-0.6752 -3.93366,-0.85352 -32.34339,-3.44593 -36.69533,-3.07663 -7.79299,0.66129 -21.74557,15.17834 2.52471,19.97771 6.55868,1.29696 10.62468,3.27374 27.00582,1.89185 12.68287,-1.06991 29.69848,4.59619 42.4264,4.59619 8.01388,0 16.02776,0 24.04164,0 12.60025,0 20.82221,-1.09809 29.69848,7.77818 0.50187,0.50187 2.74293,2.20681 1.41421,3.53553 -10.07742,10.07743 -49.64127,-1.45725 -62.22539,5.30331 -4.74827,2.55091 -24.78131,-7.42821 -22.27386,0 3.46007,10.25031 22.60505,12.71674 27.93071,15.55635 9.88445,5.27033 41.94061,-4.72845 57.98276,0.35355 7.61582,2.41262 -4.45072,14.84924 -8.48528,14.84924 -24.51304,0 -5.89256,3.53553 -30.4056,3.53553"
       inkscape:connector-curvature="0"
       sodipodi:nodetypes="cssccsssssssssssssc" />
    <path
       id="path3124"
       style="fill:none;stroke:#000000;stroke-width:4;stroke-linecap:round;stroke-linejoin:round;stroke-miterlimit:4;stroke-opacity:1;stroke-dasharray:none"
       d="m 464.92269,271.91675 c 10.86518,-13.56274 11.59601,-20.25937 6.01041,-32.17336 -7.44379,-15.87748 -4.24909,-16.15352 -1.76776,-36.06246 2.47764,-19.87936 -12.42317,2.69764 -17.44543,-5.25305 -5.78535,-9.15873 -9.43883,-18.43775 -2.12132,-19.11701 6.64817,-0.61713 23.35325,5.22756 21.22362,-4.38908 -2.96453,-13.38678 -32.21531,0.26705 -39.67947,-20.10229 -3.66676,-10.00641 19.01743,-5.56035 26.00179,-3.23223 7.58661,2.52887 16.692,-1.06067 16.97057,-6.71752 0.24343,-4.94348 -35.10683,-10.93866 -44.19418,-11.66726 -11.04956,-0.88593 -20.01222,-5.67536 -27.57716,-11.54594 -16.39013,-12.71914 -22.592,-19.24581 -43.26807,-29.258104 C 335.44349,80.954672 324.24307,91.078597 296,83 252.48451,70.552907 224.59859,72.403473 181.14214,81 c -7.17158,1.418678 -9.97591,9.731371 -4.31371,11.110913 6.1241,1.492078 12.00335,-2.198597 18.64645,-1.100505 15.36524,2.539848 34.98039,-4.746101 47.76776,-0.01041 9.01294,3.337865 25.52133,-3.429138 30.31723,10.455052 3.27678,9.48631 -13.17733,7.47743 -23.81723,7.54495 -27.23516,0.17284 -65.25265,2.51696 -90.27817,-4.94975 -6.72966,-2.00789 -15.17982,3.5 -23,3.5 -14.79262,0 -58.198556,-1.30555 -69.46447,2.44975 -12.256675,4.08556 -25.02446,4.5 -36,9 -4.177635,1.71284 -26.3458894,1.51586 -20,8.53553 8.168164,9.03544 52.134022,-3.65933 60,-2.53553 60.31588,8.61722 133.44612,-10.14466 180,0.88909 15.96573,3.78404 61.66874,-7.99951 74,-3.88909 10.44997,3.48332 19.08542,9 30.5,9 12.66256,0 25.93237,8.46619 22.89602,20.05473 C 375.35967,162.64328 348.44346,161.13652 325.5,148.5 297.8464,133.26928 274.48925,153.77441 250,143 c -17.39068,-7.65129 -12.23833,-0.39793 -41.02114,-0.84402 -24.27341,-0.3762 -52.99451,-2.63623 -73.74842,-0.50433 C 68.890604,148.46626 56.435236,134.78238 42,142 36.933333,144.53333 27.016414,140.46667 21.949747,143 17.351882,141.07256 9.071799,148.1436 11.5,153 c 2.673766,5.34753 7.922923,5.5 13.5,5.5 18.833334,0 37.666667,0 56.500001,0 8.635843,0 17.923034,-0.953 26.499999,0 19.75194,2.19466 40.12945,-7.2498 60,-1.5 9.41421,2.72412 44.02679,-0.5029 45.7028,4.5251"
       inkscape:connector-curvature="0"
       sodipodi:nodetypes="cssssssssssssssssssssssssssssssssscsssssc" />
    <path
       id="path3132"
       style="fill:none;stroke:#000000;stroke-width:4;stroke-linecap:round;stroke-linejoin:round;stroke-miterlimit:4;stroke-opacity:1;stroke-dasharray:none"
       d="m 143.78314,208.34205 c -4.09746,3.0048 -1.39842,12.93174 -5.57532,15.34327 -1.03401,0.597 -8.40761,0.92847 -10.06217,-3.4282 -2.91455,-7.67436 3.04987,-6.3588 -3.94002,-15.51553 -10.39449,-13.61674 0.73684,-9.83145 11.83273,-12.87436 5.89502,-1.61664 14.50692,-14.40818 -4.04877,-14.22078 C 111.5349,177.85303 105.23524,178.69712 92.500001,177.5 68.348803,175.22978 46.852677,172.37354 41.5,173.86622 32.032611,176.50634 6.3564186,171.74651 10,186.23794 c 4.269749,16.98186 46.342787,-5.55865 44,6.222 -3.789436,19.05508 -30.087011,7.81507 -40,16.33454 -7.784718,6.69038 -2.870748,17.75794 5.5,13.68578 12.332661,-5.99953 30.656618,-9.73258 23.5,0.16016 -9.117956,12.60394 -6.180683,10.6057 -15.5,15.85958 -7.631582,4.3024 -12.577556,1.30737 -16.892894,3.57068"
       inkscape:connector-curvature="0"
       sodipodi:nodetypes="sssssssssssssss" />
    <path
       style="color:#000000;fill:none;stroke:#000000;stroke-width:4;stroke-linecap:round;stroke-linejoin:round;stroke-miterlimit:4;stroke-opacity:1;stroke-dasharray:none;stroke-dashoffset:0;marker:none;visibility:visible;display:inline;overflow:visible;enable-background:accumulate"
       d="m 339.5,262.00003 c -4.9967,0.0342 -27.03837,-1.09722 -25.13636,-7.19389 0.69052,-2.21337 12.21607,-4.40047 11.38636,-6.17348 C 323.12521,243.02371 304.45451,240.87973 300,238.5"
       id="path3876"
       inkscape:connector-curvature="0"
       sodipodi:nodetypes="cssc" />
  </g>
</svg>
