<?xml version="1.0" encoding="UTF-8" standalone="no"?>
<!-- Created with Inkscape (http://www.inkscape.org/) -->

<svg
   xmlns:dc="http://purl.org/dc/elements/1.1/"
   xmlns:cc="http://creativecommons.org/ns#"
   xmlns:rdf="http://www.w3.org/1999/02/22-rdf-syntax-ns#"
   xmlns:svg="http://www.w3.org/2000/svg"
   xmlns="http://www.w3.org/2000/svg"
   xmlns:sodipodi="http://sodipodi.sourceforge.net/DTD/sodipodi-0.dtd"
   xmlns:inkscape="http://www.inkscape.org/namespaces/inkscape"
   width="480"
   height="320"
   id="svg2"
   version="1.1"
   inkscape:version="0.48.0 r9654"
   sodipodi:docname="itnas399.svg"
   inkscape:export-xdpi="90"
   inkscape:export-ydpi="90"
   enable-background="new"
   inkscape:export-filename="itnas399.png">
  <defs
     id="defs4">
    <inkscape:perspective
       sodipodi:type="inkscape:persp3d"
       inkscape:vp_x="0 : 160 : 1"
       inkscape:vp_y="0 : 1000 : 0"
       inkscape:vp_z="480 : 160 : 1"
       inkscape:persp3d-origin="240 : 106.66667 : 1"
       id="perspective8" />
    <filter
       inkscape:collect="always"
       id="filter4054">
      <feBlend
         inkscape:collect="always"
         mode="screen"
         in2="BackgroundImage"
         id="feBlend4056" />
    </filter>
  </defs>
  <sodipodi:namedview
     id="base"
     pagecolor="#ffffff"
     bordercolor="#666666"
     borderopacity="1.0"
     inkscape:pageopacity="1"
     inkscape:pageshadow="2"
     inkscape:zoom="1"
     inkscape:cx="292.83425"
     inkscape:cy="58.35271"
     inkscape:document-units="px"
     inkscape:current-layer="layer1"
     showgrid="false"
     inkscape:snap-nodes="true"
     inkscape:snap-global="false"
     inkscape:snap-grids="true"
     showguides="true"
     inkscape:window-width="1280"
     inkscape:window-height="998"
     inkscape:window-x="1276"
     inkscape:window-y="-4"
     inkscape:window-maximized="1"
     inkscape:snap-midpoints="false">
    <inkscape:grid
       empspacing="5"
       visible="true"
       enabled="true"
       snapvisiblegridlinesonly="true"
       type="xygrid"
       id="grid2816" />
  </sodipodi:namedview>
  <metadata
     id="metadata7">
    <rdf:RDF>
      <cc:Work
         rdf:about="">
        <dc:format>image/svg+xml</dc:format>
        <dc:type
           rdf:resource="http://purl.org/dc/dcmitype/StillImage" />
        <dc:title></dc:title>
      </cc:Work>
    </rdf:RDF>
  </metadata>
  <g
     inkscape:groupmode="layer"
     id="layer4"
     inkscape:label="f"
     style="display:inline">
    <path
       style="fill:none;stroke:#000000;stroke-width:6;stroke-linecap:butt;stroke-linejoin:miter;stroke-miterlimit:4;stroke-opacity:1;stroke-dasharray:none;display:inline"
       d="m 410,220 0,84 -10,0 0,-84 z"
       id="path5412"
       inkscape:connector-curvature="0"
       sodipodi:nodetypes="ccccc" />
    <path
       style="color:#000000;fill:none;stroke:#000000;stroke-width:6;stroke-linecap:butt;stroke-linejoin:miter;stroke-miterlimit:4;stroke-opacity:1;stroke-dasharray:none;stroke-dashoffset:0;marker:none;visibility:visible;display:inline;overflow:visible;enable-background:accumulate"
       d="m 180.5,144.5 -11,-16.5 0.5,-75.5 23,-25 49,-11 44.5,7 39,-10.5 41,-1.5 43.5,12.5 58,-0.5 6,-9.5 -6.5,-51"
       id="path3087"
       inkscape:connector-curvature="0"
       sodipodi:nodetypes="cccccccccccc" />
    <path
       sodipodi:nodetypes="ccccssc"
       d="m 346.3615,163.03118 10.17972,12.95552 10.45658,-13.26991 m 108.42381,-28.38586 c -26.56983,4.56717 -46.16209,10.91046 -53.62451,11.33619 -17.42634,0.99418 -27.67037,-1.52867 -42.46774,0.97195 -15.25409,2.5778 -24.49706,7.27242 -22.58834,25.57084"
       style="color:#000000;fill:none;stroke:#addbf8;stroke-width:6;stroke-linecap:butt;stroke-linejoin:miter;stroke-miterlimit:4;stroke-opacity:1;stroke-dasharray:3, 3;stroke-dashoffset:3;marker:none;visibility:visible;display:inline;overflow:visible;enable-background:accumulate"
       id="path4506-9"
       inkscape:connector-curvature="0" />
    <g
       id="g5124"
       style="color:#000000;fill:none;stroke:#000000;stroke-width:0.20787114;stroke-linecap:butt;stroke-linejoin:miter;stroke-miterlimit:4;stroke-opacity:1;stroke-dasharray:0.20787114, 0.41574228;stroke-dashoffset:0.33259382;marker:none;visibility:visible;display:inline;overflow:visible;enable-background:accumulate"
       transform="matrix(9.0197705,0,0,10.263042,-931.0582,-2106.4926)">
      <rect
         y="210"
         x="125"
         height="10"
         width="10"
         id="rect5118"
         style="color:#000000;fill:none;stroke:#000000;stroke-width:0.20787114;stroke-linecap:butt;stroke-linejoin:miter;stroke-miterlimit:4;stroke-opacity:1;stroke-dasharray:0.20787114, 0.41574228;stroke-dashoffset:0.33259382;marker:none;visibility:visible;display:inline;overflow:visible;enable-background:accumulate" />
      <path
         inkscape:connector-curvature="0"
         id="path5120"
         d="m 130,210 0,10"
         style="color:#000000;fill:none;stroke:#000000;stroke-width:0.20787114;stroke-linecap:butt;stroke-linejoin:miter;stroke-miterlimit:4;stroke-opacity:1;stroke-dasharray:0.20787114, 0.41574228;stroke-dashoffset:0.33259382;marker:none;visibility:visible;display:inline;overflow:visible;enable-background:accumulate" />
      <path
         inkscape:connector-curvature="0"
         id="path5122"
         d="m 135,215 -10,0"
         style="color:#000000;fill:none;stroke:#000000;stroke-width:0.20787114;stroke-linecap:butt;stroke-linejoin:miter;stroke-miterlimit:4;stroke-opacity:1;stroke-dasharray:0.20787114, 0.41574228;stroke-dashoffset:0.33259382;marker:none;visibility:visible;display:inline;overflow:visible;enable-background:accumulate" />
    </g>
    <path
       style="color:#000000;fill:none;stroke:#000000;stroke-width:6;stroke-linecap:butt;stroke-linejoin:miter;stroke-miterlimit:4;stroke-opacity:1;stroke-dasharray:3, 3;stroke-dashoffset:0;marker:none;visibility:visible;display:inline;overflow:visible;enable-background:accumulate"
       d="m 975.74358,102.74401 -87,11.81 -133.99198,9.63006 -135.00802,-3.57806 -45.00001,3.756 -98.99999,16.33 -50.7724,11.73083 -37.47666,0 -15.55635,3.18198 -0.35355,33.58757 m -30.05205,0.7071 -0.70711,-34.64823 -50.20458,5.65685 -88.38834,-5.65685 L 190.91883,143.23044 188.0904,81.71216 191.62593,45.64971 242,40.5 l 48,6 1.5,27 5.55291,4.90723 m 116.38739,15.79957 3.04559,-1.18094 54.25768,-33.82186 27,2.3929 22.73429,0.0903 0.9088,-5.41571 1.29181,-28.05811 -0.70061,-21.02618 -3.98419,0 -0.004,-4.00368 -23.73416,0 -6.73376,-64.796037 2.12132,-82.731493"
       id="path5363"
       inkscape:connector-curvature="0"
       sodipodi:nodetypes="cccccccccccccccccccccccccccccccccc" />
    <path
       style="color:#000000;fill:none;stroke:#ffcc00;stroke-width:2;stroke-linecap:butt;stroke-linejoin:miter;stroke-miterlimit:4;stroke-opacity:1;stroke-dasharray:none;stroke-dashoffset:0;marker:none;visibility:visible;display:inline;overflow:visible;enable-background:accumulate"
       d="m 364,215 c 1.70026,10.78889 -1.88732,16.99168 3.00146,16.53136 C 369.04459,231.33898 372.84201,224.96472 370,215"
       id="path4029"
       inkscape:connector-curvature="0" />
    <path
       style="color:#000000;fill:none;stroke:#ffcc00;stroke-width:2;stroke-linecap:butt;stroke-linejoin:miter;stroke-miterlimit:4;stroke-opacity:1;stroke-dasharray:none;stroke-dashoffset:0;marker:none;visibility:visible;display:inline;overflow:visible;enable-background:accumulate"
       d="m 360,215 c 1.22634,5.30068 2.03131,16.25456 -1.17438,16.34503 C 356.00212,231.42472 355.5,222.70657 354,215"
       id="path4027"
       inkscape:connector-curvature="0" />
    <path
       style="color:#000000;fill:none;stroke:#ffcc00;stroke-width:2;stroke-linecap:butt;stroke-linejoin:miter;stroke-miterlimit:4;stroke-opacity:1;stroke-dasharray:none;stroke-dashoffset:0;marker:none;visibility:visible;display:inline;overflow:visible;enable-background:accumulate"
       d="m 344,215 c -0.41421,6.7019 1.18812,15.6794 5.8396,15.92877 4.02719,0.2159 1.07134,-6.21991 0.1604,-15.92877"
       id="path4025"
       inkscape:connector-curvature="0" />
    <path
       style="color:#000000;fill:none;stroke:#ffcc00;stroke-width:2;stroke-linecap:butt;stroke-linejoin:miter;stroke-miterlimit:4;stroke-opacity:1;stroke-dasharray:none;stroke-dashoffset:0;marker:none;visibility:visible;display:inline;overflow:visible;enable-background:accumulate"
       d="m 340,215 c -0.11818,8.12366 0.81049,12.84923 3.89905,16.49004 4.13753,4.87735 10.95656,1.72117 13.10095,13.25996 1.41573,7.61792 1.91868,21.66809 2.82822,36.20664 0.24022,3.83976 0.70339,14.64574 -0.42323,15.23162 -4.44844,2.31334 -3.10178,10.03463 2.57763,9.76101 5.46769,0.57214 6.4262,-6.97013 3.8857,-8.75513 -1.36615,-0.95989 0.14428,-11.01994 0.0944,-14.19551 -0.28466,-18.10163 -2.34729,-26.98745 -1.21247,-39.24863 0.86146,-9.30768 5.82121,-8.18824 7.86413,-12.47263 2.04874,-4.29678 2.8856,-9.6822 1.38563,-16.27737"
       id="path4023"
       inkscape:connector-curvature="0"
       sodipodi:nodetypes="csssscscscc" />
    <rect
       style="color:#000000;fill:none;stroke:#b344ac;stroke-width:4;stroke-linecap:butt;stroke-linejoin:miter;stroke-miterlimit:4;stroke-opacity:1;stroke-dasharray:none;stroke-dashoffset:0;marker:none;visibility:visible;display:inline;overflow:visible;enable-background:accumulate"
       id="rect3458"
       width="315"
       height="70"
       x="170"
       y="145" />
    <path
       sodipodi:nodetypes="ccccccc"
       inkscape:connector-curvature="0"
       id="path3035"
       d="M 297.05291,78.40723 313,92.5 l 7.31937,23.15328 22.62742,12.02083 23.33452,-2.12132 15.55635,-19.09189 31.60264,-12.2541"
       style="color:#000000;fill:none;stroke:#aa0000;stroke-width:6;stroke-linecap:butt;stroke-linejoin:miter;stroke-miterlimit:4;stroke-opacity:1;stroke-dasharray:3, 3;stroke-dashoffset:0;marker:none;visibility:visible;display:inline;overflow:visible;enable-background:accumulate" />
    <path
       sodipodi:type="arc"
       style="color:#000000;fill:none;stroke:#ffcc00;stroke-width:2;stroke-linecap:butt;stroke-linejoin:miter;stroke-miterlimit:4;stroke-opacity:1;stroke-dasharray:none;stroke-dashoffset:0;marker:none;visibility:visible;display:inline;overflow:visible;filter:url(#filter4054);enable-background:accumulate"
       id="path3998"
       sodipodi:cx="362.5"
       sodipodi:cy="299.5"
       sodipodi:rx="5"
       sodipodi:ry="5"
       d="m 367.5,299.5 a 5,5 0 1 1 -10,0 5,5 0 1 1 10,0 z"
       transform="matrix(0.5,0,0,0.5,180.85545,150.9286)" />
    <path
       sodipodi:nodetypes="ccccc"
       inkscape:connector-curvature="0"
       id="path5414"
       d="m 190,220.00001 0,84 -10,0 0,-84 z"
       style="fill:none;stroke:#000000;stroke-width:6;stroke-linecap:butt;stroke-linejoin:miter;stroke-miterlimit:4;stroke-opacity:1;stroke-dasharray:none;display:inline" />
    <rect
       style="color:#000000;fill:none;stroke:#000000;stroke-width:4;stroke-linecap:butt;stroke-linejoin:miter;stroke-miterlimit:4;stroke-opacity:1;stroke-dasharray:none;stroke-dashoffset:0;marker:none;visibility:visible;display:inline;overflow:visible;enable-background:accumulate"
       id="rect4069"
       width="95"
       height="20"
       x="300"
       y="30"
       ry="10" />
    <rect
       ry="10"
       y="70"
       x="300"
       height="20"
       width="95"
       id="rect4071"
       style="color:#000000;fill:none;stroke:#000000;stroke-width:4;stroke-linecap:butt;stroke-linejoin:miter;stroke-miterlimit:4;stroke-opacity:1;stroke-dasharray:none;stroke-dashoffset:0;marker:none;visibility:visible;display:inline;overflow:visible;enable-background:accumulate" />
    <rect
       style="color:#000000;fill:none;stroke:#000000;stroke-width:4;stroke-linecap:butt;stroke-linejoin:miter;stroke-miterlimit:4;stroke-opacity:1;stroke-dasharray:none;stroke-dashoffset:0;marker:none;visibility:visible;display:inline;overflow:visible;enable-background:accumulate"
       id="rect4073"
       width="95"
       height="20"
       x="300"
       y="110"
       ry="10" />
  </g>
  <g
     inkscape:label="Layer 1"
     inkscape:groupmode="layer"
     id="layer1"
     style="display:inline">
    <path
       style="color:#000000;fill:none;stroke:#006680;stroke-width:2;stroke-linecap:butt;stroke-linejoin:miter;stroke-miterlimit:4;stroke-opacity:1;stroke-dasharray:4,2;stroke-dashoffset:0;marker:none;visibility:visible;display:inline;overflow:visible;enable-background:accumulate"
       d="m 137.75,216.25 c 2.07436,-4.22008 6.07282,-9.99984 10.26005,-14.66385 5.3033,-5.90715 10.24664,-3.86274 11.12318,-7.43378 1.24491,-5.07182 5.11399,-17.15473 7.86651,-17.15273 C 167.32179,176.99983 168,177 168,177"
       id="path4389"
       inkscape:connector-curvature="0"
       sodipodi:nodetypes="csssc" />
    <g
       style="display:inline"
       id="g5142"
       transform="matrix(2.4999993,0,0,2.0000012,-834.99971,-154.00029)">
      <rect
         y="200"
         x="360"
         height="20"
         width="20"
         id="rect5063"
         style="color:#000000;fill:none;stroke:#59bbbc;stroke-width:0.89442706;stroke-linecap:butt;stroke-linejoin:bevel;stroke-miterlimit:4;stroke-opacity:1;stroke-dasharray:none;stroke-dashoffset:0;marker:none;visibility:visible;display:inline;overflow:visible;enable-background:accumulate" />
      <path
         inkscape:connector-curvature="0"
         id="path5065-9"
         d="m 370.49997,190.00003 -20.49999,19.99999 19.99999,20 20,-20 -19.5,-19.99999 z"
         style="fill:none;stroke:#59bbbc;stroke-width:0.89442706;stroke-linecap:butt;stroke-linejoin:bevel;stroke-miterlimit:4;stroke-opacity:1;stroke-dasharray:none;display:inline" />
      <rect
         y="190"
         x="350"
         height="40"
         width="40"
         id="rect5089"
         style="color:#000000;fill:none;stroke:#59bbbc;stroke-width:0.89442706;stroke-linecap:butt;stroke-linejoin:miter;stroke-miterlimit:4;stroke-opacity:1;stroke-dasharray:none;stroke-dashoffset:0;marker:none;visibility:visible;display:inline;overflow:visible;enable-background:accumulate" />
    </g>
    <path
       style="color:#000000;fill:none;stroke:#006680;stroke-width:2;stroke-linecap:butt;stroke-linejoin:bevel;stroke-miterlimit:4;stroke-opacity:1;stroke-dasharray:none;stroke-dashoffset:0;marker:none;visibility:visible;display:inline;overflow:visible;enable-background:accumulate"
       d="m 370,132 c 0,10 1.98378,38.35247 -2.16117,78.37437 -6.58491,63.58103 -12.64356,84.29724 -26.29231,90.65587 -3.99593,1.86162 -5.87117,2.5323 -36.96631,2.96472 -5.14925,0.0716 -7.08021,0.65271 -7.08021,-1.25966 0,-1.65186 3.71635,-0.94838 8.1065,-0.96464 11.67633,-0.0432 32.56515,2.04565 41.72468,2.04565 1.78945,0 3.23326,-0.23864 3.22948,1.51212 -0.003,1.61398 -10.26647,0.68664 -29.19552,0.68664 -24.15669,0 -59.10462,1.34148 -78.4015,-1.82314 -7.95627,-1.3048 -35.35374,-2.64793 -35.28686,-0.80544 C 207.85104,308.18788 239.321,301.3806 239,305 c -0.21639,2.43988 -71.831,-0.3931 -116.00485,1.00041 -8.8551,0.27933 -12.33044,-7.55121 -19.42409,-7.29872 -8.93688,0.3181 -5.779291,0.37081 -12.208056,0.0535 C 86.290326,298.50481 84.922096,297.16637 85,300.75"
       id="path4077"
       inkscape:connector-curvature="0"
       sodipodi:nodetypes="sssssssssssssssc" />
    <path
       style="color:#000000;fill:#ffffff;stroke:#d35f5f;stroke-width:2;stroke-linecap:butt;stroke-linejoin:miter;stroke-miterlimit:4;stroke-opacity:1;stroke-dashoffset:0;marker:none;visibility:visible;display:inline;overflow:visible;enable-background:accumulate"
       d="m 65,301 40,0 0,5 -40,0 z"
       id="rect4094"
       inkscape:connector-curvature="0"
       sodipodi:nodetypes="ccccc" />
    <path
       style="color:#000000;fill:none;stroke:#006680;stroke-width:2;stroke-linecap:butt;stroke-linejoin:bevel;stroke-miterlimit:4;stroke-opacity:1;stroke-dasharray:none;stroke-dashoffset:0;marker:none;visibility:visible;display:inline;overflow:visible;enable-background:accumulate"
       d="m 10.5,239 c 12.855839,3.07626 13.444277,12.61102 21,12.75"
       id="path4127"
       inkscape:connector-curvature="0"
       sodipodi:nodetypes="cc" />
    <path
       style="color:#000000;fill:none;stroke:#006680;stroke-width:2;stroke-linecap:butt;stroke-linejoin:bevel;stroke-miterlimit:4;stroke-opacity:1;stroke-dasharray:none;stroke-dashoffset:0;marker:none;visibility:visible;display:inline;overflow:visible;enable-background:accumulate"
       d="m 12,245 c 3.185592,3.43585 3.813281,9.80338 9.064523,12.86039 4.801569,2.79524 3.74573,10.19129 0.185477,11.13961"
       id="path4135"
       inkscape:connector-curvature="0"
       sodipodi:nodetypes="csc" />
    <g
       style="display:inline"
       id="g4159"
       transform="matrix(-0.99488621,-0.10100254,0.10100254,-0.99488621,508.72611,461.70923)">
      <path
         style="color:#000000;fill:none;stroke:#ff0101;stroke-width:2;stroke-linecap:butt;stroke-linejoin:miter;stroke-miterlimit:4;stroke-opacity:1;stroke-dasharray:none;stroke-dashoffset:0;marker:none;visibility:visible;display:inline;overflow:visible;enable-background:accumulate"
         d="m 318.49316,195.55616 -60.45101,-9.2238"
         id="path5387"
         inkscape:connector-curvature="0" />
      <path
         id="path4679-3"
         d="m 304.41897,188.35079 14.07419,7.20537 -15.58257,2.68021"
         style="color:#000000;fill:none;stroke:#ff0101;stroke-width:2;stroke-linecap:butt;stroke-linejoin:miter;stroke-miterlimit:4;stroke-opacity:1;stroke-dasharray:none;stroke-dashoffset:0;marker:none;visibility:visible;display:inline;overflow:visible;enable-background:accumulate"
         inkscape:connector-curvature="0" />
    </g>
    <path
       sodipodi:nodetypes="cssssssc"
       inkscape:connector-curvature="0"
       id="path8173"
       d="m 229.98164,237.01806 c 14.86333,1.70009 23.55144,-1.85586 35.29249,-1.43313 11.46394,0.4127 0.1073,-1.08412 -12.55399,-1.45599 -4.82818,-0.14182 -15.04601,2.48709 -19.89893,1.92369 -3.45542,-0.4012 -4.55821,-0.83426 0.0509,-1.19237 14.41549,-1.1201 10.8859,0.67911 20.19208,0.67278 11.39996,-0.008 16.18288,-0.65479 15.38005,-2.16844 -0.81589,-1.53823 -27.64746,-0.023 -38.96539,0.10484"
       style="color:#000000;fill:none;stroke:#808080;stroke-width:2;stroke-linecap:butt;stroke-linejoin:miter;stroke-miterlimit:4;stroke-opacity:1;stroke-dasharray:none;stroke-dashoffset:0;marker:none;visibility:visible;display:inline;overflow:visible;enable-background:accumulate" />
    <g
       style="display:inline"
       id="g4662"
       transform="matrix(-0.0674079,-0.99772551,0.99772551,-0.0674079,-938.08634,856.9386)">
      <path
         sodipodi:open="true"
         sodipodi:end="7.8539816"
         sodipodi:start="4.712389"
         d="M 5.0000001,620 C 7.7614238,620 10,622.23858 10,625 c -10e-8,2.76142 -2.2385762,5 -4.9999998,5"
         sodipodi:ry="5"
         sodipodi:rx="5"
         sodipodi:cy="625"
         sodipodi:cx="5"
         id="path4545"
         style="color:#000000;fill:none;stroke:#00ff00;stroke-width:1;stroke-linecap:butt;stroke-linejoin:miter;stroke-miterlimit:4;stroke-opacity:1;stroke-dasharray:none;stroke-dashoffset:0;marker:none;visibility:visible;display:inline;overflow:visible;enable-background:accumulate"
         sodipodi:type="arc"
         transform="matrix(0,2,-2,0,1780,1200)" />
      <path
         transform="matrix(0,2,-2,0,1780,1220)"
         sodipodi:type="arc"
         style="color:#000000;fill:none;stroke:#00ff00;stroke-width:1;stroke-linecap:butt;stroke-linejoin:miter;stroke-miterlimit:4;stroke-opacity:1;stroke-dasharray:none;stroke-dashoffset:0;marker:none;visibility:visible;display:inline;overflow:visible;enable-background:accumulate"
         id="path4547"
         sodipodi:cx="5"
         sodipodi:cy="625"
         sodipodi:rx="5"
         sodipodi:ry="5"
         d="m 10,625 c 0,2.76142 -2.2385763,5 -5,5 -2.7614237,0 -5,-2.23858 -5,-5 0,-2.76142 2.2385763,-5 5,-5 2.7614237,0 5,2.23858 5,5 z" />
      <path
         sodipodi:open="true"
         sodipodi:end="4.712389"
         sodipodi:start="1.5707963"
         d="M 5.0000001,630 C 2.2385764,630 7.3992065e-8,627.76142 0,625 c -7.3992064e-8,-2.76142 2.2385761,-5 4.9999999,-5 0,0 1e-7,0 2e-7,0"
         sodipodi:ry="5"
         sodipodi:rx="5"
         sodipodi:cy="625"
         sodipodi:cx="5"
         id="path4549"
         style="color:#000000;fill:none;stroke:#00ff00;stroke-width:1;stroke-linecap:butt;stroke-linejoin:miter;stroke-miterlimit:4;stroke-opacity:1;stroke-dasharray:none;stroke-dashoffset:0;marker:none;visibility:visible;display:inline;overflow:visible;enable-background:accumulate"
         sodipodi:type="arc"
         transform="matrix(0,2,-2,0,1780,1240)" />
    </g>
    <path
       sodipodi:nodetypes="sssss"
       inkscape:connector-curvature="0"
       id="path4161"
       d="m 230.21383,237.44618 c 4.9902,-1.59918 15.49126,-5.10613 22.85458,-5.98085 8.14527,-0.96764 16.73131,-2.84924 17.41076,0.92025 1.18633,6.58136 -10.38634,3.92052 -16.37282,4.09451 -14.35468,0.41722 -14.3014,-7.53851 -27.10988,-4.83043"
       style="color:#000000;fill:none;stroke:#6600ff;stroke-width:2;stroke-linecap:butt;stroke-linejoin:bevel;stroke-miterlimit:4;stroke-opacity:1;stroke-dasharray:none;stroke-dashoffset:0;marker:none;visibility:visible;display:inline;overflow:visible;enable-background:accumulate" />
    <path
       sodipodi:nodetypes="ccccc"
       id="path10281-7"
       d="m 229.9669,247.12432 -19.37697,-4.9531 21.85352,-4.73532 -19.37697,-4.95313 16.90042,14.64155 z"
       style="color:#000000;fill:none;stroke:#b344ac;stroke-width:2;stroke-linecap:butt;stroke-linejoin:bevel;stroke-miterlimit:4;stroke-opacity:1;stroke-dasharray:none;stroke-dashoffset:0;marker:none;visibility:visible;display:inline;overflow:visible;enable-background:accumulate"
       inkscape:connector-curvature="0" />
    <g
       transform="matrix(0.1262966,0.99199253,0.99199253,-0.1262966,72.609731,110.24144)"
       style="color:#000000;fill:none;stroke:#000000;stroke-width:2;stroke-linecap:butt;stroke-linejoin:bevel;stroke-miterlimit:4;stroke-opacity:1;stroke-dasharray:none;stroke-dashoffset:0;marker:none;visibility:visible;display:inline;overflow:visible;enable-background:accumulate"
       id="g3151">
      <rect
         style="color:#000000;fill:none;stroke:#000000;stroke-width:2;stroke-linecap:butt;stroke-linejoin:bevel;stroke-miterlimit:4;stroke-opacity:1;stroke-dasharray:none;stroke-dashoffset:0;marker:none;visibility:visible;display:inline;overflow:visible;enable-background:accumulate"
         id="rect3126"
         width="10"
         height="20"
         x="150"
         y="120" />
      <rect
         style="color:#000000;fill:none;stroke:#000000;stroke-width:2;stroke-linecap:butt;stroke-linejoin:bevel;stroke-miterlimit:4;stroke-opacity:1;stroke-dasharray:none;stroke-dashoffset:0;marker:none;visibility:visible;display:inline;overflow:visible;enable-background:accumulate"
         id="rect3128"
         width="20"
         height="20"
         x="145"
         y="120"
         ry="5" />
    </g>
    <path
       sodipodi:nodetypes="ccccc"
       id="path10281-17"
       d="m 231.437,247.53547 -1.77949,-9.84041 6.69968,8.95066 -1.77948,-9.8404 -3.14071,10.73015 z"
       style="color:#000000;fill:none;stroke:#b344ac;stroke-width:2;stroke-linecap:butt;stroke-linejoin:bevel;stroke-miterlimit:4;stroke-opacity:1;stroke-dasharray:none;stroke-dashoffset:0;marker:none;visibility:visible;display:inline;overflow:visible;enable-background:accumulate"
       inkscape:connector-curvature="0" />
    <g
       transform="matrix(0.13279856,-0.99114306,0.99114306,0.13279856,54.617692,479.43152)"
       id="g2902">
      <g
         transform="matrix(0.85979468,-0.5106399,0.5106399,0.85979468,32.690973,160.00416)"
         id="g2937">
        <path
           sodipodi:nodetypes="cccc"
           d="m 208.30239,56.809745 c 0,0 -14.55766,-39.164966 -14.55766,-39.164966 l -12.23664,39.211847 c 0,0 26.7943,-0.04688 26.7943,-0.04688 z"
           style="fill:#ffffff;stroke:none"
           id="path4055"
           inkscape:connector-curvature="0" />
        <path
           inkscape:connector-curvature="0"
           style="color:#000000;fill:none;stroke:#0000ff;stroke-width:4;stroke-linecap:butt;stroke-linejoin:bevel;stroke-miterlimit:4;stroke-opacity:1;stroke-dasharray:none;stroke-dashoffset:0;marker:none;visibility:visible;display:inline;overflow:visible;enable-background:accumulate"
           d="m 206.19224,50.959145 -22.97456,0.002"
           id="path3028-1-1" />
        <path
           inkscape:connector-curvature="0"
           style="color:#000000;fill:none;stroke:#0000ff;stroke-width:3.99999976;stroke-linecap:butt;stroke-linejoin:bevel;stroke-miterlimit:4;stroke-opacity:1;stroke-dasharray:none;stroke-dashoffset:0;marker:none;visibility:visible;display:inline;overflow:visible;enable-background:accumulate"
           d="m 199.99646,42.691859 -11.26117,0.06514"
           id="rect10452-0-7-5-7" />
        <path
           inkscape:connector-curvature="0"
           id="path10399-9-40"
           style="fill:none;stroke:#00ff00;stroke-width:2;stroke-linecap:butt;stroke-linejoin:miter;stroke-miterlimit:4;stroke-opacity:1;stroke-dasharray:none"
           d="m 208.30239,56.809745 c 0,0 -14.55766,-39.164966 -14.55766,-39.164966 l -12.23664,39.211847 c 0,0 26.7943,-0.04688 26.7943,-0.04688 z"
           sodipodi:nodetypes="cccc" />
      </g>
      <path
         inkscape:connector-curvature="0"
         sodipodi:nodetypes="csssss"
         id="path2826-1-9"
         d="m 230.14706,109.99013 c 0,0 2.61298,4.43107 6.64979,18.54396 5.5518,19.40938 9.93674,40.85602 12.40452,60.76514 1.95929,15.80686 -13.97079,29.25688 -24.69513,49.30981 -8.67989,16.23011 -7.07125,27.03937 -3.16843,32.65707 9.74535,14.02738 -2.97739,16.22147 -0.78731,55.25668"
         style="fill:none;stroke:#00ff00;stroke-width:4;stroke-linecap:butt;stroke-linejoin:miter;stroke-miterlimit:4;stroke-opacity:1;stroke-dasharray:none;marker-start:none;marker-mid:none;marker-end:none" />
      <path
         inkscape:connector-curvature="0"
         sodipodi:nodetypes="ccccccccc"
         d="m 200.52742,190.06024 0.89632,5.91073 23.65723,11.55136 16.28345,-16.8593 7.49184,-0.79128 -7.58509,0.66853 -18.33432,13.24922 -22.07078,-12.07991 -0.94079,-5.68886"
         style="fill:none;stroke:#00ff00;stroke-width:2px;stroke-linecap:butt;stroke-linejoin:miter;stroke-opacity:1"
         id="path10436-7-4" />
      <path
         inkscape:connector-curvature="0"
         sodipodi:nodetypes="ccccccccc"
         d="m 192.65712,131.55661 0.87207,5.17864 20.24715,7.23037 18.59781,-14.66482 4.4288,-1.04702 -4.47744,0.94222 -21.51609,12.45973 -18.03451,-9.16974 -0.51385,-4.862"
         style="fill:none;stroke:#00ff00;stroke-width:2px;stroke-linecap:butt;stroke-linejoin:miter;stroke-opacity:1"
         id="path10402-6-4-8" />
      <path
         style="fill:none;stroke:#0000ff;stroke-width:2;stroke-linecap:butt;stroke-linejoin:miter;stroke-miterlimit:4;stroke-opacity:1;stroke-dasharray:none;display:inline"
         d="m 229.15493,121.71858 c 2.39107,0.72291 5.05382,2.27683 7.43003,2.51273 2.37624,0.23583 4.37645,-1.23272 3.75467,-3.21903 -0.62179,-1.9863 -3.01281,-2.19439 -5.00611,-0.86027 -1.99321,1.33411 -2.93819,4.23672 -4.30141,6.5345"
         id="path3030-6-8"
         sodipodi:nodetypes="czzzc"
         inkscape:connector-curvature="0" />
      <g
         id="g2942"
         transform="matrix(0.36821348,-0.15626529,0.15626529,0.36821348,143.56549,103.18018)"
         style="stroke-width:5;stroke-miterlimit:4;stroke-dasharray:none;display:inline">
        <path
           sodipodi:nodetypes="cc"
           id="rect10452-1-7-4-2-2"
           d="m 206.66319,105.19515 c -7.91409,4.26712 -8.11323,10.1635 -0.17602,15.48704"
           style="fill:none;stroke:#0000ff;stroke-width:5;stroke-linecap:butt;stroke-linejoin:miter;stroke-miterlimit:4;stroke-opacity:1;stroke-dasharray:none"
           inkscape:connector-curvature="0" />
        <path
           sodipodi:nodetypes="cc"
           id="rect10452-1-4-4-0-7-4"
           d="m 179.489,105.38873 c 8.38416,3.32675 8.29912,11.94162 0.0734,15.23703"
           style="fill:none;stroke:#0000ff;stroke-width:5;stroke-linecap:butt;stroke-linejoin:miter;stroke-miterlimit:4;stroke-opacity:1;stroke-dasharray:none"
           inkscape:connector-curvature="0" />
        <path
           id="rect10452-0-7-4-1-5"
           d="m 193.13509,122.31481 0.17678,-18.66053"
           style="fill:none;stroke:#0000ff;stroke-width:5;stroke-linecap:butt;stroke-linejoin:bevel;stroke-miterlimit:4;stroke-opacity:1;stroke-dasharray:none"
           inkscape:connector-curvature="0" />
      </g>
    </g>
    <path
       sodipodi:nodetypes="cssssscsssc"
       inkscape:connector-curvature="0"
       id="path5016"
       d="m 215.91084,232.98832 c 27.41797,-1.31734 55.88037,-3.62074 54.74355,-0.45417 -3.95069,11.0045 -0.20815,15.69976 -7.25362,21.6683 -9.13686,7.74036 -0.25435,-22.34774 -9.32541,-22.80486 -7.89974,-0.39817 -4.11141,25.64613 -9.54217,24.27251 -9.29249,-2.3504 -5.45012,-10.93808 -9.67248,-21.17968 -1.71703,-4.16476 -6.46077,-3.18033 -7.16641,-0.0701 -0.82674,3.64406 -0.82278,9.49802 -1.03824,14.39329 -0.22381,5.08469 -0.68429,9.13505 -2.55834,8.60019 -7.96625,-2.27363 -3.16175,-10.40576 -4.4153,-19.91379 -0.41941,-3.1813 -3.05163,-6.56337 1.28145,-6.76169"
       style="color:#000000;fill:none;stroke:#b344ac;stroke-width:1.99999988;stroke-linecap:butt;stroke-linejoin:round;stroke-miterlimit:4;stroke-opacity:1;stroke-dasharray:none;stroke-dashoffset:0;marker:none;visibility:visible;display:inline;overflow:visible;enable-background:accumulate" />
    <path
       sodipodi:nodetypes="csssssssc"
       inkscape:connector-curvature="0"
       id="path4423"
       d="m 235.00412,251.55365 c 7.83471,-0.31817 22.72512,2.49091 30.81865,0.94792 8.70256,-1.6595 10.97169,2.58596 4.42925,2.2225 -15.42613,-0.85697 -23.13708,-0.73138 -29.81742,-0.16715 -9.08825,0.7676 -12.85885,1.8971 -0.0175,3.43307 26.26923,3.14209 42.48583,-1.63998 28.48095,-0.83338 -44.94382,2.58855 -41.25496,-3.92944 -30.38003,-4.06596 55.03353,-0.69087 30.6101,8.03315 25.03309,7.3147 -7.37949,-0.95068 -17.5427,-2.99149 -27.0342,1.12041"
       style="color:#000000;fill:none;stroke:#b344ac;stroke-width:1.99999976;stroke-linecap:butt;stroke-linejoin:round;stroke-miterlimit:4;stroke-opacity:1;stroke-dasharray:none;stroke-dashoffset:0;marker:none;visibility:visible;display:inline;overflow:visible;enable-background:accumulate" />
    <g
       transform="matrix(0,1,-1,0,285,55)"
       style="display:inline"
       id="g6785">
      <rect
         transform="matrix(0,-1,1,0,0,0)"
         y="175"
         x="-150"
         height="30"
         width="10"
         id="rect5968"
         style="color:#000000;fill:#ffffff;stroke:#006680;stroke-width:2;stroke-linecap:butt;stroke-linejoin:miter;stroke-miterlimit:4;stroke-opacity:1;stroke-dasharray:none;stroke-dashoffset:0;marker:none;visibility:visible;display:inline;overflow:visible;enable-background:accumulate" />
      <path
         sodipodi:nodetypes="cccccccc"
         inkscape:connector-curvature="0"
         d="m 175,150 10,-10 10,10 10,-10 m 0,10 -10,-10 -10,10 -10,-10"
         style="color:#000000;fill:none;stroke:#006680;stroke-width:2;stroke-linecap:butt;stroke-linejoin:bevel;stroke-miterlimit:4;stroke-opacity:1;stroke-dasharray:none;stroke-dashoffset:0;marker:none;visibility:visible;display:inline;overflow:visible;enable-background:accumulate"
         id="path5990" />
    </g>
    <path
       style="color:#000000;fill:none;stroke:#006680;stroke-width:2;stroke-linecap:butt;stroke-linejoin:miter;stroke-miterlimit:4;stroke-opacity:1;stroke-dasharray:1, 1;stroke-dashoffset:0;marker:none;visibility:visible;display:inline;overflow:visible;enable-background:accumulate"
       d="m 138,210 0,12"
       id="path4393"
       inkscape:connector-curvature="0"
       sodipodi:nodetypes="cc" />
    <path
       style="color:#000000;fill:none;stroke:#006680;stroke-width:2;stroke-linecap:butt;stroke-linejoin:miter;stroke-miterlimit:4;stroke-opacity:1;stroke-dasharray:1, 1;stroke-dashoffset:0;marker:none;visibility:visible;display:inline;overflow:visible;enable-background:accumulate"
       d="m 132,216 12,0"
       id="path4395"
       inkscape:connector-curvature="0"
       sodipodi:nodetypes="cc" />
    <path
       sodipodi:nodetypes="csssc"
       inkscape:connector-curvature="0"
       id="path3873"
       d="m 168,183 c 0,0 -0.67821,-3.7e-4 -1.00026,-3.6e-4 -9.99974,3.6e-4 -9.84563,5.13984 -11.4575,10.10723 -2.42357,7.46883 -4.42414,10.16884 -6.81236,12.73093 -3.61857,3.882 -5.5786,6.13897 -10.97988,10.4122"
       style="color:#000000;fill:none;stroke:#006680;stroke-width:2;stroke-linecap:butt;stroke-linejoin:miter;stroke-miterlimit:4;stroke-opacity:1;stroke-dasharray:4,2;stroke-dashoffset:0;marker:none;visibility:visible;display:inline;overflow:visible;enable-background:accumulate" />
  </g>
  <g
     inkscape:groupmode="layer"
     id="layer3"
     inkscape:label="c"
     style="display:inline">
    <path
       style="color:#000000;fill:none;stroke:#000000;stroke-width:6;stroke-linecap:butt;stroke-linejoin:miter;stroke-miterlimit:4;stroke-opacity:1;stroke-dasharray:none;stroke-dashoffset:0;marker:none;visibility:visible;display:inline;overflow:visible;enable-background:accumulate"
       d="M 10,-20.000005 10,120"
       id="path4059" />
    <path
       style="color:#000000;fill:none;stroke:#d35f5f;stroke-width:6;stroke-linecap:butt;stroke-linejoin:miter;stroke-miterlimit:4;stroke-opacity:1;stroke-dasharray:none;stroke-dashoffset:0;marker:none;visibility:visible;display:inline;overflow:visible;enable-background:accumulate"
       d="m 10,120 0,190 175,0 315,0"
       id="path7571" />
    <g
       id="g3638"
       transform="translate(-396,-597.36218)">
      <path
         inkscape:connector-curvature="0"
         d="m 420,822.36218 -30,30 m 0,-30 30,30"
         style="fill:none;stroke:#ff0000;stroke-width:2;stroke-linecap:butt;stroke-linejoin:miter;stroke-miterlimit:4;stroke-opacity:1;stroke-dasharray:none"
         id="path3633" />
      <path
         transform="translate(0,732.36218)"
         d="m 420,105 c 0,8.28427 -6.71573,15 -15,15 -8.28427,0 -15,-6.71573 -15,-15 0,-8.284271 6.71573,-15 15,-15 8.28427,0 15,6.715729 15,15 z"
         sodipodi:ry="15"
         sodipodi:rx="15"
         sodipodi:cy="105"
         sodipodi:cx="405"
         id="path3636"
         style="color:#000000;fill:none;stroke:#ff0000;stroke-width:2;stroke-linecap:butt;stroke-linejoin:miter;stroke-miterlimit:4;stroke-opacity:1;stroke-dasharray:none;stroke-dashoffset:0;marker:none;visibility:visible;display:inline;overflow:visible;enable-background:accumulate"
         sodipodi:type="arc" />
    </g>
  </g>
  <g
     inkscape:groupmode="layer"
     id="layer2"
     inkscape:label="s"
     sodipodi:insensitive="true"
     style="display:none">
    <g
       style="stroke:#008000;display:inline"
       transform="matrix(-0.16159799,-0.98685667,0.98685667,-0.16159799,-52.416769,1196.198)"
       id="g5081">
      <path
         inkscape:connector-curvature="0"
         id="path5054"
         d="m 812.50919,550.88035 -7.25622,47.73466"
         style="fill:none;stroke:#008000;stroke-width:1px;stroke-linecap:butt;stroke-linejoin:miter;stroke-opacity:1" />
      <path
         inkscape:connector-curvature="0"
         id="path5052"
         d="m 830.65666,517.29551 -18.3935,32.6524"
         style="fill:none;stroke:#008000;stroke-width:1px;stroke-linecap:butt;stroke-linejoin:miter;stroke-opacity:1" />
      <path
         inkscape:connector-curvature="0"
         id="path5049"
         d="m 872.64774,476.84637 -41.41677,39.42034"
         style="fill:none;stroke:#008000;stroke-width:1px;stroke-linecap:butt;stroke-linejoin:miter;stroke-opacity:1" />
      <path
         inkscape:connector-curvature="0"
         id="path5047"
         d="M 879.5,414.125 873,475.75"
         style="fill:none;stroke:#008000;stroke-width:1px;stroke-linecap:butt;stroke-linejoin:miter;stroke-opacity:1" />
      <path
         inkscape:connector-curvature="0"
         id="path5043"
         d="m 878.39324,393.76971 0.85894,19.03195"
         style="fill:none;stroke:#008000;stroke-width:1px;stroke-linecap:butt;stroke-linejoin:miter;stroke-opacity:1" />
      <path
         inkscape:connector-curvature="0"
         id="path5079"
         d="M 850.87828,418.42036 832.25725,401.26641"
         style="fill:none;stroke:#008000;stroke-width:1px;stroke-linecap:butt;stroke-linejoin:miter;stroke-opacity:1" />
      <path
         inkscape:connector-curvature="0"
         id="path5077"
         d="m 874.40411,412.89263 -23.40393,5.33911"
         style="fill:none;stroke:#008000;stroke-width:1px;stroke-linecap:butt;stroke-linejoin:miter;stroke-opacity:1" />
      <path
         inkscape:connector-curvature="0"
         id="path5075"
         d="m 890.35324,414.65822 -15.69762,-1.68368"
         style="fill:none;stroke:#008000;stroke-width:1px;stroke-linecap:butt;stroke-linejoin:miter;stroke-opacity:1" />
      <path
         inkscape:connector-curvature="0"
         id="path5073"
         d="m 852.90333,421.39439 21.96445,-8.29537"
         style="fill:none;stroke:#008000;stroke-width:1px;stroke-linecap:butt;stroke-linejoin:miter;stroke-opacity:1" />
      <path
         inkscape:connector-curvature="0"
         id="path5071"
         d="m 852.78077,421.20265 -21.4164,-15.29178"
         style="fill:none;stroke:#008000;stroke-width:1px;stroke-linecap:butt;stroke-linejoin:miter;stroke-opacity:1" />
      <path
         inkscape:connector-curvature="0"
         id="path5067"
         d="M 843.77962,481.28052 822.53348,459.85898"
         style="fill:none;stroke:#008000;stroke-width:1px;stroke-linecap:butt;stroke-linejoin:miter;stroke-opacity:1"
         sodipodi:nodetypes="cc" />
      <path
         inkscape:connector-curvature="0"
         id="path5064"
         d="m 864.50217,474.18926 -20.97089,7.24482"
         style="fill:none;stroke:#008000;stroke-width:1px;stroke-linecap:butt;stroke-linejoin:miter;stroke-opacity:1"
         sodipodi:nodetypes="cc" />
      <path
         inkscape:connector-curvature="0"
         id="path5062"
         d="m 865.54367,474.2832 24.14077,3.95129"
         style="fill:none;stroke:#008000;stroke-width:1px;stroke-linecap:butt;stroke-linejoin:miter;stroke-opacity:1"
         sodipodi:nodetypes="cc" />
      <path
         inkscape:connector-curvature="0"
         id="path5060"
         d="m 844.92727,485.46671 20.59771,-11.4884"
         style="fill:none;stroke:#008000;stroke-width:1px;stroke-linecap:butt;stroke-linejoin:miter;stroke-opacity:1"
         sodipodi:nodetypes="cc" />
      <path
         inkscape:connector-curvature="0"
         id="path5056"
         d="m 822.06984,464.47058 23.10131,21.0554"
         style="fill:none;stroke:#008000;stroke-width:1px;stroke-linecap:butt;stroke-linejoin:miter;stroke-opacity:1" />
    </g>
  </g>
</svg>
