<?xml version="1.0" encoding="UTF-8" standalone="no"?>
<!-- Created with Inkscape (http://www.inkscape.org/) -->

<svg
   xmlns:dc="http://purl.org/dc/elements/1.1/"
   xmlns:cc="http://creativecommons.org/ns#"
   xmlns:rdf="http://www.w3.org/1999/02/22-rdf-syntax-ns#"
   xmlns:svg="http://www.w3.org/2000/svg"
   xmlns="http://www.w3.org/2000/svg"
   xmlns:sodipodi="http://sodipodi.sourceforge.net/DTD/sodipodi-0.dtd"
   xmlns:inkscape="http://www.inkscape.org/namespaces/inkscape"
   width="480"
   height="320"
   id="svg2"
   version="1.1"
   inkscape:version="0.47 r22583"
   sodipodi:docname="itnas234.svg"
   inkscape:export-xdpi="90"
   inkscape:export-ydpi="90"
   inkscape:export-filename="itnas234.png">
  <defs
     id="defs4" />
  <sodipodi:namedview
     id="base"
     pagecolor="#ffffff"
     bordercolor="#666666"
     borderopacity="1.0"
     inkscape:pageopacity="1"
     inkscape:pageshadow="2"
     inkscape:zoom="1"
     inkscape:cx="305.83903"
     inkscape:cy="221.32458"
     inkscape:document-units="px"
     inkscape:current-layer="layer1"
     showgrid="false"
     inkscape:snap-nodes="true"
     inkscape:snap-global="false"
     inkscape:snap-grids="true"
     showguides="true"
     inkscape:window-width="1280"
     inkscape:window-height="774"
     inkscape:window-x="1276"
     inkscape:window-y="1020"
     inkscape:window-maximized="1"
     inkscape:object-nodes="true">
    <inkscape:grid
       empspacing="5"
       visible="true"
       enabled="true"
       snapvisiblegridlinesonly="true"
       type="xygrid"
       id="grid2816" />
  </sodipodi:namedview>
  <metadata
     id="metadata7">
    <rdf:RDF>
      <cc:Work
         rdf:about="">
        <dc:format>image/svg+xml</dc:format>
        <dc:type
           rdf:resource="http://purl.org/dc/dcmitype/StillImage" />
        <dc:title></dc:title>
      </cc:Work>
    </rdf:RDF>
  </metadata>
  <g
     inkscape:label="Layer 1"
     inkscape:groupmode="layer"
     id="layer1"
     transform="translate(0,0)">
    <path
       style="color:#000000;fill:none;stroke:#c87137;stroke-width:3.99999905;stroke-linecap:round;stroke-linejoin:round;stroke-miterlimit:4;stroke-opacity:1;stroke-dasharray:none;stroke-dashoffset:0;marker:none;visibility:visible;display:inline;overflow:visible;enable-background:accumulate"
       d="m -11.744881,130.1668 c 0.892673,5.16719 0.439695,7.34315 -0.09467,12.53537 -0.723846,7.0327 0.132689,11.21877 0.781896,18.16707 1.2901604,13.80857 -0.373922,20.83889 -0.653619,31.39513 -0.140281,5.29581 0.46637,11.87373 0.295101,17.2493 -0.241626,7.58377 -0.953265,15.45401 -0.733095,23.03542"
       id="path2857"
       sodipodi:nodetypes="cssssc" />
    <path
       style="color:#000000;fill:none;stroke:#c87137;stroke-width:3.99999928;stroke-linecap:round;stroke-linejoin:round;stroke-miterlimit:4;stroke-opacity:1;stroke-dasharray:none;stroke-dashoffset:0;marker:none;visibility:visible;display:inline;overflow:visible;enable-background:accumulate"
       d="m -47.157234,232.20847 c 0.33931,-3.62014 0.59916,-7.2447 0.97703,-10.89537 0.4924,-4.75759 -1.4643,-9.42903 -1.49872,-14.23377 -0.0783,-10.93681 2.20094,-23.62575 0.0976,-34.08228 -1.1164,-5.55007 -0.8538,-10.96652 -0.11436,-15.96921 -0.27017,-9.12439 1.44627,-14.41416 -0.0764,-23.74932"
       id="path2860"
       sodipodi:nodetypes="cssscc" />
    <path
       sodipodi:nodetypes="ccccccccccccccccsc"
       id="path2862"
       d="m -27.877541,-119.03196 c -0.172711,0.41403 -0.341771,0.83109 -0.512721,1.2447 -6.481244,8.10077 -12.849652,27.177252 -19.249982,46.576607 -7.25382,18.416337 -13.90368,36.945992 -19.14186,56.069852 -4.79398,12.6253911 -7.75698,25.480368 -13.89685,37.573277 -4.83447,23.973513 -15.28374,44.297284 -22.979206,69.390956 -4.55807,11.585448 -8.69,13.495088 -15.92564,34.460138 12.84852,3.66632 25.498636,3.70751 38.876846,4.3073 21.46465,1.58241 42.540976,-0.004 63.960023,-1.04183 10.1414624,-0.6739 28.873875,0.34508 43.470371,1.31705 4.213231,1.19816 14.123546,0.10875 23.298322,-2.41478 C 49.692695,110.90442 35.923586,89.825135 28.023229,65.803565 21.896711,46.961629 20.780149,39.723439 19.290167,28.718512 13.274941,12.413386 11.973601,-6.6746699 6.0617894,-25.285985 -9.3697116,-49.073459 -12.203713,-67.369363 -18.163357,-90.645138 c -1.328043,-7.3904 -2.682138,-18.629022 -9.351241,-28.148532 -0.06705,0.0727 -0.132154,0.16624 -0.198809,0.24154 -0.05489,-0.16519 -0.107995,-0.31273 -0.163966,-0.47976 z"
       style="color:#000000;fill:none;stroke:#94f3f3;stroke-width:4;stroke-linecap:round;stroke-linejoin:round;stroke-miterlimit:4;stroke-opacity:1;stroke-dasharray:none;stroke-dashoffset:0;marker:none;visibility:visible;display:inline;overflow:visible;enable-background:accumulate" />
    <path
       style="color:#000000;fill:none;stroke:#c87137;stroke-width:3.99999952;stroke-linecap:round;stroke-linejoin:round;stroke-miterlimit:4;stroke-opacity:1;stroke-dasharray:none;stroke-dashoffset:0;marker:none;visibility:visible;display:inline;overflow:visible;enable-background:accumulate"
       d="m 126.68102,232.54443 c 0.88773,-4.72589 0.4936,-6.69569 0.0595,-11.40938 -0.58806,-6.38449 0.2547,-10.21635 0.93776,-16.55772 1.35746,-12.60243 -0.10175,-18.96171 -0.23696,-28.56483 -0.0678,-4.81763 0.5715,-10.82077 0.47594,-15.71026 -0.13482,-6.89807 -1.52236,-9.89217 -1.22934,-16.79938 0.0973,-7.2155 0.73021,-7.88818 0.70462,-14.99873"
       id="path2832"
       sodipodi:nodetypes="csssscc" />
    <path
       style="color:#000000;fill:none;stroke:#c87137;stroke-width:3.99999976;stroke-linecap:round;stroke-linejoin:round;stroke-miterlimit:4;stroke-opacity:1;stroke-dasharray:none;stroke-dashoffset:0;marker:none;visibility:visible;display:inline;overflow:visible;enable-background:accumulate"
       d="m 90.38648,131.41024 c 0.36449,3.69143 0.64971,7.38785 1.05287,11.11022 0.52538,4.85105 -1.39387,9.62827 -1.39387,14.53045 0,11.15857 2.36521,24.09117 0.341,34.77142 -1.07441,5.66883 -0.77365,11.19335 0,16.29305 -0.2044,9.31058 1.54629,14.6975 0.0935,24.23035"
       id="path2850"
       sodipodi:nodetypes="cssscc" />
    <path
       style="color:#000000;fill:none;stroke:#c87137;stroke-width:3.99999976;stroke-linecap:round;stroke-linejoin:round;stroke-miterlimit:4;stroke-opacity:1;stroke-dasharray:none;stroke-dashoffset:0;marker:none;visibility:visible;display:inline;overflow:visible;enable-background:accumulate"
       d="m 417.12132,197.79394 c -6.07739,-1.15478 -13.21759,-5.43518 -17,-1 -7.46431,4.53941 -7.90991,8.62257 -8,12"
       id="path4395"
       sodipodi:nodetypes="ccc" />
    <path
       style="color:#000000;fill:none;stroke:#c87137;stroke-width:3.99999976;stroke-linecap:round;stroke-linejoin:round;stroke-miterlimit:4;stroke-opacity:1;stroke-dasharray:none;stroke-dashoffset:0;marker:none;visibility:visible;display:inline;overflow:visible;enable-background:accumulate"
       d="m 422.88868,212.26577 -12.58997,6.78176 c -4.03017,6.34685 -0.36323,8.12833 -6.17862,13.11772"
       id="path4397"
       sodipodi:nodetypes="ccc" />
    <path
       sodipodi:nodetypes="cssssc"
       id="path4261"
       d="m 558.39023,153.7977 c -3.22418,3.91307 -5.11883,4.92941 -9.2858,7.77096 -5.64407,3.84873 -8.16967,7.1204 -12.86223,11.96238 -9.32568,9.62259 -15.57705,12.75352 -23.5263,19.14521 -3.98793,3.20659 -8.4355,7.78441 -12.50219,11.01729 -5.73723,4.5609 -11.98972,8.94296 -17.42608,13.8542"
       style="color:#000000;fill:none;stroke:#c87137;stroke-width:3.99999905;stroke-linecap:round;stroke-linejoin:round;stroke-miterlimit:4;stroke-opacity:1;stroke-dasharray:none;stroke-dashoffset:0;marker:none;visibility:visible;display:inline;overflow:visible;enable-background:accumulate" />
    <path
       sodipodi:nodetypes="cssscc"
       id="path4263"
       d="m 457.7115,192.91716 c 2.97778,-2.08647 5.90746,-4.23634 8.93348,-6.3132 3.94351,-2.70664 6.23496,-7.2233 9.87314,-10.36183 8.28146,-7.14405 19.42488,-13.62697 26.02873,-22.00266 3.50514,-4.44563 7.80174,-7.75411 12.09201,-10.4313 6.77638,-6.11622 11.91821,-8.23504 18.04388,-15.44196"
       style="color:#000000;fill:none;stroke:#c87137;stroke-width:3.99999928;stroke-linecap:round;stroke-linejoin:round;stroke-miterlimit:4;stroke-opacity:1;stroke-dasharray:none;stroke-dashoffset:0;marker:none;visibility:visible;display:inline;overflow:visible;enable-background:accumulate" />
    <path
       style="color:#000000;fill:none;stroke:#c87137;stroke-width:4;stroke-linecap:round;stroke-linejoin:round;stroke-miterlimit:4;stroke-opacity:1;stroke-dasharray:none;stroke-dashoffset:0;marker:none;visibility:visible;display:inline;overflow:visible;enable-background:accumulate"
       d="m 370.01073,235.57576 c 1.07583,-10.44062 0.43168,-23.03949 1.73983,-36.21067 0.5237,-15.15868 -2.43035,-27.18031 -2.0298,-42.88107 0.43495,-10.98597 -0.4905,-18.326 2.31978,-26.04625"
       id="path4281"
       sodipodi:nodetypes="cccc" />
    <path
       style="color:#000000;fill:none;stroke:#c87137;stroke-width:3.99999928;stroke-linecap:round;stroke-linejoin:round;stroke-miterlimit:4;stroke-opacity:1;stroke-dasharray:none;stroke-dashoffset:0;marker:none;visibility:visible;display:inline;overflow:visible;enable-background:accumulate"
       d="m 337.56372,130.18044 c -2.29912,15.958 0.58707,18.17117 0.64074,31.18779 -0.65996,10.10028 -1.73579,19.65931 0,27.93905 -1.0679,19.8263 -0.85433,19.24876 -1.92223,26.63956 -0.83269,9.04157 0.52377,15.45725 1.28149,20.46698"
       id="path4277"
       sodipodi:nodetypes="ccccc" />
    <path
       sodipodi:nodetypes="cccc"
       id="path4306"
       d="m 224.10994,133.84356 c -1.18863,9.9207 -0.47693,21.89219 -1.92225,34.40748 -0.57859,14.4038 2.68516,25.82678 2.24262,40.74568 -0.48054,10.43889 0.54193,17.41342 -2.56299,24.74924"
       style="color:#000000;fill:none;stroke:#c87137;stroke-width:3.99999928;stroke-linecap:round;stroke-linejoin:round;stroke-miterlimit:4;stroke-opacity:1;stroke-dasharray:none;stroke-dashoffset:0;marker:none;visibility:visible;display:inline;overflow:visible;enable-background:accumulate" />
    <path
       sodipodi:nodetypes="ccccc"
       id="path4308"
       d="m 256.49538,232.78416 c 2.15804,-15.27693 -0.55104,-17.39564 -0.60143,-29.85673 0.61948,-9.66921 1.62928,-18.82027 0,-26.74665 1.00239,-18.98012 0.80191,-18.42724 1.8043,-25.5026 0.78158,-8.65571 -0.49164,-14.79756 -1.20287,-19.59347"
       style="color:#000000;fill:none;stroke:#c87137;stroke-width:3.99999928;stroke-linecap:round;stroke-linejoin:round;stroke-miterlimit:4;stroke-opacity:1;stroke-dasharray:none;stroke-dashoffset:0;marker:none;visibility:visible;display:inline;overflow:visible;enable-background:accumulate" />
    <path
       style="color:#000000;fill:none;stroke:#94f3f3;stroke-width:4;stroke-linecap:round;stroke-linejoin:round;stroke-miterlimit:4;stroke-opacity:1;stroke-dasharray:none;stroke-dashoffset:0;marker:none;visibility:visible;display:inline;overflow:visible;enable-background:accumulate"
       d="m 114.74072,-117.71355 c -9.13586,9.9354 -18.27173,42.368715 -27.40759,67.942265 -10.54055,18.51859 -12.1478,46.0378208 -26.64627,73.28604 -3.67543,17.66672 -10.37113,44.6125 -23.41899,69.391036 -4.63139,11.583359 -8.7993,13.463879 -16.16976,34.430829 24.85224,4.6466 43.6158,-0.36575 63.95105,3.81699 l 44.91799,-3.81698 60.14442,3.05358 c -5.58303,-8.39978 -11.16605,-20.49233 -16.74908,-48.093955 -17.85942,-46.95334 -10.14451,-37.22815 -12.94247,-51.91093 -5.88621,-16.37243 -7.06826,-35.5183792 -12.83479,-54.20114 -6.09057,-10.74082 -17.61807,-41.6743 -23.70866,-65.65208 -1.27246,-7.412985 -2.54862,-18.669025 -9.13586,-28.245655 z"
       id="path4156"
       sodipodi:nodetypes="ccccccccccccc" />
    <path
       sodipodi:nodetypes="cccccscccccccc"
       id="path4265"
       d="m 323.32597,128.8232 c -0.20298,-17.5846 -16.33526,-52.913845 -24.04753,-77.029135 -3.62216,-23.2348 -16.03309,-37.09088 -21.86823,-69.79196 -6.6457,-12.78304 -16.23701,-33.88287 -21.61152,-63.41923 -3.24655,-11.64845 -2.06559,-18.563175 -8.44857,-38.158495 -6.4702,15.27702 -11.72626,30.263585 -17.95004,43.246325 -14.13066,29.47626 -9.05714,33.47911 -15.85836,49.20776 -11.53346,20.551911 -12.93891,33.9216505 -15.50009,46.45739 -7.68899,16.69842 -13.68063,35.40091 -18.80662,55.31056 -2.06258,9.45143 -11.47211,27.390185 -17.85792,53.058335 6.82503,4.93103 15.42332,-0.79852 31.4689,2.51778 21.40875,1.707 42.46087,0.25897 63.84278,-0.65954 10.1252,-0.61795 28.8207,0.48566 43.37993,1.54211 4.1959,1.22443 14.08353,0.1949 23.25727,-2.2819 z"
       style="color:#000000;fill:none;stroke:#94f3f3;stroke-width:3.99999928;stroke-linecap:round;stroke-linejoin:round;stroke-miterlimit:4;stroke-opacity:1;stroke-dasharray:none;stroke-dashoffset:0;marker:none;visibility:visible;display:inline;overflow:visible;enable-background:accumulate" />
    <path
       style="color:#000000;fill:none;stroke:#94f3f3;stroke-width:4;stroke-linecap:round;stroke-linejoin:round;stroke-miterlimit:4;stroke-opacity:1;stroke-dasharray:none;stroke-dashoffset:0;marker:none;visibility:visible;display:inline;overflow:visible;enable-background:accumulate"
       d="m 368.18273,-118.47094 c -0.21856,0.24554 -0.46223,0.49202 -0.68079,0.76267 -6.23243,14.84654 -11.91294,23.986425 -15.49809,37.531315 -3.81343,14.4073 -10.66872,21.7276 -14.89739,35.20316 -4.39056,11.60014 -6.44829,23.81633 -9.29085,31.991921 -9.81559,22.5560695 -12.50114,32.884619 -18.58169,56.838859 -1.91508,12.61067 -5.9136,22.15568 -9.33089,31.42996 -2.03848,9.34103 -11.24093,26.992805 -17.62056,52.182555 21.20235,2.54356 38.16833,-1.05773 56.38581,2.6894 18.0382,-0.34407 37.69808,0.93735 52.62143,-2.52884 17.48707,-0.36155 34.97415,0.41964 52.46122,1.76618 -5.58302,-8.39979 -7.95277,-19.84436 -13.53579,-47.445985 -16.15152,-42.46319 -14.60779,-39.28402 -15.61823,-49.01147 -5.24861,-13.9805 -12.48839,-27.5938795 -16.53931,-50.29596 -6.64571,-12.78305 -13.00694,-30.03205 -18.38146,-59.56841 -3.21874,-11.54873 -5.29258,-22.331745 -11.49341,-41.545355 z"
       id="path4267"
       sodipodi:nodetypes="ccsccccccccccccc" />
    <path
       style="color:#000000;fill:none;stroke:#94f3f3;stroke-width:4;stroke-linecap:round;stroke-linejoin:round;stroke-miterlimit:4;stroke-opacity:1;stroke-dasharray:none;stroke-dashoffset:0;marker:none;visibility:visible;display:inline;overflow:visible;enable-background:accumulate"
       d="m 737.79143,-19.913236 c -0.4273,0.13661 -0.85455,0.27797 -1.28039,0.41565 -10.36982,0.30962 -29.02835,7.8148 -47.95355,15.5048003 -18.72914,6.40302 -37.15339,13.33957 -55.11591,21.7364997 -12.72395,4.52591 -24.43678,10.59546 -37.62687,13.75109 -21.3957,11.8459 -43.64789,17.05003 -67.75022,27.44187 -11.77886,4.03201 -15.9102,2.1211 -36.5693,10.18891 5.52955,12.16349 13.69238,21.82762 21.90127,32.408286 12.69833,17.37779 27.55955,32.40688 42.22429,48.05288 7.08261,7.28972 18.44036,22.221 27.15486,33.97089 1.81634,3.98595 9.06578,10.83042 16.93135,16.18556 13.15489,-11.61683 20.29503,-35.76104 33.47827,-57.34005 10.38617,-16.87247 15.1773,-22.41171 22.59622,-30.67537 8.5256,-15.144446 22.22482,-28.500296 32.57437,-45.059806 8.12654,-27.16495 20.22947,-41.17533 34.10164,-60.7927197 4.7701,-5.79895 12.45508,-14.1104603 15.38753,-25.3576303 -0.0988,-0.004 -0.21225,0.007 -0.3128,0.005 0.0903,-0.14882 0.1683,-0.28485 0.2593,-0.43569 z"
       id="path4271"
       sodipodi:nodetypes="ccccccccccccccccsc" />
    <path
       style="color:#000000;fill:none;stroke:#c87137;stroke-width:3.99999976;stroke-linecap:round;stroke-linejoin:round;stroke-miterlimit:4;stroke-opacity:1;stroke-dasharray:none;stroke-dashoffset:0;marker:none;visibility:visible;display:inline;overflow:visible;enable-background:accumulate"
       d="m 448.70101,237.58683 c -0.50217,3.5 -0.90508,8.5 -4,12 -5.33333,3.80165 -10.66667,5.94909 -16,8.5"
       id="path4399"
       sodipodi:nodetypes="ccc" />
    <path
       sodipodi:nodetypes="ccc"
       id="path4461"
       d="m 475.29769,241.14529 c -2.36335,3.49401 -0.83721,9.92628 -2.48823,15.19995 -1.67228,4.88267 -5.23097,9.28885 -11.74484,13.18313"
       style="color:#000000;fill:none;stroke:#c87137;stroke-width:3.99999976;stroke-linecap:round;stroke-linejoin:round;stroke-miterlimit:4;stroke-opacity:1;stroke-dasharray:none;stroke-dashoffset:0;marker:none;visibility:visible;display:inline;overflow:visible;enable-background:accumulate" />
    <path
       id="path2949"
       style="color:#000000;fill:none;stroke:#008000;stroke-width:4;stroke-linecap:butt;stroke-linejoin:round;stroke-miterlimit:4;stroke-opacity:1;stroke-dasharray:none;stroke-dashoffset:0;marker:none;visibility:visible;display:inline;overflow:visible;enable-background:accumulate"
       d="m 570.49868,229.78113 c -12.42187,0.5371 -24.62844,-3.5085 -35.42395,-5.45162 -12.3918,2.00266 -25.63041,-3.61082 -52.75322,-5.70238 -17.73348,-8.58285 -24.71193,-17.62191 -29.79467,-39.19352 -5.64845,-12.68647 -25.92908,-5.80945 -33.63465,-10.65019 -11.51607,0.35129 -6.94074,9.93116 -4.64962,21.95626 4.58321,8.89446 6.56437,15.89097 9.87875,21.05426 2.90817,8.95678 15.03138,18.75515 25,25 20.77059,5.93961 45.92521,0.80761 55.59188,13.80761 1.33147,1.31258 12.88632,17.52626 18.52535,14.84741 2.95709,-1.40478 14.00362,-4.44309 21.06436,1.89174 4.51436,4.05023 8.37774,16.19182 7.33232,22.30206 -0.92721,5.41943 -5.57463,4.46132 -9.32365,5.72359 -3.69819,1.24516 -20.04469,-0.41221 -25.93598,-2.48652 -5.5577,-1.95686 -15.59379,5.72847 -18.35924,6.78955 -3.75199,2.90691 -8.58549,5.01434 -14.1034,5.77836 -21.43707,3.18725 -42.5376,-7.80396 -50.02471,-6.99001 -17.37288,1.76733 -16.94407,0.77535 -30.75042,-10.90644 -10.99698,-8.19012 -16.03203,-4.58138 -25.89477,-17.5673 -7.74974,-7.92781 -18.58327,-19.00703 -23.53947,-26.3021 -3.98659,-5.89832 -30.24386,-6.83403 -50.56778,-8.2406 -32.27473,4.50562 -43.90856,-2.70998 -69.68452,-0.31785 -18.55264,-0.42023 -36.63929,3.27645 -56.99029,0.28013 -16.50945,-0.69663 -34.44053,-2.35634 -51.47675,-2.0191 -17.16834,0.91737 -31.387784,-0.22629 -50.287425,2.57187 C 63.609915,233.50195 26.756978,232.56321 0,234.44008 c -18.856181,-1.01876 -37.712362,-0.36908 -56.568543,0"
       sodipodi:nodetypes="cccccccccccsssssccccccccccc" />
    <path
       style="color:#000000;fill:none;stroke:#008000;stroke-width:4;stroke-linecap:round;stroke-linejoin:round;stroke-miterlimit:4;stroke-opacity:1;stroke-dasharray:none;stroke-dashoffset:0;marker:none;visibility:visible;display:inline;overflow:visible;enable-background:accumulate"
       d="m 397.38561,274.03932 c -1.78781,-4.90498 -7.02762,-8.57462 -13.38798,-9.92345 -12.642,3.54287 -26.84889,20.46489 -41.40975,21.29477 -13.78888,5.21713 -42.30509,10.37868 -62.81119,11.08579 0,0 -21.40532,1.69918 -38.18376,0.70711 -14.30625,-0.74038 -15.14214,2 -24.33453,1.29289 -21.2132,-2.82843 -76.78174,0.82842 -102.94469,1.53553 -19.500002,1.48825 -28.298125,-0.23926 -41.012195,-2.74687 -32.1507,0.64922 -66.8094482,-0.71856 -98.050252,2.91592"
       id="path7075"
       sodipodi:nodetypes="ccccccccc" />
    <path
       style="fill:none;stroke:#80ff00;stroke-width:3.99999976;stroke-linecap:round;stroke-linejoin:round;stroke-miterlimit:4;stroke-opacity:1;stroke-dasharray:none"
       d="m 276.89503,184.92032 c -2.4928,1.18899 -5.37065,-0.003 -7.8538,1.26057 -1.80696,0.40524 -3.72325,-0.2945 -5.52394,0.16862 -1.90455,0.40894 -3.83355,0.052 -5.76346,-0.23221 -1.68115,-0.15699 -3.31373,0.16409 -4.97495,0.17267 -1.20472,0.90638 -2.42677,0.66492 -3.68701,1.46903 -1.52412,0.96198 -3.49074,0.093 -4.90507,1.49781 0.12891,0.89613 1.83133,1.78214 2.58003,2.67506 2.35362,2.13014 4.70667,4.26207 7.06178,6.38846 1.6166,0.76918 3.05234,2.48185 4.78517,2.47678 1.37596,0.41706 2.59403,1.54335 3.89419,2.26592 1.38671,0.99723 3.02217,1.96886 4.52371,2.82336 1.49549,1.08202 3.07475,1.89508 4.44663,3.36069 1.07645,1.14559 2.4433,2.55856 3.00095,0.17867 0.73344,-1.54813 0.28726,-3.69191 1.03177,-5.24571 0.3889,-2.02789 1.25342,-3.74699 1.04483,-6.13715 0.60434,-2.003 0.82385,-4.39375 1.74646,-6.15079 0.21534,-1.92409 0.85971,-3.7215 1.31763,-5.46956 0.16779,-0.40363 0.6171,-1.10219 0.17903,-1.57878 -1.24861,0.44497 -1.62891,-0.38986 -2.90395,0.0766 z"
       id="path2942"
       sodipodi:nodetypes="ccccccccccccsccccccc"
       inkscape:transform-center-x="15.242686"
       inkscape:transform-center-y="-0.20805374" />
    <path
       style="color:#000000;fill:none;stroke:#80ff00;stroke-width:3.99999976;stroke-linecap:round;stroke-linejoin:round;stroke-miterlimit:4;stroke-opacity:1;stroke-dasharray:none;stroke-dashoffset:0;marker:none;visibility:visible;display:inline;overflow:visible;enable-background:accumulate"
       d="m 290.00412,283.75716 c 1.1561,0.69879 3.94675,-3.33771 5.78364,-4.65274 1.49282,-1.06875 2.52205,-2.33323 4.52636,-3.12211 1.86114,-0.73253 2.75254,-2.90063 4.2985,-4.17628 2.32059,-1.91499 4.86932,-3.60607 7.34758,-5.35808 1.21164,-0.85653 2.72706,-1.1388 3.56789,-2.31666 1.04384,-1.46339 4.13119,-2.70476 3.65333,-3.91377 -0.44418,-1.12393 -3.49096,-0.41094 -5.0739,-1.17644 -5.08768,-2.46033 -7.34889,-1.17784 -10.9527,-1.07022 -2.54394,0.076 -4.68434,1.00516 -7.20521,0.85304 -2.76449,-0.16691 -5.40623,-1.16856 -8.1714,-1.37056 -1.73995,-0.12718 -3.37791,0.29951 -5.08286,0.28235 -2.54815,-0.0255 -0.33827,2.15167 0.13887,3.12091 0.88316,1.79389 1.40726,3.69925 2.18635,5.52618 0.6733,1.57899 0.58308,3.3455 1.41461,4.92669 0.89899,1.70941 1.8513,3.46603 2.31071,5.30141 0.43982,1.75718 0.76815,3.56436 0.97749,5.37384 0.10283,0.88906 -0.30303,1.41987 0.2807,1.77244 l 4e-5,0 z"
       id="path2870"
       sodipodi:nodetypes="csssssssssssssssssc"
       inkscape:transform-center-x="-14.829328"
       inkscape:transform-center-y="-0.045917296" />
    <path
       style="fill:none;stroke:#80ff00;stroke-width:3.99999952;stroke-linecap:round;stroke-linejoin:round;stroke-miterlimit:4;stroke-opacity:1;stroke-dasharray:none"
       d="m 328.75471,233.54487 c 1.39413,-3.19923 5.27987,-5.38263 6.818,-8.49468 1.5635,-4.17393 3.76171,-6.86093 7.27891,-10.08635 1.83857,-2.28452 5.94026,-9.35028 5.92865,-4.09002 -0.0669,3.46385 0.71738,4.89732 0.32007,9.00757 0.39709,4.14338 1.39014,6.27932 0.90761,10.08835 0.4792,2.56321 2.34701,7.12243 1.65116,8.15319"
       id="path2956-7"
       sodipodi:nodetypes="ccccccc" />
    <path
       style="fill:none;stroke:#80ff00;stroke-width:3.99999976;stroke-linecap:round;stroke-linejoin:round;stroke-miterlimit:4;stroke-opacity:1;stroke-dasharray:none"
       d="m 304.6904,231.61953 c -0.19602,-0.61355 -2.14541,-3.83995 -2.66734,-5.47345 -1.69033,-5.12366 -4.30637,-6.89262 -5.97858,-13.60256 -2.94985,-5.01545 -3.13278,-7.57088 -5.94914,-11.50381 -0.78531,4.15264 -2.82898,8.7268 -3.65272,12.85949 -0.87561,6.39254 -2.13602,5.95923 -4.35123,13.08851 -0.84384,1.27141 -1.45555,3.5984 -3.6928,6.05693"
       id="path2958-6"
       sodipodi:nodetypes="ccccccc" />
    <path
       style="color:#000000;fill:none;stroke:#80ff00;stroke-width:4;stroke-linecap:round;stroke-linejoin:round;stroke-miterlimit:4;stroke-opacity:1;stroke-dasharray:none;stroke-dashoffset:0;marker:none;visibility:visible;display:inline;overflow:visible;enable-background:accumulate"
       d="m 358.94994,209.87834 c -2.72589,-1.6312 -5.90633,-1.65439 -8.82656,-1.66675 -3.03113,-0.0128 -6.00464,-0.62665 -8.88118,-1.6455 -3.16475,-1.12093 -8.91566,-0.28267 -12.67585,-0.63522 -5.08368,-1.77144 -9.28336,-3.80768 -14.03739,-4.99384 -5.89061,-1.46974 -9.187,-1.19555 -14.44234,-0.70368 -2.99574,-0.92789 -8.02785,-0.21938 -11.03524,-0.32274 -2.31682,-0.0796 -8.4169,-2.28646 -10.20886,-1.82227"
       id="path2833-17"
       sodipodi:nodetypes="csscscss" />
    <g
       id="g4999"
       transform="matrix(1.3288894,-0.05434076,0.05434076,1.3288894,3.718123,-152.64935)">
      <path
         id="path2905-4"
         d="m 46.435436,195.23066 c -2.3518,0.1417 -3.143,2.1737 -3.9697,3.4318 -1.832,1.7184 -1.1944,2.3784 -2.8355,4.5757 -0.091,1.9654 -1.202,3.5113 -0.8506,5.6591 -0.3259,3.1406 2.2267,5.7915 4.3975,7.6565 1.7996,1.0762 3.4568,2.301 5.657,2.1273 1.5536,-0.1232 3.305,0.2747 4.7017,-0.2619 1.6701,-1.8922 5.1419,-2.6222 6.1358,-4.2968 0.1171,-1.855 0.084,-3.6988 0.3741,-5.4995 -3e-4,-2.7482 4e-4,-5.4964 0,-8.2445 -1.0516,-0.9901 -1.5614,-2.5441 -2.7589,-2.8598 -0.6613,-0.677 -2.3021,-0.3764 -3.1823,-0.8765 -2.2722,-0.9549 -5.0428,-0.7026 -7.6691,-1.4114 z"
         style="fill:none;stroke:#0000ff;stroke-width:3.00751877;stroke-linecap:round;stroke-linejoin:round;stroke-miterlimit:4;stroke-opacity:1;stroke-dasharray:none" />
      <path
         id="path2907-0"
         d="m 48.703836,220.68286 c 0.4616,2.4965 -1.4538,5.5017 -0.7455,6.4704 -1.0087,3.7438 -0.560548,7.70852 -1.617648,11.43542 -1.797617,3.1434 -1.343282,6.49699 -2.173652,9.54818 0,1.5253 0,3.0505 0,4.5757"
         style="fill:none;stroke:#0000ff;stroke-width:3.00751877;stroke-linecap:round;stroke-linejoin:round;stroke-miterlimit:4;stroke-opacity:1;stroke-dasharray:none"
         sodipodi:nodetypes="ccccc" />
      <path
         style="color:#000000;fill:none;stroke:#c87137;stroke-width:3.00751877;stroke-linecap:round;stroke-linejoin:round;stroke-miterlimit:4;stroke-opacity:1;stroke-dasharray:none;stroke-dashoffset:0;marker:none;visibility:visible;display:inline;overflow:visible;enable-background:accumulate"
         d="m 58.064494,271.03584 c 10.172587,-8.97555 9.981457,-11.36918 16.357061,-16.42136 3.240308,-2.56771 7.577482,-11.35942 8.213847,-18.11838 0.775673,-8.23861 1.815571,-17.6478 -0.168755,-24.77945 C 81.693884,200.24182 70.453737,192.1056 68.407374,189.3705"
         id="path8793-4"
         sodipodi:nodetypes="csscc"
         inkscape:transform-center-x="-30.310899"
         inkscape:transform-center-y="8.1889741" />
      <path
         d="m 43.863259,253.73808 c -0.63298,1.86799 -1.920216,6.10666 -2.88314,8.9325 -0.867133,4.13745 -2.604616,6.61292 -3.559287,10.56985 -1.234859,2.44032 -2.070838,5.17892 -3.033841,8.28494 -0.753693,1.69332 -0.760168,6.1927 -1.306851,6.622 -0.118073,0.19012 -0.472856,2.4751 -0.07343,1.37664 m 11.333033,-37.51013 c 1.223934,2.83204 2.590573,5.58975 3.378089,8.84549 1.332972,3.37687 2.059016,7.35772 3.540807,10.53917 0.268019,3.87579 2.17845,6.74831 2.714123,10.51245 0.615969,2.68303 1.411466,4.61448 1.817945,7.49889 0.394349,1.01853 0.11939,2.07828 0.158785,-0.57476"
         style="fill:none;stroke:#0000ff;stroke-width:3.00751877;stroke-linecap:round;stroke-linejoin:round;stroke-miterlimit:4;stroke-opacity:1;stroke-dasharray:none"
         id="path2909-9" />
      <path
         sodipodi:nodetypes="ccccc"
         id="path8795-8"
         d="m 69.694132,191.71322 c -7.71693,11.29774 -7.15816,13.80431 -14.010233,26.05848 0.184345,2.18644 -7.254429,9.95994 -6.120869,13.63153 1.192224,6.04431 5.311077,17.87326 4.573389,18.87783 1.503396,7.01546 4.136679,12.41117 5.143823,19.39828"
         style="fill:none;stroke:#c87137;stroke-width:3.00751877;stroke-linecap:round;stroke-linejoin:round;stroke-miterlimit:4;stroke-opacity:1;stroke-dasharray:none"
         inkscape:transform-center-x="-13.376458"
         inkscape:transform-center-y="8.7762687" />
      <path
         id="path2911"
         d="m 50.375169,231.00335 c -3.906971,-0.14547 -6.154865,-2.86189 -9.006723,-4.14858 -3.451317,-1.85274 -11.73858,-1.4204 -10.624842,-5.96973 0.05751,-1.17904 13.625643,2.17424 16.813224,1.55651 3.074595,0.23581 7.25518,2.33858 9.362255,2.92526 3.484057,0.97354 8.453828,4.18179 13.845285,5.81187 2.981104,0.98466 5.315521,1.74688 7.977994,2.61928 1.219214,0.49337 2.638939,0.0562 3.471781,0.63806"
         style="fill:none;stroke:#0000ff;stroke-width:3.00751877;stroke-linecap:round;stroke-linejoin:round;stroke-miterlimit:4;stroke-opacity:1;stroke-dasharray:none"
         inkscape:transform-center-x="-10.120936"
         inkscape:transform-center-y="4.9812457"
         sodipodi:nodetypes="cccccccc" />
    </g>
    <g
       id="g8805"
       transform="translate(97.33853,69.096715)">
      <path
         sodipodi:nodetypes="csscc"
         id="path2859"
         d="m 65.215421,86.421132 c 10.564469,14.600008 9.614176,17.650978 16.403565,26.057588 3.450604,4.27253 6.498099,16.9408 5.340565,25.89714 -1.410945,10.91708 -2.822541,23.42998 -7.489543,32.1096 -4.369443,14.66772 -21.339766,21.96543 -24.797246,24.92125"
         style="color:#000000;fill:none;stroke:#c87137;stroke-width:3.99999976;stroke-linecap:round;stroke-linejoin:round;stroke-miterlimit:4;stroke-opacity:1;stroke-dasharray:none;stroke-dashoffset:0;marker:none;visibility:visible;display:inline;overflow:visible;enable-background:accumulate"
         inkscape:transform-center-x="-32.889455"
         inkscape:transform-center-y="2.1209884" />
      <path
         style="fill:none;stroke:#c87137;stroke-width:3.99999976;stroke-linecap:round;stroke-linejoin:round;stroke-miterlimit:4;stroke-opacity:1;stroke-dasharray:none"
         d="m 56.973925,193.79483 c -6.731,-16.2588 -9.597149,-31.29263 -14.919418,-48.65605 0.883977,-2.84616 0.778137,-5.15038 3.336451,-9.78231 3.333338,-7.74592 9.216053,-20.01608 8.550412,-21.47102 4.024798,-8.96905 9.045267,-15.602849 12.414969,-24.623394"
         id="path3708"
         sodipodi:nodetypes="ccccc"
         inkscape:transform-center-x="-16.153745"
         inkscape:transform-center-y="2.7355104" />
      <path
         sodipodi:nodetypes="cccccsccccccc"
         id="path2905"
         d="m 39.012537,101.28462 c -3.071012,-0.623 -6.758244,-0.96162 -8.251407,0.37226 -2.942736,1.5813 -2.28487,3.59759 -5.146213,5.85971 -0.789787,2.49475 -2.016076,5.41708 -2.299738,8.2977 1.858127,3.76599 1.499423,6.43606 3.650845,9.57607 1.944395,1.99919 2.303765,4.59411 5.190893,5.1241 2.038842,0.37352 4.153509,1.48444 6.132221,1.27298 2.794163,-1.86008 5.376588,-1.95893 7.227216,-3.77085 0.785541,-2.34394 4.500861,-4.95327 5.490147,-7.16819 0.940435,-3.53205 -0.64859,-7.02383 0.291679,-10.55578 -1.012552,-1.63247 0.397738,-3.26653 -1.033193,-4.08222 -0.618134,-1.09645 -2.221631,-2.25077 -3.181651,-3.19481 -2.593299,-2.00509 -4.93817,0.0791 -8.070799,-1.73097 z"
         style="fill:none;stroke:#0000ff;stroke-width:4;stroke-linecap:round;stroke-linejoin:round;stroke-miterlimit:4;stroke-opacity:1;stroke-dasharray:none" />
      <path
         id="path2907"
         d="m 37.984042,133.86193 c -0.867156,3.26338 1.36579,7.44415 0.327573,8.65637 0.955143,5.06759 0.955179,10.31532 1.976231,15.36544 1.148602,4.31908 0.596656,8.73392 0.907626,12.84761 -0.155823,2.02265 -0.311636,4.04518 -0.467451,6.0677"
         style="fill:none;stroke:#0000ff;stroke-width:4;stroke-linecap:round;stroke-linejoin:round;stroke-miterlimit:4;stroke-opacity:1;stroke-dasharray:none" />
      <path
         sodipodi:nodetypes="ccccccccc"
         d="m 40.560002,177.04999 c -1.731884,2.57006 -4.697288,8.73982 -6.618289,13.05897 -0.942059,4.96147 -3.463394,5.69436 -3.602485,15.43077 -2.453611,8.78901 -7.046219,15.8835 -7.177018,21.07963 M 40.764455,176.9682 c 2.92747,3.47974 6.234022,6.83925 7.98385,10.94196 2.928674,4.18147 3.77519,9.27026 6.343677,13.21082 -0.831085,5.05215 1.950668,9.22062 1.980608,14.07587 1.26274,3.49595 2.945785,6.60604 4.083123,10.20242"
         style="fill:none;stroke:#0000ff;stroke-width:4;stroke-linecap:round;stroke-linejoin:round;stroke-miterlimit:4;stroke-opacity:1;stroke-dasharray:none"
         id="path2909"
         inkscape:transform-center-x="-1.9687716"
         inkscape:transform-center-y="24.471054" />
      <path
         sodipodi:nodetypes="csssssss"
         id="path2911-0"
         d="m 86.633659,145.7519 c -8.558066,-1.31795 -18.273005,-2.42061 -27.763992,-3.93436 -6.405231,-1.02158 -12.370874,-2.20206 -19.25791,-2.89434 -2.651161,-0.26653 -13.655204,-0.87204 -18.572474,-1.81644 -5.252265,-1.00874 -10.051139,2.47458 -6.852616,3.63658 5.129372,1.86346 6.043701,4.18337 11.742398,3.62569 3.293114,-0.32225 7.510232,-0.0387 10.077776,0.53416 1.392861,0.31077 4.464701,0.54764 6.559968,0.194"
         style="fill:none;stroke:#0000ff;stroke-width:4;stroke-linecap:round;stroke-linejoin:round;stroke-miterlimit:4;stroke-opacity:1;stroke-dasharray:none"
         inkscape:transform-center-x="-11.8433"
         inkscape:transform-center-y="2.5458813" />
    </g>
    <g
       id="g8813"
       transform="translate(-81.391784,3.9773015)">
      <path
         style="color:#000000;fill:none;stroke:#c87137;stroke-width:3.99999976;stroke-linecap:round;stroke-linejoin:round;stroke-miterlimit:4;stroke-opacity:1;stroke-dasharray:none;stroke-dashoffset:0;marker:none;visibility:visible;display:inline;overflow:visible;enable-background:accumulate"
         d="m 139.43503,147.83664 c 10.95142,14.31204 10.08312,17.38735 17.09506,25.60923 3.56372,4.17866 6.94917,16.76083 6.03175,25.74495 -1.11826,10.95092 -2.19447,23.49712 -6.6275,32.29854 -3.97532,14.7794 -20.74426,22.52867 -24.12139,25.57597"
         id="path8793"
         sodipodi:nodetypes="csscc"
         inkscape:transform-center-x="-32.091889"
         inkscape:transform-center-y="-2.32793" />
      <path
         sodipodi:nodetypes="ccccc"
         id="path8795"
         d="m 134.07015,255.39245 c -7.16373,-16.07285 -10.4312,-31.02457 -16.21627,-48.23934 0.80748,-2.8688 0.64002,-5.16935 3.07345,-9.86809 3.12483,-7.83236 8.67705,-20.25556 7.97271,-21.69218 3.78332,-9.07355 8.62445,-15.83934 11.75152,-24.94683"
         style="fill:none;stroke:#c87137;stroke-width:3.99999976;stroke-linecap:round;stroke-linejoin:round;stroke-miterlimit:4;stroke-opacity:1;stroke-dasharray:none"
         inkscape:transform-center-x="-14.081151"
         inkscape:transform-center-y="-1.7596851" />
      <path
         style="fill:none;stroke:#0000ff;stroke-width:4;stroke-linecap:round;stroke-linejoin:round;stroke-miterlimit:4;stroke-opacity:1;stroke-dasharray:none"
         d="m 103.23696,186.4774 c 1.12535,3.27203 2.77942,6.98537 4.53779,7.71566 2.69026,1.99001 3.84248,0.29908 6.99449,1.85308 2.25408,-0.55452 5.05006,-0.91535 7.32823,-2.15802 1.82701,-3.76173 3.98814,-4.82174 5.20042,-8.53553 0.475,-2.91546 2.20963,-4.62444 1.11044,-7.67127 -0.77677,-2.15123 -1.04703,-4.76288 -2.22563,-6.54887 -2.8198,-1.701 -4.22692,-4.12502 -6.52368,-4.94667 -2.14028,0.4793 -5.99037,-1.71094 -8.14043,-1.49485 -3.09951,0.95551 -4.8626,4.31504 -7.96194,5.27064 -0.68498,1.82918 -2.62268,1.33622 -2.48714,3.13707 -0.49206,1.16917 -0.51796,3.31354 -0.72065,4.73039 -0.14419,3.54071 2.60935,4.69311 2.8881,8.64837 z"
         id="path8797"
         sodipodi:nodetypes="cccccsccccccc" />
      <path
         sodipodi:nodetypes="ccccc"
         style="fill:none;stroke:#0000ff;stroke-width:4;stroke-linecap:round;stroke-linejoin:round;stroke-miterlimit:4;stroke-opacity:1;stroke-dasharray:none"
         d="m 115.36666,198.14226 c 0.38069,3.3551 0.30513,7.79771 -0.73308,9.00993 0.95514,5.06759 0.68741,9.88854 0.20846,15.18866 0.88084,4.67263 1.12698,8.73392 1.43795,12.84761 -0.15582,2.02265 0.39548,4.04518 0.23966,6.0677"
         id="path8799" />
      <path
         id="path8801"
         style="fill:none;stroke:#0000ff;stroke-width:4;stroke-linecap:round;stroke-linejoin:round;stroke-miterlimit:4;stroke-opacity:1;stroke-dasharray:none"
         d="m 139.29074,289.54414 c -2.15275,-2.36304 -2.28597,-11.1996 -4.7937,-15.28243 -1.46198,-4.83258 -0.5754,-4.87114 -6.71146,-13.33297 -3.47023,-8.4722 -7.78132,-14.2206 -11.14211,-19.31684 m -18.978812,48.20425 c 2.999932,-3.79388 4.583192,-7.11623 6.211162,-11.39746 1.33109,-5.52287 1.50377,-9.69561 4.06337,-13.90775 1.36375,-4.87758 2.38679,-8.39703 4.48592,-12.27822 1.13109,-3.62234 2.76519,-6.90798 3.74739,-10.61613"
         sodipodi:nodetypes="ccccccccc" />
      <path
         style="fill:none;stroke:#0000ff;stroke-width:4;stroke-linecap:round;stroke-linejoin:round;stroke-miterlimit:4;stroke-opacity:1;stroke-dasharray:none"
         d="m 118.46819,207.95017 c -5.62791,-0.68722 -9.63462,-0.26348 -12.10632,-0.0619 -5.43472,-0.86108 -6.967332,-1.01135 -10.599713,-0.86083 -5.347576,0.0826 -9.518812,-3.66366 -6.139256,-4.0434 4.651063,-0.52235 13.100859,-1.9577 19.153829,-0.90139 5.47615,0.95565 8.96437,0.48289 16.59229,0.50421 8.7732,1.55333 16.39118,1.88647 24.53018,1.58324 3.31938,0.0215 10.7748,0.50357 12.77435,1.22255"
         id="path8803"
         sodipodi:nodetypes="cccssccs"
         inkscape:transform-center-x="-10.367408"
         inkscape:transform-center-y="0.048248561" />
    </g>
    <path
       style="fill:none;stroke:#80ff00;stroke-width:4;stroke-linecap:round;stroke-linejoin:round;stroke-miterlimit:4;stroke-opacity:1;stroke-dasharray:none"
       d="m 313.9319,265.44441 c 1.52918,3.31499 1.58706,13.79929 -1.89401,16.45872 -4.9827,2.1242 -8.05947,3.9693 -13.11363,5.61072 -3.19366,1.45665 -11.10552,6.12788 -6.24882,0.87078 4.90244,-3.41537 11.21752,-2.8592 14.92584,-6.87031 3.58521,-4.32401 1.15009,-12.24674 1.41692,-17.60851 0.61885,-1.48685 -0.28706,-4.19411 0.19305,-5.71325"
       id="path2956"
       sodipodi:nodetypes="ccccccc" />
    <path
       style="fill:none;stroke:#80ff00;stroke-width:3.99999952;stroke-linecap:round;stroke-linejoin:round;stroke-miterlimit:4;stroke-opacity:1;stroke-dasharray:none"
       d="m 328.40964,263.3757 c 4.24674,-0.6044 9.93815,-2.3493 14.16563,-2.72382 5.49888,0.33532 9.97229,0.21699 13.85069,3.34187 3.9723,1.33815 11.74851,6.18136 4.91462,6.47105 -4.49258,0.11485 -6.45496,-1.80304 -11.74548,-2.07381 -5.43454,0.7484 -8.33632,2.14368 -13.22456,1.74629 -3.39163,0.76206 -9.55351,3.41777 -10.80445,2.58639"
       id="path2956-7-8"
       sodipodi:nodetypes="ccccccc" />
    <path
       style="color:#000000;fill:none;stroke:#80ff00;stroke-width:3.99999952;stroke-linecap:round;stroke-linejoin:round;stroke-miterlimit:4;stroke-opacity:1;stroke-dasharray:none;stroke-dashoffset:0;marker:none;visibility:visible;display:inline;overflow:visible;enable-background:accumulate"
       d="m 359.09879,210.19369 c 11.50664,8.21933 16.9791,8.57931 25.79721,1.155 3.80982,-6.97479 2.18869,-11.74116 -4.6317,-19.31758 -9.80725,-7.13563 -10.90621,-4.47096 -20.53175,-9.21143 -9.92327,0.9188 -16.96978,-3.29014 -27.12849,0.79588 -10.85385,2.66026 -24.46419,2.95125 -35.00649,1.36981"
       id="path4125-8"
       sodipodi:nodetypes="cccccc" />
    <path
       style="fill:none;stroke:#808080;stroke-width:3.99999976;stroke-linecap:round;stroke-linejoin:round;stroke-miterlimit:4;stroke-opacity:1;stroke-dasharray:none"
       d="m 266.24392,292.88335 c 0.64854,-0.12088 -3.73119,-2.73061 -5.85575,-4.34025 -3.06392,-1.45081 -2.15929,-1.78687 -4.78945,-3.11104 -1.21712,-0.2922 -0.5272,2.29066 -1.81966,2.36241 -0.94733,0.5758 -7.78453,-2.42758 -7.73054,-1.49357 0.048,1.88003 4.99149,3.51948 7.01936,3.95679 0.47902,1.21875 -1.33882,3.86321 0.62835,2.967 6.00692,-0.58989 9.49174,0.22846 12.54772,-0.34133 z"
       id="path3747"
       sodipodi:nodetypes="cccccccs" />
    <path
       style="fill:none;stroke:#80ff00;stroke-width:3.99999976;stroke-linecap:round;stroke-linejoin:round;stroke-miterlimit:4;stroke-opacity:1;stroke-dasharray:none"
       d="m 366.43042,266.91058 c 6.31032,-5.09983 16.70834,-8.78064 24.75764,-6.84539 7.28887,4.05603 10.96392,7.76555 13.84215,13.88786 3.99319,6.54979 11.03004,11.53412 19.76192,16.49776 7.44495,4.02896 17.93883,0.96858 26.7134,1.57181 4.97572,0.64754 10.01517,1.60445 14.68239,0.16211 10.9592,-1.72875 24.70158,-7.78554 31.65934,-7.44942 4.47633,1.77219 10.22278,1.55993 11.14213,1.23232 9.85112,-0.45626 11.77116,-6.90566 18.94196,-9.99538"
       id="path4123"
       sodipodi:nodetypes="ccccccccc" />
    <path
       style="color:#000000;fill:#000000;stroke:#80ff00;stroke-width:4;stroke-linecap:round;stroke-linejoin:round;stroke-miterlimit:4;stroke-opacity:1;stroke-dasharray:none;stroke-dashoffset:0;marker:none;visibility:visible;display:inline;overflow:visible;enable-background:accumulate;fill-opacity:0"
       d="m 366.14292,267.37908 c -2.00796,2.83378 -7.37713,6.49403 -10.36564,8.49472 -1.28241,0.85853 -5.3431,1.22607 -9.01586,2.45912 -4.04534,1.35809 -9.29874,3.09126 -13.48268,5.53118 -6.19808,1.19251 -10.93262,2.18833 -16.72506,3.78998 -7.0628,1.95303 -14.60671,2.35307 -21.95129,3.37892 -3.69325,0.51588 -8.9294,-1.34499 -10.69117,-4.67439 -1.35921,-2.56812 -2.2656,-7.81131 2.53513,-10.80549"
       id="path2833"
       sodipodi:nodetypes="csscssss" />
    <path
       style="color:#000000;fill:none;stroke:#0000ff;stroke-width:4;stroke-linecap:round;stroke-linejoin:round;stroke-miterlimit:4;stroke-opacity:1;stroke-dasharray:none;stroke-dashoffset:0;marker:none;visibility:visible;display:inline;overflow:visible;enable-background:accumulate"
       d="m 296.24449,275.7364 c 0.93033,0.002 2.16165,-1.60224 2.5907,-2.72481 0.20737,-1.40063 0.19562,-2.61362 -0.43719,-4.0964 -0.97052,-1.65785 -1.94149,-2.69081 -2.76633,-4.24715 0.0456,3.04616 -1.35224,4.31445 -1.72875,6.45721 0.011,2.41955 -0.26491,4.09592 2.34157,4.61115 z"
       id="path6122"
       sodipodi:nodetypes="cccccc" />
    <path
       style="color:#000000;fill:none;stroke:#0000ff;stroke-width:4;stroke-linecap:round;stroke-linejoin:round;stroke-miterlimit:4;stroke-opacity:1;stroke-dasharray:none;stroke-dashoffset:0;marker:none;visibility:visible;display:inline;overflow:visible;enable-background:accumulate"
       d="m 304.08661,277.87061 c 0.1846,2.99436 -0.0961,3.54558 -0.41823,6.50254 1.19424,2.72263 4.36453,3.54135 5.38504,1.61354 1.7044,-3.26792 -2.71902,-6.90171 -4.96681,-8.11608 z"
       id="path6124"
       sodipodi:nodetypes="cccc" />
    <path
       style="color:#000000;fill:none;stroke:#0000ff;stroke-width:4;stroke-linecap:round;stroke-linejoin:round;stroke-miterlimit:4;stroke-opacity:1;stroke-dasharray:none;stroke-dashoffset:0;marker:none;visibility:visible;display:inline;overflow:visible;enable-background:accumulate"
       d="m 283.01749,283.83015 c -0.1942,2.11353 -0.31391,3.08462 1.6747,3.87691 2.06917,0.46961 2.78609,-0.79321 3.29328,-2.65788 0.10734,-1.22538 -0.6534,-2.20456 -0.6367,-3.43138 -0.0372,-0.8109 0.7126,-2.76838 0.43337,-3.54171 -1.82663,0.66226 -3.76219,3.94665 -4.76465,5.75406 z"
       id="path6128"
       sodipodi:nodetypes="cccccc" />
  </g>
</svg>
