<?xml version="1.0" encoding="UTF-8" standalone="no"?>
<!-- Created with Inkscape (http://www.inkscape.org/) -->

<svg
   xmlns:dc="http://purl.org/dc/elements/1.1/"
   xmlns:cc="http://creativecommons.org/ns#"
   xmlns:rdf="http://www.w3.org/1999/02/22-rdf-syntax-ns#"
   xmlns:svg="http://www.w3.org/2000/svg"
   xmlns="http://www.w3.org/2000/svg"
   xmlns:sodipodi="http://sodipodi.sourceforge.net/DTD/sodipodi-0.dtd"
   xmlns:inkscape="http://www.inkscape.org/namespaces/inkscape"
   width="480"
   height="320"
   id="svg2"
   version="1.1"
   inkscape:version="0.47 r22583"
   sodipodi:docname="itnas062.svg"
   inkscape:export-xdpi="90"
   inkscape:export-ydpi="90"
   sodipodi:version="0.32"
   inkscape:output_extension="org.inkscape.output.svg.inkscape"
   inkscape:export-filename="itnas062.png">
  <defs
     id="defs4">
    <inkscape:perspective
       sodipodi:type="inkscape:persp3d"
       inkscape:vp_x="0 : 160 : 1"
       inkscape:vp_y="0 : 1000 : 0"
       inkscape:vp_z="480 : 160 : 1"
       inkscape:persp3d-origin="240 : 106.66667 : 1"
       id="perspective3390" />
  </defs>
  <sodipodi:namedview
     id="base"
     pagecolor="#ffffff"
     bordercolor="#666666"
     borderopacity="1.0"
     inkscape:pageopacity="1"
     inkscape:pageshadow="2"
     inkscape:zoom="1.4142136"
     inkscape:cx="442.40293"
     inkscape:cy="141.77152"
     inkscape:document-units="px"
     inkscape:current-layer="layer1"
     showgrid="false"
     inkscape:snap-nodes="true"
     inkscape:snap-global="false"
     inkscape:snap-grids="true"
     showguides="true"
     inkscape:window-width="1280"
     inkscape:window-height="774"
     inkscape:window-x="-4"
     inkscape:window-y="-4"
     inkscape:window-maximized="1">
    <inkscape:grid
       empspacing="5"
       visible="true"
       enabled="true"
       snapvisiblegridlinesonly="true"
       type="xygrid"
       id="grid2816" />
  </sodipodi:namedview>
  <metadata
     id="metadata7">
    <rdf:RDF>
      <cc:Work
         rdf:about="">
        <dc:format>image/svg+xml</dc:format>
        <dc:type
           rdf:resource="http://purl.org/dc/dcmitype/StillImage" />
        <dc:title />
      </cc:Work>
    </rdf:RDF>
  </metadata>
  <g
     inkscape:label="Layer 1"
     inkscape:groupmode="layer"
     id="layer1"
     transform="translate(0,0)">
    <path
       style="opacity:1;fill:none;fill-opacity:1;fill-rule:nonzero;stroke:#008000;stroke-width:4;stroke-linecap:round;stroke-linejoin:round;marker:none;marker-start:none;marker-mid:none;marker-end:none;stroke-miterlimit:4;stroke-dasharray:none;stroke-dashoffset:0;stroke-opacity:1;visibility:visible;display:inline;overflow:visible;enable-background:accumulate"
       d="M 265.16504,200.49895 C 264.47533,206.50131 267.99347,223.18555 267.99347,233.73297 C 267.99347,241.15082 269.40768,248.69671 269.40768,256.36039 C 269.40768,258.24601 269.40768,260.13163 269.40768,262.01724"
       id="path3654" />
    <path
       style="opacity:1;fill:none;fill-opacity:1;fill-rule:nonzero;stroke:#008000;stroke-width:4;stroke-linecap:round;stroke-linejoin:round;marker:none;marker-start:none;marker-mid:none;marker-end:none;stroke-miterlimit:4;stroke-dasharray:none;stroke-dashoffset:0;stroke-opacity:1;visibility:visible;display:inline;overflow:visible;enable-background:accumulate"
       d="M 276.47875,199.79185 C 276.47875,203.87765 275.06454,215.67962 275.06454,223.12637 C 275.06454,230.19093 274.60687,238.39206 272.94322,245.04668 C 271.86823,249.34662 272.94322,255.44317 272.94322,259.89592"
       id="path3656" />
    <path
       style="opacity:1;fill:none;fill-opacity:1;fill-rule:nonzero;stroke:#008000;stroke-width:4;stroke-linecap:round;stroke-linejoin:round;marker:none;marker-start:none;marker-mid:none;marker-end:none;stroke-miterlimit:4;stroke-dasharray:none;stroke-dashoffset:0;stroke-opacity:1;visibility:visible;display:inline;overflow:visible;enable-background:accumulate"
       d="M 293.74957,204.58474 C 292.19731,210.79377 292.33857,222.95664 290.21403,231.4548 C 288.29598,239.12702 287.38561,246.93148 287.38561,254.78932 C 287.38561,256.45599 286.9142,258.08915 286.6785,259.73907"
       id="path3658" />
    <path
       style="opacity:1;fill:none;fill-opacity:1;fill-rule:nonzero;stroke:#008000;stroke-width:4;stroke-linecap:round;stroke-linejoin:round;marker:none;marker-start:none;marker-mid:none;marker-end:none;stroke-miterlimit:4;stroke-dasharray:none;stroke-dashoffset:0;stroke-opacity:1;visibility:visible;display:inline;overflow:visible;enable-background:accumulate"
       d="M 299.81327,199.08474 C 299.81327,206.93219 300.76214,220.26159 299.10617,230.19744 C 297.71583,238.53945 299.65676,247.79966 301.22749,255.65328 C 301.41239,256.57778 301.22749,257.5389 301.22749,258.48171"
       id="path3660" />
    <path
       style="opacity:1;fill:none;fill-opacity:1;fill-rule:nonzero;stroke:#008000;stroke-width:4;stroke-linecap:round;stroke-linejoin:round;marker:none;marker-start:none;marker-mid:none;marker-end:none;stroke-miterlimit:4;stroke-dasharray:none;stroke-dashoffset:0;stroke-opacity:1;visibility:visible;display:inline;overflow:visible;enable-background:accumulate"
       d="M 284.25693,188.47814 C 284.82134,191.3002 283.54982,207.16032 283.54982,213.93398 C 283.54982,215.3482 283.54982,216.76241 283.54982,218.17662 C 283.54982,225.7915 281.26237,235.43685 280.01428,242.92536 C 279.00829,248.96131 277.89296,254.61305 277.89296,260.60303"
       id="path3662" />
    <path
       style="opacity:1;fill:none;fill-opacity:1;fill-rule:nonzero;stroke:#008000;stroke-width:4;stroke-linecap:round;stroke-linejoin:round;marker:none;marker-start:none;marker-mid:none;marker-end:none;stroke-miterlimit:4;stroke-dasharray:none;stroke-dashoffset:0;stroke-opacity:1;visibility:visible;display:inline;overflow:visible;enable-background:accumulate"
       d="M 408.375,212.25001 C 408.375,218.66933 409.875,229.18643 409.875,237.05089 C 409.875,240.23871 411.375,242.7943 411.375,245.87833 C 411.375,249.42305 410.875,252.43149 410.875,255.96682 C 410.875,257.13695 410.375,258.47955 410.375,259.75001"
       id="path3751" />
    <path
       style="fill:none;fill-rule:nonzero;stroke:#008000;stroke-width:4;stroke-linecap:round;stroke-linejoin:round;stroke-opacity:1;opacity:1;color:#000000;fill-opacity:1;marker:none;marker-start:none;marker-mid:none;marker-end:none;stroke-miterlimit:4;stroke-dasharray:none;stroke-dashoffset:0;visibility:visible;display:inline;overflow:visible;enable-background:accumulate"
       d="M 430.5,202.75 C 430.5,210.73449 429.43139,220.02444 427.5,227.75 C 425.8763,234.24478 425,243.0982 425,249.75 C 425,252.58333 424.31282,255.50126 425,258.25"
       id="path3753" />
    <path
       style="fill:none;fill-rule:nonzero;stroke:#008000;stroke-width:4;stroke-linecap:round;stroke-linejoin:round;stroke-opacity:1;opacity:1;color:#000000;fill-opacity:1;marker:none;marker-start:none;marker-mid:none;marker-end:none;stroke-miterlimit:4;stroke-dasharray:none;stroke-dashoffset:0;visibility:visible;display:inline;overflow:visible;enable-background:accumulate"
       d="M 418.875,199.125 C 420.00497,203.64486 418.875,218.79906 418.875,225.625 C 418.875,231.16599 420.375,236.4709 420.375,242.125 C 420.375,246.8452 419.375,250.90316 419.375,255.625 C 419.375,257.55191 418.19517,258.48465 417.875,259.125"
       id="path3755" />
    <path
       style="fill:none;fill-rule:nonzero;stroke:#008000;stroke-width:4;stroke-linecap:round;stroke-linejoin:round;stroke-opacity:1;opacity:1;color:#000000;fill-opacity:1;marker:none;marker-start:none;marker-mid:none;marker-end:none;stroke-miterlimit:4;stroke-dasharray:none;stroke-dashoffset:0;visibility:visible;display:inline;overflow:visible;enable-background:accumulate"
       d="M 401.375,200.75 C 401.375,206.61155 399.875,217.07541 399.875,224.75 C 399.875,230.78231 400.875,236.73873 400.875,242.75 C 400.875,247.5053 400.875,251.97551 400.875,256.75 C 400.875,257.75 400.875,258.75 400.875,259.75"
       id="path3757" />
    <path
       style="opacity:1;fill:none;fill-opacity:1;fill-rule:nonzero;stroke:#008000;stroke-width:4;stroke-linecap:round;stroke-linejoin:round;marker:none;marker-start:none;marker-mid:none;marker-end:none;stroke-miterlimit:4;stroke-dasharray:none;stroke-dashoffset:0;stroke-opacity:1;visibility:visible;display:inline;overflow:visible;enable-background:accumulate"
       d="M 441.5,191.35938 C 441.5,198.58058 440.71563,212.17078 439.5,222.0144 C 439.33333,223.364 439.16667,224.71358 439,226.06318 C 438.87982,227.03639 438.66667,227.99117 438.5,228.95516 C 437.54629,234.47141 438.67515,240.29103 437.5,245.72866 C 436.81064,248.91847 437.37515,254.9837 438,257.87499"
       id="path3759" />
    <path
       style="fill:none;fill-rule:evenodd;stroke:#0000ff;stroke-width:3.99999976;stroke-linecap:round;stroke-linejoin:round;stroke-miterlimit:4;stroke-dasharray:none;stroke-opacity:1"
       d="m 144.98675,261 c 8.41867,0.74544 29.6007,-2 41.09579,-2 8.82675,0 34.57177,1.23104 38.1859,2.437 14.16441,4.72638 26.56625,-3.81143 44.10715,1.3602 7.41978,2.1876 45.13289,-4.41782 50.93654,-3.60355 5.87944,0.8249 14.47913,2.57285 28.65745,0.30674 3.47758,-0.55582 9.40916,1.64359 12.65488,1.10264 15.13848,-2.52308 34.07751,0 49.49748,0 11.32457,0 22.2965,-3.44148 33.23401,-0.70711 7.91467,1.97867 16.5799,1.41422 24.74874,1.41422 7.38367,0 15.10503,0.7071 22.62742,0.7071 6.5282,0 12.93988,-0.12378 19.09188,1.41422"
       id="path2849"
       sodipodi:nodetypes="csssssssssss" />
    <path
       style="fill:none;stroke:#ff8000;stroke-width:4;stroke-linecap:round;stroke-linejoin:round;stroke-miterlimit:4;stroke-opacity:1;stroke-dasharray:none"
       d="m 212.86395,269.43212 c 0.41265,-3.77131 -7.29492,0.44667 -12.5852,2.60324 -1.11307,0.45335 -9.44664,4.73072 -10.55958,5.1844 -4.43322,1.80722 -13.54919,3.38884 -16.29954,-0.76838 -2.85793,-4.31977 -0.87789,-8.5473 2.99795,-12.52871 2.41971,-2.48545 9.43415,1.6449 10.88752,2.60049 5.35903,3.52199 7.3962,5.76557 11.63186,10.53326 2.80996,3.16289 3.93132,3.55585 6.01327,4.92412 3.35429,2.20449 6.26748,5.75154 6.34317,1.73839 0.0409,-2.16933 0.95361,-8.65072 1.57024,-14.28652 z"
       id="path3621"
       sodipodi:nodetypes="csssssssss" />
    <path
       style="fill:none;stroke:#ff8000;stroke-width:4;stroke-linecap:round;stroke-linejoin:round;stroke-miterlimit:4;stroke-opacity:1;stroke-dasharray:none"
       d="m 390.73409,273.06983 c 0.1709,-0.83721 5.57254,5.13359 8.41983,8.39462 4.31124,4.9377 12.67653,8.6675 18.96508,9.17821 5.13371,0.41693 7.59769,-4.40755 8.76687,-8.37439 1.59506,-5.41183 -4.33382,-8.44824 -8.58178,-8.09957 -5.55149,0.45566 -11.92762,3.08595 -13.64495,5.00849 -3.73609,4.18254 -5.92399,6.09501 -10.74922,9.13982 -6.15367,3.8831 -5.14498,0.97141 -5.04646,0.0766 0.40276,-3.63274 1.09563,-11.52671 1.87063,-15.32374 z"
       id="path3623"
       sodipodi:nodetypes="cssssssss" />
    <path
       style="opacity:1;fill:none;fill-opacity:1;fill-rule:nonzero;stroke:#008000;stroke-width:4;stroke-linecap:round;stroke-linejoin:round;marker:none;marker-start:none;marker-mid:none;marker-end:none;stroke-miterlimit:4;stroke-dasharray:none;stroke-dashoffset:0;stroke-opacity:1;visibility:visible;display:inline;overflow:visible;enable-background:accumulate"
       d="M -170.51324,256 C -164.84623,254.83196 -154.20139,256.38393 -150.51324,256.5 C -139.71273,256.8399 -126.53077,258.5 -115.51324,258.5 C -101.89381,258.5 -88.583384,255.95965 -75.013239,256.5 C -62.905859,256.9821 -50.074499,259.91225 -38.013239,257.5 C -24.878329,254.87302 -8.8235489,258 4.4867611,258 C 23.854271,258 43.318191,258.12984 62.486761,256 C 72.959941,254.83631 83.40874,255 93.98676,255 C 105.88515,255 116.62521,265.54594 128.4261,265.54594 C 141.72141,265.54594 152.04771,267.22468 162.48676,275.5 C 173.20923,284 185.03713,285.12982 195.98676,287.5 C 209.84602,290.5 222.97367,290.80186 234.98676,293.5 C 241.6653,295 247.04921,300.73536 251.48676,303.5 C 260.90329,309.36661 269.53004,313.5 278.48676,313.5 C 287.52902,313.5 327.14242,314.58608 335.48676,312.5 C 345.3652,312.5 355.14407,307.27208 365.57421,307.27208 C 382.77513,307.27208 400.02298,305.15076 417.193,305.15076 C 435.59079,305.15076 455.66044,309.63595 473.76154,312.22183 C 485.67135,313.92323 499.15402,313.08303 510.5311,310.80761"
       id="path2842"
       sodipodi:nodetypes="cssssssssssssss" />
    <path
       style="fill:none;stroke:#0000ff;stroke-width:4;stroke-linecap:round;stroke-linejoin:round;stroke-miterlimit:4;stroke-opacity:1;stroke-dasharray:none"
       d="m 143.94904,211.53224 c -0.44875,2.48555 -2.32493,2.98459 -3.53318,3.65301 -1.74761,1.66298 -2.23316,0.87044 -4.37071,2.24834 -1.72134,-0.23682 -3.21915,0.68607 -5.03784,-0.0538 -2.7756,-0.18585 -4.72696,-3.36017 -6.0479,-5.99355 -0.68655,-2.10323 -1.522,-4.07974 -1.06641,-6.39809 0.32218,-1.63693 0.21869,-3.57347 0.87857,-4.97273 1.87629,-1.46068 2.99156,-5.04145 4.58508,-5.81751 1.62897,0.19019 3.22741,0.53882 4.83312,0.53521 2.38929,0.46723 4.7787,0.93347 7.16788,1.40082 0.71523,1.29039 1.99574,2.09844 2.10444,3.42995 0.49704,0.8207 0.009,2.52055 0.3215,3.54479 0.51567,2.58693 -0.0873,5.5006 0.16545,8.42359 l 0,0 z"
       id="path2905" />
    <path
       style="fill:none;stroke:#0000ff;stroke-width:4;stroke-linecap:round;stroke-linejoin:round;stroke-miterlimit:4;stroke-opacity:1;stroke-dasharray:none"
       d="m 130.3125,252.2922 c 0.91541,-2.36804 -0.41107,-5.67568 0.46419,-6.49665 -0.29882,-3.86578 0.13098,-7.78795 -0.21853,-11.64608 -0.5047,-3.32218 0.26942,-6.57664 0.37394,-9.6767 0.28214,-1.49899 0.56425,-2.99787 0.84636,-4.49675"
       id="path2907" />
    <path
       style="fill:none;stroke:#c87137;stroke-width:4;stroke-linecap:round;stroke-linejoin:round;stroke-miterlimit:4;stroke-opacity:1;stroke-dasharray:none;stroke-dashoffset:0;marker:none;visibility:visible;display:inline;overflow:visible;enable-background:accumulate"
       d="m 98.734312,233.99051 c -0.07806,2.36171 -0.221791,4.63949 0.354581,6.96748 0.178754,0.72203 0.764469,1.07522 1.098947,1.67164 0.4767,0.85008 0.53789,2.10385 1.05997,2.89804 0.20477,0.31147 0.59364,0.21396 0.85019,0.43623 0.89213,0.77253 1.77507,2.43401 2.78631,2.9528 2.6227,1.34569 5.5407,1.40372 8.30509,1.49156 2.112,0.0671 4.26773,0.50453 6.09423,-1.44299 3.491,-3.72238 2.01479,-4.98382 3.17607,-9.31041 0.73114,-2.72405 2.13748,-3.81882 2.22194,-6.47649"
       id="path2928" />
    <path
       style="fill:none;stroke:#ff0000;stroke-width:4;stroke-linecap:butt;stroke-linejoin:miter;stroke-miterlimit:4;stroke-opacity:1;stroke-dasharray:none;stroke-dashoffset:0;marker:none;visibility:visible;display:inline;overflow:visible;enable-background:accumulate"
       d="m 145.04025,240.15847 c -0.50556,-0.26345 -2.51923,-1.13264 -3.16794,-0.72573 -1.36062,0.85341 -2.11402,0.93065 -2.67522,2.72134 -0.42378,1.35222 -0.28798,1.79574 0.71602,2.47231 1.50162,1.01197 2.82391,0.70744 4.36598,-0.0257 0.93391,-0.44396 0.72015,-0.47754 1.25387,-0.99514 0.99031,-0.96032 0.3805,-2.99209 -0.49271,-3.44706 z"
       id="path3727"
       sodipodi:nodetypes="cssssss" />
    <path
       style="fill:none;stroke:#ff0000;stroke-width:4;stroke-linecap:butt;stroke-linejoin:miter;stroke-miterlimit:4;stroke-opacity:1;stroke-dasharray:none;stroke-dashoffset:0;marker:none;visibility:visible;display:inline;overflow:visible;enable-background:accumulate"
       d="m 154.19683,239.22849 c -1.08974,-0.52387 -4.44883,0.88512 -4.8405,2.09707 -0.25188,0.77933 0.3869,3.07894 0.88616,3.40895 0.84596,0.55922 2.16999,0.7582 3.16794,0.72573 0.4833,-0.0157 1.05267,-1.27842 1.42136,-1.72621 0.34078,-0.41386 0.70384,-1.70981 0.50241,-2.19319 -0.31787,-0.76274 -0.025,-1.77756 -1.13737,-2.31235 z"
       id="path3729"
       sodipodi:nodetypes="cssssss" />
    <path
       style="fill:none;stroke:#ff0000;stroke-width:4;stroke-linecap:butt;stroke-linejoin:miter;stroke-miterlimit:4;stroke-opacity:1;stroke-dasharray:none;stroke-dashoffset:0;marker:none;visibility:visible;display:inline;overflow:visible;enable-background:accumulate"
       d="m 198.84876,202.66732 c -0.58805,-0.23699 -1.39459,-0.44526 -1.97354,-0.40944 -0.88352,0.0545 -1.82398,1.4167 -2.17313,2.23809 -0.24929,0.58654 -0.06,1.0086 0.27381,1.4215 0.36701,0.45375 1.34206,1.61748 1.87338,1.65542 0.51046,0.0363 1.46183,0.24032 2.11729,-0.13078 0.85635,-0.48488 1.14098,-0.91422 1.48988,-1.68604 0.29343,-0.64909 0.31752,-1.38593 0.2439,-1.7862 -0.067,-0.3644 -0.55833,-0.78162 -1.85159,-1.30255 z"
       id="path3733"
       sodipodi:nodetypes="cssssssss" />
    <path
       style="fill:none;stroke:#0000ff;stroke-width:3.99999976;stroke-linecap:round;stroke-linejoin:round;stroke-miterlimit:4;stroke-opacity:1;stroke-dasharray:none"
       d="m 161.82772,239.70384 c -4.46158,-2.04556 -8.33198,-4.06533 -13.56342,-5.90268 -3.54288,-1.2443 -10.67344,-0.60524 -13.4824,-2.97601 -1.1333,-0.9565 -6.53304,-5.81281 -2.96372,-6.0458 3.79333,-0.24761 7.13884,-0.44201 9.79712,-0.97904 3.73723,-0.755 9.17087,-0.7503 11.09209,0.35821 1.86336,1.07513 5.91067,0.56777 8.28525,-0.10101 1.23898,-0.34895 1.43166,-1.0822 3.82163,-0.79163"
       id="path2911"
       sodipodi:nodetypes="csssssss"
       inkscape:transform-center-x="-16.235528"
       inkscape:transform-center-y="8.9967808" />
    <path
       style="fill:none;stroke:#c87137;stroke-width:4;stroke-linecap:round;stroke-linejoin:round;marker:none;stroke-miterlimit:4;stroke-dasharray:none;stroke-dashoffset:0;stroke-opacity:1;visibility:visible;display:inline;overflow:visible;enable-background:accumulate"
       d="M -41.221519,254.42966 C -46.036529,253.85131 -51.420289,256.36575 -55.727339,254.59013 C -59.450479,253.05523 -63.351579,249.90168 -64.404529,245.39182 C -65.838029,239.25197 -67.461129,233.14479 -68.909439,227.00328 C -71.053559,217.91123 -69.453039,208.56101 -69.883869,199.34271 C -70.099769,194.72301 -67.561859,190.45928 -67.699309,185.76731 C -67.893229,179.14806 -68.138979,172.52495 -67.717509,165.89689 C -67.492719,162.36178 -67.773509,158.73006 -69.517269,155.50366 C -70.573719,153.54898 -69.685979,151.15662 -69.704029,149.00427"
       id="path2832"
       sodipodi:nodetypes="cssssssss" />
    <path
       style="fill:none;stroke:#c87137;stroke-width:4;stroke-linecap:round;stroke-linejoin:round;marker:none;stroke-miterlimit:4;stroke-dasharray:none;stroke-dashoffset:0;stroke-opacity:1;visibility:visible;display:inline;overflow:visible;enable-background:accumulate"
       d="M -99.121679,153.76514 C -98.664069,157.47561 -98.305969,161.19114 -97.799809,164.93278 C -97.140199,169.80884 -97.799809,175.3607 -97.799809,180.28829 C -97.799809,191.50441 -96.580289,203.75388 -99.121679,214.48921 C -100.4706,220.18735 -97.551289,234.64119 -99.121679,239.61643 C -101.60907,247.49685 -109.69881,251.13421 -116.96684,254.97192 C -118.03633,255.53665 -120.96597,254.97192 -122.2543,254.97192"
       id="path2850"
       sodipodi:nodetypes="cssssss" />
    <path
       style="fill:none;stroke:#94f3f3;stroke-width:4;stroke-linecap:round;stroke-linejoin:round;stroke-miterlimit:4;stroke-dasharray:none;stroke-opacity:1"
       d="M -104.41949,37.450061 C -109.36549,37.63939 -113.89176,41.249528 -115.41949,45.918811 C -117.08817,49.653717 -118.72881,53.735019 -118.03794,57.902846 C -117.14754,62.732175 -115.16371,67.254744 -113.60699,71.887561 C -113.26099,72.584218 -112.63882,73.508208 -113.26324,74.231311 C -114.3031,74.851141 -115.02115,73.390019 -115.57393,72.716889 C -116.45154,71.422244 -117.18994,70.025401 -118.25953,68.873126 C -122.27837,63.259798 -126.96142,58.024736 -132.63824,54.043811 C -134.23287,53.005647 -136.40475,53.087993 -137.88824,54.293811 C -140.03256,55.920217 -141.56372,58.186873 -143.56581,59.971381 C -147.18893,63.533391 -151.16552,66.933284 -153.62424,71.458303 C -156.23338,76.563585 -156.59561,82.877372 -154.14827,88.112572 C -152.33405,92.205306 -148.57228,94.937768 -144.82593,97.140161 C -140.59977,99.649226 -136.27985,102.01336 -132.20074,104.76254 C -131.45009,104.80293 -129.98675,106.11396 -131.16267,106.45349 C -132.31578,106.23977 -133.48263,105.69611 -134.65384,106.14242 C -140.04321,107.1904 -144.75617,110.44338 -148.51029,114.34455 C -150.3759,116.35936 -152.06206,118.60941 -152.90625,121.25538 C -153.89488,124.09596 -153.91791,127.40076 -152.36941,130.05226 C -151.26013,132.22541 -149.10848,133.52925 -147.00187,134.58844 C -143.75209,136.23651 -140.38337,137.71436 -137.44418,139.90046 C -135.23618,141.40464 -133.03112,142.91986 -130.70074,144.23129 C -129.85635,145.16824 -130.91345,146.39089 -131.7955,146.82565 C -138.14047,150.57401 -144.111,155.05787 -149.09556,160.50834 C -151.65908,163.27443 -153.64429,166.86776 -153.54449,170.73129 C -153.49498,172.93325 -151.91868,175.14354 -149.64964,175.43662 C -144.19601,176.97513 -138.59618,177.99527 -132.96283,178.5801 C -128.23368,178.90851 -123.37242,178.36838 -119.02863,176.38075 C -114.05167,174.13981 -113.79236,170.60547 -109.88904,166.84715 C -106.28124,163.17183 -103.03642,159.04668 -100.99934,154.28103 C -100.45265,153.29631 -100.25393,152.1351 -99.513239,151.26254 C -98.766854,150.71443 -97.368528,151.06182 -97.356989,152.10629 C -96.794804,154.35535 -95.914059,156.64476 -94.143173,158.22136 C -91.881907,160.73234 -85.198739,162.87099 -82.312257,164.61168 C -79.759427,165.72372 -78.733796,163.07557 -77.004711,161.03526 C -74.298146,158.28659 -72.312499,154.79733 -71.39038,151.05082 C -71.126553,150.06943 -71.314753,148.89467 -70.731989,148.04379 C -69.760757,147.32059 -68.747418,148.21825 -68.158482,148.96219 C -65.143551,151.44944 -60.185999,155.94384 -56.185979,156.67799 C -51.642079,157.59844 -47.025199,156.403 -42.659539,155.17442 C -38.961209,154.12913 -35.235919,152.87088 -32.026739,150.71084 C -29.833509,149.17195 -29.584269,145.89684 -30.923959,143.71423 C -32.032729,141.80015 -33.428749,140.08367 -34.824309,138.37477 C -35.320799,137.71438 -36.052859,136.81453 -34.943419,137.78652 C -32.340359,139.81118 -29.429799,141.91602 -25.987119,141.93137 C -22.359879,142.1149 -18.509879,142.81828 -15.061219,141.31778 C -12.807279,140.00325 -12.049009,137.27661 -11.588459,134.87477 C -9.5568389,126.16505 -9.0341389,117.03795 -10.584609,108.20729 C -10.984059,105.38735 -12.070709,102.3945 -14.542469,100.75815 C -16.669169,99.258085 -19.288389,98.500507 -21.888239,98.731311 C -22.955389,98.514555 -22.652079,96.758489 -21.606989,96.793811 C -16.848249,95.259846 -12.125519,93.282474 -8.2001189,90.123458 C -6.5762289,88.791742 -5.0219489,87.300056 -3.9507389,85.481311 C -3.1853189,83.899888 -3.3360989,81.90067 -4.5621989,80.586414 C -6.4402189,78.311637 -9.2984489,77.191316 -11.981989,76.168811 C -17.690859,74.123928 -24.106299,74.942063 -29.525189,77.465791 C -31.489759,78.362934 -33.503289,79.36129 -34.836809,81.12685 C -35.810639,81.703496 -35.175519,83.009795 -36.263239,83.418811 C -37.470649,83.64338 -36.958659,81.837306 -36.983759,81.096359 C -36.687609,79.565458 -36.750529,78.013604 -36.902629,76.474666 C -37.322189,70.067127 -39.772329,63.736363 -44.046289,58.912131 C -46.245239,56.562374 -49.058829,54.293097 -52.441349,54.293811 C -55.129899,54.439031 -56.997129,56.612122 -58.811549,58.342117 C -60.415289,59.853018 -61.744474,61.625646 -63.200739,63.262561 C -64.205913,63.707468 -64.974154,62.568347 -65.167379,61.715017 C -66.463464,58.059309 -68.822656,54.875583 -71.395449,52.017093 C -75.905876,47.321545 -81.757033,44.295796 -87.355387,41.118548 C -90.934374,39.240548 -94.832113,37.86469 -98.891828,37.612577 C -100.72772,37.427989 -102.57603,37.392312 -104.41949,37.450061 z"
       id="path2827"
       sodipodi:nodetypes="csssssssssssssssssssssssssssssssssssssscccccccccccccccccccccccccccccc" />
    <path
       id="path3747"
       style="fill:none;stroke:#808080;stroke-width:4;stroke-linecap:butt;stroke-linejoin:miter;stroke-miterlimit:4;stroke-dasharray:none;stroke-opacity:1"
       d="M 97.858142,248.1751 C 97.858493,249.16965 91.115435,249.09924 87.756941,249.46047 C 83.690051,249.89789 79.650233,250.652 75.564284,251.00339 C 68.237298,251.63358 60.895888,252.16443 53.568371,252.51494 C 47.95351,252.78352 42.361184,252.70856 36.730419,253.3479 C 32.29089,253.85194 27.699258,254.22395 23.423469,253.46698 C 20.673508,252.98015 18.085606,251.97291 15.198956,252.15904 C 13.580221,252.26339 12.505389,251.20075 12.160667,250.41025 C 11.725913,249.41296 13.030271,245.76948 14.436426,243.98461 C 15.489571,242.64785 15.068635,240.67906 16.08042,239.40204 C 18.342663,236.54553 18.055011,235.3466 19.130171,231.8795 C 19.871861,229.4877 20.399306,226.96841 21.151272,224.61979 C 21.962634,222.08562 22.632092,216.72285 24.075653,217.10792 C 27.386052,217.99095 33.126139,222.91773 37.96562,225.41213 C 48.525413,230.85494 59.152828,236.56425 70.850036,239.33729 C 76.076708,240.57637 80.852434,243.20236 86.199173,244.09795 C 90.305279,244.78552 97.857992,246.90105 97.85844,248.17523 L 97.858142,248.1751 z"
       sodipodi:nodetypes="cssssssssssssssss" />
    <path
       sodipodi:nodetypes="cssssss"
       id="path4061"
       d="M 123.44323,256.12963 C 123.44849,255.55957 121.5585,254.11042 120.80287,254.23464 C 119.21801,254.4951 117.44629,253.83938 117.28304,255.70885 C 117.15279,257.20039 116.32265,257.25327 116.98665,258.26563 C 117.97973,259.7798 118.41601,259.97955 120.12165,259.90018 C 121.15459,259.85215 120.97048,259.73848 121.66291,259.46773 C 122.94765,258.9654 123.43196,257.35058 123.44323,256.12963 z"
       style="opacity:1;fill:none;fill-opacity:1;fill-rule:nonzero;stroke:#808080;stroke-width:4;stroke-linecap:butt;stroke-linejoin:miter;marker:none;marker-start:none;marker-mid:none;marker-end:none;stroke-miterlimit:4;stroke-dasharray:none;stroke-dashoffset:0;stroke-opacity:1;visibility:visible;display:inline;overflow:visible;enable-background:accumulate" />
    <path
       sodipodi:nodetypes="cssssss"
       id="path4063"
       d="M 128.60494,256.09177 C 127.44145,256.42074 125.85713,259.7008 126.36609,260.86835 C 126.69335,261.61915 128.61874,261.80403 129.2114,261.72076 C 130.21563,261.57969 131.41554,261.96757 132.14188,261.28245 C 132.49367,260.9507 133.06497,260.34449 132.81024,259.82339 C 132.48067,259.14916 131.47749,257.25422 130.98836,257.07153 C 130.21495,256.78265 129.79265,255.756 128.60494,256.09177 z"
       style="opacity:1;fill:none;fill-opacity:1;fill-rule:nonzero;stroke:#808080;stroke-width:4;stroke-linecap:butt;stroke-linejoin:miter;marker:none;marker-start:none;marker-mid:none;marker-end:none;stroke-miterlimit:4;stroke-dasharray:none;stroke-dashoffset:0;stroke-opacity:1;visibility:visible;display:inline;overflow:visible;enable-background:accumulate" />
    <path
       sodipodi:nodetypes="cssssssss"
       id="path4065"
       d="M 141.29626,257.89117 C 140.93079,257.3731 139.688,257.69763 139.1822,257.41368 C 138.41038,256.98024 137.69166,257.84136 136.95281,258.34201 C 136.42521,258.69954 135.86077,259.36061 135.9172,259.88853 C 135.97939,260.46881 136.16727,261.97536 136.59306,262.29543 C 137.0022,262.60283 138.21752,262.62302 138.96945,262.66681 C 139.9519,262.72398 140.90424,262.61 141.78499,262.75258 C 142.48816,262.8664 142.12204,261.52989 142.27731,261.15369 C 142.4187,260.81123 142.10017,259.03031 141.29626,257.89117 z"
       style="opacity:1;fill:none;fill-opacity:1;fill-rule:nonzero;stroke:#808080;stroke-width:4;stroke-linecap:butt;stroke-linejoin:miter;marker:none;marker-start:none;marker-mid:none;marker-end:none;stroke-miterlimit:4;stroke-dasharray:none;stroke-dashoffset:0;stroke-opacity:1;visibility:visible;display:inline;overflow:visible;enable-background:accumulate" />
    <path
       style="fill:none;stroke:#80ff00;stroke-width:4;stroke-linecap:round;stroke-linejoin:round;stroke-miterlimit:4;stroke-opacity:1;stroke-dasharray:none;stroke-dashoffset:0;marker:none;visibility:visible;display:inline;overflow:visible;enable-background:accumulate"
       d="m 307.84283,284.17988 c -5.66075,-0.60478 -7.91897,-4.10323 -10.21319,-5.88629 -2.974,-2.31172 -5.42381,-5.06165 -8.16028,-7.59504 -5.44183,-5.03802 -12.17099,-8.06882 -18.15246,-12.30198 -4.90552,-3.47181 -9.7317,-7.06762 -14.65217,-10.3662 -3.93921,-2.64076 -6.94554,-7.21233 -10.55691,-9.48542 -3.27883,-2.0637 -5.87456,-5.06734 -7.67599,-8.40812 -1.4597,-2.70703 -2.28081,-5.28384 -2.5407,-8.92121"
       id="path2965"
       sodipodi:nodetypes="cssssssc" />
    <g
       id="g4230"
       transform="matrix(-0.92986249,-0.10798391,-0.09035455,1.1112908,498.56029,-6.6017505)"
       style="stroke-linecap:round;stroke-linejoin:round">
      <path
         sodipodi:nodetypes="csssssscc"
         id="path4202"
         d="M 45.222162,75.375534 C 54.337824,73.993356 57.023018,76.79414 66.048558,75.485163 77.899195,73.766462 83.705441,60.217782 85.158244,49.421527 86.729356,37.746082 74.692728,30.580889 67.407239,24.010788 61.453314,18.641499 54.779847,21.170136 51.218222,17.106449 47.25369,12.583055 38.29544,20.08661 32.69561,25.476123 c -6.167794,5.936146 -15.168926,12.28642 -12.889767,22.275542 2.045077,8.963187 4.336525,17.957138 10.992492,24.858193 3.929978,2.668096 11.149028,7.648128 14.423827,2.765676 z"
         style="fill:none;stroke:#ffff00;stroke-width:3.91648173;stroke-linecap:round;stroke-linejoin:round;stroke-miterlimit:4;stroke-opacity:1;stroke-dasharray:none" />
      <path
         id="path4215"
         d="M 31,81 C 28.148613,84.553942 24.105327,87.346267 24.536612,92.015165 21.832544,96.043458 21.188425,100.66969 20,105 c -1.284479,-0.52275 -1.919186,3.77422 -2,5"
         style="fill:none;stroke:#ffff00;stroke-width:3.91648173;stroke-linecap:round;stroke-linejoin:round;stroke-miterlimit:4;stroke-opacity:1;stroke-dasharray:none" />
      <path
         id="path4217"
         d="m 53.280734,83.999998 c 4.109561,4.16047 0.225882,10.218352 3.166602,14.792056 1.215413,5.697486 7.524659,9.190686 6.531011,15.084746 L 62.937021,115"
         style="fill:none;stroke:#ffff00;stroke-width:3.91648173;stroke-linecap:round;stroke-linejoin:round;stroke-miterlimit:4;stroke-opacity:1;stroke-dasharray:none" />
      <path
         id="path4219-0"
         d="m 76,78 c 3.400595,3.924314 5.608335,9.266142 10.25064,12 2.62092,4.847886 4.316418,10.49689 8.888485,13.99058 2.816275,3.7582 6.029785,7.79196 9.904355,10.00942"
         style="fill:none;stroke:#ffff00;stroke-width:3.91648173;stroke-linecap:round;stroke-linejoin:round;stroke-miterlimit:4;stroke-opacity:1;stroke-dasharray:none" />
      <path
         id="path4221"
         d="m 90,56.987967 c 14.33334,0.01397 28.66662,0.07609 43,0.05204"
         style="fill:none;stroke:#ffff00;stroke-width:3.91648173;stroke-linecap:round;stroke-linejoin:round;stroke-miterlimit:4;stroke-opacity:1;stroke-dasharray:none" />
      <path
         id="path4223"
         d="m 86.000002,33 c 5.268561,-0.876096 9.823061,-4.205192 14.951108,-4.876265 4.62153,1.300794 7.8844,-3.002146 12.17425,-3.773924 C 115.24759,22.885947 120.60982,23.2369 120.85644,21"
         style="fill:none;stroke:#ffff00;stroke-width:3.91648173;stroke-linecap:round;stroke-linejoin:round;stroke-miterlimit:4;stroke-opacity:1;stroke-dasharray:none" />
    </g>
    <path
       style="fill:none;stroke:#80ff00;stroke-width:3.99999976;stroke-linecap:round;stroke-linejoin:round;stroke-miterlimit:4;stroke-opacity:1;stroke-dasharray:none"
       d="m 279.01822,310.24063 c 0.42954,-4.26788 0.47915,-8.6466 2.88783,-12.56832 2.35117,-4.98715 4.35351,-10.14617 7.45856,-14.94352 1.37346,-3.24497 3.35661,-11.5918 5.53606,-5.10828 3.56894,4.3477 6.40062,8.84043 8.06058,13.78942 2.23076,5.0118 5.17137,10.52884 6.14962,15.33476 -0.70893,1.42861 1.24916,2.34069 0.79862,3.77354"
       id="path2956-1" />
    <path
       style="color:#000000;fill:none;stroke:#80ff00;stroke-width:3.99999976;stroke-linecap:round;stroke-linejoin:round;stroke-miterlimit:4;stroke-opacity:1;stroke-dasharray:none;stroke-dashoffset:0;marker:none;visibility:visible;display:inline;overflow:visible;enable-background:accumulate"
       d="m 247.89077,212.36578 c 0.58178,-1.16355 -4.41323,-2.965 -6.22946,-4.39839 -1.47601,-1.16488 -2.78227,-2.57323 -4.35728,-3.55863 -1.74696,-1.09297 -3.82602,-2.1163 -5.52305,-3.28479 -2.54744,-1.75404 -4.75742,-3.59609 -7.18563,-5.53495 -1.18714,-0.9479 -1.88438,-2.31063 -3.29068,-2.83737 -1.74634,-0.65409 -3.83239,-3.28043 -4.90725,-2.55989 -0.99913,0.66976 0.54867,3.3763 0.21972,5.03704 -0.1375,0.69417 0.88724,2.23434 1.23189,2.71158 0.5967,0.82623 1.38394,3.97341 2.79286,4.43715 0.67962,0.22369 2.49688,6.44831 2.6977,7.32892 0.47464,2.08136 3.65086,7.372 3.24188,7.76171 -0.95237,0.90749 -5.70867,0.67751 -6.59975,0.0311 -0.62333,-0.45217 -3.31524,0.18558 -5.90092,-0.0408 -2.77514,-0.24296 -8.87599,0.26505 -9.17267,0.62922 -1.37946,1.69324 2.97583,2.99912 3.74937,3.50655 2.11601,1.38807 4.0625,0.42987 6.52646,0.52154 2.95434,0.10992 6.04304,0.41449 9.00633,0.95751 2.44918,0.44881 1.98918,1.83608 2.82504,1.16993 1.54696,-1.23286 3.30369,-2.15294 4.91222,-3.2953 1.39021,-0.98732 3.17718,-1.29832 4.52615,-2.43498 1.45837,-1.22884 2.94918,-2.51842 4.65387,-3.36192 1.63206,-0.80757 3.34466,-1.52149 5.09216,-2.12391 0.85869,-0.29602 1.39733,-0.0739 1.69103,-0.6613 l 1e-5,-2e-5 z"
       id="path2870"
       sodipodi:nodetypes="cssssssssssssssssssssssss" />
    <path
       style="color:#000000;fill:none;stroke:#80ff00;stroke-width:3.99999976;stroke-linecap:round;stroke-linejoin:round;stroke-miterlimit:4;stroke-opacity:1;stroke-dasharray:none;stroke-dashoffset:0;marker:none;visibility:visible;display:inline;overflow:visible;enable-background:accumulate"
       d="m 226.26332,270.65847 c 1.9572,-4.32352 4.03347,-4.80722 4.44709,-7.99233 0.15862,-1.22147 2.6305,-4.2696 3.55766,-6.24056 1.0348,-2.19975 -0.0131,-2.71164 1.44531,-4.81728 0.61261,-0.8845 0.83678,-2.26748 1.77882,-3.50348 0.93916,-1.23223 2.72494,-1.17625 3.88167,-3.49233 1.46931,-2.94194 4.22783,-5.71064 4.45659,-5.48534 0.12252,0.12065 0.12723,5.13525 1.3274,9.29315 0.40332,1.3973 0.74935,5.97716 0.78497,6.36302 0.43806,4.74511 1.54136,6.4796 2.33472,11.16733 0.38888,2.29774 -2.29036,7.72958 -2.11166,9.01306 0.36716,2.63705 0.46308,3.85601 0.46308,5.67011"
       id="path2921"
       sodipodi:nodetypes="csssssssssss" />
    <path
       style="color:#000000;fill:none;stroke:#80ff00;stroke-width:4;stroke-linecap:round;stroke-linejoin:round;stroke-miterlimit:4;stroke-opacity:1;stroke-dasharray:none;stroke-dashoffset:0;marker:none;visibility:visible;display:inline;overflow:visible;enable-background:accumulate"
       d="m 307.53964,284.13298 c 15.97322,3.59701 42.75259,2.25921 49.04631,-12.15466 3.31954,-7.60248 5.38524,-16.35014 17.80428,-17.25976 16.27112,-1.19167 34.52724,-2.59501 49.19115,-1.10822 11.26581,1.14225 10.66032,1.75679 19.19198,4.81189 0.69563,0.2491 10.89807,0.21439 17.28475,-1.84973"
       id="path4125"
       sodipodi:nodetypes="csssss" />
    <path
       style="color:#000000;fill:none;stroke:#0000ff;stroke-width:4;stroke-linecap:round;stroke-linejoin:round;stroke-miterlimit:4;stroke-opacity:1;stroke-dasharray:none;stroke-dashoffset:0;marker:none;visibility:visible;display:inline;overflow:visible;enable-background:accumulate"
       d="m 173,248 c -6.99519,-0.005 -15.53912,1.38025 -22.48798,1.64199 -2.29307,0.0864 -7.78603,-0.64034 -10.08754,-0.50741 -2.92172,0.16876 -5.84696,1.84647 -8.75161,1.9835 -2.46976,0.11651 -0.76897,3.47801 0.44143,3.50593 2.82482,0.0651 6.69033,0.12848 9.53469,0.12379 5.41313,-0.009 7.83457,0.11538 13.19959,0.89049 2.83708,0.40988 7.25691,-0.70128 10.06607,-0.28373 2.9022,0.43137 7.35311,-0.30353 10.22563,0.19637"
       id="path2940"
       sodipodi:nodetypes="cssssssss" />
  </g>
</svg>
