<?xml version="1.0" encoding="UTF-8" standalone="no"?>
<!-- Created with Inkscape (http://www.inkscape.org/) -->

<svg
   xmlns:dc="http://purl.org/dc/elements/1.1/"
   xmlns:cc="http://creativecommons.org/ns#"
   xmlns:rdf="http://www.w3.org/1999/02/22-rdf-syntax-ns#"
   xmlns:svg="http://www.w3.org/2000/svg"
   xmlns="http://www.w3.org/2000/svg"
   xmlns:sodipodi="http://sodipodi.sourceforge.net/DTD/sodipodi-0.dtd"
   xmlns:inkscape="http://www.inkscape.org/namespaces/inkscape"
   width="480"
   height="320"
   id="svg2"
   version="1.1"
   inkscape:version="0.47 r22583"
   sodipodi:docname="itnas223.svg"
   inkscape:export-xdpi="90"
   inkscape:export-ydpi="90"
   inkscape:export-filename="itnas223.png">
  <defs
     id="defs4" />
  <sodipodi:namedview
     id="base"
     pagecolor="#ffffff"
     bordercolor="#666666"
     borderopacity="1.0"
     inkscape:pageopacity="1"
     inkscape:pageshadow="2"
     inkscape:zoom="1"
     inkscape:cx="249.66272"
     inkscape:cy="178.04878"
     inkscape:document-units="px"
     inkscape:current-layer="layer1"
     showgrid="false"
     inkscape:snap-nodes="true"
     inkscape:snap-global="false"
     inkscape:snap-grids="true"
     showguides="true"
     inkscape:window-width="1280"
     inkscape:window-height="998"
     inkscape:window-x="-4"
     inkscape:window-y="-4"
     inkscape:window-maximized="1">
    <inkscape:grid
       empspacing="5"
       visible="true"
       enabled="true"
       snapvisiblegridlinesonly="true"
       type="xygrid"
       id="grid2816" />
  </sodipodi:namedview>
  <metadata
     id="metadata7">
    <rdf:RDF>
      <cc:Work
         rdf:about="">
        <dc:format>image/svg+xml</dc:format>
        <dc:type
           rdf:resource="http://purl.org/dc/dcmitype/StillImage" />
        <dc:title></dc:title>
      </cc:Work>
    </rdf:RDF>
  </metadata>
  <g
     inkscape:label="Layer 1"
     inkscape:groupmode="layer"
     id="layer1"
     transform="translate(0,0)">
    <g
       id="g4206"
       transform="matrix(0.25296709,-0.96747489,0.96747489,0.25296709,-1756.5342,-66.555775)">
      <path
         sodipodi:open="true"
         inkscape:transform-center-y="29.238219"
         inkscape:transform-center-x="-32.091535"
         transform="matrix(-1.1013827,-0.07995262,0.0822745,-1.0703004,828.53981,2023.2186)"
         sodipodi:end="4.8040282"
         sodipodi:start="0.80631561"
         d="m 446.68696,263.77401 c -14.6488,14.04845 -37.91253,13.56176 -51.96097,-1.08705 -14.04845,-14.6488 -13.56176,-37.91253 1.08705,-51.96097 7.68698,-7.37195 18.19408,-11.04644 28.79999,-10.07179"
         sodipodi:ry="36.75"
         sodipodi:rx="36.75"
         sodipodi:cy="237.25"
         sodipodi:cx="421.25"
         id="path3750"
         style="color:#000000;fill:none;stroke:#ffff00;stroke-width:3.67391968;stroke-linecap:round;stroke-linejoin:round;stroke-miterlimit:4;stroke-opacity:1;stroke-dasharray:none;stroke-dashoffset:0;marker:none;visibility:visible;display:inline;overflow:visible;enable-background:accumulate"
         sodipodi:type="arc" />
      <path
         transform="matrix(1.1044514,0,0,1.0732825,-83.736369,1479.1493)"
         sodipodi:open="true"
         sodipodi:end="4.0435768"
         sodipodi:start="0.73974463"
         sodipodi:type="arc"
         style="color:#000000;fill:none;stroke:#ffff00;stroke-width:3.67391968;stroke-linecap:round;stroke-linejoin:round;stroke-miterlimit:4;stroke-opacity:1;stroke-dasharray:none;stroke-dashoffset:0;marker:none;visibility:visible;display:inline;overflow:visible;enable-background:accumulate"
         id="path3752"
         sodipodi:cx="421.25"
         sodipodi:cy="237.25"
         sodipodi:rx="36.75"
         sodipodi:ry="36.75"
         d="m 448.39505,262.02315 c -13.68184,14.99179 -36.9264,16.05373 -51.9182,2.3719 -14.99179,-13.68184 -16.05373,-36.9264 -2.3719,-51.9182 1.34047,-1.4688 2.79793,-2.82639 4.35805,-4.05938" />
      <path
         id="path3761"
         d="m 322.30831,1709.1094 c -8.13811,-0.029 -40.64404,0.3559 -45,-4"
         style="color:#000000;fill:none;stroke:#00ffff;stroke-width:4;stroke-linecap:butt;stroke-linejoin:miter;stroke-miterlimit:4;stroke-opacity:1;stroke-dasharray:none;stroke-dashoffset:0;marker:none;visibility:visible;display:inline;overflow:visible;enable-background:accumulate" />
      <path
         id="path3763"
         d="m 315.30831,1742.1094 c -12.71827,4.4482 -26.1705,6.7235 -39,11 -2.62235,0.8741 -2.19105,2 -5,2"
         style="color:#000000;fill:none;stroke:#00ffff;stroke-width:4;stroke-linecap:butt;stroke-linejoin:miter;stroke-miterlimit:4;stroke-opacity:1;stroke-dasharray:none;stroke-dashoffset:0;marker:none;visibility:visible;display:inline;overflow:visible;enable-background:accumulate" />
      <path
         id="path3765-5"
         d="m 333.30831,1772.1094 c -0.33333,1 -0.34151,2.1769 -1,3 -2.6092,3.2615 -9.6974,8.2846 -13,12 -3.60502,4.0556 -7.49494,7.8576 -11,12 -1.55265,1.8349 -2.39201,4.2133 -4,6 -1.42782,1.5864 -3.49077,2.4907 -5,4 -1.24693,1.2469 -5.46157,7 -6,7"
         style="color:#000000;fill:none;stroke:#00ffff;stroke-width:4;stroke-linecap:butt;stroke-linejoin:miter;stroke-miterlimit:4;stroke-opacity:1;stroke-dasharray:none;stroke-dashoffset:0;marker:none;visibility:visible;display:inline;overflow:visible;enable-background:accumulate" />
      <path
         id="path3767"
         d="m 363.30831,1790.1094 c -0.87511,6.823 1.34586,14.2707 0,21 -1.16414,5.8207 -4.04117,11.247 -5,17 -0.49191,2.9514 -4,5.3041 -4,8"
         style="color:#000000;fill:none;stroke:#00ffff;stroke-width:4;stroke-linecap:butt;stroke-linejoin:miter;stroke-miterlimit:4;stroke-opacity:1;stroke-dasharray:none;stroke-dashoffset:0;marker:none;visibility:visible;display:inline;overflow:visible;enable-background:accumulate" />
      <path
         id="path3775-1"
         d="m 392.41114,1789.5232 c 6.19095,12.9305 1.35984,26.5182 2.13665,39.7546 0.0586,0.9983 0.82537,1.9044 0.75968,2.9023 -0.2523,3.8325 -2.06593,7.9035 -1.08411,11.6543"
         style="color:#000000;fill:none;stroke:#00ffff;stroke-width:4;stroke-linecap:butt;stroke-linejoin:miter;stroke-miterlimit:4;stroke-opacity:1;stroke-dasharray:none;stroke-dashoffset:0;marker:none;visibility:visible;display:inline;overflow:visible;enable-background:accumulate" />
    </g>
    <path
       style="fill:none;stroke:#80ff00;stroke-width:4;stroke-linecap:round;stroke-linejoin:round;stroke-miterlimit:4;stroke-opacity:1;stroke-dasharray:none"
       d="m 480.73105,302.24099 c 6.54967,0.47456 11.94594,5.3291 17.77499,8.14814 5.28948,2.73643 8.74214,6.44031 13.4215,11.07548 3.8102,4.81079 9.6185,9.39644 17.0364,12.48509 6.30483,2.47216 12.9256,3.75085 19.95167,3.37311 4.01404,0.0283 8.1089,0.29611 11.67393,-1.30485 8.53302,-2.44271 15.63998,-6.91617 24.41077,-9.00615 3.43391,-1.41608 7.57443,-3.09371 8.27243,-3.44361 6.57345,-1.48243 8.80111,-8.14695 9.02342,-11.31045 -0.33697,0.27892 0.0957,-1.56591 0.50436,-1.76481"
       id="path4123"
       sodipodi:nodetypes="cccccccccc" />
    <path
       style="fill:none;stroke:#80ff00;stroke-width:4;stroke-linecap:round;stroke-linejoin:round;stroke-miterlimit:4;stroke-opacity:1;stroke-dasharray:none"
       d="m 438.29664,266.67996 c -1.96728,2.81162 -3.71263,5.84911 -6.92633,7.64587 -3.58983,2.56299 -7.00325,5.38228 -11.04518,7.51828 -2.22662,1.72875 -6.87209,6.78101 -5.86056,1.40329 -0.79292,-4.42952 -1.0146,-8.67226 -0.23989,-12.77575 0.40073,-4.37034 0.5033,-9.37074 1.69801,-13.10799 1.05304,-0.72036 0.0424,-2.12211 0.91673,-2.94637"
       id="path2956" />
    <path
       style="color:#000000;fill:none;stroke:#80ff00;stroke-width:4;stroke-linecap:round;stroke-linejoin:round;stroke-miterlimit:4;stroke-opacity:1;stroke-dasharray:none;stroke-dashoffset:0;marker:none;visibility:visible;display:inline;overflow:visible;enable-background:accumulate"
       d="m 405.39135,281.84877 c 2.47495,1.26269 4.55242,2.86388 7.41996,3.44444 2.97598,0.60286 5.84817,1.62442 8.79692,2.57881 3.2479,1.05119 7.60225,1.96612 11.24407,3.02998 4.54894,1.32883 8.50027,3.35539 13.14787,4.5862 5.6669,1.50084 11.7052,1.75507 17.58942,2.51187 2.95889,0.38063 5.90372,0.47399 8.84841,1.11404 2.27144,0.49388 6.48587,2.69713 8.66977,3.10565"
       id="path2833"
       sodipodi:nodetypes="csssssss" />
    <path
       style="color:#000000;fill:none;stroke:#80ff00;stroke-width:3.99999976;stroke-linecap:round;stroke-linejoin:round;stroke-miterlimit:4;stroke-opacity:1;stroke-dasharray:none;stroke-dashoffset:0;marker:none;visibility:visible;display:inline;overflow:visible;enable-background:accumulate"
       d="m 410.00661,267.67358 c -0.41472,-1.23298 -5.31458,0.15233 -7.62562,0.0415 -1.87817,-0.09 -3.75972,-0.47666 -5.61408,-0.36321 -2.05682,0.12603 -4.09686,0.54279 -6.15694,0.57835 -3.09247,0.0533 -6.20805,-0.20218 -9.31092,-0.36857 -1.51696,-0.0814 -2.87657,-0.78455 -4.32691,-0.39632 -1.80128,0.48283 -5.02527,-0.44182 -5.48113,0.76917 -0.42373,1.12581 2.40888,2.42855 3.10646,3.97119 2.24211,4.95808 4.85783,5.35077 7.70701,7.45248 2.01126,1.48359 4.29309,2.07241 6.13111,3.71589 2.01562,1.80236 3.36779,4.16654 5.36006,5.99606 1.25356,1.15123 2.80593,1.81859 4.10747,2.86476 1.94529,1.56354 1.72684,-1.43494 2.01985,-2.46278 0.54223,-1.9024 1.43699,-3.67219 2.08192,-5.53672 0.55721,-1.61149 1.83074,-2.90311 2.26782,-4.6121 0.47248,-1.84759 0.93608,-3.76347 1.83295,-5.44072 0.8587,-1.60577 1.83735,-3.1821 2.90923,-4.68805 0.52667,-0.73992 1.20103,-0.89856 0.99169,-1.52099 z"
       id="path2870"
       sodipodi:nodetypes="csssssssssssssssss" />
    <path
       style="fill:none;stroke:#80ff00;stroke-width:4;stroke-linecap:round;stroke-linejoin:round;stroke-miterlimit:4;stroke-opacity:1;stroke-dasharray:none"
       d="m 489.27211,272.10747 c -0.27963,0.54898 -2.82319,3.29538 -3.56777,4.75701 -2.39769,4.5764 -5.59957,5.84548 -8.10713,11.92157 -3.85994,4.28161 -5.90748,6.11509 -9.52211,9.39556 -0.57438,-4.03882 -0.9607,-8.11804 -1.58193,-12.14389 -0.49485,-6.16637 -2.00291,-5.95029 -4.00172,-13.0169 -0.88065,-1.32891 -1.40306,-3.61835 -3.81334,-6.28065"
       id="path2958-6"
       sodipodi:nodetypes="ccccccc" />
    <path
       style="color:#000000;fill:none;stroke:#008000;stroke-width:4;stroke-linecap:butt;stroke-linejoin:miter;stroke-miterlimit:4;stroke-opacity:1;stroke-dasharray:none;stroke-dashoffset:0;marker:none;visibility:visible;display:inline;overflow:visible;enable-background:accumulate"
       d="m 509.27741,313.43549 c -31.01476,-10.19393 -64.45224,-8.69407 -96.40909,-14.62074 -28.4376,-4.24651 -56.12932,-14.39214 -84.95198,-13.83856 -20.78568,-0.023 -40.34943,-6.23326 -60.90768,-8.67896 -26.75482,-7.2815 -53.49108,-12.00556 -81.44388,-15.55609 -29.36011,-6.7829 -62.15572,-7.23113 -91.468717,-13.62253 -21.041934,-3.91008 -44.138456,4.36411 -63.844984,-4.76718 -10.79649,-3.24357 -20.5798217,-10.39755 -32.0720849,-11.22574"
       id="path4190"
       sodipodi:nodetypes="cccccccc" />
    <path
       style="fill:none;stroke:#80ff00;stroke-width:3.99999976;stroke-linecap:round;stroke-linejoin:round;stroke-miterlimit:4;stroke-opacity:1;stroke-dasharray:none"
       d="m 145.20483,193.60267 c -0.0606,1.87254 -2.64263,-0.73915 -2.62223,1.47606 -1.84103,2.28008 -4.90251,2.59876 -6.70748,4.94161 -1.50118,1.24086 -3.50539,1.53793 -4.97971,2.82796 -1.58892,1.29149 -3.4796,1.90393 -5.3446,2.58245 -1.59152,0.67277 -2.96427,1.75323 -4.4772,2.56571 -0.76864,1.40118 -1.97203,1.77535 -2.82868,3.11114 -1.03975,1.60612 -3.15178,1.77489 -3.92982,3.7272 0.44462,0.74593 2.32168,0.72041 3.33082,1.16317 2.92538,0.78132 5.85085,1.56452 8.77619,2.34175 1.75605,-0.0892 3.6914,0.76011 5.27094,-0.0832 1.40796,-0.29021 2.93061,0.13557 4.38087,0.15753 1.62948,0.2278 3.47665,0.31197 5.15882,0.35539 1.7597,0.2516 3.49767,0.22 5.28454,0.87746 1.4005,0.51184 3.16356,1.12433 2.80394,-1.29254 0.10439,-1.75174 -1.08514,-3.46942 -0.97282,-5.23162 -0.3851,-2.01762 -0.22358,-3.98711 -1.28629,-6.04204 -0.17946,-2.09949 -0.85161,-4.36237 -0.65087,-6.39425 -0.50559,-1.83991 -0.57358,-3.77333 -0.79356,-5.57198 0.006,-0.44537 0.16091,-1.29313 -0.41279,-1.51084 z"
       id="path2942" />
    <path
       style="fill:none;stroke:#80ff00;stroke-width:3.99999976;stroke-linecap:round;stroke-linejoin:round;stroke-miterlimit:4;stroke-opacity:1;stroke-dasharray:none"
       d="m 129.1963,211.42992 c 0.75882,0.13155 3.14395,1.88465 5.16437,2.23381 6.35071,1.17272 9.66037,3.11883 17.88921,1.85271 4.44594,-1.38901 15.58593,-4.70947 14.70273,-8.48017 0.18174,-1.83216 -6.30934,-6.09782 -13.85689,-6.06695 -6.82603,-3.40003 -10.35012,-0.94267 -17.85246,2.01239 -1.97181,1.31384 -4.613,1.17062 -6.90414,2.65636"
       id="path2958"
       sodipodi:nodetypes="ccccccc" />
    <path
       style="color:#000000;fill:none;stroke:#80ff00;stroke-width:4;stroke-linecap:round;stroke-linejoin:round;stroke-miterlimit:4;stroke-opacity:1;stroke-dasharray:none;stroke-dashoffset:0;marker:none;visibility:visible;display:inline;overflow:visible;enable-background:accumulate"
       d="m 249.2343,210.47236 c 18.19862,4.7826 28.50351,19.87832 47.5917,16.97556 9.40958,-5.22283 3.39476,-21.12294 -7.51288,-27.17128 -14.291,-7.9243 -31.15972,-23.95077 -45.93962,-24.3101 -11.35493,-0.27609 -10.13212,-1.43373 -19.27225,0.61935 -3.07395,0.69046 -10.50907,-2.80742 -17.3519,-2.43486"
       id="path4125"
       sodipodi:nodetypes="ccssss" />
    <path
       style="fill:none;stroke:#80ff00;stroke-width:3.99999952;stroke-linecap:round;stroke-linejoin:round;stroke-miterlimit:4;stroke-opacity:1;stroke-dasharray:none"
       d="m 203.50223,221.04542 c 4.27653,-0.33372 9.24058,-2.68976 13.44833,-3.24362 5.51246,-0.11376 9.3739,-1.68818 14.23968,-4.6848 3.27508,-1.30036 12.98854,-3.32574 6.55556,-5.65004 -4.25166,-1.45593 -5.79801,-3.08135 -10.92651,-4.40849 -4.96051,-2.34262 -8.45349,-3.75835 -13.1383,-2.30737 -3.47621,-0.006 -10.22569,-1.17799 -11.26589,-0.0945"
       id="path2956-7"
       sodipodi:nodetypes="ccccccc" />
    <path
       style="fill:none;stroke:#80ff00;stroke-width:3.99999976;stroke-linecap:round;stroke-linejoin:round;stroke-miterlimit:4;stroke-opacity:1;stroke-dasharray:none"
       d="m 148.66507,208.50187 c 6.25751,0.37048 11.23875,-0.76748 17.29791,-1.12409 12.40627,0.45841 22.16636,2.1229 34.49747,1.28274 7.65502,1.27258 17.71398,-0.34441 24.7253,0.17985 6.43601,0.36507 17.456,-0.24451 23.39172,1.53073"
       id="path2952-1" />
    <g
       id="g5839"
       transform="matrix(0.99096509,-0.13412004,0.13412004,0.99096509,-44.463936,61.889684)">
      <path
         sodipodi:nodetypes="cccccsccccccc"
         id="path2905"
         d="m 372.35141,148.12934 c -3.25757,0.66479 -4.93151,2.32603 -6.5794,2.8003 -2.91646,1.62925 -1.95205,1.62523 -4.77598,3.93389 -0.74885,2.50734 -2.67935,4.14559 -2.91583,7.03047 -0.10871,3.94861 1.49019,8.18996 3.21578,11.29434 1.94021,1.97932 2.13662,4.84447 6.26406,4.91644 2.07245,0.0361 4.53079,1.06274 6.50579,0.8189 2.44708,-1.58932 6.69541,-2.00984 9.29935,-3.57436 1.9845,-2.00292 2.71089,-4.56997 3.66378,-6.80078 0.8825,-3.54698 0.35207,-7.27041 1.23441,-10.81728 -1.03914,-1.61568 -1.19786,-3.78507 -2.64196,-4.57723 -0.63599,-1.08619 -2.85021,-2.99312 -3.82555,-3.92133 -2.62577,-1.96237 -6.28261,-1.28939 -9.44445,-1.10336 z"
         style="fill:none;stroke:#0000ff;stroke-width:4;stroke-linecap:round;stroke-linejoin:round;stroke-miterlimit:4;stroke-opacity:1;stroke-dasharray:none" />
      <path
         sodipodi:nodetypes="ccccc"
         id="path2907"
         d="m 367.10233,180.29293 c -0.20627,3.37032 -3.64376,6.63354 -3.04082,8.11131 -2.50457,4.50776 -3.15959,9.98768 -5.7212,14.45808 -0.7021,3.98643 -2.57063,7.60005 -4.16307,11.40574 -0.49001,1.96857 -2.72999,3.93702 -3.21998,5.90547"
         style="fill:none;stroke:#0000ff;stroke-width:4;stroke-linecap:round;stroke-linejoin:round;stroke-miterlimit:4;stroke-opacity:1;stroke-dasharray:none" />
      <path
         d="m 351.50394,222.6614 c 0.84242,2.77049 2.43462,8.9611 3.7205,13.15569 0.72005,5.79218 3.7616,10.04207 4.71881,15.66221 1.97446,3.88189 3.01238,7.88441 4.2214,12.43348 1.14903,2.62725 -0.0742,8.32332 0.97891,9.21826 0.20068,0.31653 0.33246,3.43548 -0.22117,1.78879 m -13.96513,-54.7463 c -3.40068,2.79488 -7.08664,5.40389 -9.66889,9.01569 -3.78407,3.41393 -6.434,7.98255 -10.48316,11.0535 -1.63981,4.73055 -6.5223,7.13478 -8.70482,11.5518 -2.05728,2.9977 -4.29251,4.92905 -5.95637,8.31634 -1.12486,1.03467 -0.82719,2.55226 -0.18213,-0.82931"
         style="fill:none;stroke:#0000ff;stroke-width:4;stroke-linecap:round;stroke-linejoin:round;stroke-miterlimit:4;stroke-opacity:1;stroke-dasharray:none"
         id="path2909" />
      <path
         sodipodi:nodetypes="ccccccc"
         id="path2911"
         d="m 344.5694,204.51185 c 2.03045,-3.86262 5.81754,-7.06747 9.7092,-11.73259 1.29321,-4.26204 2.71215,-4.24864 5.88066,-8.73332 1.49706,-0.47012 5.06891,-4.99788 7.29394,-1.46191 1.10871,3.79084 1.89555,7.23224 2.83995,9.86995 1.55783,4.36411 1.0974,6.75094 1.91914,10.6158 0.42571,2.63233 -0.40125,6.33896 -0.40533,8.95525"
         style="fill:none;stroke:#0000ff;stroke-width:4;stroke-linecap:round;stroke-linejoin:round;stroke-miterlimit:4;stroke-opacity:1;stroke-dasharray:none" />
    </g>
    <g
       id="g5825"
       transform="matrix(0.99282262,-0.11959614,0.11959614,0.99282262,-14.974919,38.501196)">
      <path
         sodipodi:nodetypes="cssssssssssssssssss"
         id="path4914"
         d="m 265.49169,55.235478 c -7.18995,11.32606 -12.90249,24.374398 -24.12816,32.612148 -26.27541,19.281694 -22.87867,24.543144 -45.05792,15.425974 -9.787,-4.023107 -22.0635,-6.748324 -31.74524,-12.591641 -9.617,-5.804238 -20.75261,-7.067105 -22.84717,-9.05369 -6.2107,-5.890512 -14.43124,-15.317794 -22.57201,-22.588999 -4.56537,-4.077702 -9.40176,-6.376943 -12.62423,-11.437259 -4.01922,-6.311462 33.99135,-7.980786 45.706,-13.166344 23.82834,-10.547755 34.14907,-9.480879 57.77107,-11.272962 18.46006,-1.400473 43.34154,4.211335 47.79359,0.35898 16.55027,-14.3209241 22.45867,-23.28317712 36.16998,-34.192794 13.86543,-11.032253 54.52093,-26.450282 60.1762,-29.983733 30.32284,-18.945883 53.25957,-38.205134 46.07571,6.779327 -2.05343,12.858323 -11.02879,28.9356461 -15.24892,41.1723989 -5.72287,16.5941751 -8.60154,31.1504901 -20.67929,48.9501701 -5.42448,7.994344 -7.18488,6.991367 -12.00798,15.833727 -2.8522,5.229036 -20.5289,-3.166697 -29.58793,-5.378283 -18.36349,-4.483105 -35.68489,-9.962603 -50.75207,-12.940452 -2.90991,-0.575112 -4.37093,-1.788467 -6.44163,1.473432 z"
         style="color:#000000;fill:none;stroke:#ff0000;stroke-width:4;stroke-linecap:round;stroke-linejoin:round;stroke-miterlimit:4;stroke-opacity:1;stroke-dasharray:none;stroke-dashoffset:0;marker:none;visibility:visible;display:inline;overflow:visible;enable-background:accumulate" />
      <path
         sodipodi:nodetypes="cccccsccccccc"
         style="fill:none;stroke:#0000ff;stroke-width:4;stroke-linecap:round;stroke-linejoin:round;stroke-miterlimit:4;stroke-opacity:1;stroke-dasharray:none"
         d="m 275.05116,95.12533 c -3.23549,-0.74546 -4.00858,-1.33853 -5.3922,-2.78573 -2.30924,-2.30783 -1.38372,-2.94935 -4.05828,-5.42951 -1.59114,-2.17414 -2.41579,-5.67952 -2.47202,-8.57352 -1.18069,-4.03003 2.3967,-5.73589 4.41341,-9.32198 2.09561,-1.84007 3.46924,-4.21533 6.38912,-4.5166 2.0619,-0.21201 4.25738,-1.15321 6.21334,-0.78675 2.2033,1.20225 6.89212,2.2671 8.80852,4.64696 0.59874,2.39844 2.66254,4.31833 3.47455,6.60419 0.65974,3.59509 -0.42924,6.81492 0.23034,10.40988 -1.13781,1.54778 -2.34563,4.07806 -3.83629,4.77868 -0.70245,1.04444 -2.92104,3.67034 -3.95233,4.53596 -2.74296,1.79492 -6.33225,1.40695 -9.81816,0.43842 z"
         id="path4851" />
      <path
         style="fill:none;stroke:#0000ff;stroke-width:4;stroke-linecap:round;stroke-linejoin:round;stroke-miterlimit:4;stroke-opacity:1;stroke-dasharray:none"
         d="m 273.2799,61.91067 c 0.004,-3.37662 -3.22326,-6.84773 -2.5294,-8.28505 -2.21877,-4.655089 -3.56021,-9.728465 -5.83824,-14.349825 -2.21447,-3.881979 -2.80937,-8.291248 -4.16154,-12.18878 -0.36637,-1.995288 -0.73272,-3.990446 -1.09908,-5.985607"
         id="path4853" />
      <path
         id="path4855"
         style="fill:none;stroke:#0000ff;stroke-width:4;stroke-linecap:round;stroke-linejoin:round;stroke-miterlimit:4;stroke-opacity:1;stroke-dasharray:none"
         d="m 260.3523,18.652449 c 1.01344,-2.712608 2.98836,-8.791956 4.53315,-12.898256 1.07963,-5.73604 4.38012,-9.78812 5.68573,-15.33768 2.21255,-3.75129 3.49789,-7.68134 4.98807,-12.14623 1.31053,-2.55053 0.44466,-8.31176 1.55151,-9.13933 0.22002,-0.30339 0.54591,-3.40808 -0.10927,-1.79909 m -17.34985,53.769545 c -3.21989,-3.001384 -6.73609,-5.835032 -9.08823,-9.600745 -3.56395,-3.64312 -5.924,-8.368 -9.77391,-11.68533 -1.3418,-4.82355 -6.06497,-7.5274 -7.96797,-12.07185 -1.86646,-3.12009 -3.97698,-5.18698 -5.4265,-8.67138 -1.0582,-1.10277 -0.66653,-2.59886 -0.23347,0.81634" />
      <path
         sodipodi:nodetypes="ccc"
         id="path2859"
         d="m 235.24069,62.455819 c 6.62285,-8.6629 2.69061,-5.19428 9.66348,-12.69881 5.15399,-9.3874 -2.37968,-9.82965 -7.79755,-11.02819"
         style="color:#000000;fill:none;stroke:#808080;stroke-width:4;stroke-linecap:round;stroke-linejoin:round;stroke-miterlimit:4;stroke-opacity:1;stroke-dasharray:none;stroke-dashoffset:0;marker:none;visibility:visible;display:inline;overflow:visible;enable-background:accumulate" />
      <path
         sodipodi:nodetypes="cccccccc"
         style="fill:none;stroke:#0000ff;stroke-width:4;stroke-linecap:round;stroke-linejoin:round;stroke-miterlimit:4;stroke-opacity:1;stroke-dasharray:none"
         d="m 243.76274,45.223374 c 4.93265,1.252152 9.65675,1.282698 15.02166,4.486707 2.83735,2.792639 6.68303,5.876669 9.13699,8.227639 1.46485,0.5625 3.41042,5.0986 5.85149,1.70817 1.3428,-3.71437 2.34258,-7.10005 3.44953,-9.673776 1.82679,-4.258536 1.23988,-5.655166 1.89506,-7.745665 -1.60064,-2.132683 -6.20728,-6.393929 -7.59825,-8.677973 -0.52445,-1.251651 -2.1638,-2.03947 -2.24579,-3.286"
         id="path4857" />
    </g>
    <g
       id="g5851"
       transform="matrix(0.99282262,-0.11959614,0.11959614,0.99282262,-12.974919,59.501196)">
      <path
         id="path4859"
         d="m 56.019581,205.48444 c -3.114768,0.34265 -4.032363,3.09387 -5.047919,4.81939 -2.320755,2.40297 -1.430447,3.23784 -3.466167,6.26444 0.0081,2.61677 -1.366162,4.74326 -0.758343,7.57327 -0.226698,4.19331 3.338177,7.5471 6.344275,9.88199 2.461219,1.31144 4.743025,2.82962 7.654323,2.45441 2.055671,-0.26567 4.408325,0.1479 6.228434,-0.65661 2.094283,-2.62323 6.65821,-3.82091 7.868531,-6.11067 0.03375,-2.47182 -0.131286,-4.91892 0.135843,-7.32998 -0.180841,-3.65063 -0.360363,-7.30132 -0.541341,-10.95181 -1.461907,-1.24621 -2.241177,-3.27701 -3.852644,-3.61775 -0.922899,-0.85589 -3.082775,-0.34883 -4.284848,-0.95536 -3.081044,-1.11927 -6.744878,-0.60221 -10.280144,-1.37132 z"
         style="fill:none;stroke:#0000ff;stroke-width:4;stroke-linecap:round;stroke-linejoin:round;stroke-miterlimit:4;stroke-opacity:1;stroke-dasharray:none" />
      <path
         sodipodi:nodetypes="ccccc"
         id="path4861"
         d="m 60.704101,239.14565 c 0.7771,3.28599 -1.569949,7.40379 -0.565457,8.64408 0.516386,3.96576 2.618752,10.18858 0.253692,16.01242 -1.266911,4.28586 -1.366887,7.65355 -2.674725,12.11069 -0.269169,2.01071 -1.03714,4.05221 -0.937002,6.07825"
         style="fill:none;stroke:#0000ff;stroke-width:4;stroke-linecap:round;stroke-linejoin:round;stroke-miterlimit:4;stroke-opacity:1;stroke-dasharray:none" />
      <path
         sodipodi:nodetypes="cccccsccccccc"
         d="m 58.023331,284.2146 c 1.809375,2.40854 5.189416,7.87429 7.365662,11.51787 3.436187,4.47702 5.278525,9.59222 9.046115,13.62864 3.845335,5.356 5.193426,8.19929 7.636329,10.68167 1.859639,2.18277 2.335741,7.98922 3.602644,8.5414 0.239608,0.20691 1.010348,2.34233 0.637484,2.14687 -0.06854,-0.0359 -0.17573,-0.15062 -0.331966,-0.37054 m -29.19899,-48.36942 c -2.095762,4.0103 -3.823019,8.6205 -6.648863,11.4264 -2.635243,4.36229 -2.613464,8.61812 -4.894544,13.96616 -3.737417,4.26455 -6.125128,8.57607 -6.937191,13.22186 -1.102581,3.46452 -2.683853,5.9597 -3.297166,9.68341 -0.777623,1.31574 -0.05384,2.68243 -0.414156,-0.74121"
         style="fill:none;stroke:#0000ff;stroke-width:4;stroke-linecap:round;stroke-linejoin:round;stroke-miterlimit:4;stroke-opacity:1;stroke-dasharray:none"
         id="path4863" />
      <path
         id="path4865"
         d="m 40.745883,265.62216 c 3.653742,-3.57171 7.287159,-7.23364 10.792855,-10.81548 3.261592,-2.34814 4.798464,-6.7142 6.649019,-9.56454 1.297169,-0.88293 -0.137723,-6.74625 3.014719,-4.00472 2.157509,3.3083 3.905845,6.37516 5.572618,8.62712 2.753216,3.72721 4.849843,7.93764 8.668602,10.82147 2.046406,1.70955 3.670093,3.16282 5.547027,5.06776 0.79707,1.09833 2.573242,1.48992 2.938467,2.68454"
         style="fill:none;stroke:#0000ff;stroke-width:4;stroke-linecap:round;stroke-linejoin:round;stroke-miterlimit:4;stroke-opacity:1;stroke-dasharray:none" />
    </g>
    <path
       style="color:#000000;fill:none;stroke:#808080;stroke-width:3.99999976;stroke-linecap:round;stroke-linejoin:round;stroke-miterlimit:4;stroke-opacity:1;stroke-dasharray:none;stroke-dashoffset:0;marker:none;visibility:visible;display:inline;overflow:visible;enable-background:accumulate"
       d="m 176.91402,296.77738 c 10.87762,1.3894 10.5358,0.8765 20.11421,4.2328 10.10668,3.54145 19.36173,3.42822 22.1012,4.0047"
       id="path2859-1"
       sodipodi:nodetypes="csc" />
    <g
       id="g5845"
       transform="matrix(-0.48102493,-0.87670691,0.87670691,-0.48102493,63.81025,632.97741)">
      <path
         sodipodi:nodetypes="cccccsccccccc"
         id="path4875"
         d="m 166.31695,249.91836 c -0.78578,3.03343 -1.41997,5.25679 -1.1199,7.23637 -0.2856,3.32845 0.29483,3.72181 1.97451,6.89989 0.61275,3.11727 2.55656,5.02619 4.81304,6.83914 2.4334,3.32414 6.2092,3.82707 9.8165,3.33208 2.73712,-0.53442 5.4654,-0.79526 7.48813,-2.92248 1.42779,-1.50259 3.5144,-2.66536 4.41956,-4.43757 1.30098,-3.17046 2.06419,-6.91475 1.37972,-9.48021 -1.53268,-1.93957 -1.59411,-5.68762 -2.90735,-7.72721 -2.44263,-2.71908 -5.62121,-3.71038 -8.06386,-6.42924 -1.92047,-0.0452 -2.95612,0.22681 -5.19472,-0.21865 -1.13853,-0.53672 -4.16443,-0.32593 -5.47982,-0.0385 -3.09696,1.07445 -4.81796,3.4027 -7.12581,6.94642 z"
         style="fill:none;stroke:#0000ff;stroke-width:4;stroke-linecap:round;stroke-linejoin:round;stroke-miterlimit:4;stroke-opacity:1;stroke-dasharray:none" />
      <path
         sodipodi:nodetypes="ccccc"
         id="path4877"
         d="m 190.93932,273.39994 c 2.67541,2.06005 2.81385,7.04282 4.37558,7.37189 2.10885,4.3048 2.89013,5.3269 7.31363,13.62036 2.11772,3.93331 7.17133,6.17021 8.22019,10.20524 1.35555,1.50928 2.711,3.01846 4.06645,4.52762"
         style="fill:none;stroke:#0000ff;stroke-width:4;stroke-linecap:round;stroke-linejoin:round;stroke-miterlimit:4;stroke-opacity:1;stroke-dasharray:none" />
      <path
         d="m 217.28191,310.06688 c 2.76651,0.85538 8.7856,3.00697 12.98002,4.29338 5.20026,2.65052 10.42462,2.51402 15.61534,4.87168 4.32146,0.5409 8.21784,1.92497 12.66274,3.47375 2.81978,0.52116 6.85113,4.72707 8.18256,4.35661 0.37461,0.0112 3.03135,1.65043 1.35735,1.18587 M 214.9152,309.12504 c 0.40826,4.38283 0.50268,8.89774 2.04622,13.06074 0.70599,5.04734 3.00394,9.80274 3.27731,14.87735 2.99827,4.00967 2.2524,9.40065 4.68682,13.68398 1.32925,3.38405 1.67569,6.31771 3.54811,9.59433 0.22629,1.51151 1.6499,2.11567 -0.78887,-0.31403"
         style="fill:none;stroke:#0000ff;stroke-width:4;stroke-linecap:round;stroke-linejoin:round;stroke-miterlimit:4;stroke-opacity:1;stroke-dasharray:none"
         id="path4879" />
      <path
         sodipodi:nodetypes="ccccccc"
         id="path4881"
         d="m 200.51923,306.91902 c -0.75065,-5.05405 -5.73418,-11.73932 -6.57984,-16.67942 0.0105,-4.0189 -3.48717,-7.61535 -3.84861,-10.99445 0.44986,-1.50328 -1.23293,-4.99099 2.94251,-4.8515 3.76079,1.2068 6.60756,3.63983 8.60946,5.59988 3.30798,3.24493 6.04402,7.07084 10.27078,9.31452 2.29099,1.36442 4.12406,2.54263 6.27861,4.12681"
         style="fill:none;stroke:#0000ff;stroke-width:4;stroke-linecap:round;stroke-linejoin:round;stroke-miterlimit:4;stroke-opacity:1;stroke-dasharray:none" />
    </g>
    <g
       id="g5833"
       transform="matrix(0.99096509,-0.13412004,0.13412004,0.99096509,-58.462435,62.09467)">
      <path
         sodipodi:nodetypes="cccccsccccccc"
         style="fill:none;stroke:#0000ff;stroke-width:4;stroke-linecap:round;stroke-linejoin:round;stroke-miterlimit:4;stroke-opacity:1;stroke-dasharray:none"
         d="m 469.64699,128.85918 c -2.34175,2.03526 -3.71544,2.67638 -4.71735,4.25952 -2.15637,2.55151 -1.38945,3.50231 -3.04329,6.30363 -1.05586,2.61049 -0.6952,5.35372 -0.25467,7.78367 0.11623,3.87696 4.01791,6.552 6.80859,10.50037 2.54273,1.14541 5.09694,1.44834 7.97697,0.88097 2.03353,-0.40134 4.40843,-0.14464 6.17121,-1.06803 1.91578,-2.75627 6.39028,-4.25385 7.44616,-6.61881 -0.13017,-2.46862 -0.45706,-4.89939 -0.35033,-7.32286 -0.42243,-3.63061 -0.84356,-7.26138 -1.26612,-10.89183 -1.5413,-1.14657 -2.45347,-3.12124 -4.08398,-3.35442 -0.9776,-0.79284 -3.09912,-0.14372 -4.33875,-0.66923 -3.14846,-0.91258 -6.76996,-0.8609 -10.34844,0.19702 z"
         id="path4883" />
      <path
         sodipodi:nodetypes="ccccc"
         style="fill:none;stroke:#0000ff;stroke-width:4;stroke-linecap:round;stroke-linejoin:round;stroke-miterlimit:4;stroke-opacity:1;stroke-dasharray:none"
         d="m 475.47764,204.32697 c 1.22532,-3.14646 1.22203,-6.29997 2.13904,-8.63896 -0.43302,-5.09406 -0.1886,-7.21895 0.4978,-13.48996 -0.66028,-4.42014 -1.11994,-8.24602 -0.9707,-12.36875 0.38019,-1.9927 0.0103,-6.48526 0.3905,-8.47785"
         id="path4885" />
      <path
         sodipodi:nodetypes="ccccccccccc"
         id="path4887"
         style="fill:none;stroke:#0000ff;stroke-width:4;stroke-linecap:round;stroke-linejoin:round;stroke-miterlimit:4;stroke-opacity:1;stroke-dasharray:none"
         d="m 476.86512,206.39947 c 1.76366,2.29669 5.43294,7.53073 8.11293,11.00429 2.71271,5.1681 7.05549,8.07546 9.92962,12.99903 3.21446,2.93852 5.59477,6.31957 8.3276,10.152 2.00024,2.05469 2.86018,7.81681 4.1609,8.2838 0.29927,0.2256 1.5204,3.09861 0.42259,1.75217 m -32.34103,-46.32753 c -2.19932,3.813 -4.73109,7.55243 -5.87681,11.842 -2.34029,4.52738 -3.46258,8.73637 -4.42172,14.28602 -2.61982,4.00501 -4.09363,8.22392 -4.58178,13.12648 -0.87051,3.53 -1.78291,8.6245 -2.14804,12.38069" />
      <path
         style="fill:none;stroke:#0000ff;stroke-width:4;stroke-linecap:round;stroke-linejoin:round;stroke-miterlimit:4;stroke-opacity:1;stroke-dasharray:none"
         d="m 458.89213,188.96004 c 3.40894,-3.80604 6.79163,-7.70075 10.0522,-11.5071 3.09875,-2.55919 4.34284,-7.01752 6.00038,-9.98424 1.2358,-0.96699 -0.5846,-6.7223 2.74263,-4.19577 2.37207,3.15803 4.31985,6.10225 6.13222,8.23876 2.99423,3.5365 5.36534,7.59871 9.36687,10.22306 2.15523,1.57013 3.87167,2.91257 5.87075,4.68891 0.86813,1.04308 2.66634,1.31609 3.10995,2.48386"
         id="path4889" />
    </g>
    <g
       id="g5806"
       transform="matrix(0.99282262,-0.11959614,0.11959614,0.99282262,-12.974919,59.501196)">
      <path
         inkscape:transform-center-y="10.257343"
         inkscape:transform-center-x="16.604829"
         sodipodi:nodetypes="cccccccc"
         style="fill:none;stroke:#0000ff;stroke-width:4;stroke-linecap:round;stroke-linejoin:round;stroke-miterlimit:4;stroke-opacity:1;stroke-dasharray:none"
         d="m 359.76985,74.925923 c 3.68191,3.58551 8.71503,4.720074 13.74917,9.048284 4.32339,4.367401 10.05072,6.687535 13.23115,8.752184 1.49734,1.622209 4.12592,3.091383 5.21194,8.044529 2.13711,5.18391 -0.0307,8.19614 -1.52271,11.35231 -0.40477,6.37834 -1.68944,7.18325 -2.01307,13.94923 -0.29121,3.42918 -0.59501,5.99166 -1.10378,8.73496 -0.40416,1.0732 -0.0196,3.4481 -0.6475,3.80773"
         id="path4897" />
      <path
         sodipodi:nodetypes="cccccsccccccc"
         style="fill:none;stroke:#0000ff;stroke-width:4;stroke-linecap:round;stroke-linejoin:round;stroke-miterlimit:4;stroke-opacity:1;stroke-dasharray:none"
         d="m 353.56265,107.44744 c -0.84417,-3.01771 0.9094,-4.62582 2.13143,-6.21183 1.36362,-3.049708 2.13838,-2.749704 5.48013,-4.272994 2.43088,-0.968692 4.40285,-2.518176 6.5913,-3.439212 3.80596,-1.774795 7.12696,0.121976 10.4148,2.039888 2.135,1.794241 5.01098,1.954579 5.74903,4.795648 0.52047,2.00636 2.00957,6.15868 1.94221,8.14755 -0.41438,3.62771 -2.37444,4.68328 -3.26589,7.63613 -1.83133,1.71461 -4.89684,3.31823 -7.06171,4.07129 -2.02962,2.00674 -6.32136,1.3363 -10.05133,2.37322 -1.70165,-0.89146 -3.87656,-0.85676 -4.79391,-2.22477 -1.13844,-0.53689 -2.38709,-2.19072 -3.39831,-3.07971 -2.18795,-2.44098 -2.7084,-6.45507 -3.73774,-9.83523 z"
         id="path4867" />
      <path
         sodipodi:nodetypes="cccccccccccc"
         id="path5758"
         d="m 441.01962,37.344416 c 4.82867,8.994278 7.1492,17.674501 12.91844,20.555093 3.43017,6.273835 8.18047,15.7783 10.3169,23.787247 3.08591,9.752271 7.8533,12.143549 11.07284,18.745654 -5.57399,2.60528 -11.14797,2.75906 -16.72196,4.0907 -5.66709,1.42263 -14.72425,-2.69074 -23.80966,-2.54998 -7.05372,-5.099134 -19.82806,-7.472758 -20.18569,-8.422347 -1.4986,-3.082794 -8.30404,-11.410869 -7.55638,-13.839262 2.21978,-7.773543 4.33037,-10.216921 6.38925,-15.944297 3.68701,-7.788914 3.87331,-19.534429 6.97875,-24.035276 4.48112,-5.671697 9.98742,-10.367871 15.18943,-16.071135 3.15122,-1.862652 4.79965,9.293012 5.40808,13.683603 z"
         style="color:#000000;fill:none;stroke:#ffff00;stroke-width:4;stroke-linecap:butt;stroke-linejoin:round;stroke-miterlimit:4;stroke-opacity:1;stroke-dasharray:none;stroke-dashoffset:0;marker:none;visibility:visible;display:inline;overflow:visible;enable-background:accumulate" />
      <path
         sodipodi:nodetypes="ccc"
         style="fill:none;stroke:#0000ff;stroke-width:4;stroke-linecap:round;stroke-linejoin:round;stroke-miterlimit:4;stroke-opacity:1;stroke-dasharray:none"
         d="m 386.08446,99.504783 c 3.33866,-0.504963 6.28348,-4.218857 7.80898,-3.749636 4.26734,-2.895235 11.05394,-5.836494 15.71214,-7.612749"
         id="path4869" />
      <path
         sodipodi:nodetypes="cccccc"
         inkscape:transform-center-y="-17.233831"
         inkscape:transform-center-x="-25.94805"
         id="path4871"
         style="fill:none;stroke:#0000ff;stroke-width:4;stroke-linecap:round;stroke-linejoin:round;stroke-miterlimit:4;stroke-opacity:1;stroke-dasharray:none"
         d="m 466.4187,77.532308 c 4.33186,0.450029 2.32834,-1.056664 7.00825,-1.56056 2.86461,0.129793 4.13159,-1.861615 5.34479,-1.199767 M 450.84366,51.801226 c 2.16236,-2.322561 3.14709,-2.673181 5.62397,-4.743353 2.76506,-2.360704 3.77816,-3.635139 6.972,-5.645525" />
      <path
         sodipodi:nodetypes="cccccccc"
         id="path5718"
         d="m 311.08042,136.16806 c 5.36317,-1.96435 10.49367,-0.91286 15.36996,-1.34844 0.21538,-0.68819 2.70546,-0.18198 3.61162,-0.1091 4.26151,0.48698 8.7575,-0.0865 13.16704,-0.27768 6.06265,-1.07076 7.2482,1.18671 11.31965,-0.89105 6.22037,-1.31438 9.57531,-1.98415 15.68278,-2.43535 4.26657,0.91734 11.06014,0.52634 15.2225,2.24598 3.04476,0.4548 6.25167,0.36559 9.29173,0.8132"
         style="color:#000000;fill:none;stroke:#c87137;stroke-width:4;stroke-linecap:round;stroke-linejoin:round;stroke-miterlimit:4;stroke-opacity:1;stroke-dasharray:none;stroke-dashoffset:0;marker:none;visibility:visible;display:inline;overflow:visible;enable-background:accumulate" />
      <path
         style="color:#000000;fill:none;stroke:#808080;stroke-width:3.99999976;stroke-linecap:round;stroke-linejoin:round;stroke-miterlimit:4;stroke-opacity:1;stroke-dasharray:none;stroke-dashoffset:0;marker:none;visibility:visible;display:inline;overflow:visible;enable-background:accumulate"
         d="m 309.73912,142.77659 c 1.8695,-2.88311 0.0195,-7.74608 1.08456,-12.78767 0,0 -2.34464,1.93336 -8.58116,3.55567 -4.50639,3.38353 7.49656,9.23201 7.49656,9.23201 z"
         id="path5756"
         sodipodi:nodetypes="cccc" />
    </g>
    <g
       id="g5815"
       transform="matrix(0.97677802,-0.21425379,0.21425379,0.97677802,-59.520788,69.88332)">
      <path
         sodipodi:nodetypes="cccccsccccccc"
         style="fill:none;stroke:#0000ff;stroke-width:4;stroke-linecap:round;stroke-linejoin:round;stroke-miterlimit:4;stroke-opacity:1;stroke-dasharray:none"
         d="m 120.51265,76.966658 c -3.09859,0.593909 -4.6904,0.366578 -6.11412,1.774345 -2.85892,1.728216 -2.21221,2.763309 -4.95536,5.167374 -0.66253,2.531531 -2.53575,4.234963 -2.67323,7.126251 -1.2934,3.995284 1.29329,8.150434 3.60089,11.177522 2.0431,1.89821 3.85982,3.9503 6.77009,4.33345 2.05513,0.26984 4.22331,1.27233 6.18879,0.96096 2.69642,-1.99915 6.35421,-2.69474 8.11076,-4.59802 2.25686,-1.85036 4.13845,-4.081284 5.01436,-6.343439 0.76045,-3.575126 -0.42236,-7.14998 0.33791,-10.724996 -1.09385,-1.579154 -1.32685,-3.74181 -2.79724,-4.48402 -0.67283,-1.063774 -2.89053,-2.364408 -3.8971,-3.258651 -2.69147,-1.871247 -6.3655,-1.24941 -9.58575,-1.130776 z"
         id="path4891" />
      <path
         style="fill:none;stroke:#0000ff;stroke-width:4;stroke-linecap:round;stroke-linejoin:round;stroke-miterlimit:4;stroke-opacity:1;stroke-dasharray:none"
         d="m 116.41722,109.11361 c -0.0907,3.37542 -3.41431,6.7545 -2.76111,8.21074 -2.34862,4.59094 -3.83203,9.62464 -6.239,14.18018 -2.32262,3.81826 -3.04112,8.20907 -4.50223,12.0671 -0.42226,1.98421 -0.84452,3.96829 -1.26676,5.95236"
         id="path4893" />
      <path
         sodipodi:nodetypes="cccccccccc"
         id="path4895"
         style="fill:none;stroke:#0000ff;stroke-width:4;stroke-linecap:round;stroke-linejoin:round;stroke-miterlimit:4;stroke-opacity:1;stroke-dasharray:none"
         d="m 102.27977,151.99168 c 0.93685,2.74 3.80091,8.69564 5.22975,12.8437 0.9181,5.76412 4.45704,7.96275 5.60627,13.54678 0.69217,0.93308 -2.74912,9.72468 0.75587,15.10998 0.827,3.39522 3.10554,8.77909 3.60933,10.97461 m -15.83284,-54.94274 c -3.30291,2.90977 -8.311514,6.35066 -10.768484,10.04881 -2.621217,4.2487 -3.223386,6.78411 -7.269823,11.40622 -1.934633,3.1814 -5.52134,6.71803 -10.071647,10.9594 -1.95336,3.06644 -4.474653,6.31067 -6.021473,9.753" />
      <path
         sodipodi:nodetypes="cccccccc"
         inkscape:transform-center-y="15.996378"
         inkscape:transform-center-x="6.9008453"
         style="fill:none;stroke:#0000ff;stroke-width:4;stroke-linecap:round;stroke-linejoin:round;stroke-miterlimit:4;stroke-opacity:1;stroke-dasharray:none"
         d="m 92.283897,135.43225 c 4.11362,-3.35757 3.704223,-9.77353 7.671808,-13.14942 1.919825,-3.86599 7.386075,-5.487 9.608225,-8.22546 1.40919,-0.80813 3.56079,-4.70466 6.33518,-1.79695 1.70822,3.41747 3.1183,6.24164 3.82712,8.85126 2.05324,4.08668 2.97502,4.08115 3.12136,8.48658 -0.51245,2.18631 -2.83665,8.53555 -4.1529,10.74677 -0.48006,1.21917 -1.6522,2.42133 -1.68372,3.64919"
         id="path4873" />
    </g>
  </g>
</svg>
