<?xml version="1.0" encoding="UTF-8" standalone="no"?>
<!-- Created with Inkscape (http://www.inkscape.org/) -->

<svg
   xmlns:dc="http://purl.org/dc/elements/1.1/"
   xmlns:cc="http://creativecommons.org/ns#"
   xmlns:rdf="http://www.w3.org/1999/02/22-rdf-syntax-ns#"
   xmlns:svg="http://www.w3.org/2000/svg"
   xmlns="http://www.w3.org/2000/svg"
   xmlns:sodipodi="http://sodipodi.sourceforge.net/DTD/sodipodi-0.dtd"
   xmlns:inkscape="http://www.inkscape.org/namespaces/inkscape"
   width="480"
   height="320"
   id="svg2"
   version="1.1"
   inkscape:version="0.47 r22583"
   sodipodi:docname="itnas067.svg"
   inkscape:export-xdpi="90"
   inkscape:export-ydpi="90"
   inkscape:export-filename="itnas067.png">
  <defs
     id="defs4" />
  <sodipodi:namedview
     id="base"
     pagecolor="#ffffff"
     bordercolor="#666666"
     borderopacity="1.0"
     inkscape:pageopacity="1"
     inkscape:pageshadow="2"
     inkscape:zoom="1"
     inkscape:cx="332.59368"
     inkscape:cy="218.94751"
     inkscape:document-units="px"
     inkscape:current-layer="layer1"
     showgrid="false"
     inkscape:snap-nodes="true"
     inkscape:snap-global="false"
     inkscape:snap-grids="true"
     showguides="true"
     inkscape:window-width="1280"
     inkscape:window-height="774"
     inkscape:window-x="-4"
     inkscape:window-y="-4"
     inkscape:window-maximized="1">
    <inkscape:grid
       empspacing="5"
       visible="true"
       enabled="true"
       snapvisiblegridlinesonly="true"
       type="xygrid"
       id="grid2816" />
  </sodipodi:namedview>
  <metadata
     id="metadata7">
    <rdf:RDF>
      <cc:Work
         rdf:about="">
        <dc:format>image/svg+xml</dc:format>
        <dc:type
           rdf:resource="http://purl.org/dc/dcmitype/StillImage" />
        <dc:title></dc:title>
      </cc:Work>
    </rdf:RDF>
  </metadata>
  <g
     inkscape:label="Layer 1"
     inkscape:groupmode="layer"
     id="layer1"
     transform="translate(0,0)">
    <path
       style="color:#000000;fill:none;stroke:#808080;stroke-width:4;stroke-linecap:butt;stroke-linejoin:miter;stroke-miterlimit:4;stroke-opacity:1;stroke-dasharray:none;stroke-dashoffset:0;marker:none;visibility:visible;display:inline;overflow:visible;enable-background:accumulate"
       d="m 614.8387,122.45985 c -12.32771,-2.3382 -22.28413,4.46055 -34.06799,6.51341 -17.18546,4.81391 -34.482,9.77103 -51.75582,13.93292 -13.73986,-0.52135 -25.96995,7.16084 -39.55159,8.03149 -10.81853,5.09493 -23.18089,3.8356 -34.31571,8.01881 -17.62031,-0.33287 -30.34256,9.64802 -48.90538,14.41505 -23.93673,8.06401 -45.03629,22.19367 -68.17979,23.61982 -31.02274,7.59874 -55.13147,8.02551 -90.99666,13.63662 -6.68274,1.04551 -25.26087,3.54729 -24.40158,7.52532 1.82469,8.44731 34.74701,0.74228 51.93902,3.47362 29.82126,-0.30237 59.66704,0.068 89.47595,-0.73566 20.56183,2.53426 41.1265,6.03695 61.80026,7.37424 13.17374,-1.91538 26.01279,1.09129 39.03681,2.4476 21.43871,1.80412 42.85852,2.93763 64.36256,3.46963 17.93097,-0.98217 35.78047,1.85534 53.74012,0.7071 5.66605,-0.005 11.30473,0.70782 16.97056,0.70711"
       id="path2833"
       sodipodi:nodetypes="cccccccssccccccc" />
    <path
       style="fill:none;stroke:#008000;stroke-width:4;stroke-linecap:butt;stroke-linejoin:miter;stroke-opacity:1;color:#000000;stroke-miterlimit:4;stroke-dasharray:none;stroke-dashoffset:0;marker:none;visibility:visible;display:inline;overflow:visible;enable-background:accumulate"
       d="m -25.455844,314.34315 c 18.9746261,-0.76801 36.604599,-10.82955 55.861436,-7.77818 19.402467,-8.70123 41.81719,0.80775 62.64165,-4.42246 17.414748,1.97604 34.217548,-5.41328 51.705358,-3.7087 19.60774,-0.73524 36.17067,-10.98914 55.44996,-12.82631 21.98437,-7.25698 45.15953,-4.82342 67.87573,-4.88613 21.01064,-3.87738 42.25315,-8.31474 63.55479,-8.80463 26.0236,1.41057 50.9212,3.78352 75.51028,1.70604 12.47586,1.14962 38.13647,2.85621 59.07621,5.73766 16.67614,6.44834 32.95264,9.00323 52.98873,15.8382 5.38425,-1.6138 15.23953,2.69 20.98574,5.78307"
       id="path2852"
       sodipodi:nodetypes="ccccccccccc" />
    <path
       style="fill:none;stroke:#80ff00;stroke-width:3.99999976;stroke-linecap:round;stroke-linejoin:round;stroke-miterlimit:4;stroke-opacity:1;stroke-dasharray:none"
       d="m 207.59818,177.18156 c 0.85118,1.66901 2.07749,-1.79276 3.00101,0.22086 2.63588,1.28073 5.54227,0.26728 8.17219,1.62017 1.88634,0.48471 3.82666,-0.0987 5.7096,0.44193 1.98727,0.49321 3.95895,0.24351 5.93545,0.0645 1.72655,-0.0679 3.42846,0.32628 5.14328,0.41824 1.29153,0.94132 2.53981,0.76821 3.88318,1.61295 1.62406,1.01149 3.60738,0.26611 5.14178,1.70222 -0.0852,0.86419 -1.79494,1.6393 -2.52,2.46918 -2.31545,1.95116 -4.63016,3.9041 -6.9473,5.85153 -1.62733,0.66594 -3.01777,2.25771 -4.80628,2.16556 -1.39775,0.33602 -2.59477,1.36889 -3.89802,2.0055 -1.37794,0.89912 -3.01396,1.76081 -4.518,2.51543 -1.48568,0.97604 -3.07212,1.6865 -4.40979,3.04142 -1.04991,1.05882 -2.38515,2.36289 -3.08743,0.0225 -0.83939,-1.54107 -0.49316,-3.60155 -1.34424,-5.1487 -0.50943,-1.98987 -1.49317,-3.7037 -1.40521,-6.01548 -0.73038,-1.97655 -1.08427,-4.31048 -2.13003,-6.06407 -0.32473,-1.88029 -1.08545,-3.65909 -1.65122,-5.38054 -0.19471,-0.40061 -0.69555,-1.10198 -0.26884,-1.54299 z"
       id="path2942" />
    <path
       style="fill:none;stroke:#80ff00;stroke-width:3.99999976;stroke-linecap:round;stroke-linejoin:round;stroke-miterlimit:4;stroke-opacity:1;stroke-dasharray:none"
       d="m 141.8259,260.1922 c -7.58491,2.71574 -15.93195,3.67753 -23.75834,5.7403 -7.14466,2.09057 -12.26747,5.80795 -19.11827,10.37413 -5.82647,4.98974 -14.05044,9.22482 -23.89071,11.23791 -8.327033,1.52327 -15.601591,0.64051 -23.285402,-3.63921 -5.056418,-2.4264 -7.684147,-3.81795 -11.009715,-7.3962 -8.883834,-7.16508 -13.734009,-13.84625 -19.916833,-23.26943 -1.998801,-4.43459 -4.105277,-7.66739 -4.449437,-8.58068 -4.834678,-7.01773 -8.84683,-12.10254 -8.362059,-16.03691 0.346631,0.4229 0.257587,-1.94405 -0.19618,-2.28594"
       id="path4123"
       sodipodi:nodetypes="cccccccccc" />
    <path
       style="fill:none;stroke:#80ff00;stroke-width:3.99999976;stroke-linecap:round;stroke-linejoin:round;stroke-miterlimit:4;stroke-opacity:1;stroke-dasharray:none"
       d="m 210.8562,191.35397 c -4.33098,0.46158 -8.96101,5.96999 -13.20997,10.30442 -10.78298,7.42097 -13.36289,17.80561 -21.69295,26.85396 -4.06878,6.60785 -11.18826,13.48382 -15.39845,19.11478 -4.65945,4.3855 -14.58627,11.75868 -18.80722,12.63262"
       id="path2952-1"
       sodipodi:nodetypes="ccccc" />
    <path
       style="fill:none;stroke:#80ff00;stroke-width:3.99999976;stroke-linecap:round;stroke-linejoin:round;stroke-miterlimit:4;stroke-opacity:1;stroke-dasharray:none"
       d="m 234.00652,223.71043 c -4.67925,-0.021 -12.36337,-2.81402 -17.08747,-2.84715 -5.20826,-2.11973 -11.36346,-6.68449 -14.48734,-10.33966 -3.41078,-1.34181 -10.98748,-5.83649 -3.48144,-4.33419 5.32922,0.50291 10.71601,1.22758 16.445,2.3752 5.87886,1.03056 12.41846,2.04894 17.89287,3.31507 1.48697,0.6157 2.77472,0.43169 4.3027,0.98686"
       id="path2956"
       sodipodi:nodetypes="ccccccc" />
    <path
       style="fill:none;stroke:#80ff00;stroke-width:3.99999976;stroke-linecap:round;stroke-linejoin:round;stroke-miterlimit:4;stroke-opacity:1;stroke-dasharray:none"
       d="m 137.86316,294.77228 c 0.16278,-0.75274 1.39111,-6.91834 1.82463,-8.92234 1.43749,-6.29605 5.37218,-8.43946 8.71223,-16.06583 1.20936,-4.4981 6.04552,-13.09628 7.11509,-15.40969 1.98292,4.698 3.75188,9.50451 5.78692,14.17205 2.5657,7.29478 6.14647,13.20032 13.27697,17.48651 0,0 2.32589,1.3981 2.32589,1.3981"
       id="path2958"
       sodipodi:nodetypes="cccccsc" />
    <g
       id="g4230"
       transform="translate(-10.5,-9.319559)"
       style="stroke-linecap:round;stroke-linejoin:round">
      <path
         sodipodi:nodetypes="csssssscc"
         id="path4202"
         d="m 38.671573,25.944544 c -5.430479,7.450879 -9.310018,7.388925 -14.729121,14.724258 -7.115345,9.631376 -1.570906,23.289283 5.079989,31.916876 7.192509,9.330178 20.752507,5.816368 30.547182,5.260564 8.004509,-0.45422 10.902131,-6.975949 16.295781,-6.648434 6.003807,0.364567 6.973067,-11.28078 7.082161,-19.052076 C 83.067723,43.58623 84.88679,32.72173 76.184121,27.314266 68.375262,22.462176 60.371218,17.763541 50.784197,17.639118 46.123264,18.55518 37.505395,20.182367 38.671573,25.944544 z"
         style="fill:none;stroke:#ffff00;stroke-width:4;stroke-linecap:round;stroke-linejoin:round;stroke-miterlimit:4;stroke-opacity:1;stroke-dasharray:none" />
      <path
         id="path4215"
         d="M 31,81 C 28.148613,84.553942 24.105327,87.346267 24.536612,92.015165 21.832544,96.043458 21.188425,100.66969 20,105 c -1.284479,-0.52275 -1.919186,3.77422 -2,5"
         style="fill:none;stroke:#ffff00;stroke-width:4;stroke-linecap:round;stroke-linejoin:round;stroke-miterlimit:4;stroke-opacity:1;stroke-dasharray:none" />
      <path
         id="path4217"
         d="m 53.280734,83.999998 c 4.109561,4.16047 0.225882,10.218352 3.166602,14.792056 1.215413,5.697486 7.524659,9.190686 6.531011,15.084746 L 62.937021,115"
         style="fill:none;stroke:#ffff00;stroke-width:4;stroke-linecap:round;stroke-linejoin:round;stroke-miterlimit:4;stroke-opacity:1;stroke-dasharray:none" />
      <path
         id="path4219-0"
         d="m 76,78 c 3.400595,3.924314 5.608335,9.266142 10.25064,12 2.62092,4.847886 4.316418,10.49689 8.888485,13.99058 2.816275,3.7582 6.029785,7.79196 9.904355,10.00942"
         style="fill:none;stroke:#ffff00;stroke-width:4;stroke-linecap:round;stroke-linejoin:round;stroke-miterlimit:4;stroke-opacity:1;stroke-dasharray:none" />
      <path
         id="path4221"
         d="m 90,56.987967 c 14.33334,0.01397 28.66662,0.07609 43,0.05204"
         style="fill:none;stroke:#ffff00;stroke-width:4;stroke-linecap:round;stroke-linejoin:round;stroke-miterlimit:4;stroke-opacity:1;stroke-dasharray:none" />
      <path
         id="path4223"
         d="m 86.000002,33 c 5.268561,-0.876096 9.823061,-4.205192 14.951108,-4.876265 4.62153,1.300794 7.8844,-3.002146 12.17425,-3.773924 C 115.24759,22.885947 120.60982,23.2369 120.85644,21"
         style="fill:none;stroke:#ffff00;stroke-width:4;stroke-linecap:round;stroke-linejoin:round;stroke-miterlimit:4;stroke-opacity:1;stroke-dasharray:none" />
    </g>
  </g>
</svg>
